<?xml version="1.0" encoding="UTF-8" standalone="no"?>
<!DOCTYPE svg PUBLIC "-//W3C//DTD SVG 1.1//EN"
 "http://www.w3.org/Graphics/SVG/1.1/DTD/svg11.dtd">
<!-- Generated by graphviz version 2.36.0 (20140111.2315)
 -->
<!-- Title: CellularAutomata Pages: 1 -->
<svg width="274pt" height="140pt"
 viewBox="0.00 0.00 274.00 140.00" xmlns="http://www.w3.org/2000/svg" xmlns:xlink="http://www.w3.org/1999/xlink">
<g id="graph0" class="graph" transform="scale(1 1) rotate(0) translate(4 136)">
<title>CellularAutomata</title>
<polygon fill="white" stroke="none" points="-4,4 -4,-136 270,-136 270,4 -4,4"/>
<!-- Node1 -->
<g id="node1" class="node"><title>Node1</title>
<polygon fill="#bfbfbf" stroke="black" points="37,-112.5 37,-131.5 137,-131.5 137,-112.5 37,-112.5"/>
<text text-anchor="middle" x="87" y="-119.5" font-family="Helvetica,sans-Serif" font-size="10.00">CellularAutomata</text>
</g>
<!-- Node2 -->
<g id="node2" class="node"><title>Node2</title>
<g id="a_node2"><a xlink:href="../../d9/df1/class_fire.html" target="_top" xlink:title="Fire">
<polygon fill="white" stroke="black" points="-0.5,-56.5 -0.5,-75.5 32.5,-75.5 32.5,-56.5 -0.5,-56.5"/>
<text text-anchor="middle" x="16" y="-63.5" font-family="Helvetica,sans-Serif" font-size="10.00">Fire</text>
</a>
</g>
</g>
<!-- Node1&#45;&gt;Node2 -->
<g id="edge1" class="edge"><title>Node1&#45;&gt;Node2</title>
<path fill="none" stroke="midnightblue" d="M67.4103,-106.101C54.6324,-96.3824 38.3873,-84.0269 27.6149,-75.8339"/>
<polygon fill="midnightblue" stroke="midnightblue" points="65.5143,-109.056 75.5926,-112.324 69.7519,-103.484 65.5143,-109.056"/>
</g>
<!-- Node3 -->
<g id="node3" class="node"><title>Node3</title>
<g id="a_node3"><a xlink:href="../../d8/d84/class_game_of_life.html" target="_top" xlink:title="GameOfLife">
<polygon fill="white" stroke="black" points="50.5,-56.5 50.5,-75.5 123.5,-75.5 123.5,-56.5 50.5,-56.5"/>
<text text-anchor="middle" x="87" y="-63.5" font-family="Helvetica,sans-Serif" font-size="10.00">GameOfLife</text>
</a>
</g>
</g>
<!-- Node1&#45;&gt;Node3 -->
<g id="edge2" class="edge"><title>Node1&#45;&gt;Node3</title>
<path fill="none" stroke="midnightblue" d="M87,-101.805C87,-92.9102 87,-82.7798 87,-75.7511"/>
<polygon fill="midnightblue" stroke="midnightblue" points="83.5001,-102.083 87,-112.083 90.5001,-102.083 83.5001,-102.083"/>
</g>
<!-- Node4 -->
<g id="node4" class="node"><title>Node4</title>
<g id="a_node4"><a xlink:href="../../da/de8/class_move_cellular_automata.html" target="_top" xlink:title="MoveCellularAutomata">
<polygon fill="white" stroke="black" points="141.5,-56.5 141.5,-75.5 266.5,-75.5 266.5,-56.5 141.5,-56.5"/>
<text text-anchor="middle" x="204" y="-63.5" font-family="Helvetica,sans-Serif" font-size="10.00">MoveCellularAutomata</text>
</a>
</g>
</g>
<!-- Node1&#45;&gt;Node4 -->
<g id="edge3" class="edge"><title>Node1&#45;&gt;Node4</title>
<path fill="none" stroke="midnightblue" d="M114.664,-108.232C136.549,-98.1312 166.497,-84.3091 185.548,-75.5164"/>
<polygon fill="midnightblue" stroke="midnightblue" points="113.152,-105.075 105.539,-112.444 116.085,-111.431 113.152,-105.075"/>
</g>
<!-- Node5 -->
<g id="node5" class="node"><title>Node5</title>
<g id="a_node5"><a xlink:href="../../da/d1e/class_segregation.html" target="_top" xlink:title="Segregation">
<polygon fill="white" stroke="black" points="127.5,-0.5 127.5,-19.5 202.5,-19.5 202.5,-0.5 127.5,-0.5"/>
<text text-anchor="middle" x="165" y="-7.5" font-family="Helvetica,sans-Serif" font-size="10.00">Segregation</text>
</a>
</g>
</g>
<!-- Node4&#45;&gt;Node5 -->
<g id="edge4" class="edge"><title>Node4&#45;&gt;Node5</title>
<path fill="none" stroke="midnightblue" d="M191.618,-47.8554C184.865,-38.5048 176.791,-27.3265 171.32,-19.7511"/>
<polygon fill="midnightblue" stroke="midnightblue" points="188.868,-50.0254 197.56,-56.083 194.542,-45.927 188.868,-50.0254"/>
</g>
<!-- Node6 -->
<g id="node6" class="node"><title>Node6</title>
<g id="a_node6"><a xlink:href="../../d0/db0/class_wator.html" target="_top" xlink:title="Wator">
<polygon fill="white" stroke="black" points="220,-0.5 220,-19.5 264,-19.5 264,-0.5 220,-0.5"/>
<text text-anchor="middle" x="242" y="-7.5" font-family="Helvetica,sans-Serif" font-size="10.00">Wator</text>
</a>
</g>
</g>
<!-- Node4&#45;&gt;Node6 -->
<g id="edge5" class="edge"><title>Node4&#45;&gt;Node6</title>
<path fill="none" stroke="midnightblue" d="M216.065,-47.8554C222.645,-38.5048 230.511,-27.3265 235.842,-19.7511"/>
<polygon fill="midnightblue" stroke="midnightblue" points="213.168,-45.8907 210.275,-56.083 218.892,-49.9192 213.168,-45.8907"/>
</g>
</g>
</svg>
