<?xml version="1.0" encoding="UTF-8" standalone="no"?>
<!DOCTYPE svg PUBLIC "-//W3C//DTD SVG 1.1//EN"
 "http://www.w3.org/Graphics/SVG/1.1/DTD/svg11.dtd">
<!-- Generated by graphviz version 2.36.0 (20140111.2315)
 -->
<!-- Title: CellularAutomata Pages: 1 -->
<svg width="286pt" height="84pt"
 viewBox="0.00 0.00 286.00 84.00" xmlns="http://www.w3.org/2000/svg" xmlns:xlink="http://www.w3.org/1999/xlink">
<g id="graph0" class="graph" transform="scale(1 1) rotate(0) translate(4 80)">
<title>CellularAutomata</title>
<polygon fill="white" stroke="none" points="-4,4 -4,-80 282,-80 282,4 -4,4"/>
<!-- Node1 -->
<g id="node1" class="node"><title>Node1</title>
<polygon fill="#bfbfbf" stroke="black" points="83,-56.5 83,-75.5 183,-75.5 183,-56.5 83,-56.5"/>
<text text-anchor="middle" x="133" y="-63.5" font-family="Helvetica,sans-Serif" font-size="10.00">CellularAutomata</text>
</g>
<!-- Node2 -->
<g id="node2" class="node"><title>Node2</title>
<g id="a_node2"><a xlink:href="../../d9/df1/class_fire.html" target="_top" xlink:title="Fire">
<polygon fill="white" stroke="black" points="-0.5,-0.5 -0.5,-19.5 32.5,-19.5 32.5,-0.5 -0.5,-0.5"/>
<text text-anchor="middle" x="16" y="-7.5" font-family="Helvetica,sans-Serif" font-size="10.00">Fire</text>
</a>
</g>
</g>
<!-- Node1&#45;&gt;Node2 -->
<g id="edge1" class="edge"><title>Node1&#45;&gt;Node2</title>
<path fill="none" stroke="midnightblue" d="M105.354,-52.2401C82.7279,-41.7975 51.4765,-27.3738 32.5605,-18.6433"/>
<polygon fill="midnightblue" stroke="midnightblue" points="103.915,-55.4308 114.461,-56.4435 106.848,-49.075 103.915,-55.4308"/>
</g>
<!-- Node3 -->
<g id="node3" class="node"><title>Node3</title>
<g id="a_node3"><a xlink:href="../../d8/d84/class_game_of_life.html" target="_top" xlink:title="GameOfLife">
<polygon fill="white" stroke="black" points="50.5,-0.5 50.5,-19.5 123.5,-19.5 123.5,-0.5 50.5,-0.5"/>
<text text-anchor="middle" x="87" y="-7.5" font-family="Helvetica,sans-Serif" font-size="10.00">GameOfLife</text>
</a>
</g>
</g>
<!-- Node1&#45;&gt;Node3 -->
<g id="edge2" class="edge"><title>Node1&#45;&gt;Node3</title>
<path fill="none" stroke="midnightblue" d="M118.886,-48.4314C110.824,-38.9673 101.041,-27.4827 94.4546,-19.7511"/>
<polygon fill="midnightblue" stroke="midnightblue" points="116.255,-50.7402 125.404,-56.083 121.584,-46.2009 116.255,-50.7402"/>
</g>
<!-- Node4 -->
<g id="node4" class="node"><title>Node4</title>
<g id="a_node4"><a xlink:href="../../da/d1e/class_segregation.html" target="_top" xlink:title="Segregation">
<polygon fill="white" stroke="black" points="141.5,-0.5 141.5,-19.5 216.5,-19.5 216.5,-0.5 141.5,-0.5"/>
<text text-anchor="middle" x="179" y="-7.5" font-family="Helvetica,sans-Serif" font-size="10.00">Segregation</text>
</a>
</g>
</g>
<!-- Node1&#45;&gt;Node4 -->
<g id="edge3" class="edge"><title>Node1&#45;&gt;Node4</title>
<path fill="none" stroke="midnightblue" d="M147.114,-48.4314C155.176,-38.9673 164.959,-27.4827 171.545,-19.7511"/>
<polygon fill="midnightblue" stroke="midnightblue" points="144.416,-46.2009 140.596,-56.083 149.745,-50.7402 144.416,-46.2009"/>
</g>
<!-- Node5 -->
<g id="node5" class="node"><title>Node5</title>
<g id="a_node5"><a xlink:href="../../d0/db0/class_wator.html" target="_top" xlink:title="Wator">
<polygon fill="white" stroke="black" points="234,-0.5 234,-19.5 278,-19.5 278,-0.5 234,-0.5"/>
<text text-anchor="middle" x="256" y="-7.5" font-family="Helvetica,sans-Serif" font-size="10.00">Wator</text>
</a>
</g>
</g>
<!-- Node1&#45;&gt;Node5 -->
<g id="edge4" class="edge"><title>Node1&#45;&gt;Node5</title>
<path fill="none" stroke="midnightblue" d="M161.773,-52.3678C184.807,-42.2553 216.484,-28.3486 236.601,-19.5164"/>
<polygon fill="midnightblue" stroke="midnightblue" points="160.239,-49.2188 152.49,-56.4435 163.053,-55.6283 160.239,-49.2188"/>
</g>
</g>
</svg>
