<?xml version="1.0" encoding="UTF-8" standalone="no"?>
<!DOCTYPE svg PUBLIC "-//W3C//DTD SVG 1.1//EN"
 "http://www.w3.org/Graphics/SVG/1.1/DTD/svg11.dtd">
<!-- Generated by graphviz version 2.36.0 (20140111.2315)
 -->
<!-- Title: Shark.breed Pages: 1 -->
<svg width="210pt" height="104pt"
 viewBox="0.00 0.00 210.00 104.00" xmlns="http://www.w3.org/2000/svg" xmlns:xlink="http://www.w3.org/1999/xlink">
<g id="graph0" class="graph" transform="scale(1 1) rotate(0) translate(4 100)">
<title>Shark.breed</title>
<polygon fill="white" stroke="none" points="-4,4 -4,-100 206,-100 206,4 -4,4"/>
<!-- Node1 -->
<g id="node1" class="node"><title>Node1</title>
<polygon fill="#bfbfbf" stroke="black" points="0.5,-38.5 0.5,-57.5 75.5,-57.5 75.5,-38.5 0.5,-38.5"/>
<text text-anchor="middle" x="38" y="-45.5" font-family="Helvetica,sans-Serif" font-size="10.00">Shark.breed</text>
</g>
<!-- Node2 -->
<g id="node2" class="node"><title>Node2</title>
<g id="a_node2"><a xlink:href="../../dc/d06/class_mover.html#aa8711e427647a7c980d42a89588270ba" target="_top" xlink:title="Mover.getState">
<polygon fill="white" stroke="black" points="112,-76.5 112,-95.5 202,-95.5 202,-76.5 112,-76.5"/>
<text text-anchor="middle" x="157" y="-83.5" font-family="Helvetica,sans-Serif" font-size="10.00">Mover.getState</text>
</a>
</g>
</g>
<!-- Node1&#45;&gt;Node2 -->
<g id="edge1" class="edge"><title>Node1&#45;&gt;Node2</title>
<path fill="none" stroke="midnightblue" d="M68.524,-57.589C83.2119,-62.3594 101.16,-68.1888 116.968,-73.3229"/>
<polygon fill="midnightblue" stroke="midnightblue" points="115.893,-76.6538 126.485,-76.4141 118.056,-69.9961 115.893,-76.6538"/>
</g>
<!-- Node3 -->
<g id="node3" class="node"><title>Node3</title>
<g id="a_node3"><a xlink:href="../../de/d70/class_fish.html#adea4acae7e3861939e9f31ae480ee8e1" target="_top" xlink:title="Fish.reset">
<polygon fill="white" stroke="black" points="126,-38.5 126,-57.5 188,-57.5 188,-38.5 126,-38.5"/>
<text text-anchor="middle" x="157" y="-45.5" font-family="Helvetica,sans-Serif" font-size="10.00">Fish.reset</text>
</a>
</g>
</g>
<!-- Node1&#45;&gt;Node3 -->
<g id="edge2" class="edge"><title>Node1&#45;&gt;Node3</title>
<path fill="none" stroke="midnightblue" d="M75.6985,-48C88.3897,-48 102.678,-48 115.647,-48"/>
<polygon fill="midnightblue" stroke="midnightblue" points="115.708,-51.5001 125.708,-48 115.708,-44.5001 115.708,-51.5001"/>
</g>
<!-- Node4 -->
<g id="node4" class="node"><title>Node4</title>
<g id="a_node4"><a xlink:href="../../d5/dec/class_shark.html#a0052f444c274935ba873782a0b2e3fa5" target="_top" xlink:title="Shark.Shark">
<polygon fill="white" stroke="black" points="119.5,-0.5 119.5,-19.5 194.5,-19.5 194.5,-0.5 119.5,-0.5"/>
<text text-anchor="middle" x="157" y="-7.5" font-family="Helvetica,sans-Serif" font-size="10.00">Shark.Shark</text>
</a>
</g>
</g>
<!-- Node1&#45;&gt;Node4 -->
<g id="edge3" class="edge"><title>Node1&#45;&gt;Node4</title>
<path fill="none" stroke="midnightblue" d="M68.524,-38.411C83.2119,-33.6406 101.16,-27.8112 116.968,-22.6771"/>
<polygon fill="midnightblue" stroke="midnightblue" points="118.056,-26.0039 126.485,-19.5859 115.893,-19.3462 118.056,-26.0039"/>
</g>
</g>
</svg>
