<?xml version="1.0" encoding="UTF-8" standalone="no"?>
<!DOCTYPE svg PUBLIC "-//W3C//DTD SVG 1.1//EN"
 "http://www.w3.org/Graphics/SVG/1.1/DTD/svg11.dtd">
<!-- Generated by graphviz version 2.36.0 (20140111.2315)
 -->
<!-- Title: TorusGrid Pages: 1 -->
<svg width="149pt" height="232pt"
 viewBox="0.00 0.00 149.00 232.00" xmlns="http://www.w3.org/2000/svg" xmlns:xlink="http://www.w3.org/1999/xlink">
<g id="graph0" class="graph" transform="scale(1 1) rotate(0) translate(4 228)">
<title>TorusGrid</title>
<polygon fill="white" stroke="none" points="-4,4 -4,-228 145,-228 145,4 -4,4"/>
<!-- Node1 -->
<g id="node1" class="node"><title>Node1</title>
<polygon fill="#bfbfbf" stroke="black" points="14.5,-0.5 14.5,-19.5 75.5,-19.5 75.5,-0.5 14.5,-0.5"/>
<text text-anchor="middle" x="45" y="-7.5" font-family="Helvetica,sans-Serif" font-size="10.00">TorusGrid</text>
</g>
<!-- Node2 -->
<g id="node2" class="node"><title>Node2</title>
<g id="a_node2"><a xlink:href="../../da/d74/class_grid.html" target="_top" xlink:title="Grid">
<polygon fill="white" stroke="black" points="27,-58.5 27,-77.5 63,-77.5 63,-58.5 27,-58.5"/>
<text text-anchor="middle" x="45" y="-65.5" font-family="Helvetica,sans-Serif" font-size="10.00">Grid</text>
</a>
</g>
</g>
<!-- Node2&#45;&gt;Node1 -->
<g id="edge1" class="edge"><title>Node2&#45;&gt;Node1</title>
<path fill="none" stroke="midnightblue" d="M45,-47.953C45,-38.2875 45,-27.0312 45,-19.5052"/>
<polygon fill="midnightblue" stroke="midnightblue" points="41.5001,-48.25 45,-58.25 48.5001,-48.25 41.5001,-48.25"/>
</g>
<!-- Node3 -->
<g id="node3" class="node"><title>Node3</title>
<polygon fill="white" stroke="#bfbfbf" points="0,-126.5 0,-145.5 46,-145.5 46,-126.5 0,-126.5"/>
<text text-anchor="middle" x="23" y="-133.5" font-family="Helvetica,sans-Serif" font-size="10.00">Group</text>
</g>
<!-- Node3&#45;&gt;Node2 -->
<g id="edge2" class="edge"><title>Node3&#45;&gt;Node2</title>
<path fill="none" stroke="midnightblue" d="M29.0645,-116.807C33.2919,-104.124 38.7462,-87.7615 42.053,-77.8411"/>
<polygon fill="midnightblue" stroke="midnightblue" points="25.7181,-115.778 25.8761,-126.372 32.3589,-117.992 25.7181,-115.778"/>
</g>
<!-- Node4 -->
<g id="node4" class="node"><title>Node4</title>
<g id="a_node4"><a xlink:href="../../dd/d11/class_cell.html" target="_top" xlink:title="Cell">
<polygon fill="white" stroke="black" points="64,-126.5 64,-145.5 98,-145.5 98,-126.5 64,-126.5"/>
<text text-anchor="middle" x="81" y="-133.5" font-family="Helvetica,sans-Serif" font-size="10.00">Cell</text>
</a>
</g>
</g>
<!-- Node4&#45;&gt;Node2 -->
<g id="edge3" class="edge"><title>Node4&#45;&gt;Node2</title>
<path fill="none" stroke="#9a32cd" stroke-dasharray="5,2" d="M71.4889,-117.563C64.5172,-104.781 55.3418,-87.9599 49.8224,-77.8411"/>
<polygon fill="#9a32cd" stroke="#9a32cd" points="68.4324,-119.269 76.2936,-126.372 74.5777,-115.917 68.4324,-119.269"/>
<text text-anchor="middle" x="86.5" y="-99.5" font-family="Helvetica,sans-Serif" font-size="10.00"> myCells</text>
</g>
<!-- Node5 -->
<g id="node5" class="node"><title>Node5</title>
<polygon fill="white" stroke="#bfbfbf" points="61,-204.5 61,-223.5 101,-223.5 101,-204.5 61,-204.5"/>
<text text-anchor="middle" x="81" y="-211.5" font-family="Helvetica,sans-Serif" font-size="10.00">Paint</text>
</g>
<!-- Node5&#45;&gt;Node4 -->
<g id="edge4" class="edge"><title>Node5&#45;&gt;Node4</title>
<path fill="none" stroke="#9a32cd" stroke-dasharray="5,2" d="M81,-194.224C81,-178.697 81,-157.358 81,-145.616"/>
<polygon fill="#9a32cd" stroke="#9a32cd" points="77.5001,-194.282 81,-204.282 84.5001,-194.282 77.5001,-194.282"/>
<text text-anchor="middle" x="111" y="-178" font-family="Helvetica,sans-Serif" font-size="10.00"> nextColor</text>
<text text-anchor="middle" x="111" y="-167" font-family="Helvetica,sans-Serif" font-size="10.00">currentColor</text>
</g>
</g>
</svg>
