<?xml version="1.0" encoding="UTF-8" standalone="no"?>
<!DOCTYPE svg PUBLIC "-//W3C//DTD SVG 1.1//EN"
 "http://www.w3.org/Graphics/SVG/1.1/DTD/svg11.dtd">
<!-- Generated by graphviz version 2.36.0 (20140111.2315)
 -->
<!-- Title: Cell.update Pages: 1 -->
<svg width="520pt" height="191pt"
 viewBox="0.00 0.00 520.00 191.00" xmlns="http://www.w3.org/2000/svg" xmlns:xlink="http://www.w3.org/1999/xlink">
<g id="graph0" class="graph" transform="scale(1 1) rotate(0) translate(4 187)">
<title>Cell.update</title>
<polygon fill="white" stroke="none" points="-4,4 -4,-187 516,-187 516,4 -4,4"/>
<!-- Node1 -->
<g id="node1" class="node"><title>Node1</title>
<polygon fill="#bfbfbf" stroke="black" points="0.5,-87.5 0.5,-106.5 71.5,-106.5 71.5,-87.5 0.5,-87.5"/>
<text text-anchor="middle" x="36" y="-94.5" font-family="Helvetica,sans-Serif" font-size="10.00">Cell.update</text>
</g>
<!-- Node2 -->
<g id="node2" class="node"><title>Node2</title>
<g id="a_node2"><a xlink:href="../../dd/d11/class_cell.html#aaaf321e273ef5b6ac3fae80e36d19629" target="_top" xlink:title="Cell.setState">
<polygon fill="white" stroke="black" points="108,-87.5 108,-106.5 186,-106.5 186,-87.5 108,-87.5"/>
<text text-anchor="middle" x="147" y="-94.5" font-family="Helvetica,sans-Serif" font-size="10.00">Cell.setState</text>
</a>
</g>
</g>
<!-- Node1&#45;&gt;Node2 -->
<g id="edge1" class="edge"><title>Node1&#45;&gt;Node2</title>
<path fill="none" stroke="midnightblue" d="M82.0073,-97C90.5648,-97 99.4445,-97 107.767,-97"/>
<polygon fill="midnightblue" stroke="midnightblue" points="81.788,-93.5001 71.788,-97 81.7879,-100.5 81.788,-93.5001"/>
</g>
<!-- Node3 -->
<g id="node3" class="node"><title>Node3</title>
<g id="a_node3"><a xlink:href="../../da/de8/class_move_cellular_automata.html#a90e79ebdb8723f3674bd90a264a143b8" target="_top" xlink:title="MoveCellularAutomata.move">
<polygon fill="white" stroke="black" points="222.5,-163.5 222.5,-182.5 377.5,-182.5 377.5,-163.5 222.5,-163.5"/>
<text text-anchor="middle" x="300" y="-170.5" font-family="Helvetica,sans-Serif" font-size="10.00">MoveCellularAutomata.move</text>
</a>
</g>
</g>
<!-- Node2&#45;&gt;Node3 -->
<g id="edge2" class="edge"><title>Node2&#45;&gt;Node3</title>
<path fill="none" stroke="midnightblue" d="M165.107,-113.539C179.277,-126.362 200.508,-143.641 222,-154 229.938,-157.826 238.72,-160.927 247.427,-163.425"/>
<polygon fill="midnightblue" stroke="midnightblue" points="167.338,-110.834 157.631,-106.59 162.572,-115.962 167.338,-110.834"/>
</g>
<!-- Node4 -->
<g id="node4" class="node"><title>Node4</title>
<g id="a_node4"><a xlink:href="../../dc/d06/class_mover.html#af157bc60c3ea8c2f1eb4672489251d57" target="_top" xlink:title="Mover.Mover">
<polygon fill="white" stroke="black" points="261.5,-125.5 261.5,-144.5 338.5,-144.5 338.5,-125.5 261.5,-125.5"/>
<text text-anchor="middle" x="300" y="-132.5" font-family="Helvetica,sans-Serif" font-size="10.00">Mover.Mover</text>
</a>
</g>
</g>
<!-- Node2&#45;&gt;Node4 -->
<g id="edge3" class="edge"><title>Node2&#45;&gt;Node4</title>
<path fill="none" stroke="midnightblue" d="M194.841,-109.098C203.851,-111.405 213.215,-113.788 222,-116 234.818,-119.227 248.851,-122.706 261.385,-125.793"/>
<polygon fill="midnightblue" stroke="midnightblue" points="195.426,-105.635 184.87,-106.539 193.686,-112.415 195.426,-105.635"/>
</g>
<!-- Node5 -->
<g id="node5" class="node"><title>Node5</title>
<g id="a_node5"><a xlink:href="../../d0/db0/class_wator.html#aa8dba59120d9d6d7d7521f3a4ee7b454" target="_top" xlink:title="Wator.ruleTwo">
<polygon fill="white" stroke="black" points="260,-87.5 260,-106.5 340,-106.5 340,-87.5 260,-87.5"/>
<text text-anchor="middle" x="300" y="-94.5" font-family="Helvetica,sans-Serif" font-size="10.00">Wator.ruleTwo</text>
</a>
</g>
</g>
<!-- Node2&#45;&gt;Node5 -->
<g id="edge4" class="edge"><title>Node2&#45;&gt;Node5</title>
<path fill="none" stroke="midnightblue" d="M196.215,-97C216.76,-97 240.419,-97 259.856,-97"/>
<polygon fill="midnightblue" stroke="midnightblue" points="196.104,-93.5001 186.104,-97 196.104,-100.5 196.104,-93.5001"/>
</g>
<!-- Node7 -->
<g id="node7" class="node"><title>Node7</title>
<g id="a_node7"><a xlink:href="../../d9/df1/class_fire.html#afd16418c5ea360c815613862a4ea1c33" target="_top" xlink:title="Fire.setUpInitialConfig">
<polygon fill="white" stroke="black" points="240.5,-49.5 240.5,-68.5 359.5,-68.5 359.5,-49.5 240.5,-49.5"/>
<text text-anchor="middle" x="300" y="-56.5" font-family="Helvetica,sans-Serif" font-size="10.00">Fire.setUpInitialConfig</text>
</a>
</g>
</g>
<!-- Node2&#45;&gt;Node7 -->
<g id="edge6" class="edge"><title>Node2&#45;&gt;Node7</title>
<path fill="none" stroke="midnightblue" d="M194.841,-84.9022C203.851,-82.5954 213.215,-80.2116 222,-78 234.284,-74.9075 247.684,-71.5838 259.81,-68.5946"/>
<polygon fill="midnightblue" stroke="midnightblue" points="193.686,-81.5851 184.87,-87.4606 195.426,-88.3655 193.686,-81.5851"/>
</g>
<!-- Node8 -->
<g id="node8" class="node"><title>Node8</title>
<g id="a_node8"><a xlink:href="../../d2/d40/class_cellular_automata.html#a36aec0679e06662be2e1a89ac9c88cfa" target="_top" xlink:title="CellularAutomata.setUpInitial\lConfig">
<polygon fill="white" stroke="black" points="222,-0 222,-30 378,-30 378,-0 222,-0"/>
<text text-anchor="start" x="230" y="-18" font-family="Helvetica,sans-Serif" font-size="10.00">CellularAutomata.setUpInitial</text>
<text text-anchor="middle" x="300" y="-7" font-family="Helvetica,sans-Serif" font-size="10.00">Config</text>
</a>
</g>
</g>
<!-- Node2&#45;&gt;Node8 -->
<g id="edge7" class="edge"><title>Node2&#45;&gt;Node8</title>
<path fill="none" stroke="midnightblue" d="M165.807,-80.4464C180.09,-67.9009 201.134,-50.9997 222,-40 229.087,-36.264 236.835,-32.9523 244.599,-30.0612"/>
<polygon fill="midnightblue" stroke="midnightblue" points="163.331,-77.9657 158.23,-87.2521 168.009,-83.1732 163.331,-77.9657"/>
</g>
<!-- Node6 -->
<g id="node6" class="node"><title>Node6</title>
<g id="a_node6"><a xlink:href="../../d0/db0/class_wator.html#a422810cdcb035633301b3469cbee5e34" target="_top" xlink:title="Wator.checkRules">
<polygon fill="white" stroke="black" points="414,-87.5 414,-106.5 512,-106.5 512,-87.5 414,-87.5"/>
<text text-anchor="middle" x="463" y="-94.5" font-family="Helvetica,sans-Serif" font-size="10.00">Wator.checkRules</text>
</a>
</g>
</g>
<!-- Node5&#45;&gt;Node6 -->
<g id="edge5" class="edge"><title>Node5&#45;&gt;Node6</title>
<path fill="none" stroke="midnightblue" d="M350.594,-97C370.709,-97 393.858,-97 413.826,-97"/>
<polygon fill="midnightblue" stroke="midnightblue" points="350.385,-93.5001 340.385,-97 350.385,-100.5 350.385,-93.5001"/>
</g>
</g>
</svg>
