<?xml version="1.0" encoding="UTF-8" standalone="no"?>
<!DOCTYPE svg PUBLIC "-//W3C//DTD SVG 1.1//EN"
 "http://www.w3.org/Graphics/SVG/1.1/DTD/svg11.dtd">
<!-- Generated by graphviz version 2.36.0 (20140111.2315)
 -->
<!-- Title: Cell.isState Pages: 1 -->
<svg width="394pt" height="142pt"
 viewBox="0.00 0.00 394.00 142.00" xmlns="http://www.w3.org/2000/svg" xmlns:xlink="http://www.w3.org/1999/xlink">
<g id="graph0" class="graph" transform="scale(1 1) rotate(0) translate(4 138)">
<title>Cell.isState</title>
<polygon fill="white" stroke="none" points="-4,4 -4,-138 390,-138 390,4 -4,4"/>
<!-- Node1 -->
<g id="node1" class="node"><title>Node1</title>
<polygon fill="#bfbfbf" stroke="black" points="0.5,-57.5 0.5,-76.5 71.5,-76.5 71.5,-57.5 0.5,-57.5"/>
<text text-anchor="middle" x="36" y="-64.5" font-family="Helvetica,sans-Serif" font-size="10.00">Cell.isState</text>
</g>
<!-- Node2 -->
<g id="node2" class="node"><title>Node2</title>
<g id="a_node2"><a xlink:href="../../d8/d84/class_game_of_life.html#aca7cd11a349cf14c940011021f91127f" target="_top" xlink:title="GameOfLife.ruleOne">
<polygon fill="white" stroke="black" points="108.5,-114.5 108.5,-133.5 221.5,-133.5 221.5,-114.5 108.5,-114.5"/>
<text text-anchor="middle" x="165" y="-121.5" font-family="Helvetica,sans-Serif" font-size="10.00">GameOfLife.ruleOne</text>
</a>
</g>
</g>
<!-- Node1&#45;&gt;Node2 -->
<g id="edge1" class="edge"><title>Node1&#45;&gt;Node2</title>
<path fill="none" stroke="midnightblue" d="M62.0296,-81.6984C75.4072,-89.2184 92.3119,-98.1953 108,-105 115.912,-108.432 124.661,-111.657 132.846,-114.442"/>
<polygon fill="midnightblue" stroke="midnightblue" points="63.3996,-78.4503 52.9799,-76.532 59.9291,-84.5295 63.3996,-78.4503"/>
</g>
<!-- Node4 -->
<g id="node4" class="node"><title>Node4</title>
<g id="a_node4"><a xlink:href="../../d9/df1/class_fire.html#a08de9a15877f76fa5bc6c8872559f79f" target="_top" xlink:title="Fire.ruleOne">
<polygon fill="white" stroke="black" points="128,-38.5 128,-57.5 202,-57.5 202,-38.5 128,-38.5"/>
<text text-anchor="middle" x="165" y="-45.5" font-family="Helvetica,sans-Serif" font-size="10.00">Fire.ruleOne</text>
</a>
</g>
</g>
<!-- Node1&#45;&gt;Node4 -->
<g id="edge3" class="edge"><title>Node1&#45;&gt;Node4</title>
<path fill="none" stroke="midnightblue" d="M81.7894,-60.2992C96.7776,-58.0569 113.293,-55.5861 127.564,-53.451"/>
<polygon fill="midnightblue" stroke="midnightblue" points="81.0754,-56.867 71.7033,-61.8082 82.1111,-63.79 81.0754,-56.867"/>
</g>
<!-- Node6 -->
<g id="node6" class="node"><title>Node6</title>
<g id="a_node6"><a xlink:href="../../d8/d84/class_game_of_life.html#a6b6c946c47342fd7e4595710d72a9217" target="_top" xlink:title="GameOfLife.ruleTwo">
<polygon fill="white" stroke="black" points="110,-76.5 110,-95.5 220,-95.5 220,-76.5 110,-76.5"/>
<text text-anchor="middle" x="165" y="-83.5" font-family="Helvetica,sans-Serif" font-size="10.00">GameOfLife.ruleTwo</text>
</a>
</g>
</g>
<!-- Node1&#45;&gt;Node6 -->
<g id="edge5" class="edge"><title>Node1&#45;&gt;Node6</title>
<path fill="none" stroke="midnightblue" d="M81.6722,-73.6832C90.754,-75.0419 100.401,-76.4852 109.772,-77.8872"/>
<polygon fill="midnightblue" stroke="midnightblue" points="82.1111,-70.21 71.7033,-72.1918 81.0754,-77.133 82.1111,-70.21"/>
</g>
<!-- Node7 -->
<g id="node7" class="node"><title>Node7</title>
<g id="a_node7"><a xlink:href="../../d9/df1/class_fire.html#accc21ae2162fd526d8ca66c472a62a28" target="_top" xlink:title="Fire.ruleTwo">
<polygon fill="white" stroke="black" points="129.5,-0.5 129.5,-19.5 200.5,-19.5 200.5,-0.5 129.5,-0.5"/>
<text text-anchor="middle" x="165" y="-7.5" font-family="Helvetica,sans-Serif" font-size="10.00">Fire.ruleTwo</text>
</a>
</g>
</g>
<!-- Node1&#45;&gt;Node7 -->
<g id="edge7" class="edge"><title>Node1&#45;&gt;Node7</title>
<path fill="none" stroke="midnightblue" d="M62.0296,-52.3016C75.4072,-44.7816 92.3119,-35.8047 108,-29 115.912,-25.5683 124.661,-22.343 132.846,-19.5581"/>
<polygon fill="midnightblue" stroke="midnightblue" points="59.9291,-49.4705 52.9799,-57.468 63.3996,-55.5497 59.9291,-49.4705"/>
</g>
<!-- Node3 -->
<g id="node3" class="node"><title>Node3</title>
<g id="a_node3"><a xlink:href="../../d8/d84/class_game_of_life.html#a0100556ddb7f59c44404450b7c386190" target="_top" xlink:title="GameOfLife.checkRules">
<polygon fill="white" stroke="black" points="258,-85.5 258,-104.5 386,-104.5 386,-85.5 258,-85.5"/>
<text text-anchor="middle" x="322" y="-92.5" font-family="Helvetica,sans-Serif" font-size="10.00">GameOfLife.checkRules</text>
</a>
</g>
</g>
<!-- Node2&#45;&gt;Node3 -->
<g id="edge2" class="edge"><title>Node2&#45;&gt;Node3</title>
<path fill="none" stroke="midnightblue" d="M227.345,-112.522C241.525,-109.869 256.46,-107.075 270.136,-104.517"/>
<polygon fill="midnightblue" stroke="midnightblue" points="226.368,-109.145 217.182,-114.424 227.656,-116.025 226.368,-109.145"/>
</g>
<!-- Node5 -->
<g id="node5" class="node"><title>Node5</title>
<g id="a_node5"><a xlink:href="../../d9/df1/class_fire.html#a28764fd7310f7be3a246f5eaefd8887c" target="_top" xlink:title="Fire.checkRules">
<polygon fill="white" stroke="black" points="277.5,-28.5 277.5,-47.5 366.5,-47.5 366.5,-28.5 277.5,-28.5"/>
<text text-anchor="middle" x="322" y="-35.5" font-family="Helvetica,sans-Serif" font-size="10.00">Fire.checkRules</text>
</a>
</g>
</g>
<!-- Node4&#45;&gt;Node5 -->
<g id="edge4" class="edge"><title>Node4&#45;&gt;Node5</title>
<path fill="none" stroke="midnightblue" d="M212.45,-45.0032C233.06,-43.6736 257.179,-42.1175 277.441,-40.8102"/>
<polygon fill="midnightblue" stroke="midnightblue" points="212.094,-41.5188 202.341,-45.6554 212.545,-48.5043 212.094,-41.5188"/>
</g>
<!-- Node6&#45;&gt;Node3 -->
<g id="edge6" class="edge"><title>Node6&#45;&gt;Node3</title>
<path fill="none" stroke="midnightblue" d="M230.326,-89.7351C239.403,-90.2621 248.729,-90.8036 257.784,-91.3294"/>
<polygon fill="midnightblue" stroke="midnightblue" points="230.398,-86.2334 220.211,-89.1478 229.992,-93.2216 230.398,-86.2334"/>
</g>
<!-- Node7&#45;&gt;Node5 -->
<g id="edge8" class="edge"><title>Node7&#45;&gt;Node5</title>
<path fill="none" stroke="midnightblue" d="M210.735,-18.0812C231.718,-21.8716 256.628,-26.3715 277.458,-30.1344"/>
<polygon fill="midnightblue" stroke="midnightblue" points="211.248,-14.6173 200.785,-16.2837 210.004,-21.5058 211.248,-14.6173"/>
</g>
</g>
</svg>
