<?xml version="1.0" encoding="UTF-8" standalone="no"?>
<!DOCTYPE svg PUBLIC "-//W3C//DTD SVG 1.1//EN"
 "http://www.w3.org/Graphics/SVG/1.1/DTD/svg11.dtd">
<!-- Generated by graphviz version 2.36.0 (20140111.2315)
 -->
<!-- Title: Cell.isState Pages: 1 -->
<svg width="244pt" height="218pt"
 viewBox="0.00 0.00 244.00 218.00" xmlns="http://www.w3.org/2000/svg" xmlns:xlink="http://www.w3.org/1999/xlink">
<g id="graph0" class="graph" transform="scale(1 1) rotate(0) translate(4 214)">
<title>Cell.isState</title>
<polygon fill="white" stroke="none" points="-4,4 -4,-214 240,-214 240,4 -4,4"/>
<!-- Node1 -->
<g id="node1" class="node"><title>Node1</title>
<polygon fill="#bfbfbf" stroke="black" points="0.5,-95.5 0.5,-114.5 71.5,-114.5 71.5,-95.5 0.5,-95.5"/>
<text text-anchor="middle" x="36" y="-102.5" font-family="Helvetica,sans-Serif" font-size="10.00">Cell.isState</text>
</g>
<!-- Node2 -->
<g id="node2" class="node"><title>Node2</title>
<g id="a_node2"><a xlink:href="../../d8/d84/class_game_of_life.html#ae3bc4975c6e75164f5661d35cf3c97d0" target="_top" xlink:title="GameOfLife.checkRules">
<polygon fill="white" stroke="black" points="108,-190.5 108,-209.5 236,-209.5 236,-190.5 108,-190.5"/>
<text text-anchor="middle" x="172" y="-197.5" font-family="Helvetica,sans-Serif" font-size="10.00">GameOfLife.checkRules</text>
</a>
</g>
</g>
<!-- Node1&#45;&gt;Node2 -->
<g id="edge1" class="edge"><title>Node1&#45;&gt;Node2</title>
<path fill="none" stroke="midnightblue" d="M49.2954,-122.858C62.0681,-140.118 83.58,-165.82 108,-181 114.21,-184.86 121.252,-187.977 128.322,-190.482"/>
<polygon fill="midnightblue" stroke="midnightblue" points="52.117,-120.787 43.4435,-114.702 46.4294,-124.868 52.117,-120.787"/>
</g>
<!-- Node3 -->
<g id="node3" class="node"><title>Node3</title>
<g id="a_node3"><a xlink:href="../../d9/df1/class_fire.html#a9848867ebe2faddb27dfd0994cb565a8" target="_top" xlink:title="Fire.checkRules">
<polygon fill="white" stroke="black" points="127.5,-152.5 127.5,-171.5 216.5,-171.5 216.5,-152.5 127.5,-152.5"/>
<text text-anchor="middle" x="172" y="-159.5" font-family="Helvetica,sans-Serif" font-size="10.00">Fire.checkRules</text>
</a>
</g>
</g>
<!-- Node1&#45;&gt;Node3 -->
<g id="edge2" class="edge"><title>Node1&#45;&gt;Node3</title>
<path fill="none" stroke="midnightblue" d="M61.6733,-119.769C75.0656,-127.381 92.0939,-136.421 108,-143 116.551,-146.537 125.998,-149.737 134.918,-152.461"/>
<polygon fill="midnightblue" stroke="midnightblue" points="63.0401,-116.516 52.6323,-114.534 59.5324,-122.574 63.0401,-116.516"/>
</g>
<!-- Node4 -->
<g id="node4" class="node"><title>Node4</title>
<g id="a_node4"><a xlink:href="../../d8/d84/class_game_of_life.html#aca7cd11a349cf14c940011021f91127f" target="_top" xlink:title="GameOfLife.ruleOne">
<polygon fill="white" stroke="black" points="115.5,-114.5 115.5,-133.5 228.5,-133.5 228.5,-114.5 115.5,-114.5"/>
<text text-anchor="middle" x="172" y="-121.5" font-family="Helvetica,sans-Serif" font-size="10.00">GameOfLife.ruleOne</text>
</a>
</g>
</g>
<!-- Node1&#45;&gt;Node4 -->
<g id="edge3" class="edge"><title>Node1&#45;&gt;Node4</title>
<path fill="none" stroke="midnightblue" d="M81.5549,-111.317C92.3599,-112.85 104.045,-114.506 115.294,-116.101"/>
<polygon fill="midnightblue" stroke="midnightblue" points="81.9007,-107.832 71.5083,-109.893 80.9179,-114.762 81.9007,-107.832"/>
</g>
<!-- Node5 -->
<g id="node5" class="node"><title>Node5</title>
<g id="a_node5"><a xlink:href="../../d9/df1/class_fire.html#a08de9a15877f76fa5bc6c8872559f79f" target="_top" xlink:title="Fire.ruleOne">
<polygon fill="white" stroke="black" points="135,-76.5 135,-95.5 209,-95.5 209,-76.5 135,-76.5"/>
<text text-anchor="middle" x="172" y="-83.5" font-family="Helvetica,sans-Serif" font-size="10.00">Fire.ruleOne</text>
</a>
</g>
</g>
<!-- Node1&#45;&gt;Node5 -->
<g id="edge4" class="edge"><title>Node1&#45;&gt;Node5</title>
<path fill="none" stroke="midnightblue" d="M81.8816,-98.6362C99.0716,-96.1988 118.45,-93.4512 134.735,-91.1421"/>
<polygon fill="midnightblue" stroke="midnightblue" points="80.9179,-95.2377 71.5083,-100.107 81.9007,-102.168 80.9179,-95.2377"/>
</g>
<!-- Node6 -->
<g id="node6" class="node"><title>Node6</title>
<g id="a_node6"><a xlink:href="../../d8/d84/class_game_of_life.html#a6b6c946c47342fd7e4595710d72a9217" target="_top" xlink:title="GameOfLife.ruleTwo">
<polygon fill="white" stroke="black" points="117,-38.5 117,-57.5 227,-57.5 227,-38.5 117,-38.5"/>
<text text-anchor="middle" x="172" y="-45.5" font-family="Helvetica,sans-Serif" font-size="10.00">GameOfLife.ruleTwo</text>
</a>
</g>
</g>
<!-- Node1&#45;&gt;Node6 -->
<g id="edge5" class="edge"><title>Node1&#45;&gt;Node6</title>
<path fill="none" stroke="midnightblue" d="M61.6733,-90.2309C75.0656,-82.6185 92.0939,-73.5786 108,-67 116.551,-63.4634 125.998,-60.2627 134.918,-57.5393"/>
<polygon fill="midnightblue" stroke="midnightblue" points="59.5324,-87.426 52.6323,-95.4659 63.0401,-93.4838 59.5324,-87.426"/>
</g>
<!-- Node7 -->
<g id="node7" class="node"><title>Node7</title>
<g id="a_node7"><a xlink:href="../../d9/df1/class_fire.html#accc21ae2162fd526d8ca66c472a62a28" target="_top" xlink:title="Fire.ruleTwo">
<polygon fill="white" stroke="black" points="136.5,-0.5 136.5,-19.5 207.5,-19.5 207.5,-0.5 136.5,-0.5"/>
<text text-anchor="middle" x="172" y="-7.5" font-family="Helvetica,sans-Serif" font-size="10.00">Fire.ruleTwo</text>
</a>
</g>
</g>
<!-- Node1&#45;&gt;Node7 -->
<g id="edge6" class="edge"><title>Node1&#45;&gt;Node7</title>
<path fill="none" stroke="midnightblue" d="M49.2954,-87.1417C62.0681,-69.8815 83.58,-44.1796 108,-29 116.538,-23.6927 126.651,-19.789 136.246,-16.9511"/>
<polygon fill="midnightblue" stroke="midnightblue" points="46.4294,-85.1323 43.4435,-95.2977 52.117,-89.213 46.4294,-85.1323"/>
</g>
</g>
</svg>
