<?xml version="1.0" encoding="UTF-8" standalone="no"?>
<!DOCTYPE svg PUBLIC "-//W3C//DTD SVG 1.1//EN"
 "http://www.w3.org/Graphics/SVG/1.1/DTD/svg11.dtd">
<!-- Generated by graphviz version 2.36.0 (20140111.2315)
 -->
<!-- Title: Cell.setNextState Pages: 1 -->
<svg width="550pt" height="191pt"
 viewBox="0.00 0.00 550.00 191.00" xmlns="http://www.w3.org/2000/svg" xmlns:xlink="http://www.w3.org/1999/xlink">
<g id="graph0" class="graph" transform="scale(1 1) rotate(0) translate(4 187)">
<title>Cell.setNextState</title>
<polygon fill="white" stroke="none" points="-4,4 -4,-187 546,-187 546,4 -4,4"/>
<!-- Node1 -->
<g id="node1" class="node"><title>Node1</title>
<polygon fill="#bfbfbf" stroke="black" points="0.5,-76.5 0.5,-95.5 101.5,-95.5 101.5,-76.5 0.5,-76.5"/>
<text text-anchor="middle" x="51" y="-83.5" font-family="Helvetica,sans-Serif" font-size="10.00">Cell.setNextState</text>
</g>
<!-- Node2 -->
<g id="node2" class="node"><title>Node2</title>
<g id="a_node2"><a xlink:href="../../dd/d11/class_cell.html#aaaf321e273ef5b6ac3fae80e36d19629" target="_top" xlink:title="Cell.setState">
<polygon fill="white" stroke="black" points="138,-76.5 138,-95.5 216,-95.5 216,-76.5 138,-76.5"/>
<text text-anchor="middle" x="177" y="-83.5" font-family="Helvetica,sans-Serif" font-size="10.00">Cell.setState</text>
</a>
</g>
</g>
<!-- Node1&#45;&gt;Node2 -->
<g id="edge1" class="edge"><title>Node1&#45;&gt;Node2</title>
<path fill="none" stroke="midnightblue" d="M111.95,-86C120.721,-86 129.546,-86 137.723,-86"/>
<polygon fill="midnightblue" stroke="midnightblue" points="111.721,-82.5001 101.721,-86 111.721,-89.5001 111.721,-82.5001"/>
</g>
<!-- Node3 -->
<g id="node3" class="node"><title>Node3</title>
<g id="a_node3"><a xlink:href="../../d2/d40/class_cellular_automata.html#a36aec0679e06662be2e1a89ac9c88cfa" target="_top" xlink:title="CellularAutomata.setUpInitial\lConfig">
<polygon fill="white" stroke="black" points="252,-153 252,-183 408,-183 408,-153 252,-153"/>
<text text-anchor="start" x="260" y="-171" font-family="Helvetica,sans-Serif" font-size="10.00">CellularAutomata.setUpInitial</text>
<text text-anchor="middle" x="330" y="-160" font-family="Helvetica,sans-Serif" font-size="10.00">Config</text>
</a>
</g>
</g>
<!-- Node2&#45;&gt;Node3 -->
<g id="edge2" class="edge"><title>Node2&#45;&gt;Node3</title>
<path fill="none" stroke="midnightblue" d="M195.807,-102.554C210.09,-115.099 231.134,-132 252,-143 259.087,-146.736 266.835,-150.048 274.599,-152.939"/>
<polygon fill="midnightblue" stroke="midnightblue" points="198.009,-99.8268 188.23,-95.7479 193.331,-105.034 198.009,-99.8268"/>
</g>
<!-- Node4 -->
<g id="node4" class="node"><title>Node4</title>
<g id="a_node4"><a xlink:href="../../d9/df1/class_fire.html#afd16418c5ea360c815613862a4ea1c33" target="_top" xlink:title="Fire.setUpInitialConfig">
<polygon fill="white" stroke="black" points="270.5,-114.5 270.5,-133.5 389.5,-133.5 389.5,-114.5 270.5,-114.5"/>
<text text-anchor="middle" x="330" y="-121.5" font-family="Helvetica,sans-Serif" font-size="10.00">Fire.setUpInitialConfig</text>
</a>
</g>
</g>
<!-- Node2&#45;&gt;Node4 -->
<g id="edge3" class="edge"><title>Node2&#45;&gt;Node4</title>
<path fill="none" stroke="midnightblue" d="M224.841,-98.0978C233.851,-100.405 243.215,-102.788 252,-105 264.284,-108.093 277.684,-111.416 289.81,-114.405"/>
<polygon fill="midnightblue" stroke="midnightblue" points="225.426,-94.6345 214.87,-95.5394 223.686,-101.415 225.426,-94.6345"/>
</g>
<!-- Node5 -->
<g id="node5" class="node"><title>Node5</title>
<g id="a_node5"><a xlink:href="../../da/de8/class_move_cellular_automata.html#a90e79ebdb8723f3674bd90a264a143b8" target="_top" xlink:title="MoveCellularAutomata.move">
<polygon fill="white" stroke="black" points="252.5,-76.5 252.5,-95.5 407.5,-95.5 407.5,-76.5 252.5,-76.5"/>
<text text-anchor="middle" x="330" y="-83.5" font-family="Helvetica,sans-Serif" font-size="10.00">MoveCellularAutomata.move</text>
</a>
</g>
</g>
<!-- Node2&#45;&gt;Node5 -->
<g id="edge4" class="edge"><title>Node2&#45;&gt;Node5</title>
<path fill="none" stroke="midnightblue" d="M226.33,-86C234.647,-86 243.472,-86 252.318,-86"/>
<polygon fill="midnightblue" stroke="midnightblue" points="226.104,-82.5001 216.104,-86 226.104,-89.5001 226.104,-82.5001"/>
</g>
<!-- Node6 -->
<g id="node6" class="node"><title>Node6</title>
<g id="a_node6"><a xlink:href="../../dc/d06/class_mover.html#af157bc60c3ea8c2f1eb4672489251d57" target="_top" xlink:title="Mover.Mover">
<polygon fill="white" stroke="black" points="291.5,-38.5 291.5,-57.5 368.5,-57.5 368.5,-38.5 291.5,-38.5"/>
<text text-anchor="middle" x="330" y="-45.5" font-family="Helvetica,sans-Serif" font-size="10.00">Mover.Mover</text>
</a>
</g>
</g>
<!-- Node2&#45;&gt;Node6 -->
<g id="edge5" class="edge"><title>Node2&#45;&gt;Node6</title>
<path fill="none" stroke="midnightblue" d="M224.841,-73.9022C233.851,-71.5954 243.215,-69.2116 252,-67 264.818,-63.773 278.851,-60.2944 291.385,-57.2066"/>
<polygon fill="midnightblue" stroke="midnightblue" points="223.686,-70.5851 214.87,-76.4606 225.426,-77.3655 223.686,-70.5851"/>
</g>
<!-- Node7 -->
<g id="node7" class="node"><title>Node7</title>
<g id="a_node7"><a xlink:href="../../d0/db0/class_wator.html#aa8dba59120d9d6d7d7521f3a4ee7b454" target="_top" xlink:title="Wator.ruleTwo">
<polygon fill="white" stroke="black" points="290,-0.5 290,-19.5 370,-19.5 370,-0.5 290,-0.5"/>
<text text-anchor="middle" x="330" y="-7.5" font-family="Helvetica,sans-Serif" font-size="10.00">Wator.ruleTwo</text>
</a>
</g>
</g>
<!-- Node2&#45;&gt;Node7 -->
<g id="edge6" class="edge"><title>Node2&#45;&gt;Node7</title>
<path fill="none" stroke="midnightblue" d="M195.107,-69.461C209.277,-56.6377 230.508,-39.3591 252,-29 263.783,-23.3206 277.425,-19.2399 289.923,-16.3534"/>
<polygon fill="midnightblue" stroke="midnightblue" points="192.572,-67.0385 187.631,-76.4103 197.338,-72.1656 192.572,-67.0385"/>
</g>
<!-- Node8 -->
<g id="node8" class="node"><title>Node8</title>
<g id="a_node8"><a xlink:href="../../d0/db0/class_wator.html#a422810cdcb035633301b3469cbee5e34" target="_top" xlink:title="Wator.checkRules">
<polygon fill="white" stroke="black" points="444,-0.5 444,-19.5 542,-19.5 542,-0.5 444,-0.5"/>
<text text-anchor="middle" x="493" y="-7.5" font-family="Helvetica,sans-Serif" font-size="10.00">Wator.checkRules</text>
</a>
</g>
</g>
<!-- Node7&#45;&gt;Node8 -->
<g id="edge7" class="edge"><title>Node7&#45;&gt;Node8</title>
<path fill="none" stroke="midnightblue" d="M380.594,-10C400.709,-10 423.858,-10 443.826,-10"/>
<polygon fill="midnightblue" stroke="midnightblue" points="380.385,-6.5001 370.385,-10 380.385,-13.5001 380.385,-6.5001"/>
</g>
</g>
</svg>
