<?xml version="1.0" encoding="UTF-8" standalone="no"?>
<!DOCTYPE svg PUBLIC "-//W3C//DTD SVG 1.1//EN"
 "http://www.w3.org/Graphics/SVG/1.1/DTD/svg11.dtd">
<!-- Generated by graphviz version 2.36.0 (20140111.2315)
 -->
<!-- Title: Cell.getState Pages: 1 -->
<svg width="1608pt" height="185pt"
 viewBox="0.00 0.00 1608.00 185.00" xmlns="http://www.w3.org/2000/svg" xmlns:xlink="http://www.w3.org/1999/xlink">
<g id="graph0" class="graph" transform="scale(1 1) rotate(0) translate(4 181)">
<title>Cell.getState</title>
<polygon fill="white" stroke="none" points="-4,4 -4,-181 1604,-181 1604,4 -4,4"/>
<!-- Node1 -->
<g id="node1" class="node"><title>Node1</title>
<polygon fill="#bfbfbf" stroke="black" points="0.5,-119.5 0.5,-138.5 79.5,-138.5 79.5,-119.5 0.5,-119.5"/>
<text text-anchor="middle" x="40" y="-126.5" font-family="Helvetica,sans-Serif" font-size="10.00">Cell.getState</text>
</g>
<!-- Node2 -->
<g id="node2" class="node"><title>Node2</title>
<g id="a_node2"><a xlink:href="../../da/d1e/class_segregation.html#ae7696748513b436c2578ff68b02d889d" target="_top" xlink:title="Segregation.getSamePercent">
<polygon fill="white" stroke="black" points="116.5,-157.5 116.5,-176.5 275.5,-176.5 275.5,-157.5 116.5,-157.5"/>
<text text-anchor="middle" x="196" y="-164.5" font-family="Helvetica,sans-Serif" font-size="10.00">Segregation.getSamePercent</text>
</a>
</g>
</g>
<!-- Node1&#45;&gt;Node2 -->
<g id="edge1" class="edge"><title>Node1&#45;&gt;Node2</title>
<path fill="none" stroke="midnightblue" d="M88.1754,-141.044C97.3973,-143.372 106.998,-145.777 116,-148 128.599,-151.111 142.346,-154.44 154.788,-157.428"/>
<polygon fill="midnightblue" stroke="midnightblue" points="88.9168,-137.621 78.3637,-138.56 87.1991,-144.407 88.9168,-137.621"/>
</g>
<!-- Node5 -->
<g id="node5" class="node"><title>Node5</title>
<g id="a_node5"><a xlink:href="../../d0/db0/class_wator.html#a0afccb8f97e33c1d21e51ee1a3f4922b" target="_top" xlink:title="Wator.ruleOne">
<polygon fill="white" stroke="black" points="154.5,-119.5 154.5,-138.5 237.5,-138.5 237.5,-119.5 154.5,-119.5"/>
<text text-anchor="middle" x="196" y="-126.5" font-family="Helvetica,sans-Serif" font-size="10.00">Wator.ruleOne</text>
</a>
</g>
</g>
<!-- Node1&#45;&gt;Node5 -->
<g id="edge4" class="edge"><title>Node1&#45;&gt;Node5</title>
<path fill="none" stroke="midnightblue" d="M90.0492,-129C110.746,-129 134.561,-129 154.268,-129"/>
<polygon fill="midnightblue" stroke="midnightblue" points="89.8607,-125.5 79.8607,-129 89.8607,-132.5 89.8607,-125.5"/>
</g>
<!-- Node7 -->
<g id="node7" class="node"><title>Node7</title>
<g id="a_node7"><a xlink:href="../../dd/d97/class_grid_drawer.html#a8853ef53b515fd60ca524f05a3dbf897" target="_top" xlink:title="GridDrawer.updateNextGen">
<polygon fill="white" stroke="black" points="122,-81.5 122,-100.5 270,-100.5 270,-81.5 122,-81.5"/>
<text text-anchor="middle" x="196" y="-88.5" font-family="Helvetica,sans-Serif" font-size="10.00">GridDrawer.updateNextGen</text>
</a>
</g>
</g>
<!-- Node1&#45;&gt;Node7 -->
<g id="edge6" class="edge"><title>Node1&#45;&gt;Node7</title>
<path fill="none" stroke="midnightblue" d="M88.1754,-116.956C97.3973,-114.628 106.998,-112.223 116,-110 128.599,-106.889 142.346,-103.56 154.788,-100.572"/>
<polygon fill="midnightblue" stroke="midnightblue" points="87.1991,-113.593 78.3637,-119.44 88.9168,-120.379 87.1991,-113.593"/>
</g>
<!-- Node3 -->
<g id="node3" class="node"><title>Node3</title>
<g id="a_node3"><a xlink:href="../../da/d1e/class_segregation.html#a65706fcdb683f11f27836d3f4c591f3c" target="_top" xlink:title="Segregation.ruleOne">
<polygon fill="white" stroke="black" points="329,-157.5 329,-176.5 445,-176.5 445,-157.5 329,-157.5"/>
<text text-anchor="middle" x="387" y="-164.5" font-family="Helvetica,sans-Serif" font-size="10.00">Segregation.ruleOne</text>
</a>
</g>
</g>
<!-- Node2&#45;&gt;Node3 -->
<g id="edge2" class="edge"><title>Node2&#45;&gt;Node3</title>
<path fill="none" stroke="midnightblue" d="M285.617,-167C300.283,-167 315.139,-167 328.765,-167"/>
<polygon fill="midnightblue" stroke="midnightblue" points="285.511,-163.5 275.511,-167 285.511,-170.5 285.511,-163.5"/>
</g>
<!-- Node4 -->
<g id="node4" class="node"><title>Node4</title>
<g id="a_node4"><a xlink:href="../../da/d1e/class_segregation.html#a8272e13082766c6c6d45fc1e58acd6dc" target="_top" xlink:title="Segregation.checkRules">
<polygon fill="white" stroke="black" points="512.5,-157.5 512.5,-176.5 643.5,-176.5 643.5,-157.5 512.5,-157.5"/>
<text text-anchor="middle" x="578" y="-164.5" font-family="Helvetica,sans-Serif" font-size="10.00">Segregation.checkRules</text>
</a>
</g>
</g>
<!-- Node3&#45;&gt;Node4 -->
<g id="edge3" class="edge"><title>Node3&#45;&gt;Node4</title>
<path fill="none" stroke="midnightblue" d="M455.348,-167C473.899,-167 493.975,-167 512.369,-167"/>
<polygon fill="midnightblue" stroke="midnightblue" points="455.219,-163.5 445.219,-167 455.219,-170.5 455.219,-163.5"/>
</g>
<!-- Node6 -->
<g id="node6" class="node"><title>Node6</title>
<g id="a_node6"><a xlink:href="../../d0/db0/class_wator.html#a422810cdcb035633301b3469cbee5e34" target="_top" xlink:title="Wator.checkRules">
<polygon fill="white" stroke="black" points="338,-119.5 338,-138.5 436,-138.5 436,-119.5 338,-119.5"/>
<text text-anchor="middle" x="387" y="-126.5" font-family="Helvetica,sans-Serif" font-size="10.00">Wator.checkRules</text>
</a>
</g>
</g>
<!-- Node5&#45;&gt;Node6 -->
<g id="edge5" class="edge"><title>Node5&#45;&gt;Node6</title>
<path fill="none" stroke="midnightblue" d="M247.91,-129C275.858,-129 310.321,-129 337.827,-129"/>
<polygon fill="midnightblue" stroke="midnightblue" points="247.545,-125.5 237.545,-129 247.545,-132.5 247.545,-125.5"/>
</g>
<!-- Node8 -->
<g id="node8" class="node"><title>Node8</title>
<g id="a_node8"><a xlink:href="../../df/df8/class_cell_society_view.html#a767ab215ca329ba41b1493702141f841" target="_top" xlink:title="CellSocietyView.makeCAGame">
<polygon fill="white" stroke="black" points="694.5,-65.5 694.5,-84.5 857.5,-84.5 857.5,-65.5 694.5,-65.5"/>
<text text-anchor="middle" x="776" y="-72.5" font-family="Helvetica,sans-Serif" font-size="10.00">CellSocietyView.makeCAGame</text>
</a>
</g>
</g>
<!-- Node7&#45;&gt;Node8 -->
<g id="edge7" class="edge"><title>Node7&#45;&gt;Node8</title>
<path fill="none" stroke="midnightblue" d="M280.307,-88.6939C390.838,-85.6343 584.7,-80.2678 694.037,-77.2412"/>
<polygon fill="midnightblue" stroke="midnightblue" points="280.103,-85.1981 270.204,-88.9736 280.297,-92.1954 280.103,-85.1981"/>
</g>
<!-- Node14 -->
<g id="node14" class="node"><title>Node14</title>
<g id="a_node14"><a xlink:href="../../df/df8/class_cell_society_view.html#ad52b914fa03b45d8bc9d64fc407660f3" target="_top" xlink:title="CellSocietyView.updateView">
<polygon fill="white" stroke="black" points="312.5,-43.5 312.5,-62.5 461.5,-62.5 461.5,-43.5 312.5,-43.5"/>
<text text-anchor="middle" x="387" y="-50.5" font-family="Helvetica,sans-Serif" font-size="10.00">CellSocietyView.updateView</text>
</a>
</g>
</g>
<!-- Node7&#45;&gt;Node14 -->
<g id="edge14" class="edge"><title>Node7&#45;&gt;Node14</title>
<path fill="none" stroke="midnightblue" d="M254.742,-79.3905C281.622,-73.986 313.203,-67.6365 338.65,-62.5201"/>
<polygon fill="midnightblue" stroke="midnightblue" points="253.807,-76.0084 244.693,-81.411 255.186,-82.8711 253.807,-76.0084"/>
</g>
<!-- Node9 -->
<g id="node9" class="node"><title>Node9</title>
<g id="a_node9"><a xlink:href="../../df/df8/class_cell_society_view.html#a2ee793e471cc5731ce39c1450f058dd5" target="_top" xlink:title="CellSocietyView.parseFile">
<polygon fill="white" stroke="black" points="894.5,-84.5 894.5,-103.5 1029.5,-103.5 1029.5,-84.5 894.5,-84.5"/>
<text text-anchor="middle" x="962" y="-91.5" font-family="Helvetica,sans-Serif" font-size="10.00">CellSocietyView.parseFile</text>
</a>
</g>
</g>
<!-- Node8&#45;&gt;Node9 -->
<g id="edge8" class="edge"><title>Node8&#45;&gt;Node9</title>
<path fill="none" stroke="midnightblue" d="M867.807,-84.3769C876.777,-85.3031 885.762,-86.2308 894.42,-87.1249"/>
<polygon fill="midnightblue" stroke="midnightblue" points="868.012,-80.8794 857.705,-83.3337 867.293,-87.8424 868.012,-80.8794"/>
</g>
<!-- Node10 -->
<g id="node10" class="node"><title>Node10</title>
<g id="a_node10"><a xlink:href="../../df/df8/class_cell_society_view.html#a2c047a3972078bb0a5490ed225ef2dfa" target="_top" xlink:title="CellSocietyView.loadNewFile">
<polygon fill="white" stroke="black" points="1066.5,-84.5 1066.5,-103.5 1215.5,-103.5 1215.5,-84.5 1066.5,-84.5"/>
<text text-anchor="middle" x="1141" y="-91.5" font-family="Helvetica,sans-Serif" font-size="10.00">CellSocietyView.loadNewFile</text>
</a>
</g>
</g>
<!-- Node9&#45;&gt;Node10 -->
<g id="edge9" class="edge"><title>Node9&#45;&gt;Node10</title>
<path fill="none" stroke="midnightblue" d="M1039.86,-94C1048.63,-94 1057.56,-94 1066.28,-94"/>
<polygon fill="midnightblue" stroke="midnightblue" points="1039.66,-90.5001 1029.66,-94 1039.66,-97.5001 1039.66,-90.5001"/>
</g>
<!-- Node11 -->
<g id="node11" class="node"><title>Node11</title>
<g id="a_node11"><a xlink:href="../../df/df8/class_cell_society_view.html#a656cfed0ba32bc41bbd0c4087860db4b" target="_top" xlink:title="CellSocietyView.makeLoad\lButton">
<polygon fill="white" stroke="black" points="1252.5,-82 1252.5,-112 1395.5,-112 1395.5,-82 1252.5,-82"/>
<text text-anchor="start" x="1260.5" y="-100" font-family="Helvetica,sans-Serif" font-size="10.00">CellSocietyView.makeLoad</text>
<text text-anchor="middle" x="1324" y="-89" font-family="Helvetica,sans-Serif" font-size="10.00">Button</text>
</a>
</g>
</g>
<!-- Node10&#45;&gt;Node11 -->
<g id="edge10" class="edge"><title>Node10&#45;&gt;Node11</title>
<path fill="none" stroke="midnightblue" d="M1225.65,-95.3865C1234.59,-95.5346 1243.61,-95.6841 1252.37,-95.8294"/>
<polygon fill="midnightblue" stroke="midnightblue" points="1225.68,-91.8865 1215.62,-95.2202 1225.56,-98.8856 1225.68,-91.8865"/>
</g>
<!-- Node12 -->
<g id="node12" class="node"><title>Node12</title>
<g id="a_node12"><a xlink:href="../../df/df8/class_cell_society_view.html#a53ab66afdeb23b3fc89e54a44be7ced5" target="_top" xlink:title="CellSocietyView.CellSocietyView">
<polygon fill="white" stroke="black" points="1432.5,-87.5 1432.5,-106.5 1599.5,-106.5 1599.5,-87.5 1432.5,-87.5"/>
<text text-anchor="middle" x="1516" y="-94.5" font-family="Helvetica,sans-Serif" font-size="10.00">CellSocietyView.CellSocietyView</text>
</a>
</g>
</g>
<!-- Node11&#45;&gt;Node12 -->
<g id="edge11" class="edge"><title>Node11&#45;&gt;Node12</title>
<path fill="none" stroke="midnightblue" d="M1405.92,-97C1414.66,-97 1423.57,-97 1432.33,-97"/>
<polygon fill="midnightblue" stroke="midnightblue" points="1405.75,-93.5001 1395.75,-97 1405.75,-100.5 1405.75,-93.5001"/>
</g>
<!-- Node13 -->
<g id="node13" class="node"><title>Node13</title>
<g id="a_node13"><a xlink:href="../../df/df8/class_cell_society_view.html#a7bdbd4e8fd3893e672eb22015603f6dc" target="_top" xlink:title="CellSocietyView.makeButtons">
<polygon fill="white" stroke="black" points="1437,-43.5 1437,-62.5 1595,-62.5 1595,-43.5 1437,-43.5"/>
<text text-anchor="middle" x="1516" y="-50.5" font-family="Helvetica,sans-Serif" font-size="10.00">CellSocietyView.makeButtons</text>
</a>
</g>
</g>
<!-- Node11&#45;&gt;Node13 -->
<g id="edge12" class="edge"><title>Node11&#45;&gt;Node13</title>
<path fill="none" stroke="midnightblue" d="M1399.79,-79.6813C1425.03,-73.8352 1452.27,-67.5268 1473.92,-62.5124"/>
<polygon fill="midnightblue" stroke="midnightblue" points="1398.81,-76.3148 1389.86,-81.9808 1400.39,-83.1344 1398.81,-76.3148"/>
</g>
<!-- Node13&#45;&gt;Node8 -->
<g id="edge13" class="edge"><title>Node13&#45;&gt;Node8</title>
<path fill="none" stroke="midnightblue" d="M1426.59,-55.6355C1282.02,-59.9453 997.169,-68.4367 857.737,-72.5932"/>
<polygon fill="midnightblue" stroke="midnightblue" points="1426.86,-59.129 1436.75,-55.3325 1426.65,-52.1321 1426.86,-59.129"/>
</g>
<!-- Node15 -->
<g id="node15" class="node"><title>Node15</title>
<g id="a_node15"><a xlink:href="../../df/df8/class_cell_society_view.html#adf6a6b0542d00677a9fffbb8e3c03ffe" target="_top" xlink:title="CellSocietyView.makeTimeline">
<polygon fill="white" stroke="black" points="498,-43.5 498,-62.5 658,-62.5 658,-43.5 498,-43.5"/>
<text text-anchor="middle" x="578" y="-50.5" font-family="Helvetica,sans-Serif" font-size="10.00">CellSocietyView.makeTimeline</text>
</a>
</g>
</g>
<!-- Node14&#45;&gt;Node15 -->
<g id="edge15" class="edge"><title>Node14&#45;&gt;Node15</title>
<path fill="none" stroke="midnightblue" d="M471.763,-53C480.473,-53 489.306,-53 497.961,-53"/>
<polygon fill="midnightblue" stroke="midnightblue" points="471.614,-49.5001 461.614,-53 471.613,-56.5001 471.614,-49.5001"/>
</g>
<!-- Node16 -->
<g id="node16" class="node"><title>Node16</title>
<g id="a_node16"><a xlink:href="../../df/df8/class_cell_society_view.html#aec6e94a6cf275f0b5d64a4b8adccd7d0" target="_top" xlink:title="CellSocietyView.makeStep\lButton">
<polygon fill="white" stroke="black" points="704.5,-0 704.5,-30 847.5,-30 847.5,-0 704.5,-0"/>
<text text-anchor="start" x="712.5" y="-18" font-family="Helvetica,sans-Serif" font-size="10.00">CellSocietyView.makeStep</text>
<text text-anchor="middle" x="776" y="-7" font-family="Helvetica,sans-Serif" font-size="10.00">Button</text>
</a>
</g>
</g>
<!-- Node14&#45;&gt;Node16 -->
<g id="edge17" class="edge"><title>Node14&#45;&gt;Node16</title>
<path fill="none" stroke="midnightblue" d="M446.899,-41.6797C463.385,-38.824 481.349,-36.0038 498,-34 567.873,-25.5917 648.143,-20.5942 704.224,-17.852"/>
<polygon fill="midnightblue" stroke="midnightblue" points="446.089,-38.2687 436.85,-43.4554 447.307,-45.1619 446.089,-38.2687"/>
</g>
<!-- Node15&#45;&gt;Node8 -->
<g id="edge16" class="edge"><title>Node15&#45;&gt;Node8</title>
<path fill="none" stroke="midnightblue" d="M668.271,-63.0202C676.937,-63.993 685.696,-64.976 694.272,-65.9386"/>
<polygon fill="midnightblue" stroke="midnightblue" points="668.484,-59.5222 658.156,-61.8848 667.703,-66.4785 668.484,-59.5222"/>
</g>
<!-- Node16&#45;&gt;Node13 -->
<g id="edge18" class="edge"><title>Node16&#45;&gt;Node13</title>
<path fill="none" stroke="midnightblue" d="M857.775,-19.1592C1000.56,-26.511 1295.74,-41.71 1436.72,-48.9693"/>
<polygon fill="midnightblue" stroke="midnightblue" points="857.929,-15.6625 847.763,-18.6436 857.569,-22.6533 857.929,-15.6625"/>
</g>
</g>
</svg>
