<?xml version="1.0" encoding="UTF-8" standalone="no"?>
<!DOCTYPE svg PUBLIC "-//W3C//DTD SVG 1.1//EN"
 "http://www.w3.org/Graphics/SVG/1.1/DTD/svg11.dtd">
<!-- Generated by graphviz version 2.36.0 (20140111.2315)
 -->
<!-- Title: Cell.setState Pages: 1 -->
<svg width="412pt" height="191pt"
 viewBox="0.00 0.00 412.00 191.00" xmlns="http://www.w3.org/2000/svg" xmlns:xlink="http://www.w3.org/1999/xlink">
<g id="graph0" class="graph" transform="scale(1 1) rotate(0) translate(4 187)">
<title>Cell.setState</title>
<polygon fill="white" stroke="none" points="-4,4 -4,-187 408,-187 408,4 -4,4"/>
<!-- Node1 -->
<g id="node1" class="node"><title>Node1</title>
<polygon fill="#bfbfbf" stroke="black" points="0,-87.5 0,-106.5 78,-106.5 78,-87.5 0,-87.5"/>
<text text-anchor="middle" x="39" y="-94.5" font-family="Helvetica,sans-Serif" font-size="10.00">Cell.setState</text>
</g>
<!-- Node2 -->
<g id="node2" class="node"><title>Node2</title>
<g id="a_node2"><a xlink:href="../../da/de8/class_move_cellular_automata.html#a90e79ebdb8723f3674bd90a264a143b8" target="_top" xlink:title="MoveCellularAutomata.move">
<polygon fill="white" stroke="black" points="114.5,-163.5 114.5,-182.5 269.5,-182.5 269.5,-163.5 114.5,-163.5"/>
<text text-anchor="middle" x="192" y="-170.5" font-family="Helvetica,sans-Serif" font-size="10.00">MoveCellularAutomata.move</text>
</a>
</g>
</g>
<!-- Node1&#45;&gt;Node2 -->
<g id="edge1" class="edge"><title>Node1&#45;&gt;Node2</title>
<path fill="none" stroke="midnightblue" d="M57.1069,-113.539C71.2775,-126.362 92.5075,-143.641 114,-154 121.938,-157.826 130.72,-160.927 139.427,-163.425"/>
<polygon fill="midnightblue" stroke="midnightblue" points="59.3381,-110.834 49.6307,-106.59 54.5723,-115.962 59.3381,-110.834"/>
</g>
<!-- Node3 -->
<g id="node3" class="node"><title>Node3</title>
<g id="a_node3"><a xlink:href="../../dc/d06/class_mover.html#af157bc60c3ea8c2f1eb4672489251d57" target="_top" xlink:title="Mover.Mover">
<polygon fill="white" stroke="black" points="153.5,-125.5 153.5,-144.5 230.5,-144.5 230.5,-125.5 153.5,-125.5"/>
<text text-anchor="middle" x="192" y="-132.5" font-family="Helvetica,sans-Serif" font-size="10.00">Mover.Mover</text>
</a>
</g>
</g>
<!-- Node1&#45;&gt;Node3 -->
<g id="edge2" class="edge"><title>Node1&#45;&gt;Node3</title>
<path fill="none" stroke="midnightblue" d="M86.8414,-109.098C95.8509,-111.405 105.215,-113.788 114,-116 126.818,-119.227 140.851,-122.706 153.385,-125.793"/>
<polygon fill="midnightblue" stroke="midnightblue" points="87.4262,-105.635 76.8701,-106.539 85.6865,-112.415 87.4262,-105.635"/>
</g>
<!-- Node4 -->
<g id="node4" class="node"><title>Node4</title>
<g id="a_node4"><a xlink:href="../../d0/db0/class_wator.html#aa8dba59120d9d6d7d7521f3a4ee7b454" target="_top" xlink:title="Wator.ruleTwo">
<polygon fill="white" stroke="black" points="152,-87.5 152,-106.5 232,-106.5 232,-87.5 152,-87.5"/>
<text text-anchor="middle" x="192" y="-94.5" font-family="Helvetica,sans-Serif" font-size="10.00">Wator.ruleTwo</text>
</a>
</g>
</g>
<!-- Node1&#45;&gt;Node4 -->
<g id="edge3" class="edge"><title>Node1&#45;&gt;Node4</title>
<path fill="none" stroke="midnightblue" d="M88.2148,-97C108.76,-97 132.419,-97 151.856,-97"/>
<polygon fill="midnightblue" stroke="midnightblue" points="88.1037,-93.5001 78.1037,-97 88.1036,-100.5 88.1037,-93.5001"/>
</g>
<!-- Node6 -->
<g id="node6" class="node"><title>Node6</title>
<g id="a_node6"><a xlink:href="../../d9/df1/class_fire.html#afd16418c5ea360c815613862a4ea1c33" target="_top" xlink:title="Fire.setUpInitialConfig">
<polygon fill="white" stroke="black" points="132.5,-49.5 132.5,-68.5 251.5,-68.5 251.5,-49.5 132.5,-49.5"/>
<text text-anchor="middle" x="192" y="-56.5" font-family="Helvetica,sans-Serif" font-size="10.00">Fire.setUpInitialConfig</text>
</a>
</g>
</g>
<!-- Node1&#45;&gt;Node6 -->
<g id="edge5" class="edge"><title>Node1&#45;&gt;Node6</title>
<path fill="none" stroke="midnightblue" d="M86.8414,-84.9022C95.8509,-82.5954 105.215,-80.2116 114,-78 126.284,-74.9075 139.684,-71.5838 151.81,-68.5946"/>
<polygon fill="midnightblue" stroke="midnightblue" points="85.6865,-81.5851 76.8701,-87.4606 87.4262,-88.3655 85.6865,-81.5851"/>
</g>
<!-- Node7 -->
<g id="node7" class="node"><title>Node7</title>
<g id="a_node7"><a xlink:href="../../d2/d40/class_cellular_automata.html#a36aec0679e06662be2e1a89ac9c88cfa" target="_top" xlink:title="CellularAutomata.setUpInitial\lConfig">
<polygon fill="white" stroke="black" points="114,-0 114,-30 270,-30 270,-0 114,-0"/>
<text text-anchor="start" x="122" y="-18" font-family="Helvetica,sans-Serif" font-size="10.00">CellularAutomata.setUpInitial</text>
<text text-anchor="middle" x="192" y="-7" font-family="Helvetica,sans-Serif" font-size="10.00">Config</text>
</a>
</g>
</g>
<!-- Node1&#45;&gt;Node7 -->
<g id="edge6" class="edge"><title>Node1&#45;&gt;Node7</title>
<path fill="none" stroke="midnightblue" d="M57.8067,-80.4464C72.0903,-67.9009 93.1342,-50.9997 114,-40 121.087,-36.264 128.835,-32.9523 136.599,-30.0612"/>
<polygon fill="midnightblue" stroke="midnightblue" points="55.3307,-77.9657 50.2304,-87.2521 60.0086,-83.1732 55.3307,-77.9657"/>
</g>
<!-- Node5 -->
<g id="node5" class="node"><title>Node5</title>
<g id="a_node5"><a xlink:href="../../d0/db0/class_wator.html#a422810cdcb035633301b3469cbee5e34" target="_top" xlink:title="Wator.checkRules">
<polygon fill="white" stroke="black" points="306,-87.5 306,-106.5 404,-106.5 404,-87.5 306,-87.5"/>
<text text-anchor="middle" x="355" y="-94.5" font-family="Helvetica,sans-Serif" font-size="10.00">Wator.checkRules</text>
</a>
</g>
</g>
<!-- Node4&#45;&gt;Node5 -->
<g id="edge4" class="edge"><title>Node4&#45;&gt;Node5</title>
<path fill="none" stroke="midnightblue" d="M242.594,-97C262.709,-97 285.858,-97 305.826,-97"/>
<polygon fill="midnightblue" stroke="midnightblue" points="242.385,-93.5001 232.385,-97 242.385,-100.5 242.385,-93.5001"/>
</g>
</g>
</svg>
