<?xml version="1.0" encoding="UTF-8" standalone="no"?>
<!DOCTYPE svg PUBLIC "-//W3C//DTD SVG 1.1//EN"
 "http://www.w3.org/Graphics/SVG/1.1/DTD/svg11.dtd">
<!-- Generated by graphviz version 2.36.0 (20140111.2315)
 -->
<!-- Title: Cell.getPosY Pages: 1 -->
<svg width="540pt" height="142pt"
 viewBox="0.00 0.00 540.00 142.00" xmlns="http://www.w3.org/2000/svg" xmlns:xlink="http://www.w3.org/1999/xlink">
<g id="graph0" class="graph" transform="scale(1 1) rotate(0) translate(4 138)">
<title>Cell.getPosY</title>
<polygon fill="white" stroke="none" points="-4,4 -4,-138 536,-138 536,4 -4,4"/>
<!-- Node1 -->
<g id="node1" class="node"><title>Node1</title>
<polygon fill="#bfbfbf" stroke="black" points="0.5,-57.5 0.5,-76.5 75.5,-76.5 75.5,-57.5 0.5,-57.5"/>
<text text-anchor="middle" x="38" y="-64.5" font-family="Helvetica,sans-Serif" font-size="10.00">Cell.getPosY</text>
</g>
<!-- Node2 -->
<g id="node2" class="node"><title>Node2</title>
<g id="a_node2"><a xlink:href="../../da/d74/class_grid.html#a33b84a1d6b40a447bdd4a33fa3daf555" target="_top" xlink:title="Grid.getNeighbors">
<polygon fill="white" stroke="black" points="112,-57.5 112,-76.5 216,-76.5 216,-57.5 112,-57.5"/>
<text text-anchor="middle" x="164" y="-64.5" font-family="Helvetica,sans-Serif" font-size="10.00">Grid.getNeighbors</text>
</a>
</g>
</g>
<!-- Node1&#45;&gt;Node2 -->
<g id="edge1" class="edge"><title>Node1&#45;&gt;Node2</title>
<path fill="none" stroke="midnightblue" d="M85.6171,-67C94.0881,-67 102.968,-67 111.569,-67"/>
<polygon fill="midnightblue" stroke="midnightblue" points="85.5335,-63.5001 75.5334,-67 85.5334,-70.5001 85.5335,-63.5001"/>
</g>
<!-- Node3 -->
<g id="node3" class="node"><title>Node3</title>
<g id="a_node3"><a xlink:href="../../d9/df1/class_fire.html#accc21ae2162fd526d8ca66c472a62a28" target="_top" xlink:title="Fire.ruleTwo">
<polygon fill="white" stroke="black" points="274.5,-114.5 274.5,-133.5 345.5,-133.5 345.5,-114.5 274.5,-114.5"/>
<text text-anchor="middle" x="310" y="-121.5" font-family="Helvetica,sans-Serif" font-size="10.00">Fire.ruleTwo</text>
</a>
</g>
</g>
<!-- Node2&#45;&gt;Node3 -->
<g id="edge2" class="edge"><title>Node2&#45;&gt;Node3</title>
<path fill="none" stroke="midnightblue" d="M194.765,-80.7934C211.442,-88.3209 232.708,-97.5886 252,-105 260.569,-108.292 269.982,-111.566 278.646,-114.445"/>
<polygon fill="midnightblue" stroke="midnightblue" points="196.077,-77.5452 185.525,-76.5896 193.178,-83.9167 196.077,-77.5452"/>
</g>
<!-- Node5 -->
<g id="node5" class="node"><title>Node5</title>
<g id="a_node5"><a xlink:href="../../d8/d84/class_game_of_life.html#aca7cd11a349cf14c940011021f91127f" target="_top" xlink:title="GameOfLife.ruleOne">
<polygon fill="white" stroke="black" points="253.5,-76.5 253.5,-95.5 366.5,-95.5 366.5,-76.5 253.5,-76.5"/>
<text text-anchor="middle" x="310" y="-83.5" font-family="Helvetica,sans-Serif" font-size="10.00">GameOfLife.ruleOne</text>
</a>
</g>
</g>
<!-- Node2&#45;&gt;Node5 -->
<g id="edge4" class="edge"><title>Node2&#45;&gt;Node5</title>
<path fill="none" stroke="midnightblue" d="M226.147,-75.068C235.092,-76.2483 244.267,-77.4588 253.1,-78.6244"/>
<polygon fill="midnightblue" stroke="midnightblue" points="226.546,-71.5905 216.174,-73.7522 225.631,-78.5303 226.546,-71.5905"/>
</g>
<!-- Node7 -->
<g id="node7" class="node"><title>Node7</title>
<g id="a_node7"><a xlink:href="../../d8/d84/class_game_of_life.html#a6b6c946c47342fd7e4595710d72a9217" target="_top" xlink:title="GameOfLife.ruleTwo">
<polygon fill="white" stroke="black" points="255,-38.5 255,-57.5 365,-57.5 365,-38.5 255,-38.5"/>
<text text-anchor="middle" x="310" y="-45.5" font-family="Helvetica,sans-Serif" font-size="10.00">GameOfLife.ruleTwo</text>
</a>
</g>
</g>
<!-- Node2&#45;&gt;Node7 -->
<g id="edge6" class="edge"><title>Node2&#45;&gt;Node7</title>
<path fill="none" stroke="midnightblue" d="M226.256,-58.9176C235.666,-57.676 245.327,-56.4013 254.576,-55.181"/>
<polygon fill="midnightblue" stroke="midnightblue" points="225.631,-55.4697 216.174,-60.2478 226.546,-62.4095 225.631,-55.4697"/>
</g>
<!-- Node8 -->
<g id="node8" class="node"><title>Node8</title>
<g id="a_node8"><a xlink:href="../../da/d1e/class_segregation.html#a49b8fcb38373080b203a974f5c24d166" target="_top" xlink:title="Segregation.ruleOne">
<polygon fill="white" stroke="black" points="252,-0.5 252,-19.5 368,-19.5 368,-0.5 252,-0.5"/>
<text text-anchor="middle" x="310" y="-7.5" font-family="Helvetica,sans-Serif" font-size="10.00">Segregation.ruleOne</text>
</a>
</g>
</g>
<!-- Node2&#45;&gt;Node8 -->
<g id="edge8" class="edge"><title>Node2&#45;&gt;Node8</title>
<path fill="none" stroke="midnightblue" d="M194.765,-53.2066C211.442,-45.6791 232.708,-36.4114 252,-29 260.569,-25.7082 269.982,-22.4344 278.646,-19.5552"/>
<polygon fill="midnightblue" stroke="midnightblue" points="193.178,-50.0833 185.525,-57.4104 196.077,-56.4548 193.178,-50.0833"/>
</g>
<!-- Node4 -->
<g id="node4" class="node"><title>Node4</title>
<g id="a_node4"><a xlink:href="../../d9/df1/class_fire.html#a7e440468aacc413772a274bb8029e8bb" target="_top" xlink:title="Fire.applyRules">
<polygon fill="white" stroke="black" points="425,-114.5 425,-133.5 511,-133.5 511,-114.5 425,-114.5"/>
<text text-anchor="middle" x="468" y="-121.5" font-family="Helvetica,sans-Serif" font-size="10.00">Fire.applyRules</text>
</a>
</g>
</g>
<!-- Node3&#45;&gt;Node4 -->
<g id="edge3" class="edge"><title>Node3&#45;&gt;Node4</title>
<path fill="none" stroke="midnightblue" d="M355.624,-124C377.433,-124 403.531,-124 424.98,-124"/>
<polygon fill="midnightblue" stroke="midnightblue" points="355.621,-120.5 345.621,-124 355.621,-127.5 355.621,-120.5"/>
</g>
<!-- Node6 -->
<g id="node6" class="node"><title>Node6</title>
<g id="a_node6"><a xlink:href="../../d8/d84/class_game_of_life.html#a8085307c182bb4d9149f98dfc8f26979" target="_top" xlink:title="GameOfLife.applyRules">
<polygon fill="white" stroke="black" points="405,-57.5 405,-76.5 531,-76.5 531,-57.5 405,-57.5"/>
<text text-anchor="middle" x="468" y="-64.5" font-family="Helvetica,sans-Serif" font-size="10.00">GameOfLife.applyRules</text>
</a>
</g>
</g>
<!-- Node5&#45;&gt;Node6 -->
<g id="edge5" class="edge"><title>Node5&#45;&gt;Node6</title>
<path fill="none" stroke="midnightblue" d="M376.846,-77.9802C386.141,-76.8482 395.672,-75.6873 404.894,-74.5642"/>
<polygon fill="midnightblue" stroke="midnightblue" points="376.382,-74.5108 366.879,-79.1942 377.229,-81.4595 376.382,-74.5108"/>
</g>
<!-- Node7&#45;&gt;Node6 -->
<g id="edge7" class="edge"><title>Node7&#45;&gt;Node6</title>
<path fill="none" stroke="midnightblue" d="M375.224,-55.8222C385.047,-57.0186 395.172,-58.2517 404.947,-59.4423"/>
<polygon fill="midnightblue" stroke="midnightblue" points="375.473,-52.3267 365.123,-54.592 374.627,-59.2754 375.473,-52.3267"/>
</g>
<!-- Node9 -->
<g id="node9" class="node"><title>Node9</title>
<g id="a_node9"><a xlink:href="../../da/d1e/class_segregation.html#a45e57140276ed3b1897cf8212b6283d4" target="_top" xlink:title="Segregation.applyRules">
<polygon fill="white" stroke="black" points="404,-0.5 404,-19.5 532,-19.5 532,-0.5 404,-0.5"/>
<text text-anchor="middle" x="468" y="-7.5" font-family="Helvetica,sans-Serif" font-size="10.00">Segregation.applyRules</text>
</a>
</g>
</g>
<!-- Node8&#45;&gt;Node9 -->
<g id="edge9" class="edge"><title>Node8&#45;&gt;Node9</title>
<path fill="none" stroke="midnightblue" d="M378.37,-10C386.796,-10 395.391,-10 403.751,-10"/>
<polygon fill="midnightblue" stroke="midnightblue" points="378.203,-6.5001 368.203,-10 378.203,-13.5001 378.203,-6.5001"/>
</g>
</g>
</svg>
