<?xml version="1.0" encoding="UTF-8" standalone="no"?>
<!DOCTYPE svg PUBLIC "-//W3C//DTD SVG 1.1//EN"
 "http://www.w3.org/Graphics/SVG/1.1/DTD/svg11.dtd">
<!-- Generated by graphviz version 2.36.0 (20140111.2315)
 -->
<!-- Title: Cell.setState Pages: 1 -->
<svg width="532pt" height="66pt"
 viewBox="0.00 0.00 532.00 66.00" xmlns="http://www.w3.org/2000/svg" xmlns:xlink="http://www.w3.org/1999/xlink">
<g id="graph0" class="graph" transform="scale(1 1) rotate(0) translate(4 62)">
<title>Cell.setState</title>
<polygon fill="white" stroke="none" points="-4,4 -4,-62 528,-62 528,4 -4,4"/>
<!-- Node1 -->
<g id="node1" class="node"><title>Node1</title>
<polygon fill="#bfbfbf" stroke="black" points="0,-19.5 0,-38.5 78,-38.5 78,-19.5 0,-19.5"/>
<text text-anchor="middle" x="39" y="-26.5" font-family="Helvetica,sans-Serif" font-size="10.00">Cell.setState</text>
</g>
<!-- Node2 -->
<g id="node2" class="node"><title>Node2</title>
<g id="a_node2"><a xlink:href="../../da/de8/class_move_cellular_automata.html#a90e79ebdb8723f3674bd90a264a143b8" target="_top" xlink:title="MoveCellularAutomata.move">
<polygon fill="white" stroke="black" points="114.5,-38.5 114.5,-57.5 269.5,-57.5 269.5,-38.5 114.5,-38.5"/>
<text text-anchor="middle" x="192" y="-45.5" font-family="Helvetica,sans-Serif" font-size="10.00">MoveCellularAutomata.move</text>
</a>
</g>
</g>
<!-- Node1&#45;&gt;Node2 -->
<g id="edge1" class="edge"><title>Node1&#45;&gt;Node2</title>
<path fill="none" stroke="midnightblue" d="M88.2955,-35.0769C96.902,-36.1599 106.053,-37.3113 115.21,-38.4635"/>
<polygon fill="midnightblue" stroke="midnightblue" points="88.4624,-31.5704 78.1037,-33.7945 87.5885,-38.5156 88.4624,-31.5704"/>
</g>
<!-- Node5 -->
<g id="node5" class="node"><title>Node5</title>
<g id="a_node5"><a xlink:href="../../d0/db0/class_wator.html#aa8dba59120d9d6d7d7521f3a4ee7b454" target="_top" xlink:title="Wator.ruleTwo">
<polygon fill="white" stroke="black" points="308,-0.5 308,-19.5 388,-19.5 388,-0.5 308,-0.5"/>
<text text-anchor="middle" x="348" y="-7.5" font-family="Helvetica,sans-Serif" font-size="10.00">Wator.ruleTwo</text>
</a>
</g>
</g>
<!-- Node1&#45;&gt;Node5 -->
<g id="edge6" class="edge"><title>Node1&#45;&gt;Node5</title>
<path fill="none" stroke="midnightblue" d="M88.344,-26.008C148.979,-22.2554 251.766,-15.8939 307.771,-12.4279"/>
<polygon fill="midnightblue" stroke="midnightblue" points="88.0257,-22.5209 78.261,-26.6321 88.4582,-29.5076 88.0257,-22.5209"/>
</g>
<!-- Node3 -->
<g id="node3" class="node"><title>Node3</title>
<g id="a_node3"><a xlink:href="../../d0/db0/class_wator.html#a0afccb8f97e33c1d21e51ee1a3f4922b" target="_top" xlink:title="Wator.ruleOne">
<polygon fill="white" stroke="black" points="306.5,-38.5 306.5,-57.5 389.5,-57.5 389.5,-38.5 306.5,-38.5"/>
<text text-anchor="middle" x="348" y="-45.5" font-family="Helvetica,sans-Serif" font-size="10.00">Wator.ruleOne</text>
</a>
</g>
</g>
<!-- Node2&#45;&gt;Node3 -->
<g id="edge2" class="edge"><title>Node2&#45;&gt;Node3</title>
<path fill="none" stroke="midnightblue" d="M279.632,-48C288.881,-48 297.941,-48 306.268,-48"/>
<polygon fill="midnightblue" stroke="midnightblue" points="279.549,-44.5001 269.549,-48 279.549,-51.5001 279.549,-44.5001"/>
</g>
<!-- Node2&#45;&gt;Node5 -->
<g id="edge4" class="edge"><title>Node2&#45;&gt;Node5</title>
<path fill="none" stroke="midnightblue" d="M241.794,-35.96C263.308,-30.6512 288.232,-24.5012 308.419,-19.5201"/>
<polygon fill="midnightblue" stroke="midnightblue" points="240.731,-32.6172 231.861,-38.411 242.408,-39.4133 240.731,-32.6172"/>
</g>
<!-- Node4 -->
<g id="node4" class="node"><title>Node4</title>
<g id="a_node4"><a xlink:href="../../d0/db0/class_wator.html#a422810cdcb035633301b3469cbee5e34" target="_top" xlink:title="Wator.checkRules">
<polygon fill="white" stroke="black" points="426,-19.5 426,-38.5 524,-38.5 524,-19.5 426,-19.5"/>
<text text-anchor="middle" x="475" y="-26.5" font-family="Helvetica,sans-Serif" font-size="10.00">Wator.checkRules</text>
</a>
</g>
</g>
<!-- Node3&#45;&gt;Node4 -->
<g id="edge3" class="edge"><title>Node3&#45;&gt;Node4</title>
<path fill="none" stroke="midnightblue" d="M399.557,-40.3153C408.213,-38.9996 417.187,-37.6356 425.779,-36.3295"/>
<polygon fill="midnightblue" stroke="midnightblue" points="398.944,-36.8682 389.584,-41.8312 399.996,-43.7887 398.944,-36.8682"/>
</g>
<!-- Node5&#45;&gt;Node4 -->
<g id="edge5" class="edge"><title>Node5&#45;&gt;Node4</title>
<path fill="none" stroke="midnightblue" d="M398.209,-17.4797C407.251,-18.8542 416.683,-20.2878 425.698,-21.6581"/>
<polygon fill="midnightblue" stroke="midnightblue" points="398.62,-14.0022 388.208,-15.9596 397.568,-20.9227 398.62,-14.0022"/>
</g>
</g>
</svg>
