<?xml version="1.0" encoding="UTF-8" standalone="no"?>
<!DOCTYPE svg PUBLIC "-//W3C//DTD SVG 1.1//EN"
 "http://www.w3.org/Graphics/SVG/1.1/DTD/svg11.dtd">
<!-- Generated by graphviz version 2.36.0 (20140111.2315)
 -->
<!-- Title: Cell.update Pages: 1 -->
<svg width="640pt" height="85pt"
 viewBox="0.00 0.00 640.00 85.00" xmlns="http://www.w3.org/2000/svg" xmlns:xlink="http://www.w3.org/1999/xlink">
<g id="graph0" class="graph" transform="scale(1 1) rotate(0) translate(4 81)">
<title>Cell.update</title>
<polygon fill="white" stroke="none" points="-4,4 -4,-81 636,-81 636,4 -4,4"/>
<!-- Node1 -->
<g id="node1" class="node"><title>Node1</title>
<polygon fill="#bfbfbf" stroke="black" points="0.5,-38.5 0.5,-57.5 71.5,-57.5 71.5,-38.5 0.5,-38.5"/>
<text text-anchor="middle" x="36" y="-45.5" font-family="Helvetica,sans-Serif" font-size="10.00">Cell.update</text>
</g>
<!-- Node2 -->
<g id="node2" class="node"><title>Node2</title>
<g id="a_node2"><a xlink:href="../../dc/d06/class_mover.html#af157bc60c3ea8c2f1eb4672489251d57" target="_top" xlink:title="Mover.Mover">
<polygon fill="white" stroke="black" points="108.5,-57.5 108.5,-76.5 185.5,-76.5 185.5,-57.5 108.5,-57.5"/>
<text text-anchor="middle" x="147" y="-64.5" font-family="Helvetica,sans-Serif" font-size="10.00">Mover.Mover</text>
</a>
</g>
</g>
<!-- Node1&#45;&gt;Node2 -->
<g id="edge1" class="edge"><title>Node1&#45;&gt;Node2</title>
<path fill="none" stroke="midnightblue" d="M81.8357,-55.8154C90.5768,-57.3391 99.6606,-58.9225 108.148,-60.402"/>
<polygon fill="midnightblue" stroke="midnightblue" points="82.2405,-52.3333 71.788,-54.064 81.0384,-59.2293 82.2405,-52.3333"/>
</g>
<!-- Node3 -->
<g id="node3" class="node"><title>Node3</title>
<g id="a_node3"><a xlink:href="../../dd/d11/class_cell.html#aaaf321e273ef5b6ac3fae80e36d19629" target="_top" xlink:title="Cell.setState">
<polygon fill="white" stroke="black" points="108,-19.5 108,-38.5 186,-38.5 186,-19.5 108,-19.5"/>
<text text-anchor="middle" x="147" y="-26.5" font-family="Helvetica,sans-Serif" font-size="10.00">Cell.setState</text>
</a>
</g>
</g>
<!-- Node1&#45;&gt;Node3 -->
<g id="edge2" class="edge"><title>Node1&#45;&gt;Node3</title>
<path fill="none" stroke="midnightblue" d="M81.7253,-40.2038C90.3696,-38.697 99.3531,-37.1311 107.767,-35.6645"/>
<polygon fill="midnightblue" stroke="midnightblue" points="81.0384,-36.7707 71.788,-41.936 82.2405,-43.6667 81.0384,-36.7707"/>
</g>
<!-- Node4 -->
<g id="node4" class="node"><title>Node4</title>
<g id="a_node4"><a xlink:href="../../da/de8/class_move_cellular_automata.html#a90e79ebdb8723f3674bd90a264a143b8" target="_top" xlink:title="MoveCellularAutomata.move">
<polygon fill="white" stroke="black" points="222.5,-38.5 222.5,-57.5 377.5,-57.5 377.5,-38.5 222.5,-38.5"/>
<text text-anchor="middle" x="300" y="-45.5" font-family="Helvetica,sans-Serif" font-size="10.00">MoveCellularAutomata.move</text>
</a>
</g>
</g>
<!-- Node3&#45;&gt;Node4 -->
<g id="edge3" class="edge"><title>Node3&#45;&gt;Node4</title>
<path fill="none" stroke="midnightblue" d="M196.296,-35.0769C204.902,-36.1599 214.053,-37.3113 223.21,-38.4635"/>
<polygon fill="midnightblue" stroke="midnightblue" points="196.462,-31.5704 186.104,-33.7945 195.588,-38.5156 196.462,-31.5704"/>
</g>
<!-- Node7 -->
<g id="node7" class="node"><title>Node7</title>
<g id="a_node7"><a xlink:href="../../d0/db0/class_wator.html#aa8dba59120d9d6d7d7521f3a4ee7b454" target="_top" xlink:title="Wator.ruleTwo">
<polygon fill="white" stroke="black" points="416,-0.5 416,-19.5 496,-19.5 496,-0.5 416,-0.5"/>
<text text-anchor="middle" x="456" y="-7.5" font-family="Helvetica,sans-Serif" font-size="10.00">Wator.ruleTwo</text>
</a>
</g>
</g>
<!-- Node3&#45;&gt;Node7 -->
<g id="edge8" class="edge"><title>Node3&#45;&gt;Node7</title>
<path fill="none" stroke="midnightblue" d="M196.344,-26.008C256.979,-22.2554 359.766,-15.8939 415.771,-12.4279"/>
<polygon fill="midnightblue" stroke="midnightblue" points="196.026,-22.5209 186.261,-26.6321 196.458,-29.5076 196.026,-22.5209"/>
</g>
<!-- Node5 -->
<g id="node5" class="node"><title>Node5</title>
<g id="a_node5"><a xlink:href="../../d0/db0/class_wator.html#a0afccb8f97e33c1d21e51ee1a3f4922b" target="_top" xlink:title="Wator.ruleOne">
<polygon fill="white" stroke="black" points="414.5,-38.5 414.5,-57.5 497.5,-57.5 497.5,-38.5 414.5,-38.5"/>
<text text-anchor="middle" x="456" y="-45.5" font-family="Helvetica,sans-Serif" font-size="10.00">Wator.ruleOne</text>
</a>
</g>
</g>
<!-- Node4&#45;&gt;Node5 -->
<g id="edge4" class="edge"><title>Node4&#45;&gt;Node5</title>
<path fill="none" stroke="midnightblue" d="M387.632,-48C396.881,-48 405.941,-48 414.268,-48"/>
<polygon fill="midnightblue" stroke="midnightblue" points="387.549,-44.5001 377.549,-48 387.549,-51.5001 387.549,-44.5001"/>
</g>
<!-- Node4&#45;&gt;Node7 -->
<g id="edge6" class="edge"><title>Node4&#45;&gt;Node7</title>
<path fill="none" stroke="midnightblue" d="M349.794,-35.96C371.308,-30.6512 396.232,-24.5012 416.419,-19.5201"/>
<polygon fill="midnightblue" stroke="midnightblue" points="348.731,-32.6172 339.861,-38.411 350.408,-39.4133 348.731,-32.6172"/>
</g>
<!-- Node6 -->
<g id="node6" class="node"><title>Node6</title>
<g id="a_node6"><a xlink:href="../../d0/db0/class_wator.html#a422810cdcb035633301b3469cbee5e34" target="_top" xlink:title="Wator.checkRules">
<polygon fill="white" stroke="black" points="534,-19.5 534,-38.5 632,-38.5 632,-19.5 534,-19.5"/>
<text text-anchor="middle" x="583" y="-26.5" font-family="Helvetica,sans-Serif" font-size="10.00">Wator.checkRules</text>
</a>
</g>
</g>
<!-- Node5&#45;&gt;Node6 -->
<g id="edge5" class="edge"><title>Node5&#45;&gt;Node6</title>
<path fill="none" stroke="midnightblue" d="M507.557,-40.3153C516.213,-38.9996 525.187,-37.6356 533.779,-36.3295"/>
<polygon fill="midnightblue" stroke="midnightblue" points="506.944,-36.8682 497.584,-41.8312 507.996,-43.7887 506.944,-36.8682"/>
</g>
<!-- Node7&#45;&gt;Node6 -->
<g id="edge7" class="edge"><title>Node7&#45;&gt;Node6</title>
<path fill="none" stroke="midnightblue" d="M506.209,-17.4797C515.251,-18.8542 524.683,-20.2878 533.698,-21.6581"/>
<polygon fill="midnightblue" stroke="midnightblue" points="506.62,-14.0022 496.208,-15.9596 505.568,-20.9227 506.62,-14.0022"/>
</g>
</g>
</svg>
