<?xml version="1.0" encoding="UTF-8" standalone="no"?>
<!DOCTYPE svg PUBLIC "-//W3C//DTD SVG 1.1//EN"
 "http://www.w3.org/Graphics/SVG/1.1/DTD/svg11.dtd">
<!-- Generated by graphviz version 2.36.0 (20140111.2315)
 -->
<!-- Title: Cell.setState Pages: 1 -->
<svg width="224pt" height="66pt"
 viewBox="0.00 0.00 224.00 66.00" xmlns="http://www.w3.org/2000/svg" xmlns:xlink="http://www.w3.org/1999/xlink">
<g id="graph0" class="graph" transform="scale(1 1) rotate(0) translate(4 62)">
<title>Cell.setState</title>
<polygon fill="white" stroke="none" points="-4,4 -4,-62 220,-62 220,4 -4,4"/>
<!-- Node1 -->
<g id="node1" class="node"><title>Node1</title>
<polygon fill="#bfbfbf" stroke="black" points="0,-19.5 0,-38.5 78,-38.5 78,-19.5 0,-19.5"/>
<text text-anchor="middle" x="39" y="-26.5" font-family="Helvetica,sans-Serif" font-size="10.00">Cell.setState</text>
</g>
<!-- Node2 -->
<g id="node2" class="node"><title>Node2</title>
<g id="a_node2"><a xlink:href="../../dd/d11/class_cell.html#a6ddc434a1826fac1599a7d901ff2d162" target="_top" xlink:title="Cell.setNextState">
<polygon fill="white" stroke="black" points="114.5,-38.5 114.5,-57.5 215.5,-57.5 215.5,-38.5 114.5,-38.5"/>
<text text-anchor="middle" x="165" y="-45.5" font-family="Helvetica,sans-Serif" font-size="10.00">Cell.setNextState</text>
</a>
</g>
</g>
<!-- Node1&#45;&gt;Node2 -->
<g id="edge1" class="edge"><title>Node1&#45;&gt;Node2</title>
<path fill="none" stroke="midnightblue" d="M78.2159,-34.8557C86.4883,-36.1232 95.4265,-37.4928 104.302,-38.8527"/>
<polygon fill="midnightblue" stroke="midnightblue" points="103.842,-42.323 114.257,-40.378 104.902,-35.4037 103.842,-42.323"/>
</g>
<!-- Node3 -->
<g id="node3" class="node"><title>Node3</title>
<g id="a_node3"><a xlink:href="../../dd/d11/class_cell.html#adfc3c76d1f230a143057441eb6eabb62" target="_top" xlink:title="Cell.update">
<polygon fill="white" stroke="black" points="129.5,-0.5 129.5,-19.5 200.5,-19.5 200.5,-0.5 129.5,-0.5"/>
<text text-anchor="middle" x="165" y="-7.5" font-family="Helvetica,sans-Serif" font-size="10.00">Cell.update</text>
</a>
</g>
</g>
<!-- Node1&#45;&gt;Node3 -->
<g id="edge2" class="edge"><title>Node1&#45;&gt;Node3</title>
<path fill="none" stroke="midnightblue" d="M78.2159,-23.1443C91.2583,-21.1459 105.956,-18.8939 119.452,-16.8259"/>
<polygon fill="midnightblue" stroke="midnightblue" points="120.137,-20.2619 129.491,-15.2876 119.076,-13.3427 120.137,-20.2619"/>
</g>
</g>
</svg>
