<?xml version="1.0" encoding="UTF-8" standalone="no"?>
<!DOCTYPE svg PUBLIC "-//W3C//DTD SVG 1.1//EN"
 "http://www.w3.org/Graphics/SVG/1.1/DTD/svg11.dtd">
<!-- Generated by graphviz version 2.36.0 (20140111.2315)
 -->
<!-- Title: Cell.setNextState Pages: 1 -->
<svg width="586pt" height="237pt"
 viewBox="0.00 0.00 586.00 237.00" xmlns="http://www.w3.org/2000/svg" xmlns:xlink="http://www.w3.org/1999/xlink">
<g id="graph0" class="graph" transform="scale(1 1) rotate(0) translate(4 233)">
<title>Cell.setNextState</title>
<polygon fill="white" stroke="none" points="-4,4 -4,-233 582,-233 582,4 -4,4"/>
<!-- Node1 -->
<g id="node1" class="node"><title>Node1</title>
<polygon fill="#bfbfbf" stroke="black" points="0.5,-133.5 0.5,-152.5 101.5,-152.5 101.5,-133.5 0.5,-133.5"/>
<text text-anchor="middle" x="51" y="-140.5" font-family="Helvetica,sans-Serif" font-size="10.00">Cell.setNextState</text>
</g>
<!-- Node2 -->
<g id="node2" class="node"><title>Node2</title>
<g id="a_node2"><a xlink:href="../../d8/d84/class_game_of_life.html#aca7cd11a349cf14c940011021f91127f" target="_top" xlink:title="GameOfLife.ruleOne">
<polygon fill="white" stroke="black" points="138.5,-209.5 138.5,-228.5 251.5,-228.5 251.5,-209.5 138.5,-209.5"/>
<text text-anchor="middle" x="195" y="-216.5" font-family="Helvetica,sans-Serif" font-size="10.00">GameOfLife.ruleOne</text>
</a>
</g>
</g>
<!-- Node1&#45;&gt;Node2 -->
<g id="edge1" class="edge"><title>Node1&#45;&gt;Node2</title>
<path fill="none" stroke="midnightblue" d="M72.238,-158.596C89.1179,-171.055 114.173,-188.308 138,-200 145.281,-203.573 153.401,-206.75 161.149,-209.436"/>
<polygon fill="midnightblue" stroke="midnightblue" points="74.3061,-155.772 64.206,-152.572 70.1062,-161.372 74.3061,-155.772"/>
</g>
<!-- Node3 -->
<g id="node3" class="node"><title>Node3</title>
<g id="a_node3"><a xlink:href="../../d9/df1/class_fire.html#a08de9a15877f76fa5bc6c8872559f79f" target="_top" xlink:title="Fire.ruleOne">
<polygon fill="white" stroke="black" points="158,-171.5 158,-190.5 232,-190.5 232,-171.5 158,-171.5"/>
<text text-anchor="middle" x="195" y="-178.5" font-family="Helvetica,sans-Serif" font-size="10.00">Fire.ruleOne</text>
</a>
</g>
</g>
<!-- Node1&#45;&gt;Node3 -->
<g id="edge2" class="edge"><title>Node1&#45;&gt;Node3</title>
<path fill="none" stroke="midnightblue" d="M97.4929,-155.174C117.128,-160.429 139.766,-166.487 158.179,-171.414"/>
<polygon fill="midnightblue" stroke="midnightblue" points="98.3975,-151.793 87.8326,-152.589 96.5879,-158.555 98.3975,-151.793"/>
</g>
<!-- Node4 -->
<g id="node4" class="node"><title>Node4</title>
<g id="a_node4"><a xlink:href="../../d8/d84/class_game_of_life.html#a6b6c946c47342fd7e4595710d72a9217" target="_top" xlink:title="GameOfLife.ruleTwo">
<polygon fill="white" stroke="black" points="140,-133.5 140,-152.5 250,-152.5 250,-133.5 140,-133.5"/>
<text text-anchor="middle" x="195" y="-140.5" font-family="Helvetica,sans-Serif" font-size="10.00">GameOfLife.ruleTwo</text>
</a>
</g>
</g>
<!-- Node1&#45;&gt;Node4 -->
<g id="edge3" class="edge"><title>Node1&#45;&gt;Node4</title>
<path fill="none" stroke="midnightblue" d="M111.946,-143C121.178,-143 130.666,-143 139.765,-143"/>
<polygon fill="midnightblue" stroke="midnightblue" points="111.665,-139.5 101.665,-143 111.665,-146.5 111.665,-139.5"/>
</g>
<!-- Node5 -->
<g id="node5" class="node"><title>Node5</title>
<g id="a_node5"><a xlink:href="../../d9/df1/class_fire.html#accc21ae2162fd526d8ca66c472a62a28" target="_top" xlink:title="Fire.ruleTwo">
<polygon fill="white" stroke="black" points="159.5,-95.5 159.5,-114.5 230.5,-114.5 230.5,-95.5 159.5,-95.5"/>
<text text-anchor="middle" x="195" y="-102.5" font-family="Helvetica,sans-Serif" font-size="10.00">Fire.ruleTwo</text>
</a>
</g>
</g>
<!-- Node1&#45;&gt;Node5 -->
<g id="edge4" class="edge"><title>Node1&#45;&gt;Node5</title>
<path fill="none" stroke="midnightblue" d="M97.6449,-130.785C117.596,-125.446 140.622,-119.284 159.161,-114.323"/>
<polygon fill="midnightblue" stroke="midnightblue" points="96.5879,-127.445 87.8326,-133.411 98.3975,-134.207 96.5879,-127.445"/>
</g>
<!-- Node6 -->
<g id="node6" class="node"><title>Node6</title>
<g id="a_node6"><a xlink:href="../../dd/d11/class_cell.html#aaaf321e273ef5b6ac3fae80e36d19629" target="_top" xlink:title="Cell.setState">
<polygon fill="white" stroke="black" points="156,-57.5 156,-76.5 234,-76.5 234,-57.5 156,-57.5"/>
<text text-anchor="middle" x="195" y="-64.5" font-family="Helvetica,sans-Serif" font-size="10.00">Cell.setState</text>
</a>
</g>
</g>
<!-- Node1&#45;&gt;Node6 -->
<g id="edge5" class="edge"><title>Node1&#45;&gt;Node6</title>
<path fill="none" stroke="midnightblue" d="M72.238,-127.404C89.1179,-114.945 114.173,-97.6925 138,-86 145.281,-82.4269 153.401,-79.2497 161.149,-76.5643"/>
<polygon fill="midnightblue" stroke="midnightblue" points="70.1062,-124.628 64.206,-133.428 74.3061,-130.228 70.1062,-124.628"/>
</g>
<!-- Node7 -->
<g id="node7" class="node"><title>Node7</title>
<g id="a_node7"><a xlink:href="../../d9/df1/class_fire.html#afd16418c5ea360c815613862a4ea1c33" target="_top" xlink:title="Fire.setUpInitialConfig">
<polygon fill="white" stroke="black" points="306.5,-114.5 306.5,-133.5 425.5,-133.5 425.5,-114.5 306.5,-114.5"/>
<text text-anchor="middle" x="366" y="-121.5" font-family="Helvetica,sans-Serif" font-size="10.00">Fire.setUpInitialConfig</text>
</a>
</g>
</g>
<!-- Node6&#45;&gt;Node7 -->
<g id="edge6" class="edge"><title>Node6&#45;&gt;Node7</title>
<path fill="none" stroke="midnightblue" d="M236.909,-80.0362C242.037,-81.9166 247.173,-83.9228 252,-86 268.618,-93.1511 271.092,-98.563 288,-105 297.651,-108.674 308.256,-111.826 318.428,-114.447"/>
<polygon fill="midnightblue" stroke="midnightblue" points="237.736,-76.6164 227.141,-76.5892 235.406,-83.2174 237.736,-76.6164"/>
</g>
<!-- Node8 -->
<g id="node8" class="node"><title>Node8</title>
<g id="a_node8"><a xlink:href="../../da/de8/class_move_cellular_automata.html#a90e79ebdb8723f3674bd90a264a143b8" target="_top" xlink:title="MoveCellularAutomata.move">
<polygon fill="white" stroke="black" points="288.5,-76.5 288.5,-95.5 443.5,-95.5 443.5,-76.5 288.5,-76.5"/>
<text text-anchor="middle" x="366" y="-83.5" font-family="Helvetica,sans-Serif" font-size="10.00">MoveCellularAutomata.move</text>
</a>
</g>
</g>
<!-- Node6&#45;&gt;Node8 -->
<g id="edge7" class="edge"><title>Node6&#45;&gt;Node8</title>
<path fill="none" stroke="midnightblue" d="M244.507,-72.4534C258.229,-73.9961 273.508,-75.7139 288.452,-77.394"/>
<polygon fill="midnightblue" stroke="midnightblue" points="244.677,-68.9506 234.349,-71.3114 243.895,-75.9068 244.677,-68.9506"/>
</g>
<!-- Node9 -->
<g id="node9" class="node"><title>Node9</title>
<g id="a_node9"><a xlink:href="../../dc/d06/class_mover.html#af157bc60c3ea8c2f1eb4672489251d57" target="_top" xlink:title="Mover.Mover">
<polygon fill="white" stroke="black" points="327.5,-38.5 327.5,-57.5 404.5,-57.5 404.5,-38.5 327.5,-38.5"/>
<text text-anchor="middle" x="366" y="-45.5" font-family="Helvetica,sans-Serif" font-size="10.00">Mover.Mover</text>
</a>
</g>
</g>
<!-- Node6&#45;&gt;Node9 -->
<g id="edge8" class="edge"><title>Node6&#45;&gt;Node9</title>
<path fill="none" stroke="midnightblue" d="M244.507,-61.5466C270.856,-58.5842 302.948,-54.9763 327.385,-52.2289"/>
<polygon fill="midnightblue" stroke="midnightblue" points="243.895,-58.0932 234.349,-62.6886 244.677,-65.0494 243.895,-58.0932"/>
</g>
<!-- Node10 -->
<g id="node10" class="node"><title>Node10</title>
<g id="a_node10"><a xlink:href="../../d0/db0/class_wator.html#aa8dba59120d9d6d7d7521f3a4ee7b454" target="_top" xlink:title="Wator.ruleTwo">
<polygon fill="white" stroke="black" points="326,-0.5 326,-19.5 406,-19.5 406,-0.5 326,-0.5"/>
<text text-anchor="middle" x="366" y="-7.5" font-family="Helvetica,sans-Serif" font-size="10.00">Wator.ruleTwo</text>
</a>
</g>
</g>
<!-- Node6&#45;&gt;Node10 -->
<g id="edge9" class="edge"><title>Node6&#45;&gt;Node10</title>
<path fill="none" stroke="midnightblue" d="M225.782,-53.3673C243.588,-45.5537 266.801,-35.95 288,-29 300.168,-25.0107 313.657,-21.4124 325.902,-18.4475"/>
<polygon fill="midnightblue" stroke="midnightblue" points="224.21,-50.2359 216.493,-57.4959 227.053,-56.6325 224.21,-50.2359"/>
</g>
<!-- Node11 -->
<g id="node11" class="node"><title>Node11</title>
<g id="a_node11"><a xlink:href="../../d0/db0/class_wator.html#a422810cdcb035633301b3469cbee5e34" target="_top" xlink:title="Wator.checkRules">
<polygon fill="white" stroke="black" points="480,-0.5 480,-19.5 578,-19.5 578,-0.5 480,-0.5"/>
<text text-anchor="middle" x="529" y="-7.5" font-family="Helvetica,sans-Serif" font-size="10.00">Wator.checkRules</text>
</a>
</g>
</g>
<!-- Node10&#45;&gt;Node11 -->
<g id="edge10" class="edge"><title>Node10&#45;&gt;Node11</title>
<path fill="none" stroke="midnightblue" d="M416.594,-10C436.709,-10 459.858,-10 479.826,-10"/>
<polygon fill="midnightblue" stroke="midnightblue" points="416.385,-6.5001 406.385,-10 416.385,-13.5001 416.385,-6.5001"/>
</g>
</g>
</svg>
