<?xml version="1.0" encoding="UTF-8" standalone="no"?>
<!DOCTYPE svg PUBLIC "-//W3C//DTD SVG 1.1//EN"
 "http://www.w3.org/Graphics/SVG/1.1/DTD/svg11.dtd">
<!-- Generated by graphviz version 2.36.0 (20140111.2315)
 -->
<!-- Title: Cell.setState Pages: 1 -->
<svg width="412pt" height="153pt"
 viewBox="0.00 0.00 412.00 153.00" xmlns="http://www.w3.org/2000/svg" xmlns:xlink="http://www.w3.org/1999/xlink">
<g id="graph0" class="graph" transform="scale(1 1) rotate(0) translate(4 149)">
<title>Cell.setState</title>
<polygon fill="white" stroke="none" points="-4,4 -4,-149 408,-149 408,4 -4,4"/>
<!-- Node1 -->
<g id="node1" class="node"><title>Node1</title>
<polygon fill="#bfbfbf" stroke="black" points="0,-68.5 0,-87.5 78,-87.5 78,-68.5 0,-68.5"/>
<text text-anchor="middle" x="39" y="-75.5" font-family="Helvetica,sans-Serif" font-size="10.00">Cell.setState</text>
</g>
<!-- Node2 -->
<g id="node2" class="node"><title>Node2</title>
<g id="a_node2"><a xlink:href="../../da/de8/class_move_cellular_automata.html#a90e79ebdb8723f3674bd90a264a143b8" target="_top" xlink:title="MoveCellularAutomata.move">
<polygon fill="white" stroke="black" points="114.5,-125.5 114.5,-144.5 269.5,-144.5 269.5,-125.5 114.5,-125.5"/>
<text text-anchor="middle" x="192" y="-132.5" font-family="Helvetica,sans-Serif" font-size="10.00">MoveCellularAutomata.move</text>
</a>
</g>
</g>
<!-- Node1&#45;&gt;Node2 -->
<g id="edge1" class="edge"><title>Node1&#45;&gt;Node2</title>
<path fill="none" stroke="midnightblue" d="M64.9768,-92.6732C79.0176,-100.445 97.076,-109.665 114,-116 123.8,-119.668 134.568,-122.833 144.865,-125.47"/>
<polygon fill="midnightblue" stroke="midnightblue" points="66.3892,-89.4511 55.9614,-87.5774 62.9447,-95.5451 66.3892,-89.4511"/>
</g>
<!-- Node3 -->
<g id="node3" class="node"><title>Node3</title>
<g id="a_node3"><a xlink:href="../../dc/d06/class_mover.html#af157bc60c3ea8c2f1eb4672489251d57" target="_top" xlink:title="Mover.Mover">
<polygon fill="white" stroke="black" points="153.5,-87.5 153.5,-106.5 230.5,-106.5 230.5,-87.5 153.5,-87.5"/>
<text text-anchor="middle" x="192" y="-94.5" font-family="Helvetica,sans-Serif" font-size="10.00">Mover.Mover</text>
</a>
</g>
</g>
<!-- Node1&#45;&gt;Node3 -->
<g id="edge2" class="edge"><title>Node1&#45;&gt;Node3</title>
<path fill="none" stroke="midnightblue" d="M88.169,-84.061C109.283,-86.7177 133.694,-89.7893 153.432,-92.2728"/>
<polygon fill="midnightblue" stroke="midnightblue" points="88.4624,-80.5704 78.1037,-82.7945 87.5885,-87.5156 88.4624,-80.5704"/>
</g>
<!-- Node4 -->
<g id="node4" class="node"><title>Node4</title>
<g id="a_node4"><a xlink:href="../../d0/db0/class_wator.html#aa8dba59120d9d6d7d7521f3a4ee7b454" target="_top" xlink:title="Wator.ruleTwo">
<polygon fill="white" stroke="black" points="152,-49.5 152,-68.5 232,-68.5 232,-49.5 152,-49.5"/>
<text text-anchor="middle" x="192" y="-56.5" font-family="Helvetica,sans-Serif" font-size="10.00">Wator.ruleTwo</text>
</a>
</g>
</g>
<!-- Node1&#45;&gt;Node4 -->
<g id="edge3" class="edge"><title>Node1&#45;&gt;Node4</title>
<path fill="none" stroke="midnightblue" d="M88.2148,-71.9332C108.76,-69.3481 132.419,-66.3711 151.856,-63.9254"/>
<polygon fill="midnightblue" stroke="midnightblue" points="87.5885,-68.4844 78.1037,-73.2055 88.4624,-75.4296 87.5885,-68.4844"/>
</g>
<!-- Node6 -->
<g id="node6" class="node"><title>Node6</title>
<g id="a_node6"><a xlink:href="../../d2/d40/class_cellular_automata.html#a36aec0679e06662be2e1a89ac9c88cfa" target="_top" xlink:title="CellularAutomata.setUpInitial\lConfig">
<polygon fill="white" stroke="black" points="114,-0 114,-30 270,-30 270,-0 114,-0"/>
<text text-anchor="start" x="122" y="-18" font-family="Helvetica,sans-Serif" font-size="10.00">CellularAutomata.setUpInitial</text>
<text text-anchor="middle" x="192" y="-7" font-family="Helvetica,sans-Serif" font-size="10.00">Config</text>
</a>
</g>
</g>
<!-- Node1&#45;&gt;Node6 -->
<g id="edge5" class="edge"><title>Node1&#45;&gt;Node6</title>
<path fill="none" stroke="midnightblue" d="M65.7155,-63.5033C79.7307,-55.9343 97.5317,-46.8498 114,-40 122.435,-36.4915 131.551,-33.1529 140.458,-30.1242"/>
<polygon fill="midnightblue" stroke="midnightblue" points="63.7675,-60.5797 56.6803,-68.4552 67.1318,-66.7182 63.7675,-60.5797"/>
</g>
<!-- Node5 -->
<g id="node5" class="node"><title>Node5</title>
<g id="a_node5"><a xlink:href="../../d0/db0/class_wator.html#a422810cdcb035633301b3469cbee5e34" target="_top" xlink:title="Wator.checkRules">
<polygon fill="white" stroke="black" points="306,-49.5 306,-68.5 404,-68.5 404,-49.5 306,-49.5"/>
<text text-anchor="middle" x="355" y="-56.5" font-family="Helvetica,sans-Serif" font-size="10.00">Wator.checkRules</text>
</a>
</g>
</g>
<!-- Node4&#45;&gt;Node5 -->
<g id="edge4" class="edge"><title>Node4&#45;&gt;Node5</title>
<path fill="none" stroke="midnightblue" d="M242.594,-59C262.709,-59 285.858,-59 305.826,-59"/>
<polygon fill="midnightblue" stroke="midnightblue" points="242.385,-55.5001 232.385,-59 242.385,-62.5001 242.385,-55.5001"/>
</g>
</g>
</svg>
