<?xml version="1.0" encoding="UTF-8" standalone="no"?>
<!DOCTYPE svg PUBLIC "-//W3C//DTD SVG 1.1//EN"
 "http://www.w3.org/Graphics/SVG/1.1/DTD/svg11.dtd">
<!-- Generated by graphviz version 2.36.0 (20140111.2315)
 -->
<!-- Title: Cell.setNextState Pages: 1 -->
<svg width="586pt" height="256pt"
 viewBox="0.00 0.00 586.00 256.00" xmlns="http://www.w3.org/2000/svg" xmlns:xlink="http://www.w3.org/1999/xlink">
<g id="graph0" class="graph" transform="scale(1 1) rotate(0) translate(4 252)">
<title>Cell.setNextState</title>
<polygon fill="white" stroke="none" points="-4,4 -4,-252 582,-252 582,4 -4,4"/>
<!-- Node1 -->
<g id="node1" class="node"><title>Node1</title>
<polygon fill="#bfbfbf" stroke="black" points="0.5,-152.5 0.5,-171.5 101.5,-171.5 101.5,-152.5 0.5,-152.5"/>
<text text-anchor="middle" x="51" y="-159.5" font-family="Helvetica,sans-Serif" font-size="10.00">Cell.setNextState</text>
</g>
<!-- Node2 -->
<g id="node2" class="node"><title>Node2</title>
<g id="a_node2"><a xlink:href="../../d8/d84/class_game_of_life.html#aca7cd11a349cf14c940011021f91127f" target="_top" xlink:title="GameOfLife.ruleOne">
<polygon fill="white" stroke="black" points="138.5,-228.5 138.5,-247.5 251.5,-247.5 251.5,-228.5 138.5,-228.5"/>
<text text-anchor="middle" x="195" y="-235.5" font-family="Helvetica,sans-Serif" font-size="10.00">GameOfLife.ruleOne</text>
</a>
</g>
</g>
<!-- Node1&#45;&gt;Node2 -->
<g id="edge1" class="edge"><title>Node1&#45;&gt;Node2</title>
<path fill="none" stroke="midnightblue" d="M72.238,-177.596C89.1179,-190.055 114.173,-207.308 138,-219 145.281,-222.573 153.401,-225.75 161.149,-228.436"/>
<polygon fill="midnightblue" stroke="midnightblue" points="74.3061,-174.772 64.206,-171.572 70.1062,-180.372 74.3061,-174.772"/>
</g>
<!-- Node3 -->
<g id="node3" class="node"><title>Node3</title>
<g id="a_node3"><a xlink:href="../../d9/df1/class_fire.html#a08de9a15877f76fa5bc6c8872559f79f" target="_top" xlink:title="Fire.ruleOne">
<polygon fill="white" stroke="black" points="158,-190.5 158,-209.5 232,-209.5 232,-190.5 158,-190.5"/>
<text text-anchor="middle" x="195" y="-197.5" font-family="Helvetica,sans-Serif" font-size="10.00">Fire.ruleOne</text>
</a>
</g>
</g>
<!-- Node1&#45;&gt;Node3 -->
<g id="edge2" class="edge"><title>Node1&#45;&gt;Node3</title>
<path fill="none" stroke="midnightblue" d="M97.4929,-174.174C117.128,-179.429 139.766,-185.487 158.179,-190.414"/>
<polygon fill="midnightblue" stroke="midnightblue" points="98.3975,-170.793 87.8326,-171.589 96.5879,-177.555 98.3975,-170.793"/>
</g>
<!-- Node4 -->
<g id="node4" class="node"><title>Node4</title>
<g id="a_node4"><a xlink:href="../../d8/d84/class_game_of_life.html#a6b6c946c47342fd7e4595710d72a9217" target="_top" xlink:title="GameOfLife.ruleTwo">
<polygon fill="white" stroke="black" points="140,-152.5 140,-171.5 250,-171.5 250,-152.5 140,-152.5"/>
<text text-anchor="middle" x="195" y="-159.5" font-family="Helvetica,sans-Serif" font-size="10.00">GameOfLife.ruleTwo</text>
</a>
</g>
</g>
<!-- Node1&#45;&gt;Node4 -->
<g id="edge3" class="edge"><title>Node1&#45;&gt;Node4</title>
<path fill="none" stroke="midnightblue" d="M111.946,-162C121.178,-162 130.666,-162 139.765,-162"/>
<polygon fill="midnightblue" stroke="midnightblue" points="111.665,-158.5 101.665,-162 111.665,-165.5 111.665,-158.5"/>
</g>
<!-- Node5 -->
<g id="node5" class="node"><title>Node5</title>
<g id="a_node5"><a xlink:href="../../d9/df1/class_fire.html#accc21ae2162fd526d8ca66c472a62a28" target="_top" xlink:title="Fire.ruleTwo">
<polygon fill="white" stroke="black" points="159.5,-114.5 159.5,-133.5 230.5,-133.5 230.5,-114.5 159.5,-114.5"/>
<text text-anchor="middle" x="195" y="-121.5" font-family="Helvetica,sans-Serif" font-size="10.00">Fire.ruleTwo</text>
</a>
</g>
</g>
<!-- Node1&#45;&gt;Node5 -->
<g id="edge4" class="edge"><title>Node1&#45;&gt;Node5</title>
<path fill="none" stroke="midnightblue" d="M97.6449,-149.785C117.596,-144.446 140.622,-138.284 159.161,-133.323"/>
<polygon fill="midnightblue" stroke="midnightblue" points="96.5879,-146.445 87.8326,-152.411 98.3975,-153.207 96.5879,-146.445"/>
</g>
<!-- Node6 -->
<g id="node6" class="node"><title>Node6</title>
<g id="a_node6"><a xlink:href="../../dd/d11/class_cell.html#aaaf321e273ef5b6ac3fae80e36d19629" target="_top" xlink:title="Cell.setState">
<polygon fill="white" stroke="black" points="156,-76.5 156,-95.5 234,-95.5 234,-76.5 156,-76.5"/>
<text text-anchor="middle" x="195" y="-83.5" font-family="Helvetica,sans-Serif" font-size="10.00">Cell.setState</text>
</a>
</g>
</g>
<!-- Node1&#45;&gt;Node6 -->
<g id="edge5" class="edge"><title>Node1&#45;&gt;Node6</title>
<path fill="none" stroke="midnightblue" d="M72.238,-146.404C89.1179,-133.945 114.173,-116.692 138,-105 145.281,-101.427 153.401,-98.2497 161.149,-95.5643"/>
<polygon fill="midnightblue" stroke="midnightblue" points="70.1062,-143.628 64.206,-152.428 74.3061,-149.228 70.1062,-143.628"/>
</g>
<!-- Node7 -->
<g id="node7" class="node"><title>Node7</title>
<g id="a_node7"><a xlink:href="../../d2/d40/class_cellular_automata.html#a36aec0679e06662be2e1a89ac9c88cfa" target="_top" xlink:title="CellularAutomata.setUpInitial\lConfig">
<polygon fill="white" stroke="black" points="288,-153 288,-183 444,-183 444,-153 288,-153"/>
<text text-anchor="start" x="296" y="-171" font-family="Helvetica,sans-Serif" font-size="10.00">CellularAutomata.setUpInitial</text>
<text text-anchor="middle" x="366" y="-160" font-family="Helvetica,sans-Serif" font-size="10.00">Config</text>
</a>
</g>
</g>
<!-- Node6&#45;&gt;Node7 -->
<g id="edge6" class="edge"><title>Node6&#45;&gt;Node7</title>
<path fill="none" stroke="midnightblue" d="M242.058,-99.5442C245.52,-101.185 248.877,-102.999 252,-105 271.589,-117.55 268.328,-130.58 288,-143 294.061,-146.827 300.763,-150.121 307.61,-152.943"/>
<polygon fill="midnightblue" stroke="midnightblue" points="243.308,-96.2727 232.735,-95.5975 240.579,-102.719 243.308,-96.2727"/>
</g>
<!-- Node8 -->
<g id="node8" class="node"><title>Node8</title>
<g id="a_node8"><a xlink:href="../../d9/df1/class_fire.html#afd16418c5ea360c815613862a4ea1c33" target="_top" xlink:title="Fire.setUpInitialConfig">
<polygon fill="white" stroke="black" points="306.5,-114.5 306.5,-133.5 425.5,-133.5 425.5,-114.5 306.5,-114.5"/>
<text text-anchor="middle" x="366" y="-121.5" font-family="Helvetica,sans-Serif" font-size="10.00">Fire.setUpInitialConfig</text>
</a>
</g>
</g>
<!-- Node6&#45;&gt;Node8 -->
<g id="edge7" class="edge"><title>Node6&#45;&gt;Node8</title>
<path fill="none" stroke="midnightblue" d="M244.25,-96.8492C268.98,-102.41 298.821,-109.12 322.651,-114.478"/>
<polygon fill="midnightblue" stroke="midnightblue" points="244.873,-93.4019 234.349,-94.6228 243.337,-100.231 244.873,-93.4019"/>
</g>
<!-- Node9 -->
<g id="node9" class="node"><title>Node9</title>
<g id="a_node9"><a xlink:href="../../da/de8/class_move_cellular_automata.html#a90e79ebdb8723f3674bd90a264a143b8" target="_top" xlink:title="MoveCellularAutomata.move">
<polygon fill="white" stroke="black" points="288.5,-76.5 288.5,-95.5 443.5,-95.5 443.5,-76.5 288.5,-76.5"/>
<text text-anchor="middle" x="366" y="-83.5" font-family="Helvetica,sans-Serif" font-size="10.00">MoveCellularAutomata.move</text>
</a>
</g>
</g>
<!-- Node6&#45;&gt;Node9 -->
<g id="edge8" class="edge"><title>Node6&#45;&gt;Node9</title>
<path fill="none" stroke="midnightblue" d="M244.507,-86C258.229,-86 273.508,-86 288.452,-86"/>
<polygon fill="midnightblue" stroke="midnightblue" points="244.349,-82.5001 234.349,-86 244.349,-89.5001 244.349,-82.5001"/>
</g>
<!-- Node10 -->
<g id="node10" class="node"><title>Node10</title>
<g id="a_node10"><a xlink:href="../../dc/d06/class_mover.html#af157bc60c3ea8c2f1eb4672489251d57" target="_top" xlink:title="Mover.Mover">
<polygon fill="white" stroke="black" points="327.5,-38.5 327.5,-57.5 404.5,-57.5 404.5,-38.5 327.5,-38.5"/>
<text text-anchor="middle" x="366" y="-45.5" font-family="Helvetica,sans-Serif" font-size="10.00">Mover.Mover</text>
</a>
</g>
</g>
<!-- Node6&#45;&gt;Node10 -->
<g id="edge9" class="edge"><title>Node6&#45;&gt;Node10</title>
<path fill="none" stroke="midnightblue" d="M244.157,-75.1717C270.572,-69.2323 302.84,-61.9768 327.385,-56.4578"/>
<polygon fill="midnightblue" stroke="midnightblue" points="243.337,-71.7686 234.349,-77.3772 244.873,-78.5981 243.337,-71.7686"/>
</g>
<!-- Node11 -->
<g id="node11" class="node"><title>Node11</title>
<g id="a_node11"><a xlink:href="../../d0/db0/class_wator.html#aa8dba59120d9d6d7d7521f3a4ee7b454" target="_top" xlink:title="Wator.ruleTwo">
<polygon fill="white" stroke="black" points="326,-0.5 326,-19.5 406,-19.5 406,-0.5 326,-0.5"/>
<text text-anchor="middle" x="366" y="-7.5" font-family="Helvetica,sans-Serif" font-size="10.00">Wator.ruleTwo</text>
</a>
</g>
</g>
<!-- Node6&#45;&gt;Node11 -->
<g id="edge10" class="edge"><title>Node6&#45;&gt;Node11</title>
<path fill="none" stroke="midnightblue" d="M217.249,-70.1476C235.255,-57.3918 262.191,-39.8601 288,-29 299.93,-23.9801 313.48,-20.0849 325.853,-17.1654"/>
<polygon fill="midnightblue" stroke="midnightblue" points="214.757,-67.6295 208.7,-76.3221 218.856,-73.3041 214.757,-67.6295"/>
</g>
<!-- Node12 -->
<g id="node12" class="node"><title>Node12</title>
<g id="a_node12"><a xlink:href="../../d0/db0/class_wator.html#a422810cdcb035633301b3469cbee5e34" target="_top" xlink:title="Wator.checkRules">
<polygon fill="white" stroke="black" points="480,-0.5 480,-19.5 578,-19.5 578,-0.5 480,-0.5"/>
<text text-anchor="middle" x="529" y="-7.5" font-family="Helvetica,sans-Serif" font-size="10.00">Wator.checkRules</text>
</a>
</g>
</g>
<!-- Node11&#45;&gt;Node12 -->
<g id="edge11" class="edge"><title>Node11&#45;&gt;Node12</title>
<path fill="none" stroke="midnightblue" d="M416.594,-10C436.709,-10 459.858,-10 479.826,-10"/>
<polygon fill="midnightblue" stroke="midnightblue" points="416.385,-6.5001 406.385,-10 416.385,-13.5001 416.385,-6.5001"/>
</g>
</g>
</svg>
