<?xml version="1.0" encoding="UTF-8" standalone="no"?>
<!DOCTYPE svg PUBLIC "-//W3C//DTD SVG 1.1//EN"
 "http://www.w3.org/Graphics/SVG/1.1/DTD/svg11.dtd">
<!-- Generated by graphviz version 2.36.0 (20140111.2315)
 -->
<!-- Title: Cell.getState Pages: 1 -->
<svg width="404pt" height="28pt"
 viewBox="0.00 0.00 404.00 28.00" xmlns="http://www.w3.org/2000/svg" xmlns:xlink="http://www.w3.org/1999/xlink">
<g id="graph0" class="graph" transform="scale(1 1) rotate(0) translate(4 24)">
<title>Cell.getState</title>
<polygon fill="white" stroke="none" points="-4,4 -4,-24 400,-24 400,4 -4,4"/>
<!-- Node1 -->
<g id="node1" class="node"><title>Node1</title>
<polygon fill="#bfbfbf" stroke="black" points="0.5,-0.5 0.5,-19.5 79.5,-19.5 79.5,-0.5 0.5,-0.5"/>
<text text-anchor="middle" x="40" y="-7.5" font-family="Helvetica,sans-Serif" font-size="10.00">Cell.getState</text>
</g>
<!-- Node2 -->
<g id="node2" class="node"><title>Node2</title>
<g id="a_node2"><a xlink:href="../../da/d1e/class_segregation.html#a49b8fcb38373080b203a974f5c24d166" target="_top" xlink:title="Segregation.ruleOne">
<polygon fill="white" stroke="black" points="116,-0.5 116,-19.5 232,-19.5 232,-0.5 116,-0.5"/>
<text text-anchor="middle" x="174" y="-7.5" font-family="Helvetica,sans-Serif" font-size="10.00">Segregation.ruleOne</text>
</a>
</g>
</g>
<!-- Node1&#45;&gt;Node2 -->
<g id="edge1" class="edge"><title>Node1&#45;&gt;Node2</title>
<path fill="none" stroke="midnightblue" d="M89.5859,-10C98.026,-10 106.875,-10 115.526,-10"/>
<polygon fill="midnightblue" stroke="midnightblue" points="89.5347,-6.5001 79.5347,-10 89.5347,-13.5001 89.5347,-6.5001"/>
</g>
<!-- Node3 -->
<g id="node3" class="node"><title>Node3</title>
<g id="a_node3"><a xlink:href="../../da/d1e/class_segregation.html#a45e57140276ed3b1897cf8212b6283d4" target="_top" xlink:title="Segregation.applyRules">
<polygon fill="white" stroke="black" points="268,-0.5 268,-19.5 396,-19.5 396,-0.5 268,-0.5"/>
<text text-anchor="middle" x="332" y="-7.5" font-family="Helvetica,sans-Serif" font-size="10.00">Segregation.applyRules</text>
</a>
</g>
</g>
<!-- Node2&#45;&gt;Node3 -->
<g id="edge2" class="edge"><title>Node2&#45;&gt;Node3</title>
<path fill="none" stroke="midnightblue" d="M242.37,-10C250.796,-10 259.391,-10 267.751,-10"/>
<polygon fill="midnightblue" stroke="midnightblue" points="242.203,-6.5001 232.203,-10 242.203,-13.5001 242.203,-6.5001"/>
</g>
</g>
</svg>
