<?xml version="1.0" encoding="UTF-8" standalone="no"?>
<!DOCTYPE svg PUBLIC "-//W3C//DTD SVG 1.1//EN"
 "http://www.w3.org/Graphics/SVG/1.1/DTD/svg11.dtd">
<!-- Generated by graphviz version 2.36.0 (20140111.2315)
 -->
<!-- Title: State.addToUpdate Pages: 1 -->
<svg width="478pt" height="256pt"
 viewBox="0.00 0.00 478.00 256.00" xmlns="http://www.w3.org/2000/svg" xmlns:xlink="http://www.w3.org/1999/xlink">
<g id="graph0" class="graph" transform="scale(1 1) rotate(0) translate(4 252)">
<title>State.addToUpdate</title>
<polygon fill="white" stroke="none" points="-4,4 -4,-252 474,-252 474,4 -4,4"/>
<!-- Node1 -->
<g id="node1" class="node"><title>Node1</title>
<polygon fill="#bfbfbf" stroke="black" points="0.5,-114.5 0.5,-133.5 109.5,-133.5 109.5,-114.5 0.5,-114.5"/>
<text text-anchor="middle" x="55" y="-121.5" font-family="Helvetica,sans-Serif" font-size="10.00">State.addToUpdate</text>
</g>
<!-- Node2 -->
<g id="node2" class="node"><title>Node2</title>
<g id="a_node2"><a xlink:href="../../da/d1e/class_segregation.html#a49b8fcb38373080b203a974f5c24d166" target="_top" xlink:title="Segregation.ruleOne">
<polygon fill="white" stroke="black" points="168,-228.5 168,-247.5 284,-247.5 284,-228.5 168,-228.5"/>
<text text-anchor="middle" x="226" y="-235.5" font-family="Helvetica,sans-Serif" font-size="10.00">Segregation.ruleOne</text>
</a>
</g>
</g>
<!-- Node1&#45;&gt;Node2 -->
<g id="edge1" class="edge"><title>Node1&#45;&gt;Node2</title>
<path fill="none" stroke="midnightblue" d="M67.9185,-141.844C83.3406,-163.49 112.269,-199.497 146,-219 152.717,-222.883 160.194,-225.975 167.794,-228.436"/>
<polygon fill="midnightblue" stroke="midnightblue" points="70.7341,-139.762 62.1613,-133.536 64.9806,-143.749 70.7341,-139.762"/>
</g>
<!-- Node4 -->
<g id="node4" class="node"><title>Node4</title>
<g id="a_node4"><a xlink:href="../../d9/df1/class_fire.html#a08de9a15877f76fa5bc6c8872559f79f" target="_top" xlink:title="Fire.ruleOne">
<polygon fill="white" stroke="black" points="189,-190.5 189,-209.5 263,-209.5 263,-190.5 189,-190.5"/>
<text text-anchor="middle" x="226" y="-197.5" font-family="Helvetica,sans-Serif" font-size="10.00">Fire.ruleOne</text>
</a>
</g>
</g>
<!-- Node1&#45;&gt;Node4 -->
<g id="edge3" class="edge"><title>Node1&#45;&gt;Node4</title>
<path fill="none" stroke="midnightblue" d="M76.4154,-139.696C93.987,-152.507 120.472,-170.198 146,-181 159.511,-186.717 175.082,-190.925 188.81,-193.906"/>
<polygon fill="midnightblue" stroke="midnightblue" points="78.2039,-136.664 68.0914,-133.504 74.0258,-142.281 78.2039,-136.664"/>
</g>
<!-- Node6 -->
<g id="node6" class="node"><title>Node6</title>
<g id="a_node6"><a xlink:href="../../d8/d84/class_game_of_life.html#aca7cd11a349cf14c940011021f91127f" target="_top" xlink:title="GameOfLife.ruleOne">
<polygon fill="white" stroke="black" points="169.5,-114.5 169.5,-133.5 282.5,-133.5 282.5,-114.5 169.5,-114.5"/>
<text text-anchor="middle" x="226" y="-121.5" font-family="Helvetica,sans-Serif" font-size="10.00">GameOfLife.ruleOne</text>
</a>
</g>
</g>
<!-- Node1&#45;&gt;Node6 -->
<g id="edge5" class="edge"><title>Node1&#45;&gt;Node6</title>
<path fill="none" stroke="midnightblue" d="M120.346,-124C136.454,-124 153.599,-124 169.25,-124"/>
<polygon fill="midnightblue" stroke="midnightblue" points="119.937,-120.5 109.937,-124 119.937,-127.5 119.937,-120.5"/>
</g>
<!-- Node8 -->
<g id="node8" class="node"><title>Node8</title>
<g id="a_node8"><a xlink:href="../../d9/df1/class_fire.html#accc21ae2162fd526d8ca66c472a62a28" target="_top" xlink:title="Fire.ruleTwo">
<polygon fill="white" stroke="black" points="190.5,-152.5 190.5,-171.5 261.5,-171.5 261.5,-152.5 190.5,-152.5"/>
<text text-anchor="middle" x="226" y="-159.5" font-family="Helvetica,sans-Serif" font-size="10.00">Fire.ruleTwo</text>
</a>
</g>
</g>
<!-- Node1&#45;&gt;Node8 -->
<g id="edge7" class="edge"><title>Node1&#45;&gt;Node8</title>
<path fill="none" stroke="midnightblue" d="M108.58,-135.823C135.203,-141.809 166.781,-148.909 190.329,-154.204"/>
<polygon fill="midnightblue" stroke="midnightblue" points="109.17,-132.368 98.6458,-133.589 107.634,-139.198 109.17,-132.368"/>
</g>
<!-- Node9 -->
<g id="node9" class="node"><title>Node9</title>
<g id="a_node9"><a xlink:href="../../d8/d84/class_game_of_life.html#a6b6c946c47342fd7e4595710d72a9217" target="_top" xlink:title="GameOfLife.ruleTwo">
<polygon fill="white" stroke="black" points="171,-76.5 171,-95.5 281,-95.5 281,-76.5 171,-76.5"/>
<text text-anchor="middle" x="226" y="-83.5" font-family="Helvetica,sans-Serif" font-size="10.00">GameOfLife.ruleTwo</text>
</a>
</g>
</g>
<!-- Node1&#45;&gt;Node9 -->
<g id="edge9" class="edge"><title>Node1&#45;&gt;Node9</title>
<path fill="none" stroke="midnightblue" d="M108.587,-112.176C132.413,-106.818 160.207,-100.569 182.661,-95.5201"/>
<polygon fill="midnightblue" stroke="midnightblue" points="107.634,-108.802 98.6458,-114.411 109.17,-115.632 107.634,-108.802"/>
</g>
<!-- Node10 -->
<g id="node10" class="node"><title>Node10</title>
<g id="a_node10"><a xlink:href="../../d9/df1/class_fire.html#afd16418c5ea360c815613862a4ea1c33" target="_top" xlink:title="Fire.setUpInitialConfig">
<polygon fill="white" stroke="black" points="166.5,-38.5 166.5,-57.5 285.5,-57.5 285.5,-38.5 166.5,-38.5"/>
<text text-anchor="middle" x="226" y="-45.5" font-family="Helvetica,sans-Serif" font-size="10.00">Fire.setUpInitialConfig</text>
</a>
</g>
</g>
<!-- Node1&#45;&gt;Node10 -->
<g id="edge11" class="edge"><title>Node1&#45;&gt;Node10</title>
<path fill="none" stroke="midnightblue" d="M76.4154,-108.304C93.987,-95.4928 120.472,-77.8021 146,-67 154.964,-63.207 164.835,-60.0783 174.473,-57.5315"/>
<polygon fill="midnightblue" stroke="midnightblue" points="74.0258,-105.719 68.0914,-114.496 78.2039,-111.336 74.0258,-105.719"/>
</g>
<!-- Node12 -->
<g id="node12" class="node"><title>Node12</title>
<g id="a_node12"><a xlink:href="../../d8/d84/class_game_of_life.html#a1bd82fd7debd0ccbba848dc16024c024" target="_top" xlink:title="GameOfLife.setUpInitialConfig">
<polygon fill="white" stroke="black" points="146.5,-0.5 146.5,-19.5 305.5,-19.5 305.5,-0.5 146.5,-0.5"/>
<text text-anchor="middle" x="226" y="-7.5" font-family="Helvetica,sans-Serif" font-size="10.00">GameOfLife.setUpInitialConfig</text>
</a>
</g>
</g>
<!-- Node1&#45;&gt;Node12 -->
<g id="edge13" class="edge"><title>Node1&#45;&gt;Node12</title>
<path fill="none" stroke="midnightblue" d="M67.9185,-106.156C83.3406,-84.5104 112.269,-48.5027 146,-29 152.717,-25.1166 160.194,-22.0248 167.794,-19.5638"/>
<polygon fill="midnightblue" stroke="midnightblue" points="64.9806,-104.251 62.1613,-114.464 70.7341,-108.238 64.9806,-104.251"/>
</g>
<!-- Node3 -->
<g id="node3" class="node"><title>Node3</title>
<g id="a_node3"><a xlink:href="../../da/d1e/class_segregation.html#a45e57140276ed3b1897cf8212b6283d4" target="_top" xlink:title="Segregation.applyRules">
<polygon fill="white" stroke="black" points="342,-228.5 342,-247.5 470,-247.5 470,-228.5 342,-228.5"/>
<text text-anchor="middle" x="406" y="-235.5" font-family="Helvetica,sans-Serif" font-size="10.00">Segregation.applyRules</text>
</a>
</g>
</g>
<!-- Node2&#45;&gt;Node3 -->
<g id="edge2" class="edge"><title>Node2&#45;&gt;Node3</title>
<path fill="none" stroke="midnightblue" d="M294.396,-238C309.998,-238 326.544,-238 341.952,-238"/>
<polygon fill="midnightblue" stroke="midnightblue" points="294.3,-234.5 284.3,-238 294.3,-241.5 294.3,-234.5"/>
</g>
<!-- Node5 -->
<g id="node5" class="node"><title>Node5</title>
<g id="a_node5"><a xlink:href="../../d9/df1/class_fire.html#a7e440468aacc413772a274bb8029e8bb" target="_top" xlink:title="Fire.applyRules">
<polygon fill="white" stroke="black" points="363,-171.5 363,-190.5 449,-190.5 449,-171.5 363,-171.5"/>
<text text-anchor="middle" x="406" y="-178.5" font-family="Helvetica,sans-Serif" font-size="10.00">Fire.applyRules</text>
</a>
</g>
</g>
<!-- Node4&#45;&gt;Node5 -->
<g id="edge4" class="edge"><title>Node4&#45;&gt;Node5</title>
<path fill="none" stroke="midnightblue" d="M273.243,-195.064C300.923,-192.109 335.841,-188.382 362.774,-185.507"/>
<polygon fill="midnightblue" stroke="midnightblue" points="272.593,-191.613 263.021,-196.155 273.336,-198.574 272.593,-191.613"/>
</g>
<!-- Node7 -->
<g id="node7" class="node"><title>Node7</title>
<g id="a_node7"><a xlink:href="../../d8/d84/class_game_of_life.html#a8085307c182bb4d9149f98dfc8f26979" target="_top" xlink:title="GameOfLife.applyRules">
<polygon fill="white" stroke="black" points="343,-95.5 343,-114.5 469,-114.5 469,-95.5 343,-95.5"/>
<text text-anchor="middle" x="406" y="-102.5" font-family="Helvetica,sans-Serif" font-size="10.00">GameOfLife.applyRules</text>
</a>
</g>
</g>
<!-- Node6&#45;&gt;Node7 -->
<g id="edge6" class="edge"><title>Node6&#45;&gt;Node7</title>
<path fill="none" stroke="midnightblue" d="M292.851,-116.971C309.21,-115.225 326.69,-113.359 342.864,-111.632"/>
<polygon fill="midnightblue" stroke="midnightblue" points="292.404,-113.499 282.832,-118.04 293.147,-120.459 292.404,-113.499"/>
</g>
<!-- Node8&#45;&gt;Node5 -->
<g id="edge8" class="edge"><title>Node8&#45;&gt;Node5</title>
<path fill="none" stroke="midnightblue" d="M272.02,-166.805C299.903,-169.782 335.48,-173.579 362.818,-176.497"/>
<polygon fill="midnightblue" stroke="midnightblue" points="272.058,-163.29 261.743,-165.708 271.315,-170.25 272.058,-163.29"/>
</g>
<!-- Node9&#45;&gt;Node7 -->
<g id="edge10" class="edge"><title>Node9&#45;&gt;Node7</title>
<path fill="none" stroke="midnightblue" d="M291.597,-92.8952C308.313,-94.6795 326.274,-96.5967 342.861,-98.3672"/>
<polygon fill="midnightblue" stroke="midnightblue" points="291.688,-89.3851 281.373,-91.8039 290.945,-96.3456 291.688,-89.3851"/>
</g>
<!-- Node11 -->
<g id="node11" class="node"><title>Node11</title>
<g id="a_node11"><a xlink:href="../../d9/df1/class_fire.html#a22e1b892843e691d4e6e3fcf8e6a893a" target="_top" xlink:title="Fire.init">
<polygon fill="white" stroke="black" points="381,-38.5 381,-57.5 431,-57.5 431,-38.5 381,-38.5"/>
<text text-anchor="middle" x="406" y="-45.5" font-family="Helvetica,sans-Serif" font-size="10.00">Fire.init</text>
</a>
</g>
</g>
<!-- Node10&#45;&gt;Node11 -->
<g id="edge12" class="edge"><title>Node10&#45;&gt;Node11</title>
<path fill="none" stroke="midnightblue" d="M295.817,-48C325.85,-48 359.12,-48 380.948,-48"/>
<polygon fill="midnightblue" stroke="midnightblue" points="295.777,-44.5001 285.777,-48 295.777,-51.5001 295.777,-44.5001"/>
</g>
<!-- Node13 -->
<g id="node13" class="node"><title>Node13</title>
<g id="a_node13"><a xlink:href="../../d8/d84/class_game_of_life.html#a9ffd6f1b93454f54600e1db30540c21d" target="_top" xlink:title="GameOfLife.init">
<polygon fill="white" stroke="black" points="361,-0.5 361,-19.5 451,-19.5 451,-0.5 361,-0.5"/>
<text text-anchor="middle" x="406" y="-7.5" font-family="Helvetica,sans-Serif" font-size="10.00">GameOfLife.init</text>
</a>
</g>
</g>
<!-- Node12&#45;&gt;Node13 -->
<g id="edge14" class="edge"><title>Node12&#45;&gt;Node13</title>
<path fill="none" stroke="midnightblue" d="M315.875,-10C331.556,-10 347.242,-10 360.986,-10"/>
<polygon fill="midnightblue" stroke="midnightblue" points="315.592,-6.5001 305.592,-10 315.591,-13.5001 315.592,-6.5001"/>
</g>
</g>
</svg>
