<?xml version="1.0" encoding="UTF-8" standalone="no"?>
<!DOCTYPE svg PUBLIC "-//W3C//DTD SVG 1.1//EN"
 "http://www.w3.org/Graphics/SVG/1.1/DTD/svg11.dtd">
<!-- Generated by graphviz version 2.36.0 (20140111.2315)
 -->
<!-- Title: State.update Pages: 1 -->
<svg width="236pt" height="66pt"
 viewBox="0.00 0.00 236.00 66.00" xmlns="http://www.w3.org/2000/svg" xmlns:xlink="http://www.w3.org/1999/xlink">
<g id="graph0" class="graph" transform="scale(1 1) rotate(0) translate(4 62)">
<title>State.update</title>
<polygon fill="white" stroke="none" points="-4,4 -4,-62 232,-62 232,4 -4,4"/>
<!-- Node1 -->
<g id="node1" class="node"><title>Node1</title>
<polygon fill="#bfbfbf" stroke="black" points="0,-19.5 0,-38.5 80,-38.5 80,-19.5 0,-19.5"/>
<text text-anchor="middle" x="40" y="-26.5" font-family="Helvetica,sans-Serif" font-size="10.00">State.update</text>
</g>
<!-- Node2 -->
<g id="node2" class="node"><title>Node2</title>
<g id="a_node2"><a xlink:href="../../d0/d8b/class_state.html#af401107e11e7280c27e532a3529441bf" target="_top" xlink:title="State.getMyCurrent">
<polygon fill="white" stroke="black" points="116.5,-38.5 116.5,-57.5 227.5,-57.5 227.5,-38.5 116.5,-38.5"/>
<text text-anchor="middle" x="172" y="-45.5" font-family="Helvetica,sans-Serif" font-size="10.00">State.getMyCurrent</text>
</a>
</g>
</g>
<!-- Node1&#45;&gt;Node2 -->
<g id="edge1" class="edge"><title>Node1&#45;&gt;Node2</title>
<path fill="none" stroke="midnightblue" d="M80.0043,-34.7006C88.2639,-35.9078 97.1939,-37.213 106.121,-38.5177"/>
<polygon fill="midnightblue" stroke="midnightblue" points="105.762,-42.0023 116.163,-39.9853 106.774,-35.0758 105.762,-42.0023"/>
</g>
<!-- Node3 -->
<g id="node3" class="node"><title>Node3</title>
<g id="a_node3"><a xlink:href="../../d0/d8b/class_state.html#a459df629ce75d2a3c0888698ab0aa334" target="_top" xlink:title="State.setMyCurrent">
<polygon fill="white" stroke="black" points="117,-0.5 117,-19.5 227,-19.5 227,-0.5 117,-0.5"/>
<text text-anchor="middle" x="172" y="-7.5" font-family="Helvetica,sans-Serif" font-size="10.00">State.setMyCurrent</text>
</a>
</g>
</g>
<!-- Node1&#45;&gt;Node3 -->
<g id="edge2" class="edge"><title>Node1&#45;&gt;Node3</title>
<path fill="none" stroke="midnightblue" d="M80.0043,-23.2994C88.3726,-22.0763 97.4291,-20.7527 106.473,-19.4308"/>
<polygon fill="midnightblue" stroke="midnightblue" points="107.253,-22.8541 116.642,-17.9446 106.241,-15.9277 107.253,-22.8541"/>
</g>
</g>
</svg>
