<?xml version="1.0" encoding="UTF-8" standalone="no"?>
<!DOCTYPE svg PUBLIC "-//W3C//DTD SVG 1.1//EN"
 "http://www.w3.org/Graphics/SVG/1.1/DTD/svg11.dtd">
<!-- Generated by graphviz version 2.36.0 (20140111.2315)
 -->
<!-- Title: State.setMyCurrent Pages: 1 -->
<svg width="234pt" height="66pt"
 viewBox="0.00 0.00 234.00 66.00" xmlns="http://www.w3.org/2000/svg" xmlns:xlink="http://www.w3.org/1999/xlink">
<g id="graph0" class="graph" transform="scale(1 1) rotate(0) translate(4 62)">
<title>State.setMyCurrent</title>
<polygon fill="white" stroke="none" points="-4,4 -4,-62 230,-62 230,4 -4,4"/>
<!-- Node1 -->
<g id="node1" class="node"><title>Node1</title>
<polygon fill="#bfbfbf" stroke="black" points="0,-19.5 0,-38.5 110,-38.5 110,-19.5 0,-19.5"/>
<text text-anchor="middle" x="55" y="-26.5" font-family="Helvetica,sans-Serif" font-size="10.00">State.setMyCurrent</text>
</g>
<!-- Node2 -->
<g id="node2" class="node"><title>Node2</title>
<g id="a_node2"><a xlink:href="../../d0/d8b/class_state.html#a865ae39b719953cf3427271e30102d4c" target="_top" xlink:title="State.State">
<polygon fill="white" stroke="black" points="150,-38.5 150,-57.5 222,-57.5 222,-38.5 150,-38.5"/>
<text text-anchor="middle" x="186" y="-45.5" font-family="Helvetica,sans-Serif" font-size="10.00">State.State</text>
</a>
</g>
</g>
<!-- Node1&#45;&gt;Node2 -->
<g id="edge1" class="edge"><title>Node1&#45;&gt;Node2</title>
<path fill="none" stroke="midnightblue" d="M120.427,-38.4893C130.559,-39.9815 140.692,-41.4741 149.829,-42.8197"/>
<polygon fill="midnightblue" stroke="midnightblue" points="120.737,-34.9972 110.334,-37.0026 119.717,-41.9225 120.737,-34.9972"/>
</g>
<!-- Node3 -->
<g id="node3" class="node"><title>Node3</title>
<g id="a_node3"><a xlink:href="../../d0/d8b/class_state.html#a5ecbb69eb3048cc49aeadfc6e71a15b0" target="_top" xlink:title="State.update">
<polygon fill="white" stroke="black" points="146,-0.5 146,-19.5 226,-19.5 226,-0.5 146,-0.5"/>
<text text-anchor="middle" x="186" y="-7.5" font-family="Helvetica,sans-Serif" font-size="10.00">State.update</text>
</a>
</g>
</g>
<!-- Node1&#45;&gt;Node3 -->
<g id="edge2" class="edge"><title>Node1&#45;&gt;Node3</title>
<path fill="none" stroke="midnightblue" d="M120.401,-19.5146C129.009,-18.2467 137.62,-16.9785 145.619,-15.8002"/>
<polygon fill="midnightblue" stroke="midnightblue" points="119.717,-16.0775 110.334,-20.9974 120.737,-23.0028 119.717,-16.0775"/>
</g>
</g>
</svg>
