<?xml version="1.0" encoding="UTF-8" standalone="no"?>
<!DOCTYPE svg PUBLIC "-//W3C//DTD SVG 1.1//EN"
 "http://www.w3.org/Graphics/SVG/1.1/DTD/svg11.dtd">
<!-- Generated by graphviz version 2.36.0 (20140111.2315)
 -->
<!-- Title: State.getMyCurrent Pages: 1 -->
<svg width="436pt" height="104pt"
 viewBox="0.00 0.00 436.00 104.00" xmlns="http://www.w3.org/2000/svg" xmlns:xlink="http://www.w3.org/1999/xlink">
<g id="graph0" class="graph" transform="scale(1 1) rotate(0) translate(4 100)">
<title>State.getMyCurrent</title>
<polygon fill="white" stroke="none" points="-4,4 -4,-100 432,-100 432,4 -4,4"/>
<!-- Node1 -->
<g id="node1" class="node"><title>Node1</title>
<polygon fill="#bfbfbf" stroke="black" points="0.5,-38.5 0.5,-57.5 111.5,-57.5 111.5,-38.5 0.5,-38.5"/>
<text text-anchor="middle" x="56" y="-45.5" font-family="Helvetica,sans-Serif" font-size="10.00">State.getMyCurrent</text>
</g>
<!-- Node2 -->
<g id="node2" class="node"><title>Node2</title>
<g id="a_node2"><a xlink:href="../../d0/d8b/class_state.html#a419b3f1c97ab4d5d6f4e3ea66b468099" target="_top" xlink:title="State.contains">
<polygon fill="white" stroke="black" points="163,-76.5 163,-95.5 249,-95.5 249,-76.5 163,-76.5"/>
<text text-anchor="middle" x="206" y="-83.5" font-family="Helvetica,sans-Serif" font-size="10.00">State.contains</text>
</a>
</g>
</g>
<!-- Node1&#45;&gt;Node2 -->
<g id="edge1" class="edge"><title>Node1&#45;&gt;Node2</title>
<path fill="none" stroke="midnightblue" d="M104.173,-60.1121C124.786,-65.4044 148.609,-71.5213 167.922,-76.4799"/>
<polygon fill="midnightblue" stroke="midnightblue" points="104.903,-56.6859 94.3466,-57.589 103.162,-63.466 104.903,-56.6859"/>
</g>
<!-- Node3 -->
<g id="node3" class="node"><title>Node3</title>
<g id="a_node3"><a xlink:href="../../da/d1e/class_segregation.html#a49b8fcb38373080b203a974f5c24d166" target="_top" xlink:title="Segregation.ruleOne">
<polygon fill="white" stroke="black" points="148,-38.5 148,-57.5 264,-57.5 264,-38.5 148,-38.5"/>
<text text-anchor="middle" x="206" y="-45.5" font-family="Helvetica,sans-Serif" font-size="10.00">Segregation.ruleOne</text>
</a>
</g>
</g>
<!-- Node1&#45;&gt;Node3 -->
<g id="edge2" class="edge"><title>Node1&#45;&gt;Node3</title>
<path fill="none" stroke="midnightblue" d="M121.691,-48C130.301,-48 139.083,-48 147.559,-48"/>
<polygon fill="midnightblue" stroke="midnightblue" points="121.689,-44.5001 111.689,-48 121.689,-51.5001 121.689,-44.5001"/>
</g>
<!-- Node5 -->
<g id="node5" class="node"><title>Node5</title>
<g id="a_node5"><a xlink:href="../../d0/d8b/class_state.html#a5ecbb69eb3048cc49aeadfc6e71a15b0" target="_top" xlink:title="State.update">
<polygon fill="white" stroke="black" points="166,-0.5 166,-19.5 246,-19.5 246,-0.5 166,-0.5"/>
<text text-anchor="middle" x="206" y="-7.5" font-family="Helvetica,sans-Serif" font-size="10.00">State.update</text>
</a>
</g>
</g>
<!-- Node1&#45;&gt;Node5 -->
<g id="edge4" class="edge"><title>Node1&#45;&gt;Node5</title>
<path fill="none" stroke="midnightblue" d="M104.173,-35.8879C124.786,-30.5956 148.609,-24.4787 167.922,-19.5201"/>
<polygon fill="midnightblue" stroke="midnightblue" points="103.162,-32.534 94.3466,-38.411 104.903,-39.3141 103.162,-32.534"/>
</g>
<!-- Node4 -->
<g id="node4" class="node"><title>Node4</title>
<g id="a_node4"><a xlink:href="../../da/d1e/class_segregation.html#a45e57140276ed3b1897cf8212b6283d4" target="_top" xlink:title="Segregation.applyRules">
<polygon fill="white" stroke="black" points="300,-38.5 300,-57.5 428,-57.5 428,-38.5 300,-38.5"/>
<text text-anchor="middle" x="364" y="-45.5" font-family="Helvetica,sans-Serif" font-size="10.00">Segregation.applyRules</text>
</a>
</g>
</g>
<!-- Node3&#45;&gt;Node4 -->
<g id="edge3" class="edge"><title>Node3&#45;&gt;Node4</title>
<path fill="none" stroke="midnightblue" d="M274.37,-48C282.796,-48 291.391,-48 299.751,-48"/>
<polygon fill="midnightblue" stroke="midnightblue" points="274.203,-44.5001 264.203,-48 274.203,-51.5001 274.203,-44.5001"/>
</g>
</g>
</svg>
