<?xml version="1.0" encoding="UTF-8" standalone="no"?>
<!DOCTYPE svg PUBLIC "-//W3C//DTD SVG 1.1//EN"
 "http://www.w3.org/Graphics/SVG/1.1/DTD/svg11.dtd">
<!-- Generated by graphviz version 2.36.0 (20140111.2315)
 -->
<!-- Title: CellularAutomata.init Pages: 1 -->
<svg width="1068pt" height="74pt"
 viewBox="0.00 0.00 1068.00 74.00" xmlns="http://www.w3.org/2000/svg" xmlns:xlink="http://www.w3.org/1999/xlink">
<g id="graph0" class="graph" transform="scale(1 1) rotate(0) translate(4 70)">
<title>CellularAutomata.init</title>
<polygon fill="white" stroke="none" points="-4,4 -4,-70 1064,-70 1064,4 -4,4"/>
<!-- Node1 -->
<g id="node1" class="node"><title>Node1</title>
<polygon fill="#bfbfbf" stroke="black" points="0.5,-17.5 0.5,-36.5 117.5,-36.5 117.5,-17.5 0.5,-17.5"/>
<text text-anchor="middle" x="59" y="-24.5" font-family="Helvetica,sans-Serif" font-size="10.00">CellularAutomata.init</text>
</g>
<!-- Node2 -->
<g id="node2" class="node"><title>Node2</title>
<g id="a_node2"><a xlink:href="../../df/df8/class_cell_society_view.html#a767ab215ca329ba41b1493702141f841" target="_top" xlink:title="CellSocietyView.makeCAGame">
<polygon fill="white" stroke="black" points="154.5,-17.5 154.5,-36.5 317.5,-36.5 317.5,-17.5 154.5,-17.5"/>
<text text-anchor="middle" x="236" y="-24.5" font-family="Helvetica,sans-Serif" font-size="10.00">CellSocietyView.makeCAGame</text>
</a>
</g>
</g>
<!-- Node1&#45;&gt;Node2 -->
<g id="edge1" class="edge"><title>Node1&#45;&gt;Node2</title>
<path fill="none" stroke="midnightblue" d="M127.869,-27C136.584,-27 145.573,-27 154.465,-27"/>
<polygon fill="midnightblue" stroke="midnightblue" points="127.787,-23.5001 117.787,-27 127.787,-30.5001 127.787,-23.5001"/>
</g>
<!-- Node3 -->
<g id="node3" class="node"><title>Node3</title>
<g id="a_node3"><a xlink:href="../../df/df8/class_cell_society_view.html#a2ee793e471cc5731ce39c1450f058dd5" target="_top" xlink:title="CellSocietyView.parseFile">
<polygon fill="white" stroke="black" points="354.5,-38.5 354.5,-57.5 489.5,-57.5 489.5,-38.5 354.5,-38.5"/>
<text text-anchor="middle" x="422" y="-45.5" font-family="Helvetica,sans-Serif" font-size="10.00">CellSocietyView.parseFile</text>
</a>
</g>
</g>
<!-- Node2&#45;&gt;Node3 -->
<g id="edge2" class="edge"><title>Node2&#45;&gt;Node3</title>
<path fill="none" stroke="midnightblue" d="M327.807,-37.3639C336.777,-38.3876 345.762,-39.413 354.42,-40.4012"/>
<polygon fill="midnightblue" stroke="midnightblue" points="328.037,-33.8675 317.705,-36.2109 327.244,-40.8224 328.037,-33.8675"/>
</g>
<!-- Node4 -->
<g id="node4" class="node"><title>Node4</title>
<g id="a_node4"><a xlink:href="../../df/df8/class_cell_society_view.html#a2c047a3972078bb0a5490ed225ef2dfa" target="_top" xlink:title="CellSocietyView.loadNewFile">
<polygon fill="white" stroke="black" points="526.5,-39.5 526.5,-58.5 675.5,-58.5 675.5,-39.5 526.5,-39.5"/>
<text text-anchor="middle" x="601" y="-46.5" font-family="Helvetica,sans-Serif" font-size="10.00">CellSocietyView.loadNewFile</text>
</a>
</g>
</g>
<!-- Node3&#45;&gt;Node4 -->
<g id="edge3" class="edge"><title>Node3&#45;&gt;Node4</title>
<path fill="none" stroke="midnightblue" d="M499.865,-48.4343C508.633,-48.4838 517.557,-48.5342 526.283,-48.5835"/>
<polygon fill="midnightblue" stroke="midnightblue" points="499.684,-44.9333 489.664,-48.3766 499.644,-51.9332 499.684,-44.9333"/>
</g>
<!-- Node5 -->
<g id="node5" class="node"><title>Node5</title>
<g id="a_node5"><a xlink:href="../../df/df8/class_cell_society_view.html#a656cfed0ba32bc41bbd0c4087860db4b" target="_top" xlink:title="CellSocietyView.makeLoad\lButton">
<polygon fill="white" stroke="black" points="712.5,-36 712.5,-66 855.5,-66 855.5,-36 712.5,-36"/>
<text text-anchor="start" x="720.5" y="-54" font-family="Helvetica,sans-Serif" font-size="10.00">CellSocietyView.makeLoad</text>
<text text-anchor="middle" x="784" y="-43" font-family="Helvetica,sans-Serif" font-size="10.00">Button</text>
</a>
</g>
</g>
<!-- Node4&#45;&gt;Node5 -->
<g id="edge4" class="edge"><title>Node4&#45;&gt;Node5</title>
<path fill="none" stroke="midnightblue" d="M685.651,-49.9243C694.585,-50.023 703.61,-50.1228 712.373,-50.2196"/>
<polygon fill="midnightblue" stroke="midnightblue" points="685.658,-46.4243 675.62,-49.8135 685.58,-53.4239 685.658,-46.4243"/>
</g>
<!-- Node6 -->
<g id="node6" class="node"><title>Node6</title>
<g id="a_node6"><a xlink:href="../../df/df8/class_cell_society_view.html#a53ab66afdeb23b3fc89e54a44be7ced5" target="_top" xlink:title="CellSocietyView.CellSocietyView">
<polygon fill="white" stroke="black" points="892.5,-41.5 892.5,-60.5 1059.5,-60.5 1059.5,-41.5 892.5,-41.5"/>
<text text-anchor="middle" x="976" y="-48.5" font-family="Helvetica,sans-Serif" font-size="10.00">CellSocietyView.CellSocietyView</text>
</a>
</g>
</g>
<!-- Node5&#45;&gt;Node6 -->
<g id="edge5" class="edge"><title>Node5&#45;&gt;Node6</title>
<path fill="none" stroke="midnightblue" d="M865.92,-51C874.663,-51 883.569,-51 892.332,-51"/>
<polygon fill="midnightblue" stroke="midnightblue" points="865.749,-47.5001 855.749,-51 865.749,-54.5001 865.749,-47.5001"/>
</g>
<!-- Node7 -->
<g id="node7" class="node"><title>Node7</title>
<g id="a_node7"><a xlink:href="../../df/df8/class_cell_society_view.html#a7bdbd4e8fd3893e672eb22015603f6dc" target="_top" xlink:title="CellSocietyView.makeButtons">
<polygon fill="white" stroke="black" points="897,-0.5 897,-19.5 1055,-19.5 1055,-0.5 897,-0.5"/>
<text text-anchor="middle" x="976" y="-7.5" font-family="Helvetica,sans-Serif" font-size="10.00">CellSocietyView.makeButtons</text>
</a>
</g>
</g>
<!-- Node5&#45;&gt;Node7 -->
<g id="edge6" class="edge"><title>Node5&#45;&gt;Node7</title>
<path fill="none" stroke="midnightblue" d="M864.613,-33.8204C887.224,-28.941 911.031,-23.8039 930.723,-19.5545"/>
<polygon fill="midnightblue" stroke="midnightblue" points="863.707,-30.4353 854.67,-35.9659 865.183,-37.2778 863.707,-30.4353"/>
</g>
<!-- Node7&#45;&gt;Node2 -->
<g id="edge7" class="edge"><title>Node7&#45;&gt;Node2</title>
<path fill="none" stroke="midnightblue" d="M886.591,-12.0365C742.015,-15.3669 457.169,-21.9284 317.737,-25.1402"/>
<polygon fill="midnightblue" stroke="midnightblue" points="886.838,-15.5319 896.755,-11.8024 886.677,-8.53371 886.838,-15.5319"/>
</g>
</g>
</svg>
