<?xml version="1.0" encoding="UTF-8" standalone="no"?>
<!DOCTYPE svg PUBLIC "-//W3C//DTD SVG 1.1//EN"
 "http://www.w3.org/Graphics/SVG/1.1/DTD/svg11.dtd">
<!-- Generated by graphviz version 2.36.0 (20140111.2315)
 -->
<!-- Title: CellularAutomata.handleUpdate Pages: 1 -->
<svg width="1726pt" height="74pt"
 viewBox="0.00 0.00 1726.00 74.00" xmlns="http://www.w3.org/2000/svg" xmlns:xlink="http://www.w3.org/1999/xlink">
<g id="graph0" class="graph" transform="scale(1 1) rotate(0) translate(4 70)">
<title>CellularAutomata.handleUpdate</title>
<polygon fill="white" stroke="none" points="-4,4 -4,-70 1722,-70 1722,4 -4,4"/>
<!-- Node1 -->
<g id="node1" class="node"><title>Node1</title>
<polygon fill="#bfbfbf" stroke="black" points="0,-19.5 0,-38.5 170,-38.5 170,-19.5 0,-19.5"/>
<text text-anchor="middle" x="85" y="-26.5" font-family="Helvetica,sans-Serif" font-size="10.00">CellularAutomata.handleUpdate</text>
</g>
<!-- Node2 -->
<g id="node2" class="node"><title>Node2</title>
<g id="a_node2"><a xlink:href="../../d2/d40/class_cellular_automata.html#a8f4c8a2f32137db67dd31f5afb4b62c3" target="_top" xlink:title="CellularAutomata.updateNextGen">
<polygon fill="white" stroke="black" points="206.5,-19.5 206.5,-38.5 385.5,-38.5 385.5,-19.5 206.5,-19.5"/>
<text text-anchor="middle" x="296" y="-26.5" font-family="Helvetica,sans-Serif" font-size="10.00">CellularAutomata.updateNextGen</text>
</a>
</g>
</g>
<!-- Node1&#45;&gt;Node2 -->
<g id="edge1" class="edge"><title>Node1&#45;&gt;Node2</title>
<path fill="none" stroke="midnightblue" d="M180.227,-29C188.899,-29 197.666,-29 206.286,-29"/>
<polygon fill="midnightblue" stroke="midnightblue" points="180.105,-25.5001 170.105,-29 180.105,-32.5001 180.105,-25.5001"/>
</g>
<!-- Node3 -->
<g id="node3" class="node"><title>Node3</title>
<g id="a_node3"><a xlink:href="../../df/df8/class_cell_society_view.html#ad52b914fa03b45d8bc9d64fc407660f3" target="_top" xlink:title="CellSocietyView.updateView">
<polygon fill="white" stroke="black" points="422.5,-19.5 422.5,-38.5 571.5,-38.5 571.5,-19.5 422.5,-19.5"/>
<text text-anchor="middle" x="497" y="-26.5" font-family="Helvetica,sans-Serif" font-size="10.00">CellSocietyView.updateView</text>
</a>
</g>
</g>
<!-- Node2&#45;&gt;Node3 -->
<g id="edge2" class="edge"><title>Node2&#45;&gt;Node3</title>
<path fill="none" stroke="midnightblue" d="M395.8,-29C404.732,-29 413.672,-29 422.332,-29"/>
<polygon fill="midnightblue" stroke="midnightblue" points="395.733,-25.5001 385.733,-29 395.733,-32.5001 395.733,-25.5001"/>
</g>
<!-- Node4 -->
<g id="node4" class="node"><title>Node4</title>
<g id="a_node4"><a xlink:href="../../df/df8/class_cell_society_view.html#aec6e94a6cf275f0b5d64a4b8adccd7d0" target="_top" xlink:title="CellSocietyView.makeStep\lButton">
<polygon fill="white" stroke="black" points="608.5,-36 608.5,-66 751.5,-66 751.5,-36 608.5,-36"/>
<text text-anchor="start" x="616.5" y="-54" font-family="Helvetica,sans-Serif" font-size="10.00">CellSocietyView.makeStep</text>
<text text-anchor="middle" x="680" y="-43" font-family="Helvetica,sans-Serif" font-size="10.00">Button</text>
</a>
</g>
</g>
<!-- Node3&#45;&gt;Node4 -->
<g id="edge3" class="edge"><title>Node3&#45;&gt;Node4</title>
<path fill="none" stroke="midnightblue" d="M581.651,-39.1675C590.585,-40.2535 599.61,-41.3504 608.373,-42.4155"/>
<polygon fill="midnightblue" stroke="midnightblue" points="581.969,-35.6805 571.62,-37.9482 581.124,-42.6293 581.969,-35.6805"/>
</g>
<!-- Node10 -->
<g id="node10" class="node"><title>Node10</title>
<g id="a_node10"><a xlink:href="../../df/df8/class_cell_society_view.html#adf6a6b0542d00677a9fffbb8e3c03ffe" target="_top" xlink:title="CellSocietyView.makeTimeline">
<polygon fill="white" stroke="black" points="788,-0.5 788,-19.5 948,-19.5 948,-0.5 788,-0.5"/>
<text text-anchor="middle" x="868" y="-7.5" font-family="Helvetica,sans-Serif" font-size="10.00">CellSocietyView.makeTimeline</text>
</a>
</g>
</g>
<!-- Node3&#45;&gt;Node10 -->
<g id="edge10" class="edge"><title>Node3&#45;&gt;Node10</title>
<path fill="none" stroke="midnightblue" d="M581.902,-24.6799C643.727,-21.4964 727.261,-17.1952 787.917,-14.072"/>
<polygon fill="midnightblue" stroke="midnightblue" points="581.593,-21.191 571.786,-25.2007 581.953,-28.1818 581.593,-21.191"/>
</g>
<!-- Node5 -->
<g id="node5" class="node"><title>Node5</title>
<g id="a_node5"><a xlink:href="../../df/df8/class_cell_society_view.html#a7bdbd4e8fd3893e672eb22015603f6dc" target="_top" xlink:title="CellSocietyView.makeButtons">
<polygon fill="white" stroke="black" points="789,-39.5 789,-58.5 947,-58.5 947,-39.5 789,-39.5"/>
<text text-anchor="middle" x="868" y="-46.5" font-family="Helvetica,sans-Serif" font-size="10.00">CellSocietyView.makeButtons</text>
</a>
</g>
</g>
<!-- Node4&#45;&gt;Node5 -->
<g id="edge4" class="edge"><title>Node4&#45;&gt;Node5</title>
<path fill="none" stroke="midnightblue" d="M761.635,-50.133C770.612,-50.0364 779.746,-49.9382 788.693,-49.842"/>
<polygon fill="midnightblue" stroke="midnightblue" points="761.546,-46.6336 751.584,-50.241 761.621,-53.6332 761.546,-46.6336"/>
</g>
<!-- Node6 -->
<g id="node6" class="node"><title>Node6</title>
<g id="a_node6"><a xlink:href="../../df/df8/class_cell_society_view.html#a6a72ed4ee014a9c3f0368ab26be873d6" target="_top" xlink:title="CellSocietyView.makeCAGame">
<polygon fill="white" stroke="black" points="984.5,-1.5 984.5,-20.5 1147.5,-20.5 1147.5,-1.5 984.5,-1.5"/>
<text text-anchor="middle" x="1066" y="-8.5" font-family="Helvetica,sans-Serif" font-size="10.00">CellSocietyView.makeCAGame</text>
</a>
</g>
</g>
<!-- Node5&#45;&gt;Node6 -->
<g id="edge5" class="edge"><title>Node5&#45;&gt;Node6</title>
<path fill="none" stroke="midnightblue" d="M928.261,-37.5106C956.227,-32.0886 989.209,-25.6942 1015.77,-20.5439"/>
<polygon fill="midnightblue" stroke="midnightblue" points="927.357,-34.1206 918.206,-39.46 928.689,-40.9927 927.357,-34.1206"/>
</g>
<!-- Node7 -->
<g id="node7" class="node"><title>Node7</title>
<g id="a_node7"><a xlink:href="../../df/df8/class_cell_society_view.html#a2c047a3972078bb0a5490ed225ef2dfa" target="_top" xlink:title="CellSocietyView.loadNewFile">
<polygon fill="white" stroke="black" points="1184.5,-1.5 1184.5,-20.5 1333.5,-20.5 1333.5,-1.5 1184.5,-1.5"/>
<text text-anchor="middle" x="1259" y="-8.5" font-family="Helvetica,sans-Serif" font-size="10.00">CellSocietyView.loadNewFile</text>
</a>
</g>
</g>
<!-- Node6&#45;&gt;Node7 -->
<g id="edge6" class="edge"><title>Node6&#45;&gt;Node7</title>
<path fill="none" stroke="midnightblue" d="M1158.01,-11C1166.8,-11 1175.64,-11 1184.24,-11"/>
<polygon fill="midnightblue" stroke="midnightblue" points="1157.72,-7.5001 1147.72,-11 1157.72,-14.5001 1157.72,-7.5001"/>
</g>
<!-- Node8 -->
<g id="node8" class="node"><title>Node8</title>
<g id="a_node8"><a xlink:href="../../df/df8/class_cell_society_view.html#a656cfed0ba32bc41bbd0c4087860db4b" target="_top" xlink:title="CellSocietyView.makeLoad\lButton">
<polygon fill="white" stroke="black" points="1370.5,-15 1370.5,-45 1513.5,-45 1513.5,-15 1370.5,-15"/>
<text text-anchor="start" x="1378.5" y="-33" font-family="Helvetica,sans-Serif" font-size="10.00">CellSocietyView.makeLoad</text>
<text text-anchor="middle" x="1442" y="-22" font-family="Helvetica,sans-Serif" font-size="10.00">Button</text>
</a>
</g>
</g>
<!-- Node7&#45;&gt;Node8 -->
<g id="edge7" class="edge"><title>Node7&#45;&gt;Node8</title>
<path fill="none" stroke="midnightblue" d="M1343.65,-19.781C1352.59,-20.7189 1361.61,-21.6662 1370.37,-22.5861"/>
<polygon fill="midnightblue" stroke="midnightblue" points="1343.93,-16.2912 1333.62,-18.728 1343.2,-23.253 1343.93,-16.2912"/>
</g>
<!-- Node8&#45;&gt;Node5 -->
<g id="edge9" class="edge"><title>Node8&#45;&gt;Node5</title>
<path fill="none" stroke="midnightblue" d="M1360.23,-32.6828C1250.44,-36.3296 1055.39,-42.8086 947.036,-46.4079"/>
<polygon fill="midnightblue" stroke="midnightblue" points="1360.38,-36.1798 1370.26,-32.3497 1360.15,-29.1837 1360.38,-36.1798"/>
</g>
<!-- Node9 -->
<g id="node9" class="node"><title>Node9</title>
<g id="a_node9"><a xlink:href="../../df/df8/class_cell_society_view.html#a53ab66afdeb23b3fc89e54a44be7ced5" target="_top" xlink:title="CellSocietyView.CellSocietyView">
<polygon fill="white" stroke="black" points="1550.5,-20.5 1550.5,-39.5 1717.5,-39.5 1717.5,-20.5 1550.5,-20.5"/>
<text text-anchor="middle" x="1634" y="-27.5" font-family="Helvetica,sans-Serif" font-size="10.00">CellSocietyView.CellSocietyView</text>
</a>
</g>
</g>
<!-- Node8&#45;&gt;Node9 -->
<g id="edge8" class="edge"><title>Node8&#45;&gt;Node9</title>
<path fill="none" stroke="midnightblue" d="M1523.92,-30C1532.66,-30 1541.57,-30 1550.33,-30"/>
<polygon fill="midnightblue" stroke="midnightblue" points="1523.75,-26.5001 1513.75,-30 1523.75,-33.5001 1523.75,-26.5001"/>
</g>
<!-- Node10&#45;&gt;Node6 -->
<g id="edge11" class="edge"><title>Node10&#45;&gt;Node6</title>
<path fill="none" stroke="midnightblue" d="M958.271,-10.4555C966.937,-10.4997 975.696,-10.5444 984.272,-10.5881"/>
<polygon fill="midnightblue" stroke="midnightblue" points="958.174,-6.95502 948.156,-10.4039 958.138,-13.9549 958.174,-6.95502"/>
</g>
</g>
</svg>
