<?xml version="1.0" encoding="UTF-8" standalone="no"?>
<!DOCTYPE svg PUBLIC "-//W3C//DTD SVG 1.1//EN"
 "http://www.w3.org/Graphics/SVG/1.1/DTD/svg11.dtd">
<!-- Generated by graphviz version 2.36.0 (20140111.2315)
 -->
<!-- Title: CellularAutomata.checkRules Pages: 1 -->
<svg width="1712pt" height="74pt"
 viewBox="0.00 0.00 1712.00 74.00" xmlns="http://www.w3.org/2000/svg" xmlns:xlink="http://www.w3.org/1999/xlink">
<g id="graph0" class="graph" transform="scale(1 1) rotate(0) translate(4 70)">
<title>CellularAutomata.checkRules</title>
<polygon fill="white" stroke="none" points="-4,4 -4,-70 1708,-70 1708,4 -4,4"/>
<!-- Node1 -->
<g id="node1" class="node"><title>Node1</title>
<polygon fill="#bfbfbf" stroke="black" points="0.5,-19.5 0.5,-38.5 155.5,-38.5 155.5,-19.5 0.5,-19.5"/>
<text text-anchor="middle" x="78" y="-26.5" font-family="Helvetica,sans-Serif" font-size="10.00">CellularAutomata.checkRules</text>
</g>
<!-- Node2 -->
<g id="node2" class="node"><title>Node2</title>
<g id="a_node2"><a xlink:href="../../d2/d40/class_cellular_automata.html#a8f4c8a2f32137db67dd31f5afb4b62c3" target="_top" xlink:title="CellularAutomata.updateNextGen">
<polygon fill="white" stroke="black" points="192.5,-19.5 192.5,-38.5 371.5,-38.5 371.5,-19.5 192.5,-19.5"/>
<text text-anchor="middle" x="282" y="-26.5" font-family="Helvetica,sans-Serif" font-size="10.00">CellularAutomata.updateNextGen</text>
</a>
</g>
</g>
<!-- Node1&#45;&gt;Node2 -->
<g id="edge1" class="edge"><title>Node1&#45;&gt;Node2</title>
<path fill="none" stroke="midnightblue" d="M165.83,-29C174.568,-29 183.45,-29 192.208,-29"/>
<polygon fill="midnightblue" stroke="midnightblue" points="165.656,-25.5001 155.656,-29 165.656,-32.5001 165.656,-25.5001"/>
</g>
<!-- Node3 -->
<g id="node3" class="node"><title>Node3</title>
<g id="a_node3"><a xlink:href="../../df/df8/class_cell_society_view.html#ad52b914fa03b45d8bc9d64fc407660f3" target="_top" xlink:title="CellSocietyView.updateView">
<polygon fill="white" stroke="black" points="408.5,-19.5 408.5,-38.5 557.5,-38.5 557.5,-19.5 408.5,-19.5"/>
<text text-anchor="middle" x="483" y="-26.5" font-family="Helvetica,sans-Serif" font-size="10.00">CellSocietyView.updateView</text>
</a>
</g>
</g>
<!-- Node2&#45;&gt;Node3 -->
<g id="edge2" class="edge"><title>Node2&#45;&gt;Node3</title>
<path fill="none" stroke="midnightblue" d="M381.8,-29C390.732,-29 399.672,-29 408.332,-29"/>
<polygon fill="midnightblue" stroke="midnightblue" points="381.733,-25.5001 371.733,-29 381.733,-32.5001 381.733,-25.5001"/>
</g>
<!-- Node4 -->
<g id="node4" class="node"><title>Node4</title>
<g id="a_node4"><a xlink:href="../../df/df8/class_cell_society_view.html#aec6e94a6cf275f0b5d64a4b8adccd7d0" target="_top" xlink:title="CellSocietyView.makeStep\lButton">
<polygon fill="white" stroke="black" points="594.5,-36 594.5,-66 737.5,-66 737.5,-36 594.5,-36"/>
<text text-anchor="start" x="602.5" y="-54" font-family="Helvetica,sans-Serif" font-size="10.00">CellSocietyView.makeStep</text>
<text text-anchor="middle" x="666" y="-43" font-family="Helvetica,sans-Serif" font-size="10.00">Button</text>
</a>
</g>
</g>
<!-- Node3&#45;&gt;Node4 -->
<g id="edge3" class="edge"><title>Node3&#45;&gt;Node4</title>
<path fill="none" stroke="midnightblue" d="M567.651,-39.1675C576.585,-40.2535 585.61,-41.3504 594.373,-42.4155"/>
<polygon fill="midnightblue" stroke="midnightblue" points="567.969,-35.6805 557.62,-37.9482 567.124,-42.6293 567.969,-35.6805"/>
</g>
<!-- Node10 -->
<g id="node10" class="node"><title>Node10</title>
<g id="a_node10"><a xlink:href="../../df/df8/class_cell_society_view.html#adf6a6b0542d00677a9fffbb8e3c03ffe" target="_top" xlink:title="CellSocietyView.makeTimeline">
<polygon fill="white" stroke="black" points="774,-0.5 774,-19.5 934,-19.5 934,-0.5 774,-0.5"/>
<text text-anchor="middle" x="854" y="-7.5" font-family="Helvetica,sans-Serif" font-size="10.00">CellSocietyView.makeTimeline</text>
</a>
</g>
</g>
<!-- Node3&#45;&gt;Node10 -->
<g id="edge10" class="edge"><title>Node3&#45;&gt;Node10</title>
<path fill="none" stroke="midnightblue" d="M567.902,-24.6799C629.727,-21.4964 713.261,-17.1952 773.917,-14.072"/>
<polygon fill="midnightblue" stroke="midnightblue" points="567.593,-21.191 557.786,-25.2007 567.953,-28.1818 567.593,-21.191"/>
</g>
<!-- Node5 -->
<g id="node5" class="node"><title>Node5</title>
<g id="a_node5"><a xlink:href="../../df/df8/class_cell_society_view.html#a7bdbd4e8fd3893e672eb22015603f6dc" target="_top" xlink:title="CellSocietyView.makeButtons">
<polygon fill="white" stroke="black" points="775,-39.5 775,-58.5 933,-58.5 933,-39.5 775,-39.5"/>
<text text-anchor="middle" x="854" y="-46.5" font-family="Helvetica,sans-Serif" font-size="10.00">CellSocietyView.makeButtons</text>
</a>
</g>
</g>
<!-- Node4&#45;&gt;Node5 -->
<g id="edge4" class="edge"><title>Node4&#45;&gt;Node5</title>
<path fill="none" stroke="midnightblue" d="M747.635,-50.133C756.612,-50.0364 765.746,-49.9382 774.693,-49.842"/>
<polygon fill="midnightblue" stroke="midnightblue" points="747.546,-46.6336 737.584,-50.241 747.621,-53.6332 747.546,-46.6336"/>
</g>
<!-- Node6 -->
<g id="node6" class="node"><title>Node6</title>
<g id="a_node6"><a xlink:href="../../df/df8/class_cell_society_view.html#a6a72ed4ee014a9c3f0368ab26be873d6" target="_top" xlink:title="CellSocietyView.makeCAGame">
<polygon fill="white" stroke="black" points="970.5,-1.5 970.5,-20.5 1133.5,-20.5 1133.5,-1.5 970.5,-1.5"/>
<text text-anchor="middle" x="1052" y="-8.5" font-family="Helvetica,sans-Serif" font-size="10.00">CellSocietyView.makeCAGame</text>
</a>
</g>
</g>
<!-- Node5&#45;&gt;Node6 -->
<g id="edge5" class="edge"><title>Node5&#45;&gt;Node6</title>
<path fill="none" stroke="midnightblue" d="M914.261,-37.5106C942.227,-32.0886 975.209,-25.6942 1001.77,-20.5439"/>
<polygon fill="midnightblue" stroke="midnightblue" points="913.357,-34.1206 904.206,-39.46 914.689,-40.9927 913.357,-34.1206"/>
</g>
<!-- Node7 -->
<g id="node7" class="node"><title>Node7</title>
<g id="a_node7"><a xlink:href="../../df/df8/class_cell_society_view.html#a2c047a3972078bb0a5490ed225ef2dfa" target="_top" xlink:title="CellSocietyView.loadNewFile">
<polygon fill="white" stroke="black" points="1170.5,-1.5 1170.5,-20.5 1319.5,-20.5 1319.5,-1.5 1170.5,-1.5"/>
<text text-anchor="middle" x="1245" y="-8.5" font-family="Helvetica,sans-Serif" font-size="10.00">CellSocietyView.loadNewFile</text>
</a>
</g>
</g>
<!-- Node6&#45;&gt;Node7 -->
<g id="edge6" class="edge"><title>Node6&#45;&gt;Node7</title>
<path fill="none" stroke="midnightblue" d="M1144.01,-11C1152.8,-11 1161.64,-11 1170.24,-11"/>
<polygon fill="midnightblue" stroke="midnightblue" points="1143.72,-7.5001 1133.72,-11 1143.72,-14.5001 1143.72,-7.5001"/>
</g>
<!-- Node8 -->
<g id="node8" class="node"><title>Node8</title>
<g id="a_node8"><a xlink:href="../../df/df8/class_cell_society_view.html#a656cfed0ba32bc41bbd0c4087860db4b" target="_top" xlink:title="CellSocietyView.makeLoad\lButton">
<polygon fill="white" stroke="black" points="1356.5,-15 1356.5,-45 1499.5,-45 1499.5,-15 1356.5,-15"/>
<text text-anchor="start" x="1364.5" y="-33" font-family="Helvetica,sans-Serif" font-size="10.00">CellSocietyView.makeLoad</text>
<text text-anchor="middle" x="1428" y="-22" font-family="Helvetica,sans-Serif" font-size="10.00">Button</text>
</a>
</g>
</g>
<!-- Node7&#45;&gt;Node8 -->
<g id="edge7" class="edge"><title>Node7&#45;&gt;Node8</title>
<path fill="none" stroke="midnightblue" d="M1329.65,-19.781C1338.59,-20.7189 1347.61,-21.6662 1356.37,-22.5861"/>
<polygon fill="midnightblue" stroke="midnightblue" points="1329.93,-16.2912 1319.62,-18.728 1329.2,-23.253 1329.93,-16.2912"/>
</g>
<!-- Node8&#45;&gt;Node5 -->
<g id="edge9" class="edge"><title>Node8&#45;&gt;Node5</title>
<path fill="none" stroke="midnightblue" d="M1346.23,-32.6828C1236.44,-36.3296 1041.39,-42.8086 933.036,-46.4079"/>
<polygon fill="midnightblue" stroke="midnightblue" points="1346.38,-36.1798 1356.26,-32.3497 1346.15,-29.1837 1346.38,-36.1798"/>
</g>
<!-- Node9 -->
<g id="node9" class="node"><title>Node9</title>
<g id="a_node9"><a xlink:href="../../df/df8/class_cell_society_view.html#a53ab66afdeb23b3fc89e54a44be7ced5" target="_top" xlink:title="CellSocietyView.CellSocietyView">
<polygon fill="white" stroke="black" points="1536.5,-20.5 1536.5,-39.5 1703.5,-39.5 1703.5,-20.5 1536.5,-20.5"/>
<text text-anchor="middle" x="1620" y="-27.5" font-family="Helvetica,sans-Serif" font-size="10.00">CellSocietyView.CellSocietyView</text>
</a>
</g>
</g>
<!-- Node8&#45;&gt;Node9 -->
<g id="edge8" class="edge"><title>Node8&#45;&gt;Node9</title>
<path fill="none" stroke="midnightblue" d="M1509.92,-30C1518.66,-30 1527.57,-30 1536.33,-30"/>
<polygon fill="midnightblue" stroke="midnightblue" points="1509.75,-26.5001 1499.75,-30 1509.75,-33.5001 1509.75,-26.5001"/>
</g>
<!-- Node10&#45;&gt;Node6 -->
<g id="edge11" class="edge"><title>Node10&#45;&gt;Node6</title>
<path fill="none" stroke="midnightblue" d="M944.271,-10.4555C952.937,-10.4997 961.696,-10.5444 970.272,-10.5881"/>
<polygon fill="midnightblue" stroke="midnightblue" points="944.174,-6.95502 934.156,-10.4039 944.138,-13.9549 944.174,-6.95502"/>
</g>
</g>
</svg>
