<?xml version="1.0" encoding="UTF-8" standalone="no"?>
<!DOCTYPE svg PUBLIC "-//W3C//DTD SVG 1.1//EN"
 "http://www.w3.org/Graphics/SVG/1.1/DTD/svg11.dtd">
<!-- Generated by graphviz version 2.36.0 (20140111.2315)
 -->
<!-- Title: CellularAutomata.getMyStates Pages: 1 -->
<svg width="674pt" height="104pt"
 viewBox="0.00 0.00 674.00 104.00" xmlns="http://www.w3.org/2000/svg" xmlns:xlink="http://www.w3.org/1999/xlink">
<g id="graph0" class="graph" transform="scale(1 1) rotate(0) translate(4 100)">
<title>CellularAutomata.getMyStates</title>
<polygon fill="white" stroke="none" points="-4,4 -4,-100 670,-100 670,4 -4,4"/>
<!-- Node1 -->
<g id="node1" class="node"><title>Node1</title>
<polygon fill="#bfbfbf" stroke="black" points="0,-38.5 0,-57.5 164,-57.5 164,-38.5 0,-38.5"/>
<text text-anchor="middle" x="82" y="-45.5" font-family="Helvetica,sans-Serif" font-size="10.00">CellularAutomata.getMyStates</text>
</g>
<!-- Node2 -->
<g id="node2" class="node"><title>Node2</title>
<g id="a_node2"><a xlink:href="../../d8/d84/class_game_of_life.html#a8085307c182bb4d9149f98dfc8f26979" target="_top" xlink:title="GameOfLife.applyRules">
<polygon fill="white" stroke="black" points="209,-76.5 209,-95.5 335,-95.5 335,-76.5 209,-76.5"/>
<text text-anchor="middle" x="272" y="-83.5" font-family="Helvetica,sans-Serif" font-size="10.00">GameOfLife.applyRules</text>
</a>
</g>
</g>
<!-- Node1&#45;&gt;Node2 -->
<g id="edge1" class="edge"><title>Node1&#45;&gt;Node2</title>
<path fill="none" stroke="midnightblue" d="M140.437,-59.6095C167.174,-65.014 198.588,-71.3635 223.901,-76.4799"/>
<polygon fill="midnightblue" stroke="midnightblue" points="140.936,-56.1397 130.44,-57.589 139.549,-63.0009 140.936,-56.1397"/>
</g>
<!-- Node3 -->
<g id="node3" class="node"><title>Node3</title>
<g id="a_node3"><a xlink:href="../../d9/df1/class_fire.html#aa8c0ca014747cf0c47e1e19e354a2675" target="_top" xlink:title="Fire.handleUpdate">
<polygon fill="white" stroke="black" points="220,-38.5 220,-57.5 324,-57.5 324,-38.5 220,-38.5"/>
<text text-anchor="middle" x="272" y="-45.5" font-family="Helvetica,sans-Serif" font-size="10.00">Fire.handleUpdate</text>
</a>
</g>
</g>
<!-- Node1&#45;&gt;Node3 -->
<g id="edge2" class="edge"><title>Node1&#45;&gt;Node3</title>
<path fill="none" stroke="midnightblue" d="M174.322,-48C189.937,-48 205.651,-48 219.738,-48"/>
<polygon fill="midnightblue" stroke="midnightblue" points="174.093,-44.5001 164.093,-48 174.093,-51.5001 174.093,-44.5001"/>
</g>
<!-- Node6 -->
<g id="node6" class="node"><title>Node6</title>
<g id="a_node6"><a xlink:href="../../d8/d84/class_game_of_life.html#a42e957d8b9180f09f288a47bc4fd4dad" target="_top" xlink:title="GameOfLife.handleUpdate">
<polygon fill="white" stroke="black" points="200.5,-0.5 200.5,-19.5 343.5,-19.5 343.5,-0.5 200.5,-0.5"/>
<text text-anchor="middle" x="272" y="-7.5" font-family="Helvetica,sans-Serif" font-size="10.00">GameOfLife.handleUpdate</text>
</a>
</g>
</g>
<!-- Node1&#45;&gt;Node6 -->
<g id="edge5" class="edge"><title>Node1&#45;&gt;Node6</title>
<path fill="none" stroke="midnightblue" d="M140.437,-36.3905C167.174,-30.986 198.588,-24.6365 223.901,-19.5201"/>
<polygon fill="midnightblue" stroke="midnightblue" points="139.549,-32.9991 130.44,-38.411 140.936,-39.8603 139.549,-32.9991"/>
</g>
<!-- Node4 -->
<g id="node4" class="node"><title>Node4</title>
<g id="a_node4"><a xlink:href="../../d9/df1/class_fire.html#afd16418c5ea360c815613862a4ea1c33" target="_top" xlink:title="Fire.setUpInitialConfig">
<polygon fill="white" stroke="black" points="400.5,-38.5 400.5,-57.5 519.5,-57.5 519.5,-38.5 400.5,-38.5"/>
<text text-anchor="middle" x="460" y="-45.5" font-family="Helvetica,sans-Serif" font-size="10.00">Fire.setUpInitialConfig</text>
</a>
</g>
</g>
<!-- Node3&#45;&gt;Node4 -->
<g id="edge3" class="edge"><title>Node3&#45;&gt;Node4</title>
<path fill="none" stroke="midnightblue" d="M334.496,-48C355.682,-48 379.34,-48 400.297,-48"/>
<polygon fill="midnightblue" stroke="midnightblue" points="334.318,-44.5001 324.318,-48 334.318,-51.5001 334.318,-44.5001"/>
</g>
<!-- Node5 -->
<g id="node5" class="node"><title>Node5</title>
<g id="a_node5"><a xlink:href="../../d9/df1/class_fire.html#a22e1b892843e691d4e6e3fcf8e6a893a" target="_top" xlink:title="Fire.init">
<polygon fill="white" stroke="black" points="596,-38.5 596,-57.5 646,-57.5 646,-38.5 596,-38.5"/>
<text text-anchor="middle" x="621" y="-45.5" font-family="Helvetica,sans-Serif" font-size="10.00">Fire.init</text>
</a>
</g>
</g>
<!-- Node4&#45;&gt;Node5 -->
<g id="edge4" class="edge"><title>Node4&#45;&gt;Node5</title>
<path fill="none" stroke="midnightblue" d="M529.768,-48C553.377,-48 578.271,-48 595.917,-48"/>
<polygon fill="midnightblue" stroke="midnightblue" points="529.754,-44.5001 519.754,-48 529.754,-51.5001 529.754,-44.5001"/>
</g>
<!-- Node7 -->
<g id="node7" class="node"><title>Node7</title>
<g id="a_node7"><a xlink:href="../../d8/d84/class_game_of_life.html#a1bd82fd7debd0ccbba848dc16024c024" target="_top" xlink:title="GameOfLife.setUpInitialConfig">
<polygon fill="white" stroke="black" points="380.5,-0.5 380.5,-19.5 539.5,-19.5 539.5,-0.5 380.5,-0.5"/>
<text text-anchor="middle" x="460" y="-7.5" font-family="Helvetica,sans-Serif" font-size="10.00">GameOfLife.setUpInitialConfig</text>
</a>
</g>
</g>
<!-- Node6&#45;&gt;Node7 -->
<g id="edge6" class="edge"><title>Node6&#45;&gt;Node7</title>
<path fill="none" stroke="midnightblue" d="M353.836,-10C362.644,-10 371.599,-10 380.38,-10"/>
<polygon fill="midnightblue" stroke="midnightblue" points="353.584,-6.5001 343.584,-10 353.584,-13.5001 353.584,-6.5001"/>
</g>
<!-- Node8 -->
<g id="node8" class="node"><title>Node8</title>
<g id="a_node8"><a xlink:href="../../d8/d84/class_game_of_life.html#a9ffd6f1b93454f54600e1db30540c21d" target="_top" xlink:title="GameOfLife.init">
<polygon fill="white" stroke="black" points="576,-0.5 576,-19.5 666,-19.5 666,-0.5 576,-0.5"/>
<text text-anchor="middle" x="621" y="-7.5" font-family="Helvetica,sans-Serif" font-size="10.00">GameOfLife.init</text>
</a>
</g>
</g>
<!-- Node7&#45;&gt;Node8 -->
<g id="edge7" class="edge"><title>Node7&#45;&gt;Node8</title>
<path fill="none" stroke="midnightblue" d="M549.819,-10C558.859,-10 567.736,-10 575.974,-10"/>
<polygon fill="midnightblue" stroke="midnightblue" points="549.568,-6.5001 539.568,-10 549.568,-13.5001 549.568,-6.5001"/>
</g>
</g>
</svg>
