<?xml version="1.0" encoding="UTF-8" standalone="no"?>
<!DOCTYPE svg PUBLIC "-//W3C//DTD SVG 1.1//EN"
 "http://www.w3.org/Graphics/SVG/1.1/DTD/svg11.dtd">
<!-- Generated by graphviz version 2.36.0 (20140111.2315)
 -->
<!-- Title: CellularAutomata.setUpInitialConfig Pages: 1 -->
<svg width="1260pt" height="74pt"
 viewBox="0.00 0.00 1260.00 74.00" xmlns="http://www.w3.org/2000/svg" xmlns:xlink="http://www.w3.org/1999/xlink">
<g id="graph0" class="graph" transform="scale(1 1) rotate(0) translate(4 70)">
<title>CellularAutomata.setUpInitialConfig</title>
<polygon fill="white" stroke="none" points="-4,4 -4,-70 1256,-70 1256,4 -4,4"/>
<!-- Node1 -->
<g id="node1" class="node"><title>Node1</title>
<polygon fill="#bfbfbf" stroke="black" points="0,-12 0,-42 156,-42 156,-12 0,-12"/>
<text text-anchor="start" x="8" y="-30" font-family="Helvetica,sans-Serif" font-size="10.00">CellularAutomata.setUpInitial</text>
<text text-anchor="middle" x="78" y="-19" font-family="Helvetica,sans-Serif" font-size="10.00">Config</text>
</g>
<!-- Node2 -->
<g id="node2" class="node"><title>Node2</title>
<g id="a_node2"><a xlink:href="../../d2/d40/class_cellular_automata.html#a347bfd2a64ee2d615902f6922e95fa6f" target="_top" xlink:title="CellularAutomata.init">
<polygon fill="white" stroke="black" points="192.5,-17.5 192.5,-36.5 309.5,-36.5 309.5,-17.5 192.5,-17.5"/>
<text text-anchor="middle" x="251" y="-24.5" font-family="Helvetica,sans-Serif" font-size="10.00">CellularAutomata.init</text>
</a>
</g>
</g>
<!-- Node1&#45;&gt;Node2 -->
<g id="edge1" class="edge"><title>Node1&#45;&gt;Node2</title>
<path fill="none" stroke="midnightblue" d="M166.739,-27C175.472,-27 184.174,-27 192.48,-27"/>
<polygon fill="midnightblue" stroke="midnightblue" points="166.495,-23.5001 156.495,-27 166.495,-30.5001 166.495,-23.5001"/>
</g>
<!-- Node3 -->
<g id="node3" class="node"><title>Node3</title>
<g id="a_node3"><a xlink:href="../../df/df8/class_cell_society_view.html#a767ab215ca329ba41b1493702141f841" target="_top" xlink:title="CellSocietyView.makeCAGame">
<polygon fill="white" stroke="black" points="346.5,-17.5 346.5,-36.5 509.5,-36.5 509.5,-17.5 346.5,-17.5"/>
<text text-anchor="middle" x="428" y="-24.5" font-family="Helvetica,sans-Serif" font-size="10.00">CellSocietyView.makeCAGame</text>
</a>
</g>
</g>
<!-- Node2&#45;&gt;Node3 -->
<g id="edge2" class="edge"><title>Node2&#45;&gt;Node3</title>
<path fill="none" stroke="midnightblue" d="M319.869,-27C328.584,-27 337.573,-27 346.465,-27"/>
<polygon fill="midnightblue" stroke="midnightblue" points="319.787,-23.5001 309.787,-27 319.787,-30.5001 319.787,-23.5001"/>
</g>
<!-- Node4 -->
<g id="node4" class="node"><title>Node4</title>
<g id="a_node4"><a xlink:href="../../df/df8/class_cell_society_view.html#a2ee793e471cc5731ce39c1450f058dd5" target="_top" xlink:title="CellSocietyView.parseFile">
<polygon fill="white" stroke="black" points="546.5,-38.5 546.5,-57.5 681.5,-57.5 681.5,-38.5 546.5,-38.5"/>
<text text-anchor="middle" x="614" y="-45.5" font-family="Helvetica,sans-Serif" font-size="10.00">CellSocietyView.parseFile</text>
</a>
</g>
</g>
<!-- Node3&#45;&gt;Node4 -->
<g id="edge3" class="edge"><title>Node3&#45;&gt;Node4</title>
<path fill="none" stroke="midnightblue" d="M519.807,-37.3639C528.777,-38.3876 537.762,-39.413 546.42,-40.4012"/>
<polygon fill="midnightblue" stroke="midnightblue" points="520.037,-33.8675 509.705,-36.2109 519.244,-40.8224 520.037,-33.8675"/>
</g>
<!-- Node5 -->
<g id="node5" class="node"><title>Node5</title>
<g id="a_node5"><a xlink:href="../../df/df8/class_cell_society_view.html#a2c047a3972078bb0a5490ed225ef2dfa" target="_top" xlink:title="CellSocietyView.loadNewFile">
<polygon fill="white" stroke="black" points="718.5,-39.5 718.5,-58.5 867.5,-58.5 867.5,-39.5 718.5,-39.5"/>
<text text-anchor="middle" x="793" y="-46.5" font-family="Helvetica,sans-Serif" font-size="10.00">CellSocietyView.loadNewFile</text>
</a>
</g>
</g>
<!-- Node4&#45;&gt;Node5 -->
<g id="edge4" class="edge"><title>Node4&#45;&gt;Node5</title>
<path fill="none" stroke="midnightblue" d="M691.865,-48.4343C700.633,-48.4838 709.557,-48.5342 718.283,-48.5835"/>
<polygon fill="midnightblue" stroke="midnightblue" points="691.684,-44.9333 681.664,-48.3766 691.644,-51.9332 691.684,-44.9333"/>
</g>
<!-- Node6 -->
<g id="node6" class="node"><title>Node6</title>
<g id="a_node6"><a xlink:href="../../df/df8/class_cell_society_view.html#a656cfed0ba32bc41bbd0c4087860db4b" target="_top" xlink:title="CellSocietyView.makeLoad\lButton">
<polygon fill="white" stroke="black" points="904.5,-36 904.5,-66 1047.5,-66 1047.5,-36 904.5,-36"/>
<text text-anchor="start" x="912.5" y="-54" font-family="Helvetica,sans-Serif" font-size="10.00">CellSocietyView.makeLoad</text>
<text text-anchor="middle" x="976" y="-43" font-family="Helvetica,sans-Serif" font-size="10.00">Button</text>
</a>
</g>
</g>
<!-- Node5&#45;&gt;Node6 -->
<g id="edge5" class="edge"><title>Node5&#45;&gt;Node6</title>
<path fill="none" stroke="midnightblue" d="M877.651,-49.9243C886.585,-50.023 895.61,-50.1228 904.373,-50.2196"/>
<polygon fill="midnightblue" stroke="midnightblue" points="877.658,-46.4243 867.62,-49.8135 877.58,-53.4239 877.658,-46.4243"/>
</g>
<!-- Node7 -->
<g id="node7" class="node"><title>Node7</title>
<g id="a_node7"><a xlink:href="../../df/df8/class_cell_society_view.html#a53ab66afdeb23b3fc89e54a44be7ced5" target="_top" xlink:title="CellSocietyView.CellSocietyView">
<polygon fill="white" stroke="black" points="1084.5,-41.5 1084.5,-60.5 1251.5,-60.5 1251.5,-41.5 1084.5,-41.5"/>
<text text-anchor="middle" x="1168" y="-48.5" font-family="Helvetica,sans-Serif" font-size="10.00">CellSocietyView.CellSocietyView</text>
</a>
</g>
</g>
<!-- Node6&#45;&gt;Node7 -->
<g id="edge6" class="edge"><title>Node6&#45;&gt;Node7</title>
<path fill="none" stroke="midnightblue" d="M1057.92,-51C1066.66,-51 1075.57,-51 1084.33,-51"/>
<polygon fill="midnightblue" stroke="midnightblue" points="1057.75,-47.5001 1047.75,-51 1057.75,-54.5001 1057.75,-47.5001"/>
</g>
<!-- Node8 -->
<g id="node8" class="node"><title>Node8</title>
<g id="a_node8"><a xlink:href="../../df/df8/class_cell_society_view.html#a7bdbd4e8fd3893e672eb22015603f6dc" target="_top" xlink:title="CellSocietyView.makeButtons">
<polygon fill="white" stroke="black" points="1089,-0.5 1089,-19.5 1247,-19.5 1247,-0.5 1089,-0.5"/>
<text text-anchor="middle" x="1168" y="-7.5" font-family="Helvetica,sans-Serif" font-size="10.00">CellSocietyView.makeButtons</text>
</a>
</g>
</g>
<!-- Node6&#45;&gt;Node8 -->
<g id="edge7" class="edge"><title>Node6&#45;&gt;Node8</title>
<path fill="none" stroke="midnightblue" d="M1056.61,-33.8204C1079.22,-28.941 1103.03,-23.8039 1122.72,-19.5545"/>
<polygon fill="midnightblue" stroke="midnightblue" points="1055.71,-30.4353 1046.67,-35.9659 1057.18,-37.2778 1055.71,-30.4353"/>
</g>
<!-- Node8&#45;&gt;Node3 -->
<g id="edge8" class="edge"><title>Node8&#45;&gt;Node3</title>
<path fill="none" stroke="midnightblue" d="M1078.59,-12.0365C934.015,-15.3669 649.169,-21.9284 509.737,-25.1402"/>
<polygon fill="midnightblue" stroke="midnightblue" points="1078.84,-15.5319 1088.75,-11.8024 1078.68,-8.53371 1078.84,-15.5319"/>
</g>
</g>
</svg>
