<?xml version="1.0" encoding="UTF-8" standalone="no"?>
<!DOCTYPE svg PUBLIC "-//W3C//DTD SVG 1.1//EN"
 "http://www.w3.org/Graphics/SVG/1.1/DTD/svg11.dtd">
<!-- Generated by graphviz version 2.36.0 (20140111.2315)
 -->
<!-- Title: CellularAutomata.getRandomDouble Pages: 1 -->
<svg width="362pt" height="230pt"
 viewBox="0.00 0.00 362.00 230.00" xmlns="http://www.w3.org/2000/svg" xmlns:xlink="http://www.w3.org/1999/xlink">
<g id="graph0" class="graph" transform="scale(1 1) rotate(0) translate(4 226)">
<title>CellularAutomata.getRandomDouble</title>
<polygon fill="white" stroke="none" points="-4,4 -4,-226 358,-226 358,4 -4,4"/>
<!-- Node1 -->
<g id="node1" class="node"><title>Node1</title>
<polygon fill="#bfbfbf" stroke="black" points="0,-102 0,-132 158,-132 158,-102 0,-102"/>
<text text-anchor="start" x="8" y="-120" font-family="Helvetica,sans-Serif" font-size="10.00">CellularAutomata.getRandom</text>
<text text-anchor="middle" x="79" y="-109" font-family="Helvetica,sans-Serif" font-size="10.00">Double</text>
</g>
<!-- Node2 -->
<g id="node2" class="node"><title>Node2</title>
<g id="a_node2"><a xlink:href="../../d9/df1/class_fire.html#a9848867ebe2faddb27dfd0994cb565a8" target="_top" xlink:title="Fire.checkRules">
<polygon fill="white" stroke="black" points="229.5,-202.5 229.5,-221.5 318.5,-221.5 318.5,-202.5 229.5,-202.5"/>
<text text-anchor="middle" x="274" y="-209.5" font-family="Helvetica,sans-Serif" font-size="10.00">Fire.checkRules</text>
</a>
</g>
</g>
<!-- Node1&#45;&gt;Node2 -->
<g id="edge1" class="edge"><title>Node1&#45;&gt;Node2</title>
<path fill="none" stroke="midnightblue" d="M106.092,-138.305C128.247,-155.4 161.531,-178.81 194,-193 205.116,-197.858 217.679,-201.596 229.462,-204.419"/>
<polygon fill="midnightblue" stroke="midnightblue" points="108.2,-135.51 98.1704,-132.094 103.881,-141.019 108.2,-135.51"/>
</g>
<!-- Node3 -->
<g id="node3" class="node"><title>Node3</title>
<g id="a_node3"><a xlink:href="../../d9/df1/class_fire.html#accc21ae2162fd526d8ca66c472a62a28" target="_top" xlink:title="Fire.ruleTwo">
<polygon fill="white" stroke="black" points="238.5,-164.5 238.5,-183.5 309.5,-183.5 309.5,-164.5 238.5,-164.5"/>
<text text-anchor="middle" x="274" y="-171.5" font-family="Helvetica,sans-Serif" font-size="10.00">Fire.ruleTwo</text>
</a>
</g>
</g>
<!-- Node1&#45;&gt;Node3 -->
<g id="edge2" class="edge"><title>Node1&#45;&gt;Node3</title>
<path fill="none" stroke="midnightblue" d="M131.789,-135.306C151.19,-141.887 173.497,-149.129 194,-155 208.375,-159.116 224.39,-163.081 238.222,-166.315"/>
<polygon fill="midnightblue" stroke="midnightblue" points="132.822,-131.96 122.227,-132.036 130.557,-138.584 132.822,-131.96"/>
</g>
<!-- Node4 -->
<g id="node4" class="node"><title>Node4</title>
<g id="a_node4"><a xlink:href="../../d8/d84/class_game_of_life.html#aab00ca120baa15de020654ba9fe5d6d4" target="_top" xlink:title="GameOfLife.setUpInitialConfig">
<polygon fill="white" stroke="black" points="194.5,-126.5 194.5,-145.5 353.5,-145.5 353.5,-126.5 194.5,-126.5"/>
<text text-anchor="middle" x="274" y="-133.5" font-family="Helvetica,sans-Serif" font-size="10.00">GameOfLife.setUpInitialConfig</text>
</a>
</g>
</g>
<!-- Node1&#45;&gt;Node4 -->
<g id="edge3" class="edge"><title>Node1&#45;&gt;Node4</title>
<path fill="none" stroke="midnightblue" d="M168.347,-125.697C177.022,-126.551 185.785,-127.414 194.353,-128.258"/>
<polygon fill="midnightblue" stroke="midnightblue" points="168.517,-122.197 158.222,-124.701 167.831,-129.164 168.517,-122.197"/>
</g>
<!-- Node5 -->
<g id="node5" class="node"><title>Node5</title>
<g id="a_node5"><a xlink:href="../../d9/df1/class_fire.html#afd16418c5ea360c815613862a4ea1c33" target="_top" xlink:title="Fire.setUpInitialConfig">
<polygon fill="white" stroke="black" points="214.5,-88.5 214.5,-107.5 333.5,-107.5 333.5,-88.5 214.5,-88.5"/>
<text text-anchor="middle" x="274" y="-95.5" font-family="Helvetica,sans-Serif" font-size="10.00">Fire.setUpInitialConfig</text>
</a>
</g>
</g>
<!-- Node1&#45;&gt;Node5 -->
<g id="edge4" class="edge"><title>Node1&#45;&gt;Node5</title>
<path fill="none" stroke="midnightblue" d="M168.38,-108.299C183.925,-106.769 199.753,-105.211 214.235,-103.785"/>
<polygon fill="midnightblue" stroke="midnightblue" points="167.831,-104.836 158.222,-109.299 168.517,-111.803 167.831,-104.836"/>
</g>
<!-- Node6 -->
<g id="node6" class="node"><title>Node6</title>
<g id="a_node6"><a xlink:href="../../da/d1e/class_segregation.html#aa98703181490b07669037a419e52041c" target="_top" xlink:title="Segregation.setUpInitial\lConfig">
<polygon fill="white" stroke="black" points="208.5,-39 208.5,-69 339.5,-69 339.5,-39 208.5,-39"/>
<text text-anchor="start" x="216.5" y="-57" font-family="Helvetica,sans-Serif" font-size="10.00">Segregation.setUpInitial</text>
<text text-anchor="middle" x="274" y="-46" font-family="Helvetica,sans-Serif" font-size="10.00">Config</text>
</a>
</g>
</g>
<!-- Node1&#45;&gt;Node6 -->
<g id="edge5" class="edge"><title>Node1&#45;&gt;Node6</title>
<path fill="none" stroke="midnightblue" d="M134.247,-98.73C153.138,-92.4175 174.485,-85.34 194,-79 203.988,-75.7553 214.703,-72.3282 224.919,-69.0866"/>
<polygon fill="midnightblue" stroke="midnightblue" points="132.987,-95.4607 124.615,-101.953 135.208,-102.099 132.987,-95.4607"/>
</g>
<!-- Node7 -->
<g id="node7" class="node"><title>Node7</title>
<g id="a_node7"><a xlink:href="../../d0/db0/class_wator.html#a4ea39aef9488c7e03af93e711fe2e61e" target="_top" xlink:title="Wator.setUpInitialConfig">
<polygon fill="white" stroke="black" points="209.5,-0.5 209.5,-19.5 338.5,-19.5 338.5,-0.5 209.5,-0.5"/>
<text text-anchor="middle" x="274" y="-7.5" font-family="Helvetica,sans-Serif" font-size="10.00">Wator.setUpInitialConfig</text>
</a>
</g>
</g>
<!-- Node1&#45;&gt;Node7 -->
<g id="edge6" class="edge"><title>Node1&#45;&gt;Node7</title>
<path fill="none" stroke="midnightblue" d="M103.019,-94.8843C124.803,-75.1243 159.257,-46.7788 194,-30 202.918,-25.6931 212.866,-22.2461 222.613,-19.5109"/>
<polygon fill="midnightblue" stroke="midnightblue" points="100.566,-92.3852 95.5892,-101.738 105.312,-97.5302 100.566,-92.3852"/>
</g>
</g>
</svg>
