<?xml version="1.0" encoding="UTF-8" standalone="no"?>
<!DOCTYPE svg PUBLIC "-//W3C//DTD SVG 1.1//EN"
 "http://www.w3.org/Graphics/SVG/1.1/DTD/svg11.dtd">
<!-- Generated by graphviz version 2.36.0 (20140111.2315)
 -->
<!-- Title: CellularAutomata.getGrid Pages: 1 -->
<svg width="1154pt" height="537pt"
 viewBox="0.00 0.00 1154.00 537.39" xmlns="http://www.w3.org/2000/svg" xmlns:xlink="http://www.w3.org/1999/xlink">
<g id="graph0" class="graph" transform="scale(1 1) rotate(0) translate(4 533.392)">
<title>CellularAutomata.getGrid</title>
<polygon fill="white" stroke="none" points="-4,4 -4,-533.392 1150,-533.392 1150,4 -4,4"/>
<!-- Node1 -->
<g id="node1" class="node"><title>Node1</title>
<polygon fill="#bfbfbf" stroke="black" points="0,-259.5 0,-278.5 138,-278.5 138,-259.5 0,-259.5"/>
<text text-anchor="middle" x="69" y="-266.5" font-family="Helvetica,sans-Serif" font-size="10.00">CellularAutomata.getGrid</text>
</g>
<!-- Node2 -->
<g id="node2" class="node"><title>Node2</title>
<g id="a_node2"><a xlink:href="../../df/df8/class_cell_society_view.html#abe7bcd77ca077f5e5e0f9946eea96406" target="_top" xlink:title="CellSocietyView.CellSocietyView">
<polygon fill="white" stroke="black" points="978.5,-354.5 978.5,-373.5 1145.5,-373.5 1145.5,-354.5 978.5,-354.5"/>
<text text-anchor="middle" x="1062" y="-361.5" font-family="Helvetica,sans-Serif" font-size="10.00">CellSocietyView.CellSocietyView</text>
</a>
</g>
</g>
<!-- Node1&#45;&gt;Node2 -->
<g id="edge1" class="edge"><title>Node1&#45;&gt;Node2</title>
<path fill="none" stroke="midnightblue" d="M73.0253,-288.854C80.8396,-332.596 106.062,-437.174 174,-485 281.8,-560.888 337.167,-516 469,-516 469,-516 469,-516 672,-516 829.341,-516 999.445,-406.785 1047.62,-373.508"/>
<polygon fill="midnightblue" stroke="midnightblue" points="76.4612,-288.18 71.3637,-278.892 69.5566,-289.332 76.4612,-288.18"/>
</g>
<!-- Node3 -->
<g id="node3" class="node"><title>Node3</title>
<g id="a_node3"><a xlink:href="../../d9/df1/class_fire.html#a65c7d316a113807e7bdf626a789e2bf5" target="_top" xlink:title="Fire.checkNextToFire">
<polygon fill="white" stroke="black" points="202.5,-430.5 202.5,-449.5 315.5,-449.5 315.5,-430.5 202.5,-430.5"/>
<text text-anchor="middle" x="259" y="-437.5" font-family="Helvetica,sans-Serif" font-size="10.00">Fire.checkNextToFire</text>
</a>
</g>
</g>
<!-- Node1&#45;&gt;Node3 -->
<g id="edge2" class="edge"><title>Node1&#45;&gt;Node3</title>
<path fill="none" stroke="midnightblue" d="M77.4592,-288.02C91.2886,-320.668 124.116,-387.121 174,-421 182.411,-426.712 192.28,-430.73 202.24,-433.551"/>
<polygon fill="midnightblue" stroke="midnightblue" points="80.6679,-286.62 73.6391,-278.692 74.19,-289.273 80.6679,-286.62"/>
</g>
<!-- Node5 -->
<g id="node5" class="node"><title>Node5</title>
<g id="a_node5"><a xlink:href="../../d9/df1/class_fire.html#a28764fd7310f7be3a246f5eaefd8887c" target="_top" xlink:title="Fire.checkRules">
<polygon fill="white" stroke="black" points="626.5,-449.5 626.5,-468.5 715.5,-468.5 715.5,-449.5 626.5,-449.5"/>
<text text-anchor="middle" x="671" y="-456.5" font-family="Helvetica,sans-Serif" font-size="10.00">Fire.checkRules</text>
</a>
</g>
</g>
<!-- Node1&#45;&gt;Node5 -->
<g id="edge6" class="edge"><title>Node1&#45;&gt;Node5</title>
<path fill="none" stroke="midnightblue" d="M73.9376,-288.901C83.17,-329.523 110.425,-421.323 174,-459 249.561,-503.78 519.661,-477.192 626.272,-464.543"/>
<polygon fill="midnightblue" stroke="midnightblue" points="77.3102,-287.935 71.7963,-278.888 70.465,-289.398 77.3102,-287.935"/>
</g>
<!-- Node6 -->
<g id="node6" class="node"><title>Node6</title>
<g id="a_node6"><a xlink:href="../../d8/d84/class_game_of_life.html#a0100556ddb7f59c44404450b7c386190" target="_top" xlink:title="GameOfLife.checkRules">
<polygon fill="white" stroke="black" points="406,-354.5 406,-373.5 534,-373.5 534,-354.5 406,-354.5"/>
<text text-anchor="middle" x="470" y="-361.5" font-family="Helvetica,sans-Serif" font-size="10.00">GameOfLife.checkRules</text>
</a>
</g>
</g>
<!-- Node1&#45;&gt;Node6 -->
<g id="edge5" class="edge"><title>Node1&#45;&gt;Node6</title>
<path fill="none" stroke="midnightblue" d="M102.195,-282.273C122.523,-290.275 149.485,-300.2 174,-307 252.79,-328.856 345.693,-345.317 405.887,-354.796"/>
<polygon fill="midnightblue" stroke="midnightblue" points="103.373,-278.975 92.7883,-278.522 100.78,-285.477 103.373,-278.975"/>
</g>
<!-- Node7 -->
<g id="node7" class="node"><title>Node7</title>
<g id="a_node7"><a xlink:href="../../da/d1e/class_segregation.html#ae7696748513b436c2578ff68b02d889d" target="_top" xlink:title="Segregation.getSamePercent">
<polygon fill="white" stroke="black" points="179.5,-278.5 179.5,-297.5 338.5,-297.5 338.5,-278.5 179.5,-278.5"/>
<text text-anchor="middle" x="259" y="-285.5" font-family="Helvetica,sans-Serif" font-size="10.00">Segregation.getSamePercent</text>
</a>
</g>
</g>
<!-- Node1&#45;&gt;Node7 -->
<g id="edge7" class="edge"><title>Node1&#45;&gt;Node7</title>
<path fill="none" stroke="midnightblue" d="M148.27,-276.91C158.506,-277.945 168.998,-279.005 179.242,-280.04"/>
<polygon fill="midnightblue" stroke="midnightblue" points="148.439,-273.41 138.138,-275.886 147.735,-280.374 148.439,-273.41"/>
</g>
<!-- Node10 -->
<g id="node10" class="node"><title>Node10</title>
<g id="a_node10"><a xlink:href="../../d2/d40/class_cellular_automata.html#ab39b5164764f20382801aa9a4663eb4b" target="_top" xlink:title="CellularAutomata.handleUpdate">
<polygon fill="white" stroke="black" points="174,-202.5 174,-221.5 344,-221.5 344,-202.5 174,-202.5"/>
<text text-anchor="middle" x="259" y="-209.5" font-family="Helvetica,sans-Serif" font-size="10.00">CellularAutomata.handleUpdate</text>
</a>
</g>
</g>
<!-- Node1&#45;&gt;Node10 -->
<g id="edge10" class="edge"><title>Node1&#45;&gt;Node10</title>
<path fill="none" stroke="midnightblue" d="M109.243,-256.252C128.683,-250.013 152.532,-242.471 174,-236 190.264,-231.097 208.375,-225.891 223.604,-221.585"/>
<polygon fill="midnightblue" stroke="midnightblue" points="107.963,-252.988 99.516,-259.384 110.107,-259.651 107.963,-252.988"/>
</g>
<!-- Node16 -->
<g id="node16" class="node"><title>Node16</title>
<g id="a_node16"><a xlink:href="../../d9/df1/class_fire.html#afd16418c5ea360c815613862a4ea1c33" target="_top" xlink:title="Fire.setUpInitialConfig">
<polygon fill="white" stroke="black" points="410.5,-240.5 410.5,-259.5 529.5,-259.5 529.5,-240.5 410.5,-240.5"/>
<text text-anchor="middle" x="470" y="-247.5" font-family="Helvetica,sans-Serif" font-size="10.00">Fire.setUpInitialConfig</text>
</a>
</g>
</g>
<!-- Node1&#45;&gt;Node16 -->
<g id="edge30" class="edge"><title>Node1&#45;&gt;Node16</title>
<path fill="none" stroke="midnightblue" d="M148.257,-265.273C225.184,-261.61 340.856,-256.102 410.24,-252.798"/>
<polygon fill="midnightblue" stroke="midnightblue" points="147.959,-261.784 138.137,-265.755 148.292,-268.776 147.959,-261.784"/>
</g>
<!-- Node18 -->
<g id="node18" class="node"><title>Node18</title>
<g id="a_node18"><a xlink:href="../../d8/d84/class_game_of_life.html#aab00ca120baa15de020654ba9fe5d6d4" target="_top" xlink:title="GameOfLife.setUpInitialConfig">
<polygon fill="white" stroke="black" points="390.5,-164.5 390.5,-183.5 549.5,-183.5 549.5,-164.5 390.5,-164.5"/>
<text text-anchor="middle" x="470" y="-171.5" font-family="Helvetica,sans-Serif" font-size="10.00">GameOfLife.setUpInitialConfig</text>
</a>
</g>
</g>
<!-- Node1&#45;&gt;Node18 -->
<g id="edge29" class="edge"><title>Node1&#45;&gt;Node18</title>
<path fill="none" stroke="midnightblue" d="M86.4968,-252.197C105.631,-233.935 139.047,-205.668 174,-193 244.084,-167.6 329.606,-164.907 390.486,-167.33"/>
<polygon fill="midnightblue" stroke="midnightblue" points="83.9026,-249.839 79.208,-259.337 88.801,-254.84 83.9026,-249.839"/>
</g>
<!-- Node20 -->
<g id="node20" class="node"><title>Node20</title>
<g id="a_node20"><a xlink:href="../../d0/db0/class_wator.html#a0afccb8f97e33c1d21e51ee1a3f4922b" target="_top" xlink:title="Wator.ruleOne">
<polygon fill="white" stroke="black" points="217.5,-126.5 217.5,-145.5 300.5,-145.5 300.5,-126.5 217.5,-126.5"/>
<text text-anchor="middle" x="259" y="-133.5" font-family="Helvetica,sans-Serif" font-size="10.00">Wator.ruleOne</text>
</a>
</g>
</g>
<!-- Node1&#45;&gt;Node20 -->
<g id="edge21" class="edge"><title>Node1&#45;&gt;Node20</title>
<path fill="none" stroke="midnightblue" d="M82.4415,-250.883C100.041,-226.621 134.499,-183.871 174,-160 187.111,-152.077 202.951,-146.67 217.327,-143.027"/>
<polygon fill="midnightblue" stroke="midnightblue" points="79.4746,-249.017 76.5463,-259.199 85.1851,-253.065 79.4746,-249.017"/>
</g>
<!-- Node22 -->
<g id="node22" class="node"><title>Node22</title>
<g id="a_node22"><a xlink:href="../../d8/d84/class_game_of_life.html#aca7cd11a349cf14c940011021f91127f" target="_top" xlink:title="GameOfLife.ruleOne">
<polygon fill="white" stroke="black" points="202.5,-392.5 202.5,-411.5 315.5,-411.5 315.5,-392.5 202.5,-392.5"/>
<text text-anchor="middle" x="259" y="-399.5" font-family="Helvetica,sans-Serif" font-size="10.00">GameOfLife.ruleOne</text>
</a>
</g>
</g>
<!-- Node1&#45;&gt;Node22 -->
<g id="edge23" class="edge"><title>Node1&#45;&gt;Node22</title>
<path fill="none" stroke="midnightblue" d="M81.3117,-287.185C98.2119,-312.752 132.545,-358.886 174,-383 182.659,-388.037 192.54,-391.739 202.409,-394.459"/>
<polygon fill="midnightblue" stroke="midnightblue" points="84.2516,-285.286 75.8931,-278.776 78.3673,-289.078 84.2516,-285.286"/>
</g>
<!-- Node23 -->
<g id="node23" class="node"><title>Node23</title>
<g id="a_node23"><a xlink:href="../../d8/d84/class_game_of_life.html#a6b6c946c47342fd7e4595710d72a9217" target="_top" xlink:title="GameOfLife.ruleTwo">
<polygon fill="white" stroke="black" points="204,-354.5 204,-373.5 314,-373.5 314,-354.5 204,-354.5"/>
<text text-anchor="middle" x="259" y="-361.5" font-family="Helvetica,sans-Serif" font-size="10.00">GameOfLife.ruleTwo</text>
</a>
</g>
</g>
<!-- Node1&#45;&gt;Node23 -->
<g id="edge25" class="edge"><title>Node1&#45;&gt;Node23</title>
<path fill="none" stroke="midnightblue" d="M89.4408,-285.113C109.51,-301.039 142.277,-325.117 174,-340 186.77,-345.991 201.347,-350.796 214.734,-354.487"/>
<polygon fill="midnightblue" stroke="midnightblue" points="91.391,-282.19 81.4102,-278.635 86.9959,-287.638 91.391,-282.19"/>
</g>
<!-- Node24 -->
<g id="node24" class="node"><title>Node24</title>
<g id="a_node24"><a xlink:href="../../d0/db0/class_wator.html#aa8dba59120d9d6d7d7521f3a4ee7b454" target="_top" xlink:title="Wator.ruleTwo">
<polygon fill="white" stroke="black" points="219,-88.5 219,-107.5 299,-107.5 299,-88.5 219,-88.5"/>
<text text-anchor="middle" x="259" y="-95.5" font-family="Helvetica,sans-Serif" font-size="10.00">Wator.ruleTwo</text>
</a>
</g>
</g>
<!-- Node1&#45;&gt;Node24 -->
<g id="edge27" class="edge"><title>Node1&#45;&gt;Node24</title>
<path fill="none" stroke="midnightblue" d="M77.4592,-249.98C91.2886,-217.332 124.116,-150.879 174,-117 187.111,-108.096 203.766,-103.308 218.782,-100.754"/>
<polygon fill="midnightblue" stroke="midnightblue" points="74.19,-248.727 73.6391,-259.308 80.6679,-251.38 74.19,-248.727"/>
</g>
<!-- Node25 -->
<g id="node25" class="node"><title>Node25</title>
<g id="a_node25"><a xlink:href="../../da/d1e/class_segregation.html#a983021f5ba3fc800655cb0c9de0ba08f" target="_top" xlink:title="Segregation.setUpInitial\lConfig">
<polygon fill="white" stroke="black" points="193.5,-39 193.5,-69 324.5,-69 324.5,-39 193.5,-39"/>
<text text-anchor="start" x="201.5" y="-57" font-family="Helvetica,sans-Serif" font-size="10.00">Segregation.setUpInitial</text>
<text text-anchor="middle" x="259" y="-46" font-family="Helvetica,sans-Serif" font-size="10.00">Config</text>
</a>
</g>
</g>
<!-- Node1&#45;&gt;Node25 -->
<g id="edge31" class="edge"><title>Node1&#45;&gt;Node25</title>
<path fill="none" stroke="midnightblue" d="M75.225,-249.494C86.5475,-211.004 117.031,-125.033 174,-79 179.799,-74.3142 186.456,-70.5062 193.429,-67.4117"/>
<polygon fill="midnightblue" stroke="midnightblue" points="71.7714,-248.845 72.4251,-259.42 78.5085,-250.746 71.7714,-248.845"/>
</g>
<!-- Node27 -->
<g id="node27" class="node"><title>Node27</title>
<g id="a_node27"><a xlink:href="../../d0/db0/class_wator.html#a4ea39aef9488c7e03af93e711fe2e61e" target="_top" xlink:title="Wator.setUpInitialConfig">
<polygon fill="white" stroke="black" points="194.5,-0.5 194.5,-19.5 323.5,-19.5 323.5,-0.5 194.5,-0.5"/>
<text text-anchor="middle" x="259" y="-7.5" font-family="Helvetica,sans-Serif" font-size="10.00">Wator.setUpInitialConfig</text>
</a>
</g>
</g>
<!-- Node1&#45;&gt;Node27 -->
<g id="edge33" class="edge"><title>Node1&#45;&gt;Node27</title>
<path fill="none" stroke="midnightblue" d="M72.5149,-249.208C79.4811,-203.001 103.419,-87.5106 174,-29 179.986,-24.038 187.005,-20.3079 194.392,-17.5139"/>
<polygon fill="midnightblue" stroke="midnightblue" points="69.0104,-248.998 71.0915,-259.386 75.9429,-249.968 69.0104,-248.998"/>
</g>
<!-- Node4 -->
<g id="node4" class="node"><title>Node4</title>
<g id="a_node4"><a xlink:href="../../d9/df1/class_fire.html#accc21ae2162fd526d8ca66c472a62a28" target="_top" xlink:title="Fire.ruleTwo">
<polygon fill="white" stroke="black" points="434.5,-430.5 434.5,-449.5 505.5,-449.5 505.5,-430.5 434.5,-430.5"/>
<text text-anchor="middle" x="470" y="-437.5" font-family="Helvetica,sans-Serif" font-size="10.00">Fire.ruleTwo</text>
</a>
</g>
</g>
<!-- Node3&#45;&gt;Node4 -->
<g id="edge3" class="edge"><title>Node3&#45;&gt;Node4</title>
<path fill="none" stroke="midnightblue" d="M326.147,-440C362.073,-440 405.021,-440 434.382,-440"/>
<polygon fill="midnightblue" stroke="midnightblue" points="325.734,-436.5 315.734,-440 325.734,-443.5 325.734,-436.5"/>
</g>
<!-- Node4&#45;&gt;Node5 -->
<g id="edge4" class="edge"><title>Node4&#45;&gt;Node5</title>
<path fill="none" stroke="midnightblue" d="M515.951,-444.292C548.984,-447.446 593.629,-451.708 626.352,-454.833"/>
<polygon fill="midnightblue" stroke="midnightblue" points="515.951,-440.776 505.663,-443.31 515.285,-447.744 515.951,-440.776"/>
</g>
<!-- Node8 -->
<g id="node8" class="node"><title>Node8</title>
<g id="a_node8"><a xlink:href="../../da/d1e/class_segregation.html#a65706fcdb683f11f27836d3f4c591f3c" target="_top" xlink:title="Segregation.ruleOne">
<polygon fill="white" stroke="black" points="412,-278.5 412,-297.5 528,-297.5 528,-278.5 412,-278.5"/>
<text text-anchor="middle" x="470" y="-285.5" font-family="Helvetica,sans-Serif" font-size="10.00">Segregation.ruleOne</text>
</a>
</g>
</g>
<!-- Node7&#45;&gt;Node8 -->
<g id="edge8" class="edge"><title>Node7&#45;&gt;Node8</title>
<path fill="none" stroke="midnightblue" d="M348.779,-288C370.133,-288 392.383,-288 411.852,-288"/>
<polygon fill="midnightblue" stroke="midnightblue" points="348.716,-284.5 338.716,-288 348.716,-291.5 348.716,-284.5"/>
</g>
<!-- Node9 -->
<g id="node9" class="node"><title>Node9</title>
<g id="a_node9"><a xlink:href="../../da/d1e/class_segregation.html#a8272e13082766c6c6d45fc1e58acd6dc" target="_top" xlink:title="Segregation.checkRules">
<polygon fill="white" stroke="black" points="605.5,-278.5 605.5,-297.5 736.5,-297.5 736.5,-278.5 605.5,-278.5"/>
<text text-anchor="middle" x="671" y="-285.5" font-family="Helvetica,sans-Serif" font-size="10.00">Segregation.checkRules</text>
</a>
</g>
</g>
<!-- Node8&#45;&gt;Node9 -->
<g id="edge9" class="edge"><title>Node8&#45;&gt;Node9</title>
<path fill="none" stroke="midnightblue" d="M538.129,-288C559.798,-288 583.766,-288 605.259,-288"/>
<polygon fill="midnightblue" stroke="midnightblue" points="538.025,-284.5 528.025,-288 538.025,-291.5 538.025,-284.5"/>
</g>
<!-- Node11 -->
<g id="node11" class="node"><title>Node11</title>
<g id="a_node11"><a xlink:href="../../d2/d40/class_cellular_automata.html#a8f4c8a2f32137db67dd31f5afb4b62c3" target="_top" xlink:title="CellularAutomata.updateNextGen">
<polygon fill="white" stroke="black" points="380.5,-202.5 380.5,-221.5 559.5,-221.5 559.5,-202.5 380.5,-202.5"/>
<text text-anchor="middle" x="470" y="-209.5" font-family="Helvetica,sans-Serif" font-size="10.00">CellularAutomata.updateNextGen</text>
</a>
</g>
</g>
<!-- Node10&#45;&gt;Node11 -->
<g id="edge11" class="edge"><title>Node10&#45;&gt;Node11</title>
<path fill="none" stroke="midnightblue" d="M354.227,-212C362.899,-212 371.666,-212 380.286,-212"/>
<polygon fill="midnightblue" stroke="midnightblue" points="354.105,-208.5 344.105,-212 354.105,-215.5 354.105,-208.5"/>
</g>
<!-- Node10&#45;&gt;Node16 -->
<g id="edge17" class="edge"><title>Node10&#45;&gt;Node16</title>
<path fill="none" stroke="midnightblue" d="M322.408,-223.347C352.395,-228.799 387.934,-235.261 416.509,-240.456"/>
<polygon fill="midnightblue" stroke="midnightblue" points="322.935,-219.885 312.47,-221.54 321.682,-226.772 322.935,-219.885"/>
</g>
<!-- Node10&#45;&gt;Node18 -->
<g id="edge19" class="edge"><title>Node10&#45;&gt;Node18</title>
<path fill="none" stroke="midnightblue" d="M322.408,-200.653C352.395,-195.201 387.934,-188.739 416.509,-183.544"/>
<polygon fill="midnightblue" stroke="midnightblue" points="321.682,-197.228 312.47,-202.46 322.935,-204.115 321.682,-197.228"/>
</g>
<!-- Node12 -->
<g id="node12" class="node"><title>Node12</title>
<g id="a_node12"><a xlink:href="../../df/df8/class_cell_society_view.html#ad52b914fa03b45d8bc9d64fc407660f3" target="_top" xlink:title="CellSocietyView.updateView">
<polygon fill="white" stroke="black" points="596.5,-202.5 596.5,-221.5 745.5,-221.5 745.5,-202.5 596.5,-202.5"/>
<text text-anchor="middle" x="671" y="-209.5" font-family="Helvetica,sans-Serif" font-size="10.00">CellSocietyView.updateView</text>
</a>
</g>
</g>
<!-- Node11&#45;&gt;Node12 -->
<g id="edge12" class="edge"><title>Node11&#45;&gt;Node12</title>
<path fill="none" stroke="midnightblue" d="M569.8,-212C578.732,-212 587.672,-212 596.332,-212"/>
<polygon fill="midnightblue" stroke="midnightblue" points="569.733,-208.5 559.733,-212 569.733,-215.5 569.733,-208.5"/>
</g>
<!-- Node13 -->
<g id="node13" class="node"><title>Node13</title>
<g id="a_node13"><a xlink:href="../../df/df8/class_cell_society_view.html#a7bdbd4e8fd3893e672eb22015603f6dc" target="_top" xlink:title="CellSocietyView.makeButtons">
<polygon fill="white" stroke="black" points="783,-354.5 783,-373.5 941,-373.5 941,-354.5 783,-354.5"/>
<text text-anchor="middle" x="862" y="-361.5" font-family="Helvetica,sans-Serif" font-size="10.00">CellSocietyView.makeButtons</text>
</a>
</g>
</g>
<!-- Node12&#45;&gt;Node13 -->
<g id="edge13" class="edge"><title>Node12&#45;&gt;Node13</title>
<path fill="none" stroke="midnightblue" d="M734.72,-225.132C738.65,-226.853 742.448,-228.8 746,-231 799.197,-263.952 840.94,-329.416 855.46,-354.191"/>
<polygon fill="midnightblue" stroke="midnightblue" points="735.953,-221.856 725.364,-221.508 733.425,-228.384 735.953,-221.856"/>
</g>
<!-- Node14 -->
<g id="node14" class="node"><title>Node14</title>
<g id="a_node14"><a xlink:href="../../df/df8/class_cell_society_view.html#a3ebde62294a33f32af2abf897e1be666" target="_top" xlink:title="CellSocietyView.makeTimeline">
<polygon fill="white" stroke="black" points="782,-202.5 782,-221.5 942,-221.5 942,-202.5 782,-202.5"/>
<text text-anchor="middle" x="862" y="-209.5" font-family="Helvetica,sans-Serif" font-size="10.00">CellSocietyView.makeTimeline</text>
</a>
</g>
</g>
<!-- Node12&#45;&gt;Node14 -->
<g id="edge15" class="edge"><title>Node12&#45;&gt;Node14</title>
<path fill="none" stroke="midnightblue" d="M755.763,-212C764.473,-212 773.306,-212 781.961,-212"/>
<polygon fill="midnightblue" stroke="midnightblue" points="755.614,-208.5 745.614,-212 755.613,-215.5 755.614,-208.5"/>
</g>
<!-- Node13&#45;&gt;Node2 -->
<g id="edge14" class="edge"><title>Node13&#45;&gt;Node2</title>
<path fill="none" stroke="midnightblue" d="M951.358,-364C960.365,-364 969.491,-364 978.433,-364"/>
<polygon fill="midnightblue" stroke="midnightblue" points="951.255,-360.5 941.255,-364 951.255,-367.5 951.255,-360.5"/>
</g>
<!-- Node15 -->
<g id="node15" class="node"><title>Node15</title>
<g id="a_node15"><a xlink:href="../../d0/d4b/class_main.html#a7595d13c514a02c35aca322dd91d2063" target="_top" xlink:title="Main.start">
<polygon fill="white" stroke="black" points="1029.5,-202.5 1029.5,-221.5 1094.5,-221.5 1094.5,-202.5 1029.5,-202.5"/>
<text text-anchor="middle" x="1062" y="-209.5" font-family="Helvetica,sans-Serif" font-size="10.00">Main.start</text>
</a>
</g>
</g>
<!-- Node14&#45;&gt;Node15 -->
<g id="edge16" class="edge"><title>Node14&#45;&gt;Node15</title>
<path fill="none" stroke="midnightblue" d="M952.225,-212C979.854,-212 1008.51,-212 1029.47,-212"/>
<polygon fill="midnightblue" stroke="midnightblue" points="952.108,-208.5 942.108,-212 952.108,-215.5 952.108,-208.5"/>
</g>
<!-- Node17 -->
<g id="node17" class="node"><title>Node17</title>
<g id="a_node17"><a xlink:href="../../d9/df1/class_fire.html#a70453ac9610d3591355b1f07432f6fc8" target="_top" xlink:title="Fire.Fire">
<polygon fill="white" stroke="black" points="644.5,-240.5 644.5,-259.5 697.5,-259.5 697.5,-240.5 644.5,-240.5"/>
<text text-anchor="middle" x="671" y="-247.5" font-family="Helvetica,sans-Serif" font-size="10.00">Fire.Fire</text>
</a>
</g>
</g>
<!-- Node16&#45;&gt;Node17 -->
<g id="edge18" class="edge"><title>Node16&#45;&gt;Node17</title>
<path fill="none" stroke="midnightblue" d="M539.639,-250C575.756,-250 617.894,-250 644.265,-250"/>
<polygon fill="midnightblue" stroke="midnightblue" points="539.63,-246.5 529.63,-250 539.63,-253.5 539.63,-246.5"/>
</g>
<!-- Node19 -->
<g id="node19" class="node"><title>Node19</title>
<g id="a_node19"><a xlink:href="../../d8/d84/class_game_of_life.html#ac0303caccaa6837b908bc295d75addc8" target="_top" xlink:title="GameOfLife.GameOfLife">
<polygon fill="white" stroke="black" points="605,-164.5 605,-183.5 737,-183.5 737,-164.5 605,-164.5"/>
<text text-anchor="middle" x="671" y="-171.5" font-family="Helvetica,sans-Serif" font-size="10.00">GameOfLife.GameOfLife</text>
</a>
</g>
</g>
<!-- Node18&#45;&gt;Node19 -->
<g id="edge20" class="edge"><title>Node18&#45;&gt;Node19</title>
<path fill="none" stroke="midnightblue" d="M560.003,-174C575.056,-174 590.434,-174 604.737,-174"/>
<polygon fill="midnightblue" stroke="midnightblue" points="559.65,-170.5 549.65,-174 559.65,-177.5 559.65,-170.5"/>
</g>
<!-- Node21 -->
<g id="node21" class="node"><title>Node21</title>
<g id="a_node21"><a xlink:href="../../d0/db0/class_wator.html#a422810cdcb035633301b3469cbee5e34" target="_top" xlink:title="Wator.checkRules">
<polygon fill="white" stroke="black" points="421,-107.5 421,-126.5 519,-126.5 519,-107.5 421,-107.5"/>
<text text-anchor="middle" x="470" y="-114.5" font-family="Helvetica,sans-Serif" font-size="10.00">Wator.checkRules</text>
</a>
</g>
</g>
<!-- Node20&#45;&gt;Node21 -->
<g id="edge22" class="edge"><title>Node20&#45;&gt;Node21</title>
<path fill="none" stroke="midnightblue" d="M310.853,-131.377C344.39,-128.328 388.04,-124.36 420.984,-121.365"/>
<polygon fill="midnightblue" stroke="midnightblue" points="310.435,-127.9 300.793,-132.292 311.069,-134.872 310.435,-127.9"/>
</g>
<!-- Node22&#45;&gt;Node6 -->
<g id="edge24" class="edge"><title>Node22&#45;&gt;Node6</title>
<path fill="none" stroke="midnightblue" d="M322.408,-390.653C352.395,-385.201 387.934,-378.739 416.509,-373.544"/>
<polygon fill="midnightblue" stroke="midnightblue" points="321.682,-387.228 312.47,-392.46 322.935,-394.115 321.682,-387.228"/>
</g>
<!-- Node23&#45;&gt;Node6 -->
<g id="edge26" class="edge"><title>Node23&#45;&gt;Node6</title>
<path fill="none" stroke="midnightblue" d="M324.204,-364C350.155,-364 380.021,-364 405.863,-364"/>
<polygon fill="midnightblue" stroke="midnightblue" points="324.095,-360.5 314.094,-364 324.094,-367.5 324.095,-360.5"/>
</g>
<!-- Node24&#45;&gt;Node21 -->
<g id="edge28" class="edge"><title>Node24&#45;&gt;Node21</title>
<path fill="none" stroke="midnightblue" d="M309.379,-102.489C343,-105.545 387.286,-109.571 420.68,-112.607"/>
<polygon fill="midnightblue" stroke="midnightblue" points="309.587,-98.9936 299.311,-101.574 308.953,-105.965 309.587,-98.9936"/>
</g>
<!-- Node26 -->
<g id="node26" class="node"><title>Node26</title>
<g id="a_node26"><a xlink:href="../../da/d1e/class_segregation.html#adcbbd1f49861ddfed2793a3e3d26b4c5" target="_top" xlink:title="Segregation.Segregation">
<polygon fill="white" stroke="black" points="401.5,-44.5 401.5,-63.5 538.5,-63.5 538.5,-44.5 401.5,-44.5"/>
<text text-anchor="middle" x="470" y="-51.5" font-family="Helvetica,sans-Serif" font-size="10.00">Segregation.Segregation</text>
</a>
</g>
</g>
<!-- Node25&#45;&gt;Node26 -->
<g id="edge32" class="edge"><title>Node25&#45;&gt;Node26</title>
<path fill="none" stroke="midnightblue" d="M334.853,-54C356.556,-54 380.12,-54 401.355,-54"/>
<polygon fill="midnightblue" stroke="midnightblue" points="334.698,-50.5001 324.698,-54 334.698,-57.5001 334.698,-50.5001"/>
</g>
<!-- Node28 -->
<g id="node28" class="node"><title>Node28</title>
<g id="a_node28"><a xlink:href="../../d0/db0/class_wator.html#a17b00ee0207f7ce40fe9895cba407de0" target="_top" xlink:title="Wator.Wator">
<polygon fill="white" stroke="black" points="433.5,-0.5 433.5,-19.5 506.5,-19.5 506.5,-0.5 433.5,-0.5"/>
<text text-anchor="middle" x="470" y="-7.5" font-family="Helvetica,sans-Serif" font-size="10.00">Wator.Wator</text>
</a>
</g>
</g>
<!-- Node27&#45;&gt;Node28 -->
<g id="edge34" class="edge"><title>Node27&#45;&gt;Node28</title>
<path fill="none" stroke="midnightblue" d="M333.877,-10C367.668,-10 406.145,-10 433.374,-10"/>
<polygon fill="midnightblue" stroke="midnightblue" points="333.558,-6.5001 323.558,-10 333.558,-13.5001 333.558,-6.5001"/>
</g>
</g>
</svg>
