<?xml version="1.0" encoding="UTF-8" standalone="no"?>
<!DOCTYPE svg PUBLIC "-//W3C//DTD SVG 1.1//EN"
 "http://www.w3.org/Graphics/SVG/1.1/DTD/svg11.dtd">
<!-- Generated by graphviz version 2.36.0 (20140111.2315)
 -->
<!-- Title: CellularAutomata.updateNextGen Pages: 1 -->
<svg width="1512pt" height="66pt"
 viewBox="0.00 0.00 1512.00 66.00" xmlns="http://www.w3.org/2000/svg" xmlns:xlink="http://www.w3.org/1999/xlink">
<g id="graph0" class="graph" transform="scale(1 1) rotate(0) translate(4 62)">
<title>CellularAutomata.updateNextGen</title>
<polygon fill="white" stroke="none" points="-4,4 -4,-62 1508,-62 1508,4 -4,4"/>
<!-- Node1 -->
<g id="node1" class="node"><title>Node1</title>
<polygon fill="#bfbfbf" stroke="black" points="0.5,-19.5 0.5,-38.5 179.5,-38.5 179.5,-19.5 0.5,-19.5"/>
<text text-anchor="middle" x="90" y="-26.5" font-family="Helvetica,sans-Serif" font-size="10.00">CellularAutomata.updateNextGen</text>
</g>
<!-- Node2 -->
<g id="node2" class="node"><title>Node2</title>
<g id="a_node2"><a xlink:href="../../df/df8/class_cell_society_view.html#ad52b914fa03b45d8bc9d64fc407660f3" target="_top" xlink:title="CellSocietyView.updateView">
<polygon fill="white" stroke="black" points="216.5,-19.5 216.5,-38.5 365.5,-38.5 365.5,-19.5 216.5,-19.5"/>
<text text-anchor="middle" x="291" y="-26.5" font-family="Helvetica,sans-Serif" font-size="10.00">CellSocietyView.updateView</text>
</a>
</g>
</g>
<!-- Node1&#45;&gt;Node2 -->
<g id="edge1" class="edge"><title>Node1&#45;&gt;Node2</title>
<path fill="none" stroke="midnightblue" d="M189.8,-29C198.732,-29 207.672,-29 216.332,-29"/>
<polygon fill="midnightblue" stroke="midnightblue" points="189.733,-25.5001 179.733,-29 189.733,-32.5001 189.733,-25.5001"/>
</g>
<!-- Node3 -->
<g id="node3" class="node"><title>Node3</title>
<g id="a_node3"><a xlink:href="../../df/df8/class_cell_society_view.html#a7bdbd4e8fd3893e672eb22015603f6dc" target="_top" xlink:title="CellSocietyView.makeButtons">
<polygon fill="white" stroke="black" points="403,-0.5 403,-19.5 561,-19.5 561,-0.5 403,-0.5"/>
<text text-anchor="middle" x="482" y="-7.5" font-family="Helvetica,sans-Serif" font-size="10.00">CellSocietyView.makeButtons</text>
</a>
</g>
</g>
<!-- Node2&#45;&gt;Node3 -->
<g id="edge2" class="edge"><title>Node2&#45;&gt;Node3</title>
<path fill="none" stroke="midnightblue" d="M375.739,-20.5818C384.773,-19.6737 393.939,-18.7521 402.903,-17.851"/>
<polygon fill="midnightblue" stroke="midnightblue" points="375.213,-17.1169 365.614,-21.5997 375.913,-24.0818 375.213,-17.1169"/>
</g>
<!-- Node9 -->
<g id="node9" class="node"><title>Node9</title>
<g id="a_node9"><a xlink:href="../../df/df8/class_cell_society_view.html#adf6a6b0542d00677a9fffbb8e3c03ffe" target="_top" xlink:title="CellSocietyView.makeTimeline">
<polygon fill="white" stroke="black" points="402,-38.5 402,-57.5 562,-57.5 562,-38.5 402,-38.5"/>
<text text-anchor="middle" x="482" y="-45.5" font-family="Helvetica,sans-Serif" font-size="10.00">CellSocietyView.makeTimeline</text>
</a>
</g>
</g>
<!-- Node2&#45;&gt;Node9 -->
<g id="edge9" class="edge"><title>Node2&#45;&gt;Node9</title>
<path fill="none" stroke="midnightblue" d="M375.763,-37.4207C384.473,-38.2962 393.306,-39.1842 401.961,-40.0543"/>
<polygon fill="midnightblue" stroke="midnightblue" points="375.913,-33.9182 365.614,-36.4003 375.213,-40.8831 375.913,-33.9182"/>
</g>
<!-- Node4 -->
<g id="node4" class="node"><title>Node4</title>
<g id="a_node4"><a xlink:href="../../df/df8/class_cell_society_view.html#a767ab215ca329ba41b1493702141f841" target="_top" xlink:title="CellSocietyView.makeCAGame">
<polygon fill="white" stroke="black" points="598.5,-38.5 598.5,-57.5 761.5,-57.5 761.5,-38.5 598.5,-38.5"/>
<text text-anchor="middle" x="680" y="-45.5" font-family="Helvetica,sans-Serif" font-size="10.00">CellSocietyView.makeCAGame</text>
</a>
</g>
</g>
<!-- Node3&#45;&gt;Node4 -->
<g id="edge3" class="edge"><title>Node3&#45;&gt;Node4</title>
<path fill="none" stroke="midnightblue" d="M542.261,-21.4894C570.227,-26.9114 603.209,-33.3058 629.774,-38.4561"/>
<polygon fill="midnightblue" stroke="midnightblue" points="542.689,-18.0073 532.206,-19.54 541.357,-24.8794 542.689,-18.0073"/>
</g>
<!-- Node5 -->
<g id="node5" class="node"><title>Node5</title>
<g id="a_node5"><a xlink:href="../../df/df8/class_cell_society_view.html#a2ee793e471cc5731ce39c1450f058dd5" target="_top" xlink:title="CellSocietyView.parseFile">
<polygon fill="white" stroke="black" points="798.5,-38.5 798.5,-57.5 933.5,-57.5 933.5,-38.5 798.5,-38.5"/>
<text text-anchor="middle" x="866" y="-45.5" font-family="Helvetica,sans-Serif" font-size="10.00">CellSocietyView.parseFile</text>
</a>
</g>
</g>
<!-- Node4&#45;&gt;Node5 -->
<g id="edge4" class="edge"><title>Node4&#45;&gt;Node5</title>
<path fill="none" stroke="midnightblue" d="M771.807,-48C780.777,-48 789.762,-48 798.42,-48"/>
<polygon fill="midnightblue" stroke="midnightblue" points="771.705,-44.5001 761.705,-48 771.705,-51.5001 771.705,-44.5001"/>
</g>
<!-- Node6 -->
<g id="node6" class="node"><title>Node6</title>
<g id="a_node6"><a xlink:href="../../df/df8/class_cell_society_view.html#a2c047a3972078bb0a5490ed225ef2dfa" target="_top" xlink:title="CellSocietyView.loadNewFile">
<polygon fill="white" stroke="black" points="970.5,-38.5 970.5,-57.5 1119.5,-57.5 1119.5,-38.5 970.5,-38.5"/>
<text text-anchor="middle" x="1045" y="-45.5" font-family="Helvetica,sans-Serif" font-size="10.00">CellSocietyView.loadNewFile</text>
</a>
</g>
</g>
<!-- Node5&#45;&gt;Node6 -->
<g id="edge5" class="edge"><title>Node5&#45;&gt;Node6</title>
<path fill="none" stroke="midnightblue" d="M943.865,-48C952.633,-48 961.557,-48 970.283,-48"/>
<polygon fill="midnightblue" stroke="midnightblue" points="943.664,-44.5001 933.664,-48 943.664,-51.5001 943.664,-44.5001"/>
</g>
<!-- Node7 -->
<g id="node7" class="node"><title>Node7</title>
<g id="a_node7"><a xlink:href="../../df/df8/class_cell_society_view.html#a656cfed0ba32bc41bbd0c4087860db4b" target="_top" xlink:title="CellSocietyView.makeLoad\lButton">
<polygon fill="white" stroke="black" points="1156.5,-14 1156.5,-44 1299.5,-44 1299.5,-14 1156.5,-14"/>
<text text-anchor="start" x="1164.5" y="-32" font-family="Helvetica,sans-Serif" font-size="10.00">CellSocietyView.makeLoad</text>
<text text-anchor="middle" x="1228" y="-21" font-family="Helvetica,sans-Serif" font-size="10.00">Button</text>
</a>
</g>
</g>
<!-- Node6&#45;&gt;Node7 -->
<g id="edge6" class="edge"><title>Node6&#45;&gt;Node7</title>
<path fill="none" stroke="midnightblue" d="M1129.65,-39.219C1138.59,-38.2811 1147.61,-37.3338 1156.37,-36.4139"/>
<polygon fill="midnightblue" stroke="midnightblue" points="1129.2,-35.747 1119.62,-40.272 1129.93,-42.7088 1129.2,-35.747"/>
</g>
<!-- Node7&#45;&gt;Node3 -->
<g id="edge8" class="edge"><title>Node7&#45;&gt;Node3</title>
<path fill="none" stroke="midnightblue" d="M1146.31,-26.9392C1002.41,-23.2644 703.307,-15.6261 561.215,-11.9974"/>
<polygon fill="midnightblue" stroke="midnightblue" points="1146.31,-30.4403 1156.39,-27.1969 1146.49,-23.4426 1146.31,-30.4403"/>
</g>
<!-- Node8 -->
<g id="node8" class="node"><title>Node8</title>
<g id="a_node8"><a xlink:href="../../df/df8/class_cell_society_view.html#a53ab66afdeb23b3fc89e54a44be7ced5" target="_top" xlink:title="CellSocietyView.CellSocietyView">
<polygon fill="white" stroke="black" points="1336.5,-19.5 1336.5,-38.5 1503.5,-38.5 1503.5,-19.5 1336.5,-19.5"/>
<text text-anchor="middle" x="1420" y="-26.5" font-family="Helvetica,sans-Serif" font-size="10.00">CellSocietyView.CellSocietyView</text>
</a>
</g>
</g>
<!-- Node7&#45;&gt;Node8 -->
<g id="edge7" class="edge"><title>Node7&#45;&gt;Node8</title>
<path fill="none" stroke="midnightblue" d="M1309.92,-29C1318.66,-29 1327.57,-29 1336.33,-29"/>
<polygon fill="midnightblue" stroke="midnightblue" points="1309.75,-25.5001 1299.75,-29 1309.75,-32.5001 1309.75,-25.5001"/>
</g>
<!-- Node9&#45;&gt;Node4 -->
<g id="edge10" class="edge"><title>Node9&#45;&gt;Node4</title>
<path fill="none" stroke="midnightblue" d="M572.271,-48C580.937,-48 589.696,-48 598.272,-48"/>
<polygon fill="midnightblue" stroke="midnightblue" points="572.156,-44.5001 562.156,-48 572.156,-51.5001 572.156,-44.5001"/>
</g>
</g>
</svg>
