<?xml version="1.0" encoding="UTF-8" standalone="no"?>
<!DOCTYPE svg PUBLIC "-//W3C//DTD SVG 1.1//EN"
 "http://www.w3.org/Graphics/SVG/1.1/DTD/svg11.dtd">
<!-- Generated by graphviz version 2.36.0 (20140111.2315)
 -->
<!-- Title: CellularAutomata.checkRules Pages: 1 -->
<svg width="1704pt" height="66pt"
 viewBox="0.00 0.00 1704.00 66.00" xmlns="http://www.w3.org/2000/svg" xmlns:xlink="http://www.w3.org/1999/xlink">
<g id="graph0" class="graph" transform="scale(1 1) rotate(0) translate(4 62)">
<title>CellularAutomata.checkRules</title>
<polygon fill="white" stroke="none" points="-4,4 -4,-62 1700,-62 1700,4 -4,4"/>
<!-- Node1 -->
<g id="node1" class="node"><title>Node1</title>
<polygon fill="#bfbfbf" stroke="black" points="0.5,-19.5 0.5,-38.5 155.5,-38.5 155.5,-19.5 0.5,-19.5"/>
<text text-anchor="middle" x="78" y="-26.5" font-family="Helvetica,sans-Serif" font-size="10.00">CellularAutomata.checkRules</text>
</g>
<!-- Node2 -->
<g id="node2" class="node"><title>Node2</title>
<g id="a_node2"><a xlink:href="../../d2/d40/class_cellular_automata.html#a8f4c8a2f32137db67dd31f5afb4b62c3" target="_top" xlink:title="CellularAutomata.updateNextGen">
<polygon fill="white" stroke="black" points="192.5,-19.5 192.5,-38.5 371.5,-38.5 371.5,-19.5 192.5,-19.5"/>
<text text-anchor="middle" x="282" y="-26.5" font-family="Helvetica,sans-Serif" font-size="10.00">CellularAutomata.updateNextGen</text>
</a>
</g>
</g>
<!-- Node1&#45;&gt;Node2 -->
<g id="edge1" class="edge"><title>Node1&#45;&gt;Node2</title>
<path fill="none" stroke="midnightblue" d="M165.83,-29C174.568,-29 183.45,-29 192.208,-29"/>
<polygon fill="midnightblue" stroke="midnightblue" points="165.656,-25.5001 155.656,-29 165.656,-32.5001 165.656,-25.5001"/>
</g>
<!-- Node3 -->
<g id="node3" class="node"><title>Node3</title>
<g id="a_node3"><a xlink:href="../../df/df8/class_cell_society_view.html#ad52b914fa03b45d8bc9d64fc407660f3" target="_top" xlink:title="CellSocietyView.updateView">
<polygon fill="white" stroke="black" points="408.5,-19.5 408.5,-38.5 557.5,-38.5 557.5,-19.5 408.5,-19.5"/>
<text text-anchor="middle" x="483" y="-26.5" font-family="Helvetica,sans-Serif" font-size="10.00">CellSocietyView.updateView</text>
</a>
</g>
</g>
<!-- Node2&#45;&gt;Node3 -->
<g id="edge2" class="edge"><title>Node2&#45;&gt;Node3</title>
<path fill="none" stroke="midnightblue" d="M381.8,-29C390.732,-29 399.672,-29 408.332,-29"/>
<polygon fill="midnightblue" stroke="midnightblue" points="381.733,-25.5001 371.733,-29 381.733,-32.5001 381.733,-25.5001"/>
</g>
<!-- Node4 -->
<g id="node4" class="node"><title>Node4</title>
<g id="a_node4"><a xlink:href="../../df/df8/class_cell_society_view.html#a7bdbd4e8fd3893e672eb22015603f6dc" target="_top" xlink:title="CellSocietyView.makeButtons">
<polygon fill="white" stroke="black" points="595,-0.5 595,-19.5 753,-19.5 753,-0.5 595,-0.5"/>
<text text-anchor="middle" x="674" y="-7.5" font-family="Helvetica,sans-Serif" font-size="10.00">CellSocietyView.makeButtons</text>
</a>
</g>
</g>
<!-- Node3&#45;&gt;Node4 -->
<g id="edge3" class="edge"><title>Node3&#45;&gt;Node4</title>
<path fill="none" stroke="midnightblue" d="M567.739,-20.5818C576.773,-19.6737 585.939,-18.7521 594.903,-17.851"/>
<polygon fill="midnightblue" stroke="midnightblue" points="567.213,-17.1169 557.614,-21.5997 567.913,-24.0818 567.213,-17.1169"/>
</g>
<!-- Node10 -->
<g id="node10" class="node"><title>Node10</title>
<g id="a_node10"><a xlink:href="../../df/df8/class_cell_society_view.html#adf6a6b0542d00677a9fffbb8e3c03ffe" target="_top" xlink:title="CellSocietyView.makeTimeline">
<polygon fill="white" stroke="black" points="594,-38.5 594,-57.5 754,-57.5 754,-38.5 594,-38.5"/>
<text text-anchor="middle" x="674" y="-45.5" font-family="Helvetica,sans-Serif" font-size="10.00">CellSocietyView.makeTimeline</text>
</a>
</g>
</g>
<!-- Node3&#45;&gt;Node10 -->
<g id="edge10" class="edge"><title>Node3&#45;&gt;Node10</title>
<path fill="none" stroke="midnightblue" d="M567.763,-37.4207C576.473,-38.2962 585.306,-39.1842 593.961,-40.0543"/>
<polygon fill="midnightblue" stroke="midnightblue" points="567.913,-33.9182 557.614,-36.4003 567.213,-40.8831 567.913,-33.9182"/>
</g>
<!-- Node5 -->
<g id="node5" class="node"><title>Node5</title>
<g id="a_node5"><a xlink:href="../../df/df8/class_cell_society_view.html#a767ab215ca329ba41b1493702141f841" target="_top" xlink:title="CellSocietyView.makeCAGame">
<polygon fill="white" stroke="black" points="790.5,-38.5 790.5,-57.5 953.5,-57.5 953.5,-38.5 790.5,-38.5"/>
<text text-anchor="middle" x="872" y="-45.5" font-family="Helvetica,sans-Serif" font-size="10.00">CellSocietyView.makeCAGame</text>
</a>
</g>
</g>
<!-- Node4&#45;&gt;Node5 -->
<g id="edge4" class="edge"><title>Node4&#45;&gt;Node5</title>
<path fill="none" stroke="midnightblue" d="M734.261,-21.4894C762.227,-26.9114 795.209,-33.3058 821.774,-38.4561"/>
<polygon fill="midnightblue" stroke="midnightblue" points="734.689,-18.0073 724.206,-19.54 733.357,-24.8794 734.689,-18.0073"/>
</g>
<!-- Node6 -->
<g id="node6" class="node"><title>Node6</title>
<g id="a_node6"><a xlink:href="../../df/df8/class_cell_society_view.html#a2ee793e471cc5731ce39c1450f058dd5" target="_top" xlink:title="CellSocietyView.parseFile">
<polygon fill="white" stroke="black" points="990.5,-38.5 990.5,-57.5 1125.5,-57.5 1125.5,-38.5 990.5,-38.5"/>
<text text-anchor="middle" x="1058" y="-45.5" font-family="Helvetica,sans-Serif" font-size="10.00">CellSocietyView.parseFile</text>
</a>
</g>
</g>
<!-- Node5&#45;&gt;Node6 -->
<g id="edge5" class="edge"><title>Node5&#45;&gt;Node6</title>
<path fill="none" stroke="midnightblue" d="M963.807,-48C972.777,-48 981.762,-48 990.42,-48"/>
<polygon fill="midnightblue" stroke="midnightblue" points="963.705,-44.5001 953.705,-48 963.705,-51.5001 963.705,-44.5001"/>
</g>
<!-- Node7 -->
<g id="node7" class="node"><title>Node7</title>
<g id="a_node7"><a xlink:href="../../df/df8/class_cell_society_view.html#a2c047a3972078bb0a5490ed225ef2dfa" target="_top" xlink:title="CellSocietyView.loadNewFile">
<polygon fill="white" stroke="black" points="1162.5,-38.5 1162.5,-57.5 1311.5,-57.5 1311.5,-38.5 1162.5,-38.5"/>
<text text-anchor="middle" x="1237" y="-45.5" font-family="Helvetica,sans-Serif" font-size="10.00">CellSocietyView.loadNewFile</text>
</a>
</g>
</g>
<!-- Node6&#45;&gt;Node7 -->
<g id="edge6" class="edge"><title>Node6&#45;&gt;Node7</title>
<path fill="none" stroke="midnightblue" d="M1135.86,-48C1144.63,-48 1153.56,-48 1162.28,-48"/>
<polygon fill="midnightblue" stroke="midnightblue" points="1135.66,-44.5001 1125.66,-48 1135.66,-51.5001 1135.66,-44.5001"/>
</g>
<!-- Node8 -->
<g id="node8" class="node"><title>Node8</title>
<g id="a_node8"><a xlink:href="../../df/df8/class_cell_society_view.html#a656cfed0ba32bc41bbd0c4087860db4b" target="_top" xlink:title="CellSocietyView.makeLoad\lButton">
<polygon fill="white" stroke="black" points="1348.5,-14 1348.5,-44 1491.5,-44 1491.5,-14 1348.5,-14"/>
<text text-anchor="start" x="1356.5" y="-32" font-family="Helvetica,sans-Serif" font-size="10.00">CellSocietyView.makeLoad</text>
<text text-anchor="middle" x="1420" y="-21" font-family="Helvetica,sans-Serif" font-size="10.00">Button</text>
</a>
</g>
</g>
<!-- Node7&#45;&gt;Node8 -->
<g id="edge7" class="edge"><title>Node7&#45;&gt;Node8</title>
<path fill="none" stroke="midnightblue" d="M1321.65,-39.219C1330.59,-38.2811 1339.61,-37.3338 1348.37,-36.4139"/>
<polygon fill="midnightblue" stroke="midnightblue" points="1321.2,-35.747 1311.62,-40.272 1321.93,-42.7088 1321.2,-35.747"/>
</g>
<!-- Node8&#45;&gt;Node4 -->
<g id="edge9" class="edge"><title>Node8&#45;&gt;Node4</title>
<path fill="none" stroke="midnightblue" d="M1338.31,-26.9392C1194.41,-23.2644 895.307,-15.6261 753.215,-11.9974"/>
<polygon fill="midnightblue" stroke="midnightblue" points="1338.31,-30.4403 1348.39,-27.1969 1338.49,-23.4426 1338.31,-30.4403"/>
</g>
<!-- Node9 -->
<g id="node9" class="node"><title>Node9</title>
<g id="a_node9"><a xlink:href="../../df/df8/class_cell_society_view.html#a53ab66afdeb23b3fc89e54a44be7ced5" target="_top" xlink:title="CellSocietyView.CellSocietyView">
<polygon fill="white" stroke="black" points="1528.5,-19.5 1528.5,-38.5 1695.5,-38.5 1695.5,-19.5 1528.5,-19.5"/>
<text text-anchor="middle" x="1612" y="-26.5" font-family="Helvetica,sans-Serif" font-size="10.00">CellSocietyView.CellSocietyView</text>
</a>
</g>
</g>
<!-- Node8&#45;&gt;Node9 -->
<g id="edge8" class="edge"><title>Node8&#45;&gt;Node9</title>
<path fill="none" stroke="midnightblue" d="M1501.92,-29C1510.66,-29 1519.57,-29 1528.33,-29"/>
<polygon fill="midnightblue" stroke="midnightblue" points="1501.75,-25.5001 1491.75,-29 1501.75,-32.5001 1501.75,-25.5001"/>
</g>
<!-- Node10&#45;&gt;Node5 -->
<g id="edge11" class="edge"><title>Node10&#45;&gt;Node5</title>
<path fill="none" stroke="midnightblue" d="M764.271,-48C772.937,-48 781.696,-48 790.272,-48"/>
<polygon fill="midnightblue" stroke="midnightblue" points="764.156,-44.5001 754.156,-48 764.156,-51.5001 764.156,-44.5001"/>
</g>
</g>
</svg>
