<?xml version="1.0" encoding="UTF-8" standalone="no"?>
<!DOCTYPE svg PUBLIC "-//W3C//DTD SVG 1.1//EN"
 "http://www.w3.org/Graphics/SVG/1.1/DTD/svg11.dtd">
<!-- Generated by graphviz version 2.36.0 (20140111.2315)
 -->
<!-- Title: CellularAutomata.getMyNeighborhood Pages: 1 -->
<svg width="336pt" height="104pt"
 viewBox="0.00 0.00 336.00 104.00" xmlns="http://www.w3.org/2000/svg" xmlns:xlink="http://www.w3.org/1999/xlink">
<g id="graph0" class="graph" transform="scale(1 1) rotate(0) translate(4 100)">
<title>CellularAutomata.getMyNeighborhood</title>
<polygon fill="white" stroke="none" points="-4,4 -4,-100 332,-100 332,4 -4,4"/>
<!-- Node1 -->
<g id="node1" class="node"><title>Node1</title>
<polygon fill="#bfbfbf" stroke="black" points="0,-38.5 0,-57.5 200,-57.5 200,-38.5 0,-38.5"/>
<text text-anchor="middle" x="100" y="-45.5" font-family="Helvetica,sans-Serif" font-size="10.00">CellularAutomata.getMyNeighborhood</text>
</g>
<!-- Node2 -->
<g id="node2" class="node"><title>Node2</title>
<g id="a_node2"><a xlink:href="../../d9/df1/class_fire.html#a22e1b892843e691d4e6e3fcf8e6a893a" target="_top" xlink:title="Fire.init">
<polygon fill="white" stroke="black" points="257,-76.5 257,-95.5 307,-95.5 307,-76.5 257,-76.5"/>
<text text-anchor="middle" x="282" y="-83.5" font-family="Helvetica,sans-Serif" font-size="10.00">Fire.init</text>
</a>
</g>
</g>
<!-- Node1&#45;&gt;Node2 -->
<g id="edge1" class="edge"><title>Node1&#45;&gt;Node2</title>
<path fill="none" stroke="midnightblue" d="M156.555,-59.7283C190.066,-66.8029 231.081,-75.4615 256.631,-80.8554"/>
<polygon fill="midnightblue" stroke="midnightblue" points="156.929,-56.2301 146.422,-57.589 155.483,-63.0792 156.929,-56.2301"/>
</g>
<!-- Node3 -->
<g id="node3" class="node"><title>Node3</title>
<g id="a_node3"><a xlink:href="../../da/d1e/class_segregation.html#abbf23897b2ba933ff6d6c20200178ba3" target="_top" xlink:title="Segregation.init">
<polygon fill="white" stroke="black" points="236,-38.5 236,-57.5 328,-57.5 328,-38.5 236,-38.5"/>
<text text-anchor="middle" x="282" y="-45.5" font-family="Helvetica,sans-Serif" font-size="10.00">Segregation.init</text>
</a>
</g>
</g>
<!-- Node1&#45;&gt;Node3 -->
<g id="edge2" class="edge"><title>Node1&#45;&gt;Node3</title>
<path fill="none" stroke="midnightblue" d="M210.304,-48C219.159,-48 227.753,-48 235.72,-48"/>
<polygon fill="midnightblue" stroke="midnightblue" points="210.214,-44.5001 200.214,-48 210.214,-51.5001 210.214,-44.5001"/>
</g>
<!-- Node4 -->
<g id="node4" class="node"><title>Node4</title>
<g id="a_node4"><a xlink:href="../../d8/d84/class_game_of_life.html#a9ffd6f1b93454f54600e1db30540c21d" target="_top" xlink:title="GameOfLife.init">
<polygon fill="white" stroke="black" points="237,-0.5 237,-19.5 327,-19.5 327,-0.5 237,-0.5"/>
<text text-anchor="middle" x="282" y="-7.5" font-family="Helvetica,sans-Serif" font-size="10.00">GameOfLife.init</text>
</a>
</g>
</g>
<!-- Node1&#45;&gt;Node4 -->
<g id="edge3" class="edge"><title>Node1&#45;&gt;Node4</title>
<path fill="none" stroke="midnightblue" d="M156.447,-36.2945C182.278,-30.8413 212.586,-24.4429 236.837,-19.3232"/>
<polygon fill="midnightblue" stroke="midnightblue" points="155.483,-32.9208 146.422,-38.411 156.929,-39.7699 155.483,-32.9208"/>
</g>
</g>
</svg>
