<?xml version="1.0" encoding="UTF-8" standalone="no"?>
<!DOCTYPE svg PUBLIC "-//W3C//DTD SVG 1.1//EN"
 "http://www.w3.org/Graphics/SVG/1.1/DTD/svg11.dtd">
<!-- Generated by graphviz version 2.36.0 (20140111.2315)
 -->
<!-- Title: CellularAutomata.getName Pages: 1 -->
<svg width="846pt" height="28pt"
 viewBox="0.00 0.00 846.00 28.00" xmlns="http://www.w3.org/2000/svg" xmlns:xlink="http://www.w3.org/1999/xlink">
<g id="graph0" class="graph" transform="scale(1 1) rotate(0) translate(4 24)">
<title>CellularAutomata.getName</title>
<polygon fill="white" stroke="none" points="-4,4 -4,-24 842,-24 842,4 -4,4"/>
<!-- Node1 -->
<g id="node1" class="node"><title>Node1</title>
<polygon fill="#bfbfbf" stroke="black" points="0,-0.5 0,-19.5 148,-19.5 148,-0.5 0,-0.5"/>
<text text-anchor="middle" x="74" y="-7.5" font-family="Helvetica,sans-Serif" font-size="10.00">CellularAutomata.getName</text>
</g>
<!-- Node2 -->
<g id="node2" class="node"><title>Node2</title>
<g id="a_node2"><a xlink:href="../../d7/db3/class_x_m_l_reader.html#a73f0ed30c2f1dc7614f7732f7ec868ea" target="_top" xlink:title="XMLReader.addGameType">
<polygon fill="white" stroke="black" points="184,-0.5 184,-19.5 324,-19.5 324,-0.5 184,-0.5"/>
<text text-anchor="middle" x="254" y="-7.5" font-family="Helvetica,sans-Serif" font-size="10.00">XMLReader.addGameType</text>
</a>
</g>
</g>
<!-- Node1&#45;&gt;Node2 -->
<g id="edge1" class="edge"><title>Node1&#45;&gt;Node2</title>
<path fill="none" stroke="midnightblue" d="M158.193,-10C166.776,-10 175.431,-10 183.838,-10"/>
<polygon fill="midnightblue" stroke="midnightblue" points="158.17,-6.5001 148.17,-10 158.17,-13.5001 158.17,-6.5001"/>
</g>
<!-- Node3 -->
<g id="node3" class="node"><title>Node3</title>
<g id="a_node3"><a xlink:href="../../d7/db3/class_x_m_l_reader.html#ac9e41bf7f824b9068b5c15538f724908" target="_top" xlink:title="XMLReader.setUpGameTypes">
<polygon fill="white" stroke="black" points="360.5,-0.5 360.5,-19.5 515.5,-19.5 515.5,-0.5 360.5,-0.5"/>
<text text-anchor="middle" x="438" y="-7.5" font-family="Helvetica,sans-Serif" font-size="10.00">XMLReader.setUpGameTypes</text>
</a>
</g>
</g>
<!-- Node2&#45;&gt;Node3 -->
<g id="edge2" class="edge"><title>Node2&#45;&gt;Node3</title>
<path fill="none" stroke="midnightblue" d="M334.184,-10C342.877,-10 351.716,-10 360.377,-10"/>
<polygon fill="midnightblue" stroke="midnightblue" points="334.066,-6.5001 324.066,-10 334.066,-13.5001 334.066,-6.5001"/>
</g>
<!-- Node4 -->
<g id="node4" class="node"><title>Node4</title>
<g id="a_node4"><a xlink:href="../../d7/db3/class_x_m_l_reader.html#a8c0ab8826ba3315ba3899e050967ecfa" target="_top" xlink:title="XMLReader.setUpTypes">
<polygon fill="white" stroke="black" points="552,-0.5 552,-19.5 678,-19.5 678,-0.5 552,-0.5"/>
<text text-anchor="middle" x="615" y="-7.5" font-family="Helvetica,sans-Serif" font-size="10.00">XMLReader.setUpTypes</text>
</a>
</g>
</g>
<!-- Node3&#45;&gt;Node4 -->
<g id="edge3" class="edge"><title>Node3&#45;&gt;Node4</title>
<path fill="none" stroke="midnightblue" d="M525.507,-10C534.39,-10 543.286,-10 551.83,-10"/>
<polygon fill="midnightblue" stroke="midnightblue" points="525.503,-6.5001 515.503,-10 525.503,-13.5001 525.503,-6.5001"/>
</g>
<!-- Node5 -->
<g id="node5" class="node"><title>Node5</title>
<g id="a_node5"><a xlink:href="../../d7/db3/class_x_m_l_reader.html#a0ac132497fb7d06e872995c67c969ee2" target="_top" xlink:title="XMLReader.XMLReader">
<polygon fill="white" stroke="black" points="714,-0.5 714,-19.5 838,-19.5 838,-0.5 714,-0.5"/>
<text text-anchor="middle" x="776" y="-7.5" font-family="Helvetica,sans-Serif" font-size="10.00">XMLReader.XMLReader</text>
</a>
</g>
</g>
<!-- Node4&#45;&gt;Node5 -->
<g id="edge4" class="edge"><title>Node4&#45;&gt;Node5</title>
<path fill="none" stroke="midnightblue" d="M688.598,-10C697.035,-10 705.576,-10 713.837,-10"/>
<polygon fill="midnightblue" stroke="midnightblue" points="688.385,-6.5001 678.385,-10 688.385,-13.5001 688.385,-6.5001"/>
</g>
</g>
</svg>
