<?xml version="1.0" encoding="UTF-8" standalone="no"?>
<!DOCTYPE svg PUBLIC "-//W3C//DTD SVG 1.1//EN"
 "http://www.w3.org/Graphics/SVG/1.1/DTD/svg11.dtd">
<!-- Generated by graphviz version 2.36.0 (20140111.2315)
 -->
<!-- Title: CellularAutomata.getRandomDouble Pages: 1 -->
<svg width="512pt" height="241pt"
 viewBox="0.00 0.00 512.00 241.00" xmlns="http://www.w3.org/2000/svg" xmlns:xlink="http://www.w3.org/1999/xlink">
<g id="graph0" class="graph" transform="scale(1 1) rotate(0) translate(4 237)">
<title>CellularAutomata.getRandomDouble</title>
<polygon fill="white" stroke="none" points="-4,4 -4,-237 508,-237 508,4 -4,4"/>
<!-- Node1 -->
<g id="node1" class="node"><title>Node1</title>
<polygon fill="#bfbfbf" stroke="black" points="0,-110 0,-140 158,-140 158,-110 0,-110"/>
<text text-anchor="start" x="8" y="-128" font-family="Helvetica,sans-Serif" font-size="10.00">CellularAutomata.getRandom</text>
<text text-anchor="middle" x="79" y="-117" font-family="Helvetica,sans-Serif" font-size="10.00">Double</text>
</g>
<!-- Node2 -->
<g id="node2" class="node"><title>Node2</title>
<g id="a_node2"><a xlink:href="../../d9/df1/class_fire.html#a9848867ebe2faddb27dfd0994cb565a8" target="_top" xlink:title="Fire.checkRules">
<polygon fill="white" stroke="black" points="227.5,-213.5 227.5,-232.5 316.5,-232.5 316.5,-213.5 227.5,-213.5"/>
<text text-anchor="middle" x="272" y="-220.5" font-family="Helvetica,sans-Serif" font-size="10.00">Fire.checkRules</text>
</a>
</g>
</g>
<!-- Node1&#45;&gt;Node2 -->
<g id="edge1" class="edge"><title>Node1&#45;&gt;Node2</title>
<path fill="none" stroke="midnightblue" d="M105.19,-146.511C127.267,-164.329 160.916,-189.068 194,-204 204.416,-208.701 216.173,-212.351 227.305,-215.138"/>
<polygon fill="midnightblue" stroke="midnightblue" points="107.271,-143.691 97.3201,-140.055 102.832,-149.103 107.271,-143.691"/>
</g>
<!-- Node3 -->
<g id="node3" class="node"><title>Node3</title>
<g id="a_node3"><a xlink:href="../../d9/df1/class_fire.html#accc21ae2162fd526d8ca66c472a62a28" target="_top" xlink:title="Fire.ruleTwo">
<polygon fill="white" stroke="black" points="236.5,-175.5 236.5,-194.5 307.5,-194.5 307.5,-175.5 236.5,-175.5"/>
<text text-anchor="middle" x="272" y="-182.5" font-family="Helvetica,sans-Serif" font-size="10.00">Fire.ruleTwo</text>
</a>
</g>
</g>
<!-- Node1&#45;&gt;Node3 -->
<g id="edge2" class="edge"><title>Node1&#45;&gt;Node3</title>
<path fill="none" stroke="midnightblue" d="M128.292,-143.616C148.446,-151.059 172.2,-159.409 194,-166 207.707,-170.144 222.985,-174.057 236.296,-177.242"/>
<polygon fill="midnightblue" stroke="midnightblue" points="129.304,-140.259 118.711,-140.048 126.86,-146.818 129.304,-140.259"/>
</g>
<!-- Node4 -->
<g id="node4" class="node"><title>Node4</title>
<g id="a_node4"><a xlink:href="../../d9/df1/class_fire.html#afd16418c5ea360c815613862a4ea1c33" target="_top" xlink:title="Fire.setUpInitialConfig">
<polygon fill="white" stroke="black" points="212.5,-137.5 212.5,-156.5 331.5,-156.5 331.5,-137.5 212.5,-137.5"/>
<text text-anchor="middle" x="272" y="-144.5" font-family="Helvetica,sans-Serif" font-size="10.00">Fire.setUpInitialConfig</text>
</a>
</g>
</g>
<!-- Node1&#45;&gt;Node4 -->
<g id="edge3" class="edge"><title>Node1&#45;&gt;Node4</title>
<path fill="none" stroke="midnightblue" d="M168.51,-135.195C183.426,-136.913 198.57,-138.657 212.477,-140.259"/>
<polygon fill="midnightblue" stroke="midnightblue" points="168.573,-131.679 158.238,-134.012 167.772,-138.633 168.573,-131.679"/>
</g>
<!-- Node5 -->
<g id="node5" class="node"><title>Node5</title>
<g id="a_node5"><a xlink:href="../../da/d1e/class_segregation.html#ae51122aa23967e3e2af576026eb1d912" target="_top" xlink:title="Segregation.setUpInitial\lConfig">
<polygon fill="white" stroke="black" points="206.5,-88 206.5,-118 337.5,-118 337.5,-88 206.5,-88"/>
<text text-anchor="start" x="214.5" y="-106" font-family="Helvetica,sans-Serif" font-size="10.00">Segregation.setUpInitial</text>
<text text-anchor="middle" x="272" y="-95" font-family="Helvetica,sans-Serif" font-size="10.00">Config</text>
</a>
</g>
</g>
<!-- Node1&#45;&gt;Node5 -->
<g id="edge4" class="edge"><title>Node1&#45;&gt;Node5</title>
<path fill="none" stroke="midnightblue" d="M168.415,-114.816C181.171,-113.347 194.097,-111.858 206.275,-110.455"/>
<polygon fill="midnightblue" stroke="midnightblue" points="167.772,-111.367 158.238,-115.988 168.573,-118.321 167.772,-111.367"/>
</g>
<!-- Node6 -->
<g id="node6" class="node"><title>Node6</title>
<g id="a_node6"><a xlink:href="../../d2/d40/class_cellular_automata.html#ae0dc3747c80392dfc7d36e80e86805a5" target="_top" xlink:title="CellularAutomata.setUpInitial\lConfig">
<polygon fill="white" stroke="black" points="194,-39 194,-69 350,-69 350,-39 194,-39"/>
<text text-anchor="start" x="202" y="-57" font-family="Helvetica,sans-Serif" font-size="10.00">CellularAutomata.setUpInitial</text>
<text text-anchor="middle" x="272" y="-46" font-family="Helvetica,sans-Serif" font-size="10.00">Config</text>
</a>
</g>
</g>
<!-- Node1&#45;&gt;Node6 -->
<g id="edge5" class="edge"><title>Node1&#45;&gt;Node6</title>
<path fill="none" stroke="midnightblue" d="M124.715,-106.119C145.629,-97.5039 170.953,-87.3796 194,-79 203.246,-75.6381 213.193,-72.2456 222.766,-69.0905"/>
<polygon fill="midnightblue" stroke="midnightblue" points="123.34,-102.9 115.44,-109.959 126.018,-109.367 123.34,-102.9"/>
</g>
<!-- Node8 -->
<g id="node8" class="node"><title>Node8</title>
<g id="a_node8"><a xlink:href="../../d0/db0/class_wator.html#a0338ba17229ff94cb2310835a43c8513" target="_top" xlink:title="Wator.setUpInitialConfig">
<polygon fill="white" stroke="black" points="207.5,-0.5 207.5,-19.5 336.5,-19.5 336.5,-0.5 207.5,-0.5"/>
<text text-anchor="middle" x="272" y="-7.5" font-family="Helvetica,sans-Serif" font-size="10.00">Wator.setUpInitialConfig</text>
</a>
</g>
</g>
<!-- Node1&#45;&gt;Node8 -->
<g id="edge7" class="edge"><title>Node1&#45;&gt;Node8</title>
<path fill="none" stroke="midnightblue" d="M100.912,-102.571C122.31,-80.9197 157.509,-48.74 194,-30 202.355,-25.7095 211.704,-22.2871 220.929,-19.5745"/>
<polygon fill="midnightblue" stroke="midnightblue" points="98.3951,-100.139 93.9393,-109.751 103.417,-105.015 98.3951,-100.139"/>
</g>
<!-- Node7 -->
<g id="node7" class="node"><title>Node7</title>
<g id="a_node7"><a xlink:href="../../d2/d40/class_cellular_automata.html#a881bd9cb2208f3bff6fa64714eedf32f" target="_top" xlink:title="CellularAutomata.init">
<polygon fill="white" stroke="black" points="386.5,-44.5 386.5,-63.5 503.5,-63.5 503.5,-44.5 386.5,-44.5"/>
<text text-anchor="middle" x="445" y="-51.5" font-family="Helvetica,sans-Serif" font-size="10.00">CellularAutomata.init</text>
</a>
</g>
</g>
<!-- Node6&#45;&gt;Node7 -->
<g id="edge6" class="edge"><title>Node6&#45;&gt;Node7</title>
<path fill="none" stroke="midnightblue" d="M360.739,-54C369.472,-54 378.174,-54 386.48,-54"/>
<polygon fill="midnightblue" stroke="midnightblue" points="360.495,-50.5001 350.495,-54 360.495,-57.5001 360.495,-50.5001"/>
</g>
</g>
</svg>
