<?xml version="1.0" encoding="UTF-8" standalone="no"?>
<!DOCTYPE svg PUBLIC "-//W3C//DTD SVG 1.1//EN"
 "http://www.w3.org/Graphics/SVG/1.1/DTD/svg11.dtd">
<!-- Generated by graphviz version 2.36.0 (20140111.2315)
 -->
<!-- Title: CellularAutomata.getRandomDouble Pages: 1 -->
<svg width="536pt" height="192pt"
 viewBox="0.00 0.00 536.00 192.00" xmlns="http://www.w3.org/2000/svg" xmlns:xlink="http://www.w3.org/1999/xlink">
<g id="graph0" class="graph" transform="scale(1 1) rotate(0) translate(4 188)">
<title>CellularAutomata.getRandomDouble</title>
<polygon fill="white" stroke="none" points="-4,4 -4,-188 532,-188 532,4 -4,4"/>
<!-- Node1 -->
<g id="node1" class="node"><title>Node1</title>
<polygon fill="#bfbfbf" stroke="black" points="0,-83 0,-113 158,-113 158,-83 0,-83"/>
<text text-anchor="start" x="8" y="-101" font-family="Helvetica,sans-Serif" font-size="10.00">CellularAutomata.getRandom</text>
<text text-anchor="middle" x="79" y="-90" font-family="Helvetica,sans-Serif" font-size="10.00">Double</text>
</g>
<!-- Node2 -->
<g id="node2" class="node"><title>Node2</title>
<g id="a_node2"><a xlink:href="../../d9/df1/class_fire.html#accc21ae2162fd526d8ca66c472a62a28" target="_top" xlink:title="Fire.ruleTwo">
<polygon fill="white" stroke="black" points="238.5,-164.5 238.5,-183.5 309.5,-183.5 309.5,-164.5 238.5,-164.5"/>
<text text-anchor="middle" x="274" y="-171.5" font-family="Helvetica,sans-Serif" font-size="10.00">Fire.ruleTwo</text>
</a>
</g>
</g>
<!-- Node1&#45;&gt;Node2 -->
<g id="edge1" class="edge"><title>Node1&#45;&gt;Node2</title>
<path fill="none" stroke="midnightblue" d="M114.953,-118.084C137.053,-130.119 166.535,-144.979 194,-155 208.18,-160.173 224.307,-164.341 238.277,-167.441"/>
<polygon fill="midnightblue" stroke="midnightblue" points="116.407,-114.889 105.96,-113.121 113.025,-121.018 116.407,-114.889"/>
</g>
<!-- Node4 -->
<g id="node4" class="node"><title>Node4</title>
<g id="a_node4"><a xlink:href="../../d8/d84/class_game_of_life.html#aab00ca120baa15de020654ba9fe5d6d4" target="_top" xlink:title="GameOfLife.setUpInitialConfig">
<polygon fill="white" stroke="black" points="194.5,-126.5 194.5,-145.5 353.5,-145.5 353.5,-126.5 194.5,-126.5"/>
<text text-anchor="middle" x="274" y="-133.5" font-family="Helvetica,sans-Serif" font-size="10.00">GameOfLife.setUpInitialConfig</text>
</a>
</g>
</g>
<!-- Node1&#45;&gt;Node4 -->
<g id="edge3" class="edge"><title>Node1&#45;&gt;Node4</title>
<path fill="none" stroke="midnightblue" d="M166.094,-114.951C186.219,-118.914 206.955,-122.996 224.745,-126.499"/>
<polygon fill="midnightblue" stroke="midnightblue" points="166.767,-111.516 156.279,-113.019 165.414,-118.385 166.767,-111.516"/>
</g>
<!-- Node6 -->
<g id="node6" class="node"><title>Node6</title>
<g id="a_node6"><a xlink:href="../../d9/df1/class_fire.html#afd16418c5ea360c815613862a4ea1c33" target="_top" xlink:title="Fire.setUpInitialConfig">
<polygon fill="white" stroke="black" points="214.5,-88.5 214.5,-107.5 333.5,-107.5 333.5,-88.5 214.5,-88.5"/>
<text text-anchor="middle" x="274" y="-95.5" font-family="Helvetica,sans-Serif" font-size="10.00">Fire.setUpInitialConfig</text>
</a>
</g>
</g>
<!-- Node1&#45;&gt;Node6 -->
<g id="edge5" class="edge"><title>Node1&#45;&gt;Node6</title>
<path fill="none" stroke="midnightblue" d="M168.38,-98C183.925,-98 199.753,-98 214.235,-98"/>
<polygon fill="midnightblue" stroke="midnightblue" points="168.222,-94.5001 158.222,-98 168.222,-101.5 168.222,-94.5001"/>
</g>
<!-- Node8 -->
<g id="node8" class="node"><title>Node8</title>
<g id="a_node8"><a xlink:href="../../da/d1e/class_segregation.html#a983021f5ba3fc800655cb0c9de0ba08f" target="_top" xlink:title="Segregation.setUpInitial\lConfig">
<polygon fill="white" stroke="black" points="208.5,-39 208.5,-69 339.5,-69 339.5,-39 208.5,-39"/>
<text text-anchor="start" x="216.5" y="-57" font-family="Helvetica,sans-Serif" font-size="10.00">Segregation.setUpInitial</text>
<text text-anchor="middle" x="274" y="-46" font-family="Helvetica,sans-Serif" font-size="10.00">Config</text>
</a>
</g>
</g>
<!-- Node1&#45;&gt;Node8 -->
<g id="edge7" class="edge"><title>Node1&#45;&gt;Node8</title>
<path fill="none" stroke="midnightblue" d="M155.966,-80.6813C173.31,-76.7272 191.582,-72.5617 208.397,-68.7281"/>
<polygon fill="midnightblue" stroke="midnightblue" points="154.852,-77.3455 145.88,-82.9808 156.408,-84.1704 154.852,-77.3455"/>
</g>
<!-- Node10 -->
<g id="node10" class="node"><title>Node10</title>
<g id="a_node10"><a xlink:href="../../d0/db0/class_wator.html#a4ea39aef9488c7e03af93e711fe2e61e" target="_top" xlink:title="Wator.setUpInitialConfig">
<polygon fill="white" stroke="black" points="209.5,-0.5 209.5,-19.5 338.5,-19.5 338.5,-0.5 209.5,-0.5"/>
<text text-anchor="middle" x="274" y="-7.5" font-family="Helvetica,sans-Serif" font-size="10.00">Wator.setUpInitialConfig</text>
</a>
</g>
</g>
<!-- Node1&#45;&gt;Node10 -->
<g id="edge9" class="edge"><title>Node1&#45;&gt;Node10</title>
<path fill="none" stroke="midnightblue" d="M108.723,-77.1782C131.016,-61.8899 163.211,-41.6613 194,-29 203.132,-25.2445 213.177,-22.1221 222.953,-19.5675"/>
<polygon fill="midnightblue" stroke="midnightblue" points="106.603,-74.3898 100.396,-82.976 110.603,-80.1346 106.603,-74.3898"/>
</g>
<!-- Node3 -->
<g id="node3" class="node"><title>Node3</title>
<g id="a_node3"><a xlink:href="../../d9/df1/class_fire.html#a28764fd7310f7be3a246f5eaefd8887c" target="_top" xlink:title="Fire.checkRules">
<polygon fill="white" stroke="black" points="414.5,-164.5 414.5,-183.5 503.5,-183.5 503.5,-164.5 414.5,-164.5"/>
<text text-anchor="middle" x="459" y="-171.5" font-family="Helvetica,sans-Serif" font-size="10.00">Fire.checkRules</text>
</a>
</g>
</g>
<!-- Node2&#45;&gt;Node3 -->
<g id="edge2" class="edge"><title>Node2&#45;&gt;Node3</title>
<path fill="none" stroke="midnightblue" d="M320.022,-174C348.733,-174 385.757,-174 414.223,-174"/>
<polygon fill="midnightblue" stroke="midnightblue" points="319.852,-170.5 309.852,-174 319.852,-177.5 319.852,-170.5"/>
</g>
<!-- Node5 -->
<g id="node5" class="node"><title>Node5</title>
<g id="a_node5"><a xlink:href="../../d8/d84/class_game_of_life.html#ac0303caccaa6837b908bc295d75addc8" target="_top" xlink:title="GameOfLife.GameOfLife">
<polygon fill="white" stroke="black" points="393,-126.5 393,-145.5 525,-145.5 525,-126.5 393,-126.5"/>
<text text-anchor="middle" x="459" y="-133.5" font-family="Helvetica,sans-Serif" font-size="10.00">GameOfLife.GameOfLife</text>
</a>
</g>
</g>
<!-- Node4&#45;&gt;Node5 -->
<g id="edge4" class="edge"><title>Node4&#45;&gt;Node5</title>
<path fill="none" stroke="midnightblue" d="M363.838,-136C373.626,-136 383.456,-136 392.877,-136"/>
<polygon fill="midnightblue" stroke="midnightblue" points="363.671,-132.5 353.671,-136 363.67,-139.5 363.671,-132.5"/>
</g>
<!-- Node7 -->
<g id="node7" class="node"><title>Node7</title>
<g id="a_node7"><a xlink:href="../../d9/df1/class_fire.html#a70453ac9610d3591355b1f07432f6fc8" target="_top" xlink:title="Fire.Fire">
<polygon fill="white" stroke="black" points="432.5,-88.5 432.5,-107.5 485.5,-107.5 485.5,-88.5 432.5,-88.5"/>
<text text-anchor="middle" x="459" y="-95.5" font-family="Helvetica,sans-Serif" font-size="10.00">Fire.Fire</text>
</a>
</g>
</g>
<!-- Node6&#45;&gt;Node7 -->
<g id="edge6" class="edge"><title>Node6&#45;&gt;Node7</title>
<path fill="none" stroke="midnightblue" d="M343.971,-98C374.861,-98 409.404,-98 432.292,-98"/>
<polygon fill="midnightblue" stroke="midnightblue" points="343.657,-94.5001 333.657,-98 343.657,-101.5 343.657,-94.5001"/>
</g>
<!-- Node9 -->
<g id="node9" class="node"><title>Node9</title>
<g id="a_node9"><a xlink:href="../../da/d1e/class_segregation.html#adcbbd1f49861ddfed2793a3e3d26b4c5" target="_top" xlink:title="Segregation.Segregation">
<polygon fill="white" stroke="black" points="390.5,-44.5 390.5,-63.5 527.5,-63.5 527.5,-44.5 390.5,-44.5"/>
<text text-anchor="middle" x="459" y="-51.5" font-family="Helvetica,sans-Serif" font-size="10.00">Segregation.Segregation</text>
</a>
</g>
</g>
<!-- Node8&#45;&gt;Node9 -->
<g id="edge8" class="edge"><title>Node8&#45;&gt;Node9</title>
<path fill="none" stroke="midnightblue" d="M349.69,-54C363.146,-54 377.104,-54 390.345,-54"/>
<polygon fill="midnightblue" stroke="midnightblue" points="349.519,-50.5001 339.519,-54 349.519,-57.5001 349.519,-50.5001"/>
</g>
<!-- Node11 -->
<g id="node11" class="node"><title>Node11</title>
<g id="a_node11"><a xlink:href="../../d0/db0/class_wator.html#a17b00ee0207f7ce40fe9895cba407de0" target="_top" xlink:title="Wator.Wator">
<polygon fill="white" stroke="black" points="422.5,-0.5 422.5,-19.5 495.5,-19.5 495.5,-0.5 422.5,-0.5"/>
<text text-anchor="middle" x="459" y="-7.5" font-family="Helvetica,sans-Serif" font-size="10.00">Wator.Wator</text>
</a>
</g>
</g>
<!-- Node10&#45;&gt;Node11 -->
<g id="edge10" class="edge"><title>Node10&#45;&gt;Node11</title>
<path fill="none" stroke="midnightblue" d="M348.751,-10C374.17,-10 401.49,-10 422.451,-10"/>
<polygon fill="midnightblue" stroke="midnightblue" points="348.748,-6.5001 338.748,-10 348.748,-13.5001 348.748,-6.5001"/>
</g>
</g>
</svg>
