<?xml version="1.0" encoding="UTF-8" standalone="no"?>
<!DOCTYPE svg PUBLIC "-//W3C//DTD SVG 1.1//EN"
 "http://www.w3.org/Graphics/SVG/1.1/DTD/svg11.dtd">
<!-- Generated by graphviz version 2.36.0 (20140111.2315)
 -->
<!-- Title: CellularAutomata.getGrid Pages: 1 -->
<!--zoomable 564 -->
<svg id="main" version="1.1" xmlns="http://www.w3.org/2000/svg" xmlns:xlink="http://www.w3.org/1999/xlink" xml:space="preserve" onload="init(evt)">
<style type="text/css"><![CDATA[
.edge:hover path { stroke: red; }
.edge:hover polygon { stroke: red; fill: red; }
]]></style>
<script type="text/javascript"><![CDATA[
var edges = document.getElementsByTagName('g');
if (edges && edges.length) {
  for (var i=0;i<edges.length;i++) {
    if (edges[i].id.substr(0,4)=='edge') {
      edges[i].setAttribute('class','edge');
    }
  }
}
]]></script>
        <defs>
                <circle id="rim" cx="0" cy="0" r="7"/>
                <circle id="rim2" cx="0" cy="0" r="3.5"/>
                <g id="zoomPlus">
                        <use xlink:href="#rim" fill="#404040">
                                <set attributeName="fill" to="#808080" begin="zoomplus.mouseover" end="zoomplus.mouseout"/>
                        </use>
                        <path d="M-4,0h8M0,-4v8" fill="none" stroke="white" stroke-width="1.5" pointer-events="none"/>
                </g>
                <g id="zoomMin">
                        <use xlink:href="#rim" fill="#404040">
                                <set attributeName="fill" to="#808080" begin="zoomminus.mouseover" end="zoomminus.mouseout"/>
                        </use>
                        <path d="M-4,0h8" fill="none" stroke="white" stroke-width="1.5" pointer-events="none"/>
                </g>
                <g id="dirArrow">
                        <path fill="none" stroke="white" stroke-width="1.5" d="M0,-3.0v7 M-2.5,-0.5L0,-3.0L2.5,-0.5"/>
                </g>
               <g id="resetDef">
                       <use xlink:href="#rim2" fill="#404040">
                               <set attributeName="fill" to="#808080" begin="reset.mouseover" end="reset.mouseout"/>
                       </use>
               </g>
        </defs>

<script type="text/javascript">
var viewWidth = 1900;
var viewHeight = 564;
var sectionId = 'dynsection-4';
</script>
<script xlink:href="../../svgpan.js"/>
<svg id="graph" class="graph">
<g id="viewport">
<title>CellularAutomata.getGrid</title>
<polygon fill="white" stroke="none" points="-4,4 -4,-560 1896,-560 1896,4 -4,4"/>
<!-- Node1 -->
<g id="node1" class="node"><title>Node1</title>
<polygon fill="#bfbfbf" stroke="black" points="0,-270.5 0,-289.5 138,-289.5 138,-270.5 0,-270.5"/>
<text text-anchor="middle" x="69" y="-277.5" font-family="Helvetica,sans-Serif" font-size="10.00">CellularAutomata.getGrid</text>
</g>
<!-- Node2 -->
<g id="node2" class="node"><title>Node2</title>
<g id="a_node2"><a xlink:href="../../d9/df1/class_fire.html#a65c7d316a113807e7bdf626a789e2bf5" target="_top" xlink:title="Fire.checkNextToFire">
<polygon fill="white" stroke="black" points="202.5,-517.5 202.5,-536.5 315.5,-536.5 315.5,-517.5 202.5,-517.5"/>
<text text-anchor="middle" x="259" y="-524.5" font-family="Helvetica,sans-Serif" font-size="10.00">Fire.checkNextToFire</text>
</a>
</g>
</g>
<!-- Node1&#45;&gt;Node2 -->
<g id="edge1" class="edge"><title>Node1&#45;&gt;Node2</title>
<path fill="none" stroke="midnightblue" d="M72.9963,-299.714C80.8478,-344.236 106.302,-452.958 174,-508 182.121,-514.603 192.081,-519.015 202.268,-521.941"/>
<polygon fill="midnightblue" stroke="midnightblue" points="76.4127,-298.921 71.3298,-289.625 69.5063,-300.061 76.4127,-298.921"/>
</g>
<!-- Node5 -->
<g id="node5" class="node"><title>Node5</title>
<g id="a_node5"><a xlink:href="../../d8/d84/class_game_of_life.html#ae3bc4975c6e75164f5661d35cf3c97d0" target="_top" xlink:title="GameOfLife.checkRules">
<polygon fill="white" stroke="black" points="195,-479.5 195,-498.5 323,-498.5 323,-479.5 195,-479.5"/>
<text text-anchor="middle" x="259" y="-486.5" font-family="Helvetica,sans-Serif" font-size="10.00">GameOfLife.checkRules</text>
</a>
</g>
</g>
<!-- Node1&#45;&gt;Node5 -->
<g id="edge4" class="edge"><title>Node1&#45;&gt;Node5</title>
<path fill="none" stroke="midnightblue" d="M74.8969,-299.586C85.6998,-338.545 115.399,-425.801 174,-470 180.207,-474.682 187.359,-478.246 194.814,-480.952"/>
<polygon fill="midnightblue" stroke="midnightblue" points="78.2357,-298.522 72.2915,-289.751 71.4691,-300.314 78.2357,-298.522"/>
</g>
<!-- Node6 -->
<g id="node6" class="node"><title>Node6</title>
<g id="a_node6"><a xlink:href="../../d2/d40/class_cellular_automata.html#ab6b9e3ca964f405470ec0acc064d9b3a" target="_top" xlink:title="CellularAutomata.checkRules">
<polygon fill="white" stroke="black" points="181.5,-441.5 181.5,-460.5 336.5,-460.5 336.5,-441.5 181.5,-441.5"/>
<text text-anchor="middle" x="259" y="-448.5" font-family="Helvetica,sans-Serif" font-size="10.00">CellularAutomata.checkRules</text>
</a>
</g>
</g>
<!-- Node1&#45;&gt;Node6 -->
<g id="edge5" class="edge"><title>Node1&#45;&gt;Node6</title>
<path fill="none" stroke="midnightblue" d="M77.4592,-299.02C91.2886,-331.668 124.116,-398.121 174,-432 179.69,-435.864 186.047,-438.953 192.648,-441.421"/>
<polygon fill="midnightblue" stroke="midnightblue" points="80.6679,-297.62 73.6391,-289.692 74.19,-300.273 80.6679,-297.62"/>
</g>
<!-- Node11 -->
<g id="node11" class="node"><title>Node11</title>
<g id="a_node11"><a xlink:href="../../df/df8/class_cell_society_view.html#a6a72ed4ee014a9c3f0368ab26be873d6" target="_top" xlink:title="CellSocietyView.makeCAGame">
<polygon fill="white" stroke="black" points="1158.5,-403.5 1158.5,-422.5 1321.5,-422.5 1321.5,-403.5 1158.5,-403.5"/>
<text text-anchor="middle" x="1240" y="-410.5" font-family="Helvetica,sans-Serif" font-size="10.00">CellSocietyView.makeCAGame</text>
</a>
</g>
</g>
<!-- Node1&#45;&gt;Node11 -->
<g id="edge22" class="edge"><title>Node1&#45;&gt;Node11</title>
<path fill="none" stroke="midnightblue" d="M86.4968,-296.803C105.631,-315.065 139.047,-343.332 174,-356 297.521,-400.767 337.617,-375 469,-375 469,-375 469,-375 855,-375 973.967,-375 1003.83,-380.229 1122,-394 1143.26,-396.477 1166.55,-400.078 1186.72,-403.48"/>
<polygon fill="midnightblue" stroke="midnightblue" points="88.801,-294.16 79.208,-289.663 83.9026,-299.161 88.801,-294.16"/>
</g>
<!-- Node16 -->
<g id="node16" class="node"><title>Node16</title>
<g id="a_node16"><a xlink:href="../../da/d1e/class_segregation.html#ae7696748513b436c2578ff68b02d889d" target="_top" xlink:title="Segregation.getSamePercent">
<polygon fill="white" stroke="black" points="179.5,-327.5 179.5,-346.5 338.5,-346.5 338.5,-327.5 179.5,-327.5"/>
<text text-anchor="middle" x="259" y="-334.5" font-family="Helvetica,sans-Serif" font-size="10.00">Segregation.getSamePercent</text>
</a>
</g>
</g>
<!-- Node1&#45;&gt;Node16 -->
<g id="edge17" class="edge"><title>Node1&#45;&gt;Node16</title>
<path fill="none" stroke="midnightblue" d="M103.068,-293.312C123.329,-301.159 149.913,-310.907 174,-318 185.905,-321.506 198.92,-324.735 211.074,-327.499"/>
<polygon fill="midnightblue" stroke="midnightblue" points="104.257,-290.018 93.6687,-289.632 101.705,-296.537 104.257,-290.018"/>
</g>
<!-- Node19 -->
<g id="node19" class="node"><title>Node19</title>
<g id="a_node19"><a xlink:href="../../d2/d40/class_cellular_automata.html#ab39b5164764f20382801aa9a4663eb4b" target="_top" xlink:title="CellularAutomata.handleUpdate">
<polygon fill="white" stroke="black" points="174,-403.5 174,-422.5 344,-422.5 344,-403.5 174,-403.5"/>
<text text-anchor="middle" x="259" y="-410.5" font-family="Helvetica,sans-Serif" font-size="10.00">CellularAutomata.handleUpdate</text>
</a>
</g>
</g>
<!-- Node1&#45;&gt;Node19 -->
<g id="edge20" class="edge"><title>Node1&#45;&gt;Node19</title>
<path fill="none" stroke="midnightblue" d="M82.4415,-298.117C100.041,-322.379 134.499,-365.129 174,-389 184.385,-395.276 196.482,-399.973 208.207,-403.465"/>
<polygon fill="midnightblue" stroke="midnightblue" points="85.1851,-295.935 76.5463,-289.801 79.4746,-299.983 85.1851,-295.935"/>
</g>
<!-- Node20 -->
<g id="node20" class="node"><title>Node20</title>
<g id="a_node20"><a xlink:href="../../d0/db0/class_wator.html#a0afccb8f97e33c1d21e51ee1a3f4922b" target="_top" xlink:title="Wator.ruleOne">
<polygon fill="white" stroke="black" points="217.5,-289.5 217.5,-308.5 300.5,-308.5 300.5,-289.5 217.5,-289.5"/>
<text text-anchor="middle" x="259" y="-296.5" font-family="Helvetica,sans-Serif" font-size="10.00">Wator.ruleOne</text>
</a>
</g>
</g>
<!-- Node1&#45;&gt;Node20 -->
<g id="edge23" class="edge"><title>Node1&#45;&gt;Node20</title>
<path fill="none" stroke="midnightblue" d="M148.23,-287.906C172.018,-290.31 197.193,-292.855 217.425,-294.899"/>
<polygon fill="midnightblue" stroke="midnightblue" points="148.439,-284.41 138.138,-286.886 147.735,-291.374 148.439,-284.41"/>
</g>
<!-- Node22 -->
<g id="node22" class="node"><title>Node22</title>
<g id="a_node22"><a xlink:href="../../d8/d84/class_game_of_life.html#aca7cd11a349cf14c940011021f91127f" target="_top" xlink:title="GameOfLife.ruleOne">
<polygon fill="white" stroke="black" points="202.5,-251.5 202.5,-270.5 315.5,-270.5 315.5,-251.5 202.5,-251.5"/>
<text text-anchor="middle" x="259" y="-258.5" font-family="Helvetica,sans-Serif" font-size="10.00">GameOfLife.ruleOne</text>
</a>
</g>
</g>
<!-- Node1&#45;&gt;Node22 -->
<g id="edge25" class="edge"><title>Node1&#45;&gt;Node22</title>
<path fill="none" stroke="midnightblue" d="M148.159,-272.101C166.381,-270.259 185.421,-268.335 202.432,-266.616"/>
<polygon fill="midnightblue" stroke="midnightblue" points="147.735,-268.626 138.138,-273.114 148.439,-275.59 147.735,-268.626"/>
</g>
<!-- Node23 -->
<g id="node23" class="node"><title>Node23</title>
<g id="a_node23"><a xlink:href="../../d8/d84/class_game_of_life.html#a6b6c946c47342fd7e4595710d72a9217" target="_top" xlink:title="GameOfLife.ruleTwo">
<polygon fill="white" stroke="black" points="204,-213.5 204,-232.5 314,-232.5 314,-213.5 204,-213.5"/>
<text text-anchor="middle" x="259" y="-220.5" font-family="Helvetica,sans-Serif" font-size="10.00">GameOfLife.ruleTwo</text>
</a>
</g>
</g>
<!-- Node1&#45;&gt;Node23 -->
<g id="edge26" class="edge"><title>Node1&#45;&gt;Node23</title>
<path fill="none" stroke="midnightblue" d="M103.068,-266.688C123.329,-258.841 149.913,-249.093 174,-242 185.905,-238.494 198.92,-235.265 211.074,-232.501"/>
<polygon fill="midnightblue" stroke="midnightblue" points="101.705,-263.463 93.6687,-270.368 104.257,-269.982 101.705,-263.463"/>
</g>
<!-- Node24 -->
<g id="node24" class="node"><title>Node24</title>
<g id="a_node24"><a xlink:href="../../d0/db0/class_wator.html#aa8dba59120d9d6d7d7521f3a4ee7b454" target="_top" xlink:title="Wator.ruleTwo">
<polygon fill="white" stroke="black" points="219,-175.5 219,-194.5 299,-194.5 299,-175.5 219,-175.5"/>
<text text-anchor="middle" x="259" y="-182.5" font-family="Helvetica,sans-Serif" font-size="10.00">Wator.ruleTwo</text>
</a>
</g>
</g>
<!-- Node1&#45;&gt;Node24 -->
<g id="edge27" class="edge"><title>Node1&#45;&gt;Node24</title>
<path fill="none" stroke="midnightblue" d="M87.5266,-263.649C107.119,-246.266 140.513,-219.227 174,-204 188.019,-197.625 204.355,-193.305 218.874,-190.417"/>
<polygon fill="midnightblue" stroke="midnightblue" points="85.082,-261.141 80.0145,-270.445 89.7782,-266.332 85.082,-261.141"/>
</g>
<!-- Node25 -->
<g id="node25" class="node"><title>Node25</title>
<g id="a_node25"><a xlink:href="../../d9/df1/class_fire.html#afd16418c5ea360c815613862a4ea1c33" target="_top" xlink:title="Fire.setUpInitialConfig">
<polygon fill="white" stroke="black" points="199.5,-137.5 199.5,-156.5 318.5,-156.5 318.5,-137.5 199.5,-137.5"/>
<text text-anchor="middle" x="259" y="-144.5" font-family="Helvetica,sans-Serif" font-size="10.00">Fire.setUpInitialConfig</text>
</a>
</g>
</g>
<!-- Node1&#45;&gt;Node25 -->
<g id="edge29" class="edge"><title>Node1&#45;&gt;Node25</title>
<path fill="none" stroke="midnightblue" d="M81.3117,-261.815C98.2119,-236.248 132.545,-190.114 174,-166 181.755,-161.489 190.488,-158.049 199.317,-155.426"/>
<polygon fill="midnightblue" stroke="midnightblue" points="78.3673,-259.922 75.8931,-270.224 84.2516,-263.714 78.3673,-259.922"/>
</g>
<!-- Node26 -->
<g id="node26" class="node"><title>Node26</title>
<g id="a_node26"><a xlink:href="../../da/d1e/class_segregation.html#ae51122aa23967e3e2af576026eb1d912" target="_top" xlink:title="Segregation.setUpInitial\lConfig">
<polygon fill="white" stroke="black" points="193.5,-88 193.5,-118 324.5,-118 324.5,-88 193.5,-88"/>
<text text-anchor="start" x="201.5" y="-106" font-family="Helvetica,sans-Serif" font-size="10.00">Segregation.setUpInitial</text>
<text text-anchor="middle" x="259" y="-95" font-family="Helvetica,sans-Serif" font-size="10.00">Config</text>
</a>
</g>
</g>
<!-- Node1&#45;&gt;Node26 -->
<g id="edge30" class="edge"><title>Node1&#45;&gt;Node26</title>
<path fill="none" stroke="midnightblue" d="M77.8859,-260.903C92.1885,-228.631 125.486,-163.373 174,-128 179.901,-123.697 186.543,-120.129 193.439,-117.171"/>
<polygon fill="midnightblue" stroke="midnightblue" points="74.4981,-259.922 73.7691,-270.492 80.9303,-262.684 74.4981,-259.922"/>
</g>
<!-- Node27 -->
<g id="node27" class="node"><title>Node27</title>
<g id="a_node27"><a xlink:href="../../d2/d40/class_cellular_automata.html#ae0dc3747c80392dfc7d36e80e86805a5" target="_top" xlink:title="CellularAutomata.setUpInitial\lConfig">
<polygon fill="white" stroke="black" points="181,-39 181,-69 337,-69 337,-39 181,-39"/>
<text text-anchor="start" x="189" y="-57" font-family="Helvetica,sans-Serif" font-size="10.00">CellularAutomata.setUpInitial</text>
<text text-anchor="middle" x="259" y="-46" font-family="Helvetica,sans-Serif" font-size="10.00">Config</text>
</a>
</g>
</g>
<!-- Node1&#45;&gt;Node27 -->
<g id="edge31" class="edge"><title>Node1&#45;&gt;Node27</title>
<path fill="none" stroke="midnightblue" d="M74.5995,-260.464C85.0694,-220.326 114.512,-128.227 174,-79 178.689,-75.1198 183.963,-71.8419 189.526,-69.0727"/>
<polygon fill="midnightblue" stroke="midnightblue" points="71.1633,-259.779 72.1404,-270.329 77.9555,-261.472 71.1633,-259.779"/>
</g>
<!-- Node29 -->
<g id="node29" class="node"><title>Node29</title>
<g id="a_node29"><a xlink:href="../../d0/db0/class_wator.html#a0338ba17229ff94cb2310835a43c8513" target="_top" xlink:title="Wator.setUpInitialConfig">
<polygon fill="white" stroke="black" points="194.5,-0.5 194.5,-19.5 323.5,-19.5 323.5,-0.5 194.5,-0.5"/>
<text text-anchor="middle" x="259" y="-7.5" font-family="Helvetica,sans-Serif" font-size="10.00">Wator.setUpInitialConfig</text>
</a>
</g>
</g>
<!-- Node1&#45;&gt;Node29 -->
<g id="edge33" class="edge"><title>Node1&#45;&gt;Node29</title>
<path fill="none" stroke="midnightblue" d="M72.2036,-260.089C78.5649,-212.549 101.41,-91.7847 174,-30 179.936,-24.9474 186.927,-21.1223 194.298,-18.2344"/>
<polygon fill="midnightblue" stroke="midnightblue" points="68.6971,-259.928 70.9477,-270.281 75.6445,-260.785 68.6971,-259.928"/>
</g>
<!-- Node3 -->
<g id="node3" class="node"><title>Node3</title>
<g id="a_node3"><a xlink:href="../../d9/df1/class_fire.html#a9848867ebe2faddb27dfd0994cb565a8" target="_top" xlink:title="Fire.checkRules">
<polygon fill="white" stroke="black" points="425.5,-536.5 425.5,-555.5 514.5,-555.5 514.5,-536.5 425.5,-536.5"/>
<text text-anchor="middle" x="470" y="-543.5" font-family="Helvetica,sans-Serif" font-size="10.00">Fire.checkRules</text>
</a>
</g>
</g>
<!-- Node2&#45;&gt;Node3 -->
<g id="edge2" class="edge"><title>Node2&#45;&gt;Node3</title>
<path fill="none" stroke="midnightblue" d="M326.035,-533.003C358.443,-535.949 396.586,-539.417 425.32,-542.029"/>
<polygon fill="midnightblue" stroke="midnightblue" points="326.009,-529.487 315.734,-532.067 325.376,-536.458 326.009,-529.487"/>
</g>
<!-- Node4 -->
<g id="node4" class="node"><title>Node4</title>
<g id="a_node4"><a xlink:href="../../d9/df1/class_fire.html#accc21ae2162fd526d8ca66c472a62a28" target="_top" xlink:title="Fire.ruleTwo">
<polygon fill="white" stroke="black" points="434.5,-498.5 434.5,-517.5 505.5,-517.5 505.5,-498.5 434.5,-498.5"/>
<text text-anchor="middle" x="470" y="-505.5" font-family="Helvetica,sans-Serif" font-size="10.00">Fire.ruleTwo</text>
</a>
</g>
</g>
<!-- Node2&#45;&gt;Node4 -->
<g id="edge3" class="edge"><title>Node2&#45;&gt;Node4</title>
<path fill="none" stroke="midnightblue" d="M326.147,-520.987C362.073,-517.721 405.021,-513.816 434.382,-511.147"/>
<polygon fill="midnightblue" stroke="midnightblue" points="325.376,-517.542 315.734,-521.933 326.009,-524.513 325.376,-517.542"/>
</g>
<!-- Node7 -->
<g id="node7" class="node"><title>Node7</title>
<g id="a_node7"><a xlink:href="../../d2/d40/class_cellular_automata.html#a8f4c8a2f32137db67dd31f5afb4b62c3" target="_top" xlink:title="CellularAutomata.updateNextGen">
<polygon fill="white" stroke="black" points="380.5,-422.5 380.5,-441.5 559.5,-441.5 559.5,-422.5 380.5,-422.5"/>
<text text-anchor="middle" x="470" y="-429.5" font-family="Helvetica,sans-Serif" font-size="10.00">CellularAutomata.updateNextGen</text>
</a>
</g>
</g>
<!-- Node6&#45;&gt;Node7 -->
<g id="edge6" class="edge"><title>Node6&#45;&gt;Node7</title>
<path fill="none" stroke="midnightblue" d="M346.738,-443.115C357.837,-442.106 369.212,-441.072 380.342,-440.06"/>
<polygon fill="midnightblue" stroke="midnightblue" points="346.279,-439.642 336.637,-444.033 346.913,-446.613 346.279,-439.642"/>
</g>
<!-- Node8 -->
<g id="node8" class="node"><title>Node8</title>
<g id="a_node8"><a xlink:href="../../df/df8/class_cell_society_view.html#ad52b914fa03b45d8bc9d64fc407660f3" target="_top" xlink:title="CellSocietyView.updateView">
<polygon fill="white" stroke="black" points="596.5,-422.5 596.5,-441.5 745.5,-441.5 745.5,-422.5 596.5,-422.5"/>
<text text-anchor="middle" x="671" y="-429.5" font-family="Helvetica,sans-Serif" font-size="10.00">CellSocietyView.updateView</text>
</a>
</g>
</g>
<!-- Node7&#45;&gt;Node8 -->
<g id="edge7" class="edge"><title>Node7&#45;&gt;Node8</title>
<path fill="none" stroke="midnightblue" d="M569.8,-432C578.732,-432 587.672,-432 596.332,-432"/>
<polygon fill="midnightblue" stroke="midnightblue" points="569.733,-428.5 559.733,-432 569.733,-435.5 569.733,-428.5"/>
</g>
<!-- Node9 -->
<g id="node9" class="node"><title>Node9</title>
<g id="a_node9"><a xlink:href="../../df/df8/class_cell_society_view.html#aec6e94a6cf275f0b5d64a4b8adccd7d0" target="_top" xlink:title="CellSocietyView.makeStep\lButton">
<polygon fill="white" stroke="black" points="782.5,-442 782.5,-472 925.5,-472 925.5,-442 782.5,-442"/>
<text text-anchor="start" x="790.5" y="-460" font-family="Helvetica,sans-Serif" font-size="10.00">CellSocietyView.makeStep</text>
<text text-anchor="middle" x="854" y="-449" font-family="Helvetica,sans-Serif" font-size="10.00">Button</text>
</a>
</g>
</g>
<!-- Node8&#45;&gt;Node9 -->
<g id="edge8" class="edge"><title>Node8&#45;&gt;Node9</title>
<path fill="none" stroke="midnightblue" d="M750.919,-442.9C761.409,-444.349 772.11,-445.827 782.446,-447.255"/>
<polygon fill="midnightblue" stroke="midnightblue" points="751.33,-439.424 740.945,-441.523 750.372,-446.358 751.33,-439.424"/>
</g>
<!-- Node15 -->
<g id="node15" class="node"><title>Node15</title>
<g id="a_node15"><a xlink:href="../../df/df8/class_cell_society_view.html#adf6a6b0542d00677a9fffbb8e3c03ffe" target="_top" xlink:title="CellSocietyView.makeTimeline">
<polygon fill="white" stroke="black" points="962,-403.5 962,-422.5 1122,-422.5 1122,-403.5 962,-403.5"/>
<text text-anchor="middle" x="1042" y="-410.5" font-family="Helvetica,sans-Serif" font-size="10.00">CellSocietyView.makeTimeline</text>
</a>
</g>
</g>
<!-- Node8&#45;&gt;Node15 -->
<g id="edge15" class="edge"><title>Node8&#45;&gt;Node15</title>
<path fill="none" stroke="midnightblue" d="M755.902,-427.68C817.727,-424.496 901.261,-420.195 961.917,-417.072"/>
<polygon fill="midnightblue" stroke="midnightblue" points="755.593,-424.191 745.786,-428.201 755.953,-431.182 755.593,-424.191"/>
</g>
<!-- Node10 -->
<g id="node10" class="node"><title>Node10</title>
<g id="a_node10"><a xlink:href="../../df/df8/class_cell_society_view.html#a7bdbd4e8fd3893e672eb22015603f6dc" target="_top" xlink:title="CellSocietyView.makeButtons">
<polygon fill="white" stroke="black" points="963,-441.5 963,-460.5 1121,-460.5 1121,-441.5 963,-441.5"/>
<text text-anchor="middle" x="1042" y="-448.5" font-family="Helvetica,sans-Serif" font-size="10.00">CellSocietyView.makeButtons</text>
</a>
</g>
</g>
<!-- Node9&#45;&gt;Node10 -->
<g id="edge9" class="edge"><title>Node9&#45;&gt;Node10</title>
<path fill="none" stroke="midnightblue" d="M935.635,-454.399C944.612,-454.109 953.746,-453.815 962.693,-453.526"/>
<polygon fill="midnightblue" stroke="midnightblue" points="935.466,-450.902 925.584,-454.723 935.692,-457.899 935.466,-450.902"/>
</g>
<!-- Node10&#45;&gt;Node11 -->
<g id="edge10" class="edge"><title>Node10&#45;&gt;Node11</title>
<path fill="none" stroke="midnightblue" d="M1102.26,-439.511C1130.23,-434.089 1163.21,-427.694 1189.77,-422.544"/>
<polygon fill="midnightblue" stroke="midnightblue" points="1101.36,-436.121 1092.21,-441.46 1102.69,-442.993 1101.36,-436.121"/>
</g>
<!-- Node12 -->
<g id="node12" class="node"><title>Node12</title>
<g id="a_node12"><a xlink:href="../../df/df8/class_cell_society_view.html#a2c047a3972078bb0a5490ed225ef2dfa" target="_top" xlink:title="CellSocietyView.loadNewFile">
<polygon fill="white" stroke="black" points="1358.5,-403.5 1358.5,-422.5 1507.5,-422.5 1507.5,-403.5 1358.5,-403.5"/>
<text text-anchor="middle" x="1433" y="-410.5" font-family="Helvetica,sans-Serif" font-size="10.00">CellSocietyView.loadNewFile</text>
</a>
</g>
</g>
<!-- Node11&#45;&gt;Node12 -->
<g id="edge11" class="edge"><title>Node11&#45;&gt;Node12</title>
<path fill="none" stroke="midnightblue" d="M1332.01,-413C1340.8,-413 1349.64,-413 1358.24,-413"/>
<polygon fill="midnightblue" stroke="midnightblue" points="1331.72,-409.5 1321.72,-413 1331.72,-416.5 1331.72,-409.5"/>
</g>
<!-- Node13 -->
<g id="node13" class="node"><title>Node13</title>
<g id="a_node13"><a xlink:href="../../df/df8/class_cell_society_view.html#a656cfed0ba32bc41bbd0c4087860db4b" target="_top" xlink:title="CellSocietyView.makeLoad\lButton">
<polygon fill="white" stroke="black" points="1544.5,-417 1544.5,-447 1687.5,-447 1687.5,-417 1544.5,-417"/>
<text text-anchor="start" x="1552.5" y="-435" font-family="Helvetica,sans-Serif" font-size="10.00">CellSocietyView.makeLoad</text>
<text text-anchor="middle" x="1616" y="-424" font-family="Helvetica,sans-Serif" font-size="10.00">Button</text>
</a>
</g>
</g>
<!-- Node12&#45;&gt;Node13 -->
<g id="edge12" class="edge"><title>Node12&#45;&gt;Node13</title>
<path fill="none" stroke="midnightblue" d="M1517.65,-421.781C1526.59,-422.719 1535.61,-423.666 1544.37,-424.586"/>
<polygon fill="midnightblue" stroke="midnightblue" points="1517.93,-418.291 1507.62,-420.728 1517.2,-425.253 1517.93,-418.291"/>
</g>
<!-- Node13&#45;&gt;Node10 -->
<g id="edge14" class="edge"><title>Node13&#45;&gt;Node10</title>
<path fill="none" stroke="midnightblue" d="M1534.23,-434.683C1424.44,-438.33 1229.39,-444.809 1121.04,-448.408"/>
<polygon fill="midnightblue" stroke="midnightblue" points="1534.38,-438.18 1544.26,-434.35 1534.15,-431.184 1534.38,-438.18"/>
</g>
<!-- Node14 -->
<g id="node14" class="node"><title>Node14</title>
<g id="a_node14"><a xlink:href="../../df/df8/class_cell_society_view.html#a53ab66afdeb23b3fc89e54a44be7ced5" target="_top" xlink:title="CellSocietyView.CellSocietyView">
<polygon fill="white" stroke="black" points="1724.5,-422.5 1724.5,-441.5 1891.5,-441.5 1891.5,-422.5 1724.5,-422.5"/>
<text text-anchor="middle" x="1808" y="-429.5" font-family="Helvetica,sans-Serif" font-size="10.00">CellSocietyView.CellSocietyView</text>
</a>
</g>
</g>
<!-- Node13&#45;&gt;Node14 -->
<g id="edge13" class="edge"><title>Node13&#45;&gt;Node14</title>
<path fill="none" stroke="midnightblue" d="M1697.92,-432C1706.66,-432 1715.57,-432 1724.33,-432"/>
<polygon fill="midnightblue" stroke="midnightblue" points="1697.75,-428.5 1687.75,-432 1697.75,-435.5 1697.75,-428.5"/>
</g>
<!-- Node15&#45;&gt;Node11 -->
<g id="edge16" class="edge"><title>Node15&#45;&gt;Node11</title>
<path fill="none" stroke="midnightblue" d="M1132.27,-413C1140.94,-413 1149.7,-413 1158.27,-413"/>
<polygon fill="midnightblue" stroke="midnightblue" points="1132.16,-409.5 1122.16,-413 1132.16,-416.5 1132.16,-409.5"/>
</g>
<!-- Node17 -->
<g id="node17" class="node"><title>Node17</title>
<g id="a_node17"><a xlink:href="../../da/d1e/class_segregation.html#a65706fcdb683f11f27836d3f4c591f3c" target="_top" xlink:title="Segregation.ruleOne">
<polygon fill="white" stroke="black" points="412,-327.5 412,-346.5 528,-346.5 528,-327.5 412,-327.5"/>
<text text-anchor="middle" x="470" y="-334.5" font-family="Helvetica,sans-Serif" font-size="10.00">Segregation.ruleOne</text>
</a>
</g>
</g>
<!-- Node16&#45;&gt;Node17 -->
<g id="edge18" class="edge"><title>Node16&#45;&gt;Node17</title>
<path fill="none" stroke="midnightblue" d="M348.779,-337C370.133,-337 392.383,-337 411.852,-337"/>
<polygon fill="midnightblue" stroke="midnightblue" points="348.716,-333.5 338.716,-337 348.716,-340.5 348.716,-333.5"/>
</g>
<!-- Node18 -->
<g id="node18" class="node"><title>Node18</title>
<g id="a_node18"><a xlink:href="../../da/d1e/class_segregation.html#a8272e13082766c6c6d45fc1e58acd6dc" target="_top" xlink:title="Segregation.checkRules">
<polygon fill="white" stroke="black" points="605.5,-327.5 605.5,-346.5 736.5,-346.5 736.5,-327.5 605.5,-327.5"/>
<text text-anchor="middle" x="671" y="-334.5" font-family="Helvetica,sans-Serif" font-size="10.00">Segregation.checkRules</text>
</a>
</g>
</g>
<!-- Node17&#45;&gt;Node18 -->
<g id="edge19" class="edge"><title>Node17&#45;&gt;Node18</title>
<path fill="none" stroke="midnightblue" d="M538.129,-337C559.798,-337 583.766,-337 605.259,-337"/>
<polygon fill="midnightblue" stroke="midnightblue" points="538.025,-333.5 528.025,-337 538.025,-340.5 538.025,-333.5"/>
</g>
<!-- Node19&#45;&gt;Node7 -->
<g id="edge21" class="edge"><title>Node19&#45;&gt;Node7</title>
<path fill="none" stroke="midnightblue" d="M354.227,-421.566C362.899,-422.354 371.666,-423.151 380.286,-423.935"/>
<polygon fill="midnightblue" stroke="midnightblue" points="354.381,-418.066 344.105,-420.646 353.747,-425.037 354.381,-418.066"/>
</g>
<!-- Node21 -->
<g id="node21" class="node"><title>Node21</title>
<g id="a_node21"><a xlink:href="../../d0/db0/class_wator.html#a422810cdcb035633301b3469cbee5e34" target="_top" xlink:title="Wator.checkRules">
<polygon fill="white" stroke="black" points="421,-232.5 421,-251.5 519,-251.5 519,-232.5 421,-232.5"/>
<text text-anchor="middle" x="470" y="-239.5" font-family="Helvetica,sans-Serif" font-size="10.00">Wator.checkRules</text>
</a>
</g>
</g>
<!-- Node20&#45;&gt;Node21 -->
<g id="edge24" class="edge"><title>Node20&#45;&gt;Node21</title>
<path fill="none" stroke="midnightblue" d="M310.665,-288.165C321.69,-285.633 333.266,-282.842 344,-280 377.109,-271.235 414.649,-259.589 439.874,-251.511"/>
<polygon fill="midnightblue" stroke="midnightblue" points="309.716,-284.792 300.734,-290.411 311.26,-291.619 309.716,-284.792"/>
</g>
<!-- Node24&#45;&gt;Node21 -->
<g id="edge28" class="edge"><title>Node24&#45;&gt;Node21</title>
<path fill="none" stroke="midnightblue" d="M308.954,-195.443C320.487,-198.077 332.709,-201.011 344,-204 377.109,-212.765 414.649,-224.411 439.874,-232.489"/>
<polygon fill="midnightblue" stroke="midnightblue" points="309.561,-191.992 299.037,-193.211 308.025,-198.821 309.561,-191.992"/>
</g>
<!-- Node28 -->
<g id="node28" class="node"><title>Node28</title>
<g id="a_node28"><a xlink:href="../../d2/d40/class_cellular_automata.html#a881bd9cb2208f3bff6fa64714eedf32f" target="_top" xlink:title="CellularAutomata.init">
<polygon fill="white" stroke="black" points="411.5,-44.5 411.5,-63.5 528.5,-63.5 528.5,-44.5 411.5,-44.5"/>
<text text-anchor="middle" x="470" y="-51.5" font-family="Helvetica,sans-Serif" font-size="10.00">CellularAutomata.init</text>
</a>
</g>
</g>
<!-- Node27&#45;&gt;Node28 -->
<g id="edge32" class="edge"><title>Node27&#45;&gt;Node28</title>
<path fill="none" stroke="midnightblue" d="M347.399,-54C368.993,-54 391.589,-54 411.361,-54"/>
<polygon fill="midnightblue" stroke="midnightblue" points="347.23,-50.5001 337.23,-54 347.23,-57.5001 347.23,-50.5001"/>
</g>
</g>
</svg>
        <g id="navigator" transform="translate(0 0)" fill="#404254">
                <rect fill="#f2f5e9" fill-opacity="0.5" stroke="#606060" stroke-width=".5" x="0" y="0" width="60" height="60"/>
                <use id="zoomplus" xlink:href="#zoomPlus" x="17" y="9" onmousedown="handleZoom(evt,'in')"/>
                <use id="zoomminus" xlink:href="#zoomMin" x="42" y="9" onmousedown="handleZoom(evt,'out')"/>
                <use id="reset" xlink:href="#resetDef" x="30" y="36" onmousedown="handleReset()"/>
                <g id="arrowUp" xlink:href="#dirArrow" transform="translate(30 24)" onmousedown="handlePan(0,-1)">
                  <use xlink:href="#rim" fill="#404040">
                        <set attributeName="fill" to="#808080" begin="arrowUp.mouseover" end="arrowUp.mouseout"/>
                  </use>
                  <path fill="none" stroke="white" stroke-width="1.5" d="M0,-3.0v7 M-2.5,-0.5L0,-3.0L2.5,-0.5"/>
                </g>
                <g id="arrowRight" xlink:href="#dirArrow" transform="rotate(90) translate(36 -43)" onmousedown="handlePan(1,0)">
                  <use xlink:href="#rim" fill="#404040">
                        <set attributeName="fill" to="#808080" begin="arrowRight.mouseover" end="arrowRight.mouseout"/>
                  </use>
                  <path fill="none" stroke="white" stroke-width="1.5" d="M0,-3.0v7 M-2.5,-0.5L0,-3.0L2.5,-0.5"/>
                </g>
                <g id="arrowDown" xlink:href="#dirArrow" transform="rotate(180) translate(-30 -48)" onmousedown="handlePan(0,1)">
                  <use xlink:href="#rim" fill="#404040">
                        <set attributeName="fill" to="#808080" begin="arrowDown.mouseover" end="arrowDown.mouseout"/>
                  </use>
                  <path fill="none" stroke="white" stroke-width="1.5" d="M0,-3.0v7 M-2.5,-0.5L0,-3.0L2.5,-0.5"/>
                </g>
                <g id="arrowLeft" xlink:href="#dirArrow" transform="rotate(270) translate(-36 17)" onmousedown="handlePan(-1,0)">
                  <use xlink:href="#rim" fill="#404040">
                        <set attributeName="fill" to="#808080" begin="arrowLeft.mouseover" end="arrowLeft.mouseout"/>
                  </use>
                  <path fill="none" stroke="white" stroke-width="1.5" d="M0,-3.0v7 M-2.5,-0.5L0,-3.0L2.5,-0.5"/>
                </g>
        </g>
        <svg viewBox="0 0 15 15" width="100%" height="30px" preserveAspectRatio="xMaxYMin meet">
         <g id="arrow_out" transform="scale(0.3 0.3)">
          <a xlink:href="class_cellular_automata_a34ceed434c942d34ff03169b92684726_icgraph_org.svg" target="_base">
           <rect id="button" ry="5" rx="5" y="6" x="6" height="38" width="38"
                fill="#f2f5e9" fill-opacity="0.5" stroke="#606060" stroke-width="1.0"/>
           <path id="arrow"
             d="M 11.500037,31.436501 C 11.940474,20.09759 22.043105,11.32322 32.158766,21.979434 L 37.068811,17.246167 C 37.068811,17.246167 37.088388,32 37.088388,32 L 22.160133,31.978069 C 22.160133,31.978069 26.997745,27.140456 26.997745,27.140456 C 18.528582,18.264221 13.291696,25.230495 11.500037,31.436501 z"
             style="fill:#404040;"/>
          </a>
         </g>
        </svg>
</svg>
