<?xml version="1.0" encoding="UTF-8" standalone="no"?>
<!DOCTYPE svg PUBLIC "-//W3C//DTD SVG 1.1//EN"
 "http://www.w3.org/Graphics/SVG/1.1/DTD/svg11.dtd">
<!-- Generated by graphviz version 2.36.0 (20140111.2315)
 -->
<!-- Title: CellularAutomata.update Pages: 1 -->
<svg width="480pt" height="142pt"
 viewBox="0.00 0.00 480.00 142.00" xmlns="http://www.w3.org/2000/svg" xmlns:xlink="http://www.w3.org/1999/xlink">
<g id="graph0" class="graph" transform="scale(1 1) rotate(0) translate(4 138)">
<title>CellularAutomata.update</title>
<polygon fill="white" stroke="none" points="-4,4 -4,-138 476,-138 476,4 -4,4"/>
<!-- Node1 -->
<g id="node1" class="node"><title>Node1</title>
<polygon fill="#bfbfbf" stroke="black" points="0.5,-75.5 0.5,-94.5 137.5,-94.5 137.5,-75.5 0.5,-75.5"/>
<text text-anchor="middle" x="69" y="-82.5" font-family="Helvetica,sans-Serif" font-size="10.00">CellularAutomata.update</text>
</g>
<!-- Node2 -->
<g id="node2" class="node"><title>Node2</title>
<g id="a_node2"><a xlink:href="../../d2/d40/class_cellular_automata.html#abe82e6f03caff539c579448cb3bcbb25" target="_top" xlink:title="CellularAutomata.makeTimeline">
<polygon fill="white" stroke="black" points="174,-104.5 174,-123.5 344,-123.5 344,-104.5 174,-104.5"/>
<text text-anchor="middle" x="259" y="-111.5" font-family="Helvetica,sans-Serif" font-size="10.00">CellularAutomata.makeTimeline</text>
</a>
</g>
</g>
<!-- Node1&#45;&gt;Node2 -->
<g id="edge1" class="edge"><title>Node1&#45;&gt;Node2</title>
<path fill="none" stroke="midnightblue" d="M142.154,-96.1302C159.961,-98.877 178.876,-101.795 196.144,-104.458"/>
<polygon fill="midnightblue" stroke="midnightblue" points="142.235,-92.6014 131.819,-94.5359 141.168,-99.5195 142.235,-92.6014"/>
</g>
<!-- Node4 -->
<g id="node4" class="node"><title>Node4</title>
<g id="a_node4"><a xlink:href="../../d2/d40/class_cellular_automata.html#a68732247a66b6d9f32eb8fcfda70bda2" target="_top" xlink:title="CellularAutomata.stepForward">
<polygon fill="white" stroke="black" points="178.5,-47.5 178.5,-66.5 339.5,-66.5 339.5,-47.5 178.5,-47.5"/>
<text text-anchor="middle" x="259" y="-54.5" font-family="Helvetica,sans-Serif" font-size="10.00">CellularAutomata.stepForward</text>
</a>
</g>
</g>
<!-- Node1&#45;&gt;Node4 -->
<g id="edge3" class="edge"><title>Node1&#45;&gt;Node4</title>
<path fill="none" stroke="midnightblue" d="M144.05,-73.9713C160.543,-71.5149 177.895,-68.9305 193.947,-66.5398"/>
<polygon fill="midnightblue" stroke="midnightblue" points="143.286,-70.5464 133.911,-75.4814 144.317,-77.47 143.286,-70.5464"/>
</g>
<!-- Node3 -->
<g id="node3" class="node"><title>Node3</title>
<g id="a_node3"><a xlink:href="../../d0/d4b/class_main.html#a7595d13c514a02c35aca322dd91d2063" target="_top" xlink:title="Main.start">
<polygon fill="white" stroke="black" points="393.5,-114.5 393.5,-133.5 458.5,-133.5 458.5,-114.5 393.5,-114.5"/>
<text text-anchor="middle" x="426" y="-121.5" font-family="Helvetica,sans-Serif" font-size="10.00">Main.start</text>
</a>
</g>
</g>
<!-- Node2&#45;&gt;Node3 -->
<g id="edge2" class="edge"><title>Node2&#45;&gt;Node3</title>
<path fill="none" stroke="midnightblue" d="M354.618,-119.734C368.522,-120.577 381.957,-121.391 393.296,-122.079"/>
<polygon fill="midnightblue" stroke="midnightblue" points="354.627,-116.229 344.433,-119.117 354.203,-123.216 354.627,-116.229"/>
</g>
<!-- Node5 -->
<g id="node5" class="node"><title>Node5</title>
<g id="a_node5"><a xlink:href="../../d9/df1/class_fire.html#a22e1b892843e691d4e6e3fcf8e6a893a" target="_top" xlink:title="Fire.init">
<polygon fill="white" stroke="black" points="401,-76.5 401,-95.5 451,-95.5 451,-76.5 401,-76.5"/>
<text text-anchor="middle" x="426" y="-83.5" font-family="Helvetica,sans-Serif" font-size="10.00">Fire.init</text>
</a>
</g>
</g>
<!-- Node4&#45;&gt;Node5 -->
<g id="edge4" class="edge"><title>Node4&#45;&gt;Node5</title>
<path fill="none" stroke="midnightblue" d="M324.618,-68.3571C351.463,-73.0754 380.962,-78.26 400.991,-81.7802"/>
<polygon fill="midnightblue" stroke="midnightblue" points="324.939,-64.86 314.484,-66.5761 323.728,-71.7543 324.939,-64.86"/>
</g>
<!-- Node6 -->
<g id="node6" class="node"><title>Node6</title>
<g id="a_node6"><a xlink:href="../../da/d1e/class_segregation.html#abbf23897b2ba933ff6d6c20200178ba3" target="_top" xlink:title="Segregation.init">
<polygon fill="white" stroke="black" points="380,-38.5 380,-57.5 472,-57.5 472,-38.5 380,-38.5"/>
<text text-anchor="middle" x="426" y="-45.5" font-family="Helvetica,sans-Serif" font-size="10.00">Segregation.init</text>
</a>
</g>
</g>
<!-- Node4&#45;&gt;Node6 -->
<g id="edge5" class="edge"><title>Node4&#45;&gt;Node6</title>
<path fill="none" stroke="midnightblue" d="M349.656,-52.1097C360.119,-51.539 370.426,-50.9768 379.899,-50.46"/>
<polygon fill="midnightblue" stroke="midnightblue" points="349.395,-48.6186 339.6,-52.6582 349.776,-55.6082 349.395,-48.6186"/>
</g>
<!-- Node7 -->
<g id="node7" class="node"><title>Node7</title>
<g id="a_node7"><a xlink:href="../../d8/d84/class_game_of_life.html#a9ffd6f1b93454f54600e1db30540c21d" target="_top" xlink:title="GameOfLife.init">
<polygon fill="white" stroke="black" points="381,-0.5 381,-19.5 471,-19.5 471,-0.5 381,-0.5"/>
<text text-anchor="middle" x="426" y="-7.5" font-family="Helvetica,sans-Serif" font-size="10.00">GameOfLife.init</text>
</a>
</g>
</g>
<!-- Node4&#45;&gt;Node7 -->
<g id="edge6" class="edge"><title>Node4&#45;&gt;Node7</title>
<path fill="none" stroke="midnightblue" d="M303.163,-44.7052C330.713,-36.8575 365.905,-26.833 391.377,-19.5776"/>
<polygon fill="midnightblue" stroke="midnightblue" points="302.049,-41.3832 293.39,-47.4888 303.967,-48.1154 302.049,-41.3832"/>
</g>
</g>
</svg>
