<?xml version="1.0" encoding="UTF-8" standalone="no"?>
<!DOCTYPE svg PUBLIC "-//W3C//DTD SVG 1.1//EN"
 "http://www.w3.org/Graphics/SVG/1.1/DTD/svg11.dtd">
<!-- Generated by graphviz version 2.36.0 (20140111.2315)
 -->
<!-- Title: CellularAutomata.findState Pages: 1 -->
<svg width="514pt" height="294pt"
 viewBox="0.00 0.00 514.00 294.00" xmlns="http://www.w3.org/2000/svg" xmlns:xlink="http://www.w3.org/1999/xlink">
<g id="graph0" class="graph" transform="scale(1 1) rotate(0) translate(4 290)">
<title>CellularAutomata.findState</title>
<polygon fill="white" stroke="none" points="-4,4 -4,-290 510,-290 510,4 -4,4"/>
<!-- Node1 -->
<g id="node1" class="node"><title>Node1</title>
<polygon fill="#bfbfbf" stroke="black" points="0,-133.5 0,-152.5 146,-152.5 146,-133.5 0,-133.5"/>
<text text-anchor="middle" x="73" y="-140.5" font-family="Helvetica,sans-Serif" font-size="10.00">CellularAutomata.findState</text>
</g>
<!-- Node2 -->
<g id="node2" class="node"><title>Node2</title>
<g id="a_node2"><a xlink:href="../../da/d1e/class_segregation.html#ad8954892f14329825efd9cace6b9235a" target="_top" xlink:title="Segregation.handleUpdate">
<polygon fill="white" stroke="black" points="189,-266.5 189,-285.5 335,-285.5 335,-266.5 189,-266.5"/>
<text text-anchor="middle" x="262" y="-273.5" font-family="Helvetica,sans-Serif" font-size="10.00">Segregation.handleUpdate</text>
</a>
</g>
</g>
<!-- Node1&#45;&gt;Node2 -->
<g id="edge1" class="edge"><title>Node1&#45;&gt;Node2</title>
<path fill="none" stroke="midnightblue" d="M85.9634,-161.1C103.777,-186.562 139.749,-232.571 182,-257 188.717,-260.883 196.194,-263.975 203.794,-266.436"/>
<polygon fill="midnightblue" stroke="midnightblue" points="88.7745,-159.01 80.2439,-152.727 82.9943,-162.958 88.7745,-159.01"/>
</g>
<!-- Node3 -->
<g id="node3" class="node"><title>Node3</title>
<g id="a_node3"><a xlink:href="../../da/d1e/class_segregation.html#a49b8fcb38373080b203a974f5c24d166" target="_top" xlink:title="Segregation.ruleOne">
<polygon fill="white" stroke="black" points="204,-228.5 204,-247.5 320,-247.5 320,-228.5 204,-228.5"/>
<text text-anchor="middle" x="262" y="-235.5" font-family="Helvetica,sans-Serif" font-size="10.00">Segregation.ruleOne</text>
</a>
</g>
</g>
<!-- Node1&#45;&gt;Node3 -->
<g id="edge2" class="edge"><title>Node1&#45;&gt;Node3</title>
<path fill="none" stroke="midnightblue" d="M92.4116,-159.277C112.901,-176.56 147.664,-203.476 182,-219 190.483,-222.836 199.844,-225.956 209.064,-228.476"/>
<polygon fill="midnightblue" stroke="midnightblue" points="94.6614,-156.596 84.794,-152.738 90.1017,-161.907 94.6614,-156.596"/>
</g>
<!-- Node5 -->
<g id="node5" class="node"><title>Node5</title>
<g id="a_node5"><a xlink:href="../../d9/df1/class_fire.html#a08de9a15877f76fa5bc6c8872559f79f" target="_top" xlink:title="Fire.ruleOne">
<polygon fill="white" stroke="black" points="225,-190.5 225,-209.5 299,-209.5 299,-190.5 225,-190.5"/>
<text text-anchor="middle" x="262" y="-197.5" font-family="Helvetica,sans-Serif" font-size="10.00">Fire.ruleOne</text>
</a>
</g>
</g>
<!-- Node1&#45;&gt;Node5 -->
<g id="edge4" class="edge"><title>Node1&#45;&gt;Node5</title>
<path fill="none" stroke="midnightblue" d="M108.552,-156.172C129.605,-163.943 157.151,-173.661 182,-181 195.799,-185.075 211.144,-188.92 224.611,-192.07"/>
<polygon fill="midnightblue" stroke="midnightblue" points="109.667,-152.853 99.0747,-152.644 107.225,-159.413 109.667,-152.853"/>
</g>
<!-- Node7 -->
<g id="node7" class="node"><title>Node7</title>
<g id="a_node7"><a xlink:href="../../d8/d84/class_game_of_life.html#aca7cd11a349cf14c940011021f91127f" target="_top" xlink:title="GameOfLife.ruleOne">
<polygon fill="white" stroke="black" points="205.5,-114.5 205.5,-133.5 318.5,-133.5 318.5,-114.5 205.5,-114.5"/>
<text text-anchor="middle" x="262" y="-121.5" font-family="Helvetica,sans-Serif" font-size="10.00">GameOfLife.ruleOne</text>
</a>
</g>
</g>
<!-- Node1&#45;&gt;Node7 -->
<g id="edge6" class="edge"><title>Node1&#45;&gt;Node7</title>
<path fill="none" stroke="midnightblue" d="M156.264,-134.642C172.827,-132.959 189.868,-131.227 205.266,-129.663"/>
<polygon fill="midnightblue" stroke="midnightblue" points="155.627,-131.188 146.032,-135.681 156.334,-138.152 155.627,-131.188"/>
</g>
<!-- Node9 -->
<g id="node9" class="node"><title>Node9</title>
<g id="a_node9"><a xlink:href="../../d9/df1/class_fire.html#accc21ae2162fd526d8ca66c472a62a28" target="_top" xlink:title="Fire.ruleTwo">
<polygon fill="white" stroke="black" points="226.5,-152.5 226.5,-171.5 297.5,-171.5 297.5,-152.5 226.5,-152.5"/>
<text text-anchor="middle" x="262" y="-159.5" font-family="Helvetica,sans-Serif" font-size="10.00">Fire.ruleTwo</text>
</a>
</g>
</g>
<!-- Node1&#45;&gt;Node9 -->
<g id="edge8" class="edge"><title>Node1&#45;&gt;Node9</title>
<path fill="none" stroke="midnightblue" d="M156.146,-151.346C180.809,-153.852 206.541,-156.467 226.342,-158.479"/>
<polygon fill="midnightblue" stroke="midnightblue" points="156.334,-147.848 146.032,-150.319 155.627,-154.812 156.334,-147.848"/>
</g>
<!-- Node10 -->
<g id="node10" class="node"><title>Node10</title>
<g id="a_node10"><a xlink:href="../../d8/d84/class_game_of_life.html#a6b6c946c47342fd7e4595710d72a9217" target="_top" xlink:title="GameOfLife.ruleTwo">
<polygon fill="white" stroke="black" points="207,-76.5 207,-95.5 317,-95.5 317,-76.5 207,-76.5"/>
<text text-anchor="middle" x="262" y="-83.5" font-family="Helvetica,sans-Serif" font-size="10.00">GameOfLife.ruleTwo</text>
</a>
</g>
</g>
<!-- Node1&#45;&gt;Node10 -->
<g id="edge10" class="edge"><title>Node1&#45;&gt;Node10</title>
<path fill="none" stroke="midnightblue" d="M108.552,-129.828C129.605,-122.057 157.151,-112.339 182,-105 193.499,-101.604 206.072,-98.3682 217.737,-95.5611"/>
<polygon fill="midnightblue" stroke="midnightblue" points="107.225,-126.587 99.0747,-133.356 109.667,-133.147 107.225,-126.587"/>
</g>
<!-- Node11 -->
<g id="node11" class="node"><title>Node11</title>
<g id="a_node11"><a xlink:href="../../d9/df1/class_fire.html#afd16418c5ea360c815613862a4ea1c33" target="_top" xlink:title="Fire.setUpInitialConfig">
<polygon fill="white" stroke="black" points="202.5,-38.5 202.5,-57.5 321.5,-57.5 321.5,-38.5 202.5,-38.5"/>
<text text-anchor="middle" x="262" y="-45.5" font-family="Helvetica,sans-Serif" font-size="10.00">Fire.setUpInitialConfig</text>
</a>
</g>
</g>
<!-- Node1&#45;&gt;Node11 -->
<g id="edge12" class="edge"><title>Node1&#45;&gt;Node11</title>
<path fill="none" stroke="midnightblue" d="M92.4116,-126.723C112.901,-109.44 147.664,-82.5239 182,-67 190.483,-63.1645 199.844,-60.0438 209.064,-57.5242"/>
<polygon fill="midnightblue" stroke="midnightblue" points="90.1017,-124.093 84.794,-133.262 94.6614,-129.404 90.1017,-124.093"/>
</g>
<!-- Node13 -->
<g id="node13" class="node"><title>Node13</title>
<g id="a_node13"><a xlink:href="../../d8/d84/class_game_of_life.html#a1bd82fd7debd0ccbba848dc16024c024" target="_top" xlink:title="GameOfLife.setUpInitialConfig">
<polygon fill="white" stroke="black" points="182.5,-0.5 182.5,-19.5 341.5,-19.5 341.5,-0.5 182.5,-0.5"/>
<text text-anchor="middle" x="262" y="-7.5" font-family="Helvetica,sans-Serif" font-size="10.00">GameOfLife.setUpInitialConfig</text>
</a>
</g>
</g>
<!-- Node1&#45;&gt;Node13 -->
<g id="edge14" class="edge"><title>Node1&#45;&gt;Node13</title>
<path fill="none" stroke="midnightblue" d="M85.9634,-124.9C103.777,-99.4376 139.749,-53.4288 182,-29 188.717,-25.1166 196.194,-22.0248 203.794,-19.5638"/>
<polygon fill="midnightblue" stroke="midnightblue" points="82.9943,-123.042 80.2439,-133.273 88.7745,-126.99 82.9943,-123.042"/>
</g>
<!-- Node4 -->
<g id="node4" class="node"><title>Node4</title>
<g id="a_node4"><a xlink:href="../../da/d1e/class_segregation.html#a45e57140276ed3b1897cf8212b6283d4" target="_top" xlink:title="Segregation.applyRules">
<polygon fill="white" stroke="black" points="378,-228.5 378,-247.5 506,-247.5 506,-228.5 378,-228.5"/>
<text text-anchor="middle" x="442" y="-235.5" font-family="Helvetica,sans-Serif" font-size="10.00">Segregation.applyRules</text>
</a>
</g>
</g>
<!-- Node3&#45;&gt;Node4 -->
<g id="edge3" class="edge"><title>Node3&#45;&gt;Node4</title>
<path fill="none" stroke="midnightblue" d="M330.396,-238C345.998,-238 362.544,-238 377.952,-238"/>
<polygon fill="midnightblue" stroke="midnightblue" points="330.3,-234.5 320.3,-238 330.3,-241.5 330.3,-234.5"/>
</g>
<!-- Node6 -->
<g id="node6" class="node"><title>Node6</title>
<g id="a_node6"><a xlink:href="../../d9/df1/class_fire.html#a7e440468aacc413772a274bb8029e8bb" target="_top" xlink:title="Fire.applyRules">
<polygon fill="white" stroke="black" points="399,-171.5 399,-190.5 485,-190.5 485,-171.5 399,-171.5"/>
<text text-anchor="middle" x="442" y="-178.5" font-family="Helvetica,sans-Serif" font-size="10.00">Fire.applyRules</text>
</a>
</g>
</g>
<!-- Node5&#45;&gt;Node6 -->
<g id="edge5" class="edge"><title>Node5&#45;&gt;Node6</title>
<path fill="none" stroke="midnightblue" d="M309.243,-195.064C336.923,-192.109 371.841,-188.382 398.774,-185.507"/>
<polygon fill="midnightblue" stroke="midnightblue" points="308.593,-191.613 299.021,-196.155 309.336,-198.574 308.593,-191.613"/>
</g>
<!-- Node8 -->
<g id="node8" class="node"><title>Node8</title>
<g id="a_node8"><a xlink:href="../../d8/d84/class_game_of_life.html#a8085307c182bb4d9149f98dfc8f26979" target="_top" xlink:title="GameOfLife.applyRules">
<polygon fill="white" stroke="black" points="379,-95.5 379,-114.5 505,-114.5 505,-95.5 379,-95.5"/>
<text text-anchor="middle" x="442" y="-102.5" font-family="Helvetica,sans-Serif" font-size="10.00">GameOfLife.applyRules</text>
</a>
</g>
</g>
<!-- Node7&#45;&gt;Node8 -->
<g id="edge7" class="edge"><title>Node7&#45;&gt;Node8</title>
<path fill="none" stroke="midnightblue" d="M328.851,-116.971C345.21,-115.225 362.69,-113.359 378.864,-111.632"/>
<polygon fill="midnightblue" stroke="midnightblue" points="328.404,-113.499 318.832,-118.04 329.147,-120.459 328.404,-113.499"/>
</g>
<!-- Node9&#45;&gt;Node6 -->
<g id="edge9" class="edge"><title>Node9&#45;&gt;Node6</title>
<path fill="none" stroke="midnightblue" d="M308.02,-166.805C335.903,-169.782 371.48,-173.579 398.818,-176.497"/>
<polygon fill="midnightblue" stroke="midnightblue" points="308.058,-163.29 297.743,-165.708 307.315,-170.25 308.058,-163.29"/>
</g>
<!-- Node10&#45;&gt;Node8 -->
<g id="edge11" class="edge"><title>Node10&#45;&gt;Node8</title>
<path fill="none" stroke="midnightblue" d="M327.597,-92.8952C344.313,-94.6795 362.274,-96.5967 378.861,-98.3672"/>
<polygon fill="midnightblue" stroke="midnightblue" points="327.688,-89.3851 317.373,-91.8039 326.945,-96.3456 327.688,-89.3851"/>
</g>
<!-- Node12 -->
<g id="node12" class="node"><title>Node12</title>
<g id="a_node12"><a xlink:href="../../d9/df1/class_fire.html#a22e1b892843e691d4e6e3fcf8e6a893a" target="_top" xlink:title="Fire.init">
<polygon fill="white" stroke="black" points="417,-38.5 417,-57.5 467,-57.5 467,-38.5 417,-38.5"/>
<text text-anchor="middle" x="442" y="-45.5" font-family="Helvetica,sans-Serif" font-size="10.00">Fire.init</text>
</a>
</g>
</g>
<!-- Node11&#45;&gt;Node12 -->
<g id="edge13" class="edge"><title>Node11&#45;&gt;Node12</title>
<path fill="none" stroke="midnightblue" d="M331.817,-48C361.85,-48 395.12,-48 416.948,-48"/>
<polygon fill="midnightblue" stroke="midnightblue" points="331.777,-44.5001 321.777,-48 331.777,-51.5001 331.777,-44.5001"/>
</g>
<!-- Node14 -->
<g id="node14" class="node"><title>Node14</title>
<g id="a_node14"><a xlink:href="../../d8/d84/class_game_of_life.html#a9ffd6f1b93454f54600e1db30540c21d" target="_top" xlink:title="GameOfLife.init">
<polygon fill="white" stroke="black" points="397,-0.5 397,-19.5 487,-19.5 487,-0.5 397,-0.5"/>
<text text-anchor="middle" x="442" y="-7.5" font-family="Helvetica,sans-Serif" font-size="10.00">GameOfLife.init</text>
</a>
</g>
</g>
<!-- Node13&#45;&gt;Node14 -->
<g id="edge15" class="edge"><title>Node13&#45;&gt;Node14</title>
<path fill="none" stroke="midnightblue" d="M351.875,-10C367.556,-10 383.242,-10 396.986,-10"/>
<polygon fill="midnightblue" stroke="midnightblue" points="351.592,-6.5001 341.592,-10 351.591,-13.5001 351.592,-6.5001"/>
</g>
</g>
</svg>
