<?xml version="1.0" encoding="UTF-8" standalone="no"?>
<!DOCTYPE svg PUBLIC "-//W3C//DTD SVG 1.1//EN"
 "http://www.w3.org/Graphics/SVG/1.1/DTD/svg11.dtd">
<!-- Generated by graphviz version 2.36.0 (20140111.2315)
 -->
<!-- Title: CellularAutomata.getRandomDouble Pages: 1 -->
<!--zoomable 165 -->
<svg id="main" version="1.1" xmlns="http://www.w3.org/2000/svg" xmlns:xlink="http://www.w3.org/1999/xlink" xml:space="preserve" onload="init(evt)">
<style type="text/css"><![CDATA[
.edge:hover path { stroke: red; }
.edge:hover polygon { stroke: red; fill: red; }
]]></style>
<script type="text/javascript"><![CDATA[
var edges = document.getElementsByTagName('g');
if (edges && edges.length) {
  for (var i=0;i<edges.length;i++) {
    if (edges[i].id.substr(0,4)=='edge') {
      edges[i].setAttribute('class','edge');
    }
  }
}
]]></script>
        <defs>
                <circle id="rim" cx="0" cy="0" r="7"/>
                <circle id="rim2" cx="0" cy="0" r="3.5"/>
                <g id="zoomPlus">
                        <use xlink:href="#rim" fill="#404040">
                                <set attributeName="fill" to="#808080" begin="zoomplus.mouseover" end="zoomplus.mouseout"/>
                        </use>
                        <path d="M-4,0h8M0,-4v8" fill="none" stroke="white" stroke-width="1.5" pointer-events="none"/>
                </g>
                <g id="zoomMin">
                        <use xlink:href="#rim" fill="#404040">
                                <set attributeName="fill" to="#808080" begin="zoomminus.mouseover" end="zoomminus.mouseout"/>
                        </use>
                        <path d="M-4,0h8" fill="none" stroke="white" stroke-width="1.5" pointer-events="none"/>
                </g>
                <g id="dirArrow">
                        <path fill="none" stroke="white" stroke-width="1.5" d="M0,-3.0v7 M-2.5,-0.5L0,-3.0L2.5,-0.5"/>
                </g>
               <g id="resetDef">
                       <use xlink:href="#rim2" fill="#404040">
                               <set attributeName="fill" to="#808080" begin="reset.mouseover" end="reset.mouseout"/>
                       </use>
               </g>
        </defs>

<script type="text/javascript">
var viewWidth = 512;
var viewHeight = 165;
var sectionId = 'dynsection-7';
</script>
<script xlink:href="../../svgpan.js"/>
<svg id="graph" class="graph">
<g id="viewport">
<title>CellularAutomata.getRandomDouble</title>
<polygon fill="white" stroke="none" points="-4,4 -4,-161 508,-161 508,4 -4,4"/>
<!-- Node1 -->
<g id="node1" class="node"><title>Node1</title>
<polygon fill="#bfbfbf" stroke="black" points="0,-63 0,-93 158,-93 158,-63 0,-63"/>
<text text-anchor="start" x="8" y="-81" font-family="Helvetica,sans-Serif" font-size="10.00">CellularAutomata.getRandom</text>
<text text-anchor="middle" x="79" y="-70" font-family="Helvetica,sans-Serif" font-size="10.00">Double</text>
</g>
<!-- Node2 -->
<g id="node2" class="node"><title>Node2</title>
<g id="a_node2"><a xlink:href="../../d9/df1/class_fire.html#a9848867ebe2faddb27dfd0994cb565a8" target="_top" xlink:title="Fire.checkRules">
<polygon fill="white" stroke="black" points="227.5,-137.5 227.5,-156.5 316.5,-156.5 316.5,-137.5 227.5,-137.5"/>
<text text-anchor="middle" x="272" y="-144.5" font-family="Helvetica,sans-Serif" font-size="10.00">Fire.checkRules</text>
</a>
</g>
</g>
<!-- Node1&#45;&gt;Node2 -->
<g id="edge1" class="edge"><title>Node1&#45;&gt;Node2</title>
<path fill="none" stroke="midnightblue" d="M120.593,-97.2317C142.101,-106.964 169.146,-118.486 194,-127 205.368,-130.894 217.902,-134.451 229.497,-137.451"/>
<polygon fill="midnightblue" stroke="midnightblue" points="121.983,-94.0189 111.433,-93.0443 119.073,-100.385 121.983,-94.0189"/>
</g>
<!-- Node3 -->
<g id="node3" class="node"><title>Node3</title>
<g id="a_node3"><a xlink:href="../../da/d1e/class_segregation.html#ae51122aa23967e3e2af576026eb1d912" target="_top" xlink:title="Segregation.setUpInitial\lConfig">
<polygon fill="white" stroke="black" points="206.5,-88 206.5,-118 337.5,-118 337.5,-88 206.5,-88"/>
<text text-anchor="start" x="214.5" y="-106" font-family="Helvetica,sans-Serif" font-size="10.00">Segregation.setUpInitial</text>
<text text-anchor="middle" x="272" y="-95" font-family="Helvetica,sans-Serif" font-size="10.00">Config</text>
</a>
</g>
</g>
<!-- Node1&#45;&gt;Node3 -->
<g id="edge2" class="edge"><title>Node1&#45;&gt;Node3</title>
<path fill="none" stroke="midnightblue" d="M168.415,-89.5726C181.171,-91.2422 194.097,-92.9341 206.275,-94.5281"/>
<polygon fill="midnightblue" stroke="midnightblue" points="168.608,-86.0681 158.238,-88.2406 167.699,-93.0089 168.608,-86.0681"/>
</g>
<!-- Node4 -->
<g id="node4" class="node"><title>Node4</title>
<g id="a_node4"><a xlink:href="../../d2/d40/class_cellular_automata.html#ae0dc3747c80392dfc7d36e80e86805a5" target="_top" xlink:title="CellularAutomata.setUpInitial\lConfig">
<polygon fill="white" stroke="black" points="194,-39 194,-69 350,-69 350,-39 194,-39"/>
<text text-anchor="start" x="202" y="-57" font-family="Helvetica,sans-Serif" font-size="10.00">CellularAutomata.setUpInitial</text>
<text text-anchor="middle" x="272" y="-46" font-family="Helvetica,sans-Serif" font-size="10.00">Config</text>
</a>
</g>
</g>
<!-- Node1&#45;&gt;Node4 -->
<g id="edge3" class="edge"><title>Node1&#45;&gt;Node4</title>
<path fill="none" stroke="midnightblue" d="M168.217,-66.9152C176.761,-65.8415 185.384,-64.758 193.81,-63.6993"/>
<polygon fill="midnightblue" stroke="midnightblue" points="167.724,-63.4495 158.238,-68.169 168.596,-70.3949 167.724,-63.4495"/>
</g>
<!-- Node6 -->
<g id="node6" class="node"><title>Node6</title>
<g id="a_node6"><a xlink:href="../../d0/db0/class_wator.html#a0338ba17229ff94cb2310835a43c8513" target="_top" xlink:title="Wator.setUpInitialConfig">
<polygon fill="white" stroke="black" points="207.5,-0.5 207.5,-19.5 336.5,-19.5 336.5,-0.5 207.5,-0.5"/>
<text text-anchor="middle" x="272" y="-7.5" font-family="Helvetica,sans-Serif" font-size="10.00">Wator.setUpInitialConfig</text>
</a>
</g>
</g>
<!-- Node1&#45;&gt;Node6 -->
<g id="edge5" class="edge"><title>Node1&#45;&gt;Node6</title>
<path fill="none" stroke="midnightblue" d="M121.845,-58.6698C143.161,-49.2634 169.657,-38.2381 194,-30 205.513,-26.1038 218.209,-22.523 229.915,-19.5011"/>
<polygon fill="midnightblue" stroke="midnightblue" points="120.15,-55.5933 112.442,-62.8619 123,-61.9867 120.15,-55.5933"/>
</g>
<!-- Node5 -->
<g id="node5" class="node"><title>Node5</title>
<g id="a_node5"><a xlink:href="../../d2/d40/class_cellular_automata.html#a881bd9cb2208f3bff6fa64714eedf32f" target="_top" xlink:title="CellularAutomata.init">
<polygon fill="white" stroke="black" points="386.5,-44.5 386.5,-63.5 503.5,-63.5 503.5,-44.5 386.5,-44.5"/>
<text text-anchor="middle" x="445" y="-51.5" font-family="Helvetica,sans-Serif" font-size="10.00">CellularAutomata.init</text>
</a>
</g>
</g>
<!-- Node4&#45;&gt;Node5 -->
<g id="edge4" class="edge"><title>Node4&#45;&gt;Node5</title>
<path fill="none" stroke="midnightblue" d="M360.739,-54C369.472,-54 378.174,-54 386.48,-54"/>
<polygon fill="midnightblue" stroke="midnightblue" points="360.495,-50.5001 350.495,-54 360.495,-57.5001 360.495,-50.5001"/>
</g>
</g>
</svg>
        <g id="navigator" transform="translate(0 0)" fill="#404254">
                <rect fill="#f2f5e9" fill-opacity="0.5" stroke="#606060" stroke-width=".5" x="0" y="0" width="60" height="60"/>
                <use id="zoomplus" xlink:href="#zoomPlus" x="17" y="9" onmousedown="handleZoom(evt,'in')"/>
                <use id="zoomminus" xlink:href="#zoomMin" x="42" y="9" onmousedown="handleZoom(evt,'out')"/>
                <use id="reset" xlink:href="#resetDef" x="30" y="36" onmousedown="handleReset()"/>
                <g id="arrowUp" xlink:href="#dirArrow" transform="translate(30 24)" onmousedown="handlePan(0,-1)">
                  <use xlink:href="#rim" fill="#404040">
                        <set attributeName="fill" to="#808080" begin="arrowUp.mouseover" end="arrowUp.mouseout"/>
                  </use>
                  <path fill="none" stroke="white" stroke-width="1.5" d="M0,-3.0v7 M-2.5,-0.5L0,-3.0L2.5,-0.5"/>
                </g>
                <g id="arrowRight" xlink:href="#dirArrow" transform="rotate(90) translate(36 -43)" onmousedown="handlePan(1,0)">
                  <use xlink:href="#rim" fill="#404040">
                        <set attributeName="fill" to="#808080" begin="arrowRight.mouseover" end="arrowRight.mouseout"/>
                  </use>
                  <path fill="none" stroke="white" stroke-width="1.5" d="M0,-3.0v7 M-2.5,-0.5L0,-3.0L2.5,-0.5"/>
                </g>
                <g id="arrowDown" xlink:href="#dirArrow" transform="rotate(180) translate(-30 -48)" onmousedown="handlePan(0,1)">
                  <use xlink:href="#rim" fill="#404040">
                        <set attributeName="fill" to="#808080" begin="arrowDown.mouseover" end="arrowDown.mouseout"/>
                  </use>
                  <path fill="none" stroke="white" stroke-width="1.5" d="M0,-3.0v7 M-2.5,-0.5L0,-3.0L2.5,-0.5"/>
                </g>
                <g id="arrowLeft" xlink:href="#dirArrow" transform="rotate(270) translate(-36 17)" onmousedown="handlePan(-1,0)">
                  <use xlink:href="#rim" fill="#404040">
                        <set attributeName="fill" to="#808080" begin="arrowLeft.mouseover" end="arrowLeft.mouseout"/>
                  </use>
                  <path fill="none" stroke="white" stroke-width="1.5" d="M0,-3.0v7 M-2.5,-0.5L0,-3.0L2.5,-0.5"/>
                </g>
        </g>
        <svg viewBox="0 0 15 15" width="100%" height="30px" preserveAspectRatio="xMaxYMin meet">
         <g id="arrow_out" transform="scale(0.3 0.3)">
          <a xlink:href="class_cellular_automata_a3e303e691cc17b9a478a3e0e167a37e6_icgraph_org.svg" target="_base">
           <rect id="button" ry="5" rx="5" y="6" x="6" height="38" width="38"
                fill="#f2f5e9" fill-opacity="0.5" stroke="#606060" stroke-width="1.0"/>
           <path id="arrow"
             d="M 11.500037,31.436501 C 11.940474,20.09759 22.043105,11.32322 32.158766,21.979434 L 37.068811,17.246167 C 37.068811,17.246167 37.088388,32 37.088388,32 L 22.160133,31.978069 C 22.160133,31.978069 26.997745,27.140456 26.997745,27.140456 C 18.528582,18.264221 13.291696,25.230495 11.500037,31.436501 z"
             style="fill:#404040;"/>
          </a>
         </g>
        </svg>
</svg>
