<?xml version="1.0" encoding="UTF-8" standalone="no"?>
<!DOCTYPE svg PUBLIC "-//W3C//DTD SVG 1.1//EN"
 "http://www.w3.org/Graphics/SVG/1.1/DTD/svg11.dtd">
<!-- Generated by graphviz version 2.36.0 (20140111.2315)
 -->
<!-- Title: CellularAutomata.getGrid Pages: 1 -->
<!--zoomable 431 -->
<svg id="main" version="1.1" xmlns="http://www.w3.org/2000/svg" xmlns:xlink="http://www.w3.org/1999/xlink" xml:space="preserve" onload="init(evt)">
<style type="text/css"><![CDATA[
.edge:hover path { stroke: red; }
.edge:hover polygon { stroke: red; fill: red; }
]]></style>
<script type="text/javascript"><![CDATA[
var edges = document.getElementsByTagName('g');
if (edges && edges.length) {
  for (var i=0;i<edges.length;i++) {
    if (edges[i].id.substr(0,4)=='edge') {
      edges[i].setAttribute('class','edge');
    }
  }
}
]]></script>
        <defs>
                <circle id="rim" cx="0" cy="0" r="7"/>
                <circle id="rim2" cx="0" cy="0" r="3.5"/>
                <g id="zoomPlus">
                        <use xlink:href="#rim" fill="#404040">
                                <set attributeName="fill" to="#808080" begin="zoomplus.mouseover" end="zoomplus.mouseout"/>
                        </use>
                        <path d="M-4,0h8M0,-4v8" fill="none" stroke="white" stroke-width="1.5" pointer-events="none"/>
                </g>
                <g id="zoomMin">
                        <use xlink:href="#rim" fill="#404040">
                                <set attributeName="fill" to="#808080" begin="zoomminus.mouseover" end="zoomminus.mouseout"/>
                        </use>
                        <path d="M-4,0h8" fill="none" stroke="white" stroke-width="1.5" pointer-events="none"/>
                </g>
                <g id="dirArrow">
                        <path fill="none" stroke="white" stroke-width="1.5" d="M0,-3.0v7 M-2.5,-0.5L0,-3.0L2.5,-0.5"/>
                </g>
               <g id="resetDef">
                       <use xlink:href="#rim2" fill="#404040">
                               <set attributeName="fill" to="#808080" begin="reset.mouseover" end="reset.mouseout"/>
                       </use>
               </g>
        </defs>

<script type="text/javascript">
var viewWidth = 1900;
var viewHeight = 431;
var sectionId = 'dynsection-4';
</script>
<script xlink:href="../../svgpan.js"/>
<svg id="graph" class="graph">
<g id="viewport">
<title>CellularAutomata.getGrid</title>
<polygon fill="white" stroke="none" points="-4,4 -4,-427 1896,-427 1896,4 -4,4"/>
<!-- Node1 -->
<g id="node1" class="node"><title>Node1</title>
<polygon fill="#bfbfbf" stroke="black" points="0,-213.5 0,-232.5 138,-232.5 138,-213.5 0,-213.5"/>
<text text-anchor="middle" x="69" y="-220.5" font-family="Helvetica,sans-Serif" font-size="10.00">CellularAutomata.getGrid</text>
</g>
<!-- Node2 -->
<g id="node2" class="node"><title>Node2</title>
<g id="a_node2"><a xlink:href="../../d9/df1/class_fire.html#a65c7d316a113807e7bdf626a789e2bf5" target="_top" xlink:title="Fire.checkNextToFire">
<polygon fill="white" stroke="black" points="202.5,-403.5 202.5,-422.5 315.5,-422.5 315.5,-403.5 202.5,-403.5"/>
<text text-anchor="middle" x="259" y="-410.5" font-family="Helvetica,sans-Serif" font-size="10.00">Fire.checkNextToFire</text>
</a>
</g>
</g>
<!-- Node1&#45;&gt;Node2 -->
<g id="edge1" class="edge"><title>Node1&#45;&gt;Node2</title>
<path fill="none" stroke="midnightblue" d="M76.0701,-242.346C88.3768,-278.238 119.8,-355.026 174,-394 182.376,-400.023 192.339,-404.18 202.425,-407.038"/>
<polygon fill="midnightblue" stroke="midnightblue" points="79.3147,-241.009 72.8604,-232.607 72.6664,-243.2 79.3147,-241.009"/>
</g>
<!-- Node4 -->
<g id="node4" class="node"><title>Node4</title>
<g id="a_node4"><a xlink:href="../../d8/d84/class_game_of_life.html#ae3bc4975c6e75164f5661d35cf3c97d0" target="_top" xlink:title="GameOfLife.checkRules">
<polygon fill="white" stroke="black" points="195,-365.5 195,-384.5 323,-384.5 323,-365.5 195,-365.5"/>
<text text-anchor="middle" x="259" y="-372.5" font-family="Helvetica,sans-Serif" font-size="10.00">GameOfLife.checkRules</text>
</a>
</g>
</g>
<!-- Node1&#45;&gt;Node4 -->
<g id="edge3" class="edge"><title>Node1&#45;&gt;Node4</title>
<path fill="none" stroke="midnightblue" d="M79.1728,-241.663C94.5472,-270.887 128.375,-327.089 174,-356 180.315,-360.001 187.367,-363.165 194.628,-365.664"/>
<polygon fill="midnightblue" stroke="midnightblue" points="82.1796,-239.855 74.5152,-232.54 75.9451,-243.038 82.1796,-239.855"/>
</g>
<!-- Node5 -->
<g id="node5" class="node"><title>Node5</title>
<g id="a_node5"><a xlink:href="../../d2/d40/class_cellular_automata.html#ab6b9e3ca964f405470ec0acc064d9b3a" target="_top" xlink:title="CellularAutomata.checkRules">
<polygon fill="white" stroke="black" points="181.5,-327.5 181.5,-346.5 336.5,-346.5 336.5,-327.5 181.5,-327.5"/>
<text text-anchor="middle" x="259" y="-334.5" font-family="Helvetica,sans-Serif" font-size="10.00">CellularAutomata.checkRules</text>
</a>
</g>
</g>
<!-- Node1&#45;&gt;Node5 -->
<g id="edge4" class="edge"><title>Node1&#45;&gt;Node5</title>
<path fill="none" stroke="midnightblue" d="M83.8723,-240.295C102.177,-261.902 136.494,-298.411 174,-318 181.422,-321.876 189.616,-324.966 197.89,-327.427"/>
<polygon fill="midnightblue" stroke="midnightblue" points="86.5338,-238.021 77.4594,-232.553 81.1429,-242.487 86.5338,-238.021"/>
</g>
<!-- Node10 -->
<g id="node10" class="node"><title>Node10</title>
<g id="a_node10"><a xlink:href="../../df/df8/class_cell_society_view.html#a6a72ed4ee014a9c3f0368ab26be873d6" target="_top" xlink:title="CellSocietyView.makeCAGame">
<polygon fill="white" stroke="black" points="1158.5,-289.5 1158.5,-308.5 1321.5,-308.5 1321.5,-289.5 1158.5,-289.5"/>
<text text-anchor="middle" x="1240" y="-296.5" font-family="Helvetica,sans-Serif" font-size="10.00">CellSocietyView.makeCAGame</text>
</a>
</g>
</g>
<!-- Node1&#45;&gt;Node10 -->
<g id="edge21" class="edge"><title>Node1&#45;&gt;Node10</title>
<path fill="none" stroke="midnightblue" d="M125.656,-234.402C141.243,-237.259 158.235,-240.059 174,-242 304.398,-258.055 337.617,-261 469,-261 469,-261 469,-261 855,-261 973.967,-261 1003.83,-266.229 1122,-280 1143.26,-282.477 1166.55,-286.078 1186.72,-289.48"/>
<polygon fill="midnightblue" stroke="midnightblue" points="126.116,-230.928 115.643,-232.526 124.827,-237.808 126.116,-230.928"/>
</g>
<!-- Node15 -->
<g id="node15" class="node"><title>Node15</title>
<g id="a_node15"><a xlink:href="../../da/d1e/class_segregation.html#ae7696748513b436c2578ff68b02d889d" target="_top" xlink:title="Segregation.getSamePercent">
<polygon fill="white" stroke="black" points="179.5,-213.5 179.5,-232.5 338.5,-232.5 338.5,-213.5 179.5,-213.5"/>
<text text-anchor="middle" x="259" y="-220.5" font-family="Helvetica,sans-Serif" font-size="10.00">Segregation.getSamePercent</text>
</a>
</g>
</g>
<!-- Node1&#45;&gt;Node15 -->
<g id="edge16" class="edge"><title>Node1&#45;&gt;Node15</title>
<path fill="none" stroke="midnightblue" d="M148.27,-223C158.506,-223 168.998,-223 179.242,-223"/>
<polygon fill="midnightblue" stroke="midnightblue" points="148.138,-219.5 138.138,-223 148.138,-226.5 148.138,-219.5"/>
</g>
<!-- Node18 -->
<g id="node18" class="node"><title>Node18</title>
<g id="a_node18"><a xlink:href="../../d2/d40/class_cellular_automata.html#ab39b5164764f20382801aa9a4663eb4b" target="_top" xlink:title="CellularAutomata.handleUpdate">
<polygon fill="white" stroke="black" points="174,-289.5 174,-308.5 344,-308.5 344,-289.5 174,-289.5"/>
<text text-anchor="middle" x="259" y="-296.5" font-family="Helvetica,sans-Serif" font-size="10.00">CellularAutomata.handleUpdate</text>
</a>
</g>
</g>
<!-- Node1&#45;&gt;Node18 -->
<g id="edge19" class="edge"><title>Node1&#45;&gt;Node18</title>
<path fill="none" stroke="midnightblue" d="M95.654,-237.505C116.341,-248.788 146.428,-264.275 174,-275 188.418,-280.608 204.682,-285.558 219.032,-289.483"/>
<polygon fill="midnightblue" stroke="midnightblue" points="97.3003,-234.416 86.8538,-232.65 93.9186,-240.545 97.3003,-234.416"/>
</g>
<!-- Node19 -->
<g id="node19" class="node"><title>Node19</title>
<g id="a_node19"><a xlink:href="../../d0/db0/class_wator.html#a0afccb8f97e33c1d21e51ee1a3f4922b" target="_top" xlink:title="Wator.ruleOne">
<polygon fill="white" stroke="black" points="217.5,-175.5 217.5,-194.5 300.5,-194.5 300.5,-175.5 217.5,-175.5"/>
<text text-anchor="middle" x="259" y="-182.5" font-family="Helvetica,sans-Serif" font-size="10.00">Wator.ruleOne</text>
</a>
</g>
</g>
<!-- Node1&#45;&gt;Node19 -->
<g id="edge22" class="edge"><title>Node1&#45;&gt;Node19</title>
<path fill="none" stroke="midnightblue" d="M127.455,-211.387C156.482,-205.52 191.016,-198.539 217.272,-193.232"/>
<polygon fill="midnightblue" stroke="midnightblue" points="126.549,-207.999 117.44,-213.411 127.936,-214.86 126.549,-207.999"/>
</g>
<!-- Node21 -->
<g id="node21" class="node"><title>Node21</title>
<g id="a_node21"><a xlink:href="../../d0/db0/class_wator.html#aa8dba59120d9d6d7d7521f3a4ee7b454" target="_top" xlink:title="Wator.ruleTwo">
<polygon fill="white" stroke="black" points="219,-137.5 219,-156.5 299,-156.5 299,-137.5 219,-137.5"/>
<text text-anchor="middle" x="259" y="-144.5" font-family="Helvetica,sans-Serif" font-size="10.00">Wator.ruleTwo</text>
</a>
</g>
</g>
<!-- Node1&#45;&gt;Node21 -->
<g id="edge24" class="edge"><title>Node1&#45;&gt;Node21</title>
<path fill="none" stroke="midnightblue" d="M93.1529,-207.847C113.654,-195.04 144.778,-177.063 174,-166 188.263,-160.6 204.495,-156.487 218.863,-153.493"/>
<polygon fill="midnightblue" stroke="midnightblue" points="91.0925,-205.009 84.5258,-213.323 94.8442,-210.919 91.0925,-205.009"/>
</g>
<!-- Node22 -->
<g id="node22" class="node"><title>Node22</title>
<g id="a_node22"><a xlink:href="../../da/d1e/class_segregation.html#ae51122aa23967e3e2af576026eb1d912" target="_top" xlink:title="Segregation.setUpInitial\lConfig">
<polygon fill="white" stroke="black" points="193.5,-88 193.5,-118 324.5,-118 324.5,-88 193.5,-88"/>
<text text-anchor="start" x="201.5" y="-106" font-family="Helvetica,sans-Serif" font-size="10.00">Segregation.setUpInitial</text>
<text text-anchor="middle" x="259" y="-95" font-family="Helvetica,sans-Serif" font-size="10.00">Config</text>
</a>
</g>
</g>
<!-- Node1&#45;&gt;Node22 -->
<g id="edge26" class="edge"><title>Node1&#45;&gt;Node22</title>
<path fill="none" stroke="midnightblue" d="M84.37,-205.771C102.967,-184.535 137.357,-148.725 174,-128 180.754,-124.18 188.151,-120.889 195.667,-118.07"/>
<polygon fill="midnightblue" stroke="midnightblue" points="81.6892,-203.52 77.8306,-213.388 87.0003,-208.08 81.6892,-203.52"/>
</g>
<!-- Node23 -->
<g id="node23" class="node"><title>Node23</title>
<g id="a_node23"><a xlink:href="../../d2/d40/class_cellular_automata.html#ae0dc3747c80392dfc7d36e80e86805a5" target="_top" xlink:title="CellularAutomata.setUpInitial\lConfig">
<polygon fill="white" stroke="black" points="181,-39 181,-69 337,-69 337,-39 181,-39"/>
<text text-anchor="start" x="189" y="-57" font-family="Helvetica,sans-Serif" font-size="10.00">CellularAutomata.setUpInitial</text>
<text text-anchor="middle" x="259" y="-46" font-family="Helvetica,sans-Serif" font-size="10.00">Config</text>
</a>
</g>
</g>
<!-- Node1&#45;&gt;Node23 -->
<g id="edge27" class="edge"><title>Node1&#45;&gt;Node23</title>
<path fill="none" stroke="midnightblue" d="M78.5893,-204.024C93.5283,-173.158 127.232,-112.197 174,-79 179.459,-75.1248 185.523,-71.8433 191.823,-69.0657"/>
<polygon fill="midnightblue" stroke="midnightblue" points="75.3372,-202.715 74.2507,-213.254 81.6723,-205.693 75.3372,-202.715"/>
</g>
<!-- Node25 -->
<g id="node25" class="node"><title>Node25</title>
<g id="a_node25"><a xlink:href="../../d0/db0/class_wator.html#a0338ba17229ff94cb2310835a43c8513" target="_top" xlink:title="Wator.setUpInitialConfig">
<polygon fill="white" stroke="black" points="194.5,-0.5 194.5,-19.5 323.5,-19.5 323.5,-0.5 194.5,-0.5"/>
<text text-anchor="middle" x="259" y="-7.5" font-family="Helvetica,sans-Serif" font-size="10.00">Wator.setUpInitialConfig</text>
</a>
</g>
</g>
<!-- Node1&#45;&gt;Node25 -->
<g id="edge29" class="edge"><title>Node1&#45;&gt;Node25</title>
<path fill="none" stroke="midnightblue" d="M74.7757,-203.42C85.4256,-164.085 114.962,-75.3622 174,-30 180.063,-25.3419 187.043,-21.7459 194.336,-18.9739"/>
<polygon fill="midnightblue" stroke="midnightblue" points="71.3805,-202.569 72.2639,-213.127 78.1573,-204.323 71.3805,-202.569"/>
</g>
<!-- Node3 -->
<g id="node3" class="node"><title>Node3</title>
<g id="a_node3"><a xlink:href="../../d9/df1/class_fire.html#a9848867ebe2faddb27dfd0994cb565a8" target="_top" xlink:title="Fire.checkRules">
<polygon fill="white" stroke="black" points="425.5,-403.5 425.5,-422.5 514.5,-422.5 514.5,-403.5 425.5,-403.5"/>
<text text-anchor="middle" x="470" y="-410.5" font-family="Helvetica,sans-Serif" font-size="10.00">Fire.checkRules</text>
</a>
</g>
</g>
<!-- Node2&#45;&gt;Node3 -->
<g id="edge2" class="edge"><title>Node2&#45;&gt;Node3</title>
<path fill="none" stroke="midnightblue" d="M326.035,-413C358.443,-413 396.586,-413 425.32,-413"/>
<polygon fill="midnightblue" stroke="midnightblue" points="325.734,-409.5 315.734,-413 325.734,-416.5 325.734,-409.5"/>
</g>
<!-- Node6 -->
<g id="node6" class="node"><title>Node6</title>
<g id="a_node6"><a xlink:href="../../d2/d40/class_cellular_automata.html#a8f4c8a2f32137db67dd31f5afb4b62c3" target="_top" xlink:title="CellularAutomata.updateNextGen">
<polygon fill="white" stroke="black" points="380.5,-308.5 380.5,-327.5 559.5,-327.5 559.5,-308.5 380.5,-308.5"/>
<text text-anchor="middle" x="470" y="-315.5" font-family="Helvetica,sans-Serif" font-size="10.00">CellularAutomata.updateNextGen</text>
</a>
</g>
</g>
<!-- Node5&#45;&gt;Node6 -->
<g id="edge5" class="edge"><title>Node5&#45;&gt;Node6</title>
<path fill="none" stroke="midnightblue" d="M346.738,-329.115C357.837,-328.106 369.212,-327.072 380.342,-326.06"/>
<polygon fill="midnightblue" stroke="midnightblue" points="346.279,-325.642 336.637,-330.033 346.913,-332.613 346.279,-325.642"/>
</g>
<!-- Node7 -->
<g id="node7" class="node"><title>Node7</title>
<g id="a_node7"><a xlink:href="../../df/df8/class_cell_society_view.html#ad52b914fa03b45d8bc9d64fc407660f3" target="_top" xlink:title="CellSocietyView.updateView">
<polygon fill="white" stroke="black" points="596.5,-308.5 596.5,-327.5 745.5,-327.5 745.5,-308.5 596.5,-308.5"/>
<text text-anchor="middle" x="671" y="-315.5" font-family="Helvetica,sans-Serif" font-size="10.00">CellSocietyView.updateView</text>
</a>
</g>
</g>
<!-- Node6&#45;&gt;Node7 -->
<g id="edge6" class="edge"><title>Node6&#45;&gt;Node7</title>
<path fill="none" stroke="midnightblue" d="M569.8,-318C578.732,-318 587.672,-318 596.332,-318"/>
<polygon fill="midnightblue" stroke="midnightblue" points="569.733,-314.5 559.733,-318 569.733,-321.5 569.733,-314.5"/>
</g>
<!-- Node8 -->
<g id="node8" class="node"><title>Node8</title>
<g id="a_node8"><a xlink:href="../../df/df8/class_cell_society_view.html#aec6e94a6cf275f0b5d64a4b8adccd7d0" target="_top" xlink:title="CellSocietyView.makeStep\lButton">
<polygon fill="white" stroke="black" points="782.5,-328 782.5,-358 925.5,-358 925.5,-328 782.5,-328"/>
<text text-anchor="start" x="790.5" y="-346" font-family="Helvetica,sans-Serif" font-size="10.00">CellSocietyView.makeStep</text>
<text text-anchor="middle" x="854" y="-335" font-family="Helvetica,sans-Serif" font-size="10.00">Button</text>
</a>
</g>
</g>
<!-- Node7&#45;&gt;Node8 -->
<g id="edge7" class="edge"><title>Node7&#45;&gt;Node8</title>
<path fill="none" stroke="midnightblue" d="M750.919,-328.9C761.409,-330.349 772.11,-331.827 782.446,-333.255"/>
<polygon fill="midnightblue" stroke="midnightblue" points="751.33,-325.424 740.945,-327.523 750.372,-332.358 751.33,-325.424"/>
</g>
<!-- Node14 -->
<g id="node14" class="node"><title>Node14</title>
<g id="a_node14"><a xlink:href="../../df/df8/class_cell_society_view.html#adf6a6b0542d00677a9fffbb8e3c03ffe" target="_top" xlink:title="CellSocietyView.makeTimeline">
<polygon fill="white" stroke="black" points="962,-289.5 962,-308.5 1122,-308.5 1122,-289.5 962,-289.5"/>
<text text-anchor="middle" x="1042" y="-296.5" font-family="Helvetica,sans-Serif" font-size="10.00">CellSocietyView.makeTimeline</text>
</a>
</g>
</g>
<!-- Node7&#45;&gt;Node14 -->
<g id="edge14" class="edge"><title>Node7&#45;&gt;Node14</title>
<path fill="none" stroke="midnightblue" d="M755.902,-313.68C817.727,-310.496 901.261,-306.195 961.917,-303.072"/>
<polygon fill="midnightblue" stroke="midnightblue" points="755.593,-310.191 745.786,-314.201 755.953,-317.182 755.593,-310.191"/>
</g>
<!-- Node9 -->
<g id="node9" class="node"><title>Node9</title>
<g id="a_node9"><a xlink:href="../../df/df8/class_cell_society_view.html#a7bdbd4e8fd3893e672eb22015603f6dc" target="_top" xlink:title="CellSocietyView.makeButtons">
<polygon fill="white" stroke="black" points="963,-327.5 963,-346.5 1121,-346.5 1121,-327.5 963,-327.5"/>
<text text-anchor="middle" x="1042" y="-334.5" font-family="Helvetica,sans-Serif" font-size="10.00">CellSocietyView.makeButtons</text>
</a>
</g>
</g>
<!-- Node8&#45;&gt;Node9 -->
<g id="edge8" class="edge"><title>Node8&#45;&gt;Node9</title>
<path fill="none" stroke="midnightblue" d="M935.635,-340.399C944.612,-340.109 953.746,-339.815 962.693,-339.526"/>
<polygon fill="midnightblue" stroke="midnightblue" points="935.466,-336.902 925.584,-340.723 935.692,-343.899 935.466,-336.902"/>
</g>
<!-- Node9&#45;&gt;Node10 -->
<g id="edge9" class="edge"><title>Node9&#45;&gt;Node10</title>
<path fill="none" stroke="midnightblue" d="M1102.26,-325.511C1130.23,-320.089 1163.21,-313.694 1189.77,-308.544"/>
<polygon fill="midnightblue" stroke="midnightblue" points="1101.36,-322.121 1092.21,-327.46 1102.69,-328.993 1101.36,-322.121"/>
</g>
<!-- Node11 -->
<g id="node11" class="node"><title>Node11</title>
<g id="a_node11"><a xlink:href="../../df/df8/class_cell_society_view.html#a2c047a3972078bb0a5490ed225ef2dfa" target="_top" xlink:title="CellSocietyView.loadNewFile">
<polygon fill="white" stroke="black" points="1358.5,-289.5 1358.5,-308.5 1507.5,-308.5 1507.5,-289.5 1358.5,-289.5"/>
<text text-anchor="middle" x="1433" y="-296.5" font-family="Helvetica,sans-Serif" font-size="10.00">CellSocietyView.loadNewFile</text>
</a>
</g>
</g>
<!-- Node10&#45;&gt;Node11 -->
<g id="edge10" class="edge"><title>Node10&#45;&gt;Node11</title>
<path fill="none" stroke="midnightblue" d="M1332.01,-299C1340.8,-299 1349.64,-299 1358.24,-299"/>
<polygon fill="midnightblue" stroke="midnightblue" points="1331.72,-295.5 1321.72,-299 1331.72,-302.5 1331.72,-295.5"/>
</g>
<!-- Node12 -->
<g id="node12" class="node"><title>Node12</title>
<g id="a_node12"><a xlink:href="../../df/df8/class_cell_society_view.html#a656cfed0ba32bc41bbd0c4087860db4b" target="_top" xlink:title="CellSocietyView.makeLoad\lButton">
<polygon fill="white" stroke="black" points="1544.5,-303 1544.5,-333 1687.5,-333 1687.5,-303 1544.5,-303"/>
<text text-anchor="start" x="1552.5" y="-321" font-family="Helvetica,sans-Serif" font-size="10.00">CellSocietyView.makeLoad</text>
<text text-anchor="middle" x="1616" y="-310" font-family="Helvetica,sans-Serif" font-size="10.00">Button</text>
</a>
</g>
</g>
<!-- Node11&#45;&gt;Node12 -->
<g id="edge11" class="edge"><title>Node11&#45;&gt;Node12</title>
<path fill="none" stroke="midnightblue" d="M1517.65,-307.781C1526.59,-308.719 1535.61,-309.666 1544.37,-310.586"/>
<polygon fill="midnightblue" stroke="midnightblue" points="1517.93,-304.291 1507.62,-306.728 1517.2,-311.253 1517.93,-304.291"/>
</g>
<!-- Node12&#45;&gt;Node9 -->
<g id="edge13" class="edge"><title>Node12&#45;&gt;Node9</title>
<path fill="none" stroke="midnightblue" d="M1534.23,-320.683C1424.44,-324.33 1229.39,-330.809 1121.04,-334.408"/>
<polygon fill="midnightblue" stroke="midnightblue" points="1534.38,-324.18 1544.26,-320.35 1534.15,-317.184 1534.38,-324.18"/>
</g>
<!-- Node13 -->
<g id="node13" class="node"><title>Node13</title>
<g id="a_node13"><a xlink:href="../../df/df8/class_cell_society_view.html#a53ab66afdeb23b3fc89e54a44be7ced5" target="_top" xlink:title="CellSocietyView.CellSocietyView">
<polygon fill="white" stroke="black" points="1724.5,-308.5 1724.5,-327.5 1891.5,-327.5 1891.5,-308.5 1724.5,-308.5"/>
<text text-anchor="middle" x="1808" y="-315.5" font-family="Helvetica,sans-Serif" font-size="10.00">CellSocietyView.CellSocietyView</text>
</a>
</g>
</g>
<!-- Node12&#45;&gt;Node13 -->
<g id="edge12" class="edge"><title>Node12&#45;&gt;Node13</title>
<path fill="none" stroke="midnightblue" d="M1697.92,-318C1706.66,-318 1715.57,-318 1724.33,-318"/>
<polygon fill="midnightblue" stroke="midnightblue" points="1697.75,-314.5 1687.75,-318 1697.75,-321.5 1697.75,-314.5"/>
</g>
<!-- Node14&#45;&gt;Node10 -->
<g id="edge15" class="edge"><title>Node14&#45;&gt;Node10</title>
<path fill="none" stroke="midnightblue" d="M1132.27,-299C1140.94,-299 1149.7,-299 1158.27,-299"/>
<polygon fill="midnightblue" stroke="midnightblue" points="1132.16,-295.5 1122.16,-299 1132.16,-302.5 1132.16,-295.5"/>
</g>
<!-- Node16 -->
<g id="node16" class="node"><title>Node16</title>
<g id="a_node16"><a xlink:href="../../da/d1e/class_segregation.html#a65706fcdb683f11f27836d3f4c591f3c" target="_top" xlink:title="Segregation.ruleOne">
<polygon fill="white" stroke="black" points="412,-213.5 412,-232.5 528,-232.5 528,-213.5 412,-213.5"/>
<text text-anchor="middle" x="470" y="-220.5" font-family="Helvetica,sans-Serif" font-size="10.00">Segregation.ruleOne</text>
</a>
</g>
</g>
<!-- Node15&#45;&gt;Node16 -->
<g id="edge17" class="edge"><title>Node15&#45;&gt;Node16</title>
<path fill="none" stroke="midnightblue" d="M348.779,-223C370.133,-223 392.383,-223 411.852,-223"/>
<polygon fill="midnightblue" stroke="midnightblue" points="348.716,-219.5 338.716,-223 348.716,-226.5 348.716,-219.5"/>
</g>
<!-- Node17 -->
<g id="node17" class="node"><title>Node17</title>
<g id="a_node17"><a xlink:href="../../da/d1e/class_segregation.html#a8272e13082766c6c6d45fc1e58acd6dc" target="_top" xlink:title="Segregation.checkRules">
<polygon fill="white" stroke="black" points="605.5,-213.5 605.5,-232.5 736.5,-232.5 736.5,-213.5 605.5,-213.5"/>
<text text-anchor="middle" x="671" y="-220.5" font-family="Helvetica,sans-Serif" font-size="10.00">Segregation.checkRules</text>
</a>
</g>
</g>
<!-- Node16&#45;&gt;Node17 -->
<g id="edge18" class="edge"><title>Node16&#45;&gt;Node17</title>
<path fill="none" stroke="midnightblue" d="M538.129,-223C559.798,-223 583.766,-223 605.259,-223"/>
<polygon fill="midnightblue" stroke="midnightblue" points="538.025,-219.5 528.025,-223 538.025,-226.5 538.025,-219.5"/>
</g>
<!-- Node18&#45;&gt;Node6 -->
<g id="edge20" class="edge"><title>Node18&#45;&gt;Node6</title>
<path fill="none" stroke="midnightblue" d="M354.227,-307.566C362.899,-308.354 371.666,-309.151 380.286,-309.935"/>
<polygon fill="midnightblue" stroke="midnightblue" points="354.381,-304.066 344.105,-306.646 353.747,-311.037 354.381,-304.066"/>
</g>
<!-- Node20 -->
<g id="node20" class="node"><title>Node20</title>
<g id="a_node20"><a xlink:href="../../d0/db0/class_wator.html#a422810cdcb035633301b3469cbee5e34" target="_top" xlink:title="Wator.checkRules">
<polygon fill="white" stroke="black" points="421,-156.5 421,-175.5 519,-175.5 519,-156.5 421,-156.5"/>
<text text-anchor="middle" x="470" y="-163.5" font-family="Helvetica,sans-Serif" font-size="10.00">Wator.checkRules</text>
</a>
</g>
</g>
<!-- Node19&#45;&gt;Node20 -->
<g id="edge23" class="edge"><title>Node19&#45;&gt;Node20</title>
<path fill="none" stroke="midnightblue" d="M310.853,-180.377C344.39,-177.328 388.04,-173.36 420.984,-170.365"/>
<polygon fill="midnightblue" stroke="midnightblue" points="310.435,-176.9 300.793,-181.292 311.069,-183.872 310.435,-176.9"/>
</g>
<!-- Node21&#45;&gt;Node20 -->
<g id="edge25" class="edge"><title>Node21&#45;&gt;Node20</title>
<path fill="none" stroke="midnightblue" d="M309.379,-151.489C343,-154.545 387.286,-158.571 420.68,-161.607"/>
<polygon fill="midnightblue" stroke="midnightblue" points="309.587,-147.994 299.311,-150.574 308.953,-154.965 309.587,-147.994"/>
</g>
<!-- Node24 -->
<g id="node24" class="node"><title>Node24</title>
<g id="a_node24"><a xlink:href="../../d2/d40/class_cellular_automata.html#a881bd9cb2208f3bff6fa64714eedf32f" target="_top" xlink:title="CellularAutomata.init">
<polygon fill="white" stroke="black" points="411.5,-44.5 411.5,-63.5 528.5,-63.5 528.5,-44.5 411.5,-44.5"/>
<text text-anchor="middle" x="470" y="-51.5" font-family="Helvetica,sans-Serif" font-size="10.00">CellularAutomata.init</text>
</a>
</g>
</g>
<!-- Node23&#45;&gt;Node24 -->
<g id="edge28" class="edge"><title>Node23&#45;&gt;Node24</title>
<path fill="none" stroke="midnightblue" d="M347.399,-54C368.993,-54 391.589,-54 411.361,-54"/>
<polygon fill="midnightblue" stroke="midnightblue" points="347.23,-50.5001 337.23,-54 347.23,-57.5001 347.23,-50.5001"/>
</g>
</g>
</svg>
        <g id="navigator" transform="translate(0 0)" fill="#404254">
                <rect fill="#f2f5e9" fill-opacity="0.5" stroke="#606060" stroke-width=".5" x="0" y="0" width="60" height="60"/>
                <use id="zoomplus" xlink:href="#zoomPlus" x="17" y="9" onmousedown="handleZoom(evt,'in')"/>
                <use id="zoomminus" xlink:href="#zoomMin" x="42" y="9" onmousedown="handleZoom(evt,'out')"/>
                <use id="reset" xlink:href="#resetDef" x="30" y="36" onmousedown="handleReset()"/>
                <g id="arrowUp" xlink:href="#dirArrow" transform="translate(30 24)" onmousedown="handlePan(0,-1)">
                  <use xlink:href="#rim" fill="#404040">
                        <set attributeName="fill" to="#808080" begin="arrowUp.mouseover" end="arrowUp.mouseout"/>
                  </use>
                  <path fill="none" stroke="white" stroke-width="1.5" d="M0,-3.0v7 M-2.5,-0.5L0,-3.0L2.5,-0.5"/>
                </g>
                <g id="arrowRight" xlink:href="#dirArrow" transform="rotate(90) translate(36 -43)" onmousedown="handlePan(1,0)">
                  <use xlink:href="#rim" fill="#404040">
                        <set attributeName="fill" to="#808080" begin="arrowRight.mouseover" end="arrowRight.mouseout"/>
                  </use>
                  <path fill="none" stroke="white" stroke-width="1.5" d="M0,-3.0v7 M-2.5,-0.5L0,-3.0L2.5,-0.5"/>
                </g>
                <g id="arrowDown" xlink:href="#dirArrow" transform="rotate(180) translate(-30 -48)" onmousedown="handlePan(0,1)">
                  <use xlink:href="#rim" fill="#404040">
                        <set attributeName="fill" to="#808080" begin="arrowDown.mouseover" end="arrowDown.mouseout"/>
                  </use>
                  <path fill="none" stroke="white" stroke-width="1.5" d="M0,-3.0v7 M-2.5,-0.5L0,-3.0L2.5,-0.5"/>
                </g>
                <g id="arrowLeft" xlink:href="#dirArrow" transform="rotate(270) translate(-36 17)" onmousedown="handlePan(-1,0)">
                  <use xlink:href="#rim" fill="#404040">
                        <set attributeName="fill" to="#808080" begin="arrowLeft.mouseover" end="arrowLeft.mouseout"/>
                  </use>
                  <path fill="none" stroke="white" stroke-width="1.5" d="M0,-3.0v7 M-2.5,-0.5L0,-3.0L2.5,-0.5"/>
                </g>
        </g>
        <svg viewBox="0 0 15 15" width="100%" height="30px" preserveAspectRatio="xMaxYMin meet">
         <g id="arrow_out" transform="scale(0.3 0.3)">
          <a xlink:href="class_cellular_automata_a34ceed434c942d34ff03169b92684726_icgraph_org.svg" target="_base">
           <rect id="button" ry="5" rx="5" y="6" x="6" height="38" width="38"
                fill="#f2f5e9" fill-opacity="0.5" stroke="#606060" stroke-width="1.0"/>
           <path id="arrow"
             d="M 11.500037,31.436501 C 11.940474,20.09759 22.043105,11.32322 32.158766,21.979434 L 37.068811,17.246167 C 37.068811,17.246167 37.088388,32 37.088388,32 L 22.160133,31.978069 C 22.160133,31.978069 26.997745,27.140456 26.997745,27.140456 C 18.528582,18.264221 13.291696,25.230495 11.500037,31.436501 z"
             style="fill:#404040;"/>
          </a>
         </g>
        </svg>
</svg>
