<?xml version="1.0" encoding="UTF-8" standalone="no"?>
<!DOCTYPE svg PUBLIC "-//W3C//DTD SVG 1.1//EN"
 "http://www.w3.org/Graphics/SVG/1.1/DTD/svg11.dtd">
<!-- Generated by graphviz version 2.36.0 (20140111.2315)
 -->
<!-- Title: CellularAutomata.applyRules Pages: 1 -->
<svg width="670pt" height="142pt"
 viewBox="0.00 0.00 670.00 142.00" xmlns="http://www.w3.org/2000/svg" xmlns:xlink="http://www.w3.org/1999/xlink">
<g id="graph0" class="graph" transform="scale(1 1) rotate(0) translate(4 138)">
<title>CellularAutomata.applyRules</title>
<polygon fill="white" stroke="none" points="-4,4 -4,-138 666,-138 666,4 -4,4"/>
<!-- Node1 -->
<g id="node1" class="node"><title>Node1</title>
<polygon fill="#bfbfbf" stroke="black" points="0.5,-75.5 0.5,-94.5 153.5,-94.5 153.5,-75.5 0.5,-75.5"/>
<text text-anchor="middle" x="77" y="-82.5" font-family="Helvetica,sans-Serif" font-size="10.00">CellularAutomata.applyRules</text>
</g>
<!-- Node2 -->
<g id="node2" class="node"><title>Node2</title>
<g id="a_node2"><a xlink:href="../../d2/d40/class_cellular_automata.html#ae8ef63af0ee6db6d22b32ce6b586e3cd" target="_top" xlink:title="CellularAutomata.update">
<polygon fill="white" stroke="black" points="190.5,-75.5 190.5,-94.5 327.5,-94.5 327.5,-75.5 190.5,-75.5"/>
<text text-anchor="middle" x="259" y="-82.5" font-family="Helvetica,sans-Serif" font-size="10.00">CellularAutomata.update</text>
</a>
</g>
</g>
<!-- Node1&#45;&gt;Node2 -->
<g id="edge1" class="edge"><title>Node1&#45;&gt;Node2</title>
<path fill="none" stroke="midnightblue" d="M163.64,-85C172.611,-85 181.641,-85 190.371,-85"/>
<polygon fill="midnightblue" stroke="midnightblue" points="163.554,-81.5001 153.554,-85 163.554,-88.5001 163.554,-81.5001"/>
</g>
<!-- Node3 -->
<g id="node3" class="node"><title>Node3</title>
<g id="a_node3"><a xlink:href="../../d2/d40/class_cellular_automata.html#abe82e6f03caff539c579448cb3bcbb25" target="_top" xlink:title="CellularAutomata.makeTimeline">
<polygon fill="white" stroke="black" points="364,-104.5 364,-123.5 534,-123.5 534,-104.5 364,-104.5"/>
<text text-anchor="middle" x="449" y="-111.5" font-family="Helvetica,sans-Serif" font-size="10.00">CellularAutomata.makeTimeline</text>
</a>
</g>
</g>
<!-- Node2&#45;&gt;Node3 -->
<g id="edge2" class="edge"><title>Node2&#45;&gt;Node3</title>
<path fill="none" stroke="midnightblue" d="M332.154,-96.1302C349.961,-98.877 368.876,-101.795 386.144,-104.458"/>
<polygon fill="midnightblue" stroke="midnightblue" points="332.235,-92.6014 321.819,-94.5359 331.168,-99.5195 332.235,-92.6014"/>
</g>
<!-- Node5 -->
<g id="node5" class="node"><title>Node5</title>
<g id="a_node5"><a xlink:href="../../d2/d40/class_cellular_automata.html#a68732247a66b6d9f32eb8fcfda70bda2" target="_top" xlink:title="CellularAutomata.stepForward">
<polygon fill="white" stroke="black" points="368.5,-47.5 368.5,-66.5 529.5,-66.5 529.5,-47.5 368.5,-47.5"/>
<text text-anchor="middle" x="449" y="-54.5" font-family="Helvetica,sans-Serif" font-size="10.00">CellularAutomata.stepForward</text>
</a>
</g>
</g>
<!-- Node2&#45;&gt;Node5 -->
<g id="edge4" class="edge"><title>Node2&#45;&gt;Node5</title>
<path fill="none" stroke="midnightblue" d="M334.05,-73.9713C350.543,-71.5149 367.895,-68.9305 383.947,-66.5398"/>
<polygon fill="midnightblue" stroke="midnightblue" points="333.286,-70.5464 323.911,-75.4814 334.317,-77.47 333.286,-70.5464"/>
</g>
<!-- Node4 -->
<g id="node4" class="node"><title>Node4</title>
<g id="a_node4"><a xlink:href="../../d0/d4b/class_main.html#a7595d13c514a02c35aca322dd91d2063" target="_top" xlink:title="Main.start">
<polygon fill="white" stroke="black" points="583.5,-114.5 583.5,-133.5 648.5,-133.5 648.5,-114.5 583.5,-114.5"/>
<text text-anchor="middle" x="616" y="-121.5" font-family="Helvetica,sans-Serif" font-size="10.00">Main.start</text>
</a>
</g>
</g>
<!-- Node3&#45;&gt;Node4 -->
<g id="edge3" class="edge"><title>Node3&#45;&gt;Node4</title>
<path fill="none" stroke="midnightblue" d="M544.618,-119.734C558.522,-120.577 571.957,-121.391 583.296,-122.079"/>
<polygon fill="midnightblue" stroke="midnightblue" points="544.627,-116.229 534.433,-119.117 544.203,-123.216 544.627,-116.229"/>
</g>
<!-- Node6 -->
<g id="node6" class="node"><title>Node6</title>
<g id="a_node6"><a xlink:href="../../d9/df1/class_fire.html#a22e1b892843e691d4e6e3fcf8e6a893a" target="_top" xlink:title="Fire.init">
<polygon fill="white" stroke="black" points="591,-76.5 591,-95.5 641,-95.5 641,-76.5 591,-76.5"/>
<text text-anchor="middle" x="616" y="-83.5" font-family="Helvetica,sans-Serif" font-size="10.00">Fire.init</text>
</a>
</g>
</g>
<!-- Node5&#45;&gt;Node6 -->
<g id="edge5" class="edge"><title>Node5&#45;&gt;Node6</title>
<path fill="none" stroke="midnightblue" d="M514.618,-68.3571C541.463,-73.0754 570.962,-78.26 590.991,-81.7802"/>
<polygon fill="midnightblue" stroke="midnightblue" points="514.939,-64.86 504.484,-66.5761 513.728,-71.7543 514.939,-64.86"/>
</g>
<!-- Node7 -->
<g id="node7" class="node"><title>Node7</title>
<g id="a_node7"><a xlink:href="../../d8/d84/class_game_of_life.html#a9ffd6f1b93454f54600e1db30540c21d" target="_top" xlink:title="GameOfLife.init">
<polygon fill="white" stroke="black" points="571,-38.5 571,-57.5 661,-57.5 661,-38.5 571,-38.5"/>
<text text-anchor="middle" x="616" y="-45.5" font-family="Helvetica,sans-Serif" font-size="10.00">GameOfLife.init</text>
</a>
</g>
</g>
<!-- Node5&#45;&gt;Node7 -->
<g id="edge6" class="edge"><title>Node5&#45;&gt;Node7</title>
<path fill="none" stroke="midnightblue" d="M539.895,-52.0966C550.604,-51.5125 561.145,-50.9375 570.79,-50.4115"/>
<polygon fill="midnightblue" stroke="midnightblue" points="539.395,-48.6186 529.6,-52.6582 539.776,-55.6082 539.395,-48.6186"/>
</g>
<!-- Node8 -->
<g id="node8" class="node"><title>Node8</title>
<g id="a_node8"><a xlink:href="../../da/d1e/class_segregation.html#abbf23897b2ba933ff6d6c20200178ba3" target="_top" xlink:title="Segregation.init">
<polygon fill="white" stroke="black" points="570,-0.5 570,-19.5 662,-19.5 662,-0.5 570,-0.5"/>
<text text-anchor="middle" x="616" y="-7.5" font-family="Helvetica,sans-Serif" font-size="10.00">Segregation.init</text>
</a>
</g>
</g>
<!-- Node5&#45;&gt;Node8 -->
<g id="edge7" class="edge"><title>Node5&#45;&gt;Node8</title>
<path fill="none" stroke="midnightblue" d="M493.163,-44.7052C520.713,-36.8575 555.905,-26.833 581.377,-19.5776"/>
<polygon fill="midnightblue" stroke="midnightblue" points="492.049,-41.3832 483.39,-47.4888 493.967,-48.1154 492.049,-41.3832"/>
</g>
</g>
</svg>
