<?xml version="1.0" encoding="UTF-8" standalone="no"?>
<!DOCTYPE svg PUBLIC "-//W3C//DTD SVG 1.1//EN"
 "http://www.w3.org/Graphics/SVG/1.1/DTD/svg11.dtd">
<!-- Generated by graphviz version 2.36.0 (20140111.2315)
 -->
<!-- Title: CellularAutomata.handleUpdate Pages: 1 -->
<svg width="686pt" height="142pt"
 viewBox="0.00 0.00 686.00 142.00" xmlns="http://www.w3.org/2000/svg" xmlns:xlink="http://www.w3.org/1999/xlink">
<g id="graph0" class="graph" transform="scale(1 1) rotate(0) translate(4 138)">
<title>CellularAutomata.handleUpdate</title>
<polygon fill="white" stroke="none" points="-4,4 -4,-138 682,-138 682,4 -4,4"/>
<!-- Node1 -->
<g id="node1" class="node"><title>Node1</title>
<polygon fill="#bfbfbf" stroke="black" points="0,-75.5 0,-94.5 170,-94.5 170,-75.5 0,-75.5"/>
<text text-anchor="middle" x="85" y="-82.5" font-family="Helvetica,sans-Serif" font-size="10.00">CellularAutomata.handleUpdate</text>
</g>
<!-- Node2 -->
<g id="node2" class="node"><title>Node2</title>
<g id="a_node2"><a xlink:href="../../d2/d40/class_cellular_automata.html#ae8ef63af0ee6db6d22b32ce6b586e3cd" target="_top" xlink:title="CellularAutomata.update">
<polygon fill="white" stroke="black" points="206.5,-75.5 206.5,-94.5 343.5,-94.5 343.5,-75.5 206.5,-75.5"/>
<text text-anchor="middle" x="275" y="-82.5" font-family="Helvetica,sans-Serif" font-size="10.00">CellularAutomata.update</text>
</a>
</g>
</g>
<!-- Node1&#45;&gt;Node2 -->
<g id="edge1" class="edge"><title>Node1&#45;&gt;Node2</title>
<path fill="none" stroke="midnightblue" d="M180.365,-85C189.122,-85 197.874,-85 206.319,-85"/>
<polygon fill="midnightblue" stroke="midnightblue" points="180.102,-81.5001 170.102,-85 180.102,-88.5001 180.102,-81.5001"/>
</g>
<!-- Node3 -->
<g id="node3" class="node"><title>Node3</title>
<g id="a_node3"><a xlink:href="../../d2/d40/class_cellular_automata.html#abe82e6f03caff539c579448cb3bcbb25" target="_top" xlink:title="CellularAutomata.makeTimeline">
<polygon fill="white" stroke="black" points="380,-104.5 380,-123.5 550,-123.5 550,-104.5 380,-104.5"/>
<text text-anchor="middle" x="465" y="-111.5" font-family="Helvetica,sans-Serif" font-size="10.00">CellularAutomata.makeTimeline</text>
</a>
</g>
</g>
<!-- Node2&#45;&gt;Node3 -->
<g id="edge2" class="edge"><title>Node2&#45;&gt;Node3</title>
<path fill="none" stroke="midnightblue" d="M348.154,-96.1302C365.961,-98.877 384.876,-101.795 402.144,-104.458"/>
<polygon fill="midnightblue" stroke="midnightblue" points="348.235,-92.6014 337.819,-94.5359 347.168,-99.5195 348.235,-92.6014"/>
</g>
<!-- Node5 -->
<g id="node5" class="node"><title>Node5</title>
<g id="a_node5"><a xlink:href="../../d2/d40/class_cellular_automata.html#a68732247a66b6d9f32eb8fcfda70bda2" target="_top" xlink:title="CellularAutomata.stepForward">
<polygon fill="white" stroke="black" points="384.5,-47.5 384.5,-66.5 545.5,-66.5 545.5,-47.5 384.5,-47.5"/>
<text text-anchor="middle" x="465" y="-54.5" font-family="Helvetica,sans-Serif" font-size="10.00">CellularAutomata.stepForward</text>
</a>
</g>
</g>
<!-- Node2&#45;&gt;Node5 -->
<g id="edge4" class="edge"><title>Node2&#45;&gt;Node5</title>
<path fill="none" stroke="midnightblue" d="M350.05,-73.9713C366.543,-71.5149 383.895,-68.9305 399.947,-66.5398"/>
<polygon fill="midnightblue" stroke="midnightblue" points="349.286,-70.5464 339.911,-75.4814 350.317,-77.47 349.286,-70.5464"/>
</g>
<!-- Node4 -->
<g id="node4" class="node"><title>Node4</title>
<g id="a_node4"><a xlink:href="../../d0/d4b/class_main.html#a7595d13c514a02c35aca322dd91d2063" target="_top" xlink:title="Main.start">
<polygon fill="white" stroke="black" points="599.5,-114.5 599.5,-133.5 664.5,-133.5 664.5,-114.5 599.5,-114.5"/>
<text text-anchor="middle" x="632" y="-121.5" font-family="Helvetica,sans-Serif" font-size="10.00">Main.start</text>
</a>
</g>
</g>
<!-- Node3&#45;&gt;Node4 -->
<g id="edge3" class="edge"><title>Node3&#45;&gt;Node4</title>
<path fill="none" stroke="midnightblue" d="M560.618,-119.734C574.522,-120.577 587.957,-121.391 599.296,-122.079"/>
<polygon fill="midnightblue" stroke="midnightblue" points="560.627,-116.229 550.433,-119.117 560.203,-123.216 560.627,-116.229"/>
</g>
<!-- Node6 -->
<g id="node6" class="node"><title>Node6</title>
<g id="a_node6"><a xlink:href="../../d9/df1/class_fire.html#a22e1b892843e691d4e6e3fcf8e6a893a" target="_top" xlink:title="Fire.init">
<polygon fill="white" stroke="black" points="607,-76.5 607,-95.5 657,-95.5 657,-76.5 607,-76.5"/>
<text text-anchor="middle" x="632" y="-83.5" font-family="Helvetica,sans-Serif" font-size="10.00">Fire.init</text>
</a>
</g>
</g>
<!-- Node5&#45;&gt;Node6 -->
<g id="edge5" class="edge"><title>Node5&#45;&gt;Node6</title>
<path fill="none" stroke="midnightblue" d="M530.618,-68.3571C557.463,-73.0754 586.962,-78.26 606.991,-81.7802"/>
<polygon fill="midnightblue" stroke="midnightblue" points="530.939,-64.86 520.484,-66.5761 529.728,-71.7543 530.939,-64.86"/>
</g>
<!-- Node7 -->
<g id="node7" class="node"><title>Node7</title>
<g id="a_node7"><a xlink:href="../../d8/d84/class_game_of_life.html#a9ffd6f1b93454f54600e1db30540c21d" target="_top" xlink:title="GameOfLife.init">
<polygon fill="white" stroke="black" points="587,-38.5 587,-57.5 677,-57.5 677,-38.5 587,-38.5"/>
<text text-anchor="middle" x="632" y="-45.5" font-family="Helvetica,sans-Serif" font-size="10.00">GameOfLife.init</text>
</a>
</g>
</g>
<!-- Node5&#45;&gt;Node7 -->
<g id="edge6" class="edge"><title>Node5&#45;&gt;Node7</title>
<path fill="none" stroke="midnightblue" d="M555.895,-52.0966C566.604,-51.5125 577.145,-50.9375 586.79,-50.4115"/>
<polygon fill="midnightblue" stroke="midnightblue" points="555.395,-48.6186 545.6,-52.6582 555.776,-55.6082 555.395,-48.6186"/>
</g>
<!-- Node8 -->
<g id="node8" class="node"><title>Node8</title>
<g id="a_node8"><a xlink:href="../../da/d1e/class_segregation.html#abbf23897b2ba933ff6d6c20200178ba3" target="_top" xlink:title="Segregation.init">
<polygon fill="white" stroke="black" points="586,-0.5 586,-19.5 678,-19.5 678,-0.5 586,-0.5"/>
<text text-anchor="middle" x="632" y="-7.5" font-family="Helvetica,sans-Serif" font-size="10.00">Segregation.init</text>
</a>
</g>
</g>
<!-- Node5&#45;&gt;Node8 -->
<g id="edge7" class="edge"><title>Node5&#45;&gt;Node8</title>
<path fill="none" stroke="midnightblue" d="M509.163,-44.7052C536.713,-36.8575 571.905,-26.833 597.377,-19.5776"/>
<polygon fill="midnightblue" stroke="midnightblue" points="508.049,-41.3832 499.39,-47.4888 509.967,-48.1154 508.049,-41.3832"/>
</g>
</g>
</svg>
