<?xml version="1.0" encoding="UTF-8" standalone="no"?>
<!DOCTYPE svg PUBLIC "-//W3C//DTD SVG 1.1//EN"
 "http://www.w3.org/Graphics/SVG/1.1/DTD/svg11.dtd">
<!-- Generated by graphviz version 2.36.0 (20140111.2315)
 -->
<!-- Title: CellularAutomata.getGrid Pages: 1 -->
<svg width="1900pt" height="469pt"
 viewBox="0.00 0.00 1900.00 469.00" xmlns="http://www.w3.org/2000/svg" xmlns:xlink="http://www.w3.org/1999/xlink">
<g id="graph0" class="graph" transform="scale(1 1) rotate(0) translate(4 465)">
<title>CellularAutomata.getGrid</title>
<polygon fill="white" stroke="none" points="-4,4 -4,-465 1896,-465 1896,4 -4,4"/>
<!-- Node1 -->
<g id="node1" class="node"><title>Node1</title>
<polygon fill="#bfbfbf" stroke="black" points="0,-232.5 0,-251.5 138,-251.5 138,-232.5 0,-232.5"/>
<text text-anchor="middle" x="69" y="-239.5" font-family="Helvetica,sans-Serif" font-size="10.00">CellularAutomata.getGrid</text>
</g>
<!-- Node2 -->
<g id="node2" class="node"><title>Node2</title>
<g id="a_node2"><a xlink:href="../../d9/df1/class_fire.html#a65c7d316a113807e7bdf626a789e2bf5" target="_top" xlink:title="Fire.checkNextToFire">
<polygon fill="white" stroke="black" points="202.5,-441.5 202.5,-460.5 315.5,-460.5 315.5,-441.5 202.5,-441.5"/>
<text text-anchor="middle" x="259" y="-448.5" font-family="Helvetica,sans-Serif" font-size="10.00">Fire.checkNextToFire</text>
</a>
</g>
</g>
<!-- Node1&#45;&gt;Node2 -->
<g id="edge1" class="edge"><title>Node1&#45;&gt;Node2</title>
<path fill="none" stroke="midnightblue" d="M74.8969,-261.586C85.6998,-300.545 115.399,-387.801 174,-432 182.237,-438.212 192.135,-442.456 202.202,-445.341"/>
<polygon fill="midnightblue" stroke="midnightblue" points="78.2357,-260.522 72.2915,-251.751 71.4691,-262.314 78.2357,-260.522"/>
</g>
<!-- Node4 -->
<g id="node4" class="node"><title>Node4</title>
<g id="a_node4"><a xlink:href="../../d8/d84/class_game_of_life.html#ae3bc4975c6e75164f5661d35cf3c97d0" target="_top" xlink:title="GameOfLife.checkRules">
<polygon fill="white" stroke="black" points="195,-403.5 195,-422.5 323,-422.5 323,-403.5 195,-403.5"/>
<text text-anchor="middle" x="259" y="-410.5" font-family="Helvetica,sans-Serif" font-size="10.00">GameOfLife.checkRules</text>
</a>
</g>
</g>
<!-- Node1&#45;&gt;Node4 -->
<g id="edge3" class="edge"><title>Node1&#45;&gt;Node4</title>
<path fill="none" stroke="midnightblue" d="M77.4592,-261.02C91.2886,-293.668 124.116,-360.121 174,-394 180.308,-398.284 187.437,-401.615 194.808,-404.203"/>
<polygon fill="midnightblue" stroke="midnightblue" points="80.6679,-259.62 73.6391,-251.692 74.19,-262.273 80.6679,-259.62"/>
</g>
<!-- Node5 -->
<g id="node5" class="node"><title>Node5</title>
<g id="a_node5"><a xlink:href="../../d2/d40/class_cellular_automata.html#ab6b9e3ca964f405470ec0acc064d9b3a" target="_top" xlink:title="CellularAutomata.checkRules">
<polygon fill="white" stroke="black" points="181.5,-365.5 181.5,-384.5 336.5,-384.5 336.5,-365.5 181.5,-365.5"/>
<text text-anchor="middle" x="259" y="-372.5" font-family="Helvetica,sans-Serif" font-size="10.00">CellularAutomata.checkRules</text>
</a>
</g>
</g>
<!-- Node1&#45;&gt;Node5 -->
<g id="edge4" class="edge"><title>Node1&#45;&gt;Node5</title>
<path fill="none" stroke="midnightblue" d="M81.3117,-260.185C98.2119,-285.752 132.545,-331.886 174,-356 180.721,-359.909 188.177,-363.014 195.792,-365.481"/>
<polygon fill="midnightblue" stroke="midnightblue" points="84.2516,-258.286 75.8931,-251.776 78.3673,-262.078 84.2516,-258.286"/>
</g>
<!-- Node10 -->
<g id="node10" class="node"><title>Node10</title>
<g id="a_node10"><a xlink:href="../../df/df8/class_cell_society_view.html#a6a72ed4ee014a9c3f0368ab26be873d6" target="_top" xlink:title="CellSocietyView.makeCAGame">
<polygon fill="white" stroke="black" points="1158.5,-327.5 1158.5,-346.5 1321.5,-346.5 1321.5,-327.5 1158.5,-327.5"/>
<text text-anchor="middle" x="1240" y="-334.5" font-family="Helvetica,sans-Serif" font-size="10.00">CellSocietyView.makeCAGame</text>
</a>
</g>
</g>
<!-- Node1&#45;&gt;Node10 -->
<g id="edge21" class="edge"><title>Node1&#45;&gt;Node10</title>
<path fill="none" stroke="midnightblue" d="M99.9794,-255.553C120.402,-264.133 148.296,-274.593 174,-280 302.569,-307.043 337.617,-299 469,-299 469,-299 469,-299 855,-299 973.967,-299 1003.83,-304.229 1122,-318 1143.26,-320.477 1166.55,-324.078 1186.72,-327.48"/>
<polygon fill="midnightblue" stroke="midnightblue" points="101.166,-252.253 90.5961,-251.523 98.4032,-258.685 101.166,-252.253"/>
</g>
<!-- Node15 -->
<g id="node15" class="node"><title>Node15</title>
<g id="a_node15"><a xlink:href="../../da/d1e/class_segregation.html#ae7696748513b436c2578ff68b02d889d" target="_top" xlink:title="Segregation.getSamePercent">
<polygon fill="white" stroke="black" points="179.5,-251.5 179.5,-270.5 338.5,-270.5 338.5,-251.5 179.5,-251.5"/>
<text text-anchor="middle" x="259" y="-258.5" font-family="Helvetica,sans-Serif" font-size="10.00">Segregation.getSamePercent</text>
</a>
</g>
</g>
<!-- Node1&#45;&gt;Node15 -->
<g id="edge16" class="edge"><title>Node1&#45;&gt;Node15</title>
<path fill="none" stroke="midnightblue" d="M148.27,-249.91C158.506,-250.945 168.998,-252.005 179.242,-253.04"/>
<polygon fill="midnightblue" stroke="midnightblue" points="148.439,-246.41 138.138,-248.886 147.735,-253.374 148.439,-246.41"/>
</g>
<!-- Node18 -->
<g id="node18" class="node"><title>Node18</title>
<g id="a_node18"><a xlink:href="../../d2/d40/class_cellular_automata.html#ab39b5164764f20382801aa9a4663eb4b" target="_top" xlink:title="CellularAutomata.handleUpdate">
<polygon fill="white" stroke="black" points="174,-327.5 174,-346.5 344,-346.5 344,-327.5 174,-327.5"/>
<text text-anchor="middle" x="259" y="-334.5" font-family="Helvetica,sans-Serif" font-size="10.00">CellularAutomata.handleUpdate</text>
</a>
</g>
</g>
<!-- Node1&#45;&gt;Node18 -->
<g id="edge19" class="edge"><title>Node1&#45;&gt;Node18</title>
<path fill="none" stroke="midnightblue" d="M89.4408,-258.113C109.51,-274.039 142.277,-298.117 174,-313 186.77,-318.991 201.347,-323.796 214.734,-327.487"/>
<polygon fill="midnightblue" stroke="midnightblue" points="91.391,-255.19 81.4102,-251.635 86.9959,-260.638 91.391,-255.19"/>
</g>
<!-- Node19 -->
<g id="node19" class="node"><title>Node19</title>
<g id="a_node19"><a xlink:href="../../d0/db0/class_wator.html#a0afccb8f97e33c1d21e51ee1a3f4922b" target="_top" xlink:title="Wator.ruleOne">
<polygon fill="white" stroke="black" points="217.5,-213.5 217.5,-232.5 300.5,-232.5 300.5,-213.5 217.5,-213.5"/>
<text text-anchor="middle" x="259" y="-220.5" font-family="Helvetica,sans-Serif" font-size="10.00">Wator.ruleOne</text>
</a>
</g>
</g>
<!-- Node1&#45;&gt;Node19 -->
<g id="edge22" class="edge"><title>Node1&#45;&gt;Node19</title>
<path fill="none" stroke="midnightblue" d="M148.23,-234.094C172.018,-231.69 197.193,-229.145 217.425,-227.101"/>
<polygon fill="midnightblue" stroke="midnightblue" points="147.735,-230.626 138.138,-235.114 148.439,-237.59 147.735,-230.626"/>
</g>
<!-- Node21 -->
<g id="node21" class="node"><title>Node21</title>
<g id="a_node21"><a xlink:href="../../d0/db0/class_wator.html#aa8dba59120d9d6d7d7521f3a4ee7b454" target="_top" xlink:title="Wator.ruleTwo">
<polygon fill="white" stroke="black" points="219,-175.5 219,-194.5 299,-194.5 299,-175.5 219,-175.5"/>
<text text-anchor="middle" x="259" y="-182.5" font-family="Helvetica,sans-Serif" font-size="10.00">Wator.ruleTwo</text>
</a>
</g>
</g>
<!-- Node1&#45;&gt;Node21 -->
<g id="edge24" class="edge"><title>Node1&#45;&gt;Node21</title>
<path fill="none" stroke="midnightblue" d="M103.068,-228.688C123.329,-220.841 149.913,-211.093 174,-204 188.486,-199.734 204.617,-195.877 218.84,-192.77"/>
<polygon fill="midnightblue" stroke="midnightblue" points="101.705,-225.463 93.6687,-232.368 104.257,-231.982 101.705,-225.463"/>
</g>
<!-- Node22 -->
<g id="node22" class="node"><title>Node22</title>
<g id="a_node22"><a xlink:href="../../d9/df1/class_fire.html#afd16418c5ea360c815613862a4ea1c33" target="_top" xlink:title="Fire.setUpInitialConfig">
<polygon fill="white" stroke="black" points="199.5,-137.5 199.5,-156.5 318.5,-156.5 318.5,-137.5 199.5,-137.5"/>
<text text-anchor="middle" x="259" y="-144.5" font-family="Helvetica,sans-Serif" font-size="10.00">Fire.setUpInitialConfig</text>
</a>
</g>
</g>
<!-- Node1&#45;&gt;Node22 -->
<g id="edge26" class="edge"><title>Node1&#45;&gt;Node22</title>
<path fill="none" stroke="midnightblue" d="M87.5266,-225.649C107.119,-208.266 140.513,-181.227 174,-166 182.439,-162.163 191.717,-159.07 200.933,-156.586"/>
<polygon fill="midnightblue" stroke="midnightblue" points="85.082,-223.141 80.0145,-232.445 89.7782,-228.332 85.082,-223.141"/>
</g>
<!-- Node23 -->
<g id="node23" class="node"><title>Node23</title>
<g id="a_node23"><a xlink:href="../../da/d1e/class_segregation.html#ae51122aa23967e3e2af576026eb1d912" target="_top" xlink:title="Segregation.setUpInitial\lConfig">
<polygon fill="white" stroke="black" points="193.5,-88 193.5,-118 324.5,-118 324.5,-88 193.5,-88"/>
<text text-anchor="start" x="201.5" y="-106" font-family="Helvetica,sans-Serif" font-size="10.00">Segregation.setUpInitial</text>
<text text-anchor="middle" x="259" y="-95" font-family="Helvetica,sans-Serif" font-size="10.00">Config</text>
</a>
</g>
</g>
<!-- Node1&#45;&gt;Node23 -->
<g id="edge27" class="edge"><title>Node1&#45;&gt;Node23</title>
<path fill="none" stroke="midnightblue" d="M81.7635,-223.855C99.0145,-198.673 133.552,-153.373 174,-128 180.187,-124.119 187.007,-120.814 194.005,-118.007"/>
<polygon fill="midnightblue" stroke="midnightblue" points="78.6732,-222.18 76.022,-232.437 84.4914,-226.072 78.6732,-222.18"/>
</g>
<!-- Node24 -->
<g id="node24" class="node"><title>Node24</title>
<g id="a_node24"><a xlink:href="../../d2/d40/class_cellular_automata.html#ae0dc3747c80392dfc7d36e80e86805a5" target="_top" xlink:title="CellularAutomata.setUpInitial\lConfig">
<polygon fill="white" stroke="black" points="181,-39 181,-69 337,-69 337,-39 181,-39"/>
<text text-anchor="start" x="189" y="-57" font-family="Helvetica,sans-Serif" font-size="10.00">CellularAutomata.setUpInitial</text>
<text text-anchor="middle" x="259" y="-46" font-family="Helvetica,sans-Serif" font-size="10.00">Config</text>
</a>
</g>
</g>
<!-- Node1&#45;&gt;Node24 -->
<g id="edge28" class="edge"><title>Node1&#45;&gt;Node24</title>
<path fill="none" stroke="midnightblue" d="M77.1271,-222.466C90.6288,-188.206 123.211,-117.296 174,-79 179.103,-75.1526 184.792,-71.8946 190.738,-69.1364"/>
<polygon fill="midnightblue" stroke="midnightblue" points="73.7031,-221.623 73.415,-232.214 80.2448,-224.114 73.7031,-221.623"/>
</g>
<!-- Node26 -->
<g id="node26" class="node"><title>Node26</title>
<g id="a_node26"><a xlink:href="../../d0/db0/class_wator.html#a0338ba17229ff94cb2310835a43c8513" target="_top" xlink:title="Wator.setUpInitialConfig">
<polygon fill="white" stroke="black" points="194.5,-0.5 194.5,-19.5 323.5,-19.5 323.5,-0.5 194.5,-0.5"/>
<text text-anchor="middle" x="259" y="-7.5" font-family="Helvetica,sans-Serif" font-size="10.00">Wator.setUpInitialConfig</text>
</a>
</g>
</g>
<!-- Node1&#45;&gt;Node26 -->
<g id="edge30" class="edge"><title>Node1&#45;&gt;Node26</title>
<path fill="none" stroke="midnightblue" d="M73.7924,-222.268C82.9758,-180.063 110.5,-80.7473 174,-30 179.972,-25.227 186.899,-21.5619 194.163,-18.7529"/>
<polygon fill="midnightblue" stroke="midnightblue" points="70.3487,-221.638 71.7572,-232.139 77.2045,-223.052 70.3487,-221.638"/>
</g>
<!-- Node3 -->
<g id="node3" class="node"><title>Node3</title>
<g id="a_node3"><a xlink:href="../../d9/df1/class_fire.html#a9848867ebe2faddb27dfd0994cb565a8" target="_top" xlink:title="Fire.checkRules">
<polygon fill="white" stroke="black" points="425.5,-441.5 425.5,-460.5 514.5,-460.5 514.5,-441.5 425.5,-441.5"/>
<text text-anchor="middle" x="470" y="-448.5" font-family="Helvetica,sans-Serif" font-size="10.00">Fire.checkRules</text>
</a>
</g>
</g>
<!-- Node2&#45;&gt;Node3 -->
<g id="edge2" class="edge"><title>Node2&#45;&gt;Node3</title>
<path fill="none" stroke="midnightblue" d="M326.035,-451C358.443,-451 396.586,-451 425.32,-451"/>
<polygon fill="midnightblue" stroke="midnightblue" points="325.734,-447.5 315.734,-451 325.734,-454.5 325.734,-447.5"/>
</g>
<!-- Node6 -->
<g id="node6" class="node"><title>Node6</title>
<g id="a_node6"><a xlink:href="../../d2/d40/class_cellular_automata.html#a8f4c8a2f32137db67dd31f5afb4b62c3" target="_top" xlink:title="CellularAutomata.updateNextGen">
<polygon fill="white" stroke="black" points="380.5,-346.5 380.5,-365.5 559.5,-365.5 559.5,-346.5 380.5,-346.5"/>
<text text-anchor="middle" x="470" y="-353.5" font-family="Helvetica,sans-Serif" font-size="10.00">CellularAutomata.updateNextGen</text>
</a>
</g>
</g>
<!-- Node5&#45;&gt;Node6 -->
<g id="edge5" class="edge"><title>Node5&#45;&gt;Node6</title>
<path fill="none" stroke="midnightblue" d="M346.738,-367.115C357.837,-366.106 369.212,-365.072 380.342,-364.06"/>
<polygon fill="midnightblue" stroke="midnightblue" points="346.279,-363.642 336.637,-368.033 346.913,-370.613 346.279,-363.642"/>
</g>
<!-- Node7 -->
<g id="node7" class="node"><title>Node7</title>
<g id="a_node7"><a xlink:href="../../df/df8/class_cell_society_view.html#ad52b914fa03b45d8bc9d64fc407660f3" target="_top" xlink:title="CellSocietyView.updateView">
<polygon fill="white" stroke="black" points="596.5,-346.5 596.5,-365.5 745.5,-365.5 745.5,-346.5 596.5,-346.5"/>
<text text-anchor="middle" x="671" y="-353.5" font-family="Helvetica,sans-Serif" font-size="10.00">CellSocietyView.updateView</text>
</a>
</g>
</g>
<!-- Node6&#45;&gt;Node7 -->
<g id="edge6" class="edge"><title>Node6&#45;&gt;Node7</title>
<path fill="none" stroke="midnightblue" d="M569.8,-356C578.732,-356 587.672,-356 596.332,-356"/>
<polygon fill="midnightblue" stroke="midnightblue" points="569.733,-352.5 559.733,-356 569.733,-359.5 569.733,-352.5"/>
</g>
<!-- Node8 -->
<g id="node8" class="node"><title>Node8</title>
<g id="a_node8"><a xlink:href="../../df/df8/class_cell_society_view.html#aec6e94a6cf275f0b5d64a4b8adccd7d0" target="_top" xlink:title="CellSocietyView.makeStep\lButton">
<polygon fill="white" stroke="black" points="782.5,-366 782.5,-396 925.5,-396 925.5,-366 782.5,-366"/>
<text text-anchor="start" x="790.5" y="-384" font-family="Helvetica,sans-Serif" font-size="10.00">CellSocietyView.makeStep</text>
<text text-anchor="middle" x="854" y="-373" font-family="Helvetica,sans-Serif" font-size="10.00">Button</text>
</a>
</g>
</g>
<!-- Node7&#45;&gt;Node8 -->
<g id="edge7" class="edge"><title>Node7&#45;&gt;Node8</title>
<path fill="none" stroke="midnightblue" d="M750.919,-366.9C761.409,-368.349 772.11,-369.827 782.446,-371.255"/>
<polygon fill="midnightblue" stroke="midnightblue" points="751.33,-363.424 740.945,-365.523 750.372,-370.358 751.33,-363.424"/>
</g>
<!-- Node14 -->
<g id="node14" class="node"><title>Node14</title>
<g id="a_node14"><a xlink:href="../../df/df8/class_cell_society_view.html#adf6a6b0542d00677a9fffbb8e3c03ffe" target="_top" xlink:title="CellSocietyView.makeTimeline">
<polygon fill="white" stroke="black" points="962,-327.5 962,-346.5 1122,-346.5 1122,-327.5 962,-327.5"/>
<text text-anchor="middle" x="1042" y="-334.5" font-family="Helvetica,sans-Serif" font-size="10.00">CellSocietyView.makeTimeline</text>
</a>
</g>
</g>
<!-- Node7&#45;&gt;Node14 -->
<g id="edge14" class="edge"><title>Node7&#45;&gt;Node14</title>
<path fill="none" stroke="midnightblue" d="M755.902,-351.68C817.727,-348.496 901.261,-344.195 961.917,-341.072"/>
<polygon fill="midnightblue" stroke="midnightblue" points="755.593,-348.191 745.786,-352.201 755.953,-355.182 755.593,-348.191"/>
</g>
<!-- Node9 -->
<g id="node9" class="node"><title>Node9</title>
<g id="a_node9"><a xlink:href="../../df/df8/class_cell_society_view.html#a7bdbd4e8fd3893e672eb22015603f6dc" target="_top" xlink:title="CellSocietyView.makeButtons">
<polygon fill="white" stroke="black" points="963,-365.5 963,-384.5 1121,-384.5 1121,-365.5 963,-365.5"/>
<text text-anchor="middle" x="1042" y="-372.5" font-family="Helvetica,sans-Serif" font-size="10.00">CellSocietyView.makeButtons</text>
</a>
</g>
</g>
<!-- Node8&#45;&gt;Node9 -->
<g id="edge8" class="edge"><title>Node8&#45;&gt;Node9</title>
<path fill="none" stroke="midnightblue" d="M935.635,-378.399C944.612,-378.109 953.746,-377.815 962.693,-377.526"/>
<polygon fill="midnightblue" stroke="midnightblue" points="935.466,-374.902 925.584,-378.723 935.692,-381.899 935.466,-374.902"/>
</g>
<!-- Node9&#45;&gt;Node10 -->
<g id="edge9" class="edge"><title>Node9&#45;&gt;Node10</title>
<path fill="none" stroke="midnightblue" d="M1102.26,-363.511C1130.23,-358.089 1163.21,-351.694 1189.77,-346.544"/>
<polygon fill="midnightblue" stroke="midnightblue" points="1101.36,-360.121 1092.21,-365.46 1102.69,-366.993 1101.36,-360.121"/>
</g>
<!-- Node11 -->
<g id="node11" class="node"><title>Node11</title>
<g id="a_node11"><a xlink:href="../../df/df8/class_cell_society_view.html#a2c047a3972078bb0a5490ed225ef2dfa" target="_top" xlink:title="CellSocietyView.loadNewFile">
<polygon fill="white" stroke="black" points="1358.5,-327.5 1358.5,-346.5 1507.5,-346.5 1507.5,-327.5 1358.5,-327.5"/>
<text text-anchor="middle" x="1433" y="-334.5" font-family="Helvetica,sans-Serif" font-size="10.00">CellSocietyView.loadNewFile</text>
</a>
</g>
</g>
<!-- Node10&#45;&gt;Node11 -->
<g id="edge10" class="edge"><title>Node10&#45;&gt;Node11</title>
<path fill="none" stroke="midnightblue" d="M1332.01,-337C1340.8,-337 1349.64,-337 1358.24,-337"/>
<polygon fill="midnightblue" stroke="midnightblue" points="1331.72,-333.5 1321.72,-337 1331.72,-340.5 1331.72,-333.5"/>
</g>
<!-- Node12 -->
<g id="node12" class="node"><title>Node12</title>
<g id="a_node12"><a xlink:href="../../df/df8/class_cell_society_view.html#a656cfed0ba32bc41bbd0c4087860db4b" target="_top" xlink:title="CellSocietyView.makeLoad\lButton">
<polygon fill="white" stroke="black" points="1544.5,-341 1544.5,-371 1687.5,-371 1687.5,-341 1544.5,-341"/>
<text text-anchor="start" x="1552.5" y="-359" font-family="Helvetica,sans-Serif" font-size="10.00">CellSocietyView.makeLoad</text>
<text text-anchor="middle" x="1616" y="-348" font-family="Helvetica,sans-Serif" font-size="10.00">Button</text>
</a>
</g>
</g>
<!-- Node11&#45;&gt;Node12 -->
<g id="edge11" class="edge"><title>Node11&#45;&gt;Node12</title>
<path fill="none" stroke="midnightblue" d="M1517.65,-345.781C1526.59,-346.719 1535.61,-347.666 1544.37,-348.586"/>
<polygon fill="midnightblue" stroke="midnightblue" points="1517.93,-342.291 1507.62,-344.728 1517.2,-349.253 1517.93,-342.291"/>
</g>
<!-- Node12&#45;&gt;Node9 -->
<g id="edge13" class="edge"><title>Node12&#45;&gt;Node9</title>
<path fill="none" stroke="midnightblue" d="M1534.23,-358.683C1424.44,-362.33 1229.39,-368.809 1121.04,-372.408"/>
<polygon fill="midnightblue" stroke="midnightblue" points="1534.38,-362.18 1544.26,-358.35 1534.15,-355.184 1534.38,-362.18"/>
</g>
<!-- Node13 -->
<g id="node13" class="node"><title>Node13</title>
<g id="a_node13"><a xlink:href="../../df/df8/class_cell_society_view.html#a53ab66afdeb23b3fc89e54a44be7ced5" target="_top" xlink:title="CellSocietyView.CellSocietyView">
<polygon fill="white" stroke="black" points="1724.5,-346.5 1724.5,-365.5 1891.5,-365.5 1891.5,-346.5 1724.5,-346.5"/>
<text text-anchor="middle" x="1808" y="-353.5" font-family="Helvetica,sans-Serif" font-size="10.00">CellSocietyView.CellSocietyView</text>
</a>
</g>
</g>
<!-- Node12&#45;&gt;Node13 -->
<g id="edge12" class="edge"><title>Node12&#45;&gt;Node13</title>
<path fill="none" stroke="midnightblue" d="M1697.92,-356C1706.66,-356 1715.57,-356 1724.33,-356"/>
<polygon fill="midnightblue" stroke="midnightblue" points="1697.75,-352.5 1687.75,-356 1697.75,-359.5 1697.75,-352.5"/>
</g>
<!-- Node14&#45;&gt;Node10 -->
<g id="edge15" class="edge"><title>Node14&#45;&gt;Node10</title>
<path fill="none" stroke="midnightblue" d="M1132.27,-337C1140.94,-337 1149.7,-337 1158.27,-337"/>
<polygon fill="midnightblue" stroke="midnightblue" points="1132.16,-333.5 1122.16,-337 1132.16,-340.5 1132.16,-333.5"/>
</g>
<!-- Node16 -->
<g id="node16" class="node"><title>Node16</title>
<g id="a_node16"><a xlink:href="../../da/d1e/class_segregation.html#a65706fcdb683f11f27836d3f4c591f3c" target="_top" xlink:title="Segregation.ruleOne">
<polygon fill="white" stroke="black" points="412,-251.5 412,-270.5 528,-270.5 528,-251.5 412,-251.5"/>
<text text-anchor="middle" x="470" y="-258.5" font-family="Helvetica,sans-Serif" font-size="10.00">Segregation.ruleOne</text>
</a>
</g>
</g>
<!-- Node15&#45;&gt;Node16 -->
<g id="edge17" class="edge"><title>Node15&#45;&gt;Node16</title>
<path fill="none" stroke="midnightblue" d="M348.779,-261C370.133,-261 392.383,-261 411.852,-261"/>
<polygon fill="midnightblue" stroke="midnightblue" points="348.716,-257.5 338.716,-261 348.716,-264.5 348.716,-257.5"/>
</g>
<!-- Node17 -->
<g id="node17" class="node"><title>Node17</title>
<g id="a_node17"><a xlink:href="../../da/d1e/class_segregation.html#a8272e13082766c6c6d45fc1e58acd6dc" target="_top" xlink:title="Segregation.checkRules">
<polygon fill="white" stroke="black" points="605.5,-251.5 605.5,-270.5 736.5,-270.5 736.5,-251.5 605.5,-251.5"/>
<text text-anchor="middle" x="671" y="-258.5" font-family="Helvetica,sans-Serif" font-size="10.00">Segregation.checkRules</text>
</a>
</g>
</g>
<!-- Node16&#45;&gt;Node17 -->
<g id="edge18" class="edge"><title>Node16&#45;&gt;Node17</title>
<path fill="none" stroke="midnightblue" d="M538.129,-261C559.798,-261 583.766,-261 605.259,-261"/>
<polygon fill="midnightblue" stroke="midnightblue" points="538.025,-257.5 528.025,-261 538.025,-264.5 538.025,-257.5"/>
</g>
<!-- Node18&#45;&gt;Node6 -->
<g id="edge20" class="edge"><title>Node18&#45;&gt;Node6</title>
<path fill="none" stroke="midnightblue" d="M354.227,-345.566C362.899,-346.354 371.666,-347.151 380.286,-347.935"/>
<polygon fill="midnightblue" stroke="midnightblue" points="354.381,-342.066 344.105,-344.646 353.747,-349.037 354.381,-342.066"/>
</g>
<!-- Node20 -->
<g id="node20" class="node"><title>Node20</title>
<g id="a_node20"><a xlink:href="../../d0/db0/class_wator.html#a422810cdcb035633301b3469cbee5e34" target="_top" xlink:title="Wator.checkRules">
<polygon fill="white" stroke="black" points="421,-194.5 421,-213.5 519,-213.5 519,-194.5 421,-194.5"/>
<text text-anchor="middle" x="470" y="-201.5" font-family="Helvetica,sans-Serif" font-size="10.00">Wator.checkRules</text>
</a>
</g>
</g>
<!-- Node19&#45;&gt;Node20 -->
<g id="edge23" class="edge"><title>Node19&#45;&gt;Node20</title>
<path fill="none" stroke="midnightblue" d="M310.853,-218.377C344.39,-215.328 388.04,-211.36 420.984,-208.365"/>
<polygon fill="midnightblue" stroke="midnightblue" points="310.435,-214.9 300.793,-219.292 311.069,-221.872 310.435,-214.9"/>
</g>
<!-- Node21&#45;&gt;Node20 -->
<g id="edge25" class="edge"><title>Node21&#45;&gt;Node20</title>
<path fill="none" stroke="midnightblue" d="M309.379,-189.489C343,-192.545 387.286,-196.571 420.68,-199.607"/>
<polygon fill="midnightblue" stroke="midnightblue" points="309.587,-185.994 299.311,-188.574 308.953,-192.965 309.587,-185.994"/>
</g>
<!-- Node25 -->
<g id="node25" class="node"><title>Node25</title>
<g id="a_node25"><a xlink:href="../../d2/d40/class_cellular_automata.html#a881bd9cb2208f3bff6fa64714eedf32f" target="_top" xlink:title="CellularAutomata.init">
<polygon fill="white" stroke="black" points="411.5,-44.5 411.5,-63.5 528.5,-63.5 528.5,-44.5 411.5,-44.5"/>
<text text-anchor="middle" x="470" y="-51.5" font-family="Helvetica,sans-Serif" font-size="10.00">CellularAutomata.init</text>
</a>
</g>
</g>
<!-- Node24&#45;&gt;Node25 -->
<g id="edge29" class="edge"><title>Node24&#45;&gt;Node25</title>
<path fill="none" stroke="midnightblue" d="M347.399,-54C368.993,-54 391.589,-54 411.361,-54"/>
<polygon fill="midnightblue" stroke="midnightblue" points="347.23,-50.5001 337.23,-54 347.23,-57.5001 347.23,-50.5001"/>
</g>
</g>
</svg>
