<?xml version="1.0" encoding="UTF-8" standalone="no"?>
<!DOCTYPE svg PUBLIC "-//W3C//DTD SVG 1.1//EN"
 "http://www.w3.org/Graphics/SVG/1.1/DTD/svg11.dtd">
<!-- Generated by graphviz version 2.36.0 (20140111.2315)
 -->
<!-- Title: CellularAutomata.handleUpdate Pages: 1 -->
<svg width="1718pt" height="85pt"
 viewBox="0.00 0.00 1718.00 85.00" xmlns="http://www.w3.org/2000/svg" xmlns:xlink="http://www.w3.org/1999/xlink">
<g id="graph0" class="graph" transform="scale(1 1) rotate(0) translate(4 81)">
<title>CellularAutomata.handleUpdate</title>
<polygon fill="white" stroke="none" points="-4,4 -4,-81 1714,-81 1714,4 -4,4"/>
<!-- Node1 -->
<g id="node1" class="node"><title>Node1</title>
<polygon fill="#bfbfbf" stroke="black" points="0,-38.5 0,-57.5 170,-57.5 170,-38.5 0,-38.5"/>
<text text-anchor="middle" x="85" y="-45.5" font-family="Helvetica,sans-Serif" font-size="10.00">CellularAutomata.handleUpdate</text>
</g>
<!-- Node2 -->
<g id="node2" class="node"><title>Node2</title>
<g id="a_node2"><a xlink:href="../../d8/d84/class_game_of_life.html#aab00ca120baa15de020654ba9fe5d6d4" target="_top" xlink:title="GameOfLife.setUpInitialConfig">
<polygon fill="white" stroke="black" points="216.5,-57.5 216.5,-76.5 375.5,-76.5 375.5,-57.5 216.5,-57.5"/>
<text text-anchor="middle" x="296" y="-64.5" font-family="Helvetica,sans-Serif" font-size="10.00">GameOfLife.setUpInitialConfig</text>
</a>
</g>
</g>
<!-- Node1&#45;&gt;Node2 -->
<g id="edge1" class="edge"><title>Node1&#45;&gt;Node2</title>
<path fill="none" stroke="midnightblue" d="M180.227,-56.5661C192.346,-57.6678 204.651,-58.7865 216.482,-59.862"/>
<polygon fill="midnightblue" stroke="midnightblue" points="180.381,-53.0657 170.105,-55.6459 179.747,-60.037 180.381,-53.0657"/>
</g>
<!-- Node3 -->
<g id="node3" class="node"><title>Node3</title>
<g id="a_node3"><a xlink:href="../../d2/d40/class_cellular_automata.html#a8f4c8a2f32137db67dd31f5afb4b62c3" target="_top" xlink:title="CellularAutomata.updateNextGen">
<polygon fill="white" stroke="black" points="206.5,-19.5 206.5,-38.5 385.5,-38.5 385.5,-19.5 206.5,-19.5"/>
<text text-anchor="middle" x="296" y="-26.5" font-family="Helvetica,sans-Serif" font-size="10.00">CellularAutomata.updateNextGen</text>
</a>
</g>
</g>
<!-- Node1&#45;&gt;Node3 -->
<g id="edge2" class="edge"><title>Node1&#45;&gt;Node3</title>
<path fill="none" stroke="midnightblue" d="M180.227,-39.4339C188.899,-38.6456 197.666,-37.8486 206.286,-37.0649"/>
<polygon fill="midnightblue" stroke="midnightblue" points="179.747,-35.963 170.105,-40.3541 180.381,-42.9343 179.747,-35.963"/>
</g>
<!-- Node4 -->
<g id="node4" class="node"><title>Node4</title>
<g id="a_node4"><a xlink:href="../../df/df8/class_cell_society_view.html#ad52b914fa03b45d8bc9d64fc407660f3" target="_top" xlink:title="CellSocietyView.updateView">
<polygon fill="white" stroke="black" points="422.5,-19.5 422.5,-38.5 571.5,-38.5 571.5,-19.5 422.5,-19.5"/>
<text text-anchor="middle" x="497" y="-26.5" font-family="Helvetica,sans-Serif" font-size="10.00">CellSocietyView.updateView</text>
</a>
</g>
</g>
<!-- Node3&#45;&gt;Node4 -->
<g id="edge3" class="edge"><title>Node3&#45;&gt;Node4</title>
<path fill="none" stroke="midnightblue" d="M395.8,-29C404.732,-29 413.672,-29 422.332,-29"/>
<polygon fill="midnightblue" stroke="midnightblue" points="395.733,-25.5001 385.733,-29 395.733,-32.5001 395.733,-25.5001"/>
</g>
<!-- Node5 -->
<g id="node5" class="node"><title>Node5</title>
<g id="a_node5"><a xlink:href="../../df/df8/class_cell_society_view.html#a7bdbd4e8fd3893e672eb22015603f6dc" target="_top" xlink:title="CellSocietyView.makeButtons">
<polygon fill="white" stroke="black" points="609,-0.5 609,-19.5 767,-19.5 767,-0.5 609,-0.5"/>
<text text-anchor="middle" x="688" y="-7.5" font-family="Helvetica,sans-Serif" font-size="10.00">CellSocietyView.makeButtons</text>
</a>
</g>
</g>
<!-- Node4&#45;&gt;Node5 -->
<g id="edge4" class="edge"><title>Node4&#45;&gt;Node5</title>
<path fill="none" stroke="midnightblue" d="M581.739,-20.5818C590.773,-19.6737 599.939,-18.7521 608.903,-17.851"/>
<polygon fill="midnightblue" stroke="midnightblue" points="581.213,-17.1169 571.614,-21.5997 581.913,-24.0818 581.213,-17.1169"/>
</g>
<!-- Node11 -->
<g id="node11" class="node"><title>Node11</title>
<g id="a_node11"><a xlink:href="../../df/df8/class_cell_society_view.html#adf6a6b0542d00677a9fffbb8e3c03ffe" target="_top" xlink:title="CellSocietyView.makeTimeline">
<polygon fill="white" stroke="black" points="608,-38.5 608,-57.5 768,-57.5 768,-38.5 608,-38.5"/>
<text text-anchor="middle" x="688" y="-45.5" font-family="Helvetica,sans-Serif" font-size="10.00">CellSocietyView.makeTimeline</text>
</a>
</g>
</g>
<!-- Node4&#45;&gt;Node11 -->
<g id="edge11" class="edge"><title>Node4&#45;&gt;Node11</title>
<path fill="none" stroke="midnightblue" d="M581.763,-37.4207C590.473,-38.2962 599.306,-39.1842 607.961,-40.0543"/>
<polygon fill="midnightblue" stroke="midnightblue" points="581.913,-33.9182 571.614,-36.4003 581.213,-40.8831 581.913,-33.9182"/>
</g>
<!-- Node6 -->
<g id="node6" class="node"><title>Node6</title>
<g id="a_node6"><a xlink:href="../../df/df8/class_cell_society_view.html#a767ab215ca329ba41b1493702141f841" target="_top" xlink:title="CellSocietyView.makeCAGame">
<polygon fill="white" stroke="black" points="804.5,-38.5 804.5,-57.5 967.5,-57.5 967.5,-38.5 804.5,-38.5"/>
<text text-anchor="middle" x="886" y="-45.5" font-family="Helvetica,sans-Serif" font-size="10.00">CellSocietyView.makeCAGame</text>
</a>
</g>
</g>
<!-- Node5&#45;&gt;Node6 -->
<g id="edge5" class="edge"><title>Node5&#45;&gt;Node6</title>
<path fill="none" stroke="midnightblue" d="M748.261,-21.4894C776.227,-26.9114 809.209,-33.3058 835.774,-38.4561"/>
<polygon fill="midnightblue" stroke="midnightblue" points="748.689,-18.0073 738.206,-19.54 747.357,-24.8794 748.689,-18.0073"/>
</g>
<!-- Node7 -->
<g id="node7" class="node"><title>Node7</title>
<g id="a_node7"><a xlink:href="../../df/df8/class_cell_society_view.html#a2ee793e471cc5731ce39c1450f058dd5" target="_top" xlink:title="CellSocietyView.parseFile">
<polygon fill="white" stroke="black" points="1004.5,-38.5 1004.5,-57.5 1139.5,-57.5 1139.5,-38.5 1004.5,-38.5"/>
<text text-anchor="middle" x="1072" y="-45.5" font-family="Helvetica,sans-Serif" font-size="10.00">CellSocietyView.parseFile</text>
</a>
</g>
</g>
<!-- Node6&#45;&gt;Node7 -->
<g id="edge6" class="edge"><title>Node6&#45;&gt;Node7</title>
<path fill="none" stroke="midnightblue" d="M977.807,-48C986.777,-48 995.762,-48 1004.42,-48"/>
<polygon fill="midnightblue" stroke="midnightblue" points="977.705,-44.5001 967.705,-48 977.705,-51.5001 977.705,-44.5001"/>
</g>
<!-- Node8 -->
<g id="node8" class="node"><title>Node8</title>
<g id="a_node8"><a xlink:href="../../df/df8/class_cell_society_view.html#a2c047a3972078bb0a5490ed225ef2dfa" target="_top" xlink:title="CellSocietyView.loadNewFile">
<polygon fill="white" stroke="black" points="1176.5,-38.5 1176.5,-57.5 1325.5,-57.5 1325.5,-38.5 1176.5,-38.5"/>
<text text-anchor="middle" x="1251" y="-45.5" font-family="Helvetica,sans-Serif" font-size="10.00">CellSocietyView.loadNewFile</text>
</a>
</g>
</g>
<!-- Node7&#45;&gt;Node8 -->
<g id="edge7" class="edge"><title>Node7&#45;&gt;Node8</title>
<path fill="none" stroke="midnightblue" d="M1149.86,-48C1158.63,-48 1167.56,-48 1176.28,-48"/>
<polygon fill="midnightblue" stroke="midnightblue" points="1149.66,-44.5001 1139.66,-48 1149.66,-51.5001 1149.66,-44.5001"/>
</g>
<!-- Node9 -->
<g id="node9" class="node"><title>Node9</title>
<g id="a_node9"><a xlink:href="../../df/df8/class_cell_society_view.html#a656cfed0ba32bc41bbd0c4087860db4b" target="_top" xlink:title="CellSocietyView.makeLoad\lButton">
<polygon fill="white" stroke="black" points="1362.5,-14 1362.5,-44 1505.5,-44 1505.5,-14 1362.5,-14"/>
<text text-anchor="start" x="1370.5" y="-32" font-family="Helvetica,sans-Serif" font-size="10.00">CellSocietyView.makeLoad</text>
<text text-anchor="middle" x="1434" y="-21" font-family="Helvetica,sans-Serif" font-size="10.00">Button</text>
</a>
</g>
</g>
<!-- Node8&#45;&gt;Node9 -->
<g id="edge8" class="edge"><title>Node8&#45;&gt;Node9</title>
<path fill="none" stroke="midnightblue" d="M1335.65,-39.219C1344.59,-38.2811 1353.61,-37.3338 1362.37,-36.4139"/>
<polygon fill="midnightblue" stroke="midnightblue" points="1335.2,-35.747 1325.62,-40.272 1335.93,-42.7088 1335.2,-35.747"/>
</g>
<!-- Node9&#45;&gt;Node5 -->
<g id="edge10" class="edge"><title>Node9&#45;&gt;Node5</title>
<path fill="none" stroke="midnightblue" d="M1352.31,-26.9392C1208.41,-23.2644 909.307,-15.6261 767.215,-11.9974"/>
<polygon fill="midnightblue" stroke="midnightblue" points="1352.31,-30.4403 1362.39,-27.1969 1352.49,-23.4426 1352.31,-30.4403"/>
</g>
<!-- Node10 -->
<g id="node10" class="node"><title>Node10</title>
<g id="a_node10"><a xlink:href="../../df/df8/class_cell_society_view.html#a53ab66afdeb23b3fc89e54a44be7ced5" target="_top" xlink:title="CellSocietyView.CellSocietyView">
<polygon fill="white" stroke="black" points="1542.5,-19.5 1542.5,-38.5 1709.5,-38.5 1709.5,-19.5 1542.5,-19.5"/>
<text text-anchor="middle" x="1626" y="-26.5" font-family="Helvetica,sans-Serif" font-size="10.00">CellSocietyView.CellSocietyView</text>
</a>
</g>
</g>
<!-- Node9&#45;&gt;Node10 -->
<g id="edge9" class="edge"><title>Node9&#45;&gt;Node10</title>
<path fill="none" stroke="midnightblue" d="M1515.92,-29C1524.66,-29 1533.57,-29 1542.33,-29"/>
<polygon fill="midnightblue" stroke="midnightblue" points="1515.75,-25.5001 1505.75,-29 1515.75,-32.5001 1515.75,-25.5001"/>
</g>
<!-- Node11&#45;&gt;Node6 -->
<g id="edge12" class="edge"><title>Node11&#45;&gt;Node6</title>
<path fill="none" stroke="midnightblue" d="M778.271,-48C786.937,-48 795.696,-48 804.272,-48"/>
<polygon fill="midnightblue" stroke="midnightblue" points="778.156,-44.5001 768.156,-48 778.156,-51.5001 778.156,-44.5001"/>
</g>
</g>
</svg>
