<?xml version="1.0" encoding="UTF-8" standalone="no"?>
<!DOCTYPE svg PUBLIC "-//W3C//DTD SVG 1.1//EN"
 "http://www.w3.org/Graphics/SVG/1.1/DTD/svg11.dtd">
<!-- Generated by graphviz version 2.36.0 (20140111.2315)
 -->
<!-- Title: CellularAutomata.init Pages: 1 -->
<svg width="512pt" height="99pt"
 viewBox="0.00 0.00 512.00 99.00" xmlns="http://www.w3.org/2000/svg" xmlns:xlink="http://www.w3.org/1999/xlink">
<g id="graph0" class="graph" transform="scale(1 1) rotate(0) translate(4 95)">
<title>CellularAutomata.init</title>
<polygon fill="white" stroke="none" points="-4,4 -4,-95 508,-95 508,4 -4,4"/>
<!-- Node1 -->
<g id="node1" class="node"><title>Node1</title>
<polygon fill="#bfbfbf" stroke="black" points="0.5,-49.5 0.5,-68.5 117.5,-68.5 117.5,-49.5 0.5,-49.5"/>
<text text-anchor="middle" x="59" y="-56.5" font-family="Helvetica,sans-Serif" font-size="10.00">CellularAutomata.init</text>
</g>
<!-- Node2 -->
<g id="node2" class="node"><title>Node2</title>
<g id="a_node2"><a xlink:href="../../d2/d40/class_cellular_automata.html#a1eff79cea4946a38023fcc3a92670aff" target="_top" xlink:title="CellularAutomata.init">
<polygon fill="white" stroke="black" points="173.5,-71.5 173.5,-90.5 290.5,-90.5 290.5,-71.5 173.5,-71.5"/>
<text text-anchor="middle" x="232" y="-78.5" font-family="Helvetica,sans-Serif" font-size="10.00">CellularAutomata.init</text>
</a>
</g>
</g>
<!-- Node1&#45;&gt;Node2 -->
<g id="edge1" class="edge"><title>Node1&#45;&gt;Node2</title>
<path fill="none" stroke="midnightblue" d="M117.893,-66.4482C132.457,-68.3219 148.218,-70.3497 163.218,-72.2795"/>
<polygon fill="midnightblue" stroke="midnightblue" points="163.092,-75.7921 173.457,-73.5968 163.986,-68.8493 163.092,-75.7921"/>
</g>
<!-- Node3 -->
<g id="node3" class="node"><title>Node3</title>
<g id="a_node3"><a xlink:href="../../d2/d40/class_cellular_automata.html#ae0dc3747c80392dfc7d36e80e86805a5" target="_top" xlink:title="CellularAutomata.setUpInitial\lConfig">
<polygon fill="white" stroke="black" points="154,-22 154,-52 310,-52 310,-22 154,-22"/>
<text text-anchor="start" x="162" y="-40" font-family="Helvetica,sans-Serif" font-size="10.00">CellularAutomata.setUpInitial</text>
<text text-anchor="middle" x="232" y="-29" font-family="Helvetica,sans-Serif" font-size="10.00">Config</text>
</a>
</g>
</g>
<!-- Node1&#45;&gt;Node3 -->
<g id="edge2" class="edge"><title>Node1&#45;&gt;Node3</title>
<path fill="none" stroke="midnightblue" d="M117.893,-51.5518C126.27,-50.474 135.044,-49.3453 143.84,-48.2135"/>
<polygon fill="midnightblue" stroke="midnightblue" points="144.291,-51.6845 153.762,-46.937 143.398,-44.7417 144.291,-51.6845"/>
</g>
<!-- Node4 -->
<g id="node4" class="node"><title>Node4</title>
<g id="a_node4"><a xlink:href="../../d2/d40/class_cellular_automata.html#a34ceed434c942d34ff03169b92684726" target="_top" xlink:title="CellularAutomata.getGrid">
<polygon fill="white" stroke="black" points="356,-49.5 356,-68.5 494,-68.5 494,-49.5 356,-49.5"/>
<text text-anchor="middle" x="425" y="-56.5" font-family="Helvetica,sans-Serif" font-size="10.00">CellularAutomata.getGrid</text>
</a>
</g>
</g>
<!-- Node3&#45;&gt;Node4 -->
<g id="edge3" class="edge"><title>Node3&#45;&gt;Node4</title>
<path fill="none" stroke="midnightblue" d="M310.136,-45.8848C321.828,-47.2315 333.901,-48.6221 345.618,-49.9717"/>
<polygon fill="midnightblue" stroke="midnightblue" points="345.47,-53.4778 355.805,-51.1451 346.271,-46.5237 345.47,-53.4778"/>
</g>
<!-- Node5 -->
<g id="node5" class="node"><title>Node5</title>
<g id="a_node5"><a xlink:href="../../d2/d40/class_cellular_automata.html#a3e303e691cc17b9a478a3e0e167a37e6" target="_top" xlink:title="CellularAutomata.getRandom\lDouble">
<polygon fill="white" stroke="black" points="346,-0 346,-30 504,-30 504,-0 346,-0"/>
<text text-anchor="start" x="354" y="-18" font-family="Helvetica,sans-Serif" font-size="10.00">CellularAutomata.getRandom</text>
<text text-anchor="middle" x="425" y="-7" font-family="Helvetica,sans-Serif" font-size="10.00">Double</text>
</a>
</g>
</g>
<!-- Node3&#45;&gt;Node5 -->
<g id="edge4" class="edge"><title>Node3&#45;&gt;Node5</title>
<path fill="none" stroke="midnightblue" d="M310.136,-28.1152C318.62,-27.138 327.304,-26.1378 335.908,-25.1468"/>
<polygon fill="midnightblue" stroke="midnightblue" points="336.42,-28.611 345.954,-23.9896 335.619,-21.657 336.42,-28.611"/>
</g>
</g>
</svg>
