<?xml version="1.0" encoding="UTF-8" standalone="no"?>
<!DOCTYPE svg PUBLIC "-//W3C//DTD SVG 1.1//EN"
 "http://www.w3.org/Graphics/SVG/1.1/DTD/svg11.dtd">
<!-- Generated by graphviz version 2.36.0 (20140111.2315)
 -->
<!-- Title: CellularAutomata.getGrid Pages: 1 -->
<svg width="1892pt" height="553pt"
 viewBox="0.00 0.00 1892.00 553.00" xmlns="http://www.w3.org/2000/svg" xmlns:xlink="http://www.w3.org/1999/xlink">
<g id="graph0" class="graph" transform="scale(1 1) rotate(0) translate(4 549)">
<title>CellularAutomata.getGrid</title>
<polygon fill="white" stroke="none" points="-4,4 -4,-549 1888,-549 1888,4 -4,4"/>
<!-- Node1 -->
<g id="node1" class="node"><title>Node1</title>
<polygon fill="#bfbfbf" stroke="black" points="0,-259.5 0,-278.5 138,-278.5 138,-259.5 0,-259.5"/>
<text text-anchor="middle" x="69" y="-266.5" font-family="Helvetica,sans-Serif" font-size="10.00">CellularAutomata.getGrid</text>
</g>
<!-- Node2 -->
<g id="node2" class="node"><title>Node2</title>
<g id="a_node2"><a xlink:href="../../d9/df1/class_fire.html#a65c7d316a113807e7bdf626a789e2bf5" target="_top" xlink:title="Fire.checkNextToFire">
<polygon fill="white" stroke="black" points="202.5,-506.5 202.5,-525.5 315.5,-525.5 315.5,-506.5 202.5,-506.5"/>
<text text-anchor="middle" x="259" y="-513.5" font-family="Helvetica,sans-Serif" font-size="10.00">Fire.checkNextToFire</text>
</a>
</g>
</g>
<!-- Node1&#45;&gt;Node2 -->
<g id="edge1" class="edge"><title>Node1&#45;&gt;Node2</title>
<path fill="none" stroke="midnightblue" d="M72.9963,-288.714C80.8478,-333.236 106.302,-441.958 174,-497 182.121,-503.603 192.081,-508.015 202.268,-510.941"/>
<polygon fill="midnightblue" stroke="midnightblue" points="76.4127,-287.921 71.3298,-278.625 69.5063,-289.061 76.4127,-287.921"/>
</g>
<!-- Node5 -->
<g id="node5" class="node"><title>Node5</title>
<g id="a_node5"><a xlink:href="../../d8/d84/class_game_of_life.html#ae3bc4975c6e75164f5661d35cf3c97d0" target="_top" xlink:title="GameOfLife.checkRules">
<polygon fill="white" stroke="black" points="195,-468.5 195,-487.5 323,-487.5 323,-468.5 195,-468.5"/>
<text text-anchor="middle" x="259" y="-475.5" font-family="Helvetica,sans-Serif" font-size="10.00">GameOfLife.checkRules</text>
</a>
</g>
</g>
<!-- Node1&#45;&gt;Node5 -->
<g id="edge4" class="edge"><title>Node1&#45;&gt;Node5</title>
<path fill="none" stroke="midnightblue" d="M75.4995,-288.582C87.1474,-326.417 117.945,-409.728 174,-454 181.975,-460.298 191.529,-464.944 201.289,-468.37"/>
<polygon fill="midnightblue" stroke="midnightblue" points="78.7956,-287.385 72.604,-278.788 72.0829,-289.37 78.7956,-287.385"/>
</g>
<!-- Node6 -->
<g id="node6" class="node"><title>Node6</title>
<g id="a_node6"><a xlink:href="../../d2/d40/class_cellular_automata.html#ab6b9e3ca964f405470ec0acc064d9b3a" target="_top" xlink:title="CellularAutomata.checkRules">
<polygon fill="white" stroke="black" points="181.5,-392.5 181.5,-411.5 336.5,-411.5 336.5,-392.5 181.5,-392.5"/>
<text text-anchor="middle" x="259" y="-399.5" font-family="Helvetica,sans-Serif" font-size="10.00">CellularAutomata.checkRules</text>
</a>
</g>
</g>
<!-- Node1&#45;&gt;Node6 -->
<g id="edge5" class="edge"><title>Node1&#45;&gt;Node6</title>
<path fill="none" stroke="midnightblue" d="M81.3117,-287.185C98.2119,-312.752 132.545,-358.886 174,-383 180.721,-386.909 188.177,-390.014 195.792,-392.481"/>
<polygon fill="midnightblue" stroke="midnightblue" points="84.2516,-285.286 75.8931,-278.776 78.3673,-289.078 84.2516,-285.286"/>
</g>
<!-- Node10 -->
<g id="node10" class="node"><title>Node10</title>
<g id="a_node10"><a xlink:href="../../df/df8/class_cell_society_view.html#a767ab215ca329ba41b1493702141f841" target="_top" xlink:title="CellSocietyView.makeCAGame">
<polygon fill="white" stroke="black" points="978.5,-392.5 978.5,-411.5 1141.5,-411.5 1141.5,-392.5 978.5,-392.5"/>
<text text-anchor="middle" x="1060" y="-399.5" font-family="Helvetica,sans-Serif" font-size="10.00">CellSocietyView.makeCAGame</text>
</a>
</g>
</g>
<!-- Node1&#45;&gt;Node10 -->
<g id="edge23" class="edge"><title>Node1&#45;&gt;Node10</title>
<path fill="none" stroke="midnightblue" d="M76.7493,-288.377C89.6592,-322.144 121.345,-391.024 174,-421 288.177,-486 337.617,-440 469,-440 469,-440 469,-440 672,-440 792.297,-440 822.506,-434.878 942,-421 963.259,-418.531 986.554,-414.932 1006.72,-411.529"/>
<polygon fill="midnightblue" stroke="midnightblue" points="79.9445,-286.925 73.2147,-278.742 73.3727,-289.335 79.9445,-286.925"/>
</g>
<!-- Node16 -->
<g id="node16" class="node"><title>Node16</title>
<g id="a_node16"><a xlink:href="../../da/d1e/class_segregation.html#ae7696748513b436c2578ff68b02d889d" target="_top" xlink:title="Segregation.getSamePercent">
<polygon fill="white" stroke="black" points="179.5,-278.5 179.5,-297.5 338.5,-297.5 338.5,-278.5 179.5,-278.5"/>
<text text-anchor="middle" x="259" y="-285.5" font-family="Helvetica,sans-Serif" font-size="10.00">Segregation.getSamePercent</text>
</a>
</g>
</g>
<!-- Node1&#45;&gt;Node16 -->
<g id="edge17" class="edge"><title>Node1&#45;&gt;Node16</title>
<path fill="none" stroke="midnightblue" d="M148.27,-276.91C158.506,-277.945 168.998,-279.005 179.242,-280.04"/>
<polygon fill="midnightblue" stroke="midnightblue" points="148.439,-273.41 138.138,-275.886 147.735,-280.374 148.439,-273.41"/>
</g>
<!-- Node19 -->
<g id="node19" class="node"><title>Node19</title>
<g id="a_node19"><a xlink:href="../../d2/d40/class_cellular_automata.html#ab39b5164764f20382801aa9a4663eb4b" target="_top" xlink:title="CellularAutomata.handleUpdate">
<polygon fill="white" stroke="black" points="174,-354.5 174,-373.5 344,-373.5 344,-354.5 174,-354.5"/>
<text text-anchor="middle" x="259" y="-361.5" font-family="Helvetica,sans-Serif" font-size="10.00">CellularAutomata.handleUpdate</text>
</a>
</g>
</g>
<!-- Node1&#45;&gt;Node19 -->
<g id="edge20" class="edge"><title>Node1&#45;&gt;Node19</title>
<path fill="none" stroke="midnightblue" d="M89.4408,-285.113C109.51,-301.039 142.277,-325.117 174,-340 186.77,-345.991 201.347,-350.796 214.734,-354.487"/>
<polygon fill="midnightblue" stroke="midnightblue" points="91.391,-282.19 81.4102,-278.635 86.9959,-287.638 91.391,-282.19"/>
</g>
<!-- Node20 -->
<g id="node20" class="node"><title>Node20</title>
<g id="a_node20"><a xlink:href="../../d8/d84/class_game_of_life.html#aab00ca120baa15de020654ba9fe5d6d4" target="_top" xlink:title="GameOfLife.setUpInitialConfig">
<polygon fill="white" stroke="black" points="390.5,-335.5 390.5,-354.5 549.5,-354.5 549.5,-335.5 390.5,-335.5"/>
<text text-anchor="middle" x="470" y="-342.5" font-family="Helvetica,sans-Serif" font-size="10.00">GameOfLife.setUpInitialConfig</text>
</a>
</g>
</g>
<!-- Node1&#45;&gt;Node20 -->
<g id="edge30" class="edge"><title>Node1&#45;&gt;Node20</title>
<path fill="none" stroke="midnightblue" d="M101.267,-282.495C121.628,-290.762 148.963,-300.894 174,-307 246.242,-324.618 330.552,-334.44 390.495,-339.661"/>
<polygon fill="midnightblue" stroke="midnightblue" points="102.452,-279.198 91.8731,-278.613 99.778,-285.667 102.452,-279.198"/>
</g>
<!-- Node21 -->
<g id="node21" class="node"><title>Node21</title>
<g id="a_node21"><a xlink:href="../../d0/db0/class_wator.html#a0afccb8f97e33c1d21e51ee1a3f4922b" target="_top" xlink:title="Wator.ruleOne">
<polygon fill="white" stroke="black" points="217.5,-240.5 217.5,-259.5 300.5,-259.5 300.5,-240.5 217.5,-240.5"/>
<text text-anchor="middle" x="259" y="-247.5" font-family="Helvetica,sans-Serif" font-size="10.00">Wator.ruleOne</text>
</a>
</g>
</g>
<!-- Node1&#45;&gt;Node21 -->
<g id="edge24" class="edge"><title>Node1&#45;&gt;Node21</title>
<path fill="none" stroke="midnightblue" d="M148.23,-261.094C172.018,-258.69 197.193,-256.145 217.425,-254.101"/>
<polygon fill="midnightblue" stroke="midnightblue" points="147.735,-257.626 138.138,-262.114 148.439,-264.59 147.735,-257.626"/>
</g>
<!-- Node23 -->
<g id="node23" class="node"><title>Node23</title>
<g id="a_node23"><a xlink:href="../../d8/d84/class_game_of_life.html#aca7cd11a349cf14c940011021f91127f" target="_top" xlink:title="GameOfLife.ruleOne">
<polygon fill="white" stroke="black" points="202.5,-164.5 202.5,-183.5 315.5,-183.5 315.5,-164.5 202.5,-164.5"/>
<text text-anchor="middle" x="259" y="-171.5" font-family="Helvetica,sans-Serif" font-size="10.00">GameOfLife.ruleOne</text>
</a>
</g>
</g>
<!-- Node1&#45;&gt;Node23 -->
<g id="edge26" class="edge"><title>Node1&#45;&gt;Node23</title>
<path fill="none" stroke="midnightblue" d="M87.5266,-252.649C107.119,-235.266 140.513,-208.227 174,-193 182.847,-188.977 192.617,-185.772 202.27,-183.229"/>
<polygon fill="midnightblue" stroke="midnightblue" points="85.082,-250.141 80.0145,-259.445 89.7782,-255.332 85.082,-250.141"/>
</g>
<!-- Node24 -->
<g id="node24" class="node"><title>Node24</title>
<g id="a_node24"><a xlink:href="../../d0/db0/class_wator.html#aa8dba59120d9d6d7d7521f3a4ee7b454" target="_top" xlink:title="Wator.ruleTwo">
<polygon fill="white" stroke="black" points="219,-202.5 219,-221.5 299,-221.5 299,-202.5 219,-202.5"/>
<text text-anchor="middle" x="259" y="-209.5" font-family="Helvetica,sans-Serif" font-size="10.00">Wator.ruleTwo</text>
</a>
</g>
</g>
<!-- Node1&#45;&gt;Node24 -->
<g id="edge27" class="edge"><title>Node1&#45;&gt;Node24</title>
<path fill="none" stroke="midnightblue" d="M103.068,-255.688C123.329,-247.841 149.913,-238.093 174,-231 188.486,-226.734 204.617,-222.877 218.84,-219.77"/>
<polygon fill="midnightblue" stroke="midnightblue" points="101.705,-252.463 93.6687,-259.368 104.257,-258.982 101.705,-252.463"/>
</g>
<!-- Node25 -->
<g id="node25" class="node"><title>Node25</title>
<g id="a_node25"><a xlink:href="../../d8/d84/class_game_of_life.html#a6b6c946c47342fd7e4595710d72a9217" target="_top" xlink:title="GameOfLife.ruleTwo">
<polygon fill="white" stroke="black" points="204,-126.5 204,-145.5 314,-145.5 314,-126.5 204,-126.5"/>
<text text-anchor="middle" x="259" y="-133.5" font-family="Helvetica,sans-Serif" font-size="10.00">GameOfLife.ruleTwo</text>
</a>
</g>
</g>
<!-- Node1&#45;&gt;Node25 -->
<g id="edge29" class="edge"><title>Node1&#45;&gt;Node25</title>
<path fill="none" stroke="midnightblue" d="M81.3117,-250.815C98.2119,-225.248 132.545,-179.114 174,-155 183.047,-149.738 193.427,-145.932 203.734,-143.181"/>
<polygon fill="midnightblue" stroke="midnightblue" points="78.3673,-248.922 75.8931,-259.224 84.2516,-252.714 78.3673,-248.922"/>
</g>
<!-- Node26 -->
<g id="node26" class="node"><title>Node26</title>
<g id="a_node26"><a xlink:href="../../d9/df1/class_fire.html#afd16418c5ea360c815613862a4ea1c33" target="_top" xlink:title="Fire.setUpInitialConfig">
<polygon fill="white" stroke="black" points="199.5,-88.5 199.5,-107.5 318.5,-107.5 318.5,-88.5 199.5,-88.5"/>
<text text-anchor="middle" x="259" y="-95.5" font-family="Helvetica,sans-Serif" font-size="10.00">Fire.setUpInitialConfig</text>
</a>
</g>
</g>
<!-- Node1&#45;&gt;Node26 -->
<g id="edge31" class="edge"><title>Node1&#45;&gt;Node26</title>
<path fill="none" stroke="midnightblue" d="M77.4592,-249.98C91.2886,-217.332 124.116,-150.879 174,-117 181.545,-111.876 190.264,-108.115 199.168,-105.358"/>
<polygon fill="midnightblue" stroke="midnightblue" points="74.19,-248.727 73.6391,-259.308 80.6679,-251.38 74.19,-248.727"/>
</g>
<!-- Node27 -->
<g id="node27" class="node"><title>Node27</title>
<g id="a_node27"><a xlink:href="../../da/d1e/class_segregation.html#aa98703181490b07669037a419e52041c" target="_top" xlink:title="Segregation.setUpInitial\lConfig">
<polygon fill="white" stroke="black" points="193.5,-39 193.5,-69 324.5,-69 324.5,-39 193.5,-39"/>
<text text-anchor="start" x="201.5" y="-57" font-family="Helvetica,sans-Serif" font-size="10.00">Segregation.setUpInitial</text>
<text text-anchor="middle" x="259" y="-46" font-family="Helvetica,sans-Serif" font-size="10.00">Config</text>
</a>
</g>
</g>
<!-- Node1&#45;&gt;Node27 -->
<g id="edge32" class="edge"><title>Node1&#45;&gt;Node27</title>
<path fill="none" stroke="midnightblue" d="M75.225,-249.494C86.5475,-211.004 117.031,-125.033 174,-79 179.799,-74.3142 186.456,-70.5062 193.429,-67.4117"/>
<polygon fill="midnightblue" stroke="midnightblue" points="71.7714,-248.845 72.4251,-259.42 78.5085,-250.746 71.7714,-248.845"/>
</g>
<!-- Node28 -->
<g id="node28" class="node"><title>Node28</title>
<g id="a_node28"><a xlink:href="../../d0/db0/class_wator.html#a4ea39aef9488c7e03af93e711fe2e61e" target="_top" xlink:title="Wator.setUpInitialConfig">
<polygon fill="white" stroke="black" points="194.5,-0.5 194.5,-19.5 323.5,-19.5 323.5,-0.5 194.5,-0.5"/>
<text text-anchor="middle" x="259" y="-7.5" font-family="Helvetica,sans-Serif" font-size="10.00">Wator.setUpInitialConfig</text>
</a>
</g>
</g>
<!-- Node1&#45;&gt;Node28 -->
<g id="edge33" class="edge"><title>Node1&#45;&gt;Node28</title>
<path fill="none" stroke="midnightblue" d="M72.5864,-249.342C79.7065,-203.437 103.952,-88.6483 174,-30 179.977,-24.9957 186.992,-21.1992 194.376,-18.3263"/>
<polygon fill="midnightblue" stroke="midnightblue" points="69.0916,-249.055 71.1277,-259.452 76.0199,-250.055 69.0916,-249.055"/>
</g>
<!-- Node3 -->
<g id="node3" class="node"><title>Node3</title>
<g id="a_node3"><a xlink:href="../../d9/df1/class_fire.html#a9848867ebe2faddb27dfd0994cb565a8" target="_top" xlink:title="Fire.checkRules">
<polygon fill="white" stroke="black" points="425.5,-525.5 425.5,-544.5 514.5,-544.5 514.5,-525.5 425.5,-525.5"/>
<text text-anchor="middle" x="470" y="-532.5" font-family="Helvetica,sans-Serif" font-size="10.00">Fire.checkRules</text>
</a>
</g>
</g>
<!-- Node2&#45;&gt;Node3 -->
<g id="edge2" class="edge"><title>Node2&#45;&gt;Node3</title>
<path fill="none" stroke="midnightblue" d="M326.035,-522.003C358.443,-524.949 396.586,-528.417 425.32,-531.029"/>
<polygon fill="midnightblue" stroke="midnightblue" points="326.009,-518.487 315.734,-521.067 325.376,-525.458 326.009,-518.487"/>
</g>
<!-- Node4 -->
<g id="node4" class="node"><title>Node4</title>
<g id="a_node4"><a xlink:href="../../d9/df1/class_fire.html#accc21ae2162fd526d8ca66c472a62a28" target="_top" xlink:title="Fire.ruleTwo">
<polygon fill="white" stroke="black" points="434.5,-487.5 434.5,-506.5 505.5,-506.5 505.5,-487.5 434.5,-487.5"/>
<text text-anchor="middle" x="470" y="-494.5" font-family="Helvetica,sans-Serif" font-size="10.00">Fire.ruleTwo</text>
</a>
</g>
</g>
<!-- Node2&#45;&gt;Node4 -->
<g id="edge3" class="edge"><title>Node2&#45;&gt;Node4</title>
<path fill="none" stroke="midnightblue" d="M326.147,-509.987C362.073,-506.721 405.021,-502.816 434.382,-500.147"/>
<polygon fill="midnightblue" stroke="midnightblue" points="325.376,-506.542 315.734,-510.933 326.009,-513.513 325.376,-506.542"/>
</g>
<!-- Node7 -->
<g id="node7" class="node"><title>Node7</title>
<g id="a_node7"><a xlink:href="../../d2/d40/class_cellular_automata.html#a8f4c8a2f32137db67dd31f5afb4b62c3" target="_top" xlink:title="CellularAutomata.updateNextGen">
<polygon fill="white" stroke="black" points="380.5,-382.5 380.5,-401.5 559.5,-401.5 559.5,-382.5 380.5,-382.5"/>
<text text-anchor="middle" x="470" y="-389.5" font-family="Helvetica,sans-Serif" font-size="10.00">CellularAutomata.updateNextGen</text>
</a>
</g>
</g>
<!-- Node6&#45;&gt;Node7 -->
<g id="edge6" class="edge"><title>Node6&#45;&gt;Node7</title>
<path fill="none" stroke="midnightblue" d="M346.738,-397.85C357.837,-397.319 369.212,-396.775 380.342,-396.242"/>
<polygon fill="midnightblue" stroke="midnightblue" points="346.458,-394.359 336.637,-398.333 346.793,-401.351 346.458,-394.359"/>
</g>
<!-- Node8 -->
<g id="node8" class="node"><title>Node8</title>
<g id="a_node8"><a xlink:href="../../df/df8/class_cell_society_view.html#ad52b914fa03b45d8bc9d64fc407660f3" target="_top" xlink:title="CellSocietyView.updateView">
<polygon fill="white" stroke="black" points="596.5,-382.5 596.5,-401.5 745.5,-401.5 745.5,-382.5 596.5,-382.5"/>
<text text-anchor="middle" x="671" y="-389.5" font-family="Helvetica,sans-Serif" font-size="10.00">CellSocietyView.updateView</text>
</a>
</g>
</g>
<!-- Node7&#45;&gt;Node8 -->
<g id="edge7" class="edge"><title>Node7&#45;&gt;Node8</title>
<path fill="none" stroke="midnightblue" d="M569.8,-392C578.732,-392 587.672,-392 596.332,-392"/>
<polygon fill="midnightblue" stroke="midnightblue" points="569.733,-388.5 559.733,-392 569.733,-395.5 569.733,-388.5"/>
</g>
<!-- Node9 -->
<g id="node9" class="node"><title>Node9</title>
<g id="a_node9"><a xlink:href="../../df/df8/class_cell_society_view.html#a7bdbd4e8fd3893e672eb22015603f6dc" target="_top" xlink:title="CellSocietyView.makeButtons">
<polygon fill="white" stroke="black" points="783,-354.5 783,-373.5 941,-373.5 941,-354.5 783,-354.5"/>
<text text-anchor="middle" x="862" y="-361.5" font-family="Helvetica,sans-Serif" font-size="10.00">CellSocietyView.makeButtons</text>
</a>
</g>
</g>
<!-- Node8&#45;&gt;Node9 -->
<g id="edge8" class="edge"><title>Node8&#45;&gt;Node9</title>
<path fill="none" stroke="midnightblue" d="M746.444,-380.971C763.025,-378.515 780.469,-375.93 796.606,-373.54"/>
<polygon fill="midnightblue" stroke="midnightblue" points="745.63,-377.554 736.251,-382.481 746.655,-384.478 745.63,-377.554"/>
</g>
<!-- Node15 -->
<g id="node15" class="node"><title>Node15</title>
<g id="a_node15"><a xlink:href="../../df/df8/class_cell_society_view.html#adf6a6b0542d00677a9fffbb8e3c03ffe" target="_top" xlink:title="CellSocietyView.makeTimeline">
<polygon fill="white" stroke="black" points="782,-392.5 782,-411.5 942,-411.5 942,-392.5 782,-392.5"/>
<text text-anchor="middle" x="862" y="-399.5" font-family="Helvetica,sans-Serif" font-size="10.00">CellSocietyView.makeTimeline</text>
</a>
</g>
</g>
<!-- Node8&#45;&gt;Node15 -->
<g id="edge15" class="edge"><title>Node8&#45;&gt;Node15</title>
<path fill="none" stroke="midnightblue" d="M755.763,-396.432C764.473,-396.893 773.306,-397.36 781.961,-397.818"/>
<polygon fill="midnightblue" stroke="midnightblue" points="755.785,-392.928 745.614,-395.895 755.415,-399.918 755.785,-392.928"/>
</g>
<!-- Node9&#45;&gt;Node10 -->
<g id="edge9" class="edge"><title>Node9&#45;&gt;Node10</title>
<path fill="none" stroke="midnightblue" d="M922.261,-375.489C950.227,-380.911 983.209,-387.306 1009.77,-392.456"/>
<polygon fill="midnightblue" stroke="midnightblue" points="922.689,-372.007 912.206,-373.54 921.357,-378.879 922.689,-372.007"/>
</g>
<!-- Node11 -->
<g id="node11" class="node"><title>Node11</title>
<g id="a_node11"><a xlink:href="../../df/df8/class_cell_society_view.html#a2ee793e471cc5731ce39c1450f058dd5" target="_top" xlink:title="CellSocietyView.parseFile">
<polygon fill="white" stroke="black" points="1178.5,-392.5 1178.5,-411.5 1313.5,-411.5 1313.5,-392.5 1178.5,-392.5"/>
<text text-anchor="middle" x="1246" y="-399.5" font-family="Helvetica,sans-Serif" font-size="10.00">CellSocietyView.parseFile</text>
</a>
</g>
</g>
<!-- Node10&#45;&gt;Node11 -->
<g id="edge10" class="edge"><title>Node10&#45;&gt;Node11</title>
<path fill="none" stroke="midnightblue" d="M1151.81,-402C1160.78,-402 1169.76,-402 1178.42,-402"/>
<polygon fill="midnightblue" stroke="midnightblue" points="1151.71,-398.5 1141.71,-402 1151.71,-405.5 1151.71,-398.5"/>
</g>
<!-- Node12 -->
<g id="node12" class="node"><title>Node12</title>
<g id="a_node12"><a xlink:href="../../df/df8/class_cell_society_view.html#a2c047a3972078bb0a5490ed225ef2dfa" target="_top" xlink:title="CellSocietyView.loadNewFile">
<polygon fill="white" stroke="black" points="1350.5,-392.5 1350.5,-411.5 1499.5,-411.5 1499.5,-392.5 1350.5,-392.5"/>
<text text-anchor="middle" x="1425" y="-399.5" font-family="Helvetica,sans-Serif" font-size="10.00">CellSocietyView.loadNewFile</text>
</a>
</g>
</g>
<!-- Node11&#45;&gt;Node12 -->
<g id="edge11" class="edge"><title>Node11&#45;&gt;Node12</title>
<path fill="none" stroke="midnightblue" d="M1323.86,-402C1332.63,-402 1341.56,-402 1350.28,-402"/>
<polygon fill="midnightblue" stroke="midnightblue" points="1323.66,-398.5 1313.66,-402 1323.66,-405.5 1323.66,-398.5"/>
</g>
<!-- Node13 -->
<g id="node13" class="node"><title>Node13</title>
<g id="a_node13"><a xlink:href="../../df/df8/class_cell_society_view.html#a656cfed0ba32bc41bbd0c4087860db4b" target="_top" xlink:title="CellSocietyView.makeLoad\lButton">
<polygon fill="white" stroke="black" points="1536.5,-368 1536.5,-398 1679.5,-398 1679.5,-368 1536.5,-368"/>
<text text-anchor="start" x="1544.5" y="-386" font-family="Helvetica,sans-Serif" font-size="10.00">CellSocietyView.makeLoad</text>
<text text-anchor="middle" x="1608" y="-375" font-family="Helvetica,sans-Serif" font-size="10.00">Button</text>
</a>
</g>
</g>
<!-- Node12&#45;&gt;Node13 -->
<g id="edge12" class="edge"><title>Node12&#45;&gt;Node13</title>
<path fill="none" stroke="midnightblue" d="M1509.65,-393.219C1518.59,-392.281 1527.61,-391.334 1536.37,-390.414"/>
<polygon fill="midnightblue" stroke="midnightblue" points="1509.2,-389.747 1499.62,-394.272 1509.93,-396.709 1509.2,-389.747"/>
</g>
<!-- Node13&#45;&gt;Node9 -->
<g id="edge14" class="edge"><title>Node13&#45;&gt;Node9</title>
<path fill="none" stroke="midnightblue" d="M1526.31,-380.939C1382.41,-377.264 1083.31,-369.626 941.215,-365.997"/>
<polygon fill="midnightblue" stroke="midnightblue" points="1526.31,-384.44 1536.39,-381.197 1526.49,-377.443 1526.31,-384.44"/>
</g>
<!-- Node14 -->
<g id="node14" class="node"><title>Node14</title>
<g id="a_node14"><a xlink:href="../../df/df8/class_cell_society_view.html#a53ab66afdeb23b3fc89e54a44be7ced5" target="_top" xlink:title="CellSocietyView.CellSocietyView">
<polygon fill="white" stroke="black" points="1716.5,-373.5 1716.5,-392.5 1883.5,-392.5 1883.5,-373.5 1716.5,-373.5"/>
<text text-anchor="middle" x="1800" y="-380.5" font-family="Helvetica,sans-Serif" font-size="10.00">CellSocietyView.CellSocietyView</text>
</a>
</g>
</g>
<!-- Node13&#45;&gt;Node14 -->
<g id="edge13" class="edge"><title>Node13&#45;&gt;Node14</title>
<path fill="none" stroke="midnightblue" d="M1689.92,-383C1698.66,-383 1707.57,-383 1716.33,-383"/>
<polygon fill="midnightblue" stroke="midnightblue" points="1689.75,-379.5 1679.75,-383 1689.75,-386.5 1689.75,-379.5"/>
</g>
<!-- Node15&#45;&gt;Node10 -->
<g id="edge16" class="edge"><title>Node15&#45;&gt;Node10</title>
<path fill="none" stroke="midnightblue" d="M952.271,-402C960.937,-402 969.696,-402 978.272,-402"/>
<polygon fill="midnightblue" stroke="midnightblue" points="952.156,-398.5 942.156,-402 952.156,-405.5 952.156,-398.5"/>
</g>
<!-- Node17 -->
<g id="node17" class="node"><title>Node17</title>
<g id="a_node17"><a xlink:href="../../da/d1e/class_segregation.html#a65706fcdb683f11f27836d3f4c591f3c" target="_top" xlink:title="Segregation.ruleOne">
<polygon fill="white" stroke="black" points="412,-278.5 412,-297.5 528,-297.5 528,-278.5 412,-278.5"/>
<text text-anchor="middle" x="470" y="-285.5" font-family="Helvetica,sans-Serif" font-size="10.00">Segregation.ruleOne</text>
</a>
</g>
</g>
<!-- Node16&#45;&gt;Node17 -->
<g id="edge18" class="edge"><title>Node16&#45;&gt;Node17</title>
<path fill="none" stroke="midnightblue" d="M348.779,-288C370.133,-288 392.383,-288 411.852,-288"/>
<polygon fill="midnightblue" stroke="midnightblue" points="348.716,-284.5 338.716,-288 348.716,-291.5 348.716,-284.5"/>
</g>
<!-- Node18 -->
<g id="node18" class="node"><title>Node18</title>
<g id="a_node18"><a xlink:href="../../da/d1e/class_segregation.html#a8272e13082766c6c6d45fc1e58acd6dc" target="_top" xlink:title="Segregation.checkRules">
<polygon fill="white" stroke="black" points="605.5,-278.5 605.5,-297.5 736.5,-297.5 736.5,-278.5 605.5,-278.5"/>
<text text-anchor="middle" x="671" y="-285.5" font-family="Helvetica,sans-Serif" font-size="10.00">Segregation.checkRules</text>
</a>
</g>
</g>
<!-- Node17&#45;&gt;Node18 -->
<g id="edge19" class="edge"><title>Node17&#45;&gt;Node18</title>
<path fill="none" stroke="midnightblue" d="M538.129,-288C559.798,-288 583.766,-288 605.259,-288"/>
<polygon fill="midnightblue" stroke="midnightblue" points="538.025,-284.5 528.025,-288 538.025,-291.5 538.025,-284.5"/>
</g>
<!-- Node19&#45;&gt;Node7 -->
<g id="edge21" class="edge"><title>Node19&#45;&gt;Node7</title>
<path fill="none" stroke="midnightblue" d="M341.025,-374.855C359.746,-377.363 379.527,-380.013 397.792,-382.46"/>
<polygon fill="midnightblue" stroke="midnightblue" points="341.426,-371.378 331.049,-373.519 340.496,-378.316 341.426,-371.378"/>
</g>
<!-- Node19&#45;&gt;Node20 -->
<g id="edge22" class="edge"><title>Node19&#45;&gt;Node20</title>
<path fill="none" stroke="midnightblue" d="M354.227,-355.434C366.346,-354.332 378.651,-353.214 390.482,-352.138"/>
<polygon fill="midnightblue" stroke="midnightblue" points="353.747,-351.963 344.105,-356.354 354.381,-358.934 353.747,-351.963"/>
</g>
<!-- Node22 -->
<g id="node22" class="node"><title>Node22</title>
<g id="a_node22"><a xlink:href="../../d0/db0/class_wator.html#a422810cdcb035633301b3469cbee5e34" target="_top" xlink:title="Wator.checkRules">
<polygon fill="white" stroke="black" points="421,-221.5 421,-240.5 519,-240.5 519,-221.5 421,-221.5"/>
<text text-anchor="middle" x="470" y="-228.5" font-family="Helvetica,sans-Serif" font-size="10.00">Wator.checkRules</text>
</a>
</g>
</g>
<!-- Node21&#45;&gt;Node22 -->
<g id="edge25" class="edge"><title>Node21&#45;&gt;Node22</title>
<path fill="none" stroke="midnightblue" d="M310.853,-245.377C344.39,-242.328 388.04,-238.36 420.984,-235.365"/>
<polygon fill="midnightblue" stroke="midnightblue" points="310.435,-241.9 300.793,-246.292 311.069,-248.872 310.435,-241.9"/>
</g>
<!-- Node24&#45;&gt;Node22 -->
<g id="edge28" class="edge"><title>Node24&#45;&gt;Node22</title>
<path fill="none" stroke="midnightblue" d="M309.379,-216.489C343,-219.545 387.286,-223.571 420.68,-226.607"/>
<polygon fill="midnightblue" stroke="midnightblue" points="309.587,-212.994 299.311,-215.574 308.953,-219.965 309.587,-212.994"/>
</g>
</g>
</svg>
