<?xml version="1.0" encoding="UTF-8" standalone="no"?>
<!DOCTYPE svg PUBLIC "-//W3C//DTD SVG 1.1//EN"
 "http://www.w3.org/Graphics/SVG/1.1/DTD/svg11.dtd">
<!-- Generated by graphviz version 2.36.0 (20140111.2315)
 -->
<!-- Title: CellularAutomata.getName Pages: 1 -->
<svg width="904pt" height="38pt"
 viewBox="0.00 0.00 904.00 38.00" xmlns="http://www.w3.org/2000/svg" xmlns:xlink="http://www.w3.org/1999/xlink">
<g id="graph0" class="graph" transform="scale(1 1) rotate(0) translate(4 34)">
<title>CellularAutomata.getName</title>
<polygon fill="white" stroke="none" points="-4,4 -4,-34 900,-34 900,4 -4,4"/>
<!-- Node1 -->
<g id="node1" class="node"><title>Node1</title>
<polygon fill="#bfbfbf" stroke="black" points="0,-5.5 0,-24.5 148,-24.5 148,-5.5 0,-5.5"/>
<text text-anchor="middle" x="74" y="-12.5" font-family="Helvetica,sans-Serif" font-size="10.00">CellularAutomata.getName</text>
</g>
<!-- Node2 -->
<g id="node2" class="node"><title>Node2</title>
<g id="a_node2"><a xlink:href="../../df/df8/class_cell_society_view.html#a1b6388535f7c24c4fc076db62c78ac92" target="_top" xlink:title="CellSocietyView.addGameType">
<polygon fill="white" stroke="black" points="184.5,-5.5 184.5,-24.5 345.5,-24.5 345.5,-5.5 184.5,-5.5"/>
<text text-anchor="middle" x="265" y="-12.5" font-family="Helvetica,sans-Serif" font-size="10.00">CellSocietyView.addGameType</text>
</a>
</g>
</g>
<!-- Node1&#45;&gt;Node2 -->
<g id="edge1" class="edge"><title>Node1&#45;&gt;Node2</title>
<path fill="none" stroke="midnightblue" d="M158.159,-15C166.816,-15 175.603,-15 184.221,-15"/>
<polygon fill="midnightblue" stroke="midnightblue" points="158.072,-11.5001 148.072,-15 158.072,-18.5001 158.072,-11.5001"/>
</g>
<!-- Node3 -->
<g id="node3" class="node"><title>Node3</title>
<g id="a_node3"><a xlink:href="../../df/df8/class_cell_society_view.html#a38d9c3d5a91b82c54b1c5aae86b4d33a" target="_top" xlink:title="CellSocietyView.setUpGame\lTypes">
<polygon fill="white" stroke="black" points="382.5,-0 382.5,-30 533.5,-30 533.5,-0 382.5,-0"/>
<text text-anchor="start" x="390.5" y="-18" font-family="Helvetica,sans-Serif" font-size="10.00">CellSocietyView.setUpGame</text>
<text text-anchor="middle" x="458" y="-7" font-family="Helvetica,sans-Serif" font-size="10.00">Types</text>
</a>
</g>
</g>
<!-- Node2&#45;&gt;Node3 -->
<g id="edge2" class="edge"><title>Node2&#45;&gt;Node3</title>
<path fill="none" stroke="midnightblue" d="M355.673,-15C364.619,-15 373.634,-15 382.402,-15"/>
<polygon fill="midnightblue" stroke="midnightblue" points="355.618,-11.5001 345.618,-15 355.618,-18.5001 355.618,-11.5001"/>
</g>
<!-- Node4 -->
<g id="node4" class="node"><title>Node4</title>
<g id="a_node4"><a xlink:href="../../df/df8/class_cell_society_view.html#a61f4aa77e19dd7d6071e42bc1535f9f0" target="_top" xlink:title="CellSocietyView.setUp">
<polygon fill="white" stroke="black" points="570,-5.5 570,-24.5 692,-24.5 692,-5.5 570,-5.5"/>
<text text-anchor="middle" x="631" y="-12.5" font-family="Helvetica,sans-Serif" font-size="10.00">CellSocietyView.setUp</text>
</a>
</g>
</g>
<!-- Node3&#45;&gt;Node4 -->
<g id="edge3" class="edge"><title>Node3&#45;&gt;Node4</title>
<path fill="none" stroke="midnightblue" d="M543.52,-15C552.413,-15 561.32,-15 569.856,-15"/>
<polygon fill="midnightblue" stroke="midnightblue" points="543.506,-11.5001 533.506,-15 543.506,-18.5001 543.506,-11.5001"/>
</g>
<!-- Node5 -->
<g id="node5" class="node"><title>Node5</title>
<g id="a_node5"><a xlink:href="../../df/df8/class_cell_society_view.html#a53ab66afdeb23b3fc89e54a44be7ced5" target="_top" xlink:title="CellSocietyView.CellSocietyView">
<polygon fill="white" stroke="black" points="728.5,-5.5 728.5,-24.5 895.5,-24.5 895.5,-5.5 728.5,-5.5"/>
<text text-anchor="middle" x="812" y="-12.5" font-family="Helvetica,sans-Serif" font-size="10.00">CellSocietyView.CellSocietyView</text>
</a>
</g>
</g>
<!-- Node4&#45;&gt;Node5 -->
<g id="edge4" class="edge"><title>Node4&#45;&gt;Node5</title>
<path fill="none" stroke="midnightblue" d="M702.115,-15C710.761,-15 719.661,-15 728.47,-15"/>
<polygon fill="midnightblue" stroke="midnightblue" points="702.102,-11.5001 692.102,-15 702.102,-18.5001 702.102,-11.5001"/>
</g>
</g>
</svg>
