<?xml version="1.0" encoding="UTF-8" standalone="no"?>
<!DOCTYPE svg PUBLIC "-//W3C//DTD SVG 1.1//EN"
 "http://www.w3.org/Graphics/SVG/1.1/DTD/svg11.dtd">
<!-- Generated by graphviz version 2.36.0 (20140111.2315)
 -->
<!-- Title: Fire Pages: 1 -->
<svg width="194pt" height="332pt"
 viewBox="0.00 0.00 194.00 332.00" xmlns="http://www.w3.org/2000/svg" xmlns:xlink="http://www.w3.org/1999/xlink">
<g id="graph0" class="graph" transform="scale(1 1) rotate(0) translate(4 328)">
<title>Fire</title>
<polygon fill="white" stroke="none" points="-4,4 -4,-328 190,-328 190,4 -4,4"/>
<!-- Node1 -->
<g id="node1" class="node"><title>Node1</title>
<polygon fill="#bfbfbf" stroke="black" points="121.5,-0.5 121.5,-19.5 154.5,-19.5 154.5,-0.5 121.5,-0.5"/>
<text text-anchor="middle" x="138" y="-7.5" font-family="Helvetica,sans-Serif" font-size="10.00">Fire</text>
</g>
<!-- Node2 -->
<g id="node2" class="node"><title>Node2</title>
<g id="a_node2"><a xlink:href="../../d2/d40/class_cellular_automata.html" target="_top" xlink:title="CellularAutomata">
<polygon fill="white" stroke="black" points="22,-90.5 22,-109.5 122,-109.5 122,-90.5 22,-90.5"/>
<text text-anchor="middle" x="72" y="-97.5" font-family="Helvetica,sans-Serif" font-size="10.00">CellularAutomata</text>
</a>
</g>
</g>
<!-- Node2&#45;&gt;Node1 -->
<g id="edge1" class="edge"><title>Node2&#45;&gt;Node1</title>
<path fill="none" stroke="midnightblue" d="M84.7107,-82.0524C98.6887,-63.4151 120.603,-34.1958 131.457,-19.7241"/>
<polygon fill="midnightblue" stroke="midnightblue" points="81.7697,-80.1405 78.5696,-90.2405 87.3697,-84.3405 81.7697,-80.1405"/>
</g>
<!-- Node3 -->
<g id="node3" class="node"><title>Node3</title>
<g id="a_node3"><a xlink:href="../../da/d74/class_grid.html" target="_top" xlink:title="Grid">
<polygon fill="white" stroke="black" points="21,-158.5 21,-177.5 57,-177.5 57,-158.5 21,-158.5"/>
<text text-anchor="middle" x="39" y="-165.5" font-family="Helvetica,sans-Serif" font-size="10.00">Grid</text>
</a>
</g>
</g>
<!-- Node3&#45;&gt;Node2 -->
<g id="edge2" class="edge"><title>Node3&#45;&gt;Node2</title>
<path fill="none" stroke="#9a32cd" stroke-dasharray="5,2" d="M38.2532,-148.234C38.6639,-141.556 39.9313,-134.168 43,-128 46.6769,-120.609 53.2788,-114.215 59.2556,-109.506"/>
<polygon fill="#9a32cd" stroke="#9a32cd" points="34.7522,-148.446 38.2038,-158.463 41.7521,-148.48 34.7522,-148.446"/>
<text text-anchor="middle" x="62" y="-131.5" font-family="Helvetica,sans-Serif" font-size="10.00"> myGrid</text>
</g>
<!-- Node4 -->
<g id="node4" class="node"><title>Node4</title>
<polygon fill="white" stroke="#bfbfbf" points="0,-226.5 0,-245.5 46,-245.5 46,-226.5 0,-226.5"/>
<text text-anchor="middle" x="23" y="-233.5" font-family="Helvetica,sans-Serif" font-size="10.00">Group</text>
</g>
<!-- Node4&#45;&gt;Node3 -->
<g id="edge3" class="edge"><title>Node4&#45;&gt;Node3</title>
<path fill="none" stroke="midnightblue" d="M27.503,-216.425C30.5642,-203.798 34.4758,-187.662 36.8567,-177.841"/>
<polygon fill="midnightblue" stroke="midnightblue" points="24.0463,-215.829 25.0917,-226.372 30.8493,-217.478 24.0463,-215.829"/>
</g>
<!-- Node5 -->
<g id="node5" class="node"><title>Node5</title>
<g id="a_node5"><a xlink:href="../../dd/d11/class_cell.html" target="_top" xlink:title="Cell">
<polygon fill="white" stroke="black" points="64,-226.5 64,-245.5 98,-245.5 98,-226.5 64,-226.5"/>
<text text-anchor="middle" x="81" y="-233.5" font-family="Helvetica,sans-Serif" font-size="10.00">Cell</text>
</a>
</g>
</g>
<!-- Node5&#45;&gt;Node3 -->
<g id="edge4" class="edge"><title>Node5&#45;&gt;Node3</title>
<path fill="none" stroke="#9a32cd" stroke-dasharray="5,2" d="M69.9037,-217.563C61.77,-204.781 51.0654,-187.96 44.6262,-177.841"/>
<polygon fill="#9a32cd" stroke="#9a32cd" points="67.1876,-219.814 75.5092,-226.372 73.0933,-216.056 67.1876,-219.814"/>
<text text-anchor="middle" x="84.5" y="-199.5" font-family="Helvetica,sans-Serif" font-size="10.00"> myCells</text>
</g>
<!-- Node6 -->
<g id="node6" class="node"><title>Node6</title>
<polygon fill="white" stroke="#bfbfbf" points="61,-304.5 61,-323.5 101,-323.5 101,-304.5 61,-304.5"/>
<text text-anchor="middle" x="81" y="-311.5" font-family="Helvetica,sans-Serif" font-size="10.00">Paint</text>
</g>
<!-- Node6&#45;&gt;Node5 -->
<g id="edge5" class="edge"><title>Node6&#45;&gt;Node5</title>
<path fill="none" stroke="#9a32cd" stroke-dasharray="5,2" d="M81,-294.224C81,-278.697 81,-257.358 81,-245.616"/>
<polygon fill="#9a32cd" stroke="#9a32cd" points="77.5001,-294.282 81,-304.282 84.5001,-294.282 77.5001,-294.282"/>
<text text-anchor="middle" x="111" y="-278" font-family="Helvetica,sans-Serif" font-size="10.00"> nextColor</text>
<text text-anchor="middle" x="111" y="-267" font-family="Helvetica,sans-Serif" font-size="10.00">currentColor</text>
</g>
<!-- Node7 -->
<g id="node7" class="node"><title>Node7</title>
<polygon fill="white" stroke="#bfbfbf" points="75,-158.5 75,-177.5 131,-177.5 131,-158.5 75,-158.5"/>
<text text-anchor="middle" x="103" y="-165.5" font-family="Helvetica,sans-Serif" font-size="10.00">Random</text>
</g>
<!-- Node7&#45;&gt;Node2 -->
<g id="edge6" class="edge"><title>Node7&#45;&gt;Node2</title>
<path fill="none" stroke="#9a32cd" stroke-dasharray="5,2" d="M94.6328,-149.186C88.6518,-136.452 80.8588,-119.861 76.1526,-109.841"/>
<polygon fill="#9a32cd" stroke="#9a32cd" points="91.5279,-150.808 98.9473,-158.372 97.8638,-147.832 91.5279,-150.808"/>
<text text-anchor="middle" x="120" y="-131.5" font-family="Helvetica,sans-Serif" font-size="10.00"> myRandom</text>
</g>
<!-- Node8 -->
<g id="node8" class="node"><title>Node8</title>
<polygon fill="white" stroke="#bfbfbf" points="140.5,-90.5 140.5,-109.5 181.5,-109.5 181.5,-90.5 140.5,-90.5"/>
<text text-anchor="middle" x="161" y="-97.5" font-family="Helvetica,sans-Serif" font-size="10.00">Color</text>
</g>
<!-- Node8&#45;&gt;Node1 -->
<g id="edge7" class="edge"><title>Node8&#45;&gt;Node1</title>
<path fill="none" stroke="#9a32cd" stroke-dasharray="5,2" d="M156.166,-80.5044C151.286,-61.8323 143.959,-33.8011 140.28,-19.7241"/>
<polygon fill="#9a32cd" stroke="#9a32cd" points="152.796,-81.4506 158.711,-90.2405 159.568,-79.6804 152.796,-81.4506"/>
<text text-anchor="middle" x="170" y="-63.5" font-family="Helvetica,sans-Serif" font-size="10.00"> onFire</text>
<text text-anchor="middle" x="170" y="-52.5" font-family="Helvetica,sans-Serif" font-size="10.00">empty</text>
<text text-anchor="middle" x="170" y="-41.5" font-family="Helvetica,sans-Serif" font-size="10.00">tree</text>
</g>
</g>
</svg>
