<?xml version="1.0" encoding="UTF-8" standalone="no"?>
<!DOCTYPE svg PUBLIC "-//W3C//DTD SVG 1.1//EN"
 "http://www.w3.org/Graphics/SVG/1.1/DTD/svg11.dtd">
<!-- Generated by graphviz version 2.36.0 (20140111.2315)
 -->
<!-- Title: Fire.ruleTwo Pages: 1 -->
<svg width="728pt" height="268pt"
 viewBox="0.00 0.00 728.00 268.00" xmlns="http://www.w3.org/2000/svg" xmlns:xlink="http://www.w3.org/1999/xlink">
<g id="graph0" class="graph" transform="scale(1 1) rotate(0) translate(4 264)">
<title>Fire.ruleTwo</title>
<polygon fill="white" stroke="none" points="-4,4 -4,-264 724,-264 724,4 -4,4"/>
<!-- Node1 -->
<g id="node1" class="node"><title>Node1</title>
<polygon fill="#bfbfbf" stroke="black" points="0.5,-82.5 0.5,-101.5 71.5,-101.5 71.5,-82.5 0.5,-82.5"/>
<text text-anchor="middle" x="36" y="-89.5" font-family="Helvetica,sans-Serif" font-size="10.00">Fire.ruleTwo</text>
</g>
<!-- Node2 -->
<g id="node2" class="node"><title>Node2</title>
<g id="a_node2"><a xlink:href="../../d9/df1/class_fire.html#a65c7d316a113807e7bdf626a789e2bf5" target="_top" xlink:title="Fire.checkNextToFire">
<polygon fill="white" stroke="black" points="130.5,-164.5 130.5,-183.5 243.5,-183.5 243.5,-164.5 130.5,-164.5"/>
<text text-anchor="middle" x="187" y="-171.5" font-family="Helvetica,sans-Serif" font-size="10.00">Fire.checkNextToFire</text>
</a>
</g>
</g>
<!-- Node1&#45;&gt;Node2 -->
<g id="edge1" class="edge"><title>Node1&#45;&gt;Node2</title>
<path fill="none" stroke="midnightblue" d="M45.1091,-101.723C57.2958,-115.684 81.7215,-141.24 108,-155 112.515,-157.364 117.331,-159.44 122.27,-161.262"/>
<polygon fill="midnightblue" stroke="midnightblue" points="121.28,-164.622 131.874,-164.463 123.493,-157.981 121.28,-164.622"/>
</g>
<!-- Node10 -->
<g id="node10" class="node"><title>Node10</title>
<g id="a_node10"><a xlink:href="../../d2/d40/class_cellular_automata.html#ac2c674c8f80e624e4b63c131b4200a34" target="_top" xlink:title="CellularAutomata.getProb">
<polygon fill="white" stroke="black" points="117,-126.5 117,-145.5 257,-145.5 257,-126.5 117,-126.5"/>
<text text-anchor="middle" x="187" y="-133.5" font-family="Helvetica,sans-Serif" font-size="10.00">CellularAutomata.getProb</text>
</a>
</g>
</g>
<!-- Node1&#45;&gt;Node10 -->
<g id="edge9" class="edge"><title>Node1&#45;&gt;Node10</title>
<path fill="none" stroke="midnightblue" d="M63.82,-101.595C77.046,-106.191 93.2808,-111.632 108,-116 117.251,-118.745 127.183,-121.464 136.757,-123.971"/>
<polygon fill="midnightblue" stroke="midnightblue" points="136.004,-127.391 146.562,-126.499 137.752,-120.613 136.004,-127.391"/>
</g>
<!-- Node11 -->
<g id="node11" class="node"><title>Node11</title>
<g id="a_node11"><a xlink:href="../../d2/d40/class_cellular_automata.html#a3e303e691cc17b9a478a3e0e167a37e6" target="_top" xlink:title="CellularAutomata.getRandom\lDouble">
<polygon fill="white" stroke="black" points="108,-77 108,-107 266,-107 266,-77 108,-77"/>
<text text-anchor="start" x="116" y="-95" font-family="Helvetica,sans-Serif" font-size="10.00">CellularAutomata.getRandom</text>
<text text-anchor="middle" x="187" y="-84" font-family="Helvetica,sans-Serif" font-size="10.00">Double</text>
</a>
</g>
</g>
<!-- Node1&#45;&gt;Node11 -->
<g id="edge10" class="edge"><title>Node1&#45;&gt;Node11</title>
<path fill="none" stroke="midnightblue" d="M71.5581,-92C79.5761,-92 88.4703,-92 97.6556,-92"/>
<polygon fill="midnightblue" stroke="midnightblue" points="97.7092,-95.5001 107.709,-92 97.7091,-88.5001 97.7092,-95.5001"/>
</g>
<!-- Node12 -->
<g id="node12" class="node"><title>Node12</title>
<g id="a_node12"><a xlink:href="../../dd/d11/class_cell.html#aa625dbd39334a9a13a7bb87c98d5fcbe" target="_top" xlink:title="Cell.isState">
<polygon fill="white" stroke="black" points="151.5,-38.5 151.5,-57.5 222.5,-57.5 222.5,-38.5 151.5,-38.5"/>
<text text-anchor="middle" x="187" y="-45.5" font-family="Helvetica,sans-Serif" font-size="10.00">Cell.isState</text>
</a>
</g>
</g>
<!-- Node1&#45;&gt;Node12 -->
<g id="edge11" class="edge"><title>Node1&#45;&gt;Node12</title>
<path fill="none" stroke="midnightblue" d="M63.82,-82.4046C77.046,-77.8085 93.2808,-72.3681 108,-68 118.774,-64.8027 130.473,-61.6412 141.454,-58.8083"/>
<polygon fill="midnightblue" stroke="midnightblue" points="142.46,-62.1639 151.289,-56.3075 140.735,-55.3798 142.46,-62.1639"/>
</g>
<!-- Node13 -->
<g id="node13" class="node"><title>Node13</title>
<g id="a_node13"><a xlink:href="../../dd/d11/class_cell.html#a6ddc434a1826fac1599a7d901ff2d162" target="_top" xlink:title="Cell.setNextState">
<polygon fill="white" stroke="black" points="136.5,-0.5 136.5,-19.5 237.5,-19.5 237.5,-0.5 136.5,-0.5"/>
<text text-anchor="middle" x="187" y="-7.5" font-family="Helvetica,sans-Serif" font-size="10.00">Cell.setNextState</text>
</a>
</g>
</g>
<!-- Node1&#45;&gt;Node13 -->
<g id="edge12" class="edge"><title>Node1&#45;&gt;Node13</title>
<path fill="none" stroke="midnightblue" d="M45.1091,-82.2774C57.2958,-68.316 81.7215,-42.7595 108,-29 113.89,-25.9159 120.293,-23.3215 126.814,-21.1413"/>
<polygon fill="midnightblue" stroke="midnightblue" points="127.851,-24.4845 136.406,-18.2347 125.821,-17.7853 127.851,-24.4845"/>
</g>
<!-- Node3 -->
<g id="node3" class="node"><title>Node3</title>
<g id="a_node3"><a xlink:href="../../da/d74/class_grid.html#a43e84876ecfc5265a5e37a39e64e794e" target="_top" xlink:title="Grid.findNeighbors">
<polygon fill="white" stroke="black" points="318.5,-183.5 318.5,-202.5 423.5,-202.5 423.5,-183.5 318.5,-183.5"/>
<text text-anchor="middle" x="371" y="-190.5" font-family="Helvetica,sans-Serif" font-size="10.00">Grid.findNeighbors</text>
</a>
</g>
</g>
<!-- Node2&#45;&gt;Node3 -->
<g id="edge2" class="edge"><title>Node2&#45;&gt;Node3</title>
<path fill="none" stroke="midnightblue" d="M243.595,-179.804C264.078,-181.942 287.396,-184.376 308.379,-186.567"/>
<polygon fill="midnightblue" stroke="midnightblue" points="308.16,-190.063 318.47,-187.62 308.887,-183.101 308.16,-190.063"/>
</g>
<!-- Node9 -->
<g id="node9" class="node"><title>Node9</title>
<g id="a_node9"><a xlink:href="../../d2/d40/class_cellular_automata.html#a34ceed434c942d34ff03169b92684726" target="_top" xlink:title="CellularAutomata.getGrid">
<polygon fill="white" stroke="black" points="302,-145.5 302,-164.5 440,-164.5 440,-145.5 302,-145.5"/>
<text text-anchor="middle" x="371" y="-152.5" font-family="Helvetica,sans-Serif" font-size="10.00">CellularAutomata.getGrid</text>
</a>
</g>
</g>
<!-- Node2&#45;&gt;Node9 -->
<g id="edge8" class="edge"><title>Node2&#45;&gt;Node9</title>
<path fill="none" stroke="midnightblue" d="M243.595,-168.196C258.831,-166.606 275.636,-164.851 291.882,-163.155"/>
<polygon fill="midnightblue" stroke="midnightblue" points="292.324,-166.628 301.906,-162.109 291.597,-159.666 292.324,-166.628"/>
</g>
<!-- Node4 -->
<g id="node4" class="node"><title>Node4</title>
<g id="a_node4"><a xlink:href="../../da/d74/class_grid.html#a33b84a1d6b40a447bdd4a33fa3daf555" target="_top" xlink:title="Grid.getNeighbors">
<polygon fill="white" stroke="black" points="476,-183.5 476,-202.5 580,-202.5 580,-183.5 476,-183.5"/>
<text text-anchor="middle" x="528" y="-190.5" font-family="Helvetica,sans-Serif" font-size="10.00">Grid.getNeighbors</text>
</a>
</g>
</g>
<!-- Node3&#45;&gt;Node4 -->
<g id="edge3" class="edge"><title>Node3&#45;&gt;Node4</title>
<path fill="none" stroke="midnightblue" d="M423.613,-193C437.148,-193 451.873,-193 465.855,-193"/>
<polygon fill="midnightblue" stroke="midnightblue" points="465.876,-196.5 475.876,-193 465.876,-189.5 465.876,-196.5"/>
</g>
<!-- Node5 -->
<g id="node5" class="node"><title>Node5</title>
<g id="a_node5"><a xlink:href="../../dd/d11/class_cell.html#a4725094202cf38c727f2adcc3cf8b96f" target="_top" xlink:title="Cell.getPosX">
<polygon fill="white" stroke="black" points="630,-240.5 630,-259.5 706,-259.5 706,-240.5 630,-240.5"/>
<text text-anchor="middle" x="668" y="-247.5" font-family="Helvetica,sans-Serif" font-size="10.00">Cell.getPosX</text>
</a>
</g>
</g>
<!-- Node4&#45;&gt;Node5 -->
<g id="edge4" class="edge"><title>Node4&#45;&gt;Node5</title>
<path fill="none" stroke="midnightblue" d="M549.958,-202.542C567.495,-210.432 593.232,-221.795 616,-231 620.804,-232.942 625.891,-234.925 630.918,-236.84"/>
<polygon fill="midnightblue" stroke="midnightblue" points="629.831,-240.171 640.423,-240.415 632.295,-233.619 629.831,-240.171"/>
</g>
<!-- Node6 -->
<g id="node6" class="node"><title>Node6</title>
<g id="a_node6"><a xlink:href="../../dd/d11/class_cell.html#ac445ab365d1ec19483e98841be73d11e" target="_top" xlink:title="Cell.getPosY">
<polygon fill="white" stroke="black" points="630.5,-202.5 630.5,-221.5 705.5,-221.5 705.5,-202.5 630.5,-202.5"/>
<text text-anchor="middle" x="668" y="-209.5" font-family="Helvetica,sans-Serif" font-size="10.00">Cell.getPosY</text>
</a>
</g>
</g>
<!-- Node4&#45;&gt;Node6 -->
<g id="edge5" class="edge"><title>Node4&#45;&gt;Node6</title>
<path fill="none" stroke="midnightblue" d="M580.386,-200.075C593.447,-201.873 607.41,-203.796 620.228,-205.56"/>
<polygon fill="midnightblue" stroke="midnightblue" points="619.838,-209.04 630.222,-206.936 620.793,-202.105 619.838,-209.04"/>
</g>
<!-- Node7 -->
<g id="node7" class="node"><title>Node7</title>
<g id="a_node7"><a xlink:href="../../da/d74/class_grid.html#a669941947881f795a6ab4a70adf05172" target="_top" xlink:title="Grid.getTorusPoint">
<polygon fill="white" stroke="black" points="616,-164.5 616,-183.5 720,-183.5 720,-164.5 616,-164.5"/>
<text text-anchor="middle" x="668" y="-171.5" font-family="Helvetica,sans-Serif" font-size="10.00">Grid.getTorusPoint</text>
</a>
</g>
</g>
<!-- Node4&#45;&gt;Node7 -->
<g id="edge6" class="edge"><title>Node4&#45;&gt;Node7</title>
<path fill="none" stroke="midnightblue" d="M580.386,-185.925C588.558,-184.8 597.083,-183.626 605.46,-182.473"/>
<polygon fill="midnightblue" stroke="midnightblue" points="606.142,-185.912 615.571,-181.081 605.187,-178.978 606.142,-185.912"/>
</g>
<!-- Node8 -->
<g id="node8" class="node"><title>Node8</title>
<g id="a_node8"><a xlink:href="../../da/d74/class_grid.html#ab87098d7bfaf1eaf367e4342a5bce0ae" target="_top" xlink:title="Grid.checkBounds">
<polygon fill="white" stroke="black" points="616.5,-126.5 616.5,-145.5 719.5,-145.5 719.5,-126.5 616.5,-126.5"/>
<text text-anchor="middle" x="668" y="-133.5" font-family="Helvetica,sans-Serif" font-size="10.00">Grid.checkBounds</text>
</a>
</g>
</g>
<!-- Node4&#45;&gt;Node8 -->
<g id="edge7" class="edge"><title>Node4&#45;&gt;Node8</title>
<path fill="none" stroke="midnightblue" d="M549.958,-183.458C567.495,-175.568 593.232,-164.205 616,-155 620.804,-153.058 625.891,-151.075 630.918,-149.16"/>
<polygon fill="midnightblue" stroke="midnightblue" points="632.295,-152.381 640.423,-145.585 629.831,-145.829 632.295,-152.381"/>
</g>
</g>
</svg>
