<?xml version="1.0" encoding="UTF-8" standalone="no"?>
<!DOCTYPE svg PUBLIC "-//W3C//DTD SVG 1.1//EN"
 "http://www.w3.org/Graphics/SVG/1.1/DTD/svg11.dtd">
<!-- Generated by graphviz version 2.36.0 (20140111.2315)
 -->
<!-- Title: Fire.checkNextToFire Pages: 1 -->
<svg width="356pt" height="28pt"
 viewBox="0.00 0.00 356.00 28.00" xmlns="http://www.w3.org/2000/svg" xmlns:xlink="http://www.w3.org/1999/xlink">
<g id="graph0" class="graph" transform="scale(1 1) rotate(0) translate(4 24)">
<title>Fire.checkNextToFire</title>
<polygon fill="white" stroke="none" points="-4,4 -4,-24 352,-24 352,4 -4,4"/>
<!-- Node1 -->
<g id="node1" class="node"><title>Node1</title>
<polygon fill="#bfbfbf" stroke="black" points="0.5,-0.5 0.5,-19.5 113.5,-19.5 113.5,-0.5 0.5,-0.5"/>
<text text-anchor="middle" x="57" y="-7.5" font-family="Helvetica,sans-Serif" font-size="10.00">Fire.checkNextToFire</text>
</g>
<!-- Node2 -->
<g id="node2" class="node"><title>Node2</title>
<g id="a_node2"><a xlink:href="../../d9/df1/class_fire.html#accc21ae2162fd526d8ca66c472a62a28" target="_top" xlink:title="Fire.ruleTwo">
<polygon fill="white" stroke="black" points="150.5,-0.5 150.5,-19.5 221.5,-19.5 221.5,-0.5 150.5,-0.5"/>
<text text-anchor="middle" x="186" y="-7.5" font-family="Helvetica,sans-Serif" font-size="10.00">Fire.ruleTwo</text>
</a>
</g>
</g>
<!-- Node1&#45;&gt;Node2 -->
<g id="edge1" class="edge"><title>Node1&#45;&gt;Node2</title>
<path fill="none" stroke="midnightblue" d="M123.924,-10C132.986,-10 141.982,-10 150.172,-10"/>
<polygon fill="midnightblue" stroke="midnightblue" points="123.704,-6.5001 113.704,-10 123.704,-13.5001 123.704,-6.5001"/>
</g>
<!-- Node3 -->
<g id="node3" class="node"><title>Node3</title>
<g id="a_node3"><a xlink:href="../../d9/df1/class_fire.html#a28764fd7310f7be3a246f5eaefd8887c" target="_top" xlink:title="Fire.checkRules">
<polygon fill="white" stroke="black" points="258.5,-0.5 258.5,-19.5 347.5,-19.5 347.5,-0.5 258.5,-0.5"/>
<text text-anchor="middle" x="303" y="-7.5" font-family="Helvetica,sans-Serif" font-size="10.00">Fire.checkRules</text>
</a>
</g>
</g>
<!-- Node2&#45;&gt;Node3 -->
<g id="edge2" class="edge"><title>Node2&#45;&gt;Node3</title>
<path fill="none" stroke="midnightblue" d="M231.514,-10C240.251,-10 249.41,-10 258.126,-10"/>
<polygon fill="midnightblue" stroke="midnightblue" points="231.504,-6.5001 221.504,-10 231.504,-13.5001 231.504,-6.5001"/>
</g>
</g>
</svg>
