<?xml version="1.0" encoding="UTF-8" standalone="no"?>
<!DOCTYPE svg PUBLIC "-//W3C//DTD SVG 1.1//EN"
 "http://www.w3.org/Graphics/SVG/1.1/DTD/svg11.dtd">
<!-- Generated by graphviz version 2.36.0 (20140111.2315)
 -->
<!-- Title: Fire.applyRules Pages: 1 -->
<svg width="534pt" height="218pt"
 viewBox="0.00 0.00 534.00 218.00" xmlns="http://www.w3.org/2000/svg" xmlns:xlink="http://www.w3.org/1999/xlink">
<g id="graph0" class="graph" transform="scale(1 1) rotate(0) translate(4 214)">
<title>Fire.applyRules</title>
<polygon fill="white" stroke="none" points="-4,4 -4,-214 530,-214 530,4 -4,4"/>
<!-- Node1 -->
<g id="node1" class="node"><title>Node1</title>
<polygon fill="#bfbfbf" stroke="black" points="0,-152.5 0,-171.5 86,-171.5 86,-152.5 0,-152.5"/>
<text text-anchor="middle" x="43" y="-159.5" font-family="Helvetica,sans-Serif" font-size="10.00">Fire.applyRules</text>
</g>
<!-- Node2 -->
<g id="node2" class="node"><title>Node2</title>
<g id="a_node2"><a xlink:href="../../d2/d40/class_cellular_automata.html#a34ceed434c942d34ff03169b92684726" target="_top" xlink:title="CellularAutomata.getGrid">
<polygon fill="white" stroke="black" points="240,-190.5 240,-209.5 378,-209.5 378,-190.5 240,-190.5"/>
<text text-anchor="middle" x="309" y="-197.5" font-family="Helvetica,sans-Serif" font-size="10.00">CellularAutomata.getGrid</text>
</a>
</g>
</g>
<!-- Node1&#45;&gt;Node2 -->
<g id="edge1" class="edge"><title>Node1&#45;&gt;Node2</title>
<path fill="none" stroke="midnightblue" d="M78.7318,-171.541C92.1632,-174.946 107.715,-178.542 122,-181 157.079,-187.035 196.233,-191.386 229.535,-194.388"/>
<polygon fill="midnightblue" stroke="midnightblue" points="229.404,-197.89 239.671,-195.277 230.015,-190.917 229.404,-197.89"/>
</g>
<!-- Node3 -->
<g id="node3" class="node"><title>Node3</title>
<g id="a_node3"><a xlink:href="../../d9/df1/class_fire.html#a08de9a15877f76fa5bc6c8872559f79f" target="_top" xlink:title="Fire.ruleOne">
<polygon fill="white" stroke="black" points="122,-152.5 122,-171.5 196,-171.5 196,-152.5 122,-152.5"/>
<text text-anchor="middle" x="159" y="-159.5" font-family="Helvetica,sans-Serif" font-size="10.00">Fire.ruleOne</text>
</a>
</g>
</g>
<!-- Node1&#45;&gt;Node3 -->
<g id="edge2" class="edge"><title>Node1&#45;&gt;Node3</title>
<path fill="none" stroke="midnightblue" d="M86.1255,-162C94.4225,-162 103.172,-162 111.6,-162"/>
<polygon fill="midnightblue" stroke="midnightblue" points="111.67,-165.5 121.67,-162 111.67,-158.5 111.67,-165.5"/>
</g>
<!-- Node6 -->
<g id="node6" class="node"><title>Node6</title>
<g id="a_node6"><a xlink:href="../../d9/df1/class_fire.html#accc21ae2162fd526d8ca66c472a62a28" target="_top" xlink:title="Fire.ruleTwo">
<polygon fill="white" stroke="black" points="123.5,-114.5 123.5,-133.5 194.5,-133.5 194.5,-114.5 123.5,-114.5"/>
<text text-anchor="middle" x="159" y="-121.5" font-family="Helvetica,sans-Serif" font-size="10.00">Fire.ruleTwo</text>
</a>
</g>
</g>
<!-- Node1&#45;&gt;Node6 -->
<g id="edge5" class="edge"><title>Node1&#45;&gt;Node6</title>
<path fill="none" stroke="midnightblue" d="M72.767,-152.411C86.9433,-147.686 104.237,-141.921 119.532,-136.823"/>
<polygon fill="midnightblue" stroke="midnightblue" points="120.862,-140.069 129.242,-133.586 118.649,-133.428 120.862,-140.069"/>
</g>
<!-- Node4 -->
<g id="node4" class="node"><title>Node4</title>
<g id="a_node4"><a xlink:href="../../d2/d40/class_cellular_automata.html#a5f076a375459bb648b121e1b34b2ef17" target="_top" xlink:title="CellularAutomata.findState">
<polygon fill="white" stroke="black" points="236,-114.5 236,-133.5 382,-133.5 382,-114.5 236,-114.5"/>
<text text-anchor="middle" x="309" y="-121.5" font-family="Helvetica,sans-Serif" font-size="10.00">CellularAutomata.findState</text>
</a>
</g>
</g>
<!-- Node3&#45;&gt;Node4 -->
<g id="edge3" class="edge"><title>Node3&#45;&gt;Node4</title>
<path fill="none" stroke="midnightblue" d="M195.867,-152.437C207.396,-149.389 220.23,-146.024 232,-143 240.9,-140.713 250.396,-138.31 259.553,-136.012"/>
<polygon fill="midnightblue" stroke="midnightblue" points="260.461,-139.392 269.312,-133.569 258.762,-132.602 260.461,-139.392"/>
</g>
<!-- Node5 -->
<g id="node5" class="node"><title>Node5</title>
<g id="a_node5"><a xlink:href="../../d0/d8b/class_state.html#ad60b238c28b23c6e04c5d2be9b525b4c" target="_top" xlink:title="State.addToUpdate">
<polygon fill="white" stroke="black" points="254.5,-152.5 254.5,-171.5 363.5,-171.5 363.5,-152.5 254.5,-152.5"/>
<text text-anchor="middle" x="309" y="-159.5" font-family="Helvetica,sans-Serif" font-size="10.00">State.addToUpdate</text>
</a>
</g>
</g>
<!-- Node3&#45;&gt;Node5 -->
<g id="edge4" class="edge"><title>Node3&#45;&gt;Node5</title>
<path fill="none" stroke="midnightblue" d="M196.205,-162C210.662,-162 227.75,-162 244.159,-162"/>
<polygon fill="midnightblue" stroke="midnightblue" points="244.258,-165.5 254.258,-162 244.258,-158.5 244.258,-165.5"/>
</g>
<!-- Node6&#45;&gt;Node2 -->
<g id="edge7" class="edge"><title>Node6&#45;&gt;Node2</title>
<path fill="none" stroke="midnightblue" d="M180.887,-133.546C186.031,-136.289 191.383,-139.497 196,-143 214.534,-157.061 211.912,-169.265 232,-181 235.87,-183.261 240.003,-185.254 244.267,-187.012"/>
<polygon fill="midnightblue" stroke="midnightblue" points="243.166,-190.336 253.76,-190.495 245.578,-183.765 243.166,-190.336"/>
</g>
<!-- Node6&#45;&gt;Node4 -->
<g id="edge6" class="edge"><title>Node6&#45;&gt;Node4</title>
<path fill="none" stroke="midnightblue" d="M194.699,-124C204.184,-124 214.883,-124 225.823,-124"/>
<polygon fill="midnightblue" stroke="midnightblue" points="225.91,-127.5 235.909,-124 225.909,-120.5 225.91,-127.5"/>
</g>
<!-- Node6&#45;&gt;Node5 -->
<g id="edge13" class="edge"><title>Node6&#45;&gt;Node5</title>
<path fill="none" stroke="midnightblue" d="M194.767,-133.272C206.576,-136.396 219.854,-139.879 232,-143 240.9,-145.287 250.396,-147.69 259.553,-149.988"/>
<polygon fill="midnightblue" stroke="midnightblue" points="258.762,-153.398 269.312,-152.431 260.461,-146.608 258.762,-153.398"/>
</g>
<!-- Node7 -->
<g id="node7" class="node"><title>Node7</title>
<g id="a_node7"><a xlink:href="../../da/d74/class_grid.html#a33b84a1d6b40a447bdd4a33fa3daf555" target="_top" xlink:title="Grid.getNeighbors">
<polygon fill="white" stroke="black" points="257,-38.5 257,-57.5 361,-57.5 361,-38.5 257,-38.5"/>
<text text-anchor="middle" x="309" y="-45.5" font-family="Helvetica,sans-Serif" font-size="10.00">Grid.getNeighbors</text>
</a>
</g>
</g>
<!-- Node6&#45;&gt;Node7 -->
<g id="edge8" class="edge"><title>Node6&#45;&gt;Node7</title>
<path fill="none" stroke="midnightblue" d="M169.323,-114.409C182.234,-101.685 206.824,-79.3893 232,-67 236.881,-64.598 242.092,-62.4827 247.412,-60.6232"/>
<polygon fill="midnightblue" stroke="midnightblue" points="248.592,-63.9205 257.054,-57.5457 246.463,-57.2519 248.592,-63.9205"/>
</g>
<!-- Node11 -->
<g id="node11" class="node"><title>Node11</title>
<g id="a_node11"><a xlink:href="../../d2/d40/class_cellular_automata.html#aed4b2520936c215a49d97a1e0ff4a193" target="_top" xlink:title="CellularAutomata.getMyProb">
<polygon fill="white" stroke="black" points="232,-76.5 232,-95.5 386,-95.5 386,-76.5 232,-76.5"/>
<text text-anchor="middle" x="309" y="-83.5" font-family="Helvetica,sans-Serif" font-size="10.00">CellularAutomata.getMyProb</text>
</a>
</g>
</g>
<!-- Node6&#45;&gt;Node11 -->
<g id="edge12" class="edge"><title>Node6&#45;&gt;Node11</title>
<path fill="none" stroke="midnightblue" d="M194.767,-114.728C206.576,-111.604 219.854,-108.121 232,-105 240.9,-102.713 250.396,-100.31 259.553,-98.0115"/>
<polygon fill="midnightblue" stroke="midnightblue" points="260.461,-101.392 269.312,-95.5685 258.762,-94.6016 260.461,-101.392"/>
</g>
<!-- Node8 -->
<g id="node8" class="node"><title>Node8</title>
<g id="a_node8"><a xlink:href="../../dd/d11/class_cell.html#a4725094202cf38c727f2adcc3cf8b96f" target="_top" xlink:title="Cell.getPosX">
<polygon fill="white" stroke="black" points="436,-76.5 436,-95.5 512,-95.5 512,-76.5 436,-76.5"/>
<text text-anchor="middle" x="474" y="-83.5" font-family="Helvetica,sans-Serif" font-size="10.00">Cell.getPosX</text>
</a>
</g>
</g>
<!-- Node7&#45;&gt;Node8 -->
<g id="edge9" class="edge"><title>Node7&#45;&gt;Node8</title>
<path fill="none" stroke="midnightblue" d="M351.132,-57.589C373.908,-62.8988 402.311,-69.5205 425.966,-75.0351"/>
<polygon fill="midnightblue" stroke="midnightblue" points="425.25,-78.4618 435.783,-77.3237 426.839,-71.6446 425.25,-78.4618"/>
</g>
<!-- Node9 -->
<g id="node9" class="node"><title>Node9</title>
<g id="a_node9"><a xlink:href="../../dd/d11/class_cell.html#ac445ab365d1ec19483e98841be73d11e" target="_top" xlink:title="Cell.getPosY">
<polygon fill="white" stroke="black" points="436.5,-38.5 436.5,-57.5 511.5,-57.5 511.5,-38.5 436.5,-38.5"/>
<text text-anchor="middle" x="474" y="-45.5" font-family="Helvetica,sans-Serif" font-size="10.00">Cell.getPosY</text>
</a>
</g>
</g>
<!-- Node7&#45;&gt;Node9 -->
<g id="edge10" class="edge"><title>Node7&#45;&gt;Node9</title>
<path fill="none" stroke="midnightblue" d="M361.127,-48C381.878,-48 405.694,-48 426.005,-48"/>
<polygon fill="midnightblue" stroke="midnightblue" points="426.271,-51.5001 436.271,-48 426.271,-44.5001 426.271,-51.5001"/>
</g>
<!-- Node10 -->
<g id="node10" class="node"><title>Node10</title>
<g id="a_node10"><a xlink:href="../../da/d74/class_grid.html#ab87098d7bfaf1eaf367e4342a5bce0ae" target="_top" xlink:title="Grid.checkBounds">
<polygon fill="white" stroke="black" points="422.5,-0.5 422.5,-19.5 525.5,-19.5 525.5,-0.5 422.5,-0.5"/>
<text text-anchor="middle" x="474" y="-7.5" font-family="Helvetica,sans-Serif" font-size="10.00">Grid.checkBounds</text>
</a>
</g>
</g>
<!-- Node7&#45;&gt;Node10 -->
<g id="edge11" class="edge"><title>Node7&#45;&gt;Node10</title>
<path fill="none" stroke="midnightblue" d="M351.132,-38.411C372.738,-33.3739 399.409,-27.1562 422.286,-21.8229"/>
<polygon fill="midnightblue" stroke="midnightblue" points="423.22,-25.1991 432.164,-19.5201 421.63,-18.3819 423.22,-25.1991"/>
</g>
</g>
</svg>
