<?xml version="1.0" encoding="UTF-8" standalone="no"?>
<!DOCTYPE svg PUBLIC "-//W3C//DTD SVG 1.1//EN"
 "http://www.w3.org/Graphics/SVG/1.1/DTD/svg11.dtd">
<!-- Generated by graphviz version 2.36.0 (20140111.2315)
 -->
<!-- Title: Fire.checkNextToFire Pages: 1 -->
<svg width="576pt" height="142pt"
 viewBox="0.00 0.00 576.00 142.00" xmlns="http://www.w3.org/2000/svg" xmlns:xlink="http://www.w3.org/1999/xlink">
<g id="graph0" class="graph" transform="scale(1 1) rotate(0) translate(4 138)">
<title>Fire.checkNextToFire</title>
<polygon fill="white" stroke="none" points="-4,4 -4,-138 572,-138 572,4 -4,4"/>
<!-- Node1 -->
<g id="node1" class="node"><title>Node1</title>
<polygon fill="#bfbfbf" stroke="black" points="0.5,-38.5 0.5,-57.5 113.5,-57.5 113.5,-38.5 0.5,-38.5"/>
<text text-anchor="middle" x="57" y="-45.5" font-family="Helvetica,sans-Serif" font-size="10.00">Fire.checkNextToFire</text>
</g>
<!-- Node2 -->
<g id="node2" class="node"><title>Node2</title>
<g id="a_node2"><a xlink:href="../../da/d74/class_grid.html#a43e84876ecfc5265a5e37a39e64e794e" target="_top" xlink:title="Grid.findNeighbors">
<polygon fill="white" stroke="black" points="166.5,-57.5 166.5,-76.5 271.5,-76.5 271.5,-57.5 166.5,-57.5"/>
<text text-anchor="middle" x="219" y="-64.5" font-family="Helvetica,sans-Serif" font-size="10.00">Grid.findNeighbors</text>
</a>
</g>
</g>
<!-- Node1&#45;&gt;Node2 -->
<g id="edge1" class="edge"><title>Node1&#45;&gt;Node2</title>
<path fill="none" stroke="midnightblue" d="M113.511,-54.592C127.311,-56.2306 142.186,-57.9971 156.264,-59.6689"/>
<polygon fill="midnightblue" stroke="midnightblue" points="156.005,-63.1626 166.348,-60.8663 156.83,-56.2114 156.005,-63.1626"/>
</g>
<!-- Node8 -->
<g id="node8" class="node"><title>Node8</title>
<g id="a_node8"><a xlink:href="../../d2/d40/class_cellular_automata.html#a34ceed434c942d34ff03169b92684726" target="_top" xlink:title="CellularAutomata.getGrid">
<polygon fill="white" stroke="black" points="150,-19.5 150,-38.5 288,-38.5 288,-19.5 150,-19.5"/>
<text text-anchor="middle" x="219" y="-26.5" font-family="Helvetica,sans-Serif" font-size="10.00">CellularAutomata.getGrid</text>
</a>
</g>
</g>
<!-- Node1&#45;&gt;Node8 -->
<g id="edge7" class="edge"><title>Node1&#45;&gt;Node8</title>
<path fill="none" stroke="midnightblue" d="M113.511,-41.408C122.036,-40.3957 130.972,-39.3346 139.877,-38.2771"/>
<polygon fill="midnightblue" stroke="midnightblue" points="140.376,-41.7425 149.894,-37.0876 139.551,-34.7914 140.376,-41.7425"/>
</g>
<!-- Node3 -->
<g id="node3" class="node"><title>Node3</title>
<g id="a_node3"><a xlink:href="../../da/d74/class_grid.html#a33b84a1d6b40a447bdd4a33fa3daf555" target="_top" xlink:title="Grid.getNeighbors">
<polygon fill="white" stroke="black" points="324,-57.5 324,-76.5 428,-76.5 428,-57.5 324,-57.5"/>
<text text-anchor="middle" x="376" y="-64.5" font-family="Helvetica,sans-Serif" font-size="10.00">Grid.getNeighbors</text>
</a>
</g>
</g>
<!-- Node2&#45;&gt;Node3 -->
<g id="edge2" class="edge"><title>Node2&#45;&gt;Node3</title>
<path fill="none" stroke="midnightblue" d="M271.613,-67C285.148,-67 299.873,-67 313.855,-67"/>
<polygon fill="midnightblue" stroke="midnightblue" points="313.876,-70.5001 323.876,-67 313.876,-63.5001 313.876,-70.5001"/>
</g>
<!-- Node4 -->
<g id="node4" class="node"><title>Node4</title>
<g id="a_node4"><a xlink:href="../../dd/d11/class_cell.html#a4725094202cf38c727f2adcc3cf8b96f" target="_top" xlink:title="Cell.getPosX">
<polygon fill="white" stroke="black" points="478,-114.5 478,-133.5 554,-133.5 554,-114.5 478,-114.5"/>
<text text-anchor="middle" x="516" y="-121.5" font-family="Helvetica,sans-Serif" font-size="10.00">Cell.getPosX</text>
</a>
</g>
</g>
<!-- Node3&#45;&gt;Node4 -->
<g id="edge3" class="edge"><title>Node3&#45;&gt;Node4</title>
<path fill="none" stroke="midnightblue" d="M397.958,-76.5418C415.495,-84.4321 441.232,-95.7948 464,-105 468.804,-106.942 473.891,-108.925 478.918,-110.84"/>
<polygon fill="midnightblue" stroke="midnightblue" points="477.831,-114.171 488.423,-114.415 480.295,-107.619 477.831,-114.171"/>
</g>
<!-- Node5 -->
<g id="node5" class="node"><title>Node5</title>
<g id="a_node5"><a xlink:href="../../dd/d11/class_cell.html#ac445ab365d1ec19483e98841be73d11e" target="_top" xlink:title="Cell.getPosY">
<polygon fill="white" stroke="black" points="478.5,-76.5 478.5,-95.5 553.5,-95.5 553.5,-76.5 478.5,-76.5"/>
<text text-anchor="middle" x="516" y="-83.5" font-family="Helvetica,sans-Serif" font-size="10.00">Cell.getPosY</text>
</a>
</g>
</g>
<!-- Node3&#45;&gt;Node5 -->
<g id="edge4" class="edge"><title>Node3&#45;&gt;Node5</title>
<path fill="none" stroke="midnightblue" d="M428.386,-74.0749C441.447,-75.8731 455.41,-77.7956 468.228,-79.5603"/>
<polygon fill="midnightblue" stroke="midnightblue" points="467.838,-83.0397 478.222,-80.9364 468.793,-76.1051 467.838,-83.0397"/>
</g>
<!-- Node6 -->
<g id="node6" class="node"><title>Node6</title>
<g id="a_node6"><a xlink:href="../../da/d74/class_grid.html#a669941947881f795a6ab4a70adf05172" target="_top" xlink:title="Grid.getTorusPoint">
<polygon fill="white" stroke="black" points="464,-38.5 464,-57.5 568,-57.5 568,-38.5 464,-38.5"/>
<text text-anchor="middle" x="516" y="-45.5" font-family="Helvetica,sans-Serif" font-size="10.00">Grid.getTorusPoint</text>
</a>
</g>
</g>
<!-- Node3&#45;&gt;Node6 -->
<g id="edge5" class="edge"><title>Node3&#45;&gt;Node6</title>
<path fill="none" stroke="midnightblue" d="M428.386,-59.9251C436.558,-58.8 445.083,-57.6262 453.46,-56.4729"/>
<polygon fill="midnightblue" stroke="midnightblue" points="454.142,-59.9121 463.571,-55.0808 453.187,-52.9775 454.142,-59.9121"/>
</g>
<!-- Node7 -->
<g id="node7" class="node"><title>Node7</title>
<g id="a_node7"><a xlink:href="../../da/d74/class_grid.html#ab87098d7bfaf1eaf367e4342a5bce0ae" target="_top" xlink:title="Grid.checkBounds">
<polygon fill="white" stroke="black" points="464.5,-0.5 464.5,-19.5 567.5,-19.5 567.5,-0.5 464.5,-0.5"/>
<text text-anchor="middle" x="516" y="-7.5" font-family="Helvetica,sans-Serif" font-size="10.00">Grid.checkBounds</text>
</a>
</g>
</g>
<!-- Node3&#45;&gt;Node7 -->
<g id="edge6" class="edge"><title>Node3&#45;&gt;Node7</title>
<path fill="none" stroke="midnightblue" d="M397.958,-57.4582C415.495,-49.5679 441.232,-38.2052 464,-29 468.804,-27.0576 473.891,-25.0755 478.918,-23.1597"/>
<polygon fill="midnightblue" stroke="midnightblue" points="480.295,-26.3813 488.423,-19.5855 477.831,-19.8293 480.295,-26.3813"/>
</g>
</g>
</svg>
