<?xml version="1.0" encoding="UTF-8" standalone="no"?>
<!DOCTYPE svg PUBLIC "-//W3C//DTD SVG 1.1//EN"
 "http://www.w3.org/Graphics/SVG/1.1/DTD/svg11.dtd">
<!-- Generated by graphviz version 2.36.0 (20140111.2315)
 -->
<!-- Title: Fire.ruleOne Pages: 1 -->
<svg width="220pt" height="66pt"
 viewBox="0.00 0.00 220.00 66.00" xmlns="http://www.w3.org/2000/svg" xmlns:xlink="http://www.w3.org/1999/xlink">
<g id="graph0" class="graph" transform="scale(1 1) rotate(0) translate(4 62)">
<title>Fire.ruleOne</title>
<polygon fill="white" stroke="none" points="-4,4 -4,-62 216,-62 216,4 -4,4"/>
<!-- Node1 -->
<g id="node1" class="node"><title>Node1</title>
<polygon fill="#bfbfbf" stroke="black" points="0,-19.5 0,-38.5 74,-38.5 74,-19.5 0,-19.5"/>
<text text-anchor="middle" x="37" y="-26.5" font-family="Helvetica,sans-Serif" font-size="10.00">Fire.ruleOne</text>
</g>
<!-- Node2 -->
<g id="node2" class="node"><title>Node2</title>
<g id="a_node2"><a xlink:href="../../dd/d11/class_cell.html#aa625dbd39334a9a13a7bb87c98d5fcbe" target="_top" xlink:title="Cell.isState">
<polygon fill="white" stroke="black" points="125.5,-38.5 125.5,-57.5 196.5,-57.5 196.5,-38.5 125.5,-38.5"/>
<text text-anchor="middle" x="161" y="-45.5" font-family="Helvetica,sans-Serif" font-size="10.00">Cell.isState</text>
</a>
</g>
</g>
<!-- Node1&#45;&gt;Node2 -->
<g id="edge1" class="edge"><title>Node1&#45;&gt;Node2</title>
<path fill="none" stroke="midnightblue" d="M74.2737,-34.6492C87.1472,-36.6541 101.789,-38.9344 115.284,-41.036"/>
<polygon fill="midnightblue" stroke="midnightblue" points="114.912,-44.5202 125.332,-42.6008 115.989,-37.6036 114.912,-44.5202"/>
</g>
<!-- Node3 -->
<g id="node3" class="node"><title>Node3</title>
<g id="a_node3"><a xlink:href="../../dd/d11/class_cell.html#a6ddc434a1826fac1599a7d901ff2d162" target="_top" xlink:title="Cell.setNextState">
<polygon fill="white" stroke="black" points="110.5,-0.5 110.5,-19.5 211.5,-19.5 211.5,-0.5 110.5,-0.5"/>
<text text-anchor="middle" x="161" y="-7.5" font-family="Helvetica,sans-Serif" font-size="10.00">Cell.setNextState</text>
</a>
</g>
</g>
<!-- Node1&#45;&gt;Node3 -->
<g id="edge2" class="edge"><title>Node1&#45;&gt;Node3</title>
<path fill="none" stroke="midnightblue" d="M74.2737,-23.3508C82.439,-22.0792 91.3157,-20.6967 100.16,-19.3193"/>
<polygon fill="midnightblue" stroke="midnightblue" points="100.75,-22.7698 110.092,-17.7726 99.6724,-15.8532 100.75,-22.7698"/>
</g>
</g>
</svg>
