<?xml version="1.0" encoding="UTF-8" standalone="no"?>
<!DOCTYPE svg PUBLIC "-//W3C//DTD SVG 1.1//EN"
 "http://www.w3.org/Graphics/SVG/1.1/DTD/svg11.dtd">
<!-- Generated by graphviz version 2.36.0 (20140111.2315)
 -->
<!-- Title: Fire.ruleTwo Pages: 1 -->
<svg width="410pt" height="218pt"
 viewBox="0.00 0.00 410.00 218.00" xmlns="http://www.w3.org/2000/svg" xmlns:xlink="http://www.w3.org/1999/xlink">
<g id="graph0" class="graph" transform="scale(1 1) rotate(0) translate(4 214)">
<title>Fire.ruleTwo</title>
<polygon fill="white" stroke="none" points="-4,4 -4,-214 406,-214 406,4 -4,4"/>
<!-- Node1 -->
<g id="node1" class="node"><title>Node1</title>
<polygon fill="#bfbfbf" stroke="black" points="0.5,-114.5 0.5,-133.5 71.5,-133.5 71.5,-114.5 0.5,-114.5"/>
<text text-anchor="middle" x="36" y="-121.5" font-family="Helvetica,sans-Serif" font-size="10.00">Fire.ruleTwo</text>
</g>
<!-- Node2 -->
<g id="node2" class="node"><title>Node2</title>
<g id="a_node2"><a xlink:href="../../d0/d8b/class_state.html#ad60b238c28b23c6e04c5d2be9b525b4c" target="_top" xlink:title="State.addToUpdate">
<polygon fill="white" stroke="black" points="130.5,-190.5 130.5,-209.5 239.5,-209.5 239.5,-190.5 130.5,-190.5"/>
<text text-anchor="middle" x="185" y="-197.5" font-family="Helvetica,sans-Serif" font-size="10.00">State.addToUpdate</text>
</a>
</g>
</g>
<!-- Node1&#45;&gt;Node2 -->
<g id="edge1" class="edge"><title>Node1&#45;&gt;Node2</title>
<path fill="none" stroke="midnightblue" d="M46.1665,-133.597C58.8665,-146.328 83.0801,-168.631 108,-181 112.873,-183.419 118.079,-185.545 123.394,-187.412"/>
<polygon fill="midnightblue" stroke="midnightblue" points="122.441,-190.782 133.032,-190.499 124.576,-184.116 122.441,-190.782"/>
</g>
<!-- Node3 -->
<g id="node3" class="node"><title>Node3</title>
<g id="a_node3"><a xlink:href="../../d2/d40/class_cellular_automata.html#a5f076a375459bb648b121e1b34b2ef17" target="_top" xlink:title="CellularAutomata.findState">
<polygon fill="white" stroke="black" points="112,-152.5 112,-171.5 258,-171.5 258,-152.5 112,-152.5"/>
<text text-anchor="middle" x="185" y="-159.5" font-family="Helvetica,sans-Serif" font-size="10.00">CellularAutomata.findState</text>
</a>
</g>
</g>
<!-- Node1&#45;&gt;Node3 -->
<g id="edge2" class="edge"><title>Node1&#45;&gt;Node3</title>
<path fill="none" stroke="midnightblue" d="M71.6378,-133.392C83.1918,-136.492 96.1409,-139.931 108,-143 116.896,-145.302 126.39,-147.712 135.546,-150.014"/>
<polygon fill="midnightblue" stroke="midnightblue" points="134.755,-153.423 145.306,-152.457 136.455,-146.633 134.755,-153.423"/>
</g>
<!-- Node4 -->
<g id="node4" class="node"><title>Node4</title>
<g id="a_node4"><a xlink:href="../../d2/d40/class_cellular_automata.html#a34ceed434c942d34ff03169b92684726" target="_top" xlink:title="CellularAutomata.getGrid">
<polygon fill="white" stroke="black" points="116,-114.5 116,-133.5 254,-133.5 254,-114.5 116,-114.5"/>
<text text-anchor="middle" x="185" y="-121.5" font-family="Helvetica,sans-Serif" font-size="10.00">CellularAutomata.getGrid</text>
</a>
</g>
</g>
<!-- Node1&#45;&gt;Node4 -->
<g id="edge3" class="edge"><title>Node1&#45;&gt;Node4</title>
<path fill="none" stroke="midnightblue" d="M71.8369,-124C82.1844,-124 93.961,-124 105.9,-124"/>
<polygon fill="midnightblue" stroke="midnightblue" points="105.939,-127.5 115.939,-124 105.939,-120.5 105.939,-127.5"/>
</g>
<!-- Node5 -->
<g id="node5" class="node"><title>Node5</title>
<g id="a_node5"><a xlink:href="../../d2/d40/class_cellular_automata.html#aed4b2520936c215a49d97a1e0ff4a193" target="_top" xlink:title="CellularAutomata.getMyProb">
<polygon fill="white" stroke="black" points="108,-76.5 108,-95.5 262,-95.5 262,-76.5 108,-76.5"/>
<text text-anchor="middle" x="185" y="-83.5" font-family="Helvetica,sans-Serif" font-size="10.00">CellularAutomata.getMyProb</text>
</a>
</g>
</g>
<!-- Node1&#45;&gt;Node5 -->
<g id="edge4" class="edge"><title>Node1&#45;&gt;Node5</title>
<path fill="none" stroke="midnightblue" d="M71.6378,-114.608C83.1918,-111.508 96.1409,-108.069 108,-105 116.896,-102.698 126.39,-100.288 135.546,-97.9864"/>
<polygon fill="midnightblue" stroke="midnightblue" points="136.455,-101.367 145.306,-95.5426 134.755,-94.5766 136.455,-101.367"/>
</g>
<!-- Node6 -->
<g id="node6" class="node"><title>Node6</title>
<g id="a_node6"><a xlink:href="../../da/d74/class_grid.html#a33b84a1d6b40a447bdd4a33fa3daf555" target="_top" xlink:title="Grid.getNeighbors">
<polygon fill="white" stroke="black" points="133,-38.5 133,-57.5 237,-57.5 237,-38.5 133,-38.5"/>
<text text-anchor="middle" x="185" y="-45.5" font-family="Helvetica,sans-Serif" font-size="10.00">Grid.getNeighbors</text>
</a>
</g>
</g>
<!-- Node1&#45;&gt;Node6 -->
<g id="edge5" class="edge"><title>Node1&#45;&gt;Node6</title>
<path fill="none" stroke="midnightblue" d="M46.1665,-114.403C58.8665,-101.672 83.0801,-79.3688 108,-67 112.873,-64.5813 118.079,-62.4546 123.394,-60.5877"/>
<polygon fill="midnightblue" stroke="midnightblue" points="124.576,-63.8843 133.032,-57.5008 122.441,-57.2179 124.576,-63.8843"/>
</g>
<!-- Node7 -->
<g id="node7" class="node"><title>Node7</title>
<g id="a_node7"><a xlink:href="../../dd/d11/class_cell.html#a4725094202cf38c727f2adcc3cf8b96f" target="_top" xlink:title="Cell.getPosX">
<polygon fill="white" stroke="black" points="312,-76.5 312,-95.5 388,-95.5 388,-76.5 312,-76.5"/>
<text text-anchor="middle" x="350" y="-83.5" font-family="Helvetica,sans-Serif" font-size="10.00">Cell.getPosX</text>
</a>
</g>
</g>
<!-- Node6&#45;&gt;Node7 -->
<g id="edge6" class="edge"><title>Node6&#45;&gt;Node7</title>
<path fill="none" stroke="midnightblue" d="M227.132,-57.589C249.908,-62.8988 278.311,-69.5205 301.966,-75.0351"/>
<polygon fill="midnightblue" stroke="midnightblue" points="301.25,-78.4618 311.783,-77.3237 302.839,-71.6446 301.25,-78.4618"/>
</g>
<!-- Node8 -->
<g id="node8" class="node"><title>Node8</title>
<g id="a_node8"><a xlink:href="../../dd/d11/class_cell.html#ac445ab365d1ec19483e98841be73d11e" target="_top" xlink:title="Cell.getPosY">
<polygon fill="white" stroke="black" points="312.5,-38.5 312.5,-57.5 387.5,-57.5 387.5,-38.5 312.5,-38.5"/>
<text text-anchor="middle" x="350" y="-45.5" font-family="Helvetica,sans-Serif" font-size="10.00">Cell.getPosY</text>
</a>
</g>
</g>
<!-- Node6&#45;&gt;Node8 -->
<g id="edge7" class="edge"><title>Node6&#45;&gt;Node8</title>
<path fill="none" stroke="midnightblue" d="M237.127,-48C257.878,-48 281.694,-48 302.005,-48"/>
<polygon fill="midnightblue" stroke="midnightblue" points="302.271,-51.5001 312.271,-48 302.271,-44.5001 302.271,-51.5001"/>
</g>
<!-- Node9 -->
<g id="node9" class="node"><title>Node9</title>
<g id="a_node9"><a xlink:href="../../da/d74/class_grid.html#ab87098d7bfaf1eaf367e4342a5bce0ae" target="_top" xlink:title="Grid.checkBounds">
<polygon fill="white" stroke="black" points="298.5,-0.5 298.5,-19.5 401.5,-19.5 401.5,-0.5 298.5,-0.5"/>
<text text-anchor="middle" x="350" y="-7.5" font-family="Helvetica,sans-Serif" font-size="10.00">Grid.checkBounds</text>
</a>
</g>
</g>
<!-- Node6&#45;&gt;Node9 -->
<g id="edge8" class="edge"><title>Node6&#45;&gt;Node9</title>
<path fill="none" stroke="midnightblue" d="M227.132,-38.411C248.738,-33.3739 275.409,-27.1562 298.286,-21.8229"/>
<polygon fill="midnightblue" stroke="midnightblue" points="299.22,-25.1991 308.164,-19.5201 297.63,-18.3819 299.22,-25.1991"/>
</g>
</g>
</svg>
