<?xml version="1.0" encoding="UTF-8" standalone="no"?>
<!DOCTYPE svg PUBLIC "-//W3C//DTD SVG 1.1//EN"
 "http://www.w3.org/Graphics/SVG/1.1/DTD/svg11.dtd">
<!-- Generated by graphviz version 2.36.0 (20140111.2315)
 -->
<!-- Title: Fire.checkRules Pages: 1 -->
<!--zoomable 207 -->
<svg id="main" version="1.1" xmlns="http://www.w3.org/2000/svg" xmlns:xlink="http://www.w3.org/1999/xlink" xml:space="preserve" onload="init(evt)">
<style type="text/css"><![CDATA[
.edge:hover path { stroke: red; }
.edge:hover polygon { stroke: red; fill: red; }
]]></style>
<script type="text/javascript"><![CDATA[
var edges = document.getElementsByTagName('g');
if (edges && edges.length) {
  for (var i=0;i<edges.length;i++) {
    if (edges[i].id.substr(0,4)=='edge') {
      edges[i].setAttribute('class','edge');
    }
  }
}
]]></script>
        <defs>
                <circle id="rim" cx="0" cy="0" r="7"/>
                <circle id="rim2" cx="0" cy="0" r="3.5"/>
                <g id="zoomPlus">
                        <use xlink:href="#rim" fill="#404040">
                                <set attributeName="fill" to="#808080" begin="zoomplus.mouseover" end="zoomplus.mouseout"/>
                        </use>
                        <path d="M-4,0h8M0,-4v8" fill="none" stroke="white" stroke-width="1.5" pointer-events="none"/>
                </g>
                <g id="zoomMin">
                        <use xlink:href="#rim" fill="#404040">
                                <set attributeName="fill" to="#808080" begin="zoomminus.mouseover" end="zoomminus.mouseout"/>
                        </use>
                        <path d="M-4,0h8" fill="none" stroke="white" stroke-width="1.5" pointer-events="none"/>
                </g>
                <g id="dirArrow">
                        <path fill="none" stroke="white" stroke-width="1.5" d="M0,-3.0v7 M-2.5,-0.5L0,-3.0L2.5,-0.5"/>
                </g>
               <g id="resetDef">
                       <use xlink:href="#rim2" fill="#404040">
                               <set attributeName="fill" to="#808080" begin="reset.mouseover" end="reset.mouseout"/>
                       </use>
               </g>
        </defs>

<script type="text/javascript">
var viewWidth = 856;
var viewHeight = 207;
var sectionId = 'dynsection-5';
</script>
<script xlink:href="../../svgpan.js"/>
<svg id="graph" class="graph">
<g id="viewport">
<title>Fire.checkRules</title>
<polygon fill="white" stroke="none" points="-4,4 -4,-202.544 852,-202.544 852,4 -4,4"/>
<!-- Node1 -->
<g id="node1" class="node"><title>Node1</title>
<polygon fill="#bfbfbf" stroke="black" points="0.5,-145.5 0.5,-164.5 89.5,-164.5 89.5,-145.5 0.5,-145.5"/>
<text text-anchor="middle" x="45" y="-152.5" font-family="Helvetica,sans-Serif" font-size="10.00">Fire.checkRules</text>
</g>
<!-- Node2 -->
<g id="node2" class="node"><title>Node2</title>
<g id="a_node2"><a xlink:href="../../d2/d40/class_cellular_automata.html#a34ceed434c942d34ff03169b92684726" target="_top" xlink:title="CellularAutomata.getGrid">
<polygon fill="white" stroke="black" points="430,-164.5 430,-183.5 568,-183.5 568,-164.5 430,-164.5"/>
<text text-anchor="middle" x="499" y="-171.5" font-family="Helvetica,sans-Serif" font-size="10.00">CellularAutomata.getGrid</text>
</a>
</g>
</g>
<!-- Node1&#45;&gt;Node2 -->
<g id="edge1" class="edge"><title>Node1&#45;&gt;Node2</title>
<path fill="none" stroke="midnightblue" d="M84.1435,-164.57C97.3593,-167.749 112.295,-171.192 126,-174 242.98,-197.97 275.077,-203.774 394,-193 410.954,-191.464 429.275,-188.547 445.746,-185.451"/>
<polygon fill="midnightblue" stroke="midnightblue" points="446.585,-188.854 455.734,-183.511 445.25,-181.982 446.585,-188.854"/>
</g>
<!-- Node3 -->
<g id="node3" class="node"><title>Node3</title>
<g id="a_node3"><a xlink:href="../../d9/df1/class_fire.html#a08de9a15877f76fa5bc6c8872559f79f" target="_top" xlink:title="Fire.ruleOne">
<polygon fill="white" stroke="black" points="126,-145.5 126,-164.5 200,-164.5 200,-145.5 126,-145.5"/>
<text text-anchor="middle" x="163" y="-152.5" font-family="Helvetica,sans-Serif" font-size="10.00">Fire.ruleOne</text>
</a>
</g>
</g>
<!-- Node1&#45;&gt;Node3 -->
<g id="edge2" class="edge"><title>Node1&#45;&gt;Node3</title>
<path fill="none" stroke="midnightblue" d="M89.5241,-155C98.0252,-155 106.97,-155 115.561,-155"/>
<polygon fill="midnightblue" stroke="midnightblue" points="115.813,-158.5 125.812,-155 115.812,-151.5 115.813,-158.5"/>
</g>
<!-- Node6 -->
<g id="node6" class="node"><title>Node6</title>
<g id="a_node6"><a xlink:href="../../d9/df1/class_fire.html#accc21ae2162fd526d8ca66c472a62a28" target="_top" xlink:title="Fire.ruleTwo">
<polygon fill="white" stroke="black" points="127.5,-98.5 127.5,-117.5 198.5,-117.5 198.5,-98.5 127.5,-98.5"/>
<text text-anchor="middle" x="163" y="-105.5" font-family="Helvetica,sans-Serif" font-size="10.00">Fire.ruleTwo</text>
</a>
</g>
</g>
<!-- Node1&#45;&gt;Node6 -->
<g id="edge5" class="edge"><title>Node1&#45;&gt;Node6</title>
<path fill="none" stroke="midnightblue" d="M69.4743,-145.489C86.4997,-138.591 109.765,-129.164 128.707,-121.489"/>
<polygon fill="midnightblue" stroke="midnightblue" points="130.209,-124.657 138.162,-117.658 127.58,-118.17 130.209,-124.657"/>
</g>
<!-- Node4 -->
<g id="node4" class="node"><title>Node4</title>
<g id="a_node4"><a xlink:href="../../dd/d11/class_cell.html#aa625dbd39334a9a13a7bb87c98d5fcbe" target="_top" xlink:title="Cell.isState">
<polygon fill="white" stroke="black" points="279.5,-164.5 279.5,-183.5 350.5,-183.5 350.5,-164.5 279.5,-164.5"/>
<text text-anchor="middle" x="315" y="-171.5" font-family="Helvetica,sans-Serif" font-size="10.00">Cell.isState</text>
</a>
</g>
</g>
<!-- Node3&#45;&gt;Node4 -->
<g id="edge3" class="edge"><title>Node3&#45;&gt;Node4</title>
<path fill="none" stroke="midnightblue" d="M200.311,-159.599C221.044,-162.226 247.21,-165.54 269.212,-168.327"/>
<polygon fill="midnightblue" stroke="midnightblue" points="268.953,-171.822 279.313,-169.606 269.832,-164.877 268.953,-171.822"/>
</g>
<!-- Node5 -->
<g id="node5" class="node"><title>Node5</title>
<g id="a_node5"><a xlink:href="../../dd/d11/class_cell.html#a6ddc434a1826fac1599a7d901ff2d162" target="_top" xlink:title="Cell.setNextState">
<polygon fill="white" stroke="black" points="264.5,-126.5 264.5,-145.5 365.5,-145.5 365.5,-126.5 264.5,-126.5"/>
<text text-anchor="middle" x="315" y="-133.5" font-family="Helvetica,sans-Serif" font-size="10.00">Cell.setNextState</text>
</a>
</g>
</g>
<!-- Node3&#45;&gt;Node5 -->
<g id="edge4" class="edge"><title>Node3&#45;&gt;Node5</title>
<path fill="none" stroke="midnightblue" d="M200.311,-150.401C216.552,-148.343 236.126,-145.864 254.42,-143.547"/>
<polygon fill="midnightblue" stroke="midnightblue" points="254.942,-147.009 264.423,-142.28 254.063,-140.064 254.942,-147.009"/>
</g>
<!-- Node6&#45;&gt;Node4 -->
<g id="edge6" class="edge"><title>Node6&#45;&gt;Node4</title>
<path fill="none" stroke="midnightblue" d="M175.761,-117.5C189.454,-128.112 213.124,-145.094 236,-155 246.478,-159.537 258.237,-163.116 269.385,-165.885"/>
<polygon fill="midnightblue" stroke="midnightblue" points="268.865,-169.357 279.397,-168.205 270.445,-162.538 268.865,-169.357"/>
</g>
<!-- Node6&#45;&gt;Node5 -->
<g id="edge17" class="edge"><title>Node6&#45;&gt;Node5</title>
<path fill="none" stroke="midnightblue" d="M198.79,-114.494C215.296,-117.575 235.492,-121.345 254.338,-124.863"/>
<polygon fill="midnightblue" stroke="midnightblue" points="253.866,-128.335 264.339,-126.73 255.151,-121.454 253.866,-128.335"/>
</g>
<!-- Node7 -->
<g id="node7" class="node"><title>Node7</title>
<g id="a_node7"><a xlink:href="../../d9/df1/class_fire.html#a65c7d316a113807e7bdf626a789e2bf5" target="_top" xlink:title="Fire.checkNextToFire">
<polygon fill="white" stroke="black" points="258.5,-88.5 258.5,-107.5 371.5,-107.5 371.5,-88.5 258.5,-88.5"/>
<text text-anchor="middle" x="315" y="-95.5" font-family="Helvetica,sans-Serif" font-size="10.00">Fire.checkNextToFire</text>
</a>
</g>
</g>
<!-- Node6&#45;&gt;Node7 -->
<g id="edge7" class="edge"><title>Node6&#45;&gt;Node7</title>
<path fill="none" stroke="midnightblue" d="M198.79,-105.681C213.411,-104.706 230.926,-103.538 247.834,-102.411"/>
<polygon fill="midnightblue" stroke="midnightblue" points="248.507,-105.874 258.252,-101.717 248.041,-98.8896 248.507,-105.874"/>
</g>
<!-- Node14 -->
<g id="node14" class="node"><title>Node14</title>
<g id="a_node14"><a xlink:href="../../d2/d40/class_cellular_automata.html#a3e303e691cc17b9a478a3e0e167a37e6" target="_top" xlink:title="CellularAutomata.getRandom\lDouble">
<polygon fill="white" stroke="black" points="236,-39 236,-69 394,-69 394,-39 236,-39"/>
<text text-anchor="start" x="244" y="-57" font-family="Helvetica,sans-Serif" font-size="10.00">CellularAutomata.getRandom</text>
<text text-anchor="middle" x="315" y="-46" font-family="Helvetica,sans-Serif" font-size="10.00">Double</text>
</a>
</g>
</g>
<!-- Node6&#45;&gt;Node14 -->
<g id="edge15" class="edge"><title>Node6&#45;&gt;Node14</title>
<path fill="none" stroke="midnightblue" d="M186.537,-98.4319C200.65,-92.563 219.269,-85.0415 236,-79 242.29,-76.7285 248.902,-74.4478 255.505,-72.2381"/>
<polygon fill="midnightblue" stroke="midnightblue" points="256.734,-75.5181 265.134,-69.0605 254.54,-68.8707 256.734,-75.5181"/>
</g>
<!-- Node15 -->
<g id="node15" class="node"><title>Node15</title>
<g id="a_node15"><a xlink:href="../../d2/d40/class_cellular_automata.html#aed4b2520936c215a49d97a1e0ff4a193" target="_top" xlink:title="CellularAutomata.getMyProb">
<polygon fill="white" stroke="black" points="238,-0.5 238,-19.5 392,-19.5 392,-0.5 238,-0.5"/>
<text text-anchor="middle" x="315" y="-7.5" font-family="Helvetica,sans-Serif" font-size="10.00">CellularAutomata.getMyProb</text>
</a>
</g>
</g>
<!-- Node6&#45;&gt;Node15 -->
<g id="edge16" class="edge"><title>Node6&#45;&gt;Node15</title>
<path fill="none" stroke="midnightblue" d="M170.015,-98.2752C180.966,-81.4247 205.834,-46.8914 236,-29 239.709,-26.8004 243.66,-24.8549 247.742,-23.1343"/>
<polygon fill="midnightblue" stroke="midnightblue" points="249.301,-26.2881 257.448,-19.5138 246.855,-19.7295 249.301,-26.2881"/>
</g>
<!-- Node7&#45;&gt;Node2 -->
<g id="edge14" class="edge"><title>Node7&#45;&gt;Node2</title>
<path fill="none" stroke="midnightblue" d="M364.049,-107.604C374.096,-110.193 384.515,-113.319 394,-117 423.13,-128.304 454.271,-146.236 474.801,-158.966"/>
<polygon fill="midnightblue" stroke="midnightblue" points="473.115,-162.041 483.442,-164.407 476.845,-156.117 473.115,-162.041"/>
</g>
<!-- Node8 -->
<g id="node8" class="node"><title>Node8</title>
<g id="a_node8"><a xlink:href="../../da/d74/class_grid.html#a43e84876ecfc5265a5e37a39e64e794e" target="_top" xlink:title="Grid.findNeighbors">
<polygon fill="white" stroke="black" points="446.5,-88.5 446.5,-107.5 551.5,-107.5 551.5,-88.5 446.5,-88.5"/>
<text text-anchor="middle" x="499" y="-95.5" font-family="Helvetica,sans-Serif" font-size="10.00">Grid.findNeighbors</text>
</a>
</g>
</g>
<!-- Node7&#45;&gt;Node8 -->
<g id="edge8" class="edge"><title>Node7&#45;&gt;Node8</title>
<path fill="none" stroke="midnightblue" d="M371.595,-98C392.078,-98 415.396,-98 436.379,-98"/>
<polygon fill="midnightblue" stroke="midnightblue" points="436.47,-101.5 446.47,-98 436.47,-94.5001 436.47,-101.5"/>
</g>
<!-- Node9 -->
<g id="node9" class="node"><title>Node9</title>
<g id="a_node9"><a xlink:href="../../da/d74/class_grid.html#a33b84a1d6b40a447bdd4a33fa3daf555" target="_top" xlink:title="Grid.getNeighbors">
<polygon fill="white" stroke="black" points="604,-88.5 604,-107.5 708,-107.5 708,-88.5 604,-88.5"/>
<text text-anchor="middle" x="656" y="-95.5" font-family="Helvetica,sans-Serif" font-size="10.00">Grid.getNeighbors</text>
</a>
</g>
</g>
<!-- Node8&#45;&gt;Node9 -->
<g id="edge9" class="edge"><title>Node8&#45;&gt;Node9</title>
<path fill="none" stroke="midnightblue" d="M551.613,-98C565.148,-98 579.873,-98 593.855,-98"/>
<polygon fill="midnightblue" stroke="midnightblue" points="593.876,-101.5 603.876,-98 593.876,-94.5001 593.876,-101.5"/>
</g>
<!-- Node10 -->
<g id="node10" class="node"><title>Node10</title>
<g id="a_node10"><a xlink:href="../../dd/d11/class_cell.html#a4725094202cf38c727f2adcc3cf8b96f" target="_top" xlink:title="Cell.getPosX">
<polygon fill="white" stroke="black" points="758,-145.5 758,-164.5 834,-164.5 834,-145.5 758,-145.5"/>
<text text-anchor="middle" x="796" y="-152.5" font-family="Helvetica,sans-Serif" font-size="10.00">Cell.getPosX</text>
</a>
</g>
</g>
<!-- Node9&#45;&gt;Node10 -->
<g id="edge10" class="edge"><title>Node9&#45;&gt;Node10</title>
<path fill="none" stroke="midnightblue" d="M677.958,-107.542C695.495,-115.432 721.232,-126.795 744,-136 748.804,-137.942 753.891,-139.925 758.918,-141.84"/>
<polygon fill="midnightblue" stroke="midnightblue" points="757.831,-145.171 768.423,-145.415 760.295,-138.619 757.831,-145.171"/>
</g>
<!-- Node11 -->
<g id="node11" class="node"><title>Node11</title>
<g id="a_node11"><a xlink:href="../../dd/d11/class_cell.html#ac445ab365d1ec19483e98841be73d11e" target="_top" xlink:title="Cell.getPosY">
<polygon fill="white" stroke="black" points="758.5,-107.5 758.5,-126.5 833.5,-126.5 833.5,-107.5 758.5,-107.5"/>
<text text-anchor="middle" x="796" y="-114.5" font-family="Helvetica,sans-Serif" font-size="10.00">Cell.getPosY</text>
</a>
</g>
</g>
<!-- Node9&#45;&gt;Node11 -->
<g id="edge11" class="edge"><title>Node9&#45;&gt;Node11</title>
<path fill="none" stroke="midnightblue" d="M708.386,-105.075C721.447,-106.873 735.41,-108.796 748.228,-110.56"/>
<polygon fill="midnightblue" stroke="midnightblue" points="747.838,-114.04 758.222,-111.936 748.793,-107.105 747.838,-114.04"/>
</g>
<!-- Node12 -->
<g id="node12" class="node"><title>Node12</title>
<g id="a_node12"><a xlink:href="../../da/d74/class_grid.html#a669941947881f795a6ab4a70adf05172" target="_top" xlink:title="Grid.getTorusPoint">
<polygon fill="white" stroke="black" points="744,-69.5 744,-88.5 848,-88.5 848,-69.5 744,-69.5"/>
<text text-anchor="middle" x="796" y="-76.5" font-family="Helvetica,sans-Serif" font-size="10.00">Grid.getTorusPoint</text>
</a>
</g>
</g>
<!-- Node9&#45;&gt;Node12 -->
<g id="edge12" class="edge"><title>Node9&#45;&gt;Node12</title>
<path fill="none" stroke="midnightblue" d="M708.386,-90.9251C716.558,-89.8 725.083,-88.6262 733.46,-87.4729"/>
<polygon fill="midnightblue" stroke="midnightblue" points="734.142,-90.9121 743.571,-86.0808 733.187,-83.9775 734.142,-90.9121"/>
</g>
<!-- Node13 -->
<g id="node13" class="node"><title>Node13</title>
<g id="a_node13"><a xlink:href="../../da/d74/class_grid.html#ab87098d7bfaf1eaf367e4342a5bce0ae" target="_top" xlink:title="Grid.checkBounds">
<polygon fill="white" stroke="black" points="744.5,-31.5 744.5,-50.5 847.5,-50.5 847.5,-31.5 744.5,-31.5"/>
<text text-anchor="middle" x="796" y="-38.5" font-family="Helvetica,sans-Serif" font-size="10.00">Grid.checkBounds</text>
</a>
</g>
</g>
<!-- Node9&#45;&gt;Node13 -->
<g id="edge13" class="edge"><title>Node9&#45;&gt;Node13</title>
<path fill="none" stroke="midnightblue" d="M677.958,-88.4582C695.495,-80.5679 721.232,-69.2052 744,-60 748.804,-58.0576 753.891,-56.0755 758.918,-54.1597"/>
<polygon fill="midnightblue" stroke="midnightblue" points="760.295,-57.3813 768.423,-50.5855 757.831,-50.8293 760.295,-57.3813"/>
</g>
</g>
</svg>
        <g id="navigator" transform="translate(0 0)" fill="#404254">
                <rect fill="#f2f5e9" fill-opacity="0.5" stroke="#606060" stroke-width=".5" x="0" y="0" width="60" height="60"/>
                <use id="zoomplus" xlink:href="#zoomPlus" x="17" y="9" onmousedown="handleZoom(evt,'in')"/>
                <use id="zoomminus" xlink:href="#zoomMin" x="42" y="9" onmousedown="handleZoom(evt,'out')"/>
                <use id="reset" xlink:href="#resetDef" x="30" y="36" onmousedown="handleReset()"/>
                <g id="arrowUp" xlink:href="#dirArrow" transform="translate(30 24)" onmousedown="handlePan(0,-1)">
                  <use xlink:href="#rim" fill="#404040">
                        <set attributeName="fill" to="#808080" begin="arrowUp.mouseover" end="arrowUp.mouseout"/>
                  </use>
                  <path fill="none" stroke="white" stroke-width="1.5" d="M0,-3.0v7 M-2.5,-0.5L0,-3.0L2.5,-0.5"/>
                </g>
                <g id="arrowRight" xlink:href="#dirArrow" transform="rotate(90) translate(36 -43)" onmousedown="handlePan(1,0)">
                  <use xlink:href="#rim" fill="#404040">
                        <set attributeName="fill" to="#808080" begin="arrowRight.mouseover" end="arrowRight.mouseout"/>
                  </use>
                  <path fill="none" stroke="white" stroke-width="1.5" d="M0,-3.0v7 M-2.5,-0.5L0,-3.0L2.5,-0.5"/>
                </g>
                <g id="arrowDown" xlink:href="#dirArrow" transform="rotate(180) translate(-30 -48)" onmousedown="handlePan(0,1)">
                  <use xlink:href="#rim" fill="#404040">
                        <set attributeName="fill" to="#808080" begin="arrowDown.mouseover" end="arrowDown.mouseout"/>
                  </use>
                  <path fill="none" stroke="white" stroke-width="1.5" d="M0,-3.0v7 M-2.5,-0.5L0,-3.0L2.5,-0.5"/>
                </g>
                <g id="arrowLeft" xlink:href="#dirArrow" transform="rotate(270) translate(-36 17)" onmousedown="handlePan(-1,0)">
                  <use xlink:href="#rim" fill="#404040">
                        <set attributeName="fill" to="#808080" begin="arrowLeft.mouseover" end="arrowLeft.mouseout"/>
                  </use>
                  <path fill="none" stroke="white" stroke-width="1.5" d="M0,-3.0v7 M-2.5,-0.5L0,-3.0L2.5,-0.5"/>
                </g>
        </g>
        <svg viewBox="0 0 15 15" width="100%" height="30px" preserveAspectRatio="xMaxYMin meet">
         <g id="arrow_out" transform="scale(0.3 0.3)">
          <a xlink:href="class_fire_a28764fd7310f7be3a246f5eaefd8887c_cgraph_org.svg" target="_base">
           <rect id="button" ry="5" rx="5" y="6" x="6" height="38" width="38"
                fill="#f2f5e9" fill-opacity="0.5" stroke="#606060" stroke-width="1.0"/>
           <path id="arrow"
             d="M 11.500037,31.436501 C 11.940474,20.09759 22.043105,11.32322 32.158766,21.979434 L 37.068811,17.246167 C 37.068811,17.246167 37.088388,32 37.088388,32 L 22.160133,31.978069 C 22.160133,31.978069 26.997745,27.140456 26.997745,27.140456 C 18.528582,18.264221 13.291696,25.230495 11.500037,31.436501 z"
             style="fill:#404040;"/>
          </a>
         </g>
        </svg>
</svg>
