<?xml version="1.0" encoding="UTF-8" standalone="no"?>
<!DOCTYPE svg PUBLIC "-//W3C//DTD SVG 1.1//EN"
 "http://www.w3.org/Graphics/SVG/1.1/DTD/svg11.dtd">
<!-- Generated by graphviz version 2.36.0 (20140111.2315)
 -->
<!-- Title: Fire.checkNextToFire Pages: 1 -->
<svg width="248pt" height="66pt"
 viewBox="0.00 0.00 248.00 66.00" xmlns="http://www.w3.org/2000/svg" xmlns:xlink="http://www.w3.org/1999/xlink">
<g id="graph0" class="graph" transform="scale(1 1) rotate(0) translate(4 62)">
<title>Fire.checkNextToFire</title>
<polygon fill="white" stroke="none" points="-4,4 -4,-62 244,-62 244,4 -4,4"/>
<!-- Node1 -->
<g id="node1" class="node"><title>Node1</title>
<polygon fill="#bfbfbf" stroke="black" points="0.5,-19.5 0.5,-38.5 113.5,-38.5 113.5,-19.5 0.5,-19.5"/>
<text text-anchor="middle" x="57" y="-26.5" font-family="Helvetica,sans-Serif" font-size="10.00">Fire.checkNextToFire</text>
</g>
<!-- Node2 -->
<g id="node2" class="node"><title>Node2</title>
<g id="a_node2"><a xlink:href="../../d9/df1/class_fire.html#a9848867ebe2faddb27dfd0994cb565a8" target="_top" xlink:title="Fire.checkRules">
<polygon fill="white" stroke="black" points="150.5,-38.5 150.5,-57.5 239.5,-57.5 239.5,-38.5 150.5,-38.5"/>
<text text-anchor="middle" x="195" y="-45.5" font-family="Helvetica,sans-Serif" font-size="10.00">Fire.checkRules</text>
</a>
</g>
</g>
<!-- Node1&#45;&gt;Node2 -->
<g id="edge1" class="edge"><title>Node1&#45;&gt;Node2</title>
<path fill="none" stroke="midnightblue" d="M123.786,-38.1908C132.761,-39.4446 141.788,-40.7056 150.239,-41.8864"/>
<polygon fill="midnightblue" stroke="midnightblue" points="124.097,-34.7002 113.709,-36.7828 123.128,-41.6329 124.097,-34.7002"/>
</g>
<!-- Node3 -->
<g id="node3" class="node"><title>Node3</title>
<g id="a_node3"><a xlink:href="../../d9/df1/class_fire.html#accc21ae2162fd526d8ca66c472a62a28" target="_top" xlink:title="Fire.ruleTwo">
<polygon fill="white" stroke="black" points="159.5,-0.5 159.5,-19.5 230.5,-19.5 230.5,-0.5 159.5,-0.5"/>
<text text-anchor="middle" x="195" y="-7.5" font-family="Helvetica,sans-Serif" font-size="10.00">Fire.ruleTwo</text>
</a>
</g>
</g>
<!-- Node1&#45;&gt;Node3 -->
<g id="edge2" class="edge"><title>Node1&#45;&gt;Node3</title>
<path fill="none" stroke="midnightblue" d="M123.909,-19.7922C136.117,-18.0865 148.416,-16.3683 159.229,-14.8577"/>
<polygon fill="midnightblue" stroke="midnightblue" points="123.128,-16.3671 113.709,-21.2172 124.097,-23.2998 123.128,-16.3671"/>
</g>
</g>
</svg>
