<?xml version="1.0" encoding="UTF-8" standalone="no"?>
<!DOCTYPE svg PUBLIC "-//W3C//DTD SVG 1.1//EN"
 "http://www.w3.org/Graphics/SVG/1.1/DTD/svg11.dtd">
<!-- Generated by graphviz version 2.36.0 (20140111.2315)
 -->
<!-- Title: Fire.init Pages: 1 -->
<!--zoomable 560 -->
<svg id="main" version="1.1" xmlns="http://www.w3.org/2000/svg" xmlns:xlink="http://www.w3.org/1999/xlink" xml:space="preserve" onload="init(evt)">
<style type="text/css"><![CDATA[
.edge:hover path { stroke: red; }
.edge:hover polygon { stroke: red; fill: red; }
]]></style>
<script type="text/javascript"><![CDATA[
var edges = document.getElementsByTagName('g');
if (edges && edges.length) {
  for (var i=0;i<edges.length;i++) {
    if (edges[i].id.substr(0,4)=='edge') {
      edges[i].setAttribute('class','edge');
    }
  }
}
]]></script>
        <defs>
                <circle id="rim" cx="0" cy="0" r="7"/>
                <circle id="rim2" cx="0" cy="0" r="3.5"/>
                <g id="zoomPlus">
                        <use xlink:href="#rim" fill="#404040">
                                <set attributeName="fill" to="#808080" begin="zoomplus.mouseover" end="zoomplus.mouseout"/>
                        </use>
                        <path d="M-4,0h8M0,-4v8" fill="none" stroke="white" stroke-width="1.5" pointer-events="none"/>
                </g>
                <g id="zoomMin">
                        <use xlink:href="#rim" fill="#404040">
                                <set attributeName="fill" to="#808080" begin="zoomminus.mouseover" end="zoomminus.mouseout"/>
                        </use>
                        <path d="M-4,0h8" fill="none" stroke="white" stroke-width="1.5" pointer-events="none"/>
                </g>
                <g id="dirArrow">
                        <path fill="none" stroke="white" stroke-width="1.5" d="M0,-3.0v7 M-2.5,-0.5L0,-3.0L2.5,-0.5"/>
                </g>
               <g id="resetDef">
                       <use xlink:href="#rim2" fill="#404040">
                               <set attributeName="fill" to="#808080" begin="reset.mouseover" end="reset.mouseout"/>
                       </use>
               </g>
        </defs>

<script type="text/javascript">
var viewWidth = 682;
var viewHeight = 560;
var sectionId = 'dynsection-5';
</script>
<script xlink:href="../../svgpan.js"/>
<svg id="graph" class="graph">
<g id="viewport">
<title>Fire.init</title>
<polygon fill="white" stroke="none" points="-4,4 -4,-556 678,-556 678,4 -4,4"/>
<!-- Node1 -->
<g id="node1" class="node"><title>Node1</title>
<polygon fill="#bfbfbf" stroke="black" points="0,-304.5 0,-323.5 50,-323.5 50,-304.5 0,-304.5"/>
<text text-anchor="middle" x="25" y="-311.5" font-family="Helvetica,sans-Serif" font-size="10.00">Fire.init</text>
</g>
<!-- Node2 -->
<g id="node2" class="node"><title>Node2</title>
<g id="a_node2"><a xlink:href="../../d2/d40/class_cellular_automata.html#a481c4ee65b3655268cd493266240df9f" target="_top" xlink:title="CellularAutomata.addState">
<polygon fill="white" stroke="black" points="112.5,-532.5 112.5,-551.5 259.5,-551.5 259.5,-532.5 112.5,-532.5"/>
<text text-anchor="middle" x="186" y="-539.5" font-family="Helvetica,sans-Serif" font-size="10.00">CellularAutomata.addState</text>
</a>
</g>
</g>
<!-- Node1&#45;&gt;Node2 -->
<g id="edge1" class="edge"><title>Node1&#45;&gt;Node2</title>
<path fill="none" stroke="midnightblue" d="M25.5282,-323.684C24.4752,-357.02 25.808,-467.993 86,-523 91.0344,-527.601 96.8301,-531.241 103.039,-534.107"/>
<polygon fill="midnightblue" stroke="midnightblue" points="101.802,-537.381 112.39,-537.773 104.357,-530.864 101.802,-537.381"/>
</g>
<!-- Node3 -->
<g id="node3" class="node"><title>Node3</title>
<g id="a_node3"><a xlink:href="../../d2/d40/class_cellular_automata.html#a22a4b50568f0687dd7e9655a6fff5d98" target="_top" xlink:title="CellularAutomata.fastForward">
<polygon fill="white" stroke="black" points="107,-494.5 107,-513.5 265,-513.5 265,-494.5 107,-494.5"/>
<text text-anchor="middle" x="186" y="-501.5" font-family="Helvetica,sans-Serif" font-size="10.00">CellularAutomata.fastForward</text>
</a>
</g>
</g>
<!-- Node1&#45;&gt;Node3 -->
<g id="edge2" class="edge"><title>Node1&#45;&gt;Node3</title>
<path fill="none" stroke="midnightblue" d="M26.231,-323.558C27.487,-352.759 35.482,-441.448 86,-485 89.5251,-488.039 93.3862,-490.652 97.4753,-492.894"/>
<polygon fill="midnightblue" stroke="midnightblue" points="96.2088,-496.165 106.75,-497.232 99.1746,-489.824 96.2088,-496.165"/>
</g>
<!-- Node4 -->
<g id="node4" class="node"><title>Node4</title>
<g id="a_node4"><a xlink:href="../../d2/d40/class_cellular_automata.html#a4096ce546f10f896798de1854954c17f" target="_top" xlink:title="CellularAutomata.getMyNeighborhood">
<polygon fill="white" stroke="black" points="86,-456.5 86,-475.5 286,-475.5 286,-456.5 86,-456.5"/>
<text text-anchor="middle" x="186" y="-463.5" font-family="Helvetica,sans-Serif" font-size="10.00">CellularAutomata.getMyNeighborhood</text>
</a>
</g>
</g>
<!-- Node1&#45;&gt;Node4 -->
<g id="edge3" class="edge"><title>Node1&#45;&gt;Node4</title>
<path fill="none" stroke="midnightblue" d="M27.2853,-323.538C31.1501,-348.249 45.0437,-414.665 86,-447 88.1033,-448.661 90.3093,-450.191 92.598,-451.599"/>
<polygon fill="midnightblue" stroke="midnightblue" points="91.317,-454.881 101.794,-456.455 94.5851,-448.691 91.317,-454.881"/>
</g>
<!-- Node5 -->
<g id="node5" class="node"><title>Node5</title>
<g id="a_node5"><a xlink:href="../../d2/d40/class_cellular_automata.html#aaaee982f056673de042f006342b3ca4e" target="_top" xlink:title="CellularAutomata.getMyRoot">
<polygon fill="white" stroke="black" points="109.5,-418.5 109.5,-437.5 262.5,-437.5 262.5,-418.5 109.5,-418.5"/>
<text text-anchor="middle" x="186" y="-425.5" font-family="Helvetica,sans-Serif" font-size="10.00">CellularAutomata.getMyRoot</text>
</a>
</g>
</g>
<!-- Node1&#45;&gt;Node5 -->
<g id="edge4" class="edge"><title>Node1&#45;&gt;Node5</title>
<path fill="none" stroke="midnightblue" d="M29.1373,-323.659C36.0226,-343.215 54.4128,-387.457 86,-409 90.3173,-411.944 94.9743,-414.46 99.833,-416.608"/>
<polygon fill="midnightblue" stroke="midnightblue" points="98.7997,-419.961 109.389,-420.299 101.322,-413.431 98.7997,-419.961"/>
</g>
<!-- Node6 -->
<g id="node6" class="node"><title>Node6</title>
<g id="a_node6"><a xlink:href="../../d2/d40/class_cellular_automata.html#ae2ba791d42429e2da1c8e0a77f736564" target="_top" xlink:title="CellularAutomata.pause">
<polygon fill="white" stroke="black" points="120,-380.5 120,-399.5 252,-399.5 252,-380.5 120,-380.5"/>
<text text-anchor="middle" x="186" y="-387.5" font-family="Helvetica,sans-Serif" font-size="10.00">CellularAutomata.pause</text>
</a>
</g>
</g>
<!-- Node1&#45;&gt;Node6 -->
<g id="edge5" class="edge"><title>Node1&#45;&gt;Node6</title>
<path fill="none" stroke="midnightblue" d="M33.3267,-323.834C43.5834,-336.835 63.5085,-359.442 86,-371 93.4961,-374.852 101.675,-377.927 110.015,-380.381"/>
<polygon fill="midnightblue" stroke="midnightblue" points="109.285,-383.809 119.848,-382.987 111.078,-377.042 109.285,-383.809"/>
</g>
<!-- Node7 -->
<g id="node7" class="node"><title>Node7</title>
<g id="a_node7"><a xlink:href="../../d2/d40/class_cellular_automata.html#aaf8b4fc15e1867382ec3adba79a33134" target="_top" xlink:title="CellularAutomata.play">
<polygon fill="white" stroke="black" points="125,-342.5 125,-361.5 247,-361.5 247,-342.5 125,-342.5"/>
<text text-anchor="middle" x="186" y="-349.5" font-family="Helvetica,sans-Serif" font-size="10.00">CellularAutomata.play</text>
</a>
</g>
</g>
<!-- Node1&#45;&gt;Node7 -->
<g id="edge6" class="edge"><title>Node1&#45;&gt;Node7</title>
<path fill="none" stroke="midnightblue" d="M50.0456,-322.324C60.9383,-325.91 74.0313,-329.968 86,-333 96.6509,-335.699 108.032,-338.216 119.144,-340.48"/>
<polygon fill="midnightblue" stroke="midnightblue" points="118.755,-343.97 129.245,-342.484 120.118,-337.104 118.755,-343.97"/>
</g>
<!-- Node8 -->
<g id="node8" class="node"><title>Node8</title>
<g id="a_node8"><a xlink:href="../../d2/d40/class_cellular_automata.html#acc80bdcdc382dd988842751759475f55" target="_top" xlink:title="CellularAutomata.setGrid">
<polygon fill="white" stroke="black" points="117.5,-304.5 117.5,-323.5 254.5,-323.5 254.5,-304.5 117.5,-304.5"/>
<text text-anchor="middle" x="186" y="-311.5" font-family="Helvetica,sans-Serif" font-size="10.00">CellularAutomata.setGrid</text>
</a>
</g>
</g>
<!-- Node1&#45;&gt;Node8 -->
<g id="edge7" class="edge"><title>Node1&#45;&gt;Node8</title>
<path fill="none" stroke="midnightblue" d="M50.1487,-314C65.5282,-314 86.3942,-314 107.114,-314"/>
<polygon fill="midnightblue" stroke="midnightblue" points="107.249,-317.5 117.249,-314 107.249,-310.5 107.249,-317.5"/>
</g>
<!-- Node9 -->
<g id="node9" class="node"><title>Node9</title>
<g id="a_node9"><a xlink:href="../../d2/d40/class_cellular_automata.html#ab9686869eb29148c6f02ba3711048d00" target="_top" xlink:title="CellularAutomata.setMyRoot">
<polygon fill="white" stroke="black" points="110,-266.5 110,-285.5 262,-285.5 262,-266.5 110,-266.5"/>
<text text-anchor="middle" x="186" y="-273.5" font-family="Helvetica,sans-Serif" font-size="10.00">CellularAutomata.setMyRoot</text>
</a>
</g>
</g>
<!-- Node1&#45;&gt;Node9 -->
<g id="edge8" class="edge"><title>Node1&#45;&gt;Node9</title>
<path fill="none" stroke="midnightblue" d="M50.0456,-305.676C60.9383,-302.09 74.0313,-298.032 86,-295 96.6509,-292.301 108.032,-289.784 119.144,-287.52"/>
<polygon fill="midnightblue" stroke="midnightblue" points="120.118,-290.896 129.245,-285.516 118.755,-284.03 120.118,-290.896"/>
</g>
<!-- Node10 -->
<g id="node10" class="node"><title>Node10</title>
<g id="a_node10"><a xlink:href="../../d2/d40/class_cellular_automata.html#aa0941a5026e2376a46a0f95a395802ad" target="_top" xlink:title="CellularAutomata.setMyStates">
<polygon fill="white" stroke="black" points="104.5,-228.5 104.5,-247.5 267.5,-247.5 267.5,-228.5 104.5,-228.5"/>
<text text-anchor="middle" x="186" y="-235.5" font-family="Helvetica,sans-Serif" font-size="10.00">CellularAutomata.setMyStates</text>
</a>
</g>
</g>
<!-- Node1&#45;&gt;Node10 -->
<g id="edge9" class="edge"><title>Node1&#45;&gt;Node10</title>
<path fill="none" stroke="midnightblue" d="M33.3267,-304.166C43.5834,-291.165 63.5085,-268.558 86,-257 90.6005,-254.636 95.4583,-252.564 100.453,-250.749"/>
<polygon fill="midnightblue" stroke="midnightblue" points="101.776,-253.999 110.194,-247.566 99.6011,-247.346 101.776,-253.999"/>
</g>
<!-- Node11 -->
<g id="node11" class="node"><title>Node11</title>
<g id="a_node11"><a xlink:href="../../d2/d40/class_cellular_automata.html#a370902617418e6a2569aedf79ed47e7a" target="_top" xlink:title="CellularAutomata.setName">
<polygon fill="white" stroke="black" points="112.5,-190.5 112.5,-209.5 259.5,-209.5 259.5,-190.5 112.5,-190.5"/>
<text text-anchor="middle" x="186" y="-197.5" font-family="Helvetica,sans-Serif" font-size="10.00">CellularAutomata.setName</text>
</a>
</g>
</g>
<!-- Node1&#45;&gt;Node11 -->
<g id="edge10" class="edge"><title>Node1&#45;&gt;Node11</title>
<path fill="none" stroke="midnightblue" d="M29.1373,-304.341C36.0226,-284.785 54.4128,-240.543 86,-219 91.2187,-215.441 96.9338,-212.508 102.902,-210.095"/>
<polygon fill="midnightblue" stroke="midnightblue" points="104.192,-213.351 112.452,-206.716 101.858,-206.751 104.192,-213.351"/>
</g>
<!-- Node12 -->
<g id="node12" class="node"><title>Node12</title>
<g id="a_node12"><a xlink:href="../../d9/df1/class_fire.html#afd16418c5ea360c815613862a4ea1c33" target="_top" xlink:title="Fire.setUpInitialConfig">
<polygon fill="white" stroke="black" points="126.5,-152.5 126.5,-171.5 245.5,-171.5 245.5,-152.5 126.5,-152.5"/>
<text text-anchor="middle" x="186" y="-159.5" font-family="Helvetica,sans-Serif" font-size="10.00">Fire.setUpInitialConfig</text>
</a>
</g>
</g>
<!-- Node1&#45;&gt;Node12 -->
<g id="edge11" class="edge"><title>Node1&#45;&gt;Node12</title>
<path fill="none" stroke="midnightblue" d="M27.2853,-304.462C31.1501,-279.751 45.0437,-213.335 86,-181 94.8711,-173.996 105.567,-169.317 116.602,-166.235"/>
<polygon fill="midnightblue" stroke="midnightblue" points="117.429,-169.636 126.35,-163.92 115.812,-162.826 117.429,-169.636"/>
</g>
<!-- Node20 -->
<g id="node20" class="node"><title>Node20</title>
<g id="a_node20"><a xlink:href="../../d2/d40/class_cellular_automata.html#af000daf839415ffbbd6b857977d50261" target="_top" xlink:title="CellularAutomata.slowDown">
<polygon fill="white" stroke="black" points="111.5,-114.5 111.5,-133.5 260.5,-133.5 260.5,-114.5 111.5,-114.5"/>
<text text-anchor="middle" x="186" y="-121.5" font-family="Helvetica,sans-Serif" font-size="10.00">CellularAutomata.slowDown</text>
</a>
</g>
</g>
<!-- Node1&#45;&gt;Node20 -->
<g id="edge19" class="edge"><title>Node1&#45;&gt;Node20</title>
<path fill="none" stroke="midnightblue" d="M26.231,-304.442C27.487,-275.241 35.482,-186.552 86,-143 90.8278,-138.838 96.2859,-135.476 102.097,-132.77"/>
<polygon fill="midnightblue" stroke="midnightblue" points="103.482,-135.986 111.48,-129.037 100.894,-129.481 103.482,-135.986"/>
</g>
<!-- Node21 -->
<g id="node21" class="node"><title>Node21</title>
<g id="a_node21"><a xlink:href="../../d2/d40/class_cellular_automata.html#a68732247a66b6d9f32eb8fcfda70bda2" target="_top" xlink:title="CellularAutomata.stepForward">
<polygon fill="white" stroke="black" points="105.5,-57.5 105.5,-76.5 266.5,-76.5 266.5,-57.5 105.5,-57.5"/>
<text text-anchor="middle" x="186" y="-64.5" font-family="Helvetica,sans-Serif" font-size="10.00">CellularAutomata.stepForward</text>
</a>
</g>
</g>
<!-- Node1&#45;&gt;Node21 -->
<g id="edge20" class="edge"><title>Node1&#45;&gt;Node21</title>
<path fill="none" stroke="midnightblue" d="M25.9039,-304.239C26.1128,-271.58 31.157,-164.831 86,-105 96.5108,-93.5333 110.868,-85.4963 125.387,-79.8742"/>
<polygon fill="midnightblue" stroke="midnightblue" points="126.645,-83.1419 134.913,-76.5166 124.318,-76.54 126.645,-83.1419"/>
</g>
<!-- Node13 -->
<g id="node13" class="node"><title>Node13</title>
<g id="a_node13"><a xlink:href="../../d2/d40/class_cellular_automata.html#a34ceed434c942d34ff03169b92684726" target="_top" xlink:title="CellularAutomata.getGrid">
<polygon fill="white" stroke="black" points="326,-266.5 326,-285.5 464,-285.5 464,-266.5 326,-266.5"/>
<text text-anchor="middle" x="395" y="-273.5" font-family="Helvetica,sans-Serif" font-size="10.00">CellularAutomata.getGrid</text>
</a>
</g>
</g>
<!-- Node12&#45;&gt;Node13 -->
<g id="edge12" class="edge"><title>Node12&#45;&gt;Node13</title>
<path fill="none" stroke="midnightblue" d="M245.536,-164.066C259.898,-166.919 274.447,-172.052 286,-181 315.549,-203.887 293.251,-233.116 322,-257 324.045,-258.699 326.226,-260.247 328.507,-261.658"/>
<polygon fill="midnightblue" stroke="midnightblue" points="327.247,-264.948 337.735,-266.45 330.473,-258.735 327.247,-264.948"/>
</g>
<!-- Node14 -->
<g id="node14" class="node"><title>Node14</title>
<g id="a_node14"><a xlink:href="../../da/d74/class_grid.html#aba1e1b4dba7072955cad21806ef1c753" target="_top" xlink:title="Grid.getCells">
<polygon fill="white" stroke="black" points="356.5,-228.5 356.5,-247.5 433.5,-247.5 433.5,-228.5 356.5,-228.5"/>
<text text-anchor="middle" x="395" y="-235.5" font-family="Helvetica,sans-Serif" font-size="10.00">Grid.getCells</text>
</a>
</g>
</g>
<!-- Node12&#45;&gt;Node14 -->
<g id="edge13" class="edge"><title>Node12&#45;&gt;Node14</title>
<path fill="none" stroke="midnightblue" d="M245.626,-167.058C259.447,-169.898 273.72,-174.275 286,-181 306.405,-192.174 301.989,-207.135 322,-219 329.433,-223.407 337.893,-226.809 346.337,-229.428"/>
<polygon fill="midnightblue" stroke="midnightblue" points="345.609,-232.858 356.18,-232.159 347.48,-226.113 345.609,-232.858"/>
</g>
<!-- Node15 -->
<g id="node15" class="node"><title>Node15</title>
<g id="a_node15"><a xlink:href="../../da/d74/class_grid.html#a2f2ccb1511e367a7d6e9bcb3f708cd38" target="_top" xlink:title="Grid.getCellAt">
<polygon fill="white" stroke="black" points="353.5,-190.5 353.5,-209.5 436.5,-209.5 436.5,-190.5 353.5,-190.5"/>
<text text-anchor="middle" x="395" y="-197.5" font-family="Helvetica,sans-Serif" font-size="10.00">Grid.getCellAt</text>
</a>
</g>
</g>
<!-- Node12&#45;&gt;Node15 -->
<g id="edge14" class="edge"><title>Node12&#45;&gt;Node15</title>
<path fill="none" stroke="midnightblue" d="M238.968,-171.54C270.955,-177.412 311.759,-184.903 343.476,-190.725"/>
<polygon fill="midnightblue" stroke="midnightblue" points="342.964,-194.189 353.431,-192.553 344.228,-187.304 342.964,-194.189"/>
</g>
<!-- Node16 -->
<g id="node16" class="node"><title>Node16</title>
<g id="a_node16"><a xlink:href="../../d2/d40/class_cellular_automata.html#a5f076a375459bb648b121e1b34b2ef17" target="_top" xlink:title="CellularAutomata.findState">
<polygon fill="white" stroke="black" points="322,-152.5 322,-171.5 468,-171.5 468,-152.5 322,-152.5"/>
<text text-anchor="middle" x="395" y="-159.5" font-family="Helvetica,sans-Serif" font-size="10.00">CellularAutomata.findState</text>
</a>
</g>
</g>
<!-- Node12&#45;&gt;Node16 -->
<g id="edge15" class="edge"><title>Node12&#45;&gt;Node16</title>
<path fill="none" stroke="midnightblue" d="M245.764,-162C266.288,-162 289.717,-162 311.795,-162"/>
<polygon fill="midnightblue" stroke="midnightblue" points="311.829,-165.5 321.828,-162 311.828,-158.5 311.829,-165.5"/>
</g>
<!-- Node17 -->
<g id="node17" class="node"><title>Node17</title>
<g id="a_node17"><a xlink:href="../../d0/d8b/class_state.html#ad60b238c28b23c6e04c5d2be9b525b4c" target="_top" xlink:title="State.addToUpdate">
<polygon fill="white" stroke="black" points="340.5,-114.5 340.5,-133.5 449.5,-133.5 449.5,-114.5 340.5,-114.5"/>
<text text-anchor="middle" x="395" y="-121.5" font-family="Helvetica,sans-Serif" font-size="10.00">State.addToUpdate</text>
</a>
</g>
</g>
<!-- Node12&#45;&gt;Node17 -->
<g id="edge16" class="edge"><title>Node12&#45;&gt;Node17</title>
<path fill="none" stroke="midnightblue" d="M238.968,-152.46C267.266,-147.265 302.464,-140.804 332.167,-135.351"/>
<polygon fill="midnightblue" stroke="midnightblue" points="332.807,-138.792 342.011,-133.544 331.543,-131.907 332.807,-138.792"/>
</g>
<!-- Node18 -->
<g id="node18" class="node"><title>Node18</title>
<g id="a_node18"><a xlink:href="../../d9/df1/class_fire.html#aa8c0ca014747cf0c47e1e19e354a2675" target="_top" xlink:title="Fire.handleUpdate">
<polygon fill="white" stroke="black" points="343,-76.5 343,-95.5 447,-95.5 447,-76.5 343,-76.5"/>
<text text-anchor="middle" x="395" y="-83.5" font-family="Helvetica,sans-Serif" font-size="10.00">Fire.handleUpdate</text>
</a>
</g>
</g>
<!-- Node12&#45;&gt;Node18 -->
<g id="edge17" class="edge"><title>Node12&#45;&gt;Node18</title>
<path fill="none" stroke="midnightblue" d="M245.626,-156.942C259.447,-154.102 273.72,-149.725 286,-143 306.405,-131.826 301.989,-116.865 322,-105 325.69,-102.812 329.634,-100.872 333.703,-99.1519"/>
<polygon fill="midnightblue" stroke="midnightblue" points="335.233,-102.316 343.366,-95.5265 332.774,-95.7625 335.233,-102.316"/>
</g>
<!-- Node19 -->
<g id="node19" class="node"><title>Node19</title>
<g id="a_node19"><a xlink:href="../../d2/d40/class_cellular_automata.html#a30b0063e34ebf6ee66b68acd1b86d5da" target="_top" xlink:title="CellularAutomata.getMyStates">
<polygon fill="white" stroke="black" points="507,-76.5 507,-95.5 671,-95.5 671,-76.5 507,-76.5"/>
<text text-anchor="middle" x="589" y="-83.5" font-family="Helvetica,sans-Serif" font-size="10.00">CellularAutomata.getMyStates</text>
</a>
</g>
</g>
<!-- Node18&#45;&gt;Node19 -->
<g id="edge18" class="edge"><title>Node18&#45;&gt;Node19</title>
<path fill="none" stroke="midnightblue" d="M447.2,-86C462.523,-86 479.808,-86 496.886,-86"/>
<polygon fill="midnightblue" stroke="midnightblue" points="496.901,-89.5001 506.901,-86 496.901,-82.5001 496.901,-89.5001"/>
</g>
<!-- Node22 -->
<g id="node22" class="node"><title>Node22</title>
<g id="a_node22"><a xlink:href="../../d2/d40/class_cellular_automata.html#ae8ef63af0ee6db6d22b32ce6b586e3cd" target="_top" xlink:title="CellularAutomata.update">
<polygon fill="white" stroke="black" points="326.5,-38.5 326.5,-57.5 463.5,-57.5 463.5,-38.5 326.5,-38.5"/>
<text text-anchor="middle" x="395" y="-45.5" font-family="Helvetica,sans-Serif" font-size="10.00">CellularAutomata.update</text>
</a>
</g>
</g>
<!-- Node21&#45;&gt;Node22 -->
<g id="edge21" class="edge"><title>Node21&#45;&gt;Node22</title>
<path fill="none" stroke="midnightblue" d="M266.736,-59.6813C283.052,-58.1836 300.202,-56.6095 316.441,-55.1189"/>
<polygon fill="midnightblue" stroke="midnightblue" points="316.781,-58.6026 326.419,-54.2031 316.141,-51.6319 316.781,-58.6026"/>
</g>
<!-- Node23 -->
<g id="node23" class="node"><title>Node23</title>
<g id="a_node23"><a xlink:href="../../d2/d40/class_cellular_automata.html#a378c64d09ace5a17d91052387801c2e8" target="_top" xlink:title="CellularAutomata.applyRules">
<polygon fill="white" stroke="black" points="512.5,-38.5 512.5,-57.5 665.5,-57.5 665.5,-38.5 512.5,-38.5"/>
<text text-anchor="middle" x="589" y="-45.5" font-family="Helvetica,sans-Serif" font-size="10.00">CellularAutomata.applyRules</text>
</a>
</g>
</g>
<!-- Node22&#45;&gt;Node23 -->
<g id="edge22" class="edge"><title>Node22&#45;&gt;Node23</title>
<path fill="none" stroke="midnightblue" d="M463.692,-48C476.13,-48 489.264,-48 502.151,-48"/>
<polygon fill="midnightblue" stroke="midnightblue" points="502.416,-51.5001 512.416,-48 502.416,-44.5001 502.416,-51.5001"/>
</g>
<!-- Node24 -->
<g id="node24" class="node"><title>Node24</title>
<g id="a_node24"><a xlink:href="../../d2/d40/class_cellular_automata.html#ad611b3b173c822a7d0a0ca5f7a0e48c4" target="_top" xlink:title="CellularAutomata.handleUpdate">
<polygon fill="white" stroke="black" points="504,-0.5 504,-19.5 674,-19.5 674,-0.5 504,-0.5"/>
<text text-anchor="middle" x="589" y="-7.5" font-family="Helvetica,sans-Serif" font-size="10.00">CellularAutomata.handleUpdate</text>
</a>
</g>
</g>
<!-- Node22&#45;&gt;Node24 -->
<g id="edge23" class="edge"><title>Node22&#45;&gt;Node24</title>
<path fill="none" stroke="midnightblue" d="M444.45,-38.411C470.471,-33.261 502.728,-26.8768 530.069,-21.4656"/>
<polygon fill="midnightblue" stroke="midnightblue" points="530.769,-24.895 539.899,-19.5201 529.409,-18.0282 530.769,-24.895"/>
</g>
</g>
</svg>
        <g id="navigator" transform="translate(0 0)" fill="#404254">
                <rect fill="#f2f5e9" fill-opacity="0.5" stroke="#606060" stroke-width=".5" x="0" y="0" width="60" height="60"/>
                <use id="zoomplus" xlink:href="#zoomPlus" x="17" y="9" onmousedown="handleZoom(evt,'in')"/>
                <use id="zoomminus" xlink:href="#zoomMin" x="42" y="9" onmousedown="handleZoom(evt,'out')"/>
                <use id="reset" xlink:href="#resetDef" x="30" y="36" onmousedown="handleReset()"/>
                <g id="arrowUp" xlink:href="#dirArrow" transform="translate(30 24)" onmousedown="handlePan(0,-1)">
                  <use xlink:href="#rim" fill="#404040">
                        <set attributeName="fill" to="#808080" begin="arrowUp.mouseover" end="arrowUp.mouseout"/>
                  </use>
                  <path fill="none" stroke="white" stroke-width="1.5" d="M0,-3.0v7 M-2.5,-0.5L0,-3.0L2.5,-0.5"/>
                </g>
                <g id="arrowRight" xlink:href="#dirArrow" transform="rotate(90) translate(36 -43)" onmousedown="handlePan(1,0)">
                  <use xlink:href="#rim" fill="#404040">
                        <set attributeName="fill" to="#808080" begin="arrowRight.mouseover" end="arrowRight.mouseout"/>
                  </use>
                  <path fill="none" stroke="white" stroke-width="1.5" d="M0,-3.0v7 M-2.5,-0.5L0,-3.0L2.5,-0.5"/>
                </g>
                <g id="arrowDown" xlink:href="#dirArrow" transform="rotate(180) translate(-30 -48)" onmousedown="handlePan(0,1)">
                  <use xlink:href="#rim" fill="#404040">
                        <set attributeName="fill" to="#808080" begin="arrowDown.mouseover" end="arrowDown.mouseout"/>
                  </use>
                  <path fill="none" stroke="white" stroke-width="1.5" d="M0,-3.0v7 M-2.5,-0.5L0,-3.0L2.5,-0.5"/>
                </g>
                <g id="arrowLeft" xlink:href="#dirArrow" transform="rotate(270) translate(-36 17)" onmousedown="handlePan(-1,0)">
                  <use xlink:href="#rim" fill="#404040">
                        <set attributeName="fill" to="#808080" begin="arrowLeft.mouseover" end="arrowLeft.mouseout"/>
                  </use>
                  <path fill="none" stroke="white" stroke-width="1.5" d="M0,-3.0v7 M-2.5,-0.5L0,-3.0L2.5,-0.5"/>
                </g>
        </g>
        <svg viewBox="0 0 15 15" width="100%" height="30px" preserveAspectRatio="xMaxYMin meet">
         <g id="arrow_out" transform="scale(0.3 0.3)">
          <a xlink:href="class_fire_a22e1b892843e691d4e6e3fcf8e6a893a_cgraph_org.svg" target="_base">
           <rect id="button" ry="5" rx="5" y="6" x="6" height="38" width="38"
                fill="#f2f5e9" fill-opacity="0.5" stroke="#606060" stroke-width="1.0"/>
           <path id="arrow"
             d="M 11.500037,31.436501 C 11.940474,20.09759 22.043105,11.32322 32.158766,21.979434 L 37.068811,17.246167 C 37.068811,17.246167 37.088388,32 37.088388,32 L 22.160133,31.978069 C 22.160133,31.978069 26.997745,27.140456 26.997745,27.140456 C 18.528582,18.264221 13.291696,25.230495 11.500037,31.436501 z"
             style="fill:#404040;"/>
          </a>
         </g>
        </svg>
</svg>
