<?xml version="1.0" encoding="UTF-8" standalone="no"?>
<!DOCTYPE svg PUBLIC "-//W3C//DTD SVG 1.1//EN"
 "http://www.w3.org/Graphics/SVG/1.1/DTD/svg11.dtd">
<!-- Generated by graphviz version 2.36.0 (20140111.2315)
 -->
<!-- Title: Fire.setUpInitialConfig Pages: 1 -->
<svg width="460pt" height="211pt"
 viewBox="0.00 0.00 460.00 211.00" xmlns="http://www.w3.org/2000/svg" xmlns:xlink="http://www.w3.org/1999/xlink">
<g id="graph0" class="graph" transform="scale(1 1) rotate(0) translate(4 207)">
<title>Fire.setUpInitialConfig</title>
<polygon fill="white" stroke="none" points="-4,4 -4,-207 456,-207 456,4 -4,4"/>
<!-- Node1 -->
<g id="node1" class="node"><title>Node1</title>
<polygon fill="#bfbfbf" stroke="black" points="0.5,-107.5 0.5,-126.5 119.5,-126.5 119.5,-107.5 0.5,-107.5"/>
<text text-anchor="middle" x="60" y="-114.5" font-family="Helvetica,sans-Serif" font-size="10.00">Fire.setUpInitialConfig</text>
</g>
<!-- Node2 -->
<g id="node2" class="node"><title>Node2</title>
<g id="a_node2"><a xlink:href="../../da/d74/class_grid.html#a2f2ccb1511e367a7d6e9bcb3f708cd38" target="_top" xlink:title="Grid.getCellAt">
<polygon fill="white" stroke="black" points="193.5,-183.5 193.5,-202.5 276.5,-202.5 276.5,-183.5 193.5,-183.5"/>
<text text-anchor="middle" x="235" y="-190.5" font-family="Helvetica,sans-Serif" font-size="10.00">Grid.getCellAt</text>
</a>
</g>
</g>
<!-- Node1&#45;&gt;Node2 -->
<g id="edge1" class="edge"><title>Node1&#45;&gt;Node2</title>
<path fill="none" stroke="midnightblue" d="M74.1623,-126.668C91.9031,-139.272 124.864,-161.213 156,-174 164.616,-177.538 174.049,-180.524 183.285,-183.005"/>
<polygon fill="midnightblue" stroke="midnightblue" points="182.63,-186.449 193.182,-185.5 184.342,-179.662 182.63,-186.449"/>
</g>
<!-- Node3 -->
<g id="node3" class="node"><title>Node3</title>
<g id="a_node3"><a xlink:href="../../da/d74/class_grid.html#aba1e1b4dba7072955cad21806ef1c753" target="_top" xlink:title="Grid.getCells">
<polygon fill="white" stroke="black" points="196.5,-145.5 196.5,-164.5 273.5,-164.5 273.5,-145.5 196.5,-145.5"/>
<text text-anchor="middle" x="235" y="-152.5" font-family="Helvetica,sans-Serif" font-size="10.00">Grid.getCells</text>
</a>
</g>
</g>
<!-- Node1&#45;&gt;Node3 -->
<g id="edge2" class="edge"><title>Node1&#45;&gt;Node3</title>
<path fill="none" stroke="midnightblue" d="M104.655,-126.589C129.575,-132.063 160.841,-138.93 186.391,-144.542"/>
<polygon fill="midnightblue" stroke="midnightblue" points="185.717,-147.978 196.235,-146.705 187.219,-141.141 185.717,-147.978"/>
</g>
<!-- Node4 -->
<g id="node4" class="node"><title>Node4</title>
<g id="a_node4"><a xlink:href="../../d2/d40/class_cellular_automata.html#a34ceed434c942d34ff03169b92684726" target="_top" xlink:title="CellularAutomata.getGrid">
<polygon fill="white" stroke="black" points="166,-107.5 166,-126.5 304,-126.5 304,-107.5 166,-107.5"/>
<text text-anchor="middle" x="235" y="-114.5" font-family="Helvetica,sans-Serif" font-size="10.00">CellularAutomata.getGrid</text>
</a>
</g>
</g>
<!-- Node1&#45;&gt;Node4 -->
<g id="edge3" class="edge"><title>Node1&#45;&gt;Node4</title>
<path fill="none" stroke="midnightblue" d="M119.57,-117C131.21,-117 143.607,-117 155.782,-117"/>
<polygon fill="midnightblue" stroke="midnightblue" points="155.936,-120.5 165.936,-117 155.936,-113.5 155.936,-120.5"/>
</g>
<!-- Node5 -->
<g id="node5" class="node"><title>Node5</title>
<g id="a_node5"><a xlink:href="../../d2/d40/class_cellular_automata.html#a3e303e691cc17b9a478a3e0e167a37e6" target="_top" xlink:title="CellularAutomata.getRandom\lDouble">
<polygon fill="white" stroke="black" points="156,-58 156,-88 314,-88 314,-58 156,-58"/>
<text text-anchor="start" x="164" y="-76" font-family="Helvetica,sans-Serif" font-size="10.00">CellularAutomata.getRandom</text>
<text text-anchor="middle" x="235" y="-65" font-family="Helvetica,sans-Serif" font-size="10.00">Double</text>
</a>
</g>
</g>
<!-- Node1&#45;&gt;Node5 -->
<g id="edge4" class="edge"><title>Node1&#45;&gt;Node5</title>
<path fill="none" stroke="midnightblue" d="M98.5384,-107.453C117.929,-102.521 142.215,-96.3442 164.848,-90.5879"/>
<polygon fill="midnightblue" stroke="midnightblue" points="165.937,-93.9223 174.766,-88.0654 164.212,-87.1383 165.937,-93.9223"/>
</g>
<!-- Node6 -->
<g id="node6" class="node"><title>Node6</title>
<g id="a_node6"><a xlink:href="../../dd/d11/class_cell.html#aaaf321e273ef5b6ac3fae80e36d19629" target="_top" xlink:title="Cell.setState">
<polygon fill="white" stroke="black" points="196,-19.5 196,-38.5 274,-38.5 274,-19.5 196,-19.5"/>
<text text-anchor="middle" x="235" y="-26.5" font-family="Helvetica,sans-Serif" font-size="10.00">Cell.setState</text>
</a>
</g>
</g>
<!-- Node1&#45;&gt;Node6 -->
<g id="edge5" class="edge"><title>Node1&#45;&gt;Node6</title>
<path fill="none" stroke="midnightblue" d="M71.562,-107.39C88.2677,-92.6903 122.357,-64.6795 156,-49 165.313,-44.6595 175.708,-41.1628 185.796,-38.3831"/>
<polygon fill="midnightblue" stroke="midnightblue" points="186.912,-41.7103 195.731,-35.8377 185.175,-34.9293 186.912,-41.7103"/>
</g>
<!-- Node7 -->
<g id="node7" class="node"><title>Node7</title>
<g id="a_node7"><a xlink:href="../../dd/d11/class_cell.html#a6ddc434a1826fac1599a7d901ff2d162" target="_top" xlink:title="Cell.setNextState">
<polygon fill="white" stroke="black" points="350.5,-38.5 350.5,-57.5 451.5,-57.5 451.5,-38.5 350.5,-38.5"/>
<text text-anchor="middle" x="401" y="-45.5" font-family="Helvetica,sans-Serif" font-size="10.00">Cell.setNextState</text>
</a>
</g>
</g>
<!-- Node6&#45;&gt;Node7 -->
<g id="edge6" class="edge"><title>Node6&#45;&gt;Node7</title>
<path fill="none" stroke="midnightblue" d="M274.037,-33.4067C293.731,-35.6883 318.227,-38.5263 340.368,-41.0914"/>
<polygon fill="midnightblue" stroke="midnightblue" points="340.013,-44.5736 350.35,-42.2478 340.819,-37.6201 340.013,-44.5736"/>
</g>
<!-- Node8 -->
<g id="node8" class="node"><title>Node8</title>
<g id="a_node8"><a xlink:href="../../dd/d11/class_cell.html#adfc3c76d1f230a143057441eb6eabb62" target="_top" xlink:title="Cell.update">
<polygon fill="white" stroke="black" points="365.5,-0.5 365.5,-19.5 436.5,-19.5 436.5,-0.5 365.5,-0.5"/>
<text text-anchor="middle" x="401" y="-7.5" font-family="Helvetica,sans-Serif" font-size="10.00">Cell.update</text>
</a>
</g>
</g>
<!-- Node6&#45;&gt;Node8 -->
<g id="edge7" class="edge"><title>Node6&#45;&gt;Node8</title>
<path fill="none" stroke="midnightblue" d="M274.037,-24.5933C298.238,-21.7895 329.693,-18.1453 355.115,-15.2001"/>
<polygon fill="midnightblue" stroke="midnightblue" points="355.714,-18.6542 365.245,-14.0265 354.909,-11.7007 355.714,-18.6542"/>
</g>
</g>
</svg>
