<?xml version="1.0" encoding="UTF-8" standalone="no"?>
<!DOCTYPE svg PUBLIC "-//W3C//DTD SVG 1.1//EN"
 "http://www.w3.org/Graphics/SVG/1.1/DTD/svg11.dtd">
<!-- Generated by graphviz version 2.36.0 (20140111.2315)
 -->
<!-- Title: Fire.Fire Pages: 1 -->
<svg width="598pt" height="220pt"
 viewBox="0.00 0.00 598.00 219.68" xmlns="http://www.w3.org/2000/svg" xmlns:xlink="http://www.w3.org/1999/xlink">
<g id="graph0" class="graph" transform="scale(1 1) rotate(0) translate(4 215.678)">
<title>Fire.Fire</title>
<polygon fill="white" stroke="none" points="-4,4 -4,-215.678 594,-215.678 594,4 -4,4"/>
<!-- Node1 -->
<g id="node1" class="node"><title>Node1</title>
<polygon fill="#bfbfbf" stroke="black" points="0.5,-107.5 0.5,-126.5 53.5,-126.5 53.5,-107.5 0.5,-107.5"/>
<text text-anchor="middle" x="27" y="-114.5" font-family="Helvetica,sans-Serif" font-size="10.00">Fire.Fire</text>
</g>
<!-- Node2 -->
<g id="node2" class="node"><title>Node2</title>
<g id="a_node2"><a xlink:href="../../d9/df1/class_fire.html#afd16418c5ea360c815613862a4ea1c33" target="_top" xlink:title="Fire.setUpInitialConfig">
<polygon fill="white" stroke="black" points="90.5,-107.5 90.5,-126.5 209.5,-126.5 209.5,-107.5 90.5,-107.5"/>
<text text-anchor="middle" x="150" y="-114.5" font-family="Helvetica,sans-Serif" font-size="10.00">Fire.setUpInitialConfig</text>
</a>
</g>
</g>
<!-- Node1&#45;&gt;Node2 -->
<g id="edge1" class="edge"><title>Node1&#45;&gt;Node2</title>
<path fill="none" stroke="midnightblue" d="M53.661,-117C61.5065,-117 70.5378,-117 79.8481,-117"/>
<polygon fill="midnightblue" stroke="midnightblue" points="80.0176,-120.5 90.0175,-117 80.0175,-113.5 80.0176,-120.5"/>
</g>
<!-- Node3 -->
<g id="node3" class="node"><title>Node3</title>
<g id="a_node3"><a xlink:href="../../d2/d40/class_cellular_automata.html#a34ceed434c942d34ff03169b92684726" target="_top" xlink:title="CellularAutomata.getGrid">
<polygon fill="white" stroke="black" points="452,-101.5 452,-120.5 590,-120.5 590,-101.5 452,-101.5"/>
<text text-anchor="middle" x="521" y="-108.5" font-family="Helvetica,sans-Serif" font-size="10.00">CellularAutomata.getGrid</text>
</a>
</g>
</g>
<!-- Node2&#45;&gt;Node3 -->
<g id="edge2" class="edge"><title>Node2&#45;&gt;Node3</title>
<path fill="none" stroke="midnightblue" d="M158.901,-126.628C173.786,-143.913 207.932,-179.647 246,-193 317.296,-218.009 344.616,-217.757 416,-193 453.04,-180.154 486.876,-148.043 505.344,-128.029"/>
<polygon fill="midnightblue" stroke="midnightblue" points="508,-130.309 512.07,-120.528 502.788,-125.636 508,-130.309"/>
</g>
<!-- Node4 -->
<g id="node4" class="node"><title>Node4</title>
<g id="a_node4"><a xlink:href="../../da/d74/class_grid.html#aba1e1b4dba7072955cad21806ef1c753" target="_top" xlink:title="Grid.getCells">
<polygon fill="white" stroke="black" points="292.5,-164.5 292.5,-183.5 369.5,-183.5 369.5,-164.5 292.5,-164.5"/>
<text text-anchor="middle" x="331" y="-171.5" font-family="Helvetica,sans-Serif" font-size="10.00">Grid.getCells</text>
</a>
</g>
</g>
<!-- Node2&#45;&gt;Node4 -->
<g id="edge3" class="edge"><title>Node2&#45;&gt;Node4</title>
<path fill="none" stroke="midnightblue" d="M172.157,-126.585C191.183,-134.933 220.048,-146.93 246,-155 257.712,-158.642 270.543,-161.901 282.573,-164.648"/>
<polygon fill="midnightblue" stroke="midnightblue" points="281.929,-168.09 292.449,-166.833 283.441,-161.255 281.929,-168.09"/>
</g>
<!-- Node5 -->
<g id="node5" class="node"><title>Node5</title>
<g id="a_node5"><a xlink:href="../../da/d74/class_grid.html#a2f2ccb1511e367a7d6e9bcb3f708cd38" target="_top" xlink:title="Grid.getCellAt">
<polygon fill="white" stroke="black" points="289.5,-126.5 289.5,-145.5 372.5,-145.5 372.5,-126.5 289.5,-126.5"/>
<text text-anchor="middle" x="331" y="-133.5" font-family="Helvetica,sans-Serif" font-size="10.00">Grid.getCellAt</text>
</a>
</g>
</g>
<!-- Node2&#45;&gt;Node5 -->
<g id="edge4" class="edge"><title>Node2&#45;&gt;Node5</title>
<path fill="none" stroke="midnightblue" d="M209.611,-123.221C232.145,-125.613 257.655,-128.321 279.375,-130.626"/>
<polygon fill="midnightblue" stroke="midnightblue" points="279.069,-134.113 289.382,-131.689 279.807,-127.153 279.069,-134.113"/>
</g>
<!-- Node6 -->
<g id="node6" class="node"><title>Node6</title>
<g id="a_node6"><a xlink:href="../../dd/d11/class_cell.html#a6ddc434a1826fac1599a7d901ff2d162" target="_top" xlink:title="Cell.setNextState">
<polygon fill="white" stroke="black" points="280.5,-88.5 280.5,-107.5 381.5,-107.5 381.5,-88.5 280.5,-88.5"/>
<text text-anchor="middle" x="331" y="-95.5" font-family="Helvetica,sans-Serif" font-size="10.00">Cell.setNextState</text>
</a>
</g>
</g>
<!-- Node2&#45;&gt;Node6 -->
<g id="edge5" class="edge"><title>Node2&#45;&gt;Node6</title>
<path fill="none" stroke="midnightblue" d="M209.611,-110.779C229.06,-108.714 250.727,-106.414 270.26,-104.341"/>
<polygon fill="midnightblue" stroke="midnightblue" points="270.683,-107.816 280.257,-103.28 269.944,-100.855 270.683,-107.816"/>
</g>
<!-- Node7 -->
<g id="node7" class="node"><title>Node7</title>
<g id="a_node7"><a xlink:href="../../d2/d40/class_cellular_automata.html#a3e303e691cc17b9a478a3e0e167a37e6" target="_top" xlink:title="CellularAutomata.getRandom\lDouble">
<polygon fill="white" stroke="black" points="252,-39 252,-69 410,-69 410,-39 252,-39"/>
<text text-anchor="start" x="260" y="-57" font-family="Helvetica,sans-Serif" font-size="10.00">CellularAutomata.getRandom</text>
<text text-anchor="middle" x="331" y="-46" font-family="Helvetica,sans-Serif" font-size="10.00">Double</text>
</a>
</g>
</g>
<!-- Node2&#45;&gt;Node7 -->
<g id="edge6" class="edge"><title>Node2&#45;&gt;Node7</title>
<path fill="none" stroke="midnightblue" d="M173.431,-107.354C192.544,-99.2985 220.835,-87.7574 246,-79 252.817,-76.6278 259.992,-74.2762 267.158,-72.0192"/>
<polygon fill="midnightblue" stroke="midnightblue" points="268.372,-75.3074 276.89,-69.007 266.302,-68.6204 268.372,-75.3074"/>
</g>
<!-- Node8 -->
<g id="node8" class="node"><title>Node8</title>
<g id="a_node8"><a xlink:href="../../d2/d40/class_cellular_automata.html#ab39b5164764f20382801aa9a4663eb4b" target="_top" xlink:title="CellularAutomata.handleUpdate">
<polygon fill="white" stroke="black" points="246,-0.5 246,-19.5 416,-19.5 416,-0.5 246,-0.5"/>
<text text-anchor="middle" x="331" y="-7.5" font-family="Helvetica,sans-Serif" font-size="10.00">CellularAutomata.handleUpdate</text>
</a>
</g>
</g>
<!-- Node2&#45;&gt;Node8 -->
<g id="edge7" class="edge"><title>Node2&#45;&gt;Node8</title>
<path fill="none" stroke="midnightblue" d="M158.5,-107.461C173.236,-89.4018 207.867,-50.2224 246,-30 251.26,-27.2104 256.91,-24.8049 262.703,-22.7316"/>
<polygon fill="midnightblue" stroke="midnightblue" points="264.105,-25.9565 272.541,-19.5467 261.949,-19.2967 264.105,-25.9565"/>
</g>
<!-- Node8&#45;&gt;Node3 -->
<g id="edge8" class="edge"><title>Node8&#45;&gt;Node3</title>
<path fill="none" stroke="midnightblue" d="M387.39,-19.6191C397.178,-22.3126 407.081,-25.7167 416,-30 450.297,-46.4714 483.909,-75.7101 503.261,-94.187"/>
<polygon fill="midnightblue" stroke="midnightblue" points="501.037,-96.9068 510.642,-101.378 505.922,-91.8929 501.037,-96.9068"/>
</g>
</g>
</svg>
