<?xml version="1.0" encoding="UTF-8" standalone="no"?>
<!DOCTYPE svg PUBLIC "-//W3C//DTD SVG 1.1//EN"
 "http://www.w3.org/Graphics/SVG/1.1/DTD/svg11.dtd">
<!-- Generated by graphviz version 2.36.0 (20140111.2315)
 -->
<!-- Title: Fire.checkRules Pages: 1 -->
<svg width="746pt" height="268pt"
 viewBox="0.00 0.00 746.00 268.00" xmlns="http://www.w3.org/2000/svg" xmlns:xlink="http://www.w3.org/1999/xlink">
<g id="graph0" class="graph" transform="scale(1 1) rotate(0) translate(4 264)">
<title>Fire.checkRules</title>
<polygon fill="white" stroke="none" points="-4,4 -4,-264 742,-264 742,4 -4,4"/>
<!-- Node1 -->
<g id="node1" class="node"><title>Node1</title>
<polygon fill="#bfbfbf" stroke="black" points="0.5,-82.5 0.5,-101.5 89.5,-101.5 89.5,-82.5 0.5,-82.5"/>
<text text-anchor="middle" x="45" y="-89.5" font-family="Helvetica,sans-Serif" font-size="10.00">Fire.checkRules</text>
</g>
<!-- Node2 -->
<g id="node2" class="node"><title>Node2</title>
<g id="a_node2"><a xlink:href="../../d9/df1/class_fire.html#a65c7d316a113807e7bdf626a789e2bf5" target="_top" xlink:title="Fire.checkNextToFire">
<polygon fill="white" stroke="black" points="148.5,-164.5 148.5,-183.5 261.5,-183.5 261.5,-164.5 148.5,-164.5"/>
<text text-anchor="middle" x="205" y="-171.5" font-family="Helvetica,sans-Serif" font-size="10.00">Fire.checkNextToFire</text>
</a>
</g>
</g>
<!-- Node1&#45;&gt;Node2 -->
<g id="edge1" class="edge"><title>Node1&#45;&gt;Node2</title>
<path fill="none" stroke="midnightblue" d="M55.4009,-101.678C69.461,-115.584 97.3883,-141.073 126,-155 130.934,-157.402 136.196,-159.514 141.568,-161.37"/>
<polygon fill="midnightblue" stroke="midnightblue" points="140.719,-164.772 151.309,-164.439 142.822,-158.095 140.719,-164.772"/>
</g>
<!-- Node10 -->
<g id="node10" class="node"><title>Node10</title>
<g id="a_node10"><a xlink:href="../../d2/d40/class_cellular_automata.html#ac2c674c8f80e624e4b63c131b4200a34" target="_top" xlink:title="CellularAutomata.getProb">
<polygon fill="white" stroke="black" points="135,-126.5 135,-145.5 275,-145.5 275,-126.5 135,-126.5"/>
<text text-anchor="middle" x="205" y="-133.5" font-family="Helvetica,sans-Serif" font-size="10.00">CellularAutomata.getProb</text>
</a>
</g>
</g>
<!-- Node1&#45;&gt;Node10 -->
<g id="edge9" class="edge"><title>Node1&#45;&gt;Node10</title>
<path fill="none" stroke="midnightblue" d="M76.6871,-101.523C91.5398,-106.051 109.655,-111.455 126,-116 135.496,-118.641 145.679,-121.344 155.449,-123.875"/>
<polygon fill="midnightblue" stroke="midnightblue" points="154.878,-127.342 165.435,-126.44 156.62,-120.562 154.878,-127.342"/>
</g>
<!-- Node11 -->
<g id="node11" class="node"><title>Node11</title>
<g id="a_node11"><a xlink:href="../../d2/d40/class_cellular_automata.html#a3e303e691cc17b9a478a3e0e167a37e6" target="_top" xlink:title="CellularAutomata.getRandom\lDouble">
<polygon fill="white" stroke="black" points="126,-77 126,-107 284,-107 284,-77 126,-77"/>
<text text-anchor="start" x="134" y="-95" font-family="Helvetica,sans-Serif" font-size="10.00">CellularAutomata.getRandom</text>
<text text-anchor="middle" x="205" y="-84" font-family="Helvetica,sans-Serif" font-size="10.00">Double</text>
</a>
</g>
</g>
<!-- Node1&#45;&gt;Node11 -->
<g id="edge10" class="edge"><title>Node1&#45;&gt;Node11</title>
<path fill="none" stroke="midnightblue" d="M89.5924,-92C97.8218,-92 106.697,-92 115.737,-92"/>
<polygon fill="midnightblue" stroke="midnightblue" points="115.987,-95.5001 125.987,-92 115.987,-88.5001 115.987,-95.5001"/>
</g>
<!-- Node12 -->
<g id="node12" class="node"><title>Node12</title>
<g id="a_node12"><a xlink:href="../../dd/d11/class_cell.html#aa625dbd39334a9a13a7bb87c98d5fcbe" target="_top" xlink:title="Cell.isState">
<polygon fill="white" stroke="black" points="169.5,-38.5 169.5,-57.5 240.5,-57.5 240.5,-38.5 169.5,-38.5"/>
<text text-anchor="middle" x="205" y="-45.5" font-family="Helvetica,sans-Serif" font-size="10.00">Cell.isState</text>
</a>
</g>
</g>
<!-- Node1&#45;&gt;Node12 -->
<g id="edge11" class="edge"><title>Node1&#45;&gt;Node12</title>
<path fill="none" stroke="midnightblue" d="M76.6871,-82.477C91.5398,-77.949 109.655,-72.5453 126,-68 136.828,-64.989 148.547,-61.8969 159.529,-59.0714"/>
<polygon fill="midnightblue" stroke="midnightblue" points="160.539,-62.4262 169.362,-56.5616 158.807,-55.6436 160.539,-62.4262"/>
</g>
<!-- Node13 -->
<g id="node13" class="node"><title>Node13</title>
<g id="a_node13"><a xlink:href="../../d2/d40/class_cellular_automata.html#a42e30e977acd201acf1aa8d4db292310" target="_top" xlink:title="CellularAutomata.rule">
<polygon fill="white" stroke="black" points="144.5,-0.5 144.5,-19.5 265.5,-19.5 265.5,-0.5 144.5,-0.5"/>
<text text-anchor="middle" x="205" y="-7.5" font-family="Helvetica,sans-Serif" font-size="10.00">CellularAutomata.rule</text>
</a>
</g>
</g>
<!-- Node1&#45;&gt;Node13 -->
<g id="edge12" class="edge"><title>Node1&#45;&gt;Node13</title>
<path fill="none" stroke="midnightblue" d="M55.4009,-82.3217C69.461,-68.4155 97.3883,-42.9272 126,-29 130.934,-26.5981 136.196,-24.4856 141.568,-22.6302"/>
<polygon fill="midnightblue" stroke="midnightblue" points="142.822,-25.9046 151.309,-19.5614 140.719,-19.2281 142.822,-25.9046"/>
</g>
<!-- Node3 -->
<g id="node3" class="node"><title>Node3</title>
<g id="a_node3"><a xlink:href="../../da/d74/class_grid.html#a43e84876ecfc5265a5e37a39e64e794e" target="_top" xlink:title="Grid.findNeighbors">
<polygon fill="white" stroke="black" points="336.5,-183.5 336.5,-202.5 441.5,-202.5 441.5,-183.5 336.5,-183.5"/>
<text text-anchor="middle" x="389" y="-190.5" font-family="Helvetica,sans-Serif" font-size="10.00">Grid.findNeighbors</text>
</a>
</g>
</g>
<!-- Node2&#45;&gt;Node3 -->
<g id="edge2" class="edge"><title>Node2&#45;&gt;Node3</title>
<path fill="none" stroke="midnightblue" d="M261.595,-179.804C282.078,-181.942 305.396,-184.376 326.379,-186.567"/>
<polygon fill="midnightblue" stroke="midnightblue" points="326.16,-190.063 336.47,-187.62 326.887,-183.101 326.16,-190.063"/>
</g>
<!-- Node9 -->
<g id="node9" class="node"><title>Node9</title>
<g id="a_node9"><a xlink:href="../../d2/d40/class_cellular_automata.html#a34ceed434c942d34ff03169b92684726" target="_top" xlink:title="CellularAutomata.getGrid">
<polygon fill="white" stroke="black" points="320,-145.5 320,-164.5 458,-164.5 458,-145.5 320,-145.5"/>
<text text-anchor="middle" x="389" y="-152.5" font-family="Helvetica,sans-Serif" font-size="10.00">CellularAutomata.getGrid</text>
</a>
</g>
</g>
<!-- Node2&#45;&gt;Node9 -->
<g id="edge8" class="edge"><title>Node2&#45;&gt;Node9</title>
<path fill="none" stroke="midnightblue" d="M261.595,-168.196C276.831,-166.606 293.636,-164.851 309.882,-163.155"/>
<polygon fill="midnightblue" stroke="midnightblue" points="310.324,-166.628 319.906,-162.109 309.597,-159.666 310.324,-166.628"/>
</g>
<!-- Node4 -->
<g id="node4" class="node"><title>Node4</title>
<g id="a_node4"><a xlink:href="../../da/d74/class_grid.html#a33b84a1d6b40a447bdd4a33fa3daf555" target="_top" xlink:title="Grid.getNeighbors">
<polygon fill="white" stroke="black" points="494,-183.5 494,-202.5 598,-202.5 598,-183.5 494,-183.5"/>
<text text-anchor="middle" x="546" y="-190.5" font-family="Helvetica,sans-Serif" font-size="10.00">Grid.getNeighbors</text>
</a>
</g>
</g>
<!-- Node3&#45;&gt;Node4 -->
<g id="edge3" class="edge"><title>Node3&#45;&gt;Node4</title>
<path fill="none" stroke="midnightblue" d="M441.613,-193C455.148,-193 469.873,-193 483.855,-193"/>
<polygon fill="midnightblue" stroke="midnightblue" points="483.876,-196.5 493.876,-193 483.876,-189.5 483.876,-196.5"/>
</g>
<!-- Node5 -->
<g id="node5" class="node"><title>Node5</title>
<g id="a_node5"><a xlink:href="../../dd/d11/class_cell.html#a4725094202cf38c727f2adcc3cf8b96f" target="_top" xlink:title="Cell.getPosX">
<polygon fill="white" stroke="black" points="648,-240.5 648,-259.5 724,-259.5 724,-240.5 648,-240.5"/>
<text text-anchor="middle" x="686" y="-247.5" font-family="Helvetica,sans-Serif" font-size="10.00">Cell.getPosX</text>
</a>
</g>
</g>
<!-- Node4&#45;&gt;Node5 -->
<g id="edge4" class="edge"><title>Node4&#45;&gt;Node5</title>
<path fill="none" stroke="midnightblue" d="M567.958,-202.542C585.495,-210.432 611.232,-221.795 634,-231 638.804,-232.942 643.891,-234.925 648.918,-236.84"/>
<polygon fill="midnightblue" stroke="midnightblue" points="647.831,-240.171 658.423,-240.415 650.295,-233.619 647.831,-240.171"/>
</g>
<!-- Node6 -->
<g id="node6" class="node"><title>Node6</title>
<g id="a_node6"><a xlink:href="../../dd/d11/class_cell.html#ac445ab365d1ec19483e98841be73d11e" target="_top" xlink:title="Cell.getPosY">
<polygon fill="white" stroke="black" points="648.5,-202.5 648.5,-221.5 723.5,-221.5 723.5,-202.5 648.5,-202.5"/>
<text text-anchor="middle" x="686" y="-209.5" font-family="Helvetica,sans-Serif" font-size="10.00">Cell.getPosY</text>
</a>
</g>
</g>
<!-- Node4&#45;&gt;Node6 -->
<g id="edge5" class="edge"><title>Node4&#45;&gt;Node6</title>
<path fill="none" stroke="midnightblue" d="M598.386,-200.075C611.447,-201.873 625.41,-203.796 638.228,-205.56"/>
<polygon fill="midnightblue" stroke="midnightblue" points="637.838,-209.04 648.222,-206.936 638.793,-202.105 637.838,-209.04"/>
</g>
<!-- Node7 -->
<g id="node7" class="node"><title>Node7</title>
<g id="a_node7"><a xlink:href="../../da/d74/class_grid.html#a669941947881f795a6ab4a70adf05172" target="_top" xlink:title="Grid.getTorusPoint">
<polygon fill="white" stroke="black" points="634,-164.5 634,-183.5 738,-183.5 738,-164.5 634,-164.5"/>
<text text-anchor="middle" x="686" y="-171.5" font-family="Helvetica,sans-Serif" font-size="10.00">Grid.getTorusPoint</text>
</a>
</g>
</g>
<!-- Node4&#45;&gt;Node7 -->
<g id="edge6" class="edge"><title>Node4&#45;&gt;Node7</title>
<path fill="none" stroke="midnightblue" d="M598.386,-185.925C606.558,-184.8 615.083,-183.626 623.46,-182.473"/>
<polygon fill="midnightblue" stroke="midnightblue" points="624.142,-185.912 633.571,-181.081 623.187,-178.978 624.142,-185.912"/>
</g>
<!-- Node8 -->
<g id="node8" class="node"><title>Node8</title>
<g id="a_node8"><a xlink:href="../../da/d74/class_grid.html#ab87098d7bfaf1eaf367e4342a5bce0ae" target="_top" xlink:title="Grid.checkBounds">
<polygon fill="white" stroke="black" points="634.5,-126.5 634.5,-145.5 737.5,-145.5 737.5,-126.5 634.5,-126.5"/>
<text text-anchor="middle" x="686" y="-133.5" font-family="Helvetica,sans-Serif" font-size="10.00">Grid.checkBounds</text>
</a>
</g>
</g>
<!-- Node4&#45;&gt;Node8 -->
<g id="edge7" class="edge"><title>Node4&#45;&gt;Node8</title>
<path fill="none" stroke="midnightblue" d="M567.958,-183.458C585.495,-175.568 611.232,-164.205 634,-155 638.804,-153.058 643.891,-151.075 648.918,-149.16"/>
<polygon fill="midnightblue" stroke="midnightblue" points="650.295,-152.381 658.423,-145.585 647.831,-145.829 650.295,-152.381"/>
</g>
</g>
</svg>
