<?xml version="1.0" encoding="UTF-8" standalone="no"?>
<!DOCTYPE svg PUBLIC "-//W3C//DTD SVG 1.1//EN"
 "http://www.w3.org/Graphics/SVG/1.1/DTD/svg11.dtd">
<!-- Generated by graphviz version 2.36.0 (20140111.2315)
 -->
<!-- Title: Fire.setUpInitialConfig Pages: 1 -->
<svg width="508pt" height="230pt"
 viewBox="0.00 0.00 508.00 230.00" xmlns="http://www.w3.org/2000/svg" xmlns:xlink="http://www.w3.org/1999/xlink">
<g id="graph0" class="graph" transform="scale(1 1) rotate(0) translate(4 226)">
<title>Fire.setUpInitialConfig</title>
<polygon fill="white" stroke="none" points="-4,4 -4,-226 504,-226 504,4 -4,4"/>
<!-- Node1 -->
<g id="node1" class="node"><title>Node1</title>
<polygon fill="#bfbfbf" stroke="black" points="0.5,-104.5 0.5,-123.5 119.5,-123.5 119.5,-104.5 0.5,-104.5"/>
<text text-anchor="middle" x="60" y="-111.5" font-family="Helvetica,sans-Serif" font-size="10.00">Fire.setUpInitialConfig</text>
</g>
<!-- Node2 -->
<g id="node2" class="node"><title>Node2</title>
<g id="a_node2"><a xlink:href="../../da/d74/class_grid.html#a2f2ccb1511e367a7d6e9bcb3f708cd38" target="_top" xlink:title="Grid.getCellAt">
<polygon fill="white" stroke="black" points="199.5,-202.5 199.5,-221.5 282.5,-221.5 282.5,-202.5 199.5,-202.5"/>
<text text-anchor="middle" x="241" y="-209.5" font-family="Helvetica,sans-Serif" font-size="10.00">Grid.getCellAt</text>
</a>
</g>
</g>
<!-- Node1&#45;&gt;Node2 -->
<g id="edge1" class="edge"><title>Node1&#45;&gt;Node2</title>
<path fill="none" stroke="midnightblue" d="M69.6434,-123.717C85.1861,-140.556 119.638,-175.072 156,-193 166.372,-198.114 178.144,-201.872 189.524,-204.627"/>
<polygon fill="midnightblue" stroke="midnightblue" points="188.859,-208.064 199.378,-206.798 190.365,-201.228 188.859,-208.064"/>
</g>
<!-- Node3 -->
<g id="node3" class="node"><title>Node3</title>
<g id="a_node3"><a xlink:href="../../da/d74/class_grid.html#aba1e1b4dba7072955cad21806ef1c753" target="_top" xlink:title="Grid.getCells">
<polygon fill="white" stroke="black" points="202.5,-164.5 202.5,-183.5 279.5,-183.5 279.5,-164.5 202.5,-164.5"/>
<text text-anchor="middle" x="241" y="-171.5" font-family="Helvetica,sans-Serif" font-size="10.00">Grid.getCells</text>
</a>
</g>
</g>
<!-- Node1&#45;&gt;Node3 -->
<g id="edge2" class="edge"><title>Node1&#45;&gt;Node3</title>
<path fill="none" stroke="midnightblue" d="M84.6175,-123.582C103.72,-131.179 131.391,-141.838 156,-150 168.381,-154.107 181.925,-158.163 194.452,-161.739"/>
<polygon fill="midnightblue" stroke="midnightblue" points="193.664,-165.153 204.239,-164.496 195.562,-158.416 193.664,-165.153"/>
</g>
<!-- Node4 -->
<g id="node4" class="node"><title>Node4</title>
<g id="a_node4"><a xlink:href="../../d2/d40/class_cellular_automata.html#a34ceed434c942d34ff03169b92684726" target="_top" xlink:title="CellularAutomata.getGrid">
<polygon fill="white" stroke="black" points="362,-82.5 362,-101.5 500,-101.5 500,-82.5 362,-82.5"/>
<text text-anchor="middle" x="431" y="-89.5" font-family="Helvetica,sans-Serif" font-size="10.00">CellularAutomata.getGrid</text>
</a>
</g>
</g>
<!-- Node1&#45;&gt;Node4 -->
<g id="edge3" class="edge"><title>Node1&#45;&gt;Node4</title>
<path fill="none" stroke="midnightblue" d="M119.633,-118.487C173.474,-121.65 255.374,-124.043 326,-116 346.444,-113.672 368.72,-108.848 387.392,-104.131"/>
<polygon fill="midnightblue" stroke="midnightblue" points="388.281,-107.516 397.079,-101.614 386.52,-100.742 388.281,-107.516"/>
</g>
<!-- Node5 -->
<g id="node5" class="node"><title>Node5</title>
<g id="a_node5"><a xlink:href="../../d2/d40/class_cellular_automata.html#a3e303e691cc17b9a478a3e0e167a37e6" target="_top" xlink:title="CellularAutomata.getRandom\lDouble">
<polygon fill="white" stroke="black" points="162,-77 162,-107 320,-107 320,-77 162,-77"/>
<text text-anchor="start" x="170" y="-95" font-family="Helvetica,sans-Serif" font-size="10.00">CellularAutomata.getRandom</text>
<text text-anchor="middle" x="241" y="-84" font-family="Helvetica,sans-Serif" font-size="10.00">Double</text>
</a>
</g>
</g>
<!-- Node1&#45;&gt;Node5 -->
<g id="edge4" class="edge"><title>Node1&#45;&gt;Node5</title>
<path fill="none" stroke="midnightblue" d="M119.611,-106.796C129.916,-105.53 140.843,-104.187 151.745,-102.847"/>
<polygon fill="midnightblue" stroke="midnightblue" points="152.234,-106.313 161.732,-101.62 151.38,-99.3656 152.234,-106.313"/>
</g>
<!-- Node6 -->
<g id="node6" class="node"><title>Node6</title>
<g id="a_node6"><a xlink:href="../../d2/d40/class_cellular_automata.html#ab39b5164764f20382801aa9a4663eb4b" target="_top" xlink:title="CellularAutomata.handleUpdate">
<polygon fill="white" stroke="black" points="156,-38.5 156,-57.5 326,-57.5 326,-38.5 156,-38.5"/>
<text text-anchor="middle" x="241" y="-45.5" font-family="Helvetica,sans-Serif" font-size="10.00">CellularAutomata.handleUpdate</text>
</a>
</g>
</g>
<!-- Node1&#45;&gt;Node6 -->
<g id="edge5" class="edge"><title>Node1&#45;&gt;Node6</title>
<path fill="none" stroke="midnightblue" d="M78.021,-104.356C96.665,-94.1295 127.691,-78.0885 156,-68 164.31,-65.0384 173.239,-62.3815 182.063,-60.0457"/>
<polygon fill="midnightblue" stroke="midnightblue" points="183.106,-63.3921 191.942,-57.5458 181.389,-56.606 183.106,-63.3921"/>
</g>
<!-- Node7 -->
<g id="node7" class="node"><title>Node7</title>
<g id="a_node7"><a xlink:href="../../dd/d11/class_cell.html#a6ddc434a1826fac1599a7d901ff2d162" target="_top" xlink:title="Cell.setNextState">
<polygon fill="white" stroke="black" points="190.5,-0.5 190.5,-19.5 291.5,-19.5 291.5,-0.5 190.5,-0.5"/>
<text text-anchor="middle" x="241" y="-7.5" font-family="Helvetica,sans-Serif" font-size="10.00">Cell.setNextState</text>
</a>
</g>
</g>
<!-- Node1&#45;&gt;Node7 -->
<g id="edge7" class="edge"><title>Node1&#45;&gt;Node7</title>
<path fill="none" stroke="midnightblue" d="M68.7628,-104.371C83.6801,-86.5512 118.235,-48.4775 156,-29 163.545,-25.1084 171.876,-22.0085 180.272,-19.5404"/>
<polygon fill="midnightblue" stroke="midnightblue" points="181.351,-22.8753 190.116,-16.9237 179.553,-16.1102 181.351,-22.8753"/>
</g>
<!-- Node6&#45;&gt;Node4 -->
<g id="edge6" class="edge"><title>Node6&#45;&gt;Node4</title>
<path fill="none" stroke="midnightblue" d="M282.793,-57.5473C311.124,-64.1781 349.071,-73.0591 379.34,-80.1435"/>
<polygon fill="midnightblue" stroke="midnightblue" points="378.752,-83.6003 389.286,-82.4713 380.347,-76.7845 378.752,-83.6003"/>
</g>
</g>
</svg>
