<?xml version="1.0" encoding="UTF-8" standalone="no"?>
<!DOCTYPE svg PUBLIC "-//W3C//DTD SVG 1.1//EN"
 "http://www.w3.org/Graphics/SVG/1.1/DTD/svg11.dtd">
<!-- Generated by graphviz version 2.36.0 (20140111.2315)
 -->
<!-- Title: Fire.handleUpdate Pages: 1 -->
<svg width="354pt" height="28pt"
 viewBox="0.00 0.00 354.00 28.00" xmlns="http://www.w3.org/2000/svg" xmlns:xlink="http://www.w3.org/1999/xlink">
<g id="graph0" class="graph" transform="scale(1 1) rotate(0) translate(4 24)">
<title>Fire.handleUpdate</title>
<polygon fill="white" stroke="none" points="-4,4 -4,-24 350,-24 350,4 -4,4"/>
<!-- Node1 -->
<g id="node1" class="node"><title>Node1</title>
<polygon fill="#bfbfbf" stroke="black" points="0,-0.5 0,-19.5 104,-19.5 104,-0.5 0,-0.5"/>
<text text-anchor="middle" x="52" y="-7.5" font-family="Helvetica,sans-Serif" font-size="10.00">Fire.handleUpdate</text>
</g>
<!-- Node2 -->
<g id="node2" class="node"><title>Node2</title>
<g id="a_node2"><a xlink:href="../../d9/df1/class_fire.html#afd16418c5ea360c815613862a4ea1c33" target="_top" xlink:title="Fire.setUpInitialConfig">
<polygon fill="white" stroke="black" points="140.5,-0.5 140.5,-19.5 259.5,-19.5 259.5,-0.5 140.5,-0.5"/>
<text text-anchor="middle" x="200" y="-7.5" font-family="Helvetica,sans-Serif" font-size="10.00">Fire.setUpInitialConfig</text>
</a>
</g>
</g>
<!-- Node1&#45;&gt;Node2 -->
<g id="edge1" class="edge"><title>Node1&#45;&gt;Node2</title>
<path fill="none" stroke="midnightblue" d="M114.153,-10C122.865,-10 131.808,-10 140.467,-10"/>
<polygon fill="midnightblue" stroke="midnightblue" points="114.064,-6.5001 104.064,-10 114.064,-13.5001 114.064,-6.5001"/>
</g>
<!-- Node3 -->
<g id="node3" class="node"><title>Node3</title>
<g id="a_node3"><a xlink:href="../../d9/df1/class_fire.html#a22e1b892843e691d4e6e3fcf8e6a893a" target="_top" xlink:title="Fire.init">
<polygon fill="white" stroke="black" points="296,-0.5 296,-19.5 346,-19.5 346,-0.5 296,-0.5"/>
<text text-anchor="middle" x="321" y="-7.5" font-family="Helvetica,sans-Serif" font-size="10.00">Fire.init</text>
</a>
</g>
</g>
<!-- Node2&#45;&gt;Node3 -->
<g id="edge2" class="edge"><title>Node2&#45;&gt;Node3</title>
<path fill="none" stroke="midnightblue" d="M269.94,-10C279.209,-10 288.165,-10 295.876,-10"/>
<polygon fill="midnightblue" stroke="midnightblue" points="269.803,-6.5001 259.803,-10 269.803,-13.5001 269.803,-6.5001"/>
</g>
</g>
</svg>
