<?xml version="1.0" encoding="UTF-8" standalone="no"?>
<!DOCTYPE svg PUBLIC "-//W3C//DTD SVG 1.1//EN"
 "http://www.w3.org/Graphics/SVG/1.1/DTD/svg11.dtd">
<!-- Generated by graphviz version 2.36.0 (20140111.2315)
 -->
<!-- Title: GameOfLife Pages: 1 -->
<svg width="311pt" height="290pt"
 viewBox="0.00 0.00 311.00 290.00" xmlns="http://www.w3.org/2000/svg" xmlns:xlink="http://www.w3.org/1999/xlink">
<g id="graph0" class="graph" transform="scale(1 1) rotate(0) translate(4 286)">
<title>GameOfLife</title>
<polygon fill="white" stroke="none" points="-4,4 -4,-286 307,-286 307,4 -4,4"/>
<!-- Node1 -->
<g id="node1" class="node"><title>Node1</title>
<polygon fill="#bfbfbf" stroke="black" points="92.5,-0.5 92.5,-19.5 165.5,-19.5 165.5,-0.5 92.5,-0.5"/>
<text text-anchor="middle" x="129" y="-7.5" font-family="Helvetica,sans-Serif" font-size="10.00">GameOfLife</text>
</g>
<!-- Node2 -->
<g id="node2" class="node"><title>Node2</title>
<g id="a_node2"><a xlink:href="../../d2/d40/class_cellular_automata.html" target="_top" xlink:title="CellularAutomata">
<polygon fill="white" stroke="black" points="79,-58.5 79,-77.5 179,-77.5 179,-58.5 79,-58.5"/>
<text text-anchor="middle" x="129" y="-65.5" font-family="Helvetica,sans-Serif" font-size="10.00">CellularAutomata</text>
</a>
</g>
</g>
<!-- Node2&#45;&gt;Node1 -->
<g id="edge1" class="edge"><title>Node2&#45;&gt;Node1</title>
<path fill="none" stroke="midnightblue" d="M129,-47.953C129,-38.2875 129,-27.0312 129,-19.5052"/>
<polygon fill="midnightblue" stroke="midnightblue" points="125.5,-48.25 129,-58.25 132.5,-48.25 125.5,-48.25"/>
</g>
<!-- Node3 -->
<g id="node3" class="node"><title>Node3</title>
<polygon fill="white" stroke="#bfbfbf" points="0,-126.5 0,-145.5 56,-145.5 56,-126.5 0,-126.5"/>
<text text-anchor="middle" x="28" y="-133.5" font-family="Helvetica,sans-Serif" font-size="10.00">Timeline</text>
</g>
<!-- Node3&#45;&gt;Node2 -->
<g id="edge2" class="edge"><title>Node3&#45;&gt;Node2</title>
<path fill="none" stroke="#9a32cd" stroke-dasharray="5,2" d="M32.484,-116.501C35.0728,-109.25 39.0381,-101.393 45,-96 54.4286,-87.4707 66.5732,-81.6339 78.6816,-77.6403"/>
<polygon fill="#9a32cd" stroke="#9a32cd" points="29.0562,-115.753 29.6038,-126.334 35.7739,-117.721 29.0562,-115.753"/>
<text text-anchor="middle" x="71" y="-99.5" font-family="Helvetica,sans-Serif" font-size="10.00"> animation</text>
</g>
<!-- Node4 -->
<g id="node4" class="node"><title>Node4</title>
<g id="a_node4"><a xlink:href="../../da/d74/class_grid.html" target="_top" xlink:title="Grid">
<polygon fill="white" stroke="black" points="80,-126.5 80,-145.5 116,-145.5 116,-126.5 80,-126.5"/>
<text text-anchor="middle" x="98" y="-133.5" font-family="Helvetica,sans-Serif" font-size="10.00">Grid</text>
</a>
</g>
</g>
<!-- Node4&#45;&gt;Node2 -->
<g id="edge3" class="edge"><title>Node4&#45;&gt;Node2</title>
<path fill="none" stroke="#9a32cd" stroke-dasharray="5,2" d="M98.6521,-116.064C99.4564,-109.46 101.023,-102.165 104,-96 107.389,-88.9815 113.225,-82.5205 118.407,-77.6796"/>
<polygon fill="#9a32cd" stroke="#9a32cd" points="95.1495,-115.971 97.9043,-126.202 102.131,-116.486 95.1495,-115.971"/>
<text text-anchor="middle" x="123" y="-99.5" font-family="Helvetica,sans-Serif" font-size="10.00"> myGrid</text>
</g>
<!-- Node5 -->
<g id="node5" class="node"><title>Node5</title>
<polygon fill="white" stroke="#bfbfbf" points="68.5,-194.5 68.5,-213.5 127.5,-213.5 127.5,-194.5 68.5,-194.5"/>
<text text-anchor="middle" x="98" y="-201.5" font-family="Helvetica,sans-Serif" font-size="10.00">GridPane</text>
</g>
<!-- Node5&#45;&gt;Node4 -->
<g id="edge4" class="edge"><title>Node5&#45;&gt;Node4</title>
<path fill="none" stroke="midnightblue" d="M98,-184.041C98,-171.472 98,-155.563 98,-145.841"/>
<polygon fill="midnightblue" stroke="midnightblue" points="94.5001,-184.372 98,-194.372 101.5,-184.372 94.5001,-184.372"/>
</g>
<!-- Node6 -->
<g id="node6" class="node"><title>Node6</title>
<g id="a_node6"><a xlink:href="../../dd/d11/class_cell.html" target="_top" xlink:title="Cell">
<polygon fill="white" stroke="black" points="16,-194.5 16,-213.5 50,-213.5 50,-194.5 16,-194.5"/>
<text text-anchor="middle" x="33" y="-201.5" font-family="Helvetica,sans-Serif" font-size="10.00">Cell</text>
</a>
</g>
</g>
<!-- Node6&#45;&gt;Node4 -->
<g id="edge5" class="edge"><title>Node6&#45;&gt;Node4</title>
<path fill="none" stroke="#9a32cd" stroke-dasharray="5,2" d="M39.7405,-184.885C42.9899,-177.807 47.4116,-169.973 53,-164 60.4693,-156.016 70.8238,-149.585 79.7175,-145.004"/>
<polygon fill="#9a32cd" stroke="#9a32cd" points="36.3895,-183.831 35.8191,-194.411 42.8624,-186.496 36.3895,-183.831"/>
<text text-anchor="middle" x="73.5" y="-167.5" font-family="Helvetica,sans-Serif" font-size="10.00"> myCells</text>
</g>
<!-- Node7 -->
<g id="node7" class="node"><title>Node7</title>
<polygon fill="white" stroke="#bfbfbf" points="95,-262.5 95,-281.5 141,-281.5 141,-262.5 95,-262.5"/>
<text text-anchor="middle" x="118" y="-269.5" font-family="Helvetica,sans-Serif" font-size="10.00">Group</text>
</g>
<!-- Node7&#45;&gt;Node2 -->
<g id="edge9" class="edge"><title>Node7&#45;&gt;Node2</title>
<path fill="none" stroke="#9a32cd" stroke-dasharray="5,2" d="M124.991,-252.899C128.941,-241.838 133.562,-227.305 136,-214 145.464,-162.348 153.683,-147.196 142,-96 140.518,-89.5077 137.268,-82.7577 134.389,-77.6307"/>
<polygon fill="#9a32cd" stroke="#9a32cd" points="121.705,-251.694 121.503,-262.287 128.267,-254.132 121.705,-251.694"/>
<text text-anchor="middle" x="166" y="-167.5" font-family="Helvetica,sans-Serif" font-size="10.00"> myRoot</text>
</g>
<!-- Node7&#45;&gt;Node6 -->
<g id="edge6" class="edge"><title>Node7&#45;&gt;Node6</title>
<path fill="none" stroke="midnightblue" d="M99.9931,-256C91.0605,-248.655 80.056,-239.746 70,-232 61.8103,-225.692 52.3969,-218.828 45.1146,-213.599"/>
<polygon fill="midnightblue" stroke="midnightblue" points="97.8868,-258.8 107.824,-262.475 102.347,-253.406 97.8868,-258.8"/>
</g>
<!-- Node8 -->
<g id="node8" class="node"><title>Node8</title>
<polygon fill="white" stroke="#bfbfbf" points="9.5,-262.5 9.5,-281.5 56.5,-281.5 56.5,-262.5 9.5,-262.5"/>
<text text-anchor="middle" x="33" y="-269.5" font-family="Helvetica,sans-Serif" font-size="10.00">Shape</text>
</g>
<!-- Node8&#45;&gt;Node6 -->
<g id="edge7" class="edge"><title>Node8&#45;&gt;Node6</title>
<path fill="none" stroke="#9a32cd" stroke-dasharray="5,2" d="M33,-252.041C33,-239.472 33,-223.563 33,-213.841"/>
<polygon fill="#9a32cd" stroke="#9a32cd" points="29.5001,-252.372 33,-262.372 36.5001,-252.372 29.5001,-252.372"/>
<text text-anchor="middle" x="49.5" y="-235.5" font-family="Helvetica,sans-Serif" font-size="10.00"> shape</text>
</g>
<!-- Node9 -->
<g id="node9" class="node"><title>Node9</title>
<polygon fill="white" stroke="#bfbfbf" points="184,-126.5 184,-145.5 304,-145.5 304,-126.5 184,-126.5"/>
<text text-anchor="middle" x="244" y="-133.5" font-family="Helvetica,sans-Serif" font-size="10.00">Map&lt; String, State &gt;</text>
</g>
<!-- Node9&#45;&gt;Node2 -->
<g id="edge8" class="edge"><title>Node9&#45;&gt;Node2</title>
<path fill="none" stroke="#9a32cd" stroke-dasharray="5,2" d="M220.199,-121.34C197.309,-108.204 163.411,-88.7487 144.038,-77.6305"/>
<polygon fill="#9a32cd" stroke="#9a32cd" points="218.55,-124.43 228.966,-126.372 222.035,-118.358 218.55,-124.43"/>
<text text-anchor="middle" x="222" y="-99.5" font-family="Helvetica,sans-Serif" font-size="10.00"> myStates</text>
</g>
</g>
</svg>
