<?xml version="1.0" encoding="UTF-8" standalone="no"?>
<!DOCTYPE svg PUBLIC "-//W3C//DTD SVG 1.1//EN"
 "http://www.w3.org/Graphics/SVG/1.1/DTD/svg11.dtd">
<!-- Generated by graphviz version 2.36.0 (20140111.2315)
 -->
<!-- Title: Main Pages: 1 -->
<svg width="319pt" height="300pt"
 viewBox="0.00 0.00 319.00 300.00" xmlns="http://www.w3.org/2000/svg" xmlns:xlink="http://www.w3.org/1999/xlink">
<g id="graph0" class="graph" transform="scale(1 1) rotate(0) translate(4 296)">
<title>Main</title>
<polygon fill="white" stroke="none" points="-4,4 -4,-296 315,-296 315,4 -4,4"/>
<!-- Node1 -->
<g id="node1" class="node"><title>Node1</title>
<polygon fill="#bfbfbf" stroke="black" points="48.5,-0.5 48.5,-19.5 87.5,-19.5 87.5,-0.5 48.5,-0.5"/>
<text text-anchor="middle" x="68" y="-7.5" font-family="Helvetica,sans-Serif" font-size="10.00">Main</text>
</g>
<!-- Node2 -->
<g id="node2" class="node"><title>Node2</title>
<polygon fill="white" stroke="#bfbfbf" points="-0.5,-68.5 -0.5,-87.5 68.5,-87.5 68.5,-68.5 -0.5,-68.5"/>
<text text-anchor="middle" x="34" y="-75.5" font-family="Helvetica,sans-Serif" font-size="10.00">Application</text>
</g>
<!-- Node2&#45;&gt;Node1 -->
<g id="edge1" class="edge"><title>Node2&#45;&gt;Node1</title>
<path fill="none" stroke="midnightblue" d="M43.177,-59.1859C49.7367,-46.4523 58.2839,-29.8607 63.4455,-19.8411"/>
<polygon fill="midnightblue" stroke="midnightblue" points="39.9131,-57.879 38.4449,-68.3717 46.1359,-61.0848 39.9131,-57.879"/>
</g>
<!-- Node3 -->
<g id="node3" class="node"><title>Node3</title>
<g id="a_node3"><a xlink:href="../../d2/d40/class_cellular_automata.html" target="_top" xlink:title="CellularAutomata">
<polygon fill="white" stroke="black" points="87,-68.5 87,-87.5 187,-87.5 187,-68.5 87,-68.5"/>
<text text-anchor="middle" x="137" y="-75.5" font-family="Helvetica,sans-Serif" font-size="10.00">CellularAutomata</text>
</a>
</g>
</g>
<!-- Node3&#45;&gt;Node1 -->
<g id="edge2" class="edge"><title>Node3&#45;&gt;Node1</title>
<path fill="none" stroke="#9a32cd" stroke-dasharray="5,2" d="M120.704,-61.4122C107.149,-48.4468 88.3403,-30.4559 77.243,-19.8411"/>
<polygon fill="#9a32cd" stroke="#9a32cd" points="118.334,-63.9887 127.979,-68.3717 123.172,-58.9301 118.334,-63.9887"/>
<text text-anchor="middle" x="125" y="-41.5" font-family="Helvetica,sans-Serif" font-size="10.00"> myCA</text>
</g>
<!-- Node4 -->
<g id="node4" class="node"><title>Node4</title>
<polygon fill="white" stroke="#bfbfbf" points="7,-136.5 7,-155.5 63,-155.5 63,-136.5 7,-136.5"/>
<text text-anchor="middle" x="35" y="-143.5" font-family="Helvetica,sans-Serif" font-size="10.00">Timeline</text>
</g>
<!-- Node4&#45;&gt;Node3 -->
<g id="edge3" class="edge"><title>Node4&#45;&gt;Node3</title>
<path fill="none" stroke="#9a32cd" stroke-dasharray="5,2" d="M39.4748,-126.491C42.0622,-119.239 46.0289,-111.383 52,-106 61.7752,-97.1876 74.4298,-91.2506 86.9741,-87.251"/>
<polygon fill="#9a32cd" stroke="#9a32cd" points="36.0459,-125.747 36.5982,-136.327 42.7645,-127.712 36.0459,-125.747"/>
<text text-anchor="middle" x="78" y="-109.5" font-family="Helvetica,sans-Serif" font-size="10.00"> animation</text>
</g>
<!-- Node5 -->
<g id="node5" class="node"><title>Node5</title>
<g id="a_node5"><a xlink:href="../../da/d74/class_grid.html" target="_top" xlink:title="Grid">
<polygon fill="white" stroke="black" points="87,-136.5 87,-155.5 123,-155.5 123,-136.5 87,-136.5"/>
<text text-anchor="middle" x="105" y="-143.5" font-family="Helvetica,sans-Serif" font-size="10.00">Grid</text>
</a>
</g>
</g>
<!-- Node5&#45;&gt;Node3 -->
<g id="edge4" class="edge"><title>Node5&#45;&gt;Node3</title>
<path fill="none" stroke="#9a32cd" stroke-dasharray="5,2" d="M105.555,-126.285C106.343,-119.612 107.924,-112.214 111,-106 114.522,-98.8846 120.592,-92.4191 125.981,-87.6"/>
<polygon fill="#9a32cd" stroke="#9a32cd" points="102.047,-126.278 104.854,-136.495 109.03,-126.758 102.047,-126.278"/>
<text text-anchor="middle" x="130" y="-109.5" font-family="Helvetica,sans-Serif" font-size="10.00"> myGrid</text>
</g>
<!-- Node6 -->
<g id="node6" class="node"><title>Node6</title>
<polygon fill="white" stroke="#bfbfbf" points="75.5,-204.5 75.5,-223.5 134.5,-223.5 134.5,-204.5 75.5,-204.5"/>
<text text-anchor="middle" x="105" y="-211.5" font-family="Helvetica,sans-Serif" font-size="10.00">GridPane</text>
</g>
<!-- Node6&#45;&gt;Node5 -->
<g id="edge5" class="edge"><title>Node6&#45;&gt;Node5</title>
<path fill="none" stroke="midnightblue" d="M105,-194.041C105,-181.472 105,-165.563 105,-155.841"/>
<polygon fill="midnightblue" stroke="midnightblue" points="101.5,-194.372 105,-204.372 108.5,-194.372 101.5,-194.372"/>
</g>
<!-- Node7 -->
<g id="node7" class="node"><title>Node7</title>
<g id="a_node7"><a xlink:href="../../dd/d11/class_cell.html" target="_top" xlink:title="Cell">
<polygon fill="white" stroke="black" points="23,-204.5 23,-223.5 57,-223.5 57,-204.5 23,-204.5"/>
<text text-anchor="middle" x="40" y="-211.5" font-family="Helvetica,sans-Serif" font-size="10.00">Cell</text>
</a>
</g>
</g>
<!-- Node7&#45;&gt;Node5 -->
<g id="edge6" class="edge"><title>Node7&#45;&gt;Node5</title>
<path fill="none" stroke="#9a32cd" stroke-dasharray="5,2" d="M46.7405,-194.885C49.9899,-187.807 54.4116,-179.973 60,-174 67.4693,-166.016 77.8238,-159.585 86.7175,-155.004"/>
<polygon fill="#9a32cd" stroke="#9a32cd" points="43.3895,-193.831 42.8191,-204.411 49.8624,-196.496 43.3895,-193.831"/>
<text text-anchor="middle" x="80.5" y="-177.5" font-family="Helvetica,sans-Serif" font-size="10.00"> myCells</text>
</g>
<!-- Node8 -->
<g id="node8" class="node"><title>Node8</title>
<polygon fill="white" stroke="#bfbfbf" points="102,-272.5 102,-291.5 148,-291.5 148,-272.5 102,-272.5"/>
<text text-anchor="middle" x="125" y="-279.5" font-family="Helvetica,sans-Serif" font-size="10.00">Group</text>
</g>
<!-- Node8&#45;&gt;Node3 -->
<g id="edge10" class="edge"><title>Node8&#45;&gt;Node3</title>
<path fill="none" stroke="#9a32cd" stroke-dasharray="5,2" d="M131.991,-262.899C135.941,-251.838 140.562,-237.305 143,-224 152.464,-172.348 159.901,-157.368 149,-106 147.637,-99.5771 144.637,-92.8271 141.978,-87.6828"/>
<polygon fill="#9a32cd" stroke="#9a32cd" points="128.705,-261.694 128.503,-272.287 135.267,-264.132 128.705,-261.694"/>
<text text-anchor="middle" x="173" y="-177.5" font-family="Helvetica,sans-Serif" font-size="10.00"> myRoot</text>
</g>
<!-- Node8&#45;&gt;Node7 -->
<g id="edge7" class="edge"><title>Node8&#45;&gt;Node7</title>
<path fill="none" stroke="midnightblue" d="M106.993,-266C98.0605,-258.655 87.056,-249.746 77,-242 68.8103,-235.692 59.3969,-228.828 52.1146,-223.599"/>
<polygon fill="midnightblue" stroke="midnightblue" points="104.887,-268.8 114.824,-272.475 109.347,-263.406 104.887,-268.8"/>
</g>
<!-- Node9 -->
<g id="node9" class="node"><title>Node9</title>
<polygon fill="white" stroke="#bfbfbf" points="16.5,-272.5 16.5,-291.5 63.5,-291.5 63.5,-272.5 16.5,-272.5"/>
<text text-anchor="middle" x="40" y="-279.5" font-family="Helvetica,sans-Serif" font-size="10.00">Shape</text>
</g>
<!-- Node9&#45;&gt;Node7 -->
<g id="edge8" class="edge"><title>Node9&#45;&gt;Node7</title>
<path fill="none" stroke="#9a32cd" stroke-dasharray="5,2" d="M40,-262.041C40,-249.472 40,-233.563 40,-223.841"/>
<polygon fill="#9a32cd" stroke="#9a32cd" points="36.5001,-262.372 40,-272.372 43.5001,-262.372 36.5001,-262.372"/>
<text text-anchor="middle" x="56.5" y="-245.5" font-family="Helvetica,sans-Serif" font-size="10.00"> shape</text>
</g>
<!-- Node10 -->
<g id="node10" class="node"><title>Node10</title>
<polygon fill="white" stroke="#bfbfbf" points="191,-136.5 191,-155.5 311,-155.5 311,-136.5 191,-136.5"/>
<text text-anchor="middle" x="251" y="-143.5" font-family="Helvetica,sans-Serif" font-size="10.00">Map&lt; String, State &gt;</text>
</g>
<!-- Node10&#45;&gt;Node3 -->
<g id="edge9" class="edge"><title>Node10&#45;&gt;Node3</title>
<path fill="none" stroke="#9a32cd" stroke-dasharray="5,2" d="M227.406,-131.34C204.715,-118.204 171.111,-98.7487 151.907,-87.6305"/>
<polygon fill="#9a32cd" stroke="#9a32cd" points="225.689,-134.39 236.096,-136.372 229.196,-128.332 225.689,-134.39"/>
<text text-anchor="middle" x="229" y="-109.5" font-family="Helvetica,sans-Serif" font-size="10.00"> myStates</text>
</g>
</g>
</svg>
