<?xml version="1.0" encoding="UTF-8" standalone="no"?>
<!DOCTYPE svg PUBLIC "-//W3C//DTD SVG 1.1//EN"
 "http://www.w3.org/Graphics/SVG/1.1/DTD/svg11.dtd">
<!-- Generated by graphviz version 2.36.0 (20140111.2315)
 -->
<!-- Title: GameOfLife.ruleTwo Pages: 1 -->
<svg width="572pt" height="199pt"
 viewBox="0.00 0.00 572.00 199.00" xmlns="http://www.w3.org/2000/svg" xmlns:xlink="http://www.w3.org/1999/xlink">
<g id="graph0" class="graph" transform="scale(1 1) rotate(0) translate(4 195)">
<title>GameOfLife.ruleTwo</title>
<polygon fill="white" stroke="none" points="-4,4 -4,-195 568,-195 568,4 -4,4"/>
<!-- Node1 -->
<g id="node1" class="node"><title>Node1</title>
<polygon fill="#bfbfbf" stroke="black" points="0,-57.5 0,-76.5 110,-76.5 110,-57.5 0,-57.5"/>
<text text-anchor="middle" x="55" y="-64.5" font-family="Helvetica,sans-Serif" font-size="10.00">GameOfLife.ruleTwo</text>
</g>
<!-- Node2 -->
<g id="node2" class="node"><title>Node2</title>
<g id="a_node2"><a xlink:href="../../da/d74/class_grid.html#a43e84876ecfc5265a5e37a39e64e794e" target="_top" xlink:title="Grid.findNeighbors">
<polygon fill="white" stroke="black" points="162.5,-114.5 162.5,-133.5 267.5,-133.5 267.5,-114.5 162.5,-114.5"/>
<text text-anchor="middle" x="215" y="-121.5" font-family="Helvetica,sans-Serif" font-size="10.00">Grid.findNeighbors</text>
</a>
</g>
</g>
<!-- Node1&#45;&gt;Node2 -->
<g id="edge1" class="edge"><title>Node1&#45;&gt;Node2</title>
<path fill="none" stroke="midnightblue" d="M76.4416,-76.5105C94.4963,-84.6974 121.661,-96.5002 146,-105 152.609,-107.308 159.653,-109.532 166.61,-111.594"/>
<polygon fill="midnightblue" stroke="midnightblue" points="166.1,-115.09 176.678,-114.491 168.036,-108.362 166.1,-115.09"/>
</g>
<!-- Node8 -->
<g id="node8" class="node"><title>Node8</title>
<g id="a_node8"><a xlink:href="../../d2/d40/class_cellular_automata.html#a34ceed434c942d34ff03169b92684726" target="_top" xlink:title="CellularAutomata.getGrid">
<polygon fill="white" stroke="black" points="146,-76.5 146,-95.5 284,-95.5 284,-76.5 146,-76.5"/>
<text text-anchor="middle" x="215" y="-83.5" font-family="Helvetica,sans-Serif" font-size="10.00">CellularAutomata.getGrid</text>
</a>
</g>
</g>
<!-- Node1&#45;&gt;Node8 -->
<g id="edge7" class="edge"><title>Node1&#45;&gt;Node8</title>
<path fill="none" stroke="midnightblue" d="M110.375,-73.5387C118.587,-74.5263 127.194,-75.5613 135.788,-76.5948"/>
<polygon fill="midnightblue" stroke="midnightblue" points="135.501,-80.0854 145.847,-77.8044 136.337,-73.1354 135.501,-80.0854"/>
</g>
<!-- Node9 -->
<g id="node9" class="node"><title>Node9</title>
<g id="a_node9"><a xlink:href="../../dd/d11/class_cell.html#aa625dbd39334a9a13a7bb87c98d5fcbe" target="_top" xlink:title="Cell.isState">
<polygon fill="white" stroke="black" points="179.5,-38.5 179.5,-57.5 250.5,-57.5 250.5,-38.5 179.5,-38.5"/>
<text text-anchor="middle" x="215" y="-45.5" font-family="Helvetica,sans-Serif" font-size="10.00">Cell.isState</text>
</a>
</g>
</g>
<!-- Node1&#45;&gt;Node9 -->
<g id="edge8" class="edge"><title>Node1&#45;&gt;Node9</title>
<path fill="none" stroke="midnightblue" d="M110.375,-60.4613C129.567,-58.1534 150.913,-55.5864 169.22,-53.3849"/>
<polygon fill="midnightblue" stroke="midnightblue" points="169.816,-56.8386 179.326,-52.1696 168.98,-49.8887 169.816,-56.8386"/>
</g>
<!-- Node10 -->
<g id="node10" class="node"><title>Node10</title>
<g id="a_node10"><a xlink:href="../../dd/d11/class_cell.html#a6ddc434a1826fac1599a7d901ff2d162" target="_top" xlink:title="Cell.setNextState">
<polygon fill="white" stroke="black" points="164.5,-0.5 164.5,-19.5 265.5,-19.5 265.5,-0.5 164.5,-0.5"/>
<text text-anchor="middle" x="215" y="-7.5" font-family="Helvetica,sans-Serif" font-size="10.00">Cell.setNextState</text>
</a>
</g>
</g>
<!-- Node1&#45;&gt;Node10 -->
<g id="edge9" class="edge"><title>Node1&#45;&gt;Node10</title>
<path fill="none" stroke="midnightblue" d="M76.4416,-57.4895C94.4963,-49.3026 121.661,-37.4998 146,-29 152.609,-26.692 159.653,-24.4682 166.61,-22.4058"/>
<polygon fill="midnightblue" stroke="midnightblue" points="168.036,-25.6376 176.678,-19.5088 166.1,-18.9105 168.036,-25.6376"/>
</g>
<!-- Node3 -->
<g id="node3" class="node"><title>Node3</title>
<g id="a_node3"><a xlink:href="../../da/d74/class_grid.html#a33b84a1d6b40a447bdd4a33fa3daf555" target="_top" xlink:title="Grid.getNeighbors">
<polygon fill="white" stroke="black" points="320,-114.5 320,-133.5 424,-133.5 424,-114.5 320,-114.5"/>
<text text-anchor="middle" x="372" y="-121.5" font-family="Helvetica,sans-Serif" font-size="10.00">Grid.getNeighbors</text>
</a>
</g>
</g>
<!-- Node2&#45;&gt;Node3 -->
<g id="edge2" class="edge"><title>Node2&#45;&gt;Node3</title>
<path fill="none" stroke="midnightblue" d="M267.613,-124C281.148,-124 295.873,-124 309.855,-124"/>
<polygon fill="midnightblue" stroke="midnightblue" points="309.876,-127.5 319.876,-124 309.876,-120.5 309.876,-127.5"/>
</g>
<!-- Node4 -->
<g id="node4" class="node"><title>Node4</title>
<g id="a_node4"><a xlink:href="../../dd/d11/class_cell.html#a4725094202cf38c727f2adcc3cf8b96f" target="_top" xlink:title="Cell.getPosX">
<polygon fill="white" stroke="black" points="474,-171.5 474,-190.5 550,-190.5 550,-171.5 474,-171.5"/>
<text text-anchor="middle" x="512" y="-178.5" font-family="Helvetica,sans-Serif" font-size="10.00">Cell.getPosX</text>
</a>
</g>
</g>
<!-- Node3&#45;&gt;Node4 -->
<g id="edge3" class="edge"><title>Node3&#45;&gt;Node4</title>
<path fill="none" stroke="midnightblue" d="M393.958,-133.542C411.495,-141.432 437.232,-152.795 460,-162 464.804,-163.942 469.891,-165.925 474.918,-167.84"/>
<polygon fill="midnightblue" stroke="midnightblue" points="473.831,-171.171 484.423,-171.415 476.295,-164.619 473.831,-171.171"/>
</g>
<!-- Node5 -->
<g id="node5" class="node"><title>Node5</title>
<g id="a_node5"><a xlink:href="../../dd/d11/class_cell.html#ac445ab365d1ec19483e98841be73d11e" target="_top" xlink:title="Cell.getPosY">
<polygon fill="white" stroke="black" points="474.5,-133.5 474.5,-152.5 549.5,-152.5 549.5,-133.5 474.5,-133.5"/>
<text text-anchor="middle" x="512" y="-140.5" font-family="Helvetica,sans-Serif" font-size="10.00">Cell.getPosY</text>
</a>
</g>
</g>
<!-- Node3&#45;&gt;Node5 -->
<g id="edge4" class="edge"><title>Node3&#45;&gt;Node5</title>
<path fill="none" stroke="midnightblue" d="M424.386,-131.075C437.447,-132.873 451.41,-134.796 464.228,-136.56"/>
<polygon fill="midnightblue" stroke="midnightblue" points="463.838,-140.04 474.222,-137.936 464.793,-133.105 463.838,-140.04"/>
</g>
<!-- Node6 -->
<g id="node6" class="node"><title>Node6</title>
<g id="a_node6"><a xlink:href="../../da/d74/class_grid.html#a669941947881f795a6ab4a70adf05172" target="_top" xlink:title="Grid.getTorusPoint">
<polygon fill="white" stroke="black" points="460,-95.5 460,-114.5 564,-114.5 564,-95.5 460,-95.5"/>
<text text-anchor="middle" x="512" y="-102.5" font-family="Helvetica,sans-Serif" font-size="10.00">Grid.getTorusPoint</text>
</a>
</g>
</g>
<!-- Node3&#45;&gt;Node6 -->
<g id="edge5" class="edge"><title>Node3&#45;&gt;Node6</title>
<path fill="none" stroke="midnightblue" d="M424.386,-116.925C432.558,-115.8 441.083,-114.626 449.46,-113.473"/>
<polygon fill="midnightblue" stroke="midnightblue" points="450.142,-116.912 459.571,-112.081 449.187,-109.978 450.142,-116.912"/>
</g>
<!-- Node7 -->
<g id="node7" class="node"><title>Node7</title>
<g id="a_node7"><a xlink:href="../../da/d74/class_grid.html#ab87098d7bfaf1eaf367e4342a5bce0ae" target="_top" xlink:title="Grid.checkBounds">
<polygon fill="white" stroke="black" points="460.5,-57.5 460.5,-76.5 563.5,-76.5 563.5,-57.5 460.5,-57.5"/>
<text text-anchor="middle" x="512" y="-64.5" font-family="Helvetica,sans-Serif" font-size="10.00">Grid.checkBounds</text>
</a>
</g>
</g>
<!-- Node3&#45;&gt;Node7 -->
<g id="edge6" class="edge"><title>Node3&#45;&gt;Node7</title>
<path fill="none" stroke="midnightblue" d="M393.958,-114.458C411.495,-106.568 437.232,-95.2052 460,-86 464.804,-84.0576 469.891,-82.0755 474.918,-80.1597"/>
<polygon fill="midnightblue" stroke="midnightblue" points="476.295,-83.3813 484.423,-76.5855 473.831,-76.8293 476.295,-83.3813"/>
</g>
</g>
</svg>
