<?xml version="1.0" encoding="UTF-8" standalone="no"?>
<!DOCTYPE svg PUBLIC "-//W3C//DTD SVG 1.1//EN"
 "http://www.w3.org/Graphics/SVG/1.1/DTD/svg11.dtd">
<!-- Generated by graphviz version 2.36.0 (20140111.2315)
 -->
<!-- Title: GameOfLife.applyRules Pages: 1 -->
<svg width="656pt" height="180pt"
 viewBox="0.00 0.00 656.00 180.00" xmlns="http://www.w3.org/2000/svg" xmlns:xlink="http://www.w3.org/1999/xlink">
<g id="graph0" class="graph" transform="scale(1 1) rotate(0) translate(4 176)">
<title>GameOfLife.applyRules</title>
<polygon fill="white" stroke="none" points="-4,4 -4,-176 652,-176 652,4 -4,4"/>
<!-- Node1 -->
<g id="node1" class="node"><title>Node1</title>
<polygon fill="#bfbfbf" stroke="black" points="0,-76.5 0,-95.5 126,-95.5 126,-76.5 0,-76.5"/>
<text text-anchor="middle" x="63" y="-83.5" font-family="Helvetica,sans-Serif" font-size="10.00">GameOfLife.applyRules</text>
</g>
<!-- Node2 -->
<g id="node2" class="node"><title>Node2</title>
<g id="a_node2"><a xlink:href="../../d2/d40/class_cellular_automata.html#a30b0063e34ebf6ee66b68acd1b86d5da" target="_top" xlink:title="CellularAutomata.getMyStates">
<polygon fill="white" stroke="black" points="162,-114.5 162,-133.5 326,-133.5 326,-114.5 162,-114.5"/>
<text text-anchor="middle" x="244" y="-121.5" font-family="Helvetica,sans-Serif" font-size="10.00">CellularAutomata.getMyStates</text>
</a>
</g>
</g>
<!-- Node1&#45;&gt;Node2 -->
<g id="edge1" class="edge"><title>Node1&#45;&gt;Node2</title>
<path fill="none" stroke="midnightblue" d="M109.169,-95.589C133.216,-100.694 162.974,-107.011 188.319,-112.392"/>
<polygon fill="midnightblue" stroke="midnightblue" points="187.647,-115.827 198.156,-114.48 189.1,-108.98 187.647,-115.827"/>
</g>
<!-- Node3 -->
<g id="node3" class="node"><title>Node3</title>
<g id="a_node3"><a xlink:href="../../d8/d84/class_game_of_life.html#aca7cd11a349cf14c940011021f91127f" target="_top" xlink:title="GameOfLife.ruleOne">
<polygon fill="white" stroke="black" points="187.5,-38.5 187.5,-57.5 300.5,-57.5 300.5,-38.5 187.5,-38.5"/>
<text text-anchor="middle" x="244" y="-45.5" font-family="Helvetica,sans-Serif" font-size="10.00">GameOfLife.ruleOne</text>
</a>
</g>
</g>
<!-- Node1&#45;&gt;Node3 -->
<g id="edge2" class="edge"><title>Node1&#45;&gt;Node3</title>
<path fill="none" stroke="midnightblue" d="M109.169,-76.411C133.216,-71.3061 162.974,-64.9887 188.319,-59.6082"/>
<polygon fill="midnightblue" stroke="midnightblue" points="189.1,-63.0205 198.156,-57.5201 187.647,-56.1731 189.1,-63.0205"/>
</g>
<!-- Node11 -->
<g id="node11" class="node"><title>Node11</title>
<g id="a_node11"><a xlink:href="../../d8/d84/class_game_of_life.html#a6b6c946c47342fd7e4595710d72a9217" target="_top" xlink:title="GameOfLife.ruleTwo">
<polygon fill="white" stroke="black" points="189,-76.5 189,-95.5 299,-95.5 299,-76.5 189,-76.5"/>
<text text-anchor="middle" x="244" y="-83.5" font-family="Helvetica,sans-Serif" font-size="10.00">GameOfLife.ruleTwo</text>
</a>
</g>
</g>
<!-- Node1&#45;&gt;Node11 -->
<g id="edge10" class="edge"><title>Node1&#45;&gt;Node11</title>
<path fill="none" stroke="midnightblue" d="M126.103,-86C142.994,-86 161.327,-86 178.355,-86"/>
<polygon fill="midnightblue" stroke="midnightblue" points="178.765,-89.5001 188.765,-86 178.765,-82.5001 178.765,-89.5001"/>
</g>
<!-- Node4 -->
<g id="node4" class="node"><title>Node4</title>
<g id="a_node4"><a xlink:href="../../d2/d40/class_cellular_automata.html#a5f076a375459bb648b121e1b34b2ef17" target="_top" xlink:title="CellularAutomata.findState">
<polygon fill="white" stroke="black" points="362,-38.5 362,-57.5 508,-57.5 508,-38.5 362,-38.5"/>
<text text-anchor="middle" x="435" y="-45.5" font-family="Helvetica,sans-Serif" font-size="10.00">CellularAutomata.findState</text>
</a>
</g>
</g>
<!-- Node3&#45;&gt;Node4 -->
<g id="edge3" class="edge"><title>Node3&#45;&gt;Node4</title>
<path fill="none" stroke="midnightblue" d="M300.684,-48C316.704,-48 334.525,-48 351.79,-48"/>
<polygon fill="midnightblue" stroke="midnightblue" points="351.873,-51.5001 361.873,-48 351.873,-44.5001 351.873,-51.5001"/>
</g>
<!-- Node5 -->
<g id="node5" class="node"><title>Node5</title>
<g id="a_node5"><a xlink:href="../../d2/d40/class_cellular_automata.html#a34ceed434c942d34ff03169b92684726" target="_top" xlink:title="CellularAutomata.getGrid">
<polygon fill="white" stroke="black" points="366,-0.5 366,-19.5 504,-19.5 504,-0.5 366,-0.5"/>
<text text-anchor="middle" x="435" y="-7.5" font-family="Helvetica,sans-Serif" font-size="10.00">CellularAutomata.getGrid</text>
</a>
</g>
</g>
<!-- Node3&#45;&gt;Node5 -->
<g id="edge4" class="edge"><title>Node3&#45;&gt;Node5</title>
<path fill="none" stroke="midnightblue" d="M292.693,-38.411C318.195,-33.2835 349.782,-26.9328 376.62,-21.5368"/>
<polygon fill="midnightblue" stroke="midnightblue" points="377.536,-24.9226 386.65,-19.5201 376.157,-18.0599 377.536,-24.9226"/>
</g>
<!-- Node6 -->
<g id="node6" class="node"><title>Node6</title>
<g id="a_node6"><a xlink:href="../../da/d74/class_grid.html#a33b84a1d6b40a447bdd4a33fa3daf555" target="_top" xlink:title="Grid.getNeighbors">
<polygon fill="white" stroke="black" points="383,-114.5 383,-133.5 487,-133.5 487,-114.5 383,-114.5"/>
<text text-anchor="middle" x="435" y="-121.5" font-family="Helvetica,sans-Serif" font-size="10.00">Grid.getNeighbors</text>
</a>
</g>
</g>
<!-- Node3&#45;&gt;Node6 -->
<g id="edge5" class="edge"><title>Node3&#45;&gt;Node6</title>
<path fill="none" stroke="midnightblue" d="M300.67,-56.5114C309.48,-59.1248 318.235,-62.5393 326,-67 346.173,-78.5881 341.989,-93.1346 362,-105 365.69,-107.188 369.634,-109.128 373.703,-110.848"/>
<polygon fill="midnightblue" stroke="midnightblue" points="372.774,-114.237 383.366,-114.473 375.233,-107.684 372.774,-114.237"/>
</g>
<!-- Node10 -->
<g id="node10" class="node"><title>Node10</title>
<g id="a_node10"><a xlink:href="../../d0/d8b/class_state.html#ad60b238c28b23c6e04c5d2be9b525b4c" target="_top" xlink:title="State.addToUpdate">
<polygon fill="white" stroke="black" points="380.5,-76.5 380.5,-95.5 489.5,-95.5 489.5,-76.5 380.5,-76.5"/>
<text text-anchor="middle" x="435" y="-83.5" font-family="Helvetica,sans-Serif" font-size="10.00">State.addToUpdate</text>
</a>
</g>
</g>
<!-- Node3&#45;&gt;Node10 -->
<g id="edge9" class="edge"><title>Node3&#45;&gt;Node10</title>
<path fill="none" stroke="midnightblue" d="M292.693,-57.589C318.195,-62.7165 349.782,-69.0672 376.62,-74.4632"/>
<polygon fill="midnightblue" stroke="midnightblue" points="376.157,-77.9401 386.65,-76.4799 377.536,-71.0774 376.157,-77.9401"/>
</g>
<!-- Node7 -->
<g id="node7" class="node"><title>Node7</title>
<g id="a_node7"><a xlink:href="../../dd/d11/class_cell.html#a4725094202cf38c727f2adcc3cf8b96f" target="_top" xlink:title="Cell.getPosX">
<polygon fill="white" stroke="black" points="558,-152.5 558,-171.5 634,-171.5 634,-152.5 558,-152.5"/>
<text text-anchor="middle" x="596" y="-159.5" font-family="Helvetica,sans-Serif" font-size="10.00">Cell.getPosX</text>
</a>
</g>
</g>
<!-- Node6&#45;&gt;Node7 -->
<g id="edge6" class="edge"><title>Node6&#45;&gt;Node7</title>
<path fill="none" stroke="midnightblue" d="M476.122,-133.589C498,-138.818 525.2,-145.318 548.059,-150.781"/>
<polygon fill="midnightblue" stroke="midnightblue" points="547.351,-154.211 557.891,-153.131 548.978,-147.402 547.351,-154.211"/>
</g>
<!-- Node8 -->
<g id="node8" class="node"><title>Node8</title>
<g id="a_node8"><a xlink:href="../../dd/d11/class_cell.html#ac445ab365d1ec19483e98841be73d11e" target="_top" xlink:title="Cell.getPosY">
<polygon fill="white" stroke="black" points="558.5,-114.5 558.5,-133.5 633.5,-133.5 633.5,-114.5 558.5,-114.5"/>
<text text-anchor="middle" x="596" y="-121.5" font-family="Helvetica,sans-Serif" font-size="10.00">Cell.getPosY</text>
</a>
</g>
</g>
<!-- Node6&#45;&gt;Node8 -->
<g id="edge7" class="edge"><title>Node6&#45;&gt;Node8</title>
<path fill="none" stroke="midnightblue" d="M487.184,-124C506.64,-124 528.698,-124 547.772,-124"/>
<polygon fill="midnightblue" stroke="midnightblue" points="548.026,-127.5 558.026,-124 548.026,-120.5 548.026,-127.5"/>
</g>
<!-- Node9 -->
<g id="node9" class="node"><title>Node9</title>
<g id="a_node9"><a xlink:href="../../da/d74/class_grid.html#ab87098d7bfaf1eaf367e4342a5bce0ae" target="_top" xlink:title="Grid.checkBounds">
<polygon fill="white" stroke="black" points="544.5,-76.5 544.5,-95.5 647.5,-95.5 647.5,-76.5 544.5,-76.5"/>
<text text-anchor="middle" x="596" y="-83.5" font-family="Helvetica,sans-Serif" font-size="10.00">Grid.checkBounds</text>
</a>
</g>
</g>
<!-- Node6&#45;&gt;Node9 -->
<g id="edge8" class="edge"><title>Node6&#45;&gt;Node9</title>
<path fill="none" stroke="midnightblue" d="M476.122,-114.411C497.104,-109.396 522.982,-103.212 545.23,-97.8947"/>
<polygon fill="midnightblue" stroke="midnightblue" points="546.254,-101.249 555.166,-95.5201 544.626,-94.4405 546.254,-101.249"/>
</g>
<!-- Node11&#45;&gt;Node4 -->
<g id="edge11" class="edge"><title>Node11&#45;&gt;Node4</title>
<path fill="none" stroke="midnightblue" d="M292.693,-76.411C318.195,-71.2835 349.782,-64.9328 376.62,-59.5368"/>
<polygon fill="midnightblue" stroke="midnightblue" points="377.536,-62.9226 386.65,-57.5201 376.157,-56.0599 377.536,-62.9226"/>
</g>
<!-- Node11&#45;&gt;Node5 -->
<g id="edge12" class="edge"><title>Node11&#45;&gt;Node5</title>
<path fill="none" stroke="midnightblue" d="M299.391,-77.8624C308.63,-75.2032 317.859,-71.6766 326,-67 346.173,-55.4119 341.989,-40.8654 362,-29 365.69,-26.8118 369.634,-24.8716 373.703,-23.1519"/>
<polygon fill="midnightblue" stroke="midnightblue" points="375.233,-26.3164 383.366,-19.5265 372.774,-19.7625 375.233,-26.3164"/>
</g>
<!-- Node11&#45;&gt;Node6 -->
<g id="edge13" class="edge"><title>Node11&#45;&gt;Node6</title>
<path fill="none" stroke="midnightblue" d="M292.693,-95.589C318.195,-100.716 349.782,-107.067 376.62,-112.463"/>
<polygon fill="midnightblue" stroke="midnightblue" points="376.157,-115.94 386.65,-114.48 377.536,-109.077 376.157,-115.94"/>
</g>
<!-- Node11&#45;&gt;Node10 -->
<g id="edge14" class="edge"><title>Node11&#45;&gt;Node10</title>
<path fill="none" stroke="midnightblue" d="M299.16,-86C321.394,-86 347.297,-86 370.422,-86"/>
<polygon fill="midnightblue" stroke="midnightblue" points="370.486,-89.5001 380.486,-86 370.486,-82.5001 370.486,-89.5001"/>
</g>
</g>
</svg>
