<?xml version="1.0" encoding="UTF-8" standalone="no"?>
<!DOCTYPE svg PUBLIC "-//W3C//DTD SVG 1.1//EN"
 "http://www.w3.org/Graphics/SVG/1.1/DTD/svg11.dtd">
<!-- Generated by graphviz version 2.36.0 (20140111.2315)
 -->
<!-- Title: GameOfLife.ruleOne Pages: 1 -->
<svg width="444pt" height="180pt"
 viewBox="0.00 0.00 444.00 180.00" xmlns="http://www.w3.org/2000/svg" xmlns:xlink="http://www.w3.org/1999/xlink">
<g id="graph0" class="graph" transform="scale(1 1) rotate(0) translate(4 176)">
<title>GameOfLife.ruleOne</title>
<polygon fill="white" stroke="none" points="-4,4 -4,-176 440,-176 440,4 -4,4"/>
<!-- Node1 -->
<g id="node1" class="node"><title>Node1</title>
<polygon fill="#bfbfbf" stroke="black" points="0.5,-95.5 0.5,-114.5 113.5,-114.5 113.5,-95.5 0.5,-95.5"/>
<text text-anchor="middle" x="57" y="-102.5" font-family="Helvetica,sans-Serif" font-size="10.00">GameOfLife.ruleOne</text>
</g>
<!-- Node2 -->
<g id="node2" class="node"><title>Node2</title>
<g id="a_node2"><a xlink:href="../../d0/d8b/class_state.html#ad60b238c28b23c6e04c5d2be9b525b4c" target="_top" xlink:title="State.addToUpdate">
<polygon fill="white" stroke="black" points="168.5,-152.5 168.5,-171.5 277.5,-171.5 277.5,-152.5 168.5,-152.5"/>
<text text-anchor="middle" x="223" y="-159.5" font-family="Helvetica,sans-Serif" font-size="10.00">State.addToUpdate</text>
</a>
</g>
</g>
<!-- Node1&#45;&gt;Node2 -->
<g id="edge1" class="edge"><title>Node1&#45;&gt;Node2</title>
<path fill="none" stroke="midnightblue" d="M78.889,-114.568C97.3405,-122.792 125.107,-134.616 150,-143 157.156,-145.41 164.794,-147.709 172.322,-149.823"/>
<polygon fill="midnightblue" stroke="midnightblue" points="171.537,-153.237 182.106,-152.488 173.378,-146.483 171.537,-153.237"/>
</g>
<!-- Node3 -->
<g id="node3" class="node"><title>Node3</title>
<g id="a_node3"><a xlink:href="../../d2/d40/class_cellular_automata.html#a5f076a375459bb648b121e1b34b2ef17" target="_top" xlink:title="CellularAutomata.findState">
<polygon fill="white" stroke="black" points="150,-114.5 150,-133.5 296,-133.5 296,-114.5 150,-114.5"/>
<text text-anchor="middle" x="223" y="-121.5" font-family="Helvetica,sans-Serif" font-size="10.00">CellularAutomata.findState</text>
</a>
</g>
</g>
<!-- Node1&#45;&gt;Node3 -->
<g id="edge2" class="edge"><title>Node1&#45;&gt;Node3</title>
<path fill="none" stroke="midnightblue" d="M113.523,-111.433C122.03,-112.418 130.963,-113.453 139.897,-114.488"/>
<polygon fill="midnightblue" stroke="midnightblue" points="139.626,-117.98 149.963,-115.654 140.432,-111.027 139.626,-117.98"/>
</g>
<!-- Node4 -->
<g id="node4" class="node"><title>Node4</title>
<g id="a_node4"><a xlink:href="../../d2/d40/class_cellular_automata.html#a34ceed434c942d34ff03169b92684726" target="_top" xlink:title="CellularAutomata.getGrid">
<polygon fill="white" stroke="black" points="154,-76.5 154,-95.5 292,-95.5 292,-76.5 154,-76.5"/>
<text text-anchor="middle" x="223" y="-83.5" font-family="Helvetica,sans-Serif" font-size="10.00">CellularAutomata.getGrid</text>
</a>
</g>
</g>
<!-- Node1&#45;&gt;Node4 -->
<g id="edge3" class="edge"><title>Node1&#45;&gt;Node4</title>
<path fill="none" stroke="midnightblue" d="M113.523,-98.5675C123.21,-97.4451 133.45,-96.2588 143.616,-95.0811"/>
<polygon fill="midnightblue" stroke="midnightblue" points="144.202,-98.5366 153.733,-93.909 143.397,-91.5831 144.202,-98.5366"/>
</g>
<!-- Node5 -->
<g id="node5" class="node"><title>Node5</title>
<g id="a_node5"><a xlink:href="../../da/d74/class_grid.html#a33b84a1d6b40a447bdd4a33fa3daf555" target="_top" xlink:title="Grid.getNeighbors">
<polygon fill="white" stroke="black" points="171,-38.5 171,-57.5 275,-57.5 275,-38.5 171,-38.5"/>
<text text-anchor="middle" x="223" y="-45.5" font-family="Helvetica,sans-Serif" font-size="10.00">Grid.getNeighbors</text>
</a>
</g>
</g>
<!-- Node1&#45;&gt;Node5 -->
<g id="edge4" class="edge"><title>Node1&#45;&gt;Node5</title>
<path fill="none" stroke="midnightblue" d="M78.889,-95.432C97.3405,-87.2082 125.107,-75.3837 150,-67 157.156,-64.59 164.794,-62.2908 172.322,-60.1771"/>
<polygon fill="midnightblue" stroke="midnightblue" points="173.378,-63.5173 182.106,-57.5117 171.537,-56.7634 173.378,-63.5173"/>
</g>
<!-- Node6 -->
<g id="node6" class="node"><title>Node6</title>
<g id="a_node6"><a xlink:href="../../dd/d11/class_cell.html#a4725094202cf38c727f2adcc3cf8b96f" target="_top" xlink:title="Cell.getPosX">
<polygon fill="white" stroke="black" points="346,-76.5 346,-95.5 422,-95.5 422,-76.5 346,-76.5"/>
<text text-anchor="middle" x="384" y="-83.5" font-family="Helvetica,sans-Serif" font-size="10.00">Cell.getPosX</text>
</a>
</g>
</g>
<!-- Node5&#45;&gt;Node6 -->
<g id="edge5" class="edge"><title>Node5&#45;&gt;Node6</title>
<path fill="none" stroke="midnightblue" d="M264.122,-57.589C286,-62.8176 313.2,-69.3183 336.059,-74.7815"/>
<polygon fill="midnightblue" stroke="midnightblue" points="335.351,-78.2107 345.891,-77.1312 336.978,-71.4025 335.351,-78.2107"/>
</g>
<!-- Node7 -->
<g id="node7" class="node"><title>Node7</title>
<g id="a_node7"><a xlink:href="../../dd/d11/class_cell.html#ac445ab365d1ec19483e98841be73d11e" target="_top" xlink:title="Cell.getPosY">
<polygon fill="white" stroke="black" points="346.5,-38.5 346.5,-57.5 421.5,-57.5 421.5,-38.5 346.5,-38.5"/>
<text text-anchor="middle" x="384" y="-45.5" font-family="Helvetica,sans-Serif" font-size="10.00">Cell.getPosY</text>
</a>
</g>
</g>
<!-- Node5&#45;&gt;Node7 -->
<g id="edge6" class="edge"><title>Node5&#45;&gt;Node7</title>
<path fill="none" stroke="midnightblue" d="M275.184,-48C294.64,-48 316.698,-48 335.772,-48"/>
<polygon fill="midnightblue" stroke="midnightblue" points="336.026,-51.5001 346.026,-48 336.026,-44.5001 336.026,-51.5001"/>
</g>
<!-- Node8 -->
<g id="node8" class="node"><title>Node8</title>
<g id="a_node8"><a xlink:href="../../da/d74/class_grid.html#ab87098d7bfaf1eaf367e4342a5bce0ae" target="_top" xlink:title="Grid.checkBounds">
<polygon fill="white" stroke="black" points="332.5,-0.5 332.5,-19.5 435.5,-19.5 435.5,-0.5 332.5,-0.5"/>
<text text-anchor="middle" x="384" y="-7.5" font-family="Helvetica,sans-Serif" font-size="10.00">Grid.checkBounds</text>
</a>
</g>
</g>
<!-- Node5&#45;&gt;Node8 -->
<g id="edge7" class="edge"><title>Node5&#45;&gt;Node8</title>
<path fill="none" stroke="midnightblue" d="M264.122,-38.411C285.104,-33.3965 310.982,-27.2119 333.23,-21.8947"/>
<polygon fill="midnightblue" stroke="midnightblue" points="334.254,-25.2487 343.166,-19.5201 332.626,-18.4405 334.254,-25.2487"/>
</g>
</g>
</svg>
