<?xml version="1.0" encoding="UTF-8" standalone="no"?>
<!DOCTYPE svg PUBLIC "-//W3C//DTD SVG 1.1//EN"
 "http://www.w3.org/Graphics/SVG/1.1/DTD/svg11.dtd">
<!-- Generated by graphviz version 2.36.0 (20140111.2315)
 -->
<!-- Title: GameOfLife.checkRules Pages: 1 -->
<!--zoomable 161 -->
<svg id="main" version="1.1" xmlns="http://www.w3.org/2000/svg" xmlns:xlink="http://www.w3.org/1999/xlink" xml:space="preserve" onload="init(evt)">
<style type="text/css"><![CDATA[
.edge:hover path { stroke: red; }
.edge:hover polygon { stroke: red; fill: red; }
]]></style>
<script type="text/javascript"><![CDATA[
var edges = document.getElementsByTagName('g');
if (edges && edges.length) {
  for (var i=0;i<edges.length;i++) {
    if (edges[i].id.substr(0,4)=='edge') {
      edges[i].setAttribute('class','edge');
    }
  }
}
]]></script>
        <defs>
                <circle id="rim" cx="0" cy="0" r="7"/>
                <circle id="rim2" cx="0" cy="0" r="3.5"/>
                <g id="zoomPlus">
                        <use xlink:href="#rim" fill="#404040">
                                <set attributeName="fill" to="#808080" begin="zoomplus.mouseover" end="zoomplus.mouseout"/>
                        </use>
                        <path d="M-4,0h8M0,-4v8" fill="none" stroke="white" stroke-width="1.5" pointer-events="none"/>
                </g>
                <g id="zoomMin">
                        <use xlink:href="#rim" fill="#404040">
                                <set attributeName="fill" to="#808080" begin="zoomminus.mouseover" end="zoomminus.mouseout"/>
                        </use>
                        <path d="M-4,0h8" fill="none" stroke="white" stroke-width="1.5" pointer-events="none"/>
                </g>
                <g id="dirArrow">
                        <path fill="none" stroke="white" stroke-width="1.5" d="M0,-3.0v7 M-2.5,-0.5L0,-3.0L2.5,-0.5"/>
                </g>
               <g id="resetDef">
                       <use xlink:href="#rim2" fill="#404040">
                               <set attributeName="fill" to="#808080" begin="reset.mouseover" end="reset.mouseout"/>
                       </use>
               </g>
        </defs>

<script type="text/javascript">
var viewWidth = 740;
var viewHeight = 161;
var sectionId = 'dynsection-3';
</script>
<script xlink:href="../../svgpan.js"/>
<svg id="graph" class="graph">
<g id="viewport">
<title>GameOfLife.checkRules</title>
<polygon fill="white" stroke="none" points="-4,4 -4,-157 736,-157 736,4 -4,4"/>
<!-- Node1 -->
<g id="node1" class="node"><title>Node1</title>
<polygon fill="#bfbfbf" stroke="black" points="0,-95.5 0,-114.5 128,-114.5 128,-95.5 0,-95.5"/>
<text text-anchor="middle" x="64" y="-102.5" font-family="Helvetica,sans-Serif" font-size="10.00">GameOfLife.checkRules</text>
</g>
<!-- Node2 -->
<g id="node2" class="node"><title>Node2</title>
<g id="a_node2"><a xlink:href="../../d2/d40/class_cellular_automata.html#a34ceed434c942d34ff03169b92684726" target="_top" xlink:title="CellularAutomata.getGrid">
<polygon fill="white" stroke="black" points="314,-133.5 314,-152.5 452,-152.5 452,-133.5 314,-133.5"/>
<text text-anchor="middle" x="383" y="-140.5" font-family="Helvetica,sans-Serif" font-size="10.00">CellularAutomata.getGrid</text>
</a>
</g>
</g>
<!-- Node1&#45;&gt;Node2 -->
<g id="edge1" class="edge"><title>Node1&#45;&gt;Node2</title>
<path fill="none" stroke="midnightblue" d="M109.685,-114.585C126.633,-117.954 146.146,-121.515 164,-124 210.059,-130.41 261.913,-135.034 303.49,-138.114"/>
<polygon fill="midnightblue" stroke="midnightblue" points="303.328,-141.612 313.556,-138.845 303.835,-134.63 303.328,-141.612"/>
</g>
<!-- Node3 -->
<g id="node3" class="node"><title>Node3</title>
<g id="a_node3"><a xlink:href="../../d8/d84/class_game_of_life.html#aca7cd11a349cf14c940011021f91127f" target="_top" xlink:title="GameOfLife.ruleOne">
<polygon fill="white" stroke="black" points="164.5,-57.5 164.5,-76.5 277.5,-76.5 277.5,-57.5 164.5,-57.5"/>
<text text-anchor="middle" x="221" y="-64.5" font-family="Helvetica,sans-Serif" font-size="10.00">GameOfLife.ruleOne</text>
</a>
</g>
</g>
<!-- Node1&#45;&gt;Node3 -->
<g id="edge2" class="edge"><title>Node1&#45;&gt;Node3</title>
<path fill="none" stroke="midnightblue" d="M104.113,-95.411C124.475,-90.4191 149.566,-84.2676 171.189,-78.9666"/>
<polygon fill="midnightblue" stroke="midnightblue" points="172.289,-82.3006 181.168,-76.5201 170.622,-75.5019 172.289,-82.3006"/>
</g>
<!-- Node12 -->
<g id="node12" class="node"><title>Node12</title>
<g id="a_node12"><a xlink:href="../../d8/d84/class_game_of_life.html#a6b6c946c47342fd7e4595710d72a9217" target="_top" xlink:title="GameOfLife.ruleTwo">
<polygon fill="white" stroke="black" points="166,-95.5 166,-114.5 276,-114.5 276,-95.5 166,-95.5"/>
<text text-anchor="middle" x="221" y="-102.5" font-family="Helvetica,sans-Serif" font-size="10.00">GameOfLife.ruleTwo</text>
</a>
</g>
</g>
<!-- Node1&#45;&gt;Node12 -->
<g id="edge12" class="edge"><title>Node1&#45;&gt;Node12</title>
<path fill="none" stroke="midnightblue" d="M128.044,-105C137.179,-105 146.591,-105 155.749,-105"/>
<polygon fill="midnightblue" stroke="midnightblue" points="155.952,-108.5 165.952,-105 155.952,-101.5 155.952,-108.5"/>
</g>
<!-- Node3&#45;&gt;Node2 -->
<g id="edge4" class="edge"><title>Node3&#45;&gt;Node2</title>
<path fill="none" stroke="midnightblue" d="M258.735,-76.5975C265.415,-79.1283 272.122,-82.2341 278,-86 297.589,-98.5495 294.075,-111.99 314,-124 317.602,-126.171 321.46,-128.102 325.441,-129.817"/>
<polygon fill="midnightblue" stroke="midnightblue" points="324.299,-133.128 334.89,-133.441 326.806,-126.592 324.299,-133.128"/>
</g>
<!-- Node4 -->
<g id="node4" class="node"><title>Node4</title>
<g id="a_node4"><a xlink:href="../../dd/d11/class_cell.html#aa625dbd39334a9a13a7bb87c98d5fcbe" target="_top" xlink:title="Cell.isState">
<polygon fill="white" stroke="black" points="347.5,-95.5 347.5,-114.5 418.5,-114.5 418.5,-95.5 347.5,-95.5"/>
<text text-anchor="middle" x="383" y="-102.5" font-family="Helvetica,sans-Serif" font-size="10.00">Cell.isState</text>
</a>
</g>
</g>
<!-- Node3&#45;&gt;Node4 -->
<g id="edge3" class="edge"><title>Node3&#45;&gt;Node4</title>
<path fill="none" stroke="midnightblue" d="M262.375,-76.589C285.299,-82.0335 314.03,-88.8572 337.59,-94.4525"/>
<polygon fill="midnightblue" stroke="midnightblue" points="336.8,-97.8622 347.338,-96.7677 338.417,-91.0517 336.8,-97.8622"/>
</g>
<!-- Node5 -->
<g id="node5" class="node"><title>Node5</title>
<g id="a_node5"><a xlink:href="../../da/d74/class_grid.html#a43e84876ecfc5265a5e37a39e64e794e" target="_top" xlink:title="Grid.findNeighbors">
<polygon fill="white" stroke="black" points="330.5,-57.5 330.5,-76.5 435.5,-76.5 435.5,-57.5 330.5,-57.5"/>
<text text-anchor="middle" x="383" y="-64.5" font-family="Helvetica,sans-Serif" font-size="10.00">Grid.findNeighbors</text>
</a>
</g>
</g>
<!-- Node3&#45;&gt;Node5 -->
<g id="edge5" class="edge"><title>Node3&#45;&gt;Node5</title>
<path fill="none" stroke="midnightblue" d="M277.511,-67C291.311,-67 306.186,-67 320.264,-67"/>
<polygon fill="midnightblue" stroke="midnightblue" points="320.348,-70.5001 330.348,-67 320.348,-63.5001 320.348,-70.5001"/>
</g>
<!-- Node11 -->
<g id="node11" class="node"><title>Node11</title>
<g id="a_node11"><a xlink:href="../../dd/d11/class_cell.html#a6ddc434a1826fac1599a7d901ff2d162" target="_top" xlink:title="Cell.setNextState">
<polygon fill="white" stroke="black" points="332.5,-19.5 332.5,-38.5 433.5,-38.5 433.5,-19.5 332.5,-19.5"/>
<text text-anchor="middle" x="383" y="-26.5" font-family="Helvetica,sans-Serif" font-size="10.00">Cell.setNextState</text>
</a>
</g>
</g>
<!-- Node3&#45;&gt;Node11 -->
<g id="edge11" class="edge"><title>Node3&#45;&gt;Node11</title>
<path fill="none" stroke="midnightblue" d="M262.375,-57.411C283.488,-52.3965 309.529,-46.2119 331.917,-40.8947"/>
<polygon fill="midnightblue" stroke="midnightblue" points="332.995,-44.2361 341.916,-38.5201 331.377,-37.4256 332.995,-44.2361"/>
</g>
<!-- Node6 -->
<g id="node6" class="node"><title>Node6</title>
<g id="a_node6"><a xlink:href="../../da/d74/class_grid.html#a33b84a1d6b40a447bdd4a33fa3daf555" target="_top" xlink:title="Grid.getNeighbors">
<polygon fill="white" stroke="black" points="488,-57.5 488,-76.5 592,-76.5 592,-57.5 488,-57.5"/>
<text text-anchor="middle" x="540" y="-64.5" font-family="Helvetica,sans-Serif" font-size="10.00">Grid.getNeighbors</text>
</a>
</g>
</g>
<!-- Node5&#45;&gt;Node6 -->
<g id="edge6" class="edge"><title>Node5&#45;&gt;Node6</title>
<path fill="none" stroke="midnightblue" d="M435.613,-67C449.148,-67 463.873,-67 477.855,-67"/>
<polygon fill="midnightblue" stroke="midnightblue" points="477.876,-70.5001 487.876,-67 477.876,-63.5001 477.876,-70.5001"/>
</g>
<!-- Node7 -->
<g id="node7" class="node"><title>Node7</title>
<g id="a_node7"><a xlink:href="../../dd/d11/class_cell.html#a4725094202cf38c727f2adcc3cf8b96f" target="_top" xlink:title="Cell.getPosX">
<polygon fill="white" stroke="black" points="642,-114.5 642,-133.5 718,-133.5 718,-114.5 642,-114.5"/>
<text text-anchor="middle" x="680" y="-121.5" font-family="Helvetica,sans-Serif" font-size="10.00">Cell.getPosX</text>
</a>
</g>
</g>
<!-- Node6&#45;&gt;Node7 -->
<g id="edge7" class="edge"><title>Node6&#45;&gt;Node7</title>
<path fill="none" stroke="midnightblue" d="M561.958,-76.5418C579.495,-84.4321 605.232,-95.7948 628,-105 632.804,-106.942 637.891,-108.925 642.918,-110.84"/>
<polygon fill="midnightblue" stroke="midnightblue" points="641.831,-114.171 652.423,-114.415 644.295,-107.619 641.831,-114.171"/>
</g>
<!-- Node8 -->
<g id="node8" class="node"><title>Node8</title>
<g id="a_node8"><a xlink:href="../../dd/d11/class_cell.html#ac445ab365d1ec19483e98841be73d11e" target="_top" xlink:title="Cell.getPosY">
<polygon fill="white" stroke="black" points="642.5,-76.5 642.5,-95.5 717.5,-95.5 717.5,-76.5 642.5,-76.5"/>
<text text-anchor="middle" x="680" y="-83.5" font-family="Helvetica,sans-Serif" font-size="10.00">Cell.getPosY</text>
</a>
</g>
</g>
<!-- Node6&#45;&gt;Node8 -->
<g id="edge8" class="edge"><title>Node6&#45;&gt;Node8</title>
<path fill="none" stroke="midnightblue" d="M592.386,-74.0749C605.447,-75.8731 619.41,-77.7956 632.228,-79.5603"/>
<polygon fill="midnightblue" stroke="midnightblue" points="631.838,-83.0397 642.222,-80.9364 632.793,-76.1051 631.838,-83.0397"/>
</g>
<!-- Node9 -->
<g id="node9" class="node"><title>Node9</title>
<g id="a_node9"><a xlink:href="../../da/d74/class_grid.html#a669941947881f795a6ab4a70adf05172" target="_top" xlink:title="Grid.getTorusPoint">
<polygon fill="white" stroke="black" points="628,-38.5 628,-57.5 732,-57.5 732,-38.5 628,-38.5"/>
<text text-anchor="middle" x="680" y="-45.5" font-family="Helvetica,sans-Serif" font-size="10.00">Grid.getTorusPoint</text>
</a>
</g>
</g>
<!-- Node6&#45;&gt;Node9 -->
<g id="edge9" class="edge"><title>Node6&#45;&gt;Node9</title>
<path fill="none" stroke="midnightblue" d="M592.386,-59.9251C600.558,-58.8 609.083,-57.6262 617.46,-56.4729"/>
<polygon fill="midnightblue" stroke="midnightblue" points="618.142,-59.9121 627.571,-55.0808 617.187,-52.9775 618.142,-59.9121"/>
</g>
<!-- Node10 -->
<g id="node10" class="node"><title>Node10</title>
<g id="a_node10"><a xlink:href="../../da/d74/class_grid.html#ab87098d7bfaf1eaf367e4342a5bce0ae" target="_top" xlink:title="Grid.checkBounds">
<polygon fill="white" stroke="black" points="628.5,-0.5 628.5,-19.5 731.5,-19.5 731.5,-0.5 628.5,-0.5"/>
<text text-anchor="middle" x="680" y="-7.5" font-family="Helvetica,sans-Serif" font-size="10.00">Grid.checkBounds</text>
</a>
</g>
</g>
<!-- Node6&#45;&gt;Node10 -->
<g id="edge10" class="edge"><title>Node6&#45;&gt;Node10</title>
<path fill="none" stroke="midnightblue" d="M561.958,-57.4582C579.495,-49.5679 605.232,-38.2052 628,-29 632.804,-27.0576 637.891,-25.0755 642.918,-23.1597"/>
<polygon fill="midnightblue" stroke="midnightblue" points="644.295,-26.3813 652.423,-19.5855 641.831,-19.8293 644.295,-26.3813"/>
</g>
<!-- Node12&#45;&gt;Node2 -->
<g id="edge14" class="edge"><title>Node12&#45;&gt;Node2</title>
<path fill="none" stroke="midnightblue" d="M262.375,-114.589C283.488,-119.604 309.529,-125.788 331.917,-131.105"/>
<polygon fill="midnightblue" stroke="midnightblue" points="331.377,-134.574 341.916,-133.48 332.995,-127.764 331.377,-134.574"/>
</g>
<!-- Node12&#45;&gt;Node4 -->
<g id="edge13" class="edge"><title>Node12&#45;&gt;Node4</title>
<path fill="none" stroke="midnightblue" d="M276.169,-105C296.057,-105 318.331,-105 337.296,-105"/>
<polygon fill="midnightblue" stroke="midnightblue" points="337.455,-108.5 347.455,-105 337.455,-101.5 337.455,-108.5"/>
</g>
<!-- Node12&#45;&gt;Node5 -->
<g id="edge15" class="edge"><title>Node12&#45;&gt;Node5</title>
<path fill="none" stroke="midnightblue" d="M262.375,-95.411C283.488,-90.3965 309.529,-84.2119 331.917,-78.8947"/>
<polygon fill="midnightblue" stroke="midnightblue" points="332.995,-82.2361 341.916,-76.5201 331.377,-75.4256 332.995,-82.2361"/>
</g>
<!-- Node12&#45;&gt;Node11 -->
<g id="edge16" class="edge"><title>Node12&#45;&gt;Node11</title>
<path fill="none" stroke="midnightblue" d="M258.735,-95.4025C265.415,-92.8717 272.122,-89.7659 278,-86 297.589,-73.4505 294.075,-60.0098 314,-48 317.602,-45.8288 321.46,-43.8983 325.441,-42.1829"/>
<polygon fill="midnightblue" stroke="midnightblue" points="326.806,-45.408 334.89,-38.559 324.299,-38.8723 326.806,-45.408"/>
</g>
</g>
</svg>
        <g id="navigator" transform="translate(0 0)" fill="#404254">
                <rect fill="#f2f5e9" fill-opacity="0.5" stroke="#606060" stroke-width=".5" x="0" y="0" width="60" height="60"/>
                <use id="zoomplus" xlink:href="#zoomPlus" x="17" y="9" onmousedown="handleZoom(evt,'in')"/>
                <use id="zoomminus" xlink:href="#zoomMin" x="42" y="9" onmousedown="handleZoom(evt,'out')"/>
                <use id="reset" xlink:href="#resetDef" x="30" y="36" onmousedown="handleReset()"/>
                <g id="arrowUp" xlink:href="#dirArrow" transform="translate(30 24)" onmousedown="handlePan(0,-1)">
                  <use xlink:href="#rim" fill="#404040">
                        <set attributeName="fill" to="#808080" begin="arrowUp.mouseover" end="arrowUp.mouseout"/>
                  </use>
                  <path fill="none" stroke="white" stroke-width="1.5" d="M0,-3.0v7 M-2.5,-0.5L0,-3.0L2.5,-0.5"/>
                </g>
                <g id="arrowRight" xlink:href="#dirArrow" transform="rotate(90) translate(36 -43)" onmousedown="handlePan(1,0)">
                  <use xlink:href="#rim" fill="#404040">
                        <set attributeName="fill" to="#808080" begin="arrowRight.mouseover" end="arrowRight.mouseout"/>
                  </use>
                  <path fill="none" stroke="white" stroke-width="1.5" d="M0,-3.0v7 M-2.5,-0.5L0,-3.0L2.5,-0.5"/>
                </g>
                <g id="arrowDown" xlink:href="#dirArrow" transform="rotate(180) translate(-30 -48)" onmousedown="handlePan(0,1)">
                  <use xlink:href="#rim" fill="#404040">
                        <set attributeName="fill" to="#808080" begin="arrowDown.mouseover" end="arrowDown.mouseout"/>
                  </use>
                  <path fill="none" stroke="white" stroke-width="1.5" d="M0,-3.0v7 M-2.5,-0.5L0,-3.0L2.5,-0.5"/>
                </g>
                <g id="arrowLeft" xlink:href="#dirArrow" transform="rotate(270) translate(-36 17)" onmousedown="handlePan(-1,0)">
                  <use xlink:href="#rim" fill="#404040">
                        <set attributeName="fill" to="#808080" begin="arrowLeft.mouseover" end="arrowLeft.mouseout"/>
                  </use>
                  <path fill="none" stroke="white" stroke-width="1.5" d="M0,-3.0v7 M-2.5,-0.5L0,-3.0L2.5,-0.5"/>
                </g>
        </g>
        <svg viewBox="0 0 15 15" width="100%" height="30px" preserveAspectRatio="xMaxYMin meet">
         <g id="arrow_out" transform="scale(0.3 0.3)">
          <a xlink:href="class_game_of_life_a0100556ddb7f59c44404450b7c386190_cgraph_org.svg" target="_base">
           <rect id="button" ry="5" rx="5" y="6" x="6" height="38" width="38"
                fill="#f2f5e9" fill-opacity="0.5" stroke="#606060" stroke-width="1.0"/>
           <path id="arrow"
             d="M 11.500037,31.436501 C 11.940474,20.09759 22.043105,11.32322 32.158766,21.979434 L 37.068811,17.246167 C 37.068811,17.246167 37.088388,32 37.088388,32 L 22.160133,31.978069 C 22.160133,31.978069 26.997745,27.140456 26.997745,27.140456 C 18.528582,18.264221 13.291696,25.230495 11.500037,31.436501 z"
             style="fill:#404040;"/>
          </a>
         </g>
        </svg>
</svg>
