<?xml version="1.0" encoding="UTF-8" standalone="no"?>
<!DOCTYPE svg PUBLIC "-//W3C//DTD SVG 1.1//EN"
 "http://www.w3.org/Graphics/SVG/1.1/DTD/svg11.dtd">
<!-- Generated by graphviz version 2.36.0 (20140111.2315)
 -->
<!-- Title: GameOfLife.GameOfLife Pages: 1 -->
<svg width="716pt" height="92pt"
 viewBox="0.00 0.00 716.00 92.21" xmlns="http://www.w3.org/2000/svg" xmlns:xlink="http://www.w3.org/1999/xlink">
<g id="graph0" class="graph" transform="scale(1 1) rotate(0) translate(4 88.2145)">
<title>GameOfLife.GameOfLife</title>
<polygon fill="white" stroke="none" points="-4,4 -4,-88.2145 712,-88.2145 712,4 -4,4"/>
<!-- Node1 -->
<g id="node1" class="node"><title>Node1</title>
<polygon fill="#bfbfbf" stroke="black" points="0,-44.5 0,-63.5 132,-63.5 132,-44.5 0,-44.5"/>
<text text-anchor="middle" x="66" y="-51.5" font-family="Helvetica,sans-Serif" font-size="10.00">GameOfLife.GameOfLife</text>
</g>
<!-- Node2 -->
<g id="node2" class="node"><title>Node2</title>
<g id="a_node2"><a xlink:href="../../d8/d84/class_game_of_life.html#aab00ca120baa15de020654ba9fe5d6d4" target="_top" xlink:title="GameOfLife.setUpInitialConfig">
<polygon fill="white" stroke="black" points="168.5,-44.5 168.5,-63.5 327.5,-63.5 327.5,-44.5 168.5,-44.5"/>
<text text-anchor="middle" x="248" y="-51.5" font-family="Helvetica,sans-Serif" font-size="10.00">GameOfLife.setUpInitialConfig</text>
</a>
</g>
</g>
<!-- Node1&#45;&gt;Node2 -->
<g id="edge1" class="edge"><title>Node1&#45;&gt;Node2</title>
<path fill="none" stroke="midnightblue" d="M132.239,-54C140.699,-54 149.477,-54 158.238,-54"/>
<polygon fill="midnightblue" stroke="midnightblue" points="158.497,-57.5001 168.497,-54 158.497,-50.5001 158.497,-57.5001"/>
</g>
<!-- Node3 -->
<g id="node3" class="node"><title>Node3</title>
<g id="a_node3"><a xlink:href="../../d2/d40/class_cellular_automata.html#a34ceed434c942d34ff03169b92684726" target="_top" xlink:title="CellularAutomata.getGrid">
<polygon fill="white" stroke="black" points="570,-44.5 570,-63.5 708,-63.5 708,-44.5 570,-44.5"/>
<text text-anchor="middle" x="639" y="-51.5" font-family="Helvetica,sans-Serif" font-size="10.00">CellularAutomata.getGrid</text>
</a>
</g>
</g>
<!-- Node2&#45;&gt;Node3 -->
<g id="edge2" class="edge"><title>Node2&#45;&gt;Node3</title>
<path fill="none" stroke="midnightblue" d="M285.213,-63.5537C307.708,-68.9886 337.322,-75.2459 364,-78 439.156,-85.7588 458.93,-86.5496 534,-78 554.444,-75.6717 576.72,-70.8476 595.392,-66.131"/>
<polygon fill="midnightblue" stroke="midnightblue" points="596.281,-69.5165 605.079,-63.6135 594.52,-62.7415 596.281,-69.5165"/>
</g>
<!-- Node4 -->
<g id="node4" class="node"><title>Node4</title>
<g id="a_node4"><a xlink:href="../../d2/d40/class_cellular_automata.html#a3e303e691cc17b9a478a3e0e167a37e6" target="_top" xlink:title="CellularAutomata.getRandom\lDouble">
<polygon fill="white" stroke="black" points="370,-39 370,-69 528,-69 528,-39 370,-39"/>
<text text-anchor="start" x="378" y="-57" font-family="Helvetica,sans-Serif" font-size="10.00">CellularAutomata.getRandom</text>
<text text-anchor="middle" x="449" y="-46" font-family="Helvetica,sans-Serif" font-size="10.00">Double</text>
</a>
</g>
</g>
<!-- Node2&#45;&gt;Node4 -->
<g id="edge3" class="edge"><title>Node2&#45;&gt;Node4</title>
<path fill="none" stroke="midnightblue" d="M327.65,-54C338.188,-54 349.053,-54 359.743,-54"/>
<polygon fill="midnightblue" stroke="midnightblue" points="359.921,-57.5001 369.921,-54 359.921,-50.5001 359.921,-57.5001"/>
</g>
<!-- Node5 -->
<g id="node5" class="node"><title>Node5</title>
<g id="a_node5"><a xlink:href="../../d2/d40/class_cellular_automata.html#ab39b5164764f20382801aa9a4663eb4b" target="_top" xlink:title="CellularAutomata.handleUpdate">
<polygon fill="white" stroke="black" points="364,-0.5 364,-19.5 534,-19.5 534,-0.5 364,-0.5"/>
<text text-anchor="middle" x="449" y="-7.5" font-family="Helvetica,sans-Serif" font-size="10.00">CellularAutomata.handleUpdate</text>
</a>
</g>
</g>
<!-- Node2&#45;&gt;Node5 -->
<g id="edge4" class="edge"><title>Node2&#45;&gt;Node5</title>
<path fill="none" stroke="midnightblue" d="M292.18,-44.4527C322.299,-37.7931 362.685,-28.8637 394.794,-21.7642"/>
<polygon fill="midnightblue" stroke="midnightblue" points="395.896,-25.1052 404.904,-19.5287 394.384,-18.2702 395.896,-25.1052"/>
</g>
<!-- Node5&#45;&gt;Node3 -->
<g id="edge5" class="edge"><title>Node5&#45;&gt;Node3</title>
<path fill="none" stroke="midnightblue" d="M490.793,-19.5473C519.124,-26.1781 557.071,-35.0591 587.34,-42.1435"/>
<polygon fill="midnightblue" stroke="midnightblue" points="586.752,-45.6003 597.286,-44.4713 588.347,-38.7845 586.752,-45.6003"/>
</g>
</g>
</svg>
