<?xml version="1.0" encoding="UTF-8" standalone="no"?>
<!DOCTYPE svg PUBLIC "-//W3C//DTD SVG 1.1//EN"
 "http://www.w3.org/Graphics/SVG/1.1/DTD/svg11.dtd">
<!-- Generated by graphviz version 2.36.0 (20140111.2315)
 -->
<!-- Title: GameOfLife.setUpInitialConfig Pages: 1 -->
<svg width="550pt" height="142pt"
 viewBox="0.00 0.00 550.00 142.00" xmlns="http://www.w3.org/2000/svg" xmlns:xlink="http://www.w3.org/1999/xlink">
<g id="graph0" class="graph" transform="scale(1 1) rotate(0) translate(4 138)">
<title>GameOfLife.setUpInitialConfig</title>
<polygon fill="white" stroke="none" points="-4,4 -4,-138 546,-138 546,4 -4,4"/>
<!-- Node1 -->
<g id="node1" class="node"><title>Node1</title>
<polygon fill="#bfbfbf" stroke="black" points="0.5,-57.5 0.5,-76.5 159.5,-76.5 159.5,-57.5 0.5,-57.5"/>
<text text-anchor="middle" x="80" y="-64.5" font-family="Helvetica,sans-Serif" font-size="10.00">GameOfLife.setUpInitialConfig</text>
</g>
<!-- Node2 -->
<g id="node2" class="node"><title>Node2</title>
<g id="a_node2"><a xlink:href="../../d0/d8b/class_state.html#ad60b238c28b23c6e04c5d2be9b525b4c" target="_top" xlink:title="State.addToUpdate">
<polygon fill="white" stroke="black" points="214.5,-114.5 214.5,-133.5 323.5,-133.5 323.5,-114.5 214.5,-114.5"/>
<text text-anchor="middle" x="269" y="-121.5" font-family="Helvetica,sans-Serif" font-size="10.00">State.addToUpdate</text>
</a>
</g>
</g>
<!-- Node1&#45;&gt;Node2 -->
<g id="edge1" class="edge"><title>Node1&#45;&gt;Node2</title>
<path fill="none" stroke="midnightblue" d="M108.27,-76.5331C131.478,-84.5205 165.764,-96.024 196,-105 203.842,-107.328 212.205,-109.666 220.354,-111.866"/>
<polygon fill="midnightblue" stroke="midnightblue" points="219.574,-115.28 230.138,-114.473 221.376,-108.516 219.574,-115.28"/>
</g>
<!-- Node3 -->
<g id="node3" class="node"><title>Node3</title>
<g id="a_node3"><a xlink:href="../../d2/d40/class_cellular_automata.html#a5f076a375459bb648b121e1b34b2ef17" target="_top" xlink:title="CellularAutomata.findState">
<polygon fill="white" stroke="black" points="196,-76.5 196,-95.5 342,-95.5 342,-76.5 196,-76.5"/>
<text text-anchor="middle" x="269" y="-83.5" font-family="Helvetica,sans-Serif" font-size="10.00">CellularAutomata.findState</text>
</a>
</g>
</g>
<!-- Node1&#45;&gt;Node3 -->
<g id="edge2" class="edge"><title>Node1&#45;&gt;Node3</title>
<path fill="none" stroke="midnightblue" d="M159.763,-75.0026C168.372,-75.8774 177.152,-76.7695 185.801,-77.6483"/>
<polygon fill="midnightblue" stroke="midnightblue" points="185.574,-81.1431 195.876,-78.6719 186.282,-74.1789 185.574,-81.1431"/>
</g>
<!-- Node4 -->
<g id="node4" class="node"><title>Node4</title>
<g id="a_node4"><a xlink:href="../../d2/d40/class_cellular_automata.html#a34ceed434c942d34ff03169b92684726" target="_top" xlink:title="CellularAutomata.getGrid">
<polygon fill="white" stroke="black" points="200,-38.5 200,-57.5 338,-57.5 338,-38.5 200,-38.5"/>
<text text-anchor="middle" x="269" y="-45.5" font-family="Helvetica,sans-Serif" font-size="10.00">CellularAutomata.getGrid</text>
</a>
</g>
</g>
<!-- Node1&#45;&gt;Node4 -->
<g id="edge3" class="edge"><title>Node1&#45;&gt;Node4</title>
<path fill="none" stroke="midnightblue" d="M159.763,-58.9974C169.69,-57.9887 179.844,-56.957 189.763,-55.9492"/>
<polygon fill="midnightblue" stroke="midnightblue" points="190.4,-59.4026 199.995,-54.9096 189.692,-52.4385 190.4,-59.4026"/>
</g>
<!-- Node5 -->
<g id="node5" class="node"><title>Node5</title>
<g id="a_node5"><a xlink:href="../../d8/d84/class_game_of_life.html#a42e957d8b9180f09f288a47bc4fd4dad" target="_top" xlink:title="GameOfLife.handleUpdate">
<polygon fill="white" stroke="black" points="197.5,-0.5 197.5,-19.5 340.5,-19.5 340.5,-0.5 197.5,-0.5"/>
<text text-anchor="middle" x="269" y="-7.5" font-family="Helvetica,sans-Serif" font-size="10.00">GameOfLife.handleUpdate</text>
</a>
</g>
</g>
<!-- Node1&#45;&gt;Node5 -->
<g id="edge4" class="edge"><title>Node1&#45;&gt;Node5</title>
<path fill="none" stroke="midnightblue" d="M108.27,-57.4669C131.478,-49.4795 165.764,-37.976 196,-29 203.842,-26.6721 212.205,-24.3343 220.354,-22.1336"/>
<polygon fill="midnightblue" stroke="midnightblue" points="221.376,-25.4836 230.138,-19.5272 219.574,-18.7195 221.376,-25.4836"/>
</g>
<!-- Node6 -->
<g id="node6" class="node"><title>Node6</title>
<g id="a_node6"><a xlink:href="../../d2/d40/class_cellular_automata.html#a30b0063e34ebf6ee66b68acd1b86d5da" target="_top" xlink:title="CellularAutomata.getMyStates">
<polygon fill="white" stroke="black" points="378,-0.5 378,-19.5 542,-19.5 542,-0.5 378,-0.5"/>
<text text-anchor="middle" x="460" y="-7.5" font-family="Helvetica,sans-Serif" font-size="10.00">CellularAutomata.getMyStates</text>
</a>
</g>
</g>
<!-- Node5&#45;&gt;Node6 -->
<g id="edge5" class="edge"><title>Node5&#45;&gt;Node6</title>
<path fill="none" stroke="midnightblue" d="M340.645,-10C349.482,-10 358.617,-10 367.712,-10"/>
<polygon fill="midnightblue" stroke="midnightblue" points="367.945,-13.5001 377.945,-10 367.945,-6.5001 367.945,-13.5001"/>
</g>
</g>
</svg>
