<?xml version="1.0" encoding="UTF-8" standalone="no"?>
<!DOCTYPE svg PUBLIC "-//W3C//DTD SVG 1.1//EN"
 "http://www.w3.org/Graphics/SVG/1.1/DTD/svg11.dtd">
<!-- Generated by graphviz version 2.36.0 (20140111.2315)
 -->
<!-- Title: GameOfLife.init Pages: 1 -->
<svg width="722pt" height="522pt"
 viewBox="0.00 0.00 722.00 522.00" xmlns="http://www.w3.org/2000/svg" xmlns:xlink="http://www.w3.org/1999/xlink">
<g id="graph0" class="graph" transform="scale(1 1) rotate(0) translate(4 518)">
<title>GameOfLife.init</title>
<polygon fill="white" stroke="none" points="-4,4 -4,-518 718,-518 718,4 -4,4"/>
<!-- Node1 -->
<g id="node1" class="node"><title>Node1</title>
<polygon fill="#bfbfbf" stroke="black" points="0,-266.5 0,-285.5 90,-285.5 90,-266.5 0,-266.5"/>
<text text-anchor="middle" x="45" y="-273.5" font-family="Helvetica,sans-Serif" font-size="10.00">GameOfLife.init</text>
</g>
<!-- Node2 -->
<g id="node2" class="node"><title>Node2</title>
<g id="a_node2"><a xlink:href="../../d2/d40/class_cellular_automata.html#a481c4ee65b3655268cd493266240df9f" target="_top" xlink:title="CellularAutomata.addState">
<polygon fill="white" stroke="black" points="152.5,-494.5 152.5,-513.5 299.5,-513.5 299.5,-494.5 152.5,-494.5"/>
<text text-anchor="middle" x="226" y="-501.5" font-family="Helvetica,sans-Serif" font-size="10.00">CellularAutomata.addState</text>
</a>
</g>
</g>
<!-- Node1&#45;&gt;Node2 -->
<g id="edge1" class="edge"><title>Node1&#45;&gt;Node2</title>
<path fill="none" stroke="midnightblue" d="M46.5377,-285.766C48.9453,-319.367 61.6748,-431.103 126,-485 131.018,-489.204 136.683,-492.586 142.699,-495.295"/>
<polygon fill="midnightblue" stroke="midnightblue" points="141.81,-498.703 152.4,-499.021 144.319,-492.168 141.81,-498.703"/>
</g>
<!-- Node3 -->
<g id="node3" class="node"><title>Node3</title>
<g id="a_node3"><a xlink:href="../../d2/d40/class_cellular_automata.html#a22a4b50568f0687dd7e9655a6fff5d98" target="_top" xlink:title="CellularAutomata.fastForward">
<polygon fill="white" stroke="black" points="147,-456.5 147,-475.5 305,-475.5 305,-456.5 147,-456.5"/>
<text text-anchor="middle" x="226" y="-463.5" font-family="Helvetica,sans-Serif" font-size="10.00">CellularAutomata.fastForward</text>
</a>
</g>
</g>
<!-- Node1&#45;&gt;Node3 -->
<g id="edge2" class="edge"><title>Node1&#45;&gt;Node3</title>
<path fill="none" stroke="midnightblue" d="M47.4181,-285.636C52.2882,-315.059 71.1679,-404.32 126,-447 129.593,-449.797 133.478,-452.221 137.559,-454.32"/>
<polygon fill="midnightblue" stroke="midnightblue" points="136.208,-457.55 146.767,-458.414 139.051,-451.153 136.208,-457.55"/>
</g>
<!-- Node4 -->
<g id="node4" class="node"><title>Node4</title>
<g id="a_node4"><a xlink:href="../../d2/d40/class_cellular_automata.html#a4096ce546f10f896798de1854954c17f" target="_top" xlink:title="CellularAutomata.getMyNeighborhood">
<polygon fill="white" stroke="black" points="126,-418.5 126,-437.5 326,-437.5 326,-418.5 126,-418.5"/>
<text text-anchor="middle" x="226" y="-425.5" font-family="Helvetica,sans-Serif" font-size="10.00">CellularAutomata.getMyNeighborhood</text>
</a>
</g>
</g>
<!-- Node1&#45;&gt;Node4 -->
<g id="edge3" class="edge"><title>Node1&#45;&gt;Node4</title>
<path fill="none" stroke="midnightblue" d="M48.7544,-285.603C56.4191,-310.468 80.4854,-377.227 126,-409 128.727,-410.903 131.594,-412.629 134.566,-414.192"/>
<polygon fill="midnightblue" stroke="midnightblue" points="133.211,-417.422 143.76,-418.413 136.132,-411.06 133.211,-417.422"/>
</g>
<!-- Node5 -->
<g id="node5" class="node"><title>Node5</title>
<g id="a_node5"><a xlink:href="../../d2/d40/class_cellular_automata.html#aaaee982f056673de042f006342b3ca4e" target="_top" xlink:title="CellularAutomata.getMyRoot">
<polygon fill="white" stroke="black" points="149.5,-380.5 149.5,-399.5 302.5,-399.5 302.5,-380.5 149.5,-380.5"/>
<text text-anchor="middle" x="226" y="-387.5" font-family="Helvetica,sans-Serif" font-size="10.00">CellularAutomata.getMyRoot</text>
</a>
</g>
</g>
<!-- Node1&#45;&gt;Node5 -->
<g id="edge4" class="edge"><title>Node1&#45;&gt;Node5</title>
<path fill="none" stroke="midnightblue" d="M51.1155,-285.687C62.0157,-305.294 89.5419,-349.626 126,-371 130.416,-373.589 135.116,-375.834 139.976,-377.781"/>
<polygon fill="midnightblue" stroke="midnightblue" points="138.894,-381.111 149.489,-381.168 141.242,-374.516 138.894,-381.111"/>
</g>
<!-- Node6 -->
<g id="node6" class="node"><title>Node6</title>
<g id="a_node6"><a xlink:href="../../d2/d40/class_cellular_automata.html#ae2ba791d42429e2da1c8e0a77f736564" target="_top" xlink:title="CellularAutomata.pause">
<polygon fill="white" stroke="black" points="160,-342.5 160,-361.5 292,-361.5 292,-342.5 160,-342.5"/>
<text text-anchor="middle" x="226" y="-349.5" font-family="Helvetica,sans-Serif" font-size="10.00">CellularAutomata.pause</text>
</a>
</g>
</g>
<!-- Node1&#45;&gt;Node6 -->
<g id="edge5" class="edge"><title>Node1&#45;&gt;Node6</title>
<path fill="none" stroke="midnightblue" d="M56.4704,-285.761C70.9411,-298.679 98.4058,-321.192 126,-333 133.633,-336.266 141.836,-338.974 150.136,-341.219"/>
<polygon fill="midnightblue" stroke="midnightblue" points="149.347,-344.629 159.897,-343.647 151.037,-337.836 149.347,-344.629"/>
</g>
<!-- Node7 -->
<g id="node7" class="node"><title>Node7</title>
<g id="a_node7"><a xlink:href="../../d2/d40/class_cellular_automata.html#aaf8b4fc15e1867382ec3adba79a33134" target="_top" xlink:title="CellularAutomata.play">
<polygon fill="white" stroke="black" points="165,-304.5 165,-323.5 287,-323.5 287,-304.5 165,-304.5"/>
<text text-anchor="middle" x="226" y="-311.5" font-family="Helvetica,sans-Serif" font-size="10.00">CellularAutomata.play</text>
</a>
</g>
</g>
<!-- Node1&#45;&gt;Node7 -->
<g id="edge6" class="edge"><title>Node1&#45;&gt;Node7</title>
<path fill="none" stroke="midnightblue" d="M84.5792,-285.521C97.6968,-288.663 112.461,-292.095 126,-295 137.898,-297.553 150.636,-300.121 162.88,-302.508"/>
<polygon fill="midnightblue" stroke="midnightblue" points="162.537,-306.006 173.02,-304.465 163.864,-299.133 162.537,-306.006"/>
</g>
<!-- Node8 -->
<g id="node8" class="node"><title>Node8</title>
<g id="a_node8"><a xlink:href="../../d2/d40/class_cellular_automata.html#acc80bdcdc382dd988842751759475f55" target="_top" xlink:title="CellularAutomata.setGrid">
<polygon fill="white" stroke="black" points="157.5,-266.5 157.5,-285.5 294.5,-285.5 294.5,-266.5 157.5,-266.5"/>
<text text-anchor="middle" x="226" y="-273.5" font-family="Helvetica,sans-Serif" font-size="10.00">CellularAutomata.setGrid</text>
</a>
</g>
</g>
<!-- Node1&#45;&gt;Node8 -->
<g id="edge7" class="edge"><title>Node1&#45;&gt;Node8</title>
<path fill="none" stroke="midnightblue" d="M90.2472,-276C107.439,-276 127.653,-276 147.121,-276"/>
<polygon fill="midnightblue" stroke="midnightblue" points="147.214,-279.5 157.214,-276 147.214,-272.5 147.214,-279.5"/>
</g>
<!-- Node9 -->
<g id="node9" class="node"><title>Node9</title>
<g id="a_node9"><a xlink:href="../../d2/d40/class_cellular_automata.html#ab9686869eb29148c6f02ba3711048d00" target="_top" xlink:title="CellularAutomata.setMyRoot">
<polygon fill="white" stroke="black" points="150,-228.5 150,-247.5 302,-247.5 302,-228.5 150,-228.5"/>
<text text-anchor="middle" x="226" y="-235.5" font-family="Helvetica,sans-Serif" font-size="10.00">CellularAutomata.setMyRoot</text>
</a>
</g>
</g>
<!-- Node1&#45;&gt;Node9 -->
<g id="edge8" class="edge"><title>Node1&#45;&gt;Node9</title>
<path fill="none" stroke="midnightblue" d="M84.5792,-266.479C97.6968,-263.337 112.461,-259.905 126,-257 137.898,-254.447 150.636,-251.879 162.88,-249.492"/>
<polygon fill="midnightblue" stroke="midnightblue" points="163.864,-252.867 173.02,-247.535 162.537,-245.994 163.864,-252.867"/>
</g>
<!-- Node10 -->
<g id="node10" class="node"><title>Node10</title>
<g id="a_node10"><a xlink:href="../../d2/d40/class_cellular_automata.html#aa0941a5026e2376a46a0f95a395802ad" target="_top" xlink:title="CellularAutomata.setMyStates">
<polygon fill="white" stroke="black" points="144.5,-190.5 144.5,-209.5 307.5,-209.5 307.5,-190.5 144.5,-190.5"/>
<text text-anchor="middle" x="226" y="-197.5" font-family="Helvetica,sans-Serif" font-size="10.00">CellularAutomata.setMyStates</text>
</a>
</g>
</g>
<!-- Node1&#45;&gt;Node10 -->
<g id="edge9" class="edge"><title>Node1&#45;&gt;Node10</title>
<path fill="none" stroke="midnightblue" d="M56.4704,-266.239C70.9411,-253.321 98.4058,-230.808 126,-219 132.108,-216.386 138.581,-214.13 145.177,-212.183"/>
<polygon fill="midnightblue" stroke="midnightblue" points="146.166,-215.541 154.901,-209.545 144.333,-208.785 146.166,-215.541"/>
</g>
<!-- Node11 -->
<g id="node11" class="node"><title>Node11</title>
<g id="a_node11"><a xlink:href="../../d2/d40/class_cellular_automata.html#a370902617418e6a2569aedf79ed47e7a" target="_top" xlink:title="CellularAutomata.setName">
<polygon fill="white" stroke="black" points="152.5,-152.5 152.5,-171.5 299.5,-171.5 299.5,-152.5 152.5,-152.5"/>
<text text-anchor="middle" x="226" y="-159.5" font-family="Helvetica,sans-Serif" font-size="10.00">CellularAutomata.setName</text>
</a>
</g>
</g>
<!-- Node1&#45;&gt;Node11 -->
<g id="edge10" class="edge"><title>Node1&#45;&gt;Node11</title>
<path fill="none" stroke="midnightblue" d="M51.1155,-266.313C62.0157,-246.706 89.5419,-202.374 126,-181 131.175,-177.966 136.738,-175.404 142.494,-173.242"/>
<polygon fill="midnightblue" stroke="midnightblue" points="143.944,-176.448 152.326,-169.968 141.733,-169.807 143.944,-176.448"/>
</g>
<!-- Node12 -->
<g id="node12" class="node"><title>Node12</title>
<g id="a_node12"><a xlink:href="../../d8/d84/class_game_of_life.html#a1bd82fd7debd0ccbba848dc16024c024" target="_top" xlink:title="GameOfLife.setUpInitialConfig">
<polygon fill="white" stroke="black" points="146.5,-114.5 146.5,-133.5 305.5,-133.5 305.5,-114.5 146.5,-114.5"/>
<text text-anchor="middle" x="226" y="-121.5" font-family="Helvetica,sans-Serif" font-size="10.00">GameOfLife.setUpInitialConfig</text>
</a>
</g>
</g>
<!-- Node1&#45;&gt;Node12 -->
<g id="edge11" class="edge"><title>Node1&#45;&gt;Node12</title>
<path fill="none" stroke="midnightblue" d="M48.7544,-266.397C56.4191,-241.532 80.4854,-174.773 126,-143 129.471,-140.577 133.17,-138.442 137.023,-136.563"/>
<polygon fill="midnightblue" stroke="midnightblue" points="138.431,-139.767 146.257,-132.626 135.685,-133.328 138.431,-139.767"/>
</g>
<!-- Node18 -->
<g id="node18" class="node"><title>Node18</title>
<g id="a_node18"><a xlink:href="../../d2/d40/class_cellular_automata.html#af000daf839415ffbbd6b857977d50261" target="_top" xlink:title="CellularAutomata.slowDown">
<polygon fill="white" stroke="black" points="151.5,-76.5 151.5,-95.5 300.5,-95.5 300.5,-76.5 151.5,-76.5"/>
<text text-anchor="middle" x="226" y="-83.5" font-family="Helvetica,sans-Serif" font-size="10.00">CellularAutomata.slowDown</text>
</a>
</g>
</g>
<!-- Node1&#45;&gt;Node18 -->
<g id="edge17" class="edge"><title>Node1&#45;&gt;Node18</title>
<path fill="none" stroke="midnightblue" d="M47.4181,-266.364C52.2882,-236.941 71.1679,-147.68 126,-105 130.778,-101.281 136.072,-98.2206 141.656,-95.7081"/>
<polygon fill="midnightblue" stroke="midnightblue" points="143.226,-98.8534 151.287,-91.9778 140.697,-92.3259 143.226,-98.8534"/>
</g>
<!-- Node19 -->
<g id="node19" class="node"><title>Node19</title>
<g id="a_node19"><a xlink:href="../../d2/d40/class_cellular_automata.html#a68732247a66b6d9f32eb8fcfda70bda2" target="_top" xlink:title="CellularAutomata.stepForward">
<polygon fill="white" stroke="black" points="145.5,-38.5 145.5,-57.5 306.5,-57.5 306.5,-38.5 145.5,-38.5"/>
<text text-anchor="middle" x="226" y="-45.5" font-family="Helvetica,sans-Serif" font-size="10.00">CellularAutomata.stepForward</text>
</a>
</g>
</g>
<!-- Node1&#45;&gt;Node19 -->
<g id="edge18" class="edge"><title>Node1&#45;&gt;Node19</title>
<path fill="none" stroke="midnightblue" d="M46.5377,-266.234C48.9453,-232.633 61.6748,-120.897 126,-67 129.155,-64.3568 132.565,-62.039 136.157,-60.0089"/>
<polygon fill="midnightblue" stroke="midnightblue" points="137.939,-63.0354 145.421,-55.5342 134.894,-56.7323 137.939,-63.0354"/>
</g>
<!-- Node13 -->
<g id="node13" class="node"><title>Node13</title>
<g id="a_node13"><a xlink:href="../../d2/d40/class_cellular_automata.html#a5f076a375459bb648b121e1b34b2ef17" target="_top" xlink:title="CellularAutomata.findState">
<polygon fill="white" stroke="black" points="362,-190.5 362,-209.5 508,-209.5 508,-190.5 362,-190.5"/>
<text text-anchor="middle" x="435" y="-197.5" font-family="Helvetica,sans-Serif" font-size="10.00">CellularAutomata.findState</text>
</a>
</g>
</g>
<!-- Node12&#45;&gt;Node13 -->
<g id="edge12" class="edge"><title>Node12&#45;&gt;Node13</title>
<path fill="none" stroke="midnightblue" d="M303.305,-133.574C311.219,-136.043 318.939,-139.133 326,-143 346.405,-154.174 341.989,-169.135 362,-181 365.69,-183.188 369.634,-185.128 373.703,-186.848"/>
<polygon fill="midnightblue" stroke="midnightblue" points="372.774,-190.237 383.366,-190.473 375.233,-183.684 372.774,-190.237"/>
</g>
<!-- Node14 -->
<g id="node14" class="node"><title>Node14</title>
<g id="a_node14"><a xlink:href="../../d0/d8b/class_state.html#ad60b238c28b23c6e04c5d2be9b525b4c" target="_top" xlink:title="State.addToUpdate">
<polygon fill="white" stroke="black" points="380.5,-152.5 380.5,-171.5 489.5,-171.5 489.5,-152.5 380.5,-152.5"/>
<text text-anchor="middle" x="435" y="-159.5" font-family="Helvetica,sans-Serif" font-size="10.00">State.addToUpdate</text>
</a>
</g>
</g>
<!-- Node12&#45;&gt;Node14 -->
<g id="edge13" class="edge"><title>Node12&#45;&gt;Node14</title>
<path fill="none" stroke="midnightblue" d="M278.968,-133.54C307.266,-138.735 342.464,-145.196 372.167,-150.649"/>
<polygon fill="midnightblue" stroke="midnightblue" points="371.543,-154.093 382.011,-152.456 372.807,-147.208 371.543,-154.093"/>
</g>
<!-- Node15 -->
<g id="node15" class="node"><title>Node15</title>
<g id="a_node15"><a xlink:href="../../d2/d40/class_cellular_automata.html#a34ceed434c942d34ff03169b92684726" target="_top" xlink:title="CellularAutomata.getGrid">
<polygon fill="white" stroke="black" points="366,-114.5 366,-133.5 504,-133.5 504,-114.5 366,-114.5"/>
<text text-anchor="middle" x="435" y="-121.5" font-family="Helvetica,sans-Serif" font-size="10.00">CellularAutomata.getGrid</text>
</a>
</g>
</g>
<!-- Node12&#45;&gt;Node15 -->
<g id="edge14" class="edge"><title>Node12&#45;&gt;Node15</title>
<path fill="none" stroke="midnightblue" d="M305.553,-124C322.033,-124 339.411,-124 355.876,-124"/>
<polygon fill="midnightblue" stroke="midnightblue" points="355.993,-127.5 365.993,-124 355.993,-120.5 355.993,-127.5"/>
</g>
<!-- Node16 -->
<g id="node16" class="node"><title>Node16</title>
<g id="a_node16"><a xlink:href="../../d8/d84/class_game_of_life.html#a42e957d8b9180f09f288a47bc4fd4dad" target="_top" xlink:title="GameOfLife.handleUpdate">
<polygon fill="white" stroke="black" points="363.5,-76.5 363.5,-95.5 506.5,-95.5 506.5,-76.5 363.5,-76.5"/>
<text text-anchor="middle" x="435" y="-83.5" font-family="Helvetica,sans-Serif" font-size="10.00">GameOfLife.handleUpdate</text>
</a>
</g>
</g>
<!-- Node12&#45;&gt;Node16 -->
<g id="edge15" class="edge"><title>Node12&#45;&gt;Node16</title>
<path fill="none" stroke="midnightblue" d="M278.968,-114.46C307.266,-109.265 342.464,-102.804 372.167,-97.3511"/>
<polygon fill="midnightblue" stroke="midnightblue" points="372.807,-100.792 382.011,-95.5439 371.543,-93.9071 372.807,-100.792"/>
</g>
<!-- Node17 -->
<g id="node17" class="node"><title>Node17</title>
<g id="a_node17"><a xlink:href="../../d2/d40/class_cellular_automata.html#a30b0063e34ebf6ee66b68acd1b86d5da" target="_top" xlink:title="CellularAutomata.getMyStates">
<polygon fill="white" stroke="black" points="547,-76.5 547,-95.5 711,-95.5 711,-76.5 547,-76.5"/>
<text text-anchor="middle" x="629" y="-83.5" font-family="Helvetica,sans-Serif" font-size="10.00">CellularAutomata.getMyStates</text>
</a>
</g>
</g>
<!-- Node16&#45;&gt;Node17 -->
<g id="edge16" class="edge"><title>Node16&#45;&gt;Node17</title>
<path fill="none" stroke="midnightblue" d="M506.676,-86C516.459,-86 526.621,-86 536.713,-86"/>
<polygon fill="midnightblue" stroke="midnightblue" points="536.765,-89.5001 546.765,-86 536.765,-82.5001 536.765,-89.5001"/>
</g>
<!-- Node20 -->
<g id="node20" class="node"><title>Node20</title>
<g id="a_node20"><a xlink:href="../../d2/d40/class_cellular_automata.html#ae8ef63af0ee6db6d22b32ce6b586e3cd" target="_top" xlink:title="CellularAutomata.update">
<polygon fill="white" stroke="black" points="366.5,-38.5 366.5,-57.5 503.5,-57.5 503.5,-38.5 366.5,-38.5"/>
<text text-anchor="middle" x="435" y="-45.5" font-family="Helvetica,sans-Serif" font-size="10.00">CellularAutomata.update</text>
</a>
</g>
</g>
<!-- Node19&#45;&gt;Node20 -->
<g id="edge19" class="edge"><title>Node19&#45;&gt;Node20</title>
<path fill="none" stroke="midnightblue" d="M306.736,-48C322.898,-48 339.879,-48 355.981,-48"/>
<polygon fill="midnightblue" stroke="midnightblue" points="356.419,-51.5001 366.419,-48 356.419,-44.5001 356.419,-51.5001"/>
</g>
<!-- Node21 -->
<g id="node21" class="node"><title>Node21</title>
<g id="a_node21"><a xlink:href="../../d2/d40/class_cellular_automata.html#a378c64d09ace5a17d91052387801c2e8" target="_top" xlink:title="CellularAutomata.applyRules">
<polygon fill="white" stroke="black" points="552.5,-38.5 552.5,-57.5 705.5,-57.5 705.5,-38.5 552.5,-38.5"/>
<text text-anchor="middle" x="629" y="-45.5" font-family="Helvetica,sans-Serif" font-size="10.00">CellularAutomata.applyRules</text>
</a>
</g>
</g>
<!-- Node20&#45;&gt;Node21 -->
<g id="edge20" class="edge"><title>Node20&#45;&gt;Node21</title>
<path fill="none" stroke="midnightblue" d="M503.692,-48C516.13,-48 529.264,-48 542.151,-48"/>
<polygon fill="midnightblue" stroke="midnightblue" points="542.416,-51.5001 552.416,-48 542.416,-44.5001 542.416,-51.5001"/>
</g>
<!-- Node22 -->
<g id="node22" class="node"><title>Node22</title>
<g id="a_node22"><a xlink:href="../../d2/d40/class_cellular_automata.html#ad611b3b173c822a7d0a0ca5f7a0e48c4" target="_top" xlink:title="CellularAutomata.handleUpdate">
<polygon fill="white" stroke="black" points="544,-0.5 544,-19.5 714,-19.5 714,-0.5 544,-0.5"/>
<text text-anchor="middle" x="629" y="-7.5" font-family="Helvetica,sans-Serif" font-size="10.00">CellularAutomata.handleUpdate</text>
</a>
</g>
</g>
<!-- Node20&#45;&gt;Node22 -->
<g id="edge21" class="edge"><title>Node20&#45;&gt;Node22</title>
<path fill="none" stroke="midnightblue" d="M484.45,-38.411C510.471,-33.261 542.728,-26.8768 570.069,-21.4656"/>
<polygon fill="midnightblue" stroke="midnightblue" points="570.769,-24.895 579.899,-19.5201 569.409,-18.0282 570.769,-24.895"/>
</g>
</g>
</svg>
