<?xml version="1.0" encoding="UTF-8" standalone="no"?>
<!DOCTYPE svg PUBLIC "-//W3C//DTD SVG 1.1//EN"
 "http://www.w3.org/Graphics/SVG/1.1/DTD/svg11.dtd">
<!-- Generated by graphviz version 2.36.0 (20140111.2315)
 -->
<!-- Title: Fish.breed Pages: 1 -->
<svg width="438pt" height="66pt"
 viewBox="0.00 0.00 438.00 66.00" xmlns="http://www.w3.org/2000/svg" xmlns:xlink="http://www.w3.org/1999/xlink">
<g id="graph0" class="graph" transform="scale(1 1) rotate(0) translate(4 62)">
<title>Fish.breed</title>
<polygon fill="white" stroke="none" points="-4,4 -4,-62 434,-62 434,4 -4,4"/>
<!-- Node1 -->
<g id="node1" class="node"><title>Node1</title>
<polygon fill="#bfbfbf" stroke="black" points="0.5,-19.5 0.5,-38.5 65.5,-38.5 65.5,-19.5 0.5,-19.5"/>
<text text-anchor="middle" x="33" y="-26.5" font-family="Helvetica,sans-Serif" font-size="10.00">Fish.breed</text>
</g>
<!-- Node2 -->
<g id="node2" class="node"><title>Node2</title>
<g id="a_node2"><a xlink:href="../../d0/db0/class_wator.html#a7b49e449f5277f27fc84287bc5e88357" target="_top" xlink:title="Wator.breed">
<polygon fill="white" stroke="black" points="102,-19.5 102,-38.5 176,-38.5 176,-19.5 102,-19.5"/>
<text text-anchor="middle" x="139" y="-26.5" font-family="Helvetica,sans-Serif" font-size="10.00">Wator.breed</text>
</a>
</g>
</g>
<!-- Node1&#45;&gt;Node2 -->
<g id="edge1" class="edge"><title>Node1&#45;&gt;Node2</title>
<path fill="none" stroke="midnightblue" d="M75.9277,-29C84.4627,-29 93.3743,-29 101.694,-29"/>
<polygon fill="midnightblue" stroke="midnightblue" points="75.7686,-25.5001 65.7685,-29 75.7685,-32.5001 75.7686,-25.5001"/>
</g>
<!-- Node3 -->
<g id="node3" class="node"><title>Node3</title>
<g id="a_node3"><a xlink:href="../../d0/db0/class_wator.html#a0afccb8f97e33c1d21e51ee1a3f4922b" target="_top" xlink:title="Wator.ruleOne">
<polygon fill="white" stroke="black" points="212.5,-38.5 212.5,-57.5 295.5,-57.5 295.5,-38.5 212.5,-38.5"/>
<text text-anchor="middle" x="254" y="-45.5" font-family="Helvetica,sans-Serif" font-size="10.00">Wator.ruleOne</text>
</a>
</g>
</g>
<!-- Node2&#45;&gt;Node3 -->
<g id="edge2" class="edge"><title>Node2&#45;&gt;Node3</title>
<path fill="none" stroke="midnightblue" d="M186.024,-36.7385C194.684,-38.1947 203.685,-39.7081 212.173,-41.1353"/>
<polygon fill="midnightblue" stroke="midnightblue" points="186.507,-33.2706 176.065,-35.064 185.346,-40.1737 186.507,-33.2706"/>
</g>
<!-- Node5 -->
<g id="node5" class="node"><title>Node5</title>
<g id="a_node5"><a xlink:href="../../d0/db0/class_wator.html#aa8dba59120d9d6d7d7521f3a4ee7b454" target="_top" xlink:title="Wator.ruleTwo">
<polygon fill="white" stroke="black" points="214,-0.5 214,-19.5 294,-19.5 294,-0.5 214,-0.5"/>
<text text-anchor="middle" x="254" y="-7.5" font-family="Helvetica,sans-Serif" font-size="10.00">Wator.ruleTwo</text>
</a>
</g>
</g>
<!-- Node2&#45;&gt;Node5 -->
<g id="edge4" class="edge"><title>Node2&#45;&gt;Node5</title>
<path fill="none" stroke="midnightblue" d="M186.186,-21.2343C195.338,-19.6954 204.864,-18.0936 213.759,-16.598"/>
<polygon fill="midnightblue" stroke="midnightblue" points="185.346,-17.8263 176.065,-22.936 186.507,-24.7294 185.346,-17.8263"/>
</g>
<!-- Node4 -->
<g id="node4" class="node"><title>Node4</title>
<g id="a_node4"><a xlink:href="../../d0/db0/class_wator.html#a422810cdcb035633301b3469cbee5e34" target="_top" xlink:title="Wator.checkRules">
<polygon fill="white" stroke="black" points="332,-19.5 332,-38.5 430,-38.5 430,-19.5 332,-19.5"/>
<text text-anchor="middle" x="381" y="-26.5" font-family="Helvetica,sans-Serif" font-size="10.00">Wator.checkRules</text>
</a>
</g>
</g>
<!-- Node3&#45;&gt;Node4 -->
<g id="edge3" class="edge"><title>Node3&#45;&gt;Node4</title>
<path fill="none" stroke="midnightblue" d="M305.557,-40.3153C314.213,-38.9996 323.187,-37.6356 331.779,-36.3295"/>
<polygon fill="midnightblue" stroke="midnightblue" points="304.944,-36.8682 295.584,-41.8312 305.996,-43.7887 304.944,-36.8682"/>
</g>
<!-- Node5&#45;&gt;Node4 -->
<g id="edge5" class="edge"><title>Node5&#45;&gt;Node4</title>
<path fill="none" stroke="midnightblue" d="M304.209,-17.4797C313.251,-18.8542 322.683,-20.2878 331.698,-21.6581"/>
<polygon fill="midnightblue" stroke="midnightblue" points="304.62,-14.0022 294.208,-15.9596 303.568,-20.9227 304.62,-14.0022"/>
</g>
</g>
</svg>
