<?xml version="1.0" encoding="UTF-8" standalone="no"?>
<!DOCTYPE svg PUBLIC "-//W3C//DTD SVG 1.1//EN"
 "http://www.w3.org/Graphics/SVG/1.1/DTD/svg11.dtd">
<!-- Generated by graphviz version 2.36.0 (20140111.2315)
 -->
<!-- Title: CellSocietyView Pages: 1 -->
<!--zoomable 346 -->
<svg id="main" version="1.1" xmlns="http://www.w3.org/2000/svg" xmlns:xlink="http://www.w3.org/1999/xlink" xml:space="preserve" onload="init(evt)">
<style type="text/css"><![CDATA[
.edge:hover path { stroke: red; }
.edge:hover polygon { stroke: red; fill: red; }
]]></style>
<script type="text/javascript"><![CDATA[
var edges = document.getElementsByTagName('g');
if (edges && edges.length) {
  for (var i=0;i<edges.length;i++) {
    if (edges[i].id.substr(0,4)=='edge') {
      edges[i].setAttribute('class','edge');
    }
  }
}
]]></script>
        <defs>
                <circle id="rim" cx="0" cy="0" r="7"/>
                <circle id="rim2" cx="0" cy="0" r="3.5"/>
                <g id="zoomPlus">
                        <use xlink:href="#rim" fill="#404040">
                                <set attributeName="fill" to="#808080" begin="zoomplus.mouseover" end="zoomplus.mouseout"/>
                        </use>
                        <path d="M-4,0h8M0,-4v8" fill="none" stroke="white" stroke-width="1.5" pointer-events="none"/>
                </g>
                <g id="zoomMin">
                        <use xlink:href="#rim" fill="#404040">
                                <set attributeName="fill" to="#808080" begin="zoomminus.mouseover" end="zoomminus.mouseout"/>
                        </use>
                        <path d="M-4,0h8" fill="none" stroke="white" stroke-width="1.5" pointer-events="none"/>
                </g>
                <g id="dirArrow">
                        <path fill="none" stroke="white" stroke-width="1.5" d="M0,-3.0v7 M-2.5,-0.5L0,-3.0L2.5,-0.5"/>
                </g>
               <g id="resetDef">
                       <use xlink:href="#rim2" fill="#404040">
                               <set attributeName="fill" to="#808080" begin="reset.mouseover" end="reset.mouseout"/>
                       </use>
               </g>
        </defs>

<script type="text/javascript">
var viewWidth = 776;
var viewHeight = 346;
var sectionId = 'dynsection-0';
</script>
<script xlink:href="../../svgpan.js"/>
<svg id="graph" class="graph">
<g id="viewport">
<title>CellSocietyView</title>
<polygon fill="white" stroke="none" points="-4,4 -4,-342 772,-342 772,4 -4,4"/>
<!-- Node1 -->
<g id="node1" class="node"><title>Node1</title>
<polygon fill="#bfbfbf" stroke="black" points="676.5,-158.5 676.5,-177.5 767.5,-177.5 767.5,-158.5 676.5,-158.5"/>
<text text-anchor="middle" x="722" y="-165.5" font-family="Helvetica,sans-Serif" font-size="10.00">CellSocietyView</text>
</g>
<!-- Node2 -->
<g id="node2" class="node"><title>Node2</title>
<polygon fill="white" stroke="#bfbfbf" points="454,-316.5 454,-335.5 510,-335.5 510,-316.5 454,-316.5"/>
<text text-anchor="middle" x="482" y="-323.5" font-family="Helvetica,sans-Serif" font-size="10.00">Timeline</text>
</g>
<!-- Node2&#45;&gt;Node1 -->
<g id="edge1" class="edge"><title>Node2&#45;&gt;Node1</title>
<path fill="none" stroke="#9a32cd" stroke-dasharray="5,2" d="M520.424,-329.479C558.695,-331.038 618.045,-327.692 658,-298 699.267,-267.333 714.841,-202.419 719.409,-177.771"/>
<polygon fill="#9a32cd" stroke="#9a32cd" points="520.397,-325.972 510.222,-328.927 520.019,-332.962 520.397,-325.972"/>
<text text-anchor="middle" x="615" y="-330" font-family="Helvetica,sans-Serif" font-size="10.00"> myAnimation</text>
</g>
<!-- Node3 -->
<g id="node3" class="node"><title>Node3</title>
<polygon fill="white" stroke="#bfbfbf" points="435.5,-278.5 435.5,-297.5 528.5,-297.5 528.5,-278.5 435.5,-278.5"/>
<text text-anchor="middle" x="482" y="-285.5" font-family="Helvetica,sans-Serif" font-size="10.00">ResourceBundle</text>
</g>
<!-- Node3&#45;&gt;Node1 -->
<g id="edge2" class="edge"><title>Node3&#45;&gt;Node1</title>
<path fill="none" stroke="#9a32cd" stroke-dasharray="5,2" d="M539.188,-287.429C575.555,-284.685 622.556,-276.481 658,-254 688.165,-234.868 708.654,-195.703 716.912,-177.585"/>
<polygon fill="#9a32cd" stroke="#9a32cd" points="538.509,-283.965 528.75,-288.091 538.952,-290.951 538.509,-283.965"/>
<text text-anchor="middle" x="615" y="-286" font-family="Helvetica,sans-Serif" font-size="10.00"> myButtonNames</text>
</g>
<!-- Node4 -->
<g id="node4" class="node"><title>Node4</title>
<polygon fill="white" stroke="#bfbfbf" points="410.5,-240.5 410.5,-259.5 553.5,-259.5 553.5,-240.5 410.5,-240.5"/>
<text text-anchor="middle" x="482" y="-247.5" font-family="Helvetica,sans-Serif" font-size="10.00">HashMap&lt; String, int[][]&gt;</text>
</g>
<!-- Node4&#45;&gt;Node1 -->
<g id="edge3" class="edge"><title>Node4&#45;&gt;Node1</title>
<path fill="none" stroke="#9a32cd" stroke-dasharray="5,2" d="M563.827,-240.773C594.243,-235.412 628.568,-227.03 658,-214 678.557,-204.899 698.944,-188.259 710.737,-177.684"/>
<polygon fill="#9a32cd" stroke="#9a32cd" points="562.957,-237.37 553.674,-242.477 564.116,-244.273 562.957,-237.37"/>
<text text-anchor="middle" x="615" y="-242" font-family="Helvetica,sans-Serif" font-size="10.00"> nbhoodTypes</text>
</g>
<!-- Node5 -->
<g id="node5" class="node"><title>Node5</title>
<polygon fill="white" stroke="#bfbfbf" points="413,-202.5 413,-221.5 551,-221.5 551,-202.5 413,-202.5"/>
<text text-anchor="middle" x="482" y="-209.5" font-family="Helvetica,sans-Serif" font-size="10.00">HashMap&lt; String, Grid &gt;</text>
</g>
<!-- Node5&#45;&gt;Node1 -->
<g id="edge4" class="edge"><title>Node5&#45;&gt;Node1</title>
<path fill="none" stroke="#9a32cd" stroke-dasharray="5,2" d="M557.132,-200.884C588.361,-195.899 625.039,-189.647 658,-183 666.046,-181.378 674.626,-179.461 682.781,-177.549"/>
<polygon fill="#9a32cd" stroke="#9a32cd" points="556.526,-197.436 547.196,-202.457 557.62,-204.35 556.526,-197.436"/>
<text text-anchor="middle" x="615" y="-202" font-family="Helvetica,sans-Serif" font-size="10.00"> gridTypes</text>
</g>
<!-- Node6 -->
<g id="node6" class="node"><title>Node6</title>
<polygon fill="white" stroke="#bfbfbf" points="410.5,-153 410.5,-183 553.5,-183 553.5,-153 410.5,-153"/>
<text text-anchor="start" x="418.5" y="-171" font-family="Helvetica,sans-Serif" font-size="10.00">HashMap&lt; String, Cellular</text>
<text text-anchor="middle" x="482" y="-160" font-family="Helvetica,sans-Serif" font-size="10.00">Automata &gt;</text>
</g>
<!-- Node6&#45;&gt;Node1 -->
<g id="edge5" class="edge"><title>Node6&#45;&gt;Node1</title>
<path fill="none" stroke="#9a32cd" stroke-dasharray="5,2" d="M564.185,-168C601.712,-168 644.838,-168 676.354,-168"/>
<polygon fill="#9a32cd" stroke="#9a32cd" points="563.763,-164.5 553.763,-168 563.763,-171.5 563.763,-164.5"/>
<text text-anchor="middle" x="615" y="-171" font-family="Helvetica,sans-Serif" font-size="10.00"> gameTypes</text>
</g>
<!-- Node7 -->
<g id="node7" class="node"><title>Node7</title>
<g id="a_node7"><a xlink:href="../../dd/d97/class_grid_drawer.html" target="_top" xlink:title="GridDrawer">
<polygon fill="white" stroke="black" points="447,-76.5 447,-95.5 517,-95.5 517,-76.5 447,-76.5"/>
<text text-anchor="middle" x="482" y="-83.5" font-family="Helvetica,sans-Serif" font-size="10.00">GridDrawer</text>
</a>
</g>
</g>
<!-- Node7&#45;&gt;Node1 -->
<g id="edge6" class="edge"><title>Node7&#45;&gt;Node1</title>
<path fill="none" stroke="#9a32cd" stroke-dasharray="5,2" d="M527.434,-90.2872C563.763,-94.9778 615.828,-104.454 658,-123 678.179,-131.874 698.359,-147.846 710.257,-158.18"/>
<polygon fill="#9a32cd" stroke="#9a32cd" points="527.511,-86.7706 517.161,-89.0339 526.663,-93.7191 527.511,-86.7706"/>
<text text-anchor="middle" x="615" y="-126" font-family="Helvetica,sans-Serif" font-size="10.00"> myGridView</text>
</g>
<!-- Node8 -->
<g id="node8" class="node"><title>Node8</title>
<g id="a_node8"><a xlink:href="../../da/d74/class_grid.html" target="_top" xlink:title="Grid">
<polygon fill="white" stroke="black" points="270,-96.5 270,-115.5 306,-115.5 306,-96.5 270,-96.5"/>
<text text-anchor="middle" x="288" y="-103.5" font-family="Helvetica,sans-Serif" font-size="10.00">Grid</text>
</a>
</g>
</g>
<!-- Node8&#45;&gt;Node7 -->
<g id="edge7" class="edge"><title>Node8&#45;&gt;Node7</title>
<path fill="none" stroke="#9a32cd" stroke-dasharray="5,2" d="M316.365,-99.229C322.158,-97.9899 328.257,-96.8286 334,-96 372.483,-90.4475 417.091,-87.9632 446.983,-86.8611"/>
<polygon fill="#9a32cd" stroke="#9a32cd" points="315.388,-95.8617 306.411,-101.488 316.937,-102.688 315.388,-95.8617"/>
<text text-anchor="middle" x="363" y="-99" font-family="Helvetica,sans-Serif" font-size="10.00"> myGrid</text>
</g>
<!-- Node14 -->
<g id="node14" class="node"><title>Node14</title>
<g id="a_node14"><a xlink:href="../../d2/d40/class_cellular_automata.html" target="_top" xlink:title="CellularAutomata">
<polygon fill="white" stroke="black" points="432,-114.5 432,-133.5 532,-133.5 532,-114.5 432,-114.5"/>
<text text-anchor="middle" x="482" y="-121.5" font-family="Helvetica,sans-Serif" font-size="10.00">CellularAutomata</text>
</a>
</g>
</g>
<!-- Node8&#45;&gt;Node14 -->
<g id="edge15" class="edge"><title>Node8&#45;&gt;Node14</title>
<path fill="none" stroke="#9a32cd" stroke-dasharray="5,2" d="M316.161,-108.546C346.105,-111.354 394.901,-115.928 431.649,-119.373"/>
<polygon fill="#9a32cd" stroke="#9a32cd" points="316.322,-105.046 306.039,-107.597 315.668,-112.016 316.322,-105.046"/>
<text text-anchor="middle" x="363" y="-119" font-family="Helvetica,sans-Serif" font-size="10.00"> myGrid</text>
</g>
<!-- Node9 -->
<g id="node9" class="node"><title>Node9</title>
<polygon fill="white" stroke="#bfbfbf" points="136,-57.5 136,-76.5 182,-76.5 182,-57.5 136,-57.5"/>
<text text-anchor="middle" x="159" y="-64.5" font-family="Helvetica,sans-Serif" font-size="10.00">Group</text>
</g>
<!-- Node9&#45;&gt;Node7 -->
<g id="edge12" class="edge"><title>Node9&#45;&gt;Node7</title>
<path fill="none" stroke="#9a32cd" stroke-dasharray="5,2" d="M192.607,-68.8535C224.168,-70.6542 273.364,-73.4781 316,-76 361.264,-78.6773 413.507,-81.859 446.873,-83.9027"/>
<polygon fill="#9a32cd" stroke="#9a32cd" points="192.401,-65.3362 182.218,-68.2615 192.003,-72.3249 192.401,-65.3362"/>
<text text-anchor="middle" x="288" y="-79" font-family="Helvetica,sans-Serif" font-size="10.00"> myRoot</text>
</g>
<!-- Node9&#45;&gt;Node8 -->
<g id="edge8" class="edge"><title>Node9&#45;&gt;Node8</title>
<path fill="none" stroke="midnightblue" d="M191.761,-76.7533C216.402,-84.3202 249.626,-94.5229 269.616,-100.662"/>
<polygon fill="midnightblue" stroke="midnightblue" points="192.709,-73.3831 182.122,-73.7933 190.654,-80.0747 192.709,-73.3831"/>
</g>
<!-- Node10 -->
<g id="node10" class="node"><title>Node10</title>
<g id="a_node10"><a xlink:href="../../dd/d11/class_cell.html" target="_top" xlink:title="Cell">
<polygon fill="white" stroke="black" points="142,-105.5 142,-124.5 176,-124.5 176,-105.5 142,-105.5"/>
<text text-anchor="middle" x="159" y="-112.5" font-family="Helvetica,sans-Serif" font-size="10.00">Cell</text>
</a>
</g>
</g>
<!-- Node10&#45;&gt;Node8 -->
<g id="edge9" class="edge"><title>Node10&#45;&gt;Node8</title>
<path fill="none" stroke="#9a32cd" stroke-dasharray="5,2" d="M186.337,-113.134C211.394,-111.358 248.363,-108.738 269.831,-107.217"/>
<polygon fill="#9a32cd" stroke="#9a32cd" points="185.812,-109.662 176.085,-113.86 186.307,-116.644 185.812,-109.662"/>
<text text-anchor="middle" x="221" y="-116" font-family="Helvetica,sans-Serif" font-size="10.00"> myCells</text>
</g>
<!-- Node11 -->
<g id="node11" class="node"><title>Node11</title>
<polygon fill="white" stroke="#bfbfbf" points="0,-105.5 0,-124.5 40,-124.5 40,-105.5 0,-105.5"/>
<text text-anchor="middle" x="20" y="-112.5" font-family="Helvetica,sans-Serif" font-size="10.00">Paint</text>
</g>
<!-- Node11&#45;&gt;Node10 -->
<g id="edge10" class="edge"><title>Node11&#45;&gt;Node10</title>
<path fill="none" stroke="#9a32cd" stroke-dasharray="5,2" d="M50.3959,-115C78.2884,-115 119.188,-115 141.679,-115"/>
<polygon fill="#9a32cd" stroke="#9a32cd" points="50.0493,-111.5 40.0493,-115 50.0492,-118.5 50.0493,-111.5"/>
<text text-anchor="middle" x="88" y="-129" font-family="Helvetica,sans-Serif" font-size="10.00"> nextColor</text>
<text text-anchor="middle" x="88" y="-118" font-family="Helvetica,sans-Serif" font-size="10.00">currentColor</text>
</g>
<!-- Node12 -->
<g id="node12" class="node"><title>Node12</title>
<polygon fill="white" stroke="#bfbfbf" points="264.5,-1.5 264.5,-20.5 311.5,-20.5 311.5,-1.5 264.5,-1.5"/>
<text text-anchor="middle" x="288" y="-8.5" font-family="Helvetica,sans-Serif" font-size="10.00">Shape</text>
</g>
<!-- Node12&#45;&gt;Node7 -->
<g id="edge11" class="edge"><title>Node12&#45;&gt;Node7</title>
<path fill="none" stroke="#9a32cd" stroke-dasharray="5,2" d="M321.921,-10.5913C343.77,-11.9112 372,-16.8446 392,-32 405.942,-42.5645 396.384,-56.0197 410,-67 420.43,-75.4104 434.248,-80.118 446.92,-82.7453"/>
<polygon fill="#9a32cd" stroke="#9a32cd" points="321.898,-7.08793 311.772,-10.2046 321.631,-14.0829 321.898,-7.08793"/>
<text text-anchor="middle" x="363" y="-35" font-family="Helvetica,sans-Serif" font-size="10.00"> myShapes</text>
</g>
<!-- Node13 -->
<g id="node13" class="node"><title>Node13</title>
<polygon fill="white" stroke="#bfbfbf" points="458.5,-38.5 458.5,-57.5 505.5,-57.5 505.5,-38.5 458.5,-38.5"/>
<text text-anchor="middle" x="482" y="-45.5" font-family="Helvetica,sans-Serif" font-size="10.00">Scene</text>
</g>
<!-- Node13&#45;&gt;Node1 -->
<g id="edge13" class="edge"><title>Node13&#45;&gt;Node1</title>
<path fill="none" stroke="#9a32cd" stroke-dasharray="5,2" d="M515.894,-47.701C553.136,-48.8363 614.3,-55.286 658,-83 687.783,-101.888 708.329,-140.257 716.741,-158.26"/>
<polygon fill="#9a32cd" stroke="#9a32cd" points="515.669,-44.1962 505.605,-47.5049 515.536,-51.1949 515.669,-44.1962"/>
<text text-anchor="middle" x="615" y="-86" font-family="Helvetica,sans-Serif" font-size="10.00"> myScene</text>
</g>
<!-- Node14&#45;&gt;Node1 -->
<g id="edge14" class="edge"><title>Node14&#45;&gt;Node1</title>
<path fill="none" stroke="#9a32cd" stroke-dasharray="5,2" d="M542.42,-132.796C576.377,-138.085 619.698,-145.276 658,-153 666.046,-154.622 674.626,-156.539 682.781,-158.451"/>
<polygon fill="#9a32cd" stroke="#9a32cd" points="542.615,-129.285 532.198,-131.217 541.547,-136.203 542.615,-129.285"/>
<text text-anchor="middle" x="615" y="-156" font-family="Helvetica,sans-Serif" font-size="10.00"> myCA</text>
</g>
<!-- Node15 -->
<g id="node15" class="node"><title>Node15</title>
<polygon fill="white" stroke="#bfbfbf" points="260,-148.5 260,-167.5 316,-167.5 316,-148.5 260,-148.5"/>
<text text-anchor="middle" x="288" y="-155.5" font-family="Helvetica,sans-Serif" font-size="10.00">Random</text>
</g>
<!-- Node15&#45;&gt;Node14 -->
<g id="edge16" class="edge"><title>Node15&#45;&gt;Node14</title>
<path fill="none" stroke="#9a32cd" stroke-dasharray="5,2" d="M326.182,-151.416C356.263,-146.089 398.879,-138.542 431.787,-132.715"/>
<polygon fill="#9a32cd" stroke="#9a32cd" points="325.338,-148.011 316.102,-153.201 326.559,-154.903 325.338,-148.011"/>
<text text-anchor="middle" x="363" y="-153" font-family="Helvetica,sans-Serif" font-size="10.00"> myRandom</text>
</g>
<!-- Node16 -->
<g id="node16" class="node"><title>Node16</title>
<polygon fill="white" stroke="#bfbfbf" points="446,-0.5 446,-19.5 518,-19.5 518,-0.5 446,-0.5"/>
<text text-anchor="middle" x="482" y="-7.5" font-family="Helvetica,sans-Serif" font-size="10.00">BorderPane</text>
</g>
<!-- Node16&#45;&gt;Node1 -->
<g id="edge17" class="edge"><title>Node16&#45;&gt;Node1</title>
<path fill="none" stroke="#9a32cd" stroke-dasharray="5,2" d="M528.487,-6.60979C566.655,-6.13075 620.755,-11.2487 658,-39 698.971,-69.5278 714.723,-133.885 719.373,-158.315"/>
<polygon fill="#9a32cd" stroke="#9a32cd" points="528.076,-3.11921 518.171,-6.87916 528.259,-10.1168 528.076,-3.11921"/>
<text text-anchor="middle" x="615" y="-42" font-family="Helvetica,sans-Serif" font-size="10.00"> myRoot</text>
</g>
</g>
</svg>
        <g id="navigator" transform="translate(0 0)" fill="#404254">
                <rect fill="#f2f5e9" fill-opacity="0.5" stroke="#606060" stroke-width=".5" x="0" y="0" width="60" height="60"/>
                <use id="zoomplus" xlink:href="#zoomPlus" x="17" y="9" onmousedown="handleZoom(evt,'in')"/>
                <use id="zoomminus" xlink:href="#zoomMin" x="42" y="9" onmousedown="handleZoom(evt,'out')"/>
                <use id="reset" xlink:href="#resetDef" x="30" y="36" onmousedown="handleReset()"/>
                <g id="arrowUp" xlink:href="#dirArrow" transform="translate(30 24)" onmousedown="handlePan(0,-1)">
                  <use xlink:href="#rim" fill="#404040">
                        <set attributeName="fill" to="#808080" begin="arrowUp.mouseover" end="arrowUp.mouseout"/>
                  </use>
                  <path fill="none" stroke="white" stroke-width="1.5" d="M0,-3.0v7 M-2.5,-0.5L0,-3.0L2.5,-0.5"/>
                </g>
                <g id="arrowRight" xlink:href="#dirArrow" transform="rotate(90) translate(36 -43)" onmousedown="handlePan(1,0)">
                  <use xlink:href="#rim" fill="#404040">
                        <set attributeName="fill" to="#808080" begin="arrowRight.mouseover" end="arrowRight.mouseout"/>
                  </use>
                  <path fill="none" stroke="white" stroke-width="1.5" d="M0,-3.0v7 M-2.5,-0.5L0,-3.0L2.5,-0.5"/>
                </g>
                <g id="arrowDown" xlink:href="#dirArrow" transform="rotate(180) translate(-30 -48)" onmousedown="handlePan(0,1)">
                  <use xlink:href="#rim" fill="#404040">
                        <set attributeName="fill" to="#808080" begin="arrowDown.mouseover" end="arrowDown.mouseout"/>
                  </use>
                  <path fill="none" stroke="white" stroke-width="1.5" d="M0,-3.0v7 M-2.5,-0.5L0,-3.0L2.5,-0.5"/>
                </g>
                <g id="arrowLeft" xlink:href="#dirArrow" transform="rotate(270) translate(-36 17)" onmousedown="handlePan(-1,0)">
                  <use xlink:href="#rim" fill="#404040">
                        <set attributeName="fill" to="#808080" begin="arrowLeft.mouseover" end="arrowLeft.mouseout"/>
                  </use>
                  <path fill="none" stroke="white" stroke-width="1.5" d="M0,-3.0v7 M-2.5,-0.5L0,-3.0L2.5,-0.5"/>
                </g>
        </g>
        <svg viewBox="0 0 15 15" width="100%" height="30px" preserveAspectRatio="xMaxYMin meet">
         <g id="arrow_out" transform="scale(0.3 0.3)">
          <a xlink:href="class_cell_society_view__coll__graph_org.svg" target="_base">
           <rect id="button" ry="5" rx="5" y="6" x="6" height="38" width="38"
                fill="#f2f5e9" fill-opacity="0.5" stroke="#606060" stroke-width="1.0"/>
           <path id="arrow"
             d="M 11.500037,31.436501 C 11.940474,20.09759 22.043105,11.32322 32.158766,21.979434 L 37.068811,17.246167 C 37.068811,17.246167 37.088388,32 37.088388,32 L 22.160133,31.978069 C 22.160133,31.978069 26.997745,27.140456 26.997745,27.140456 C 18.528582,18.264221 13.291696,25.230495 11.500037,31.436501 z"
             style="fill:#404040;"/>
          </a>
         </g>
        </svg>
</svg>
