<?xml version="1.0" encoding="UTF-8" standalone="no"?>
<!DOCTYPE svg PUBLIC "-//W3C//DTD SVG 1.1//EN"
 "http://www.w3.org/Graphics/SVG/1.1/DTD/svg11.dtd">
<!-- Generated by graphviz version 2.36.0 (20140111.2315)
 -->
<!-- Title: CellSocietyView Pages: 1 -->
<svg width="465pt" height="310pt"
 viewBox="0.00 0.00 465.00 310.00" xmlns="http://www.w3.org/2000/svg" xmlns:xlink="http://www.w3.org/1999/xlink">
<g id="graph0" class="graph" transform="scale(1 1) rotate(0) translate(4 306)">
<title>CellSocietyView</title>
<polygon fill="white" stroke="none" points="-4,4 -4,-306 461,-306 461,4 -4,4"/>
<!-- Node1 -->
<g id="node1" class="node"><title>Node1</title>
<polygon fill="#bfbfbf" stroke="black" points="189.5,-0.5 189.5,-19.5 280.5,-19.5 280.5,-0.5 189.5,-0.5"/>
<text text-anchor="middle" x="235" y="-7.5" font-family="Helvetica,sans-Serif" font-size="10.00">CellSocietyView</text>
</g>
<!-- Node2 -->
<g id="node2" class="node"><title>Node2</title>
<polygon fill="white" stroke="#bfbfbf" points="0,-68.5 0,-87.5 56,-87.5 56,-68.5 0,-68.5"/>
<text text-anchor="middle" x="28" y="-75.5" font-family="Helvetica,sans-Serif" font-size="10.00">Timeline</text>
</g>
<!-- Node2&#45;&gt;Node1 -->
<g id="edge1" class="edge"><title>Node2&#45;&gt;Node1</title>
<path fill="none" stroke="#9a32cd" stroke-dasharray="5,2" d="M39.3604,-60.1757C45.6672,-52.1736 54.2133,-43.2325 64,-38 85.1375,-26.6986 146.316,-18.9987 189.435,-14.7996"/>
<polygon fill="#9a32cd" stroke="#9a32cd" points="36.5191,-58.1318 33.4431,-68.2703 42.1701,-62.2629 36.5191,-58.1318"/>
<text text-anchor="middle" x="97.5" y="-41.5" font-family="Helvetica,sans-Serif" font-size="10.00"> myAnimation</text>
</g>
<!-- Node3 -->
<g id="node3" class="node"><title>Node3</title>
<polygon fill="white" stroke="#bfbfbf" points="73.5,-68.5 73.5,-87.5 166.5,-87.5 166.5,-68.5 73.5,-68.5"/>
<text text-anchor="middle" x="120" y="-75.5" font-family="Helvetica,sans-Serif" font-size="10.00">ResourceBundle</text>
</g>
<!-- Node3&#45;&gt;Node1 -->
<g id="edge2" class="edge"><title>Node3&#45;&gt;Node1</title>
<path fill="none" stroke="#9a32cd" stroke-dasharray="5,2" d="M128.405,-59.1477C132.724,-51.6704 138.641,-43.4642 146,-38 158.575,-28.6632 174.398,-22.5256 189.203,-18.5032"/>
<polygon fill="#9a32cd" stroke="#9a32cd" points="125.172,-57.7789 123.661,-68.2655 131.382,-61.0099 125.172,-57.7789"/>
<text text-anchor="middle" x="188.5" y="-41.5" font-family="Helvetica,sans-Serif" font-size="10.00"> myButtonNames</text>
</g>
<!-- Node4 -->
<g id="node4" class="node"><title>Node4</title>
<g id="a_node4"><a xlink:href="../../dd/d97/class_grid_drawer.html" target="_top" xlink:title="GridDrawer">
<polygon fill="white" stroke="black" points="303,-68.5 303,-87.5 373,-87.5 373,-68.5 303,-68.5"/>
<text text-anchor="middle" x="338" y="-75.5" font-family="Helvetica,sans-Serif" font-size="10.00">GridDrawer</text>
</a>
</g>
</g>
<!-- Node4&#45;&gt;Node1 -->
<g id="edge3" class="edge"><title>Node4&#45;&gt;Node1</title>
<path fill="none" stroke="#9a32cd" stroke-dasharray="5,2" d="M315.857,-62.8113C295.374,-49.6863 265.589,-30.6004 248.469,-19.6305"/>
<polygon fill="#9a32cd" stroke="#9a32cd" points="314.226,-65.9233 324.535,-68.3717 318.003,-60.0295 314.226,-65.9233"/>
<text text-anchor="middle" x="326" y="-41.5" font-family="Helvetica,sans-Serif" font-size="10.00"> myGridView</text>
</g>
<!-- Node5 -->
<g id="node5" class="node"><title>Node5</title>
<g id="a_node5"><a xlink:href="../../da/d74/class_grid.html" target="_top" xlink:title="Grid">
<polygon fill="white" stroke="black" points="278,-136.5 278,-155.5 314,-155.5 314,-136.5 278,-136.5"/>
<text text-anchor="middle" x="296" y="-143.5" font-family="Helvetica,sans-Serif" font-size="10.00">Grid</text>
</a>
</g>
</g>
<!-- Node5&#45;&gt;Node4 -->
<g id="edge4" class="edge"><title>Node5&#45;&gt;Node4</title>
<path fill="none" stroke="#9a32cd" stroke-dasharray="5,2" d="M297.22,-126.006C298.32,-119.305 300.337,-111.961 304,-106 308.578,-98.5504 315.988,-92.3083 322.723,-87.7089"/>
<polygon fill="#9a32cd" stroke="#9a32cd" points="293.7,-126.002 296.106,-136.321 300.66,-126.754 293.7,-126.002"/>
<text text-anchor="middle" x="323" y="-109.5" font-family="Helvetica,sans-Serif" font-size="10.00"> myGrid</text>
</g>
<!-- Node11 -->
<g id="node11" class="node"><title>Node11</title>
<g id="a_node11"><a xlink:href="../../d2/d40/class_cellular_automata.html" target="_top" xlink:title="CellularAutomata">
<polygon fill="white" stroke="black" points="185,-68.5 185,-87.5 285,-87.5 285,-68.5 185,-68.5"/>
<text text-anchor="middle" x="235" y="-75.5" font-family="Helvetica,sans-Serif" font-size="10.00">CellularAutomata</text>
</a>
</g>
</g>
<!-- Node5&#45;&gt;Node11 -->
<g id="edge12" class="edge"><title>Node5&#45;&gt;Node11</title>
<path fill="none" stroke="#9a32cd" stroke-dasharray="5,2" d="M271.704,-130.712C266.487,-126.98 261.266,-122.677 257,-118 248.723,-108.925 242.283,-96.196 238.565,-87.7803"/>
<polygon fill="#9a32cd" stroke="#9a32cd" points="270.044,-133.81 280.312,-136.418 273.911,-127.976 270.044,-133.81"/>
<text text-anchor="middle" x="276" y="-109.5" font-family="Helvetica,sans-Serif" font-size="10.00"> myGrid</text>
</g>
<!-- Node6 -->
<g id="node6" class="node"><title>Node6</title>
<polygon fill="white" stroke="#bfbfbf" points="355,-204.5 355,-223.5 401,-223.5 401,-204.5 355,-204.5"/>
<text text-anchor="middle" x="378" y="-211.5" font-family="Helvetica,sans-Serif" font-size="10.00">Group</text>
</g>
<!-- Node6&#45;&gt;Node4 -->
<g id="edge9" class="edge"><title>Node6&#45;&gt;Node4</title>
<path fill="none" stroke="#9a32cd" stroke-dasharray="5,2" d="M390.909,-196.309C406.479,-173.989 428.3,-133.987 409,-106 404.283,-99.1604 387.01,-92.5128 370.683,-87.5251"/>
<polygon fill="#9a32cd" stroke="#9a32cd" points="388.033,-194.314 384.953,-204.451 393.683,-198.446 388.033,-194.314"/>
<text text-anchor="middle" x="437" y="-143.5" font-family="Helvetica,sans-Serif" font-size="10.00"> myRoot</text>
</g>
<!-- Node6&#45;&gt;Node5 -->
<g id="edge5" class="edge"><title>Node6&#45;&gt;Node5</title>
<path fill="none" stroke="midnightblue" d="M364.062,-196.374C357.481,-189.055 349.268,-180.632 341,-174 332.33,-167.045 321.703,-160.587 312.954,-155.732"/>
<polygon fill="midnightblue" stroke="midnightblue" points="361.739,-199.037 370.942,-204.287 367.021,-194.444 361.739,-199.037"/>
</g>
<!-- Node7 -->
<g id="node7" class="node"><title>Node7</title>
<g id="a_node7"><a xlink:href="../../dd/d11/class_cell.html" target="_top" xlink:title="Cell">
<polygon fill="white" stroke="black" points="279,-204.5 279,-223.5 313,-223.5 313,-204.5 279,-204.5"/>
<text text-anchor="middle" x="296" y="-211.5" font-family="Helvetica,sans-Serif" font-size="10.00">Cell</text>
</a>
</g>
</g>
<!-- Node7&#45;&gt;Node5 -->
<g id="edge6" class="edge"><title>Node7&#45;&gt;Node5</title>
<path fill="none" stroke="#9a32cd" stroke-dasharray="5,2" d="M296,-194.041C296,-181.472 296,-165.563 296,-155.841"/>
<polygon fill="#9a32cd" stroke="#9a32cd" points="292.5,-194.372 296,-204.372 299.5,-194.372 292.5,-194.372"/>
<text text-anchor="middle" x="316.5" y="-177.5" font-family="Helvetica,sans-Serif" font-size="10.00"> myCells</text>
</g>
<!-- Node8 -->
<g id="node8" class="node"><title>Node8</title>
<polygon fill="white" stroke="#bfbfbf" points="276,-282.5 276,-301.5 316,-301.5 316,-282.5 276,-282.5"/>
<text text-anchor="middle" x="296" y="-289.5" font-family="Helvetica,sans-Serif" font-size="10.00">Paint</text>
</g>
<!-- Node8&#45;&gt;Node7 -->
<g id="edge7" class="edge"><title>Node8&#45;&gt;Node7</title>
<path fill="none" stroke="#9a32cd" stroke-dasharray="5,2" d="M296,-272.224C296,-256.697 296,-235.358 296,-223.616"/>
<polygon fill="#9a32cd" stroke="#9a32cd" points="292.5,-272.282 296,-282.282 299.5,-272.282 292.5,-272.282"/>
<text text-anchor="middle" x="326" y="-256" font-family="Helvetica,sans-Serif" font-size="10.00"> nextColor</text>
<text text-anchor="middle" x="326" y="-245" font-family="Helvetica,sans-Serif" font-size="10.00">currentColor</text>
</g>
<!-- Node9 -->
<g id="node9" class="node"><title>Node9</title>
<polygon fill="white" stroke="#bfbfbf" points="333.5,-136.5 333.5,-155.5 380.5,-155.5 380.5,-136.5 333.5,-136.5"/>
<text text-anchor="middle" x="357" y="-143.5" font-family="Helvetica,sans-Serif" font-size="10.00">Shape</text>
</g>
<!-- Node9&#45;&gt;Node4 -->
<g id="edge8" class="edge"><title>Node9&#45;&gt;Node4</title>
<path fill="none" stroke="#9a32cd" stroke-dasharray="5,2" d="M351.653,-126.425C348.018,-113.798 343.372,-97.6623 340.545,-87.8411"/>
<polygon fill="#9a32cd" stroke="#9a32cd" points="348.386,-127.73 354.516,-136.372 355.113,-125.794 348.386,-127.73"/>
<text text-anchor="middle" x="377.5" y="-109.5" font-family="Helvetica,sans-Serif" font-size="10.00"> myShapes</text>
</g>
<!-- Node10 -->
<g id="node10" class="node"><title>Node10</title>
<polygon fill="white" stroke="#bfbfbf" points="391.5,-68.5 391.5,-87.5 438.5,-87.5 438.5,-68.5 391.5,-68.5"/>
<text text-anchor="middle" x="415" y="-75.5" font-family="Helvetica,sans-Serif" font-size="10.00">Scene</text>
</g>
<!-- Node10&#45;&gt;Node1 -->
<g id="edge10" class="edge"><title>Node10&#45;&gt;Node1</title>
<path fill="none" stroke="#9a32cd" stroke-dasharray="5,2" d="M397.435,-61.7502C387.154,-53.5693 373.559,-43.97 360,-38 334.906,-26.9507 304.932,-20.2785 280.627,-16.3317"/>
<polygon fill="#9a32cd" stroke="#9a32cd" points="395.28,-64.5091 405.219,-68.1777 399.737,-59.1115 395.28,-64.5091"/>
<text text-anchor="middle" x="405.5" y="-41.5" font-family="Helvetica,sans-Serif" font-size="10.00"> myScene</text>
</g>
<!-- Node11&#45;&gt;Node1 -->
<g id="edge11" class="edge"><title>Node11&#45;&gt;Node1</title>
<path fill="none" stroke="#9a32cd" stroke-dasharray="5,2" d="M235,-58.0413C235,-45.4724 235,-29.5631 235,-19.8411"/>
<polygon fill="#9a32cd" stroke="#9a32cd" points="231.5,-58.3716 235,-68.3717 238.5,-58.3717 231.5,-58.3716"/>
<text text-anchor="middle" x="251" y="-41.5" font-family="Helvetica,sans-Serif" font-size="10.00"> myCA</text>
</g>
<!-- Node12 -->
<g id="node12" class="node"><title>Node12</title>
<polygon fill="white" stroke="#bfbfbf" points="126,-136.5 126,-155.5 182,-155.5 182,-136.5 126,-136.5"/>
<text text-anchor="middle" x="154" y="-143.5" font-family="Helvetica,sans-Serif" font-size="10.00">Random</text>
</g>
<!-- Node12&#45;&gt;Node11 -->
<g id="edge13" class="edge"><title>Node12&#45;&gt;Node11</title>
<path fill="none" stroke="#9a32cd" stroke-dasharray="5,2" d="M165.849,-128.452C171.678,-121.026 179.136,-112.496 187,-106 195.845,-98.6926 206.945,-92.3033 216.242,-87.5769"/>
<polygon fill="#9a32cd" stroke="#9a32cd" points="163.031,-126.375 159.826,-136.473 168.629,-130.578 163.031,-126.375"/>
<text text-anchor="middle" x="216" y="-109.5" font-family="Helvetica,sans-Serif" font-size="10.00"> myRandom</text>
</g>
</g>
</svg>
