<?xml version="1.0" encoding="UTF-8" standalone="no"?>
<!DOCTYPE svg PUBLIC "-//W3C//DTD SVG 1.1//EN"
 "http://www.w3.org/Graphics/SVG/1.1/DTD/svg11.dtd">
<!-- Generated by graphviz version 2.36.0 (20140111.2315)
 -->
<!-- Title: CellSocietyView Pages: 1 -->
<!--zoomable 346 -->
<svg id="main" version="1.1" xmlns="http://www.w3.org/2000/svg" xmlns:xlink="http://www.w3.org/1999/xlink" xml:space="preserve" onload="init(evt)">
<style type="text/css"><![CDATA[
.edge:hover path { stroke: red; }
.edge:hover polygon { stroke: red; fill: red; }
]]></style>
<script type="text/javascript"><![CDATA[
var edges = document.getElementsByTagName('g');
if (edges && edges.length) {
  for (var i=0;i<edges.length;i++) {
    if (edges[i].id.substr(0,4)=='edge') {
      edges[i].setAttribute('class','edge');
    }
  }
}
]]></script>
        <defs>
                <circle id="rim" cx="0" cy="0" r="7"/>
                <circle id="rim2" cx="0" cy="0" r="3.5"/>
                <g id="zoomPlus">
                        <use xlink:href="#rim" fill="#404040">
                                <set attributeName="fill" to="#808080" begin="zoomplus.mouseover" end="zoomplus.mouseout"/>
                        </use>
                        <path d="M-4,0h8M0,-4v8" fill="none" stroke="white" stroke-width="1.5" pointer-events="none"/>
                </g>
                <g id="zoomMin">
                        <use xlink:href="#rim" fill="#404040">
                                <set attributeName="fill" to="#808080" begin="zoomminus.mouseover" end="zoomminus.mouseout"/>
                        </use>
                        <path d="M-4,0h8" fill="none" stroke="white" stroke-width="1.5" pointer-events="none"/>
                </g>
                <g id="dirArrow">
                        <path fill="none" stroke="white" stroke-width="1.5" d="M0,-3.0v7 M-2.5,-0.5L0,-3.0L2.5,-0.5"/>
                </g>
               <g id="resetDef">
                       <use xlink:href="#rim2" fill="#404040">
                               <set attributeName="fill" to="#808080" begin="reset.mouseover" end="reset.mouseout"/>
                       </use>
               </g>
        </defs>

<script type="text/javascript">
var viewWidth = 836;
var viewHeight = 346;
var sectionId = 'dynsection-0';
</script>
<script xlink:href="../../svgpan.js"/>
<svg id="graph" class="graph">
<g id="viewport">
<title>CellSocietyView</title>
<polygon fill="white" stroke="none" points="-4,4 -4,-342 832,-342 832,4 -4,4"/>
<!-- Node1 -->
<g id="node1" class="node"><title>Node1</title>
<polygon fill="#bfbfbf" stroke="black" points="736.5,-204.5 736.5,-223.5 827.5,-223.5 827.5,-204.5 736.5,-204.5"/>
<text text-anchor="middle" x="782" y="-211.5" font-family="Helvetica,sans-Serif" font-size="10.00">CellSocietyView</text>
</g>
<!-- Node2 -->
<g id="node2" class="node"><title>Node2</title>
<polygon fill="white" stroke="#bfbfbf" points="536,-318.5 536,-337.5 592,-337.5 592,-318.5 536,-318.5"/>
<text text-anchor="middle" x="564" y="-325.5" font-family="Helvetica,sans-Serif" font-size="10.00">Timeline</text>
</g>
<!-- Node2&#45;&gt;Node1 -->
<g id="edge1" class="edge"><title>Node2&#45;&gt;Node1</title>
<path fill="none" stroke="#9a32cd" stroke-dasharray="5,2" d="M602.353,-327.691C635.124,-325.813 682.895,-319.044 718,-297 747.415,-278.529 768.145,-241.077 776.672,-223.505"/>
<polygon fill="#9a32cd" stroke="#9a32cd" points="602.108,-324.198 592.275,-328.141 602.421,-331.191 602.108,-324.198"/>
<text text-anchor="middle" x="675" y="-328" font-family="Helvetica,sans-Serif" font-size="10.00"> myAnimation</text>
</g>
<!-- Node3 -->
<g id="node3" class="node"><title>Node3</title>
<polygon fill="white" stroke="#bfbfbf" points="517.5,-280.5 517.5,-299.5 610.5,-299.5 610.5,-280.5 517.5,-280.5"/>
<text text-anchor="middle" x="564" y="-287.5" font-family="Helvetica,sans-Serif" font-size="10.00">ResourceBundle</text>
</g>
<!-- Node3&#45;&gt;Node1 -->
<g id="edge2" class="edge"><title>Node3&#45;&gt;Node1</title>
<path fill="none" stroke="#9a32cd" stroke-dasharray="5,2" d="M620.791,-283.267C650.505,-278.382 687.178,-270.238 718,-257 737.711,-248.534 757.704,-233.563 769.728,-223.711"/>
<polygon fill="#9a32cd" stroke="#9a32cd" points="619.931,-279.859 610.592,-284.862 621.012,-286.775 619.931,-279.859"/>
<text text-anchor="middle" x="675" y="-285" font-family="Helvetica,sans-Serif" font-size="10.00"> myButtonNames</text>
</g>
<!-- Node4 -->
<g id="node4" class="node"><title>Node4</title>
<g id="a_node4"><a xlink:href="../../dd/d97/class_grid_drawer.html" target="_top" xlink:title="GridDrawer">
<polygon fill="white" stroke="black" points="529,-204.5 529,-223.5 599,-223.5 599,-204.5 529,-204.5"/>
<text text-anchor="middle" x="564" y="-211.5" font-family="Helvetica,sans-Serif" font-size="10.00">GridDrawer</text>
</a>
</g>
</g>
<!-- Node4&#45;&gt;Node1 -->
<g id="edge3" class="edge"><title>Node4&#45;&gt;Node1</title>
<path fill="none" stroke="#9a32cd" stroke-dasharray="5,2" d="M609.262,-214C646.409,-214 699.221,-214 736.449,-214"/>
<polygon fill="#9a32cd" stroke="#9a32cd" points="609.226,-210.5 599.226,-214 609.226,-217.5 609.226,-210.5"/>
<text text-anchor="middle" x="675" y="-217" font-family="Helvetica,sans-Serif" font-size="10.00"> myGridView</text>
</g>
<!-- Node5 -->
<g id="node5" class="node"><title>Node5</title>
<g id="a_node5"><a xlink:href="../../da/d74/class_grid.html" target="_top" xlink:title="Grid">
<polygon fill="white" stroke="black" points="318,-248.5 318,-267.5 354,-267.5 354,-248.5 318,-248.5"/>
<text text-anchor="middle" x="336" y="-255.5" font-family="Helvetica,sans-Serif" font-size="10.00">Grid</text>
</a>
</g>
</g>
<!-- Node5&#45;&gt;Node4 -->
<g id="edge4" class="edge"><title>Node5&#45;&gt;Node4</title>
<path fill="none" stroke="#9a32cd" stroke-dasharray="5,2" d="M364.259,-252.693C405.579,-244.648 484.007,-229.379 528.998,-220.62"/>
<polygon fill="#9a32cd" stroke="#9a32cd" points="363.505,-249.274 354.359,-254.62 364.843,-256.145 363.505,-249.274"/>
<text text-anchor="middle" x="463" y="-242" font-family="Helvetica,sans-Serif" font-size="10.00"> myGrid</text>
</g>
<!-- Node11 -->
<g id="node11" class="node"><title>Node11</title>
<g id="a_node11"><a xlink:href="../../d2/d40/class_cellular_automata.html" target="_top" xlink:title="CellularAutomata">
<polygon fill="white" stroke="black" points="514,-242.5 514,-261.5 614,-261.5 614,-242.5 514,-242.5"/>
<text text-anchor="middle" x="564" y="-249.5" font-family="Helvetica,sans-Serif" font-size="10.00">CellularAutomata</text>
</a>
</g>
</g>
<!-- Node5&#45;&gt;Node11 -->
<g id="edge12" class="edge"><title>Node5&#45;&gt;Node11</title>
<path fill="none" stroke="#9a32cd" stroke-dasharray="5,2" d="M364.445,-259.542C396.16,-261.047 449.902,-262.742 496,-260 501.73,-259.659 507.721,-259.156 513.663,-258.564"/>
<polygon fill="#9a32cd" stroke="#9a32cd" points="364.358,-256.034 354.195,-259.026 364.006,-263.025 364.358,-256.034"/>
<text text-anchor="middle" x="463" y="-265" font-family="Helvetica,sans-Serif" font-size="10.00"> myGrid</text>
</g>
<!-- Node6 -->
<g id="node6" class="node"><title>Node6</title>
<polygon fill="white" stroke="#bfbfbf" points="136,-191.5 136,-210.5 182,-210.5 182,-191.5 136,-191.5"/>
<text text-anchor="middle" x="159" y="-198.5" font-family="Helvetica,sans-Serif" font-size="10.00">Group</text>
</g>
<!-- Node6&#45;&gt;Node4 -->
<g id="edge9" class="edge"><title>Node6&#45;&gt;Node4</title>
<path fill="none" stroke="#9a32cd" stroke-dasharray="5,2" d="M192.109,-196.563C211.684,-194.084 237.234,-191.248 260,-190 327.454,-186.301 344.654,-184.681 412,-190 452.487,-193.197 498.515,-201.146 529,-207.024"/>
<polygon fill="#9a32cd" stroke="#9a32cd" points="191.649,-193.093 182.184,-197.854 192.552,-200.035 191.649,-193.093"/>
<text text-anchor="middle" x="336" y="-193" font-family="Helvetica,sans-Serif" font-size="10.00"> myRoot</text>
</g>
<!-- Node6&#45;&gt;Node5 -->
<g id="edge5" class="edge"><title>Node6&#45;&gt;Node5</title>
<path fill="none" stroke="midnightblue" d="M191.698,-214.116C211.2,-221.917 236.818,-231.686 260,-239 279.599,-245.184 302.56,-250.763 317.865,-254.251"/>
<polygon fill="midnightblue" stroke="midnightblue" points="192.961,-210.852 182.378,-210.352 190.339,-217.342 192.961,-210.852"/>
</g>
<!-- Node7 -->
<g id="node7" class="node"><title>Node7</title>
<g id="a_node7"><a xlink:href="../../dd/d11/class_cell.html" target="_top" xlink:title="Cell">
<polygon fill="white" stroke="black" points="142,-248.5 142,-267.5 176,-267.5 176,-248.5 142,-248.5"/>
<text text-anchor="middle" x="159" y="-255.5" font-family="Helvetica,sans-Serif" font-size="10.00">Cell</text>
</a>
</g>
</g>
<!-- Node7&#45;&gt;Node5 -->
<g id="edge6" class="edge"><title>Node7&#45;&gt;Node5</title>
<path fill="none" stroke="#9a32cd" stroke-dasharray="5,2" d="M186.467,-258C222.831,-258 287.214,-258 317.862,-258"/>
<polygon fill="#9a32cd" stroke="#9a32cd" points="186.15,-254.5 176.15,-258 186.15,-261.5 186.15,-254.5"/>
<text text-anchor="middle" x="221" y="-261" font-family="Helvetica,sans-Serif" font-size="10.00"> myCells</text>
</g>
<!-- Node8 -->
<g id="node8" class="node"><title>Node8</title>
<polygon fill="white" stroke="#bfbfbf" points="0,-248.5 0,-267.5 40,-267.5 40,-248.5 0,-248.5"/>
<text text-anchor="middle" x="20" y="-255.5" font-family="Helvetica,sans-Serif" font-size="10.00">Paint</text>
</g>
<!-- Node8&#45;&gt;Node7 -->
<g id="edge7" class="edge"><title>Node8&#45;&gt;Node7</title>
<path fill="none" stroke="#9a32cd" stroke-dasharray="5,2" d="M50.3959,-258C78.2884,-258 119.188,-258 141.679,-258"/>
<polygon fill="#9a32cd" stroke="#9a32cd" points="50.0493,-254.5 40.0493,-258 50.0492,-261.5 50.0493,-254.5"/>
<text text-anchor="middle" x="88" y="-272" font-family="Helvetica,sans-Serif" font-size="10.00"> nextColor</text>
<text text-anchor="middle" x="88" y="-261" font-family="Helvetica,sans-Serif" font-size="10.00">currentColor</text>
</g>
<!-- Node9 -->
<g id="node9" class="node"><title>Node9</title>
<polygon fill="white" stroke="#bfbfbf" points="312.5,-210.5 312.5,-229.5 359.5,-229.5 359.5,-210.5 312.5,-210.5"/>
<text text-anchor="middle" x="336" y="-217.5" font-family="Helvetica,sans-Serif" font-size="10.00">Shape</text>
</g>
<!-- Node9&#45;&gt;Node4 -->
<g id="edge8" class="edge"><title>Node9&#45;&gt;Node4</title>
<path fill="none" stroke="#9a32cd" stroke-dasharray="5,2" d="M369.706,-217.872C387.524,-216.805 409.964,-215.614 430,-215 463.582,-213.972 501.954,-213.789 528.823,-213.823"/>
<polygon fill="#9a32cd" stroke="#9a32cd" points="369.305,-214.39 359.539,-218.496 369.735,-221.376 369.305,-214.39"/>
<text text-anchor="middle" x="463" y="-218" font-family="Helvetica,sans-Serif" font-size="10.00"> myShapes</text>
</g>
<!-- Node10 -->
<g id="node10" class="node"><title>Node10</title>
<polygon fill="white" stroke="#bfbfbf" points="540.5,-166.5 540.5,-185.5 587.5,-185.5 587.5,-166.5 540.5,-166.5"/>
<text text-anchor="middle" x="564" y="-173.5" font-family="Helvetica,sans-Serif" font-size="10.00">Scene</text>
</g>
<!-- Node10&#45;&gt;Node1 -->
<g id="edge10" class="edge"><title>Node10&#45;&gt;Node1</title>
<path fill="none" stroke="#9a32cd" stroke-dasharray="5,2" d="M597.91,-180.129C628.988,-184.221 676.837,-191.021 718,-199 726.168,-200.583 734.878,-202.505 743.134,-204.436"/>
<polygon fill="#9a32cd" stroke="#9a32cd" points="598.023,-176.614 587.656,-178.797 597.122,-183.556 598.023,-176.614"/>
<text text-anchor="middle" x="675" y="-202" font-family="Helvetica,sans-Serif" font-size="10.00"> myScene</text>
</g>
<!-- Node11&#45;&gt;Node1 -->
<g id="edge11" class="edge"><title>Node11&#45;&gt;Node1</title>
<path fill="none" stroke="#9a32cd" stroke-dasharray="5,2" d="M624.24,-243.597C652.671,-239.338 687.178,-233.836 718,-228 725.046,-226.666 732.506,-225.124 739.733,-223.561"/>
<polygon fill="#9a32cd" stroke="#9a32cd" points="623.435,-240.178 614.058,-245.109 624.463,-247.102 623.435,-240.178"/>
<text text-anchor="middle" x="675" y="-245" font-family="Helvetica,sans-Serif" font-size="10.00"> myCA</text>
</g>
<!-- Node12 -->
<g id="node12" class="node"><title>Node12</title>
<polygon fill="white" stroke="#bfbfbf" points="308,-306.5 308,-325.5 364,-325.5 364,-306.5 308,-306.5"/>
<text text-anchor="middle" x="336" y="-313.5" font-family="Helvetica,sans-Serif" font-size="10.00">Random</text>
</g>
<!-- Node12&#45;&gt;Node11 -->
<g id="edge13" class="edge"><title>Node12&#45;&gt;Node11</title>
<path fill="none" stroke="#9a32cd" stroke-dasharray="5,2" d="M374.221,-308.16C406.658,-301.022 454.823,-289.685 496,-277 504.128,-274.496 522.744,-267.512 538.296,-261.561"/>
<polygon fill="#9a32cd" stroke="#9a32cd" points="373.297,-304.779 364.271,-310.326 374.786,-311.619 373.297,-304.779"/>
<text text-anchor="middle" x="463" y="-298" font-family="Helvetica,sans-Serif" font-size="10.00"> myRandom</text>
</g>
<!-- Node13 -->
<g id="node13" class="node"><title>Node13</title>
<g id="a_node13"><a xlink:href="../../d7/db3/class_x_m_l_reader.html" target="_top" xlink:title="XMLReader">
<polygon fill="white" stroke="black" points="529.5,-106.5 529.5,-125.5 598.5,-125.5 598.5,-106.5 529.5,-106.5"/>
<text text-anchor="middle" x="564" y="-113.5" font-family="Helvetica,sans-Serif" font-size="10.00">XMLReader</text>
</a>
</g>
</g>
<!-- Node13&#45;&gt;Node1 -->
<g id="edge14" class="edge"><title>Node13&#45;&gt;Node1</title>
<path fill="none" stroke="#9a32cd" stroke-dasharray="5,2" d="M608.282,-128.325C639.607,-138.012 682.498,-152.877 718,-171 736.871,-180.633 756.763,-195.022 769.028,-204.459"/>
<polygon fill="#9a32cd" stroke="#9a32cd" points="609.127,-124.924 598.542,-125.365 607.091,-131.622 609.127,-124.924"/>
<text text-anchor="middle" x="675" y="-174" font-family="Helvetica,sans-Serif" font-size="10.00"> myReader</text>
</g>
<!-- Node14 -->
<g id="node14" class="node"><title>Node14</title>
<polygon fill="white" stroke="#bfbfbf" points="264.5,-87.5 264.5,-106.5 407.5,-106.5 407.5,-87.5 264.5,-87.5"/>
<text text-anchor="middle" x="336" y="-94.5" font-family="Helvetica,sans-Serif" font-size="10.00">HashMap&lt; String, int[][]&gt;</text>
</g>
<!-- Node14&#45;&gt;Node13 -->
<g id="edge15" class="edge"><title>Node14&#45;&gt;Node13</title>
<path fill="none" stroke="#9a32cd" stroke-dasharray="5,2" d="M417.859,-96.8156C442.968,-97.4894 470.692,-98.9814 496,-102 506.974,-103.309 518.816,-105.514 529.449,-107.792"/>
<polygon fill="#9a32cd" stroke="#9a32cd" points="417.72,-93.3116 407.643,-96.5819 417.56,-100.31 417.72,-93.3116"/>
<text text-anchor="middle" x="463" y="-105" font-family="Helvetica,sans-Serif" font-size="10.00"> nbhoodTypes</text>
</g>
<!-- Node15 -->
<g id="node15" class="node"><title>Node15</title>
<polygon fill="white" stroke="#bfbfbf" points="267,-49.5 267,-68.5 405,-68.5 405,-49.5 267,-49.5"/>
<text text-anchor="middle" x="336" y="-56.5" font-family="Helvetica,sans-Serif" font-size="10.00">HashMap&lt; String, Grid &gt;</text>
</g>
<!-- Node15&#45;&gt;Node13 -->
<g id="edge16" class="edge"><title>Node15&#45;&gt;Node13</title>
<path fill="none" stroke="#9a32cd" stroke-dasharray="5,2" d="M415.222,-62.8123C441.677,-66.1655 470.864,-72.2114 496,-83 505.313,-86.9973 505.182,-92.004 514,-97 520.271,-100.553 527.338,-103.723 534.113,-106.407"/>
<polygon fill="#9a32cd" stroke="#9a32cd" points="415.567,-59.329 405.231,-61.6547 414.761,-66.2825 415.567,-59.329"/>
<text text-anchor="middle" x="463" y="-86" font-family="Helvetica,sans-Serif" font-size="10.00"> gridTypes</text>
</g>
<!-- Node16 -->
<g id="node16" class="node"><title>Node16</title>
<polygon fill="white" stroke="#bfbfbf" points="264.5,-0 264.5,-30 407.5,-30 407.5,-0 264.5,-0"/>
<text text-anchor="start" x="272.5" y="-18" font-family="Helvetica,sans-Serif" font-size="10.00">HashMap&lt; String, Cellular</text>
<text text-anchor="middle" x="336" y="-7" font-family="Helvetica,sans-Serif" font-size="10.00">Automata &gt;</text>
</g>
<!-- Node16&#45;&gt;Node13 -->
<g id="edge17" class="edge"><title>Node16&#45;&gt;Node13</title>
<path fill="none" stroke="#9a32cd" stroke-dasharray="5,2" d="M417.739,-18.1633C445.213,-22.8945 474.403,-32.428 496,-51 512.646,-65.3142 498.452,-81.5002 514,-97 518.329,-101.316 523.749,-104.674 529.391,-107.28"/>
<polygon fill="#9a32cd" stroke="#9a32cd" points="418.126,-14.6819 407.711,-16.6297 417.067,-21.6014 418.126,-14.6819"/>
<text text-anchor="middle" x="463" y="-54" font-family="Helvetica,sans-Serif" font-size="10.00"> gameTypes</text>
</g>
<!-- Node17 -->
<g id="node17" class="node"><title>Node17</title>
<polygon fill="white" stroke="#bfbfbf" points="260,-125.5 260,-144.5 412,-144.5 412,-125.5 260,-125.5"/>
<text text-anchor="middle" x="336" y="-132.5" font-family="Helvetica,sans-Serif" font-size="10.00">HashMap&lt; String, Integer &gt;</text>
</g>
<!-- Node17&#45;&gt;Node13 -->
<g id="edge18" class="edge"><title>Node17&#45;&gt;Node13</title>
<path fill="none" stroke="#9a32cd" stroke-dasharray="5,2" d="M422.625,-127.801C459.84,-124.673 501.269,-121.19 529.411,-118.824"/>
<polygon fill="#9a32cd" stroke="#9a32cd" points="421.926,-124.348 412.255,-128.673 422.513,-131.323 421.926,-124.348"/>
<text text-anchor="middle" x="463" y="-130" font-family="Helvetica,sans-Serif" font-size="10.00"> parameters</text>
</g>
<!-- Node18 -->
<g id="node18" class="node"><title>Node18</title>
<polygon fill="white" stroke="#bfbfbf" points="528,-68.5 528,-87.5 600,-87.5 600,-68.5 528,-68.5"/>
<text text-anchor="middle" x="564" y="-75.5" font-family="Helvetica,sans-Serif" font-size="10.00">BorderPane</text>
</g>
<!-- Node18&#45;&gt;Node1 -->
<g id="edge19" class="edge"><title>Node18&#45;&gt;Node1</title>
<path fill="none" stroke="#9a32cd" stroke-dasharray="5,2" d="M610.295,-82.7772C642.786,-88.0564 686.251,-99.084 718,-122 748.451,-143.979 768.93,-185.48 777.063,-204.293"/>
<polygon fill="#9a32cd" stroke="#9a32cd" points="610.569,-79.2792 600.161,-81.2573 609.531,-86.2018 610.569,-79.2792"/>
<text text-anchor="middle" x="675" y="-125" font-family="Helvetica,sans-Serif" font-size="10.00"> myRoot</text>
</g>
</g>
</svg>
        <g id="navigator" transform="translate(0 0)" fill="#404254">
                <rect fill="#f2f5e9" fill-opacity="0.5" stroke="#606060" stroke-width=".5" x="0" y="0" width="60" height="60"/>
                <use id="zoomplus" xlink:href="#zoomPlus" x="17" y="9" onmousedown="handleZoom(evt,'in')"/>
                <use id="zoomminus" xlink:href="#zoomMin" x="42" y="9" onmousedown="handleZoom(evt,'out')"/>
                <use id="reset" xlink:href="#resetDef" x="30" y="36" onmousedown="handleReset()"/>
                <g id="arrowUp" xlink:href="#dirArrow" transform="translate(30 24)" onmousedown="handlePan(0,-1)">
                  <use xlink:href="#rim" fill="#404040">
                        <set attributeName="fill" to="#808080" begin="arrowUp.mouseover" end="arrowUp.mouseout"/>
                  </use>
                  <path fill="none" stroke="white" stroke-width="1.5" d="M0,-3.0v7 M-2.5,-0.5L0,-3.0L2.5,-0.5"/>
                </g>
                <g id="arrowRight" xlink:href="#dirArrow" transform="rotate(90) translate(36 -43)" onmousedown="handlePan(1,0)">
                  <use xlink:href="#rim" fill="#404040">
                        <set attributeName="fill" to="#808080" begin="arrowRight.mouseover" end="arrowRight.mouseout"/>
                  </use>
                  <path fill="none" stroke="white" stroke-width="1.5" d="M0,-3.0v7 M-2.5,-0.5L0,-3.0L2.5,-0.5"/>
                </g>
                <g id="arrowDown" xlink:href="#dirArrow" transform="rotate(180) translate(-30 -48)" onmousedown="handlePan(0,1)">
                  <use xlink:href="#rim" fill="#404040">
                        <set attributeName="fill" to="#808080" begin="arrowDown.mouseover" end="arrowDown.mouseout"/>
                  </use>
                  <path fill="none" stroke="white" stroke-width="1.5" d="M0,-3.0v7 M-2.5,-0.5L0,-3.0L2.5,-0.5"/>
                </g>
                <g id="arrowLeft" xlink:href="#dirArrow" transform="rotate(270) translate(-36 17)" onmousedown="handlePan(-1,0)">
                  <use xlink:href="#rim" fill="#404040">
                        <set attributeName="fill" to="#808080" begin="arrowLeft.mouseover" end="arrowLeft.mouseout"/>
                  </use>
                  <path fill="none" stroke="white" stroke-width="1.5" d="M0,-3.0v7 M-2.5,-0.5L0,-3.0L2.5,-0.5"/>
                </g>
        </g>
        <svg viewBox="0 0 15 15" width="100%" height="30px" preserveAspectRatio="xMaxYMin meet">
         <g id="arrow_out" transform="scale(0.3 0.3)">
          <a xlink:href="class_cell_society_view__coll__graph_org.svg" target="_base">
           <rect id="button" ry="5" rx="5" y="6" x="6" height="38" width="38"
                fill="#f2f5e9" fill-opacity="0.5" stroke="#606060" stroke-width="1.0"/>
           <path id="arrow"
             d="M 11.500037,31.436501 C 11.940474,20.09759 22.043105,11.32322 32.158766,21.979434 L 37.068811,17.246167 C 37.068811,17.246167 37.088388,32 37.088388,32 L 22.160133,31.978069 C 22.160133,31.978069 26.997745,27.140456 26.997745,27.140456 C 18.528582,18.264221 13.291696,25.230495 11.500037,31.436501 z"
             style="fill:#404040;"/>
          </a>
         </g>
        </svg>
</svg>
