<?xml version="1.0" encoding="UTF-8" standalone="no"?>
<!DOCTYPE svg PUBLIC "-//W3C//DTD SVG 1.1//EN"
 "http://www.w3.org/Graphics/SVG/1.1/DTD/svg11.dtd">
<!-- Generated by graphviz version 2.36.0 (20140111.2315)
 -->
<!-- Title: CellSocietyView Pages: 1 -->
<!--zoomable 306 -->
<svg id="main" version="1.1" xmlns="http://www.w3.org/2000/svg" xmlns:xlink="http://www.w3.org/1999/xlink" xml:space="preserve" onload="init(evt)">
<style type="text/css"><![CDATA[
.edge:hover path { stroke: red; }
.edge:hover polygon { stroke: red; fill: red; }
]]></style>
<script type="text/javascript"><![CDATA[
var edges = document.getElementsByTagName('g');
if (edges && edges.length) {
  for (var i=0;i<edges.length;i++) {
    if (edges[i].id.substr(0,4)=='edge') {
      edges[i].setAttribute('class','edge');
    }
  }
}
]]></script>
        <defs>
                <circle id="rim" cx="0" cy="0" r="7"/>
                <circle id="rim2" cx="0" cy="0" r="3.5"/>
                <g id="zoomPlus">
                        <use xlink:href="#rim" fill="#404040">
                                <set attributeName="fill" to="#808080" begin="zoomplus.mouseover" end="zoomplus.mouseout"/>
                        </use>
                        <path d="M-4,0h8M0,-4v8" fill="none" stroke="white" stroke-width="1.5" pointer-events="none"/>
                </g>
                <g id="zoomMin">
                        <use xlink:href="#rim" fill="#404040">
                                <set attributeName="fill" to="#808080" begin="zoomminus.mouseover" end="zoomminus.mouseout"/>
                        </use>
                        <path d="M-4,0h8" fill="none" stroke="white" stroke-width="1.5" pointer-events="none"/>
                </g>
                <g id="dirArrow">
                        <path fill="none" stroke="white" stroke-width="1.5" d="M0,-3.0v7 M-2.5,-0.5L0,-3.0L2.5,-0.5"/>
                </g>
               <g id="resetDef">
                       <use xlink:href="#rim2" fill="#404040">
                               <set attributeName="fill" to="#808080" begin="reset.mouseover" end="reset.mouseout"/>
                       </use>
               </g>
        </defs>

<script type="text/javascript">
var viewWidth = 828;
var viewHeight = 306;
var sectionId = 'dynsection-0';
</script>
<script xlink:href="../../svgpan.js"/>
<svg id="graph" class="graph">
<g id="viewport">
<title>CellSocietyView</title>
<polygon fill="white" stroke="none" points="-4,4 -4,-302 824,-302 824,4 -4,4"/>
<!-- Node1 -->
<g id="node1" class="node"><title>Node1</title>
<polygon fill="#bfbfbf" stroke="black" points="728.5,-164.5 728.5,-183.5 819.5,-183.5 819.5,-164.5 728.5,-164.5"/>
<text text-anchor="middle" x="774" y="-171.5" font-family="Helvetica,sans-Serif" font-size="10.00">CellSocietyView</text>
</g>
<!-- Node2 -->
<g id="node2" class="node"><title>Node2</title>
<polygon fill="white" stroke="#bfbfbf" points="528,-278.5 528,-297.5 584,-297.5 584,-278.5 528,-278.5"/>
<text text-anchor="middle" x="556" y="-285.5" font-family="Helvetica,sans-Serif" font-size="10.00">Timeline</text>
</g>
<!-- Node2&#45;&gt;Node1 -->
<g id="edge1" class="edge"><title>Node2&#45;&gt;Node1</title>
<path fill="none" stroke="#9a32cd" stroke-dasharray="5,2" d="M594.353,-287.691C627.124,-285.813 674.895,-279.044 710,-257 739.415,-238.529 760.145,-201.077 768.672,-183.505"/>
<polygon fill="#9a32cd" stroke="#9a32cd" points="594.108,-284.198 584.275,-288.141 594.421,-291.191 594.108,-284.198"/>
<text text-anchor="middle" x="667" y="-288" font-family="Helvetica,sans-Serif" font-size="10.00"> myAnimation</text>
</g>
<!-- Node3 -->
<g id="node3" class="node"><title>Node3</title>
<polygon fill="white" stroke="#bfbfbf" points="509.5,-240.5 509.5,-259.5 602.5,-259.5 602.5,-240.5 509.5,-240.5"/>
<text text-anchor="middle" x="556" y="-247.5" font-family="Helvetica,sans-Serif" font-size="10.00">ResourceBundle</text>
</g>
<!-- Node3&#45;&gt;Node1 -->
<g id="edge2" class="edge"><title>Node3&#45;&gt;Node1</title>
<path fill="none" stroke="#9a32cd" stroke-dasharray="5,2" d="M612.791,-243.267C642.505,-238.382 679.178,-230.238 710,-217 729.711,-208.534 749.704,-193.563 761.728,-183.711"/>
<polygon fill="#9a32cd" stroke="#9a32cd" points="611.931,-239.859 602.592,-244.862 613.012,-246.775 611.931,-239.859"/>
<text text-anchor="middle" x="667" y="-245" font-family="Helvetica,sans-Serif" font-size="10.00"> myButtonNames</text>
</g>
<!-- Node4 -->
<g id="node4" class="node"><title>Node4</title>
<g id="a_node4"><a xlink:href="../../dd/d97/class_grid_drawer.html" target="_top" xlink:title="GridDrawer">
<polygon fill="white" stroke="black" points="521,-202.5 521,-221.5 591,-221.5 591,-202.5 521,-202.5"/>
<text text-anchor="middle" x="556" y="-209.5" font-family="Helvetica,sans-Serif" font-size="10.00">GridDrawer</text>
</a>
</g>
</g>
<!-- Node4&#45;&gt;Node1 -->
<g id="edge3" class="edge"><title>Node4&#45;&gt;Node1</title>
<path fill="none" stroke="#9a32cd" stroke-dasharray="5,2" d="M601.077,-205.838C631.715,-201.371 673.448,-194.921 710,-188 717.046,-186.666 724.506,-185.124 731.733,-183.561"/>
<polygon fill="#9a32cd" stroke="#9a32cd" points="600.533,-202.38 591.136,-207.275 601.534,-209.308 600.533,-202.38"/>
<text text-anchor="middle" x="667" y="-205" font-family="Helvetica,sans-Serif" font-size="10.00"> myGridView</text>
</g>
<!-- Node5 -->
<g id="node5" class="node"><title>Node5</title>
<g id="a_node5"><a xlink:href="../../da/d74/class_grid.html" target="_top" xlink:title="Grid">
<polygon fill="white" stroke="black" points="314,-171.5 314,-190.5 350,-190.5 350,-171.5 314,-171.5"/>
<text text-anchor="middle" x="332" y="-178.5" font-family="Helvetica,sans-Serif" font-size="10.00">Grid</text>
</a>
</g>
</g>
<!-- Node5&#45;&gt;Node4 -->
<g id="edge4" class="edge"><title>Node5&#45;&gt;Node4</title>
<path fill="none" stroke="#9a32cd" stroke-dasharray="5,2" d="M359.975,-184.767C400.371,-190.408 476.551,-201.045 520.798,-207.224"/>
<polygon fill="#9a32cd" stroke="#9a32cd" points="360.439,-181.298 350.051,-183.381 359.471,-188.23 360.439,-181.298"/>
<text text-anchor="middle" x="455" y="-205" font-family="Helvetica,sans-Serif" font-size="10.00"> myGrid</text>
</g>
<!-- Node11 -->
<g id="node11" class="node"><title>Node11</title>
<g id="a_node11"><a xlink:href="../../d2/d40/class_cellular_automata.html" target="_top" xlink:title="CellularAutomata">
<polygon fill="white" stroke="black" points="506,-126.5 506,-145.5 606,-145.5 606,-126.5 506,-126.5"/>
<text text-anchor="middle" x="556" y="-133.5" font-family="Helvetica,sans-Serif" font-size="10.00">CellularAutomata</text>
</a>
</g>
</g>
<!-- Node5&#45;&gt;Node11 -->
<g id="edge12" class="edge"><title>Node5&#45;&gt;Node11</title>
<path fill="none" stroke="#9a32cd" stroke-dasharray="5,2" d="M360.016,-175.524C396.742,-168.079 462.994,-154.65 507.971,-145.533"/>
<polygon fill="#9a32cd" stroke="#9a32cd" points="359.157,-172.127 350.051,-177.544 360.547,-178.987 359.157,-172.127"/>
<text text-anchor="middle" x="455" y="-166" font-family="Helvetica,sans-Serif" font-size="10.00"> myGrid</text>
</g>
<!-- Node6 -->
<g id="node6" class="node"><title>Node6</title>
<polygon fill="white" stroke="#bfbfbf" points="136,-213.5 136,-232.5 182,-232.5 182,-213.5 136,-213.5"/>
<text text-anchor="middle" x="159" y="-220.5" font-family="Helvetica,sans-Serif" font-size="10.00">Group</text>
</g>
<!-- Node6&#45;&gt;Node4 -->
<g id="edge9" class="edge"><title>Node6&#45;&gt;Node4</title>
<path fill="none" stroke="#9a32cd" stroke-dasharray="5,2" d="M192.449,-222.719C251.347,-222.117 379.776,-220.384 488,-216 498.712,-215.566 510.377,-214.927 520.928,-214.287"/>
<polygon fill="#9a32cd" stroke="#9a32cd" points="192.246,-219.221 182.281,-222.819 192.314,-226.22 192.246,-219.221"/>
<text text-anchor="middle" x="332" y="-225" font-family="Helvetica,sans-Serif" font-size="10.00"> myRoot</text>
</g>
<!-- Node6&#45;&gt;Node5 -->
<g id="edge5" class="edge"><title>Node6&#45;&gt;Node5</title>
<path fill="none" stroke="midnightblue" d="M192.008,-215.138C228.039,-206.289 285.253,-192.236 313.726,-185.243"/>
<polygon fill="midnightblue" stroke="midnightblue" points="190.882,-211.811 182.005,-217.595 192.551,-218.609 190.882,-211.811"/>
</g>
<!-- Node7 -->
<g id="node7" class="node"><title>Node7</title>
<g id="a_node7"><a xlink:href="../../dd/d11/class_cell.html" target="_top" xlink:title="Cell">
<polygon fill="white" stroke="black" points="142,-169.5 142,-188.5 176,-188.5 176,-169.5 142,-169.5"/>
<text text-anchor="middle" x="159" y="-176.5" font-family="Helvetica,sans-Serif" font-size="10.00">Cell</text>
</a>
</g>
</g>
<!-- Node7&#45;&gt;Node5 -->
<g id="edge6" class="edge"><title>Node7&#45;&gt;Node5</title>
<path fill="none" stroke="#9a32cd" stroke-dasharray="5,2" d="M186.151,-179.306C221.563,-179.72 283.783,-180.448 313.818,-180.799"/>
<polygon fill="#9a32cd" stroke="#9a32cd" points="186.128,-175.805 176.087,-179.188 186.046,-182.805 186.128,-175.805"/>
<text text-anchor="middle" x="221" y="-183" font-family="Helvetica,sans-Serif" font-size="10.00"> myCells</text>
</g>
<!-- Node8 -->
<g id="node8" class="node"><title>Node8</title>
<polygon fill="white" stroke="#bfbfbf" points="0,-169.5 0,-188.5 40,-188.5 40,-169.5 0,-169.5"/>
<text text-anchor="middle" x="20" y="-176.5" font-family="Helvetica,sans-Serif" font-size="10.00">Paint</text>
</g>
<!-- Node8&#45;&gt;Node7 -->
<g id="edge7" class="edge"><title>Node8&#45;&gt;Node7</title>
<path fill="none" stroke="#9a32cd" stroke-dasharray="5,2" d="M50.3959,-179C78.2884,-179 119.188,-179 141.679,-179"/>
<polygon fill="#9a32cd" stroke="#9a32cd" points="50.0493,-175.5 40.0493,-179 50.0492,-182.5 50.0493,-175.5"/>
<text text-anchor="middle" x="88" y="-193" font-family="Helvetica,sans-Serif" font-size="10.00"> nextColor</text>
<text text-anchor="middle" x="88" y="-182" font-family="Helvetica,sans-Serif" font-size="10.00">currentColor</text>
</g>
<!-- Node9 -->
<g id="node9" class="node"><title>Node9</title>
<polygon fill="white" stroke="#bfbfbf" points="308.5,-259.5 308.5,-278.5 355.5,-278.5 355.5,-259.5 308.5,-259.5"/>
<text text-anchor="middle" x="332" y="-266.5" font-family="Helvetica,sans-Serif" font-size="10.00">Shape</text>
</g>
<!-- Node9&#45;&gt;Node4 -->
<g id="edge8" class="edge"><title>Node9&#45;&gt;Node4</title>
<path fill="none" stroke="#9a32cd" stroke-dasharray="5,2" d="M365.91,-268.08C398.133,-266.182 448.067,-260.541 488,-244 497.117,-240.224 497.329,-235.711 506,-231 512.494,-227.472 519.784,-224.274 526.716,-221.551"/>
<polygon fill="#9a32cd" stroke="#9a32cd" points="365.513,-264.596 355.701,-268.591 365.863,-271.587 365.513,-264.596"/>
<text text-anchor="middle" x="455" y="-265" font-family="Helvetica,sans-Serif" font-size="10.00"> myShapes</text>
</g>
<!-- Node10 -->
<g id="node10" class="node"><title>Node10</title>
<polygon fill="white" stroke="#bfbfbf" points="532.5,-164.5 532.5,-183.5 579.5,-183.5 579.5,-164.5 532.5,-164.5"/>
<text text-anchor="middle" x="556" y="-171.5" font-family="Helvetica,sans-Serif" font-size="10.00">Scene</text>
</g>
<!-- Node10&#45;&gt;Node1 -->
<g id="edge10" class="edge"><title>Node10&#45;&gt;Node1</title>
<path fill="none" stroke="#9a32cd" stroke-dasharray="5,2" d="M589.925,-174C626.851,-174 686.951,-174 728.15,-174"/>
<polygon fill="#9a32cd" stroke="#9a32cd" points="589.708,-170.5 579.708,-174 589.707,-177.5 589.708,-170.5"/>
<text text-anchor="middle" x="667" y="-177" font-family="Helvetica,sans-Serif" font-size="10.00"> myScene</text>
</g>
<!-- Node11&#45;&gt;Node1 -->
<g id="edge11" class="edge"><title>Node11&#45;&gt;Node1</title>
<path fill="none" stroke="#9a32cd" stroke-dasharray="5,2" d="M616.289,-143.723C644.731,-147.731 679.234,-153.036 710,-159 718.168,-160.583 726.878,-162.505 735.134,-164.436"/>
<polygon fill="#9a32cd" stroke="#9a32cd" points="616.49,-140.217 606.103,-142.306 615.525,-147.15 616.49,-140.217"/>
<text text-anchor="middle" x="667" y="-162" font-family="Helvetica,sans-Serif" font-size="10.00"> myCA</text>
</g>
<!-- Node12 -->
<g id="node12" class="node"><title>Node12</title>
<polygon fill="white" stroke="#bfbfbf" points="304,-126.5 304,-145.5 360,-145.5 360,-126.5 304,-126.5"/>
<text text-anchor="middle" x="332" y="-133.5" font-family="Helvetica,sans-Serif" font-size="10.00">Random</text>
</g>
<!-- Node12&#45;&gt;Node11 -->
<g id="edge13" class="edge"><title>Node12&#45;&gt;Node11</title>
<path fill="none" stroke="#9a32cd" stroke-dasharray="5,2" d="M370.609,-136C407.764,-136 464.799,-136 505.593,-136"/>
<polygon fill="#9a32cd" stroke="#9a32cd" points="370.222,-132.5 360.222,-136 370.222,-139.5 370.222,-132.5"/>
<text text-anchor="middle" x="455" y="-139" font-family="Helvetica,sans-Serif" font-size="10.00"> myRandom</text>
</g>
<!-- Node13 -->
<g id="node13" class="node"><title>Node13</title>
<g id="a_node13"><a xlink:href="../../d7/db3/class_x_m_l_reader.html" target="_top" xlink:title="XMLReader">
<polygon fill="white" stroke="black" points="521.5,-88.5 521.5,-107.5 590.5,-107.5 590.5,-88.5 521.5,-88.5"/>
<text text-anchor="middle" x="556" y="-95.5" font-family="Helvetica,sans-Serif" font-size="10.00">XMLReader</text>
</a>
</g>
</g>
<!-- Node13&#45;&gt;Node1 -->
<g id="edge14" class="edge"><title>Node13&#45;&gt;Node1</title>
<path fill="none" stroke="#9a32cd" stroke-dasharray="5,2" d="M600.837,-102.88C632.196,-107.452 674.894,-115.922 710,-131 729.711,-139.466 749.704,-154.437 761.728,-164.289"/>
<polygon fill="#9a32cd" stroke="#9a32cd" points="601.049,-99.3758 590.664,-101.475 600.091,-106.31 601.049,-99.3758"/>
<text text-anchor="middle" x="667" y="-134" font-family="Helvetica,sans-Serif" font-size="10.00"> myReader</text>
</g>
<!-- Node14 -->
<g id="node14" class="node"><title>Node14</title>
<polygon fill="white" stroke="#bfbfbf" points="260.5,-0.5 260.5,-19.5 403.5,-19.5 403.5,-0.5 260.5,-0.5"/>
<text text-anchor="middle" x="332" y="-7.5" font-family="Helvetica,sans-Serif" font-size="10.00">HashMap&lt; String, int[][]&gt;</text>
</g>
<!-- Node14&#45;&gt;Node13 -->
<g id="edge15" class="edge"><title>Node14&#45;&gt;Node13</title>
<path fill="none" stroke="#9a32cd" stroke-dasharray="5,2" d="M379.692,-22.1419C387.815,-24.355 396.168,-26.6948 404,-29 441.619,-40.0721 455.833,-33.5715 488,-56 498.648,-63.4241 495.575,-71.2655 506,-79 511.056,-82.7513 516.946,-85.8607 522.854,-88.4017"/>
<polygon fill="#9a32cd" stroke="#9a32cd" points="380.514,-18.7385 369.947,-19.5161 378.692,-25.4974 380.514,-18.7385"/>
<text text-anchor="middle" x="455" y="-59" font-family="Helvetica,sans-Serif" font-size="10.00"> nbhoodTypes</text>
</g>
<!-- Node15 -->
<g id="node15" class="node"><title>Node15</title>
<polygon fill="white" stroke="#bfbfbf" points="263,-88.5 263,-107.5 401,-107.5 401,-88.5 263,-88.5"/>
<text text-anchor="middle" x="332" y="-95.5" font-family="Helvetica,sans-Serif" font-size="10.00">HashMap&lt; String, Grid &gt;</text>
</g>
<!-- Node15&#45;&gt;Node13 -->
<g id="edge16" class="edge"><title>Node15&#45;&gt;Node13</title>
<path fill="none" stroke="#9a32cd" stroke-dasharray="5,2" d="M411.578,-98C449.243,-98 492.368,-98 521.411,-98"/>
<polygon fill="#9a32cd" stroke="#9a32cd" points="411.116,-94.5001 401.116,-98 411.116,-101.5 411.116,-94.5001"/>
<text text-anchor="middle" x="455" y="-101" font-family="Helvetica,sans-Serif" font-size="10.00"> gridTypes</text>
</g>
<!-- Node16 -->
<g id="node16" class="node"><title>Node16</title>
<polygon fill="white" stroke="#bfbfbf" points="260.5,-39 260.5,-69 403.5,-69 403.5,-39 260.5,-39"/>
<text text-anchor="start" x="268.5" y="-57" font-family="Helvetica,sans-Serif" font-size="10.00">HashMap&lt; String, Cellular</text>
<text text-anchor="middle" x="332" y="-46" font-family="Helvetica,sans-Serif" font-size="10.00">Automata &gt;</text>
</g>
<!-- Node16&#45;&gt;Node13 -->
<g id="edge17" class="edge"><title>Node16&#45;&gt;Node13</title>
<path fill="none" stroke="#9a32cd" stroke-dasharray="5,2" d="M413.804,-68.56C437.725,-73.0211 463.949,-78.0593 488,-83 498.859,-85.2306 510.67,-87.8202 521.309,-90.2135"/>
<polygon fill="#9a32cd" stroke="#9a32cd" points="414.176,-65.0695 403.705,-66.6854 412.899,-71.9519 414.176,-65.0695"/>
<text text-anchor="middle" x="455" y="-86" font-family="Helvetica,sans-Serif" font-size="10.00"> gameTypes</text>
</g>
<!-- Node17 -->
<g id="node17" class="node"><title>Node17</title>
<polygon fill="white" stroke="#bfbfbf" points="520,-50.5 520,-69.5 592,-69.5 592,-50.5 520,-50.5"/>
<text text-anchor="middle" x="556" y="-57.5" font-family="Helvetica,sans-Serif" font-size="10.00">BorderPane</text>
</g>
<!-- Node17&#45;&gt;Node1 -->
<g id="edge18" class="edge"><title>Node17&#45;&gt;Node1</title>
<path fill="none" stroke="#9a32cd" stroke-dasharray="5,2" d="M602.123,-61.2352C634.344,-63.981 677.55,-71.6134 710,-92 739.035,-110.241 759.814,-146.909 768.493,-164.353"/>
<polygon fill="#9a32cd" stroke="#9a32cd" points="602.302,-57.7391 592.075,-60.5055 601.795,-64.7207 602.302,-57.7391"/>
<text text-anchor="middle" x="667" y="-95" font-family="Helvetica,sans-Serif" font-size="10.00"> myRoot</text>
</g>
</g>
</svg>
        <g id="navigator" transform="translate(0 0)" fill="#404254">
                <rect fill="#f2f5e9" fill-opacity="0.5" stroke="#606060" stroke-width=".5" x="0" y="0" width="60" height="60"/>
                <use id="zoomplus" xlink:href="#zoomPlus" x="17" y="9" onmousedown="handleZoom(evt,'in')"/>
                <use id="zoomminus" xlink:href="#zoomMin" x="42" y="9" onmousedown="handleZoom(evt,'out')"/>
                <use id="reset" xlink:href="#resetDef" x="30" y="36" onmousedown="handleReset()"/>
                <g id="arrowUp" xlink:href="#dirArrow" transform="translate(30 24)" onmousedown="handlePan(0,-1)">
                  <use xlink:href="#rim" fill="#404040">
                        <set attributeName="fill" to="#808080" begin="arrowUp.mouseover" end="arrowUp.mouseout"/>
                  </use>
                  <path fill="none" stroke="white" stroke-width="1.5" d="M0,-3.0v7 M-2.5,-0.5L0,-3.0L2.5,-0.5"/>
                </g>
                <g id="arrowRight" xlink:href="#dirArrow" transform="rotate(90) translate(36 -43)" onmousedown="handlePan(1,0)">
                  <use xlink:href="#rim" fill="#404040">
                        <set attributeName="fill" to="#808080" begin="arrowRight.mouseover" end="arrowRight.mouseout"/>
                  </use>
                  <path fill="none" stroke="white" stroke-width="1.5" d="M0,-3.0v7 M-2.5,-0.5L0,-3.0L2.5,-0.5"/>
                </g>
                <g id="arrowDown" xlink:href="#dirArrow" transform="rotate(180) translate(-30 -48)" onmousedown="handlePan(0,1)">
                  <use xlink:href="#rim" fill="#404040">
                        <set attributeName="fill" to="#808080" begin="arrowDown.mouseover" end="arrowDown.mouseout"/>
                  </use>
                  <path fill="none" stroke="white" stroke-width="1.5" d="M0,-3.0v7 M-2.5,-0.5L0,-3.0L2.5,-0.5"/>
                </g>
                <g id="arrowLeft" xlink:href="#dirArrow" transform="rotate(270) translate(-36 17)" onmousedown="handlePan(-1,0)">
                  <use xlink:href="#rim" fill="#404040">
                        <set attributeName="fill" to="#808080" begin="arrowLeft.mouseover" end="arrowLeft.mouseout"/>
                  </use>
                  <path fill="none" stroke="white" stroke-width="1.5" d="M0,-3.0v7 M-2.5,-0.5L0,-3.0L2.5,-0.5"/>
                </g>
        </g>
        <svg viewBox="0 0 15 15" width="100%" height="30px" preserveAspectRatio="xMaxYMin meet">
         <g id="arrow_out" transform="scale(0.3 0.3)">
          <a xlink:href="class_cell_society_view__coll__graph_org.svg" target="_base">
           <rect id="button" ry="5" rx="5" y="6" x="6" height="38" width="38"
                fill="#f2f5e9" fill-opacity="0.5" stroke="#606060" stroke-width="1.0"/>
           <path id="arrow"
             d="M 11.500037,31.436501 C 11.940474,20.09759 22.043105,11.32322 32.158766,21.979434 L 37.068811,17.246167 C 37.068811,17.246167 37.088388,32 37.088388,32 L 22.160133,31.978069 C 22.160133,31.978069 26.997745,27.140456 26.997745,27.140456 C 18.528582,18.264221 13.291696,25.230495 11.500037,31.436501 z"
             style="fill:#404040;"/>
          </a>
         </g>
        </svg>
</svg>
