<?xml version="1.0" encoding="UTF-8" standalone="no"?>
<!DOCTYPE svg PUBLIC "-//W3C//DTD SVG 1.1//EN"
 "http://www.w3.org/Graphics/SVG/1.1/DTD/svg11.dtd">
<!-- Generated by graphviz version 2.36.0 (20140111.2315)
 -->
<!-- Title: GridDrawer Pages: 1 -->
<svg width="200pt" height="242pt"
 viewBox="0.00 0.00 200.00 242.00" xmlns="http://www.w3.org/2000/svg" xmlns:xlink="http://www.w3.org/1999/xlink">
<g id="graph0" class="graph" transform="scale(1 1) rotate(0) translate(4 238)">
<title>GridDrawer</title>
<polygon fill="white" stroke="none" points="-4,4 -4,-238 196,-238 196,4 -4,4"/>
<!-- Node1 -->
<g id="node1" class="node"><title>Node1</title>
<polygon fill="#bfbfbf" stroke="black" points="54,-0.5 54,-19.5 124,-19.5 124,-0.5 54,-0.5"/>
<text text-anchor="middle" x="89" y="-7.5" font-family="Helvetica,sans-Serif" font-size="10.00">GridDrawer</text>
</g>
<!-- Node2 -->
<g id="node2" class="node"><title>Node2</title>
<g id="a_node2"><a xlink:href="../../da/d74/class_grid.html" target="_top" xlink:title="Grid">
<polygon fill="white" stroke="black" points="72,-68.5 72,-87.5 108,-87.5 108,-68.5 72,-68.5"/>
<text text-anchor="middle" x="90" y="-75.5" font-family="Helvetica,sans-Serif" font-size="10.00">Grid</text>
</a>
</g>
</g>
<!-- Node2&#45;&gt;Node1 -->
<g id="edge1" class="edge"><title>Node2&#45;&gt;Node1</title>
<path fill="none" stroke="#9a32cd" stroke-dasharray="5,2" d="M89.7127,-58.0413C89.5223,-45.4724 89.2813,-29.5631 89.134,-19.8411"/>
<polygon fill="#9a32cd" stroke="#9a32cd" points="86.2181,-58.4259 89.8693,-68.3717 93.2173,-58.3197 86.2181,-58.4259"/>
<text text-anchor="middle" x="109" y="-41.5" font-family="Helvetica,sans-Serif" font-size="10.00"> myGrid</text>
</g>
<!-- Node3 -->
<g id="node3" class="node"><title>Node3</title>
<polygon fill="white" stroke="#bfbfbf" points="0,-136.5 0,-155.5 46,-155.5 46,-136.5 0,-136.5"/>
<text text-anchor="middle" x="23" y="-143.5" font-family="Helvetica,sans-Serif" font-size="10.00">Group</text>
</g>
<!-- Node3&#45;&gt;Node1 -->
<g id="edge6" class="edge"><title>Node3&#45;&gt;Node1</title>
<path fill="none" stroke="#9a32cd" stroke-dasharray="5,2" d="M18.853,-126.588C16.1453,-110.391 14.5021,-86.5675 23,-68 33.1441,-45.8356 56.6334,-29.005 72.6698,-19.5659"/>
<polygon fill="#9a32cd" stroke="#9a32cd" points="15.4234,-127.287 20.7862,-136.425 22.292,-125.937 15.4234,-127.287"/>
<text text-anchor="middle" x="43" y="-75.5" font-family="Helvetica,sans-Serif" font-size="10.00"> myRoot</text>
</g>
<!-- Node3&#45;&gt;Node2 -->
<g id="edge2" class="edge"><title>Node3&#45;&gt;Node2</title>
<path fill="none" stroke="midnightblue" d="M39.1943,-129.047C52.3266,-116.111 70.35,-98.3567 81.0249,-87.8411"/>
<polygon fill="midnightblue" stroke="midnightblue" points="36.4269,-126.86 31.7591,-136.372 41.3393,-131.847 36.4269,-126.86"/>
</g>
<!-- Node4 -->
<g id="node4" class="node"><title>Node4</title>
<g id="a_node4"><a xlink:href="../../dd/d11/class_cell.html" target="_top" xlink:title="Cell">
<polygon fill="white" stroke="black" points="73,-136.5 73,-155.5 107,-155.5 107,-136.5 73,-136.5"/>
<text text-anchor="middle" x="90" y="-143.5" font-family="Helvetica,sans-Serif" font-size="10.00">Cell</text>
</a>
</g>
</g>
<!-- Node4&#45;&gt;Node2 -->
<g id="edge3" class="edge"><title>Node4&#45;&gt;Node2</title>
<path fill="none" stroke="#9a32cd" stroke-dasharray="5,2" d="M90,-126.041C90,-113.472 90,-97.5631 90,-87.8411"/>
<polygon fill="#9a32cd" stroke="#9a32cd" points="86.5001,-126.372 90,-136.372 93.5001,-126.372 86.5001,-126.372"/>
<text text-anchor="middle" x="110.5" y="-109.5" font-family="Helvetica,sans-Serif" font-size="10.00"> myCells</text>
</g>
<!-- Node5 -->
<g id="node5" class="node"><title>Node5</title>
<polygon fill="white" stroke="#bfbfbf" points="70,-214.5 70,-233.5 110,-233.5 110,-214.5 70,-214.5"/>
<text text-anchor="middle" x="90" y="-221.5" font-family="Helvetica,sans-Serif" font-size="10.00">Paint</text>
</g>
<!-- Node5&#45;&gt;Node4 -->
<g id="edge4" class="edge"><title>Node5&#45;&gt;Node4</title>
<path fill="none" stroke="#9a32cd" stroke-dasharray="5,2" d="M90,-204.224C90,-188.697 90,-167.358 90,-155.616"/>
<polygon fill="#9a32cd" stroke="#9a32cd" points="86.5001,-204.282 90,-214.282 93.5001,-204.282 86.5001,-204.282"/>
<text text-anchor="middle" x="120" y="-188" font-family="Helvetica,sans-Serif" font-size="10.00"> nextColor</text>
<text text-anchor="middle" x="120" y="-177" font-family="Helvetica,sans-Serif" font-size="10.00">currentColor</text>
</g>
<!-- Node6 -->
<g id="node6" class="node"><title>Node6</title>
<polygon fill="white" stroke="#bfbfbf" points="126.5,-68.5 126.5,-87.5 173.5,-87.5 173.5,-68.5 126.5,-68.5"/>
<text text-anchor="middle" x="150" y="-75.5" font-family="Helvetica,sans-Serif" font-size="10.00">Shape</text>
</g>
<!-- Node6&#45;&gt;Node1 -->
<g id="edge5" class="edge"><title>Node6&#45;&gt;Node1</title>
<path fill="none" stroke="#9a32cd" stroke-dasharray="5,2" d="M141.927,-58.8238C138.293,-51.844 133.561,-44.0973 128,-38 121.341,-30.6986 112.355,-24.3096 104.688,-19.582"/>
<polygon fill="#9a32cd" stroke="#9a32cd" points="138.954,-60.7176 146.435,-68.2197 145.265,-57.6896 138.954,-60.7176"/>
<text text-anchor="middle" x="164.5" y="-41.5" font-family="Helvetica,sans-Serif" font-size="10.00"> myShapes</text>
</g>
</g>
</svg>
