<?xml version="1.0" encoding="UTF-8" standalone="no"?>
<!DOCTYPE svg PUBLIC "-//W3C//DTD SVG 1.1//EN"
 "http://www.w3.org/Graphics/SVG/1.1/DTD/svg11.dtd">
<!-- Generated by graphviz version 2.36.0 (20140111.2315)
 -->
<!-- Title: Mover.move Pages: 1 -->
<svg width="530pt" height="66pt"
 viewBox="0.00 0.00 530.00 66.00" xmlns="http://www.w3.org/2000/svg" xmlns:xlink="http://www.w3.org/1999/xlink">
<g id="graph0" class="graph" transform="scale(1 1) rotate(0) translate(4 62)">
<title>Mover.move</title>
<polygon fill="white" stroke="none" points="-4,4 -4,-62 526,-62 526,4 -4,4"/>
<!-- Node1 -->
<g id="node1" class="node"><title>Node1</title>
<polygon fill="#bfbfbf" stroke="black" points="0.5,-19.5 0.5,-38.5 75.5,-38.5 75.5,-19.5 0.5,-19.5"/>
<text text-anchor="middle" x="38" y="-26.5" font-family="Helvetica,sans-Serif" font-size="10.00">Mover.move</text>
</g>
<!-- Node2 -->
<g id="node2" class="node"><title>Node2</title>
<g id="a_node2"><a xlink:href="../../da/de8/class_move_cellular_automata.html#a90e79ebdb8723f3674bd90a264a143b8" target="_top" xlink:title="MoveCellularAutomata.move">
<polygon fill="white" stroke="black" points="112.5,-19.5 112.5,-38.5 267.5,-38.5 267.5,-19.5 112.5,-19.5"/>
<text text-anchor="middle" x="190" y="-26.5" font-family="Helvetica,sans-Serif" font-size="10.00">MoveCellularAutomata.move</text>
</a>
</g>
</g>
<!-- Node1&#45;&gt;Node2 -->
<g id="edge1" class="edge"><title>Node1&#45;&gt;Node2</title>
<path fill="none" stroke="midnightblue" d="M85.7503,-29C94.255,-29 103.327,-29 112.43,-29"/>
<polygon fill="midnightblue" stroke="midnightblue" points="85.6942,-25.5001 75.6941,-29 85.6941,-32.5001 85.6942,-25.5001"/>
</g>
<!-- Node3 -->
<g id="node3" class="node"><title>Node3</title>
<g id="a_node3"><a xlink:href="../../d0/db0/class_wator.html#a0afccb8f97e33c1d21e51ee1a3f4922b" target="_top" xlink:title="Wator.ruleOne">
<polygon fill="white" stroke="black" points="304.5,-38.5 304.5,-57.5 387.5,-57.5 387.5,-38.5 304.5,-38.5"/>
<text text-anchor="middle" x="346" y="-45.5" font-family="Helvetica,sans-Serif" font-size="10.00">Wator.ruleOne</text>
</a>
</g>
</g>
<!-- Node2&#45;&gt;Node3 -->
<g id="edge2" class="edge"><title>Node2&#45;&gt;Node3</title>
<path fill="none" stroke="midnightblue" d="M277.632,-39.6884C286.881,-40.8295 295.941,-41.9472 304.268,-42.9746"/>
<polygon fill="midnightblue" stroke="midnightblue" points="277.902,-36.1952 267.549,-38.4443 277.045,-43.1426 277.902,-36.1952"/>
</g>
<!-- Node5 -->
<g id="node5" class="node"><title>Node5</title>
<g id="a_node5"><a xlink:href="../../d0/db0/class_wator.html#aa8dba59120d9d6d7d7521f3a4ee7b454" target="_top" xlink:title="Wator.ruleTwo">
<polygon fill="white" stroke="black" points="306,-0.5 306,-19.5 386,-19.5 386,-0.5 306,-0.5"/>
<text text-anchor="middle" x="346" y="-7.5" font-family="Helvetica,sans-Serif" font-size="10.00">Wator.ruleTwo</text>
</a>
</g>
</g>
<!-- Node2&#45;&gt;Node5 -->
<g id="edge4" class="edge"><title>Node2&#45;&gt;Node5</title>
<path fill="none" stroke="midnightblue" d="M277.492,-18.3289C287.389,-17.1079 297.073,-15.913 305.878,-14.8267"/>
<polygon fill="midnightblue" stroke="midnightblue" points="277.045,-14.8574 267.549,-19.5557 277.902,-21.8048 277.045,-14.8574"/>
</g>
<!-- Node4 -->
<g id="node4" class="node"><title>Node4</title>
<g id="a_node4"><a xlink:href="../../d0/db0/class_wator.html#a422810cdcb035633301b3469cbee5e34" target="_top" xlink:title="Wator.checkRules">
<polygon fill="white" stroke="black" points="424,-19.5 424,-38.5 522,-38.5 522,-19.5 424,-19.5"/>
<text text-anchor="middle" x="473" y="-26.5" font-family="Helvetica,sans-Serif" font-size="10.00">Wator.checkRules</text>
</a>
</g>
</g>
<!-- Node3&#45;&gt;Node4 -->
<g id="edge3" class="edge"><title>Node3&#45;&gt;Node4</title>
<path fill="none" stroke="midnightblue" d="M397.557,-40.3153C406.213,-38.9996 415.187,-37.6356 423.779,-36.3295"/>
<polygon fill="midnightblue" stroke="midnightblue" points="396.944,-36.8682 387.584,-41.8312 397.996,-43.7887 396.944,-36.8682"/>
</g>
<!-- Node5&#45;&gt;Node4 -->
<g id="edge5" class="edge"><title>Node5&#45;&gt;Node4</title>
<path fill="none" stroke="midnightblue" d="M396.209,-17.4797C405.251,-18.8542 414.683,-20.2878 423.698,-21.6581"/>
<polygon fill="midnightblue" stroke="midnightblue" points="396.62,-14.0022 386.208,-15.9596 395.568,-20.9227 396.62,-14.0022"/>
</g>
</g>
</svg>
