<?xml version="1.0" encoding="UTF-8" standalone="no"?>
<!DOCTYPE svg PUBLIC "-//W3C//DTD SVG 1.1//EN"
 "http://www.w3.org/Graphics/SVG/1.1/DTD/svg11.dtd">
<!-- Generated by graphviz version 2.36.0 (20140111.2315)
 -->
<!-- Title: Mover.getCell Pages: 1 -->
<svg width="602pt" height="198pt"
 viewBox="0.00 0.00 602.00 197.70" xmlns="http://www.w3.org/2000/svg" xmlns:xlink="http://www.w3.org/1999/xlink">
<g id="graph0" class="graph" transform="scale(1 1) rotate(0) translate(4 193.699)">
<title>Mover.getCell</title>
<polygon fill="white" stroke="none" points="-4,4 -4,-193.699 598,-193.699 598,4 -4,4"/>
<!-- Node1 -->
<g id="node1" class="node"><title>Node1</title>
<polygon fill="#bfbfbf" stroke="black" points="0.5,-85.3405 0.5,-104.34 81.5,-104.34 81.5,-85.3405 0.5,-85.3405"/>
<text text-anchor="middle" x="41" y="-92.3405" font-family="Helvetica,sans-Serif" font-size="10.00">Mover.getCell</text>
</g>
<!-- Node2 -->
<g id="node2" class="node"><title>Node2</title>
<g id="a_node2"><a xlink:href="../../d0/db0/class_wator.html#a48bebe2ccefc55d2e433578eb0c22684" target="_top" xlink:title="Wator.breedIfCan">
<polygon fill="white" stroke="black" points="147,-142.34 147,-161.34 245,-161.34 245,-142.34 147,-142.34"/>
<text text-anchor="middle" x="196" y="-149.34" font-family="Helvetica,sans-Serif" font-size="10.00">Wator.breedIfCan</text>
</a>
</g>
</g>
<!-- Node1&#45;&gt;Node2 -->
<g id="edge1" class="edge"><title>Node1&#45;&gt;Node2</title>
<path fill="none" stroke="midnightblue" d="M71.5216,-108.539C85.4726,-114.785 102.444,-122.058 118,-127.84 132.175,-133.11 148.094,-138.204 161.763,-142.334"/>
<polygon fill="midnightblue" stroke="midnightblue" points="72.9538,-105.345 62.4003,-104.41 70.0671,-111.723 72.9538,-105.345"/>
</g>
<!-- Node3 -->
<g id="node3" class="node"><title>Node3</title>
<g id="a_node3"><a xlink:href="../../d0/db0/class_wator.html#a0afccb8f97e33c1d21e51ee1a3f4922b" target="_top" xlink:title="Wator.ruleOne">
<polygon fill="white" stroke="black" points="326.5,-161.34 326.5,-180.34 409.5,-180.34 409.5,-161.34 326.5,-161.34"/>
<text text-anchor="middle" x="368" y="-168.34" font-family="Helvetica,sans-Serif" font-size="10.00">Wator.ruleOne</text>
</a>
</g>
</g>
<!-- Node1&#45;&gt;Node3 -->
<g id="edge10" class="edge"><title>Node1&#45;&gt;Node3</title>
<path fill="none" stroke="midnightblue" d="M53.5822,-112.9C66.6603,-131.439 89.8318,-159.173 118,-170.84 186.694,-199.295 275.483,-189.513 326.355,-180.031"/>
<polygon fill="midnightblue" stroke="midnightblue" points="56.3439,-110.736 47.8424,-104.413 50.5454,-114.658 56.3439,-110.736"/>
</g>
<!-- Node5 -->
<g id="node5" class="node"><title>Node5</title>
<g id="a_node5"><a xlink:href="../../d0/db0/class_wator.html#aa8dba59120d9d6d7d7521f3a4ee7b454" target="_top" xlink:title="Wator.ruleTwo">
<polygon fill="white" stroke="black" points="328,-123.34 328,-142.34 408,-142.34 408,-123.34 328,-123.34"/>
<text text-anchor="middle" x="368" y="-130.34" font-family="Helvetica,sans-Serif" font-size="10.00">Wator.ruleTwo</text>
</a>
</g>
</g>
<!-- Node1&#45;&gt;Node5 -->
<g id="edge12" class="edge"><title>Node1&#45;&gt;Node5</title>
<path fill="none" stroke="midnightblue" d="M91.5,-100.628C156.277,-108.202 268.498,-121.323 327.748,-128.251"/>
<polygon fill="midnightblue" stroke="midnightblue" points="91.8653,-97.1471 81.5265,-99.462 91.0523,-104.1 91.8653,-97.1471"/>
</g>
<!-- Node6 -->
<g id="node6" class="node"><title>Node6</title>
<g id="a_node6"><a xlink:href="../../da/de8/class_move_cellular_automata.html#a90e79ebdb8723f3674bd90a264a143b8" target="_top" xlink:title="MoveCellularAutomata.move">
<polygon fill="white" stroke="black" points="118.5,-66.3405 118.5,-85.3405 273.5,-85.3405 273.5,-66.3405 118.5,-66.3405"/>
<text text-anchor="middle" x="196" y="-73.3405" font-family="Helvetica,sans-Serif" font-size="10.00">MoveCellularAutomata.move</text>
</a>
</g>
</g>
<!-- Node1&#45;&gt;Node6 -->
<g id="edge6" class="edge"><title>Node1&#45;&gt;Node6</title>
<path fill="none" stroke="midnightblue" d="M91.8651,-88.6481C100.347,-87.5947 109.329,-86.4794 118.314,-85.3636"/>
<polygon fill="midnightblue" stroke="midnightblue" points="91.292,-85.1923 81.7995,-89.8981 92.1547,-92.1389 91.292,-85.1923"/>
</g>
<!-- Node7 -->
<g id="node7" class="node"><title>Node7</title>
<g id="a_node7"><a xlink:href="../../da/d1e/class_segregation.html#ad4834032e72fa626c4dd38782ffcc541" target="_top" xlink:title="Segregation.move">
<polygon fill="white" stroke="black" points="143.5,-28.3405 143.5,-47.3405 248.5,-47.3405 248.5,-28.3405 143.5,-28.3405"/>
<text text-anchor="middle" x="196" y="-35.3405" font-family="Helvetica,sans-Serif" font-size="10.00">Segregation.move</text>
</a>
</g>
</g>
<!-- Node1&#45;&gt;Node7 -->
<g id="edge7" class="edge"><title>Node1&#45;&gt;Node7</title>
<path fill="none" stroke="midnightblue" d="M67.2836,-80.4244C81.7766,-72.6169 100.512,-63.2793 118,-56.8405 127.949,-53.1773 138.879,-49.9989 149.301,-47.3449"/>
<polygon fill="midnightblue" stroke="midnightblue" points="65.508,-77.4064 58.4279,-85.2882 68.8778,-83.5419 65.508,-77.4064"/>
</g>
<!-- Node8 -->
<g id="node8" class="node"><title>Node8</title>
<g id="a_node8"><a xlink:href="../../da/d1e/class_segregation.html#a65706fcdb683f11f27836d3f4c591f3c" target="_top" xlink:title="Segregation.ruleOne">
<polygon fill="white" stroke="black" points="310,-9.34048 310,-28.3405 426,-28.3405 426,-9.34048 310,-9.34048"/>
<text text-anchor="middle" x="368" y="-16.3405" font-family="Helvetica,sans-Serif" font-size="10.00">Segregation.ruleOne</text>
</a>
</g>
</g>
<!-- Node1&#45;&gt;Node8 -->
<g id="edge11" class="edge"><title>Node1&#45;&gt;Node8</title>
<path fill="none" stroke="midnightblue" d="M53.5822,-76.7807C66.6603,-58.2423 89.8318,-30.5081 118,-18.8405 185.896,9.28276 273.421,0.0548209 324.565,-9.31902"/>
<polygon fill="midnightblue" stroke="midnightblue" points="50.5454,-75.0234 47.8424,-85.2676 56.3439,-78.9449 50.5454,-75.0234"/>
</g>
<!-- Node2&#45;&gt;Node3 -->
<g id="edge2" class="edge"><title>Node2&#45;&gt;Node3</title>
<path fill="none" stroke="midnightblue" d="M255.417,-158.369C278.796,-160.982 305.157,-163.929 326.385,-166.301"/>
<polygon fill="midnightblue" stroke="midnightblue" points="255.587,-154.867 245.26,-157.234 254.81,-161.823 255.587,-154.867"/>
</g>
<!-- Node2&#45;&gt;Node5 -->
<g id="edge4" class="edge"><title>Node2&#45;&gt;Node5</title>
<path fill="none" stroke="midnightblue" d="M255.295,-145.325C279.218,-142.651 306.282,-139.627 327.778,-137.224"/>
<polygon fill="midnightblue" stroke="midnightblue" points="254.81,-141.858 245.26,-146.447 255.587,-148.814 254.81,-141.858"/>
</g>
<!-- Node4 -->
<g id="node4" class="node"><title>Node4</title>
<g id="a_node4"><a xlink:href="../../d0/db0/class_wator.html#a422810cdcb035633301b3469cbee5e34" target="_top" xlink:title="Wator.checkRules">
<polygon fill="white" stroke="black" points="479,-142.34 479,-161.34 577,-161.34 577,-142.34 479,-142.34"/>
<text text-anchor="middle" x="528" y="-149.34" font-family="Helvetica,sans-Serif" font-size="10.00">Wator.checkRules</text>
</a>
</g>
</g>
<!-- Node3&#45;&gt;Node4 -->
<g id="edge3" class="edge"><title>Node3&#45;&gt;Node4</title>
<path fill="none" stroke="midnightblue" d="M419.647,-164.75C438.626,-162.468 460.121,-159.883 478.866,-157.629"/>
<polygon fill="midnightblue" stroke="midnightblue" points="419.199,-161.279 409.689,-165.948 420.035,-168.228 419.199,-161.279"/>
</g>
<!-- Node5&#45;&gt;Node4 -->
<g id="edge5" class="edge"><title>Node5&#45;&gt;Node4</title>
<path fill="none" stroke="midnightblue" d="M418.165,-138.753C437.477,-141.075 459.576,-143.733 478.793,-146.043"/>
<polygon fill="midnightblue" stroke="midnightblue" points="418.403,-135.256 408.056,-137.537 417.567,-142.206 418.403,-135.256"/>
</g>
<!-- Node7&#45;&gt;Node8 -->
<g id="edge8" class="edge"><title>Node7&#45;&gt;Node8</title>
<path fill="none" stroke="midnightblue" d="M259.06,-30.9043C275.632,-29.0522 293.461,-27.0595 309.76,-25.2378"/>
<polygon fill="midnightblue" stroke="midnightblue" points="258.479,-27.4475 248.929,-32.0366 259.256,-34.4041 258.479,-27.4475"/>
</g>
<!-- Node9 -->
<g id="node9" class="node"><title>Node9</title>
<g id="a_node9"><a xlink:href="../../da/d1e/class_segregation.html#a8272e13082766c6c6d45fc1e58acd6dc" target="_top" xlink:title="Segregation.checkRules">
<polygon fill="white" stroke="black" points="462.5,-9.34048 462.5,-28.3405 593.5,-28.3405 593.5,-9.34048 462.5,-9.34048"/>
<text text-anchor="middle" x="528" y="-16.3405" font-family="Helvetica,sans-Serif" font-size="10.00">Segregation.checkRules</text>
</a>
</g>
</g>
<!-- Node8&#45;&gt;Node9 -->
<g id="edge9" class="edge"><title>Node8&#45;&gt;Node9</title>
<path fill="none" stroke="midnightblue" d="M436.102,-18.8405C444.771,-18.8405 453.636,-18.8405 462.265,-18.8405"/>
<polygon fill="midnightblue" stroke="midnightblue" points="436.042,-15.3406 426.042,-18.8405 436.042,-22.3406 436.042,-15.3406"/>
</g>
</g>
</svg>
