<?xml version="1.0" encoding="UTF-8" standalone="no"?>
<!DOCTYPE svg PUBLIC "-//W3C//DTD SVG 1.1//EN"
 "http://www.w3.org/Graphics/SVG/1.1/DTD/svg11.dtd">
<!-- Generated by graphviz version 2.36.0 (20140111.2315)
 -->
<!-- Title: Mover.getState Pages: 1 -->
<svg width="678pt" height="85pt"
 viewBox="0.00 0.00 678.00 85.00" xmlns="http://www.w3.org/2000/svg" xmlns:xlink="http://www.w3.org/1999/xlink">
<g id="graph0" class="graph" transform="scale(1 1) rotate(0) translate(4 81)">
<title>Mover.getState</title>
<polygon fill="white" stroke="none" points="-4,4 -4,-81 674,-81 674,4 -4,4"/>
<!-- Node1 -->
<g id="node1" class="node"><title>Node1</title>
<polygon fill="#bfbfbf" stroke="black" points="0,-19.5 0,-38.5 90,-38.5 90,-19.5 0,-19.5"/>
<text text-anchor="middle" x="45" y="-26.5" font-family="Helvetica,sans-Serif" font-size="10.00">Mover.getState</text>
</g>
<!-- Node2 -->
<g id="node2" class="node"><title>Node2</title>
<g id="a_node2"><a xlink:href="../../de/d70/class_fish.html#a535d760406f22ba01ecebddd1e790367" target="_top" xlink:title="Fish.breed">
<polygon fill="white" stroke="black" points="171.5,-38.5 171.5,-57.5 236.5,-57.5 236.5,-38.5 171.5,-38.5"/>
<text text-anchor="middle" x="204" y="-45.5" font-family="Helvetica,sans-Serif" font-size="10.00">Fish.breed</text>
</a>
</g>
</g>
<!-- Node1&#45;&gt;Node2 -->
<g id="edge1" class="edge"><title>Node1&#45;&gt;Node2</title>
<path fill="none" stroke="midnightblue" d="M100.387,-35.5819C123.991,-38.4384 150.817,-41.6849 171.119,-44.1418"/>
<polygon fill="midnightblue" stroke="midnightblue" points="100.499,-32.07 90.1511,-34.3431 99.6581,-39.0193 100.499,-32.07"/>
</g>
<!-- Node7 -->
<g id="node7" class="node"><title>Node7</title>
<g id="a_node7"><a xlink:href="../../da/de8/class_move_cellular_automata.html#a90e79ebdb8723f3674bd90a264a143b8" target="_top" xlink:title="MoveCellularAutomata.move">
<polygon fill="white" stroke="black" points="126.5,-0.5 126.5,-19.5 281.5,-19.5 281.5,-0.5 126.5,-0.5"/>
<text text-anchor="middle" x="204" y="-7.5" font-family="Helvetica,sans-Serif" font-size="10.00">MoveCellularAutomata.move</text>
</a>
</g>
</g>
<!-- Node1&#45;&gt;Node7 -->
<g id="edge7" class="edge"><title>Node1&#45;&gt;Node7</title>
<path fill="none" stroke="midnightblue" d="M100.251,-22.4346C108.725,-21.4091 117.618,-20.3329 126.477,-19.2607"/>
<polygon fill="midnightblue" stroke="midnightblue" points="99.6581,-18.9807 90.1511,-23.6569 100.499,-25.93 99.6581,-18.9807"/>
</g>
<!-- Node3 -->
<g id="node3" class="node"><title>Node3</title>
<g id="a_node3"><a xlink:href="../../d0/db0/class_wator.html#a48bebe2ccefc55d2e433578eb0c22684" target="_top" xlink:title="Wator.breedIfCan">
<polygon fill="white" stroke="black" points="318,-38.5 318,-57.5 416,-57.5 416,-38.5 318,-38.5"/>
<text text-anchor="middle" x="367" y="-45.5" font-family="Helvetica,sans-Serif" font-size="10.00">Wator.breedIfCan</text>
</a>
</g>
</g>
<!-- Node2&#45;&gt;Node3 -->
<g id="edge2" class="edge"><title>Node2&#45;&gt;Node3</title>
<path fill="none" stroke="midnightblue" d="M247.02,-48C268.698,-48 295.243,-48 317.756,-48"/>
<polygon fill="midnightblue" stroke="midnightblue" points="246.808,-44.5001 236.808,-48 246.808,-51.5001 246.808,-44.5001"/>
</g>
<!-- Node4 -->
<g id="node4" class="node"><title>Node4</title>
<g id="a_node4"><a xlink:href="../../d0/db0/class_wator.html#a0afccb8f97e33c1d21e51ee1a3f4922b" target="_top" xlink:title="Wator.ruleOne">
<polygon fill="white" stroke="black" points="452.5,-57.5 452.5,-76.5 535.5,-76.5 535.5,-57.5 452.5,-57.5"/>
<text text-anchor="middle" x="494" y="-64.5" font-family="Helvetica,sans-Serif" font-size="10.00">Wator.ruleOne</text>
</a>
</g>
</g>
<!-- Node3&#45;&gt;Node4 -->
<g id="edge3" class="edge"><title>Node3&#45;&gt;Node4</title>
<path fill="none" stroke="midnightblue" d="M426.427,-56.881C435.106,-58.2001 443.89,-59.5352 452.105,-60.784"/>
<polygon fill="midnightblue" stroke="midnightblue" points="426.741,-53.3885 416.328,-55.3459 425.689,-60.309 426.741,-53.3885"/>
</g>
<!-- Node6 -->
<g id="node6" class="node"><title>Node6</title>
<g id="a_node6"><a xlink:href="../../d0/db0/class_wator.html#aa8dba59120d9d6d7d7521f3a4ee7b454" target="_top" xlink:title="Wator.ruleTwo">
<polygon fill="white" stroke="black" points="454,-19.5 454,-38.5 534,-38.5 534,-19.5 454,-19.5"/>
<text text-anchor="middle" x="494" y="-26.5" font-family="Helvetica,sans-Serif" font-size="10.00">Wator.ruleTwo</text>
</a>
</g>
</g>
<!-- Node3&#45;&gt;Node6 -->
<g id="edge5" class="edge"><title>Node3&#45;&gt;Node6</title>
<path fill="none" stroke="midnightblue" d="M426.309,-39.137C435.588,-37.7267 444.99,-36.2975 453.693,-34.9746"/>
<polygon fill="midnightblue" stroke="midnightblue" points="425.689,-35.691 416.328,-40.6541 426.741,-42.6115 425.689,-35.691"/>
</g>
<!-- Node5 -->
<g id="node5" class="node"><title>Node5</title>
<g id="a_node5"><a xlink:href="../../d0/db0/class_wator.html#a422810cdcb035633301b3469cbee5e34" target="_top" xlink:title="Wator.checkRules">
<polygon fill="white" stroke="black" points="572,-38.5 572,-57.5 670,-57.5 670,-38.5 572,-38.5"/>
<text text-anchor="middle" x="621" y="-45.5" font-family="Helvetica,sans-Serif" font-size="10.00">Wator.checkRules</text>
</a>
</g>
</g>
<!-- Node4&#45;&gt;Node5 -->
<g id="edge4" class="edge"><title>Node4&#45;&gt;Node5</title>
<path fill="none" stroke="midnightblue" d="M545.557,-59.3153C554.213,-57.9996 563.187,-56.6356 571.779,-55.3295"/>
<polygon fill="midnightblue" stroke="midnightblue" points="544.944,-55.8682 535.584,-60.8312 545.996,-62.7887 544.944,-55.8682"/>
</g>
<!-- Node6&#45;&gt;Node5 -->
<g id="edge6" class="edge"><title>Node6&#45;&gt;Node5</title>
<path fill="none" stroke="midnightblue" d="M544.209,-36.4797C553.251,-37.8542 562.683,-39.2878 571.698,-40.6581"/>
<polygon fill="midnightblue" stroke="midnightblue" points="544.62,-33.0022 534.208,-34.9596 543.568,-39.9227 544.62,-33.0022"/>
</g>
</g>
</svg>
