<?xml version="1.0" encoding="UTF-8" standalone="no"?>
<!DOCTYPE svg PUBLIC "-//W3C//DTD SVG 1.1//EN"
 "http://www.w3.org/Graphics/SVG/1.1/DTD/svg11.dtd">
<!-- Generated by graphviz version 2.36.0 (20140111.2315)
 -->
<!-- Title: Mover.getCell Pages: 1 -->
<svg width="602pt" height="153pt"
 viewBox="0.00 0.00 602.00 153.33" xmlns="http://www.w3.org/2000/svg" xmlns:xlink="http://www.w3.org/1999/xlink">
<g id="graph0" class="graph" transform="scale(1 1) rotate(0) translate(4 149.331)">
<title>Mover.getCell</title>
<polygon fill="white" stroke="none" points="-4,4 -4,-149.331 598,-149.331 598,4 -4,4"/>
<!-- Node1 -->
<g id="node1" class="node"><title>Node1</title>
<polygon fill="#bfbfbf" stroke="black" points="0.5,-63.27 0.5,-82.27 81.5,-82.27 81.5,-63.27 0.5,-63.27"/>
<text text-anchor="middle" x="41" y="-70.27" font-family="Helvetica,sans-Serif" font-size="10.00">Mover.getCell</text>
</g>
<!-- Node2 -->
<g id="node2" class="node"><title>Node2</title>
<g id="a_node2"><a xlink:href="../../da/de8/class_move_cellular_automata.html#a90e79ebdb8723f3674bd90a264a143b8" target="_top" xlink:title="MoveCellularAutomata.move">
<polygon fill="white" stroke="black" points="118.5,-101.27 118.5,-120.27 273.5,-120.27 273.5,-101.27 118.5,-101.27"/>
<text text-anchor="middle" x="196" y="-108.27" font-family="Helvetica,sans-Serif" font-size="10.00">MoveCellularAutomata.move</text>
</a>
</g>
</g>
<!-- Node1&#45;&gt;Node2 -->
<g id="edge1" class="edge"><title>Node1&#45;&gt;Node2</title>
<path fill="none" stroke="midnightblue" d="M90.4768,-84.81C111.852,-90.1188 136.613,-96.2688 156.669,-101.25"/>
<polygon fill="midnightblue" stroke="midnightblue" points="91.1572,-81.3727 80.6084,-82.359 89.4698,-88.1663 91.1572,-81.3727"/>
</g>
<!-- Node3 -->
<g id="node3" class="node"><title>Node3</title>
<g id="a_node3"><a xlink:href="../../d0/db0/class_wator.html#a0afccb8f97e33c1d21e51ee1a3f4922b" target="_top" xlink:title="Wator.ruleOne">
<polygon fill="white" stroke="black" points="326.5,-120.27 326.5,-139.27 409.5,-139.27 409.5,-120.27 326.5,-120.27"/>
<text text-anchor="middle" x="368" y="-127.27" font-family="Helvetica,sans-Serif" font-size="10.00">Wator.ruleOne</text>
</a>
</g>
</g>
<!-- Node1&#45;&gt;Node3 -->
<g id="edge9" class="edge"><title>Node1&#45;&gt;Node3</title>
<path fill="none" stroke="midnightblue" d="M58.0946,-89.8421C72.3335,-103.608 94.4566,-121.922 118,-129.77 188.128,-153.146 275.669,-145.293 326.07,-137.501"/>
<polygon fill="midnightblue" stroke="midnightblue" points="60.2038,-86.9994 50.671,-82.376 55.24,-91.935 60.2038,-86.9994"/>
</g>
<!-- Node5 -->
<g id="node5" class="node"><title>Node5</title>
<g id="a_node5"><a xlink:href="../../d0/db0/class_wator.html#aa8dba59120d9d6d7d7521f3a4ee7b454" target="_top" xlink:title="Wator.ruleTwo">
<polygon fill="white" stroke="black" points="328,-82.27 328,-101.27 408,-101.27 408,-82.27 328,-82.27"/>
<text text-anchor="middle" x="368" y="-89.27" font-family="Helvetica,sans-Serif" font-size="10.00">Wator.ruleTwo</text>
</a>
</g>
</g>
<!-- Node1&#45;&gt;Node5 -->
<g id="edge11" class="edge"><title>Node1&#45;&gt;Node5</title>
<path fill="none" stroke="midnightblue" d="M91.9005,-75.6873C156.738,-79.4778 268.62,-86.0186 327.748,-89.4753"/>
<polygon fill="midnightblue" stroke="midnightblue" points="91.7137,-72.1705 81.5265,-75.0808 91.3051,-79.1585 91.7137,-72.1705"/>
</g>
<!-- Node6 -->
<g id="node6" class="node"><title>Node6</title>
<g id="a_node6"><a xlink:href="../../da/d1e/class_segregation.html#a9bc97cbecb10c7cfef85c39d445c107b" target="_top" xlink:title="Segregation.move">
<polygon fill="white" stroke="black" points="143.5,-25.27 143.5,-44.27 248.5,-44.27 248.5,-25.27 143.5,-25.27"/>
<text text-anchor="middle" x="196" y="-32.27" font-family="Helvetica,sans-Serif" font-size="10.00">Segregation.move</text>
</a>
</g>
</g>
<!-- Node1&#45;&gt;Node6 -->
<g id="edge6" class="edge"><title>Node1&#45;&gt;Node6</title>
<path fill="none" stroke="midnightblue" d="M90.4768,-60.73C111.852,-55.4213 136.613,-49.2713 156.669,-44.2901"/>
<polygon fill="midnightblue" stroke="midnightblue" points="89.4698,-57.3737 80.6084,-63.181 91.1572,-64.1673 89.4698,-57.3737"/>
</g>
<!-- Node7 -->
<g id="node7" class="node"><title>Node7</title>
<g id="a_node7"><a xlink:href="../../da/d1e/class_segregation.html#a65706fcdb683f11f27836d3f4c591f3c" target="_top" xlink:title="Segregation.ruleOne">
<polygon fill="white" stroke="black" points="310,-6.27003 310,-25.27 426,-25.27 426,-6.27003 310,-6.27003"/>
<text text-anchor="middle" x="368" y="-13.27" font-family="Helvetica,sans-Serif" font-size="10.00">Segregation.ruleOne</text>
</a>
</g>
</g>
<!-- Node1&#45;&gt;Node7 -->
<g id="edge10" class="edge"><title>Node1&#45;&gt;Node7</title>
<path fill="none" stroke="midnightblue" d="M58.0946,-55.698C72.3335,-41.9321 94.4566,-23.6178 118,-15.77 182.592,5.76064 261.955,0.798492 313.465,-6.20753"/>
<polygon fill="midnightblue" stroke="midnightblue" points="55.24,-53.605 50.671,-63.164 60.2038,-58.5407 55.24,-53.605"/>
</g>
<!-- Node2&#45;&gt;Node3 -->
<g id="edge2" class="edge"><title>Node2&#45;&gt;Node3</title>
<path fill="none" stroke="midnightblue" d="M283.79,-120.47C298.603,-122.126 313.344,-123.773 326.212,-125.211"/>
<polygon fill="midnightblue" stroke="midnightblue" points="283.873,-116.958 273.546,-119.325 283.095,-123.914 283.873,-116.958"/>
</g>
<!-- Node2&#45;&gt;Node5 -->
<g id="edge4" class="edge"><title>Node2&#45;&gt;Node5</title>
<path fill="none" stroke="midnightblue" d="M283.649,-101.086C299.041,-99.3655 314.36,-97.6533 327.588,-96.1749"/>
<polygon fill="midnightblue" stroke="midnightblue" points="283.095,-97.6258 273.546,-102.215 283.873,-104.582 283.095,-97.6258"/>
</g>
<!-- Node4 -->
<g id="node4" class="node"><title>Node4</title>
<g id="a_node4"><a xlink:href="../../d0/db0/class_wator.html#a422810cdcb035633301b3469cbee5e34" target="_top" xlink:title="Wator.checkRules">
<polygon fill="white" stroke="black" points="479,-101.27 479,-120.27 577,-120.27 577,-101.27 479,-101.27"/>
<text text-anchor="middle" x="528" y="-108.27" font-family="Helvetica,sans-Serif" font-size="10.00">Wator.checkRules</text>
</a>
</g>
</g>
<!-- Node3&#45;&gt;Node4 -->
<g id="edge3" class="edge"><title>Node3&#45;&gt;Node4</title>
<path fill="none" stroke="midnightblue" d="M419.647,-123.68C438.626,-121.397 460.121,-118.812 478.866,-116.558"/>
<polygon fill="midnightblue" stroke="midnightblue" points="419.199,-120.208 409.689,-124.877 420.035,-127.158 419.199,-120.208"/>
</g>
<!-- Node5&#45;&gt;Node4 -->
<g id="edge5" class="edge"><title>Node5&#45;&gt;Node4</title>
<path fill="none" stroke="midnightblue" d="M418.165,-97.6823C437.477,-100.005 459.576,-102.662 478.793,-104.973"/>
<polygon fill="midnightblue" stroke="midnightblue" points="418.403,-94.1857 408.056,-96.4667 417.567,-101.136 418.403,-94.1857"/>
</g>
<!-- Node6&#45;&gt;Node7 -->
<g id="edge7" class="edge"><title>Node6&#45;&gt;Node7</title>
<path fill="none" stroke="midnightblue" d="M259.06,-27.8339C275.632,-25.9817 293.461,-23.9891 309.76,-22.1674"/>
<polygon fill="midnightblue" stroke="midnightblue" points="258.479,-24.377 248.929,-28.9662 259.256,-31.3337 258.479,-24.377"/>
</g>
<!-- Node8 -->
<g id="node8" class="node"><title>Node8</title>
<g id="a_node8"><a xlink:href="../../da/d1e/class_segregation.html#a8272e13082766c6c6d45fc1e58acd6dc" target="_top" xlink:title="Segregation.checkRules">
<polygon fill="white" stroke="black" points="462.5,-6.27003 462.5,-25.27 593.5,-25.27 593.5,-6.27003 462.5,-6.27003"/>
<text text-anchor="middle" x="528" y="-13.27" font-family="Helvetica,sans-Serif" font-size="10.00">Segregation.checkRules</text>
</a>
</g>
</g>
<!-- Node7&#45;&gt;Node8 -->
<g id="edge8" class="edge"><title>Node7&#45;&gt;Node8</title>
<path fill="none" stroke="midnightblue" d="M436.102,-15.77C444.771,-15.77 453.636,-15.77 462.265,-15.77"/>
<polygon fill="midnightblue" stroke="midnightblue" points="436.042,-12.2701 426.042,-15.77 436.042,-19.2701 436.042,-12.2701"/>
</g>
</g>
</svg>
