<?xml version="1.0" encoding="UTF-8" standalone="no"?>
<!DOCTYPE svg PUBLIC "-//W3C//DTD SVG 1.1//EN"
 "http://www.w3.org/Graphics/SVG/1.1/DTD/svg11.dtd">
<!-- Generated by graphviz version 2.36.0 (20140111.2315)
 -->
<!-- Title: Mover.getState Pages: 1 -->
<svg width="656pt" height="104pt"
 viewBox="0.00 0.00 656.00 104.00" xmlns="http://www.w3.org/2000/svg" xmlns:xlink="http://www.w3.org/1999/xlink">
<g id="graph0" class="graph" transform="scale(1 1) rotate(0) translate(4 100)">
<title>Mover.getState</title>
<polygon fill="white" stroke="none" points="-4,4 -4,-100 652,-100 652,4 -4,4"/>
<!-- Node1 -->
<g id="node1" class="node"><title>Node1</title>
<polygon fill="#bfbfbf" stroke="black" points="0,-38.5 0,-57.5 90,-57.5 90,-38.5 0,-38.5"/>
<text text-anchor="middle" x="45" y="-45.5" font-family="Helvetica,sans-Serif" font-size="10.00">Mover.getState</text>
</g>
<!-- Node2 -->
<g id="node2" class="node"><title>Node2</title>
<g id="a_node2"><a xlink:href="../../de/d70/class_fish.html#a8a5f5246900a3d430f62267e5346384b" target="_top" xlink:title="Fish.breed">
<polygon fill="white" stroke="black" points="131.5,-76.5 131.5,-95.5 196.5,-95.5 196.5,-76.5 131.5,-76.5"/>
<text text-anchor="middle" x="164" y="-83.5" font-family="Helvetica,sans-Serif" font-size="10.00">Fish.breed</text>
</a>
</g>
</g>
<!-- Node1&#45;&gt;Node2 -->
<g id="edge1" class="edge"><title>Node1&#45;&gt;Node2</title>
<path fill="none" stroke="midnightblue" d="M85.0424,-60.6804C100.851,-65.8148 118.799,-71.6441 133.485,-76.4141"/>
<polygon fill="midnightblue" stroke="midnightblue" points="86.1162,-57.3493 75.524,-57.589 83.9538,-64.0069 86.1162,-57.3493"/>
</g>
<!-- Node7 -->
<g id="node7" class="node"><title>Node7</title>
<g id="a_node7"><a xlink:href="../../d5/dec/class_shark.html#a23e522ae94a5fd233cd068cdce786954" target="_top" xlink:title="Shark.breed">
<polygon fill="white" stroke="black" points="126.5,-0.5 126.5,-19.5 201.5,-19.5 201.5,-0.5 126.5,-0.5"/>
<text text-anchor="middle" x="164" y="-7.5" font-family="Helvetica,sans-Serif" font-size="10.00">Shark.breed</text>
</a>
</g>
</g>
<!-- Node1&#45;&gt;Node7 -->
<g id="edge7" class="edge"><title>Node1&#45;&gt;Node7</title>
<path fill="none" stroke="midnightblue" d="M85.0424,-35.3196C100.851,-30.1852 118.799,-24.3559 133.485,-19.5859"/>
<polygon fill="midnightblue" stroke="midnightblue" points="83.9538,-31.9931 75.524,-38.411 86.1162,-38.6507 83.9538,-31.9931"/>
</g>
<!-- Node8 -->
<g id="node8" class="node"><title>Node8</title>
<g id="a_node8"><a xlink:href="../../da/de8/class_move_cellular_automata.html#a90e79ebdb8723f3674bd90a264a143b8" target="_top" xlink:title="MoveCellularAutomata.move">
<polygon fill="white" stroke="black" points="238.5,-38.5 238.5,-57.5 393.5,-57.5 393.5,-38.5 238.5,-38.5"/>
<text text-anchor="middle" x="316" y="-45.5" font-family="Helvetica,sans-Serif" font-size="10.00">MoveCellularAutomata.move</text>
</a>
</g>
</g>
<!-- Node1&#45;&gt;Node8 -->
<g id="edge8" class="edge"><title>Node1&#45;&gt;Node8</title>
<path fill="none" stroke="midnightblue" d="M100.137,-48C139.849,-48 194.32,-48 238.479,-48"/>
<polygon fill="midnightblue" stroke="midnightblue" points="100.119,-44.5001 90.1187,-48 100.119,-51.5001 100.119,-44.5001"/>
</g>
<!-- Node3 -->
<g id="node3" class="node"><title>Node3</title>
<g id="a_node3"><a xlink:href="../../d0/db0/class_wator.html#a7b49e449f5277f27fc84287bc5e88357" target="_top" xlink:title="Wator.breed">
<polygon fill="white" stroke="black" points="279,-76.5 279,-95.5 353,-95.5 353,-76.5 279,-76.5"/>
<text text-anchor="middle" x="316" y="-83.5" font-family="Helvetica,sans-Serif" font-size="10.00">Wator.breed</text>
</a>
</g>
</g>
<!-- Node2&#45;&gt;Node3 -->
<g id="edge2" class="edge"><title>Node2&#45;&gt;Node3</title>
<path fill="none" stroke="midnightblue" d="M207.111,-86C229.663,-86 257.163,-86 278.755,-86"/>
<polygon fill="midnightblue" stroke="midnightblue" points="206.811,-82.5001 196.811,-86 206.811,-89.5001 206.811,-82.5001"/>
</g>
<!-- Node4 -->
<g id="node4" class="node"><title>Node4</title>
<g id="a_node4"><a xlink:href="../../d0/db0/class_wator.html#a0afccb8f97e33c1d21e51ee1a3f4922b" target="_top" xlink:title="Wator.ruleOne">
<polygon fill="white" stroke="black" points="430.5,-76.5 430.5,-95.5 513.5,-95.5 513.5,-76.5 430.5,-76.5"/>
<text text-anchor="middle" x="472" y="-83.5" font-family="Helvetica,sans-Serif" font-size="10.00">Wator.ruleOne</text>
</a>
</g>
</g>
<!-- Node3&#45;&gt;Node4 -->
<g id="edge3" class="edge"><title>Node3&#45;&gt;Node4</title>
<path fill="none" stroke="midnightblue" d="M363.232,-86C384.55,-86 409.632,-86 430.233,-86"/>
<polygon fill="midnightblue" stroke="midnightblue" points="363.106,-82.5001 353.106,-86 363.106,-89.5001 363.106,-82.5001"/>
</g>
<!-- Node6 -->
<g id="node6" class="node"><title>Node6</title>
<g id="a_node6"><a xlink:href="../../d0/db0/class_wator.html#aa8dba59120d9d6d7d7521f3a4ee7b454" target="_top" xlink:title="Wator.ruleTwo">
<polygon fill="white" stroke="black" points="432,-38.5 432,-57.5 512,-57.5 512,-38.5 432,-38.5"/>
<text text-anchor="middle" x="472" y="-45.5" font-family="Helvetica,sans-Serif" font-size="10.00">Wator.ruleTwo</text>
</a>
</g>
</g>
<!-- Node3&#45;&gt;Node6 -->
<g id="edge5" class="edge"><title>Node3&#45;&gt;Node6</title>
<path fill="none" stroke="midnightblue" d="M362.955,-74.6604C385.094,-69.1976 411.345,-62.72 432.428,-57.5178"/>
<polygon fill="midnightblue" stroke="midnightblue" points="361.976,-71.2969 353.106,-77.0907 363.653,-78.093 361.976,-71.2969"/>
</g>
<!-- Node5 -->
<g id="node5" class="node"><title>Node5</title>
<g id="a_node5"><a xlink:href="../../d0/db0/class_wator.html#a422810cdcb035633301b3469cbee5e34" target="_top" xlink:title="Wator.checkRules">
<polygon fill="white" stroke="black" points="550,-57.5 550,-76.5 648,-76.5 648,-57.5 550,-57.5"/>
<text text-anchor="middle" x="599" y="-64.5" font-family="Helvetica,sans-Serif" font-size="10.00">Wator.checkRules</text>
</a>
</g>
</g>
<!-- Node4&#45;&gt;Node5 -->
<g id="edge4" class="edge"><title>Node4&#45;&gt;Node5</title>
<path fill="none" stroke="midnightblue" d="M523.557,-78.3153C532.213,-76.9996 541.187,-75.6356 549.779,-74.3295"/>
<polygon fill="midnightblue" stroke="midnightblue" points="522.944,-74.8682 513.584,-79.8312 523.996,-81.7887 522.944,-74.8682"/>
</g>
<!-- Node6&#45;&gt;Node5 -->
<g id="edge6" class="edge"><title>Node6&#45;&gt;Node5</title>
<path fill="none" stroke="midnightblue" d="M522.209,-55.4797C531.251,-56.8542 540.683,-58.2878 549.698,-59.6581"/>
<polygon fill="midnightblue" stroke="midnightblue" points="522.62,-52.0022 512.208,-53.9596 521.568,-58.9227 522.62,-52.0022"/>
</g>
<!-- Node8&#45;&gt;Node4 -->
<g id="edge9" class="edge"><title>Node8&#45;&gt;Node4</title>
<path fill="none" stroke="midnightblue" d="M365.794,-60.04C387.308,-65.3488 412.232,-71.4988 432.419,-76.4799"/>
<polygon fill="midnightblue" stroke="midnightblue" points="366.408,-56.5867 355.861,-57.589 364.731,-63.3828 366.408,-56.5867"/>
</g>
<!-- Node8&#45;&gt;Node6 -->
<g id="edge10" class="edge"><title>Node8&#45;&gt;Node6</title>
<path fill="none" stroke="midnightblue" d="M403.801,-48C413.59,-48 423.165,-48 431.878,-48"/>
<polygon fill="midnightblue" stroke="midnightblue" points="403.549,-44.5001 393.549,-48 403.549,-51.5001 403.549,-44.5001"/>
</g>
</g>
</svg>
