<?xml version="1.0" encoding="UTF-8" standalone="no"?>
<!DOCTYPE svg PUBLIC "-//W3C//DTD SVG 1.1//EN"
 "http://www.w3.org/Graphics/SVG/1.1/DTD/svg11.dtd">
<!-- Generated by graphviz version 2.36.0 (20140111.2315)
 -->
<!-- Title: Mover.Mover Pages: 1 -->
<svg width="338pt" height="66pt"
 viewBox="0.00 0.00 338.00 66.00" xmlns="http://www.w3.org/2000/svg" xmlns:xlink="http://www.w3.org/1999/xlink">
<g id="graph0" class="graph" transform="scale(1 1) rotate(0) translate(4 62)">
<title>Mover.Mover</title>
<polygon fill="white" stroke="none" points="-4,4 -4,-62 334,-62 334,4 -4,4"/>
<!-- Node1 -->
<g id="node1" class="node"><title>Node1</title>
<polygon fill="#bfbfbf" stroke="black" points="0.5,-19.5 0.5,-38.5 77.5,-38.5 77.5,-19.5 0.5,-19.5"/>
<text text-anchor="middle" x="39" y="-26.5" font-family="Helvetica,sans-Serif" font-size="10.00">Mover.Mover</text>
</g>
<!-- Node2 -->
<g id="node2" class="node"><title>Node2</title>
<g id="a_node2"><a xlink:href="../../dd/d11/class_cell.html#aaaf321e273ef5b6ac3fae80e36d19629" target="_top" xlink:title="Cell.setState">
<polygon fill="white" stroke="black" points="114,-19.5 114,-38.5 192,-38.5 192,-19.5 114,-19.5"/>
<text text-anchor="middle" x="153" y="-26.5" font-family="Helvetica,sans-Serif" font-size="10.00">Cell.setState</text>
</a>
</g>
</g>
<!-- Node1&#45;&gt;Node2 -->
<g id="edge1" class="edge"><title>Node1&#45;&gt;Node2</title>
<path fill="none" stroke="midnightblue" d="M77.6059,-29C86.0103,-29 95.0365,-29 103.803,-29"/>
<polygon fill="midnightblue" stroke="midnightblue" points="103.921,-32.5001 113.921,-29 103.921,-25.5001 103.921,-32.5001"/>
</g>
<!-- Node3 -->
<g id="node3" class="node"><title>Node3</title>
<g id="a_node3"><a xlink:href="../../dd/d11/class_cell.html#a6ddc434a1826fac1599a7d901ff2d162" target="_top" xlink:title="Cell.setNextState">
<polygon fill="white" stroke="black" points="228.5,-38.5 228.5,-57.5 329.5,-57.5 329.5,-38.5 228.5,-38.5"/>
<text text-anchor="middle" x="279" y="-45.5" font-family="Helvetica,sans-Serif" font-size="10.00">Cell.setNextState</text>
</a>
</g>
</g>
<!-- Node2&#45;&gt;Node3 -->
<g id="edge2" class="edge"><title>Node2&#45;&gt;Node3</title>
<path fill="none" stroke="midnightblue" d="M192.216,-34.8557C200.488,-36.1232 209.427,-37.4928 218.302,-38.8527"/>
<polygon fill="midnightblue" stroke="midnightblue" points="217.842,-42.323 228.257,-40.378 218.902,-35.4037 217.842,-42.323"/>
</g>
<!-- Node4 -->
<g id="node4" class="node"><title>Node4</title>
<g id="a_node4"><a xlink:href="../../dd/d11/class_cell.html#adfc3c76d1f230a143057441eb6eabb62" target="_top" xlink:title="Cell.update">
<polygon fill="white" stroke="black" points="243.5,-0.5 243.5,-19.5 314.5,-19.5 314.5,-0.5 243.5,-0.5"/>
<text text-anchor="middle" x="279" y="-7.5" font-family="Helvetica,sans-Serif" font-size="10.00">Cell.update</text>
</a>
</g>
</g>
<!-- Node2&#45;&gt;Node4 -->
<g id="edge3" class="edge"><title>Node2&#45;&gt;Node4</title>
<path fill="none" stroke="midnightblue" d="M192.216,-23.1443C205.258,-21.1459 219.956,-18.8939 233.452,-16.8259"/>
<polygon fill="midnightblue" stroke="midnightblue" points="234.137,-20.2619 243.491,-15.2876 233.076,-13.3427 234.137,-20.2619"/>
</g>
</g>
</svg>
