<?xml version="1.0" encoding="UTF-8" standalone="no"?>
<!DOCTYPE svg PUBLIC "-//W3C//DTD SVG 1.1//EN"
 "http://www.w3.org/Graphics/SVG/1.1/DTD/svg11.dtd">
<!-- Generated by graphviz version 2.36.0 (20140111.2315)
 -->
<!-- Title: Mover.Mover Pages: 1 -->
<svg width="224pt" height="66pt"
 viewBox="0.00 0.00 224.00 66.00" xmlns="http://www.w3.org/2000/svg" xmlns:xlink="http://www.w3.org/1999/xlink">
<g id="graph0" class="graph" transform="scale(1 1) rotate(0) translate(4 62)">
<title>Mover.Mover</title>
<polygon fill="white" stroke="none" points="-4,4 -4,-62 220,-62 220,4 -4,4"/>
<!-- Node1 -->
<g id="node1" class="node"><title>Node1</title>
<polygon fill="#bfbfbf" stroke="black" points="0.5,-19.5 0.5,-38.5 77.5,-38.5 77.5,-19.5 0.5,-19.5"/>
<text text-anchor="middle" x="39" y="-26.5" font-family="Helvetica,sans-Serif" font-size="10.00">Mover.Mover</text>
</g>
<!-- Node2 -->
<g id="node2" class="node"><title>Node2</title>
<g id="a_node2"><a xlink:href="../../dd/d11/class_cell.html#a6ddc434a1826fac1599a7d901ff2d162" target="_top" xlink:title="Cell.setNextState">
<polygon fill="white" stroke="black" points="114.5,-38.5 114.5,-57.5 215.5,-57.5 215.5,-38.5 114.5,-38.5"/>
<text text-anchor="middle" x="165" y="-45.5" font-family="Helvetica,sans-Serif" font-size="10.00">Cell.setNextState</text>
</a>
</g>
</g>
<!-- Node1&#45;&gt;Node2 -->
<g id="edge1" class="edge"><title>Node1&#45;&gt;Node2</title>
<path fill="none" stroke="midnightblue" d="M77.5406,-34.7522C85.9307,-36.0378 95.0325,-37.4324 104.075,-38.818"/>
<polygon fill="midnightblue" stroke="midnightblue" points="103.804,-42.3172 114.219,-40.3723 104.864,-35.398 103.804,-42.3172"/>
</g>
<!-- Node3 -->
<g id="node3" class="node"><title>Node3</title>
<g id="a_node3"><a xlink:href="../../dd/d11/class_cell.html#adfc3c76d1f230a143057441eb6eabb62" target="_top" xlink:title="Cell.update">
<polygon fill="white" stroke="black" points="129.5,-0.5 129.5,-19.5 200.5,-19.5 200.5,-0.5 129.5,-0.5"/>
<text text-anchor="middle" x="165" y="-7.5" font-family="Helvetica,sans-Serif" font-size="10.00">Cell.update</text>
</a>
</g>
</g>
<!-- Node1&#45;&gt;Node3 -->
<g id="edge2" class="edge"><title>Node1&#45;&gt;Node3</title>
<path fill="none" stroke="midnightblue" d="M77.5406,-23.2478C90.6053,-21.246 105.396,-18.9797 119.002,-16.8949"/>
<polygon fill="midnightblue" stroke="midnightblue" points="119.773,-20.3176 129.128,-15.3433 118.713,-13.3984 119.773,-20.3176"/>
</g>
</g>
</svg>
