<?xml version="1.0" encoding="UTF-8" standalone="no"?>
<!DOCTYPE svg PUBLIC "-//W3C//DTD SVG 1.1//EN"
 "http://www.w3.org/Graphics/SVG/1.1/DTD/svg11.dtd">
<!-- Generated by graphviz version 2.36.0 (20140111.2315)
 -->
<!-- Title: MoveCellularAutomata.removeMover Pages: 1 -->
<svg width="428pt" height="66pt"
 viewBox="0.00 0.00 428.00 66.00" xmlns="http://www.w3.org/2000/svg" xmlns:xlink="http://www.w3.org/1999/xlink">
<g id="graph0" class="graph" transform="scale(1 1) rotate(0) translate(4 62)">
<title>MoveCellularAutomata.removeMover</title>
<polygon fill="white" stroke="none" points="-4,4 -4,-62 424,-62 424,4 -4,4"/>
<!-- Node1 -->
<g id="node1" class="node"><title>Node1</title>
<polygon fill="#bfbfbf" stroke="black" points="0.5,-14 0.5,-44 165.5,-44 165.5,-14 0.5,-14"/>
<text text-anchor="start" x="8.5" y="-32" font-family="Helvetica,sans-Serif" font-size="10.00">MoveCellularAutomata.remove</text>
<text text-anchor="middle" x="83" y="-21" font-family="Helvetica,sans-Serif" font-size="10.00">Mover</text>
</g>
<!-- Node2 -->
<g id="node2" class="node"><title>Node2</title>
<g id="a_node2"><a xlink:href="../../d0/db0/class_wator.html#a0afccb8f97e33c1d21e51ee1a3f4922b" target="_top" xlink:title="Wator.ruleOne">
<polygon fill="white" stroke="black" points="202.5,-38.5 202.5,-57.5 285.5,-57.5 285.5,-38.5 202.5,-38.5"/>
<text text-anchor="middle" x="244" y="-45.5" font-family="Helvetica,sans-Serif" font-size="10.00">Wator.ruleOne</text>
</a>
</g>
</g>
<!-- Node1&#45;&gt;Node2 -->
<g id="edge1" class="edge"><title>Node1&#45;&gt;Node2</title>
<path fill="none" stroke="midnightblue" d="M175.854,-39.9762C185.033,-41.0731 193.987,-42.1431 202.21,-43.1257"/>
<polygon fill="midnightblue" stroke="midnightblue" points="176.173,-36.4896 165.829,-38.7783 175.343,-43.4402 176.173,-36.4896"/>
</g>
<!-- Node4 -->
<g id="node4" class="node"><title>Node4</title>
<g id="a_node4"><a xlink:href="../../d0/db0/class_wator.html#aa8dba59120d9d6d7d7521f3a4ee7b454" target="_top" xlink:title="Wator.ruleTwo">
<polygon fill="white" stroke="black" points="204,-0.5 204,-19.5 284,-19.5 284,-0.5 204,-0.5"/>
<text text-anchor="middle" x="244" y="-7.5" font-family="Helvetica,sans-Serif" font-size="10.00">Wator.ruleTwo</text>
</a>
</g>
</g>
<!-- Node1&#45;&gt;Node4 -->
<g id="edge3" class="edge"><title>Node1&#45;&gt;Node4</title>
<path fill="none" stroke="midnightblue" d="M176.027,-18.0031C185.748,-16.8415 195.212,-15.7105 203.819,-14.682"/>
<polygon fill="midnightblue" stroke="midnightblue" points="175.343,-14.5598 165.829,-19.2217 176.173,-21.5104 175.343,-14.5598"/>
</g>
<!-- Node3 -->
<g id="node3" class="node"><title>Node3</title>
<g id="a_node3"><a xlink:href="../../d0/db0/class_wator.html#a422810cdcb035633301b3469cbee5e34" target="_top" xlink:title="Wator.checkRules">
<polygon fill="white" stroke="black" points="322,-19.5 322,-38.5 420,-38.5 420,-19.5 322,-19.5"/>
<text text-anchor="middle" x="371" y="-26.5" font-family="Helvetica,sans-Serif" font-size="10.00">Wator.checkRules</text>
</a>
</g>
</g>
<!-- Node2&#45;&gt;Node3 -->
<g id="edge2" class="edge"><title>Node2&#45;&gt;Node3</title>
<path fill="none" stroke="midnightblue" d="M295.557,-40.3153C304.213,-38.9996 313.187,-37.6356 321.779,-36.3295"/>
<polygon fill="midnightblue" stroke="midnightblue" points="294.944,-36.8682 285.584,-41.8312 295.996,-43.7887 294.944,-36.8682"/>
</g>
<!-- Node4&#45;&gt;Node3 -->
<g id="edge4" class="edge"><title>Node4&#45;&gt;Node3</title>
<path fill="none" stroke="midnightblue" d="M294.209,-17.4797C303.251,-18.8542 312.683,-20.2878 321.698,-21.6581"/>
<polygon fill="midnightblue" stroke="midnightblue" points="294.62,-14.0022 284.208,-15.9596 293.568,-20.9227 294.62,-14.0022"/>
</g>
</g>
</svg>
