<?xml version="1.0" encoding="UTF-8" standalone="no"?>
<!DOCTYPE svg PUBLIC "-//W3C//DTD SVG 1.1//EN"
 "http://www.w3.org/Graphics/SVG/1.1/DTD/svg11.dtd">
<!-- Generated by graphviz version 2.36.0 (20140111.2315)
 -->
<!-- Title: MoveCellularAutomata.addMover Pages: 1 -->
<svg width="576pt" height="135pt"
 viewBox="0.00 0.00 576.00 135.00" xmlns="http://www.w3.org/2000/svg" xmlns:xlink="http://www.w3.org/1999/xlink">
<g id="graph0" class="graph" transform="scale(1 1) rotate(0) translate(4 131)">
<title>MoveCellularAutomata.addMover</title>
<polygon fill="white" stroke="none" points="-4,4 -4,-131 572,-131 572,4 -4,4"/>
<!-- Node1 -->
<g id="node1" class="node"><title>Node1</title>
<polygon fill="#bfbfbf" stroke="black" points="0,-39 0,-69 146,-69 146,-39 0,-39"/>
<text text-anchor="start" x="8" y="-57" font-family="Helvetica,sans-Serif" font-size="10.00">MoveCellularAutomata.add</text>
<text text-anchor="middle" x="73" y="-46" font-family="Helvetica,sans-Serif" font-size="10.00">Mover</text>
</g>
<!-- Node2 -->
<g id="node2" class="node"><title>Node2</title>
<g id="a_node2"><a xlink:href="../../d0/db0/class_wator.html#a48bebe2ccefc55d2e433578eb0c22684" target="_top" xlink:title="Wator.breedIfCan">
<polygon fill="white" stroke="black" points="199,-88.5 199,-107.5 297,-107.5 297,-88.5 199,-88.5"/>
<text text-anchor="middle" x="248" y="-95.5" font-family="Helvetica,sans-Serif" font-size="10.00">Wator.breedIfCan</text>
</a>
</g>
</g>
<!-- Node1&#45;&gt;Node2 -->
<g id="edge1" class="edge"><title>Node1&#45;&gt;Node2</title>
<path fill="none" stroke="midnightblue" d="M143.01,-71.5518C165.737,-77.332 190.145,-83.5398 209.599,-88.4876"/>
<polygon fill="midnightblue" stroke="midnightblue" points="143.607,-68.0922 133.053,-69.0192 141.882,-74.8762 143.607,-68.0922"/>
</g>
<!-- Node6 -->
<g id="node6" class="node"><title>Node6</title>
<g id="a_node6"><a xlink:href="../../da/d1e/class_segregation.html#aa98703181490b07669037a419e52041c" target="_top" xlink:title="Segregation.setUpInitial\lConfig">
<polygon fill="white" stroke="black" points="182.5,-39 182.5,-69 313.5,-69 313.5,-39 182.5,-39"/>
<text text-anchor="start" x="190.5" y="-57" font-family="Helvetica,sans-Serif" font-size="10.00">Segregation.setUpInitial</text>
<text text-anchor="middle" x="248" y="-46" font-family="Helvetica,sans-Serif" font-size="10.00">Config</text>
</a>
</g>
</g>
<!-- Node1&#45;&gt;Node6 -->
<g id="edge6" class="edge"><title>Node1&#45;&gt;Node6</title>
<path fill="none" stroke="midnightblue" d="M156.354,-54C165.116,-54 173.936,-54 182.451,-54"/>
<polygon fill="midnightblue" stroke="midnightblue" points="156.115,-50.5001 146.115,-54 156.115,-57.5001 156.115,-50.5001"/>
</g>
<!-- Node7 -->
<g id="node7" class="node"><title>Node7</title>
<g id="a_node7"><a xlink:href="../../d0/db0/class_wator.html#a4ea39aef9488c7e03af93e711fe2e61e" target="_top" xlink:title="Wator.setUpInitialConfig">
<polygon fill="white" stroke="black" points="183.5,-0.5 183.5,-19.5 312.5,-19.5 312.5,-0.5 183.5,-0.5"/>
<text text-anchor="middle" x="248" y="-7.5" font-family="Helvetica,sans-Serif" font-size="10.00">Wator.setUpInitialConfig</text>
</a>
</g>
</g>
<!-- Node1&#45;&gt;Node7 -->
<g id="edge7" class="edge"><title>Node1&#45;&gt;Node7</title>
<path fill="none" stroke="midnightblue" d="M143.01,-36.4482C165.737,-30.668 190.145,-24.4602 209.599,-19.5124"/>
<polygon fill="midnightblue" stroke="midnightblue" points="141.882,-33.1238 133.053,-38.9808 143.607,-39.9078 141.882,-33.1238"/>
</g>
<!-- Node3 -->
<g id="node3" class="node"><title>Node3</title>
<g id="a_node3"><a xlink:href="../../d0/db0/class_wator.html#a0afccb8f97e33c1d21e51ee1a3f4922b" target="_top" xlink:title="Wator.ruleOne">
<polygon fill="white" stroke="black" points="350.5,-107.5 350.5,-126.5 433.5,-126.5 433.5,-107.5 350.5,-107.5"/>
<text text-anchor="middle" x="392" y="-114.5" font-family="Helvetica,sans-Serif" font-size="10.00">Wator.ruleOne</text>
</a>
</g>
</g>
<!-- Node2&#45;&gt;Node3 -->
<g id="edge2" class="edge"><title>Node2&#45;&gt;Node3</title>
<path fill="none" stroke="midnightblue" d="M307.359,-105.809C321.704,-107.728 336.76,-109.743 350.083,-111.525"/>
<polygon fill="midnightblue" stroke="midnightblue" points="307.451,-102.29 297.075,-104.433 306.522,-109.228 307.451,-102.29"/>
</g>
<!-- Node5 -->
<g id="node5" class="node"><title>Node5</title>
<g id="a_node5"><a xlink:href="../../d0/db0/class_wator.html#aa8dba59120d9d6d7d7521f3a4ee7b454" target="_top" xlink:title="Wator.ruleTwo">
<polygon fill="white" stroke="black" points="352,-69.5 352,-88.5 432,-88.5 432,-69.5 352,-69.5"/>
<text text-anchor="middle" x="392" y="-76.5" font-family="Helvetica,sans-Serif" font-size="10.00">Wator.ruleTwo</text>
</a>
</g>
</g>
<!-- Node2&#45;&gt;Node5 -->
<g id="edge4" class="edge"><title>Node2&#45;&gt;Node5</title>
<path fill="none" stroke="midnightblue" d="M307.316,-90.1971C322.34,-88.1869 338.147,-86.0718 351.928,-84.228"/>
<polygon fill="midnightblue" stroke="midnightblue" points="306.522,-86.7721 297.075,-91.5675 307.451,-93.7103 306.522,-86.7721"/>
</g>
<!-- Node4 -->
<g id="node4" class="node"><title>Node4</title>
<g id="a_node4"><a xlink:href="../../d0/db0/class_wator.html#a422810cdcb035633301b3469cbee5e34" target="_top" xlink:title="Wator.checkRules">
<polygon fill="white" stroke="black" points="470,-88.5 470,-107.5 568,-107.5 568,-88.5 470,-88.5"/>
<text text-anchor="middle" x="519" y="-95.5" font-family="Helvetica,sans-Serif" font-size="10.00">Wator.checkRules</text>
</a>
</g>
</g>
<!-- Node3&#45;&gt;Node4 -->
<g id="edge3" class="edge"><title>Node3&#45;&gt;Node4</title>
<path fill="none" stroke="midnightblue" d="M443.557,-109.315C452.213,-108 461.187,-106.636 469.779,-105.33"/>
<polygon fill="midnightblue" stroke="midnightblue" points="442.944,-105.868 433.584,-110.831 443.996,-112.789 442.944,-105.868"/>
</g>
<!-- Node5&#45;&gt;Node4 -->
<g id="edge5" class="edge"><title>Node5&#45;&gt;Node4</title>
<path fill="none" stroke="midnightblue" d="M442.209,-86.4797C451.251,-87.8542 460.683,-89.2878 469.698,-90.6581"/>
<polygon fill="midnightblue" stroke="midnightblue" points="442.62,-83.0022 432.208,-84.9596 441.568,-89.9227 442.62,-83.0022"/>
</g>
</g>
</svg>
