<?xml version="1.0" encoding="UTF-8" standalone="no"?>
<!DOCTYPE svg PUBLIC "-//W3C//DTD SVG 1.1//EN"
 "http://www.w3.org/Graphics/SVG/1.1/DTD/svg11.dtd">
<!-- Generated by graphviz version 2.36.0 (20140111.2315)
 -->
<!-- Title: MoveCellularAutomata.move Pages: 1 -->
<svg width="428pt" height="161pt"
 viewBox="0.00 0.00 428.00 161.00" xmlns="http://www.w3.org/2000/svg" xmlns:xlink="http://www.w3.org/1999/xlink">
<g id="graph0" class="graph" transform="scale(1 1) rotate(0) translate(4 157)">
<title>MoveCellularAutomata.move</title>
<polygon fill="white" stroke="none" points="-4,4 -4,-157 424,-157 424,4 -4,4"/>
<!-- Node1 -->
<g id="node1" class="node"><title>Node1</title>
<polygon fill="#bfbfbf" stroke="black" points="0.5,-76.5 0.5,-95.5 155.5,-95.5 155.5,-76.5 0.5,-76.5"/>
<text text-anchor="middle" x="78" y="-83.5" font-family="Helvetica,sans-Serif" font-size="10.00">MoveCellularAutomata.move</text>
</g>
<!-- Node2 -->
<g id="node2" class="node"><title>Node2</title>
<g id="a_node2"><a xlink:href="../../dc/d06/class_mover.html#adf476a60dad6e0feb9bedb3f6af313b5" target="_top" xlink:title="Mover.getCell">
<polygon fill="white" stroke="black" points="196.5,-133.5 196.5,-152.5 277.5,-152.5 277.5,-133.5 196.5,-133.5"/>
<text text-anchor="middle" x="237" y="-140.5" font-family="Helvetica,sans-Serif" font-size="10.00">Mover.getCell</text>
</a>
</g>
</g>
<!-- Node1&#45;&gt;Node2 -->
<g id="edge1" class="edge"><title>Node1&#45;&gt;Node2</title>
<path fill="none" stroke="midnightblue" d="M105.278,-95.5405C131.203,-104.953 171.035,-119.414 199.917,-129.9"/>
<polygon fill="midnightblue" stroke="midnightblue" points="199.042,-133.306 209.636,-133.428 201.431,-126.726 199.042,-133.306"/>
</g>
<!-- Node3 -->
<g id="node3" class="node"><title>Node3</title>
<g id="a_node3"><a xlink:href="../../dc/d06/class_mover.html#aa8711e427647a7c980d42a89588270ba" target="_top" xlink:title="Mover.getState">
<polygon fill="white" stroke="black" points="192,-95.5 192,-114.5 282,-114.5 282,-95.5 192,-95.5"/>
<text text-anchor="middle" x="237" y="-102.5" font-family="Helvetica,sans-Serif" font-size="10.00">Mover.getState</text>
</a>
</g>
</g>
<!-- Node1&#45;&gt;Node3 -->
<g id="edge2" class="edge"><title>Node1&#45;&gt;Node3</title>
<path fill="none" stroke="midnightblue" d="M155.66,-95.2774C164.514,-96.3489 173.4,-97.4242 181.866,-98.4487"/>
<polygon fill="midnightblue" stroke="midnightblue" points="181.605,-101.943 191.953,-99.6695 182.446,-94.9934 181.605,-101.943"/>
</g>
<!-- Node4 -->
<g id="node4" class="node"><title>Node4</title>
<g id="a_node4"><a xlink:href="../../dc/d06/class_mover.html#a074c563641e724872aa0274000ddb0a0" target="_top" xlink:title="Mover.move">
<polygon fill="white" stroke="black" points="199.5,-57.5 199.5,-76.5 274.5,-76.5 274.5,-57.5 199.5,-57.5"/>
<text text-anchor="middle" x="237" y="-64.5" font-family="Helvetica,sans-Serif" font-size="10.00">Mover.move</text>
</a>
</g>
</g>
<!-- Node1&#45;&gt;Node4 -->
<g id="edge3" class="edge"><title>Node1&#45;&gt;Node4</title>
<path fill="none" stroke="midnightblue" d="M155.66,-76.7226C167.103,-75.3379 178.597,-73.9468 189.171,-72.6673"/>
<polygon fill="midnightblue" stroke="midnightblue" points="189.894,-76.1053 199.401,-71.4292 189.053,-69.156 189.894,-76.1053"/>
</g>
<!-- Node5 -->
<g id="node5" class="node"><title>Node5</title>
<g id="a_node5"><a xlink:href="../../dd/d11/class_cell.html#aaaf321e273ef5b6ac3fae80e36d19629" target="_top" xlink:title="Cell.setState">
<polygon fill="white" stroke="black" points="198,-19.5 198,-38.5 276,-38.5 276,-19.5 198,-19.5"/>
<text text-anchor="middle" x="237" y="-26.5" font-family="Helvetica,sans-Serif" font-size="10.00">Cell.setState</text>
</a>
</g>
</g>
<!-- Node1&#45;&gt;Node5 -->
<g id="edge4" class="edge"><title>Node1&#45;&gt;Node5</title>
<path fill="none" stroke="midnightblue" d="M105.278,-76.4595C131.203,-67.0473 171.035,-52.5862 199.917,-42.1001"/>
<polygon fill="midnightblue" stroke="midnightblue" points="201.431,-45.2742 209.636,-38.5716 199.042,-38.6944 201.431,-45.2742"/>
</g>
<!-- Node6 -->
<g id="node6" class="node"><title>Node6</title>
<g id="a_node6"><a xlink:href="../../dd/d11/class_cell.html#a6ddc434a1826fac1599a7d901ff2d162" target="_top" xlink:title="Cell.setNextState">
<polygon fill="white" stroke="black" points="318.5,-38.5 318.5,-57.5 419.5,-57.5 419.5,-38.5 318.5,-38.5"/>
<text text-anchor="middle" x="369" y="-45.5" font-family="Helvetica,sans-Serif" font-size="10.00">Cell.setNextState</text>
</a>
</g>
</g>
<!-- Node5&#45;&gt;Node6 -->
<g id="edge5" class="edge"><title>Node5&#45;&gt;Node6</title>
<path fill="none" stroke="midnightblue" d="M276.301,-34.5979C286.393,-36.0729 297.525,-37.6998 308.45,-39.2965"/>
<polygon fill="midnightblue" stroke="midnightblue" points="307.988,-42.7661 318.389,-40.7492 309,-35.8397 307.988,-42.7661"/>
</g>
<!-- Node7 -->
<g id="node7" class="node"><title>Node7</title>
<g id="a_node7"><a xlink:href="../../dd/d11/class_cell.html#adfc3c76d1f230a143057441eb6eabb62" target="_top" xlink:title="Cell.update">
<polygon fill="white" stroke="black" points="333.5,-0.5 333.5,-19.5 404.5,-19.5 404.5,-0.5 333.5,-0.5"/>
<text text-anchor="middle" x="369" y="-7.5" font-family="Helvetica,sans-Serif" font-size="10.00">Cell.update</text>
</a>
</g>
</g>
<!-- Node5&#45;&gt;Node7 -->
<g id="edge6" class="edge"><title>Node5&#45;&gt;Node7</title>
<path fill="none" stroke="midnightblue" d="M276.301,-23.4021C290.906,-21.2676 307.687,-18.8149 322.869,-16.5961"/>
<polygon fill="midnightblue" stroke="midnightblue" points="323.688,-20.0136 333.077,-15.1041 322.676,-13.0872 323.688,-20.0136"/>
</g>
</g>
</svg>
