<?xml version="1.0" encoding="UTF-8" standalone="no"?>
<!DOCTYPE svg PUBLIC "-//W3C//DTD SVG 1.1//EN"
 "http://www.w3.org/Graphics/SVG/1.1/DTD/svg11.dtd">
<!-- Generated by graphviz version 2.36.0 (20140111.2315)
 -->
<!-- Title: MoveCellularAutomata.addMover Pages: 1 -->
<svg width="496pt" height="77pt"
 viewBox="0.00 0.00 496.00 77.00" xmlns="http://www.w3.org/2000/svg" xmlns:xlink="http://www.w3.org/1999/xlink">
<g id="graph0" class="graph" transform="scale(1 1) rotate(0) translate(4 73)">
<title>MoveCellularAutomata.addMover</title>
<polygon fill="white" stroke="none" points="-4,4 -4,-73 492,-73 492,4 -4,4"/>
<!-- Node1 -->
<g id="node1" class="node"><title>Node1</title>
<polygon fill="#bfbfbf" stroke="black" points="0,-17 0,-47 146,-47 146,-17 0,-17"/>
<text text-anchor="start" x="8" y="-35" font-family="Helvetica,sans-Serif" font-size="10.00">MoveCellularAutomata.add</text>
<text text-anchor="middle" x="73" y="-24" font-family="Helvetica,sans-Serif" font-size="10.00">Mover</text>
</g>
<!-- Node2 -->
<g id="node2" class="node"><title>Node2</title>
<g id="a_node2"><a xlink:href="../../da/d1e/class_segregation.html#a983021f5ba3fc800655cb0c9de0ba08f" target="_top" xlink:title="Segregation.setUpInitial\lConfig">
<polygon fill="white" stroke="black" points="182.5,-39 182.5,-69 313.5,-69 313.5,-39 182.5,-39"/>
<text text-anchor="start" x="190.5" y="-57" font-family="Helvetica,sans-Serif" font-size="10.00">Segregation.setUpInitial</text>
<text text-anchor="middle" x="248" y="-46" font-family="Helvetica,sans-Serif" font-size="10.00">Config</text>
</a>
</g>
</g>
<!-- Node1&#45;&gt;Node2 -->
<g id="edge1" class="edge"><title>Node1&#45;&gt;Node2</title>
<path fill="none" stroke="midnightblue" d="M156.068,-42.4364C164.925,-43.5627 173.843,-44.6968 182.451,-45.7915"/>
<polygon fill="midnightblue" stroke="midnightblue" points="156.477,-38.9602 146.115,-41.1707 155.593,-45.9043 156.477,-38.9602"/>
</g>
<!-- Node4 -->
<g id="node4" class="node"><title>Node4</title>
<g id="a_node4"><a xlink:href="../../d0/db0/class_wator.html#a4ea39aef9488c7e03af93e711fe2e61e" target="_top" xlink:title="Wator.setUpInitialConfig">
<polygon fill="white" stroke="black" points="183.5,-0.5 183.5,-19.5 312.5,-19.5 312.5,-0.5 183.5,-0.5"/>
<text text-anchor="middle" x="248" y="-7.5" font-family="Helvetica,sans-Serif" font-size="10.00">Wator.setUpInitialConfig</text>
</a>
</g>
</g>
<!-- Node1&#45;&gt;Node4 -->
<g id="edge3" class="edge"><title>Node1&#45;&gt;Node4</title>
<path fill="none" stroke="midnightblue" d="M156.299,-21.5343C165.361,-20.3819 174.485,-19.2216 183.271,-18.1043"/>
<polygon fill="midnightblue" stroke="midnightblue" points="155.593,-18.0957 146.115,-22.8293 156.477,-25.0398 155.593,-18.0957"/>
</g>
<!-- Node3 -->
<g id="node3" class="node"><title>Node3</title>
<g id="a_node3"><a xlink:href="../../da/d1e/class_segregation.html#adcbbd1f49861ddfed2793a3e3d26b4c5" target="_top" xlink:title="Segregation.Segregation">
<polygon fill="white" stroke="black" points="350.5,-44.5 350.5,-63.5 487.5,-63.5 487.5,-44.5 350.5,-44.5"/>
<text text-anchor="middle" x="419" y="-51.5" font-family="Helvetica,sans-Serif" font-size="10.00">Segregation.Segregation</text>
</a>
</g>
</g>
<!-- Node2&#45;&gt;Node3 -->
<g id="edge2" class="edge"><title>Node2&#45;&gt;Node3</title>
<path fill="none" stroke="midnightblue" d="M324.018,-54C332.746,-54 341.612,-54 350.235,-54"/>
<polygon fill="midnightblue" stroke="midnightblue" points="323.857,-50.5001 313.856,-54 323.856,-57.5001 323.857,-50.5001"/>
</g>
<!-- Node5 -->
<g id="node5" class="node"><title>Node5</title>
<g id="a_node5"><a xlink:href="../../d0/db0/class_wator.html#a17b00ee0207f7ce40fe9895cba407de0" target="_top" xlink:title="Wator.Wator">
<polygon fill="white" stroke="black" points="382.5,-0.5 382.5,-19.5 455.5,-19.5 455.5,-0.5 382.5,-0.5"/>
<text text-anchor="middle" x="419" y="-7.5" font-family="Helvetica,sans-Serif" font-size="10.00">Wator.Wator</text>
</a>
</g>
</g>
<!-- Node4&#45;&gt;Node5 -->
<g id="edge4" class="edge"><title>Node4&#45;&gt;Node5</title>
<path fill="none" stroke="midnightblue" d="M322.942,-10C343.599,-10 365.112,-10 382.437,-10"/>
<polygon fill="midnightblue" stroke="midnightblue" points="322.892,-6.5001 312.892,-10 322.892,-13.5001 322.892,-6.5001"/>
</g>
</g>
</svg>
