<?xml version="1.0" encoding="UTF-8" standalone="no"?>
<!DOCTYPE svg PUBLIC "-//W3C//DTD SVG 1.1//EN"
 "http://www.w3.org/Graphics/SVG/1.1/DTD/svg11.dtd">
<!-- Generated by graphviz version 2.36.0 (20140111.2315)
 -->
<!-- Title: MoveCellularAutomata.getRandomCell Pages: 1 -->
<svg width="598pt" height="66pt"
 viewBox="0.00 0.00 598.00 66.00" xmlns="http://www.w3.org/2000/svg" xmlns:xlink="http://www.w3.org/1999/xlink">
<g id="graph0" class="graph" transform="scale(1 1) rotate(0) translate(4 62)">
<title>MoveCellularAutomata.getRandomCell</title>
<polygon fill="white" stroke="none" points="-4,4 -4,-62 594,-62 594,4 -4,4"/>
<!-- Node1 -->
<g id="node1" class="node"><title>Node1</title>
<polygon fill="#bfbfbf" stroke="black" points="0,-14 0,-44 144,-44 144,-14 0,-14"/>
<text text-anchor="start" x="8" y="-32" font-family="Helvetica,sans-Serif" font-size="10.00">MoveCellularAutomata.get</text>
<text text-anchor="middle" x="72" y="-21" font-family="Helvetica,sans-Serif" font-size="10.00">RandomCell</text>
</g>
<!-- Node2 -->
<g id="node2" class="node"><title>Node2</title>
<g id="a_node2"><a xlink:href="../../da/de8/class_move_cellular_automata.html#a813e13cff0ced9cf21fd55e7980069d8" target="_top" xlink:title="MoveCellularAutomata.move">
<polygon fill="white" stroke="black" points="180.5,-19.5 180.5,-38.5 335.5,-38.5 335.5,-19.5 180.5,-19.5"/>
<text text-anchor="middle" x="258" y="-26.5" font-family="Helvetica,sans-Serif" font-size="10.00">MoveCellularAutomata.move</text>
</a>
</g>
</g>
<!-- Node1&#45;&gt;Node2 -->
<g id="edge1" class="edge"><title>Node1&#45;&gt;Node2</title>
<path fill="none" stroke="midnightblue" d="M154.219,-29C162.872,-29 171.654,-29 180.253,-29"/>
<polygon fill="midnightblue" stroke="midnightblue" points="154.139,-25.5001 144.139,-29 154.139,-32.5001 154.139,-25.5001"/>
</g>
<!-- Node3 -->
<g id="node3" class="node"><title>Node3</title>
<g id="a_node3"><a xlink:href="../../d0/db0/class_wator.html#a0afccb8f97e33c1d21e51ee1a3f4922b" target="_top" xlink:title="Wator.ruleOne">
<polygon fill="white" stroke="black" points="372.5,-38.5 372.5,-57.5 455.5,-57.5 455.5,-38.5 372.5,-38.5"/>
<text text-anchor="middle" x="414" y="-45.5" font-family="Helvetica,sans-Serif" font-size="10.00">Wator.ruleOne</text>
</a>
</g>
</g>
<!-- Node2&#45;&gt;Node3 -->
<g id="edge2" class="edge"><title>Node2&#45;&gt;Node3</title>
<path fill="none" stroke="midnightblue" d="M345.632,-39.6884C354.881,-40.8295 363.941,-41.9472 372.268,-42.9746"/>
<polygon fill="midnightblue" stroke="midnightblue" points="345.902,-36.1952 335.549,-38.4443 345.045,-43.1426 345.902,-36.1952"/>
</g>
<!-- Node5 -->
<g id="node5" class="node"><title>Node5</title>
<g id="a_node5"><a xlink:href="../../d0/db0/class_wator.html#aa8dba59120d9d6d7d7521f3a4ee7b454" target="_top" xlink:title="Wator.ruleTwo">
<polygon fill="white" stroke="black" points="374,-0.5 374,-19.5 454,-19.5 454,-0.5 374,-0.5"/>
<text text-anchor="middle" x="414" y="-7.5" font-family="Helvetica,sans-Serif" font-size="10.00">Wator.ruleTwo</text>
</a>
</g>
</g>
<!-- Node2&#45;&gt;Node5 -->
<g id="edge4" class="edge"><title>Node2&#45;&gt;Node5</title>
<path fill="none" stroke="midnightblue" d="M345.492,-18.3289C355.389,-17.1079 365.073,-15.913 373.878,-14.8267"/>
<polygon fill="midnightblue" stroke="midnightblue" points="345.045,-14.8574 335.549,-19.5557 345.902,-21.8048 345.045,-14.8574"/>
</g>
<!-- Node4 -->
<g id="node4" class="node"><title>Node4</title>
<g id="a_node4"><a xlink:href="../../d0/db0/class_wator.html#a422810cdcb035633301b3469cbee5e34" target="_top" xlink:title="Wator.checkRules">
<polygon fill="white" stroke="black" points="492,-19.5 492,-38.5 590,-38.5 590,-19.5 492,-19.5"/>
<text text-anchor="middle" x="541" y="-26.5" font-family="Helvetica,sans-Serif" font-size="10.00">Wator.checkRules</text>
</a>
</g>
</g>
<!-- Node3&#45;&gt;Node4 -->
<g id="edge3" class="edge"><title>Node3&#45;&gt;Node4</title>
<path fill="none" stroke="midnightblue" d="M465.557,-40.3153C474.213,-38.9996 483.187,-37.6356 491.779,-36.3295"/>
<polygon fill="midnightblue" stroke="midnightblue" points="464.944,-36.8682 455.584,-41.8312 465.996,-43.7887 464.944,-36.8682"/>
</g>
<!-- Node5&#45;&gt;Node4 -->
<g id="edge5" class="edge"><title>Node5&#45;&gt;Node4</title>
<path fill="none" stroke="midnightblue" d="M464.209,-17.4797C473.251,-18.8542 482.683,-20.2878 491.698,-21.6581"/>
<polygon fill="midnightblue" stroke="midnightblue" points="464.62,-14.0022 454.208,-15.9596 463.568,-20.9227 464.62,-14.0022"/>
</g>
</g>
</svg>
