<?xml version="1.0" encoding="UTF-8" standalone="no"?>
<!DOCTYPE svg PUBLIC "-//W3C//DTD SVG 1.1//EN"
 "http://www.w3.org/Graphics/SVG/1.1/DTD/svg11.dtd">
<!-- Generated by graphviz version 2.36.0 (20140111.2315)
 -->
<!-- Title: MoveCellularAutomata.checkRules Pages: 1 -->
<svg width="362pt" height="38pt"
 viewBox="0.00 0.00 362.00 38.00" xmlns="http://www.w3.org/2000/svg" xmlns:xlink="http://www.w3.org/1999/xlink">
<g id="graph0" class="graph" transform="scale(1 1) rotate(0) translate(4 34)">
<title>MoveCellularAutomata.checkRules</title>
<polygon fill="white" stroke="none" points="-4,4 -4,-34 358,-34 358,4 -4,4"/>
<!-- Node1 -->
<g id="node1" class="node"><title>Node1</title>
<polygon fill="#bfbfbf" stroke="black" points="0,-0 0,-30 156,-30 156,-0 0,-0"/>
<text text-anchor="start" x="8" y="-18" font-family="Helvetica,sans-Serif" font-size="10.00">MoveCellularAutomata.check</text>
<text text-anchor="middle" x="78" y="-7" font-family="Helvetica,sans-Serif" font-size="10.00">Rules</text>
</g>
<!-- Node2 -->
<g id="node2" class="node"><title>Node2</title>
<g id="a_node2"><a xlink:href="../../da/de8/class_move_cellular_automata.html#a63737efb10b811b7c7a004bc848e0b09" target="_top" xlink:title="MoveCellularAutomata.update\lNextGen">
<polygon fill="white" stroke="black" points="192,-0 192,-30 354,-30 354,-0 192,-0"/>
<text text-anchor="start" x="200" y="-18" font-family="Helvetica,sans-Serif" font-size="10.00">MoveCellularAutomata.update</text>
<text text-anchor="middle" x="273" y="-7" font-family="Helvetica,sans-Serif" font-size="10.00">NextGen</text>
</a>
</g>
</g>
<!-- Node1&#45;&gt;Node2 -->
<g id="edge1" class="edge"><title>Node1&#45;&gt;Node2</title>
<path fill="none" stroke="midnightblue" d="M166.112,-15C174.684,-15 183.356,-15 191.853,-15"/>
<polygon fill="midnightblue" stroke="midnightblue" points="166.111,-11.5001 156.111,-15 166.111,-18.5001 166.111,-11.5001"/>
</g>
</g>
</svg>
