<?xml version="1.0" encoding="UTF-8" standalone="no"?>
<!DOCTYPE svg PUBLIC "-//W3C//DTD SVG 1.1//EN"
 "http://www.w3.org/Graphics/SVG/1.1/DTD/svg11.dtd">
<!-- Generated by graphviz version 2.36.0 (20140111.2315)
 -->
<!-- Title: MoveCellularAutomata.addNewMover Pages: 1 -->
<svg width="518pt" height="66pt"
 viewBox="0.00 0.00 518.00 66.00" xmlns="http://www.w3.org/2000/svg" xmlns:xlink="http://www.w3.org/1999/xlink">
<g id="graph0" class="graph" transform="scale(1 1) rotate(0) translate(4 62)">
<title>MoveCellularAutomata.addNewMover</title>
<polygon fill="white" stroke="none" points="-4,4 -4,-62 514,-62 514,4 -4,4"/>
<!-- Node1 -->
<g id="node1" class="node"><title>Node1</title>
<polygon fill="#bfbfbf" stroke="black" points="0,-14 0,-44 146,-44 146,-14 0,-14"/>
<text text-anchor="start" x="8" y="-32" font-family="Helvetica,sans-Serif" font-size="10.00">MoveCellularAutomata.add</text>
<text text-anchor="middle" x="73" y="-21" font-family="Helvetica,sans-Serif" font-size="10.00">NewMover</text>
</g>
<!-- Node2 -->
<g id="node2" class="node"><title>Node2</title>
<g id="a_node2"><a xlink:href="../../d0/db0/class_wator.html#a7b49e449f5277f27fc84287bc5e88357" target="_top" xlink:title="Wator.breed">
<polygon fill="white" stroke="black" points="182,-19.5 182,-38.5 256,-38.5 256,-19.5 182,-19.5"/>
<text text-anchor="middle" x="219" y="-26.5" font-family="Helvetica,sans-Serif" font-size="10.00">Wator.breed</text>
</a>
</g>
</g>
<!-- Node1&#45;&gt;Node2 -->
<g id="edge1" class="edge"><title>Node1&#45;&gt;Node2</title>
<path fill="none" stroke="midnightblue" d="M156.5,-29C165.371,-29 174.025,-29 181.907,-29"/>
<polygon fill="midnightblue" stroke="midnightblue" points="156.422,-25.5001 146.422,-29 156.422,-32.5001 156.422,-25.5001"/>
</g>
<!-- Node3 -->
<g id="node3" class="node"><title>Node3</title>
<g id="a_node3"><a xlink:href="../../d0/db0/class_wator.html#a0afccb8f97e33c1d21e51ee1a3f4922b" target="_top" xlink:title="Wator.ruleOne">
<polygon fill="white" stroke="black" points="292.5,-38.5 292.5,-57.5 375.5,-57.5 375.5,-38.5 292.5,-38.5"/>
<text text-anchor="middle" x="334" y="-45.5" font-family="Helvetica,sans-Serif" font-size="10.00">Wator.ruleOne</text>
</a>
</g>
</g>
<!-- Node2&#45;&gt;Node3 -->
<g id="edge2" class="edge"><title>Node2&#45;&gt;Node3</title>
<path fill="none" stroke="midnightblue" d="M266.024,-36.7385C274.684,-38.1947 283.685,-39.7081 292.173,-41.1353"/>
<polygon fill="midnightblue" stroke="midnightblue" points="266.507,-33.2706 256.065,-35.064 265.346,-40.1737 266.507,-33.2706"/>
</g>
<!-- Node5 -->
<g id="node5" class="node"><title>Node5</title>
<g id="a_node5"><a xlink:href="../../d0/db0/class_wator.html#aa8dba59120d9d6d7d7521f3a4ee7b454" target="_top" xlink:title="Wator.ruleTwo">
<polygon fill="white" stroke="black" points="294,-0.5 294,-19.5 374,-19.5 374,-0.5 294,-0.5"/>
<text text-anchor="middle" x="334" y="-7.5" font-family="Helvetica,sans-Serif" font-size="10.00">Wator.ruleTwo</text>
</a>
</g>
</g>
<!-- Node2&#45;&gt;Node5 -->
<g id="edge4" class="edge"><title>Node2&#45;&gt;Node5</title>
<path fill="none" stroke="midnightblue" d="M266.186,-21.2343C275.338,-19.6954 284.864,-18.0936 293.759,-16.598"/>
<polygon fill="midnightblue" stroke="midnightblue" points="265.346,-17.8263 256.065,-22.936 266.507,-24.7294 265.346,-17.8263"/>
</g>
<!-- Node4 -->
<g id="node4" class="node"><title>Node4</title>
<g id="a_node4"><a xlink:href="../../d0/db0/class_wator.html#a422810cdcb035633301b3469cbee5e34" target="_top" xlink:title="Wator.checkRules">
<polygon fill="white" stroke="black" points="412,-19.5 412,-38.5 510,-38.5 510,-19.5 412,-19.5"/>
<text text-anchor="middle" x="461" y="-26.5" font-family="Helvetica,sans-Serif" font-size="10.00">Wator.checkRules</text>
</a>
</g>
</g>
<!-- Node3&#45;&gt;Node4 -->
<g id="edge3" class="edge"><title>Node3&#45;&gt;Node4</title>
<path fill="none" stroke="midnightblue" d="M385.557,-40.3153C394.213,-38.9996 403.187,-37.6356 411.779,-36.3295"/>
<polygon fill="midnightblue" stroke="midnightblue" points="384.944,-36.8682 375.584,-41.8312 385.996,-43.7887 384.944,-36.8682"/>
</g>
<!-- Node5&#45;&gt;Node4 -->
<g id="edge5" class="edge"><title>Node5&#45;&gt;Node4</title>
<path fill="none" stroke="midnightblue" d="M384.209,-17.4797C393.251,-18.8542 402.683,-20.2878 411.698,-21.6581"/>
<polygon fill="midnightblue" stroke="midnightblue" points="384.62,-14.0022 374.208,-15.9596 383.568,-20.9227 384.62,-14.0022"/>
</g>
</g>
</svg>
