<?xml version="1.0" encoding="UTF-8" standalone="no"?>
<!DOCTYPE svg PUBLIC "-//W3C//DTD SVG 1.1//EN"
 "http://www.w3.org/Graphics/SVG/1.1/DTD/svg11.dtd">
<!-- Generated by graphviz version 2.36.0 (20140111.2315)
 -->
<!-- Title: MoveCellularAutomata.setEmptyColor Pages: 1 -->
<svg width="326pt" height="66pt"
 viewBox="0.00 0.00 326.00 66.00" xmlns="http://www.w3.org/2000/svg" xmlns:xlink="http://www.w3.org/1999/xlink">
<g id="graph0" class="graph" transform="scale(1 1) rotate(0) translate(4 62)">
<title>MoveCellularAutomata.setEmptyColor</title>
<polygon fill="white" stroke="none" points="-4,4 -4,-62 322,-62 322,4 -4,4"/>
<!-- Node1 -->
<g id="node1" class="node"><title>Node1</title>
<polygon fill="#bfbfbf" stroke="black" points="0.5,-14 0.5,-44 143.5,-44 143.5,-14 0.5,-14"/>
<text text-anchor="start" x="8.5" y="-32" font-family="Helvetica,sans-Serif" font-size="10.00">MoveCellularAutomata.set</text>
<text text-anchor="middle" x="72" y="-21" font-family="Helvetica,sans-Serif" font-size="10.00">EmptyColor</text>
</g>
<!-- Node2 -->
<g id="node2" class="node"><title>Node2</title>
<g id="a_node2"><a xlink:href="../../da/d1e/class_segregation.html#a287ba274377ef7f013fb8052a0462ff0" target="_top" xlink:title="Segregation.Segregation">
<polygon fill="white" stroke="black" points="180.5,-38.5 180.5,-57.5 317.5,-57.5 317.5,-38.5 180.5,-38.5"/>
<text text-anchor="middle" x="249" y="-45.5" font-family="Helvetica,sans-Serif" font-size="10.00">Segregation.Segregation</text>
</a>
</g>
</g>
<!-- Node1&#45;&gt;Node2 -->
<g id="edge1" class="edge"><title>Node1&#45;&gt;Node2</title>
<path fill="none" stroke="midnightblue" d="M153.716,-37.7634C162.663,-38.7348 171.705,-39.7166 180.466,-40.6677"/>
<polygon fill="midnightblue" stroke="midnightblue" points="153.994,-34.2732 143.675,-36.6733 153.239,-41.2323 153.994,-34.2732"/>
</g>
<!-- Node3 -->
<g id="node3" class="node"><title>Node3</title>
<g id="a_node3"><a xlink:href="../../d0/db0/class_wator.html#ab8f8fdd37de6f4969880e74e28f4e3b9" target="_top" xlink:title="Wator.Wator">
<polygon fill="white" stroke="black" points="212.5,-0.5 212.5,-19.5 285.5,-19.5 285.5,-0.5 212.5,-0.5"/>
<text text-anchor="middle" x="249" y="-7.5" font-family="Helvetica,sans-Serif" font-size="10.00">Wator.Wator</text>
</a>
</g>
</g>
<!-- Node1&#45;&gt;Node3 -->
<g id="edge2" class="edge"><title>Node1&#45;&gt;Node3</title>
<path fill="none" stroke="midnightblue" d="M153.68,-20.2405C174.183,-18.0144 195.189,-15.7338 212.157,-13.8915"/>
<polygon fill="midnightblue" stroke="midnightblue" points="153.239,-16.7677 143.675,-21.3267 153.994,-23.7268 153.239,-16.7677"/>
</g>
</g>
</svg>
