<?xml version="1.0" encoding="UTF-8" standalone="no"?>
<!DOCTYPE svg PUBLIC "-//W3C//DTD SVG 1.1//EN"
 "http://www.w3.org/Graphics/SVG/1.1/DTD/svg11.dtd">
<!-- Generated by graphviz version 2.36.0 (20140111.2315)
 -->
<!-- Title: MoveCellularAutomata.setEmptyColor Pages: 1 -->
<svg width="280pt" height="66pt"
 viewBox="0.00 0.00 280.00 66.00" xmlns="http://www.w3.org/2000/svg" xmlns:xlink="http://www.w3.org/1999/xlink">
<g id="graph0" class="graph" transform="scale(1 1) rotate(0) translate(4 62)">
<title>MoveCellularAutomata.setEmptyColor</title>
<polygon fill="white" stroke="none" points="-4,4 -4,-62 276,-62 276,4 -4,4"/>
<!-- Node1 -->
<g id="node1" class="node"><title>Node1</title>
<polygon fill="#bfbfbf" stroke="black" points="0.5,-14 0.5,-44 143.5,-44 143.5,-14 0.5,-14"/>
<text text-anchor="start" x="8.5" y="-32" font-family="Helvetica,sans-Serif" font-size="10.00">MoveCellularAutomata.set</text>
<text text-anchor="middle" x="72" y="-21" font-family="Helvetica,sans-Serif" font-size="10.00">EmptyColor</text>
</g>
<!-- Node2 -->
<g id="node2" class="node"><title>Node2</title>
<g id="a_node2"><a xlink:href="../../d0/db0/class_wator.html#a0d2a9032e66e17974bc2cb6e5d7ea6e3" target="_top" xlink:title="Wator.init">
<polygon fill="white" stroke="black" points="196,-38.5 196,-57.5 256,-57.5 256,-38.5 196,-38.5"/>
<text text-anchor="middle" x="226" y="-45.5" font-family="Helvetica,sans-Serif" font-size="10.00">Wator.init</text>
</a>
</g>
</g>
<!-- Node1&#45;&gt;Node2 -->
<g id="edge1" class="edge"><title>Node1&#45;&gt;Node2</title>
<path fill="none" stroke="midnightblue" d="M153.622,-39.0778C168.766,-40.9708 183.665,-42.8331 195.901,-44.3626"/>
<polygon fill="midnightblue" stroke="midnightblue" points="154.017,-35.6 143.66,-37.8325 153.149,-42.5459 154.017,-35.6"/>
</g>
<!-- Node3 -->
<g id="node3" class="node"><title>Node3</title>
<g id="a_node3"><a xlink:href="../../da/d1e/class_segregation.html#a180cb64232863c7c746d36c0934e8aea" target="_top" xlink:title="Segregation.init">
<polygon fill="white" stroke="black" points="180,-0.5 180,-19.5 272,-19.5 272,-0.5 180,-0.5"/>
<text text-anchor="middle" x="226" y="-7.5" font-family="Helvetica,sans-Serif" font-size="10.00">Segregation.init</text>
</a>
</g>
</g>
<!-- Node1&#45;&gt;Node3 -->
<g id="edge2" class="edge"><title>Node1&#45;&gt;Node3</title>
<path fill="none" stroke="midnightblue" d="M153.724,-18.9095C162.628,-17.7965 171.445,-16.6943 179.684,-15.6644"/>
<polygon fill="midnightblue" stroke="midnightblue" points="153.149,-15.4541 143.66,-20.1675 154.017,-22.4 153.149,-15.4541"/>
</g>
</g>
</svg>
