<?xml version="1.0" encoding="UTF-8" standalone="no"?>
<!DOCTYPE svg PUBLIC "-//W3C//DTD SVG 1.1//EN"
 "http://www.w3.org/Graphics/SVG/1.1/DTD/svg11.dtd">
<!-- Generated by graphviz version 2.36.0 (20140111.2315)
 -->
<!-- Title: Grid Pages: 1 -->
<svg width="157pt" height="164pt"
 viewBox="0.00 0.00 157.00 164.00" xmlns="http://www.w3.org/2000/svg" xmlns:xlink="http://www.w3.org/1999/xlink">
<g id="graph0" class="graph" transform="scale(1 1) rotate(0) translate(4 160)">
<title>Grid</title>
<polygon fill="white" stroke="none" points="-4,4 -4,-160 153,-160 153,4 -4,4"/>
<!-- Node1 -->
<g id="node1" class="node"><title>Node1</title>
<polygon fill="#bfbfbf" stroke="black" points="35,-0.5 35,-19.5 71,-19.5 71,-0.5 35,-0.5"/>
<text text-anchor="middle" x="53" y="-7.5" font-family="Helvetica,sans-Serif" font-size="10.00">Grid</text>
</g>
<!-- Node2 -->
<g id="node2" class="node"><title>Node2</title>
<polygon fill="white" stroke="#bfbfbf" points="-0.5,-68.5 -0.5,-87.5 58.5,-87.5 58.5,-68.5 -0.5,-68.5"/>
<text text-anchor="middle" x="29" y="-75.5" font-family="Helvetica,sans-Serif" font-size="10.00">GridPane</text>
</g>
<!-- Node2&#45;&gt;Node1 -->
<g id="edge1" class="edge"><title>Node2&#45;&gt;Node1</title>
<path fill="none" stroke="midnightblue" d="M35.6158,-58.8066C40.2275,-46.1244 46.1776,-29.7615 49.785,-19.8411"/>
<polygon fill="midnightblue" stroke="midnightblue" points="32.2658,-57.7776 32.1376,-68.3717 38.8444,-60.1698 32.2658,-57.7776"/>
</g>
<!-- Node3 -->
<g id="node3" class="node"><title>Node3</title>
<g id="a_node3"><a xlink:href="../../dd/d11/class_cell.html" target="_top" xlink:title="Cell">
<polygon fill="white" stroke="black" points="77,-68.5 77,-87.5 111,-87.5 111,-68.5 77,-68.5"/>
<text text-anchor="middle" x="94" y="-75.5" font-family="Helvetica,sans-Serif" font-size="10.00">Cell</text>
</a>
</g>
</g>
<!-- Node3&#45;&gt;Node1 -->
<g id="edge2" class="edge"><title>Node3&#45;&gt;Node1</title>
<path fill="none" stroke="#9a32cd" stroke-dasharray="5,2" d="M83.1679,-59.563C75.2279,-46.7815 64.7781,-29.9599 58.4922,-19.8411"/>
<polygon fill="#9a32cd" stroke="#9a32cd" points="80.39,-61.7241 88.64,-68.3717 86.3361,-58.0303 80.39,-61.7241"/>
<text text-anchor="middle" x="98.5" y="-41.5" font-family="Helvetica,sans-Serif" font-size="10.00"> myCells</text>
</g>
<!-- Node4 -->
<g id="node4" class="node"><title>Node4</title>
<polygon fill="white" stroke="#bfbfbf" points="38,-136.5 38,-155.5 84,-155.5 84,-136.5 38,-136.5"/>
<text text-anchor="middle" x="61" y="-143.5" font-family="Helvetica,sans-Serif" font-size="10.00">Group</text>
</g>
<!-- Node4&#45;&gt;Node3 -->
<g id="edge3" class="edge"><title>Node4&#45;&gt;Node3</title>
<path fill="none" stroke="midnightblue" d="M69.907,-127.186C76.2739,-114.452 84.5696,-97.8607 89.5794,-87.8411"/>
<polygon fill="midnightblue" stroke="midnightblue" points="66.6559,-125.862 65.3142,-136.372 72.9169,-128.993 66.6559,-125.862"/>
</g>
<!-- Node5 -->
<g id="node5" class="node"><title>Node5</title>
<polygon fill="white" stroke="#bfbfbf" points="102.5,-136.5 102.5,-155.5 149.5,-155.5 149.5,-136.5 102.5,-136.5"/>
<text text-anchor="middle" x="126" y="-143.5" font-family="Helvetica,sans-Serif" font-size="10.00">Shape</text>
</g>
<!-- Node5&#45;&gt;Node3 -->
<g id="edge4" class="edge"><title>Node5&#45;&gt;Node3</title>
<path fill="none" stroke="#9a32cd" stroke-dasharray="5,2" d="M117.363,-127.186C111.189,-114.452 103.145,-97.8607 98.2866,-87.8411"/>
<polygon fill="#9a32cd" stroke="#9a32cd" points="114.304,-128.9 121.817,-136.372 120.603,-125.847 114.304,-128.9"/>
<text text-anchor="middle" x="128.5" y="-109.5" font-family="Helvetica,sans-Serif" font-size="10.00"> shape</text>
</g>
</g>
</svg>
