<?xml version="1.0" encoding="UTF-8" standalone="no"?>
<!DOCTYPE svg PUBLIC "-//W3C//DTD SVG 1.1//EN"
 "http://www.w3.org/Graphics/SVG/1.1/DTD/svg11.dtd">
<!-- Generated by graphviz version 2.36.0 (20140111.2315)
 -->
<!-- Title: Grid Pages: 1 -->
<svg width="149pt" height="174pt"
 viewBox="0.00 0.00 149.00 174.00" xmlns="http://www.w3.org/2000/svg" xmlns:xlink="http://www.w3.org/1999/xlink">
<g id="graph0" class="graph" transform="scale(1 1) rotate(0) translate(4 170)">
<title>Grid</title>
<polygon fill="white" stroke="none" points="-4,4 -4,-170 145,-170 145,4 -4,4"/>
<!-- Node1 -->
<g id="node1" class="node"><title>Node1</title>
<polygon fill="#bfbfbf" stroke="black" points="27,-0.5 27,-19.5 63,-19.5 63,-0.5 27,-0.5"/>
<text text-anchor="middle" x="45" y="-7.5" font-family="Helvetica,sans-Serif" font-size="10.00">Grid</text>
</g>
<!-- Node2 -->
<g id="node2" class="node"><title>Node2</title>
<polygon fill="white" stroke="#bfbfbf" points="0,-68.5 0,-87.5 46,-87.5 46,-68.5 0,-68.5"/>
<text text-anchor="middle" x="23" y="-75.5" font-family="Helvetica,sans-Serif" font-size="10.00">Group</text>
</g>
<!-- Node2&#45;&gt;Node1 -->
<g id="edge1" class="edge"><title>Node2&#45;&gt;Node1</title>
<path fill="none" stroke="midnightblue" d="M29.0645,-58.8066C33.2919,-46.1244 38.7462,-29.7615 42.053,-19.8411"/>
<polygon fill="midnightblue" stroke="midnightblue" points="25.7181,-57.778 25.8761,-68.3717 32.3589,-59.9916 25.7181,-57.778"/>
</g>
<!-- Node3 -->
<g id="node3" class="node"><title>Node3</title>
<g id="a_node3"><a xlink:href="../../dd/d11/class_cell.html" target="_top" xlink:title="Cell">
<polygon fill="white" stroke="black" points="64,-68.5 64,-87.5 98,-87.5 98,-68.5 64,-68.5"/>
<text text-anchor="middle" x="81" y="-75.5" font-family="Helvetica,sans-Serif" font-size="10.00">Cell</text>
</a>
</g>
</g>
<!-- Node3&#45;&gt;Node1 -->
<g id="edge2" class="edge"><title>Node3&#45;&gt;Node1</title>
<path fill="none" stroke="#9a32cd" stroke-dasharray="5,2" d="M71.4889,-59.563C64.5172,-46.7815 55.3418,-29.9599 49.8224,-19.8411"/>
<polygon fill="#9a32cd" stroke="#9a32cd" points="68.4324,-61.2687 76.2936,-68.3717 74.5777,-57.9167 68.4324,-61.2687"/>
<text text-anchor="middle" x="86.5" y="-41.5" font-family="Helvetica,sans-Serif" font-size="10.00"> myCells</text>
</g>
<!-- Node4 -->
<g id="node4" class="node"><title>Node4</title>
<polygon fill="white" stroke="#bfbfbf" points="61,-146.5 61,-165.5 101,-165.5 101,-146.5 61,-146.5"/>
<text text-anchor="middle" x="81" y="-153.5" font-family="Helvetica,sans-Serif" font-size="10.00">Paint</text>
</g>
<!-- Node4&#45;&gt;Node3 -->
<g id="edge3" class="edge"><title>Node4&#45;&gt;Node3</title>
<path fill="none" stroke="#9a32cd" stroke-dasharray="5,2" d="M81,-136.224C81,-120.697 81,-99.3582 81,-87.6165"/>
<polygon fill="#9a32cd" stroke="#9a32cd" points="77.5001,-136.282 81,-146.282 84.5001,-136.282 77.5001,-136.282"/>
<text text-anchor="middle" x="111" y="-120" font-family="Helvetica,sans-Serif" font-size="10.00"> nextColor</text>
<text text-anchor="middle" x="111" y="-109" font-family="Helvetica,sans-Serif" font-size="10.00">currentColor</text>
</g>
</g>
</svg>
