<?xml version="1.0" encoding="UTF-8" standalone="no"?>
<!DOCTYPE svg PUBLIC "-//W3C//DTD SVG 1.1//EN"
 "http://www.w3.org/Graphics/SVG/1.1/DTD/svg11.dtd">
<!-- Generated by graphviz version 2.36.0 (20140111.2315)
 -->
<!-- Title: XMLReader Pages: 1 -->
<svg width="332pt" height="154pt"
 viewBox="0.00 0.00 332.00 154.00" xmlns="http://www.w3.org/2000/svg" xmlns:xlink="http://www.w3.org/1999/xlink">
<g id="graph0" class="graph" transform="scale(1 1) rotate(0) translate(4 150)">
<title>XMLReader</title>
<polygon fill="white" stroke="none" points="-4,4 -4,-150 328,-150 328,4 -4,4"/>
<!-- Node1 -->
<g id="node1" class="node"><title>Node1</title>
<polygon fill="#bfbfbf" stroke="black" points="254.5,-66.5 254.5,-85.5 323.5,-85.5 323.5,-66.5 254.5,-66.5"/>
<text text-anchor="middle" x="289" y="-73.5" font-family="Helvetica,sans-Serif" font-size="10.00">XMLReader</text>
</g>
<!-- Node2 -->
<g id="node2" class="node"><title>Node2</title>
<polygon fill="white" stroke="#bfbfbf" points="4.5,-126.5 4.5,-145.5 147.5,-145.5 147.5,-126.5 4.5,-126.5"/>
<text text-anchor="middle" x="76" y="-133.5" font-family="Helvetica,sans-Serif" font-size="10.00">HashMap&lt; String, int[][]&gt;</text>
</g>
<!-- Node2&#45;&gt;Node1 -->
<g id="edge1" class="edge"><title>Node2&#45;&gt;Node1</title>
<path fill="none" stroke="#9a32cd" stroke-dasharray="5,2" d="M153.133,-124.592C179.78,-119.454 209.621,-112.384 236,-103 248.651,-98.4997 262.081,-91.4618 272.123,-85.6998"/>
<polygon fill="#9a32cd" stroke="#9a32cd" points="152.278,-121.191 143.09,-126.468 153.563,-128.072 152.278,-121.191"/>
<text text-anchor="middle" x="203" y="-123" font-family="Helvetica,sans-Serif" font-size="10.00"> nbhoodTypes</text>
</g>
<!-- Node3 -->
<g id="node3" class="node"><title>Node3</title>
<polygon fill="white" stroke="#bfbfbf" points="7,-88.5 7,-107.5 145,-107.5 145,-88.5 7,-88.5"/>
<text text-anchor="middle" x="76" y="-95.5" font-family="Helvetica,sans-Serif" font-size="10.00">HashMap&lt; String, Grid &gt;</text>
</g>
<!-- Node3&#45;&gt;Node1 -->
<g id="edge2" class="edge"><title>Node3&#45;&gt;Node1</title>
<path fill="none" stroke="#9a32cd" stroke-dasharray="5,2" d="M155.198,-89.8467C189.365,-86.2842 227.636,-82.2939 254.284,-79.5154"/>
<polygon fill="#9a32cd" stroke="#9a32cd" points="154.797,-86.3694 145.214,-90.8876 155.523,-93.3316 154.797,-86.3694"/>
<text text-anchor="middle" x="203" y="-91" font-family="Helvetica,sans-Serif" font-size="10.00"> gridTypes</text>
</g>
<!-- Node4 -->
<g id="node4" class="node"><title>Node4</title>
<polygon fill="white" stroke="#bfbfbf" points="4.5,-39 4.5,-69 147.5,-69 147.5,-39 4.5,-39"/>
<text text-anchor="start" x="12.5" y="-57" font-family="Helvetica,sans-Serif" font-size="10.00">HashMap&lt; String, Cellular</text>
<text text-anchor="middle" x="76" y="-46" font-family="Helvetica,sans-Serif" font-size="10.00">Automata &gt;</text>
</g>
<!-- Node4&#45;&gt;Node1 -->
<g id="edge3" class="edge"><title>Node4&#45;&gt;Node1</title>
<path fill="none" stroke="#9a32cd" stroke-dasharray="5,2" d="M157.801,-59.1941C182.907,-61.1869 210.645,-63.7759 236,-67 241.999,-67.7628 248.36,-68.7304 254.5,-69.7467"/>
<polygon fill="#9a32cd" stroke="#9a32cd" points="157.826,-55.6857 147.586,-58.4043 157.287,-62.6649 157.826,-55.6857"/>
<text text-anchor="middle" x="203" y="-70" font-family="Helvetica,sans-Serif" font-size="10.00"> gameTypes</text>
</g>
<!-- Node5 -->
<g id="node5" class="node"><title>Node5</title>
<polygon fill="white" stroke="#bfbfbf" points="0,-0.5 0,-19.5 152,-19.5 152,-0.5 0,-0.5"/>
<text text-anchor="middle" x="76" y="-7.5" font-family="Helvetica,sans-Serif" font-size="10.00">HashMap&lt; String, Integer &gt;</text>
</g>
<!-- Node5&#45;&gt;Node1 -->
<g id="edge4" class="edge"><title>Node5&#45;&gt;Node1</title>
<path fill="none" stroke="#9a32cd" stroke-dasharray="5,2" d="M149.091,-21.554C176.816,-27.2229 208.418,-35.2075 236,-46 249.588,-51.3169 263.866,-59.7906 274.015,-66.3782"/>
<polygon fill="#9a32cd" stroke="#9a32cd" points="149.556,-18.0781 139.066,-19.5693 148.196,-24.9448 149.556,-18.0781"/>
<text text-anchor="middle" x="203" y="-49" font-family="Helvetica,sans-Serif" font-size="10.00"> parameters</text>
</g>
</g>
</svg>
