<?xml version="1.0" encoding="UTF-8" standalone="no"?>
<!DOCTYPE svg PUBLIC "-//W3C//DTD SVG 1.1//EN"
 "http://www.w3.org/Graphics/SVG/1.1/DTD/svg11.dtd">
<!-- Generated by graphviz version 2.36.0 (20140111.2315)
 -->
<!-- Title: XMLReader Pages: 1 -->
<svg width="324pt" height="115pt"
 viewBox="0.00 0.00 324.00 115.00" xmlns="http://www.w3.org/2000/svg" xmlns:xlink="http://www.w3.org/1999/xlink">
<g id="graph0" class="graph" transform="scale(1 1) rotate(0) translate(4 111)">
<title>XMLReader</title>
<polygon fill="white" stroke="none" points="-4,4 -4,-111 320,-111 320,4 -4,4"/>
<!-- Node1 -->
<g id="node1" class="node"><title>Node1</title>
<polygon fill="#bfbfbf" stroke="black" points="246.5,-49.5 246.5,-68.5 315.5,-68.5 315.5,-49.5 246.5,-49.5"/>
<text text-anchor="middle" x="281" y="-56.5" font-family="Helvetica,sans-Serif" font-size="10.00">XMLReader</text>
</g>
<!-- Node2 -->
<g id="node2" class="node"><title>Node2</title>
<polygon fill="white" stroke="#bfbfbf" points="0.5,-87.5 0.5,-106.5 143.5,-106.5 143.5,-87.5 0.5,-87.5"/>
<text text-anchor="middle" x="72" y="-94.5" font-family="Helvetica,sans-Serif" font-size="10.00">HashMap&lt; String, int[][]&gt;</text>
</g>
<!-- Node2&#45;&gt;Node1 -->
<g id="edge1" class="edge"><title>Node2&#45;&gt;Node1</title>
<path fill="none" stroke="#9a32cd" stroke-dasharray="5,2" d="M153.718,-87.1051C177.742,-83.6005 204.042,-79.2087 228,-74 234.978,-72.483 242.396,-70.5447 249.377,-68.5689"/>
<polygon fill="#9a32cd" stroke="#9a32cd" points="152.981,-83.6748 143.576,-88.5526 153.97,-90.6046 152.981,-83.6748"/>
<text text-anchor="middle" x="195" y="-88" font-family="Helvetica,sans-Serif" font-size="10.00"> nbhoodTypes</text>
</g>
<!-- Node3 -->
<g id="node3" class="node"><title>Node3</title>
<polygon fill="white" stroke="#bfbfbf" points="3,-49.5 3,-68.5 141,-68.5 141,-49.5 3,-49.5"/>
<text text-anchor="middle" x="72" y="-56.5" font-family="Helvetica,sans-Serif" font-size="10.00">HashMap&lt; String, Grid &gt;</text>
</g>
<!-- Node3&#45;&gt;Node1 -->
<g id="edge2" class="edge"><title>Node3&#45;&gt;Node1</title>
<path fill="none" stroke="#9a32cd" stroke-dasharray="5,2" d="M151.158,-59C184.106,-59 220.704,-59 246.449,-59"/>
<polygon fill="#9a32cd" stroke="#9a32cd" points="151.066,-55.5001 141.066,-59 151.066,-62.5001 151.066,-55.5001"/>
<text text-anchor="middle" x="195" y="-62" font-family="Helvetica,sans-Serif" font-size="10.00"> gridTypes</text>
</g>
<!-- Node4 -->
<g id="node4" class="node"><title>Node4</title>
<polygon fill="white" stroke="#bfbfbf" points="0.5,-0 0.5,-30 143.5,-30 143.5,-0 0.5,-0"/>
<text text-anchor="start" x="8.5" y="-18" font-family="Helvetica,sans-Serif" font-size="10.00">HashMap&lt; String, Cellular</text>
<text text-anchor="middle" x="72" y="-7" font-family="Helvetica,sans-Serif" font-size="10.00">Automata &gt;</text>
</g>
<!-- Node4&#45;&gt;Node1 -->
<g id="edge3" class="edge"><title>Node4&#45;&gt;Node1</title>
<path fill="none" stroke="#9a32cd" stroke-dasharray="5,2" d="M153.657,-28.5756C177.679,-33.0262 203.993,-38.3055 228,-44 234.765,-45.6047 241.964,-47.5351 248.781,-49.4687"/>
<polygon fill="#9a32cd" stroke="#9a32cd" points="153.982,-25.0771 143.516,-26.7201 152.723,-31.9628 153.982,-25.0771"/>
<text text-anchor="middle" x="195" y="-47" font-family="Helvetica,sans-Serif" font-size="10.00"> gameTypes</text>
</g>
</g>
</svg>
