<?xml version="1.0" encoding="UTF-8" standalone="no"?>
<!DOCTYPE svg PUBLIC "-//W3C//DTD SVG 1.1//EN"
 "http://www.w3.org/Graphics/SVG/1.1/DTD/svg11.dtd">
<!-- Generated by graphviz version 2.36.0 (20140111.2315)
 -->
<!-- Title: Fish Pages: 1 -->
<svg width="122pt" height="232pt"
 viewBox="0.00 0.00 122.00 232.00" xmlns="http://www.w3.org/2000/svg" xmlns:xlink="http://www.w3.org/1999/xlink">
<g id="graph0" class="graph" transform="scale(1 1) rotate(0) translate(4 228)">
<title>Fish</title>
<polygon fill="white" stroke="none" points="-4,4 -4,-228 118,-228 118,4 -4,4"/>
<!-- Node1 -->
<g id="node1" class="node"><title>Node1</title>
<polygon fill="#bfbfbf" stroke="black" points="5.5,-0.5 5.5,-19.5 40.5,-19.5 40.5,-0.5 5.5,-0.5"/>
<text text-anchor="middle" x="23" y="-7.5" font-family="Helvetica,sans-Serif" font-size="10.00">Fish</text>
</g>
<!-- Node2 -->
<g id="node2" class="node"><title>Node2</title>
<g id="a_node2"><a xlink:href="../../dc/d06/class_mover.html" target="_top" xlink:title="Mover">
<polygon fill="white" stroke="black" points="0,-58.5 0,-77.5 46,-77.5 46,-58.5 0,-58.5"/>
<text text-anchor="middle" x="23" y="-65.5" font-family="Helvetica,sans-Serif" font-size="10.00">Mover</text>
</a>
</g>
</g>
<!-- Node2&#45;&gt;Node1 -->
<g id="edge1" class="edge"><title>Node2&#45;&gt;Node1</title>
<path fill="none" stroke="midnightblue" d="M23,-47.953C23,-38.2875 23,-27.0312 23,-19.5052"/>
<polygon fill="midnightblue" stroke="midnightblue" points="19.5001,-48.25 23,-58.25 26.5001,-48.25 19.5001,-48.25"/>
</g>
<!-- Node3 -->
<g id="node3" class="node"><title>Node3</title>
<g id="a_node3"><a xlink:href="../../dd/d11/class_cell.html" target="_top" xlink:title="Cell">
<polygon fill="white" stroke="black" points="57,-126.5 57,-145.5 91,-145.5 91,-126.5 57,-126.5"/>
<text text-anchor="middle" x="74" y="-133.5" font-family="Helvetica,sans-Serif" font-size="10.00">Cell</text>
</a>
</g>
</g>
<!-- Node3&#45;&gt;Node2 -->
<g id="edge2" class="edge"><title>Node3&#45;&gt;Node2</title>
<path fill="none" stroke="#9a32cd" stroke-dasharray="5,2" d="M61.1033,-118.31C51.1611,-105.444 37.8042,-88.1583 29.8318,-77.8411"/>
<polygon fill="#9a32cd" stroke="#9a32cd" points="58.4486,-120.599 67.3326,-126.372 63.9876,-116.319 58.4486,-120.599"/>
<text text-anchor="middle" x="71" y="-99.5" font-family="Helvetica,sans-Serif" font-size="10.00"> myCell</text>
</g>
<!-- Node4 -->
<g id="node4" class="node"><title>Node4</title>
<polygon fill="white" stroke="#bfbfbf" points="3,-204.5 3,-223.5 43,-223.5 43,-204.5 3,-204.5"/>
<text text-anchor="middle" x="23" y="-211.5" font-family="Helvetica,sans-Serif" font-size="10.00">Paint</text>
</g>
<!-- Node4&#45;&gt;Node2 -->
<g id="edge4" class="edge"><title>Node4&#45;&gt;Node2</title>
<path fill="none" stroke="#9a32cd" stroke-dasharray="5,2" d="M15.3934,-194.883C8.9501,-177.352 1.3028,-149.986 5,-126 7.71924,-108.359 14.91,-88.6924 19.3361,-77.6855"/>
<polygon fill="#9a32cd" stroke="#9a32cd" points="12.222,-196.382 19.1374,-204.409 18.7369,-193.822 12.222,-196.382"/>
<text text-anchor="middle" x="26.5" y="-133.5" font-family="Helvetica,sans-Serif" font-size="10.00"> myColor</text>
</g>
<!-- Node4&#45;&gt;Node3 -->
<g id="edge3" class="edge"><title>Node4&#45;&gt;Node3</title>
<path fill="none" stroke="#9a32cd" stroke-dasharray="5,2" d="M34.6996,-195.565C45.1792,-179.949 60.1091,-157.7 68.2179,-145.616"/>
<polygon fill="#9a32cd" stroke="#9a32cd" points="31.5163,-194.028 28.8503,-204.282 37.3289,-197.928 31.5163,-194.028"/>
<text text-anchor="middle" x="84" y="-178" font-family="Helvetica,sans-Serif" font-size="10.00"> nextColor</text>
<text text-anchor="middle" x="84" y="-167" font-family="Helvetica,sans-Serif" font-size="10.00">currentColor</text>
</g>
</g>
</svg>
