<?xml version="1.0" encoding="UTF-8" standalone="no"?>
<!DOCTYPE svg PUBLIC "-//W3C//DTD SVG 1.1//EN"
 "http://www.w3.org/Graphics/SVG/1.1/DTD/svg11.dtd">
<!-- Generated by graphviz version 2.36.0 (20140111.2315)
 -->
<!-- Title: CellSocietyView.makePauseButton Pages: 1 -->
<svg width="1122pt" height="53pt"
 viewBox="0.00 0.00 1122.00 53.00" xmlns="http://www.w3.org/2000/svg" xmlns:xlink="http://www.w3.org/1999/xlink">
<g id="graph0" class="graph" transform="scale(1 1) rotate(0) translate(4 49)">
<title>CellSocietyView.makePauseButton</title>
<polygon fill="white" stroke="none" points="-4,4 -4,-49 1118,-49 1118,4 -4,4"/>
<!-- Node1 -->
<g id="node1" class="node"><title>Node1</title>
<polygon fill="#bfbfbf" stroke="black" points="0.5,-1 0.5,-31 149.5,-31 149.5,-1 0.5,-1"/>
<text text-anchor="start" x="8.5" y="-19" font-family="Helvetica,sans-Serif" font-size="10.00">CellSocietyView.makePause</text>
<text text-anchor="middle" x="75" y="-8" font-family="Helvetica,sans-Serif" font-size="10.00">Button</text>
</g>
<!-- Node2 -->
<g id="node2" class="node"><title>Node2</title>
<g id="a_node2"><a xlink:href="../../df/df8/class_cell_society_view.html#a7bdbd4e8fd3893e672eb22015603f6dc" target="_top" xlink:title="CellSocietyView.makeButtons">
<polygon fill="white" stroke="black" points="186,-6.5 186,-25.5 344,-25.5 344,-6.5 186,-6.5"/>
<text text-anchor="middle" x="265" y="-13.5" font-family="Helvetica,sans-Serif" font-size="10.00">CellSocietyView.makeButtons</text>
</a>
</g>
</g>
<!-- Node1&#45;&gt;Node2 -->
<g id="edge1" class="edge"><title>Node1&#45;&gt;Node2</title>
<path fill="none" stroke="midnightblue" d="M159.833,-16C168.472,-16 177.227,-16 185.801,-16"/>
<polygon fill="midnightblue" stroke="midnightblue" points="159.763,-12.5001 149.763,-16 159.763,-19.5001 159.763,-12.5001"/>
</g>
<!-- Node3 -->
<g id="node3" class="node"><title>Node3</title>
<g id="a_node3"><a xlink:href="../../df/df8/class_cell_society_view.html#a6a72ed4ee014a9c3f0368ab26be873d6" target="_top" xlink:title="CellSocietyView.makeCAGame">
<polygon fill="white" stroke="black" points="380.5,-25.5 380.5,-44.5 543.5,-44.5 543.5,-25.5 380.5,-25.5"/>
<text text-anchor="middle" x="462" y="-32.5" font-family="Helvetica,sans-Serif" font-size="10.00">CellSocietyView.makeCAGame</text>
</a>
</g>
</g>
<!-- Node2&#45;&gt;Node3 -->
<g id="edge2" class="edge"><title>Node2&#45;&gt;Node3</title>
<path fill="none" stroke="midnightblue" d="M354.281,-24.6018C362.929,-25.4444 371.675,-26.2966 380.243,-27.1314"/>
<polygon fill="midnightblue" stroke="midnightblue" points="354.483,-21.1049 344.19,-23.6185 353.804,-28.0719 354.483,-21.1049"/>
</g>
<!-- Node4 -->
<g id="node4" class="node"><title>Node4</title>
<g id="a_node4"><a xlink:href="../../df/df8/class_cell_society_view.html#a2c047a3972078bb0a5490ed225ef2dfa" target="_top" xlink:title="CellSocietyView.loadNewFile">
<polygon fill="white" stroke="black" points="580.5,-25.5 580.5,-44.5 729.5,-44.5 729.5,-25.5 580.5,-25.5"/>
<text text-anchor="middle" x="655" y="-32.5" font-family="Helvetica,sans-Serif" font-size="10.00">CellSocietyView.loadNewFile</text>
</a>
</g>
</g>
<!-- Node3&#45;&gt;Node4 -->
<g id="edge3" class="edge"><title>Node3&#45;&gt;Node4</title>
<path fill="none" stroke="midnightblue" d="M554.006,-35C562.8,-35 571.645,-35 580.241,-35"/>
<polygon fill="midnightblue" stroke="midnightblue" points="553.724,-31.5001 543.724,-35 553.724,-38.5001 553.724,-31.5001"/>
</g>
<!-- Node5 -->
<g id="node5" class="node"><title>Node5</title>
<g id="a_node5"><a xlink:href="../../df/df8/class_cell_society_view.html#a656cfed0ba32bc41bbd0c4087860db4b" target="_top" xlink:title="CellSocietyView.makeLoad\lButton">
<polygon fill="white" stroke="black" points="766.5,-1 766.5,-31 909.5,-31 909.5,-1 766.5,-1"/>
<text text-anchor="start" x="774.5" y="-19" font-family="Helvetica,sans-Serif" font-size="10.00">CellSocietyView.makeLoad</text>
<text text-anchor="middle" x="838" y="-8" font-family="Helvetica,sans-Serif" font-size="10.00">Button</text>
</a>
</g>
</g>
<!-- Node4&#45;&gt;Node5 -->
<g id="edge4" class="edge"><title>Node4&#45;&gt;Node5</title>
<path fill="none" stroke="midnightblue" d="M739.651,-26.219C748.585,-25.2811 757.61,-24.3338 766.373,-23.4139"/>
<polygon fill="midnightblue" stroke="midnightblue" points="739.2,-22.747 729.62,-27.272 739.93,-29.7088 739.2,-22.747"/>
</g>
<!-- Node5&#45;&gt;Node2 -->
<g id="edge6" class="edge"><title>Node5&#45;&gt;Node2</title>
<path fill="none" stroke="midnightblue" d="M756.138,-16C646.597,-16 452.346,-16 344.198,-16"/>
<polygon fill="midnightblue" stroke="midnightblue" points="756.469,-19.5001 766.469,-16 756.469,-12.5001 756.469,-19.5001"/>
</g>
<!-- Node6 -->
<g id="node6" class="node"><title>Node6</title>
<g id="a_node6"><a xlink:href="../../df/df8/class_cell_society_view.html#a53ab66afdeb23b3fc89e54a44be7ced5" target="_top" xlink:title="CellSocietyView.CellSocietyView">
<polygon fill="white" stroke="black" points="946.5,-6.5 946.5,-25.5 1113.5,-25.5 1113.5,-6.5 946.5,-6.5"/>
<text text-anchor="middle" x="1030" y="-13.5" font-family="Helvetica,sans-Serif" font-size="10.00">CellSocietyView.CellSocietyView</text>
</a>
</g>
</g>
<!-- Node5&#45;&gt;Node6 -->
<g id="edge5" class="edge"><title>Node5&#45;&gt;Node6</title>
<path fill="none" stroke="midnightblue" d="M919.92,-16C928.663,-16 937.569,-16 946.332,-16"/>
<polygon fill="midnightblue" stroke="midnightblue" points="919.749,-12.5001 909.749,-16 919.749,-19.5001 919.749,-12.5001"/>
</g>
</g>
</svg>
