<?xml version="1.0" encoding="UTF-8" standalone="no"?>
<!DOCTYPE svg PUBLIC "-//W3C//DTD SVG 1.1//EN"
 "http://www.w3.org/Graphics/SVG/1.1/DTD/svg11.dtd">
<!-- Generated by graphviz version 2.36.0 (20140111.2315)
 -->
<!-- Title: CellSocietyView.makeCAGame Pages: 1 -->
<svg width="914pt" height="74pt"
 viewBox="0.00 0.00 914.00 74.00" xmlns="http://www.w3.org/2000/svg" xmlns:xlink="http://www.w3.org/1999/xlink">
<g id="graph0" class="graph" transform="scale(1 1) rotate(0) translate(4 70)">
<title>CellSocietyView.makeCAGame</title>
<polygon fill="white" stroke="none" points="-4,4 -4,-70 910,-70 910,4 -4,4"/>
<!-- Node1 -->
<g id="node1" class="node"><title>Node1</title>
<polygon fill="#bfbfbf" stroke="black" points="0.5,-17.5 0.5,-36.5 163.5,-36.5 163.5,-17.5 0.5,-17.5"/>
<text text-anchor="middle" x="82" y="-24.5" font-family="Helvetica,sans-Serif" font-size="10.00">CellSocietyView.makeCAGame</text>
</g>
<!-- Node2 -->
<g id="node2" class="node"><title>Node2</title>
<g id="a_node2"><a xlink:href="../../df/df8/class_cell_society_view.html#a2ee793e471cc5731ce39c1450f058dd5" target="_top" xlink:title="CellSocietyView.parseFile">
<polygon fill="white" stroke="black" points="200.5,-38.5 200.5,-57.5 335.5,-57.5 335.5,-38.5 200.5,-38.5"/>
<text text-anchor="middle" x="268" y="-45.5" font-family="Helvetica,sans-Serif" font-size="10.00">CellSocietyView.parseFile</text>
</a>
</g>
</g>
<!-- Node1&#45;&gt;Node2 -->
<g id="edge1" class="edge"><title>Node1&#45;&gt;Node2</title>
<path fill="none" stroke="midnightblue" d="M173.807,-37.3639C182.777,-38.3876 191.762,-39.413 200.42,-40.4012"/>
<polygon fill="midnightblue" stroke="midnightblue" points="174.037,-33.8675 163.705,-36.2109 173.244,-40.8224 174.037,-33.8675"/>
</g>
<!-- Node3 -->
<g id="node3" class="node"><title>Node3</title>
<g id="a_node3"><a xlink:href="../../df/df8/class_cell_society_view.html#a2c047a3972078bb0a5490ed225ef2dfa" target="_top" xlink:title="CellSocietyView.loadNewFile">
<polygon fill="white" stroke="black" points="372.5,-39.5 372.5,-58.5 521.5,-58.5 521.5,-39.5 372.5,-39.5"/>
<text text-anchor="middle" x="447" y="-46.5" font-family="Helvetica,sans-Serif" font-size="10.00">CellSocietyView.loadNewFile</text>
</a>
</g>
</g>
<!-- Node2&#45;&gt;Node3 -->
<g id="edge2" class="edge"><title>Node2&#45;&gt;Node3</title>
<path fill="none" stroke="midnightblue" d="M345.865,-48.4343C354.633,-48.4838 363.557,-48.5342 372.283,-48.5835"/>
<polygon fill="midnightblue" stroke="midnightblue" points="345.684,-44.9333 335.664,-48.3766 345.644,-51.9332 345.684,-44.9333"/>
</g>
<!-- Node4 -->
<g id="node4" class="node"><title>Node4</title>
<g id="a_node4"><a xlink:href="../../df/df8/class_cell_society_view.html#a656cfed0ba32bc41bbd0c4087860db4b" target="_top" xlink:title="CellSocietyView.makeLoad\lButton">
<polygon fill="white" stroke="black" points="558.5,-36 558.5,-66 701.5,-66 701.5,-36 558.5,-36"/>
<text text-anchor="start" x="566.5" y="-54" font-family="Helvetica,sans-Serif" font-size="10.00">CellSocietyView.makeLoad</text>
<text text-anchor="middle" x="630" y="-43" font-family="Helvetica,sans-Serif" font-size="10.00">Button</text>
</a>
</g>
</g>
<!-- Node3&#45;&gt;Node4 -->
<g id="edge3" class="edge"><title>Node3&#45;&gt;Node4</title>
<path fill="none" stroke="midnightblue" d="M531.651,-49.9243C540.585,-50.023 549.61,-50.1228 558.373,-50.2196"/>
<polygon fill="midnightblue" stroke="midnightblue" points="531.658,-46.4243 521.62,-49.8135 531.58,-53.4239 531.658,-46.4243"/>
</g>
<!-- Node5 -->
<g id="node5" class="node"><title>Node5</title>
<g id="a_node5"><a xlink:href="../../df/df8/class_cell_society_view.html#a53ab66afdeb23b3fc89e54a44be7ced5" target="_top" xlink:title="CellSocietyView.CellSocietyView">
<polygon fill="white" stroke="black" points="738.5,-41.5 738.5,-60.5 905.5,-60.5 905.5,-41.5 738.5,-41.5"/>
<text text-anchor="middle" x="822" y="-48.5" font-family="Helvetica,sans-Serif" font-size="10.00">CellSocietyView.CellSocietyView</text>
</a>
</g>
</g>
<!-- Node4&#45;&gt;Node5 -->
<g id="edge4" class="edge"><title>Node4&#45;&gt;Node5</title>
<path fill="none" stroke="midnightblue" d="M711.92,-51C720.663,-51 729.569,-51 738.332,-51"/>
<polygon fill="midnightblue" stroke="midnightblue" points="711.749,-47.5001 701.749,-51 711.749,-54.5001 711.749,-47.5001"/>
</g>
<!-- Node6 -->
<g id="node6" class="node"><title>Node6</title>
<g id="a_node6"><a xlink:href="../../df/df8/class_cell_society_view.html#a7bdbd4e8fd3893e672eb22015603f6dc" target="_top" xlink:title="CellSocietyView.makeButtons">
<polygon fill="white" stroke="black" points="743,-0.5 743,-19.5 901,-19.5 901,-0.5 743,-0.5"/>
<text text-anchor="middle" x="822" y="-7.5" font-family="Helvetica,sans-Serif" font-size="10.00">CellSocietyView.makeButtons</text>
</a>
</g>
</g>
<!-- Node4&#45;&gt;Node6 -->
<g id="edge5" class="edge"><title>Node4&#45;&gt;Node6</title>
<path fill="none" stroke="midnightblue" d="M710.613,-33.8204C733.224,-28.941 757.031,-23.8039 776.723,-19.5545"/>
<polygon fill="midnightblue" stroke="midnightblue" points="709.707,-30.4353 700.67,-35.9659 711.183,-37.2778 709.707,-30.4353"/>
</g>
<!-- Node6&#45;&gt;Node1 -->
<g id="edge6" class="edge"><title>Node6&#45;&gt;Node1</title>
<path fill="none" stroke="midnightblue" d="M732.591,-12.0365C588.015,-15.3669 303.169,-21.9284 163.737,-25.1402"/>
<polygon fill="midnightblue" stroke="midnightblue" points="732.838,-15.5319 742.755,-11.8024 732.677,-8.53371 732.838,-15.5319"/>
</g>
</g>
</svg>
