<?xml version="1.0" encoding="UTF-8" standalone="no"?>
<!DOCTYPE svg PUBLIC "-//W3C//DTD SVG 1.1//EN"
 "http://www.w3.org/Graphics/SVG/1.1/DTD/svg11.dtd">
<!-- Generated by graphviz version 2.36.0 (20140111.2315)
 -->
<!-- Title: CellSocietyView.makeTimeline Pages: 1 -->
<svg width="950pt" height="142pt"
 viewBox="0.00 0.00 950.00 142.00" xmlns="http://www.w3.org/2000/svg" xmlns:xlink="http://www.w3.org/1999/xlink">
<g id="graph0" class="graph" transform="scale(1 1) rotate(0) translate(4 138)">
<title>CellSocietyView.makeTimeline</title>
<polygon fill="white" stroke="none" points="-4,4 -4,-138 946,-138 946,4 -4,4"/>
<!-- Node1 -->
<g id="node1" class="node"><title>Node1</title>
<polygon fill="#bfbfbf" stroke="black" points="0,-57.5 0,-76.5 160,-76.5 160,-57.5 0,-57.5"/>
<text text-anchor="middle" x="80" y="-64.5" font-family="Helvetica,sans-Serif" font-size="10.00">CellSocietyView.makeTimeline</text>
</g>
<!-- Node2 -->
<g id="node2" class="node"><title>Node2</title>
<g id="a_node2"><a xlink:href="../../df/df8/class_cell_society_view.html#ad52b914fa03b45d8bc9d64fc407660f3" target="_top" xlink:title="CellSocietyView.updateView">
<polygon fill="white" stroke="black" points="196.5,-57.5 196.5,-76.5 345.5,-76.5 345.5,-57.5 196.5,-57.5"/>
<text text-anchor="middle" x="271" y="-64.5" font-family="Helvetica,sans-Serif" font-size="10.00">CellSocietyView.updateView</text>
</a>
</g>
</g>
<!-- Node1&#45;&gt;Node2 -->
<g id="edge1" class="edge"><title>Node1&#45;&gt;Node2</title>
<path fill="none" stroke="midnightblue" d="M160.058,-67C168.71,-67 177.539,-67 186.245,-67"/>
<polygon fill="midnightblue" stroke="midnightblue" points="186.391,-70.5001 196.391,-67 186.391,-63.5001 186.391,-70.5001"/>
</g>
<!-- Node3 -->
<g id="node3" class="node"><title>Node3</title>
<g id="a_node3"><a xlink:href="../../d2/d40/class_cellular_automata.html#a8f4c8a2f32137db67dd31f5afb4b62c3" target="_top" xlink:title="CellularAutomata.updateNextGen">
<polygon fill="white" stroke="black" points="382.5,-76.5 382.5,-95.5 561.5,-95.5 561.5,-76.5 382.5,-76.5"/>
<text text-anchor="middle" x="472" y="-83.5" font-family="Helvetica,sans-Serif" font-size="10.00">CellularAutomata.updateNextGen</text>
</a>
</g>
</g>
<!-- Node2&#45;&gt;Node3 -->
<g id="edge2" class="edge"><title>Node2&#45;&gt;Node3</title>
<path fill="none" stroke="midnightblue" d="M345.535,-74.0209C354.223,-74.8504 363.195,-75.707 372.159,-76.563"/>
<polygon fill="midnightblue" stroke="midnightblue" points="371.975,-80.0612 382.262,-77.5276 372.64,-73.0929 371.975,-80.0612"/>
</g>
<!-- Node7 -->
<g id="node7" class="node"><title>Node7</title>
<g id="a_node7"><a xlink:href="../../dd/d97/class_grid_drawer.html#a8853ef53b515fd60ca524f05a3dbf897" target="_top" xlink:title="GridDrawer.updateNextGen">
<polygon fill="white" stroke="black" points="398,-38.5 398,-57.5 546,-57.5 546,-38.5 398,-38.5"/>
<text text-anchor="middle" x="472" y="-45.5" font-family="Helvetica,sans-Serif" font-size="10.00">GridDrawer.updateNextGen</text>
</a>
</g>
</g>
<!-- Node2&#45;&gt;Node7 -->
<g id="edge6" class="edge"><title>Node2&#45;&gt;Node7</title>
<path fill="none" stroke="midnightblue" d="M345.535,-59.9791C359.255,-58.6691 373.684,-57.2915 387.674,-55.9557"/>
<polygon fill="midnightblue" stroke="midnightblue" points="388.145,-59.4268 397.767,-54.9921 387.48,-52.4584 388.145,-59.4268"/>
</g>
<!-- Node4 -->
<g id="node4" class="node"><title>Node4</title>
<g id="a_node4"><a xlink:href="../../d2/d40/class_cellular_automata.html#adad8aede6a18cf243c40492a96316a4b" target="_top" xlink:title="CellularAutomata.checkRules">
<polygon fill="white" stroke="black" points="605.5,-114.5 605.5,-133.5 760.5,-133.5 760.5,-114.5 605.5,-114.5"/>
<text text-anchor="middle" x="683" y="-121.5" font-family="Helvetica,sans-Serif" font-size="10.00">CellularAutomata.checkRules</text>
</a>
</g>
</g>
<!-- Node3&#45;&gt;Node4 -->
<g id="edge3" class="edge"><title>Node3&#45;&gt;Node4</title>
<path fill="none" stroke="midnightblue" d="M525.47,-95.54C554.041,-100.735 589.58,-107.196 619.569,-112.649"/>
<polygon fill="midnightblue" stroke="midnightblue" points="619.044,-116.111 629.509,-114.456 620.296,-109.224 619.044,-116.111"/>
</g>
<!-- Node5 -->
<g id="node5" class="node"><title>Node5</title>
<g id="a_node5"><a xlink:href="../../d2/d40/class_cellular_automata.html#ab39b5164764f20382801aa9a4663eb4b" target="_top" xlink:title="CellularAutomata.handleUpdate">
<polygon fill="white" stroke="black" points="598,-76.5 598,-95.5 768,-95.5 768,-76.5 598,-76.5"/>
<text text-anchor="middle" x="683" y="-83.5" font-family="Helvetica,sans-Serif" font-size="10.00">CellularAutomata.handleUpdate</text>
</a>
</g>
</g>
<!-- Node3&#45;&gt;Node5 -->
<g id="edge4" class="edge"><title>Node3&#45;&gt;Node5</title>
<path fill="none" stroke="midnightblue" d="M561.635,-86C570.271,-86 579.055,-86 587.744,-86"/>
<polygon fill="midnightblue" stroke="midnightblue" points="587.886,-89.5001 597.886,-86 587.886,-82.5001 587.886,-89.5001"/>
</g>
<!-- Node6 -->
<g id="node6" class="node"><title>Node6</title>
<g id="a_node6"><a xlink:href="../../d2/d40/class_cellular_automata.html#a34ceed434c942d34ff03169b92684726" target="_top" xlink:title="CellularAutomata.getGrid">
<polygon fill="white" stroke="black" points="804,-76.5 804,-95.5 942,-95.5 942,-76.5 804,-76.5"/>
<text text-anchor="middle" x="873" y="-83.5" font-family="Helvetica,sans-Serif" font-size="10.00">CellularAutomata.getGrid</text>
</a>
</g>
</g>
<!-- Node5&#45;&gt;Node6 -->
<g id="edge5" class="edge"><title>Node5&#45;&gt;Node6</title>
<path fill="none" stroke="midnightblue" d="M768.102,-86C776.582,-86 785.17,-86 793.587,-86"/>
<polygon fill="midnightblue" stroke="midnightblue" points="793.75,-89.5001 803.75,-86 793.75,-82.5001 793.75,-89.5001"/>
</g>
<!-- Node8 -->
<g id="node8" class="node"><title>Node8</title>
<g id="a_node8"><a xlink:href="../../da/d74/class_grid.html#aba1e1b4dba7072955cad21806ef1c753" target="_top" xlink:title="Grid.getCells">
<polygon fill="white" stroke="black" points="644.5,-38.5 644.5,-57.5 721.5,-57.5 721.5,-38.5 644.5,-38.5"/>
<text text-anchor="middle" x="683" y="-45.5" font-family="Helvetica,sans-Serif" font-size="10.00">Grid.getCells</text>
</a>
</g>
</g>
<!-- Node7&#45;&gt;Node8 -->
<g id="edge7" class="edge"><title>Node7&#45;&gt;Node8</title>
<path fill="none" stroke="midnightblue" d="M546.098,-48C575.403,-48 608.341,-48 634.45,-48"/>
<polygon fill="midnightblue" stroke="midnightblue" points="634.462,-51.5001 644.462,-48 634.462,-44.5001 634.462,-51.5001"/>
</g>
<!-- Node9 -->
<g id="node9" class="node"><title>Node9</title>
<g id="a_node9"><a xlink:href="../../da/d74/class_grid.html#a5f4c70cc0b2718fca839fd8755fcfff4" target="_top" xlink:title="Grid.getGridSize">
<polygon fill="white" stroke="black" points="635.5,-0.5 635.5,-19.5 730.5,-19.5 730.5,-0.5 635.5,-0.5"/>
<text text-anchor="middle" x="683" y="-7.5" font-family="Helvetica,sans-Serif" font-size="10.00">Grid.getGridSize</text>
</a>
</g>
</g>
<!-- Node7&#45;&gt;Node9 -->
<g id="edge8" class="edge"><title>Node7&#45;&gt;Node9</title>
<path fill="none" stroke="midnightblue" d="M525.47,-38.46C555.779,-32.9492 593.929,-26.0128 624.978,-20.3676"/>
<polygon fill="midnightblue" stroke="midnightblue" points="626.001,-23.7391 635.214,-18.5066 624.749,-16.852 626.001,-23.7391"/>
</g>
</g>
</svg>
