<?xml version="1.0" encoding="UTF-8" standalone="no"?>
<!DOCTYPE svg PUBLIC "-//W3C//DTD SVG 1.1//EN"
 "http://www.w3.org/Graphics/SVG/1.1/DTD/svg11.dtd">
<!-- Generated by graphviz version 2.36.0 (20140111.2315)
 -->
<!-- Title: CellSocietyView.CellSocietyView Pages: 1 -->
<!--zoomable 784 -->
<svg id="main" version="1.1" xmlns="http://www.w3.org/2000/svg" xmlns:xlink="http://www.w3.org/1999/xlink" xml:space="preserve" onload="init(evt)">
<style type="text/css"><![CDATA[
.edge:hover path { stroke: red; }
.edge:hover polygon { stroke: red; fill: red; }
]]></style>
<script type="text/javascript"><![CDATA[
var edges = document.getElementsByTagName('g');
if (edges && edges.length) {
  for (var i=0;i<edges.length;i++) {
    if (edges[i].id.substr(0,4)=='edge') {
      edges[i].setAttribute('class','edge');
    }
  }
}
]]></script>
        <defs>
                <circle id="rim" cx="0" cy="0" r="7"/>
                <circle id="rim2" cx="0" cy="0" r="3.5"/>
                <g id="zoomPlus">
                        <use xlink:href="#rim" fill="#404040">
                                <set attributeName="fill" to="#808080" begin="zoomplus.mouseover" end="zoomplus.mouseout"/>
                        </use>
                        <path d="M-4,0h8M0,-4v8" fill="none" stroke="white" stroke-width="1.5" pointer-events="none"/>
                </g>
                <g id="zoomMin">
                        <use xlink:href="#rim" fill="#404040">
                                <set attributeName="fill" to="#808080" begin="zoomminus.mouseover" end="zoomminus.mouseout"/>
                        </use>
                        <path d="M-4,0h8" fill="none" stroke="white" stroke-width="1.5" pointer-events="none"/>
                </g>
                <g id="dirArrow">
                        <path fill="none" stroke="white" stroke-width="1.5" d="M0,-3.0v7 M-2.5,-0.5L0,-3.0L2.5,-0.5"/>
                </g>
               <g id="resetDef">
                       <use xlink:href="#rim2" fill="#404040">
                               <set attributeName="fill" to="#808080" begin="reset.mouseover" end="reset.mouseout"/>
                       </use>
               </g>
        </defs>

<script type="text/javascript">
var viewWidth = 2140;
var viewHeight = 784;
var sectionId = 'dynsection-1';
</script>
<script xlink:href="../../svgpan.js"/>
<svg id="graph" class="graph">
<g id="viewport">
<title>CellSocietyView.CellSocietyView</title>
<polygon fill="white" stroke="none" points="-4,4 -4,-780.208 2136,-780.208 2136,4 -4,4"/>
<!-- Node1 -->
<g id="node1" class="node"><title>Node1</title>
<polygon fill="#bfbfbf" stroke="black" points="0.5,-147.5 0.5,-166.5 167.5,-166.5 167.5,-147.5 0.5,-147.5"/>
<text text-anchor="middle" x="84" y="-154.5" font-family="Helvetica,sans-Serif" font-size="10.00">CellSocietyView.CellSocietyView</text>
</g>
<!-- Node2 -->
<g id="node2" class="node"><title>Node2</title>
<g id="a_node2"><a xlink:href="../../df/df8/class_cell_society_view.html#a656cfed0ba32bc41bbd0c4087860db4b" target="_top" xlink:title="CellSocietyView.makeLoad\lButton">
<polygon fill="white" stroke="black" points="204.5,-187 204.5,-217 347.5,-217 347.5,-187 204.5,-187"/>
<text text-anchor="start" x="212.5" y="-205" font-family="Helvetica,sans-Serif" font-size="10.00">CellSocietyView.makeLoad</text>
<text text-anchor="middle" x="276" y="-194" font-family="Helvetica,sans-Serif" font-size="10.00">Button</text>
</a>
</g>
</g>
<!-- Node1&#45;&gt;Node2 -->
<g id="edge1" class="edge"><title>Node1&#45;&gt;Node2</title>
<path fill="none" stroke="midnightblue" d="M125.294,-166.543C147.51,-171.805 175.781,-178.501 201.758,-184.653"/>
<polygon fill="midnightblue" stroke="midnightblue" points="201.047,-188.082 211.584,-186.98 202.66,-181.27 201.047,-188.082"/>
</g>
<!-- Node35 -->
<g id="node35" class="node"><title>Node35</title>
<g id="a_node35"><a xlink:href="../../df/df8/class_cell_society_view.html#a61f4aa77e19dd7d6071e42bc1535f9f0" target="_top" xlink:title="CellSocietyView.setUp">
<polygon fill="white" stroke="black" points="215,-78.5 215,-97.5 337,-97.5 337,-78.5 215,-78.5"/>
<text text-anchor="middle" x="276" y="-85.5" font-family="Helvetica,sans-Serif" font-size="10.00">CellSocietyView.setUp</text>
</a>
</g>
</g>
<!-- Node1&#45;&gt;Node35 -->
<g id="edge44" class="edge"><title>Node1&#45;&gt;Node35</title>
<path fill="none" stroke="midnightblue" d="M111.419,-147.406C144.741,-135.305 202.168,-114.45 239.353,-100.945"/>
<polygon fill="midnightblue" stroke="midnightblue" points="240.601,-104.216 248.806,-97.5127 238.212,-97.6364 240.601,-104.216"/>
</g>
<!-- Node3 -->
<g id="node3" class="node"><title>Node3</title>
<g id="a_node3"><a xlink:href="../../df/df8/class_cell_society_view.html#ae09ddc20f81e90312e628d712a5c6afc" target="_top" xlink:title="CellSocietyView.makeUIButton">
<polygon fill="white" stroke="black" points="1374,-264.5 1374,-283.5 1536,-283.5 1536,-264.5 1374,-264.5"/>
<text text-anchor="middle" x="1455" y="-271.5" font-family="Helvetica,sans-Serif" font-size="10.00">CellSocietyView.makeUIButton</text>
</a>
</g>
</g>
<!-- Node2&#45;&gt;Node3 -->
<g id="edge2" class="edge"><title>Node2&#45;&gt;Node3</title>
<path fill="none" stroke="midnightblue" d="M347.65,-188.681C424.284,-175.412 550.369,-157 660,-157 660,-157 660,-157 1059,-157 1183.32,-157 1222.74,-130.427 1338,-177 1380.92,-194.343 1419.75,-233.82 1439.76,-256.708"/>
<polygon fill="midnightblue" stroke="midnightblue" points="1437.1,-258.982 1446.26,-264.318 1442.43,-254.439 1437.1,-258.982"/>
</g>
<!-- Node4 -->
<g id="node4" class="node"><title>Node4</title>
<g id="a_node4"><a xlink:href="../../df/df8/class_cell_society_view.html#a2c047a3972078bb0a5490ed225ef2dfa" target="_top" xlink:title="CellSocietyView.loadNewFile">
<polygon fill="white" stroke="black" points="389.5,-334.5 389.5,-353.5 538.5,-353.5 538.5,-334.5 389.5,-334.5"/>
<text text-anchor="middle" x="464" y="-341.5" font-family="Helvetica,sans-Serif" font-size="10.00">CellSocietyView.loadNewFile</text>
</a>
</g>
</g>
<!-- Node2&#45;&gt;Node4 -->
<g id="edge3" class="edge"><title>Node2&#45;&gt;Node4</title>
<path fill="none" stroke="midnightblue" d="M296.905,-217.196C332.327,-244.239 405.967,-300.459 442.095,-328.04"/>
<polygon fill="midnightblue" stroke="midnightblue" points="440.353,-331.114 450.425,-334.4 444.601,-325.55 440.353,-331.114"/>
</g>
<!-- Node5 -->
<g id="node5" class="node"><title>Node5</title>
<g id="a_node5"><a xlink:href="../../df/df8/class_cell_society_view.html#a2ee793e471cc5731ce39c1450f058dd5" target="_top" xlink:title="CellSocietyView.parseFile">
<polygon fill="white" stroke="black" points="593.5,-393.5 593.5,-412.5 728.5,-412.5 728.5,-393.5 593.5,-393.5"/>
<text text-anchor="middle" x="661" y="-400.5" font-family="Helvetica,sans-Serif" font-size="10.00">CellSocietyView.parseFile</text>
</a>
</g>
</g>
<!-- Node4&#45;&gt;Node5 -->
<g id="edge4" class="edge"><title>Node4&#45;&gt;Node5</title>
<path fill="none" stroke="midnightblue" d="M496.764,-353.611C530.008,-363.669 582.337,-379.502 618.753,-390.52"/>
<polygon fill="midnightblue" stroke="midnightblue" points="617.987,-393.945 628.573,-393.491 620.015,-387.245 617.987,-393.945"/>
</g>
<!-- Node6 -->
<g id="node6" class="node"><title>Node6</title>
<g id="a_node6"><a xlink:href="../../df/df8/class_cell_society_view.html#a767ab215ca329ba41b1493702141f841" target="_top" xlink:title="CellSocietyView.makeCAGame">
<polygon fill="white" stroke="black" points="778.5,-515.5 778.5,-534.5 941.5,-534.5 941.5,-515.5 778.5,-515.5"/>
<text text-anchor="middle" x="860" y="-522.5" font-family="Helvetica,sans-Serif" font-size="10.00">CellSocietyView.makeCAGame</text>
</a>
</g>
</g>
<!-- Node5&#45;&gt;Node6 -->
<g id="edge5" class="edge"><title>Node5&#45;&gt;Node6</title>
<path fill="none" stroke="midnightblue" d="M677.458,-412.573C711.695,-433.776 794.117,-484.819 835.072,-510.181"/>
<polygon fill="midnightblue" stroke="midnightblue" points="833.269,-513.182 843.614,-515.471 836.955,-507.231 833.269,-513.182"/>
</g>
<!-- Node7 -->
<g id="node7" class="node"><title>Node7</title>
<g id="a_node7"><a xlink:href="../../da/d74/class_grid.html#acbc0b625c8f9d2f76db2f2a0d5288cd9" target="_top" xlink:title="Grid.init">
<polygon fill="white" stroke="black" points="1031.5,-697.5 1031.5,-716.5 1084.5,-716.5 1084.5,-697.5 1031.5,-697.5"/>
<text text-anchor="middle" x="1058" y="-704.5" font-family="Helvetica,sans-Serif" font-size="10.00">Grid.init</text>
</a>
</g>
</g>
<!-- Node6&#45;&gt;Node7 -->
<g id="edge6" class="edge"><title>Node6&#45;&gt;Node7</title>
<path fill="none" stroke="midnightblue" d="M867.475,-534.525C883.859,-558.132 929.151,-620.369 978,-661 992.955,-673.439 1011.7,-684.511 1027.17,-692.674"/>
<polygon fill="midnightblue" stroke="midnightblue" points="1025.83,-695.918 1036.32,-697.367 1029.02,-689.689 1025.83,-695.918"/>
</g>
<!-- Node9 -->
<g id="node9" class="node"><title>Node9</title>
<g id="a_node9"><a xlink:href="../../d2/d40/class_cellular_automata.html#a347bfd2a64ee2d615902f6922e95fa6f" target="_top" xlink:title="CellularAutomata.init">
<polygon fill="white" stroke="black" points="999.5,-632.5 999.5,-651.5 1116.5,-651.5 1116.5,-632.5 999.5,-632.5"/>
<text text-anchor="middle" x="1058" y="-639.5" font-family="Helvetica,sans-Serif" font-size="10.00">CellularAutomata.init</text>
</a>
</g>
</g>
<!-- Node6&#45;&gt;Node9 -->
<g id="edge8" class="edge"><title>Node6&#45;&gt;Node9</title>
<path fill="none" stroke="midnightblue" d="M877.04,-534.575C911.222,-554.979 991.443,-602.867 1032.24,-627.219"/>
<polygon fill="midnightblue" stroke="midnightblue" points="1030.63,-630.337 1041.01,-632.457 1034.22,-624.326 1030.63,-630.337"/>
</g>
<!-- Node11 -->
<g id="node11" class="node"><title>Node11</title>
<g id="a_node11"><a xlink:href="../../d2/d40/class_cellular_automata.html#a34ceed434c942d34ff03169b92684726" target="_top" xlink:title="CellularAutomata.getGrid">
<polygon fill="white" stroke="black" points="1994,-556.5 1994,-575.5 2132,-575.5 2132,-556.5 1994,-556.5"/>
<text text-anchor="middle" x="2063" y="-563.5" font-family="Helvetica,sans-Serif" font-size="10.00">CellularAutomata.getGrid</text>
</a>
</g>
</g>
<!-- Node6&#45;&gt;Node11 -->
<g id="edge10" class="edge"><title>Node6&#45;&gt;Node11</title>
<path fill="none" stroke="midnightblue" d="M863.413,-534.569C872.248,-567.463 906.134,-676.586 978,-726 1080.77,-796.667 1130.27,-771 1255,-771 1255,-771 1255,-771 1663,-771 1827.48,-771 1992.14,-631.47 2044.73,-582.636"/>
<polygon fill="midnightblue" stroke="midnightblue" points="2047.31,-585.015 2052.19,-575.613 2042.51,-579.918 2047.31,-585.015"/>
</g>
<!-- Node12 -->
<g id="node12" class="node"><title>Node12</title>
<g id="a_node12"><a xlink:href="../../dd/d97/class_grid_drawer.html#ab8aa1cc79c89cfbc7b9d8516a5dee463" target="_top" xlink:title="GridDrawer.makeGrid">
<polygon fill="white" stroke="black" points="998.5,-547.5 998.5,-566.5 1117.5,-566.5 1117.5,-547.5 998.5,-547.5"/>
<text text-anchor="middle" x="1058" y="-554.5" font-family="Helvetica,sans-Serif" font-size="10.00">GridDrawer.makeGrid</text>
</a>
</g>
</g>
<!-- Node6&#45;&gt;Node12 -->
<g id="edge11" class="edge"><title>Node6&#45;&gt;Node12</title>
<path fill="none" stroke="midnightblue" d="M919.276,-534.514C941.098,-538.077 966.083,-542.156 988.728,-545.854"/>
<polygon fill="midnightblue" stroke="midnightblue" points="988.177,-549.31 998.61,-547.467 989.305,-542.401 988.177,-549.31"/>
</g>
<!-- Node21 -->
<g id="node21" class="node"><title>Node21</title>
<g id="a_node21"><a xlink:href="../../df/df8/class_cell_society_view.html#a7bdbd4e8fd3893e672eb22015603f6dc" target="_top" xlink:title="CellSocietyView.makeButtons">
<polygon fill="white" stroke="black" points="979,-289.5 979,-308.5 1137,-308.5 1137,-289.5 979,-289.5"/>
<text text-anchor="middle" x="1058" y="-296.5" font-family="Helvetica,sans-Serif" font-size="10.00">CellSocietyView.makeButtons</text>
</a>
</g>
</g>
<!-- Node6&#45;&gt;Node21 -->
<g id="edge20" class="edge"><title>Node6&#45;&gt;Node21</title>
<path fill="none" stroke="midnightblue" d="M869.422,-515.289C899.641,-480.445 1002.89,-361.398 1041.9,-316.408"/>
<polygon fill="midnightblue" stroke="midnightblue" points="1044.7,-318.523 1048.61,-308.675 1039.41,-313.936 1044.7,-318.523"/>
</g>
<!-- Node31 -->
<g id="node31" class="node"><title>Node31</title>
<g id="a_node31"><a xlink:href="../../dd/d97/class_grid_drawer.html#a8853ef53b515fd60ca524f05a3dbf897" target="_top" xlink:title="GridDrawer.updateNextGen">
<polygon fill="white" stroke="black" points="1588,-440.5 1588,-459.5 1736,-459.5 1736,-440.5 1588,-440.5"/>
<text text-anchor="middle" x="1662" y="-447.5" font-family="Helvetica,sans-Serif" font-size="10.00">GridDrawer.updateNextGen</text>
</a>
</g>
</g>
<!-- Node6&#45;&gt;Node31 -->
<g id="edge41" class="edge"><title>Node6&#45;&gt;Node31</title>
<path fill="none" stroke="midnightblue" d="M878.197,-515.428C900.461,-503.567 940.822,-483.841 978,-475 1189.3,-424.755 1447.61,-433.581 1577.69,-442.692"/>
<polygon fill="midnightblue" stroke="midnightblue" points="1577.74,-446.205 1587.97,-443.431 1578.24,-439.223 1577.74,-446.205"/>
</g>
<!-- Node34 -->
<g id="node34" class="node"><title>Node34</title>
<g id="a_node34"><a xlink:href="../../df/df8/class_cell_society_view.html#adf6a6b0542d00677a9fffbb8e3c03ffe" target="_top" xlink:title="CellSocietyView.makeTimeline">
<polygon fill="white" stroke="black" points="978,-484.5 978,-503.5 1138,-503.5 1138,-484.5 978,-484.5"/>
<text text-anchor="middle" x="1058" y="-491.5" font-family="Helvetica,sans-Serif" font-size="10.00">CellSocietyView.makeTimeline</text>
</a>
</g>
</g>
<!-- Node6&#45;&gt;Node34 -->
<g id="edge42" class="edge"><title>Node6&#45;&gt;Node34</title>
<path fill="none" stroke="midnightblue" d="M921.138,-515.488C941.83,-512.216 965.183,-508.522 986.617,-505.132"/>
<polygon fill="midnightblue" stroke="midnightblue" points="987.307,-508.566 996.638,-503.547 986.214,-501.652 987.307,-508.566"/>
</g>
<!-- Node8 -->
<g id="node8" class="node"><title>Node8</title>
<g id="a_node8"><a xlink:href="../../da/d74/class_grid.html#af432eea602599251a5e456fd24e38661" target="_top" xlink:title="Grid.makeGrid">
<polygon fill="white" stroke="black" points="1213,-723.5 1213,-742.5 1299,-742.5 1299,-723.5 1213,-723.5"/>
<text text-anchor="middle" x="1256" y="-730.5" font-family="Helvetica,sans-Serif" font-size="10.00">Grid.makeGrid</text>
</a>
</g>
</g>
<!-- Node7&#45;&gt;Node8 -->
<g id="edge7" class="edge"><title>Node7&#45;&gt;Node8</title>
<path fill="none" stroke="midnightblue" d="M1084.62,-710.399C1114.53,-714.367 1164.77,-721.03 1202.96,-726.096"/>
<polygon fill="midnightblue" stroke="midnightblue" points="1202.51,-729.568 1212.89,-727.413 1203.43,-722.629 1202.51,-729.568"/>
</g>
<!-- Node10 -->
<g id="node10" class="node"><title>Node10</title>
<g id="a_node10"><a xlink:href="../../d2/d40/class_cellular_automata.html#ac4d0b9bd9416cb4b3567caacc05cd55a" target="_top" xlink:title="CellularAutomata.setUpInitial\lConfig">
<polygon fill="white" stroke="black" points="1178,-674 1178,-704 1334,-704 1334,-674 1178,-674"/>
<text text-anchor="start" x="1186" y="-692" font-family="Helvetica,sans-Serif" font-size="10.00">CellularAutomata.setUpInitial</text>
<text text-anchor="middle" x="1256" y="-681" font-family="Helvetica,sans-Serif" font-size="10.00">Config</text>
</a>
</g>
</g>
<!-- Node9&#45;&gt;Node10 -->
<g id="edge9" class="edge"><title>Node9&#45;&gt;Node10</title>
<path fill="none" stroke="midnightblue" d="M1098.66,-651.511C1122.68,-657.27 1154.04,-664.79 1182.37,-671.583"/>
<polygon fill="midnightblue" stroke="midnightblue" points="1181.7,-675.023 1192.24,-673.951 1183.33,-668.216 1181.7,-675.023"/>
</g>
<!-- Node13 -->
<g id="node13" class="node"><title>Node13</title>
<g id="a_node13"><a xlink:href="../../dd/d97/class_grid_drawer.html#af9a09b2ee81450f13a117261b67718e0" target="_top" xlink:title="GridDrawer.makeUnitGrid">
<polygon fill="white" stroke="black" points="1187,-635.5 1187,-654.5 1325,-654.5 1325,-635.5 1187,-635.5"/>
<text text-anchor="middle" x="1256" y="-642.5" font-family="Helvetica,sans-Serif" font-size="10.00">GridDrawer.makeUnitGrid</text>
</a>
</g>
</g>
<!-- Node12&#45;&gt;Node13 -->
<g id="edge12" class="edge"><title>Node12&#45;&gt;Node13</title>
<path fill="none" stroke="midnightblue" d="M1072.14,-566.517C1092.83,-581.092 1134.71,-608.94 1174,-625 1181.16,-627.929 1188.87,-630.506 1196.57,-632.751"/>
<polygon fill="midnightblue" stroke="midnightblue" points="1195.72,-636.147 1206.29,-635.419 1197.57,-629.397 1195.72,-636.147"/>
</g>
<!-- Node18 -->
<g id="node18" class="node"><title>Node18</title>
<g id="a_node18"><a xlink:href="../../dd/d97/class_grid_drawer.html#a54f548bdc35a2afef9af05a134c149f5" target="_top" xlink:title="GridDrawer.calculateCell\lWidth">
<polygon fill="white" stroke="black" points="1190,-498 1190,-528 1322,-528 1322,-498 1190,-498"/>
<text text-anchor="start" x="1198" y="-516" font-family="Helvetica,sans-Serif" font-size="10.00">GridDrawer.calculateCell</text>
<text text-anchor="middle" x="1256" y="-505" font-family="Helvetica,sans-Serif" font-size="10.00">Width</text>
</a>
</g>
</g>
<!-- Node12&#45;&gt;Node18 -->
<g id="edge17" class="edge"><title>Node12&#45;&gt;Node18</title>
<path fill="none" stroke="midnightblue" d="M1101.53,-547.453C1124.39,-542.32 1153.26,-535.84 1179.77,-529.888"/>
<polygon fill="midnightblue" stroke="midnightblue" points="1180.81,-533.242 1189.8,-527.637 1179.28,-526.412 1180.81,-533.242"/>
</g>
<!-- Node19 -->
<g id="node19" class="node"><title>Node19</title>
<g id="a_node19"><a xlink:href="../../dd/d97/class_grid_drawer.html#a3f6bb5e9307bf84f9f8f4ae467ec85cf" target="_top" xlink:title="GridDrawer.calculateCell\lHeight">
<polygon fill="white" stroke="black" points="1190,-586 1190,-616 1322,-616 1322,-586 1190,-586"/>
<text text-anchor="start" x="1198" y="-604" font-family="Helvetica,sans-Serif" font-size="10.00">GridDrawer.calculateCell</text>
<text text-anchor="middle" x="1256" y="-593" font-family="Helvetica,sans-Serif" font-size="10.00">Height</text>
</a>
</g>
</g>
<!-- Node12&#45;&gt;Node19 -->
<g id="edge18" class="edge"><title>Node12&#45;&gt;Node19</title>
<path fill="none" stroke="midnightblue" d="M1101.53,-566.547C1124.39,-571.68 1153.26,-578.16 1179.77,-584.112"/>
<polygon fill="midnightblue" stroke="midnightblue" points="1179.28,-587.588 1189.8,-586.363 1180.81,-580.758 1179.28,-587.588"/>
</g>
<!-- Node20 -->
<g id="node20" class="node"><title>Node20</title>
<g id="a_node20"><a xlink:href="../../dd/d97/class_grid_drawer.html#a8fba9cca18cee03651775b5785722778" target="_top" xlink:title="GridDrawer.scale">
<polygon fill="white" stroke="black" points="1207.5,-547.5 1207.5,-566.5 1304.5,-566.5 1304.5,-547.5 1207.5,-547.5"/>
<text text-anchor="middle" x="1256" y="-554.5" font-family="Helvetica,sans-Serif" font-size="10.00">GridDrawer.scale</text>
</a>
</g>
</g>
<!-- Node12&#45;&gt;Node20 -->
<g id="edge19" class="edge"><title>Node12&#45;&gt;Node20</title>
<path fill="none" stroke="midnightblue" d="M1117.54,-557C1142.72,-557 1172.08,-557 1197.18,-557"/>
<polygon fill="midnightblue" stroke="midnightblue" points="1197.29,-560.5 1207.29,-557 1197.29,-553.5 1197.29,-560.5"/>
</g>
<!-- Node14 -->
<g id="node14" class="node"><title>Node14</title>
<g id="a_node14"><a xlink:href="../../dd/d97/class_grid_drawer.html#a69ef437bdcbcdb3dca6b206b73a1ab1f" target="_top" xlink:title="GridDrawer.drawUnitCell">
<polygon fill="white" stroke="black" points="1389.5,-635.5 1389.5,-654.5 1520.5,-654.5 1520.5,-635.5 1389.5,-635.5"/>
<text text-anchor="middle" x="1455" y="-642.5" font-family="Helvetica,sans-Serif" font-size="10.00">GridDrawer.drawUnitCell</text>
</a>
</g>
</g>
<!-- Node13&#45;&gt;Node14 -->
<g id="edge13" class="edge"><title>Node13&#45;&gt;Node14</title>
<path fill="none" stroke="midnightblue" d="M1325.07,-645C1342.46,-645 1361.24,-645 1378.96,-645"/>
<polygon fill="midnightblue" stroke="midnightblue" points="1379.24,-648.5 1389.24,-645 1379.24,-641.5 1379.24,-648.5"/>
</g>
<!-- Node15 -->
<g id="node15" class="node"><title>Node15</title>
<g id="a_node15"><a xlink:href="../../dd/d97/class_grid_drawer.html#a53b8613b7621224084096d76e2316452" target="_top" xlink:title="GridDrawer.drawTriangle">
<polygon fill="white" stroke="black" points="1596.5,-673.5 1596.5,-692.5 1727.5,-692.5 1727.5,-673.5 1596.5,-673.5"/>
<text text-anchor="middle" x="1662" y="-680.5" font-family="Helvetica,sans-Serif" font-size="10.00">GridDrawer.drawTriangle</text>
</a>
</g>
</g>
<!-- Node14&#45;&gt;Node15 -->
<g id="edge14" class="edge"><title>Node14&#45;&gt;Node15</title>
<path fill="none" stroke="midnightblue" d="M1507.47,-654.54C1535.37,-659.712 1570.05,-666.14 1599.38,-671.578"/>
<polygon fill="midnightblue" stroke="midnightblue" points="1599.04,-675.075 1609.51,-673.456 1600.32,-668.192 1599.04,-675.075"/>
</g>
<!-- Node16 -->
<g id="node16" class="node"><title>Node16</title>
<g id="a_node16"><a xlink:href="../../dd/d97/class_grid_drawer.html#a08b9d58cde5fafa07e226d4ed2ebc655" target="_top" xlink:title="GridDrawer.drawSquare">
<polygon fill="white" stroke="black" points="1597.5,-635.5 1597.5,-654.5 1726.5,-654.5 1726.5,-635.5 1597.5,-635.5"/>
<text text-anchor="middle" x="1662" y="-642.5" font-family="Helvetica,sans-Serif" font-size="10.00">GridDrawer.drawSquare</text>
</a>
</g>
</g>
<!-- Node14&#45;&gt;Node16 -->
<g id="edge15" class="edge"><title>Node14&#45;&gt;Node16</title>
<path fill="none" stroke="midnightblue" d="M1520.58,-645C1541.76,-645 1565.45,-645 1587.25,-645"/>
<polygon fill="midnightblue" stroke="midnightblue" points="1587.44,-648.5 1597.44,-645 1587.44,-641.5 1587.44,-648.5"/>
</g>
<!-- Node17 -->
<g id="node17" class="node"><title>Node17</title>
<g id="a_node17"><a xlink:href="../../dd/d97/class_grid_drawer.html#a260f7ce1d53af7f88e1c4ee3a4a3de2b" target="_top" xlink:title="GridDrawer.drawHexagon">
<polygon fill="white" stroke="black" points="1593.5,-597.5 1593.5,-616.5 1730.5,-616.5 1730.5,-597.5 1593.5,-597.5"/>
<text text-anchor="middle" x="1662" y="-604.5" font-family="Helvetica,sans-Serif" font-size="10.00">GridDrawer.drawHexagon</text>
</a>
</g>
</g>
<!-- Node14&#45;&gt;Node17 -->
<g id="edge16" class="edge"><title>Node14&#45;&gt;Node17</title>
<path fill="none" stroke="midnightblue" d="M1507.47,-635.46C1535.37,-630.288 1570.05,-623.86 1599.38,-618.422"/>
<polygon fill="midnightblue" stroke="midnightblue" points="1600.32,-621.808 1609.51,-616.544 1599.04,-614.925 1600.32,-621.808"/>
</g>
<!-- Node21&#45;&gt;Node2 -->
<g id="edge40" class="edge"><title>Node21&#45;&gt;Node2</title>
<path fill="none" stroke="midnightblue" d="M980.562,-289.494C832.728,-271.11 508.916,-230.841 357.739,-212.041"/>
<polygon fill="midnightblue" stroke="midnightblue" points="357.951,-208.54 347.595,-210.779 357.087,-215.487 357.951,-208.54"/>
</g>
<!-- Node22 -->
<g id="node22" class="node"><title>Node22</title>
<g id="a_node22"><a xlink:href="../../df/df8/class_cell_society_view.html#a1531c1a5ad4e0630046bfe4e8c3127e8" target="_top" xlink:title="CellSocietyView.makePlay\lButton">
<polygon fill="white" stroke="black" points="1186,-235 1186,-265 1326,-265 1326,-235 1186,-235"/>
<text text-anchor="start" x="1194" y="-253" font-family="Helvetica,sans-Serif" font-size="10.00">CellSocietyView.makePlay</text>
<text text-anchor="middle" x="1256" y="-242" font-family="Helvetica,sans-Serif" font-size="10.00">Button</text>
</a>
</g>
</g>
<!-- Node21&#45;&gt;Node22 -->
<g id="edge21" class="edge"><title>Node21&#45;&gt;Node22</title>
<path fill="none" stroke="midnightblue" d="M1097.26,-289.436C1122.18,-283.205 1155.44,-274.891 1184.99,-267.503"/>
<polygon fill="midnightblue" stroke="midnightblue" points="1186,-270.858 1194.85,-265.037 1184.3,-264.067 1186,-270.858"/>
</g>
<!-- Node23 -->
<g id="node23" class="node"><title>Node23</title>
<g id="a_node23"><a xlink:href="../../df/df8/class_cell_society_view.html#ae177299e365c8c48502004eb87a03cf1" target="_top" xlink:title="CellSocietyView.makePause\lButton">
<polygon fill="white" stroke="black" points="1181.5,-186 1181.5,-216 1330.5,-216 1330.5,-186 1181.5,-186"/>
<text text-anchor="start" x="1189.5" y="-204" font-family="Helvetica,sans-Serif" font-size="10.00">CellSocietyView.makePause</text>
<text text-anchor="middle" x="1256" y="-193" font-family="Helvetica,sans-Serif" font-size="10.00">Button</text>
</a>
</g>
</g>
<!-- Node21&#45;&gt;Node23 -->
<g id="edge23" class="edge"><title>Node21&#45;&gt;Node23</title>
<path fill="none" stroke="midnightblue" d="M1071.8,-289.253C1092.37,-273.97 1134.49,-244.237 1174,-226 1179.01,-223.687 1184.29,-221.515 1189.66,-219.493"/>
<polygon fill="midnightblue" stroke="midnightblue" points="1191.13,-222.683 1199.36,-216.015 1188.77,-216.093 1191.13,-222.683"/>
</g>
<!-- Node24 -->
<g id="node24" class="node"><title>Node24</title>
<g id="a_node24"><a xlink:href="../../df/df8/class_cell_society_view.html#ae4f695e25edd84b67be004d3b1a7a437" target="_top" xlink:title="CellSocietyView.makeFFButton">
<polygon fill="white" stroke="black" points="1174.5,-333.5 1174.5,-352.5 1337.5,-352.5 1337.5,-333.5 1174.5,-333.5"/>
<text text-anchor="middle" x="1256" y="-340.5" font-family="Helvetica,sans-Serif" font-size="10.00">CellSocietyView.makeFFButton</text>
</a>
</g>
</g>
<!-- Node21&#45;&gt;Node24 -->
<g id="edge25" class="edge"><title>Node21&#45;&gt;Node24</title>
<path fill="none" stroke="midnightblue" d="M1101.53,-308.547C1131.19,-315.207 1170.97,-324.136 1202.6,-331.236"/>
<polygon fill="midnightblue" stroke="midnightblue" points="1202.03,-334.696 1212.55,-333.471 1203.56,-327.866 1202.03,-334.696"/>
</g>
<!-- Node25 -->
<g id="node25" class="node"><title>Node25</title>
<g id="a_node25"><a xlink:href="../../df/df8/class_cell_society_view.html#a304edeb753eed8cedb1c8e0ad952a4d8" target="_top" xlink:title="CellSocietyView.makeSlow\lButton">
<polygon fill="white" stroke="black" points="1185,-284 1185,-314 1327,-314 1327,-284 1185,-284"/>
<text text-anchor="start" x="1193" y="-302" font-family="Helvetica,sans-Serif" font-size="10.00">CellSocietyView.makeSlow</text>
<text text-anchor="middle" x="1256" y="-291" font-family="Helvetica,sans-Serif" font-size="10.00">Button</text>
</a>
</g>
</g>
<!-- Node21&#45;&gt;Node25 -->
<g id="edge27" class="edge"><title>Node21&#45;&gt;Node25</title>
<path fill="none" stroke="midnightblue" d="M1137.03,-299C1149.37,-299 1162.16,-299 1174.55,-299"/>
<polygon fill="midnightblue" stroke="midnightblue" points="1174.86,-302.5 1184.86,-299 1174.86,-295.5 1174.86,-302.5"/>
</g>
<!-- Node26 -->
<g id="node26" class="node"><title>Node26</title>
<g id="a_node26"><a xlink:href="../../df/df8/class_cell_society_view.html#aec6e94a6cf275f0b5d64a4b8adccd7d0" target="_top" xlink:title="CellSocietyView.makeStep\lButton">
<polygon fill="white" stroke="black" points="1184.5,-372 1184.5,-402 1327.5,-402 1327.5,-372 1184.5,-372"/>
<text text-anchor="start" x="1192.5" y="-390" font-family="Helvetica,sans-Serif" font-size="10.00">CellSocietyView.makeStep</text>
<text text-anchor="middle" x="1256" y="-379" font-family="Helvetica,sans-Serif" font-size="10.00">Button</text>
</a>
</g>
</g>
<!-- Node21&#45;&gt;Node26 -->
<g id="edge29" class="edge"><title>Node21&#45;&gt;Node26</title>
<path fill="none" stroke="midnightblue" d="M1074.13,-308.584C1095.66,-321.92 1136.68,-346.21 1174,-362 1179.47,-364.315 1185.23,-366.521 1191.05,-368.595"/>
<polygon fill="midnightblue" stroke="midnightblue" points="1190.27,-372.027 1200.86,-371.957 1192.54,-365.405 1190.27,-372.027"/>
</g>
<!-- Node22&#45;&gt;Node3 -->
<g id="edge22" class="edge"><title>Node22&#45;&gt;Node3</title>
<path fill="none" stroke="midnightblue" d="M1326.18,-258.428C1338.99,-259.988 1352.53,-261.638 1365.81,-263.256"/>
<polygon fill="midnightblue" stroke="midnightblue" points="1365.56,-266.751 1375.91,-264.486 1366.4,-259.802 1365.56,-266.751"/>
</g>
<!-- Node23&#45;&gt;Node3 -->
<g id="edge24" class="edge"><title>Node23&#45;&gt;Node3</title>
<path fill="none" stroke="midnightblue" d="M1308.23,-216.02C1318.16,-219.155 1328.45,-222.558 1338,-226 1367.24,-236.538 1399.91,-250.233 1423.1,-260.296"/>
<polygon fill="midnightblue" stroke="midnightblue" points="1421.86,-263.573 1432.43,-264.367 1424.66,-257.158 1421.86,-263.573"/>
</g>
<!-- Node24&#45;&gt;Node3 -->
<g id="edge26" class="edge"><title>Node24&#45;&gt;Node3</title>
<path fill="none" stroke="midnightblue" d="M1301.08,-333.452C1313.16,-330.475 1326.18,-326.929 1338,-323 1368.13,-312.985 1401.42,-298.56 1424.57,-287.954"/>
<polygon fill="midnightblue" stroke="midnightblue" points="1426.23,-291.042 1433.84,-283.666 1423.29,-284.69 1426.23,-291.042"/>
</g>
<!-- Node25&#45;&gt;Node3 -->
<g id="edge28" class="edge"><title>Node25&#45;&gt;Node3</title>
<path fill="none" stroke="midnightblue" d="M1327.01,-290.116C1340.54,-288.399 1354.85,-286.583 1368.8,-284.813"/>
<polygon fill="midnightblue" stroke="midnightblue" points="1369.39,-288.265 1378.87,-283.534 1368.51,-281.321 1369.39,-288.265"/>
</g>
<!-- Node26&#45;&gt;Node3 -->
<g id="edge30" class="edge"><title>Node26&#45;&gt;Node3</title>
<path fill="none" stroke="midnightblue" d="M1314.64,-371.956C1322.67,-369.076 1330.67,-365.763 1338,-362 1376.29,-342.349 1414.95,-309.915 1436.56,-290.392"/>
<polygon fill="midnightblue" stroke="midnightblue" points="1438.97,-292.934 1443.97,-283.595 1434.24,-287.775 1438.97,-292.934"/>
</g>
<!-- Node27 -->
<g id="node27" class="node"><title>Node27</title>
<g id="a_node27"><a xlink:href="../../df/df8/class_cell_society_view.html#ad52b914fa03b45d8bc9d64fc407660f3" target="_top" xlink:title="CellSocietyView.updateView">
<polygon fill="white" stroke="black" points="1380.5,-459.5 1380.5,-478.5 1529.5,-478.5 1529.5,-459.5 1380.5,-459.5"/>
<text text-anchor="middle" x="1455" y="-466.5" font-family="Helvetica,sans-Serif" font-size="10.00">CellSocietyView.updateView</text>
</a>
</g>
</g>
<!-- Node26&#45;&gt;Node27 -->
<g id="edge31" class="edge"><title>Node26&#45;&gt;Node27</title>
<path fill="none" stroke="midnightblue" d="M1293.13,-402.04C1329.89,-417.339 1386.32,-440.83 1421.65,-455.535"/>
<polygon fill="midnightblue" stroke="midnightblue" points="1420.44,-458.824 1431.02,-459.436 1423.13,-452.361 1420.44,-458.824"/>
</g>
<!-- Node28 -->
<g id="node28" class="node"><title>Node28</title>
<g id="a_node28"><a xlink:href="../../d2/d40/class_cellular_automata.html#a8f4c8a2f32137db67dd31f5afb4b62c3" target="_top" xlink:title="CellularAutomata.updateNextGen">
<polygon fill="white" stroke="black" points="1572.5,-518.5 1572.5,-537.5 1751.5,-537.5 1751.5,-518.5 1572.5,-518.5"/>
<text text-anchor="middle" x="1662" y="-525.5" font-family="Helvetica,sans-Serif" font-size="10.00">CellularAutomata.updateNextGen</text>
</a>
</g>
</g>
<!-- Node27&#45;&gt;Node28 -->
<g id="edge32" class="edge"><title>Node27&#45;&gt;Node28</title>
<path fill="none" stroke="midnightblue" d="M1489.39,-478.611C1524.49,-488.712 1579.82,-504.637 1618.13,-515.661"/>
<polygon fill="midnightblue" stroke="midnightblue" points="1617.38,-519.089 1627.96,-518.491 1619.32,-512.362 1617.38,-519.089"/>
</g>
<!-- Node27&#45;&gt;Node31 -->
<g id="edge37" class="edge"><title>Node27&#45;&gt;Node31</title>
<path fill="none" stroke="midnightblue" d="M1529.72,-462.167C1545.26,-460.727 1561.75,-459.198 1577.62,-457.728"/>
<polygon fill="midnightblue" stroke="midnightblue" points="1578.3,-461.18 1587.93,-456.772 1577.65,-454.21 1578.3,-461.18"/>
</g>
<!-- Node29 -->
<g id="node29" class="node"><title>Node29</title>
<g id="a_node29"><a xlink:href="../../d2/d40/class_cellular_automata.html#ab6b9e3ca964f405470ec0acc064d9b3a" target="_top" xlink:title="CellularAutomata.checkRules">
<polygon fill="white" stroke="black" points="1795.5,-556.5 1795.5,-575.5 1950.5,-575.5 1950.5,-556.5 1795.5,-556.5"/>
<text text-anchor="middle" x="1873" y="-563.5" font-family="Helvetica,sans-Serif" font-size="10.00">CellularAutomata.checkRules</text>
</a>
</g>
</g>
<!-- Node28&#45;&gt;Node29 -->
<g id="edge33" class="edge"><title>Node28&#45;&gt;Node29</title>
<path fill="none" stroke="midnightblue" d="M1715.47,-537.54C1744.04,-542.735 1779.58,-549.196 1809.57,-554.649"/>
<polygon fill="midnightblue" stroke="midnightblue" points="1809.04,-558.111 1819.51,-556.456 1810.3,-551.224 1809.04,-558.111"/>
</g>
<!-- Node30 -->
<g id="node30" class="node"><title>Node30</title>
<g id="a_node30"><a xlink:href="../../d2/d40/class_cellular_automata.html#ab39b5164764f20382801aa9a4663eb4b" target="_top" xlink:title="CellularAutomata.handleUpdate">
<polygon fill="white" stroke="black" points="1788,-518.5 1788,-537.5 1958,-537.5 1958,-518.5 1788,-518.5"/>
<text text-anchor="middle" x="1873" y="-525.5" font-family="Helvetica,sans-Serif" font-size="10.00">CellularAutomata.handleUpdate</text>
</a>
</g>
</g>
<!-- Node28&#45;&gt;Node30 -->
<g id="edge35" class="edge"><title>Node28&#45;&gt;Node30</title>
<path fill="none" stroke="midnightblue" d="M1751.63,-528C1760.27,-528 1769.06,-528 1777.74,-528"/>
<polygon fill="midnightblue" stroke="midnightblue" points="1777.89,-531.5 1787.89,-528 1777.89,-524.5 1777.89,-531.5"/>
</g>
<!-- Node29&#45;&gt;Node11 -->
<g id="edge34" class="edge"><title>Node29&#45;&gt;Node11</title>
<path fill="none" stroke="midnightblue" d="M1950.74,-566C1961.59,-566 1972.75,-566 1983.63,-566"/>
<polygon fill="midnightblue" stroke="midnightblue" points="1983.95,-569.5 1993.95,-566 1983.95,-562.5 1983.95,-569.5"/>
</g>
<!-- Node30&#45;&gt;Node11 -->
<g id="edge36" class="edge"><title>Node30&#45;&gt;Node11</title>
<path fill="none" stroke="midnightblue" d="M1921.44,-537.589C1946.81,-542.716 1978.23,-549.067 2004.92,-554.463"/>
<polygon fill="midnightblue" stroke="midnightblue" points="2004.41,-557.929 2014.9,-556.48 2005.79,-551.068 2004.41,-557.929"/>
</g>
<!-- Node32 -->
<g id="node32" class="node"><title>Node32</title>
<g id="a_node32"><a xlink:href="../../da/d74/class_grid.html#a2f2ccb1511e367a7d6e9bcb3f708cd38" target="_top" xlink:title="Grid.getCellAt">
<polygon fill="white" stroke="black" points="1831.5,-459.5 1831.5,-478.5 1914.5,-478.5 1914.5,-459.5 1831.5,-459.5"/>
<text text-anchor="middle" x="1873" y="-466.5" font-family="Helvetica,sans-Serif" font-size="10.00">Grid.getCellAt</text>
</a>
</g>
</g>
<!-- Node31&#45;&gt;Node32 -->
<g id="edge38" class="edge"><title>Node31&#45;&gt;Node32</title>
<path fill="none" stroke="midnightblue" d="M1736.1,-456.645C1764.14,-459.194 1795.5,-462.045 1821.02,-464.366"/>
<polygon fill="midnightblue" stroke="midnightblue" points="1820.94,-467.873 1831.22,-465.293 1821.58,-460.901 1820.94,-467.873"/>
</g>
<!-- Node33 -->
<g id="node33" class="node"><title>Node33</title>
<g id="a_node33"><a xlink:href="../../dd/d11/class_cell.html#aac3ac473652b817fe344534f4bec7e6f" target="_top" xlink:title="Cell.getState">
<polygon fill="white" stroke="black" points="1833.5,-421.5 1833.5,-440.5 1912.5,-440.5 1912.5,-421.5 1833.5,-421.5"/>
<text text-anchor="middle" x="1873" y="-428.5" font-family="Helvetica,sans-Serif" font-size="10.00">Cell.getState</text>
</a>
</g>
</g>
<!-- Node31&#45;&gt;Node33 -->
<g id="edge39" class="edge"><title>Node31&#45;&gt;Node33</title>
<path fill="none" stroke="midnightblue" d="M1736.1,-443.355C1764.86,-440.74 1797.12,-437.807 1822.99,-435.455"/>
<polygon fill="midnightblue" stroke="midnightblue" points="1823.65,-438.91 1833.29,-434.519 1823.02,-431.939 1823.65,-438.91"/>
</g>
<!-- Node34&#45;&gt;Node27 -->
<g id="edge43" class="edge"><title>Node34&#45;&gt;Node27</title>
<path fill="none" stroke="midnightblue" d="M1138.46,-488.971C1205.64,-484.719 1301.6,-478.646 1370.03,-474.315"/>
<polygon fill="midnightblue" stroke="midnightblue" points="1370.58,-477.787 1380.34,-473.662 1370.14,-470.801 1370.58,-477.787"/>
</g>
<!-- Node36 -->
<g id="node36" class="node"><title>Node36</title>
<g id="a_node36"><a xlink:href="../../df/df8/class_cell_society_view.html#a38d9c3d5a91b82c54b1c5aae86b4d33a" target="_top" xlink:title="CellSocietyView.setUpGame\lTypes">
<polygon fill="white" stroke="black" points="388.5,-98 388.5,-128 539.5,-128 539.5,-98 388.5,-98"/>
<text text-anchor="start" x="396.5" y="-116" font-family="Helvetica,sans-Serif" font-size="10.00">CellSocietyView.setUpGame</text>
<text text-anchor="middle" x="464" y="-105" font-family="Helvetica,sans-Serif" font-size="10.00">Types</text>
</a>
</g>
</g>
<!-- Node35&#45;&gt;Node36 -->
<g id="edge45" class="edge"><title>Node35&#45;&gt;Node36</title>
<path fill="none" stroke="midnightblue" d="M337.132,-96.0823C350.285,-97.8501 364.444,-99.7533 378.352,-101.623"/>
<polygon fill="midnightblue" stroke="midnightblue" points="378.04,-105.112 388.417,-102.975 378.973,-98.1745 378.04,-105.112"/>
</g>
<!-- Node39 -->
<g id="node39" class="node"><title>Node39</title>
<g id="a_node39"><a xlink:href="../../df/df8/class_cell_society_view.html#ad5402d2d2d1742a8e770f9cd9d81bca8" target="_top" xlink:title="CellSocietyView.setUpGrid\lTypes">
<polygon fill="white" stroke="black" points="393.5,-49 393.5,-79 534.5,-79 534.5,-49 393.5,-49"/>
<text text-anchor="start" x="401.5" y="-67" font-family="Helvetica,sans-Serif" font-size="10.00">CellSocietyView.setUpGrid</text>
<text text-anchor="middle" x="464" y="-56" font-family="Helvetica,sans-Serif" font-size="10.00">Types</text>
</a>
</g>
</g>
<!-- Node35&#45;&gt;Node39 -->
<g id="edge48" class="edge"><title>Node35&#45;&gt;Node39</title>
<path fill="none" stroke="midnightblue" d="M337.132,-80.241C351.846,-78.3424 367.82,-76.2813 383.293,-74.2848"/>
<polygon fill="midnightblue" stroke="midnightblue" points="383.9,-77.7355 393.37,-72.9845 383.004,-70.7931 383.9,-77.7355"/>
</g>
<!-- Node40 -->
<g id="node40" class="node"><title>Node40</title>
<g id="a_node40"><a xlink:href="../../df/df8/class_cell_society_view.html#a27ae0cdbf36de43361377532b78055bc" target="_top" xlink:title="CellSocietyView.setUpNbhood\lTypes">
<polygon fill="white" stroke="black" points="384.5,-0 384.5,-30 543.5,-30 543.5,-0 384.5,-0"/>
<text text-anchor="start" x="392.5" y="-18" font-family="Helvetica,sans-Serif" font-size="10.00">CellSocietyView.setUpNbhood</text>
<text text-anchor="middle" x="464" y="-7" font-family="Helvetica,sans-Serif" font-size="10.00">Types</text>
</a>
</g>
</g>
<!-- Node35&#45;&gt;Node40 -->
<g id="edge49" class="edge"><title>Node35&#45;&gt;Node40</title>
<path fill="none" stroke="midnightblue" d="M295.999,-78.3552C317.138,-67.8477 352.475,-50.9449 384,-39 389.194,-37.0319 394.626,-35.1097 400.104,-33.2647"/>
<polygon fill="midnightblue" stroke="midnightblue" points="401.56,-36.4711 409.975,-30.0336 399.382,-29.8185 401.56,-36.4711"/>
</g>
<!-- Node37 -->
<g id="node37" class="node"><title>Node37</title>
<g id="a_node37"><a xlink:href="../../df/df8/class_cell_society_view.html#a1b6388535f7c24c4fc076db62c78ac92" target="_top" xlink:title="CellSocietyView.addGameType">
<polygon fill="white" stroke="black" points="580.5,-103.5 580.5,-122.5 741.5,-122.5 741.5,-103.5 580.5,-103.5"/>
<text text-anchor="middle" x="661" y="-110.5" font-family="Helvetica,sans-Serif" font-size="10.00">CellSocietyView.addGameType</text>
</a>
</g>
</g>
<!-- Node36&#45;&gt;Node37 -->
<g id="edge46" class="edge"><title>Node36&#45;&gt;Node37</title>
<path fill="none" stroke="midnightblue" d="M539.556,-113C549.555,-113 559.896,-113 570.123,-113"/>
<polygon fill="midnightblue" stroke="midnightblue" points="570.297,-116.5 580.297,-113 570.297,-109.5 570.297,-116.5"/>
</g>
<!-- Node38 -->
<g id="node38" class="node"><title>Node38</title>
<g id="a_node38"><a xlink:href="../../d2/d40/class_cellular_automata.html#ad8e068dc2395ca5598e5e4164ecfe6b2" target="_top" xlink:title="CellularAutomata.getName">
<polygon fill="white" stroke="black" points="786,-103.5 786,-122.5 934,-122.5 934,-103.5 786,-103.5"/>
<text text-anchor="middle" x="860" y="-110.5" font-family="Helvetica,sans-Serif" font-size="10.00">CellularAutomata.getName</text>
</a>
</g>
</g>
<!-- Node37&#45;&gt;Node38 -->
<g id="edge47" class="edge"><title>Node37&#45;&gt;Node38</title>
<path fill="none" stroke="midnightblue" d="M741.56,-113C752.761,-113 764.301,-113 775.572,-113"/>
<polygon fill="midnightblue" stroke="midnightblue" points="775.829,-116.5 785.829,-113 775.829,-109.5 775.829,-116.5"/>
</g>
</g>
</svg>
        <g id="navigator" transform="translate(0 0)" fill="#404254">
                <rect fill="#f2f5e9" fill-opacity="0.5" stroke="#606060" stroke-width=".5" x="0" y="0" width="60" height="60"/>
                <use id="zoomplus" xlink:href="#zoomPlus" x="17" y="9" onmousedown="handleZoom(evt,'in')"/>
                <use id="zoomminus" xlink:href="#zoomMin" x="42" y="9" onmousedown="handleZoom(evt,'out')"/>
                <use id="reset" xlink:href="#resetDef" x="30" y="36" onmousedown="handleReset()"/>
                <g id="arrowUp" xlink:href="#dirArrow" transform="translate(30 24)" onmousedown="handlePan(0,-1)">
                  <use xlink:href="#rim" fill="#404040">
                        <set attributeName="fill" to="#808080" begin="arrowUp.mouseover" end="arrowUp.mouseout"/>
                  </use>
                  <path fill="none" stroke="white" stroke-width="1.5" d="M0,-3.0v7 M-2.5,-0.5L0,-3.0L2.5,-0.5"/>
                </g>
                <g id="arrowRight" xlink:href="#dirArrow" transform="rotate(90) translate(36 -43)" onmousedown="handlePan(1,0)">
                  <use xlink:href="#rim" fill="#404040">
                        <set attributeName="fill" to="#808080" begin="arrowRight.mouseover" end="arrowRight.mouseout"/>
                  </use>
                  <path fill="none" stroke="white" stroke-width="1.5" d="M0,-3.0v7 M-2.5,-0.5L0,-3.0L2.5,-0.5"/>
                </g>
                <g id="arrowDown" xlink:href="#dirArrow" transform="rotate(180) translate(-30 -48)" onmousedown="handlePan(0,1)">
                  <use xlink:href="#rim" fill="#404040">
                        <set attributeName="fill" to="#808080" begin="arrowDown.mouseover" end="arrowDown.mouseout"/>
                  </use>
                  <path fill="none" stroke="white" stroke-width="1.5" d="M0,-3.0v7 M-2.5,-0.5L0,-3.0L2.5,-0.5"/>
                </g>
                <g id="arrowLeft" xlink:href="#dirArrow" transform="rotate(270) translate(-36 17)" onmousedown="handlePan(-1,0)">
                  <use xlink:href="#rim" fill="#404040">
                        <set attributeName="fill" to="#808080" begin="arrowLeft.mouseover" end="arrowLeft.mouseout"/>
                  </use>
                  <path fill="none" stroke="white" stroke-width="1.5" d="M0,-3.0v7 M-2.5,-0.5L0,-3.0L2.5,-0.5"/>
                </g>
        </g>
        <svg viewBox="0 0 15 15" width="100%" height="30px" preserveAspectRatio="xMaxYMin meet">
         <g id="arrow_out" transform="scale(0.3 0.3)">
          <a xlink:href="class_cell_society_view_a53ab66afdeb23b3fc89e54a44be7ced5_cgraph_org.svg" target="_base">
           <rect id="button" ry="5" rx="5" y="6" x="6" height="38" width="38"
                fill="#f2f5e9" fill-opacity="0.5" stroke="#606060" stroke-width="1.0"/>
           <path id="arrow"
             d="M 11.500037,31.436501 C 11.940474,20.09759 22.043105,11.32322 32.158766,21.979434 L 37.068811,17.246167 C 37.068811,17.246167 37.088388,32 37.088388,32 L 22.160133,31.978069 C 22.160133,31.978069 26.997745,27.140456 26.997745,27.140456 C 18.528582,18.264221 13.291696,25.230495 11.500037,31.436501 z"
             style="fill:#404040;"/>
          </a>
         </g>
        </svg>
</svg>
