<?xml version="1.0" encoding="UTF-8" standalone="no"?>
<!DOCTYPE svg PUBLIC "-//W3C//DTD SVG 1.1//EN"
 "http://www.w3.org/Graphics/SVG/1.1/DTD/svg11.dtd">
<!-- Generated by graphviz version 2.36.0 (20140111.2315)
 -->
<!-- Title: CellSocietyView.parseFile Pages: 1 -->
<!--zoomable 469 -->
<svg id="main" version="1.1" xmlns="http://www.w3.org/2000/svg" xmlns:xlink="http://www.w3.org/1999/xlink" xml:space="preserve" onload="init(evt)">
<style type="text/css"><![CDATA[
.edge:hover path { stroke: red; }
.edge:hover polygon { stroke: red; fill: red; }
]]></style>
<script type="text/javascript"><![CDATA[
var edges = document.getElementsByTagName('g');
if (edges && edges.length) {
  for (var i=0;i<edges.length;i++) {
    if (edges[i].id.substr(0,4)=='edge') {
      edges[i].setAttribute('class','edge');
    }
  }
}
]]></script>
        <defs>
                <circle id="rim" cx="0" cy="0" r="7"/>
                <circle id="rim2" cx="0" cy="0" r="3.5"/>
                <g id="zoomPlus">
                        <use xlink:href="#rim" fill="#404040">
                                <set attributeName="fill" to="#808080" begin="zoomplus.mouseover" end="zoomplus.mouseout"/>
                        </use>
                        <path d="M-4,0h8M0,-4v8" fill="none" stroke="white" stroke-width="1.5" pointer-events="none"/>
                </g>
                <g id="zoomMin">
                        <use xlink:href="#rim" fill="#404040">
                                <set attributeName="fill" to="#808080" begin="zoomminus.mouseover" end="zoomminus.mouseout"/>
                        </use>
                        <path d="M-4,0h8" fill="none" stroke="white" stroke-width="1.5" pointer-events="none"/>
                </g>
                <g id="dirArrow">
                        <path fill="none" stroke="white" stroke-width="1.5" d="M0,-3.0v7 M-2.5,-0.5L0,-3.0L2.5,-0.5"/>
                </g>
               <g id="resetDef">
                       <use xlink:href="#rim2" fill="#404040">
                               <set attributeName="fill" to="#808080" begin="reset.mouseover" end="reset.mouseout"/>
                       </use>
               </g>
        </defs>

<script type="text/javascript">
var viewWidth = 1328;
var viewHeight = 469;
var sectionId = 'dynsection-16';
</script>
<script xlink:href="../../svgpan.js"/>
<svg id="graph" class="graph">
<g id="viewport">
<title>CellSocietyView.parseFile</title>
<polygon fill="white" stroke="none" points="-4,4 -4,-465 1324,-465 1324,4 -4,4"/>
<!-- Node1 -->
<g id="node1" class="node"><title>Node1</title>
<polygon fill="#bfbfbf" stroke="black" points="0.5,-69.5 0.5,-88.5 135.5,-88.5 135.5,-69.5 0.5,-69.5"/>
<text text-anchor="middle" x="68" y="-76.5" font-family="Helvetica,sans-Serif" font-size="10.00">CellSocietyView.parseFile</text>
</g>
<!-- Node2 -->
<g id="node2" class="node"><title>Node2</title>
<g id="a_node2"><a xlink:href="../../df/df8/class_cell_society_view.html#a767ab215ca329ba41b1493702141f841" target="_top" xlink:title="CellSocietyView.makeCAGame">
<polygon fill="white" stroke="black" points="172.5,-161.5 172.5,-180.5 335.5,-180.5 335.5,-161.5 172.5,-161.5"/>
<text text-anchor="middle" x="254" y="-168.5" font-family="Helvetica,sans-Serif" font-size="10.00">CellSocietyView.makeCAGame</text>
</a>
</g>
</g>
<!-- Node1&#45;&gt;Node2 -->
<g id="edge1" class="edge"><title>Node1&#45;&gt;Node2</title>
<path fill="none" stroke="midnightblue" d="M88.3435,-88.6717C121.006,-105.003 187.215,-138.108 224.968,-156.984"/>
<polygon fill="midnightblue" stroke="midnightblue" points="223.406,-160.116 233.916,-161.458 226.537,-153.855 223.406,-160.116"/>
</g>
<!-- Node3 -->
<g id="node3" class="node"><title>Node3</title>
<g id="a_node3"><a xlink:href="../../d2/d40/class_cellular_automata.html#a34ceed434c942d34ff03169b92684726" target="_top" xlink:title="CellularAutomata.getGrid">
<polygon fill="white" stroke="black" points="1182,-104.5 1182,-123.5 1320,-123.5 1320,-104.5 1182,-104.5"/>
<text text-anchor="middle" x="1251" y="-111.5" font-family="Helvetica,sans-Serif" font-size="10.00">CellularAutomata.getGrid</text>
</a>
</g>
</g>
<!-- Node2&#45;&gt;Node3 -->
<g id="edge2" class="edge"><title>Node2&#45;&gt;Node3</title>
<path fill="none" stroke="midnightblue" d="M294.027,-180.541C363.933,-196.767 515.33,-228 645,-228 645,-228 645,-228 851,-228 982.383,-228 1025.1,-260.436 1146,-209 1185.33,-192.265 1219.44,-154.093 1237.12,-131.56"/>
<polygon fill="midnightblue" stroke="midnightblue" points="1239.98,-133.575 1243.26,-123.5 1234.42,-129.33 1239.98,-133.575"/>
</g>
<!-- Node4 -->
<g id="node4" class="node"><title>Node4</title>
<g id="a_node4"><a xlink:href="../../da/d74/class_grid.html#acbc0b625c8f9d2f76db2f2a0d5288cd9" target="_top" xlink:title="Grid.init">
<polygon fill="white" stroke="black" points="425.5,-41.5 425.5,-60.5 478.5,-60.5 478.5,-41.5 425.5,-41.5"/>
<text text-anchor="middle" x="452" y="-48.5" font-family="Helvetica,sans-Serif" font-size="10.00">Grid.init</text>
</a>
</g>
</g>
<!-- Node2&#45;&gt;Node4 -->
<g id="edge3" class="edge"><title>Node2&#45;&gt;Node4</title>
<path fill="none" stroke="midnightblue" d="M269.211,-161.322C291.033,-146.562 334.237,-117.745 372,-95 389.039,-84.737 408.564,-73.8548 423.939,-65.4803"/>
<polygon fill="midnightblue" stroke="midnightblue" points="425.791,-68.4579 432.917,-60.6181 422.457,-62.3026 425.791,-68.4579"/>
</g>
<!-- Node6 -->
<g id="node6" class="node"><title>Node6</title>
<g id="a_node6"><a xlink:href="../../d2/d40/class_cellular_automata.html#a347bfd2a64ee2d615902f6922e95fa6f" target="_top" xlink:title="CellularAutomata.init">
<polygon fill="white" stroke="black" points="393.5,-384.5 393.5,-403.5 510.5,-403.5 510.5,-384.5 393.5,-384.5"/>
<text text-anchor="middle" x="452" y="-391.5" font-family="Helvetica,sans-Serif" font-size="10.00">CellularAutomata.init</text>
</a>
</g>
</g>
<!-- Node2&#45;&gt;Node6 -->
<g id="edge5" class="edge"><title>Node2&#45;&gt;Node6</title>
<path fill="none" stroke="midnightblue" d="M261.556,-180.732C278.486,-205.579 325.599,-272.926 372,-323 390.678,-343.157 414.381,-363.906 430.929,-377.727"/>
<polygon fill="midnightblue" stroke="midnightblue" points="428.927,-380.613 438.866,-384.283 433.385,-375.216 428.927,-380.613"/>
</g>
<!-- Node8 -->
<g id="node8" class="node"><title>Node8</title>
<g id="a_node8"><a xlink:href="../../df/df8/class_cell_society_view.html#a7bdbd4e8fd3893e672eb22015603f6dc" target="_top" xlink:title="CellSocietyView.makeButtons">
<polygon fill="white" stroke="black" points="373,-104.5 373,-123.5 531,-123.5 531,-104.5 373,-104.5"/>
<text text-anchor="middle" x="452" y="-111.5" font-family="Helvetica,sans-Serif" font-size="10.00">CellSocietyView.makeButtons</text>
</a>
</g>
</g>
<!-- Node2&#45;&gt;Node8 -->
<g id="edge7" class="edge"><title>Node2&#45;&gt;Node8</title>
<path fill="none" stroke="midnightblue" d="M282.238,-161.486C305.834,-153.405 340.963,-141.758 372,-133 380.582,-130.578 389.742,-128.194 398.672,-125.977"/>
<polygon fill="midnightblue" stroke="midnightblue" points="399.728,-129.322 408.613,-123.551 398.068,-122.521 399.728,-129.322"/>
</g>
<!-- Node16 -->
<g id="node16" class="node"><title>Node16</title>
<g id="a_node16"><a xlink:href="../../dd/d97/class_grid_drawer.html#a8853ef53b515fd60ca524f05a3dbf897" target="_top" xlink:title="GridDrawer.updateNextGen">
<polygon fill="white" stroke="black" points="776,-161.5 776,-180.5 924,-180.5 924,-161.5 776,-161.5"/>
<text text-anchor="middle" x="850" y="-168.5" font-family="Helvetica,sans-Serif" font-size="10.00">GridDrawer.updateNextGen</text>
</a>
</g>
</g>
<!-- Node2&#45;&gt;Node16 -->
<g id="edge33" class="edge"><title>Node2&#45;&gt;Node16</title>
<path fill="none" stroke="midnightblue" d="M335.728,-171C448.425,-171 651.86,-171 765.844,-171"/>
<polygon fill="midnightblue" stroke="midnightblue" points="765.915,-174.5 775.915,-171 765.915,-167.5 765.915,-174.5"/>
</g>
<!-- Node19 -->
<g id="node19" class="node"><title>Node19</title>
<g id="a_node19"><a xlink:href="../../dd/d97/class_grid_drawer.html#ab8aa1cc79c89cfbc7b9d8516a5dee463" target="_top" xlink:title="GridDrawer.makeGrid">
<polygon fill="white" stroke="black" points="392.5,-294.5 392.5,-313.5 511.5,-313.5 511.5,-294.5 392.5,-294.5"/>
<text text-anchor="middle" x="452" y="-301.5" font-family="Helvetica,sans-Serif" font-size="10.00">GridDrawer.makeGrid</text>
</a>
</g>
</g>
<!-- Node2&#45;&gt;Node19 -->
<g id="edge22" class="edge"><title>Node2&#45;&gt;Node19</title>
<path fill="none" stroke="midnightblue" d="M269.096,-180.565C302.635,-203.324 387.426,-260.86 428.291,-288.591"/>
<polygon fill="midnightblue" stroke="midnightblue" points="426.528,-291.624 436.769,-294.343 430.459,-285.832 426.528,-291.624"/>
</g>
<!-- Node28 -->
<g id="node28" class="node"><title>Node28</title>
<g id="a_node28"><a xlink:href="../../df/df8/class_cell_society_view.html#adf6a6b0542d00677a9fffbb8e3c03ffe" target="_top" xlink:title="CellSocietyView.makeTimeline">
<polygon fill="white" stroke="black" points="372,-142.5 372,-161.5 532,-161.5 532,-142.5 372,-142.5"/>
<text text-anchor="middle" x="452" y="-149.5" font-family="Helvetica,sans-Serif" font-size="10.00">CellSocietyView.makeTimeline</text>
</a>
</g>
</g>
<!-- Node2&#45;&gt;Node28 -->
<g id="edge31" class="edge"><title>Node2&#45;&gt;Node28</title>
<path fill="none" stroke="midnightblue" d="M335.569,-163.19C344.145,-162.358 352.904,-161.509 361.573,-160.669"/>
<polygon fill="midnightblue" stroke="midnightblue" points="362.077,-164.137 371.693,-159.688 361.402,-157.169 362.077,-164.137"/>
</g>
<!-- Node5 -->
<g id="node5" class="node"><title>Node5</title>
<g id="a_node5"><a xlink:href="../../da/d74/class_grid.html#af432eea602599251a5e456fd24e38661" target="_top" xlink:title="Grid.makeGrid">
<polygon fill="white" stroke="black" points="603,-16.5 603,-35.5 689,-35.5 689,-16.5 603,-16.5"/>
<text text-anchor="middle" x="646" y="-23.5" font-family="Helvetica,sans-Serif" font-size="10.00">Grid.makeGrid</text>
</a>
</g>
</g>
<!-- Node4&#45;&gt;Node5 -->
<g id="edge4" class="edge"><title>Node4&#45;&gt;Node5</title>
<path fill="none" stroke="midnightblue" d="M478.894,-47.6284C507.898,-43.8518 555.675,-37.6308 592.563,-32.8278"/>
<polygon fill="midnightblue" stroke="midnightblue" points="593.189,-36.2759 602.653,-31.5139 592.285,-29.3345 593.189,-36.2759"/>
</g>
<!-- Node7 -->
<g id="node7" class="node"><title>Node7</title>
<g id="a_node7"><a xlink:href="../../d2/d40/class_cellular_automata.html#ac4d0b9bd9416cb4b3567caacc05cd55a" target="_top" xlink:title="CellularAutomata.setUpInitial\lConfig">
<polygon fill="white" stroke="black" points="568,-431 568,-461 724,-461 724,-431 568,-431"/>
<text text-anchor="start" x="576" y="-449" font-family="Helvetica,sans-Serif" font-size="10.00">CellularAutomata.setUpInitial</text>
<text text-anchor="middle" x="646" y="-438" font-family="Helvetica,sans-Serif" font-size="10.00">Config</text>
</a>
</g>
</g>
<!-- Node6&#45;&gt;Node7 -->
<g id="edge6" class="edge"><title>Node6&#45;&gt;Node7</title>
<path fill="none" stroke="midnightblue" d="M488.216,-403.538C513.712,-410.443 548.926,-419.98 579.523,-428.267"/>
<polygon fill="midnightblue" stroke="midnightblue" points="578.709,-431.672 589.276,-430.908 580.539,-424.916 578.709,-431.672"/>
</g>
<!-- Node9 -->
<g id="node9" class="node"><title>Node9</title>
<g id="a_node9"><a xlink:href="../../df/df8/class_cell_society_view.html#a656cfed0ba32bc41bbd0c4087860db4b" target="_top" xlink:title="CellSocietyView.makeLoad\lButton">
<polygon fill="white" stroke="black" points="574.5,-55 574.5,-85 717.5,-85 717.5,-55 574.5,-55"/>
<text text-anchor="start" x="582.5" y="-73" font-family="Helvetica,sans-Serif" font-size="10.00">CellSocietyView.makeLoad</text>
<text text-anchor="middle" x="646" y="-62" font-family="Helvetica,sans-Serif" font-size="10.00">Button</text>
</a>
</g>
</g>
<!-- Node8&#45;&gt;Node9 -->
<g id="edge8" class="edge"><title>Node8&#45;&gt;Node9</title>
<path fill="none" stroke="midnightblue" d="M494.661,-104.453C516.471,-99.4545 543.86,-93.1778 569.266,-87.3558"/>
<polygon fill="midnightblue" stroke="midnightblue" points="570.295,-90.7108 579.26,-85.0654 568.731,-83.8876 570.295,-90.7108"/>
</g>
<!-- Node11 -->
<g id="node11" class="node"><title>Node11</title>
<g id="a_node11"><a xlink:href="../../df/df8/class_cell_society_view.html#ae09ddc20f81e90312e628d712a5c6afc" target="_top" xlink:title="CellSocietyView.makeUIButton">
<polygon fill="white" stroke="black" points="769,-63.5 769,-82.5 931,-82.5 931,-63.5 769,-63.5"/>
<text text-anchor="middle" x="850" y="-70.5" font-family="Helvetica,sans-Serif" font-size="10.00">CellSocietyView.makeUIButton</text>
</a>
</g>
</g>
<!-- Node8&#45;&gt;Node11 -->
<g id="edge12" class="edge"><title>Node8&#45;&gt;Node11</title>
<path fill="none" stroke="midnightblue" d="M531.161,-110.156C585.398,-107.019 659.248,-101.811 724,-94 745.119,-91.4523 768.112,-87.8343 788.553,-84.3175"/>
<polygon fill="midnightblue" stroke="midnightblue" points="789.425,-87.7183 798.673,-82.5494 788.22,-80.8228 789.425,-87.7183"/>
</g>
<!-- Node12 -->
<g id="node12" class="node"><title>Node12</title>
<g id="a_node12"><a xlink:href="../../df/df8/class_cell_society_view.html#ad52b914fa03b45d8bc9d64fc407660f3" target="_top" xlink:title="CellSocietyView.updateView">
<polygon fill="white" stroke="black" points="571.5,-142.5 571.5,-161.5 720.5,-161.5 720.5,-142.5 571.5,-142.5"/>
<text text-anchor="middle" x="646" y="-149.5" font-family="Helvetica,sans-Serif" font-size="10.00">CellSocietyView.updateView</text>
</a>
</g>
</g>
<!-- Node8&#45;&gt;Node12 -->
<g id="edge13" class="edge"><title>Node8&#45;&gt;Node12</title>
<path fill="none" stroke="midnightblue" d="M501.45,-123.589C527.471,-128.739 559.728,-135.123 587.069,-140.534"/>
<polygon fill="midnightblue" stroke="midnightblue" points="586.409,-143.972 596.899,-142.48 587.769,-137.105 586.409,-143.972"/>
</g>
<!-- Node10 -->
<g id="node10" class="node"><title>Node10</title>
<g id="a_node10"><a xlink:href="../../df/df8/class_cell_society_view.html#a2c047a3972078bb0a5490ed225ef2dfa" target="_top" xlink:title="CellSocietyView.loadNewFile">
<polygon fill="white" stroke="black" points="775.5,-0.5 775.5,-19.5 924.5,-19.5 924.5,-0.5 775.5,-0.5"/>
<text text-anchor="middle" x="850" y="-7.5" font-family="Helvetica,sans-Serif" font-size="10.00">CellSocietyView.loadNewFile</text>
</a>
</g>
</g>
<!-- Node9&#45;&gt;Node10 -->
<g id="edge9" class="edge"><title>Node9&#45;&gt;Node10</title>
<path fill="none" stroke="midnightblue" d="M697.712,-54.9369C731.458,-44.9135 775.259,-31.9033 807.04,-22.4632"/>
<polygon fill="midnightblue" stroke="midnightblue" points="808.319,-25.7346 816.909,-19.532 806.326,-19.0243 808.319,-25.7346"/>
</g>
<!-- Node9&#45;&gt;Node11 -->
<g id="edge11" class="edge"><title>Node9&#45;&gt;Node11</title>
<path fill="none" stroke="midnightblue" d="M717.65,-71.0493C730.796,-71.2445 744.698,-71.451 758.345,-71.6536"/>
<polygon fill="midnightblue" stroke="midnightblue" points="758.664,-75.1587 768.715,-71.8077 758.769,-68.1594 758.664,-75.1587"/>
</g>
<!-- Node10&#45;&gt;Node1 -->
<g id="edge10" class="edge"><title>Node10&#45;&gt;Node1</title>
<path fill="none" stroke="midnightblue" d="M775.307,-7.93743C758.448,-7.54729 740.605,-7.19923 724,-7 654.672,-6.16818 637.194,-2.60493 568,-7 480.36,-12.5668 458.953,-19.7129 372,-32 291.238,-43.4122 198.61,-58.0001 137.25,-67.8741"/>
<polygon fill="midnightblue" stroke="midnightblue" points="136.616,-64.431 127.3,-69.478 137.73,-71.3418 136.616,-64.431"/>
</g>
<!-- Node13 -->
<g id="node13" class="node"><title>Node13</title>
<g id="a_node13"><a xlink:href="../../d2/d40/class_cellular_automata.html#a8f4c8a2f32137db67dd31f5afb4b62c3" target="_top" xlink:title="CellularAutomata.updateNextGen">
<polygon fill="white" stroke="black" points="760.5,-104.5 760.5,-123.5 939.5,-123.5 939.5,-104.5 760.5,-104.5"/>
<text text-anchor="middle" x="850" y="-111.5" font-family="Helvetica,sans-Serif" font-size="10.00">CellularAutomata.updateNextGen</text>
</a>
</g>
</g>
<!-- Node12&#45;&gt;Node13 -->
<g id="edge14" class="edge"><title>Node12&#45;&gt;Node13</title>
<path fill="none" stroke="midnightblue" d="M697.712,-142.46C725.207,-137.288 759.376,-130.86 788.282,-125.422"/>
<polygon fill="midnightblue" stroke="midnightblue" points="789.086,-128.832 798.267,-123.544 787.792,-121.953 789.086,-128.832"/>
</g>
<!-- Node12&#45;&gt;Node16 -->
<g id="edge19" class="edge"><title>Node12&#45;&gt;Node16</title>
<path fill="none" stroke="midnightblue" d="M720.784,-158.94C735.344,-160.31 750.719,-161.756 765.571,-163.153"/>
<polygon fill="midnightblue" stroke="midnightblue" points="765.47,-166.659 775.754,-164.11 766.125,-159.689 765.47,-166.659"/>
</g>
<!-- Node14 -->
<g id="node14" class="node"><title>Node14</title>
<g id="a_node14"><a xlink:href="../../d2/d40/class_cellular_automata.html#ab6b9e3ca964f405470ec0acc064d9b3a" target="_top" xlink:title="CellularAutomata.checkRules">
<polygon fill="white" stroke="black" points="983.5,-66.5 983.5,-85.5 1138.5,-85.5 1138.5,-66.5 983.5,-66.5"/>
<text text-anchor="middle" x="1061" y="-73.5" font-family="Helvetica,sans-Serif" font-size="10.00">CellularAutomata.checkRules</text>
</a>
</g>
</g>
<!-- Node13&#45;&gt;Node14 -->
<g id="edge15" class="edge"><title>Node13&#45;&gt;Node14</title>
<path fill="none" stroke="midnightblue" d="M903.47,-104.46C932.041,-99.2652 967.58,-92.8037 997.569,-87.3511"/>
<polygon fill="midnightblue" stroke="midnightblue" points="998.296,-90.7764 1007.51,-85.5439 997.044,-83.8893 998.296,-90.7764"/>
</g>
<!-- Node15 -->
<g id="node15" class="node"><title>Node15</title>
<g id="a_node15"><a xlink:href="../../d2/d40/class_cellular_automata.html#ab39b5164764f20382801aa9a4663eb4b" target="_top" xlink:title="CellularAutomata.handleUpdate">
<polygon fill="white" stroke="black" points="976,-104.5 976,-123.5 1146,-123.5 1146,-104.5 976,-104.5"/>
<text text-anchor="middle" x="1061" y="-111.5" font-family="Helvetica,sans-Serif" font-size="10.00">CellularAutomata.handleUpdate</text>
</a>
</g>
</g>
<!-- Node13&#45;&gt;Node15 -->
<g id="edge17" class="edge"><title>Node13&#45;&gt;Node15</title>
<path fill="none" stroke="midnightblue" d="M939.635,-114C948.271,-114 957.055,-114 965.744,-114"/>
<polygon fill="midnightblue" stroke="midnightblue" points="965.886,-117.5 975.886,-114 965.886,-110.5 965.886,-117.5"/>
</g>
<!-- Node14&#45;&gt;Node3 -->
<g id="edge16" class="edge"><title>Node14&#45;&gt;Node3</title>
<path fill="none" stroke="midnightblue" d="M1109.44,-85.589C1134.81,-90.7165 1166.23,-97.0672 1192.92,-102.463"/>
<polygon fill="midnightblue" stroke="midnightblue" points="1192.41,-105.929 1202.9,-104.48 1193.79,-99.068 1192.41,-105.929"/>
</g>
<!-- Node15&#45;&gt;Node3 -->
<g id="edge18" class="edge"><title>Node15&#45;&gt;Node3</title>
<path fill="none" stroke="midnightblue" d="M1146.1,-114C1154.58,-114 1163.17,-114 1171.59,-114"/>
<polygon fill="midnightblue" stroke="midnightblue" points="1171.75,-117.5 1181.75,-114 1171.75,-110.5 1171.75,-117.5"/>
</g>
<!-- Node17 -->
<g id="node17" class="node"><title>Node17</title>
<g id="a_node17"><a xlink:href="../../da/d74/class_grid.html#a2f2ccb1511e367a7d6e9bcb3f708cd38" target="_top" xlink:title="Grid.getCellAt">
<polygon fill="white" stroke="black" points="1019.5,-142.5 1019.5,-161.5 1102.5,-161.5 1102.5,-142.5 1019.5,-142.5"/>
<text text-anchor="middle" x="1061" y="-149.5" font-family="Helvetica,sans-Serif" font-size="10.00">Grid.getCellAt</text>
</a>
</g>
</g>
<!-- Node16&#45;&gt;Node17 -->
<g id="edge20" class="edge"><title>Node16&#45;&gt;Node17</title>
<path fill="none" stroke="midnightblue" d="M924.098,-164.355C952.136,-161.806 983.498,-158.955 1009.02,-156.634"/>
<polygon fill="midnightblue" stroke="midnightblue" points="1009.58,-160.099 1019.22,-155.707 1008.94,-153.127 1009.58,-160.099"/>
</g>
<!-- Node18 -->
<g id="node18" class="node"><title>Node18</title>
<g id="a_node18"><a xlink:href="../../dd/d11/class_cell.html#aac3ac473652b817fe344534f4bec7e6f" target="_top" xlink:title="Cell.getState">
<polygon fill="white" stroke="black" points="1021.5,-180.5 1021.5,-199.5 1100.5,-199.5 1100.5,-180.5 1021.5,-180.5"/>
<text text-anchor="middle" x="1061" y="-187.5" font-family="Helvetica,sans-Serif" font-size="10.00">Cell.getState</text>
</a>
</g>
</g>
<!-- Node16&#45;&gt;Node18 -->
<g id="edge21" class="edge"><title>Node16&#45;&gt;Node18</title>
<path fill="none" stroke="midnightblue" d="M924.098,-177.645C952.86,-180.26 985.12,-183.193 1010.99,-185.545"/>
<polygon fill="midnightblue" stroke="midnightblue" points="1011.02,-189.061 1021.29,-186.481 1011.65,-182.09 1011.02,-189.061"/>
</g>
<!-- Node20 -->
<g id="node20" class="node"><title>Node20</title>
<g id="a_node20"><a xlink:href="../../dd/d97/class_grid_drawer.html#af9a09b2ee81450f13a117261b67718e0" target="_top" xlink:title="GridDrawer.makeUnitGrid">
<polygon fill="white" stroke="black" points="577,-256.5 577,-275.5 715,-275.5 715,-256.5 577,-256.5"/>
<text text-anchor="middle" x="646" y="-263.5" font-family="Helvetica,sans-Serif" font-size="10.00">GridDrawer.makeUnitGrid</text>
</a>
</g>
</g>
<!-- Node19&#45;&gt;Node20 -->
<g id="edge23" class="edge"><title>Node19&#45;&gt;Node20</title>
<path fill="none" stroke="midnightblue" d="M501.45,-294.411C527.471,-289.261 559.728,-282.877 587.069,-277.466"/>
<polygon fill="midnightblue" stroke="midnightblue" points="587.769,-280.895 596.899,-275.52 586.409,-274.028 587.769,-280.895"/>
</g>
<!-- Node25 -->
<g id="node25" class="node"><title>Node25</title>
<g id="a_node25"><a xlink:href="../../dd/d97/class_grid_drawer.html#a54f548bdc35a2afef9af05a134c149f5" target="_top" xlink:title="GridDrawer.calculateCell\lWidth">
<polygon fill="white" stroke="black" points="580,-382 580,-412 712,-412 712,-382 580,-382"/>
<text text-anchor="start" x="588" y="-400" font-family="Helvetica,sans-Serif" font-size="10.00">GridDrawer.calculateCell</text>
<text text-anchor="middle" x="646" y="-389" font-family="Helvetica,sans-Serif" font-size="10.00">Width</text>
</a>
</g>
</g>
<!-- Node19&#45;&gt;Node25 -->
<g id="edge28" class="edge"><title>Node19&#45;&gt;Node25</title>
<path fill="none" stroke="midnightblue" d="M466.975,-313.643C488.091,-327.888 529.735,-354.729 568,-372 572.964,-374.241 578.19,-376.376 583.484,-378.386"/>
<polygon fill="midnightblue" stroke="midnightblue" points="582.451,-381.735 593.045,-381.865 584.845,-375.156 582.451,-381.735"/>
</g>
<!-- Node26 -->
<g id="node26" class="node"><title>Node26</title>
<g id="a_node26"><a xlink:href="../../dd/d97/class_grid_drawer.html#a3f6bb5e9307bf84f9f8f4ae467ec85cf" target="_top" xlink:title="GridDrawer.calculateCell\lHeight">
<polygon fill="white" stroke="black" points="580,-333 580,-363 712,-363 712,-333 580,-333"/>
<text text-anchor="start" x="588" y="-351" font-family="Helvetica,sans-Serif" font-size="10.00">GridDrawer.calculateCell</text>
<text text-anchor="middle" x="646" y="-340" font-family="Helvetica,sans-Serif" font-size="10.00">Height</text>
</a>
</g>
</g>
<!-- Node19&#45;&gt;Node26 -->
<g id="edge29" class="edge"><title>Node19&#45;&gt;Node26</title>
<path fill="none" stroke="midnightblue" d="M494.661,-313.547C516.568,-318.568 544.105,-324.878 569.606,-330.722"/>
<polygon fill="midnightblue" stroke="midnightblue" points="569.106,-334.198 579.635,-333.021 570.67,-327.375 569.106,-334.198"/>
</g>
<!-- Node27 -->
<g id="node27" class="node"><title>Node27</title>
<g id="a_node27"><a xlink:href="../../dd/d97/class_grid_drawer.html#a8fba9cca18cee03651775b5785722778" target="_top" xlink:title="GridDrawer.scale">
<polygon fill="white" stroke="black" points="597.5,-294.5 597.5,-313.5 694.5,-313.5 694.5,-294.5 597.5,-294.5"/>
<text text-anchor="middle" x="646" y="-301.5" font-family="Helvetica,sans-Serif" font-size="10.00">GridDrawer.scale</text>
</a>
</g>
</g>
<!-- Node19&#45;&gt;Node27 -->
<g id="edge30" class="edge"><title>Node19&#45;&gt;Node27</title>
<path fill="none" stroke="midnightblue" d="M511.65,-304C535.57,-304 563.155,-304 587.007,-304"/>
<polygon fill="midnightblue" stroke="midnightblue" points="587.327,-307.5 597.327,-304 587.327,-300.5 587.327,-307.5"/>
</g>
<!-- Node21 -->
<g id="node21" class="node"><title>Node21</title>
<g id="a_node21"><a xlink:href="../../dd/d97/class_grid_drawer.html#a69ef437bdcbcdb3dca6b206b73a1ab1f" target="_top" xlink:title="GridDrawer.drawUnitCell">
<polygon fill="white" stroke="black" points="784.5,-275.5 784.5,-294.5 915.5,-294.5 915.5,-275.5 784.5,-275.5"/>
<text text-anchor="middle" x="850" y="-282.5" font-family="Helvetica,sans-Serif" font-size="10.00">GridDrawer.drawUnitCell</text>
</a>
</g>
</g>
<!-- Node20&#45;&gt;Node21 -->
<g id="edge24" class="edge"><title>Node20&#45;&gt;Node21</title>
<path fill="none" stroke="midnightblue" d="M715.106,-272.406C734.126,-274.195 754.892,-276.148 774.272,-277.971"/>
<polygon fill="midnightblue" stroke="midnightblue" points="773.979,-281.459 784.263,-278.911 774.634,-274.49 773.979,-281.459"/>
</g>
<!-- Node22 -->
<g id="node22" class="node"><title>Node22</title>
<g id="a_node22"><a xlink:href="../../dd/d97/class_grid_drawer.html#a53b8613b7621224084096d76e2316452" target="_top" xlink:title="GridDrawer.drawTriangle">
<polygon fill="white" stroke="black" points="995.5,-294.5 995.5,-313.5 1126.5,-313.5 1126.5,-294.5 995.5,-294.5"/>
<text text-anchor="middle" x="1061" y="-301.5" font-family="Helvetica,sans-Serif" font-size="10.00">GridDrawer.drawTriangle</text>
</a>
</g>
</g>
<!-- Node21&#45;&gt;Node22 -->
<g id="edge25" class="edge"><title>Node21&#45;&gt;Node22</title>
<path fill="none" stroke="midnightblue" d="M915.698,-290.882C937.634,-292.876 962.321,-295.12 984.991,-297.181"/>
<polygon fill="midnightblue" stroke="midnightblue" points="984.972,-300.694 995.248,-298.113 985.606,-293.722 984.972,-300.694"/>
</g>
<!-- Node23 -->
<g id="node23" class="node"><title>Node23</title>
<g id="a_node23"><a xlink:href="../../dd/d97/class_grid_drawer.html#a08b9d58cde5fafa07e226d4ed2ebc655" target="_top" xlink:title="GridDrawer.drawSquare">
<polygon fill="white" stroke="black" points="996.5,-256.5 996.5,-275.5 1125.5,-275.5 1125.5,-256.5 996.5,-256.5"/>
<text text-anchor="middle" x="1061" y="-263.5" font-family="Helvetica,sans-Serif" font-size="10.00">GridDrawer.drawSquare</text>
</a>
</g>
</g>
<!-- Node21&#45;&gt;Node23 -->
<g id="edge26" class="edge"><title>Node21&#45;&gt;Node23</title>
<path fill="none" stroke="midnightblue" d="M915.698,-279.118C938.046,-277.087 963.25,-274.795 986.267,-272.703"/>
<polygon fill="midnightblue" stroke="midnightblue" points="986.683,-276.18 996.325,-271.789 986.049,-269.208 986.683,-276.18"/>
</g>
<!-- Node24 -->
<g id="node24" class="node"><title>Node24</title>
<g id="a_node24"><a xlink:href="../../dd/d97/class_grid_drawer.html#a260f7ce1d53af7f88e1c4ee3a4a3de2b" target="_top" xlink:title="GridDrawer.drawHexagon">
<polygon fill="white" stroke="black" points="992.5,-332.5 992.5,-351.5 1129.5,-351.5 1129.5,-332.5 992.5,-332.5"/>
<text text-anchor="middle" x="1061" y="-339.5" font-family="Helvetica,sans-Serif" font-size="10.00">GridDrawer.drawHexagon</text>
</a>
</g>
</g>
<!-- Node21&#45;&gt;Node24 -->
<g id="edge27" class="edge"><title>Node21&#45;&gt;Node24</title>
<path fill="none" stroke="midnightblue" d="M880.126,-294.511C905.351,-302.589 942.891,-314.235 976,-323 985.333,-325.471 995.302,-327.904 1004.99,-330.161"/>
<polygon fill="midnightblue" stroke="midnightblue" points="1004.42,-333.621 1014.95,-332.444 1005.99,-326.798 1004.42,-333.621"/>
</g>
<!-- Node28&#45;&gt;Node12 -->
<g id="edge32" class="edge"><title>Node28&#45;&gt;Node12</title>
<path fill="none" stroke="midnightblue" d="M532.202,-152C541.685,-152 551.393,-152 560.941,-152"/>
<polygon fill="midnightblue" stroke="midnightblue" points="561.22,-155.5 571.22,-152 561.22,-148.5 561.22,-155.5"/>
</g>
</g>
</svg>
        <g id="navigator" transform="translate(0 0)" fill="#404254">
                <rect fill="#f2f5e9" fill-opacity="0.5" stroke="#606060" stroke-width=".5" x="0" y="0" width="60" height="60"/>
                <use id="zoomplus" xlink:href="#zoomPlus" x="17" y="9" onmousedown="handleZoom(evt,'in')"/>
                <use id="zoomminus" xlink:href="#zoomMin" x="42" y="9" onmousedown="handleZoom(evt,'out')"/>
                <use id="reset" xlink:href="#resetDef" x="30" y="36" onmousedown="handleReset()"/>
                <g id="arrowUp" xlink:href="#dirArrow" transform="translate(30 24)" onmousedown="handlePan(0,-1)">
                  <use xlink:href="#rim" fill="#404040">
                        <set attributeName="fill" to="#808080" begin="arrowUp.mouseover" end="arrowUp.mouseout"/>
                  </use>
                  <path fill="none" stroke="white" stroke-width="1.5" d="M0,-3.0v7 M-2.5,-0.5L0,-3.0L2.5,-0.5"/>
                </g>
                <g id="arrowRight" xlink:href="#dirArrow" transform="rotate(90) translate(36 -43)" onmousedown="handlePan(1,0)">
                  <use xlink:href="#rim" fill="#404040">
                        <set attributeName="fill" to="#808080" begin="arrowRight.mouseover" end="arrowRight.mouseout"/>
                  </use>
                  <path fill="none" stroke="white" stroke-width="1.5" d="M0,-3.0v7 M-2.5,-0.5L0,-3.0L2.5,-0.5"/>
                </g>
                <g id="arrowDown" xlink:href="#dirArrow" transform="rotate(180) translate(-30 -48)" onmousedown="handlePan(0,1)">
                  <use xlink:href="#rim" fill="#404040">
                        <set attributeName="fill" to="#808080" begin="arrowDown.mouseover" end="arrowDown.mouseout"/>
                  </use>
                  <path fill="none" stroke="white" stroke-width="1.5" d="M0,-3.0v7 M-2.5,-0.5L0,-3.0L2.5,-0.5"/>
                </g>
                <g id="arrowLeft" xlink:href="#dirArrow" transform="rotate(270) translate(-36 17)" onmousedown="handlePan(-1,0)">
                  <use xlink:href="#rim" fill="#404040">
                        <set attributeName="fill" to="#808080" begin="arrowLeft.mouseover" end="arrowLeft.mouseout"/>
                  </use>
                  <path fill="none" stroke="white" stroke-width="1.5" d="M0,-3.0v7 M-2.5,-0.5L0,-3.0L2.5,-0.5"/>
                </g>
        </g>
        <svg viewBox="0 0 15 15" width="100%" height="30px" preserveAspectRatio="xMaxYMin meet">
         <g id="arrow_out" transform="scale(0.3 0.3)">
          <a xlink:href="class_cell_society_view_a2ee793e471cc5731ce39c1450f058dd5_cgraph_org.svg" target="_base">
           <rect id="button" ry="5" rx="5" y="6" x="6" height="38" width="38"
                fill="#f2f5e9" fill-opacity="0.5" stroke="#606060" stroke-width="1.0"/>
           <path id="arrow"
             d="M 11.500037,31.436501 C 11.940474,20.09759 22.043105,11.32322 32.158766,21.979434 L 37.068811,17.246167 C 37.068811,17.246167 37.088388,32 37.088388,32 L 22.160133,31.978069 C 22.160133,31.978069 26.997745,27.140456 26.997745,27.140456 C 18.528582,18.264221 13.291696,25.230495 11.500037,31.436501 z"
             style="fill:#404040;"/>
          </a>
         </g>
        </svg>
</svg>
