<?xml version="1.0" encoding="UTF-8" standalone="no"?>
<!DOCTYPE svg PUBLIC "-//W3C//DTD SVG 1.1//EN"
 "http://www.w3.org/Graphics/SVG/1.1/DTD/svg11.dtd">
<!-- Generated by graphviz version 2.36.0 (20140111.2315)
 -->
<!-- Title: CellSocietyView.addGameType Pages: 1 -->
<svg width="720pt" height="38pt"
 viewBox="0.00 0.00 720.00 38.00" xmlns="http://www.w3.org/2000/svg" xmlns:xlink="http://www.w3.org/1999/xlink">
<g id="graph0" class="graph" transform="scale(1 1) rotate(0) translate(4 34)">
<title>CellSocietyView.addGameType</title>
<polygon fill="white" stroke="none" points="-4,4 -4,-34 716,-34 716,4 -4,4"/>
<!-- Node1 -->
<g id="node1" class="node"><title>Node1</title>
<polygon fill="#bfbfbf" stroke="black" points="0.5,-5.5 0.5,-24.5 161.5,-24.5 161.5,-5.5 0.5,-5.5"/>
<text text-anchor="middle" x="81" y="-12.5" font-family="Helvetica,sans-Serif" font-size="10.00">CellSocietyView.addGameType</text>
</g>
<!-- Node2 -->
<g id="node2" class="node"><title>Node2</title>
<g id="a_node2"><a xlink:href="../../df/df8/class_cell_society_view.html#a38d9c3d5a91b82c54b1c5aae86b4d33a" target="_top" xlink:title="CellSocietyView.setUpGame\lTypes">
<polygon fill="white" stroke="black" points="198.5,-0 198.5,-30 349.5,-30 349.5,-0 198.5,-0"/>
<text text-anchor="start" x="206.5" y="-18" font-family="Helvetica,sans-Serif" font-size="10.00">CellSocietyView.setUpGame</text>
<text text-anchor="middle" x="274" y="-7" font-family="Helvetica,sans-Serif" font-size="10.00">Types</text>
</a>
</g>
</g>
<!-- Node1&#45;&gt;Node2 -->
<g id="edge1" class="edge"><title>Node1&#45;&gt;Node2</title>
<path fill="none" stroke="midnightblue" d="M171.673,-15C180.619,-15 189.634,-15 198.402,-15"/>
<polygon fill="midnightblue" stroke="midnightblue" points="171.618,-11.5001 161.618,-15 171.618,-18.5001 171.618,-11.5001"/>
</g>
<!-- Node3 -->
<g id="node3" class="node"><title>Node3</title>
<g id="a_node3"><a xlink:href="../../df/df8/class_cell_society_view.html#a61f4aa77e19dd7d6071e42bc1535f9f0" target="_top" xlink:title="CellSocietyView.setUp">
<polygon fill="white" stroke="black" points="386,-5.5 386,-24.5 508,-24.5 508,-5.5 386,-5.5"/>
<text text-anchor="middle" x="447" y="-12.5" font-family="Helvetica,sans-Serif" font-size="10.00">CellSocietyView.setUp</text>
</a>
</g>
</g>
<!-- Node2&#45;&gt;Node3 -->
<g id="edge2" class="edge"><title>Node2&#45;&gt;Node3</title>
<path fill="none" stroke="midnightblue" d="M359.52,-15C368.413,-15 377.32,-15 385.856,-15"/>
<polygon fill="midnightblue" stroke="midnightblue" points="359.506,-11.5001 349.506,-15 359.506,-18.5001 359.506,-11.5001"/>
</g>
<!-- Node4 -->
<g id="node4" class="node"><title>Node4</title>
<g id="a_node4"><a xlink:href="../../df/df8/class_cell_society_view.html#a53ab66afdeb23b3fc89e54a44be7ced5" target="_top" xlink:title="CellSocietyView.CellSocietyView">
<polygon fill="white" stroke="black" points="544.5,-5.5 544.5,-24.5 711.5,-24.5 711.5,-5.5 544.5,-5.5"/>
<text text-anchor="middle" x="628" y="-12.5" font-family="Helvetica,sans-Serif" font-size="10.00">CellSocietyView.CellSocietyView</text>
</a>
</g>
</g>
<!-- Node3&#45;&gt;Node4 -->
<g id="edge3" class="edge"><title>Node3&#45;&gt;Node4</title>
<path fill="none" stroke="midnightblue" d="M518.115,-15C526.761,-15 535.661,-15 544.47,-15"/>
<polygon fill="midnightblue" stroke="midnightblue" points="518.102,-11.5001 508.102,-15 518.102,-18.5001 518.102,-11.5001"/>
</g>
</g>
</svg>
