<?xml version="1.0" encoding="UTF-8" standalone="no"?>
<!DOCTYPE svg PUBLIC "-//W3C//DTD SVG 1.1//EN"
 "http://www.w3.org/Graphics/SVG/1.1/DTD/svg11.dtd">
<!-- Generated by graphviz version 2.36.0 (20140111.2315)
 -->
<!-- Title: CellSocietyView.makeFFButton Pages: 1 -->
<svg width="1308pt" height="53pt"
 viewBox="0.00 0.00 1308.00 53.00" xmlns="http://www.w3.org/2000/svg" xmlns:xlink="http://www.w3.org/1999/xlink">
<g id="graph0" class="graph" transform="scale(1 1) rotate(0) translate(4 49)">
<title>CellSocietyView.makeFFButton</title>
<polygon fill="white" stroke="none" points="-4,4 -4,-49 1304,-49 1304,4 -4,4"/>
<!-- Node1 -->
<g id="node1" class="node"><title>Node1</title>
<polygon fill="#bfbfbf" stroke="black" points="0.5,-6.5 0.5,-25.5 163.5,-25.5 163.5,-6.5 0.5,-6.5"/>
<text text-anchor="middle" x="82" y="-13.5" font-family="Helvetica,sans-Serif" font-size="10.00">CellSocietyView.makeFFButton</text>
</g>
<!-- Node2 -->
<g id="node2" class="node"><title>Node2</title>
<g id="a_node2"><a xlink:href="../../df/df8/class_cell_society_view.html#a7bdbd4e8fd3893e672eb22015603f6dc" target="_top" xlink:title="CellSocietyView.makeButtons">
<polygon fill="white" stroke="black" points="200,-6.5 200,-25.5 358,-25.5 358,-6.5 200,-6.5"/>
<text text-anchor="middle" x="279" y="-13.5" font-family="Helvetica,sans-Serif" font-size="10.00">CellSocietyView.makeButtons</text>
</a>
</g>
</g>
<!-- Node1&#45;&gt;Node2 -->
<g id="edge1" class="edge"><title>Node1&#45;&gt;Node2</title>
<path fill="none" stroke="midnightblue" d="M173.865,-16C182.548,-16 191.301,-16 199.848,-16"/>
<polygon fill="midnightblue" stroke="midnightblue" points="173.722,-12.5001 163.722,-16 173.722,-19.5001 173.722,-12.5001"/>
</g>
<!-- Node3 -->
<g id="node3" class="node"><title>Node3</title>
<g id="a_node3"><a xlink:href="../../df/df8/class_cell_society_view.html#a767ab215ca329ba41b1493702141f841" target="_top" xlink:title="CellSocietyView.makeCAGame">
<polygon fill="white" stroke="black" points="394.5,-25.5 394.5,-44.5 557.5,-44.5 557.5,-25.5 394.5,-25.5"/>
<text text-anchor="middle" x="476" y="-32.5" font-family="Helvetica,sans-Serif" font-size="10.00">CellSocietyView.makeCAGame</text>
</a>
</g>
</g>
<!-- Node2&#45;&gt;Node3 -->
<g id="edge2" class="edge"><title>Node2&#45;&gt;Node3</title>
<path fill="none" stroke="midnightblue" d="M368.281,-24.6018C376.929,-25.4444 385.675,-26.2966 394.243,-27.1314"/>
<polygon fill="midnightblue" stroke="midnightblue" points="368.483,-21.1049 358.19,-23.6185 367.804,-28.0719 368.483,-21.1049"/>
</g>
<!-- Node4 -->
<g id="node4" class="node"><title>Node4</title>
<g id="a_node4"><a xlink:href="../../df/df8/class_cell_society_view.html#a2ee793e471cc5731ce39c1450f058dd5" target="_top" xlink:title="CellSocietyView.parseFile">
<polygon fill="white" stroke="black" points="594.5,-25.5 594.5,-44.5 729.5,-44.5 729.5,-25.5 594.5,-25.5"/>
<text text-anchor="middle" x="662" y="-32.5" font-family="Helvetica,sans-Serif" font-size="10.00">CellSocietyView.parseFile</text>
</a>
</g>
</g>
<!-- Node3&#45;&gt;Node4 -->
<g id="edge3" class="edge"><title>Node3&#45;&gt;Node4</title>
<path fill="none" stroke="midnightblue" d="M567.807,-35C576.777,-35 585.762,-35 594.42,-35"/>
<polygon fill="midnightblue" stroke="midnightblue" points="567.705,-31.5001 557.705,-35 567.705,-38.5001 567.705,-31.5001"/>
</g>
<!-- Node5 -->
<g id="node5" class="node"><title>Node5</title>
<g id="a_node5"><a xlink:href="../../df/df8/class_cell_society_view.html#a2c047a3972078bb0a5490ed225ef2dfa" target="_top" xlink:title="CellSocietyView.loadNewFile">
<polygon fill="white" stroke="black" points="766.5,-25.5 766.5,-44.5 915.5,-44.5 915.5,-25.5 766.5,-25.5"/>
<text text-anchor="middle" x="841" y="-32.5" font-family="Helvetica,sans-Serif" font-size="10.00">CellSocietyView.loadNewFile</text>
</a>
</g>
</g>
<!-- Node4&#45;&gt;Node5 -->
<g id="edge4" class="edge"><title>Node4&#45;&gt;Node5</title>
<path fill="none" stroke="midnightblue" d="M739.865,-35C748.633,-35 757.557,-35 766.283,-35"/>
<polygon fill="midnightblue" stroke="midnightblue" points="739.664,-31.5001 729.664,-35 739.664,-38.5001 739.664,-31.5001"/>
</g>
<!-- Node6 -->
<g id="node6" class="node"><title>Node6</title>
<g id="a_node6"><a xlink:href="../../df/df8/class_cell_society_view.html#a656cfed0ba32bc41bbd0c4087860db4b" target="_top" xlink:title="CellSocietyView.makeLoad\lButton">
<polygon fill="white" stroke="black" points="952.5,-1 952.5,-31 1095.5,-31 1095.5,-1 952.5,-1"/>
<text text-anchor="start" x="960.5" y="-19" font-family="Helvetica,sans-Serif" font-size="10.00">CellSocietyView.makeLoad</text>
<text text-anchor="middle" x="1024" y="-8" font-family="Helvetica,sans-Serif" font-size="10.00">Button</text>
</a>
</g>
</g>
<!-- Node5&#45;&gt;Node6 -->
<g id="edge5" class="edge"><title>Node5&#45;&gt;Node6</title>
<path fill="none" stroke="midnightblue" d="M925.651,-26.219C934.585,-25.2811 943.61,-24.3338 952.373,-23.4139"/>
<polygon fill="midnightblue" stroke="midnightblue" points="925.2,-22.747 915.62,-27.272 925.93,-29.7088 925.2,-22.747"/>
</g>
<!-- Node6&#45;&gt;Node2 -->
<g id="edge7" class="edge"><title>Node6&#45;&gt;Node2</title>
<path fill="none" stroke="midnightblue" d="M942.414,-16C798.71,-16 500.011,-16 358.11,-16"/>
<polygon fill="midnightblue" stroke="midnightblue" points="942.488,-19.5001 952.488,-16 942.488,-12.5001 942.488,-19.5001"/>
</g>
<!-- Node7 -->
<g id="node7" class="node"><title>Node7</title>
<g id="a_node7"><a xlink:href="../../df/df8/class_cell_society_view.html#a53ab66afdeb23b3fc89e54a44be7ced5" target="_top" xlink:title="CellSocietyView.CellSocietyView">
<polygon fill="white" stroke="black" points="1132.5,-6.5 1132.5,-25.5 1299.5,-25.5 1299.5,-6.5 1132.5,-6.5"/>
<text text-anchor="middle" x="1216" y="-13.5" font-family="Helvetica,sans-Serif" font-size="10.00">CellSocietyView.CellSocietyView</text>
</a>
</g>
</g>
<!-- Node6&#45;&gt;Node7 -->
<g id="edge6" class="edge"><title>Node6&#45;&gt;Node7</title>
<path fill="none" stroke="midnightblue" d="M1105.92,-16C1114.66,-16 1123.57,-16 1132.33,-16"/>
<polygon fill="midnightblue" stroke="midnightblue" points="1105.75,-12.5001 1095.75,-16 1105.75,-19.5001 1105.75,-12.5001"/>
</g>
</g>
</svg>
