<?xml version="1.0" encoding="UTF-8" standalone="no"?>
<!DOCTYPE svg PUBLIC "-//W3C//DTD SVG 1.1//EN"
 "http://www.w3.org/Graphics/SVG/1.1/DTD/svg11.dtd">
<!-- Generated by graphviz version 2.36.0 (20140111.2315)
 -->
<!-- Title: CellSocietyView.makePlayButton Pages: 1 -->
<svg width="1284pt" height="53pt"
 viewBox="0.00 0.00 1284.00 53.00" xmlns="http://www.w3.org/2000/svg" xmlns:xlink="http://www.w3.org/1999/xlink">
<g id="graph0" class="graph" transform="scale(1 1) rotate(0) translate(4 49)">
<title>CellSocietyView.makePlayButton</title>
<polygon fill="white" stroke="none" points="-4,4 -4,-49 1280,-49 1280,4 -4,4"/>
<!-- Node1 -->
<g id="node1" class="node"><title>Node1</title>
<polygon fill="#bfbfbf" stroke="black" points="0,-1 0,-31 140,-31 140,-1 0,-1"/>
<text text-anchor="start" x="8" y="-19" font-family="Helvetica,sans-Serif" font-size="10.00">CellSocietyView.makePlay</text>
<text text-anchor="middle" x="70" y="-8" font-family="Helvetica,sans-Serif" font-size="10.00">Button</text>
</g>
<!-- Node2 -->
<g id="node2" class="node"><title>Node2</title>
<g id="a_node2"><a xlink:href="../../df/df8/class_cell_society_view.html#a7bdbd4e8fd3893e672eb22015603f6dc" target="_top" xlink:title="CellSocietyView.makeButtons">
<polygon fill="white" stroke="black" points="176,-6.5 176,-25.5 334,-25.5 334,-6.5 176,-6.5"/>
<text text-anchor="middle" x="255" y="-13.5" font-family="Helvetica,sans-Serif" font-size="10.00">CellSocietyView.makeButtons</text>
</a>
</g>
</g>
<!-- Node1&#45;&gt;Node2 -->
<g id="edge1" class="edge"><title>Node1&#45;&gt;Node2</title>
<path fill="none" stroke="midnightblue" d="M150.387,-16C158.825,-16 167.402,-16 175.825,-16"/>
<polygon fill="midnightblue" stroke="midnightblue" points="150.184,-12.5001 140.184,-16 150.184,-19.5001 150.184,-12.5001"/>
</g>
<!-- Node3 -->
<g id="node3" class="node"><title>Node3</title>
<g id="a_node3"><a xlink:href="../../df/df8/class_cell_society_view.html#a767ab215ca329ba41b1493702141f841" target="_top" xlink:title="CellSocietyView.makeCAGame">
<polygon fill="white" stroke="black" points="370.5,-25.5 370.5,-44.5 533.5,-44.5 533.5,-25.5 370.5,-25.5"/>
<text text-anchor="middle" x="452" y="-32.5" font-family="Helvetica,sans-Serif" font-size="10.00">CellSocietyView.makeCAGame</text>
</a>
</g>
</g>
<!-- Node2&#45;&gt;Node3 -->
<g id="edge2" class="edge"><title>Node2&#45;&gt;Node3</title>
<path fill="none" stroke="midnightblue" d="M344.281,-24.6018C352.929,-25.4444 361.675,-26.2966 370.243,-27.1314"/>
<polygon fill="midnightblue" stroke="midnightblue" points="344.483,-21.1049 334.19,-23.6185 343.804,-28.0719 344.483,-21.1049"/>
</g>
<!-- Node4 -->
<g id="node4" class="node"><title>Node4</title>
<g id="a_node4"><a xlink:href="../../df/df8/class_cell_society_view.html#a2ee793e471cc5731ce39c1450f058dd5" target="_top" xlink:title="CellSocietyView.parseFile">
<polygon fill="white" stroke="black" points="570.5,-25.5 570.5,-44.5 705.5,-44.5 705.5,-25.5 570.5,-25.5"/>
<text text-anchor="middle" x="638" y="-32.5" font-family="Helvetica,sans-Serif" font-size="10.00">CellSocietyView.parseFile</text>
</a>
</g>
</g>
<!-- Node3&#45;&gt;Node4 -->
<g id="edge3" class="edge"><title>Node3&#45;&gt;Node4</title>
<path fill="none" stroke="midnightblue" d="M543.807,-35C552.777,-35 561.762,-35 570.42,-35"/>
<polygon fill="midnightblue" stroke="midnightblue" points="543.705,-31.5001 533.705,-35 543.705,-38.5001 543.705,-31.5001"/>
</g>
<!-- Node5 -->
<g id="node5" class="node"><title>Node5</title>
<g id="a_node5"><a xlink:href="../../df/df8/class_cell_society_view.html#a2c047a3972078bb0a5490ed225ef2dfa" target="_top" xlink:title="CellSocietyView.loadNewFile">
<polygon fill="white" stroke="black" points="742.5,-25.5 742.5,-44.5 891.5,-44.5 891.5,-25.5 742.5,-25.5"/>
<text text-anchor="middle" x="817" y="-32.5" font-family="Helvetica,sans-Serif" font-size="10.00">CellSocietyView.loadNewFile</text>
</a>
</g>
</g>
<!-- Node4&#45;&gt;Node5 -->
<g id="edge4" class="edge"><title>Node4&#45;&gt;Node5</title>
<path fill="none" stroke="midnightblue" d="M715.865,-35C724.633,-35 733.557,-35 742.283,-35"/>
<polygon fill="midnightblue" stroke="midnightblue" points="715.664,-31.5001 705.664,-35 715.664,-38.5001 715.664,-31.5001"/>
</g>
<!-- Node6 -->
<g id="node6" class="node"><title>Node6</title>
<g id="a_node6"><a xlink:href="../../df/df8/class_cell_society_view.html#a656cfed0ba32bc41bbd0c4087860db4b" target="_top" xlink:title="CellSocietyView.makeLoad\lButton">
<polygon fill="white" stroke="black" points="928.5,-1 928.5,-31 1071.5,-31 1071.5,-1 928.5,-1"/>
<text text-anchor="start" x="936.5" y="-19" font-family="Helvetica,sans-Serif" font-size="10.00">CellSocietyView.makeLoad</text>
<text text-anchor="middle" x="1000" y="-8" font-family="Helvetica,sans-Serif" font-size="10.00">Button</text>
</a>
</g>
</g>
<!-- Node5&#45;&gt;Node6 -->
<g id="edge5" class="edge"><title>Node5&#45;&gt;Node6</title>
<path fill="none" stroke="midnightblue" d="M901.651,-26.219C910.585,-25.2811 919.61,-24.3338 928.373,-23.4139"/>
<polygon fill="midnightblue" stroke="midnightblue" points="901.2,-22.747 891.62,-27.272 901.93,-29.7088 901.2,-22.747"/>
</g>
<!-- Node6&#45;&gt;Node2 -->
<g id="edge7" class="edge"><title>Node6&#45;&gt;Node2</title>
<path fill="none" stroke="midnightblue" d="M918.414,-16C774.71,-16 476.011,-16 334.11,-16"/>
<polygon fill="midnightblue" stroke="midnightblue" points="918.488,-19.5001 928.488,-16 918.488,-12.5001 918.488,-19.5001"/>
</g>
<!-- Node7 -->
<g id="node7" class="node"><title>Node7</title>
<g id="a_node7"><a xlink:href="../../df/df8/class_cell_society_view.html#a53ab66afdeb23b3fc89e54a44be7ced5" target="_top" xlink:title="CellSocietyView.CellSocietyView">
<polygon fill="white" stroke="black" points="1108.5,-6.5 1108.5,-25.5 1275.5,-25.5 1275.5,-6.5 1108.5,-6.5"/>
<text text-anchor="middle" x="1192" y="-13.5" font-family="Helvetica,sans-Serif" font-size="10.00">CellSocietyView.CellSocietyView</text>
</a>
</g>
</g>
<!-- Node6&#45;&gt;Node7 -->
<g id="edge6" class="edge"><title>Node6&#45;&gt;Node7</title>
<path fill="none" stroke="midnightblue" d="M1081.92,-16C1090.66,-16 1099.57,-16 1108.33,-16"/>
<polygon fill="midnightblue" stroke="midnightblue" points="1081.75,-12.5001 1071.75,-16 1081.75,-19.5001 1081.75,-12.5001"/>
</g>
</g>
</svg>
