<?xml version="1.0" encoding="UTF-8" standalone="no"?>
<!DOCTYPE svg PUBLIC "-//W3C//DTD SVG 1.1//EN"
 "http://www.w3.org/Graphics/SVG/1.1/DTD/svg11.dtd">
<!-- Generated by graphviz version 2.36.0 (20140111.2315)
 -->
<!-- Title: CellSocietyView.makeFFButton Pages: 1 -->
<svg width="1136pt" height="53pt"
 viewBox="0.00 0.00 1136.00 53.00" xmlns="http://www.w3.org/2000/svg" xmlns:xlink="http://www.w3.org/1999/xlink">
<g id="graph0" class="graph" transform="scale(1 1) rotate(0) translate(4 49)">
<title>CellSocietyView.makeFFButton</title>
<polygon fill="white" stroke="none" points="-4,4 -4,-49 1132,-49 1132,4 -4,4"/>
<!-- Node1 -->
<g id="node1" class="node"><title>Node1</title>
<polygon fill="#bfbfbf" stroke="black" points="0.5,-6.5 0.5,-25.5 163.5,-25.5 163.5,-6.5 0.5,-6.5"/>
<text text-anchor="middle" x="82" y="-13.5" font-family="Helvetica,sans-Serif" font-size="10.00">CellSocietyView.makeFFButton</text>
</g>
<!-- Node2 -->
<g id="node2" class="node"><title>Node2</title>
<g id="a_node2"><a xlink:href="../../df/df8/class_cell_society_view.html#a7bdbd4e8fd3893e672eb22015603f6dc" target="_top" xlink:title="CellSocietyView.makeButtons">
<polygon fill="white" stroke="black" points="200,-6.5 200,-25.5 358,-25.5 358,-6.5 200,-6.5"/>
<text text-anchor="middle" x="279" y="-13.5" font-family="Helvetica,sans-Serif" font-size="10.00">CellSocietyView.makeButtons</text>
</a>
</g>
</g>
<!-- Node1&#45;&gt;Node2 -->
<g id="edge1" class="edge"><title>Node1&#45;&gt;Node2</title>
<path fill="none" stroke="midnightblue" d="M173.865,-16C182.548,-16 191.301,-16 199.848,-16"/>
<polygon fill="midnightblue" stroke="midnightblue" points="173.722,-12.5001 163.722,-16 173.722,-19.5001 173.722,-12.5001"/>
</g>
<!-- Node3 -->
<g id="node3" class="node"><title>Node3</title>
<g id="a_node3"><a xlink:href="../../df/df8/class_cell_society_view.html#a6a72ed4ee014a9c3f0368ab26be873d6" target="_top" xlink:title="CellSocietyView.makeCAGame">
<polygon fill="white" stroke="black" points="394.5,-25.5 394.5,-44.5 557.5,-44.5 557.5,-25.5 394.5,-25.5"/>
<text text-anchor="middle" x="476" y="-32.5" font-family="Helvetica,sans-Serif" font-size="10.00">CellSocietyView.makeCAGame</text>
</a>
</g>
</g>
<!-- Node2&#45;&gt;Node3 -->
<g id="edge2" class="edge"><title>Node2&#45;&gt;Node3</title>
<path fill="none" stroke="midnightblue" d="M368.281,-24.6018C376.929,-25.4444 385.675,-26.2966 394.243,-27.1314"/>
<polygon fill="midnightblue" stroke="midnightblue" points="368.483,-21.1049 358.19,-23.6185 367.804,-28.0719 368.483,-21.1049"/>
</g>
<!-- Node4 -->
<g id="node4" class="node"><title>Node4</title>
<g id="a_node4"><a xlink:href="../../df/df8/class_cell_society_view.html#a2c047a3972078bb0a5490ed225ef2dfa" target="_top" xlink:title="CellSocietyView.loadNewFile">
<polygon fill="white" stroke="black" points="594.5,-25.5 594.5,-44.5 743.5,-44.5 743.5,-25.5 594.5,-25.5"/>
<text text-anchor="middle" x="669" y="-32.5" font-family="Helvetica,sans-Serif" font-size="10.00">CellSocietyView.loadNewFile</text>
</a>
</g>
</g>
<!-- Node3&#45;&gt;Node4 -->
<g id="edge3" class="edge"><title>Node3&#45;&gt;Node4</title>
<path fill="none" stroke="midnightblue" d="M568.006,-35C576.8,-35 585.645,-35 594.241,-35"/>
<polygon fill="midnightblue" stroke="midnightblue" points="567.724,-31.5001 557.724,-35 567.724,-38.5001 567.724,-31.5001"/>
</g>
<!-- Node5 -->
<g id="node5" class="node"><title>Node5</title>
<g id="a_node5"><a xlink:href="../../df/df8/class_cell_society_view.html#a656cfed0ba32bc41bbd0c4087860db4b" target="_top" xlink:title="CellSocietyView.makeLoad\lButton">
<polygon fill="white" stroke="black" points="780.5,-1 780.5,-31 923.5,-31 923.5,-1 780.5,-1"/>
<text text-anchor="start" x="788.5" y="-19" font-family="Helvetica,sans-Serif" font-size="10.00">CellSocietyView.makeLoad</text>
<text text-anchor="middle" x="852" y="-8" font-family="Helvetica,sans-Serif" font-size="10.00">Button</text>
</a>
</g>
</g>
<!-- Node4&#45;&gt;Node5 -->
<g id="edge4" class="edge"><title>Node4&#45;&gt;Node5</title>
<path fill="none" stroke="midnightblue" d="M753.651,-26.219C762.585,-25.2811 771.61,-24.3338 780.373,-23.4139"/>
<polygon fill="midnightblue" stroke="midnightblue" points="753.2,-22.747 743.62,-27.272 753.93,-29.7088 753.2,-22.747"/>
</g>
<!-- Node5&#45;&gt;Node2 -->
<g id="edge6" class="edge"><title>Node5&#45;&gt;Node2</title>
<path fill="none" stroke="midnightblue" d="M770.138,-16C660.597,-16 466.346,-16 358.198,-16"/>
<polygon fill="midnightblue" stroke="midnightblue" points="770.469,-19.5001 780.469,-16 770.469,-12.5001 770.469,-19.5001"/>
</g>
<!-- Node6 -->
<g id="node6" class="node"><title>Node6</title>
<g id="a_node6"><a xlink:href="../../df/df8/class_cell_society_view.html#a53ab66afdeb23b3fc89e54a44be7ced5" target="_top" xlink:title="CellSocietyView.CellSocietyView">
<polygon fill="white" stroke="black" points="960.5,-6.5 960.5,-25.5 1127.5,-25.5 1127.5,-6.5 960.5,-6.5"/>
<text text-anchor="middle" x="1044" y="-13.5" font-family="Helvetica,sans-Serif" font-size="10.00">CellSocietyView.CellSocietyView</text>
</a>
</g>
</g>
<!-- Node5&#45;&gt;Node6 -->
<g id="edge5" class="edge"><title>Node5&#45;&gt;Node6</title>
<path fill="none" stroke="midnightblue" d="M933.92,-16C942.663,-16 951.569,-16 960.332,-16"/>
<polygon fill="midnightblue" stroke="midnightblue" points="933.749,-12.5001 923.749,-16 933.749,-19.5001 933.749,-12.5001"/>
</g>
</g>
</svg>
