<?xml version="1.0" encoding="UTF-8" standalone="no"?>
<!DOCTYPE svg PUBLIC "-//W3C//DTD SVG 1.1//EN"
 "http://www.w3.org/Graphics/SVG/1.1/DTD/svg11.dtd">
<!-- Generated by graphviz version 2.36.0 (20140111.2315)
 -->
<!-- Title: CellSocietyView.makeButtons Pages: 1 -->
<svg width="936pt" height="53pt"
 viewBox="0.00 0.00 936.00 53.00" xmlns="http://www.w3.org/2000/svg" xmlns:xlink="http://www.w3.org/1999/xlink">
<g id="graph0" class="graph" transform="scale(1 1) rotate(0) translate(4 49)">
<title>CellSocietyView.makeButtons</title>
<polygon fill="white" stroke="none" points="-4,4 -4,-49 932,-49 932,4 -4,4"/>
<!-- Node1 -->
<g id="node1" class="node"><title>Node1</title>
<polygon fill="#bfbfbf" stroke="black" points="0,-6.5 0,-25.5 158,-25.5 158,-6.5 0,-6.5"/>
<text text-anchor="middle" x="79" y="-13.5" font-family="Helvetica,sans-Serif" font-size="10.00">CellSocietyView.makeButtons</text>
</g>
<!-- Node2 -->
<g id="node2" class="node"><title>Node2</title>
<g id="a_node2"><a xlink:href="../../df/df8/class_cell_society_view.html#a6a72ed4ee014a9c3f0368ab26be873d6" target="_top" xlink:title="CellSocietyView.makeCAGame">
<polygon fill="white" stroke="black" points="194.5,-25.5 194.5,-44.5 357.5,-44.5 357.5,-25.5 194.5,-25.5"/>
<text text-anchor="middle" x="276" y="-32.5" font-family="Helvetica,sans-Serif" font-size="10.00">CellSocietyView.makeCAGame</text>
</a>
</g>
</g>
<!-- Node1&#45;&gt;Node2 -->
<g id="edge1" class="edge"><title>Node1&#45;&gt;Node2</title>
<path fill="none" stroke="midnightblue" d="M168.281,-24.6018C176.929,-25.4444 185.675,-26.2966 194.243,-27.1314"/>
<polygon fill="midnightblue" stroke="midnightblue" points="168.483,-21.1049 158.19,-23.6185 167.804,-28.0719 168.483,-21.1049"/>
</g>
<!-- Node3 -->
<g id="node3" class="node"><title>Node3</title>
<g id="a_node3"><a xlink:href="../../df/df8/class_cell_society_view.html#a2c047a3972078bb0a5490ed225ef2dfa" target="_top" xlink:title="CellSocietyView.loadNewFile">
<polygon fill="white" stroke="black" points="394.5,-25.5 394.5,-44.5 543.5,-44.5 543.5,-25.5 394.5,-25.5"/>
<text text-anchor="middle" x="469" y="-32.5" font-family="Helvetica,sans-Serif" font-size="10.00">CellSocietyView.loadNewFile</text>
</a>
</g>
</g>
<!-- Node2&#45;&gt;Node3 -->
<g id="edge2" class="edge"><title>Node2&#45;&gt;Node3</title>
<path fill="none" stroke="midnightblue" d="M368.006,-35C376.8,-35 385.645,-35 394.241,-35"/>
<polygon fill="midnightblue" stroke="midnightblue" points="367.724,-31.5001 357.724,-35 367.724,-38.5001 367.724,-31.5001"/>
</g>
<!-- Node4 -->
<g id="node4" class="node"><title>Node4</title>
<g id="a_node4"><a xlink:href="../../df/df8/class_cell_society_view.html#a656cfed0ba32bc41bbd0c4087860db4b" target="_top" xlink:title="CellSocietyView.makeLoad\lButton">
<polygon fill="white" stroke="black" points="580.5,-1 580.5,-31 723.5,-31 723.5,-1 580.5,-1"/>
<text text-anchor="start" x="588.5" y="-19" font-family="Helvetica,sans-Serif" font-size="10.00">CellSocietyView.makeLoad</text>
<text text-anchor="middle" x="652" y="-8" font-family="Helvetica,sans-Serif" font-size="10.00">Button</text>
</a>
</g>
</g>
<!-- Node3&#45;&gt;Node4 -->
<g id="edge3" class="edge"><title>Node3&#45;&gt;Node4</title>
<path fill="none" stroke="midnightblue" d="M553.651,-26.219C562.585,-25.2811 571.61,-24.3338 580.373,-23.4139"/>
<polygon fill="midnightblue" stroke="midnightblue" points="553.2,-22.747 543.62,-27.272 553.93,-29.7088 553.2,-22.747"/>
</g>
<!-- Node4&#45;&gt;Node1 -->
<g id="edge5" class="edge"><title>Node4&#45;&gt;Node1</title>
<path fill="none" stroke="midnightblue" d="M570.138,-16C460.597,-16 266.346,-16 158.198,-16"/>
<polygon fill="midnightblue" stroke="midnightblue" points="570.469,-19.5001 580.469,-16 570.469,-12.5001 570.469,-19.5001"/>
</g>
<!-- Node5 -->
<g id="node5" class="node"><title>Node5</title>
<g id="a_node5"><a xlink:href="../../df/df8/class_cell_society_view.html#a53ab66afdeb23b3fc89e54a44be7ced5" target="_top" xlink:title="CellSocietyView.CellSocietyView">
<polygon fill="white" stroke="black" points="760.5,-6.5 760.5,-25.5 927.5,-25.5 927.5,-6.5 760.5,-6.5"/>
<text text-anchor="middle" x="844" y="-13.5" font-family="Helvetica,sans-Serif" font-size="10.00">CellSocietyView.CellSocietyView</text>
</a>
</g>
</g>
<!-- Node4&#45;&gt;Node5 -->
<g id="edge4" class="edge"><title>Node4&#45;&gt;Node5</title>
<path fill="none" stroke="midnightblue" d="M733.92,-16C742.663,-16 751.569,-16 760.332,-16"/>
<polygon fill="midnightblue" stroke="midnightblue" points="733.749,-12.5001 723.749,-16 733.749,-19.5001 733.749,-12.5001"/>
</g>
</g>
</svg>
