<?xml version="1.0" encoding="UTF-8" standalone="no"?>
<!DOCTYPE svg PUBLIC "-//W3C//DTD SVG 1.1//EN"
 "http://www.w3.org/Graphics/SVG/1.1/DTD/svg11.dtd">
<!-- Generated by graphviz version 2.36.0 (20140111.2315)
 -->
<!-- Title: CellSocietyView.updateView Pages: 1 -->
<svg width="1296pt" height="66pt"
 viewBox="0.00 0.00 1296.00 66.00" xmlns="http://www.w3.org/2000/svg" xmlns:xlink="http://www.w3.org/1999/xlink">
<g id="graph0" class="graph" transform="scale(1 1) rotate(0) translate(4 62)">
<title>CellSocietyView.updateView</title>
<polygon fill="white" stroke="none" points="-4,4 -4,-62 1292,-62 1292,4 -4,4"/>
<!-- Node1 -->
<g id="node1" class="node"><title>Node1</title>
<polygon fill="#bfbfbf" stroke="black" points="0.5,-19.5 0.5,-38.5 149.5,-38.5 149.5,-19.5 0.5,-19.5"/>
<text text-anchor="middle" x="75" y="-26.5" font-family="Helvetica,sans-Serif" font-size="10.00">CellSocietyView.updateView</text>
</g>
<!-- Node2 -->
<g id="node2" class="node"><title>Node2</title>
<g id="a_node2"><a xlink:href="../../df/df8/class_cell_society_view.html#a7bdbd4e8fd3893e672eb22015603f6dc" target="_top" xlink:title="CellSocietyView.makeButtons">
<polygon fill="white" stroke="black" points="187,-0.5 187,-19.5 345,-19.5 345,-0.5 187,-0.5"/>
<text text-anchor="middle" x="266" y="-7.5" font-family="Helvetica,sans-Serif" font-size="10.00">CellSocietyView.makeButtons</text>
</a>
</g>
</g>
<!-- Node1&#45;&gt;Node2 -->
<g id="edge1" class="edge"><title>Node1&#45;&gt;Node2</title>
<path fill="none" stroke="midnightblue" d="M159.739,-20.5818C168.773,-19.6737 177.939,-18.7521 186.903,-17.851"/>
<polygon fill="midnightblue" stroke="midnightblue" points="159.213,-17.1169 149.614,-21.5997 159.913,-24.0818 159.213,-17.1169"/>
</g>
<!-- Node8 -->
<g id="node8" class="node"><title>Node8</title>
<g id="a_node8"><a xlink:href="../../df/df8/class_cell_society_view.html#adf6a6b0542d00677a9fffbb8e3c03ffe" target="_top" xlink:title="CellSocietyView.makeTimeline">
<polygon fill="white" stroke="black" points="186,-38.5 186,-57.5 346,-57.5 346,-38.5 186,-38.5"/>
<text text-anchor="middle" x="266" y="-45.5" font-family="Helvetica,sans-Serif" font-size="10.00">CellSocietyView.makeTimeline</text>
</a>
</g>
</g>
<!-- Node1&#45;&gt;Node8 -->
<g id="edge8" class="edge"><title>Node1&#45;&gt;Node8</title>
<path fill="none" stroke="midnightblue" d="M159.763,-37.4207C168.473,-38.2962 177.306,-39.1842 185.961,-40.0543"/>
<polygon fill="midnightblue" stroke="midnightblue" points="159.913,-33.9182 149.614,-36.4003 159.213,-40.8831 159.913,-33.9182"/>
</g>
<!-- Node3 -->
<g id="node3" class="node"><title>Node3</title>
<g id="a_node3"><a xlink:href="../../df/df8/class_cell_society_view.html#a767ab215ca329ba41b1493702141f841" target="_top" xlink:title="CellSocietyView.makeCAGame">
<polygon fill="white" stroke="black" points="382.5,-38.5 382.5,-57.5 545.5,-57.5 545.5,-38.5 382.5,-38.5"/>
<text text-anchor="middle" x="464" y="-45.5" font-family="Helvetica,sans-Serif" font-size="10.00">CellSocietyView.makeCAGame</text>
</a>
</g>
</g>
<!-- Node2&#45;&gt;Node3 -->
<g id="edge2" class="edge"><title>Node2&#45;&gt;Node3</title>
<path fill="none" stroke="midnightblue" d="M326.261,-21.4894C354.227,-26.9114 387.209,-33.3058 413.774,-38.4561"/>
<polygon fill="midnightblue" stroke="midnightblue" points="326.689,-18.0073 316.206,-19.54 325.357,-24.8794 326.689,-18.0073"/>
</g>
<!-- Node4 -->
<g id="node4" class="node"><title>Node4</title>
<g id="a_node4"><a xlink:href="../../df/df8/class_cell_society_view.html#a2ee793e471cc5731ce39c1450f058dd5" target="_top" xlink:title="CellSocietyView.parseFile">
<polygon fill="white" stroke="black" points="582.5,-38.5 582.5,-57.5 717.5,-57.5 717.5,-38.5 582.5,-38.5"/>
<text text-anchor="middle" x="650" y="-45.5" font-family="Helvetica,sans-Serif" font-size="10.00">CellSocietyView.parseFile</text>
</a>
</g>
</g>
<!-- Node3&#45;&gt;Node4 -->
<g id="edge3" class="edge"><title>Node3&#45;&gt;Node4</title>
<path fill="none" stroke="midnightblue" d="M555.807,-48C564.777,-48 573.762,-48 582.42,-48"/>
<polygon fill="midnightblue" stroke="midnightblue" points="555.705,-44.5001 545.705,-48 555.705,-51.5001 555.705,-44.5001"/>
</g>
<!-- Node5 -->
<g id="node5" class="node"><title>Node5</title>
<g id="a_node5"><a xlink:href="../../df/df8/class_cell_society_view.html#a2c047a3972078bb0a5490ed225ef2dfa" target="_top" xlink:title="CellSocietyView.loadNewFile">
<polygon fill="white" stroke="black" points="754.5,-38.5 754.5,-57.5 903.5,-57.5 903.5,-38.5 754.5,-38.5"/>
<text text-anchor="middle" x="829" y="-45.5" font-family="Helvetica,sans-Serif" font-size="10.00">CellSocietyView.loadNewFile</text>
</a>
</g>
</g>
<!-- Node4&#45;&gt;Node5 -->
<g id="edge4" class="edge"><title>Node4&#45;&gt;Node5</title>
<path fill="none" stroke="midnightblue" d="M727.865,-48C736.633,-48 745.557,-48 754.283,-48"/>
<polygon fill="midnightblue" stroke="midnightblue" points="727.664,-44.5001 717.664,-48 727.664,-51.5001 727.664,-44.5001"/>
</g>
<!-- Node6 -->
<g id="node6" class="node"><title>Node6</title>
<g id="a_node6"><a xlink:href="../../df/df8/class_cell_society_view.html#a656cfed0ba32bc41bbd0c4087860db4b" target="_top" xlink:title="CellSocietyView.makeLoad\lButton">
<polygon fill="white" stroke="black" points="940.5,-14 940.5,-44 1083.5,-44 1083.5,-14 940.5,-14"/>
<text text-anchor="start" x="948.5" y="-32" font-family="Helvetica,sans-Serif" font-size="10.00">CellSocietyView.makeLoad</text>
<text text-anchor="middle" x="1012" y="-21" font-family="Helvetica,sans-Serif" font-size="10.00">Button</text>
</a>
</g>
</g>
<!-- Node5&#45;&gt;Node6 -->
<g id="edge5" class="edge"><title>Node5&#45;&gt;Node6</title>
<path fill="none" stroke="midnightblue" d="M913.651,-39.219C922.585,-38.2811 931.61,-37.3338 940.373,-36.4139"/>
<polygon fill="midnightblue" stroke="midnightblue" points="913.2,-35.747 903.62,-40.272 913.93,-42.7088 913.2,-35.747"/>
</g>
<!-- Node6&#45;&gt;Node2 -->
<g id="edge7" class="edge"><title>Node6&#45;&gt;Node2</title>
<path fill="none" stroke="midnightblue" d="M930.305,-26.9392C786.408,-23.2644 487.307,-15.6261 345.215,-11.9974"/>
<polygon fill="midnightblue" stroke="midnightblue" points="930.307,-30.4403 940.393,-27.1969 930.486,-23.4426 930.307,-30.4403"/>
</g>
<!-- Node7 -->
<g id="node7" class="node"><title>Node7</title>
<g id="a_node7"><a xlink:href="../../df/df8/class_cell_society_view.html#a53ab66afdeb23b3fc89e54a44be7ced5" target="_top" xlink:title="CellSocietyView.CellSocietyView">
<polygon fill="white" stroke="black" points="1120.5,-19.5 1120.5,-38.5 1287.5,-38.5 1287.5,-19.5 1120.5,-19.5"/>
<text text-anchor="middle" x="1204" y="-26.5" font-family="Helvetica,sans-Serif" font-size="10.00">CellSocietyView.CellSocietyView</text>
</a>
</g>
</g>
<!-- Node6&#45;&gt;Node7 -->
<g id="edge6" class="edge"><title>Node6&#45;&gt;Node7</title>
<path fill="none" stroke="midnightblue" d="M1093.92,-29C1102.66,-29 1111.57,-29 1120.33,-29"/>
<polygon fill="midnightblue" stroke="midnightblue" points="1093.75,-25.5001 1083.75,-29 1093.75,-32.5001 1093.75,-25.5001"/>
</g>
<!-- Node8&#45;&gt;Node3 -->
<g id="edge9" class="edge"><title>Node8&#45;&gt;Node3</title>
<path fill="none" stroke="midnightblue" d="M356.271,-48C364.937,-48 373.696,-48 382.272,-48"/>
<polygon fill="midnightblue" stroke="midnightblue" points="356.156,-44.5001 346.156,-48 356.156,-51.5001 356.156,-44.5001"/>
</g>
</g>
</svg>
