<?xml version="1.0" encoding="UTF-8" standalone="no"?>
<!DOCTYPE svg PUBLIC "-//W3C//DTD SVG 1.1//EN"
 "http://www.w3.org/Graphics/SVG/1.1/DTD/svg11.dtd">
<!-- Generated by graphviz version 2.36.0 (20140111.2315)
 -->
<!-- Title: CellSocietyView.makeStepButton Pages: 1 -->
<svg width="1288pt" height="53pt"
 viewBox="0.00 0.00 1288.00 53.00" xmlns="http://www.w3.org/2000/svg" xmlns:xlink="http://www.w3.org/1999/xlink">
<g id="graph0" class="graph" transform="scale(1 1) rotate(0) translate(4 49)">
<title>CellSocietyView.makeStepButton</title>
<polygon fill="white" stroke="none" points="-4,4 -4,-49 1284,-49 1284,4 -4,4"/>
<!-- Node1 -->
<g id="node1" class="node"><title>Node1</title>
<polygon fill="#bfbfbf" stroke="black" points="0.5,-1 0.5,-31 143.5,-31 143.5,-1 0.5,-1"/>
<text text-anchor="start" x="8.5" y="-19" font-family="Helvetica,sans-Serif" font-size="10.00">CellSocietyView.makeStep</text>
<text text-anchor="middle" x="72" y="-8" font-family="Helvetica,sans-Serif" font-size="10.00">Button</text>
</g>
<!-- Node2 -->
<g id="node2" class="node"><title>Node2</title>
<g id="a_node2"><a xlink:href="../../df/df8/class_cell_society_view.html#a7bdbd4e8fd3893e672eb22015603f6dc" target="_top" xlink:title="CellSocietyView.makeButtons">
<polygon fill="white" stroke="black" points="180,-6.5 180,-25.5 338,-25.5 338,-6.5 180,-6.5"/>
<text text-anchor="middle" x="259" y="-13.5" font-family="Helvetica,sans-Serif" font-size="10.00">CellSocietyView.makeButtons</text>
</a>
</g>
</g>
<!-- Node1&#45;&gt;Node2 -->
<g id="edge1" class="edge"><title>Node1&#45;&gt;Node2</title>
<path fill="none" stroke="midnightblue" d="M153.817,-16C162.478,-16 171.278,-16 179.906,-16"/>
<polygon fill="midnightblue" stroke="midnightblue" points="153.732,-12.5001 143.732,-16 153.732,-19.5001 153.732,-12.5001"/>
</g>
<!-- Node3 -->
<g id="node3" class="node"><title>Node3</title>
<g id="a_node3"><a xlink:href="../../df/df8/class_cell_society_view.html#a767ab215ca329ba41b1493702141f841" target="_top" xlink:title="CellSocietyView.makeCAGame">
<polygon fill="white" stroke="black" points="374.5,-25.5 374.5,-44.5 537.5,-44.5 537.5,-25.5 374.5,-25.5"/>
<text text-anchor="middle" x="456" y="-32.5" font-family="Helvetica,sans-Serif" font-size="10.00">CellSocietyView.makeCAGame</text>
</a>
</g>
</g>
<!-- Node2&#45;&gt;Node3 -->
<g id="edge2" class="edge"><title>Node2&#45;&gt;Node3</title>
<path fill="none" stroke="midnightblue" d="M348.281,-24.6018C356.929,-25.4444 365.675,-26.2966 374.243,-27.1314"/>
<polygon fill="midnightblue" stroke="midnightblue" points="348.483,-21.1049 338.19,-23.6185 347.804,-28.0719 348.483,-21.1049"/>
</g>
<!-- Node4 -->
<g id="node4" class="node"><title>Node4</title>
<g id="a_node4"><a xlink:href="../../df/df8/class_cell_society_view.html#a2ee793e471cc5731ce39c1450f058dd5" target="_top" xlink:title="CellSocietyView.parseFile">
<polygon fill="white" stroke="black" points="574.5,-25.5 574.5,-44.5 709.5,-44.5 709.5,-25.5 574.5,-25.5"/>
<text text-anchor="middle" x="642" y="-32.5" font-family="Helvetica,sans-Serif" font-size="10.00">CellSocietyView.parseFile</text>
</a>
</g>
</g>
<!-- Node3&#45;&gt;Node4 -->
<g id="edge3" class="edge"><title>Node3&#45;&gt;Node4</title>
<path fill="none" stroke="midnightblue" d="M547.807,-35C556.777,-35 565.762,-35 574.42,-35"/>
<polygon fill="midnightblue" stroke="midnightblue" points="547.705,-31.5001 537.705,-35 547.705,-38.5001 547.705,-31.5001"/>
</g>
<!-- Node5 -->
<g id="node5" class="node"><title>Node5</title>
<g id="a_node5"><a xlink:href="../../df/df8/class_cell_society_view.html#a2c047a3972078bb0a5490ed225ef2dfa" target="_top" xlink:title="CellSocietyView.loadNewFile">
<polygon fill="white" stroke="black" points="746.5,-25.5 746.5,-44.5 895.5,-44.5 895.5,-25.5 746.5,-25.5"/>
<text text-anchor="middle" x="821" y="-32.5" font-family="Helvetica,sans-Serif" font-size="10.00">CellSocietyView.loadNewFile</text>
</a>
</g>
</g>
<!-- Node4&#45;&gt;Node5 -->
<g id="edge4" class="edge"><title>Node4&#45;&gt;Node5</title>
<path fill="none" stroke="midnightblue" d="M719.865,-35C728.633,-35 737.557,-35 746.283,-35"/>
<polygon fill="midnightblue" stroke="midnightblue" points="719.664,-31.5001 709.664,-35 719.664,-38.5001 719.664,-31.5001"/>
</g>
<!-- Node6 -->
<g id="node6" class="node"><title>Node6</title>
<g id="a_node6"><a xlink:href="../../df/df8/class_cell_society_view.html#a656cfed0ba32bc41bbd0c4087860db4b" target="_top" xlink:title="CellSocietyView.makeLoad\lButton">
<polygon fill="white" stroke="black" points="932.5,-1 932.5,-31 1075.5,-31 1075.5,-1 932.5,-1"/>
<text text-anchor="start" x="940.5" y="-19" font-family="Helvetica,sans-Serif" font-size="10.00">CellSocietyView.makeLoad</text>
<text text-anchor="middle" x="1004" y="-8" font-family="Helvetica,sans-Serif" font-size="10.00">Button</text>
</a>
</g>
</g>
<!-- Node5&#45;&gt;Node6 -->
<g id="edge5" class="edge"><title>Node5&#45;&gt;Node6</title>
<path fill="none" stroke="midnightblue" d="M905.651,-26.219C914.585,-25.2811 923.61,-24.3338 932.373,-23.4139"/>
<polygon fill="midnightblue" stroke="midnightblue" points="905.2,-22.747 895.62,-27.272 905.93,-29.7088 905.2,-22.747"/>
</g>
<!-- Node6&#45;&gt;Node2 -->
<g id="edge7" class="edge"><title>Node6&#45;&gt;Node2</title>
<path fill="none" stroke="midnightblue" d="M922.414,-16C778.71,-16 480.011,-16 338.11,-16"/>
<polygon fill="midnightblue" stroke="midnightblue" points="922.488,-19.5001 932.488,-16 922.488,-12.5001 922.488,-19.5001"/>
</g>
<!-- Node7 -->
<g id="node7" class="node"><title>Node7</title>
<g id="a_node7"><a xlink:href="../../df/df8/class_cell_society_view.html#a53ab66afdeb23b3fc89e54a44be7ced5" target="_top" xlink:title="CellSocietyView.CellSocietyView">
<polygon fill="white" stroke="black" points="1112.5,-6.5 1112.5,-25.5 1279.5,-25.5 1279.5,-6.5 1112.5,-6.5"/>
<text text-anchor="middle" x="1196" y="-13.5" font-family="Helvetica,sans-Serif" font-size="10.00">CellSocietyView.CellSocietyView</text>
</a>
</g>
</g>
<!-- Node6&#45;&gt;Node7 -->
<g id="edge6" class="edge"><title>Node6&#45;&gt;Node7</title>
<path fill="none" stroke="midnightblue" d="M1085.92,-16C1094.66,-16 1103.57,-16 1112.33,-16"/>
<polygon fill="midnightblue" stroke="midnightblue" points="1085.75,-12.5001 1075.75,-16 1085.75,-19.5001 1085.75,-12.5001"/>
</g>
</g>
</svg>
