<?xml version="1.0" encoding="UTF-8" standalone="no"?>
<!DOCTYPE svg PUBLIC "-//W3C//DTD SVG 1.1//EN"
 "http://www.w3.org/Graphics/SVG/1.1/DTD/svg11.dtd">
<!-- Generated by graphviz version 2.36.0 (20140111.2315)
 -->
<!-- Title: CellSocietyView.makeButtons Pages: 1 -->
<!--zoomable 451 -->
<svg id="main" version="1.1" xmlns="http://www.w3.org/2000/svg" xmlns:xlink="http://www.w3.org/1999/xlink" xml:space="preserve" onload="init(evt)">
<style type="text/css"><![CDATA[
.edge:hover path { stroke: red; }
.edge:hover polygon { stroke: red; fill: red; }
]]></style>
<script type="text/javascript"><![CDATA[
var edges = document.getElementsByTagName('g');
if (edges && edges.length) {
  for (var i=0;i<edges.length;i++) {
    if (edges[i].id.substr(0,4)=='edge') {
      edges[i].setAttribute('class','edge');
    }
  }
}
]]></script>
        <defs>
                <circle id="rim" cx="0" cy="0" r="7"/>
                <circle id="rim2" cx="0" cy="0" r="3.5"/>
                <g id="zoomPlus">
                        <use xlink:href="#rim" fill="#404040">
                                <set attributeName="fill" to="#808080" begin="zoomplus.mouseover" end="zoomplus.mouseout"/>
                        </use>
                        <path d="M-4,0h8M0,-4v8" fill="none" stroke="white" stroke-width="1.5" pointer-events="none"/>
                </g>
                <g id="zoomMin">
                        <use xlink:href="#rim" fill="#404040">
                                <set attributeName="fill" to="#808080" begin="zoomminus.mouseover" end="zoomminus.mouseout"/>
                        </use>
                        <path d="M-4,0h8" fill="none" stroke="white" stroke-width="1.5" pointer-events="none"/>
                </g>
                <g id="dirArrow">
                        <path fill="none" stroke="white" stroke-width="1.5" d="M0,-3.0v7 M-2.5,-0.5L0,-3.0L2.5,-0.5"/>
                </g>
               <g id="resetDef">
                       <use xlink:href="#rim2" fill="#404040">
                               <set attributeName="fill" to="#808080" begin="reset.mouseover" end="reset.mouseout"/>
                       </use>
               </g>
        </defs>

<script type="text/javascript">
var viewWidth = 1742;
var viewHeight = 451;
var sectionId = 'dynsection-5';
</script>
<script xlink:href="../../svgpan.js"/>
<svg id="graph" class="graph">
<g id="viewport">
<title>CellSocietyView.makeButtons</title>
<polygon fill="white" stroke="none" points="-4,4 -4,-446.718 1738,-446.718 1738,4 -4,4"/>
<!-- Node1 -->
<g id="node1" class="node"><title>Node1</title>
<polygon fill="#bfbfbf" stroke="black" points="0,-132.707 0,-151.707 158,-151.707 158,-132.707 0,-132.707"/>
<text text-anchor="middle" x="79" y="-139.707" font-family="Helvetica,sans-Serif" font-size="10.00">CellSocietyView.makeButtons</text>
</g>
<!-- Node2 -->
<g id="node2" class="node"><title>Node2</title>
<g id="a_node2"><a xlink:href="../../df/df8/class_cell_society_view.html#ae4f695e25edd84b67be004d3b1a7a437" target="_top" xlink:title="CellSocietyView.makeFFButton">
<polygon fill="white" stroke="black" points="194.5,-225.707 194.5,-244.707 357.5,-244.707 357.5,-225.707 194.5,-225.707"/>
<text text-anchor="middle" x="276" y="-232.707" font-family="Helvetica,sans-Serif" font-size="10.00">CellSocietyView.makeFFButton</text>
</a>
</g>
</g>
<!-- Node1&#45;&gt;Node2 -->
<g id="edge1" class="edge"><title>Node1&#45;&gt;Node2</title>
<path fill="none" stroke="midnightblue" d="M91.9007,-151.725C111.856,-167.233 153.837,-197.95 194,-215.207 200.771,-218.116 208.049,-220.659 215.366,-222.866"/>
<polygon fill="midnightblue" stroke="midnightblue" points="214.75,-226.328 225.324,-225.67 216.648,-219.59 214.75,-226.328"/>
</g>
<!-- Node4 -->
<g id="node4" class="node"><title>Node4</title>
<g id="a_node4"><a xlink:href="../../df/df8/class_cell_society_view.html#a656cfed0ba32bc41bbd0c4087860db4b" target="_top" xlink:title="CellSocietyView.makeLoad\lButton">
<polygon fill="white" stroke="black" points="204.5,-264.207 204.5,-294.207 347.5,-294.207 347.5,-264.207 204.5,-264.207"/>
<text text-anchor="start" x="212.5" y="-282.207" font-family="Helvetica,sans-Serif" font-size="10.00">CellSocietyView.makeLoad</text>
<text text-anchor="middle" x="276" y="-271.207" font-family="Helvetica,sans-Serif" font-size="10.00">Button</text>
</a>
</g>
</g>
<!-- Node1&#45;&gt;Node4 -->
<g id="edge3" class="edge"><title>Node1&#45;&gt;Node4</title>
<path fill="none" stroke="midnightblue" d="M87.1379,-151.859C103.572,-173.408 146.347,-225.774 194,-254.207 197.626,-256.37 201.456,-258.362 205.399,-260.195"/>
<polygon fill="midnightblue" stroke="midnightblue" points="204.191,-263.485 214.763,-264.186 206.936,-257.045 204.191,-263.485"/>
</g>
<!-- Node31 -->
<g id="node31" class="node"><title>Node31</title>
<g id="a_node31"><a xlink:href="../../df/df8/class_cell_society_view.html#ae177299e365c8c48502004eb87a03cf1" target="_top" xlink:title="CellSocietyView.makePause\lButton">
<polygon fill="white" stroke="black" points="201.5,-176.207 201.5,-206.207 350.5,-206.207 350.5,-176.207 201.5,-176.207"/>
<text text-anchor="start" x="209.5" y="-194.207" font-family="Helvetica,sans-Serif" font-size="10.00">CellSocietyView.makePause</text>
<text text-anchor="middle" x="276" y="-183.207" font-family="Helvetica,sans-Serif" font-size="10.00">Button</text>
</a>
</g>
</g>
<!-- Node1&#45;&gt;Node31 -->
<g id="edge37" class="edge"><title>Node1&#45;&gt;Node31</title>
<path fill="none" stroke="midnightblue" d="M118.061,-151.771C142.856,-158.002 175.945,-166.316 205.347,-173.704"/>
<polygon fill="midnightblue" stroke="midnightblue" points="204.608,-177.127 215.159,-176.17 206.314,-170.338 204.608,-177.127"/>
</g>
<!-- Node32 -->
<g id="node32" class="node"><title>Node32</title>
<g id="a_node32"><a xlink:href="../../df/df8/class_cell_society_view.html#a1531c1a5ad4e0630046bfe4e8c3127e8" target="_top" xlink:title="CellSocietyView.makePlay\lButton">
<polygon fill="white" stroke="black" points="206,-127.207 206,-157.207 346,-157.207 346,-127.207 206,-127.207"/>
<text text-anchor="start" x="214" y="-145.207" font-family="Helvetica,sans-Serif" font-size="10.00">CellSocietyView.makePlay</text>
<text text-anchor="middle" x="276" y="-134.207" font-family="Helvetica,sans-Serif" font-size="10.00">Button</text>
</a>
</g>
</g>
<!-- Node1&#45;&gt;Node32 -->
<g id="edge39" class="edge"><title>Node1&#45;&gt;Node32</title>
<path fill="none" stroke="midnightblue" d="M158.19,-142.207C170.525,-142.207 183.288,-142.207 195.648,-142.207"/>
<polygon fill="midnightblue" stroke="midnightblue" points="195.918,-145.707 205.918,-142.207 195.918,-138.707 195.918,-145.707"/>
</g>
<!-- Node33 -->
<g id="node33" class="node"><title>Node33</title>
<g id="a_node33"><a xlink:href="../../df/df8/class_cell_society_view.html#a304edeb753eed8cedb1c8e0ad952a4d8" target="_top" xlink:title="CellSocietyView.makeSlow\lButton">
<polygon fill="white" stroke="black" points="205,-78.2068 205,-108.207 347,-108.207 347,-78.2068 205,-78.2068"/>
<text text-anchor="start" x="213" y="-96.2068" font-family="Helvetica,sans-Serif" font-size="10.00">CellSocietyView.makeSlow</text>
<text text-anchor="middle" x="276" y="-85.2068" font-family="Helvetica,sans-Serif" font-size="10.00">Button</text>
</a>
</g>
</g>
<!-- Node1&#45;&gt;Node33 -->
<g id="edge41" class="edge"><title>Node1&#45;&gt;Node33</title>
<path fill="none" stroke="midnightblue" d="M118.061,-132.643C142.856,-126.412 175.945,-118.097 205.347,-110.709"/>
<polygon fill="midnightblue" stroke="midnightblue" points="206.314,-114.075 215.159,-108.244 204.608,-107.286 206.314,-114.075"/>
</g>
<!-- Node34 -->
<g id="node34" class="node"><title>Node34</title>
<g id="a_node34"><a xlink:href="../../df/df8/class_cell_society_view.html#aec6e94a6cf275f0b5d64a4b8adccd7d0" target="_top" xlink:title="CellSocietyView.makeStep\lButton">
<polygon fill="white" stroke="black" points="204.5,-29.2068 204.5,-59.2068 347.5,-59.2068 347.5,-29.2068 204.5,-29.2068"/>
<text text-anchor="start" x="212.5" y="-47.2068" font-family="Helvetica,sans-Serif" font-size="10.00">CellSocietyView.makeStep</text>
<text text-anchor="middle" x="276" y="-36.2068" font-family="Helvetica,sans-Serif" font-size="10.00">Button</text>
</a>
</g>
</g>
<!-- Node1&#45;&gt;Node34 -->
<g id="edge43" class="edge"><title>Node1&#45;&gt;Node34</title>
<path fill="none" stroke="midnightblue" d="M92.2944,-132.505C112.476,-116.988 154.356,-86.4798 194,-68.2068 198.271,-66.2383 202.742,-64.3865 207.297,-62.6529"/>
<polygon fill="midnightblue" stroke="midnightblue" points="208.502,-65.9393 216.727,-59.2611 206.132,-59.3524 208.502,-65.9393"/>
</g>
<!-- Node3 -->
<g id="node3" class="node"><title>Node3</title>
<g id="a_node3"><a xlink:href="../../df/df8/class_cell_society_view.html#ae09ddc20f81e90312e628d712a5c6afc" target="_top" xlink:title="CellSocietyView.makeUIButton">
<polygon fill="white" stroke="black" points="394,-156.707 394,-175.707 556,-175.707 556,-156.707 394,-156.707"/>
<text text-anchor="middle" x="475" y="-163.707" font-family="Helvetica,sans-Serif" font-size="10.00">CellSocietyView.makeUIButton</text>
</a>
</g>
</g>
<!-- Node2&#45;&gt;Node3 -->
<g id="edge2" class="edge"><title>Node2&#45;&gt;Node3</title>
<path fill="none" stroke="midnightblue" d="M321.08,-225.659C333.159,-222.682 346.179,-219.136 358,-215.207 388.134,-205.192 421.416,-190.767 444.573,-180.161"/>
<polygon fill="midnightblue" stroke="midnightblue" points="446.233,-183.249 453.839,-175.873 443.293,-176.896 446.233,-183.249"/>
</g>
<!-- Node4&#45;&gt;Node3 -->
<g id="edge4" class="edge"><title>Node4&#45;&gt;Node3</title>
<path fill="none" stroke="midnightblue" d="M334.642,-264.163C342.667,-261.283 350.668,-257.97 358,-254.207 396.288,-234.556 434.954,-202.122 456.561,-182.599"/>
<polygon fill="midnightblue" stroke="midnightblue" points="458.968,-185.141 463.971,-175.802 454.236,-179.982 458.968,-185.141"/>
</g>
<!-- Node5 -->
<g id="node5" class="node"><title>Node5</title>
<g id="a_node5"><a xlink:href="../../df/df8/class_cell_society_view.html#a2c047a3972078bb0a5490ed225ef2dfa" target="_top" xlink:title="CellSocietyView.loadNewFile">
<polygon fill="white" stroke="black" points="400.5,-269.707 400.5,-288.707 549.5,-288.707 549.5,-269.707 400.5,-269.707"/>
<text text-anchor="middle" x="475" y="-276.707" font-family="Helvetica,sans-Serif" font-size="10.00">CellSocietyView.loadNewFile</text>
</a>
</g>
</g>
<!-- Node4&#45;&gt;Node5 -->
<g id="edge5" class="edge"><title>Node4&#45;&gt;Node5</title>
<path fill="none" stroke="midnightblue" d="M347.565,-279.207C361.335,-279.207 375.9,-279.207 390.054,-279.207"/>
<polygon fill="midnightblue" stroke="midnightblue" points="390.271,-282.707 400.271,-279.207 390.271,-275.707 390.271,-282.707"/>
</g>
<!-- Node6 -->
<g id="node6" class="node"><title>Node6</title>
<g id="a_node6"><a xlink:href="../../d7/db3/class_x_m_l_reader.html#a9f7a6e53fc5114be22cbd0b9f6184ef0" target="_top" xlink:title="XMLReader.chooseFile">
<polygon fill="white" stroke="black" points="613.5,-332.707 613.5,-351.707 734.5,-351.707 734.5,-332.707 613.5,-332.707"/>
<text text-anchor="middle" x="674" y="-339.707" font-family="Helvetica,sans-Serif" font-size="10.00">XMLReader.chooseFile</text>
</a>
</g>
</g>
<!-- Node5&#45;&gt;Node6 -->
<g id="edge6" class="edge"><title>Node5&#45;&gt;Node6</title>
<path fill="none" stroke="midnightblue" d="M505.92,-288.775C540.009,-299.677 595.852,-317.535 633.495,-329.573"/>
<polygon fill="midnightblue" stroke="midnightblue" points="632.531,-332.939 643.122,-332.652 634.663,-326.272 632.531,-332.939"/>
</g>
<!-- Node8 -->
<g id="node8" class="node"><title>Node8</title>
<g id="a_node8"><a xlink:href="../../df/df8/class_cell_society_view.html#a6a72ed4ee014a9c3f0368ab26be873d6" target="_top" xlink:title="CellSocietyView.makeCAGame">
<polygon fill="white" stroke="black" points="592.5,-213.707 592.5,-232.707 755.5,-232.707 755.5,-213.707 592.5,-213.707"/>
<text text-anchor="middle" x="674" y="-220.707" font-family="Helvetica,sans-Serif" font-size="10.00">CellSocietyView.makeCAGame</text>
</a>
</g>
</g>
<!-- Node5&#45;&gt;Node8 -->
<g id="edge8" class="edge"><title>Node5&#45;&gt;Node8</title>
<path fill="none" stroke="midnightblue" d="M509.866,-269.58C543.049,-260.147 593.755,-245.733 629.819,-235.482"/>
<polygon fill="midnightblue" stroke="midnightblue" points="630.915,-238.809 639.576,-232.708 629,-232.076 630.915,-238.809"/>
</g>
<!-- Node7 -->
<g id="node7" class="node"><title>Node7</title>
<g id="a_node7"><a xlink:href="../../d7/db3/class_x_m_l_reader.html#a016fb8ab3899a6c41ac4daec9e64cb90" target="_top" xlink:title="XMLReader.parseXML">
<polygon fill="white" stroke="black" points="813,-396.707 813,-415.707 931,-415.707 931,-396.707 813,-396.707"/>
<text text-anchor="middle" x="872" y="-403.707" font-family="Helvetica,sans-Serif" font-size="10.00">XMLReader.parseXML</text>
</a>
</g>
</g>
<!-- Node6&#45;&gt;Node7 -->
<g id="edge7" class="edge"><title>Node6&#45;&gt;Node7</title>
<path fill="none" stroke="midnightblue" d="M697.123,-351.717C720.425,-361.496 758.335,-376.734 792,-387.207 800.035,-389.707 808.616,-392.073 817.051,-394.233"/>
<polygon fill="midnightblue" stroke="midnightblue" points="816.296,-397.651 826.845,-396.668 817.985,-390.858 816.296,-397.651"/>
</g>
<!-- Node8&#45;&gt;Node1 -->
<g id="edge25" class="edge"><title>Node8&#45;&gt;Node1</title>
<path fill="none" stroke="midnightblue" d="M662.992,-213.474C626.259,-178.525 493.916,-59.3139 358,-19.2068 288.091,1.42228 260.799,9.95943 194,-19.2068 144.856,-40.6646 107.418,-94.9129 90.2793,-123.662"/>
<polygon fill="midnightblue" stroke="midnightblue" points="87.2316,-121.941 85.2578,-132.351 93.2922,-125.444 87.2316,-121.941"/>
</g>
<!-- Node9 -->
<g id="node9" class="node"><title>Node9</title>
<g id="a_node9"><a xlink:href="../../d7/db3/class_x_m_l_reader.html#a0c634622bb0c8f4ee65f2d91218e8917" target="_top" xlink:title="XMLReader.makeCA">
<polygon fill="white" stroke="black" points="816,-358.707 816,-377.707 928,-377.707 928,-358.707 816,-358.707"/>
<text text-anchor="middle" x="872" y="-365.707" font-family="Helvetica,sans-Serif" font-size="10.00">XMLReader.makeCA</text>
</a>
</g>
</g>
<!-- Node8&#45;&gt;Node9 -->
<g id="edge9" class="edge"><title>Node8&#45;&gt;Node9</title>
<path fill="none" stroke="midnightblue" d="M681.698,-232.978C697.905,-255.884 741.634,-313.426 792,-344.207 799.297,-348.666 807.482,-352.35 815.747,-355.379"/>
<polygon fill="midnightblue" stroke="midnightblue" points="814.842,-358.767 825.436,-358.639 817.075,-352.133 814.842,-358.767"/>
</g>
<!-- Node13 -->
<g id="node13" class="node"><title>Node13</title>
<g id="a_node13"><a xlink:href="../../d2/d40/class_cellular_automata.html#a34ceed434c942d34ff03169b92684726" target="_top" xlink:title="CellularAutomata.getGrid">
<polygon fill="white" stroke="black" points="1596,-69.7068 1596,-88.7068 1734,-88.7068 1734,-69.7068 1596,-69.7068"/>
<text text-anchor="middle" x="1665" y="-76.7068" font-family="Helvetica,sans-Serif" font-size="10.00">CellularAutomata.getGrid</text>
</a>
</g>
</g>
<!-- Node8&#45;&gt;Node13 -->
<g id="edge15" class="edge"><title>Node8&#45;&gt;Node13</title>
<path fill="none" stroke="midnightblue" d="M695.015,-232.891C751.354,-259.23 916.658,-330.207 1062,-330.207 1062,-330.207 1062,-330.207 1265,-330.207 1396.38,-330.207 1452.08,-386.132 1560,-311.207 1633.2,-260.387 1655.63,-145.432 1661.84,-99.1081"/>
<polygon fill="midnightblue" stroke="midnightblue" points="1665.35,-99.2413 1663.09,-88.8902 1658.4,-98.3911 1665.35,-99.2413"/>
</g>
<!-- Node14 -->
<g id="node14" class="node"><title>Node14</title>
<g id="a_node14"><a xlink:href="../../dd/d97/class_grid_drawer.html#ab8aa1cc79c89cfbc7b9d8516a5dee463" target="_top" xlink:title="GridDrawer.makeGrid">
<polygon fill="white" stroke="black" points="812.5,-213.707 812.5,-232.707 931.5,-232.707 931.5,-213.707 812.5,-213.707"/>
<text text-anchor="middle" x="872" y="-220.707" font-family="Helvetica,sans-Serif" font-size="10.00">GridDrawer.makeGrid</text>
</a>
</g>
</g>
<!-- Node8&#45;&gt;Node14 -->
<g id="edge16" class="edge"><title>Node8&#45;&gt;Node14</title>
<path fill="none" stroke="midnightblue" d="M755.569,-223.207C771.011,-223.207 787.049,-223.207 802.084,-223.207"/>
<polygon fill="midnightblue" stroke="midnightblue" points="802.312,-226.707 812.312,-223.207 802.312,-219.707 802.312,-226.707"/>
</g>
<!-- Node23 -->
<g id="node23" class="node"><title>Node23</title>
<g id="a_node23"><a xlink:href="../../dd/d97/class_grid_drawer.html#a8853ef53b515fd60ca524f05a3dbf897" target="_top" xlink:title="GridDrawer.updateNextGen">
<polygon fill="white" stroke="black" points="1190,-107.707 1190,-126.707 1338,-126.707 1338,-107.707 1190,-107.707"/>
<text text-anchor="middle" x="1264" y="-114.707" font-family="Helvetica,sans-Serif" font-size="10.00">GridDrawer.updateNextGen</text>
</a>
</g>
</g>
<!-- Node8&#45;&gt;Node23 -->
<g id="edge26" class="edge"><title>Node8&#45;&gt;Node23</title>
<path fill="none" stroke="midnightblue" d="M702.208,-213.628C756.016,-195.138 880.161,-154.723 988,-136.207 1051.83,-125.247 1125.02,-120.565 1179.84,-118.586"/>
<polygon fill="midnightblue" stroke="midnightblue" points="1179.98,-122.084 1189.86,-118.247 1179.74,-115.088 1179.98,-122.084"/>
</g>
<!-- Node26 -->
<g id="node26" class="node"><title>Node26</title>
<g id="a_node26"><a xlink:href="../../df/df8/class_cell_society_view.html#adf6a6b0542d00677a9fffbb8e3c03ffe" target="_top" xlink:title="CellSocietyView.makeTimeline">
<polygon fill="white" stroke="black" points="792,-69.7068 792,-88.7068 952,-88.7068 952,-69.7068 792,-69.7068"/>
<text text-anchor="middle" x="872" y="-76.7068" font-family="Helvetica,sans-Serif" font-size="10.00">CellSocietyView.makeTimeline</text>
</a>
</g>
</g>
<!-- Node8&#45;&gt;Node26 -->
<g id="edge29" class="edge"><title>Node8&#45;&gt;Node26</title>
<path fill="none" stroke="midnightblue" d="M681.718,-213.519C697.969,-190.808 741.785,-133.752 792,-103.207 799.306,-98.7628 807.497,-95.0866 815.763,-92.0619"/>
<polygon fill="midnightblue" stroke="midnightblue" points="817.091,-95.308 825.454,-88.8032 814.86,-88.6731 817.091,-95.308"/>
</g>
<!-- Node10 -->
<g id="node10" class="node"><title>Node10</title>
<g id="a_node10"><a xlink:href="../../d7/db3/class_x_m_l_reader.html#a656927862103b26830df1596c1f65925" target="_top" xlink:title="XMLReader.getTextValue">
<polygon fill="white" stroke="black" points="1198,-396.707 1198,-415.707 1330,-415.707 1330,-396.707 1198,-396.707"/>
<text text-anchor="middle" x="1264" y="-403.707" font-family="Helvetica,sans-Serif" font-size="10.00">XMLReader.getTextValue</text>
</a>
</g>
</g>
<!-- Node9&#45;&gt;Node10 -->
<g id="edge10" class="edge"><title>Node9&#45;&gt;Node10</title>
<path fill="none" stroke="midnightblue" d="M928.13,-377.115C936.441,-379.676 944.673,-382.97 952,-387.207 972.14,-398.852 966.629,-416.014 988,-425.207 1067.71,-459.493 1172.46,-435.681 1226.79,-418.869"/>
<polygon fill="midnightblue" stroke="midnightblue" points="1228.19,-422.098 1236.65,-415.723 1226.06,-415.43 1228.19,-422.098"/>
</g>
<!-- Node11 -->
<g id="node11" class="node"><title>Node11</title>
<g id="a_node11"><a xlink:href="../../d7/db3/class_x_m_l_reader.html#a373d7102833e61dbaac8e91b0567d03c" target="_top" xlink:title="XMLReader.makeGrid">
<polygon fill="white" stroke="black" points="1004,-396.707 1004,-415.707 1122,-415.707 1122,-396.707 1004,-396.707"/>
<text text-anchor="middle" x="1063" y="-403.707" font-family="Helvetica,sans-Serif" font-size="10.00">XMLReader.makeGrid</text>
</a>
</g>
</g>
<!-- Node9&#45;&gt;Node11 -->
<g id="edge11" class="edge"><title>Node9&#45;&gt;Node11</title>
<path fill="none" stroke="midnightblue" d="M920.693,-377.796C946.195,-382.923 977.782,-389.274 1004.62,-394.67"/>
<polygon fill="midnightblue" stroke="midnightblue" points="1004.16,-398.147 1014.65,-396.687 1005.54,-391.284 1004.16,-398.147"/>
</g>
<!-- Node12 -->
<g id="node12" class="node"><title>Node12</title>
<g id="a_node12"><a xlink:href="../../d7/db3/class_x_m_l_reader.html#add9bc5354b7e5ab29eab10f671ee9686" target="_top" xlink:title="XMLReader.makeParam">
<polygon fill="white" stroke="black" points="998.5,-358.707 998.5,-377.707 1127.5,-377.707 1127.5,-358.707 998.5,-358.707"/>
<text text-anchor="middle" x="1063" y="-365.707" font-family="Helvetica,sans-Serif" font-size="10.00">XMLReader.makeParam</text>
</a>
</g>
</g>
<!-- Node9&#45;&gt;Node12 -->
<g id="edge13" class="edge"><title>Node9&#45;&gt;Node12</title>
<path fill="none" stroke="midnightblue" d="M928.175,-368.207C947.003,-368.207 968.366,-368.207 988.408,-368.207"/>
<polygon fill="midnightblue" stroke="midnightblue" points="988.435,-371.707 998.435,-368.207 988.435,-364.707 988.435,-371.707"/>
</g>
<!-- Node11&#45;&gt;Node10 -->
<g id="edge12" class="edge"><title>Node11&#45;&gt;Node10</title>
<path fill="none" stroke="midnightblue" d="M1122.09,-406.207C1142.59,-406.207 1165.95,-406.207 1187.67,-406.207"/>
<polygon fill="midnightblue" stroke="midnightblue" points="1187.85,-409.707 1197.85,-406.207 1187.85,-402.707 1187.85,-409.707"/>
</g>
<!-- Node12&#45;&gt;Node10 -->
<g id="edge14" class="edge"><title>Node12&#45;&gt;Node10</title>
<path fill="none" stroke="midnightblue" d="M1113.96,-377.747C1141.05,-382.919 1174.71,-389.347 1203.18,-394.785"/>
<polygon fill="midnightblue" stroke="midnightblue" points="1202.54,-398.225 1213.02,-396.663 1203.85,-391.349 1202.54,-398.225"/>
</g>
<!-- Node15 -->
<g id="node15" class="node"><title>Node15</title>
<g id="a_node15"><a xlink:href="../../dd/d97/class_grid_drawer.html#af9a09b2ee81450f13a117261b67718e0" target="_top" xlink:title="GridDrawer.makeUnitGrid">
<polygon fill="white" stroke="black" points="994,-282.707 994,-301.707 1132,-301.707 1132,-282.707 994,-282.707"/>
<text text-anchor="middle" x="1063" y="-289.707" font-family="Helvetica,sans-Serif" font-size="10.00">GridDrawer.makeUnitGrid</text>
</a>
</g>
</g>
<!-- Node14&#45;&gt;Node15 -->
<g id="edge17" class="edge"><title>Node14&#45;&gt;Node15</title>
<path fill="none" stroke="midnightblue" d="M893.024,-232.746C915.71,-243.315 953.958,-260.418 988,-272.207 995.954,-274.961 1004.49,-277.576 1012.85,-279.951"/>
<polygon fill="midnightblue" stroke="midnightblue" points="1011.95,-283.333 1022.52,-282.623 1013.81,-276.586 1011.95,-283.333"/>
</g>
<!-- Node20 -->
<g id="node20" class="node"><title>Node20</title>
<g id="a_node20"><a xlink:href="../../dd/d97/class_grid_drawer.html#a54f548bdc35a2afef9af05a134c149f5" target="_top" xlink:title="GridDrawer.calculateCell\lWidth">
<polygon fill="white" stroke="black" points="997,-233.207 997,-263.207 1129,-263.207 1129,-233.207 997,-233.207"/>
<text text-anchor="start" x="1005" y="-251.207" font-family="Helvetica,sans-Serif" font-size="10.00">GridDrawer.calculateCell</text>
<text text-anchor="middle" x="1063" y="-240.207" font-family="Helvetica,sans-Serif" font-size="10.00">Width</text>
</a>
</g>
</g>
<!-- Node14&#45;&gt;Node20 -->
<g id="edge22" class="edge"><title>Node14&#45;&gt;Node20</title>
<path fill="none" stroke="midnightblue" d="M931.506,-230.946C948.978,-233.257 968.379,-235.823 986.764,-238.255"/>
<polygon fill="midnightblue" stroke="midnightblue" points="986.482,-241.748 996.855,-239.59 987.4,-234.809 986.482,-241.748"/>
</g>
<!-- Node21 -->
<g id="node21" class="node"><title>Node21</title>
<g id="a_node21"><a xlink:href="../../dd/d97/class_grid_drawer.html#a3f6bb5e9307bf84f9f8f4ae467ec85cf" target="_top" xlink:title="GridDrawer.calculateCell\lHeight">
<polygon fill="white" stroke="black" points="997,-184.207 997,-214.207 1129,-214.207 1129,-184.207 997,-184.207"/>
<text text-anchor="start" x="1005" y="-202.207" font-family="Helvetica,sans-Serif" font-size="10.00">GridDrawer.calculateCell</text>
<text text-anchor="middle" x="1063" y="-191.207" font-family="Helvetica,sans-Serif" font-size="10.00">Height</text>
</a>
</g>
</g>
<!-- Node14&#45;&gt;Node21 -->
<g id="edge23" class="edge"><title>Node14&#45;&gt;Node21</title>
<path fill="none" stroke="midnightblue" d="M931.506,-215.777C948.978,-213.559 968.379,-211.095 986.764,-208.761"/>
<polygon fill="midnightblue" stroke="midnightblue" points="987.376,-212.211 996.855,-207.479 986.494,-205.267 987.376,-212.211"/>
</g>
<!-- Node22 -->
<g id="node22" class="node"><title>Node22</title>
<g id="a_node22"><a xlink:href="../../dd/d97/class_grid_drawer.html#a8fba9cca18cee03651775b5785722778" target="_top" xlink:title="GridDrawer.scale">
<polygon fill="white" stroke="black" points="1014.5,-145.707 1014.5,-164.707 1111.5,-164.707 1111.5,-145.707 1014.5,-145.707"/>
<text text-anchor="middle" x="1063" y="-152.707" font-family="Helvetica,sans-Serif" font-size="10.00">GridDrawer.scale</text>
</a>
</g>
</g>
<!-- Node14&#45;&gt;Node22 -->
<g id="edge24" class="edge"><title>Node14&#45;&gt;Node22</title>
<path fill="none" stroke="midnightblue" d="M893.46,-213.704C916.215,-203.363 954.225,-186.764 988,-175.207 996.055,-172.451 1004.7,-169.823 1013.15,-167.432"/>
<polygon fill="midnightblue" stroke="midnightblue" points="1014.21,-170.771 1022.92,-164.74 1012.35,-164.022 1014.21,-170.771"/>
</g>
<!-- Node16 -->
<g id="node16" class="node"><title>Node16</title>
<g id="a_node16"><a xlink:href="../../dd/d97/class_grid_drawer.html#a69ef437bdcbcdb3dca6b206b73a1ab1f" target="_top" xlink:title="GridDrawer.drawUnitCell">
<polygon fill="white" stroke="black" points="1198.5,-263.707 1198.5,-282.707 1329.5,-282.707 1329.5,-263.707 1198.5,-263.707"/>
<text text-anchor="middle" x="1264" y="-270.707" font-family="Helvetica,sans-Serif" font-size="10.00">GridDrawer.drawUnitCell</text>
</a>
</g>
</g>
<!-- Node15&#45;&gt;Node16 -->
<g id="edge18" class="edge"><title>Node15&#45;&gt;Node16</title>
<path fill="none" stroke="midnightblue" d="M1132.21,-285.695C1150.24,-283.973 1169.81,-282.105 1188.18,-280.351"/>
<polygon fill="midnightblue" stroke="midnightblue" points="1188.62,-283.825 1198.24,-279.39 1187.95,-276.856 1188.62,-283.825"/>
</g>
<!-- Node17 -->
<g id="node17" class="node"><title>Node17</title>
<g id="a_node17"><a xlink:href="../../dd/d97/class_grid_drawer.html#a53b8613b7621224084096d76e2316452" target="_top" xlink:title="GridDrawer.drawTriangle">
<polygon fill="white" stroke="black" points="1409.5,-282.707 1409.5,-301.707 1540.5,-301.707 1540.5,-282.707 1409.5,-282.707"/>
<text text-anchor="middle" x="1475" y="-289.707" font-family="Helvetica,sans-Serif" font-size="10.00">GridDrawer.drawTriangle</text>
</a>
</g>
</g>
<!-- Node16&#45;&gt;Node17 -->
<g id="edge19" class="edge"><title>Node16&#45;&gt;Node17</title>
<path fill="none" stroke="midnightblue" d="M1329.7,-279.088C1351.63,-281.083 1376.32,-283.327 1398.99,-285.388"/>
<polygon fill="midnightblue" stroke="midnightblue" points="1398.97,-288.901 1409.25,-286.32 1399.61,-281.929 1398.97,-288.901"/>
</g>
<!-- Node18 -->
<g id="node18" class="node"><title>Node18</title>
<g id="a_node18"><a xlink:href="../../dd/d97/class_grid_drawer.html#a08b9d58cde5fafa07e226d4ed2ebc655" target="_top" xlink:title="GridDrawer.drawSquare">
<polygon fill="white" stroke="black" points="1410.5,-244.707 1410.5,-263.707 1539.5,-263.707 1539.5,-244.707 1410.5,-244.707"/>
<text text-anchor="middle" x="1475" y="-251.707" font-family="Helvetica,sans-Serif" font-size="10.00">GridDrawer.drawSquare</text>
</a>
</g>
</g>
<!-- Node16&#45;&gt;Node18 -->
<g id="edge20" class="edge"><title>Node16&#45;&gt;Node18</title>
<path fill="none" stroke="midnightblue" d="M1329.7,-267.325C1352.05,-265.294 1377.25,-263.002 1400.27,-260.91"/>
<polygon fill="midnightblue" stroke="midnightblue" points="1400.68,-264.387 1410.33,-259.995 1400.05,-257.415 1400.68,-264.387"/>
</g>
<!-- Node19 -->
<g id="node19" class="node"><title>Node19</title>
<g id="a_node19"><a xlink:href="../../dd/d97/class_grid_drawer.html#a260f7ce1d53af7f88e1c4ee3a4a3de2b" target="_top" xlink:title="GridDrawer.drawHexagon">
<polygon fill="white" stroke="black" points="1406.5,-206.707 1406.5,-225.707 1543.5,-225.707 1543.5,-206.707 1406.5,-206.707"/>
<text text-anchor="middle" x="1475" y="-213.707" font-family="Helvetica,sans-Serif" font-size="10.00">GridDrawer.drawHexagon</text>
</a>
</g>
</g>
<!-- Node16&#45;&gt;Node19 -->
<g id="edge21" class="edge"><title>Node16&#45;&gt;Node19</title>
<path fill="none" stroke="midnightblue" d="M1294.13,-263.696C1319.35,-255.617 1356.89,-243.972 1390,-235.207 1399.33,-232.736 1409.3,-230.303 1418.99,-228.046"/>
<polygon fill="midnightblue" stroke="midnightblue" points="1419.99,-231.409 1428.95,-225.763 1418.42,-224.586 1419.99,-231.409"/>
</g>
<!-- Node24 -->
<g id="node24" class="node"><title>Node24</title>
<g id="a_node24"><a xlink:href="../../da/d74/class_grid.html#a2f2ccb1511e367a7d6e9bcb3f708cd38" target="_top" xlink:title="Grid.getCellAt">
<polygon fill="white" stroke="black" points="1433.5,-145.707 1433.5,-164.707 1516.5,-164.707 1516.5,-145.707 1433.5,-145.707"/>
<text text-anchor="middle" x="1475" y="-152.707" font-family="Helvetica,sans-Serif" font-size="10.00">Grid.getCellAt</text>
</a>
</g>
</g>
<!-- Node23&#45;&gt;Node24 -->
<g id="edge27" class="edge"><title>Node23&#45;&gt;Node24</title>
<path fill="none" stroke="midnightblue" d="M1317.47,-126.747C1349.88,-132.639 1391.24,-140.16 1423.31,-145.991"/>
<polygon fill="midnightblue" stroke="midnightblue" points="1422.91,-149.475 1433.37,-147.82 1424.16,-142.588 1422.91,-149.475"/>
</g>
<!-- Node25 -->
<g id="node25" class="node"><title>Node25</title>
<g id="a_node25"><a xlink:href="../../dd/d11/class_cell.html#aac3ac473652b817fe344534f4bec7e6f" target="_top" xlink:title="Cell.getState">
<polygon fill="white" stroke="black" points="1435.5,-107.707 1435.5,-126.707 1514.5,-126.707 1514.5,-107.707 1435.5,-107.707"/>
<text text-anchor="middle" x="1475" y="-114.707" font-family="Helvetica,sans-Serif" font-size="10.00">Cell.getState</text>
</a>
</g>
</g>
<!-- Node23&#45;&gt;Node25 -->
<g id="edge28" class="edge"><title>Node23&#45;&gt;Node25</title>
<path fill="none" stroke="midnightblue" d="M1338.1,-117.207C1366.86,-117.207 1399.12,-117.207 1424.99,-117.207"/>
<polygon fill="midnightblue" stroke="midnightblue" points="1425.29,-120.707 1435.29,-117.207 1425.29,-113.707 1425.29,-120.707"/>
</g>
<!-- Node27 -->
<g id="node27" class="node"><title>Node27</title>
<g id="a_node27"><a xlink:href="../../df/df8/class_cell_society_view.html#ad52b914fa03b45d8bc9d64fc407660f3" target="_top" xlink:title="CellSocietyView.updateView">
<polygon fill="white" stroke="black" points="988.5,-69.7068 988.5,-88.7068 1137.5,-88.7068 1137.5,-69.7068 988.5,-69.7068"/>
<text text-anchor="middle" x="1063" y="-76.7068" font-family="Helvetica,sans-Serif" font-size="10.00">CellSocietyView.updateView</text>
</a>
</g>
</g>
<!-- Node26&#45;&gt;Node27 -->
<g id="edge30" class="edge"><title>Node26&#45;&gt;Node27</title>
<path fill="none" stroke="midnightblue" d="M952.058,-79.2068C960.71,-79.2068 969.539,-79.2068 978.245,-79.2068"/>
<polygon fill="midnightblue" stroke="midnightblue" points="978.391,-82.7069 988.391,-79.2068 978.391,-75.7069 978.391,-82.7069"/>
</g>
<!-- Node27&#45;&gt;Node23 -->
<g id="edge36" class="edge"><title>Node27&#45;&gt;Node23</title>
<path fill="none" stroke="midnightblue" d="M1113.96,-88.7468C1141.05,-93.919 1174.71,-100.347 1203.18,-105.785"/>
<polygon fill="midnightblue" stroke="midnightblue" points="1202.54,-109.225 1213.02,-107.663 1203.85,-102.349 1202.54,-109.225"/>
</g>
<!-- Node28 -->
<g id="node28" class="node"><title>Node28</title>
<g id="a_node28"><a xlink:href="../../d2/d40/class_cellular_automata.html#a8f4c8a2f32137db67dd31f5afb4b62c3" target="_top" xlink:title="CellularAutomata.updateNextGen">
<polygon fill="white" stroke="black" points="1174.5,-69.7068 1174.5,-88.7068 1353.5,-88.7068 1353.5,-69.7068 1174.5,-69.7068"/>
<text text-anchor="middle" x="1264" y="-76.7068" font-family="Helvetica,sans-Serif" font-size="10.00">CellularAutomata.updateNextGen</text>
</a>
</g>
</g>
<!-- Node27&#45;&gt;Node28 -->
<g id="edge31" class="edge"><title>Node27&#45;&gt;Node28</title>
<path fill="none" stroke="midnightblue" d="M1137.53,-79.2068C1146.22,-79.2068 1155.19,-79.2068 1164.16,-79.2068"/>
<polygon fill="midnightblue" stroke="midnightblue" points="1164.26,-82.7069 1174.26,-79.2068 1164.26,-75.7069 1164.26,-82.7069"/>
</g>
<!-- Node29 -->
<g id="node29" class="node"><title>Node29</title>
<g id="a_node29"><a xlink:href="../../d2/d40/class_cellular_automata.html#ab6b9e3ca964f405470ec0acc064d9b3a" target="_top" xlink:title="CellularAutomata.checkRules">
<polygon fill="white" stroke="black" points="1397.5,-69.7068 1397.5,-88.7068 1552.5,-88.7068 1552.5,-69.7068 1397.5,-69.7068"/>
<text text-anchor="middle" x="1475" y="-76.7068" font-family="Helvetica,sans-Serif" font-size="10.00">CellularAutomata.checkRules</text>
</a>
</g>
</g>
<!-- Node28&#45;&gt;Node29 -->
<g id="edge32" class="edge"><title>Node28&#45;&gt;Node29</title>
<path fill="none" stroke="midnightblue" d="M1353.63,-79.2068C1364.79,-79.2068 1376.2,-79.2068 1387.33,-79.2068"/>
<polygon fill="midnightblue" stroke="midnightblue" points="1387.45,-82.7069 1397.45,-79.2068 1387.45,-75.7069 1387.45,-82.7069"/>
</g>
<!-- Node30 -->
<g id="node30" class="node"><title>Node30</title>
<g id="a_node30"><a xlink:href="../../d2/d40/class_cellular_automata.html#ab39b5164764f20382801aa9a4663eb4b" target="_top" xlink:title="CellularAutomata.handleUpdate">
<polygon fill="white" stroke="black" points="1390,-31.7068 1390,-50.7068 1560,-50.7068 1560,-31.7068 1390,-31.7068"/>
<text text-anchor="middle" x="1475" y="-38.7068" font-family="Helvetica,sans-Serif" font-size="10.00">CellularAutomata.handleUpdate</text>
</a>
</g>
</g>
<!-- Node28&#45;&gt;Node30 -->
<g id="edge34" class="edge"><title>Node28&#45;&gt;Node30</title>
<path fill="none" stroke="midnightblue" d="M1317.47,-69.6669C1346.04,-64.4721 1381.58,-58.0106 1411.57,-52.5579"/>
<polygon fill="midnightblue" stroke="midnightblue" points="1412.3,-55.9832 1421.51,-50.7507 1411.04,-49.0961 1412.3,-55.9832"/>
</g>
<!-- Node29&#45;&gt;Node13 -->
<g id="edge33" class="edge"><title>Node29&#45;&gt;Node13</title>
<path fill="none" stroke="midnightblue" d="M1552.74,-79.2068C1563.59,-79.2068 1574.75,-79.2068 1585.63,-79.2068"/>
<polygon fill="midnightblue" stroke="midnightblue" points="1585.95,-82.7069 1595.95,-79.2068 1585.95,-75.7069 1585.95,-82.7069"/>
</g>
<!-- Node30&#45;&gt;Node13 -->
<g id="edge35" class="edge"><title>Node30&#45;&gt;Node13</title>
<path fill="none" stroke="midnightblue" d="M1523.44,-50.7959C1548.81,-55.9233 1580.23,-62.2741 1606.92,-67.67"/>
<polygon fill="midnightblue" stroke="midnightblue" points="1606.41,-71.1361 1616.9,-69.6868 1607.79,-64.2749 1606.41,-71.1361"/>
</g>
<!-- Node31&#45;&gt;Node3 -->
<g id="edge38" class="edge"><title>Node31&#45;&gt;Node3</title>
<path fill="none" stroke="midnightblue" d="M350.636,-181.862C363.053,-180.286 376.035,-178.639 388.719,-177.029"/>
<polygon fill="midnightblue" stroke="midnightblue" points="389.332,-180.48 398.811,-175.749 388.45,-173.535 389.332,-180.48"/>
</g>
<!-- Node32&#45;&gt;Node3 -->
<g id="edge40" class="edge"><title>Node32&#45;&gt;Node3</title>
<path fill="none" stroke="midnightblue" d="M346.178,-150.635C358.988,-152.195 372.526,-153.845 385.812,-155.463"/>
<polygon fill="midnightblue" stroke="midnightblue" points="385.556,-158.958 395.906,-156.693 386.402,-152.009 385.556,-158.958"/>
</g>
<!-- Node33&#45;&gt;Node3 -->
<g id="edge42" class="edge"><title>Node33&#45;&gt;Node3</title>
<path fill="none" stroke="midnightblue" d="M330.865,-108.25C339.978,-111.056 349.301,-114.092 358,-117.207 387.715,-127.848 420.808,-142.071 444.018,-152.452"/>
<polygon fill="midnightblue" stroke="midnightblue" points="442.766,-155.727 453.322,-156.644 445.642,-149.345 442.766,-155.727"/>
</g>
<!-- Node34&#45;&gt;Node3 -->
<g id="edge44" class="edge"><title>Node34&#45;&gt;Node3</title>
<path fill="none" stroke="midnightblue" d="M337.827,-59.2122C344.804,-61.809 351.675,-64.7944 358,-68.2068 398.325,-89.9632 437.361,-127.347 458.273,-149.112"/>
<polygon fill="midnightblue" stroke="midnightblue" points="455.955,-151.755 465.365,-156.624 461.045,-146.95 455.955,-151.755"/>
</g>
<!-- Node34&#45;&gt;Node27 -->
<g id="edge45" class="edge"><title>Node34&#45;&gt;Node27</title>
<path fill="none" stroke="midnightblue" d="M347.659,-42.4681C470.754,-40.2003 732.378,-38.7545 952,-60.2068 969.655,-61.9314 988.749,-64.8518 1005.99,-67.8924"/>
<polygon fill="midnightblue" stroke="midnightblue" points="1005.45,-71.35 1015.91,-69.6885 1006.69,-64.4621 1005.45,-71.35"/>
</g>
</g>
</svg>
        <g id="navigator" transform="translate(0 0)" fill="#404254">
                <rect fill="#f2f5e9" fill-opacity="0.5" stroke="#606060" stroke-width=".5" x="0" y="0" width="60" height="60"/>
                <use id="zoomplus" xlink:href="#zoomPlus" x="17" y="9" onmousedown="handleZoom(evt,'in')"/>
                <use id="zoomminus" xlink:href="#zoomMin" x="42" y="9" onmousedown="handleZoom(evt,'out')"/>
                <use id="reset" xlink:href="#resetDef" x="30" y="36" onmousedown="handleReset()"/>
                <g id="arrowUp" xlink:href="#dirArrow" transform="translate(30 24)" onmousedown="handlePan(0,-1)">
                  <use xlink:href="#rim" fill="#404040">
                        <set attributeName="fill" to="#808080" begin="arrowUp.mouseover" end="arrowUp.mouseout"/>
                  </use>
                  <path fill="none" stroke="white" stroke-width="1.5" d="M0,-3.0v7 M-2.5,-0.5L0,-3.0L2.5,-0.5"/>
                </g>
                <g id="arrowRight" xlink:href="#dirArrow" transform="rotate(90) translate(36 -43)" onmousedown="handlePan(1,0)">
                  <use xlink:href="#rim" fill="#404040">
                        <set attributeName="fill" to="#808080" begin="arrowRight.mouseover" end="arrowRight.mouseout"/>
                  </use>
                  <path fill="none" stroke="white" stroke-width="1.5" d="M0,-3.0v7 M-2.5,-0.5L0,-3.0L2.5,-0.5"/>
                </g>
                <g id="arrowDown" xlink:href="#dirArrow" transform="rotate(180) translate(-30 -48)" onmousedown="handlePan(0,1)">
                  <use xlink:href="#rim" fill="#404040">
                        <set attributeName="fill" to="#808080" begin="arrowDown.mouseover" end="arrowDown.mouseout"/>
                  </use>
                  <path fill="none" stroke="white" stroke-width="1.5" d="M0,-3.0v7 M-2.5,-0.5L0,-3.0L2.5,-0.5"/>
                </g>
                <g id="arrowLeft" xlink:href="#dirArrow" transform="rotate(270) translate(-36 17)" onmousedown="handlePan(-1,0)">
                  <use xlink:href="#rim" fill="#404040">
                        <set attributeName="fill" to="#808080" begin="arrowLeft.mouseover" end="arrowLeft.mouseout"/>
                  </use>
                  <path fill="none" stroke="white" stroke-width="1.5" d="M0,-3.0v7 M-2.5,-0.5L0,-3.0L2.5,-0.5"/>
                </g>
        </g>
        <svg viewBox="0 0 15 15" width="100%" height="30px" preserveAspectRatio="xMaxYMin meet">
         <g id="arrow_out" transform="scale(0.3 0.3)">
          <a xlink:href="class_cell_society_view_a7bdbd4e8fd3893e672eb22015603f6dc_cgraph_org.svg" target="_base">
           <rect id="button" ry="5" rx="5" y="6" x="6" height="38" width="38"
                fill="#f2f5e9" fill-opacity="0.5" stroke="#606060" stroke-width="1.0"/>
           <path id="arrow"
             d="M 11.500037,31.436501 C 11.940474,20.09759 22.043105,11.32322 32.158766,21.979434 L 37.068811,17.246167 C 37.068811,17.246167 37.088388,32 37.088388,32 L 22.160133,31.978069 C 22.160133,31.978069 26.997745,27.140456 26.997745,27.140456 C 18.528582,18.264221 13.291696,25.230495 11.500037,31.436501 z"
             style="fill:#404040;"/>
          </a>
         </g>
        </svg>
</svg>
