<?xml version="1.0" encoding="UTF-8" standalone="no"?>
<!DOCTYPE svg PUBLIC "-//W3C//DTD SVG 1.1//EN"
 "http://www.w3.org/Graphics/SVG/1.1/DTD/svg11.dtd">
<!-- Generated by graphviz version 2.36.0 (20140111.2315)
 -->
<!-- Title: CellSocietyView.setUp Pages: 1 -->
<svg width="708pt" height="136pt"
 viewBox="0.00 0.00 708.00 136.00" xmlns="http://www.w3.org/2000/svg" xmlns:xlink="http://www.w3.org/1999/xlink">
<g id="graph0" class="graph" transform="scale(1 1) rotate(0) translate(4 132)">
<title>CellSocietyView.setUp</title>
<polygon fill="white" stroke="none" points="-4,4 -4,-132 704,-132 704,4 -4,4"/>
<!-- Node1 -->
<g id="node1" class="node"><title>Node1</title>
<polygon fill="#bfbfbf" stroke="black" points="0,-54.5 0,-73.5 122,-73.5 122,-54.5 0,-54.5"/>
<text text-anchor="middle" x="61" y="-61.5" font-family="Helvetica,sans-Serif" font-size="10.00">CellSocietyView.setUp</text>
</g>
<!-- Node2 -->
<g id="node2" class="node"><title>Node2</title>
<g id="a_node2"><a xlink:href="../../df/df8/class_cell_society_view.html#a38d9c3d5a91b82c54b1c5aae86b4d33a" target="_top" xlink:title="CellSocietyView.setUpGame\lTypes">
<polygon fill="white" stroke="black" points="162.5,-98 162.5,-128 313.5,-128 313.5,-98 162.5,-98"/>
<text text-anchor="start" x="170.5" y="-116" font-family="Helvetica,sans-Serif" font-size="10.00">CellSocietyView.setUpGame</text>
<text text-anchor="middle" x="238" y="-105" font-family="Helvetica,sans-Serif" font-size="10.00">Types</text>
</a>
</g>
</g>
<!-- Node1&#45;&gt;Node2 -->
<g id="edge1" class="edge"><title>Node1&#45;&gt;Node2</title>
<path fill="none" stroke="midnightblue" d="M96.1572,-73.564C118.119,-79.7134 147.331,-87.8928 173.457,-95.2078"/>
<polygon fill="midnightblue" stroke="midnightblue" points="172.723,-98.637 183.297,-97.963 174.611,-91.8963 172.723,-98.637"/>
</g>
<!-- Node5 -->
<g id="node5" class="node"><title>Node5</title>
<g id="a_node5"><a xlink:href="../../df/df8/class_cell_society_view.html#ad5402d2d2d1742a8e770f9cd9d81bca8" target="_top" xlink:title="CellSocietyView.setUpGrid\lTypes">
<polygon fill="white" stroke="black" points="167.5,-49 167.5,-79 308.5,-79 308.5,-49 167.5,-49"/>
<text text-anchor="start" x="175.5" y="-67" font-family="Helvetica,sans-Serif" font-size="10.00">CellSocietyView.setUpGrid</text>
<text text-anchor="middle" x="238" y="-56" font-family="Helvetica,sans-Serif" font-size="10.00">Types</text>
</a>
</g>
</g>
<!-- Node1&#45;&gt;Node5 -->
<g id="edge4" class="edge"><title>Node1&#45;&gt;Node5</title>
<path fill="none" stroke="midnightblue" d="M122.225,-64C133.466,-64 145.374,-64 157.099,-64"/>
<polygon fill="midnightblue" stroke="midnightblue" points="157.335,-67.5001 167.334,-64 157.334,-60.5001 157.335,-67.5001"/>
</g>
<!-- Node6 -->
<g id="node6" class="node"><title>Node6</title>
<g id="a_node6"><a xlink:href="../../df/df8/class_cell_society_view.html#a27ae0cdbf36de43361377532b78055bc" target="_top" xlink:title="CellSocietyView.setUpNbhood\lTypes">
<polygon fill="white" stroke="black" points="158.5,-0 158.5,-30 317.5,-30 317.5,-0 158.5,-0"/>
<text text-anchor="start" x="166.5" y="-18" font-family="Helvetica,sans-Serif" font-size="10.00">CellSocietyView.setUpNbhood</text>
<text text-anchor="middle" x="238" y="-7" font-family="Helvetica,sans-Serif" font-size="10.00">Types</text>
</a>
</g>
</g>
<!-- Node1&#45;&gt;Node6 -->
<g id="edge5" class="edge"><title>Node1&#45;&gt;Node6</title>
<path fill="none" stroke="midnightblue" d="M96.1572,-54.436C118.119,-48.2866 147.331,-40.1072 173.457,-32.7922"/>
<polygon fill="midnightblue" stroke="midnightblue" points="174.611,-36.1037 183.297,-30.037 172.723,-29.363 174.611,-36.1037"/>
</g>
<!-- Node3 -->
<g id="node3" class="node"><title>Node3</title>
<g id="a_node3"><a xlink:href="../../df/df8/class_cell_society_view.html#a1b6388535f7c24c4fc076db62c78ac92" target="_top" xlink:title="CellSocietyView.addGameType">
<polygon fill="white" stroke="black" points="354.5,-103.5 354.5,-122.5 515.5,-122.5 515.5,-103.5 354.5,-103.5"/>
<text text-anchor="middle" x="435" y="-110.5" font-family="Helvetica,sans-Serif" font-size="10.00">CellSocietyView.addGameType</text>
</a>
</g>
</g>
<!-- Node2&#45;&gt;Node3 -->
<g id="edge2" class="edge"><title>Node2&#45;&gt;Node3</title>
<path fill="none" stroke="midnightblue" d="M313.556,-113C323.555,-113 333.896,-113 344.123,-113"/>
<polygon fill="midnightblue" stroke="midnightblue" points="344.297,-116.5 354.297,-113 344.297,-109.5 344.297,-116.5"/>
</g>
<!-- Node4 -->
<g id="node4" class="node"><title>Node4</title>
<g id="a_node4"><a xlink:href="../../d2/d40/class_cellular_automata.html#ad8e068dc2395ca5598e5e4164ecfe6b2" target="_top" xlink:title="CellularAutomata.getName">
<polygon fill="white" stroke="black" points="552,-103.5 552,-122.5 700,-122.5 700,-103.5 552,-103.5"/>
<text text-anchor="middle" x="626" y="-110.5" font-family="Helvetica,sans-Serif" font-size="10.00">CellularAutomata.getName</text>
</a>
</g>
</g>
<!-- Node3&#45;&gt;Node4 -->
<g id="edge3" class="edge"><title>Node3&#45;&gt;Node4</title>
<path fill="none" stroke="midnightblue" d="M515.605,-113C524.234,-113 533.033,-113 541.704,-113"/>
<polygon fill="midnightblue" stroke="midnightblue" points="541.806,-116.5 551.806,-113 541.806,-109.5 541.806,-116.5"/>
</g>
</g>
</svg>
