<?xml version="1.0" encoding="UTF-8" standalone="no"?>
<!DOCTYPE svg PUBLIC "-//W3C//DTD SVG 1.1//EN"
 "http://www.w3.org/Graphics/SVG/1.1/DTD/svg11.dtd">
<!-- Generated by graphviz version 2.36.0 (20140111.2315)
 -->
<!-- Title: CellSocietyView.loadNewFile Pages: 1 -->
<svg width="1720pt" height="650pt"
 viewBox="0.00 0.00 1720.00 650.00" xmlns="http://www.w3.org/2000/svg" xmlns:xlink="http://www.w3.org/1999/xlink">
<g id="graph0" class="graph" transform="scale(1 1) rotate(0) translate(4 646)">
<title>CellSocietyView.loadNewFile</title>
<polygon fill="white" stroke="none" points="-4,4 -4,-646 1716,-646 1716,4 -4,4"/>
<!-- Node1 -->
<g id="node1" class="node"><title>Node1</title>
<polygon fill="#bfbfbf" stroke="black" points="0.5,-131.5 0.5,-150.5 149.5,-150.5 149.5,-131.5 0.5,-131.5"/>
<text text-anchor="middle" x="75" y="-138.5" font-family="Helvetica,sans-Serif" font-size="10.00">CellSocietyView.loadNewFile</text>
</g>
<!-- Node2 -->
<g id="node2" class="node"><title>Node2</title>
<g id="a_node2"><a xlink:href="../../df/df8/class_cell_society_view.html#a2ee793e471cc5731ce39c1450f058dd5" target="_top" xlink:title="CellSocietyView.parseFile">
<polygon fill="white" stroke="black" points="186.5,-207.5 186.5,-226.5 321.5,-226.5 321.5,-207.5 186.5,-207.5"/>
<text text-anchor="middle" x="254" y="-214.5" font-family="Helvetica,sans-Serif" font-size="10.00">CellSocietyView.parseFile</text>
</a>
</g>
</g>
<!-- Node1&#45;&gt;Node2 -->
<g id="edge1" class="edge"><title>Node1&#45;&gt;Node2</title>
<path fill="none" stroke="midnightblue" d="M98.4172,-150.625C129.538,-163.988 185.988,-188.227 221.38,-203.423"/>
<polygon fill="midnightblue" stroke="midnightblue" points="220.195,-206.723 230.765,-207.453 222.957,-200.291 220.195,-206.723"/>
</g>
<!-- Node3 -->
<g id="node3" class="node"><title>Node3</title>
<g id="a_node3"><a xlink:href="../../df/df8/class_cell_society_view.html#a767ab215ca329ba41b1493702141f841" target="_top" xlink:title="CellSocietyView.makeCAGame">
<polygon fill="white" stroke="black" points="358.5,-341.5 358.5,-360.5 521.5,-360.5 521.5,-341.5 358.5,-341.5"/>
<text text-anchor="middle" x="440" y="-348.5" font-family="Helvetica,sans-Serif" font-size="10.00">CellSocietyView.makeCAGame</text>
</a>
</g>
</g>
<!-- Node2&#45;&gt;Node3 -->
<g id="edge2" class="edge"><title>Node2&#45;&gt;Node3</title>
<path fill="none" stroke="midnightblue" d="M268.233,-226.637C299.663,-249.526 379.035,-307.33 417.477,-335.325"/>
<polygon fill="midnightblue" stroke="midnightblue" points="415.743,-338.393 425.887,-341.45 419.864,-332.734 415.743,-338.393"/>
</g>
<!-- Node4 -->
<g id="node4" class="node"><title>Node4</title>
<g id="a_node4"><a xlink:href="../../da/d74/class_grid.html#acbc0b625c8f9d2f76db2f2a0d5288cd9" target="_top" xlink:title="Grid.init">
<polygon fill="white" stroke="black" points="611.5,-444.5 611.5,-463.5 664.5,-463.5 664.5,-444.5 611.5,-444.5"/>
<text text-anchor="middle" x="638" y="-451.5" font-family="Helvetica,sans-Serif" font-size="10.00">Grid.init</text>
</a>
</g>
</g>
<!-- Node3&#45;&gt;Node4 -->
<g id="edge3" class="edge"><title>Node3&#45;&gt;Node4</title>
<path fill="none" stroke="midnightblue" d="M452.574,-360.568C472.8,-376.871 516.398,-410.19 558,-430 571.747,-436.546 587.686,-441.792 601.632,-445.689"/>
<polygon fill="midnightblue" stroke="midnightblue" points="600.811,-449.092 611.375,-448.288 602.615,-442.329 600.811,-449.092"/>
</g>
<!-- Node6 -->
<g id="node6" class="node"><title>Node6</title>
<g id="a_node6"><a xlink:href="../../d2/d40/class_cellular_automata.html#a347bfd2a64ee2d615902f6922e95fa6f" target="_top" xlink:title="CellularAutomata.init">
<polygon fill="white" stroke="black" points="579.5,-401.5 579.5,-420.5 696.5,-420.5 696.5,-401.5 579.5,-401.5"/>
<text text-anchor="middle" x="638" y="-408.5" font-family="Helvetica,sans-Serif" font-size="10.00">CellularAutomata.init</text>
</a>
</g>
</g>
<!-- Node3&#45;&gt;Node6 -->
<g id="edge5" class="edge"><title>Node3&#45;&gt;Node6</title>
<path fill="none" stroke="midnightblue" d="M472.057,-360.507C505.505,-370.746 558.882,-387.086 595.814,-398.392"/>
<polygon fill="midnightblue" stroke="midnightblue" points="595.178,-401.858 605.765,-401.438 597.227,-395.164 595.178,-401.858"/>
</g>
<!-- Node8 -->
<g id="node8" class="node"><title>Node8</title>
<g id="a_node8"><a xlink:href="../../d2/d40/class_cellular_automata.html#a34ceed434c942d34ff03169b92684726" target="_top" xlink:title="CellularAutomata.getGrid">
<polygon fill="white" stroke="black" points="1574,-322.5 1574,-341.5 1712,-341.5 1712,-322.5 1574,-322.5"/>
<text text-anchor="middle" x="1643" y="-329.5" font-family="Helvetica,sans-Serif" font-size="10.00">CellularAutomata.getGrid</text>
</a>
</g>
</g>
<!-- Node3&#45;&gt;Node8 -->
<g id="edge7" class="edge"><title>Node3&#45;&gt;Node8</title>
<path fill="none" stroke="midnightblue" d="M464.746,-341.377C488.068,-332.386 524.871,-319.415 558,-313 679.15,-289.542 711.6,-294 835,-294 835,-294 835,-294 1243,-294 1374.38,-294 1407.6,-296.945 1538,-313 1553.77,-314.941 1570.76,-317.741 1586.34,-320.598"/>
<polygon fill="midnightblue" stroke="midnightblue" points="1585.88,-324.072 1596.36,-322.474 1587.17,-317.192 1585.88,-324.072"/>
</g>
<!-- Node9 -->
<g id="node9" class="node"><title>Node9</title>
<g id="a_node9"><a xlink:href="../../dd/d97/class_grid_drawer.html#ab8aa1cc79c89cfbc7b9d8516a5dee463" target="_top" xlink:title="GridDrawer.makeGrid">
<polygon fill="white" stroke="black" points="578.5,-524.5 578.5,-543.5 697.5,-543.5 697.5,-524.5 578.5,-524.5"/>
<text text-anchor="middle" x="638" y="-531.5" font-family="Helvetica,sans-Serif" font-size="10.00">GridDrawer.makeGrid</text>
</a>
</g>
</g>
<!-- Node3&#45;&gt;Node9 -->
<g id="edge8" class="edge"><title>Node3&#45;&gt;Node9</title>
<path fill="none" stroke="midnightblue" d="M449.357,-360.647C467.956,-381.9 514.557,-433.972 558,-473 576.381,-489.513 598.795,-506.556 615.047,-518.415"/>
<polygon fill="midnightblue" stroke="midnightblue" points="613.222,-521.414 623.377,-524.434 617.322,-515.74 613.222,-521.414"/>
</g>
<!-- Node18 -->
<g id="node18" class="node"><title>Node18</title>
<g id="a_node18"><a xlink:href="../../df/df8/class_cell_society_view.html#a7bdbd4e8fd3893e672eb22015603f6dc" target="_top" xlink:title="CellSocietyView.makeButtons">
<polygon fill="white" stroke="black" points="559,-142.5 559,-161.5 717,-161.5 717,-142.5 559,-142.5"/>
<text text-anchor="middle" x="638" y="-149.5" font-family="Helvetica,sans-Serif" font-size="10.00">CellSocietyView.makeButtons</text>
</a>
</g>
</g>
<!-- Node3&#45;&gt;Node18 -->
<g id="edge17" class="edge"><title>Node3&#45;&gt;Node18</title>
<path fill="none" stroke="midnightblue" d="M450.453,-341.402C481.567,-309.813 581.036,-208.82 620.571,-168.68"/>
<polygon fill="midnightblue" stroke="midnightblue" points="623.118,-171.082 627.641,-161.502 618.131,-166.17 623.118,-171.082"/>
</g>
<!-- Node29 -->
<g id="node29" class="node"><title>Node29</title>
<g id="a_node29"><a xlink:href="../../dd/d97/class_grid_drawer.html#a8853ef53b515fd60ca524f05a3dbf897" target="_top" xlink:title="GridDrawer.updateNextGen">
<polygon fill="white" stroke="black" points="1168,-379.5 1168,-398.5 1316,-398.5 1316,-379.5 1168,-379.5"/>
<text text-anchor="middle" x="1242" y="-386.5" font-family="Helvetica,sans-Serif" font-size="10.00">GridDrawer.updateNextGen</text>
</a>
</g>
</g>
<!-- Node3&#45;&gt;Node29 -->
<g id="edge40" class="edge"><title>Node3&#45;&gt;Node29</title>
<path fill="none" stroke="midnightblue" d="M521.74,-354.835C674.154,-362.075 1002.79,-377.685 1157.39,-385.028"/>
<polygon fill="midnightblue" stroke="midnightblue" points="1157.61,-388.543 1167.77,-385.521 1157.94,-381.551 1157.61,-388.543"/>
</g>
<!-- Node33 -->
<g id="node33" class="node"><title>Node33</title>
<g id="a_node33"><a xlink:href="../../df/df8/class_cell_society_view.html#adf6a6b0542d00677a9fffbb8e3c03ffe" target="_top" xlink:title="CellSocietyView.makeTimeline">
<polygon fill="white" stroke="black" points="558,-322.5 558,-341.5 718,-341.5 718,-322.5 558,-322.5"/>
<text text-anchor="middle" x="638" y="-329.5" font-family="Helvetica,sans-Serif" font-size="10.00">CellSocietyView.makeTimeline</text>
</a>
</g>
</g>
<!-- Node3&#45;&gt;Node33 -->
<g id="edge41" class="edge"><title>Node3&#45;&gt;Node33</title>
<path fill="none" stroke="midnightblue" d="M521.569,-343.19C530.145,-342.358 538.904,-341.509 547.573,-340.669"/>
<polygon fill="midnightblue" stroke="midnightblue" points="548.077,-344.137 557.693,-339.688 547.402,-337.169 548.077,-344.137"/>
</g>
<!-- Node5 -->
<g id="node5" class="node"><title>Node5</title>
<g id="a_node5"><a xlink:href="../../da/d74/class_grid.html#af432eea602599251a5e456fd24e38661" target="_top" xlink:title="Grid.makeGrid">
<polygon fill="white" stroke="black" points="793,-448.5 793,-467.5 879,-467.5 879,-448.5 793,-448.5"/>
<text text-anchor="middle" x="836" y="-455.5" font-family="Helvetica,sans-Serif" font-size="10.00">Grid.makeGrid</text>
</a>
</g>
</g>
<!-- Node4&#45;&gt;Node5 -->
<g id="edge4" class="edge"><title>Node4&#45;&gt;Node5</title>
<path fill="none" stroke="midnightblue" d="M664.624,-454.523C694.406,-455.131 744.338,-456.15 782.47,-456.928"/>
<polygon fill="midnightblue" stroke="midnightblue" points="782.816,-460.436 792.885,-457.141 782.959,-453.437 782.816,-460.436"/>
</g>
<!-- Node7 -->
<g id="node7" class="node"><title>Node7</title>
<g id="a_node7"><a xlink:href="../../d2/d40/class_cellular_automata.html#ac4d0b9bd9416cb4b3567caacc05cd55a" target="_top" xlink:title="CellularAutomata.setUpInitial\lConfig">
<polygon fill="white" stroke="black" points="758,-399 758,-429 914,-429 914,-399 758,-399"/>
<text text-anchor="start" x="766" y="-417" font-family="Helvetica,sans-Serif" font-size="10.00">CellularAutomata.setUpInitial</text>
<text text-anchor="middle" x="836" y="-406" font-family="Helvetica,sans-Serif" font-size="10.00">Config</text>
</a>
</g>
</g>
<!-- Node6&#45;&gt;Node7 -->
<g id="edge6" class="edge"><title>Node6&#45;&gt;Node7</title>
<path fill="none" stroke="midnightblue" d="M696.746,-411.884C712.699,-412.128 730.374,-412.399 747.606,-412.662"/>
<polygon fill="midnightblue" stroke="midnightblue" points="747.633,-416.163 757.685,-412.817 747.74,-409.164 747.633,-416.163"/>
</g>
<!-- Node10 -->
<g id="node10" class="node"><title>Node10</title>
<g id="a_node10"><a xlink:href="../../dd/d97/class_grid_drawer.html#af9a09b2ee81450f13a117261b67718e0" target="_top" xlink:title="GridDrawer.makeUnitGrid">
<polygon fill="white" stroke="black" points="767,-486.5 767,-505.5 905,-505.5 905,-486.5 767,-486.5"/>
<text text-anchor="middle" x="836" y="-493.5" font-family="Helvetica,sans-Serif" font-size="10.00">GridDrawer.makeUnitGrid</text>
</a>
</g>
</g>
<!-- Node9&#45;&gt;Node10 -->
<g id="edge9" class="edge"><title>Node9&#45;&gt;Node10</title>
<path fill="none" stroke="midnightblue" d="M688.206,-524.46C714.767,-519.31 747.749,-512.916 775.718,-507.494"/>
<polygon fill="midnightblue" stroke="midnightblue" points="776.623,-510.883 785.774,-505.544 775.29,-504.011 776.623,-510.883"/>
</g>
<!-- Node15 -->
<g id="node15" class="node"><title>Node15</title>
<g id="a_node15"><a xlink:href="../../dd/d97/class_grid_drawer.html#a54f548bdc35a2afef9af05a134c149f5" target="_top" xlink:title="GridDrawer.calculateCell\lWidth">
<polygon fill="white" stroke="black" points="770,-612 770,-642 902,-642 902,-612 770,-612"/>
<text text-anchor="start" x="778" y="-630" font-family="Helvetica,sans-Serif" font-size="10.00">GridDrawer.calculateCell</text>
<text text-anchor="middle" x="836" y="-619" font-family="Helvetica,sans-Serif" font-size="10.00">Width</text>
</a>
</g>
</g>
<!-- Node9&#45;&gt;Node15 -->
<g id="edge14" class="edge"><title>Node9&#45;&gt;Node15</title>
<path fill="none" stroke="midnightblue" d="M652.943,-543.714C674.018,-558.051 715.61,-585.009 754,-602 759.259,-604.328 764.8,-606.527 770.414,-608.584"/>
<polygon fill="midnightblue" stroke="midnightblue" points="769.3,-611.902 779.895,-611.906 771.615,-605.296 769.3,-611.902"/>
</g>
<!-- Node16 -->
<g id="node16" class="node"><title>Node16</title>
<g id="a_node16"><a xlink:href="../../dd/d97/class_grid_drawer.html#a3f6bb5e9307bf84f9f8f4ae467ec85cf" target="_top" xlink:title="GridDrawer.calculateCell\lHeight">
<polygon fill="white" stroke="black" points="770,-563 770,-593 902,-593 902,-563 770,-563"/>
<text text-anchor="start" x="778" y="-581" font-family="Helvetica,sans-Serif" font-size="10.00">GridDrawer.calculateCell</text>
<text text-anchor="middle" x="836" y="-570" font-family="Helvetica,sans-Serif" font-size="10.00">Height</text>
</a>
</g>
</g>
<!-- Node9&#45;&gt;Node16 -->
<g id="edge15" class="edge"><title>Node9&#45;&gt;Node16</title>
<path fill="none" stroke="midnightblue" d="M681.529,-543.547C704.391,-548.68 733.259,-555.16 759.772,-561.112"/>
<polygon fill="midnightblue" stroke="midnightblue" points="759.277,-564.588 769.801,-563.363 760.81,-557.758 759.277,-564.588"/>
</g>
<!-- Node17 -->
<g id="node17" class="node"><title>Node17</title>
<g id="a_node17"><a xlink:href="../../dd/d97/class_grid_drawer.html#a8fba9cca18cee03651775b5785722778" target="_top" xlink:title="GridDrawer.scale">
<polygon fill="white" stroke="black" points="787.5,-524.5 787.5,-543.5 884.5,-543.5 884.5,-524.5 787.5,-524.5"/>
<text text-anchor="middle" x="836" y="-531.5" font-family="Helvetica,sans-Serif" font-size="10.00">GridDrawer.scale</text>
</a>
</g>
</g>
<!-- Node9&#45;&gt;Node17 -->
<g id="edge16" class="edge"><title>Node9&#45;&gt;Node17</title>
<path fill="none" stroke="midnightblue" d="M697.541,-534C722.723,-534 752.078,-534 777.18,-534"/>
<polygon fill="midnightblue" stroke="midnightblue" points="777.291,-537.5 787.291,-534 777.291,-530.5 777.291,-537.5"/>
</g>
<!-- Node11 -->
<g id="node11" class="node"><title>Node11</title>
<g id="a_node11"><a xlink:href="../../dd/d97/class_grid_drawer.html#a69ef437bdcbcdb3dca6b206b73a1ab1f" target="_top" xlink:title="GridDrawer.drawUnitCell">
<polygon fill="white" stroke="black" points="969.5,-486.5 969.5,-505.5 1100.5,-505.5 1100.5,-486.5 969.5,-486.5"/>
<text text-anchor="middle" x="1035" y="-493.5" font-family="Helvetica,sans-Serif" font-size="10.00">GridDrawer.drawUnitCell</text>
</a>
</g>
</g>
<!-- Node10&#45;&gt;Node11 -->
<g id="edge10" class="edge"><title>Node10&#45;&gt;Node11</title>
<path fill="none" stroke="midnightblue" d="M905.072,-496C922.457,-496 941.245,-496 958.958,-496"/>
<polygon fill="midnightblue" stroke="midnightblue" points="959.244,-499.5 969.244,-496 959.244,-492.5 959.244,-499.5"/>
</g>
<!-- Node12 -->
<g id="node12" class="node"><title>Node12</title>
<g id="a_node12"><a xlink:href="../../dd/d97/class_grid_drawer.html#a53b8613b7621224084096d76e2316452" target="_top" xlink:title="GridDrawer.drawTriangle">
<polygon fill="white" stroke="black" points="1176.5,-524.5 1176.5,-543.5 1307.5,-543.5 1307.5,-524.5 1176.5,-524.5"/>
<text text-anchor="middle" x="1242" y="-531.5" font-family="Helvetica,sans-Serif" font-size="10.00">GridDrawer.drawTriangle</text>
</a>
</g>
</g>
<!-- Node11&#45;&gt;Node12 -->
<g id="edge11" class="edge"><title>Node11&#45;&gt;Node12</title>
<path fill="none" stroke="midnightblue" d="M1087.47,-505.54C1115.37,-510.712 1150.05,-517.14 1179.38,-522.578"/>
<polygon fill="midnightblue" stroke="midnightblue" points="1179.04,-526.075 1189.51,-524.456 1180.32,-519.192 1179.04,-526.075"/>
</g>
<!-- Node13 -->
<g id="node13" class="node"><title>Node13</title>
<g id="a_node13"><a xlink:href="../../dd/d97/class_grid_drawer.html#a08b9d58cde5fafa07e226d4ed2ebc655" target="_top" xlink:title="GridDrawer.drawSquare">
<polygon fill="white" stroke="black" points="1177.5,-486.5 1177.5,-505.5 1306.5,-505.5 1306.5,-486.5 1177.5,-486.5"/>
<text text-anchor="middle" x="1242" y="-493.5" font-family="Helvetica,sans-Serif" font-size="10.00">GridDrawer.drawSquare</text>
</a>
</g>
</g>
<!-- Node11&#45;&gt;Node13 -->
<g id="edge12" class="edge"><title>Node11&#45;&gt;Node13</title>
<path fill="none" stroke="midnightblue" d="M1100.58,-496C1121.76,-496 1145.45,-496 1167.25,-496"/>
<polygon fill="midnightblue" stroke="midnightblue" points="1167.44,-499.5 1177.44,-496 1167.44,-492.5 1167.44,-499.5"/>
</g>
<!-- Node14 -->
<g id="node14" class="node"><title>Node14</title>
<g id="a_node14"><a xlink:href="../../dd/d97/class_grid_drawer.html#a260f7ce1d53af7f88e1c4ee3a4a3de2b" target="_top" xlink:title="GridDrawer.drawHexagon">
<polygon fill="white" stroke="black" points="1173.5,-448.5 1173.5,-467.5 1310.5,-467.5 1310.5,-448.5 1173.5,-448.5"/>
<text text-anchor="middle" x="1242" y="-455.5" font-family="Helvetica,sans-Serif" font-size="10.00">GridDrawer.drawHexagon</text>
</a>
</g>
</g>
<!-- Node11&#45;&gt;Node14 -->
<g id="edge13" class="edge"><title>Node11&#45;&gt;Node14</title>
<path fill="none" stroke="midnightblue" d="M1087.47,-486.46C1115.37,-481.288 1150.05,-474.86 1179.38,-469.422"/>
<polygon fill="midnightblue" stroke="midnightblue" points="1180.32,-472.808 1189.51,-467.544 1179.04,-465.925 1180.32,-472.808"/>
</g>
<!-- Node19 -->
<g id="node19" class="node"><title>Node19</title>
<g id="a_node19"><a xlink:href="../../df/df8/class_cell_society_view.html#a1531c1a5ad4e0630046bfe4e8c3127e8" target="_top" xlink:title="CellSocietyView.makePlay\lButton">
<polygon fill="white" stroke="black" points="766,-137 766,-167 906,-167 906,-137 766,-137"/>
<text text-anchor="start" x="774" y="-155" font-family="Helvetica,sans-Serif" font-size="10.00">CellSocietyView.makePlay</text>
<text text-anchor="middle" x="836" y="-144" font-family="Helvetica,sans-Serif" font-size="10.00">Button</text>
</a>
</g>
</g>
<!-- Node18&#45;&gt;Node19 -->
<g id="edge18" class="edge"><title>Node18&#45;&gt;Node19</title>
<path fill="none" stroke="midnightblue" d="M717.028,-152C729.747,-152 742.936,-152 755.686,-152"/>
<polygon fill="midnightblue" stroke="midnightblue" points="755.8,-155.5 765.8,-152 755.8,-148.5 755.8,-155.5"/>
</g>
<!-- Node21 -->
<g id="node21" class="node"><title>Node21</title>
<g id="a_node21"><a xlink:href="../../df/df8/class_cell_society_view.html#ae177299e365c8c48502004eb87a03cf1" target="_top" xlink:title="CellSocietyView.makePause\lButton">
<polygon fill="white" stroke="black" points="761.5,-88 761.5,-118 910.5,-118 910.5,-88 761.5,-88"/>
<text text-anchor="start" x="769.5" y="-106" font-family="Helvetica,sans-Serif" font-size="10.00">CellSocietyView.makePause</text>
<text text-anchor="middle" x="836" y="-95" font-family="Helvetica,sans-Serif" font-size="10.00">Button</text>
</a>
</g>
</g>
<!-- Node18&#45;&gt;Node21 -->
<g id="edge20" class="edge"><title>Node18&#45;&gt;Node21</title>
<path fill="none" stroke="midnightblue" d="M677.256,-142.436C702.179,-136.205 735.437,-127.891 764.99,-120.503"/>
<polygon fill="midnightblue" stroke="midnightblue" points="766,-123.858 774.852,-118.037 764.302,-117.067 766,-123.858"/>
</g>
<!-- Node22 -->
<g id="node22" class="node"><title>Node22</title>
<g id="a_node22"><a xlink:href="../../df/df8/class_cell_society_view.html#ae4f695e25edd84b67be004d3b1a7a437" target="_top" xlink:title="CellSocietyView.makeFFButton">
<polygon fill="white" stroke="black" points="754.5,-49.5 754.5,-68.5 917.5,-68.5 917.5,-49.5 754.5,-49.5"/>
<text text-anchor="middle" x="836" y="-56.5" font-family="Helvetica,sans-Serif" font-size="10.00">CellSocietyView.makeFFButton</text>
</a>
</g>
</g>
<!-- Node18&#45;&gt;Node22 -->
<g id="edge22" class="edge"><title>Node18&#45;&gt;Node22</title>
<path fill="none" stroke="midnightblue" d="M650.974,-142.294C671.059,-126.493 713.345,-95.2408 754,-78 759.847,-75.5205 766.075,-73.3322 772.38,-71.4082"/>
<polygon fill="midnightblue" stroke="midnightblue" points="773.64,-74.6893 782.309,-68.5986 771.734,-67.9537 773.64,-74.6893"/>
</g>
<!-- Node23 -->
<g id="node23" class="node"><title>Node23</title>
<g id="a_node23"><a xlink:href="../../df/df8/class_cell_society_view.html#a304edeb753eed8cedb1c8e0ad952a4d8" target="_top" xlink:title="CellSocietyView.makeSlow\lButton">
<polygon fill="white" stroke="black" points="765,-186 765,-216 907,-216 907,-186 765,-186"/>
<text text-anchor="start" x="773" y="-204" font-family="Helvetica,sans-Serif" font-size="10.00">CellSocietyView.makeSlow</text>
<text text-anchor="middle" x="836" y="-193" font-family="Helvetica,sans-Serif" font-size="10.00">Button</text>
</a>
</g>
</g>
<!-- Node18&#45;&gt;Node23 -->
<g id="edge24" class="edge"><title>Node18&#45;&gt;Node23</title>
<path fill="none" stroke="midnightblue" d="M677.256,-161.564C702.179,-167.795 735.437,-176.109 764.99,-183.497"/>
<polygon fill="midnightblue" stroke="midnightblue" points="764.302,-186.933 774.852,-185.963 766,-180.142 764.302,-186.933"/>
</g>
<!-- Node24 -->
<g id="node24" class="node"><title>Node24</title>
<g id="a_node24"><a xlink:href="../../df/df8/class_cell_society_view.html#aec6e94a6cf275f0b5d64a4b8adccd7d0" target="_top" xlink:title="CellSocietyView.makeStep\lButton">
<polygon fill="white" stroke="black" points="764.5,-235 764.5,-265 907.5,-265 907.5,-235 764.5,-235"/>
<text text-anchor="start" x="772.5" y="-253" font-family="Helvetica,sans-Serif" font-size="10.00">CellSocietyView.makeStep</text>
<text text-anchor="middle" x="836" y="-242" font-family="Helvetica,sans-Serif" font-size="10.00">Button</text>
</a>
</g>
</g>
<!-- Node18&#45;&gt;Node24 -->
<g id="edge26" class="edge"><title>Node18&#45;&gt;Node24</title>
<path fill="none" stroke="midnightblue" d="M651.798,-161.747C672.369,-177.03 714.494,-206.763 754,-225 759.011,-227.313 764.292,-229.485 769.656,-231.507"/>
<polygon fill="midnightblue" stroke="midnightblue" points="768.767,-234.907 779.361,-234.985 771.128,-228.317 768.767,-234.907"/>
</g>
<!-- Node32 -->
<g id="node32" class="node"><title>Node32</title>
<g id="a_node32"><a xlink:href="../../df/df8/class_cell_society_view.html#a656cfed0ba32bc41bbd0c4087860db4b" target="_top" xlink:title="CellSocietyView.makeLoad\lButton">
<polygon fill="white" stroke="black" points="764.5,-0 764.5,-30 907.5,-30 907.5,-0 764.5,-0"/>
<text text-anchor="start" x="772.5" y="-18" font-family="Helvetica,sans-Serif" font-size="10.00">CellSocietyView.makeLoad</text>
<text text-anchor="middle" x="836" y="-7" font-family="Helvetica,sans-Serif" font-size="10.00">Button</text>
</a>
</g>
</g>
<!-- Node18&#45;&gt;Node32 -->
<g id="edge37" class="edge"><title>Node18&#45;&gt;Node32</title>
<path fill="none" stroke="midnightblue" d="M649.988,-142.347C665.487,-128.619 694.502,-102.511 718,-79 734.676,-62.3156 734.044,-52.5776 754,-40 757.336,-37.8972 760.862,-35.9608 764.5,-34.1788"/>
<polygon fill="midnightblue" stroke="midnightblue" points="766.026,-37.3307 773.733,-30.0609 763.175,-30.9377 766.026,-37.3307"/>
</g>
<!-- Node20 -->
<g id="node20" class="node"><title>Node20</title>
<g id="a_node20"><a xlink:href="../../df/df8/class_cell_society_view.html#ae09ddc20f81e90312e628d712a5c6afc" target="_top" xlink:title="CellSocietyView.makeUIButton">
<polygon fill="white" stroke="black" points="954,-117.5 954,-136.5 1116,-136.5 1116,-117.5 954,-117.5"/>
<text text-anchor="middle" x="1035" y="-124.5" font-family="Helvetica,sans-Serif" font-size="10.00">CellSocietyView.makeUIButton</text>
</a>
</g>
</g>
<!-- Node19&#45;&gt;Node20 -->
<g id="edge19" class="edge"><title>Node19&#45;&gt;Node20</title>
<path fill="none" stroke="midnightblue" d="M906.178,-143.221C919.917,-141.478 934.493,-139.628 948.696,-137.825"/>
<polygon fill="midnightblue" stroke="midnightblue" points="949.475,-141.255 958.955,-136.523 948.594,-134.31 949.475,-141.255"/>
</g>
<!-- Node21&#45;&gt;Node20 -->
<g id="edge21" class="edge"><title>Node21&#45;&gt;Node20</title>
<path fill="none" stroke="midnightblue" d="M910.636,-111.971C922.047,-113.361 933.934,-114.809 945.629,-116.234"/>
<polygon fill="midnightblue" stroke="midnightblue" points="945.49,-119.743 955.84,-117.478 946.337,-112.794 945.49,-119.743"/>
</g>
<!-- Node22&#45;&gt;Node20 -->
<g id="edge23" class="edge"><title>Node22&#45;&gt;Node20</title>
<path fill="none" stroke="midnightblue" d="M883.635,-68.5163C894.983,-71.2214 907.013,-74.4195 918,-78 948.373,-87.8985 981.867,-102.462 1005.02,-113.139"/>
<polygon fill="midnightblue" stroke="midnightblue" points="1003.73,-116.399 1014.27,-117.453 1006.69,-110.055 1003.73,-116.399"/>
</g>
<!-- Node23&#45;&gt;Node20 -->
<g id="edge25" class="edge"><title>Node23&#45;&gt;Node20</title>
<path fill="none" stroke="midnightblue" d="M888.678,-185.899C898.475,-182.797 908.597,-179.427 918,-176 947.475,-165.257 980.354,-151.161 1003.56,-140.847"/>
<polygon fill="midnightblue" stroke="midnightblue" points="1005.18,-143.959 1012.88,-136.679 1002.32,-137.569 1005.18,-143.959"/>
</g>
<!-- Node24&#45;&gt;Node20 -->
<g id="edge27" class="edge"><title>Node24&#45;&gt;Node20</title>
<path fill="none" stroke="midnightblue" d="M895.684,-234.99C903.392,-232.13 911.027,-228.813 918,-225 958.201,-203.016 997.282,-165.714 1018.23,-144.024"/>
<polygon fill="midnightblue" stroke="midnightblue" points="1020.99,-146.202 1025.34,-136.541 1015.92,-141.382 1020.99,-146.202"/>
</g>
<!-- Node25 -->
<g id="node25" class="node"><title>Node25</title>
<g id="a_node25"><a xlink:href="../../df/df8/class_cell_society_view.html#ad52b914fa03b45d8bc9d64fc407660f3" target="_top" xlink:title="CellSocietyView.updateView">
<polygon fill="white" stroke="black" points="960.5,-322.5 960.5,-341.5 1109.5,-341.5 1109.5,-322.5 960.5,-322.5"/>
<text text-anchor="middle" x="1035" y="-329.5" font-family="Helvetica,sans-Serif" font-size="10.00">CellSocietyView.updateView</text>
</a>
</g>
</g>
<!-- Node24&#45;&gt;Node25 -->
<g id="edge28" class="edge"><title>Node24&#45;&gt;Node25</title>
<path fill="none" stroke="midnightblue" d="M873.133,-265.04C909.888,-280.339 966.324,-303.83 1001.65,-318.535"/>
<polygon fill="midnightblue" stroke="midnightblue" points="1000.44,-321.824 1011.02,-322.436 1003.13,-315.361 1000.44,-321.824"/>
</g>
<!-- Node26 -->
<g id="node26" class="node"><title>Node26</title>
<g id="a_node26"><a xlink:href="../../d2/d40/class_cellular_automata.html#a8f4c8a2f32137db67dd31f5afb4b62c3" target="_top" xlink:title="CellularAutomata.updateNextGen">
<polygon fill="white" stroke="black" points="1152.5,-322.5 1152.5,-341.5 1331.5,-341.5 1331.5,-322.5 1152.5,-322.5"/>
<text text-anchor="middle" x="1242" y="-329.5" font-family="Helvetica,sans-Serif" font-size="10.00">CellularAutomata.updateNextGen</text>
</a>
</g>
</g>
<!-- Node25&#45;&gt;Node26 -->
<g id="edge29" class="edge"><title>Node25&#45;&gt;Node26</title>
<path fill="none" stroke="midnightblue" d="M1109.72,-332C1120.27,-332 1131.25,-332 1142.19,-332"/>
<polygon fill="midnightblue" stroke="midnightblue" points="1142.2,-335.5 1152.2,-332 1142.2,-328.5 1142.2,-335.5"/>
</g>
<!-- Node25&#45;&gt;Node29 -->
<g id="edge34" class="edge"><title>Node25&#45;&gt;Node29</title>
<path fill="none" stroke="midnightblue" d="M1070.31,-341.541C1105.05,-351.199 1158.91,-366.175 1196.82,-376.716"/>
<polygon fill="midnightblue" stroke="midnightblue" points="1196,-380.121 1206.58,-379.428 1197.88,-373.377 1196,-380.121"/>
</g>
<!-- Node27 -->
<g id="node27" class="node"><title>Node27</title>
<g id="a_node27"><a xlink:href="../../d2/d40/class_cellular_automata.html#ab6b9e3ca964f405470ec0acc064d9b3a" target="_top" xlink:title="CellularAutomata.checkRules">
<polygon fill="white" stroke="black" points="1375.5,-322.5 1375.5,-341.5 1530.5,-341.5 1530.5,-322.5 1375.5,-322.5"/>
<text text-anchor="middle" x="1453" y="-329.5" font-family="Helvetica,sans-Serif" font-size="10.00">CellularAutomata.checkRules</text>
</a>
</g>
</g>
<!-- Node26&#45;&gt;Node27 -->
<g id="edge30" class="edge"><title>Node26&#45;&gt;Node27</title>
<path fill="none" stroke="midnightblue" d="M1331.63,-332C1342.79,-332 1354.2,-332 1365.33,-332"/>
<polygon fill="midnightblue" stroke="midnightblue" points="1365.45,-335.5 1375.45,-332 1365.45,-328.5 1365.45,-335.5"/>
</g>
<!-- Node28 -->
<g id="node28" class="node"><title>Node28</title>
<g id="a_node28"><a xlink:href="../../d2/d40/class_cellular_automata.html#ab39b5164764f20382801aa9a4663eb4b" target="_top" xlink:title="CellularAutomata.handleUpdate">
<polygon fill="white" stroke="black" points="1368,-360.5 1368,-379.5 1538,-379.5 1538,-360.5 1368,-360.5"/>
<text text-anchor="middle" x="1453" y="-367.5" font-family="Helvetica,sans-Serif" font-size="10.00">CellularAutomata.handleUpdate</text>
</a>
</g>
</g>
<!-- Node26&#45;&gt;Node28 -->
<g id="edge32" class="edge"><title>Node26&#45;&gt;Node28</title>
<path fill="none" stroke="midnightblue" d="M1295.47,-341.54C1324.04,-346.735 1359.58,-353.196 1389.57,-358.649"/>
<polygon fill="midnightblue" stroke="midnightblue" points="1389.04,-362.111 1399.51,-360.456 1390.3,-355.224 1389.04,-362.111"/>
</g>
<!-- Node27&#45;&gt;Node8 -->
<g id="edge31" class="edge"><title>Node27&#45;&gt;Node8</title>
<path fill="none" stroke="midnightblue" d="M1530.74,-332C1541.59,-332 1552.75,-332 1563.63,-332"/>
<polygon fill="midnightblue" stroke="midnightblue" points="1563.95,-335.5 1573.95,-332 1563.95,-328.5 1563.95,-335.5"/>
</g>
<!-- Node28&#45;&gt;Node8 -->
<g id="edge33" class="edge"><title>Node28&#45;&gt;Node8</title>
<path fill="none" stroke="midnightblue" d="M1501.44,-360.411C1526.81,-355.284 1558.23,-348.933 1584.92,-343.537"/>
<polygon fill="midnightblue" stroke="midnightblue" points="1585.79,-346.932 1594.9,-341.52 1584.41,-340.071 1585.79,-346.932"/>
</g>
<!-- Node30 -->
<g id="node30" class="node"><title>Node30</title>
<g id="a_node30"><a xlink:href="../../da/d74/class_grid.html#a2f2ccb1511e367a7d6e9bcb3f708cd38" target="_top" xlink:title="Grid.getCellAt">
<polygon fill="white" stroke="black" points="1411.5,-398.5 1411.5,-417.5 1494.5,-417.5 1494.5,-398.5 1411.5,-398.5"/>
<text text-anchor="middle" x="1453" y="-405.5" font-family="Helvetica,sans-Serif" font-size="10.00">Grid.getCellAt</text>
</a>
</g>
</g>
<!-- Node29&#45;&gt;Node30 -->
<g id="edge35" class="edge"><title>Node29&#45;&gt;Node30</title>
<path fill="none" stroke="midnightblue" d="M1316.1,-395.645C1344.14,-398.194 1375.5,-401.045 1401.02,-403.366"/>
<polygon fill="midnightblue" stroke="midnightblue" points="1400.94,-406.873 1411.22,-404.293 1401.58,-399.901 1400.94,-406.873"/>
</g>
<!-- Node31 -->
<g id="node31" class="node"><title>Node31</title>
<g id="a_node31"><a xlink:href="../../dd/d11/class_cell.html#aac3ac473652b817fe344534f4bec7e6f" target="_top" xlink:title="Cell.getState">
<polygon fill="white" stroke="black" points="1413.5,-436.5 1413.5,-455.5 1492.5,-455.5 1492.5,-436.5 1413.5,-436.5"/>
<text text-anchor="middle" x="1453" y="-443.5" font-family="Helvetica,sans-Serif" font-size="10.00">Cell.getState</text>
</a>
</g>
</g>
<!-- Node29&#45;&gt;Node31 -->
<g id="edge36" class="edge"><title>Node29&#45;&gt;Node31</title>
<path fill="none" stroke="midnightblue" d="M1272.13,-398.511C1297.35,-406.589 1334.89,-418.235 1368,-427 1379.4,-430.019 1391.75,-432.981 1403.39,-435.635"/>
<polygon fill="midnightblue" stroke="midnightblue" points="1402.86,-439.104 1413.38,-437.882 1404.4,-432.274 1402.86,-439.104"/>
</g>
<!-- Node32&#45;&gt;Node1 -->
<g id="edge39" class="edge"><title>Node32&#45;&gt;Node1</title>
<path fill="none" stroke="midnightblue" d="M764.332,-26.7314C618.552,-50.932 286.18,-106.109 143.313,-129.825"/>
<polygon fill="midnightblue" stroke="midnightblue" points="142.651,-126.387 133.359,-131.478 143.798,-133.293 142.651,-126.387"/>
</g>
<!-- Node32&#45;&gt;Node20 -->
<g id="edge38" class="edge"><title>Node32&#45;&gt;Node20</title>
<path fill="none" stroke="midnightblue" d="M894.623,-30.0808C902.651,-32.9552 910.657,-36.257 918,-40 955.984,-59.3632 994.481,-91.1843 1016.19,-110.505"/>
<polygon fill="midnightblue" stroke="midnightblue" points="1013.88,-113.138 1023.65,-117.245 1018.57,-107.944 1013.88,-113.138"/>
</g>
<!-- Node33&#45;&gt;Node25 -->
<g id="edge42" class="edge"><title>Node33&#45;&gt;Node25</title>
<path fill="none" stroke="midnightblue" d="M718.459,-332C785.638,-332 881.596,-332 950.025,-332"/>
<polygon fill="midnightblue" stroke="midnightblue" points="950.338,-335.5 960.338,-332 950.338,-328.5 950.338,-335.5"/>
</g>
</g>
</svg>
