<?xml version="1.0" encoding="UTF-8" standalone="no"?>
<!DOCTYPE svg PUBLIC "-//W3C//DTD SVG 1.1//EN"
 "http://www.w3.org/Graphics/SVG/1.1/DTD/svg11.dtd">
<!-- Generated by graphviz version 2.36.0 (20140111.2315)
 -->
<!-- Title: CellSocietyView.setUpGameTypes Pages: 1 -->
<svg width="542pt" height="38pt"
 viewBox="0.00 0.00 542.00 38.00" xmlns="http://www.w3.org/2000/svg" xmlns:xlink="http://www.w3.org/1999/xlink">
<g id="graph0" class="graph" transform="scale(1 1) rotate(0) translate(4 34)">
<title>CellSocietyView.setUpGameTypes</title>
<polygon fill="white" stroke="none" points="-4,4 -4,-34 538,-34 538,4 -4,4"/>
<!-- Node1 -->
<g id="node1" class="node"><title>Node1</title>
<polygon fill="#bfbfbf" stroke="black" points="0.5,-0 0.5,-30 151.5,-30 151.5,-0 0.5,-0"/>
<text text-anchor="start" x="8.5" y="-18" font-family="Helvetica,sans-Serif" font-size="10.00">CellSocietyView.setUpGame</text>
<text text-anchor="middle" x="76" y="-7" font-family="Helvetica,sans-Serif" font-size="10.00">Types</text>
</g>
<!-- Node2 -->
<g id="node2" class="node"><title>Node2</title>
<g id="a_node2"><a xlink:href="../../df/df8/class_cell_society_view.html#a1b6388535f7c24c4fc076db62c78ac92" target="_top" xlink:title="CellSocietyView.addGameType">
<polygon fill="white" stroke="black" points="188.5,-5.5 188.5,-24.5 349.5,-24.5 349.5,-5.5 188.5,-5.5"/>
<text text-anchor="middle" x="269" y="-12.5" font-family="Helvetica,sans-Serif" font-size="10.00">CellSocietyView.addGameType</text>
</a>
</g>
</g>
<!-- Node1&#45;&gt;Node2 -->
<g id="edge1" class="edge"><title>Node1&#45;&gt;Node2</title>
<path fill="none" stroke="midnightblue" d="M151.666,-15C160.408,-15 169.396,-15 178.315,-15"/>
<polygon fill="midnightblue" stroke="midnightblue" points="178.339,-18.5001 188.339,-15 178.339,-11.5001 178.339,-18.5001"/>
</g>
<!-- Node3 -->
<g id="node3" class="node"><title>Node3</title>
<g id="a_node3"><a xlink:href="../../d2/d40/class_cellular_automata.html#ad8e068dc2395ca5598e5e4164ecfe6b2" target="_top" xlink:title="CellularAutomata.getName">
<polygon fill="white" stroke="black" points="386,-5.5 386,-24.5 534,-24.5 534,-5.5 386,-5.5"/>
<text text-anchor="middle" x="460" y="-12.5" font-family="Helvetica,sans-Serif" font-size="10.00">CellularAutomata.getName</text>
</a>
</g>
</g>
<!-- Node2&#45;&gt;Node3 -->
<g id="edge2" class="edge"><title>Node2&#45;&gt;Node3</title>
<path fill="none" stroke="midnightblue" d="M349.605,-15C358.234,-15 367.033,-15 375.704,-15"/>
<polygon fill="midnightblue" stroke="midnightblue" points="375.806,-18.5001 385.806,-15 375.806,-11.5001 375.806,-18.5001"/>
</g>
</g>
</svg>
