<?xml version="1.0" encoding="UTF-8" standalone="no"?>
<!DOCTYPE svg PUBLIC "-//W3C//DTD SVG 1.1//EN"
 "http://www.w3.org/Graphics/SVG/1.1/DTD/svg11.dtd">
<!-- Generated by graphviz version 2.36.0 (20140111.2315)
 -->
<!-- Title: CellSocietyView.parseFile Pages: 1 -->
<svg width="914pt" height="85pt"
 viewBox="0.00 0.00 914.00 85.00" xmlns="http://www.w3.org/2000/svg" xmlns:xlink="http://www.w3.org/1999/xlink">
<g id="graph0" class="graph" transform="scale(1 1) rotate(0) translate(4 81)">
<title>CellSocietyView.parseFile</title>
<polygon fill="white" stroke="none" points="-4,4 -4,-81 910,-81 910,4 -4,4"/>
<!-- Node1 -->
<g id="node1" class="node"><title>Node1</title>
<polygon fill="#bfbfbf" stroke="black" points="0.5,-1.5 0.5,-20.5 135.5,-20.5 135.5,-1.5 0.5,-1.5"/>
<text text-anchor="middle" x="68" y="-8.5" font-family="Helvetica,sans-Serif" font-size="10.00">CellSocietyView.parseFile</text>
</g>
<!-- Node2 -->
<g id="node2" class="node"><title>Node2</title>
<g id="a_node2"><a xlink:href="../../df/df8/class_cell_society_view.html#a2c047a3972078bb0a5490ed225ef2dfa" target="_top" xlink:title="CellSocietyView.loadNewFile">
<polygon fill="white" stroke="black" points="172.5,-22.5 172.5,-41.5 321.5,-41.5 321.5,-22.5 172.5,-22.5"/>
<text text-anchor="middle" x="247" y="-29.5" font-family="Helvetica,sans-Serif" font-size="10.00">CellSocietyView.loadNewFile</text>
</a>
</g>
</g>
<!-- Node1&#45;&gt;Node2 -->
<g id="edge1" class="edge"><title>Node1&#45;&gt;Node2</title>
<path fill="none" stroke="midnightblue" d="M145.865,-20.1196C154.633,-21.1599 163.557,-22.2186 172.283,-23.2539"/>
<polygon fill="midnightblue" stroke="midnightblue" points="146.007,-16.6119 135.664,-18.9093 145.182,-23.5632 146.007,-16.6119"/>
</g>
<!-- Node3 -->
<g id="node3" class="node"><title>Node3</title>
<g id="a_node3"><a xlink:href="../../df/df8/class_cell_society_view.html#a656cfed0ba32bc41bbd0c4087860db4b" target="_top" xlink:title="CellSocietyView.makeLoad\lButton">
<polygon fill="white" stroke="black" points="358.5,-20 358.5,-50 501.5,-50 501.5,-20 358.5,-20"/>
<text text-anchor="start" x="366.5" y="-38" font-family="Helvetica,sans-Serif" font-size="10.00">CellSocietyView.makeLoad</text>
<text text-anchor="middle" x="430" y="-27" font-family="Helvetica,sans-Serif" font-size="10.00">Button</text>
</a>
</g>
</g>
<!-- Node2&#45;&gt;Node3 -->
<g id="edge2" class="edge"><title>Node2&#45;&gt;Node3</title>
<path fill="none" stroke="midnightblue" d="M331.651,-33.3865C340.585,-33.5346 349.61,-33.6841 358.373,-33.8294"/>
<polygon fill="midnightblue" stroke="midnightblue" points="331.676,-29.8865 321.62,-33.2202 331.56,-36.8856 331.676,-29.8865"/>
</g>
<!-- Node4 -->
<g id="node4" class="node"><title>Node4</title>
<g id="a_node4"><a xlink:href="../../df/df8/class_cell_society_view.html#a53ab66afdeb23b3fc89e54a44be7ced5" target="_top" xlink:title="CellSocietyView.CellSocietyView">
<polygon fill="white" stroke="black" points="538.5,-57.5 538.5,-76.5 705.5,-76.5 705.5,-57.5 538.5,-57.5"/>
<text text-anchor="middle" x="622" y="-64.5" font-family="Helvetica,sans-Serif" font-size="10.00">CellSocietyView.CellSocietyView</text>
</a>
</g>
</g>
<!-- Node3&#45;&gt;Node4 -->
<g id="edge3" class="edge"><title>Node3&#45;&gt;Node4</title>
<path fill="none" stroke="midnightblue" d="M512.041,-48.649C529.682,-51.6201 547.979,-54.7017 564.428,-57.4721"/>
<polygon fill="midnightblue" stroke="midnightblue" points="512.191,-45.1251 501.749,-46.9156 511.029,-52.0279 512.191,-45.1251"/>
</g>
<!-- Node5 -->
<g id="node5" class="node"><title>Node5</title>
<g id="a_node5"><a xlink:href="../../df/df8/class_cell_society_view.html#a7bdbd4e8fd3893e672eb22015603f6dc" target="_top" xlink:title="CellSocietyView.makeButtons">
<polygon fill="white" stroke="black" points="543,-19.5 543,-38.5 701,-38.5 701,-19.5 543,-19.5"/>
<text text-anchor="middle" x="622" y="-26.5" font-family="Helvetica,sans-Serif" font-size="10.00">CellSocietyView.makeButtons</text>
</a>
</g>
</g>
<!-- Node3&#45;&gt;Node5 -->
<g id="edge4" class="edge"><title>Node3&#45;&gt;Node5</title>
<path fill="none" stroke="midnightblue" d="M511.91,-32.445C522.163,-32.1212 532.641,-31.7903 542.85,-31.4679"/>
<polygon fill="midnightblue" stroke="midnightblue" points="511.634,-28.9518 501.749,-32.7658 511.855,-35.9484 511.634,-28.9518"/>
</g>
<!-- Node6 -->
<g id="node6" class="node"><title>Node6</title>
<g id="a_node6"><a xlink:href="../../df/df8/class_cell_society_view.html#a767ab215ca329ba41b1493702141f841" target="_top" xlink:title="CellSocietyView.makeCAGame">
<polygon fill="white" stroke="black" points="742.5,-0.5 742.5,-19.5 905.5,-19.5 905.5,-0.5 742.5,-0.5"/>
<text text-anchor="middle" x="824" y="-7.5" font-family="Helvetica,sans-Serif" font-size="10.00">CellSocietyView.makeCAGame</text>
</a>
</g>
</g>
<!-- Node5&#45;&gt;Node6 -->
<g id="edge5" class="edge"><title>Node5&#45;&gt;Node6</title>
<path fill="none" stroke="midnightblue" d="M711.379,-20.604C721.645,-19.6287 732.077,-18.6377 742.234,-17.6728"/>
<polygon fill="midnightblue" stroke="midnightblue" points="710.809,-17.1423 701.185,-21.5725 711.471,-24.111 710.809,-17.1423"/>
</g>
<!-- Node6&#45;&gt;Node1 -->
<g id="edge6" class="edge"><title>Node6&#45;&gt;Node1</title>
<path fill="none" stroke="midnightblue" d="M732.341,-9.90728C638.624,-9.8332 488.078,-9.77495 358,-10 281.736,-10.1319 194.152,-10.4597 135.576,-10.7043"/>
<polygon fill="midnightblue" stroke="midnightblue" points="732.353,-13.4072 742.356,-9.91543 732.359,-6.40719 732.353,-13.4072"/>
</g>
</g>
</svg>
