<?xml version="1.0" encoding="UTF-8" standalone="no"?>
<!DOCTYPE svg PUBLIC "-//W3C//DTD SVG 1.1//EN"
 "http://www.w3.org/Graphics/SVG/1.1/DTD/svg11.dtd">
<!-- Generated by graphviz version 2.36.0 (20140111.2315)
 -->
<!-- Title: CellSocietyView.makeButtons Pages: 1 -->
<!--zoomable 443 -->
<svg id="main" version="1.1" xmlns="http://www.w3.org/2000/svg" xmlns:xlink="http://www.w3.org/1999/xlink" xml:space="preserve" onload="init(evt)">
<style type="text/css"><![CDATA[
.edge:hover path { stroke: red; }
.edge:hover polygon { stroke: red; fill: red; }
]]></style>
<script type="text/javascript"><![CDATA[
var edges = document.getElementsByTagName('g');
if (edges && edges.length) {
  for (var i=0;i<edges.length;i++) {
    if (edges[i].id.substr(0,4)=='edge') {
      edges[i].setAttribute('class','edge');
    }
  }
}
]]></script>
        <defs>
                <circle id="rim" cx="0" cy="0" r="7"/>
                <circle id="rim2" cx="0" cy="0" r="3.5"/>
                <g id="zoomPlus">
                        <use xlink:href="#rim" fill="#404040">
                                <set attributeName="fill" to="#808080" begin="zoomplus.mouseover" end="zoomplus.mouseout"/>
                        </use>
                        <path d="M-4,0h8M0,-4v8" fill="none" stroke="white" stroke-width="1.5" pointer-events="none"/>
                </g>
                <g id="zoomMin">
                        <use xlink:href="#rim" fill="#404040">
                                <set attributeName="fill" to="#808080" begin="zoomminus.mouseover" end="zoomminus.mouseout"/>
                        </use>
                        <path d="M-4,0h8" fill="none" stroke="white" stroke-width="1.5" pointer-events="none"/>
                </g>
                <g id="dirArrow">
                        <path fill="none" stroke="white" stroke-width="1.5" d="M0,-3.0v7 M-2.5,-0.5L0,-3.0L2.5,-0.5"/>
                </g>
               <g id="resetDef">
                       <use xlink:href="#rim2" fill="#404040">
                               <set attributeName="fill" to="#808080" begin="reset.mouseover" end="reset.mouseout"/>
                       </use>
               </g>
        </defs>

<script type="text/javascript">
var viewWidth = 1920;
var viewHeight = 443;
var sectionId = 'dynsection-7';
</script>
<script xlink:href="../../svgpan.js"/>
<svg id="graph" class="graph">
<g id="viewport">
<title>CellSocietyView.makeButtons</title>
<polygon fill="white" stroke="none" points="-4,4 -4,-439 1916,-439 1916,4 -4,4"/>
<!-- Node1 -->
<g id="node1" class="node"><title>Node1</title>
<polygon fill="#bfbfbf" stroke="black" points="0,-136.5 0,-155.5 158,-155.5 158,-136.5 0,-136.5"/>
<text text-anchor="middle" x="79" y="-143.5" font-family="Helvetica,sans-Serif" font-size="10.00">CellSocietyView.makeButtons</text>
</g>
<!-- Node2 -->
<g id="node2" class="node"><title>Node2</title>
<g id="a_node2"><a xlink:href="../../df/df8/class_cell_society_view.html#ae4f695e25edd84b67be004d3b1a7a437" target="_top" xlink:title="CellSocietyView.makeFFButton">
<polygon fill="white" stroke="black" points="194.5,-229.5 194.5,-248.5 357.5,-248.5 357.5,-229.5 194.5,-229.5"/>
<text text-anchor="middle" x="276" y="-236.5" font-family="Helvetica,sans-Serif" font-size="10.00">CellSocietyView.makeFFButton</text>
</a>
</g>
</g>
<!-- Node1&#45;&gt;Node2 -->
<g id="edge1" class="edge"><title>Node1&#45;&gt;Node2</title>
<path fill="none" stroke="midnightblue" d="M91.9007,-155.519C111.856,-171.027 153.837,-201.743 194,-219 200.771,-221.909 208.049,-224.452 215.366,-226.659"/>
<polygon fill="midnightblue" stroke="midnightblue" points="214.75,-230.121 225.324,-229.463 216.648,-223.384 214.75,-230.121"/>
</g>
<!-- Node4 -->
<g id="node4" class="node"><title>Node4</title>
<g id="a_node4"><a xlink:href="../../df/df8/class_cell_society_view.html#a656cfed0ba32bc41bbd0c4087860db4b" target="_top" xlink:title="CellSocietyView.makeLoad\lButton">
<polygon fill="white" stroke="black" points="204.5,-268 204.5,-298 347.5,-298 347.5,-268 204.5,-268"/>
<text text-anchor="start" x="212.5" y="-286" font-family="Helvetica,sans-Serif" font-size="10.00">CellSocietyView.makeLoad</text>
<text text-anchor="middle" x="276" y="-275" font-family="Helvetica,sans-Serif" font-size="10.00">Button</text>
</a>
</g>
</g>
<!-- Node1&#45;&gt;Node4 -->
<g id="edge3" class="edge"><title>Node1&#45;&gt;Node4</title>
<path fill="none" stroke="midnightblue" d="M87.1379,-155.652C103.572,-177.201 146.347,-229.568 194,-258 197.626,-260.163 201.456,-262.156 205.399,-263.988"/>
<polygon fill="midnightblue" stroke="midnightblue" points="204.191,-267.278 214.763,-267.98 206.936,-260.839 204.191,-267.278"/>
</g>
<!-- Node30 -->
<g id="node30" class="node"><title>Node30</title>
<g id="a_node30"><a xlink:href="../../df/df8/class_cell_society_view.html#ae177299e365c8c48502004eb87a03cf1" target="_top" xlink:title="CellSocietyView.makePause\lButton">
<polygon fill="white" stroke="black" points="201.5,-180 201.5,-210 350.5,-210 350.5,-180 201.5,-180"/>
<text text-anchor="start" x="209.5" y="-198" font-family="Helvetica,sans-Serif" font-size="10.00">CellSocietyView.makePause</text>
<text text-anchor="middle" x="276" y="-187" font-family="Helvetica,sans-Serif" font-size="10.00">Button</text>
</a>
</g>
</g>
<!-- Node1&#45;&gt;Node30 -->
<g id="edge34" class="edge"><title>Node1&#45;&gt;Node30</title>
<path fill="none" stroke="midnightblue" d="M118.061,-155.564C142.856,-161.795 175.945,-170.109 205.347,-177.497"/>
<polygon fill="midnightblue" stroke="midnightblue" points="204.608,-180.92 215.159,-179.963 206.314,-174.131 204.608,-180.92"/>
</g>
<!-- Node31 -->
<g id="node31" class="node"><title>Node31</title>
<g id="a_node31"><a xlink:href="../../df/df8/class_cell_society_view.html#a1531c1a5ad4e0630046bfe4e8c3127e8" target="_top" xlink:title="CellSocietyView.makePlay\lButton">
<polygon fill="white" stroke="black" points="206,-131 206,-161 346,-161 346,-131 206,-131"/>
<text text-anchor="start" x="214" y="-149" font-family="Helvetica,sans-Serif" font-size="10.00">CellSocietyView.makePlay</text>
<text text-anchor="middle" x="276" y="-138" font-family="Helvetica,sans-Serif" font-size="10.00">Button</text>
</a>
</g>
</g>
<!-- Node1&#45;&gt;Node31 -->
<g id="edge36" class="edge"><title>Node1&#45;&gt;Node31</title>
<path fill="none" stroke="midnightblue" d="M158.19,-146C170.525,-146 183.288,-146 195.648,-146"/>
<polygon fill="midnightblue" stroke="midnightblue" points="195.918,-149.5 205.918,-146 195.918,-142.5 195.918,-149.5"/>
</g>
<!-- Node32 -->
<g id="node32" class="node"><title>Node32</title>
<g id="a_node32"><a xlink:href="../../df/df8/class_cell_society_view.html#a304edeb753eed8cedb1c8e0ad952a4d8" target="_top" xlink:title="CellSocietyView.makeSlow\lButton">
<polygon fill="white" stroke="black" points="205,-82 205,-112 347,-112 347,-82 205,-82"/>
<text text-anchor="start" x="213" y="-100" font-family="Helvetica,sans-Serif" font-size="10.00">CellSocietyView.makeSlow</text>
<text text-anchor="middle" x="276" y="-89" font-family="Helvetica,sans-Serif" font-size="10.00">Button</text>
</a>
</g>
</g>
<!-- Node1&#45;&gt;Node32 -->
<g id="edge38" class="edge"><title>Node1&#45;&gt;Node32</title>
<path fill="none" stroke="midnightblue" d="M118.061,-136.436C142.856,-130.205 175.945,-121.891 205.347,-114.503"/>
<polygon fill="midnightblue" stroke="midnightblue" points="206.314,-117.869 215.159,-112.037 204.608,-111.08 206.314,-117.869"/>
</g>
<!-- Node33 -->
<g id="node33" class="node"><title>Node33</title>
<g id="a_node33"><a xlink:href="../../df/df8/class_cell_society_view.html#aec6e94a6cf275f0b5d64a4b8adccd7d0" target="_top" xlink:title="CellSocietyView.makeStep\lButton">
<polygon fill="white" stroke="black" points="204.5,-33 204.5,-63 347.5,-63 347.5,-33 204.5,-33"/>
<text text-anchor="start" x="212.5" y="-51" font-family="Helvetica,sans-Serif" font-size="10.00">CellSocietyView.makeStep</text>
<text text-anchor="middle" x="276" y="-40" font-family="Helvetica,sans-Serif" font-size="10.00">Button</text>
</a>
</g>
</g>
<!-- Node1&#45;&gt;Node33 -->
<g id="edge40" class="edge"><title>Node1&#45;&gt;Node33</title>
<path fill="none" stroke="midnightblue" d="M92.2944,-136.298C112.476,-120.781 154.356,-90.273 194,-72 198.271,-70.0315 202.742,-68.1796 207.297,-66.446"/>
<polygon fill="midnightblue" stroke="midnightblue" points="208.502,-69.7324 216.727,-63.0543 206.132,-63.1456 208.502,-69.7324"/>
</g>
<!-- Node3 -->
<g id="node3" class="node"><title>Node3</title>
<g id="a_node3"><a xlink:href="../../df/df8/class_cell_society_view.html#ae09ddc20f81e90312e628d712a5c6afc" target="_top" xlink:title="CellSocietyView.makeUIButton">
<polygon fill="white" stroke="black" points="394,-160.5 394,-179.5 556,-179.5 556,-160.5 394,-160.5"/>
<text text-anchor="middle" x="475" y="-167.5" font-family="Helvetica,sans-Serif" font-size="10.00">CellSocietyView.makeUIButton</text>
</a>
</g>
</g>
<!-- Node2&#45;&gt;Node3 -->
<g id="edge2" class="edge"><title>Node2&#45;&gt;Node3</title>
<path fill="none" stroke="midnightblue" d="M321.08,-229.452C333.159,-226.475 346.179,-222.929 358,-219 388.134,-208.985 421.416,-194.56 444.573,-183.954"/>
<polygon fill="midnightblue" stroke="midnightblue" points="446.233,-187.042 453.839,-179.666 443.293,-180.69 446.233,-187.042"/>
</g>
<!-- Node4&#45;&gt;Node3 -->
<g id="edge4" class="edge"><title>Node4&#45;&gt;Node3</title>
<path fill="none" stroke="midnightblue" d="M334.642,-267.956C342.667,-265.076 350.668,-261.763 358,-258 396.288,-238.349 434.954,-205.915 456.561,-186.392"/>
<polygon fill="midnightblue" stroke="midnightblue" points="458.968,-188.934 463.971,-179.595 454.236,-183.775 458.968,-188.934"/>
</g>
<!-- Node5 -->
<g id="node5" class="node"><title>Node5</title>
<g id="a_node5"><a xlink:href="../../df/df8/class_cell_society_view.html#a2c047a3972078bb0a5490ed225ef2dfa" target="_top" xlink:title="CellSocietyView.loadNewFile">
<polygon fill="white" stroke="black" points="400.5,-247.5 400.5,-266.5 549.5,-266.5 549.5,-247.5 400.5,-247.5"/>
<text text-anchor="middle" x="475" y="-254.5" font-family="Helvetica,sans-Serif" font-size="10.00">CellSocietyView.loadNewFile</text>
</a>
</g>
</g>
<!-- Node4&#45;&gt;Node5 -->
<g id="edge5" class="edge"><title>Node4&#45;&gt;Node5</title>
<path fill="none" stroke="midnightblue" d="M347.565,-273.687C361.918,-271.793 377.133,-269.784 391.847,-267.842"/>
<polygon fill="midnightblue" stroke="midnightblue" points="392.482,-271.289 401.938,-266.511 391.566,-264.349 392.482,-271.289"/>
</g>
<!-- Node6 -->
<g id="node6" class="node"><title>Node6</title>
<g id="a_node6"><a xlink:href="../../df/df8/class_cell_society_view.html#a2ee793e471cc5731ce39c1450f058dd5" target="_top" xlink:title="CellSocietyView.parseFile">
<polygon fill="white" stroke="black" points="592.5,-205.5 592.5,-224.5 727.5,-224.5 727.5,-205.5 592.5,-205.5"/>
<text text-anchor="middle" x="660" y="-212.5" font-family="Helvetica,sans-Serif" font-size="10.00">CellSocietyView.parseFile</text>
</a>
</g>
</g>
<!-- Node5&#45;&gt;Node6 -->
<g id="edge6" class="edge"><title>Node5&#45;&gt;Node6</title>
<path fill="none" stroke="midnightblue" d="M517.526,-247.47C544.222,-241.343 579.105,-233.337 607.552,-226.808"/>
<polygon fill="midnightblue" stroke="midnightblue" points="608.359,-230.214 617.322,-224.565 606.793,-223.391 608.359,-230.214"/>
</g>
<!-- Node7 -->
<g id="node7" class="node"><title>Node7</title>
<g id="a_node7"><a xlink:href="../../df/df8/class_cell_society_view.html#a767ab215ca329ba41b1493702141f841" target="_top" xlink:title="CellSocietyView.makeCAGame">
<polygon fill="white" stroke="black" points="764.5,-170.5 764.5,-189.5 927.5,-189.5 927.5,-170.5 764.5,-170.5"/>
<text text-anchor="middle" x="846" y="-177.5" font-family="Helvetica,sans-Serif" font-size="10.00">CellSocietyView.makeCAGame</text>
</a>
</g>
</g>
<!-- Node6&#45;&gt;Node7 -->
<g id="edge7" class="edge"><title>Node6&#45;&gt;Node7</title>
<path fill="none" stroke="midnightblue" d="M711.279,-205.436C733.996,-201.115 761.019,-195.975 784.807,-191.45"/>
<polygon fill="midnightblue" stroke="midnightblue" points="785.612,-194.859 794.782,-189.552 784.304,-187.983 785.612,-194.859"/>
</g>
<!-- Node7&#45;&gt;Node1 -->
<g id="edge22" class="edge"><title>Node7&#45;&gt;Node1</title>
<path fill="none" stroke="midnightblue" d="M823.748,-170.481C756.932,-141.141 544.481,-52.3162 358,-23 285.995,-11.6804 260.799,6.16627 194,-23 144.856,-44.4578 107.418,-98.706 90.2793,-127.456"/>
<polygon fill="midnightblue" stroke="midnightblue" points="87.2316,-125.734 85.2578,-136.144 93.2922,-129.237 87.2316,-125.734"/>
</g>
<!-- Node8 -->
<g id="node8" class="node"><title>Node8</title>
<g id="a_node8"><a xlink:href="../../da/d74/class_grid.html#acbc0b625c8f9d2f76db2f2a0d5288cd9" target="_top" xlink:title="Grid.init">
<polygon fill="white" stroke="black" points="1017.5,-237.5 1017.5,-256.5 1070.5,-256.5 1070.5,-237.5 1017.5,-237.5"/>
<text text-anchor="middle" x="1044" y="-244.5" font-family="Helvetica,sans-Serif" font-size="10.00">Grid.init</text>
</a>
</g>
</g>
<!-- Node7&#45;&gt;Node8 -->
<g id="edge8" class="edge"><title>Node7&#45;&gt;Node8</title>
<path fill="none" stroke="midnightblue" d="M872.924,-189.627C896.567,-198.33 932.51,-211.37 964,-222 978.258,-226.813 994.055,-231.867 1007.75,-236.162"/>
<polygon fill="midnightblue" stroke="midnightblue" points="1006.71,-239.504 1017.3,-239.14 1008.8,-232.822 1006.71,-239.504"/>
</g>
<!-- Node10 -->
<g id="node10" class="node"><title>Node10</title>
<g id="a_node10"><a xlink:href="../../d2/d40/class_cellular_automata.html#a347bfd2a64ee2d615902f6922e95fa6f" target="_top" xlink:title="CellularAutomata.init">
<polygon fill="white" stroke="black" points="985.5,-193.5 985.5,-212.5 1102.5,-212.5 1102.5,-193.5 985.5,-193.5"/>
<text text-anchor="middle" x="1044" y="-200.5" font-family="Helvetica,sans-Serif" font-size="10.00">CellularAutomata.init</text>
</a>
</g>
</g>
<!-- Node7&#45;&gt;Node10 -->
<g id="edge10" class="edge"><title>Node7&#45;&gt;Node10</title>
<path fill="none" stroke="midnightblue" d="M927.569,-189.455C943.506,-191.325 960.078,-193.269 975.526,-195.082"/>
<polygon fill="midnightblue" stroke="midnightblue" points="975.157,-198.563 985.497,-196.252 975.973,-191.611 975.157,-198.563"/>
</g>
<!-- Node12 -->
<g id="node12" class="node"><title>Node12</title>
<g id="a_node12"><a xlink:href="../../d2/d40/class_cellular_automata.html#a34ceed434c942d34ff03169b92684726" target="_top" xlink:title="CellularAutomata.getGrid">
<polygon fill="white" stroke="black" points="1774,-38.5 1774,-57.5 1912,-57.5 1912,-38.5 1774,-38.5"/>
<text text-anchor="middle" x="1843" y="-45.5" font-family="Helvetica,sans-Serif" font-size="10.00">CellularAutomata.getGrid</text>
</a>
</g>
</g>
<!-- Node7&#45;&gt;Node12 -->
<g id="edge12" class="edge"><title>Node7&#45;&gt;Node12</title>
<path fill="none" stroke="midnightblue" d="M927.619,-174.106C1006.45,-168.857 1129.91,-162 1237,-162 1237,-162 1237,-162 1443,-162 1574.38,-162 1617.1,-194.436 1738,-143 1777.33,-126.265 1811.44,-88.0928 1829.12,-65.5602"/>
<polygon fill="midnightblue" stroke="midnightblue" points="1831.98,-67.5746 1835.26,-57.5005 1826.42,-63.3301 1831.98,-67.5746"/>
</g>
<!-- Node13 -->
<g id="node13" class="node"><title>Node13</title>
<g id="a_node13"><a xlink:href="../../dd/d97/class_grid_drawer.html#ab8aa1cc79c89cfbc7b9d8516a5dee463" target="_top" xlink:title="GridDrawer.makeGrid">
<polygon fill="white" stroke="black" points="984.5,-333.5 984.5,-352.5 1103.5,-352.5 1103.5,-333.5 984.5,-333.5"/>
<text text-anchor="middle" x="1044" y="-340.5" font-family="Helvetica,sans-Serif" font-size="10.00">GridDrawer.makeGrid</text>
</a>
</g>
</g>
<!-- Node7&#45;&gt;Node13 -->
<g id="edge13" class="edge"><title>Node7&#45;&gt;Node13</title>
<path fill="none" stroke="midnightblue" d="M858.674,-189.708C891.219,-216.774 983.218,-293.284 1023.6,-326.862"/>
<polygon fill="midnightblue" stroke="midnightblue" points="1021.46,-329.639 1031.39,-333.343 1025.94,-324.257 1021.46,-329.639"/>
</g>
<!-- Node22 -->
<g id="node22" class="node"><title>Node22</title>
<g id="a_node22"><a xlink:href="../../dd/d97/class_grid_drawer.html#a8853ef53b515fd60ca524f05a3dbf897" target="_top" xlink:title="GridDrawer.updateNextGen">
<polygon fill="white" stroke="black" points="1368,-85.5 1368,-104.5 1516,-104.5 1516,-85.5 1368,-85.5"/>
<text text-anchor="middle" x="1442" y="-92.5" font-family="Helvetica,sans-Serif" font-size="10.00">GridDrawer.updateNextGen</text>
</a>
</g>
</g>
<!-- Node7&#45;&gt;Node22 -->
<g id="edge23" class="edge"><title>Node7&#45;&gt;Node22</title>
<path fill="none" stroke="midnightblue" d="M876.998,-170.401C900.456,-163.236 934.008,-153.731 964,-148 1100.61,-121.895 1261.86,-107.3 1357.55,-100.304"/>
<polygon fill="midnightblue" stroke="midnightblue" points="1358.02,-103.779 1367.74,-99.569 1357.51,-96.797 1358.02,-103.779"/>
</g>
<!-- Node25 -->
<g id="node25" class="node"><title>Node25</title>
<g id="a_node25"><a xlink:href="../../df/df8/class_cell_society_view.html#adf6a6b0542d00677a9fffbb8e3c03ffe" target="_top" xlink:title="CellSocietyView.makeTimeline">
<polygon fill="white" stroke="black" points="964,-76.5 964,-95.5 1124,-95.5 1124,-76.5 964,-76.5"/>
<text text-anchor="middle" x="1044" y="-83.5" font-family="Helvetica,sans-Serif" font-size="10.00">CellSocietyView.makeTimeline</text>
</a>
</g>
</g>
<!-- Node7&#45;&gt;Node25 -->
<g id="edge26" class="edge"><title>Node7&#45;&gt;Node25</title>
<path fill="none" stroke="midnightblue" d="M860.454,-170.45C881.626,-155.777 924.396,-127.546 964,-110 973.832,-105.644 984.687,-101.78 995.119,-98.4934"/>
<polygon fill="midnightblue" stroke="midnightblue" points="996.387,-101.767 1004.95,-95.5224 994.361,-95.0664 996.387,-101.767"/>
</g>
<!-- Node9 -->
<g id="node9" class="node"><title>Node9</title>
<g id="a_node9"><a xlink:href="../../da/d74/class_grid.html#af432eea602599251a5e456fd24e38661" target="_top" xlink:title="Grid.makeGrid">
<polygon fill="white" stroke="black" points="1195,-240.5 1195,-259.5 1281,-259.5 1281,-240.5 1195,-240.5"/>
<text text-anchor="middle" x="1238" y="-247.5" font-family="Helvetica,sans-Serif" font-size="10.00">Grid.makeGrid</text>
</a>
</g>
</g>
<!-- Node8&#45;&gt;Node9 -->
<g id="edge9" class="edge"><title>Node8&#45;&gt;Node9</title>
<path fill="none" stroke="midnightblue" d="M1070.89,-247.405C1099.9,-247.858 1147.68,-248.604 1184.56,-249.181"/>
<polygon fill="midnightblue" stroke="midnightblue" points="1184.6,-252.682 1194.65,-249.338 1184.71,-245.682 1184.6,-252.682"/>
</g>
<!-- Node11 -->
<g id="node11" class="node"><title>Node11</title>
<g id="a_node11"><a xlink:href="../../d2/d40/class_cellular_automata.html#ac4d0b9bd9416cb4b3567caacc05cd55a" target="_top" xlink:title="CellularAutomata.setUpInitial\lConfig">
<polygon fill="white" stroke="black" points="1160,-191 1160,-221 1316,-221 1316,-191 1160,-191"/>
<text text-anchor="start" x="1168" y="-209" font-family="Helvetica,sans-Serif" font-size="10.00">CellularAutomata.setUpInitial</text>
<text text-anchor="middle" x="1238" y="-198" font-family="Helvetica,sans-Serif" font-size="10.00">Config</text>
</a>
</g>
</g>
<!-- Node10&#45;&gt;Node11 -->
<g id="edge11" class="edge"><title>Node10&#45;&gt;Node11</title>
<path fill="none" stroke="midnightblue" d="M1102.61,-203.9C1117.38,-204.131 1133.6,-204.384 1149.5,-204.633"/>
<polygon fill="midnightblue" stroke="midnightblue" points="1149.84,-208.138 1159.89,-204.795 1149.95,-201.139 1149.84,-208.138"/>
</g>
<!-- Node14 -->
<g id="node14" class="node"><title>Node14</title>
<g id="a_node14"><a xlink:href="../../dd/d97/class_grid_drawer.html#af9a09b2ee81450f13a117261b67718e0" target="_top" xlink:title="GridDrawer.makeUnitGrid">
<polygon fill="white" stroke="black" points="1169,-377.5 1169,-396.5 1307,-396.5 1307,-377.5 1169,-377.5"/>
<text text-anchor="middle" x="1238" y="-384.5" font-family="Helvetica,sans-Serif" font-size="10.00">GridDrawer.makeUnitGrid</text>
</a>
</g>
</g>
<!-- Node13&#45;&gt;Node14 -->
<g id="edge14" class="edge"><title>Node13&#45;&gt;Node14</title>
<path fill="none" stroke="midnightblue" d="M1086.66,-352.547C1115.72,-359.207 1154.69,-368.136 1185.67,-375.236"/>
<polygon fill="midnightblue" stroke="midnightblue" points="1184.89,-378.649 1195.42,-377.471 1186.45,-371.826 1184.89,-378.649"/>
</g>
<!-- Node19 -->
<g id="node19" class="node"><title>Node19</title>
<g id="a_node19"><a xlink:href="../../dd/d97/class_grid_drawer.html#a54f548bdc35a2afef9af05a134c149f5" target="_top" xlink:title="GridDrawer.calculateCell\lWidth">
<polygon fill="white" stroke="black" points="1172,-328 1172,-358 1304,-358 1304,-328 1172,-328"/>
<text text-anchor="start" x="1180" y="-346" font-family="Helvetica,sans-Serif" font-size="10.00">GridDrawer.calculateCell</text>
<text text-anchor="middle" x="1238" y="-335" font-family="Helvetica,sans-Serif" font-size="10.00">Width</text>
</a>
</g>
</g>
<!-- Node13&#45;&gt;Node19 -->
<g id="edge19" class="edge"><title>Node13&#45;&gt;Node19</title>
<path fill="none" stroke="midnightblue" d="M1103.65,-343C1121.88,-343 1142.24,-343 1161.45,-343"/>
<polygon fill="midnightblue" stroke="midnightblue" points="1161.68,-346.5 1171.68,-343 1161.68,-339.5 1161.68,-346.5"/>
</g>
<!-- Node20 -->
<g id="node20" class="node"><title>Node20</title>
<g id="a_node20"><a xlink:href="../../dd/d97/class_grid_drawer.html#a3f6bb5e9307bf84f9f8f4ae467ec85cf" target="_top" xlink:title="GridDrawer.calculateCell\lHeight">
<polygon fill="white" stroke="black" points="1172,-279 1172,-309 1304,-309 1304,-279 1172,-279"/>
<text text-anchor="start" x="1180" y="-297" font-family="Helvetica,sans-Serif" font-size="10.00">GridDrawer.calculateCell</text>
<text text-anchor="middle" x="1238" y="-286" font-family="Helvetica,sans-Serif" font-size="10.00">Height</text>
</a>
</g>
</g>
<!-- Node13&#45;&gt;Node20 -->
<g id="edge20" class="edge"><title>Node13&#45;&gt;Node20</title>
<path fill="none" stroke="midnightblue" d="M1082.48,-333.436C1106.78,-327.232 1139.19,-318.963 1168.04,-311.599"/>
<polygon fill="midnightblue" stroke="midnightblue" points="1169.26,-314.901 1178.08,-309.037 1167.52,-308.119 1169.26,-314.901"/>
</g>
<!-- Node21 -->
<g id="node21" class="node"><title>Node21</title>
<g id="a_node21"><a xlink:href="../../dd/d97/class_grid_drawer.html#a8fba9cca18cee03651775b5785722778" target="_top" xlink:title="GridDrawer.scale">
<polygon fill="white" stroke="black" points="1189.5,-415.5 1189.5,-434.5 1286.5,-434.5 1286.5,-415.5 1189.5,-415.5"/>
<text text-anchor="middle" x="1238" y="-422.5" font-family="Helvetica,sans-Serif" font-size="10.00">GridDrawer.scale</text>
</a>
</g>
</g>
<!-- Node13&#45;&gt;Node21 -->
<g id="edge21" class="edge"><title>Node13&#45;&gt;Node21</title>
<path fill="none" stroke="midnightblue" d="M1059.65,-352.655C1080.94,-366.299 1122.03,-391.206 1160,-406 1166.38,-408.485 1173.18,-410.722 1180.01,-412.713"/>
<polygon fill="midnightblue" stroke="midnightblue" points="1179.41,-416.177 1189.98,-415.454 1181.26,-409.428 1179.41,-416.177"/>
</g>
<!-- Node15 -->
<g id="node15" class="node"><title>Node15</title>
<g id="a_node15"><a xlink:href="../../dd/d97/class_grid_drawer.html#a69ef437bdcbcdb3dca6b206b73a1ab1f" target="_top" xlink:title="GridDrawer.drawUnitCell">
<polygon fill="white" stroke="black" points="1376.5,-377.5 1376.5,-396.5 1507.5,-396.5 1507.5,-377.5 1376.5,-377.5"/>
<text text-anchor="middle" x="1442" y="-384.5" font-family="Helvetica,sans-Serif" font-size="10.00">GridDrawer.drawUnitCell</text>
</a>
</g>
</g>
<!-- Node14&#45;&gt;Node15 -->
<g id="edge15" class="edge"><title>Node14&#45;&gt;Node15</title>
<path fill="none" stroke="midnightblue" d="M1307.11,-387C1326.04,-387 1346.7,-387 1366,-387"/>
<polygon fill="midnightblue" stroke="midnightblue" points="1366.26,-390.5 1376.26,-387 1366.26,-383.5 1366.26,-390.5"/>
</g>
<!-- Node16 -->
<g id="node16" class="node"><title>Node16</title>
<g id="a_node16"><a xlink:href="../../dd/d97/class_grid_drawer.html#a53b8613b7621224084096d76e2316452" target="_top" xlink:title="GridDrawer.drawTriangle">
<polygon fill="white" stroke="black" points="1587.5,-339.5 1587.5,-358.5 1718.5,-358.5 1718.5,-339.5 1587.5,-339.5"/>
<text text-anchor="middle" x="1653" y="-346.5" font-family="Helvetica,sans-Serif" font-size="10.00">GridDrawer.drawTriangle</text>
</a>
</g>
</g>
<!-- Node15&#45;&gt;Node16 -->
<g id="edge16" class="edge"><title>Node15&#45;&gt;Node16</title>
<path fill="none" stroke="midnightblue" d="M1495.47,-377.46C1524.04,-372.265 1559.58,-365.804 1589.57,-360.351"/>
<polygon fill="midnightblue" stroke="midnightblue" points="1590.3,-363.776 1599.51,-358.544 1589.04,-356.889 1590.3,-363.776"/>
</g>
<!-- Node17 -->
<g id="node17" class="node"><title>Node17</title>
<g id="a_node17"><a xlink:href="../../dd/d97/class_grid_drawer.html#a08b9d58cde5fafa07e226d4ed2ebc655" target="_top" xlink:title="GridDrawer.drawSquare">
<polygon fill="white" stroke="black" points="1588.5,-415.5 1588.5,-434.5 1717.5,-434.5 1717.5,-415.5 1588.5,-415.5"/>
<text text-anchor="middle" x="1653" y="-422.5" font-family="Helvetica,sans-Serif" font-size="10.00">GridDrawer.drawSquare</text>
</a>
</g>
</g>
<!-- Node15&#45;&gt;Node17 -->
<g id="edge17" class="edge"><title>Node15&#45;&gt;Node17</title>
<path fill="none" stroke="midnightblue" d="M1495.47,-396.54C1524.04,-401.735 1559.58,-408.196 1589.57,-413.649"/>
<polygon fill="midnightblue" stroke="midnightblue" points="1589.04,-417.111 1599.51,-415.456 1590.3,-410.224 1589.04,-417.111"/>
</g>
<!-- Node18 -->
<g id="node18" class="node"><title>Node18</title>
<g id="a_node18"><a xlink:href="../../dd/d97/class_grid_drawer.html#a260f7ce1d53af7f88e1c4ee3a4a3de2b" target="_top" xlink:title="GridDrawer.drawHexagon">
<polygon fill="white" stroke="black" points="1584.5,-377.5 1584.5,-396.5 1721.5,-396.5 1721.5,-377.5 1584.5,-377.5"/>
<text text-anchor="middle" x="1653" y="-384.5" font-family="Helvetica,sans-Serif" font-size="10.00">GridDrawer.drawHexagon</text>
</a>
</g>
</g>
<!-- Node15&#45;&gt;Node18 -->
<g id="edge18" class="edge"><title>Node15&#45;&gt;Node18</title>
<path fill="none" stroke="midnightblue" d="M1507.7,-387C1528.71,-387 1552.24,-387 1574.11,-387"/>
<polygon fill="midnightblue" stroke="midnightblue" points="1574.36,-390.5 1584.36,-387 1574.36,-383.5 1574.36,-390.5"/>
</g>
<!-- Node23 -->
<g id="node23" class="node"><title>Node23</title>
<g id="a_node23"><a xlink:href="../../da/d74/class_grid.html#a2f2ccb1511e367a7d6e9bcb3f708cd38" target="_top" xlink:title="Grid.getCellAt">
<polygon fill="white" stroke="black" points="1611.5,-76.5 1611.5,-95.5 1694.5,-95.5 1694.5,-76.5 1611.5,-76.5"/>
<text text-anchor="middle" x="1653" y="-83.5" font-family="Helvetica,sans-Serif" font-size="10.00">Grid.getCellAt</text>
</a>
</g>
</g>
<!-- Node22&#45;&gt;Node23 -->
<g id="edge24" class="edge"><title>Node22&#45;&gt;Node23</title>
<path fill="none" stroke="midnightblue" d="M1516.1,-91.8522C1544.14,-90.6449 1575.5,-89.2944 1601.02,-88.1951"/>
<polygon fill="midnightblue" stroke="midnightblue" points="1601.38,-91.6832 1611.22,-87.7562 1601.08,-84.6897 1601.38,-91.6832"/>
</g>
<!-- Node24 -->
<g id="node24" class="node"><title>Node24</title>
<g id="a_node24"><a xlink:href="../../dd/d11/class_cell.html#aac3ac473652b817fe344534f4bec7e6f" target="_top" xlink:title="Cell.getState">
<polygon fill="white" stroke="black" points="1613.5,-114.5 1613.5,-133.5 1692.5,-133.5 1692.5,-114.5 1613.5,-114.5"/>
<text text-anchor="middle" x="1653" y="-121.5" font-family="Helvetica,sans-Serif" font-size="10.00">Cell.getState</text>
</a>
</g>
</g>
<!-- Node22&#45;&gt;Node24 -->
<g id="edge25" class="edge"><title>Node22&#45;&gt;Node24</title>
<path fill="none" stroke="midnightblue" d="M1511.72,-104.536C1541.69,-108.693 1576.11,-113.47 1603.36,-117.25"/>
<polygon fill="midnightblue" stroke="midnightblue" points="1603.04,-120.74 1613.42,-118.647 1604,-113.806 1603.04,-120.74"/>
</g>
<!-- Node26 -->
<g id="node26" class="node"><title>Node26</title>
<g id="a_node26"><a xlink:href="../../df/df8/class_cell_society_view.html#ad52b914fa03b45d8bc9d64fc407660f3" target="_top" xlink:title="CellSocietyView.updateView">
<polygon fill="white" stroke="black" points="1163.5,-66.5 1163.5,-85.5 1312.5,-85.5 1312.5,-66.5 1163.5,-66.5"/>
<text text-anchor="middle" x="1238" y="-73.5" font-family="Helvetica,sans-Serif" font-size="10.00">CellSocietyView.updateView</text>
</a>
</g>
</g>
<!-- Node25&#45;&gt;Node26 -->
<g id="edge27" class="edge"><title>Node25&#45;&gt;Node26</title>
<path fill="none" stroke="midnightblue" d="M1124.2,-81.8749C1133.68,-81.381 1143.39,-80.8754 1152.94,-80.3781"/>
<polygon fill="midnightblue" stroke="midnightblue" points="1153.42,-83.8582 1163.22,-79.8427 1153.05,-76.8676 1153.42,-83.8582"/>
</g>
<!-- Node26&#45;&gt;Node22 -->
<g id="edge33" class="edge"><title>Node26&#45;&gt;Node22</title>
<path fill="none" stroke="midnightblue" d="M1312.78,-82.9401C1327.34,-84.3096 1342.72,-85.7558 1357.57,-87.1528"/>
<polygon fill="midnightblue" stroke="midnightblue" points="1357.47,-90.6586 1367.75,-88.1105 1358.13,-83.6893 1357.47,-90.6586"/>
</g>
<!-- Node27 -->
<g id="node27" class="node"><title>Node27</title>
<g id="a_node27"><a xlink:href="../../d2/d40/class_cellular_automata.html#a8f4c8a2f32137db67dd31f5afb4b62c3" target="_top" xlink:title="CellularAutomata.updateNextGen">
<polygon fill="white" stroke="black" points="1352.5,-38.5 1352.5,-57.5 1531.5,-57.5 1531.5,-38.5 1352.5,-38.5"/>
<text text-anchor="middle" x="1442" y="-45.5" font-family="Helvetica,sans-Serif" font-size="10.00">CellularAutomata.updateNextGen</text>
</a>
</g>
</g>
<!-- Node26&#45;&gt;Node27 -->
<g id="edge28" class="edge"><title>Node26&#45;&gt;Node27</title>
<path fill="none" stroke="midnightblue" d="M1307.67,-66.4814C1325.15,-64.0581 1344.08,-61.4345 1362.03,-58.9463"/>
<polygon fill="midnightblue" stroke="midnightblue" points="1362.75,-62.3798 1372.18,-57.5398 1361.79,-55.4461 1362.75,-62.3798"/>
</g>
<!-- Node28 -->
<g id="node28" class="node"><title>Node28</title>
<g id="a_node28"><a xlink:href="../../d2/d40/class_cellular_automata.html#ab6b9e3ca964f405470ec0acc064d9b3a" target="_top" xlink:title="CellularAutomata.checkRules">
<polygon fill="white" stroke="black" points="1575.5,-0.5 1575.5,-19.5 1730.5,-19.5 1730.5,-0.5 1575.5,-0.5"/>
<text text-anchor="middle" x="1653" y="-7.5" font-family="Helvetica,sans-Serif" font-size="10.00">CellularAutomata.checkRules</text>
</a>
</g>
</g>
<!-- Node27&#45;&gt;Node28 -->
<g id="edge29" class="edge"><title>Node27&#45;&gt;Node28</title>
<path fill="none" stroke="midnightblue" d="M1495.47,-38.46C1524.04,-33.2652 1559.58,-26.8037 1589.57,-21.3511"/>
<polygon fill="midnightblue" stroke="midnightblue" points="1590.3,-24.7764 1599.51,-19.5439 1589.04,-17.8893 1590.3,-24.7764"/>
</g>
<!-- Node29 -->
<g id="node29" class="node"><title>Node29</title>
<g id="a_node29"><a xlink:href="../../d2/d40/class_cellular_automata.html#ab39b5164764f20382801aa9a4663eb4b" target="_top" xlink:title="CellularAutomata.handleUpdate">
<polygon fill="white" stroke="black" points="1568,-38.5 1568,-57.5 1738,-57.5 1738,-38.5 1568,-38.5"/>
<text text-anchor="middle" x="1653" y="-45.5" font-family="Helvetica,sans-Serif" font-size="10.00">CellularAutomata.handleUpdate</text>
</a>
</g>
</g>
<!-- Node27&#45;&gt;Node29 -->
<g id="edge31" class="edge"><title>Node27&#45;&gt;Node29</title>
<path fill="none" stroke="midnightblue" d="M1531.63,-48C1540.27,-48 1549.06,-48 1557.74,-48"/>
<polygon fill="midnightblue" stroke="midnightblue" points="1557.89,-51.5001 1567.89,-48 1557.89,-44.5001 1557.89,-51.5001"/>
</g>
<!-- Node28&#45;&gt;Node12 -->
<g id="edge30" class="edge"><title>Node28&#45;&gt;Node12</title>
<path fill="none" stroke="midnightblue" d="M1701.44,-19.589C1726.81,-24.7165 1758.23,-31.0672 1784.92,-36.4632"/>
<polygon fill="midnightblue" stroke="midnightblue" points="1784.41,-39.9293 1794.9,-38.4799 1785.79,-33.068 1784.41,-39.9293"/>
</g>
<!-- Node29&#45;&gt;Node12 -->
<g id="edge32" class="edge"><title>Node29&#45;&gt;Node12</title>
<path fill="none" stroke="midnightblue" d="M1738.1,-48C1746.58,-48 1755.17,-48 1763.59,-48"/>
<polygon fill="midnightblue" stroke="midnightblue" points="1763.75,-51.5001 1773.75,-48 1763.75,-44.5001 1763.75,-51.5001"/>
</g>
<!-- Node30&#45;&gt;Node3 -->
<g id="edge35" class="edge"><title>Node30&#45;&gt;Node3</title>
<path fill="none" stroke="midnightblue" d="M350.636,-185.655C363.053,-184.08 376.035,-182.432 388.719,-180.822"/>
<polygon fill="midnightblue" stroke="midnightblue" points="389.332,-184.273 398.811,-179.542 388.45,-177.329 389.332,-184.273"/>
</g>
<!-- Node31&#45;&gt;Node3 -->
<g id="edge37" class="edge"><title>Node31&#45;&gt;Node3</title>
<path fill="none" stroke="midnightblue" d="M346.178,-154.428C358.988,-155.988 372.526,-157.638 385.812,-159.256"/>
<polygon fill="midnightblue" stroke="midnightblue" points="385.556,-162.751 395.906,-160.486 386.402,-155.802 385.556,-162.751"/>
</g>
<!-- Node32&#45;&gt;Node3 -->
<g id="edge39" class="edge"><title>Node32&#45;&gt;Node3</title>
<path fill="none" stroke="midnightblue" d="M330.865,-112.043C339.978,-114.85 349.301,-117.885 358,-121 387.715,-131.641 420.808,-145.864 444.018,-156.245"/>
<polygon fill="midnightblue" stroke="midnightblue" points="442.766,-159.52 453.322,-160.437 445.642,-153.138 442.766,-159.52"/>
</g>
<!-- Node33&#45;&gt;Node3 -->
<g id="edge41" class="edge"><title>Node33&#45;&gt;Node3</title>
<path fill="none" stroke="midnightblue" d="M337.827,-63.0053C344.804,-65.6021 351.675,-68.5875 358,-72 398.325,-93.7564 437.361,-131.14 458.273,-152.905"/>
<polygon fill="midnightblue" stroke="midnightblue" points="455.955,-155.548 465.365,-160.417 461.045,-150.743 455.955,-155.548"/>
</g>
<!-- Node33&#45;&gt;Node26 -->
<g id="edge42" class="edge"><title>Node33&#45;&gt;Node26</title>
<path fill="none" stroke="midnightblue" d="M347.757,-48C424.438,-48 550.402,-48 659,-48 659,-48 659,-48 847,-48 952.732,-48 1074.17,-58.3651 1153.07,-66.4825"/>
<polygon fill="midnightblue" stroke="midnightblue" points="1153.13,-70.0071 1163.43,-67.5611 1153.85,-63.0447 1153.13,-70.0071"/>
</g>
</g>
</svg>
        <g id="navigator" transform="translate(0 0)" fill="#404254">
                <rect fill="#f2f5e9" fill-opacity="0.5" stroke="#606060" stroke-width=".5" x="0" y="0" width="60" height="60"/>
                <use id="zoomplus" xlink:href="#zoomPlus" x="17" y="9" onmousedown="handleZoom(evt,'in')"/>
                <use id="zoomminus" xlink:href="#zoomMin" x="42" y="9" onmousedown="handleZoom(evt,'out')"/>
                <use id="reset" xlink:href="#resetDef" x="30" y="36" onmousedown="handleReset()"/>
                <g id="arrowUp" xlink:href="#dirArrow" transform="translate(30 24)" onmousedown="handlePan(0,-1)">
                  <use xlink:href="#rim" fill="#404040">
                        <set attributeName="fill" to="#808080" begin="arrowUp.mouseover" end="arrowUp.mouseout"/>
                  </use>
                  <path fill="none" stroke="white" stroke-width="1.5" d="M0,-3.0v7 M-2.5,-0.5L0,-3.0L2.5,-0.5"/>
                </g>
                <g id="arrowRight" xlink:href="#dirArrow" transform="rotate(90) translate(36 -43)" onmousedown="handlePan(1,0)">
                  <use xlink:href="#rim" fill="#404040">
                        <set attributeName="fill" to="#808080" begin="arrowRight.mouseover" end="arrowRight.mouseout"/>
                  </use>
                  <path fill="none" stroke="white" stroke-width="1.5" d="M0,-3.0v7 M-2.5,-0.5L0,-3.0L2.5,-0.5"/>
                </g>
                <g id="arrowDown" xlink:href="#dirArrow" transform="rotate(180) translate(-30 -48)" onmousedown="handlePan(0,1)">
                  <use xlink:href="#rim" fill="#404040">
                        <set attributeName="fill" to="#808080" begin="arrowDown.mouseover" end="arrowDown.mouseout"/>
                  </use>
                  <path fill="none" stroke="white" stroke-width="1.5" d="M0,-3.0v7 M-2.5,-0.5L0,-3.0L2.5,-0.5"/>
                </g>
                <g id="arrowLeft" xlink:href="#dirArrow" transform="rotate(270) translate(-36 17)" onmousedown="handlePan(-1,0)">
                  <use xlink:href="#rim" fill="#404040">
                        <set attributeName="fill" to="#808080" begin="arrowLeft.mouseover" end="arrowLeft.mouseout"/>
                  </use>
                  <path fill="none" stroke="white" stroke-width="1.5" d="M0,-3.0v7 M-2.5,-0.5L0,-3.0L2.5,-0.5"/>
                </g>
        </g>
        <svg viewBox="0 0 15 15" width="100%" height="30px" preserveAspectRatio="xMaxYMin meet">
         <g id="arrow_out" transform="scale(0.3 0.3)">
          <a xlink:href="class_cell_society_view_a7bdbd4e8fd3893e672eb22015603f6dc_cgraph_org.svg" target="_base">
           <rect id="button" ry="5" rx="5" y="6" x="6" height="38" width="38"
                fill="#f2f5e9" fill-opacity="0.5" stroke="#606060" stroke-width="1.0"/>
           <path id="arrow"
             d="M 11.500037,31.436501 C 11.940474,20.09759 22.043105,11.32322 32.158766,21.979434 L 37.068811,17.246167 C 37.068811,17.246167 37.088388,32 37.088388,32 L 22.160133,31.978069 C 22.160133,31.978069 26.997745,27.140456 26.997745,27.140456 C 18.528582,18.264221 13.291696,25.230495 11.500037,31.436501 z"
             style="fill:#404040;"/>
          </a>
         </g>
        </svg>
</svg>
