<?xml version="1.0" encoding="UTF-8" standalone="no"?>
<!DOCTYPE svg PUBLIC "-//W3C//DTD SVG 1.1//EN"
 "http://www.w3.org/Graphics/SVG/1.1/DTD/svg11.dtd">
<!-- Generated by graphviz version 2.36.0 (20140111.2315)
 -->
<!-- Title: CellSocietyView.makeLoadButton Pages: 1 -->
<!--zoomable 666 -->
<svg id="main" version="1.1" xmlns="http://www.w3.org/2000/svg" xmlns:xlink="http://www.w3.org/1999/xlink" xml:space="preserve" onload="init(evt)">
<style type="text/css"><![CDATA[
.edge:hover path { stroke: red; }
.edge:hover polygon { stroke: red; fill: red; }
]]></style>
<script type="text/javascript"><![CDATA[
var edges = document.getElementsByTagName('g');
if (edges && edges.length) {
  for (var i=0;i<edges.length;i++) {
    if (edges[i].id.substr(0,4)=='edge') {
      edges[i].setAttribute('class','edge');
    }
  }
}
]]></script>
        <defs>
                <circle id="rim" cx="0" cy="0" r="7"/>
                <circle id="rim2" cx="0" cy="0" r="3.5"/>
                <g id="zoomPlus">
                        <use xlink:href="#rim" fill="#404040">
                                <set attributeName="fill" to="#808080" begin="zoomplus.mouseover" end="zoomplus.mouseout"/>
                        </use>
                        <path d="M-4,0h8M0,-4v8" fill="none" stroke="white" stroke-width="1.5" pointer-events="none"/>
                </g>
                <g id="zoomMin">
                        <use xlink:href="#rim" fill="#404040">
                                <set attributeName="fill" to="#808080" begin="zoomminus.mouseover" end="zoomminus.mouseout"/>
                        </use>
                        <path d="M-4,0h8" fill="none" stroke="white" stroke-width="1.5" pointer-events="none"/>
                </g>
                <g id="dirArrow">
                        <path fill="none" stroke="white" stroke-width="1.5" d="M0,-3.0v7 M-2.5,-0.5L0,-3.0L2.5,-0.5"/>
                </g>
               <g id="resetDef">
                       <use xlink:href="#rim2" fill="#404040">
                               <set attributeName="fill" to="#808080" begin="reset.mouseover" end="reset.mouseout"/>
                       </use>
               </g>
        </defs>

<script type="text/javascript">
var viewWidth = 1728;
var viewHeight = 666;
var sectionId = 'dynsection-11';
</script>
<script xlink:href="../../svgpan.js"/>
<svg id="graph" class="graph">
<g id="viewport">
<title>CellSocietyView.makeLoadButton</title>
<polygon fill="white" stroke="none" points="-4,4 -4,-662 1724,-662 1724,4 -4,4"/>
<!-- Node1 -->
<g id="node1" class="node"><title>Node1</title>
<polygon fill="#bfbfbf" stroke="black" points="0.5,-230 0.5,-260 143.5,-260 143.5,-230 0.5,-230"/>
<text text-anchor="start" x="8.5" y="-248" font-family="Helvetica,sans-Serif" font-size="10.00">CellSocietyView.makeLoad</text>
<text text-anchor="middle" x="72" y="-237" font-family="Helvetica,sans-Serif" font-size="10.00">Button</text>
</g>
<!-- Node2 -->
<g id="node2" class="node"><title>Node2</title>
<g id="a_node2"><a xlink:href="../../df/df8/class_cell_society_view.html#a2c047a3972078bb0a5490ed225ef2dfa" target="_top" xlink:title="CellSocietyView.loadNewFile">
<polygon fill="white" stroke="black" points="180.5,-330.5 180.5,-349.5 329.5,-349.5 329.5,-330.5 180.5,-330.5"/>
<text text-anchor="middle" x="255" y="-337.5" font-family="Helvetica,sans-Serif" font-size="10.00">CellSocietyView.loadNewFile</text>
</a>
</g>
</g>
<!-- Node1&#45;&gt;Node2 -->
<g id="edge1" class="edge"><title>Node1&#45;&gt;Node2</title>
<path fill="none" stroke="midnightblue" d="M101.68,-260.053C135.793,-277.958 192.353,-307.644 226.114,-325.364"/>
<polygon fill="midnightblue" stroke="midnightblue" points="224.92,-328.69 235.401,-330.238 228.173,-322.492 224.92,-328.69"/>
</g>
<!-- Node9 -->
<g id="node9" class="node"><title>Node9</title>
<g id="a_node9"><a xlink:href="../../df/df8/class_cell_society_view.html#ae09ddc20f81e90312e628d712a5c6afc" target="_top" xlink:title="CellSocietyView.makeUIButton">
<polygon fill="white" stroke="black" points="962,-120.5 962,-139.5 1124,-139.5 1124,-120.5 962,-120.5"/>
<text text-anchor="middle" x="1043" y="-127.5" font-family="Helvetica,sans-Serif" font-size="10.00">CellSocietyView.makeUIButton</text>
</a>
</g>
</g>
<!-- Node1&#45;&gt;Node9 -->
<g id="edge45" class="edge"><title>Node1&#45;&gt;Node9</title>
<path fill="none" stroke="midnightblue" d="M143.656,-245C218.856,-245 341.326,-245 447,-245 447,-245 447,-245 647,-245 771.318,-245 810.499,-270.983 926,-225 968.246,-208.181 1006.85,-170.082 1027.11,-147.575"/>
<polygon fill="midnightblue" stroke="midnightblue" points="1029.98,-149.613 1033.95,-139.79 1024.72,-144.994 1029.98,-149.613"/>
</g>
<!-- Node3 -->
<g id="node3" class="node"><title>Node3</title>
<g id="a_node3"><a xlink:href="../../d7/db3/class_x_m_l_reader.html#a9f7a6e53fc5114be22cbd0b9f6184ef0" target="_top" xlink:title="XMLReader.chooseFile">
<polygon fill="white" stroke="black" points="387.5,-493.5 387.5,-512.5 508.5,-512.5 508.5,-493.5 387.5,-493.5"/>
<text text-anchor="middle" x="448" y="-500.5" font-family="Helvetica,sans-Serif" font-size="10.00">XMLReader.chooseFile</text>
</a>
</g>
</g>
<!-- Node2&#45;&gt;Node3 -->
<g id="edge2" class="edge"><title>Node2&#45;&gt;Node3</title>
<path fill="none" stroke="midnightblue" d="M267.376,-349.708C299.016,-376.71 388.32,-452.922 427.81,-486.623"/>
<polygon fill="midnightblue" stroke="midnightblue" points="425.564,-489.307 435.442,-493.137 430.108,-483.983 425.564,-489.307"/>
</g>
<!-- Node5 -->
<g id="node5" class="node"><title>Node5</title>
<g id="a_node5"><a xlink:href="../../df/df8/class_cell_society_view.html#a6a72ed4ee014a9c3f0368ab26be873d6" target="_top" xlink:title="CellSocietyView.makeCAGame">
<polygon fill="white" stroke="black" points="366.5,-330.5 366.5,-349.5 529.5,-349.5 529.5,-330.5 366.5,-330.5"/>
<text text-anchor="middle" x="448" y="-337.5" font-family="Helvetica,sans-Serif" font-size="10.00">CellSocietyView.makeCAGame</text>
</a>
</g>
</g>
<!-- Node2&#45;&gt;Node5 -->
<g id="edge4" class="edge"><title>Node2&#45;&gt;Node5</title>
<path fill="none" stroke="midnightblue" d="M329.572,-340C338.353,-340 347.395,-340 356.379,-340"/>
<polygon fill="midnightblue" stroke="midnightblue" points="356.482,-343.5 366.482,-340 356.482,-336.5 356.482,-343.5"/>
</g>
<!-- Node4 -->
<g id="node4" class="node"><title>Node4</title>
<g id="a_node4"><a xlink:href="../../d7/db3/class_x_m_l_reader.html#a016fb8ab3899a6c41ac4daec9e64cb90" target="_top" xlink:title="XMLReader.parseXML">
<polygon fill="white" stroke="black" points="587,-600.5 587,-619.5 705,-619.5 705,-600.5 587,-600.5"/>
<text text-anchor="middle" x="646" y="-607.5" font-family="Helvetica,sans-Serif" font-size="10.00">XMLReader.parseXML</text>
</a>
</g>
</g>
<!-- Node3&#45;&gt;Node4 -->
<g id="edge3" class="edge"><title>Node3&#45;&gt;Node4</title>
<path fill="none" stroke="midnightblue" d="M458.708,-512.566C477.661,-530.689 521.627,-570.086 566,-591 571.232,-593.466 576.814,-595.629 582.5,-597.524"/>
<polygon fill="midnightblue" stroke="midnightblue" points="581.538,-600.889 592.125,-600.464 583.584,-594.195 581.538,-600.889"/>
</g>
<!-- Node6 -->
<g id="node6" class="node"><title>Node6</title>
<g id="a_node6"><a xlink:href="../../d2/d40/class_cellular_automata.html#a34ceed434c942d34ff03169b92684726" target="_top" xlink:title="CellularAutomata.getGrid">
<polygon fill="white" stroke="black" points="1582,-235.5 1582,-254.5 1720,-254.5 1720,-235.5 1582,-235.5"/>
<text text-anchor="middle" x="1651" y="-242.5" font-family="Helvetica,sans-Serif" font-size="10.00">CellularAutomata.getGrid</text>
</a>
</g>
</g>
<!-- Node5&#45;&gt;Node6 -->
<g id="edge5" class="edge"><title>Node5&#45;&gt;Node6</title>
<path fill="none" stroke="midnightblue" d="M529.686,-346.169C609.286,-351.717 734.456,-359 843,-359 843,-359 843,-359 1251,-359 1382.38,-359 1425.1,-391.436 1546,-340 1585.33,-323.265 1619.44,-285.093 1637.12,-262.56"/>
<polygon fill="midnightblue" stroke="midnightblue" points="1639.98,-264.575 1643.26,-254.5 1634.42,-260.33 1639.98,-264.575"/>
</g>
<!-- Node7 -->
<g id="node7" class="node"><title>Node7</title>
<g id="a_node7"><a xlink:href="../../df/df8/class_cell_society_view.html#a7bdbd4e8fd3893e672eb22015603f6dc" target="_top" xlink:title="CellSocietyView.makeButtons">
<polygon fill="white" stroke="black" points="567,-142.5 567,-161.5 725,-161.5 725,-142.5 567,-142.5"/>
<text text-anchor="middle" x="646" y="-149.5" font-family="Helvetica,sans-Serif" font-size="10.00">CellSocietyView.makeButtons</text>
</a>
</g>
</g>
<!-- Node5&#45;&gt;Node7 -->
<g id="edge6" class="edge"><title>Node5&#45;&gt;Node7</title>
<path fill="none" stroke="midnightblue" d="M458.989,-330.419C490.371,-300.317 587.272,-207.372 627.36,-168.92"/>
<polygon fill="midnightblue" stroke="midnightblue" points="630.002,-171.236 634.796,-161.788 625.156,-166.184 630.002,-171.236"/>
</g>
<!-- Node18 -->
<g id="node18" class="node"><title>Node18</title>
<g id="a_node18"><a xlink:href="../../dd/d97/class_grid_drawer.html#a8853ef53b515fd60ca524f05a3dbf897" target="_top" xlink:title="GridDrawer.updateNextGen">
<polygon fill="white" stroke="black" points="1176,-283.5 1176,-302.5 1324,-302.5 1324,-283.5 1176,-283.5"/>
<text text-anchor="middle" x="1250" y="-290.5" font-family="Helvetica,sans-Serif" font-size="10.00">GridDrawer.updateNextGen</text>
</a>
</g>
</g>
<!-- Node5&#45;&gt;Node18 -->
<g id="edge44" class="edge"><title>Node5&#45;&gt;Node18</title>
<path fill="none" stroke="midnightblue" d="M529.74,-335.257C682.154,-326.302 1010.79,-306.995 1165.39,-297.912"/>
<polygon fill="midnightblue" stroke="midnightblue" points="1165.99,-301.383 1175.77,-297.303 1165.58,-294.395 1165.99,-301.383"/>
</g>
<!-- Node21 -->
<g id="node21" class="node"><title>Node21</title>
<g id="a_node21"><a xlink:href="../../d7/db3/class_x_m_l_reader.html#a0c634622bb0c8f4ee65f2d91218e8917" target="_top" xlink:title="XMLReader.makeCA">
<polygon fill="white" stroke="black" points="590,-562.5 590,-581.5 702,-581.5 702,-562.5 590,-562.5"/>
<text text-anchor="middle" x="646" y="-569.5" font-family="Helvetica,sans-Serif" font-size="10.00">XMLReader.makeCA</text>
</a>
</g>
</g>
<!-- Node5&#45;&gt;Node21 -->
<g id="edge27" class="edge"><title>Node5&#45;&gt;Node21</title>
<path fill="none" stroke="midnightblue" d="M457.172,-349.673C487.12,-385.122 591.138,-508.245 630.106,-554.371"/>
<polygon fill="midnightblue" stroke="midnightblue" points="627.666,-556.905 636.793,-562.285 633.013,-552.388 627.666,-556.905"/>
</g>
<!-- Node25 -->
<g id="node25" class="node"><title>Node25</title>
<g id="a_node25"><a xlink:href="../../dd/d97/class_grid_drawer.html#ab8aa1cc79c89cfbc7b9d8516a5dee463" target="_top" xlink:title="GridDrawer.makeGrid">
<polygon fill="white" stroke="black" points="586.5,-431.5 586.5,-450.5 705.5,-450.5 705.5,-431.5 586.5,-431.5"/>
<text text-anchor="middle" x="646" y="-438.5" font-family="Helvetica,sans-Serif" font-size="10.00">GridDrawer.makeGrid</text>
</a>
</g>
</g>
<!-- Node5&#45;&gt;Node25 -->
<g id="edge33" class="edge"><title>Node5&#45;&gt;Node25</title>
<path fill="none" stroke="midnightblue" d="M467.439,-349.502C502.023,-367.323 576.787,-405.849 617.397,-426.776"/>
<polygon fill="midnightblue" stroke="midnightblue" points="615.975,-429.98 626.467,-431.45 619.181,-423.758 615.975,-429.98"/>
</g>
<!-- Node34 -->
<g id="node34" class="node"><title>Node34</title>
<g id="a_node34"><a xlink:href="../../df/df8/class_cell_society_view.html#adf6a6b0542d00677a9fffbb8e3c03ffe" target="_top" xlink:title="CellSocietyView.makeTimeline">
<polygon fill="white" stroke="black" points="566,-273.5 566,-292.5 726,-292.5 726,-273.5 566,-273.5"/>
<text text-anchor="middle" x="646" y="-280.5" font-family="Helvetica,sans-Serif" font-size="10.00">CellSocietyView.makeTimeline</text>
</a>
</g>
</g>
<!-- Node5&#45;&gt;Node34 -->
<g id="edge42" class="edge"><title>Node5&#45;&gt;Node34</title>
<path fill="none" stroke="midnightblue" d="M481.806,-330.459C514.877,-320.842 566.076,-305.952 602.296,-295.419"/>
<polygon fill="midnightblue" stroke="midnightblue" points="603.462,-298.725 612.087,-292.572 601.507,-292.003 603.462,-298.725"/>
</g>
<!-- Node7&#45;&gt;Node1 -->
<g id="edge9" class="edge"><title>Node7&#45;&gt;Node1</title>
<path fill="none" stroke="midnightblue" d="M586.543,-161.504C483.736,-178.219 270.422,-212.902 153.669,-231.884"/>
<polygon fill="midnightblue" stroke="midnightblue" points="153.021,-228.444 143.712,-233.503 154.144,-235.353 153.021,-228.444"/>
</g>
<!-- Node8 -->
<g id="node8" class="node"><title>Node8</title>
<g id="a_node8"><a xlink:href="../../df/df8/class_cell_society_view.html#ae4f695e25edd84b67be004d3b1a7a437" target="_top" xlink:title="CellSocietyView.makeFFButton">
<polygon fill="white" stroke="black" points="762.5,-98.5 762.5,-117.5 925.5,-117.5 925.5,-98.5 762.5,-98.5"/>
<text text-anchor="middle" x="844" y="-105.5" font-family="Helvetica,sans-Serif" font-size="10.00">CellSocietyView.makeFFButton</text>
</a>
</g>
</g>
<!-- Node7&#45;&gt;Node8 -->
<g id="edge7" class="edge"><title>Node7&#45;&gt;Node8</title>
<path fill="none" stroke="midnightblue" d="M689.529,-142.453C719.194,-135.793 758.971,-126.864 790.596,-119.764"/>
<polygon fill="midnightblue" stroke="midnightblue" points="791.563,-123.134 800.554,-117.529 790.03,-116.304 791.563,-123.134"/>
</g>
<!-- Node10 -->
<g id="node10" class="node"><title>Node10</title>
<g id="a_node10"><a xlink:href="../../df/df8/class_cell_society_view.html#ae177299e365c8c48502004eb87a03cf1" target="_top" xlink:title="CellSocietyView.makePause\lButton">
<polygon fill="white" stroke="black" points="769.5,-49 769.5,-79 918.5,-79 918.5,-49 769.5,-49"/>
<text text-anchor="start" x="777.5" y="-67" font-family="Helvetica,sans-Serif" font-size="10.00">CellSocietyView.makePause</text>
<text text-anchor="middle" x="844" y="-56" font-family="Helvetica,sans-Serif" font-size="10.00">Button</text>
</a>
</g>
</g>
<!-- Node7&#45;&gt;Node10 -->
<g id="edge10" class="edge"><title>Node7&#45;&gt;Node10</title>
<path fill="none" stroke="midnightblue" d="M662.129,-142.416C683.661,-129.08 724.681,-104.79 762,-89 767.47,-86.6855 773.229,-84.4794 779.049,-82.4051"/>
<polygon fill="midnightblue" stroke="midnightblue" points="780.536,-85.5952 788.862,-79.0426 778.267,-78.9732 780.536,-85.5952"/>
</g>
<!-- Node11 -->
<g id="node11" class="node"><title>Node11</title>
<g id="a_node11"><a xlink:href="../../df/df8/class_cell_society_view.html#a1531c1a5ad4e0630046bfe4e8c3127e8" target="_top" xlink:title="CellSocietyView.makePlay\lButton">
<polygon fill="white" stroke="black" points="774,-0 774,-30 914,-30 914,-0 774,-0"/>
<text text-anchor="start" x="782" y="-18" font-family="Helvetica,sans-Serif" font-size="10.00">CellSocietyView.makePlay</text>
<text text-anchor="middle" x="844" y="-7" font-family="Helvetica,sans-Serif" font-size="10.00">Button</text>
</a>
</g>
</g>
<!-- Node7&#45;&gt;Node11 -->
<g id="edge12" class="edge"><title>Node7&#45;&gt;Node11</title>
<path fill="none" stroke="midnightblue" d="M654.177,-142.223C670.707,-120.401 713.765,-67.4135 762,-39 764.997,-37.2343 768.135,-35.5898 771.36,-34.0592"/>
<polygon fill="midnightblue" stroke="midnightblue" points="772.855,-37.2261 780.641,-30.041 770.074,-30.8023 772.855,-37.2261"/>
</g>
<!-- Node12 -->
<g id="node12" class="node"><title>Node12</title>
<g id="a_node12"><a xlink:href="../../df/df8/class_cell_society_view.html#a304edeb753eed8cedb1c8e0ad952a4d8" target="_top" xlink:title="CellSocietyView.makeSlow\lButton">
<polygon fill="white" stroke="black" points="773,-137 773,-167 915,-167 915,-137 773,-137"/>
<text text-anchor="start" x="781" y="-155" font-family="Helvetica,sans-Serif" font-size="10.00">CellSocietyView.makeSlow</text>
<text text-anchor="middle" x="844" y="-144" font-family="Helvetica,sans-Serif" font-size="10.00">Button</text>
</a>
</g>
</g>
<!-- Node7&#45;&gt;Node12 -->
<g id="edge14" class="edge"><title>Node7&#45;&gt;Node12</title>
<path fill="none" stroke="midnightblue" d="M725.028,-152C737.371,-152 750.156,-152 762.553,-152"/>
<polygon fill="midnightblue" stroke="midnightblue" points="762.858,-155.5 772.858,-152 762.858,-148.5 762.858,-155.5"/>
</g>
<!-- Node13 -->
<g id="node13" class="node"><title>Node13</title>
<g id="a_node13"><a xlink:href="../../df/df8/class_cell_society_view.html#aec6e94a6cf275f0b5d64a4b8adccd7d0" target="_top" xlink:title="CellSocietyView.makeStep\lButton">
<polygon fill="white" stroke="black" points="772.5,-186 772.5,-216 915.5,-216 915.5,-186 772.5,-186"/>
<text text-anchor="start" x="780.5" y="-204" font-family="Helvetica,sans-Serif" font-size="10.00">CellSocietyView.makeStep</text>
<text text-anchor="middle" x="844" y="-193" font-family="Helvetica,sans-Serif" font-size="10.00">Button</text>
</a>
</g>
</g>
<!-- Node7&#45;&gt;Node13 -->
<g id="edge16" class="edge"><title>Node7&#45;&gt;Node13</title>
<path fill="none" stroke="midnightblue" d="M685.256,-161.564C710.179,-167.795 743.437,-176.109 772.99,-183.497"/>
<polygon fill="midnightblue" stroke="midnightblue" points="772.302,-186.933 782.852,-185.963 774,-180.142 772.302,-186.933"/>
</g>
<!-- Node8&#45;&gt;Node9 -->
<g id="edge8" class="edge"><title>Node8&#45;&gt;Node9</title>
<path fill="none" stroke="midnightblue" d="M925.696,-117.012C934.25,-117.967 942.989,-118.943 951.643,-119.909"/>
<polygon fill="midnightblue" stroke="midnightblue" points="951.422,-123.406 961.748,-121.038 952.199,-116.45 951.422,-123.406"/>
</g>
<!-- Node10&#45;&gt;Node9 -->
<g id="edge11" class="edge"><title>Node10&#45;&gt;Node9</title>
<path fill="none" stroke="midnightblue" d="M894.792,-79.0208C905.132,-82.2374 915.94,-85.6712 926,-89 953.027,-97.943 983.353,-108.687 1006.22,-116.933"/>
<polygon fill="midnightblue" stroke="midnightblue" points="1005.25,-120.304 1015.84,-120.415 1007.63,-113.722 1005.25,-120.304"/>
</g>
<!-- Node11&#45;&gt;Node9 -->
<g id="edge13" class="edge"><title>Node11&#45;&gt;Node9</title>
<path fill="none" stroke="midnightblue" d="M905.279,-30.0753C912.423,-32.6698 919.484,-35.6355 926,-39 964.922,-59.0971 1003.65,-92.9918 1025.04,-113.255"/>
<polygon fill="midnightblue" stroke="midnightblue" points="1022.73,-115.884 1032.36,-120.297 1027.58,-110.841 1022.73,-115.884"/>
</g>
<!-- Node12&#45;&gt;Node9 -->
<g id="edge15" class="edge"><title>Node12&#45;&gt;Node9</title>
<path fill="none" stroke="midnightblue" d="M915.01,-144.182C926.846,-142.86 939.284,-141.471 951.554,-140.101"/>
<polygon fill="midnightblue" stroke="midnightblue" points="952.254,-143.544 961.804,-138.956 951.477,-136.587 952.254,-143.544"/>
</g>
<!-- Node13&#45;&gt;Node9 -->
<g id="edge17" class="edge"><title>Node13&#45;&gt;Node9</title>
<path fill="none" stroke="midnightblue" d="M896.186,-185.867C906.122,-182.742 916.421,-179.372 926,-176 954.789,-165.867 987.02,-152.956 1010.19,-143.393"/>
<polygon fill="midnightblue" stroke="midnightblue" points="1011.63,-146.584 1019.53,-139.518 1008.95,-140.119 1011.63,-146.584"/>
</g>
<!-- Node14 -->
<g id="node14" class="node"><title>Node14</title>
<g id="a_node14"><a xlink:href="../../df/df8/class_cell_society_view.html#ad52b914fa03b45d8bc9d64fc407660f3" target="_top" xlink:title="CellSocietyView.updateView">
<polygon fill="white" stroke="black" points="968.5,-264.5 968.5,-283.5 1117.5,-283.5 1117.5,-264.5 968.5,-264.5"/>
<text text-anchor="middle" x="1043" y="-271.5" font-family="Helvetica,sans-Serif" font-size="10.00">CellSocietyView.updateView</text>
</a>
</g>
</g>
<!-- Node13&#45;&gt;Node14 -->
<g id="edge18" class="edge"><title>Node13&#45;&gt;Node14</title>
<path fill="none" stroke="midnightblue" d="M885.819,-216.126C921.515,-229.353 972.815,-248.363 1006.75,-260.939"/>
<polygon fill="midnightblue" stroke="midnightblue" points="1005.67,-264.271 1016.26,-264.464 1008.1,-257.707 1005.67,-264.271"/>
</g>
<!-- Node15 -->
<g id="node15" class="node"><title>Node15</title>
<g id="a_node15"><a xlink:href="../../d2/d40/class_cellular_automata.html#a8f4c8a2f32137db67dd31f5afb4b62c3" target="_top" xlink:title="CellularAutomata.updateNextGen">
<polygon fill="white" stroke="black" points="1160.5,-235.5 1160.5,-254.5 1339.5,-254.5 1339.5,-235.5 1160.5,-235.5"/>
<text text-anchor="middle" x="1250" y="-242.5" font-family="Helvetica,sans-Serif" font-size="10.00">CellularAutomata.updateNextGen</text>
</a>
</g>
</g>
<!-- Node14&#45;&gt;Node15 -->
<g id="edge19" class="edge"><title>Node14&#45;&gt;Node15</title>
<path fill="none" stroke="midnightblue" d="M1111.41,-264.464C1130.68,-261.738 1151.83,-258.747 1171.64,-255.944"/>
<polygon fill="midnightblue" stroke="midnightblue" points="1172.14,-259.408 1181.55,-254.542 1171.16,-252.477 1172.14,-259.408"/>
</g>
<!-- Node14&#45;&gt;Node18 -->
<g id="edge24" class="edge"><title>Node14&#45;&gt;Node18</title>
<path fill="none" stroke="midnightblue" d="M1117.72,-280.833C1133.26,-282.273 1149.75,-283.802 1165.62,-285.272"/>
<polygon fill="midnightblue" stroke="midnightblue" points="1165.65,-288.79 1175.93,-286.228 1166.3,-281.82 1165.65,-288.79"/>
</g>
<!-- Node16 -->
<g id="node16" class="node"><title>Node16</title>
<g id="a_node16"><a xlink:href="../../d2/d40/class_cellular_automata.html#ab6b9e3ca964f405470ec0acc064d9b3a" target="_top" xlink:title="CellularAutomata.checkRules">
<polygon fill="white" stroke="black" points="1383.5,-197.5 1383.5,-216.5 1538.5,-216.5 1538.5,-197.5 1383.5,-197.5"/>
<text text-anchor="middle" x="1461" y="-204.5" font-family="Helvetica,sans-Serif" font-size="10.00">CellularAutomata.checkRules</text>
</a>
</g>
</g>
<!-- Node15&#45;&gt;Node16 -->
<g id="edge20" class="edge"><title>Node15&#45;&gt;Node16</title>
<path fill="none" stroke="midnightblue" d="M1303.47,-235.46C1332.04,-230.265 1367.58,-223.804 1397.57,-218.351"/>
<polygon fill="midnightblue" stroke="midnightblue" points="1398.3,-221.776 1407.51,-216.544 1397.04,-214.889 1398.3,-221.776"/>
</g>
<!-- Node17 -->
<g id="node17" class="node"><title>Node17</title>
<g id="a_node17"><a xlink:href="../../d2/d40/class_cellular_automata.html#ab39b5164764f20382801aa9a4663eb4b" target="_top" xlink:title="CellularAutomata.handleUpdate">
<polygon fill="white" stroke="black" points="1376,-235.5 1376,-254.5 1546,-254.5 1546,-235.5 1376,-235.5"/>
<text text-anchor="middle" x="1461" y="-242.5" font-family="Helvetica,sans-Serif" font-size="10.00">CellularAutomata.handleUpdate</text>
</a>
</g>
</g>
<!-- Node15&#45;&gt;Node17 -->
<g id="edge22" class="edge"><title>Node15&#45;&gt;Node17</title>
<path fill="none" stroke="midnightblue" d="M1339.63,-245C1348.27,-245 1357.06,-245 1365.74,-245"/>
<polygon fill="midnightblue" stroke="midnightblue" points="1365.89,-248.5 1375.89,-245 1365.89,-241.5 1365.89,-248.5"/>
</g>
<!-- Node16&#45;&gt;Node6 -->
<g id="edge21" class="edge"><title>Node16&#45;&gt;Node6</title>
<path fill="none" stroke="midnightblue" d="M1509.44,-216.589C1534.81,-221.716 1566.23,-228.067 1592.92,-233.463"/>
<polygon fill="midnightblue" stroke="midnightblue" points="1592.41,-236.929 1602.9,-235.48 1593.79,-230.068 1592.41,-236.929"/>
</g>
<!-- Node17&#45;&gt;Node6 -->
<g id="edge23" class="edge"><title>Node17&#45;&gt;Node6</title>
<path fill="none" stroke="midnightblue" d="M1546.1,-245C1554.58,-245 1563.17,-245 1571.59,-245"/>
<polygon fill="midnightblue" stroke="midnightblue" points="1571.75,-248.5 1581.75,-245 1571.75,-241.5 1571.75,-248.5"/>
</g>
<!-- Node19 -->
<g id="node19" class="node"><title>Node19</title>
<g id="a_node19"><a xlink:href="../../da/d74/class_grid.html#a2f2ccb1511e367a7d6e9bcb3f708cd38" target="_top" xlink:title="Grid.getCellAt">
<polygon fill="white" stroke="black" points="1419.5,-273.5 1419.5,-292.5 1502.5,-292.5 1502.5,-273.5 1419.5,-273.5"/>
<text text-anchor="middle" x="1461" y="-280.5" font-family="Helvetica,sans-Serif" font-size="10.00">Grid.getCellAt</text>
</a>
</g>
</g>
<!-- Node18&#45;&gt;Node19 -->
<g id="edge25" class="edge"><title>Node18&#45;&gt;Node19</title>
<path fill="none" stroke="midnightblue" d="M1324.1,-289.502C1352.14,-288.161 1383.5,-286.66 1409.02,-285.439"/>
<polygon fill="midnightblue" stroke="midnightblue" points="1409.4,-288.925 1419.22,-284.951 1409.06,-281.933 1409.4,-288.925"/>
</g>
<!-- Node20 -->
<g id="node20" class="node"><title>Node20</title>
<g id="a_node20"><a xlink:href="../../dd/d11/class_cell.html#aac3ac473652b817fe344534f4bec7e6f" target="_top" xlink:title="Cell.getState">
<polygon fill="white" stroke="black" points="1421.5,-311.5 1421.5,-330.5 1500.5,-330.5 1500.5,-311.5 1421.5,-311.5"/>
<text text-anchor="middle" x="1461" y="-318.5" font-family="Helvetica,sans-Serif" font-size="10.00">Cell.getState</text>
</a>
</g>
</g>
<!-- Node18&#45;&gt;Node20 -->
<g id="edge26" class="edge"><title>Node18&#45;&gt;Node20</title>
<path fill="none" stroke="midnightblue" d="M1322.05,-302.519C1351.41,-306.451 1384.7,-310.912 1411.22,-314.465"/>
<polygon fill="midnightblue" stroke="midnightblue" points="1411.03,-317.97 1421.4,-315.829 1411.96,-311.032 1411.03,-317.97"/>
</g>
<!-- Node22 -->
<g id="node22" class="node"><title>Node22</title>
<g id="a_node22"><a xlink:href="../../d7/db3/class_x_m_l_reader.html#a656927862103b26830df1596c1f65925" target="_top" xlink:title="XMLReader.getTextValue">
<polygon fill="white" stroke="black" points="977,-600.5 977,-619.5 1109,-619.5 1109,-600.5 977,-600.5"/>
<text text-anchor="middle" x="1043" y="-607.5" font-family="Helvetica,sans-Serif" font-size="10.00">XMLReader.getTextValue</text>
</a>
</g>
</g>
<!-- Node21&#45;&gt;Node22 -->
<g id="edge28" class="edge"><title>Node21&#45;&gt;Node22</title>
<path fill="none" stroke="midnightblue" d="M702.195,-574.221C758.581,-576.851 848.594,-582.045 926,-591 943.709,-593.049 962.839,-595.912 980.358,-598.794"/>
<polygon fill="midnightblue" stroke="midnightblue" points="980.024,-602.287 990.465,-600.488 981.181,-595.383 980.024,-602.287"/>
</g>
<!-- Node23 -->
<g id="node23" class="node"><title>Node23</title>
<g id="a_node23"><a xlink:href="../../d7/db3/class_x_m_l_reader.html#a373d7102833e61dbaac8e91b0567d03c" target="_top" xlink:title="XMLReader.makeGrid">
<polygon fill="white" stroke="black" points="785,-638.5 785,-657.5 903,-657.5 903,-638.5 785,-638.5"/>
<text text-anchor="middle" x="844" y="-645.5" font-family="Helvetica,sans-Serif" font-size="10.00">XMLReader.makeGrid</text>
</a>
</g>
</g>
<!-- Node21&#45;&gt;Node23 -->
<g id="edge29" class="edge"><title>Node21&#45;&gt;Node23</title>
<path fill="none" stroke="midnightblue" d="M702.13,-580.908C710.441,-583.469 718.673,-586.764 726,-591 746.14,-602.645 741.827,-617.412 762,-629 766.165,-631.392 770.614,-633.484 775.203,-635.312"/>
<polygon fill="midnightblue" stroke="midnightblue" points="774.18,-638.663 784.775,-638.707 776.521,-632.065 774.18,-638.663"/>
</g>
<!-- Node24 -->
<g id="node24" class="node"><title>Node24</title>
<g id="a_node24"><a xlink:href="../../d7/db3/class_x_m_l_reader.html#add9bc5354b7e5ab29eab10f671ee9686" target="_top" xlink:title="XMLReader.makeParam">
<polygon fill="white" stroke="black" points="779.5,-600.5 779.5,-619.5 908.5,-619.5 908.5,-600.5 779.5,-600.5"/>
<text text-anchor="middle" x="844" y="-607.5" font-family="Helvetica,sans-Serif" font-size="10.00">XMLReader.makeParam</text>
</a>
</g>
</g>
<!-- Node21&#45;&gt;Node24 -->
<g id="edge31" class="edge"><title>Node21&#45;&gt;Node24</title>
<path fill="none" stroke="midnightblue" d="M696.206,-581.54C722.767,-586.69 755.749,-593.084 783.718,-598.506"/>
<polygon fill="midnightblue" stroke="midnightblue" points="783.29,-601.989 793.774,-600.456 784.623,-595.117 783.29,-601.989"/>
</g>
<!-- Node23&#45;&gt;Node22 -->
<g id="edge30" class="edge"><title>Node23&#45;&gt;Node22</title>
<path fill="none" stroke="midnightblue" d="M894.457,-638.46C921.154,-633.31 954.304,-626.916 982.415,-621.494"/>
<polygon fill="midnightblue" stroke="midnightblue" points="983.366,-624.875 992.523,-619.544 982.041,-618.001 983.366,-624.875"/>
</g>
<!-- Node24&#45;&gt;Node22 -->
<g id="edge32" class="edge"><title>Node24&#45;&gt;Node22</title>
<path fill="none" stroke="midnightblue" d="M908.688,-610C927.174,-610 947.538,-610 966.666,-610"/>
<polygon fill="midnightblue" stroke="midnightblue" points="966.841,-613.5 976.841,-610 966.841,-606.5 966.841,-613.5"/>
</g>
<!-- Node26 -->
<g id="node26" class="node"><title>Node26</title>
<g id="a_node26"><a xlink:href="../../dd/d97/class_grid_drawer.html#af9a09b2ee81450f13a117261b67718e0" target="_top" xlink:title="GridDrawer.makeUnitGrid">
<polygon fill="white" stroke="black" points="775,-524.5 775,-543.5 913,-543.5 913,-524.5 775,-524.5"/>
<text text-anchor="middle" x="844" y="-531.5" font-family="Helvetica,sans-Serif" font-size="10.00">GridDrawer.makeUnitGrid</text>
</a>
</g>
</g>
<!-- Node25&#45;&gt;Node26 -->
<g id="edge34" class="edge"><title>Node25&#45;&gt;Node26</title>
<path fill="none" stroke="midnightblue" d="M659.02,-450.512C679.173,-466.012 721.553,-496.716 762,-514 768.776,-516.896 776.058,-519.43 783.377,-521.633"/>
<polygon fill="midnightblue" stroke="midnightblue" points="782.763,-525.096 793.337,-524.434 784.658,-518.357 782.763,-525.096"/>
</g>
<!-- Node31 -->
<g id="node31" class="node"><title>Node31</title>
<g id="a_node31"><a xlink:href="../../dd/d97/class_grid_drawer.html#a54f548bdc35a2afef9af05a134c149f5" target="_top" xlink:title="GridDrawer.calculateCell\lWidth">
<polygon fill="white" stroke="black" points="778,-475 778,-505 910,-505 910,-475 778,-475"/>
<text text-anchor="start" x="786" y="-493" font-family="Helvetica,sans-Serif" font-size="10.00">GridDrawer.calculateCell</text>
<text text-anchor="middle" x="844" y="-482" font-family="Helvetica,sans-Serif" font-size="10.00">Width</text>
</a>
</g>
</g>
<!-- Node25&#45;&gt;Node31 -->
<g id="edge39" class="edge"><title>Node25&#45;&gt;Node31</title>
<path fill="none" stroke="midnightblue" d="M685.256,-450.564C710.179,-456.795 743.437,-465.109 772.99,-472.497"/>
<polygon fill="midnightblue" stroke="midnightblue" points="772.302,-475.933 782.852,-474.963 774,-469.142 772.302,-475.933"/>
</g>
<!-- Node32 -->
<g id="node32" class="node"><title>Node32</title>
<g id="a_node32"><a xlink:href="../../dd/d97/class_grid_drawer.html#a3f6bb5e9307bf84f9f8f4ae467ec85cf" target="_top" xlink:title="GridDrawer.calculateCell\lHeight">
<polygon fill="white" stroke="black" points="778,-426 778,-456 910,-456 910,-426 778,-426"/>
<text text-anchor="start" x="786" y="-444" font-family="Helvetica,sans-Serif" font-size="10.00">GridDrawer.calculateCell</text>
<text text-anchor="middle" x="844" y="-433" font-family="Helvetica,sans-Serif" font-size="10.00">Height</text>
</a>
</g>
</g>
<!-- Node25&#45;&gt;Node32 -->
<g id="edge40" class="edge"><title>Node25&#45;&gt;Node32</title>
<path fill="none" stroke="midnightblue" d="M705.541,-441C725.123,-441 747.228,-441 767.894,-441"/>
<polygon fill="midnightblue" stroke="midnightblue" points="767.906,-444.5 777.906,-441 767.906,-437.5 767.906,-444.5"/>
</g>
<!-- Node33 -->
<g id="node33" class="node"><title>Node33</title>
<g id="a_node33"><a xlink:href="../../dd/d97/class_grid_drawer.html#a8fba9cca18cee03651775b5785722778" target="_top" xlink:title="GridDrawer.scale">
<polygon fill="white" stroke="black" points="795.5,-387.5 795.5,-406.5 892.5,-406.5 892.5,-387.5 795.5,-387.5"/>
<text text-anchor="middle" x="844" y="-394.5" font-family="Helvetica,sans-Serif" font-size="10.00">GridDrawer.scale</text>
</a>
</g>
</g>
<!-- Node25&#45;&gt;Node33 -->
<g id="edge41" class="edge"><title>Node25&#45;&gt;Node33</title>
<path fill="none" stroke="midnightblue" d="M689.529,-431.453C719.194,-424.793 758.971,-415.864 790.596,-408.764"/>
<polygon fill="midnightblue" stroke="midnightblue" points="791.563,-412.134 800.554,-406.529 790.03,-405.304 791.563,-412.134"/>
</g>
<!-- Node27 -->
<g id="node27" class="node"><title>Node27</title>
<g id="a_node27"><a xlink:href="../../dd/d97/class_grid_drawer.html#a69ef437bdcbcdb3dca6b206b73a1ab1f" target="_top" xlink:title="GridDrawer.drawUnitCell">
<polygon fill="white" stroke="black" points="977.5,-524.5 977.5,-543.5 1108.5,-543.5 1108.5,-524.5 977.5,-524.5"/>
<text text-anchor="middle" x="1043" y="-531.5" font-family="Helvetica,sans-Serif" font-size="10.00">GridDrawer.drawUnitCell</text>
</a>
</g>
</g>
<!-- Node26&#45;&gt;Node27 -->
<g id="edge35" class="edge"><title>Node26&#45;&gt;Node27</title>
<path fill="none" stroke="midnightblue" d="M913.072,-534C930.457,-534 949.245,-534 966.958,-534"/>
<polygon fill="midnightblue" stroke="midnightblue" points="967.244,-537.5 977.244,-534 967.244,-530.5 967.244,-537.5"/>
</g>
<!-- Node28 -->
<g id="node28" class="node"><title>Node28</title>
<g id="a_node28"><a xlink:href="../../dd/d97/class_grid_drawer.html#a53b8613b7621224084096d76e2316452" target="_top" xlink:title="GridDrawer.drawTriangle">
<polygon fill="white" stroke="black" points="1184.5,-562.5 1184.5,-581.5 1315.5,-581.5 1315.5,-562.5 1184.5,-562.5"/>
<text text-anchor="middle" x="1250" y="-569.5" font-family="Helvetica,sans-Serif" font-size="10.00">GridDrawer.drawTriangle</text>
</a>
</g>
</g>
<!-- Node27&#45;&gt;Node28 -->
<g id="edge36" class="edge"><title>Node27&#45;&gt;Node28</title>
<path fill="none" stroke="midnightblue" d="M1095.47,-543.54C1123.37,-548.712 1158.05,-555.14 1187.38,-560.578"/>
<polygon fill="midnightblue" stroke="midnightblue" points="1187.04,-564.075 1197.51,-562.456 1188.32,-557.192 1187.04,-564.075"/>
</g>
<!-- Node29 -->
<g id="node29" class="node"><title>Node29</title>
<g id="a_node29"><a xlink:href="../../dd/d97/class_grid_drawer.html#a08b9d58cde5fafa07e226d4ed2ebc655" target="_top" xlink:title="GridDrawer.drawSquare">
<polygon fill="white" stroke="black" points="1185.5,-524.5 1185.5,-543.5 1314.5,-543.5 1314.5,-524.5 1185.5,-524.5"/>
<text text-anchor="middle" x="1250" y="-531.5" font-family="Helvetica,sans-Serif" font-size="10.00">GridDrawer.drawSquare</text>
</a>
</g>
</g>
<!-- Node27&#45;&gt;Node29 -->
<g id="edge37" class="edge"><title>Node27&#45;&gt;Node29</title>
<path fill="none" stroke="midnightblue" d="M1108.58,-534C1129.76,-534 1153.45,-534 1175.25,-534"/>
<polygon fill="midnightblue" stroke="midnightblue" points="1175.44,-537.5 1185.44,-534 1175.44,-530.5 1175.44,-537.5"/>
</g>
<!-- Node30 -->
<g id="node30" class="node"><title>Node30</title>
<g id="a_node30"><a xlink:href="../../dd/d97/class_grid_drawer.html#a260f7ce1d53af7f88e1c4ee3a4a3de2b" target="_top" xlink:title="GridDrawer.drawHexagon">
<polygon fill="white" stroke="black" points="1181.5,-486.5 1181.5,-505.5 1318.5,-505.5 1318.5,-486.5 1181.5,-486.5"/>
<text text-anchor="middle" x="1250" y="-493.5" font-family="Helvetica,sans-Serif" font-size="10.00">GridDrawer.drawHexagon</text>
</a>
</g>
</g>
<!-- Node27&#45;&gt;Node30 -->
<g id="edge38" class="edge"><title>Node27&#45;&gt;Node30</title>
<path fill="none" stroke="midnightblue" d="M1095.47,-524.46C1123.37,-519.288 1158.05,-512.86 1187.38,-507.422"/>
<polygon fill="midnightblue" stroke="midnightblue" points="1188.32,-510.808 1197.51,-505.544 1187.04,-503.925 1188.32,-510.808"/>
</g>
<!-- Node34&#45;&gt;Node14 -->
<g id="edge43" class="edge"><title>Node34&#45;&gt;Node14</title>
<path fill="none" stroke="midnightblue" d="M726.459,-281.19C793.638,-279.659 889.596,-277.472 958.025,-275.913"/>
<polygon fill="midnightblue" stroke="midnightblue" points="958.42,-279.405 968.338,-275.678 958.261,-272.407 958.42,-279.405"/>
</g>
</g>
</svg>
        <g id="navigator" transform="translate(0 0)" fill="#404254">
                <rect fill="#f2f5e9" fill-opacity="0.5" stroke="#606060" stroke-width=".5" x="0" y="0" width="60" height="60"/>
                <use id="zoomplus" xlink:href="#zoomPlus" x="17" y="9" onmousedown="handleZoom(evt,'in')"/>
                <use id="zoomminus" xlink:href="#zoomMin" x="42" y="9" onmousedown="handleZoom(evt,'out')"/>
                <use id="reset" xlink:href="#resetDef" x="30" y="36" onmousedown="handleReset()"/>
                <g id="arrowUp" xlink:href="#dirArrow" transform="translate(30 24)" onmousedown="handlePan(0,-1)">
                  <use xlink:href="#rim" fill="#404040">
                        <set attributeName="fill" to="#808080" begin="arrowUp.mouseover" end="arrowUp.mouseout"/>
                  </use>
                  <path fill="none" stroke="white" stroke-width="1.5" d="M0,-3.0v7 M-2.5,-0.5L0,-3.0L2.5,-0.5"/>
                </g>
                <g id="arrowRight" xlink:href="#dirArrow" transform="rotate(90) translate(36 -43)" onmousedown="handlePan(1,0)">
                  <use xlink:href="#rim" fill="#404040">
                        <set attributeName="fill" to="#808080" begin="arrowRight.mouseover" end="arrowRight.mouseout"/>
                  </use>
                  <path fill="none" stroke="white" stroke-width="1.5" d="M0,-3.0v7 M-2.5,-0.5L0,-3.0L2.5,-0.5"/>
                </g>
                <g id="arrowDown" xlink:href="#dirArrow" transform="rotate(180) translate(-30 -48)" onmousedown="handlePan(0,1)">
                  <use xlink:href="#rim" fill="#404040">
                        <set attributeName="fill" to="#808080" begin="arrowDown.mouseover" end="arrowDown.mouseout"/>
                  </use>
                  <path fill="none" stroke="white" stroke-width="1.5" d="M0,-3.0v7 M-2.5,-0.5L0,-3.0L2.5,-0.5"/>
                </g>
                <g id="arrowLeft" xlink:href="#dirArrow" transform="rotate(270) translate(-36 17)" onmousedown="handlePan(-1,0)">
                  <use xlink:href="#rim" fill="#404040">
                        <set attributeName="fill" to="#808080" begin="arrowLeft.mouseover" end="arrowLeft.mouseout"/>
                  </use>
                  <path fill="none" stroke="white" stroke-width="1.5" d="M0,-3.0v7 M-2.5,-0.5L0,-3.0L2.5,-0.5"/>
                </g>
        </g>
        <svg viewBox="0 0 15 15" width="100%" height="30px" preserveAspectRatio="xMaxYMin meet">
         <g id="arrow_out" transform="scale(0.3 0.3)">
          <a xlink:href="class_cell_society_view_a656cfed0ba32bc41bbd0c4087860db4b_cgraph_org.svg" target="_base">
           <rect id="button" ry="5" rx="5" y="6" x="6" height="38" width="38"
                fill="#f2f5e9" fill-opacity="0.5" stroke="#606060" stroke-width="1.0"/>
           <path id="arrow"
             d="M 11.500037,31.436501 C 11.940474,20.09759 22.043105,11.32322 32.158766,21.979434 L 37.068811,17.246167 C 37.068811,17.246167 37.088388,32 37.088388,32 L 22.160133,31.978069 C 22.160133,31.978069 26.997745,27.140456 26.997745,27.140456 C 18.528582,18.264221 13.291696,25.230495 11.500037,31.436501 z"
             style="fill:#404040;"/>
          </a>
         </g>
        </svg>
</svg>
