<?xml version="1.0" encoding="UTF-8" standalone="no"?>
<!DOCTYPE svg PUBLIC "-//W3C//DTD SVG 1.1//EN"
 "http://www.w3.org/Graphics/SVG/1.1/DTD/svg11.dtd">
<!-- Generated by graphviz version 2.36.0 (20140111.2315)
 -->
<!-- Title: CellSocietyView.makeStepButton Pages: 1 -->
<svg width="946pt" height="142pt"
 viewBox="0.00 0.00 946.00 142.00" xmlns="http://www.w3.org/2000/svg" xmlns:xlink="http://www.w3.org/1999/xlink">
<g id="graph0" class="graph" transform="scale(1 1) rotate(0) translate(4 138)">
<title>CellSocietyView.makeStepButton</title>
<polygon fill="white" stroke="none" points="-4,4 -4,-138 942,-138 942,4 -4,4"/>
<!-- Node1 -->
<g id="node1" class="node"><title>Node1</title>
<polygon fill="#bfbfbf" stroke="black" points="0.5,-71 0.5,-101 143.5,-101 143.5,-71 0.5,-71"/>
<text text-anchor="start" x="8.5" y="-89" font-family="Helvetica,sans-Serif" font-size="10.00">CellSocietyView.makeStep</text>
<text text-anchor="middle" x="72" y="-78" font-family="Helvetica,sans-Serif" font-size="10.00">Button</text>
</g>
<!-- Node2 -->
<g id="node2" class="node"><title>Node2</title>
<g id="a_node2"><a xlink:href="../../df/df8/class_cell_society_view.html#ae09ddc20f81e90312e628d712a5c6afc" target="_top" xlink:title="CellSocietyView.makeUIButton">
<polygon fill="white" stroke="black" points="180,-95.5 180,-114.5 342,-114.5 342,-95.5 180,-95.5"/>
<text text-anchor="middle" x="261" y="-102.5" font-family="Helvetica,sans-Serif" font-size="10.00">CellSocietyView.makeUIButton</text>
</a>
</g>
</g>
<!-- Node1&#45;&gt;Node2 -->
<g id="edge1" class="edge"><title>Node1&#45;&gt;Node2</title>
<path fill="none" stroke="midnightblue" d="M143.697,-93.1831C152.171,-94.0441 160.912,-94.9322 169.617,-95.8167"/>
<polygon fill="midnightblue" stroke="midnightblue" points="169.498,-99.3226 179.801,-96.8514 170.206,-92.3584 169.498,-99.3226"/>
</g>
<!-- Node3 -->
<g id="node3" class="node"><title>Node3</title>
<g id="a_node3"><a xlink:href="../../df/df8/class_cell_society_view.html#ad52b914fa03b45d8bc9d64fc407660f3" target="_top" xlink:title="CellSocietyView.updateView">
<polygon fill="white" stroke="black" points="186.5,-57.5 186.5,-76.5 335.5,-76.5 335.5,-57.5 186.5,-57.5"/>
<text text-anchor="middle" x="261" y="-64.5" font-family="Helvetica,sans-Serif" font-size="10.00">CellSocietyView.updateView</text>
</a>
</g>
</g>
<!-- Node1&#45;&gt;Node3 -->
<g id="edge2" class="edge"><title>Node1&#45;&gt;Node3</title>
<path fill="none" stroke="midnightblue" d="M143.697,-78.8169C154.387,-77.7307 165.501,-76.6015 176.431,-75.4909"/>
<polygon fill="midnightblue" stroke="midnightblue" points="176.806,-78.971 186.401,-74.478 176.098,-72.0068 176.806,-78.971"/>
</g>
<!-- Node4 -->
<g id="node4" class="node"><title>Node4</title>
<g id="a_node4"><a xlink:href="../../d2/d40/class_cellular_automata.html#a8f4c8a2f32137db67dd31f5afb4b62c3" target="_top" xlink:title="CellularAutomata.updateNextGen">
<polygon fill="white" stroke="black" points="378.5,-76.5 378.5,-95.5 557.5,-95.5 557.5,-76.5 378.5,-76.5"/>
<text text-anchor="middle" x="468" y="-83.5" font-family="Helvetica,sans-Serif" font-size="10.00">CellularAutomata.updateNextGen</text>
</a>
</g>
</g>
<!-- Node3&#45;&gt;Node4 -->
<g id="edge3" class="edge"><title>Node3&#45;&gt;Node4</title>
<path fill="none" stroke="midnightblue" d="M335.72,-73.8326C346.266,-74.81 357.255,-75.8285 368.187,-76.8417"/>
<polygon fill="midnightblue" stroke="midnightblue" points="367.917,-80.3316 378.197,-77.7695 368.563,-73.3615 367.917,-80.3316"/>
</g>
<!-- Node8 -->
<g id="node8" class="node"><title>Node8</title>
<g id="a_node8"><a xlink:href="../../dd/d97/class_grid_drawer.html#a8853ef53b515fd60ca524f05a3dbf897" target="_top" xlink:title="GridDrawer.updateNextGen">
<polygon fill="white" stroke="black" points="394,-38.5 394,-57.5 542,-57.5 542,-38.5 394,-38.5"/>
<text text-anchor="middle" x="468" y="-45.5" font-family="Helvetica,sans-Serif" font-size="10.00">GridDrawer.updateNextGen</text>
</a>
</g>
</g>
<!-- Node3&#45;&gt;Node8 -->
<g id="edge8" class="edge"><title>Node3&#45;&gt;Node8</title>
<path fill="none" stroke="midnightblue" d="M335.72,-60.1674C351.257,-58.7274 367.754,-57.1984 383.617,-55.7282"/>
<polygon fill="midnightblue" stroke="midnightblue" points="384.299,-59.18 393.934,-54.772 383.653,-52.2099 384.299,-59.18"/>
</g>
<!-- Node5 -->
<g id="node5" class="node"><title>Node5</title>
<g id="a_node5"><a xlink:href="../../d2/d40/class_cellular_automata.html#ab6b9e3ca964f405470ec0acc064d9b3a" target="_top" xlink:title="CellularAutomata.checkRules">
<polygon fill="white" stroke="black" points="601.5,-114.5 601.5,-133.5 756.5,-133.5 756.5,-114.5 601.5,-114.5"/>
<text text-anchor="middle" x="679" y="-121.5" font-family="Helvetica,sans-Serif" font-size="10.00">CellularAutomata.checkRules</text>
</a>
</g>
</g>
<!-- Node4&#45;&gt;Node5 -->
<g id="edge4" class="edge"><title>Node4&#45;&gt;Node5</title>
<path fill="none" stroke="midnightblue" d="M521.47,-95.54C550.041,-100.735 585.58,-107.196 615.569,-112.649"/>
<polygon fill="midnightblue" stroke="midnightblue" points="615.044,-116.111 625.509,-114.456 616.296,-109.224 615.044,-116.111"/>
</g>
<!-- Node7 -->
<g id="node7" class="node"><title>Node7</title>
<g id="a_node7"><a xlink:href="../../d2/d40/class_cellular_automata.html#ab39b5164764f20382801aa9a4663eb4b" target="_top" xlink:title="CellularAutomata.handleUpdate">
<polygon fill="white" stroke="black" points="594,-76.5 594,-95.5 764,-95.5 764,-76.5 594,-76.5"/>
<text text-anchor="middle" x="679" y="-83.5" font-family="Helvetica,sans-Serif" font-size="10.00">CellularAutomata.handleUpdate</text>
</a>
</g>
</g>
<!-- Node4&#45;&gt;Node7 -->
<g id="edge6" class="edge"><title>Node4&#45;&gt;Node7</title>
<path fill="none" stroke="midnightblue" d="M557.635,-86C566.271,-86 575.055,-86 583.744,-86"/>
<polygon fill="midnightblue" stroke="midnightblue" points="583.886,-89.5001 593.886,-86 583.886,-82.5001 583.886,-89.5001"/>
</g>
<!-- Node6 -->
<g id="node6" class="node"><title>Node6</title>
<g id="a_node6"><a xlink:href="../../d2/d40/class_cellular_automata.html#a34ceed434c942d34ff03169b92684726" target="_top" xlink:title="CellularAutomata.getGrid">
<polygon fill="white" stroke="black" points="800,-95.5 800,-114.5 938,-114.5 938,-95.5 800,-95.5"/>
<text text-anchor="middle" x="869" y="-102.5" font-family="Helvetica,sans-Serif" font-size="10.00">CellularAutomata.getGrid</text>
</a>
</g>
</g>
<!-- Node5&#45;&gt;Node6 -->
<g id="edge5" class="edge"><title>Node5&#45;&gt;Node6</title>
<path fill="none" stroke="midnightblue" d="M756.738,-116.245C767.699,-115.137 778.983,-113.996 789.969,-112.886"/>
<polygon fill="midnightblue" stroke="midnightblue" points="790.357,-116.365 799.955,-111.877 789.654,-109.4 790.357,-116.365"/>
</g>
<!-- Node7&#45;&gt;Node6 -->
<g id="edge7" class="edge"><title>Node7&#45;&gt;Node6</title>
<path fill="none" stroke="midnightblue" d="M764.102,-94.4997C772.582,-95.3567 781.17,-96.2246 789.587,-97.0753"/>
<polygon fill="midnightblue" stroke="midnightblue" points="789.448,-100.579 799.75,-98.1024 790.152,-93.6145 789.448,-100.579"/>
</g>
<!-- Node9 -->
<g id="node9" class="node"><title>Node9</title>
<g id="a_node9"><a xlink:href="../../da/d74/class_grid.html#a2f2ccb1511e367a7d6e9bcb3f708cd38" target="_top" xlink:title="Grid.getCellAt">
<polygon fill="white" stroke="black" points="637.5,-38.5 637.5,-57.5 720.5,-57.5 720.5,-38.5 637.5,-38.5"/>
<text text-anchor="middle" x="679" y="-45.5" font-family="Helvetica,sans-Serif" font-size="10.00">Grid.getCellAt</text>
</a>
</g>
</g>
<!-- Node8&#45;&gt;Node9 -->
<g id="edge9" class="edge"><title>Node8&#45;&gt;Node9</title>
<path fill="none" stroke="midnightblue" d="M542.098,-48C570.136,-48 601.498,-48 627.024,-48"/>
<polygon fill="midnightblue" stroke="midnightblue" points="627.218,-51.5001 637.218,-48 627.218,-44.5001 627.218,-51.5001"/>
</g>
<!-- Node10 -->
<g id="node10" class="node"><title>Node10</title>
<g id="a_node10"><a xlink:href="../../dd/d11/class_cell.html#aac3ac473652b817fe344534f4bec7e6f" target="_top" xlink:title="Cell.getState">
<polygon fill="white" stroke="black" points="639.5,-0.5 639.5,-19.5 718.5,-19.5 718.5,-0.5 639.5,-0.5"/>
<text text-anchor="middle" x="679" y="-7.5" font-family="Helvetica,sans-Serif" font-size="10.00">Cell.getState</text>
</a>
</g>
</g>
<!-- Node8&#45;&gt;Node10 -->
<g id="edge10" class="edge"><title>Node8&#45;&gt;Node10</title>
<path fill="none" stroke="midnightblue" d="M521.47,-38.46C554.53,-32.4491 596.918,-24.7422 629.244,-18.8648"/>
<polygon fill="midnightblue" stroke="midnightblue" points="630.149,-22.2577 639.361,-17.0252 628.896,-15.3706 630.149,-22.2577"/>
</g>
</g>
</svg>
