<?xml version="1.0" encoding="UTF-8" standalone="no"?>
<!DOCTYPE svg PUBLIC "-//W3C//DTD SVG 1.1//EN"
 "http://www.w3.org/Graphics/SVG/1.1/DTD/svg11.dtd">
<!-- Generated by graphviz version 2.36.0 (20140111.2315)
 -->
<!-- Title: CellSocietyView.makeLoadButton Pages: 1 -->
<svg width="914pt" height="86pt"
 viewBox="0.00 0.00 914.00 86.40" xmlns="http://www.w3.org/2000/svg" xmlns:xlink="http://www.w3.org/1999/xlink">
<g id="graph0" class="graph" transform="scale(1 1) rotate(0) translate(4 82.4029)">
<title>CellSocietyView.makeLoadButton</title>
<polygon fill="white" stroke="none" points="-4,4 -4,-82.4029 910,-82.4029 910,4 -4,4"/>
<!-- Node1 -->
<g id="node1" class="node"><title>Node1</title>
<polygon fill="#bfbfbf" stroke="black" points="0.5,-15.4029 0.5,-45.4029 143.5,-45.4029 143.5,-15.4029 0.5,-15.4029"/>
<text text-anchor="start" x="8.5" y="-33.4029" font-family="Helvetica,sans-Serif" font-size="10.00">CellSocietyView.makeLoad</text>
<text text-anchor="middle" x="72" y="-22.4029" font-family="Helvetica,sans-Serif" font-size="10.00">Button</text>
</g>
<!-- Node2 -->
<g id="node2" class="node"><title>Node2</title>
<g id="a_node2"><a xlink:href="../../df/df8/class_cell_society_view.html#a53ab66afdeb23b3fc89e54a44be7ced5" target="_top" xlink:title="CellSocietyView.CellSocietyView">
<polygon fill="white" stroke="black" points="180.5,-58.9029 180.5,-77.9029 347.5,-77.9029 347.5,-58.9029 180.5,-58.9029"/>
<text text-anchor="middle" x="264" y="-65.9029" font-family="Helvetica,sans-Serif" font-size="10.00">CellSocietyView.CellSocietyView</text>
</a>
</g>
</g>
<!-- Node1&#45;&gt;Node2 -->
<g id="edge1" class="edge"><title>Node1&#45;&gt;Node2</title>
<path fill="none" stroke="midnightblue" d="M153.635,-46.5298C174.629,-50.7287 196.581,-55.1191 215.262,-58.8553"/>
<polygon fill="midnightblue" stroke="midnightblue" points="154.241,-43.0819 143.749,-44.5527 152.868,-49.946 154.241,-43.0819"/>
</g>
<!-- Node3 -->
<g id="node3" class="node"><title>Node3</title>
<g id="a_node3"><a xlink:href="../../df/df8/class_cell_society_view.html#a7bdbd4e8fd3893e672eb22015603f6dc" target="_top" xlink:title="CellSocietyView.makeButtons">
<polygon fill="white" stroke="black" points="185,-20.9029 185,-39.9029 343,-39.9029 343,-20.9029 185,-20.9029"/>
<text text-anchor="middle" x="264" y="-27.9029" font-family="Helvetica,sans-Serif" font-size="10.00">CellSocietyView.makeButtons</text>
</a>
</g>
</g>
<!-- Node1&#45;&gt;Node3 -->
<g id="edge2" class="edge"><title>Node1&#45;&gt;Node3</title>
<path fill="none" stroke="midnightblue" d="M153.91,-30.4029C164.163,-30.4029 174.641,-30.4029 184.85,-30.4029"/>
<polygon fill="midnightblue" stroke="midnightblue" points="153.749,-26.903 143.749,-30.4029 153.749,-33.903 153.749,-26.903"/>
</g>
<!-- Node4 -->
<g id="node4" class="node"><title>Node4</title>
<g id="a_node4"><a xlink:href="../../df/df8/class_cell_society_view.html#a767ab215ca329ba41b1493702141f841" target="_top" xlink:title="CellSocietyView.makeCAGame">
<polygon fill="white" stroke="black" points="384.5,-20.9029 384.5,-39.9029 547.5,-39.9029 547.5,-20.9029 384.5,-20.9029"/>
<text text-anchor="middle" x="466" y="-27.9029" font-family="Helvetica,sans-Serif" font-size="10.00">CellSocietyView.makeCAGame</text>
</a>
</g>
</g>
<!-- Node3&#45;&gt;Node4 -->
<g id="edge3" class="edge"><title>Node3&#45;&gt;Node4</title>
<path fill="none" stroke="midnightblue" d="M353.379,-30.4029C363.645,-30.4029 374.077,-30.4029 384.234,-30.4029"/>
<polygon fill="midnightblue" stroke="midnightblue" points="353.185,-26.903 343.185,-30.4029 353.184,-33.903 353.185,-26.903"/>
</g>
<!-- Node5 -->
<g id="node5" class="node"><title>Node5</title>
<g id="a_node5"><a xlink:href="../../df/df8/class_cell_society_view.html#a2ee793e471cc5731ce39c1450f058dd5" target="_top" xlink:title="CellSocietyView.parseFile">
<polygon fill="white" stroke="black" points="584.5,-20.9029 584.5,-39.9029 719.5,-39.9029 719.5,-20.9029 584.5,-20.9029"/>
<text text-anchor="middle" x="652" y="-27.9029" font-family="Helvetica,sans-Serif" font-size="10.00">CellSocietyView.parseFile</text>
</a>
</g>
</g>
<!-- Node4&#45;&gt;Node5 -->
<g id="edge4" class="edge"><title>Node4&#45;&gt;Node5</title>
<path fill="none" stroke="midnightblue" d="M557.807,-30.4029C566.777,-30.4029 575.762,-30.4029 584.42,-30.4029"/>
<polygon fill="midnightblue" stroke="midnightblue" points="557.705,-26.903 547.705,-30.4029 557.705,-33.903 557.705,-26.903"/>
</g>
<!-- Node6 -->
<g id="node6" class="node"><title>Node6</title>
<g id="a_node6"><a xlink:href="../../df/df8/class_cell_society_view.html#a2c047a3972078bb0a5490ed225ef2dfa" target="_top" xlink:title="CellSocietyView.loadNewFile">
<polygon fill="white" stroke="black" points="756.5,-1.90289 756.5,-20.9029 905.5,-20.9029 905.5,-1.90289 756.5,-1.90289"/>
<text text-anchor="middle" x="831" y="-8.90289" font-family="Helvetica,sans-Serif" font-size="10.00">CellSocietyView.loadNewFile</text>
</a>
</g>
</g>
<!-- Node5&#45;&gt;Node6 -->
<g id="edge5" class="edge"><title>Node5&#45;&gt;Node6</title>
<path fill="none" stroke="midnightblue" d="M729.865,-22.1519C738.633,-21.2106 747.557,-20.2527 756.283,-19.316"/>
<polygon fill="midnightblue" stroke="midnightblue" points="729.233,-18.6995 719.664,-23.2469 729.98,-25.6595 729.233,-18.6995"/>
</g>
<!-- Node6&#45;&gt;Node1 -->
<g id="edge6" class="edge"><title>Node6&#45;&gt;Node1</title>
<path fill="none" stroke="midnightblue" d="M746.033,-6.70781C621.981,-0.833897 382.549,6.44085 180,-11.4029 168.16,-12.446 155.667,-14.1263 143.56,-16.0672"/>
<polygon fill="midnightblue" stroke="midnightblue" points="746.061,-10.2132 756.219,-7.19929 746.399,-3.22129 746.061,-10.2132"/>
</g>
</g>
</svg>
