<?xml version="1.0" encoding="UTF-8" standalone="no"?>
<!DOCTYPE svg PUBLIC "-//W3C//DTD SVG 1.1//EN"
 "http://www.w3.org/Graphics/SVG/1.1/DTD/svg11.dtd">
<!-- Generated by graphviz version 2.36.0 (20140111.2315)
 -->
<!-- Title: CellSocietyView.loadNewFile Pages: 1 -->
<!--zoomable 667 -->
<svg id="main" version="1.1" xmlns="http://www.w3.org/2000/svg" xmlns:xlink="http://www.w3.org/1999/xlink" xml:space="preserve" onload="init(evt)">
<style type="text/css"><![CDATA[
.edge:hover path { stroke: red; }
.edge:hover polygon { stroke: red; fill: red; }
]]></style>
<script type="text/javascript"><![CDATA[
var edges = document.getElementsByTagName('g');
if (edges && edges.length) {
  for (var i=0;i<edges.length;i++) {
    if (edges[i].id.substr(0,4)=='edge') {
      edges[i].setAttribute('class','edge');
    }
  }
}
]]></script>
        <defs>
                <circle id="rim" cx="0" cy="0" r="7"/>
                <circle id="rim2" cx="0" cy="0" r="3.5"/>
                <g id="zoomPlus">
                        <use xlink:href="#rim" fill="#404040">
                                <set attributeName="fill" to="#808080" begin="zoomplus.mouseover" end="zoomplus.mouseout"/>
                        </use>
                        <path d="M-4,0h8M0,-4v8" fill="none" stroke="white" stroke-width="1.5" pointer-events="none"/>
                </g>
                <g id="zoomMin">
                        <use xlink:href="#rim" fill="#404040">
                                <set attributeName="fill" to="#808080" begin="zoomminus.mouseover" end="zoomminus.mouseout"/>
                        </use>
                        <path d="M-4,0h8" fill="none" stroke="white" stroke-width="1.5" pointer-events="none"/>
                </g>
                <g id="dirArrow">
                        <path fill="none" stroke="white" stroke-width="1.5" d="M0,-3.0v7 M-2.5,-0.5L0,-3.0L2.5,-0.5"/>
                </g>
               <g id="resetDef">
                       <use xlink:href="#rim2" fill="#404040">
                               <set attributeName="fill" to="#808080" begin="reset.mouseover" end="reset.mouseout"/>
                       </use>
               </g>
        </defs>

<script type="text/javascript">
var viewWidth = 1548;
var viewHeight = 667;
var sectionId = 'dynsection-3';
</script>
<script xlink:href="../../svgpan.js"/>
<svg id="graph" class="graph">
<g id="viewport">
<title>CellSocietyView.loadNewFile</title>
<polygon fill="white" stroke="none" points="-4,4 -4,-663 1544,-663 1544,4 -4,4"/>
<!-- Node1 -->
<g id="node1" class="node"><title>Node1</title>
<polygon fill="#bfbfbf" stroke="black" points="0.5,-332.5 0.5,-351.5 149.5,-351.5 149.5,-332.5 0.5,-332.5"/>
<text text-anchor="middle" x="75" y="-339.5" font-family="Helvetica,sans-Serif" font-size="10.00">CellSocietyView.loadNewFile</text>
</g>
<!-- Node2 -->
<g id="node2" class="node"><title>Node2</title>
<g id="a_node2"><a xlink:href="../../d7/db3/class_x_m_l_reader.html#a9f7a6e53fc5114be22cbd0b9f6184ef0" target="_top" xlink:title="XMLReader.chooseFile">
<polygon fill="white" stroke="black" points="207.5,-474.5 207.5,-493.5 328.5,-493.5 328.5,-474.5 207.5,-474.5"/>
<text text-anchor="middle" x="268" y="-481.5" font-family="Helvetica,sans-Serif" font-size="10.00">XMLReader.chooseFile</text>
</a>
</g>
</g>
<!-- Node1&#45;&gt;Node2 -->
<g id="edge1" class="edge"><title>Node1&#45;&gt;Node2</title>
<path fill="none" stroke="midnightblue" d="M88.8286,-351.538C121.099,-375.529 205.908,-438.581 245.75,-468.201"/>
<polygon fill="midnightblue" stroke="midnightblue" points="243.862,-471.159 253.976,-474.317 248.039,-465.542 243.862,-471.159"/>
</g>
<!-- Node4 -->
<g id="node4" class="node"><title>Node4</title>
<g id="a_node4"><a xlink:href="../../df/df8/class_cell_society_view.html#a6a72ed4ee014a9c3f0368ab26be873d6" target="_top" xlink:title="CellSocietyView.makeCAGame">
<polygon fill="white" stroke="black" points="186.5,-332.5 186.5,-351.5 349.5,-351.5 349.5,-332.5 186.5,-332.5"/>
<text text-anchor="middle" x="268" y="-339.5" font-family="Helvetica,sans-Serif" font-size="10.00">CellSocietyView.makeCAGame</text>
</a>
</g>
</g>
<!-- Node1&#45;&gt;Node4 -->
<g id="edge3" class="edge"><title>Node1&#45;&gt;Node4</title>
<path fill="none" stroke="midnightblue" d="M149.572,-342C158.353,-342 167.395,-342 176.379,-342"/>
<polygon fill="midnightblue" stroke="midnightblue" points="176.482,-345.5 186.482,-342 176.482,-338.5 176.482,-345.5"/>
</g>
<!-- Node3 -->
<g id="node3" class="node"><title>Node3</title>
<g id="a_node3"><a xlink:href="../../d7/db3/class_x_m_l_reader.html#a016fb8ab3899a6c41ac4daec9e64cb90" target="_top" xlink:title="XMLReader.parseXML">
<polygon fill="white" stroke="black" points="407,-560.5 407,-579.5 525,-579.5 525,-560.5 407,-560.5"/>
<text text-anchor="middle" x="466" y="-567.5" font-family="Helvetica,sans-Serif" font-size="10.00">XMLReader.parseXML</text>
</a>
</g>
</g>
<!-- Node2&#45;&gt;Node3 -->
<g id="edge2" class="edge"><title>Node2&#45;&gt;Node3</title>
<path fill="none" stroke="midnightblue" d="M282.752,-493.617C303.975,-508.045 346.407,-535.276 386,-551 392.342,-553.519 399.108,-555.764 405.912,-557.749"/>
<polygon fill="midnightblue" stroke="midnightblue" points="405.292,-561.208 415.861,-560.473 407.14,-554.457 405.292,-561.208"/>
</g>
<!-- Node5 -->
<g id="node5" class="node"><title>Node5</title>
<g id="a_node5"><a xlink:href="../../d7/db3/class_x_m_l_reader.html#a0c634622bb0c8f4ee65f2d91218e8917" target="_top" xlink:title="XMLReader.makeCA">
<polygon fill="white" stroke="black" points="410,-408.5 410,-427.5 522,-427.5 522,-408.5 410,-408.5"/>
<text text-anchor="middle" x="466" y="-415.5" font-family="Helvetica,sans-Serif" font-size="10.00">XMLReader.makeCA</text>
</a>
</g>
</g>
<!-- Node4&#45;&gt;Node5 -->
<g id="edge4" class="edge"><title>Node4&#45;&gt;Node5</title>
<path fill="none" stroke="midnightblue" d="M293.824,-351.625C328.58,-365.102 391.865,-389.642 430.985,-404.811"/>
<polygon fill="midnightblue" stroke="midnightblue" points="429.789,-408.101 440.378,-408.453 432.32,-401.574 429.789,-408.101"/>
</g>
<!-- Node9 -->
<g id="node9" class="node"><title>Node9</title>
<g id="a_node9"><a xlink:href="../../d2/d40/class_cellular_automata.html#a34ceed434c942d34ff03169b92684726" target="_top" xlink:title="CellularAutomata.getGrid">
<polygon fill="white" stroke="black" points="1402,-121.5 1402,-140.5 1540,-140.5 1540,-121.5 1402,-121.5"/>
<text text-anchor="middle" x="1471" y="-128.5" font-family="Helvetica,sans-Serif" font-size="10.00">CellularAutomata.getGrid</text>
</a>
</g>
</g>
<!-- Node4&#45;&gt;Node9 -->
<g id="edge10" class="edge"><title>Node4&#45;&gt;Node9</title>
<path fill="none" stroke="midnightblue" d="M273.734,-332.496C301.99,-277.261 454.218,-0 663,-0 663,-0 663,-0 1071,-0 1218.76,-0 1382.62,-82.0956 1444.49,-116.307"/>
<polygon fill="midnightblue" stroke="midnightblue" points="1443.1,-119.536 1453.53,-121.367 1446.52,-113.428 1443.1,-119.536"/>
</g>
<!-- Node10 -->
<g id="node10" class="node"><title>Node10</title>
<g id="a_node10"><a xlink:href="../../dd/d97/class_grid_drawer.html#ab8aa1cc79c89cfbc7b9d8516a5dee463" target="_top" xlink:title="GridDrawer.makeGrid">
<polygon fill="white" stroke="black" points="406.5,-522.5 406.5,-541.5 525.5,-541.5 525.5,-522.5 406.5,-522.5"/>
<text text-anchor="middle" x="466" y="-529.5" font-family="Helvetica,sans-Serif" font-size="10.00">GridDrawer.makeGrid</text>
</a>
</g>
</g>
<!-- Node4&#45;&gt;Node10 -->
<g id="edge11" class="edge"><title>Node4&#45;&gt;Node10</title>
<path fill="none" stroke="midnightblue" d="M278.989,-351.683C310.437,-382.168 407.676,-476.431 447.61,-515.142"/>
<polygon fill="midnightblue" stroke="midnightblue" points="445.18,-517.661 454.796,-522.108 450.052,-512.635 445.18,-517.661"/>
</g>
<!-- Node19 -->
<g id="node19" class="node"><title>Node19</title>
<g id="a_node19"><a xlink:href="../../df/df8/class_cell_society_view.html#a7bdbd4e8fd3893e672eb22015603f6dc" target="_top" xlink:title="CellSocietyView.makeButtons">
<polygon fill="white" stroke="black" points="387,-176.5 387,-195.5 545,-195.5 545,-176.5 387,-176.5"/>
<text text-anchor="middle" x="466" y="-183.5" font-family="Helvetica,sans-Serif" font-size="10.00">CellSocietyView.makeButtons</text>
</a>
</g>
</g>
<!-- Node4&#45;&gt;Node19 -->
<g id="edge20" class="edge"><title>Node4&#45;&gt;Node19</title>
<path fill="none" stroke="midnightblue" d="M280.966,-332.476C313.633,-306.476 404.598,-234.075 445.103,-201.836"/>
<polygon fill="midnightblue" stroke="midnightblue" points="447.297,-204.563 452.942,-195.597 442.938,-199.086 447.297,-204.563"/>
</g>
<!-- Node30 -->
<g id="node30" class="node"><title>Node30</title>
<g id="a_node30"><a xlink:href="../../dd/d97/class_grid_drawer.html#a8853ef53b515fd60ca524f05a3dbf897" target="_top" xlink:title="GridDrawer.updateNextGen">
<polygon fill="white" stroke="black" points="996,-330.5 996,-349.5 1144,-349.5 1144,-330.5 996,-330.5"/>
<text text-anchor="middle" x="1070" y="-337.5" font-family="Helvetica,sans-Serif" font-size="10.00">GridDrawer.updateNextGen</text>
</a>
</g>
</g>
<!-- Node4&#45;&gt;Node30 -->
<g id="edge43" class="edge"><title>Node4&#45;&gt;Node30</title>
<path fill="none" stroke="midnightblue" d="M349.605,-342.081C404.873,-342.117 479.876,-342.126 546,-342 701.315,-341.703 882.574,-340.91 985.764,-340.416"/>
<polygon fill="midnightblue" stroke="midnightblue" points="985.826,-343.916 995.809,-340.368 985.792,-336.916 985.826,-343.916"/>
</g>
<!-- Node34 -->
<g id="node34" class="node"><title>Node34</title>
<g id="a_node34"><a xlink:href="../../df/df8/class_cell_society_view.html#adf6a6b0542d00677a9fffbb8e3c03ffe" target="_top" xlink:title="CellSocietyView.makeTimeline">
<polygon fill="white" stroke="black" points="386,-313.5 386,-332.5 546,-332.5 546,-313.5 386,-313.5"/>
<text text-anchor="middle" x="466" y="-320.5" font-family="Helvetica,sans-Serif" font-size="10.00">CellSocietyView.makeTimeline</text>
</a>
</g>
</g>
<!-- Node4&#45;&gt;Node34 -->
<g id="edge44" class="edge"><title>Node4&#45;&gt;Node34</title>
<path fill="none" stroke="midnightblue" d="M349.569,-334.19C358.145,-333.358 366.904,-332.509 375.573,-331.669"/>
<polygon fill="midnightblue" stroke="midnightblue" points="376.077,-335.137 385.693,-330.688 375.402,-328.169 376.077,-335.137"/>
</g>
<!-- Node6 -->
<g id="node6" class="node"><title>Node6</title>
<g id="a_node6"><a xlink:href="../../d7/db3/class_x_m_l_reader.html#a656927862103b26830df1596c1f65925" target="_top" xlink:title="XMLReader.getTextValue">
<polygon fill="white" stroke="black" points="797,-427.5 797,-446.5 929,-446.5 929,-427.5 797,-427.5"/>
<text text-anchor="middle" x="863" y="-434.5" font-family="Helvetica,sans-Serif" font-size="10.00">XMLReader.getTextValue</text>
</a>
</g>
</g>
<!-- Node5&#45;&gt;Node6 -->
<g id="edge5" class="edge"><title>Node5&#45;&gt;Node6</title>
<path fill="none" stroke="midnightblue" d="M522.339,-420.662C591.325,-423.98 709.54,-429.666 786.721,-433.379"/>
<polygon fill="midnightblue" stroke="midnightblue" points="786.704,-436.882 796.861,-433.867 787.04,-429.89 786.704,-436.882"/>
</g>
<!-- Node7 -->
<g id="node7" class="node"><title>Node7</title>
<g id="a_node7"><a xlink:href="../../d7/db3/class_x_m_l_reader.html#a373d7102833e61dbaac8e91b0567d03c" target="_top" xlink:title="XMLReader.makeGrid">
<polygon fill="white" stroke="black" points="605,-389.5 605,-408.5 723,-408.5 723,-389.5 605,-389.5"/>
<text text-anchor="middle" x="664" y="-396.5" font-family="Helvetica,sans-Serif" font-size="10.00">XMLReader.makeGrid</text>
</a>
</g>
</g>
<!-- Node5&#45;&gt;Node7 -->
<g id="edge6" class="edge"><title>Node5&#45;&gt;Node7</title>
<path fill="none" stroke="midnightblue" d="M522.119,-412.657C544.707,-410.467 571.082,-407.91 594.863,-405.605"/>
<polygon fill="midnightblue" stroke="midnightblue" points="595.262,-409.083 604.877,-404.634 594.586,-402.116 595.262,-409.083"/>
</g>
<!-- Node8 -->
<g id="node8" class="node"><title>Node8</title>
<g id="a_node8"><a xlink:href="../../d7/db3/class_x_m_l_reader.html#add9bc5354b7e5ab29eab10f671ee9686" target="_top" xlink:title="XMLReader.makeParam">
<polygon fill="white" stroke="black" points="599.5,-465.5 599.5,-484.5 728.5,-484.5 728.5,-465.5 599.5,-465.5"/>
<text text-anchor="middle" x="664" y="-472.5" font-family="Helvetica,sans-Serif" font-size="10.00">XMLReader.makeParam</text>
</a>
</g>
</g>
<!-- Node5&#45;&gt;Node8 -->
<g id="edge8" class="edge"><title>Node5&#45;&gt;Node8</title>
<path fill="none" stroke="midnightblue" d="M499.806,-427.541C532.877,-437.158 584.076,-452.048 620.296,-462.581"/>
<polygon fill="midnightblue" stroke="midnightblue" points="619.507,-465.997 630.087,-465.428 621.462,-459.275 619.507,-465.997"/>
</g>
<!-- Node7&#45;&gt;Node6 -->
<g id="edge7" class="edge"><title>Node7&#45;&gt;Node6</title>
<path fill="none" stroke="midnightblue" d="M714.457,-408.54C741.154,-413.69 774.304,-420.084 802.415,-425.506"/>
<polygon fill="midnightblue" stroke="midnightblue" points="802.041,-428.999 812.523,-427.456 803.366,-422.125 802.041,-428.999"/>
</g>
<!-- Node8&#45;&gt;Node6 -->
<g id="edge9" class="edge"><title>Node8&#45;&gt;Node6</title>
<path fill="none" stroke="midnightblue" d="M714.457,-465.46C741.154,-460.31 774.304,-453.916 802.415,-448.494"/>
<polygon fill="midnightblue" stroke="midnightblue" points="803.366,-451.875 812.523,-446.544 802.041,-445.001 803.366,-451.875"/>
</g>
<!-- Node11 -->
<g id="node11" class="node"><title>Node11</title>
<g id="a_node11"><a xlink:href="../../dd/d97/class_grid_drawer.html#af9a09b2ee81450f13a117261b67718e0" target="_top" xlink:title="GridDrawer.makeUnitGrid">
<polygon fill="white" stroke="black" points="595,-503.5 595,-522.5 733,-522.5 733,-503.5 595,-503.5"/>
<text text-anchor="middle" x="664" y="-510.5" font-family="Helvetica,sans-Serif" font-size="10.00">GridDrawer.makeUnitGrid</text>
</a>
</g>
</g>
<!-- Node10&#45;&gt;Node11 -->
<g id="edge12" class="edge"><title>Node10&#45;&gt;Node11</title>
<path fill="none" stroke="midnightblue" d="M525.541,-526.325C544.08,-524.528 564.881,-522.512 584.581,-520.602"/>
<polygon fill="midnightblue" stroke="midnightblue" points="585.15,-524.063 594.765,-519.615 584.474,-517.096 585.15,-524.063"/>
</g>
<!-- Node16 -->
<g id="node16" class="node"><title>Node16</title>
<g id="a_node16"><a xlink:href="../../dd/d97/class_grid_drawer.html#a54f548bdc35a2afef9af05a134c149f5" target="_top" xlink:title="GridDrawer.calculateCell\lWidth">
<polygon fill="white" stroke="black" points="598,-629 598,-659 730,-659 730,-629 598,-629"/>
<text text-anchor="start" x="606" y="-647" font-family="Helvetica,sans-Serif" font-size="10.00">GridDrawer.calculateCell</text>
<text text-anchor="middle" x="664" y="-636" font-family="Helvetica,sans-Serif" font-size="10.00">Width</text>
</a>
</g>
</g>
<!-- Node10&#45;&gt;Node16 -->
<g id="edge17" class="edge"><title>Node10&#45;&gt;Node16</title>
<path fill="none" stroke="midnightblue" d="M525.697,-540.097C532.988,-542.785 539.982,-546.33 546,-551 573.016,-571.965 555.662,-597.19 582,-619 584.232,-620.848 586.599,-622.56 589.068,-624.145"/>
<polygon fill="midnightblue" stroke="midnightblue" points="587.374,-627.208 597.806,-629.063 590.808,-621.108 587.374,-627.208"/>
</g>
<!-- Node17 -->
<g id="node17" class="node"><title>Node17</title>
<g id="a_node17"><a xlink:href="../../dd/d97/class_grid_drawer.html#a3f6bb5e9307bf84f9f8f4ae467ec85cf" target="_top" xlink:title="GridDrawer.calculateCell\lHeight">
<polygon fill="white" stroke="black" points="598,-580 598,-610 730,-610 730,-580 598,-580"/>
<text text-anchor="start" x="606" y="-598" font-family="Helvetica,sans-Serif" font-size="10.00">GridDrawer.calculateCell</text>
<text text-anchor="middle" x="664" y="-587" font-family="Helvetica,sans-Serif" font-size="10.00">Height</text>
</a>
</g>
</g>
<!-- Node10&#45;&gt;Node17 -->
<g id="edge18" class="edge"><title>Node10&#45;&gt;Node17</title>
<path fill="none" stroke="midnightblue" d="M515.204,-541.567C525.512,-544.172 536.233,-547.315 546,-551 562.927,-557.387 565.284,-563.08 582,-570 587.711,-572.364 593.729,-574.626 599.798,-576.754"/>
<polygon fill="midnightblue" stroke="midnightblue" points="598.748,-580.094 609.342,-579.986 600.993,-573.464 598.748,-580.094"/>
</g>
<!-- Node18 -->
<g id="node18" class="node"><title>Node18</title>
<g id="a_node18"><a xlink:href="../../dd/d97/class_grid_drawer.html#a8fba9cca18cee03651775b5785722778" target="_top" xlink:title="GridDrawer.scale">
<polygon fill="white" stroke="black" points="615.5,-541.5 615.5,-560.5 712.5,-560.5 712.5,-541.5 615.5,-541.5"/>
<text text-anchor="middle" x="664" y="-548.5" font-family="Helvetica,sans-Serif" font-size="10.00">GridDrawer.scale</text>
</a>
</g>
</g>
<!-- Node10&#45;&gt;Node18 -->
<g id="edge19" class="edge"><title>Node10&#45;&gt;Node18</title>
<path fill="none" stroke="midnightblue" d="M525.541,-537.675C550.723,-540.116 580.078,-542.962 605.18,-545.395"/>
<polygon fill="midnightblue" stroke="midnightblue" points="605,-548.894 615.291,-546.375 605.675,-541.927 605,-548.894"/>
</g>
<!-- Node12 -->
<g id="node12" class="node"><title>Node12</title>
<g id="a_node12"><a xlink:href="../../dd/d97/class_grid_drawer.html#a69ef437bdcbcdb3dca6b206b73a1ab1f" target="_top" xlink:title="GridDrawer.drawUnitCell">
<polygon fill="white" stroke="black" points="797.5,-503.5 797.5,-522.5 928.5,-522.5 928.5,-503.5 797.5,-503.5"/>
<text text-anchor="middle" x="863" y="-510.5" font-family="Helvetica,sans-Serif" font-size="10.00">GridDrawer.drawUnitCell</text>
</a>
</g>
</g>
<!-- Node11&#45;&gt;Node12 -->
<g id="edge13" class="edge"><title>Node11&#45;&gt;Node12</title>
<path fill="none" stroke="midnightblue" d="M733.072,-513C750.457,-513 769.245,-513 786.958,-513"/>
<polygon fill="midnightblue" stroke="midnightblue" points="787.244,-516.5 797.244,-513 787.244,-509.5 787.244,-516.5"/>
</g>
<!-- Node13 -->
<g id="node13" class="node"><title>Node13</title>
<g id="a_node13"><a xlink:href="../../dd/d97/class_grid_drawer.html#a53b8613b7621224084096d76e2316452" target="_top" xlink:title="GridDrawer.drawTriangle">
<polygon fill="white" stroke="black" points="1004.5,-465.5 1004.5,-484.5 1135.5,-484.5 1135.5,-465.5 1004.5,-465.5"/>
<text text-anchor="middle" x="1070" y="-472.5" font-family="Helvetica,sans-Serif" font-size="10.00">GridDrawer.drawTriangle</text>
</a>
</g>
</g>
<!-- Node12&#45;&gt;Node13 -->
<g id="edge14" class="edge"><title>Node12&#45;&gt;Node13</title>
<path fill="none" stroke="midnightblue" d="M915.466,-503.46C943.368,-498.288 978.045,-491.86 1007.38,-486.422"/>
<polygon fill="midnightblue" stroke="midnightblue" points="1008.32,-489.808 1017.51,-484.544 1007.04,-482.925 1008.32,-489.808"/>
</g>
<!-- Node14 -->
<g id="node14" class="node"><title>Node14</title>
<g id="a_node14"><a xlink:href="../../dd/d97/class_grid_drawer.html#a08b9d58cde5fafa07e226d4ed2ebc655" target="_top" xlink:title="GridDrawer.drawSquare">
<polygon fill="white" stroke="black" points="1005.5,-541.5 1005.5,-560.5 1134.5,-560.5 1134.5,-541.5 1005.5,-541.5"/>
<text text-anchor="middle" x="1070" y="-548.5" font-family="Helvetica,sans-Serif" font-size="10.00">GridDrawer.drawSquare</text>
</a>
</g>
</g>
<!-- Node12&#45;&gt;Node14 -->
<g id="edge15" class="edge"><title>Node12&#45;&gt;Node14</title>
<path fill="none" stroke="midnightblue" d="M915.466,-522.54C943.368,-527.712 978.045,-534.14 1007.38,-539.578"/>
<polygon fill="midnightblue" stroke="midnightblue" points="1007.04,-543.075 1017.51,-541.456 1008.32,-536.192 1007.04,-543.075"/>
</g>
<!-- Node15 -->
<g id="node15" class="node"><title>Node15</title>
<g id="a_node15"><a xlink:href="../../dd/d97/class_grid_drawer.html#a260f7ce1d53af7f88e1c4ee3a4a3de2b" target="_top" xlink:title="GridDrawer.drawHexagon">
<polygon fill="white" stroke="black" points="1001.5,-503.5 1001.5,-522.5 1138.5,-522.5 1138.5,-503.5 1001.5,-503.5"/>
<text text-anchor="middle" x="1070" y="-510.5" font-family="Helvetica,sans-Serif" font-size="10.00">GridDrawer.drawHexagon</text>
</a>
</g>
</g>
<!-- Node12&#45;&gt;Node15 -->
<g id="edge16" class="edge"><title>Node12&#45;&gt;Node15</title>
<path fill="none" stroke="midnightblue" d="M928.582,-513C948.451,-513 970.533,-513 991.192,-513"/>
<polygon fill="midnightblue" stroke="midnightblue" points="991.203,-516.5 1001.2,-513 991.203,-509.5 991.203,-516.5"/>
</g>
<!-- Node20 -->
<g id="node20" class="node"><title>Node20</title>
<g id="a_node20"><a xlink:href="../../df/df8/class_cell_society_view.html#a1531c1a5ad4e0630046bfe4e8c3127e8" target="_top" xlink:title="CellSocietyView.makePlay\lButton">
<polygon fill="white" stroke="black" points="594,-78 594,-108 734,-108 734,-78 594,-78"/>
<text text-anchor="start" x="602" y="-96" font-family="Helvetica,sans-Serif" font-size="10.00">CellSocietyView.makePlay</text>
<text text-anchor="middle" x="664" y="-85" font-family="Helvetica,sans-Serif" font-size="10.00">Button</text>
</a>
</g>
</g>
<!-- Node19&#45;&gt;Node20 -->
<g id="edge21" class="edge"><title>Node19&#45;&gt;Node20</title>
<path fill="none" stroke="midnightblue" d="M480.548,-176.312C501.449,-161.735 543.208,-134.056 582,-117 586.464,-115.037 591.135,-113.179 595.884,-111.432"/>
<polygon fill="midnightblue" stroke="midnightblue" points="597.413,-114.606 605.699,-108.004 595.105,-107.997 597.413,-114.606"/>
</g>
<!-- Node22 -->
<g id="node22" class="node"><title>Node22</title>
<g id="a_node22"><a xlink:href="../../df/df8/class_cell_society_view.html#ae177299e365c8c48502004eb87a03cf1" target="_top" xlink:title="CellSocietyView.makePause\lButton">
<polygon fill="white" stroke="black" points="589.5,-215 589.5,-245 738.5,-245 738.5,-215 589.5,-215"/>
<text text-anchor="start" x="597.5" y="-233" font-family="Helvetica,sans-Serif" font-size="10.00">CellSocietyView.makePause</text>
<text text-anchor="middle" x="664" y="-222" font-family="Helvetica,sans-Serif" font-size="10.00">Button</text>
</a>
</g>
</g>
<!-- Node19&#45;&gt;Node22 -->
<g id="edge23" class="edge"><title>Node19&#45;&gt;Node22</title>
<path fill="none" stroke="midnightblue" d="M509.529,-195.547C531.892,-200.568 560.001,-206.878 586.032,-212.721"/>
<polygon fill="midnightblue" stroke="midnightblue" points="585.367,-216.159 595.891,-214.935 586.9,-209.329 585.367,-216.159"/>
</g>
<!-- Node23 -->
<g id="node23" class="node"><title>Node23</title>
<g id="a_node23"><a xlink:href="../../df/df8/class_cell_society_view.html#ae4f695e25edd84b67be004d3b1a7a437" target="_top" xlink:title="CellSocietyView.makeFFButton">
<polygon fill="white" stroke="black" points="582.5,-176.5 582.5,-195.5 745.5,-195.5 745.5,-176.5 582.5,-176.5"/>
<text text-anchor="middle" x="664" y="-183.5" font-family="Helvetica,sans-Serif" font-size="10.00">CellSocietyView.makeFFButton</text>
</a>
</g>
</g>
<!-- Node19&#45;&gt;Node23 -->
<g id="edge25" class="edge"><title>Node19&#45;&gt;Node23</title>
<path fill="none" stroke="midnightblue" d="M545.028,-186C553.947,-186 563.098,-186 572.166,-186"/>
<polygon fill="midnightblue" stroke="midnightblue" points="572.352,-189.5 582.352,-186 572.352,-182.5 572.352,-189.5"/>
</g>
<!-- Node24 -->
<g id="node24" class="node"><title>Node24</title>
<g id="a_node24"><a xlink:href="../../df/df8/class_cell_society_view.html#a304edeb753eed8cedb1c8e0ad952a4d8" target="_top" xlink:title="CellSocietyView.makeSlow\lButton">
<polygon fill="white" stroke="black" points="593,-127 593,-157 735,-157 735,-127 593,-127"/>
<text text-anchor="start" x="601" y="-145" font-family="Helvetica,sans-Serif" font-size="10.00">CellSocietyView.makeSlow</text>
<text text-anchor="middle" x="664" y="-134" font-family="Helvetica,sans-Serif" font-size="10.00">Button</text>
</a>
</g>
</g>
<!-- Node19&#45;&gt;Node24 -->
<g id="edge27" class="edge"><title>Node19&#45;&gt;Node24</title>
<path fill="none" stroke="midnightblue" d="M509.529,-176.453C531.892,-171.432 560.001,-165.122 586.032,-159.279"/>
<polygon fill="midnightblue" stroke="midnightblue" points="586.9,-162.671 595.891,-157.065 585.367,-155.841 586.9,-162.671"/>
</g>
<!-- Node25 -->
<g id="node25" class="node"><title>Node25</title>
<g id="a_node25"><a xlink:href="../../df/df8/class_cell_society_view.html#aec6e94a6cf275f0b5d64a4b8adccd7d0" target="_top" xlink:title="CellSocietyView.makeStep\lButton">
<polygon fill="white" stroke="black" points="592.5,-264 592.5,-294 735.5,-294 735.5,-264 592.5,-264"/>
<text text-anchor="start" x="600.5" y="-282" font-family="Helvetica,sans-Serif" font-size="10.00">CellSocietyView.makeStep</text>
<text text-anchor="middle" x="664" y="-271" font-family="Helvetica,sans-Serif" font-size="10.00">Button</text>
</a>
</g>
</g>
<!-- Node19&#45;&gt;Node25 -->
<g id="edge29" class="edge"><title>Node19&#45;&gt;Node25</title>
<path fill="none" stroke="midnightblue" d="M480.943,-195.714C502.018,-210.051 543.61,-237.009 582,-254 587.259,-256.328 592.8,-258.527 598.414,-260.584"/>
<polygon fill="midnightblue" stroke="midnightblue" points="597.3,-263.902 607.895,-263.906 599.615,-257.296 597.3,-263.902"/>
</g>
<!-- Node33 -->
<g id="node33" class="node"><title>Node33</title>
<g id="a_node33"><a xlink:href="../../df/df8/class_cell_society_view.html#a656cfed0ba32bc41bbd0c4087860db4b" target="_top" xlink:title="CellSocietyView.makeLoad\lButton">
<polygon fill="white" stroke="black" points="592.5,-29 592.5,-59 735.5,-59 735.5,-29 592.5,-29"/>
<text text-anchor="start" x="600.5" y="-47" font-family="Helvetica,sans-Serif" font-size="10.00">CellSocietyView.makeLoad</text>
<text text-anchor="middle" x="664" y="-36" font-family="Helvetica,sans-Serif" font-size="10.00">Button</text>
</a>
</g>
</g>
<!-- Node19&#45;&gt;Node33 -->
<g id="edge40" class="edge"><title>Node19&#45;&gt;Node33</title>
<path fill="none" stroke="midnightblue" d="M473.589,-176.45C489.53,-154.069 532.533,-97.8654 582,-68 584.825,-66.2944 587.779,-64.7032 590.818,-63.2195"/>
<polygon fill="midnightblue" stroke="midnightblue" points="592.421,-66.3374 600.144,-59.0839 589.583,-59.9384 592.421,-66.3374"/>
</g>
<!-- Node21 -->
<g id="node21" class="node"><title>Node21</title>
<g id="a_node21"><a xlink:href="../../df/df8/class_cell_society_view.html#ae09ddc20f81e90312e628d712a5c6afc" target="_top" xlink:title="CellSocietyView.makeUIButton">
<polygon fill="white" stroke="black" points="782,-154.5 782,-173.5 944,-173.5 944,-154.5 782,-154.5"/>
<text text-anchor="middle" x="863" y="-161.5" font-family="Helvetica,sans-Serif" font-size="10.00">CellSocietyView.makeUIButton</text>
</a>
</g>
</g>
<!-- Node20&#45;&gt;Node21 -->
<g id="edge22" class="edge"><title>Node20&#45;&gt;Node21</title>
<path fill="none" stroke="midnightblue" d="M718.392,-108.02C727.647,-110.851 737.14,-113.901 746,-117 775.074,-127.17 807.516,-140.488 830.682,-150.349"/>
<polygon fill="midnightblue" stroke="midnightblue" points="829.435,-153.623 840.005,-154.344 832.192,-147.188 829.435,-153.623"/>
</g>
<!-- Node22&#45;&gt;Node21 -->
<g id="edge24" class="edge"><title>Node22&#45;&gt;Node21</title>
<path fill="none" stroke="midnightblue" d="M714.792,-214.979C725.132,-211.763 735.94,-208.329 746,-205 773.027,-196.057 803.353,-185.313 826.218,-177.067"/>
<polygon fill="midnightblue" stroke="midnightblue" points="827.631,-180.278 835.844,-173.585 825.249,-173.696 827.631,-180.278"/>
</g>
<!-- Node23&#45;&gt;Node21 -->
<g id="edge26" class="edge"><title>Node23&#45;&gt;Node21</title>
<path fill="none" stroke="midnightblue" d="M745.696,-176.988C754.25,-176.033 762.989,-175.057 771.643,-174.091"/>
<polygon fill="midnightblue" stroke="midnightblue" points="772.199,-177.55 781.748,-172.962 771.422,-170.594 772.199,-177.55"/>
</g>
<!-- Node24&#45;&gt;Node21 -->
<g id="edge28" class="edge"><title>Node24&#45;&gt;Node21</title>
<path fill="none" stroke="midnightblue" d="M735.01,-149.818C746.846,-151.14 759.284,-152.529 771.554,-153.899"/>
<polygon fill="midnightblue" stroke="midnightblue" points="771.477,-157.413 781.804,-155.044 772.254,-150.456 771.477,-157.413"/>
</g>
<!-- Node25&#45;&gt;Node21 -->
<g id="edge30" class="edge"><title>Node25&#45;&gt;Node21</title>
<path fill="none" stroke="midnightblue" d="M723.109,-263.874C730.985,-261.019 738.819,-257.735 746,-254 784.7,-233.871 823.498,-200.434 844.968,-180.478"/>
<polygon fill="midnightblue" stroke="midnightblue" points="847.443,-182.955 852.312,-173.545 842.637,-177.864 847.443,-182.955"/>
</g>
<!-- Node26 -->
<g id="node26" class="node"><title>Node26</title>
<g id="a_node26"><a xlink:href="../../df/df8/class_cell_society_view.html#ad52b914fa03b45d8bc9d64fc407660f3" target="_top" xlink:title="CellSocietyView.updateView">
<polygon fill="white" stroke="black" points="788.5,-289.5 788.5,-308.5 937.5,-308.5 937.5,-289.5 788.5,-289.5"/>
<text text-anchor="middle" x="863" y="-296.5" font-family="Helvetica,sans-Serif" font-size="10.00">CellSocietyView.updateView</text>
</a>
</g>
</g>
<!-- Node25&#45;&gt;Node26 -->
<g id="edge31" class="edge"><title>Node25&#45;&gt;Node26</title>
<path fill="none" stroke="midnightblue" d="M735.565,-286.164C749.335,-287.562 763.9,-289.041 778.054,-290.478"/>
<polygon fill="midnightblue" stroke="midnightblue" points="777.969,-293.987 788.271,-291.515 778.676,-287.023 777.969,-293.987"/>
</g>
<!-- Node27 -->
<g id="node27" class="node"><title>Node27</title>
<g id="a_node27"><a xlink:href="../../d2/d40/class_cellular_automata.html#a8f4c8a2f32137db67dd31f5afb4b62c3" target="_top" xlink:title="CellularAutomata.updateNextGen">
<polygon fill="white" stroke="black" points="980.5,-159.5 980.5,-178.5 1159.5,-178.5 1159.5,-159.5 980.5,-159.5"/>
<text text-anchor="middle" x="1070" y="-166.5" font-family="Helvetica,sans-Serif" font-size="10.00">CellularAutomata.updateNextGen</text>
</a>
</g>
</g>
<!-- Node26&#45;&gt;Node27 -->
<g id="edge32" class="edge"><title>Node26&#45;&gt;Node27</title>
<path fill="none" stroke="midnightblue" d="M879.074,-289.441C914.393,-267.043 1002.72,-211.03 1045.31,-184.025"/>
<polygon fill="midnightblue" stroke="midnightblue" points="1047.33,-186.884 1053.9,-178.573 1043.58,-180.973 1047.33,-186.884"/>
</g>
<!-- Node26&#45;&gt;Node30 -->
<g id="edge37" class="edge"><title>Node26&#45;&gt;Node30</title>
<path fill="none" stroke="midnightblue" d="M911.546,-308.509C941.324,-314.465 979.886,-322.177 1011.39,-328.479"/>
<polygon fill="midnightblue" stroke="midnightblue" points="1010.86,-331.942 1021.36,-330.471 1012.24,-325.078 1010.86,-331.942"/>
</g>
<!-- Node28 -->
<g id="node28" class="node"><title>Node28</title>
<g id="a_node28"><a xlink:href="../../d2/d40/class_cellular_automata.html#ab6b9e3ca964f405470ec0acc064d9b3a" target="_top" xlink:title="CellularAutomata.checkRules">
<polygon fill="white" stroke="black" points="1203.5,-159.5 1203.5,-178.5 1358.5,-178.5 1358.5,-159.5 1203.5,-159.5"/>
<text text-anchor="middle" x="1281" y="-166.5" font-family="Helvetica,sans-Serif" font-size="10.00">CellularAutomata.checkRules</text>
</a>
</g>
</g>
<!-- Node27&#45;&gt;Node28 -->
<g id="edge33" class="edge"><title>Node27&#45;&gt;Node28</title>
<path fill="none" stroke="midnightblue" d="M1159.63,-169C1170.79,-169 1182.2,-169 1193.33,-169"/>
<polygon fill="midnightblue" stroke="midnightblue" points="1193.45,-172.5 1203.45,-169 1193.45,-165.5 1193.45,-172.5"/>
</g>
<!-- Node29 -->
<g id="node29" class="node"><title>Node29</title>
<g id="a_node29"><a xlink:href="../../d2/d40/class_cellular_automata.html#ab39b5164764f20382801aa9a4663eb4b" target="_top" xlink:title="CellularAutomata.handleUpdate">
<polygon fill="white" stroke="black" points="1196,-121.5 1196,-140.5 1366,-140.5 1366,-121.5 1196,-121.5"/>
<text text-anchor="middle" x="1281" y="-128.5" font-family="Helvetica,sans-Serif" font-size="10.00">CellularAutomata.handleUpdate</text>
</a>
</g>
</g>
<!-- Node27&#45;&gt;Node29 -->
<g id="edge35" class="edge"><title>Node27&#45;&gt;Node29</title>
<path fill="none" stroke="midnightblue" d="M1123.47,-159.46C1152.04,-154.265 1187.58,-147.804 1217.57,-142.351"/>
<polygon fill="midnightblue" stroke="midnightblue" points="1218.3,-145.776 1227.51,-140.544 1217.04,-138.889 1218.3,-145.776"/>
</g>
<!-- Node28&#45;&gt;Node9 -->
<g id="edge34" class="edge"><title>Node28&#45;&gt;Node9</title>
<path fill="none" stroke="midnightblue" d="M1329.44,-159.411C1354.81,-154.284 1386.23,-147.933 1412.92,-142.537"/>
<polygon fill="midnightblue" stroke="midnightblue" points="1413.79,-145.932 1422.9,-140.52 1412.41,-139.071 1413.79,-145.932"/>
</g>
<!-- Node29&#45;&gt;Node9 -->
<g id="edge36" class="edge"><title>Node29&#45;&gt;Node9</title>
<path fill="none" stroke="midnightblue" d="M1366.1,-131C1374.58,-131 1383.17,-131 1391.59,-131"/>
<polygon fill="midnightblue" stroke="midnightblue" points="1391.75,-134.5 1401.75,-131 1391.75,-127.5 1391.75,-134.5"/>
</g>
<!-- Node31 -->
<g id="node31" class="node"><title>Node31</title>
<g id="a_node31"><a xlink:href="../../da/d74/class_grid.html#a2f2ccb1511e367a7d6e9bcb3f708cd38" target="_top" xlink:title="Grid.getCellAt">
<polygon fill="white" stroke="black" points="1239.5,-349.5 1239.5,-368.5 1322.5,-368.5 1322.5,-349.5 1239.5,-349.5"/>
<text text-anchor="middle" x="1281" y="-356.5" font-family="Helvetica,sans-Serif" font-size="10.00">Grid.getCellAt</text>
</a>
</g>
</g>
<!-- Node30&#45;&gt;Node31 -->
<g id="edge38" class="edge"><title>Node30&#45;&gt;Node31</title>
<path fill="none" stroke="midnightblue" d="M1144.1,-346.645C1172.14,-349.194 1203.5,-352.045 1229.02,-354.366"/>
<polygon fill="midnightblue" stroke="midnightblue" points="1228.94,-357.873 1239.22,-355.293 1229.58,-350.901 1228.94,-357.873"/>
</g>
<!-- Node32 -->
<g id="node32" class="node"><title>Node32</title>
<g id="a_node32"><a xlink:href="../../dd/d11/class_cell.html#aac3ac473652b817fe344534f4bec7e6f" target="_top" xlink:title="Cell.getState">
<polygon fill="white" stroke="black" points="1241.5,-311.5 1241.5,-330.5 1320.5,-330.5 1320.5,-311.5 1241.5,-311.5"/>
<text text-anchor="middle" x="1281" y="-318.5" font-family="Helvetica,sans-Serif" font-size="10.00">Cell.getState</text>
</a>
</g>
</g>
<!-- Node30&#45;&gt;Node32 -->
<g id="edge39" class="edge"><title>Node30&#45;&gt;Node32</title>
<path fill="none" stroke="midnightblue" d="M1144.1,-333.355C1172.86,-330.74 1205.12,-327.807 1230.99,-325.455"/>
<polygon fill="midnightblue" stroke="midnightblue" points="1231.65,-328.91 1241.29,-324.519 1231.02,-321.939 1231.65,-328.91"/>
</g>
<!-- Node33&#45;&gt;Node1 -->
<g id="edge42" class="edge"><title>Node33&#45;&gt;Node1</title>
<path fill="none" stroke="midnightblue" d="M607.212,-59.0912C598.681,-61.8114 590.043,-64.8073 582,-68 386.06,-145.782 169.327,-281.513 99.2219,-326.803"/>
<polygon fill="midnightblue" stroke="midnightblue" points="97.166,-323.965 90.6811,-332.343 100.975,-329.837 97.166,-323.965"/>
</g>
<!-- Node33&#45;&gt;Node21 -->
<g id="edge41" class="edge"><title>Node33&#45;&gt;Node21</title>
<path fill="none" stroke="midnightblue" d="M725.793,-59.0683C732.776,-61.6541 739.658,-64.6197 746,-68 785.888,-89.2604 824.813,-125.597 845.878,-146.944"/>
<polygon fill="midnightblue" stroke="midnightblue" points="843.567,-149.589 853.042,-154.33 848.592,-144.715 843.567,-149.589"/>
</g>
<!-- Node34&#45;&gt;Node26 -->
<g id="edge45" class="edge"><title>Node34&#45;&gt;Node26</title>
<path fill="none" stroke="midnightblue" d="M546.459,-318.172C613.638,-314.09 709.596,-308.26 778.025,-304.102"/>
<polygon fill="midnightblue" stroke="midnightblue" points="778.569,-307.576 788.338,-303.476 778.144,-300.589 778.569,-307.576"/>
</g>
</g>
</svg>
        <g id="navigator" transform="translate(0 0)" fill="#404254">
                <rect fill="#f2f5e9" fill-opacity="0.5" stroke="#606060" stroke-width=".5" x="0" y="0" width="60" height="60"/>
                <use id="zoomplus" xlink:href="#zoomPlus" x="17" y="9" onmousedown="handleZoom(evt,'in')"/>
                <use id="zoomminus" xlink:href="#zoomMin" x="42" y="9" onmousedown="handleZoom(evt,'out')"/>
                <use id="reset" xlink:href="#resetDef" x="30" y="36" onmousedown="handleReset()"/>
                <g id="arrowUp" xlink:href="#dirArrow" transform="translate(30 24)" onmousedown="handlePan(0,-1)">
                  <use xlink:href="#rim" fill="#404040">
                        <set attributeName="fill" to="#808080" begin="arrowUp.mouseover" end="arrowUp.mouseout"/>
                  </use>
                  <path fill="none" stroke="white" stroke-width="1.5" d="M0,-3.0v7 M-2.5,-0.5L0,-3.0L2.5,-0.5"/>
                </g>
                <g id="arrowRight" xlink:href="#dirArrow" transform="rotate(90) translate(36 -43)" onmousedown="handlePan(1,0)">
                  <use xlink:href="#rim" fill="#404040">
                        <set attributeName="fill" to="#808080" begin="arrowRight.mouseover" end="arrowRight.mouseout"/>
                  </use>
                  <path fill="none" stroke="white" stroke-width="1.5" d="M0,-3.0v7 M-2.5,-0.5L0,-3.0L2.5,-0.5"/>
                </g>
                <g id="arrowDown" xlink:href="#dirArrow" transform="rotate(180) translate(-30 -48)" onmousedown="handlePan(0,1)">
                  <use xlink:href="#rim" fill="#404040">
                        <set attributeName="fill" to="#808080" begin="arrowDown.mouseover" end="arrowDown.mouseout"/>
                  </use>
                  <path fill="none" stroke="white" stroke-width="1.5" d="M0,-3.0v7 M-2.5,-0.5L0,-3.0L2.5,-0.5"/>
                </g>
                <g id="arrowLeft" xlink:href="#dirArrow" transform="rotate(270) translate(-36 17)" onmousedown="handlePan(-1,0)">
                  <use xlink:href="#rim" fill="#404040">
                        <set attributeName="fill" to="#808080" begin="arrowLeft.mouseover" end="arrowLeft.mouseout"/>
                  </use>
                  <path fill="none" stroke="white" stroke-width="1.5" d="M0,-3.0v7 M-2.5,-0.5L0,-3.0L2.5,-0.5"/>
                </g>
        </g>
        <svg viewBox="0 0 15 15" width="100%" height="30px" preserveAspectRatio="xMaxYMin meet">
         <g id="arrow_out" transform="scale(0.3 0.3)">
          <a xlink:href="class_cell_society_view_a2c047a3972078bb0a5490ed225ef2dfa_cgraph_org.svg" target="_base">
           <rect id="button" ry="5" rx="5" y="6" x="6" height="38" width="38"
                fill="#f2f5e9" fill-opacity="0.5" stroke="#606060" stroke-width="1.0"/>
           <path id="arrow"
             d="M 11.500037,31.436501 C 11.940474,20.09759 22.043105,11.32322 32.158766,21.979434 L 37.068811,17.246167 C 37.068811,17.246167 37.088388,32 37.088388,32 L 22.160133,31.978069 C 22.160133,31.978069 26.997745,27.140456 26.997745,27.140456 C 18.528582,18.264221 13.291696,25.230495 11.500037,31.436501 z"
             style="fill:#404040;"/>
          </a>
         </g>
        </svg>
</svg>
