<?xml version="1.0" encoding="UTF-8" standalone="no"?>
<!DOCTYPE svg PUBLIC "-//W3C//DTD SVG 1.1//EN"
 "http://www.w3.org/Graphics/SVG/1.1/DTD/svg11.dtd">
<!-- Generated by graphviz version 2.36.0 (20140111.2315)
 -->
<!-- Title: CellSocietyView.CellSocietyView Pages: 1 -->
<svg width="1932pt" height="741pt"
 viewBox="0.00 0.00 1932.00 741.26" xmlns="http://www.w3.org/2000/svg" xmlns:xlink="http://www.w3.org/1999/xlink">
<g id="graph0" class="graph" transform="scale(1 1) rotate(0) translate(4 737.263)">
<title>CellSocietyView.CellSocietyView</title>
<polygon fill="white" stroke="none" points="-4,4 -4,-737.263 1928,-737.263 1928,4 -4,4"/>
<!-- Node1 -->
<g id="node1" class="node"><title>Node1</title>
<polygon fill="#bfbfbf" stroke="black" points="0.5,-162.763 0.5,-181.763 167.5,-181.763 167.5,-162.763 0.5,-162.763"/>
<text text-anchor="middle" x="84" y="-169.763" font-family="Helvetica,sans-Serif" font-size="10.00">CellSocietyView.CellSocietyView</text>
</g>
<!-- Node2 -->
<g id="node2" class="node"><title>Node2</title>
<g id="a_node2"><a xlink:href="../../df/df8/class_cell_society_view.html#a656cfed0ba32bc41bbd0c4087860db4b" target="_top" xlink:title="CellSocietyView.makeLoad\lButton">
<polygon fill="white" stroke="black" points="204.5,-157.263 204.5,-187.263 347.5,-187.263 347.5,-157.263 204.5,-157.263"/>
<text text-anchor="start" x="212.5" y="-175.263" font-family="Helvetica,sans-Serif" font-size="10.00">CellSocietyView.makeLoad</text>
<text text-anchor="middle" x="276" y="-164.263" font-family="Helvetica,sans-Serif" font-size="10.00">Button</text>
</a>
</g>
</g>
<!-- Node1&#45;&gt;Node2 -->
<g id="edge1" class="edge"><title>Node1&#45;&gt;Node2</title>
<path fill="none" stroke="midnightblue" d="M167.508,-172.263C176.362,-172.263 185.363,-172.263 194.196,-172.263"/>
<polygon fill="midnightblue" stroke="midnightblue" points="194.47,-175.763 204.47,-172.263 194.47,-168.763 194.47,-175.763"/>
</g>
<!-- Node3 -->
<g id="node3" class="node"><title>Node3</title>
<g id="a_node3"><a xlink:href="../../df/df8/class_cell_society_view.html#ae09ddc20f81e90312e628d712a5c6afc" target="_top" xlink:title="CellSocietyView.makeUIButton">
<polygon fill="white" stroke="black" points="1166,-115.763 1166,-134.763 1328,-134.763 1328,-115.763 1166,-115.763"/>
<text text-anchor="middle" x="1247" y="-122.763" font-family="Helvetica,sans-Serif" font-size="10.00">CellSocietyView.makeUIButton</text>
</a>
</g>
</g>
<!-- Node2&#45;&gt;Node3 -->
<g id="edge2" class="edge"><title>Node2&#45;&gt;Node3</title>
<path fill="none" stroke="midnightblue" d="M295.961,-157.128C348.8,-116.529 503.53,-8.26292 651,-8.26292 651,-8.26292 651,-8.26292 851,-8.26292 975.287,-8.26292 1014.8,19.3843 1130,-27.2629 1173.09,-44.7117 1211.86,-84.623 1231.81,-107.771"/>
<polygon fill="midnightblue" stroke="midnightblue" points="1229.17,-110.067 1238.29,-115.468 1234.53,-105.562 1229.17,-110.067"/>
</g>
<!-- Node4 -->
<g id="node4" class="node"><title>Node4</title>
<g id="a_node4"><a xlink:href="../../df/df8/class_cell_society_view.html#a2c047a3972078bb0a5490ed225ef2dfa" target="_top" xlink:title="CellSocietyView.loadNewFile">
<polygon fill="white" stroke="black" points="384.5,-343.763 384.5,-362.763 533.5,-362.763 533.5,-343.763 384.5,-343.763"/>
<text text-anchor="middle" x="459" y="-350.763" font-family="Helvetica,sans-Serif" font-size="10.00">CellSocietyView.loadNewFile</text>
</a>
</g>
</g>
<!-- Node2&#45;&gt;Node4 -->
<g id="edge3" class="edge"><title>Node2&#45;&gt;Node4</title>
<path fill="none" stroke="midnightblue" d="M292.121,-187.384C325.612,-220.875 405.857,-301.12 441.013,-336.276"/>
<polygon fill="midnightblue" stroke="midnightblue" points="438.63,-338.843 448.176,-343.439 443.58,-333.893 438.63,-338.843"/>
</g>
<!-- Node5 -->
<g id="node5" class="node"><title>Node5</title>
<g id="a_node5"><a xlink:href="../../d7/db3/class_x_m_l_reader.html#a9f7a6e53fc5114be22cbd0b9f6184ef0" target="_top" xlink:title="XMLReader.chooseFile">
<polygon fill="white" stroke="black" points="591.5,-544.763 591.5,-563.763 712.5,-563.763 712.5,-544.763 591.5,-544.763"/>
<text text-anchor="middle" x="652" y="-551.763" font-family="Helvetica,sans-Serif" font-size="10.00">XMLReader.chooseFile</text>
</a>
</g>
</g>
<!-- Node4&#45;&gt;Node5 -->
<g id="edge4" class="edge"><title>Node4&#45;&gt;Node5</title>
<path fill="none" stroke="midnightblue" d="M469.212,-362.958C499.532,-394.864 596.464,-496.872 634.991,-537.415"/>
<polygon fill="midnightblue" stroke="midnightblue" points="632.454,-539.827 641.88,-544.666 637.529,-535.005 632.454,-539.827"/>
</g>
<!-- Node7 -->
<g id="node7" class="node"><title>Node7</title>
<g id="a_node7"><a xlink:href="../../df/df8/class_cell_society_view.html#a6a72ed4ee014a9c3f0368ab26be873d6" target="_top" xlink:title="CellSocietyView.makeCAGame">
<polygon fill="white" stroke="black" points="570.5,-343.763 570.5,-362.763 733.5,-362.763 733.5,-343.763 570.5,-343.763"/>
<text text-anchor="middle" x="652" y="-350.763" font-family="Helvetica,sans-Serif" font-size="10.00">CellSocietyView.makeCAGame</text>
</a>
</g>
</g>
<!-- Node4&#45;&gt;Node7 -->
<g id="edge6" class="edge"><title>Node4&#45;&gt;Node7</title>
<path fill="none" stroke="midnightblue" d="M533.572,-353.263C542.353,-353.263 551.395,-353.263 560.379,-353.263"/>
<polygon fill="midnightblue" stroke="midnightblue" points="560.482,-356.763 570.482,-353.263 560.482,-349.763 560.482,-356.763"/>
</g>
<!-- Node6 -->
<g id="node6" class="node"><title>Node6</title>
<g id="a_node6"><a xlink:href="../../d7/db3/class_x_m_l_reader.html#a016fb8ab3899a6c41ac4daec9e64cb90" target="_top" xlink:title="XMLReader.parseXML">
<polygon fill="white" stroke="black" points="791,-675.763 791,-694.763 909,-694.763 909,-675.763 791,-675.763"/>
<text text-anchor="middle" x="850" y="-682.763" font-family="Helvetica,sans-Serif" font-size="10.00">XMLReader.parseXML</text>
</a>
</g>
</g>
<!-- Node5&#45;&gt;Node6 -->
<g id="edge5" class="edge"><title>Node5&#45;&gt;Node6</title>
<path fill="none" stroke="midnightblue" d="M660.74,-563.782C678.107,-584.532 722.406,-634.147 770,-661.263 777.782,-665.697 786.472,-669.396 795.162,-672.455"/>
<polygon fill="midnightblue" stroke="midnightblue" points="794.334,-675.866 804.926,-675.642 796.506,-669.212 794.334,-675.866"/>
</g>
<!-- Node8 -->
<g id="node8" class="node"><title>Node8</title>
<g id="a_node8"><a xlink:href="../../d7/db3/class_x_m_l_reader.html#a0c634622bb0c8f4ee65f2d91218e8917" target="_top" xlink:title="XMLReader.makeCA">
<polygon fill="white" stroke="black" points="794,-367.763 794,-386.763 906,-386.763 906,-367.763 794,-367.763"/>
<text text-anchor="middle" x="850" y="-374.763" font-family="Helvetica,sans-Serif" font-size="10.00">XMLReader.makeCA</text>
</a>
</g>
</g>
<!-- Node7&#45;&gt;Node8 -->
<g id="edge7" class="edge"><title>Node7&#45;&gt;Node8</title>
<path fill="none" stroke="midnightblue" d="M730.746,-362.783C748.182,-364.918 766.513,-367.162 783.398,-369.23"/>
<polygon fill="midnightblue" stroke="midnightblue" points="783.352,-372.75 793.703,-370.492 784.203,-365.802 783.352,-372.75"/>
</g>
<!-- Node12 -->
<g id="node12" class="node"><title>Node12</title>
<g id="a_node12"><a xlink:href="../../d2/d40/class_cellular_automata.html#a34ceed434c942d34ff03169b92684726" target="_top" xlink:title="CellularAutomata.getGrid">
<polygon fill="white" stroke="black" points="1786,-310.763 1786,-329.763 1924,-329.763 1924,-310.763 1786,-310.763"/>
<text text-anchor="middle" x="1855" y="-317.763" font-family="Helvetica,sans-Serif" font-size="10.00">CellularAutomata.getGrid</text>
</a>
</g>
</g>
<!-- Node7&#45;&gt;Node12 -->
<g id="edge13" class="edge"><title>Node7&#45;&gt;Node12</title>
<path fill="none" stroke="midnightblue" d="M674.071,-343.682C697.125,-333.638 735.415,-318.232 770,-310.263 890.579,-282.479 923.262,-282.263 1047,-282.263 1047,-282.263 1047,-282.263 1455,-282.263 1586.38,-282.263 1619.6,-285.208 1750,-301.263 1765.77,-303.204 1782.76,-306.004 1798.34,-308.861"/>
<polygon fill="midnightblue" stroke="midnightblue" points="1797.88,-312.335 1808.36,-310.737 1799.17,-305.455 1797.88,-312.335"/>
</g>
<!-- Node13 -->
<g id="node13" class="node"><title>Node13</title>
<g id="a_node13"><a xlink:href="../../dd/d97/class_grid_drawer.html#ab8aa1cc79c89cfbc7b9d8516a5dee463" target="_top" xlink:title="GridDrawer.makeGrid">
<polygon fill="white" stroke="black" points="790.5,-506.763 790.5,-525.763 909.5,-525.763 909.5,-506.763 790.5,-506.763"/>
<text text-anchor="middle" x="850" y="-513.763" font-family="Helvetica,sans-Serif" font-size="10.00">GridDrawer.makeGrid</text>
</a>
</g>
</g>
<!-- Node7&#45;&gt;Node13 -->
<g id="edge14" class="edge"><title>Node7&#45;&gt;Node13</title>
<path fill="none" stroke="midnightblue" d="M664.674,-362.971C697.219,-390.037 789.218,-466.547 829.595,-500.125"/>
<polygon fill="midnightblue" stroke="midnightblue" points="827.461,-502.902 837.387,-506.606 831.937,-497.52 827.461,-502.902"/>
</g>
<!-- Node22 -->
<g id="node22" class="node"><title>Node22</title>
<g id="a_node22"><a xlink:href="../../df/df8/class_cell_society_view.html#a7bdbd4e8fd3893e672eb22015603f6dc" target="_top" xlink:title="CellSocietyView.makeButtons">
<polygon fill="white" stroke="black" points="771,-162.763 771,-181.763 929,-181.763 929,-162.763 771,-162.763"/>
<text text-anchor="middle" x="850" y="-169.763" font-family="Helvetica,sans-Serif" font-size="10.00">CellSocietyView.makeButtons</text>
</a>
</g>
</g>
<!-- Node7&#45;&gt;Node22 -->
<g id="edge23" class="edge"><title>Node7&#45;&gt;Node22</title>
<path fill="none" stroke="midnightblue" d="M663.538,-343.532C695.376,-314.13 790.847,-225.965 830.949,-188.932"/>
<polygon fill="midnightblue" stroke="midnightblue" points="833.438,-191.398 838.41,-182.042 828.689,-186.255 833.438,-191.398"/>
</g>
<!-- Node32 -->
<g id="node32" class="node"><title>Node32</title>
<g id="a_node32"><a xlink:href="../../dd/d97/class_grid_drawer.html#a8853ef53b515fd60ca524f05a3dbf897" target="_top" xlink:title="GridDrawer.updateNextGen">
<polygon fill="white" stroke="black" points="1380,-511.763 1380,-530.763 1528,-530.763 1528,-511.763 1380,-511.763"/>
<text text-anchor="middle" x="1454" y="-518.763" font-family="Helvetica,sans-Serif" font-size="10.00">GridDrawer.updateNextGen</text>
</a>
</g>
</g>
<!-- Node7&#45;&gt;Node32 -->
<g id="edge44" class="edge"><title>Node7&#45;&gt;Node32</title>
<path fill="none" stroke="midnightblue" d="M656.881,-362.884C669.205,-392.373 710.196,-482.679 770,-535.263 842.41,-598.931 871.936,-607.079 966,-628.263 1141.38,-667.761 1352.71,-572.758 1426.24,-535.484"/>
<polygon fill="midnightblue" stroke="midnightblue" points="1428,-538.514 1435.3,-530.83 1424.8,-532.288 1428,-538.514"/>
</g>
<!-- Node35 -->
<g id="node35" class="node"><title>Node35</title>
<g id="a_node35"><a xlink:href="../../df/df8/class_cell_society_view.html#adf6a6b0542d00677a9fffbb8e3c03ffe" target="_top" xlink:title="CellSocietyView.makeTimeline">
<polygon fill="white" stroke="black" points="770,-319.763 770,-338.763 930,-338.763 930,-319.763 770,-319.763"/>
<text text-anchor="middle" x="850" y="-326.763" font-family="Helvetica,sans-Serif" font-size="10.00">CellSocietyView.makeTimeline</text>
</a>
</g>
</g>
<!-- Node7&#45;&gt;Node35 -->
<g id="edge45" class="edge"><title>Node7&#45;&gt;Node35</title>
<path fill="none" stroke="midnightblue" d="M730.746,-343.743C740.766,-342.516 751.081,-341.253 761.248,-340.008"/>
<polygon fill="midnightblue" stroke="midnightblue" points="761.848,-343.461 771.348,-338.771 760.997,-336.513 761.848,-343.461"/>
</g>
<!-- Node9 -->
<g id="node9" class="node"><title>Node9</title>
<g id="a_node9"><a xlink:href="../../d7/db3/class_x_m_l_reader.html#a656927862103b26830df1596c1f65925" target="_top" xlink:title="XMLReader.getTextValue">
<polygon fill="white" stroke="black" points="1181,-386.763 1181,-405.763 1313,-405.763 1313,-386.763 1181,-386.763"/>
<text text-anchor="middle" x="1247" y="-393.763" font-family="Helvetica,sans-Serif" font-size="10.00">XMLReader.getTextValue</text>
</a>
</g>
</g>
<!-- Node8&#45;&gt;Node9 -->
<g id="edge8" class="edge"><title>Node8&#45;&gt;Node9</title>
<path fill="none" stroke="midnightblue" d="M906.162,-374.631C962.521,-372.56 1052.51,-370.959 1130,-377.263 1149.22,-378.827 1170.06,-381.825 1188.7,-384.986"/>
<polygon fill="midnightblue" stroke="midnightblue" points="1188.35,-388.478 1198.81,-386.75 1189.56,-381.582 1188.35,-388.478"/>
</g>
<!-- Node10 -->
<g id="node10" class="node"><title>Node10</title>
<g id="a_node10"><a xlink:href="../../d7/db3/class_x_m_l_reader.html#a373d7102833e61dbaac8e91b0567d03c" target="_top" xlink:title="XMLReader.makeGrid">
<polygon fill="white" stroke="black" points="989,-424.763 989,-443.763 1107,-443.763 1107,-424.763 989,-424.763"/>
<text text-anchor="middle" x="1048" y="-431.763" font-family="Helvetica,sans-Serif" font-size="10.00">XMLReader.makeGrid</text>
</a>
</g>
</g>
<!-- Node8&#45;&gt;Node10 -->
<g id="edge9" class="edge"><title>Node8&#45;&gt;Node10</title>
<path fill="none" stroke="midnightblue" d="M877.746,-386.849C900.921,-394.975 935.44,-406.648 966,-415.263 974.78,-417.738 984.158,-420.148 993.304,-422.375"/>
<polygon fill="midnightblue" stroke="midnightblue" points="992.559,-425.796 1003.1,-424.714 994.185,-418.987 992.559,-425.796"/>
</g>
<!-- Node11 -->
<g id="node11" class="node"><title>Node11</title>
<g id="a_node11"><a xlink:href="../../d7/db3/class_x_m_l_reader.html#add9bc5354b7e5ab29eab10f671ee9686" target="_top" xlink:title="XMLReader.makeParam">
<polygon fill="white" stroke="black" points="983.5,-386.763 983.5,-405.763 1112.5,-405.763 1112.5,-386.763 983.5,-386.763"/>
<text text-anchor="middle" x="1048" y="-393.763" font-family="Helvetica,sans-Serif" font-size="10.00">XMLReader.makeParam</text>
</a>
</g>
</g>
<!-- Node8&#45;&gt;Node11 -->
<g id="edge11" class="edge"><title>Node8&#45;&gt;Node11</title>
<path fill="none" stroke="midnightblue" d="M906.119,-382.606C926.934,-384.624 950.966,-386.953 973.219,-389.111"/>
<polygon fill="midnightblue" stroke="midnightblue" points="973.01,-392.607 983.301,-390.088 973.685,-385.639 973.01,-392.607"/>
</g>
<!-- Node10&#45;&gt;Node9 -->
<g id="edge10" class="edge"><title>Node10&#45;&gt;Node9</title>
<path fill="none" stroke="midnightblue" d="M1098.46,-424.723C1125.15,-419.573 1158.3,-413.179 1186.42,-407.756"/>
<polygon fill="midnightblue" stroke="midnightblue" points="1187.37,-411.138 1196.52,-405.807 1186.04,-404.264 1187.37,-411.138"/>
</g>
<!-- Node11&#45;&gt;Node9 -->
<g id="edge12" class="edge"><title>Node11&#45;&gt;Node9</title>
<path fill="none" stroke="midnightblue" d="M1112.69,-396.263C1131.17,-396.263 1151.54,-396.263 1170.67,-396.263"/>
<polygon fill="midnightblue" stroke="midnightblue" points="1170.84,-399.763 1180.84,-396.263 1170.84,-392.763 1170.84,-399.763"/>
</g>
<!-- Node14 -->
<g id="node14" class="node"><title>Node14</title>
<g id="a_node14"><a xlink:href="../../dd/d97/class_grid_drawer.html#af9a09b2ee81450f13a117261b67718e0" target="_top" xlink:title="GridDrawer.makeUnitGrid">
<polygon fill="white" stroke="black" points="979,-599.763 979,-618.763 1117,-618.763 1117,-599.763 979,-599.763"/>
<text text-anchor="middle" x="1048" y="-606.763" font-family="Helvetica,sans-Serif" font-size="10.00">GridDrawer.makeUnitGrid</text>
</a>
</g>
</g>
<!-- Node13&#45;&gt;Node14 -->
<g id="edge15" class="edge"><title>Node13&#45;&gt;Node14</title>
<path fill="none" stroke="midnightblue" d="M863.02,-525.775C883.173,-541.274 925.553,-571.979 966,-589.263 972.776,-592.159 980.058,-594.693 987.377,-596.896"/>
<polygon fill="midnightblue" stroke="midnightblue" points="986.763,-600.359 997.337,-599.697 988.658,-593.62 986.763,-600.359"/>
</g>
<!-- Node19 -->
<g id="node19" class="node"><title>Node19</title>
<g id="a_node19"><a xlink:href="../../dd/d97/class_grid_drawer.html#a54f548bdc35a2afef9af05a134c149f5" target="_top" xlink:title="GridDrawer.calculateCell\lWidth">
<polygon fill="white" stroke="black" points="982,-550.263 982,-580.263 1114,-580.263 1114,-550.263 982,-550.263"/>
<text text-anchor="start" x="990" y="-568.263" font-family="Helvetica,sans-Serif" font-size="10.00">GridDrawer.calculateCell</text>
<text text-anchor="middle" x="1048" y="-557.263" font-family="Helvetica,sans-Serif" font-size="10.00">Width</text>
</a>
</g>
</g>
<!-- Node13&#45;&gt;Node19 -->
<g id="edge20" class="edge"><title>Node13&#45;&gt;Node19</title>
<path fill="none" stroke="midnightblue" d="M889.256,-525.827C914.179,-532.058 947.437,-540.372 976.99,-547.76"/>
<polygon fill="midnightblue" stroke="midnightblue" points="976.302,-551.196 986.852,-550.226 978,-544.405 976.302,-551.196"/>
</g>
<!-- Node20 -->
<g id="node20" class="node"><title>Node20</title>
<g id="a_node20"><a xlink:href="../../dd/d97/class_grid_drawer.html#a3f6bb5e9307bf84f9f8f4ae467ec85cf" target="_top" xlink:title="GridDrawer.calculateCell\lHeight">
<polygon fill="white" stroke="black" points="982,-501.263 982,-531.263 1114,-531.263 1114,-501.263 982,-501.263"/>
<text text-anchor="start" x="990" y="-519.263" font-family="Helvetica,sans-Serif" font-size="10.00">GridDrawer.calculateCell</text>
<text text-anchor="middle" x="1048" y="-508.263" font-family="Helvetica,sans-Serif" font-size="10.00">Height</text>
</a>
</g>
</g>
<!-- Node13&#45;&gt;Node20 -->
<g id="edge21" class="edge"><title>Node13&#45;&gt;Node20</title>
<path fill="none" stroke="midnightblue" d="M909.541,-516.263C929.123,-516.263 951.228,-516.263 971.894,-516.263"/>
<polygon fill="midnightblue" stroke="midnightblue" points="971.906,-519.763 981.906,-516.263 971.906,-512.763 971.906,-519.763"/>
</g>
<!-- Node21 -->
<g id="node21" class="node"><title>Node21</title>
<g id="a_node21"><a xlink:href="../../dd/d97/class_grid_drawer.html#a8fba9cca18cee03651775b5785722778" target="_top" xlink:title="GridDrawer.scale">
<polygon fill="white" stroke="black" points="999.5,-462.763 999.5,-481.763 1096.5,-481.763 1096.5,-462.763 999.5,-462.763"/>
<text text-anchor="middle" x="1048" y="-469.763" font-family="Helvetica,sans-Serif" font-size="10.00">GridDrawer.scale</text>
</a>
</g>
</g>
<!-- Node13&#45;&gt;Node21 -->
<g id="edge22" class="edge"><title>Node13&#45;&gt;Node21</title>
<path fill="none" stroke="midnightblue" d="M893.529,-506.716C923.194,-500.056 962.971,-491.127 994.596,-484.027"/>
<polygon fill="midnightblue" stroke="midnightblue" points="995.563,-487.397 1004.55,-481.792 994.03,-480.567 995.563,-487.397"/>
</g>
<!-- Node15 -->
<g id="node15" class="node"><title>Node15</title>
<g id="a_node15"><a xlink:href="../../dd/d97/class_grid_drawer.html#a69ef437bdcbcdb3dca6b206b73a1ab1f" target="_top" xlink:title="GridDrawer.drawUnitCell">
<polygon fill="white" stroke="black" points="1181.5,-675.763 1181.5,-694.763 1312.5,-694.763 1312.5,-675.763 1181.5,-675.763"/>
<text text-anchor="middle" x="1247" y="-682.763" font-family="Helvetica,sans-Serif" font-size="10.00">GridDrawer.drawUnitCell</text>
</a>
</g>
</g>
<!-- Node14&#45;&gt;Node15 -->
<g id="edge16" class="edge"><title>Node14&#45;&gt;Node15</title>
<path fill="none" stroke="midnightblue" d="M1073.95,-618.888C1108.88,-632.365 1172.49,-656.905 1211.81,-672.073"/>
<polygon fill="midnightblue" stroke="midnightblue" points="1210.66,-675.382 1221.25,-675.716 1213.18,-668.851 1210.66,-675.382"/>
</g>
<!-- Node16 -->
<g id="node16" class="node"><title>Node16</title>
<g id="a_node16"><a xlink:href="../../dd/d97/class_grid_drawer.html#a53b8613b7621224084096d76e2316452" target="_top" xlink:title="GridDrawer.drawTriangle">
<polygon fill="white" stroke="black" points="1388.5,-713.763 1388.5,-732.763 1519.5,-732.763 1519.5,-713.763 1388.5,-713.763"/>
<text text-anchor="middle" x="1454" y="-720.763" font-family="Helvetica,sans-Serif" font-size="10.00">GridDrawer.drawTriangle</text>
</a>
</g>
</g>
<!-- Node15&#45;&gt;Node16 -->
<g id="edge17" class="edge"><title>Node15&#45;&gt;Node16</title>
<path fill="none" stroke="midnightblue" d="M1299.47,-694.803C1327.37,-699.975 1362.05,-706.403 1391.38,-711.841"/>
<polygon fill="midnightblue" stroke="midnightblue" points="1391.04,-715.338 1401.51,-713.719 1392.32,-708.455 1391.04,-715.338"/>
</g>
<!-- Node17 -->
<g id="node17" class="node"><title>Node17</title>
<g id="a_node17"><a xlink:href="../../dd/d97/class_grid_drawer.html#a08b9d58cde5fafa07e226d4ed2ebc655" target="_top" xlink:title="GridDrawer.drawSquare">
<polygon fill="white" stroke="black" points="1389.5,-675.763 1389.5,-694.763 1518.5,-694.763 1518.5,-675.763 1389.5,-675.763"/>
<text text-anchor="middle" x="1454" y="-682.763" font-family="Helvetica,sans-Serif" font-size="10.00">GridDrawer.drawSquare</text>
</a>
</g>
</g>
<!-- Node15&#45;&gt;Node17 -->
<g id="edge18" class="edge"><title>Node15&#45;&gt;Node17</title>
<path fill="none" stroke="midnightblue" d="M1312.58,-685.263C1333.76,-685.263 1357.45,-685.263 1379.25,-685.263"/>
<polygon fill="midnightblue" stroke="midnightblue" points="1379.44,-688.763 1389.44,-685.263 1379.44,-681.763 1379.44,-688.763"/>
</g>
<!-- Node18 -->
<g id="node18" class="node"><title>Node18</title>
<g id="a_node18"><a xlink:href="../../dd/d97/class_grid_drawer.html#a260f7ce1d53af7f88e1c4ee3a4a3de2b" target="_top" xlink:title="GridDrawer.drawHexagon">
<polygon fill="white" stroke="black" points="1385.5,-637.763 1385.5,-656.763 1522.5,-656.763 1522.5,-637.763 1385.5,-637.763"/>
<text text-anchor="middle" x="1454" y="-644.763" font-family="Helvetica,sans-Serif" font-size="10.00">GridDrawer.drawHexagon</text>
</a>
</g>
</g>
<!-- Node15&#45;&gt;Node18 -->
<g id="edge19" class="edge"><title>Node15&#45;&gt;Node18</title>
<path fill="none" stroke="midnightblue" d="M1299.47,-675.723C1327.37,-670.551 1362.05,-664.123 1391.38,-658.685"/>
<polygon fill="midnightblue" stroke="midnightblue" points="1392.32,-662.071 1401.51,-656.807 1391.04,-655.188 1392.32,-662.071"/>
</g>
<!-- Node22&#45;&gt;Node2 -->
<g id="edge43" class="edge"><title>Node22&#45;&gt;Node2</title>
<path fill="none" stroke="midnightblue" d="M770.675,-172.263C662.25,-172.263 467.417,-172.263 357.731,-172.263"/>
<polygon fill="midnightblue" stroke="midnightblue" points="357.712,-168.763 347.712,-172.263 357.712,-175.763 357.712,-168.763"/>
</g>
<!-- Node23 -->
<g id="node23" class="node"><title>Node23</title>
<g id="a_node23"><a xlink:href="../../df/df8/class_cell_society_view.html#a1531c1a5ad4e0630046bfe4e8c3127e8" target="_top" xlink:title="CellSocietyView.makePlay\lButton">
<polygon fill="white" stroke="black" points="978,-86.2629 978,-116.263 1118,-116.263 1118,-86.2629 978,-86.2629"/>
<text text-anchor="start" x="986" y="-104.263" font-family="Helvetica,sans-Serif" font-size="10.00">CellSocietyView.makePlay</text>
<text text-anchor="middle" x="1048" y="-93.2629" font-family="Helvetica,sans-Serif" font-size="10.00">Button</text>
</a>
</g>
</g>
<!-- Node22&#45;&gt;Node23 -->
<g id="edge24" class="edge"><title>Node22&#45;&gt;Node23</title>
<path fill="none" stroke="midnightblue" d="M872.796,-162.593C895.74,-152.593 933.036,-136.85 966,-125.263 971.584,-123.3 977.421,-121.359 983.292,-119.483"/>
<polygon fill="midnightblue" stroke="midnightblue" points="984.668,-122.72 993.166,-116.393 982.577,-116.039 984.668,-122.72"/>
</g>
<!-- Node24 -->
<g id="node24" class="node"><title>Node24</title>
<g id="a_node24"><a xlink:href="../../df/df8/class_cell_society_view.html#ae177299e365c8c48502004eb87a03cf1" target="_top" xlink:title="CellSocietyView.makePause\lButton">
<polygon fill="white" stroke="black" points="973.5,-37.2629 973.5,-67.2629 1122.5,-67.2629 1122.5,-37.2629 973.5,-37.2629"/>
<text text-anchor="start" x="981.5" y="-55.2629" font-family="Helvetica,sans-Serif" font-size="10.00">CellSocietyView.makePause</text>
<text text-anchor="middle" x="1048" y="-44.2629" font-family="Helvetica,sans-Serif" font-size="10.00">Button</text>
</a>
</g>
</g>
<!-- Node22&#45;&gt;Node24 -->
<g id="edge26" class="edge"><title>Node22&#45;&gt;Node24</title>
<path fill="none" stroke="midnightblue" d="M859.862,-162.588C877.971,-143.377 921.296,-100.212 966,-76.2629 969.464,-74.4069 973.091,-72.6765 976.808,-71.0657"/>
<polygon fill="midnightblue" stroke="midnightblue" points="978.212,-74.2737 986.192,-67.3048 975.608,-67.7761 978.212,-74.2737"/>
</g>
<!-- Node25 -->
<g id="node25" class="node"><title>Node25</title>
<g id="a_node25"><a xlink:href="../../df/df8/class_cell_society_view.html#ae4f695e25edd84b67be004d3b1a7a437" target="_top" xlink:title="CellSocietyView.makeFFButton">
<polygon fill="white" stroke="black" points="966.5,-184.763 966.5,-203.763 1129.5,-203.763 1129.5,-184.763 966.5,-184.763"/>
<text text-anchor="middle" x="1048" y="-191.763" font-family="Helvetica,sans-Serif" font-size="10.00">CellSocietyView.makeFFButton</text>
</a>
</g>
</g>
<!-- Node22&#45;&gt;Node25 -->
<g id="edge28" class="edge"><title>Node22&#45;&gt;Node25</title>
<path fill="none" stroke="midnightblue" d="M929.028,-181.021C937.947,-182.022 947.098,-183.049 956.166,-184.067"/>
<polygon fill="midnightblue" stroke="midnightblue" points="956.024,-187.573 966.352,-185.211 956.805,-180.617 956.024,-187.573"/>
</g>
<!-- Node26 -->
<g id="node26" class="node"><title>Node26</title>
<g id="a_node26"><a xlink:href="../../df/df8/class_cell_society_view.html#a304edeb753eed8cedb1c8e0ad952a4d8" target="_top" xlink:title="CellSocietyView.makeSlow\lButton">
<polygon fill="white" stroke="black" points="977,-135.263 977,-165.263 1119,-165.263 1119,-135.263 977,-135.263"/>
<text text-anchor="start" x="985" y="-153.263" font-family="Helvetica,sans-Serif" font-size="10.00">CellSocietyView.makeSlow</text>
<text text-anchor="middle" x="1048" y="-142.263" font-family="Helvetica,sans-Serif" font-size="10.00">Button</text>
</a>
</g>
</g>
<!-- Node22&#45;&gt;Node26 -->
<g id="edge30" class="edge"><title>Node22&#45;&gt;Node26</title>
<path fill="none" stroke="midnightblue" d="M929.028,-163.505C941.371,-162.119 954.156,-160.684 966.553,-159.293"/>
<polygon fill="midnightblue" stroke="midnightblue" points="967.311,-162.73 976.858,-158.136 966.53,-155.773 967.311,-162.73"/>
</g>
<!-- Node27 -->
<g id="node27" class="node"><title>Node27</title>
<g id="a_node27"><a xlink:href="../../df/df8/class_cell_society_view.html#aec6e94a6cf275f0b5d64a4b8adccd7d0" target="_top" xlink:title="CellSocietyView.makeStep\lButton">
<polygon fill="white" stroke="black" points="976.5,-223.263 976.5,-253.263 1119.5,-253.263 1119.5,-223.263 976.5,-223.263"/>
<text text-anchor="start" x="984.5" y="-241.263" font-family="Helvetica,sans-Serif" font-size="10.00">CellSocietyView.makeStep</text>
<text text-anchor="middle" x="1048" y="-230.263" font-family="Helvetica,sans-Serif" font-size="10.00">Button</text>
</a>
</g>
</g>
<!-- Node22&#45;&gt;Node27 -->
<g id="edge32" class="edge"><title>Node22&#45;&gt;Node27</title>
<path fill="none" stroke="midnightblue" d="M876.923,-181.865C900.159,-190.386 935.226,-203.033 966,-213.263 972.817,-215.529 979.979,-217.84 987.107,-220.096"/>
<polygon fill="midnightblue" stroke="midnightblue" points="986.181,-223.473 996.77,-223.129 988.278,-216.795 986.181,-223.473"/>
</g>
<!-- Node23&#45;&gt;Node3 -->
<g id="edge25" class="edge"><title>Node23&#45;&gt;Node3</title>
<path fill="none" stroke="midnightblue" d="M1118.18,-109.691C1130.99,-111.251 1144.53,-112.901 1157.81,-114.519"/>
<polygon fill="midnightblue" stroke="midnightblue" points="1157.56,-118.014 1167.91,-115.749 1158.4,-111.065 1157.56,-118.014"/>
</g>
<!-- Node24&#45;&gt;Node3 -->
<g id="edge27" class="edge"><title>Node24&#45;&gt;Node3</title>
<path fill="none" stroke="midnightblue" d="M1102.86,-67.3062C1111.98,-70.1124 1121.3,-73.1478 1130,-76.2629 1159.72,-86.9038 1192.81,-101.127 1216.02,-111.508"/>
<polygon fill="midnightblue" stroke="midnightblue" points="1214.77,-114.783 1225.32,-115.7 1217.64,-108.401 1214.77,-114.783"/>
</g>
<!-- Node25&#45;&gt;Node3 -->
<g id="edge29" class="edge"><title>Node25&#45;&gt;Node3</title>
<path fill="none" stroke="midnightblue" d="M1093.08,-184.715C1105.16,-181.738 1118.18,-178.192 1130,-174.263 1160.13,-164.248 1193.42,-149.823 1216.57,-139.217"/>
<polygon fill="midnightblue" stroke="midnightblue" points="1218.23,-142.305 1225.84,-134.929 1215.29,-135.953 1218.23,-142.305"/>
</g>
<!-- Node26&#45;&gt;Node3 -->
<g id="edge31" class="edge"><title>Node26&#45;&gt;Node3</title>
<path fill="none" stroke="midnightblue" d="M1119.01,-141.378C1132.54,-139.662 1146.85,-137.846 1160.8,-136.076"/>
<polygon fill="midnightblue" stroke="midnightblue" points="1161.39,-139.528 1170.87,-134.797 1160.51,-132.584 1161.39,-139.528"/>
</g>
<!-- Node27&#45;&gt;Node3 -->
<g id="edge33" class="edge"><title>Node27&#45;&gt;Node3</title>
<path fill="none" stroke="midnightblue" d="M1106.64,-223.219C1114.67,-220.339 1122.67,-217.026 1130,-213.263 1168.29,-193.612 1206.95,-161.178 1228.56,-141.655"/>
<polygon fill="midnightblue" stroke="midnightblue" points="1230.97,-144.197 1235.97,-134.858 1226.24,-139.038 1230.97,-144.197"/>
</g>
<!-- Node28 -->
<g id="node28" class="node"><title>Node28</title>
<g id="a_node28"><a xlink:href="../../df/df8/class_cell_society_view.html#ad52b914fa03b45d8bc9d64fc407660f3" target="_top" xlink:title="CellSocietyView.updateView">
<polygon fill="white" stroke="black" points="1172.5,-310.763 1172.5,-329.763 1321.5,-329.763 1321.5,-310.763 1172.5,-310.763"/>
<text text-anchor="middle" x="1247" y="-317.763" font-family="Helvetica,sans-Serif" font-size="10.00">CellSocietyView.updateView</text>
</a>
</g>
</g>
<!-- Node27&#45;&gt;Node28 -->
<g id="edge34" class="edge"><title>Node27&#45;&gt;Node28</title>
<path fill="none" stroke="midnightblue" d="M1085.13,-253.303C1121.89,-268.602 1178.32,-292.093 1213.65,-306.798"/>
<polygon fill="midnightblue" stroke="midnightblue" points="1212.44,-310.087 1223.02,-310.699 1215.13,-303.624 1212.44,-310.087"/>
</g>
<!-- Node29 -->
<g id="node29" class="node"><title>Node29</title>
<g id="a_node29"><a xlink:href="../../d2/d40/class_cellular_automata.html#a8f4c8a2f32137db67dd31f5afb4b62c3" target="_top" xlink:title="CellularAutomata.updateNextGen">
<polygon fill="white" stroke="black" points="1364.5,-310.763 1364.5,-329.763 1543.5,-329.763 1543.5,-310.763 1364.5,-310.763"/>
<text text-anchor="middle" x="1454" y="-317.763" font-family="Helvetica,sans-Serif" font-size="10.00">CellularAutomata.updateNextGen</text>
</a>
</g>
</g>
<!-- Node28&#45;&gt;Node29 -->
<g id="edge35" class="edge"><title>Node28&#45;&gt;Node29</title>
<path fill="none" stroke="midnightblue" d="M1321.72,-320.263C1332.27,-320.263 1343.25,-320.263 1354.19,-320.263"/>
<polygon fill="midnightblue" stroke="midnightblue" points="1354.2,-323.763 1364.2,-320.263 1354.2,-316.763 1354.2,-323.763"/>
</g>
<!-- Node28&#45;&gt;Node32 -->
<g id="edge40" class="edge"><title>Node28&#45;&gt;Node32</title>
<path fill="none" stroke="midnightblue" d="M1263.55,-329.77C1280.29,-340.353 1307.3,-358.456 1328,-377.263 1373.1,-418.24 1417.97,-474.742 1439.63,-503.255"/>
<polygon fill="midnightblue" stroke="midnightblue" points="1437,-505.588 1445.81,-511.474 1442.59,-501.379 1437,-505.588"/>
</g>
<!-- Node30 -->
<g id="node30" class="node"><title>Node30</title>
<g id="a_node30"><a xlink:href="../../d2/d40/class_cellular_automata.html#ab6b9e3ca964f405470ec0acc064d9b3a" target="_top" xlink:title="CellularAutomata.checkRules">
<polygon fill="white" stroke="black" points="1587.5,-310.763 1587.5,-329.763 1742.5,-329.763 1742.5,-310.763 1587.5,-310.763"/>
<text text-anchor="middle" x="1665" y="-317.763" font-family="Helvetica,sans-Serif" font-size="10.00">CellularAutomata.checkRules</text>
</a>
</g>
</g>
<!-- Node29&#45;&gt;Node30 -->
<g id="edge36" class="edge"><title>Node29&#45;&gt;Node30</title>
<path fill="none" stroke="midnightblue" d="M1543.63,-320.263C1554.79,-320.263 1566.2,-320.263 1577.33,-320.263"/>
<polygon fill="midnightblue" stroke="midnightblue" points="1577.45,-323.763 1587.45,-320.263 1577.45,-316.763 1577.45,-323.763"/>
</g>
<!-- Node31 -->
<g id="node31" class="node"><title>Node31</title>
<g id="a_node31"><a xlink:href="../../d2/d40/class_cellular_automata.html#ab39b5164764f20382801aa9a4663eb4b" target="_top" xlink:title="CellularAutomata.handleUpdate">
<polygon fill="white" stroke="black" points="1580,-348.763 1580,-367.763 1750,-367.763 1750,-348.763 1580,-348.763"/>
<text text-anchor="middle" x="1665" y="-355.763" font-family="Helvetica,sans-Serif" font-size="10.00">CellularAutomata.handleUpdate</text>
</a>
</g>
</g>
<!-- Node29&#45;&gt;Node31 -->
<g id="edge38" class="edge"><title>Node29&#45;&gt;Node31</title>
<path fill="none" stroke="midnightblue" d="M1507.47,-329.803C1536.04,-334.998 1571.58,-341.459 1601.57,-346.912"/>
<polygon fill="midnightblue" stroke="midnightblue" points="1601.04,-350.374 1611.51,-348.719 1602.3,-343.487 1601.04,-350.374"/>
</g>
<!-- Node30&#45;&gt;Node12 -->
<g id="edge37" class="edge"><title>Node30&#45;&gt;Node12</title>
<path fill="none" stroke="midnightblue" d="M1742.74,-320.263C1753.59,-320.263 1764.75,-320.263 1775.63,-320.263"/>
<polygon fill="midnightblue" stroke="midnightblue" points="1775.95,-323.763 1785.95,-320.263 1775.95,-316.763 1775.95,-323.763"/>
</g>
<!-- Node31&#45;&gt;Node12 -->
<g id="edge39" class="edge"><title>Node31&#45;&gt;Node12</title>
<path fill="none" stroke="midnightblue" d="M1713.44,-348.674C1738.81,-343.546 1770.23,-337.196 1796.92,-331.8"/>
<polygon fill="midnightblue" stroke="midnightblue" points="1797.79,-335.195 1806.9,-329.783 1796.41,-328.334 1797.79,-335.195"/>
</g>
<!-- Node33 -->
<g id="node33" class="node"><title>Node33</title>
<g id="a_node33"><a xlink:href="../../da/d74/class_grid.html#a2f2ccb1511e367a7d6e9bcb3f708cd38" target="_top" xlink:title="Grid.getCellAt">
<polygon fill="white" stroke="black" points="1623.5,-492.763 1623.5,-511.763 1706.5,-511.763 1706.5,-492.763 1623.5,-492.763"/>
<text text-anchor="middle" x="1665" y="-499.763" font-family="Helvetica,sans-Serif" font-size="10.00">Grid.getCellAt</text>
</a>
</g>
</g>
<!-- Node32&#45;&gt;Node33 -->
<g id="edge41" class="edge"><title>Node32&#45;&gt;Node33</title>
<path fill="none" stroke="midnightblue" d="M1528.1,-514.618C1556.14,-512.069 1587.5,-509.218 1613.02,-506.897"/>
<polygon fill="midnightblue" stroke="midnightblue" points="1613.58,-510.361 1623.22,-505.97 1612.94,-503.39 1613.58,-510.361"/>
</g>
<!-- Node34 -->
<g id="node34" class="node"><title>Node34</title>
<g id="a_node34"><a xlink:href="../../dd/d11/class_cell.html#aac3ac473652b817fe344534f4bec7e6f" target="_top" xlink:title="Cell.getState">
<polygon fill="white" stroke="black" points="1625.5,-530.763 1625.5,-549.763 1704.5,-549.763 1704.5,-530.763 1625.5,-530.763"/>
<text text-anchor="middle" x="1665" y="-537.763" font-family="Helvetica,sans-Serif" font-size="10.00">Cell.getState</text>
</a>
</g>
</g>
<!-- Node32&#45;&gt;Node34 -->
<g id="edge42" class="edge"><title>Node32&#45;&gt;Node34</title>
<path fill="none" stroke="midnightblue" d="M1528.1,-527.908C1556.86,-530.523 1589.12,-533.456 1614.99,-535.807"/>
<polygon fill="midnightblue" stroke="midnightblue" points="1615.02,-539.324 1625.29,-536.744 1615.65,-532.353 1615.02,-539.324"/>
</g>
<!-- Node35&#45;&gt;Node28 -->
<g id="edge46" class="edge"><title>Node35&#45;&gt;Node28</title>
<path fill="none" stroke="midnightblue" d="M930.459,-327.452C997.638,-325.922 1093.6,-323.735 1162.03,-322.176"/>
<polygon fill="midnightblue" stroke="midnightblue" points="1162.42,-325.668 1172.34,-321.941 1162.26,-318.67 1162.42,-325.668"/>
</g>
</g>
</svg>
