<?xml version="1.0" encoding="UTF-8" standalone="no"?>
<!DOCTYPE svg PUBLIC "-//W3C//DTD SVG 1.1//EN"
 "http://www.w3.org/Graphics/SVG/1.1/DTD/svg11.dtd">
<!-- Generated by graphviz version 2.36.0 (20140111.2315)
 -->
<!-- Title: CellSocietyView.makePauseButton Pages: 1 -->
<svg width="1294pt" height="53pt"
 viewBox="0.00 0.00 1294.00 53.00" xmlns="http://www.w3.org/2000/svg" xmlns:xlink="http://www.w3.org/1999/xlink">
<g id="graph0" class="graph" transform="scale(1 1) rotate(0) translate(4 49)">
<title>CellSocietyView.makePauseButton</title>
<polygon fill="white" stroke="none" points="-4,4 -4,-49 1290,-49 1290,4 -4,4"/>
<!-- Node1 -->
<g id="node1" class="node"><title>Node1</title>
<polygon fill="#bfbfbf" stroke="black" points="0.5,-1 0.5,-31 149.5,-31 149.5,-1 0.5,-1"/>
<text text-anchor="start" x="8.5" y="-19" font-family="Helvetica,sans-Serif" font-size="10.00">CellSocietyView.makePause</text>
<text text-anchor="middle" x="75" y="-8" font-family="Helvetica,sans-Serif" font-size="10.00">Button</text>
</g>
<!-- Node2 -->
<g id="node2" class="node"><title>Node2</title>
<g id="a_node2"><a xlink:href="../../df/df8/class_cell_society_view.html#a7bdbd4e8fd3893e672eb22015603f6dc" target="_top" xlink:title="CellSocietyView.makeButtons">
<polygon fill="white" stroke="black" points="186,-6.5 186,-25.5 344,-25.5 344,-6.5 186,-6.5"/>
<text text-anchor="middle" x="265" y="-13.5" font-family="Helvetica,sans-Serif" font-size="10.00">CellSocietyView.makeButtons</text>
</a>
</g>
</g>
<!-- Node1&#45;&gt;Node2 -->
<g id="edge1" class="edge"><title>Node1&#45;&gt;Node2</title>
<path fill="none" stroke="midnightblue" d="M159.833,-16C168.472,-16 177.227,-16 185.801,-16"/>
<polygon fill="midnightblue" stroke="midnightblue" points="159.763,-12.5001 149.763,-16 159.763,-19.5001 159.763,-12.5001"/>
</g>
<!-- Node3 -->
<g id="node3" class="node"><title>Node3</title>
<g id="a_node3"><a xlink:href="../../df/df8/class_cell_society_view.html#a767ab215ca329ba41b1493702141f841" target="_top" xlink:title="CellSocietyView.makeCAGame">
<polygon fill="white" stroke="black" points="380.5,-25.5 380.5,-44.5 543.5,-44.5 543.5,-25.5 380.5,-25.5"/>
<text text-anchor="middle" x="462" y="-32.5" font-family="Helvetica,sans-Serif" font-size="10.00">CellSocietyView.makeCAGame</text>
</a>
</g>
</g>
<!-- Node2&#45;&gt;Node3 -->
<g id="edge2" class="edge"><title>Node2&#45;&gt;Node3</title>
<path fill="none" stroke="midnightblue" d="M354.281,-24.6018C362.929,-25.4444 371.675,-26.2966 380.243,-27.1314"/>
<polygon fill="midnightblue" stroke="midnightblue" points="354.483,-21.1049 344.19,-23.6185 353.804,-28.0719 354.483,-21.1049"/>
</g>
<!-- Node4 -->
<g id="node4" class="node"><title>Node4</title>
<g id="a_node4"><a xlink:href="../../df/df8/class_cell_society_view.html#a2ee793e471cc5731ce39c1450f058dd5" target="_top" xlink:title="CellSocietyView.parseFile">
<polygon fill="white" stroke="black" points="580.5,-25.5 580.5,-44.5 715.5,-44.5 715.5,-25.5 580.5,-25.5"/>
<text text-anchor="middle" x="648" y="-32.5" font-family="Helvetica,sans-Serif" font-size="10.00">CellSocietyView.parseFile</text>
</a>
</g>
</g>
<!-- Node3&#45;&gt;Node4 -->
<g id="edge3" class="edge"><title>Node3&#45;&gt;Node4</title>
<path fill="none" stroke="midnightblue" d="M553.807,-35C562.777,-35 571.762,-35 580.42,-35"/>
<polygon fill="midnightblue" stroke="midnightblue" points="553.705,-31.5001 543.705,-35 553.705,-38.5001 553.705,-31.5001"/>
</g>
<!-- Node5 -->
<g id="node5" class="node"><title>Node5</title>
<g id="a_node5"><a xlink:href="../../df/df8/class_cell_society_view.html#a2c047a3972078bb0a5490ed225ef2dfa" target="_top" xlink:title="CellSocietyView.loadNewFile">
<polygon fill="white" stroke="black" points="752.5,-25.5 752.5,-44.5 901.5,-44.5 901.5,-25.5 752.5,-25.5"/>
<text text-anchor="middle" x="827" y="-32.5" font-family="Helvetica,sans-Serif" font-size="10.00">CellSocietyView.loadNewFile</text>
</a>
</g>
</g>
<!-- Node4&#45;&gt;Node5 -->
<g id="edge4" class="edge"><title>Node4&#45;&gt;Node5</title>
<path fill="none" stroke="midnightblue" d="M725.865,-35C734.633,-35 743.557,-35 752.283,-35"/>
<polygon fill="midnightblue" stroke="midnightblue" points="725.664,-31.5001 715.664,-35 725.664,-38.5001 725.664,-31.5001"/>
</g>
<!-- Node6 -->
<g id="node6" class="node"><title>Node6</title>
<g id="a_node6"><a xlink:href="../../df/df8/class_cell_society_view.html#a656cfed0ba32bc41bbd0c4087860db4b" target="_top" xlink:title="CellSocietyView.makeLoad\lButton">
<polygon fill="white" stroke="black" points="938.5,-1 938.5,-31 1081.5,-31 1081.5,-1 938.5,-1"/>
<text text-anchor="start" x="946.5" y="-19" font-family="Helvetica,sans-Serif" font-size="10.00">CellSocietyView.makeLoad</text>
<text text-anchor="middle" x="1010" y="-8" font-family="Helvetica,sans-Serif" font-size="10.00">Button</text>
</a>
</g>
</g>
<!-- Node5&#45;&gt;Node6 -->
<g id="edge5" class="edge"><title>Node5&#45;&gt;Node6</title>
<path fill="none" stroke="midnightblue" d="M911.651,-26.219C920.585,-25.2811 929.61,-24.3338 938.373,-23.4139"/>
<polygon fill="midnightblue" stroke="midnightblue" points="911.2,-22.747 901.62,-27.272 911.93,-29.7088 911.2,-22.747"/>
</g>
<!-- Node6&#45;&gt;Node2 -->
<g id="edge7" class="edge"><title>Node6&#45;&gt;Node2</title>
<path fill="none" stroke="midnightblue" d="M928.414,-16C784.71,-16 486.011,-16 344.11,-16"/>
<polygon fill="midnightblue" stroke="midnightblue" points="928.488,-19.5001 938.488,-16 928.488,-12.5001 928.488,-19.5001"/>
</g>
<!-- Node7 -->
<g id="node7" class="node"><title>Node7</title>
<g id="a_node7"><a xlink:href="../../df/df8/class_cell_society_view.html#a53ab66afdeb23b3fc89e54a44be7ced5" target="_top" xlink:title="CellSocietyView.CellSocietyView">
<polygon fill="white" stroke="black" points="1118.5,-6.5 1118.5,-25.5 1285.5,-25.5 1285.5,-6.5 1118.5,-6.5"/>
<text text-anchor="middle" x="1202" y="-13.5" font-family="Helvetica,sans-Serif" font-size="10.00">CellSocietyView.CellSocietyView</text>
</a>
</g>
</g>
<!-- Node6&#45;&gt;Node7 -->
<g id="edge6" class="edge"><title>Node6&#45;&gt;Node7</title>
<path fill="none" stroke="midnightblue" d="M1091.92,-16C1100.66,-16 1109.57,-16 1118.33,-16"/>
<polygon fill="midnightblue" stroke="midnightblue" points="1091.75,-12.5001 1081.75,-16 1091.75,-19.5001 1091.75,-12.5001"/>
</g>
</g>
</svg>
