<?xml version="1.0" encoding="UTF-8" standalone="no"?>
<!DOCTYPE svg PUBLIC "-//W3C//DTD SVG 1.1//EN"
 "http://www.w3.org/Graphics/SVG/1.1/DTD/svg11.dtd">
<!-- Generated by graphviz version 2.36.0 (20140111.2315)
 -->
<!-- Title: CellSocietyView.makeButtons Pages: 1 -->
<svg width="1900pt" height="443pt"
 viewBox="0.00 0.00 1900.00 443.00" xmlns="http://www.w3.org/2000/svg" xmlns:xlink="http://www.w3.org/1999/xlink">
<g id="graph0" class="graph" transform="scale(1 1) rotate(0) translate(4 439)">
<title>CellSocietyView.makeButtons</title>
<polygon fill="white" stroke="none" points="-4,4 -4,-439 1896,-439 1896,4 -4,4"/>
<!-- Node1 -->
<g id="node1" class="node"><title>Node1</title>
<polygon fill="#bfbfbf" stroke="black" points="0,-130.5 0,-149.5 158,-149.5 158,-130.5 0,-130.5"/>
<text text-anchor="middle" x="79" y="-137.5" font-family="Helvetica,sans-Serif" font-size="10.00">CellSocietyView.makeButtons</text>
</g>
<!-- Node2 -->
<g id="node2" class="node"><title>Node2</title>
<g id="a_node2"><a xlink:href="../../df/df8/class_cell_society_view.html#a656cfed0ba32bc41bbd0c4087860db4b" target="_top" xlink:title="CellSocietyView.makeLoad\lButton">
<polygon fill="white" stroke="black" points="194.5,-147 194.5,-177 337.5,-177 337.5,-147 194.5,-147"/>
<text text-anchor="start" x="202.5" y="-165" font-family="Helvetica,sans-Serif" font-size="10.00">CellSocietyView.makeLoad</text>
<text text-anchor="middle" x="266" y="-154" font-family="Helvetica,sans-Serif" font-size="10.00">Button</text>
</a>
</g>
</g>
<!-- Node1&#45;&gt;Node2 -->
<g id="edge1" class="edge"><title>Node1&#45;&gt;Node2</title>
<path fill="none" stroke="midnightblue" d="M158.189,-149.298C166.836,-150.326 175.654,-151.375 184.331,-152.407"/>
<polygon fill="midnightblue" stroke="midnightblue" points="184.09,-155.903 194.434,-153.608 184.917,-148.952 184.09,-155.903"/>
</g>
<!-- Node3 -->
<g id="node3" class="node"><title>Node3</title>
<g id="a_node3"><a xlink:href="../../df/df8/class_cell_society_view.html#ae09ddc20f81e90312e628d712a5c6afc" target="_top" xlink:title="CellSocietyView.makeUIButton">
<polygon fill="white" stroke="black" points="374,-193.5 374,-212.5 536,-212.5 536,-193.5 374,-193.5"/>
<text text-anchor="middle" x="455" y="-200.5" font-family="Helvetica,sans-Serif" font-size="10.00">CellSocietyView.makeUIButton</text>
</a>
</g>
</g>
<!-- Node1&#45;&gt;Node3 -->
<g id="edge32" class="edge"><title>Node1&#45;&gt;Node3</title>
<path fill="none" stroke="midnightblue" d="M98.3663,-149.546C120.418,-160.498 158.836,-177.974 194,-186 249.493,-198.666 313.249,-202.988 363.738,-204.108"/>
<polygon fill="midnightblue" stroke="midnightblue" points="363.915,-207.612 373.977,-204.296 364.043,-200.613 363.915,-207.612"/>
</g>
<!-- Node25 -->
<g id="node25" class="node"><title>Node25</title>
<g id="a_node25"><a xlink:href="../../df/df8/class_cell_society_view.html#ad52b914fa03b45d8bc9d64fc407660f3" target="_top" xlink:title="CellSocietyView.updateView">
<polygon fill="white" stroke="black" points="1143.5,-66.5 1143.5,-85.5 1292.5,-85.5 1292.5,-66.5 1143.5,-66.5"/>
<text text-anchor="middle" x="1218" y="-73.5" font-family="Helvetica,sans-Serif" font-size="10.00">CellSocietyView.updateView</text>
</a>
</g>
</g>
<!-- Node1&#45;&gt;Node25 -->
<g id="edge33" class="edge"><title>Node1&#45;&gt;Node25</title>
<path fill="none" stroke="midnightblue" d="M102.716,-130.328C160.324,-106.708 317.259,-48 454,-48 454,-48 454,-48 827,-48 932.732,-48 1054.17,-58.3651 1133.07,-66.4825"/>
<polygon fill="midnightblue" stroke="midnightblue" points="1133.13,-70.0071 1143.43,-67.5611 1133.85,-63.0447 1133.13,-70.0071"/>
</g>
<!-- Node2&#45;&gt;Node3 -->
<g id="edge2" class="edge"><title>Node2&#45;&gt;Node3</title>
<path fill="none" stroke="midnightblue" d="M335.57,-177.034C356.971,-181.726 380.253,-186.831 400.465,-191.262"/>
<polygon fill="midnightblue" stroke="midnightblue" points="399.905,-194.723 410.422,-193.446 401.404,-187.885 399.905,-194.723"/>
</g>
<!-- Node4 -->
<g id="node4" class="node"><title>Node4</title>
<g id="a_node4"><a xlink:href="../../df/df8/class_cell_society_view.html#a2c047a3972078bb0a5490ed225ef2dfa" target="_top" xlink:title="CellSocietyView.loadNewFile">
<polygon fill="white" stroke="black" points="380.5,-152.5 380.5,-171.5 529.5,-171.5 529.5,-152.5 380.5,-152.5"/>
<text text-anchor="middle" x="455" y="-159.5" font-family="Helvetica,sans-Serif" font-size="10.00">CellSocietyView.loadNewFile</text>
</a>
</g>
</g>
<!-- Node2&#45;&gt;Node4 -->
<g id="edge3" class="edge"><title>Node2&#45;&gt;Node4</title>
<path fill="none" stroke="midnightblue" d="M337.697,-162C348.278,-162 359.274,-162 370.097,-162"/>
<polygon fill="midnightblue" stroke="midnightblue" points="370.401,-165.5 380.401,-162 370.401,-158.5 370.401,-165.5"/>
</g>
<!-- Node5 -->
<g id="node5" class="node"><title>Node5</title>
<g id="a_node5"><a xlink:href="../../df/df8/class_cell_society_view.html#a2ee793e471cc5731ce39c1450f058dd5" target="_top" xlink:title="CellSocietyView.parseFile">
<polygon fill="white" stroke="black" points="572.5,-152.5 572.5,-171.5 707.5,-171.5 707.5,-152.5 572.5,-152.5"/>
<text text-anchor="middle" x="640" y="-159.5" font-family="Helvetica,sans-Serif" font-size="10.00">CellSocietyView.parseFile</text>
</a>
</g>
</g>
<!-- Node4&#45;&gt;Node5 -->
<g id="edge4" class="edge"><title>Node4&#45;&gt;Node5</title>
<path fill="none" stroke="midnightblue" d="M529.642,-162C540.33,-162 551.355,-162 562.105,-162"/>
<polygon fill="midnightblue" stroke="midnightblue" points="562.307,-165.5 572.307,-162 562.307,-158.5 562.307,-165.5"/>
</g>
<!-- Node6 -->
<g id="node6" class="node"><title>Node6</title>
<g id="a_node6"><a xlink:href="../../df/df8/class_cell_society_view.html#a767ab215ca329ba41b1493702141f841" target="_top" xlink:title="CellSocietyView.makeCAGame">
<polygon fill="white" stroke="black" points="744.5,-152.5 744.5,-171.5 907.5,-171.5 907.5,-152.5 744.5,-152.5"/>
<text text-anchor="middle" x="826" y="-159.5" font-family="Helvetica,sans-Serif" font-size="10.00">CellSocietyView.makeCAGame</text>
</a>
</g>
</g>
<!-- Node5&#45;&gt;Node6 -->
<g id="edge5" class="edge"><title>Node5&#45;&gt;Node6</title>
<path fill="none" stroke="midnightblue" d="M707.688,-162C716.356,-162 725.35,-162 734.326,-162"/>
<polygon fill="midnightblue" stroke="midnightblue" points="734.435,-165.5 744.435,-162 734.435,-158.5 734.435,-165.5"/>
</g>
<!-- Node6&#45;&gt;Node1 -->
<g id="edge20" class="edge"><title>Node6&#45;&gt;Node1</title>
<path fill="none" stroke="midnightblue" d="M776.243,-152.464C755.32,-148.793 730.548,-145.003 708,-143 516.014,-125.945 289.713,-131.014 168.039,-135.785"/>
<polygon fill="midnightblue" stroke="midnightblue" points="167.881,-132.288 158.029,-136.186 168.161,-139.282 167.881,-132.288"/>
</g>
<!-- Node7 -->
<g id="node7" class="node"><title>Node7</title>
<g id="a_node7"><a xlink:href="../../da/d74/class_grid.html#acbc0b625c8f9d2f76db2f2a0d5288cd9" target="_top" xlink:title="Grid.init">
<polygon fill="white" stroke="black" points="997.5,-237.5 997.5,-256.5 1050.5,-256.5 1050.5,-237.5 997.5,-237.5"/>
<text text-anchor="middle" x="1024" y="-244.5" font-family="Helvetica,sans-Serif" font-size="10.00">Grid.init</text>
</a>
</g>
</g>
<!-- Node6&#45;&gt;Node7 -->
<g id="edge6" class="edge"><title>Node6&#45;&gt;Node7</title>
<path fill="none" stroke="midnightblue" d="M843.631,-171.656C865.946,-184.347 907.054,-206.806 944,-222 958.025,-227.768 973.895,-233.024 987.712,-237.213"/>
<polygon fill="midnightblue" stroke="midnightblue" points="986.772,-240.585 997.355,-240.066 988.759,-233.873 986.772,-240.585"/>
</g>
<!-- Node9 -->
<g id="node9" class="node"><title>Node9</title>
<g id="a_node9"><a xlink:href="../../d2/d40/class_cellular_automata.html#a347bfd2a64ee2d615902f6922e95fa6f" target="_top" xlink:title="CellularAutomata.init">
<polygon fill="white" stroke="black" points="965.5,-193.5 965.5,-212.5 1082.5,-212.5 1082.5,-193.5 965.5,-193.5"/>
<text text-anchor="middle" x="1024" y="-200.5" font-family="Helvetica,sans-Serif" font-size="10.00">CellularAutomata.init</text>
</a>
</g>
</g>
<!-- Node6&#45;&gt;Node9 -->
<g id="edge8" class="edge"><title>Node6&#45;&gt;Node9</title>
<path fill="none" stroke="midnightblue" d="M872.459,-171.509C900.806,-177.439 937.479,-185.11 967.532,-191.397"/>
<polygon fill="midnightblue" stroke="midnightblue" points="966.944,-194.85 977.448,-193.471 968.377,-187.998 966.944,-194.85"/>
</g>
<!-- Node11 -->
<g id="node11" class="node"><title>Node11</title>
<g id="a_node11"><a xlink:href="../../d2/d40/class_cellular_automata.html#a34ceed434c942d34ff03169b92684726" target="_top" xlink:title="CellularAutomata.getGrid">
<polygon fill="white" stroke="black" points="1754,-38.5 1754,-57.5 1892,-57.5 1892,-38.5 1754,-38.5"/>
<text text-anchor="middle" x="1823" y="-45.5" font-family="Helvetica,sans-Serif" font-size="10.00">CellularAutomata.getGrid</text>
</a>
</g>
</g>
<!-- Node6&#45;&gt;Node11 -->
<g id="edge10" class="edge"><title>Node6&#45;&gt;Node11</title>
<path fill="none" stroke="midnightblue" d="M907.669,-162C986.535,-162 1110.02,-162 1217,-162 1217,-162 1217,-162 1423,-162 1554.38,-162 1597.1,-194.436 1718,-143 1757.33,-126.265 1791.44,-88.0928 1809.12,-65.5602"/>
<polygon fill="midnightblue" stroke="midnightblue" points="1811.98,-67.5746 1815.26,-57.5005 1806.42,-63.3301 1811.98,-67.5746"/>
</g>
<!-- Node12 -->
<g id="node12" class="node"><title>Node12</title>
<g id="a_node12"><a xlink:href="../../dd/d97/class_grid_drawer.html#ab8aa1cc79c89cfbc7b9d8516a5dee463" target="_top" xlink:title="GridDrawer.makeGrid">
<polygon fill="white" stroke="black" points="964.5,-333.5 964.5,-352.5 1083.5,-352.5 1083.5,-333.5 964.5,-333.5"/>
<text text-anchor="middle" x="1024" y="-340.5" font-family="Helvetica,sans-Serif" font-size="10.00">GridDrawer.makeGrid</text>
</a>
</g>
</g>
<!-- Node6&#45;&gt;Node12 -->
<g id="edge11" class="edge"><title>Node6&#45;&gt;Node12</title>
<path fill="none" stroke="midnightblue" d="M837.538,-171.731C869.376,-201.133 964.847,-289.298 1004.95,-326.331"/>
<polygon fill="midnightblue" stroke="midnightblue" points="1002.69,-329.007 1012.41,-333.221 1007.44,-323.865 1002.69,-329.007"/>
</g>
<!-- Node21 -->
<g id="node21" class="node"><title>Node21</title>
<g id="a_node21"><a xlink:href="../../dd/d97/class_grid_drawer.html#a8853ef53b515fd60ca524f05a3dbf897" target="_top" xlink:title="GridDrawer.updateNextGen">
<polygon fill="white" stroke="black" points="1348,-85.5 1348,-104.5 1496,-104.5 1496,-85.5 1348,-85.5"/>
<text text-anchor="middle" x="1422" y="-92.5" font-family="Helvetica,sans-Serif" font-size="10.00">GridDrawer.updateNextGen</text>
</a>
</g>
</g>
<!-- Node6&#45;&gt;Node21 -->
<g id="edge21" class="edge"><title>Node6&#45;&gt;Node21</title>
<path fill="none" stroke="midnightblue" d="M905.658,-152.496C918.471,-150.974 931.603,-149.43 944,-148 1081.96,-132.081 1242.48,-114.424 1337.7,-104.041"/>
<polygon fill="midnightblue" stroke="midnightblue" points="1338.28,-107.498 1347.84,-102.935 1337.52,-100.539 1338.28,-107.498"/>
</g>
<!-- Node24 -->
<g id="node24" class="node"><title>Node24</title>
<g id="a_node24"><a xlink:href="../../df/df8/class_cell_society_view.html#adf6a6b0542d00677a9fffbb8e3c03ffe" target="_top" xlink:title="CellSocietyView.makeTimeline">
<polygon fill="white" stroke="black" points="944,-76.5 944,-95.5 1104,-95.5 1104,-76.5 944,-76.5"/>
<text text-anchor="middle" x="1024" y="-83.5" font-family="Helvetica,sans-Serif" font-size="10.00">CellSocietyView.makeTimeline</text>
</a>
</g>
</g>
<!-- Node6&#45;&gt;Node24 -->
<g id="edge24" class="edge"><title>Node6&#45;&gt;Node24</title>
<path fill="none" stroke="midnightblue" d="M846.565,-152.412C869.554,-141.357 909.005,-123.036 944,-110 955.013,-105.898 967.074,-101.962 978.383,-98.5058"/>
<polygon fill="midnightblue" stroke="midnightblue" points="979.507,-101.823 988.082,-95.6004 977.498,-95.1172 979.507,-101.823"/>
</g>
<!-- Node8 -->
<g id="node8" class="node"><title>Node8</title>
<g id="a_node8"><a xlink:href="../../da/d74/class_grid.html#af432eea602599251a5e456fd24e38661" target="_top" xlink:title="Grid.makeGrid">
<polygon fill="white" stroke="black" points="1175,-240.5 1175,-259.5 1261,-259.5 1261,-240.5 1175,-240.5"/>
<text text-anchor="middle" x="1218" y="-247.5" font-family="Helvetica,sans-Serif" font-size="10.00">Grid.makeGrid</text>
</a>
</g>
</g>
<!-- Node7&#45;&gt;Node8 -->
<g id="edge7" class="edge"><title>Node7&#45;&gt;Node8</title>
<path fill="none" stroke="midnightblue" d="M1050.89,-247.405C1079.9,-247.858 1127.68,-248.604 1164.56,-249.181"/>
<polygon fill="midnightblue" stroke="midnightblue" points="1164.6,-252.682 1174.65,-249.338 1164.71,-245.682 1164.6,-252.682"/>
</g>
<!-- Node10 -->
<g id="node10" class="node"><title>Node10</title>
<g id="a_node10"><a xlink:href="../../d2/d40/class_cellular_automata.html#ac4d0b9bd9416cb4b3567caacc05cd55a" target="_top" xlink:title="CellularAutomata.setUpInitial\lConfig">
<polygon fill="white" stroke="black" points="1140,-191 1140,-221 1296,-221 1296,-191 1140,-191"/>
<text text-anchor="start" x="1148" y="-209" font-family="Helvetica,sans-Serif" font-size="10.00">CellularAutomata.setUpInitial</text>
<text text-anchor="middle" x="1218" y="-198" font-family="Helvetica,sans-Serif" font-size="10.00">Config</text>
</a>
</g>
</g>
<!-- Node9&#45;&gt;Node10 -->
<g id="edge9" class="edge"><title>Node9&#45;&gt;Node10</title>
<path fill="none" stroke="midnightblue" d="M1082.61,-203.9C1097.38,-204.131 1113.6,-204.384 1129.5,-204.633"/>
<polygon fill="midnightblue" stroke="midnightblue" points="1129.84,-208.138 1139.89,-204.795 1129.95,-201.139 1129.84,-208.138"/>
</g>
<!-- Node13 -->
<g id="node13" class="node"><title>Node13</title>
<g id="a_node13"><a xlink:href="../../dd/d97/class_grid_drawer.html#af9a09b2ee81450f13a117261b67718e0" target="_top" xlink:title="GridDrawer.makeUnitGrid">
<polygon fill="white" stroke="black" points="1149,-377.5 1149,-396.5 1287,-396.5 1287,-377.5 1149,-377.5"/>
<text text-anchor="middle" x="1218" y="-384.5" font-family="Helvetica,sans-Serif" font-size="10.00">GridDrawer.makeUnitGrid</text>
</a>
</g>
</g>
<!-- Node12&#45;&gt;Node13 -->
<g id="edge12" class="edge"><title>Node12&#45;&gt;Node13</title>
<path fill="none" stroke="midnightblue" d="M1066.66,-352.547C1095.72,-359.207 1134.69,-368.136 1165.67,-375.236"/>
<polygon fill="midnightblue" stroke="midnightblue" points="1164.89,-378.649 1175.42,-377.471 1166.45,-371.826 1164.89,-378.649"/>
</g>
<!-- Node18 -->
<g id="node18" class="node"><title>Node18</title>
<g id="a_node18"><a xlink:href="../../dd/d97/class_grid_drawer.html#a54f548bdc35a2afef9af05a134c149f5" target="_top" xlink:title="GridDrawer.calculateCell\lWidth">
<polygon fill="white" stroke="black" points="1152,-328 1152,-358 1284,-358 1284,-328 1152,-328"/>
<text text-anchor="start" x="1160" y="-346" font-family="Helvetica,sans-Serif" font-size="10.00">GridDrawer.calculateCell</text>
<text text-anchor="middle" x="1218" y="-335" font-family="Helvetica,sans-Serif" font-size="10.00">Width</text>
</a>
</g>
</g>
<!-- Node12&#45;&gt;Node18 -->
<g id="edge17" class="edge"><title>Node12&#45;&gt;Node18</title>
<path fill="none" stroke="midnightblue" d="M1083.65,-343C1101.88,-343 1122.24,-343 1141.45,-343"/>
<polygon fill="midnightblue" stroke="midnightblue" points="1141.68,-346.5 1151.68,-343 1141.68,-339.5 1141.68,-346.5"/>
</g>
<!-- Node19 -->
<g id="node19" class="node"><title>Node19</title>
<g id="a_node19"><a xlink:href="../../dd/d97/class_grid_drawer.html#a3f6bb5e9307bf84f9f8f4ae467ec85cf" target="_top" xlink:title="GridDrawer.calculateCell\lHeight">
<polygon fill="white" stroke="black" points="1152,-279 1152,-309 1284,-309 1284,-279 1152,-279"/>
<text text-anchor="start" x="1160" y="-297" font-family="Helvetica,sans-Serif" font-size="10.00">GridDrawer.calculateCell</text>
<text text-anchor="middle" x="1218" y="-286" font-family="Helvetica,sans-Serif" font-size="10.00">Height</text>
</a>
</g>
</g>
<!-- Node12&#45;&gt;Node19 -->
<g id="edge18" class="edge"><title>Node12&#45;&gt;Node19</title>
<path fill="none" stroke="midnightblue" d="M1062.48,-333.436C1086.78,-327.232 1119.19,-318.963 1148.04,-311.599"/>
<polygon fill="midnightblue" stroke="midnightblue" points="1149.26,-314.901 1158.08,-309.037 1147.52,-308.119 1149.26,-314.901"/>
</g>
<!-- Node20 -->
<g id="node20" class="node"><title>Node20</title>
<g id="a_node20"><a xlink:href="../../dd/d97/class_grid_drawer.html#a8fba9cca18cee03651775b5785722778" target="_top" xlink:title="GridDrawer.scale">
<polygon fill="white" stroke="black" points="1169.5,-415.5 1169.5,-434.5 1266.5,-434.5 1266.5,-415.5 1169.5,-415.5"/>
<text text-anchor="middle" x="1218" y="-422.5" font-family="Helvetica,sans-Serif" font-size="10.00">GridDrawer.scale</text>
</a>
</g>
</g>
<!-- Node12&#45;&gt;Node20 -->
<g id="edge19" class="edge"><title>Node12&#45;&gt;Node20</title>
<path fill="none" stroke="midnightblue" d="M1039.65,-352.655C1060.94,-366.299 1102.03,-391.206 1140,-406 1146.38,-408.485 1153.18,-410.722 1160.01,-412.713"/>
<polygon fill="midnightblue" stroke="midnightblue" points="1159.41,-416.177 1169.98,-415.454 1161.26,-409.428 1159.41,-416.177"/>
</g>
<!-- Node14 -->
<g id="node14" class="node"><title>Node14</title>
<g id="a_node14"><a xlink:href="../../dd/d97/class_grid_drawer.html#a69ef437bdcbcdb3dca6b206b73a1ab1f" target="_top" xlink:title="GridDrawer.drawUnitCell">
<polygon fill="white" stroke="black" points="1356.5,-377.5 1356.5,-396.5 1487.5,-396.5 1487.5,-377.5 1356.5,-377.5"/>
<text text-anchor="middle" x="1422" y="-384.5" font-family="Helvetica,sans-Serif" font-size="10.00">GridDrawer.drawUnitCell</text>
</a>
</g>
</g>
<!-- Node13&#45;&gt;Node14 -->
<g id="edge13" class="edge"><title>Node13&#45;&gt;Node14</title>
<path fill="none" stroke="midnightblue" d="M1287.11,-387C1306.04,-387 1326.7,-387 1346,-387"/>
<polygon fill="midnightblue" stroke="midnightblue" points="1346.26,-390.5 1356.26,-387 1346.26,-383.5 1346.26,-390.5"/>
</g>
<!-- Node15 -->
<g id="node15" class="node"><title>Node15</title>
<g id="a_node15"><a xlink:href="../../dd/d97/class_grid_drawer.html#a53b8613b7621224084096d76e2316452" target="_top" xlink:title="GridDrawer.drawTriangle">
<polygon fill="white" stroke="black" points="1567.5,-339.5 1567.5,-358.5 1698.5,-358.5 1698.5,-339.5 1567.5,-339.5"/>
<text text-anchor="middle" x="1633" y="-346.5" font-family="Helvetica,sans-Serif" font-size="10.00">GridDrawer.drawTriangle</text>
</a>
</g>
</g>
<!-- Node14&#45;&gt;Node15 -->
<g id="edge14" class="edge"><title>Node14&#45;&gt;Node15</title>
<path fill="none" stroke="midnightblue" d="M1475.47,-377.46C1504.04,-372.265 1539.58,-365.804 1569.57,-360.351"/>
<polygon fill="midnightblue" stroke="midnightblue" points="1570.3,-363.776 1579.51,-358.544 1569.04,-356.889 1570.3,-363.776"/>
</g>
<!-- Node16 -->
<g id="node16" class="node"><title>Node16</title>
<g id="a_node16"><a xlink:href="../../dd/d97/class_grid_drawer.html#a08b9d58cde5fafa07e226d4ed2ebc655" target="_top" xlink:title="GridDrawer.drawSquare">
<polygon fill="white" stroke="black" points="1568.5,-415.5 1568.5,-434.5 1697.5,-434.5 1697.5,-415.5 1568.5,-415.5"/>
<text text-anchor="middle" x="1633" y="-422.5" font-family="Helvetica,sans-Serif" font-size="10.00">GridDrawer.drawSquare</text>
</a>
</g>
</g>
<!-- Node14&#45;&gt;Node16 -->
<g id="edge15" class="edge"><title>Node14&#45;&gt;Node16</title>
<path fill="none" stroke="midnightblue" d="M1475.47,-396.54C1504.04,-401.735 1539.58,-408.196 1569.57,-413.649"/>
<polygon fill="midnightblue" stroke="midnightblue" points="1569.04,-417.111 1579.51,-415.456 1570.3,-410.224 1569.04,-417.111"/>
</g>
<!-- Node17 -->
<g id="node17" class="node"><title>Node17</title>
<g id="a_node17"><a xlink:href="../../dd/d97/class_grid_drawer.html#a260f7ce1d53af7f88e1c4ee3a4a3de2b" target="_top" xlink:title="GridDrawer.drawHexagon">
<polygon fill="white" stroke="black" points="1564.5,-377.5 1564.5,-396.5 1701.5,-396.5 1701.5,-377.5 1564.5,-377.5"/>
<text text-anchor="middle" x="1633" y="-384.5" font-family="Helvetica,sans-Serif" font-size="10.00">GridDrawer.drawHexagon</text>
</a>
</g>
</g>
<!-- Node14&#45;&gt;Node17 -->
<g id="edge16" class="edge"><title>Node14&#45;&gt;Node17</title>
<path fill="none" stroke="midnightblue" d="M1487.7,-387C1508.71,-387 1532.24,-387 1554.11,-387"/>
<polygon fill="midnightblue" stroke="midnightblue" points="1554.36,-390.5 1564.36,-387 1554.36,-383.5 1554.36,-390.5"/>
</g>
<!-- Node22 -->
<g id="node22" class="node"><title>Node22</title>
<g id="a_node22"><a xlink:href="../../da/d74/class_grid.html#a2f2ccb1511e367a7d6e9bcb3f708cd38" target="_top" xlink:title="Grid.getCellAt">
<polygon fill="white" stroke="black" points="1591.5,-76.5 1591.5,-95.5 1674.5,-95.5 1674.5,-76.5 1591.5,-76.5"/>
<text text-anchor="middle" x="1633" y="-83.5" font-family="Helvetica,sans-Serif" font-size="10.00">Grid.getCellAt</text>
</a>
</g>
</g>
<!-- Node21&#45;&gt;Node22 -->
<g id="edge22" class="edge"><title>Node21&#45;&gt;Node22</title>
<path fill="none" stroke="midnightblue" d="M1496.1,-91.8522C1524.14,-90.6449 1555.5,-89.2944 1581.02,-88.1951"/>
<polygon fill="midnightblue" stroke="midnightblue" points="1581.38,-91.6832 1591.22,-87.7562 1581.08,-84.6897 1581.38,-91.6832"/>
</g>
<!-- Node23 -->
<g id="node23" class="node"><title>Node23</title>
<g id="a_node23"><a xlink:href="../../dd/d11/class_cell.html#aac3ac473652b817fe344534f4bec7e6f" target="_top" xlink:title="Cell.getState">
<polygon fill="white" stroke="black" points="1593.5,-114.5 1593.5,-133.5 1672.5,-133.5 1672.5,-114.5 1593.5,-114.5"/>
<text text-anchor="middle" x="1633" y="-121.5" font-family="Helvetica,sans-Serif" font-size="10.00">Cell.getState</text>
</a>
</g>
</g>
<!-- Node21&#45;&gt;Node23 -->
<g id="edge23" class="edge"><title>Node21&#45;&gt;Node23</title>
<path fill="none" stroke="midnightblue" d="M1491.72,-104.536C1521.69,-108.693 1556.11,-113.47 1583.36,-117.25"/>
<polygon fill="midnightblue" stroke="midnightblue" points="1583.04,-120.74 1593.42,-118.647 1584,-113.806 1583.04,-120.74"/>
</g>
<!-- Node24&#45;&gt;Node25 -->
<g id="edge25" class="edge"><title>Node24&#45;&gt;Node25</title>
<path fill="none" stroke="midnightblue" d="M1104.2,-81.8749C1113.68,-81.381 1123.39,-80.8754 1132.94,-80.3781"/>
<polygon fill="midnightblue" stroke="midnightblue" points="1133.42,-83.8582 1143.22,-79.8427 1133.05,-76.8676 1133.42,-83.8582"/>
</g>
<!-- Node25&#45;&gt;Node21 -->
<g id="edge31" class="edge"><title>Node25&#45;&gt;Node21</title>
<path fill="none" stroke="midnightblue" d="M1292.78,-82.9401C1307.34,-84.3096 1322.72,-85.7558 1337.57,-87.1528"/>
<polygon fill="midnightblue" stroke="midnightblue" points="1337.47,-90.6586 1347.75,-88.1105 1338.13,-83.6893 1337.47,-90.6586"/>
</g>
<!-- Node26 -->
<g id="node26" class="node"><title>Node26</title>
<g id="a_node26"><a xlink:href="../../d2/d40/class_cellular_automata.html#a8f4c8a2f32137db67dd31f5afb4b62c3" target="_top" xlink:title="CellularAutomata.updateNextGen">
<polygon fill="white" stroke="black" points="1332.5,-38.5 1332.5,-57.5 1511.5,-57.5 1511.5,-38.5 1332.5,-38.5"/>
<text text-anchor="middle" x="1422" y="-45.5" font-family="Helvetica,sans-Serif" font-size="10.00">CellularAutomata.updateNextGen</text>
</a>
</g>
</g>
<!-- Node25&#45;&gt;Node26 -->
<g id="edge26" class="edge"><title>Node25&#45;&gt;Node26</title>
<path fill="none" stroke="midnightblue" d="M1287.67,-66.4814C1305.15,-64.0581 1324.08,-61.4345 1342.03,-58.9463"/>
<polygon fill="midnightblue" stroke="midnightblue" points="1342.75,-62.3798 1352.18,-57.5398 1341.79,-55.4461 1342.75,-62.3798"/>
</g>
<!-- Node27 -->
<g id="node27" class="node"><title>Node27</title>
<g id="a_node27"><a xlink:href="../../d2/d40/class_cellular_automata.html#ab6b9e3ca964f405470ec0acc064d9b3a" target="_top" xlink:title="CellularAutomata.checkRules">
<polygon fill="white" stroke="black" points="1555.5,-0.5 1555.5,-19.5 1710.5,-19.5 1710.5,-0.5 1555.5,-0.5"/>
<text text-anchor="middle" x="1633" y="-7.5" font-family="Helvetica,sans-Serif" font-size="10.00">CellularAutomata.checkRules</text>
</a>
</g>
</g>
<!-- Node26&#45;&gt;Node27 -->
<g id="edge27" class="edge"><title>Node26&#45;&gt;Node27</title>
<path fill="none" stroke="midnightblue" d="M1475.47,-38.46C1504.04,-33.2652 1539.58,-26.8037 1569.57,-21.3511"/>
<polygon fill="midnightblue" stroke="midnightblue" points="1570.3,-24.7764 1579.51,-19.5439 1569.04,-17.8893 1570.3,-24.7764"/>
</g>
<!-- Node28 -->
<g id="node28" class="node"><title>Node28</title>
<g id="a_node28"><a xlink:href="../../d2/d40/class_cellular_automata.html#ab39b5164764f20382801aa9a4663eb4b" target="_top" xlink:title="CellularAutomata.handleUpdate">
<polygon fill="white" stroke="black" points="1548,-38.5 1548,-57.5 1718,-57.5 1718,-38.5 1548,-38.5"/>
<text text-anchor="middle" x="1633" y="-45.5" font-family="Helvetica,sans-Serif" font-size="10.00">CellularAutomata.handleUpdate</text>
</a>
</g>
</g>
<!-- Node26&#45;&gt;Node28 -->
<g id="edge29" class="edge"><title>Node26&#45;&gt;Node28</title>
<path fill="none" stroke="midnightblue" d="M1511.63,-48C1520.27,-48 1529.06,-48 1537.74,-48"/>
<polygon fill="midnightblue" stroke="midnightblue" points="1537.89,-51.5001 1547.89,-48 1537.89,-44.5001 1537.89,-51.5001"/>
</g>
<!-- Node27&#45;&gt;Node11 -->
<g id="edge28" class="edge"><title>Node27&#45;&gt;Node11</title>
<path fill="none" stroke="midnightblue" d="M1681.44,-19.589C1706.81,-24.7165 1738.23,-31.0672 1764.92,-36.4632"/>
<polygon fill="midnightblue" stroke="midnightblue" points="1764.41,-39.9293 1774.9,-38.4799 1765.79,-33.068 1764.41,-39.9293"/>
</g>
<!-- Node28&#45;&gt;Node11 -->
<g id="edge30" class="edge"><title>Node28&#45;&gt;Node11</title>
<path fill="none" stroke="midnightblue" d="M1718.1,-48C1726.58,-48 1735.17,-48 1743.59,-48"/>
<polygon fill="midnightblue" stroke="midnightblue" points="1743.75,-51.5001 1753.75,-48 1743.75,-44.5001 1743.75,-51.5001"/>
</g>
</g>
</svg>
