<?xml version="1.0" encoding="UTF-8" standalone="no"?>
<!DOCTYPE svg PUBLIC "-//W3C//DTD SVG 1.1//EN"
 "http://www.w3.org/Graphics/SVG/1.1/DTD/svg11.dtd">
<!-- Generated by graphviz version 2.36.0 (20140111.2315)
 -->
<!-- Title: CellSocietyView.makeCAGame Pages: 1 -->
<svg width="742pt" height="74pt"
 viewBox="0.00 0.00 742.00 74.00" xmlns="http://www.w3.org/2000/svg" xmlns:xlink="http://www.w3.org/1999/xlink">
<g id="graph0" class="graph" transform="scale(1 1) rotate(0) translate(4 70)">
<title>CellSocietyView.makeCAGame</title>
<polygon fill="white" stroke="none" points="-4,4 -4,-70 738,-70 738,4 -4,4"/>
<!-- Node1 -->
<g id="node1" class="node"><title>Node1</title>
<polygon fill="#bfbfbf" stroke="black" points="0.5,-17.5 0.5,-36.5 163.5,-36.5 163.5,-17.5 0.5,-17.5"/>
<text text-anchor="middle" x="82" y="-24.5" font-family="Helvetica,sans-Serif" font-size="10.00">CellSocietyView.makeCAGame</text>
</g>
<!-- Node2 -->
<g id="node2" class="node"><title>Node2</title>
<g id="a_node2"><a xlink:href="../../df/df8/class_cell_society_view.html#a2c047a3972078bb0a5490ed225ef2dfa" target="_top" xlink:title="CellSocietyView.loadNewFile">
<polygon fill="white" stroke="black" points="200.5,-38.5 200.5,-57.5 349.5,-57.5 349.5,-38.5 200.5,-38.5"/>
<text text-anchor="middle" x="275" y="-45.5" font-family="Helvetica,sans-Serif" font-size="10.00">CellSocietyView.loadNewFile</text>
</a>
</g>
</g>
<!-- Node1&#45;&gt;Node2 -->
<g id="edge1" class="edge"><title>Node1&#45;&gt;Node2</title>
<path fill="none" stroke="midnightblue" d="M173.72,-36.9744C182.608,-37.9516 191.551,-38.935 200.241,-39.8904"/>
<polygon fill="midnightblue" stroke="midnightblue" points="174.047,-33.4894 163.724,-35.8755 173.282,-40.4475 174.047,-33.4894"/>
</g>
<!-- Node3 -->
<g id="node3" class="node"><title>Node3</title>
<g id="a_node3"><a xlink:href="../../df/df8/class_cell_society_view.html#a656cfed0ba32bc41bbd0c4087860db4b" target="_top" xlink:title="CellSocietyView.makeLoad\lButton">
<polygon fill="white" stroke="black" points="386.5,-36 386.5,-66 529.5,-66 529.5,-36 386.5,-36"/>
<text text-anchor="start" x="394.5" y="-54" font-family="Helvetica,sans-Serif" font-size="10.00">CellSocietyView.makeLoad</text>
<text text-anchor="middle" x="458" y="-43" font-family="Helvetica,sans-Serif" font-size="10.00">Button</text>
</a>
</g>
</g>
<!-- Node2&#45;&gt;Node3 -->
<g id="edge2" class="edge"><title>Node2&#45;&gt;Node3</title>
<path fill="none" stroke="midnightblue" d="M359.651,-49.3865C368.585,-49.5346 377.61,-49.6841 386.373,-49.8294"/>
<polygon fill="midnightblue" stroke="midnightblue" points="359.676,-45.8865 349.62,-49.2202 359.56,-52.8856 359.676,-45.8865"/>
</g>
<!-- Node4 -->
<g id="node4" class="node"><title>Node4</title>
<g id="a_node4"><a xlink:href="../../df/df8/class_cell_society_view.html#a53ab66afdeb23b3fc89e54a44be7ced5" target="_top" xlink:title="CellSocietyView.CellSocietyView">
<polygon fill="white" stroke="black" points="566.5,-41.5 566.5,-60.5 733.5,-60.5 733.5,-41.5 566.5,-41.5"/>
<text text-anchor="middle" x="650" y="-48.5" font-family="Helvetica,sans-Serif" font-size="10.00">CellSocietyView.CellSocietyView</text>
</a>
</g>
</g>
<!-- Node3&#45;&gt;Node4 -->
<g id="edge3" class="edge"><title>Node3&#45;&gt;Node4</title>
<path fill="none" stroke="midnightblue" d="M539.92,-51C548.663,-51 557.569,-51 566.332,-51"/>
<polygon fill="midnightblue" stroke="midnightblue" points="539.749,-47.5001 529.749,-51 539.749,-54.5001 539.749,-47.5001"/>
</g>
<!-- Node5 -->
<g id="node5" class="node"><title>Node5</title>
<g id="a_node5"><a xlink:href="../../df/df8/class_cell_society_view.html#a7bdbd4e8fd3893e672eb22015603f6dc" target="_top" xlink:title="CellSocietyView.makeButtons">
<polygon fill="white" stroke="black" points="571,-0.5 571,-19.5 729,-19.5 729,-0.5 571,-0.5"/>
<text text-anchor="middle" x="650" y="-7.5" font-family="Helvetica,sans-Serif" font-size="10.00">CellSocietyView.makeButtons</text>
</a>
</g>
</g>
<!-- Node3&#45;&gt;Node5 -->
<g id="edge4" class="edge"><title>Node3&#45;&gt;Node5</title>
<path fill="none" stroke="midnightblue" d="M538.613,-33.8204C561.224,-28.941 585.031,-23.8039 604.723,-19.5545"/>
<polygon fill="midnightblue" stroke="midnightblue" points="537.707,-30.4353 528.67,-35.9659 539.183,-37.2778 537.707,-30.4353"/>
</g>
<!-- Node5&#45;&gt;Node1 -->
<g id="edge5" class="edge"><title>Node5&#45;&gt;Node1</title>
<path fill="none" stroke="midnightblue" d="M560.41,-12.6608C451.676,-15.9267 268.835,-21.4184 163.793,-24.5733"/>
<polygon fill="midnightblue" stroke="midnightblue" points="560.806,-16.1506 570.697,-12.3519 560.596,-9.15376 560.806,-16.1506"/>
</g>
</g>
</svg>
