<?xml version="1.0" encoding="UTF-8" standalone="no"?>
<!DOCTYPE svg PUBLIC "-//W3C//DTD SVG 1.1//EN"
 "http://www.w3.org/Graphics/SVG/1.1/DTD/svg11.dtd">
<!-- Generated by graphviz version 2.36.0 (20140111.2315)
 -->
<!-- Title: CellSocietyView.makeUIButton Pages: 1 -->
<svg width="1306pt" height="94pt"
 viewBox="0.00 0.00 1306.00 94.00" xmlns="http://www.w3.org/2000/svg" xmlns:xlink="http://www.w3.org/1999/xlink">
<g id="graph0" class="graph" transform="scale(1 1) rotate(0) translate(4 90)">
<title>CellSocietyView.makeUIButton</title>
<polygon fill="white" stroke="none" points="-4,4 -4,-90 1302,-90 1302,4 -4,4"/>
<!-- Node1 -->
<g id="node1" class="node"><title>Node1</title>
<polygon fill="#bfbfbf" stroke="black" points="0,-9.5 0,-28.5 162,-28.5 162,-9.5 0,-9.5"/>
<text text-anchor="middle" x="81" y="-16.5" font-family="Helvetica,sans-Serif" font-size="10.00">CellSocietyView.makeUIButton</text>
</g>
<!-- Node2 -->
<g id="node2" class="node"><title>Node2</title>
<g id="a_node2"><a xlink:href="../../df/df8/class_cell_society_view.html#a7bdbd4e8fd3893e672eb22015603f6dc" target="_top" xlink:title="CellSocietyView.makeButtons">
<polygon fill="white" stroke="black" points="198,-28.5 198,-47.5 356,-47.5 356,-28.5 198,-28.5"/>
<text text-anchor="middle" x="277" y="-35.5" font-family="Helvetica,sans-Serif" font-size="10.00">CellSocietyView.makeButtons</text>
</a>
</g>
</g>
<!-- Node1&#45;&gt;Node2 -->
<g id="edge1" class="edge"><title>Node1&#45;&gt;Node2</title>
<path fill="none" stroke="midnightblue" d="M172.045,-27.8188C180.62,-28.6587 189.268,-29.5057 197.72,-30.3334"/>
<polygon fill="midnightblue" stroke="midnightblue" points="172.321,-24.3292 162.027,-26.8377 171.638,-31.2959 172.321,-24.3292"/>
</g>
<!-- Node6 -->
<g id="node6" class="node"><title>Node6</title>
<g id="a_node6"><a xlink:href="../../df/df8/class_cell_society_view.html#a656cfed0ba32bc41bbd0c4087860db4b" target="_top" xlink:title="CellSocietyView.makeLoad\lButton">
<polygon fill="white" stroke="black" points="950.5,-23 950.5,-53 1093.5,-53 1093.5,-23 950.5,-23"/>
<text text-anchor="start" x="958.5" y="-41" font-family="Helvetica,sans-Serif" font-size="10.00">CellSocietyView.makeLoad</text>
<text text-anchor="middle" x="1022" y="-30" font-family="Helvetica,sans-Serif" font-size="10.00">Button</text>
</a>
</g>
</g>
<!-- Node1&#45;&gt;Node6 -->
<g id="edge8" class="edge"><title>Node1&#45;&gt;Node6</title>
<path fill="none" stroke="midnightblue" d="M172.499,-12.1072C251.708,-6.6709 369.909,-6.80012e-15 473,-0 473,-0 473,-0 661,-0 761.87,-0 877.764,-14.9367 950.194,-26.0808"/>
<polygon fill="midnightblue" stroke="midnightblue" points="171.804,-8.64691 162.071,-12.8312 172.289,-15.6301 171.804,-8.64691"/>
</g>
<!-- Node3 -->
<g id="node3" class="node"><title>Node3</title>
<g id="a_node3"><a xlink:href="../../df/df8/class_cell_society_view.html#a767ab215ca329ba41b1493702141f841" target="_top" xlink:title="CellSocietyView.makeCAGame">
<polygon fill="white" stroke="black" points="392.5,-66.5 392.5,-85.5 555.5,-85.5 555.5,-66.5 392.5,-66.5"/>
<text text-anchor="middle" x="474" y="-73.5" font-family="Helvetica,sans-Serif" font-size="10.00">CellSocietyView.makeCAGame</text>
</a>
</g>
</g>
<!-- Node2&#45;&gt;Node3 -->
<g id="edge2" class="edge"><title>Node2&#45;&gt;Node3</title>
<path fill="none" stroke="midnightblue" d="M336.959,-49.4894C364.782,-54.9114 397.596,-61.3058 424.025,-66.4561"/>
<polygon fill="midnightblue" stroke="midnightblue" points="337.44,-46.0174 326.955,-47.54 336.101,-52.8882 337.44,-46.0174"/>
</g>
<!-- Node4 -->
<g id="node4" class="node"><title>Node4</title>
<g id="a_node4"><a xlink:href="../../df/df8/class_cell_society_view.html#a2ee793e471cc5731ce39c1450f058dd5" target="_top" xlink:title="CellSocietyView.parseFile">
<polygon fill="white" stroke="black" points="592.5,-66.5 592.5,-85.5 727.5,-85.5 727.5,-66.5 592.5,-66.5"/>
<text text-anchor="middle" x="660" y="-73.5" font-family="Helvetica,sans-Serif" font-size="10.00">CellSocietyView.parseFile</text>
</a>
</g>
</g>
<!-- Node3&#45;&gt;Node4 -->
<g id="edge3" class="edge"><title>Node3&#45;&gt;Node4</title>
<path fill="none" stroke="midnightblue" d="M565.807,-76C574.777,-76 583.762,-76 592.42,-76"/>
<polygon fill="midnightblue" stroke="midnightblue" points="565.705,-72.5001 555.705,-76 565.705,-79.5001 565.705,-72.5001"/>
</g>
<!-- Node5 -->
<g id="node5" class="node"><title>Node5</title>
<g id="a_node5"><a xlink:href="../../df/df8/class_cell_society_view.html#a2c047a3972078bb0a5490ed225ef2dfa" target="_top" xlink:title="CellSocietyView.loadNewFile">
<polygon fill="white" stroke="black" points="764.5,-66.5 764.5,-85.5 913.5,-85.5 913.5,-66.5 764.5,-66.5"/>
<text text-anchor="middle" x="839" y="-73.5" font-family="Helvetica,sans-Serif" font-size="10.00">CellSocietyView.loadNewFile</text>
</a>
</g>
</g>
<!-- Node4&#45;&gt;Node5 -->
<g id="edge4" class="edge"><title>Node4&#45;&gt;Node5</title>
<path fill="none" stroke="midnightblue" d="M737.865,-76C746.633,-76 755.557,-76 764.283,-76"/>
<polygon fill="midnightblue" stroke="midnightblue" points="737.664,-72.5001 727.664,-76 737.664,-79.5001 737.664,-72.5001"/>
</g>
<!-- Node5&#45;&gt;Node6 -->
<g id="edge5" class="edge"><title>Node5&#45;&gt;Node6</title>
<path fill="none" stroke="midnightblue" d="M895.592,-64.3288C912.87,-60.7014 932.153,-56.653 950.316,-52.8397"/>
<polygon fill="midnightblue" stroke="midnightblue" points="894.741,-60.9309 885.674,-66.411 896.18,-67.7816 894.741,-60.9309"/>
</g>
<!-- Node6&#45;&gt;Node2 -->
<g id="edge7" class="edge"><title>Node6&#45;&gt;Node2</title>
<path fill="none" stroke="midnightblue" d="M940.414,-38C796.71,-38 498.011,-38 356.11,-38"/>
<polygon fill="midnightblue" stroke="midnightblue" points="940.488,-41.5001 950.488,-38 940.488,-34.5001 940.488,-41.5001"/>
</g>
<!-- Node7 -->
<g id="node7" class="node"><title>Node7</title>
<g id="a_node7"><a xlink:href="../../df/df8/class_cell_society_view.html#a53ab66afdeb23b3fc89e54a44be7ced5" target="_top" xlink:title="CellSocietyView.CellSocietyView">
<polygon fill="white" stroke="black" points="1130.5,-28.5 1130.5,-47.5 1297.5,-47.5 1297.5,-28.5 1130.5,-28.5"/>
<text text-anchor="middle" x="1214" y="-35.5" font-family="Helvetica,sans-Serif" font-size="10.00">CellSocietyView.CellSocietyView</text>
</a>
</g>
</g>
<!-- Node6&#45;&gt;Node7 -->
<g id="edge6" class="edge"><title>Node6&#45;&gt;Node7</title>
<path fill="none" stroke="midnightblue" d="M1103.92,-38C1112.66,-38 1121.57,-38 1130.33,-38"/>
<polygon fill="midnightblue" stroke="midnightblue" points="1103.75,-34.5001 1093.75,-38 1103.75,-41.5001 1103.75,-34.5001"/>
</g>
</g>
</svg>
