<?xml version="1.0" encoding="UTF-8" standalone="no"?>
<!DOCTYPE svg PUBLIC "-//W3C//DTD SVG 1.1//EN"
 "http://www.w3.org/Graphics/SVG/1.1/DTD/svg11.dtd">
<!-- Generated by graphviz version 2.36.0 (20140111.2315)
 -->
<!-- Title: CellSocietyView.makeCAGame Pages: 1 -->
<svg width="1362pt" height="724pt"
 viewBox="0.00 0.00 1362.00 724.23" xmlns="http://www.w3.org/2000/svg" xmlns:xlink="http://www.w3.org/1999/xlink">
<g id="graph0" class="graph" transform="scale(1 1) rotate(0) translate(4 720.227)">
<title>CellSocietyView.makeCAGame</title>
<polygon fill="white" stroke="none" points="-4,4 -4,-720.227 1358,-720.227 1358,4 -4,4"/>
<!-- Node1 -->
<g id="node1" class="node"><title>Node1</title>
<polygon fill="#bfbfbf" stroke="black" points="0.5,-452.5 0.5,-471.5 163.5,-471.5 163.5,-452.5 0.5,-452.5"/>
<text text-anchor="middle" x="82" y="-459.5" font-family="Helvetica,sans-Serif" font-size="10.00">CellSocietyView.makeCAGame</text>
</g>
<!-- Node2 -->
<g id="node2" class="node"><title>Node2</title>
<g id="a_node2"><a xlink:href="../../d2/d40/class_cellular_automata.html#a34ceed434c942d34ff03169b92684726" target="_top" xlink:title="CellularAutomata.getGrid">
<polygon fill="white" stroke="black" points="1216,-582.5 1216,-601.5 1354,-601.5 1354,-582.5 1216,-582.5"/>
<text text-anchor="middle" x="1285" y="-589.5" font-family="Helvetica,sans-Serif" font-size="10.00">CellularAutomata.getGrid</text>
</a>
</g>
</g>
<!-- Node1&#45;&gt;Node2 -->
<g id="edge1" class="edge"><title>Node1&#45;&gt;Node2</title>
<path fill="none" stroke="midnightblue" d="M87.8912,-471.646C101.762,-498.056 144.001,-572.211 200,-612 305.978,-687.302 346.993,-706 477,-706 477,-706 477,-706 885,-706 1016.38,-706 1059.1,-738.436 1180,-687 1219.33,-670.265 1253.44,-632.093 1271.12,-609.56"/>
<polygon fill="midnightblue" stroke="midnightblue" points="1273.98,-611.575 1277.26,-601.5 1268.42,-607.33 1273.98,-611.575"/>
</g>
<!-- Node3 -->
<g id="node3" class="node"><title>Node3</title>
<g id="a_node3"><a xlink:href="../../df/df8/class_cell_society_view.html#a7bdbd4e8fd3893e672eb22015603f6dc" target="_top" xlink:title="CellSocietyView.makeButtons">
<polygon fill="white" stroke="black" points="201,-452.5 201,-471.5 359,-471.5 359,-452.5 201,-452.5"/>
<text text-anchor="middle" x="280" y="-459.5" font-family="Helvetica,sans-Serif" font-size="10.00">CellSocietyView.makeButtons</text>
</a>
</g>
</g>
<!-- Node1&#45;&gt;Node3 -->
<g id="edge2" class="edge"><title>Node1&#45;&gt;Node3</title>
<path fill="none" stroke="midnightblue" d="M163.569,-462C172.545,-462 181.722,-462 190.786,-462"/>
<polygon fill="midnightblue" stroke="midnightblue" points="190.955,-465.5 200.955,-462 190.955,-458.5 190.955,-465.5"/>
</g>
<!-- Node18 -->
<g id="node18" class="node"><title>Node18</title>
<g id="a_node18"><a xlink:href="../../dd/d97/class_grid_drawer.html#a8853ef53b515fd60ca524f05a3dbf897" target="_top" xlink:title="GridDrawer.updateNextGen">
<polygon fill="white" stroke="black" points="810,-639.5 810,-658.5 958,-658.5 958,-639.5 810,-639.5"/>
<text text-anchor="middle" x="884" y="-646.5" font-family="Helvetica,sans-Serif" font-size="10.00">GridDrawer.updateNextGen</text>
</a>
</g>
</g>
<!-- Node1&#45;&gt;Node18 -->
<g id="edge45" class="edge"><title>Node1&#45;&gt;Node18</title>
<path fill="none" stroke="midnightblue" d="M90.6782,-471.628C107.923,-492.597 151.993,-542.621 200,-569 393.753,-675.462 664.569,-669.765 799.586,-658.464"/>
<polygon fill="midnightblue" stroke="midnightblue" points="800.198,-661.924 809.858,-657.571 799.592,-654.951 800.198,-661.924"/>
</g>
<!-- Node21 -->
<g id="node21" class="node"><title>Node21</title>
<g id="a_node21"><a xlink:href="../../d7/db3/class_x_m_l_reader.html#a0c634622bb0c8f4ee65f2d91218e8917" target="_top" xlink:title="XMLReader.makeCA">
<polygon fill="white" stroke="black" points="224,-231.5 224,-250.5 336,-250.5 336,-231.5 224,-231.5"/>
<text text-anchor="middle" x="280" y="-238.5" font-family="Helvetica,sans-Serif" font-size="10.00">XMLReader.makeCA</text>
</a>
</g>
</g>
<!-- Node1&#45;&gt;Node21 -->
<g id="edge28" class="edge"><title>Node1&#45;&gt;Node21</title>
<path fill="none" stroke="midnightblue" d="M87.2521,-452.331C100.332,-423.498 142.582,-336.838 200,-284 213.102,-271.943 230.205,-262.096 245.146,-254.882"/>
<polygon fill="midnightblue" stroke="midnightblue" points="246.974,-257.893 254.588,-250.525 244.041,-251.537 246.974,-257.893"/>
</g>
<!-- Node25 -->
<g id="node25" class="node"><title>Node25</title>
<g id="a_node25"><a xlink:href="../../dd/d97/class_grid_drawer.html#ab8aa1cc79c89cfbc7b9d8516a5dee463" target="_top" xlink:title="GridDrawer.makeGrid">
<polygon fill="white" stroke="black" points="220.5,-98.5 220.5,-117.5 339.5,-117.5 339.5,-98.5 220.5,-98.5"/>
<text text-anchor="middle" x="280" y="-105.5" font-family="Helvetica,sans-Serif" font-size="10.00">GridDrawer.makeGrid</text>
</a>
</g>
</g>
<!-- Node1&#45;&gt;Node25 -->
<g id="edge34" class="edge"><title>Node1&#45;&gt;Node25</title>
<path fill="none" stroke="midnightblue" d="M87.1663,-452.121C101.343,-418.827 149.635,-307.999 200,-222 220.749,-186.571 248.904,-147.765 265.395,-125.796"/>
<polygon fill="midnightblue" stroke="midnightblue" points="268.257,-127.815 271.497,-117.728 262.674,-123.592 268.257,-127.815"/>
</g>
<!-- Node34 -->
<g id="node34" class="node"><title>Node34</title>
<g id="a_node34"><a xlink:href="../../df/df8/class_cell_society_view.html#adf6a6b0542d00677a9fffbb8e3c03ffe" target="_top" xlink:title="CellSocietyView.makeTimeline">
<polygon fill="white" stroke="black" points="200,-540.5 200,-559.5 360,-559.5 360,-540.5 200,-540.5"/>
<text text-anchor="middle" x="280" y="-547.5" font-family="Helvetica,sans-Serif" font-size="10.00">CellSocietyView.makeTimeline</text>
</a>
</g>
</g>
<!-- Node1&#45;&gt;Node34 -->
<g id="edge43" class="edge"><title>Node1&#45;&gt;Node34</title>
<path fill="none" stroke="midnightblue" d="M104.349,-471.585C139.179,-487.223 208.354,-518.281 248.401,-536.262"/>
<polygon fill="midnightblue" stroke="midnightblue" points="247.121,-539.524 257.678,-540.427 249.989,-533.138 247.121,-539.524"/>
</g>
<!-- Node4 -->
<g id="node4" class="node"><title>Node4</title>
<g id="a_node4"><a xlink:href="../../df/df8/class_cell_society_view.html#ae4f695e25edd84b67be004d3b1a7a437" target="_top" xlink:title="CellSocietyView.makeFFButton">
<polygon fill="white" stroke="black" points="396.5,-474.5 396.5,-493.5 559.5,-493.5 559.5,-474.5 396.5,-474.5"/>
<text text-anchor="middle" x="478" y="-481.5" font-family="Helvetica,sans-Serif" font-size="10.00">CellSocietyView.makeFFButton</text>
</a>
</g>
</g>
<!-- Node3&#45;&gt;Node4 -->
<g id="edge3" class="edge"><title>Node3&#45;&gt;Node4</title>
<path fill="none" stroke="midnightblue" d="M359.028,-470.758C367.947,-471.759 377.098,-472.786 386.166,-473.804"/>
<polygon fill="midnightblue" stroke="midnightblue" points="386.024,-477.31 396.352,-474.948 386.805,-470.354 386.024,-477.31"/>
</g>
<!-- Node6 -->
<g id="node6" class="node"><title>Node6</title>
<g id="a_node6"><a xlink:href="../../df/df8/class_cell_society_view.html#a656cfed0ba32bc41bbd0c4087860db4b" target="_top" xlink:title="CellSocietyView.makeLoad\lButton">
<polygon fill="white" stroke="black" points="406.5,-327 406.5,-357 549.5,-357 549.5,-327 406.5,-327"/>
<text text-anchor="start" x="414.5" y="-345" font-family="Helvetica,sans-Serif" font-size="10.00">CellSocietyView.makeLoad</text>
<text text-anchor="middle" x="478" y="-334" font-family="Helvetica,sans-Serif" font-size="10.00">Button</text>
</a>
</g>
</g>
<!-- Node3&#45;&gt;Node6 -->
<g id="edge5" class="edge"><title>Node3&#45;&gt;Node6</title>
<path fill="none" stroke="midnightblue" d="M289.907,-452.474C308.097,-433.55 351.561,-390.984 396,-367 400.152,-364.759 404.535,-362.687 409.026,-360.777"/>
<polygon fill="midnightblue" stroke="midnightblue" points="410.347,-364.019 418.355,-357.082 407.769,-357.511 410.347,-364.019"/>
</g>
<!-- Node10 -->
<g id="node10" class="node"><title>Node10</title>
<g id="a_node10"><a xlink:href="../../df/df8/class_cell_society_view.html#ae177299e365c8c48502004eb87a03cf1" target="_top" xlink:title="CellSocietyView.makePause\lButton">
<polygon fill="white" stroke="black" points="403.5,-425 403.5,-455 552.5,-455 552.5,-425 403.5,-425"/>
<text text-anchor="start" x="411.5" y="-443" font-family="Helvetica,sans-Serif" font-size="10.00">CellSocietyView.makePause</text>
<text text-anchor="middle" x="478" y="-432" font-family="Helvetica,sans-Serif" font-size="10.00">Button</text>
</a>
</g>
</g>
<!-- Node3&#45;&gt;Node10 -->
<g id="edge11" class="edge"><title>Node3&#45;&gt;Node10</title>
<path fill="none" stroke="midnightblue" d="M359.028,-453.242C370.339,-451.972 382.022,-450.661 393.437,-449.38"/>
<polygon fill="midnightblue" stroke="midnightblue" points="393.837,-452.857 403.384,-448.263 393.056,-445.9 393.837,-452.857"/>
</g>
<!-- Node11 -->
<g id="node11" class="node"><title>Node11</title>
<g id="a_node11"><a xlink:href="../../df/df8/class_cell_society_view.html#a1531c1a5ad4e0630046bfe4e8c3127e8" target="_top" xlink:title="CellSocietyView.makePlay\lButton">
<polygon fill="white" stroke="black" points="408,-376 408,-406 548,-406 548,-376 408,-376"/>
<text text-anchor="start" x="416" y="-394" font-family="Helvetica,sans-Serif" font-size="10.00">CellSocietyView.makePlay</text>
<text text-anchor="middle" x="478" y="-383" font-family="Helvetica,sans-Serif" font-size="10.00">Button</text>
</a>
</g>
</g>
<!-- Node3&#45;&gt;Node11 -->
<g id="edge13" class="edge"><title>Node3&#45;&gt;Node11</title>
<path fill="none" stroke="midnightblue" d="M303.272,-452.466C326.29,-442.761 363.361,-427.543 396,-416 402.432,-413.725 409.191,-411.454 415.948,-409.261"/>
<polygon fill="midnightblue" stroke="midnightblue" points="417.346,-412.488 425.806,-406.111 415.215,-405.82 417.346,-412.488"/>
</g>
<!-- Node12 -->
<g id="node12" class="node"><title>Node12</title>
<g id="a_node12"><a xlink:href="../../df/df8/class_cell_society_view.html#a304edeb753eed8cedb1c8e0ad952a4d8" target="_top" xlink:title="CellSocietyView.makeSlow\lButton">
<polygon fill="white" stroke="black" points="407,-513 407,-543 549,-543 549,-513 407,-513"/>
<text text-anchor="start" x="415" y="-531" font-family="Helvetica,sans-Serif" font-size="10.00">CellSocietyView.makeSlow</text>
<text text-anchor="middle" x="478" y="-520" font-family="Helvetica,sans-Serif" font-size="10.00">Button</text>
</a>
</g>
</g>
<!-- Node3&#45;&gt;Node12 -->
<g id="edge15" class="edge"><title>Node3&#45;&gt;Node12</title>
<path fill="none" stroke="midnightblue" d="M306.923,-471.603C330.159,-480.123 365.226,-492.77 396,-503 402.817,-505.266 409.979,-507.577 417.107,-509.833"/>
<polygon fill="midnightblue" stroke="midnightblue" points="416.181,-513.211 426.77,-512.866 418.278,-506.532 416.181,-513.211"/>
</g>
<!-- Node13 -->
<g id="node13" class="node"><title>Node13</title>
<g id="a_node13"><a xlink:href="../../df/df8/class_cell_society_view.html#aec6e94a6cf275f0b5d64a4b8adccd7d0" target="_top" xlink:title="CellSocietyView.makeStep\lButton">
<polygon fill="white" stroke="black" points="406.5,-562 406.5,-592 549.5,-592 549.5,-562 406.5,-562"/>
<text text-anchor="start" x="414.5" y="-580" font-family="Helvetica,sans-Serif" font-size="10.00">CellSocietyView.makeStep</text>
<text text-anchor="middle" x="478" y="-569" font-family="Helvetica,sans-Serif" font-size="10.00">Button</text>
</a>
</g>
</g>
<!-- Node3&#45;&gt;Node13 -->
<g id="edge17" class="edge"><title>Node3&#45;&gt;Node13</title>
<path fill="none" stroke="midnightblue" d="M290.588,-471.55C309.294,-489.689 352.638,-529.331 396,-552 400.259,-554.227 404.75,-556.292 409.343,-558.201"/>
<polygon fill="midnightblue" stroke="midnightblue" points="408.287,-561.545 418.876,-561.901 410.821,-555.02 408.287,-561.545"/>
</g>
<!-- Node5 -->
<g id="node5" class="node"><title>Node5</title>
<g id="a_node5"><a xlink:href="../../df/df8/class_cell_society_view.html#ae09ddc20f81e90312e628d712a5c6afc" target="_top" xlink:title="CellSocietyView.makeUIButton">
<polygon fill="white" stroke="black" points="596,-452.5 596,-471.5 758,-471.5 758,-452.5 596,-452.5"/>
<text text-anchor="middle" x="677" y="-459.5" font-family="Helvetica,sans-Serif" font-size="10.00">CellSocietyView.makeUIButton</text>
</a>
</g>
</g>
<!-- Node4&#45;&gt;Node5 -->
<g id="edge4" class="edge"><title>Node4&#45;&gt;Node5</title>
<path fill="none" stroke="midnightblue" d="M559.696,-474.988C568.25,-474.033 576.989,-473.057 585.643,-472.091"/>
<polygon fill="midnightblue" stroke="midnightblue" points="586.199,-475.55 595.748,-470.962 585.422,-468.594 586.199,-475.55"/>
</g>
<!-- Node6&#45;&gt;Node5 -->
<g id="edge6" class="edge"><title>Node6&#45;&gt;Node5</title>
<path fill="none" stroke="midnightblue" d="M537.63,-357.11C545.346,-359.954 552.998,-363.24 560,-367 599.654,-388.293 638.661,-424.162 659.805,-445.202"/>
<polygon fill="midnightblue" stroke="midnightblue" points="657.478,-447.828 666.997,-452.479 662.457,-442.907 657.478,-447.828"/>
</g>
<!-- Node7 -->
<g id="node7" class="node"><title>Node7</title>
<g id="a_node7"><a xlink:href="../../df/df8/class_cell_society_view.html#a2c047a3972078bb0a5490ed225ef2dfa" target="_top" xlink:title="CellSocietyView.loadNewFile">
<polygon fill="white" stroke="black" points="602.5,-310.5 602.5,-329.5 751.5,-329.5 751.5,-310.5 602.5,-310.5"/>
<text text-anchor="middle" x="677" y="-317.5" font-family="Helvetica,sans-Serif" font-size="10.00">CellSocietyView.loadNewFile</text>
</a>
</g>
</g>
<!-- Node6&#45;&gt;Node7 -->
<g id="edge7" class="edge"><title>Node6&#45;&gt;Node7</title>
<path fill="none" stroke="midnightblue" d="M549.565,-334.12C563.335,-332.582 577.9,-330.955 592.054,-329.375"/>
<polygon fill="midnightblue" stroke="midnightblue" points="592.722,-332.822 602.271,-328.234 591.945,-325.865 592.722,-332.822"/>
</g>
<!-- Node7&#45;&gt;Node1 -->
<g id="edge10" class="edge"><title>Node7&#45;&gt;Node1</title>
<path fill="none" stroke="midnightblue" d="M602.267,-310.667C545.261,-305.556 464.737,-302.947 396,-318 280.486,-343.298 156.72,-415.4 106.336,-446.931"/>
<polygon fill="midnightblue" stroke="midnightblue" points="104.384,-444.024 97.8007,-452.326 108.124,-449.941 104.384,-444.024"/>
</g>
<!-- Node8 -->
<g id="node8" class="node"><title>Node8</title>
<g id="a_node8"><a xlink:href="../../d7/db3/class_x_m_l_reader.html#a9f7a6e53fc5114be22cbd0b9f6184ef0" target="_top" xlink:title="XMLReader.chooseFile">
<polygon fill="white" stroke="black" points="823.5,-310.5 823.5,-329.5 944.5,-329.5 944.5,-310.5 823.5,-310.5"/>
<text text-anchor="middle" x="884" y="-317.5" font-family="Helvetica,sans-Serif" font-size="10.00">XMLReader.chooseFile</text>
</a>
</g>
</g>
<!-- Node7&#45;&gt;Node8 -->
<g id="edge8" class="edge"><title>Node7&#45;&gt;Node8</title>
<path fill="none" stroke="midnightblue" d="M751.72,-320C771.759,-320 793.394,-320 813.208,-320"/>
<polygon fill="midnightblue" stroke="midnightblue" points="813.385,-323.5 823.385,-320 813.385,-316.5 813.385,-323.5"/>
</g>
<!-- Node9 -->
<g id="node9" class="node"><title>Node9</title>
<g id="a_node9"><a xlink:href="../../d7/db3/class_x_m_l_reader.html#a016fb8ab3899a6c41ac4daec9e64cb90" target="_top" xlink:title="XMLReader.parseXML">
<polygon fill="white" stroke="black" points="1036,-310.5 1036,-329.5 1154,-329.5 1154,-310.5 1036,-310.5"/>
<text text-anchor="middle" x="1095" y="-317.5" font-family="Helvetica,sans-Serif" font-size="10.00">XMLReader.parseXML</text>
</a>
</g>
</g>
<!-- Node8&#45;&gt;Node9 -->
<g id="edge9" class="edge"><title>Node8&#45;&gt;Node9</title>
<path fill="none" stroke="midnightblue" d="M944.611,-320C969.855,-320 999.414,-320 1025.55,-320"/>
<polygon fill="midnightblue" stroke="midnightblue" points="1025.75,-323.5 1035.75,-320 1025.75,-316.5 1025.75,-323.5"/>
</g>
<!-- Node10&#45;&gt;Node5 -->
<g id="edge12" class="edge"><title>Node10&#45;&gt;Node5</title>
<path fill="none" stroke="midnightblue" d="M552.636,-448.223C563.429,-449.429 574.65,-450.682 585.73,-451.919"/>
<polygon fill="midnightblue" stroke="midnightblue" points="585.523,-455.418 595.85,-453.049 586.3,-448.461 585.523,-455.418"/>
</g>
<!-- Node11&#45;&gt;Node5 -->
<g id="edge14" class="edge"><title>Node11&#45;&gt;Node5</title>
<path fill="none" stroke="midnightblue" d="M530.186,-406.133C540.122,-409.258 550.421,-412.628 560,-416 588.789,-426.133 621.02,-439.044 644.188,-448.607"/>
<polygon fill="midnightblue" stroke="midnightblue" points="642.947,-451.881 653.525,-452.482 645.631,-445.416 642.947,-451.881"/>
</g>
<!-- Node12&#45;&gt;Node5 -->
<g id="edge16" class="edge"><title>Node12&#45;&gt;Node5</title>
<path fill="none" stroke="midnightblue" d="M528.792,-512.979C539.132,-509.763 549.94,-506.329 560,-503 587.027,-494.057 617.353,-483.313 640.218,-475.067"/>
<polygon fill="midnightblue" stroke="midnightblue" points="641.631,-478.278 649.844,-471.585 639.249,-471.696 641.631,-478.278"/>
</g>
<!-- Node13&#45;&gt;Node5 -->
<g id="edge18" class="edge"><title>Node13&#45;&gt;Node5</title>
<path fill="none" stroke="midnightblue" d="M537.109,-561.874C544.985,-559.019 552.819,-555.735 560,-552 598.7,-531.871 637.498,-498.434 658.968,-478.478"/>
<polygon fill="midnightblue" stroke="midnightblue" points="661.443,-480.955 666.312,-471.545 656.637,-475.864 661.443,-480.955"/>
</g>
<!-- Node14 -->
<g id="node14" class="node"><title>Node14</title>
<g id="a_node14"><a xlink:href="../../df/df8/class_cell_society_view.html#ad52b914fa03b45d8bc9d64fc407660f3" target="_top" xlink:title="CellSocietyView.updateView">
<polygon fill="white" stroke="black" points="602.5,-601.5 602.5,-620.5 751.5,-620.5 751.5,-601.5 602.5,-601.5"/>
<text text-anchor="middle" x="677" y="-608.5" font-family="Helvetica,sans-Serif" font-size="10.00">CellSocietyView.updateView</text>
</a>
</g>
</g>
<!-- Node13&#45;&gt;Node14 -->
<g id="edge19" class="edge"><title>Node13&#45;&gt;Node14</title>
<path fill="none" stroke="midnightblue" d="M549.565,-589.179C569.497,-592.619 591.092,-596.346 610.699,-599.73"/>
<polygon fill="midnightblue" stroke="midnightblue" points="610.302,-603.213 620.752,-601.465 611.493,-596.315 610.302,-603.213"/>
</g>
<!-- Node15 -->
<g id="node15" class="node"><title>Node15</title>
<g id="a_node15"><a xlink:href="../../d2/d40/class_cellular_automata.html#a8f4c8a2f32137db67dd31f5afb4b62c3" target="_top" xlink:title="CellularAutomata.updateNextGen">
<polygon fill="white" stroke="black" points="794.5,-582.5 794.5,-601.5 973.5,-601.5 973.5,-582.5 794.5,-582.5"/>
<text text-anchor="middle" x="884" y="-589.5" font-family="Helvetica,sans-Serif" font-size="10.00">CellularAutomata.updateNextGen</text>
</a>
</g>
</g>
<!-- Node14&#45;&gt;Node15 -->
<g id="edge20" class="edge"><title>Node14&#45;&gt;Node15</title>
<path fill="none" stroke="midnightblue" d="M751.72,-604.167C762.266,-603.19 773.255,-602.172 784.187,-601.158"/>
<polygon fill="midnightblue" stroke="midnightblue" points="784.563,-604.639 794.197,-600.231 783.917,-597.668 784.563,-604.639"/>
</g>
<!-- Node14&#45;&gt;Node18 -->
<g id="edge25" class="edge"><title>Node14&#45;&gt;Node18</title>
<path fill="none" stroke="midnightblue" d="M729.466,-620.54C757.368,-625.712 792.045,-632.14 821.38,-637.578"/>
<polygon fill="midnightblue" stroke="midnightblue" points="821.043,-641.075 831.513,-639.456 822.319,-634.192 821.043,-641.075"/>
</g>
<!-- Node16 -->
<g id="node16" class="node"><title>Node16</title>
<g id="a_node16"><a xlink:href="../../d2/d40/class_cellular_automata.html#ab6b9e3ca964f405470ec0acc064d9b3a" target="_top" xlink:title="CellularAutomata.checkRules">
<polygon fill="white" stroke="black" points="1017.5,-582.5 1017.5,-601.5 1172.5,-601.5 1172.5,-582.5 1017.5,-582.5"/>
<text text-anchor="middle" x="1095" y="-589.5" font-family="Helvetica,sans-Serif" font-size="10.00">CellularAutomata.checkRules</text>
</a>
</g>
</g>
<!-- Node15&#45;&gt;Node16 -->
<g id="edge21" class="edge"><title>Node15&#45;&gt;Node16</title>
<path fill="none" stroke="midnightblue" d="M973.635,-592C984.793,-592 996.199,-592 1007.33,-592"/>
<polygon fill="midnightblue" stroke="midnightblue" points="1007.45,-595.5 1017.45,-592 1007.45,-588.5 1007.45,-595.5"/>
</g>
<!-- Node17 -->
<g id="node17" class="node"><title>Node17</title>
<g id="a_node17"><a xlink:href="../../d2/d40/class_cellular_automata.html#ab39b5164764f20382801aa9a4663eb4b" target="_top" xlink:title="CellularAutomata.handleUpdate">
<polygon fill="white" stroke="black" points="1010,-544.5 1010,-563.5 1180,-563.5 1180,-544.5 1010,-544.5"/>
<text text-anchor="middle" x="1095" y="-551.5" font-family="Helvetica,sans-Serif" font-size="10.00">CellularAutomata.handleUpdate</text>
</a>
</g>
</g>
<!-- Node15&#45;&gt;Node17 -->
<g id="edge23" class="edge"><title>Node15&#45;&gt;Node17</title>
<path fill="none" stroke="midnightblue" d="M937.47,-582.46C966.041,-577.265 1001.58,-570.804 1031.57,-565.351"/>
<polygon fill="midnightblue" stroke="midnightblue" points="1032.3,-568.776 1041.51,-563.544 1031.04,-561.889 1032.3,-568.776"/>
</g>
<!-- Node16&#45;&gt;Node2 -->
<g id="edge22" class="edge"><title>Node16&#45;&gt;Node2</title>
<path fill="none" stroke="midnightblue" d="M1172.74,-592C1183.59,-592 1194.75,-592 1205.63,-592"/>
<polygon fill="midnightblue" stroke="midnightblue" points="1205.95,-595.5 1215.95,-592 1205.95,-588.5 1205.95,-595.5"/>
</g>
<!-- Node17&#45;&gt;Node2 -->
<g id="edge24" class="edge"><title>Node17&#45;&gt;Node2</title>
<path fill="none" stroke="midnightblue" d="M1143.44,-563.589C1168.81,-568.716 1200.23,-575.067 1226.92,-580.463"/>
<polygon fill="midnightblue" stroke="midnightblue" points="1226.41,-583.929 1236.9,-582.48 1227.79,-577.068 1226.41,-583.929"/>
</g>
<!-- Node19 -->
<g id="node19" class="node"><title>Node19</title>
<g id="a_node19"><a xlink:href="../../da/d74/class_grid.html#a2f2ccb1511e367a7d6e9bcb3f708cd38" target="_top" xlink:title="Grid.getCellAt">
<polygon fill="white" stroke="black" points="1053.5,-658.5 1053.5,-677.5 1136.5,-677.5 1136.5,-658.5 1053.5,-658.5"/>
<text text-anchor="middle" x="1095" y="-665.5" font-family="Helvetica,sans-Serif" font-size="10.00">Grid.getCellAt</text>
</a>
</g>
</g>
<!-- Node18&#45;&gt;Node19 -->
<g id="edge26" class="edge"><title>Node18&#45;&gt;Node19</title>
<path fill="none" stroke="midnightblue" d="M958.098,-655.645C986.136,-658.194 1017.5,-661.045 1043.02,-663.366"/>
<polygon fill="midnightblue" stroke="midnightblue" points="1042.94,-666.873 1053.22,-664.293 1043.58,-659.901 1042.94,-666.873"/>
</g>
<!-- Node20 -->
<g id="node20" class="node"><title>Node20</title>
<g id="a_node20"><a xlink:href="../../dd/d11/class_cell.html#aac3ac473652b817fe344534f4bec7e6f" target="_top" xlink:title="Cell.getState">
<polygon fill="white" stroke="black" points="1055.5,-620.5 1055.5,-639.5 1134.5,-639.5 1134.5,-620.5 1055.5,-620.5"/>
<text text-anchor="middle" x="1095" y="-627.5" font-family="Helvetica,sans-Serif" font-size="10.00">Cell.getState</text>
</a>
</g>
</g>
<!-- Node18&#45;&gt;Node20 -->
<g id="edge27" class="edge"><title>Node18&#45;&gt;Node20</title>
<path fill="none" stroke="midnightblue" d="M958.098,-642.355C986.86,-639.74 1019.12,-636.807 1044.99,-634.455"/>
<polygon fill="midnightblue" stroke="midnightblue" points="1045.65,-637.91 1055.29,-633.519 1045.02,-630.939 1045.65,-637.91"/>
</g>
<!-- Node22 -->
<g id="node22" class="node"><title>Node22</title>
<g id="a_node22"><a xlink:href="../../d7/db3/class_x_m_l_reader.html#a656927862103b26830df1596c1f65925" target="_top" xlink:title="XMLReader.getTextValue">
<polygon fill="white" stroke="black" points="611,-212.5 611,-231.5 743,-231.5 743,-212.5 611,-212.5"/>
<text text-anchor="middle" x="677" y="-219.5" font-family="Helvetica,sans-Serif" font-size="10.00">XMLReader.getTextValue</text>
</a>
</g>
</g>
<!-- Node21&#45;&gt;Node22 -->
<g id="edge29" class="edge"><title>Node21&#45;&gt;Node22</title>
<path fill="none" stroke="midnightblue" d="M336.339,-238.338C405.325,-235.02 523.54,-229.334 600.721,-225.621"/>
<polygon fill="midnightblue" stroke="midnightblue" points="601.04,-229.11 610.861,-225.133 600.704,-222.118 601.04,-229.11"/>
</g>
<!-- Node23 -->
<g id="node23" class="node"><title>Node23</title>
<g id="a_node23"><a xlink:href="../../d7/db3/class_x_m_l_reader.html#a373d7102833e61dbaac8e91b0567d03c" target="_top" xlink:title="XMLReader.makeGrid">
<polygon fill="white" stroke="black" points="419,-174.5 419,-193.5 537,-193.5 537,-174.5 419,-174.5"/>
<text text-anchor="middle" x="478" y="-181.5" font-family="Helvetica,sans-Serif" font-size="10.00">XMLReader.makeGrid</text>
</a>
</g>
</g>
<!-- Node21&#45;&gt;Node23 -->
<g id="edge30" class="edge"><title>Node21&#45;&gt;Node23</title>
<path fill="none" stroke="midnightblue" d="M313.806,-231.459C346.877,-221.842 398.076,-206.952 434.296,-196.419"/>
<polygon fill="midnightblue" stroke="midnightblue" points="435.462,-199.725 444.087,-193.572 433.507,-193.003 435.462,-199.725"/>
</g>
<!-- Node24 -->
<g id="node24" class="node"><title>Node24</title>
<g id="a_node24"><a xlink:href="../../d7/db3/class_x_m_l_reader.html#add9bc5354b7e5ab29eab10f671ee9686" target="_top" xlink:title="XMLReader.makeParam">
<polygon fill="white" stroke="black" points="413.5,-250.5 413.5,-269.5 542.5,-269.5 542.5,-250.5 413.5,-250.5"/>
<text text-anchor="middle" x="478" y="-257.5" font-family="Helvetica,sans-Serif" font-size="10.00">XMLReader.makeParam</text>
</a>
</g>
</g>
<!-- Node21&#45;&gt;Node24 -->
<g id="edge32" class="edge"><title>Node21&#45;&gt;Node24</title>
<path fill="none" stroke="midnightblue" d="M336.119,-246.343C356.934,-248.361 380.966,-250.691 403.219,-252.848"/>
<polygon fill="midnightblue" stroke="midnightblue" points="403.01,-256.344 413.301,-253.825 403.685,-249.376 403.01,-256.344"/>
</g>
<!-- Node23&#45;&gt;Node22 -->
<g id="edge31" class="edge"><title>Node23&#45;&gt;Node22</title>
<path fill="none" stroke="midnightblue" d="M528.457,-193.54C555.154,-198.69 588.304,-205.084 616.415,-210.506"/>
<polygon fill="midnightblue" stroke="midnightblue" points="616.041,-213.999 626.523,-212.456 617.366,-207.125 616.041,-213.999"/>
</g>
<!-- Node24&#45;&gt;Node22 -->
<g id="edge33" class="edge"><title>Node24&#45;&gt;Node22</title>
<path fill="none" stroke="midnightblue" d="M528.457,-250.46C555.154,-245.31 588.304,-238.916 616.415,-233.494"/>
<polygon fill="midnightblue" stroke="midnightblue" points="617.366,-236.875 626.523,-231.544 616.041,-230.001 617.366,-236.875"/>
</g>
<!-- Node26 -->
<g id="node26" class="node"><title>Node26</title>
<g id="a_node26"><a xlink:href="../../dd/d97/class_grid_drawer.html#af9a09b2ee81450f13a117261b67718e0" target="_top" xlink:title="GridDrawer.makeUnitGrid">
<polygon fill="white" stroke="black" points="409,-98.5 409,-117.5 547,-117.5 547,-98.5 409,-98.5"/>
<text text-anchor="middle" x="478" y="-105.5" font-family="Helvetica,sans-Serif" font-size="10.00">GridDrawer.makeUnitGrid</text>
</a>
</g>
</g>
<!-- Node25&#45;&gt;Node26 -->
<g id="edge35" class="edge"><title>Node25&#45;&gt;Node26</title>
<path fill="none" stroke="midnightblue" d="M339.541,-108C358.08,-108 378.881,-108 398.581,-108"/>
<polygon fill="midnightblue" stroke="midnightblue" points="398.765,-111.5 408.765,-108 398.765,-104.5 398.765,-111.5"/>
</g>
<!-- Node31 -->
<g id="node31" class="node"><title>Node31</title>
<g id="a_node31"><a xlink:href="../../dd/d97/class_grid_drawer.html#a54f548bdc35a2afef9af05a134c149f5" target="_top" xlink:title="GridDrawer.calculateCell\lWidth">
<polygon fill="white" stroke="black" points="412,-49 412,-79 544,-79 544,-49 412,-49"/>
<text text-anchor="start" x="420" y="-67" font-family="Helvetica,sans-Serif" font-size="10.00">GridDrawer.calculateCell</text>
<text text-anchor="middle" x="478" y="-56" font-family="Helvetica,sans-Serif" font-size="10.00">Width</text>
</a>
</g>
</g>
<!-- Node25&#45;&gt;Node31 -->
<g id="edge40" class="edge"><title>Node25&#45;&gt;Node31</title>
<path fill="none" stroke="midnightblue" d="M323.529,-98.4527C346.391,-93.3204 375.259,-86.8399 401.772,-80.8879"/>
<polygon fill="midnightblue" stroke="midnightblue" points="402.81,-84.242 411.801,-78.6366 401.277,-77.412 402.81,-84.242"/>
</g>
<!-- Node32 -->
<g id="node32" class="node"><title>Node32</title>
<g id="a_node32"><a xlink:href="../../dd/d97/class_grid_drawer.html#a3f6bb5e9307bf84f9f8f4ae467ec85cf" target="_top" xlink:title="GridDrawer.calculateCell\lHeight">
<polygon fill="white" stroke="black" points="412,-0 412,-30 544,-30 544,-0 412,-0"/>
<text text-anchor="start" x="420" y="-18" font-family="Helvetica,sans-Serif" font-size="10.00">GridDrawer.calculateCell</text>
<text text-anchor="middle" x="478" y="-7" font-family="Helvetica,sans-Serif" font-size="10.00">Height</text>
</a>
</g>
</g>
<!-- Node25&#45;&gt;Node32 -->
<g id="edge41" class="edge"><title>Node25&#45;&gt;Node32</title>
<path fill="none" stroke="midnightblue" d="M294.548,-98.3122C315.449,-83.7352 357.208,-56.0559 396,-39 400.464,-37.0372 405.135,-35.1793 409.884,-33.4323"/>
<polygon fill="midnightblue" stroke="midnightblue" points="411.413,-36.6058 419.699,-30.004 409.105,-29.9973 411.413,-36.6058"/>
</g>
<!-- Node33 -->
<g id="node33" class="node"><title>Node33</title>
<g id="a_node33"><a xlink:href="../../dd/d97/class_grid_drawer.html#a8fba9cca18cee03651775b5785722778" target="_top" xlink:title="GridDrawer.scale">
<polygon fill="white" stroke="black" points="429.5,-136.5 429.5,-155.5 526.5,-155.5 526.5,-136.5 429.5,-136.5"/>
<text text-anchor="middle" x="478" y="-143.5" font-family="Helvetica,sans-Serif" font-size="10.00">GridDrawer.scale</text>
</a>
</g>
</g>
<!-- Node25&#45;&gt;Node33 -->
<g id="edge42" class="edge"><title>Node25&#45;&gt;Node33</title>
<path fill="none" stroke="midnightblue" d="M330.206,-117.54C357.272,-122.788 391.006,-129.328 419.307,-134.815"/>
<polygon fill="midnightblue" stroke="midnightblue" points="418.983,-138.317 429.466,-136.784 420.315,-131.445 418.983,-138.317"/>
</g>
<!-- Node27 -->
<g id="node27" class="node"><title>Node27</title>
<g id="a_node27"><a xlink:href="../../dd/d97/class_grid_drawer.html#a69ef437bdcbcdb3dca6b206b73a1ab1f" target="_top" xlink:title="GridDrawer.drawUnitCell">
<polygon fill="white" stroke="black" points="611.5,-98.5 611.5,-117.5 742.5,-117.5 742.5,-98.5 611.5,-98.5"/>
<text text-anchor="middle" x="677" y="-105.5" font-family="Helvetica,sans-Serif" font-size="10.00">GridDrawer.drawUnitCell</text>
</a>
</g>
</g>
<!-- Node26&#45;&gt;Node27 -->
<g id="edge36" class="edge"><title>Node26&#45;&gt;Node27</title>
<path fill="none" stroke="midnightblue" d="M547.072,-108C564.457,-108 583.245,-108 600.958,-108"/>
<polygon fill="midnightblue" stroke="midnightblue" points="601.244,-111.5 611.244,-108 601.244,-104.5 601.244,-111.5"/>
</g>
<!-- Node28 -->
<g id="node28" class="node"><title>Node28</title>
<g id="a_node28"><a xlink:href="../../dd/d97/class_grid_drawer.html#a53b8613b7621224084096d76e2316452" target="_top" xlink:title="GridDrawer.drawTriangle">
<polygon fill="white" stroke="black" points="818.5,-98.5 818.5,-117.5 949.5,-117.5 949.5,-98.5 818.5,-98.5"/>
<text text-anchor="middle" x="884" y="-105.5" font-family="Helvetica,sans-Serif" font-size="10.00">GridDrawer.drawTriangle</text>
</a>
</g>
</g>
<!-- Node27&#45;&gt;Node28 -->
<g id="edge37" class="edge"><title>Node27&#45;&gt;Node28</title>
<path fill="none" stroke="midnightblue" d="M742.582,-108C763.453,-108 786.766,-108 808.307,-108"/>
<polygon fill="midnightblue" stroke="midnightblue" points="808.391,-111.5 818.391,-108 808.391,-104.5 808.391,-111.5"/>
</g>
<!-- Node29 -->
<g id="node29" class="node"><title>Node29</title>
<g id="a_node29"><a xlink:href="../../dd/d97/class_grid_drawer.html#a08b9d58cde5fafa07e226d4ed2ebc655" target="_top" xlink:title="GridDrawer.drawSquare">
<polygon fill="white" stroke="black" points="819.5,-60.5 819.5,-79.5 948.5,-79.5 948.5,-60.5 819.5,-60.5"/>
<text text-anchor="middle" x="884" y="-67.5" font-family="Helvetica,sans-Serif" font-size="10.00">GridDrawer.drawSquare</text>
</a>
</g>
</g>
<!-- Node27&#45;&gt;Node29 -->
<g id="edge38" class="edge"><title>Node27&#45;&gt;Node29</title>
<path fill="none" stroke="midnightblue" d="M729.466,-98.46C757.368,-93.2878 792.045,-86.8599 821.38,-81.4222"/>
<polygon fill="midnightblue" stroke="midnightblue" points="822.319,-84.8079 831.513,-79.5439 821.043,-77.9252 822.319,-84.8079"/>
</g>
<!-- Node30 -->
<g id="node30" class="node"><title>Node30</title>
<g id="a_node30"><a xlink:href="../../dd/d97/class_grid_drawer.html#a260f7ce1d53af7f88e1c4ee3a4a3de2b" target="_top" xlink:title="GridDrawer.drawHexagon">
<polygon fill="white" stroke="black" points="815.5,-136.5 815.5,-155.5 952.5,-155.5 952.5,-136.5 815.5,-136.5"/>
<text text-anchor="middle" x="884" y="-143.5" font-family="Helvetica,sans-Serif" font-size="10.00">GridDrawer.drawHexagon</text>
</a>
</g>
</g>
<!-- Node27&#45;&gt;Node30 -->
<g id="edge39" class="edge"><title>Node27&#45;&gt;Node30</title>
<path fill="none" stroke="midnightblue" d="M729.466,-117.54C757.368,-122.712 792.045,-129.14 821.38,-134.578"/>
<polygon fill="midnightblue" stroke="midnightblue" points="821.043,-138.075 831.513,-136.456 822.319,-131.192 821.043,-138.075"/>
</g>
<!-- Node34&#45;&gt;Node14 -->
<g id="edge44" class="edge"><title>Node34&#45;&gt;Node14</title>
<path fill="none" stroke="midnightblue" d="M297.068,-559.508C318.692,-571.735 358.756,-592.415 396,-601 460.702,-615.915 536.013,-617.767 592.224,-616.247"/>
<polygon fill="midnightblue" stroke="midnightblue" points="592.605,-619.737 602.49,-615.926 592.386,-612.74 592.605,-619.737"/>
</g>
</g>
</svg>
