<?xml version="1.0" encoding="UTF-8" standalone="no"?>
<!DOCTYPE svg PUBLIC "-//W3C//DTD SVG 1.1//EN"
 "http://www.w3.org/Graphics/SVG/1.1/DTD/svg11.dtd">
<!-- Generated by graphviz version 2.36.0 (20140111.2315)
 -->
<!-- Title: CellSocietyView.makeStepButton Pages: 1 -->
<svg width="1116pt" height="53pt"
 viewBox="0.00 0.00 1116.00 53.00" xmlns="http://www.w3.org/2000/svg" xmlns:xlink="http://www.w3.org/1999/xlink">
<g id="graph0" class="graph" transform="scale(1 1) rotate(0) translate(4 49)">
<title>CellSocietyView.makeStepButton</title>
<polygon fill="white" stroke="none" points="-4,4 -4,-49 1112,-49 1112,4 -4,4"/>
<!-- Node1 -->
<g id="node1" class="node"><title>Node1</title>
<polygon fill="#bfbfbf" stroke="black" points="0.5,-1 0.5,-31 143.5,-31 143.5,-1 0.5,-1"/>
<text text-anchor="start" x="8.5" y="-19" font-family="Helvetica,sans-Serif" font-size="10.00">CellSocietyView.makeStep</text>
<text text-anchor="middle" x="72" y="-8" font-family="Helvetica,sans-Serif" font-size="10.00">Button</text>
</g>
<!-- Node2 -->
<g id="node2" class="node"><title>Node2</title>
<g id="a_node2"><a xlink:href="../../df/df8/class_cell_society_view.html#a7bdbd4e8fd3893e672eb22015603f6dc" target="_top" xlink:title="CellSocietyView.makeButtons">
<polygon fill="white" stroke="black" points="180,-6.5 180,-25.5 338,-25.5 338,-6.5 180,-6.5"/>
<text text-anchor="middle" x="259" y="-13.5" font-family="Helvetica,sans-Serif" font-size="10.00">CellSocietyView.makeButtons</text>
</a>
</g>
</g>
<!-- Node1&#45;&gt;Node2 -->
<g id="edge1" class="edge"><title>Node1&#45;&gt;Node2</title>
<path fill="none" stroke="midnightblue" d="M153.817,-16C162.478,-16 171.278,-16 179.906,-16"/>
<polygon fill="midnightblue" stroke="midnightblue" points="153.732,-12.5001 143.732,-16 153.732,-19.5001 153.732,-12.5001"/>
</g>
<!-- Node3 -->
<g id="node3" class="node"><title>Node3</title>
<g id="a_node3"><a xlink:href="../../df/df8/class_cell_society_view.html#a6a72ed4ee014a9c3f0368ab26be873d6" target="_top" xlink:title="CellSocietyView.makeCAGame">
<polygon fill="white" stroke="black" points="374.5,-25.5 374.5,-44.5 537.5,-44.5 537.5,-25.5 374.5,-25.5"/>
<text text-anchor="middle" x="456" y="-32.5" font-family="Helvetica,sans-Serif" font-size="10.00">CellSocietyView.makeCAGame</text>
</a>
</g>
</g>
<!-- Node2&#45;&gt;Node3 -->
<g id="edge2" class="edge"><title>Node2&#45;&gt;Node3</title>
<path fill="none" stroke="midnightblue" d="M348.281,-24.6018C356.929,-25.4444 365.675,-26.2966 374.243,-27.1314"/>
<polygon fill="midnightblue" stroke="midnightblue" points="348.483,-21.1049 338.19,-23.6185 347.804,-28.0719 348.483,-21.1049"/>
</g>
<!-- Node4 -->
<g id="node4" class="node"><title>Node4</title>
<g id="a_node4"><a xlink:href="../../df/df8/class_cell_society_view.html#a2c047a3972078bb0a5490ed225ef2dfa" target="_top" xlink:title="CellSocietyView.loadNewFile">
<polygon fill="white" stroke="black" points="574.5,-25.5 574.5,-44.5 723.5,-44.5 723.5,-25.5 574.5,-25.5"/>
<text text-anchor="middle" x="649" y="-32.5" font-family="Helvetica,sans-Serif" font-size="10.00">CellSocietyView.loadNewFile</text>
</a>
</g>
</g>
<!-- Node3&#45;&gt;Node4 -->
<g id="edge3" class="edge"><title>Node3&#45;&gt;Node4</title>
<path fill="none" stroke="midnightblue" d="M548.006,-35C556.8,-35 565.645,-35 574.241,-35"/>
<polygon fill="midnightblue" stroke="midnightblue" points="547.724,-31.5001 537.724,-35 547.724,-38.5001 547.724,-31.5001"/>
</g>
<!-- Node5 -->
<g id="node5" class="node"><title>Node5</title>
<g id="a_node5"><a xlink:href="../../df/df8/class_cell_society_view.html#a656cfed0ba32bc41bbd0c4087860db4b" target="_top" xlink:title="CellSocietyView.makeLoad\lButton">
<polygon fill="white" stroke="black" points="760.5,-1 760.5,-31 903.5,-31 903.5,-1 760.5,-1"/>
<text text-anchor="start" x="768.5" y="-19" font-family="Helvetica,sans-Serif" font-size="10.00">CellSocietyView.makeLoad</text>
<text text-anchor="middle" x="832" y="-8" font-family="Helvetica,sans-Serif" font-size="10.00">Button</text>
</a>
</g>
</g>
<!-- Node4&#45;&gt;Node5 -->
<g id="edge4" class="edge"><title>Node4&#45;&gt;Node5</title>
<path fill="none" stroke="midnightblue" d="M733.651,-26.219C742.585,-25.2811 751.61,-24.3338 760.373,-23.4139"/>
<polygon fill="midnightblue" stroke="midnightblue" points="733.2,-22.747 723.62,-27.272 733.93,-29.7088 733.2,-22.747"/>
</g>
<!-- Node5&#45;&gt;Node2 -->
<g id="edge6" class="edge"><title>Node5&#45;&gt;Node2</title>
<path fill="none" stroke="midnightblue" d="M750.138,-16C640.597,-16 446.346,-16 338.198,-16"/>
<polygon fill="midnightblue" stroke="midnightblue" points="750.469,-19.5001 760.469,-16 750.469,-12.5001 750.469,-19.5001"/>
</g>
<!-- Node6 -->
<g id="node6" class="node"><title>Node6</title>
<g id="a_node6"><a xlink:href="../../df/df8/class_cell_society_view.html#a53ab66afdeb23b3fc89e54a44be7ced5" target="_top" xlink:title="CellSocietyView.CellSocietyView">
<polygon fill="white" stroke="black" points="940.5,-6.5 940.5,-25.5 1107.5,-25.5 1107.5,-6.5 940.5,-6.5"/>
<text text-anchor="middle" x="1024" y="-13.5" font-family="Helvetica,sans-Serif" font-size="10.00">CellSocietyView.CellSocietyView</text>
</a>
</g>
</g>
<!-- Node5&#45;&gt;Node6 -->
<g id="edge5" class="edge"><title>Node5&#45;&gt;Node6</title>
<path fill="none" stroke="midnightblue" d="M913.92,-16C922.663,-16 931.569,-16 940.332,-16"/>
<polygon fill="midnightblue" stroke="midnightblue" points="913.749,-12.5001 903.749,-16 913.749,-19.5001 913.749,-12.5001"/>
</g>
</g>
</svg>
