<?xml version="1.0" encoding="UTF-8" standalone="no"?>
<!DOCTYPE svg PUBLIC "-//W3C//DTD SVG 1.1//EN"
 "http://www.w3.org/Graphics/SVG/1.1/DTD/svg11.dtd">
<!-- Generated by graphviz version 2.36.0 (20140111.2315)
 -->
<!-- Title: CellSocietyView.updateView Pages: 1 -->
<svg width="754pt" height="142pt"
 viewBox="0.00 0.00 754.00 142.00" xmlns="http://www.w3.org/2000/svg" xmlns:xlink="http://www.w3.org/1999/xlink">
<g id="graph0" class="graph" transform="scale(1 1) rotate(0) translate(4 138)">
<title>CellSocietyView.updateView</title>
<polygon fill="white" stroke="none" points="-4,4 -4,-138 750,-138 750,4 -4,4"/>
<!-- Node1 -->
<g id="node1" class="node"><title>Node1</title>
<polygon fill="#bfbfbf" stroke="black" points="0.5,-57.5 0.5,-76.5 149.5,-76.5 149.5,-57.5 0.5,-57.5"/>
<text text-anchor="middle" x="75" y="-64.5" font-family="Helvetica,sans-Serif" font-size="10.00">CellSocietyView.updateView</text>
</g>
<!-- Node2 -->
<g id="node2" class="node"><title>Node2</title>
<g id="a_node2"><a xlink:href="../../d2/d40/class_cellular_automata.html#a8f4c8a2f32137db67dd31f5afb4b62c3" target="_top" xlink:title="CellularAutomata.updateNextGen">
<polygon fill="white" stroke="black" points="186.5,-76.5 186.5,-95.5 365.5,-95.5 365.5,-76.5 186.5,-76.5"/>
<text text-anchor="middle" x="276" y="-83.5" font-family="Helvetica,sans-Serif" font-size="10.00">CellularAutomata.updateNextGen</text>
</a>
</g>
</g>
<!-- Node1&#45;&gt;Node2 -->
<g id="edge1" class="edge"><title>Node1&#45;&gt;Node2</title>
<path fill="none" stroke="midnightblue" d="M149.535,-74.0209C158.223,-74.8504 167.195,-75.707 176.159,-76.563"/>
<polygon fill="midnightblue" stroke="midnightblue" points="175.975,-80.0612 186.262,-77.5276 176.64,-73.0929 175.975,-80.0612"/>
</g>
<!-- Node6 -->
<g id="node6" class="node"><title>Node6</title>
<g id="a_node6"><a xlink:href="../../dd/d97/class_grid_drawer.html#a8853ef53b515fd60ca524f05a3dbf897" target="_top" xlink:title="GridDrawer.updateNextGen">
<polygon fill="white" stroke="black" points="202,-38.5 202,-57.5 350,-57.5 350,-38.5 202,-38.5"/>
<text text-anchor="middle" x="276" y="-45.5" font-family="Helvetica,sans-Serif" font-size="10.00">GridDrawer.updateNextGen</text>
</a>
</g>
</g>
<!-- Node1&#45;&gt;Node6 -->
<g id="edge5" class="edge"><title>Node1&#45;&gt;Node6</title>
<path fill="none" stroke="midnightblue" d="M149.535,-59.9791C163.255,-58.6691 177.684,-57.2915 191.674,-55.9557"/>
<polygon fill="midnightblue" stroke="midnightblue" points="192.145,-59.4268 201.767,-54.9921 191.48,-52.4584 192.145,-59.4268"/>
</g>
<!-- Node3 -->
<g id="node3" class="node"><title>Node3</title>
<g id="a_node3"><a xlink:href="../../d2/d40/class_cellular_automata.html#adad8aede6a18cf243c40492a96316a4b" target="_top" xlink:title="CellularAutomata.checkRules">
<polygon fill="white" stroke="black" points="409.5,-114.5 409.5,-133.5 564.5,-133.5 564.5,-114.5 409.5,-114.5"/>
<text text-anchor="middle" x="487" y="-121.5" font-family="Helvetica,sans-Serif" font-size="10.00">CellularAutomata.checkRules</text>
</a>
</g>
</g>
<!-- Node2&#45;&gt;Node3 -->
<g id="edge2" class="edge"><title>Node2&#45;&gt;Node3</title>
<path fill="none" stroke="midnightblue" d="M329.47,-95.54C358.041,-100.735 393.58,-107.196 423.569,-112.649"/>
<polygon fill="midnightblue" stroke="midnightblue" points="423.044,-116.111 433.509,-114.456 424.296,-109.224 423.044,-116.111"/>
</g>
<!-- Node4 -->
<g id="node4" class="node"><title>Node4</title>
<g id="a_node4"><a xlink:href="../../d2/d40/class_cellular_automata.html#ab39b5164764f20382801aa9a4663eb4b" target="_top" xlink:title="CellularAutomata.handleUpdate">
<polygon fill="white" stroke="black" points="402,-76.5 402,-95.5 572,-95.5 572,-76.5 402,-76.5"/>
<text text-anchor="middle" x="487" y="-83.5" font-family="Helvetica,sans-Serif" font-size="10.00">CellularAutomata.handleUpdate</text>
</a>
</g>
</g>
<!-- Node2&#45;&gt;Node4 -->
<g id="edge3" class="edge"><title>Node2&#45;&gt;Node4</title>
<path fill="none" stroke="midnightblue" d="M365.635,-86C374.271,-86 383.055,-86 391.744,-86"/>
<polygon fill="midnightblue" stroke="midnightblue" points="391.886,-89.5001 401.886,-86 391.886,-82.5001 391.886,-89.5001"/>
</g>
<!-- Node5 -->
<g id="node5" class="node"><title>Node5</title>
<g id="a_node5"><a xlink:href="../../d2/d40/class_cellular_automata.html#a34ceed434c942d34ff03169b92684726" target="_top" xlink:title="CellularAutomata.getGrid">
<polygon fill="white" stroke="black" points="608,-76.5 608,-95.5 746,-95.5 746,-76.5 608,-76.5"/>
<text text-anchor="middle" x="677" y="-83.5" font-family="Helvetica,sans-Serif" font-size="10.00">CellularAutomata.getGrid</text>
</a>
</g>
</g>
<!-- Node4&#45;&gt;Node5 -->
<g id="edge4" class="edge"><title>Node4&#45;&gt;Node5</title>
<path fill="none" stroke="midnightblue" d="M572.102,-86C580.582,-86 589.17,-86 597.587,-86"/>
<polygon fill="midnightblue" stroke="midnightblue" points="597.75,-89.5001 607.75,-86 597.75,-82.5001 597.75,-89.5001"/>
</g>
<!-- Node7 -->
<g id="node7" class="node"><title>Node7</title>
<g id="a_node7"><a xlink:href="../../da/d74/class_grid.html#aba1e1b4dba7072955cad21806ef1c753" target="_top" xlink:title="Grid.getCells">
<polygon fill="white" stroke="black" points="448.5,-38.5 448.5,-57.5 525.5,-57.5 525.5,-38.5 448.5,-38.5"/>
<text text-anchor="middle" x="487" y="-45.5" font-family="Helvetica,sans-Serif" font-size="10.00">Grid.getCells</text>
</a>
</g>
</g>
<!-- Node6&#45;&gt;Node7 -->
<g id="edge6" class="edge"><title>Node6&#45;&gt;Node7</title>
<path fill="none" stroke="midnightblue" d="M350.098,-48C379.403,-48 412.341,-48 438.45,-48"/>
<polygon fill="midnightblue" stroke="midnightblue" points="438.462,-51.5001 448.462,-48 438.462,-44.5001 438.462,-51.5001"/>
</g>
<!-- Node8 -->
<g id="node8" class="node"><title>Node8</title>
<g id="a_node8"><a xlink:href="../../da/d74/class_grid.html#a5f4c70cc0b2718fca839fd8755fcfff4" target="_top" xlink:title="Grid.getGridSize">
<polygon fill="white" stroke="black" points="439.5,-0.5 439.5,-19.5 534.5,-19.5 534.5,-0.5 439.5,-0.5"/>
<text text-anchor="middle" x="487" y="-7.5" font-family="Helvetica,sans-Serif" font-size="10.00">Grid.getGridSize</text>
</a>
</g>
</g>
<!-- Node6&#45;&gt;Node8 -->
<g id="edge7" class="edge"><title>Node6&#45;&gt;Node8</title>
<path fill="none" stroke="midnightblue" d="M329.47,-38.46C359.779,-32.9492 397.929,-26.0128 428.978,-20.3676"/>
<polygon fill="midnightblue" stroke="midnightblue" points="430.001,-23.7391 439.214,-18.5066 428.749,-16.852 430.001,-23.7391"/>
</g>
</g>
</svg>
