<?xml version="1.0" encoding="UTF-8" standalone="no"?>
<!DOCTYPE svg PUBLIC "-//W3C//DTD SVG 1.1//EN"
 "http://www.w3.org/Graphics/SVG/1.1/DTD/svg11.dtd">
<!-- Generated by graphviz version 2.36.0 (20140111.2315)
 -->
<!-- Title: CellSocietyView.makeCAGame Pages: 1 -->
<svg width="1362pt" height="766pt"
 viewBox="0.00 0.00 1362.00 766.00" xmlns="http://www.w3.org/2000/svg" xmlns:xlink="http://www.w3.org/1999/xlink">
<g id="graph0" class="graph" transform="scale(1 1) rotate(0) translate(4 762)">
<title>CellSocietyView.makeCAGame</title>
<polygon fill="white" stroke="none" points="-4,4 -4,-762 1358,-762 1358,4 -4,4"/>
<!-- Node1 -->
<g id="node1" class="node"><title>Node1</title>
<polygon fill="#bfbfbf" stroke="black" points="0.5,-334.5 0.5,-353.5 163.5,-353.5 163.5,-334.5 0.5,-334.5"/>
<text text-anchor="middle" x="82" y="-341.5" font-family="Helvetica,sans-Serif" font-size="10.00">CellSocietyView.makeCAGame</text>
</g>
<!-- Node2 -->
<g id="node2" class="node"><title>Node2</title>
<g id="a_node2"><a xlink:href="../../d2/d40/class_cellular_automata.html#a34ceed434c942d34ff03169b92684726" target="_top" xlink:title="CellularAutomata.getGrid">
<polygon fill="white" stroke="black" points="1216,-624.5 1216,-643.5 1354,-643.5 1354,-624.5 1216,-624.5"/>
<text text-anchor="middle" x="1285" y="-631.5" font-family="Helvetica,sans-Serif" font-size="10.00">CellularAutomata.getGrid</text>
</a>
</g>
</g>
<!-- Node1&#45;&gt;Node2 -->
<g id="edge1" class="edge"><title>Node1&#45;&gt;Node2</title>
<path fill="none" stroke="midnightblue" d="M90.4039,-353.571C126.924,-399.602 293.494,-596 477,-596 477,-596 477,-596 885,-596 1016.38,-596 1049.6,-598.945 1180,-615 1195.77,-616.941 1212.76,-619.741 1228.34,-622.598"/>
<polygon fill="midnightblue" stroke="midnightblue" points="1227.88,-626.072 1238.36,-624.474 1229.17,-619.192 1227.88,-626.072"/>
</g>
<!-- Node3 -->
<g id="node3" class="node"><title>Node3</title>
<g id="a_node3"><a xlink:href="../../da/d74/class_grid.html#acbc0b625c8f9d2f76db2f2a0d5288cd9" target="_top" xlink:title="Grid.init">
<polygon fill="white" stroke="black" points="253.5,-225.5 253.5,-244.5 306.5,-244.5 306.5,-225.5 253.5,-225.5"/>
<text text-anchor="middle" x="280" y="-232.5" font-family="Helvetica,sans-Serif" font-size="10.00">Grid.init</text>
</a>
</g>
</g>
<!-- Node1&#45;&gt;Node3 -->
<g id="edge2" class="edge"><title>Node1&#45;&gt;Node3</title>
<path fill="none" stroke="midnightblue" d="M93.4942,-334.474C113.068,-317.162 157.065,-280.359 200,-259 213.632,-252.219 229.552,-246.933 243.515,-243.069"/>
<polygon fill="midnightblue" stroke="midnightblue" points="244.492,-246.431 253.275,-240.506 242.714,-239.661 244.492,-246.431"/>
</g>
<!-- Node5 -->
<g id="node5" class="node"><title>Node5</title>
<g id="a_node5"><a xlink:href="../../d2/d40/class_cellular_automata.html#a347bfd2a64ee2d615902f6922e95fa6f" target="_top" xlink:title="CellularAutomata.init">
<polygon fill="white" stroke="black" points="221.5,-184.5 221.5,-203.5 338.5,-203.5 338.5,-184.5 221.5,-184.5"/>
<text text-anchor="middle" x="280" y="-191.5" font-family="Helvetica,sans-Serif" font-size="10.00">CellularAutomata.init</text>
</a>
</g>
</g>
<!-- Node1&#45;&gt;Node5 -->
<g id="edge4" class="edge"><title>Node1&#45;&gt;Node5</title>
<path fill="none" stroke="midnightblue" d="M89.0436,-334.281C104.445,-310.343 147.67,-248.151 200,-216 205.787,-212.445 212.16,-209.451 218.7,-206.932"/>
<polygon fill="midnightblue" stroke="midnightblue" points="220.059,-210.165 228.353,-203.572 217.758,-203.554 220.059,-210.165"/>
</g>
<!-- Node7 -->
<g id="node7" class="node"><title>Node7</title>
<g id="a_node7"><a xlink:href="../../df/df8/class_cell_society_view.html#a7bdbd4e8fd3893e672eb22015603f6dc" target="_top" xlink:title="CellSocietyView.makeButtons">
<polygon fill="white" stroke="black" points="201,-405.5 201,-424.5 359,-424.5 359,-405.5 201,-405.5"/>
<text text-anchor="middle" x="280" y="-412.5" font-family="Helvetica,sans-Serif" font-size="10.00">CellSocietyView.makeButtons</text>
</a>
</g>
</g>
<!-- Node1&#45;&gt;Node7 -->
<g id="edge6" class="edge"><title>Node1&#45;&gt;Node7</title>
<path fill="none" stroke="midnightblue" d="M109.433,-353.575C143.869,-366.049 204.225,-387.913 242.868,-401.911"/>
<polygon fill="midnightblue" stroke="midnightblue" points="242.079,-405.348 252.673,-405.463 244.463,-398.767 242.079,-405.348"/>
</g>
<!-- Node21 -->
<g id="node21" class="node"><title>Node21</title>
<g id="a_node21"><a xlink:href="../../dd/d97/class_grid_drawer.html#a8853ef53b515fd60ca524f05a3dbf897" target="_top" xlink:title="GridDrawer.updateNextGen">
<polygon fill="white" stroke="black" points="810,-681.5 810,-700.5 958,-700.5 958,-681.5 810,-681.5"/>
<text text-anchor="middle" x="884" y="-688.5" font-family="Helvetica,sans-Serif" font-size="10.00">GridDrawer.updateNextGen</text>
</a>
</g>
</g>
<!-- Node1&#45;&gt;Node21 -->
<g id="edge42" class="edge"><title>Node1&#45;&gt;Node21</title>
<path fill="none" stroke="midnightblue" d="M83.1684,-353.718C84.5074,-397.439 96.3421,-577.07 200,-653 398.554,-798.441 723.249,-733.302 839.722,-703.216"/>
<polygon fill="midnightblue" stroke="midnightblue" points="840.909,-706.523 849.69,-700.594 839.129,-699.753 840.909,-706.523"/>
</g>
<!-- Node24 -->
<g id="node24" class="node"><title>Node24</title>
<g id="a_node24"><a xlink:href="../../dd/d97/class_grid_drawer.html#ab8aa1cc79c89cfbc7b9d8516a5dee463" target="_top" xlink:title="GridDrawer.makeGrid">
<polygon fill="white" stroke="black" points="220.5,-93.5 220.5,-112.5 339.5,-112.5 339.5,-93.5 220.5,-93.5"/>
<text text-anchor="middle" x="280" y="-100.5" font-family="Helvetica,sans-Serif" font-size="10.00">GridDrawer.makeGrid</text>
</a>
</g>
</g>
<!-- Node1&#45;&gt;Node24 -->
<g id="edge31" class="edge"><title>Node1&#45;&gt;Node24</title>
<path fill="none" stroke="midnightblue" d="M88.6434,-334.296C104.437,-307.518 151.133,-230.87 200,-175 218.206,-154.185 241.986,-133.205 258.682,-119.306"/>
<polygon fill="midnightblue" stroke="midnightblue" points="261.193,-121.773 266.699,-112.722 256.75,-116.363 261.193,-121.773"/>
</g>
<!-- Node33 -->
<g id="node33" class="node"><title>Node33</title>
<g id="a_node33"><a xlink:href="../../df/df8/class_cell_society_view.html#adf6a6b0542d00677a9fffbb8e3c03ffe" target="_top" xlink:title="CellSocietyView.makeTimeline">
<polygon fill="white" stroke="black" points="200,-624.5 200,-643.5 360,-643.5 360,-624.5 200,-624.5"/>
<text text-anchor="middle" x="280" y="-631.5" font-family="Helvetica,sans-Serif" font-size="10.00">CellSocietyView.makeTimeline</text>
</a>
</g>
</g>
<!-- Node1&#45;&gt;Node33 -->
<g id="edge40" class="edge"><title>Node1&#45;&gt;Node33</title>
<path fill="none" stroke="midnightblue" d="M84.325,-353.668C90.12,-392.183 116.785,-536.174 200,-610 204.715,-614.183 210.14,-617.637 215.893,-620.489"/>
<polygon fill="midnightblue" stroke="midnightblue" points="214.581,-623.734 225.149,-624.493 217.361,-617.31 214.581,-623.734"/>
</g>
<!-- Node4 -->
<g id="node4" class="node"><title>Node4</title>
<g id="a_node4"><a xlink:href="../../da/d74/class_grid.html#af432eea602599251a5e456fd24e38661" target="_top" xlink:title="Grid.makeGrid">
<polygon fill="white" stroke="black" points="435,-225.5 435,-244.5 521,-244.5 521,-225.5 435,-225.5"/>
<text text-anchor="middle" x="478" y="-232.5" font-family="Helvetica,sans-Serif" font-size="10.00">Grid.makeGrid</text>
</a>
</g>
</g>
<!-- Node3&#45;&gt;Node4 -->
<g id="edge3" class="edge"><title>Node3&#45;&gt;Node4</title>
<path fill="none" stroke="midnightblue" d="M306.624,-235C336.406,-235 386.338,-235 424.47,-235"/>
<polygon fill="midnightblue" stroke="midnightblue" points="424.885,-238.5 434.885,-235 424.885,-231.5 424.885,-238.5"/>
</g>
<!-- Node6 -->
<g id="node6" class="node"><title>Node6</title>
<g id="a_node6"><a xlink:href="../../d2/d40/class_cellular_automata.html#ac4d0b9bd9416cb4b3567caacc05cd55a" target="_top" xlink:title="CellularAutomata.setUpInitial\lConfig">
<polygon fill="white" stroke="black" points="400,-176 400,-206 556,-206 556,-176 400,-176"/>
<text text-anchor="start" x="408" y="-194" font-family="Helvetica,sans-Serif" font-size="10.00">CellularAutomata.setUpInitial</text>
<text text-anchor="middle" x="478" y="-183" font-family="Helvetica,sans-Serif" font-size="10.00">Config</text>
</a>
</g>
</g>
<!-- Node5&#45;&gt;Node6 -->
<g id="edge5" class="edge"><title>Node5&#45;&gt;Node6</title>
<path fill="none" stroke="midnightblue" d="M338.746,-193.116C354.699,-192.872 372.374,-192.601 389.606,-192.338"/>
<polygon fill="midnightblue" stroke="midnightblue" points="389.74,-195.836 399.685,-192.183 389.633,-188.837 389.74,-195.836"/>
</g>
<!-- Node8 -->
<g id="node8" class="node"><title>Node8</title>
<g id="a_node8"><a xlink:href="../../df/df8/class_cell_society_view.html#ae4f695e25edd84b67be004d3b1a7a437" target="_top" xlink:title="CellSocietyView.makeFFButton">
<polygon fill="white" stroke="black" points="396.5,-449.5 396.5,-468.5 559.5,-468.5 559.5,-449.5 396.5,-449.5"/>
<text text-anchor="middle" x="478" y="-456.5" font-family="Helvetica,sans-Serif" font-size="10.00">CellSocietyView.makeFFButton</text>
</a>
</g>
</g>
<!-- Node7&#45;&gt;Node8 -->
<g id="edge7" class="edge"><title>Node7&#45;&gt;Node8</title>
<path fill="none" stroke="midnightblue" d="M323.529,-424.547C353.194,-431.207 392.971,-440.136 424.596,-447.236"/>
<polygon fill="midnightblue" stroke="midnightblue" points="424.03,-450.696 434.554,-449.471 425.563,-443.866 424.03,-450.696"/>
</g>
<!-- Node10 -->
<g id="node10" class="node"><title>Node10</title>
<g id="a_node10"><a xlink:href="../../df/df8/class_cell_society_view.html#a656cfed0ba32bc41bbd0c4087860db4b" target="_top" xlink:title="CellSocietyView.makeLoad\lButton">
<polygon fill="white" stroke="black" points="406.5,-302 406.5,-332 549.5,-332 549.5,-302 406.5,-302"/>
<text text-anchor="start" x="414.5" y="-320" font-family="Helvetica,sans-Serif" font-size="10.00">CellSocietyView.makeLoad</text>
<text text-anchor="middle" x="478" y="-309" font-family="Helvetica,sans-Serif" font-size="10.00">Button</text>
</a>
</g>
</g>
<!-- Node7&#45;&gt;Node10 -->
<g id="edge9" class="edge"><title>Node7&#45;&gt;Node10</title>
<path fill="none" stroke="midnightblue" d="M293.798,-405.253C314.369,-389.97 356.494,-360.237 396,-342 401.011,-339.687 406.292,-337.515 411.656,-335.493"/>
<polygon fill="midnightblue" stroke="midnightblue" points="413.128,-338.683 421.361,-332.015 410.767,-332.093 413.128,-338.683"/>
</g>
<!-- Node13 -->
<g id="node13" class="node"><title>Node13</title>
<g id="a_node13"><a xlink:href="../../df/df8/class_cell_society_view.html#ae177299e365c8c48502004eb87a03cf1" target="_top" xlink:title="CellSocietyView.makePause\lButton">
<polygon fill="white" stroke="black" points="403.5,-400 403.5,-430 552.5,-430 552.5,-400 403.5,-400"/>
<text text-anchor="start" x="411.5" y="-418" font-family="Helvetica,sans-Serif" font-size="10.00">CellSocietyView.makePause</text>
<text text-anchor="middle" x="478" y="-407" font-family="Helvetica,sans-Serif" font-size="10.00">Button</text>
</a>
</g>
</g>
<!-- Node7&#45;&gt;Node13 -->
<g id="edge14" class="edge"><title>Node7&#45;&gt;Node13</title>
<path fill="none" stroke="midnightblue" d="M359.028,-415C370.225,-415 381.786,-415 393.091,-415"/>
<polygon fill="midnightblue" stroke="midnightblue" points="393.384,-418.5 403.384,-415 393.384,-411.5 393.384,-418.5"/>
</g>
<!-- Node14 -->
<g id="node14" class="node"><title>Node14</title>
<g id="a_node14"><a xlink:href="../../df/df8/class_cell_society_view.html#a1531c1a5ad4e0630046bfe4e8c3127e8" target="_top" xlink:title="CellSocietyView.makePlay\lButton">
<polygon fill="white" stroke="black" points="408,-351 408,-381 548,-381 548,-351 408,-351"/>
<text text-anchor="start" x="416" y="-369" font-family="Helvetica,sans-Serif" font-size="10.00">CellSocietyView.makePlay</text>
<text text-anchor="middle" x="478" y="-358" font-family="Helvetica,sans-Serif" font-size="10.00">Button</text>
</a>
</g>
</g>
<!-- Node7&#45;&gt;Node14 -->
<g id="edge16" class="edge"><title>Node7&#45;&gt;Node14</title>
<path fill="none" stroke="midnightblue" d="M319.256,-405.436C344.179,-399.205 377.437,-390.891 406.99,-383.503"/>
<polygon fill="midnightblue" stroke="midnightblue" points="408,-386.858 416.852,-381.037 406.302,-380.067 408,-386.858"/>
</g>
<!-- Node15 -->
<g id="node15" class="node"><title>Node15</title>
<g id="a_node15"><a xlink:href="../../df/df8/class_cell_society_view.html#a304edeb753eed8cedb1c8e0ad952a4d8" target="_top" xlink:title="CellSocietyView.makeSlow\lButton">
<polygon fill="white" stroke="black" points="407,-488 407,-518 549,-518 549,-488 407,-488"/>
<text text-anchor="start" x="415" y="-506" font-family="Helvetica,sans-Serif" font-size="10.00">CellSocietyView.makeSlow</text>
<text text-anchor="middle" x="478" y="-495" font-family="Helvetica,sans-Serif" font-size="10.00">Button</text>
</a>
</g>
</g>
<!-- Node7&#45;&gt;Node15 -->
<g id="edge18" class="edge"><title>Node7&#45;&gt;Node15</title>
<path fill="none" stroke="midnightblue" d="M296.129,-424.584C317.661,-437.92 358.681,-462.21 396,-478 401.47,-480.315 407.229,-482.521 413.049,-484.595"/>
<polygon fill="midnightblue" stroke="midnightblue" points="412.267,-488.027 422.862,-487.957 414.536,-481.405 412.267,-488.027"/>
</g>
<!-- Node16 -->
<g id="node16" class="node"><title>Node16</title>
<g id="a_node16"><a xlink:href="../../df/df8/class_cell_society_view.html#aec6e94a6cf275f0b5d64a4b8adccd7d0" target="_top" xlink:title="CellSocietyView.makeStep\lButton">
<polygon fill="white" stroke="black" points="406.5,-537 406.5,-567 549.5,-567 549.5,-537 406.5,-537"/>
<text text-anchor="start" x="414.5" y="-555" font-family="Helvetica,sans-Serif" font-size="10.00">CellSocietyView.makeStep</text>
<text text-anchor="middle" x="478" y="-544" font-family="Helvetica,sans-Serif" font-size="10.00">Button</text>
</a>
</g>
</g>
<!-- Node7&#45;&gt;Node16 -->
<g id="edge20" class="edge"><title>Node7&#45;&gt;Node16</title>
<path fill="none" stroke="midnightblue" d="M288.221,-424.649C304.841,-446.192 348.072,-498.545 396,-527 399.63,-529.155 403.464,-531.142 407.41,-532.97"/>
<polygon fill="midnightblue" stroke="midnightblue" points="406.207,-536.261 416.779,-536.953 408.946,-529.819 406.207,-536.261"/>
</g>
<!-- Node9 -->
<g id="node9" class="node"><title>Node9</title>
<g id="a_node9"><a xlink:href="../../df/df8/class_cell_society_view.html#ae09ddc20f81e90312e628d712a5c6afc" target="_top" xlink:title="CellSocietyView.makeUIButton">
<polygon fill="white" stroke="black" points="596,-427.5 596,-446.5 758,-446.5 758,-427.5 596,-427.5"/>
<text text-anchor="middle" x="677" y="-434.5" font-family="Helvetica,sans-Serif" font-size="10.00">CellSocietyView.makeUIButton</text>
</a>
</g>
</g>
<!-- Node8&#45;&gt;Node9 -->
<g id="edge8" class="edge"><title>Node8&#45;&gt;Node9</title>
<path fill="none" stroke="midnightblue" d="M559.696,-449.988C568.25,-449.033 576.989,-448.057 585.643,-447.091"/>
<polygon fill="midnightblue" stroke="midnightblue" points="586.199,-450.55 595.748,-445.962 585.422,-443.594 586.199,-450.55"/>
</g>
<!-- Node10&#45;&gt;Node9 -->
<g id="edge10" class="edge"><title>Node10&#45;&gt;Node9</title>
<path fill="none" stroke="midnightblue" d="M537.63,-332.11C545.346,-334.954 552.998,-338.24 560,-342 599.654,-363.293 638.661,-399.162 659.805,-420.202"/>
<polygon fill="midnightblue" stroke="midnightblue" points="657.478,-422.828 666.997,-427.479 662.457,-417.907 657.478,-422.828"/>
</g>
<!-- Node11 -->
<g id="node11" class="node"><title>Node11</title>
<g id="a_node11"><a xlink:href="../../df/df8/class_cell_society_view.html#a2c047a3972078bb0a5490ed225ef2dfa" target="_top" xlink:title="CellSocietyView.loadNewFile">
<polygon fill="white" stroke="black" points="602.5,-304.5 602.5,-323.5 751.5,-323.5 751.5,-304.5 602.5,-304.5"/>
<text text-anchor="middle" x="677" y="-311.5" font-family="Helvetica,sans-Serif" font-size="10.00">CellSocietyView.loadNewFile</text>
</a>
</g>
</g>
<!-- Node10&#45;&gt;Node11 -->
<g id="edge11" class="edge"><title>Node10&#45;&gt;Node11</title>
<path fill="none" stroke="midnightblue" d="M549.565,-315.925C563.335,-315.716 577.9,-315.494 592.054,-315.278"/>
<polygon fill="midnightblue" stroke="midnightblue" points="592.326,-318.775 602.271,-315.123 592.219,-311.776 592.326,-318.775"/>
</g>
<!-- Node12 -->
<g id="node12" class="node"><title>Node12</title>
<g id="a_node12"><a xlink:href="../../df/df8/class_cell_society_view.html#a2ee793e471cc5731ce39c1450f058dd5" target="_top" xlink:title="CellSocietyView.parseFile">
<polygon fill="white" stroke="black" points="816.5,-284.5 816.5,-303.5 951.5,-303.5 951.5,-284.5 816.5,-284.5"/>
<text text-anchor="middle" x="884" y="-291.5" font-family="Helvetica,sans-Serif" font-size="10.00">CellSocietyView.parseFile</text>
</a>
</g>
</g>
<!-- Node11&#45;&gt;Node12 -->
<g id="edge12" class="edge"><title>Node11&#45;&gt;Node12</title>
<path fill="none" stroke="midnightblue" d="M751.72,-306.808C769.376,-305.085 788.272,-303.242 806.069,-301.506"/>
<polygon fill="midnightblue" stroke="midnightblue" points="806.79,-304.952 816.403,-300.497 806.11,-297.985 806.79,-304.952"/>
</g>
<!-- Node12&#45;&gt;Node1 -->
<g id="edge13" class="edge"><title>Node12&#45;&gt;Node1</title>
<path fill="none" stroke="midnightblue" d="M816.3,-290.379C722.358,-286.07 545.796,-280.876 396,-293 304.509,-300.405 199.435,-319.795 137.272,-332.419"/>
<polygon fill="midnightblue" stroke="midnightblue" points="136.394,-329.027 127.299,-334.462 137.798,-335.884 136.394,-329.027"/>
</g>
<!-- Node13&#45;&gt;Node9 -->
<g id="edge15" class="edge"><title>Node13&#45;&gt;Node9</title>
<path fill="none" stroke="midnightblue" d="M552.636,-423.223C563.429,-424.429 574.65,-425.682 585.73,-426.919"/>
<polygon fill="midnightblue" stroke="midnightblue" points="585.523,-430.418 595.85,-428.049 586.3,-423.461 585.523,-430.418"/>
</g>
<!-- Node14&#45;&gt;Node9 -->
<g id="edge17" class="edge"><title>Node14&#45;&gt;Node9</title>
<path fill="none" stroke="midnightblue" d="M530.186,-381.133C540.122,-384.258 550.421,-387.628 560,-391 588.789,-401.133 621.02,-414.044 644.188,-423.607"/>
<polygon fill="midnightblue" stroke="midnightblue" points="642.947,-426.881 653.525,-427.482 645.631,-420.416 642.947,-426.881"/>
</g>
<!-- Node15&#45;&gt;Node9 -->
<g id="edge19" class="edge"><title>Node15&#45;&gt;Node9</title>
<path fill="none" stroke="midnightblue" d="M528.792,-487.979C539.132,-484.763 549.94,-481.329 560,-478 587.027,-469.057 617.353,-458.313 640.218,-450.067"/>
<polygon fill="midnightblue" stroke="midnightblue" points="641.631,-453.278 649.844,-446.585 639.249,-446.696 641.631,-453.278"/>
</g>
<!-- Node16&#45;&gt;Node9 -->
<g id="edge21" class="edge"><title>Node16&#45;&gt;Node9</title>
<path fill="none" stroke="midnightblue" d="M537.109,-536.874C544.985,-534.019 552.819,-530.735 560,-527 598.7,-506.871 637.498,-473.434 658.968,-453.478"/>
<polygon fill="midnightblue" stroke="midnightblue" points="661.443,-455.955 666.312,-446.545 656.637,-450.864 661.443,-455.955"/>
</g>
<!-- Node17 -->
<g id="node17" class="node"><title>Node17</title>
<g id="a_node17"><a xlink:href="../../df/df8/class_cell_society_view.html#ad52b914fa03b45d8bc9d64fc407660f3" target="_top" xlink:title="CellSocietyView.updateView">
<polygon fill="white" stroke="black" points="602.5,-624.5 602.5,-643.5 751.5,-643.5 751.5,-624.5 602.5,-624.5"/>
<text text-anchor="middle" x="677" y="-631.5" font-family="Helvetica,sans-Serif" font-size="10.00">CellSocietyView.updateView</text>
</a>
</g>
</g>
<!-- Node16&#45;&gt;Node17 -->
<g id="edge22" class="edge"><title>Node16&#45;&gt;Node17</title>
<path fill="none" stroke="midnightblue" d="M515.133,-567.04C551.888,-582.339 608.324,-605.83 643.652,-620.535"/>
<polygon fill="midnightblue" stroke="midnightblue" points="642.445,-623.824 653.022,-624.436 645.135,-617.361 642.445,-623.824"/>
</g>
<!-- Node18 -->
<g id="node18" class="node"><title>Node18</title>
<g id="a_node18"><a xlink:href="../../d2/d40/class_cellular_automata.html#a8f4c8a2f32137db67dd31f5afb4b62c3" target="_top" xlink:title="CellularAutomata.updateNextGen">
<polygon fill="white" stroke="black" points="794.5,-624.5 794.5,-643.5 973.5,-643.5 973.5,-624.5 794.5,-624.5"/>
<text text-anchor="middle" x="884" y="-631.5" font-family="Helvetica,sans-Serif" font-size="10.00">CellularAutomata.updateNextGen</text>
</a>
</g>
</g>
<!-- Node17&#45;&gt;Node18 -->
<g id="edge23" class="edge"><title>Node17&#45;&gt;Node18</title>
<path fill="none" stroke="midnightblue" d="M751.72,-634C762.266,-634 773.255,-634 784.187,-634"/>
<polygon fill="midnightblue" stroke="midnightblue" points="784.197,-637.5 794.197,-634 784.197,-630.5 784.197,-637.5"/>
</g>
<!-- Node17&#45;&gt;Node21 -->
<g id="edge28" class="edge"><title>Node17&#45;&gt;Node21</title>
<path fill="none" stroke="midnightblue" d="M712.312,-643.541C747.05,-653.199 800.91,-668.175 838.82,-678.716"/>
<polygon fill="midnightblue" stroke="midnightblue" points="838.004,-682.121 848.576,-681.428 839.879,-675.377 838.004,-682.121"/>
</g>
<!-- Node19 -->
<g id="node19" class="node"><title>Node19</title>
<g id="a_node19"><a xlink:href="../../d2/d40/class_cellular_automata.html#ab6b9e3ca964f405470ec0acc064d9b3a" target="_top" xlink:title="CellularAutomata.checkRules">
<polygon fill="white" stroke="black" points="1017.5,-624.5 1017.5,-643.5 1172.5,-643.5 1172.5,-624.5 1017.5,-624.5"/>
<text text-anchor="middle" x="1095" y="-631.5" font-family="Helvetica,sans-Serif" font-size="10.00">CellularAutomata.checkRules</text>
</a>
</g>
</g>
<!-- Node18&#45;&gt;Node19 -->
<g id="edge24" class="edge"><title>Node18&#45;&gt;Node19</title>
<path fill="none" stroke="midnightblue" d="M973.635,-634C984.793,-634 996.199,-634 1007.33,-634"/>
<polygon fill="midnightblue" stroke="midnightblue" points="1007.45,-637.5 1017.45,-634 1007.45,-630.5 1007.45,-637.5"/>
</g>
<!-- Node20 -->
<g id="node20" class="node"><title>Node20</title>
<g id="a_node20"><a xlink:href="../../d2/d40/class_cellular_automata.html#ab39b5164764f20382801aa9a4663eb4b" target="_top" xlink:title="CellularAutomata.handleUpdate">
<polygon fill="white" stroke="black" points="1010,-662.5 1010,-681.5 1180,-681.5 1180,-662.5 1010,-662.5"/>
<text text-anchor="middle" x="1095" y="-669.5" font-family="Helvetica,sans-Serif" font-size="10.00">CellularAutomata.handleUpdate</text>
</a>
</g>
</g>
<!-- Node18&#45;&gt;Node20 -->
<g id="edge26" class="edge"><title>Node18&#45;&gt;Node20</title>
<path fill="none" stroke="midnightblue" d="M937.47,-643.54C966.041,-648.735 1001.58,-655.196 1031.57,-660.649"/>
<polygon fill="midnightblue" stroke="midnightblue" points="1031.04,-664.111 1041.51,-662.456 1032.3,-657.224 1031.04,-664.111"/>
</g>
<!-- Node19&#45;&gt;Node2 -->
<g id="edge25" class="edge"><title>Node19&#45;&gt;Node2</title>
<path fill="none" stroke="midnightblue" d="M1172.74,-634C1183.59,-634 1194.75,-634 1205.63,-634"/>
<polygon fill="midnightblue" stroke="midnightblue" points="1205.95,-637.5 1215.95,-634 1205.95,-630.5 1205.95,-637.5"/>
</g>
<!-- Node20&#45;&gt;Node2 -->
<g id="edge27" class="edge"><title>Node20&#45;&gt;Node2</title>
<path fill="none" stroke="midnightblue" d="M1143.44,-662.411C1168.81,-657.284 1200.23,-650.933 1226.92,-645.537"/>
<polygon fill="midnightblue" stroke="midnightblue" points="1227.79,-648.932 1236.9,-643.52 1226.41,-642.071 1227.79,-648.932"/>
</g>
<!-- Node22 -->
<g id="node22" class="node"><title>Node22</title>
<g id="a_node22"><a xlink:href="../../da/d74/class_grid.html#a2f2ccb1511e367a7d6e9bcb3f708cd38" target="_top" xlink:title="Grid.getCellAt">
<polygon fill="white" stroke="black" points="1053.5,-700.5 1053.5,-719.5 1136.5,-719.5 1136.5,-700.5 1053.5,-700.5"/>
<text text-anchor="middle" x="1095" y="-707.5" font-family="Helvetica,sans-Serif" font-size="10.00">Grid.getCellAt</text>
</a>
</g>
</g>
<!-- Node21&#45;&gt;Node22 -->
<g id="edge29" class="edge"><title>Node21&#45;&gt;Node22</title>
<path fill="none" stroke="midnightblue" d="M958.098,-697.645C986.136,-700.194 1017.5,-703.045 1043.02,-705.366"/>
<polygon fill="midnightblue" stroke="midnightblue" points="1042.94,-708.873 1053.22,-706.293 1043.58,-701.901 1042.94,-708.873"/>
</g>
<!-- Node23 -->
<g id="node23" class="node"><title>Node23</title>
<g id="a_node23"><a xlink:href="../../dd/d11/class_cell.html#aac3ac473652b817fe344534f4bec7e6f" target="_top" xlink:title="Cell.getState">
<polygon fill="white" stroke="black" points="1055.5,-738.5 1055.5,-757.5 1134.5,-757.5 1134.5,-738.5 1055.5,-738.5"/>
<text text-anchor="middle" x="1095" y="-745.5" font-family="Helvetica,sans-Serif" font-size="10.00">Cell.getState</text>
</a>
</g>
</g>
<!-- Node21&#45;&gt;Node23 -->
<g id="edge30" class="edge"><title>Node21&#45;&gt;Node23</title>
<path fill="none" stroke="midnightblue" d="M914.126,-700.511C939.351,-708.589 976.891,-720.235 1010,-729 1021.4,-732.019 1033.75,-734.981 1045.39,-737.635"/>
<polygon fill="midnightblue" stroke="midnightblue" points="1044.86,-741.104 1055.38,-739.882 1046.4,-734.274 1044.86,-741.104"/>
</g>
<!-- Node25 -->
<g id="node25" class="node"><title>Node25</title>
<g id="a_node25"><a xlink:href="../../dd/d97/class_grid_drawer.html#af9a09b2ee81450f13a117261b67718e0" target="_top" xlink:title="GridDrawer.makeUnitGrid">
<polygon fill="white" stroke="black" points="409,-137.5 409,-156.5 547,-156.5 547,-137.5 409,-137.5"/>
<text text-anchor="middle" x="478" y="-144.5" font-family="Helvetica,sans-Serif" font-size="10.00">GridDrawer.makeUnitGrid</text>
</a>
</g>
</g>
<!-- Node24&#45;&gt;Node25 -->
<g id="edge32" class="edge"><title>Node24&#45;&gt;Node25</title>
<path fill="none" stroke="midnightblue" d="M323.529,-112.547C353.194,-119.207 392.971,-128.136 424.596,-135.236"/>
<polygon fill="midnightblue" stroke="midnightblue" points="424.03,-138.696 434.554,-137.471 425.563,-131.866 424.03,-138.696"/>
</g>
<!-- Node30 -->
<g id="node30" class="node"><title>Node30</title>
<g id="a_node30"><a xlink:href="../../dd/d97/class_grid_drawer.html#a54f548bdc35a2afef9af05a134c149f5" target="_top" xlink:title="GridDrawer.calculateCell\lWidth">
<polygon fill="white" stroke="black" points="412,-88 412,-118 544,-118 544,-88 412,-88"/>
<text text-anchor="start" x="420" y="-106" font-family="Helvetica,sans-Serif" font-size="10.00">GridDrawer.calculateCell</text>
<text text-anchor="middle" x="478" y="-95" font-family="Helvetica,sans-Serif" font-size="10.00">Width</text>
</a>
</g>
</g>
<!-- Node24&#45;&gt;Node30 -->
<g id="edge37" class="edge"><title>Node24&#45;&gt;Node30</title>
<path fill="none" stroke="midnightblue" d="M339.541,-103C359.123,-103 381.228,-103 401.894,-103"/>
<polygon fill="midnightblue" stroke="midnightblue" points="401.906,-106.5 411.906,-103 401.906,-99.5001 401.906,-106.5"/>
</g>
<!-- Node31 -->
<g id="node31" class="node"><title>Node31</title>
<g id="a_node31"><a xlink:href="../../dd/d97/class_grid_drawer.html#a3f6bb5e9307bf84f9f8f4ae467ec85cf" target="_top" xlink:title="GridDrawer.calculateCell\lHeight">
<polygon fill="white" stroke="black" points="412,-39 412,-69 544,-69 544,-39 412,-39"/>
<text text-anchor="start" x="420" y="-57" font-family="Helvetica,sans-Serif" font-size="10.00">GridDrawer.calculateCell</text>
<text text-anchor="middle" x="478" y="-46" font-family="Helvetica,sans-Serif" font-size="10.00">Height</text>
</a>
</g>
</g>
<!-- Node24&#45;&gt;Node31 -->
<g id="edge38" class="edge"><title>Node24&#45;&gt;Node31</title>
<path fill="none" stroke="midnightblue" d="M319.256,-93.436C344.179,-87.2053 377.437,-78.8906 406.99,-71.5026"/>
<polygon fill="midnightblue" stroke="midnightblue" points="408,-74.8579 416.852,-69.037 406.302,-68.0669 408,-74.8579"/>
</g>
<!-- Node32 -->
<g id="node32" class="node"><title>Node32</title>
<g id="a_node32"><a xlink:href="../../dd/d97/class_grid_drawer.html#a8fba9cca18cee03651775b5785722778" target="_top" xlink:title="GridDrawer.scale">
<polygon fill="white" stroke="black" points="429.5,-0.5 429.5,-19.5 526.5,-19.5 526.5,-0.5 429.5,-0.5"/>
<text text-anchor="middle" x="478" y="-7.5" font-family="Helvetica,sans-Serif" font-size="10.00">GridDrawer.scale</text>
</a>
</g>
</g>
<!-- Node24&#45;&gt;Node32 -->
<g id="edge39" class="edge"><title>Node24&#45;&gt;Node32</title>
<path fill="none" stroke="midnightblue" d="M292.974,-93.2944C313.059,-77.4926 355.345,-46.2408 396,-29 403.469,-25.8327 411.559,-23.1407 419.638,-20.8678"/>
<polygon fill="midnightblue" stroke="midnightblue" points="420.659,-24.2187 429.446,-18.2995 418.886,-17.447 420.659,-24.2187"/>
</g>
<!-- Node26 -->
<g id="node26" class="node"><title>Node26</title>
<g id="a_node26"><a xlink:href="../../dd/d97/class_grid_drawer.html#a69ef437bdcbcdb3dca6b206b73a1ab1f" target="_top" xlink:title="GridDrawer.drawUnitCell">
<polygon fill="white" stroke="black" points="611.5,-137.5 611.5,-156.5 742.5,-156.5 742.5,-137.5 611.5,-137.5"/>
<text text-anchor="middle" x="677" y="-144.5" font-family="Helvetica,sans-Serif" font-size="10.00">GridDrawer.drawUnitCell</text>
</a>
</g>
</g>
<!-- Node25&#45;&gt;Node26 -->
<g id="edge33" class="edge"><title>Node25&#45;&gt;Node26</title>
<path fill="none" stroke="midnightblue" d="M547.072,-147C564.457,-147 583.245,-147 600.958,-147"/>
<polygon fill="midnightblue" stroke="midnightblue" points="601.244,-150.5 611.244,-147 601.244,-143.5 601.244,-150.5"/>
</g>
<!-- Node27 -->
<g id="node27" class="node"><title>Node27</title>
<g id="a_node27"><a xlink:href="../../dd/d97/class_grid_drawer.html#a53b8613b7621224084096d76e2316452" target="_top" xlink:title="GridDrawer.drawTriangle">
<polygon fill="white" stroke="black" points="818.5,-175.5 818.5,-194.5 949.5,-194.5 949.5,-175.5 818.5,-175.5"/>
<text text-anchor="middle" x="884" y="-182.5" font-family="Helvetica,sans-Serif" font-size="10.00">GridDrawer.drawTriangle</text>
</a>
</g>
</g>
<!-- Node26&#45;&gt;Node27 -->
<g id="edge34" class="edge"><title>Node26&#45;&gt;Node27</title>
<path fill="none" stroke="midnightblue" d="M729.466,-156.54C757.368,-161.712 792.045,-168.14 821.38,-173.578"/>
<polygon fill="midnightblue" stroke="midnightblue" points="821.043,-177.075 831.513,-175.456 822.319,-170.192 821.043,-177.075"/>
</g>
<!-- Node28 -->
<g id="node28" class="node"><title>Node28</title>
<g id="a_node28"><a xlink:href="../../dd/d97/class_grid_drawer.html#a08b9d58cde5fafa07e226d4ed2ebc655" target="_top" xlink:title="GridDrawer.drawSquare">
<polygon fill="white" stroke="black" points="819.5,-137.5 819.5,-156.5 948.5,-156.5 948.5,-137.5 819.5,-137.5"/>
<text text-anchor="middle" x="884" y="-144.5" font-family="Helvetica,sans-Serif" font-size="10.00">GridDrawer.drawSquare</text>
</a>
</g>
</g>
<!-- Node26&#45;&gt;Node28 -->
<g id="edge35" class="edge"><title>Node26&#45;&gt;Node28</title>
<path fill="none" stroke="midnightblue" d="M742.582,-147C763.757,-147 787.446,-147 809.247,-147"/>
<polygon fill="midnightblue" stroke="midnightblue" points="809.445,-150.5 819.445,-147 809.445,-143.5 809.445,-150.5"/>
</g>
<!-- Node29 -->
<g id="node29" class="node"><title>Node29</title>
<g id="a_node29"><a xlink:href="../../dd/d97/class_grid_drawer.html#a260f7ce1d53af7f88e1c4ee3a4a3de2b" target="_top" xlink:title="GridDrawer.drawHexagon">
<polygon fill="white" stroke="black" points="815.5,-99.5 815.5,-118.5 952.5,-118.5 952.5,-99.5 815.5,-99.5"/>
<text text-anchor="middle" x="884" y="-106.5" font-family="Helvetica,sans-Serif" font-size="10.00">GridDrawer.drawHexagon</text>
</a>
</g>
</g>
<!-- Node26&#45;&gt;Node29 -->
<g id="edge36" class="edge"><title>Node26&#45;&gt;Node29</title>
<path fill="none" stroke="midnightblue" d="M729.466,-137.46C757.368,-132.288 792.045,-125.86 821.38,-120.422"/>
<polygon fill="midnightblue" stroke="midnightblue" points="822.319,-123.808 831.513,-118.544 821.043,-116.925 822.319,-123.808"/>
</g>
<!-- Node33&#45;&gt;Node17 -->
<g id="edge41" class="edge"><title>Node33&#45;&gt;Node17</title>
<path fill="none" stroke="midnightblue" d="M360.459,-634C427.638,-634 523.596,-634 592.025,-634"/>
<polygon fill="midnightblue" stroke="midnightblue" points="592.338,-637.5 602.338,-634 592.338,-630.5 592.338,-637.5"/>
</g>
</g>
</svg>
