<?xml version="1.0" encoding="UTF-8" standalone="no"?>
<!DOCTYPE svg PUBLIC "-//W3C//DTD SVG 1.1//EN"
 "http://www.w3.org/Graphics/SVG/1.1/DTD/svg11.dtd">
<!-- Generated by graphviz version 2.36.0 (20140111.2315)
 -->
<!-- Title: CellSocietyView.makeTimeline Pages: 1 -->
<svg width="938pt" height="74pt"
 viewBox="0.00 0.00 938.00 74.00" xmlns="http://www.w3.org/2000/svg" xmlns:xlink="http://www.w3.org/1999/xlink">
<g id="graph0" class="graph" transform="scale(1 1) rotate(0) translate(4 70)">
<title>CellSocietyView.makeTimeline</title>
<polygon fill="white" stroke="none" points="-4,4 -4,-70 934,-70 934,4 -4,4"/>
<!-- Node1 -->
<g id="node1" class="node"><title>Node1</title>
<polygon fill="#bfbfbf" stroke="black" points="0,-17.5 0,-36.5 160,-36.5 160,-17.5 0,-17.5"/>
<text text-anchor="middle" x="80" y="-24.5" font-family="Helvetica,sans-Serif" font-size="10.00">CellSocietyView.makeTimeline</text>
</g>
<!-- Node2 -->
<g id="node2" class="node"><title>Node2</title>
<g id="a_node2"><a xlink:href="../../df/df8/class_cell_society_view.html#a6a72ed4ee014a9c3f0368ab26be873d6" target="_top" xlink:title="CellSocietyView.makeCAGame">
<polygon fill="white" stroke="black" points="196.5,-17.5 196.5,-36.5 359.5,-36.5 359.5,-17.5 196.5,-17.5"/>
<text text-anchor="middle" x="278" y="-24.5" font-family="Helvetica,sans-Serif" font-size="10.00">CellSocietyView.makeCAGame</text>
</a>
</g>
</g>
<!-- Node1&#45;&gt;Node2 -->
<g id="edge1" class="edge"><title>Node1&#45;&gt;Node2</title>
<path fill="none" stroke="midnightblue" d="M170.271,-27C178.937,-27 187.696,-27 196.272,-27"/>
<polygon fill="midnightblue" stroke="midnightblue" points="170.156,-23.5001 160.156,-27 170.156,-30.5001 170.156,-23.5001"/>
</g>
<!-- Node3 -->
<g id="node3" class="node"><title>Node3</title>
<g id="a_node3"><a xlink:href="../../df/df8/class_cell_society_view.html#a2c047a3972078bb0a5490ed225ef2dfa" target="_top" xlink:title="CellSocietyView.loadNewFile">
<polygon fill="white" stroke="black" points="396.5,-38.5 396.5,-57.5 545.5,-57.5 545.5,-38.5 396.5,-38.5"/>
<text text-anchor="middle" x="471" y="-45.5" font-family="Helvetica,sans-Serif" font-size="10.00">CellSocietyView.loadNewFile</text>
</a>
</g>
</g>
<!-- Node2&#45;&gt;Node3 -->
<g id="edge2" class="edge"><title>Node2&#45;&gt;Node3</title>
<path fill="none" stroke="midnightblue" d="M369.72,-36.9744C378.608,-37.9516 387.551,-38.935 396.241,-39.8904"/>
<polygon fill="midnightblue" stroke="midnightblue" points="370.047,-33.4894 359.724,-35.8755 369.282,-40.4475 370.047,-33.4894"/>
</g>
<!-- Node4 -->
<g id="node4" class="node"><title>Node4</title>
<g id="a_node4"><a xlink:href="../../df/df8/class_cell_society_view.html#a656cfed0ba32bc41bbd0c4087860db4b" target="_top" xlink:title="CellSocietyView.makeLoad\lButton">
<polygon fill="white" stroke="black" points="582.5,-36 582.5,-66 725.5,-66 725.5,-36 582.5,-36"/>
<text text-anchor="start" x="590.5" y="-54" font-family="Helvetica,sans-Serif" font-size="10.00">CellSocietyView.makeLoad</text>
<text text-anchor="middle" x="654" y="-43" font-family="Helvetica,sans-Serif" font-size="10.00">Button</text>
</a>
</g>
</g>
<!-- Node3&#45;&gt;Node4 -->
<g id="edge3" class="edge"><title>Node3&#45;&gt;Node4</title>
<path fill="none" stroke="midnightblue" d="M555.651,-49.3865C564.585,-49.5346 573.61,-49.6841 582.373,-49.8294"/>
<polygon fill="midnightblue" stroke="midnightblue" points="555.676,-45.8865 545.62,-49.2202 555.56,-52.8856 555.676,-45.8865"/>
</g>
<!-- Node5 -->
<g id="node5" class="node"><title>Node5</title>
<g id="a_node5"><a xlink:href="../../df/df8/class_cell_society_view.html#a53ab66afdeb23b3fc89e54a44be7ced5" target="_top" xlink:title="CellSocietyView.CellSocietyView">
<polygon fill="white" stroke="black" points="762.5,-41.5 762.5,-60.5 929.5,-60.5 929.5,-41.5 762.5,-41.5"/>
<text text-anchor="middle" x="846" y="-48.5" font-family="Helvetica,sans-Serif" font-size="10.00">CellSocietyView.CellSocietyView</text>
</a>
</g>
</g>
<!-- Node4&#45;&gt;Node5 -->
<g id="edge4" class="edge"><title>Node4&#45;&gt;Node5</title>
<path fill="none" stroke="midnightblue" d="M735.92,-51C744.663,-51 753.569,-51 762.332,-51"/>
<polygon fill="midnightblue" stroke="midnightblue" points="735.749,-47.5001 725.749,-51 735.749,-54.5001 735.749,-47.5001"/>
</g>
<!-- Node6 -->
<g id="node6" class="node"><title>Node6</title>
<g id="a_node6"><a xlink:href="../../df/df8/class_cell_society_view.html#a7bdbd4e8fd3893e672eb22015603f6dc" target="_top" xlink:title="CellSocietyView.makeButtons">
<polygon fill="white" stroke="black" points="767,-0.5 767,-19.5 925,-19.5 925,-0.5 767,-0.5"/>
<text text-anchor="middle" x="846" y="-7.5" font-family="Helvetica,sans-Serif" font-size="10.00">CellSocietyView.makeButtons</text>
</a>
</g>
</g>
<!-- Node4&#45;&gt;Node6 -->
<g id="edge5" class="edge"><title>Node4&#45;&gt;Node6</title>
<path fill="none" stroke="midnightblue" d="M734.613,-33.8204C757.224,-28.941 781.031,-23.8039 800.723,-19.5545"/>
<polygon fill="midnightblue" stroke="midnightblue" points="733.707,-30.4353 724.67,-35.9659 735.183,-37.2778 733.707,-30.4353"/>
</g>
<!-- Node6&#45;&gt;Node2 -->
<g id="edge6" class="edge"><title>Node6&#45;&gt;Node2</title>
<path fill="none" stroke="midnightblue" d="M756.41,-12.6608C647.676,-15.9267 464.835,-21.4184 359.793,-24.5733"/>
<polygon fill="midnightblue" stroke="midnightblue" points="756.806,-16.1506 766.697,-12.3519 756.596,-9.15376 756.806,-16.1506"/>
</g>
</g>
</svg>
