<?xml version="1.0" encoding="UTF-8" standalone="no"?>
<!DOCTYPE svg PUBLIC "-//W3C//DTD SVG 1.1//EN"
 "http://www.w3.org/Graphics/SVG/1.1/DTD/svg11.dtd">
<!-- Generated by graphviz version 2.36.0 (20140111.2315)
 -->
<!-- Title: CellSocietyView.makeTimeline Pages: 1 -->
<!--zoomable 142 -->
<svg id="main" version="1.1" xmlns="http://www.w3.org/2000/svg" xmlns:xlink="http://www.w3.org/1999/xlink" xml:space="preserve" onload="init(evt)">
<style type="text/css"><![CDATA[
.edge:hover path { stroke: red; }
.edge:hover polygon { stroke: red; fill: red; }
]]></style>
<script type="text/javascript"><![CDATA[
var edges = document.getElementsByTagName('g');
if (edges && edges.length) {
  for (var i=0;i<edges.length;i++) {
    if (edges[i].id.substr(0,4)=='edge') {
      edges[i].setAttribute('class','edge');
    }
  }
}
]]></script>
        <defs>
                <circle id="rim" cx="0" cy="0" r="7"/>
                <circle id="rim2" cx="0" cy="0" r="3.5"/>
                <g id="zoomPlus">
                        <use xlink:href="#rim" fill="#404040">
                                <set attributeName="fill" to="#808080" begin="zoomplus.mouseover" end="zoomplus.mouseout"/>
                        </use>
                        <path d="M-4,0h8M0,-4v8" fill="none" stroke="white" stroke-width="1.5" pointer-events="none"/>
                </g>
                <g id="zoomMin">
                        <use xlink:href="#rim" fill="#404040">
                                <set attributeName="fill" to="#808080" begin="zoomminus.mouseover" end="zoomminus.mouseout"/>
                        </use>
                        <path d="M-4,0h8" fill="none" stroke="white" stroke-width="1.5" pointer-events="none"/>
                </g>
                <g id="dirArrow">
                        <path fill="none" stroke="white" stroke-width="1.5" d="M0,-3.0v7 M-2.5,-0.5L0,-3.0L2.5,-0.5"/>
                </g>
               <g id="resetDef">
                       <use xlink:href="#rim2" fill="#404040">
                               <set attributeName="fill" to="#808080" begin="reset.mouseover" end="reset.mouseout"/>
                       </use>
               </g>
        </defs>

<script type="text/javascript">
var viewWidth = 950;
var viewHeight = 142;
var sectionId = 'dynsection-13';
</script>
<script xlink:href="../../svgpan.js"/>
<svg id="graph" class="graph">
<g id="viewport">
<title>CellSocietyView.makeTimeline</title>
<polygon fill="white" stroke="none" points="-4,4 -4,-138 946,-138 946,4 -4,4"/>
<!-- Node1 -->
<g id="node1" class="node"><title>Node1</title>
<polygon fill="#bfbfbf" stroke="black" points="0,-57.5 0,-76.5 160,-76.5 160,-57.5 0,-57.5"/>
<text text-anchor="middle" x="80" y="-64.5" font-family="Helvetica,sans-Serif" font-size="10.00">CellSocietyView.makeTimeline</text>
</g>
<!-- Node2 -->
<g id="node2" class="node"><title>Node2</title>
<g id="a_node2"><a xlink:href="../../df/df8/class_cell_society_view.html#ad52b914fa03b45d8bc9d64fc407660f3" target="_top" xlink:title="CellSocietyView.updateView">
<polygon fill="white" stroke="black" points="196.5,-57.5 196.5,-76.5 345.5,-76.5 345.5,-57.5 196.5,-57.5"/>
<text text-anchor="middle" x="271" y="-64.5" font-family="Helvetica,sans-Serif" font-size="10.00">CellSocietyView.updateView</text>
</a>
</g>
</g>
<!-- Node1&#45;&gt;Node2 -->
<g id="edge1" class="edge"><title>Node1&#45;&gt;Node2</title>
<path fill="none" stroke="midnightblue" d="M160.058,-67C168.71,-67 177.539,-67 186.245,-67"/>
<polygon fill="midnightblue" stroke="midnightblue" points="186.391,-70.5001 196.391,-67 186.391,-63.5001 186.391,-70.5001"/>
</g>
<!-- Node3 -->
<g id="node3" class="node"><title>Node3</title>
<g id="a_node3"><a xlink:href="../../d2/d40/class_cellular_automata.html#a8f4c8a2f32137db67dd31f5afb4b62c3" target="_top" xlink:title="CellularAutomata.updateNextGen">
<polygon fill="white" stroke="black" points="382.5,-76.5 382.5,-95.5 561.5,-95.5 561.5,-76.5 382.5,-76.5"/>
<text text-anchor="middle" x="472" y="-83.5" font-family="Helvetica,sans-Serif" font-size="10.00">CellularAutomata.updateNextGen</text>
</a>
</g>
</g>
<!-- Node2&#45;&gt;Node3 -->
<g id="edge2" class="edge"><title>Node2&#45;&gt;Node3</title>
<path fill="none" stroke="midnightblue" d="M345.535,-74.0209C354.223,-74.8504 363.195,-75.707 372.159,-76.563"/>
<polygon fill="midnightblue" stroke="midnightblue" points="371.975,-80.0612 382.262,-77.5276 372.64,-73.0929 371.975,-80.0612"/>
</g>
<!-- Node7 -->
<g id="node7" class="node"><title>Node7</title>
<g id="a_node7"><a xlink:href="../../dd/d97/class_grid_drawer.html#a8853ef53b515fd60ca524f05a3dbf897" target="_top" xlink:title="GridDrawer.updateNextGen">
<polygon fill="white" stroke="black" points="398,-38.5 398,-57.5 546,-57.5 546,-38.5 398,-38.5"/>
<text text-anchor="middle" x="472" y="-45.5" font-family="Helvetica,sans-Serif" font-size="10.00">GridDrawer.updateNextGen</text>
</a>
</g>
</g>
<!-- Node2&#45;&gt;Node7 -->
<g id="edge7" class="edge"><title>Node2&#45;&gt;Node7</title>
<path fill="none" stroke="midnightblue" d="M345.535,-59.9791C359.255,-58.6691 373.684,-57.2915 387.674,-55.9557"/>
<polygon fill="midnightblue" stroke="midnightblue" points="388.145,-59.4268 397.767,-54.9921 387.48,-52.4584 388.145,-59.4268"/>
</g>
<!-- Node4 -->
<g id="node4" class="node"><title>Node4</title>
<g id="a_node4"><a xlink:href="../../d2/d40/class_cellular_automata.html#ab6b9e3ca964f405470ec0acc064d9b3a" target="_top" xlink:title="CellularAutomata.checkRules">
<polygon fill="white" stroke="black" points="605.5,-114.5 605.5,-133.5 760.5,-133.5 760.5,-114.5 605.5,-114.5"/>
<text text-anchor="middle" x="683" y="-121.5" font-family="Helvetica,sans-Serif" font-size="10.00">CellularAutomata.checkRules</text>
</a>
</g>
</g>
<!-- Node3&#45;&gt;Node4 -->
<g id="edge3" class="edge"><title>Node3&#45;&gt;Node4</title>
<path fill="none" stroke="midnightblue" d="M525.47,-95.54C554.041,-100.735 589.58,-107.196 619.569,-112.649"/>
<polygon fill="midnightblue" stroke="midnightblue" points="619.044,-116.111 629.509,-114.456 620.296,-109.224 619.044,-116.111"/>
</g>
<!-- Node6 -->
<g id="node6" class="node"><title>Node6</title>
<g id="a_node6"><a xlink:href="../../d2/d40/class_cellular_automata.html#ab39b5164764f20382801aa9a4663eb4b" target="_top" xlink:title="CellularAutomata.handleUpdate">
<polygon fill="white" stroke="black" points="598,-76.5 598,-95.5 768,-95.5 768,-76.5 598,-76.5"/>
<text text-anchor="middle" x="683" y="-83.5" font-family="Helvetica,sans-Serif" font-size="10.00">CellularAutomata.handleUpdate</text>
</a>
</g>
</g>
<!-- Node3&#45;&gt;Node6 -->
<g id="edge5" class="edge"><title>Node3&#45;&gt;Node6</title>
<path fill="none" stroke="midnightblue" d="M561.635,-86C570.271,-86 579.055,-86 587.744,-86"/>
<polygon fill="midnightblue" stroke="midnightblue" points="587.886,-89.5001 597.886,-86 587.886,-82.5001 587.886,-89.5001"/>
</g>
<!-- Node5 -->
<g id="node5" class="node"><title>Node5</title>
<g id="a_node5"><a xlink:href="../../d2/d40/class_cellular_automata.html#a34ceed434c942d34ff03169b92684726" target="_top" xlink:title="CellularAutomata.getGrid">
<polygon fill="white" stroke="black" points="804,-95.5 804,-114.5 942,-114.5 942,-95.5 804,-95.5"/>
<text text-anchor="middle" x="873" y="-102.5" font-family="Helvetica,sans-Serif" font-size="10.00">CellularAutomata.getGrid</text>
</a>
</g>
</g>
<!-- Node4&#45;&gt;Node5 -->
<g id="edge4" class="edge"><title>Node4&#45;&gt;Node5</title>
<path fill="none" stroke="midnightblue" d="M760.738,-116.245C771.699,-115.137 782.983,-113.996 793.969,-112.886"/>
<polygon fill="midnightblue" stroke="midnightblue" points="794.357,-116.365 803.955,-111.877 793.654,-109.4 794.357,-116.365"/>
</g>
<!-- Node6&#45;&gt;Node5 -->
<g id="edge6" class="edge"><title>Node6&#45;&gt;Node5</title>
<path fill="none" stroke="midnightblue" d="M768.102,-94.4997C776.582,-95.3567 785.17,-96.2246 793.587,-97.0753"/>
<polygon fill="midnightblue" stroke="midnightblue" points="793.448,-100.579 803.75,-98.1024 794.152,-93.6145 793.448,-100.579"/>
</g>
<!-- Node8 -->
<g id="node8" class="node"><title>Node8</title>
<g id="a_node8"><a xlink:href="../../da/d74/class_grid.html#a2f2ccb1511e367a7d6e9bcb3f708cd38" target="_top" xlink:title="Grid.getCellAt">
<polygon fill="white" stroke="black" points="641.5,-38.5 641.5,-57.5 724.5,-57.5 724.5,-38.5 641.5,-38.5"/>
<text text-anchor="middle" x="683" y="-45.5" font-family="Helvetica,sans-Serif" font-size="10.00">Grid.getCellAt</text>
</a>
</g>
</g>
<!-- Node7&#45;&gt;Node8 -->
<g id="edge8" class="edge"><title>Node7&#45;&gt;Node8</title>
<path fill="none" stroke="midnightblue" d="M546.098,-48C574.136,-48 605.498,-48 631.024,-48"/>
<polygon fill="midnightblue" stroke="midnightblue" points="631.218,-51.5001 641.218,-48 631.218,-44.5001 631.218,-51.5001"/>
</g>
<!-- Node9 -->
<g id="node9" class="node"><title>Node9</title>
<g id="a_node9"><a xlink:href="../../dd/d11/class_cell.html#aac3ac473652b817fe344534f4bec7e6f" target="_top" xlink:title="Cell.getState">
<polygon fill="white" stroke="black" points="643.5,-0.5 643.5,-19.5 722.5,-19.5 722.5,-0.5 643.5,-0.5"/>
<text text-anchor="middle" x="683" y="-7.5" font-family="Helvetica,sans-Serif" font-size="10.00">Cell.getState</text>
</a>
</g>
</g>
<!-- Node7&#45;&gt;Node9 -->
<g id="edge9" class="edge"><title>Node7&#45;&gt;Node9</title>
<path fill="none" stroke="midnightblue" d="M525.47,-38.46C558.53,-32.4491 600.918,-24.7422 633.244,-18.8648"/>
<polygon fill="midnightblue" stroke="midnightblue" points="634.149,-22.2577 643.361,-17.0252 632.896,-15.3706 634.149,-22.2577"/>
</g>
</g>
</svg>
        <g id="navigator" transform="translate(0 0)" fill="#404254">
                <rect fill="#f2f5e9" fill-opacity="0.5" stroke="#606060" stroke-width=".5" x="0" y="0" width="60" height="60"/>
                <use id="zoomplus" xlink:href="#zoomPlus" x="17" y="9" onmousedown="handleZoom(evt,'in')"/>
                <use id="zoomminus" xlink:href="#zoomMin" x="42" y="9" onmousedown="handleZoom(evt,'out')"/>
                <use id="reset" xlink:href="#resetDef" x="30" y="36" onmousedown="handleReset()"/>
                <g id="arrowUp" xlink:href="#dirArrow" transform="translate(30 24)" onmousedown="handlePan(0,-1)">
                  <use xlink:href="#rim" fill="#404040">
                        <set attributeName="fill" to="#808080" begin="arrowUp.mouseover" end="arrowUp.mouseout"/>
                  </use>
                  <path fill="none" stroke="white" stroke-width="1.5" d="M0,-3.0v7 M-2.5,-0.5L0,-3.0L2.5,-0.5"/>
                </g>
                <g id="arrowRight" xlink:href="#dirArrow" transform="rotate(90) translate(36 -43)" onmousedown="handlePan(1,0)">
                  <use xlink:href="#rim" fill="#404040">
                        <set attributeName="fill" to="#808080" begin="arrowRight.mouseover" end="arrowRight.mouseout"/>
                  </use>
                  <path fill="none" stroke="white" stroke-width="1.5" d="M0,-3.0v7 M-2.5,-0.5L0,-3.0L2.5,-0.5"/>
                </g>
                <g id="arrowDown" xlink:href="#dirArrow" transform="rotate(180) translate(-30 -48)" onmousedown="handlePan(0,1)">
                  <use xlink:href="#rim" fill="#404040">
                        <set attributeName="fill" to="#808080" begin="arrowDown.mouseover" end="arrowDown.mouseout"/>
                  </use>
                  <path fill="none" stroke="white" stroke-width="1.5" d="M0,-3.0v7 M-2.5,-0.5L0,-3.0L2.5,-0.5"/>
                </g>
                <g id="arrowLeft" xlink:href="#dirArrow" transform="rotate(270) translate(-36 17)" onmousedown="handlePan(-1,0)">
                  <use xlink:href="#rim" fill="#404040">
                        <set attributeName="fill" to="#808080" begin="arrowLeft.mouseover" end="arrowLeft.mouseout"/>
                  </use>
                  <path fill="none" stroke="white" stroke-width="1.5" d="M0,-3.0v7 M-2.5,-0.5L0,-3.0L2.5,-0.5"/>
                </g>
        </g>
        <svg viewBox="0 0 15 15" width="100%" height="30px" preserveAspectRatio="xMaxYMin meet">
         <g id="arrow_out" transform="scale(0.3 0.3)">
          <a xlink:href="class_cell_society_view_adf6a6b0542d00677a9fffbb8e3c03ffe_cgraph_org.svg" target="_base">
           <rect id="button" ry="5" rx="5" y="6" x="6" height="38" width="38"
                fill="#f2f5e9" fill-opacity="0.5" stroke="#606060" stroke-width="1.0"/>
           <path id="arrow"
             d="M 11.500037,31.436501 C 11.940474,20.09759 22.043105,11.32322 32.158766,21.979434 L 37.068811,17.246167 C 37.068811,17.246167 37.088388,32 37.088388,32 L 22.160133,31.978069 C 22.160133,31.978069 26.997745,27.140456 26.997745,27.140456 C 18.528582,18.264221 13.291696,25.230495 11.500037,31.436501 z"
             style="fill:#404040;"/>
          </a>
         </g>
        </svg>
</svg>
