<?xml version="1.0" encoding="UTF-8" standalone="no"?>
<!DOCTYPE svg PUBLIC "-//W3C//DTD SVG 1.1//EN"
 "http://www.w3.org/Graphics/SVG/1.1/DTD/svg11.dtd">
<!-- Generated by graphviz version 2.36.0 (20140111.2315)
 -->
<!-- Title: CellSocietyView.updateView Pages: 1 -->
<svg width="754pt" height="142pt"
 viewBox="0.00 0.00 754.00 142.00" xmlns="http://www.w3.org/2000/svg" xmlns:xlink="http://www.w3.org/1999/xlink">
<g id="graph0" class="graph" transform="scale(1 1) rotate(0) translate(4 138)">
<title>CellSocietyView.updateView</title>
<polygon fill="white" stroke="none" points="-4,4 -4,-138 750,-138 750,4 -4,4"/>
<!-- Node1 -->
<g id="node1" class="node"><title>Node1</title>
<polygon fill="#bfbfbf" stroke="black" points="0.5,-57.5 0.5,-76.5 149.5,-76.5 149.5,-57.5 0.5,-57.5"/>
<text text-anchor="middle" x="75" y="-64.5" font-family="Helvetica,sans-Serif" font-size="10.00">CellSocietyView.updateView</text>
</g>
<!-- Node2 -->
<g id="node2" class="node"><title>Node2</title>
<g id="a_node2"><a xlink:href="../../dd/d97/class_grid_drawer.html#a8853ef53b515fd60ca524f05a3dbf897" target="_top" xlink:title="GridDrawer.updateNextGen">
<polygon fill="white" stroke="black" points="202,-76.5 202,-95.5 350,-95.5 350,-76.5 202,-76.5"/>
<text text-anchor="middle" x="276" y="-83.5" font-family="Helvetica,sans-Serif" font-size="10.00">GridDrawer.updateNextGen</text>
</a>
</g>
</g>
<!-- Node1&#45;&gt;Node2 -->
<g id="edge1" class="edge"><title>Node1&#45;&gt;Node2</title>
<path fill="none" stroke="midnightblue" d="M149.535,-74.0209C163.255,-75.3309 177.684,-76.7085 191.674,-78.0443"/>
<polygon fill="midnightblue" stroke="midnightblue" points="191.48,-81.5416 201.767,-79.0079 192.145,-74.5732 191.48,-81.5416"/>
</g>
<!-- Node5 -->
<g id="node5" class="node"><title>Node5</title>
<g id="a_node5"><a xlink:href="../../d2/d40/class_cellular_automata.html#a8f4c8a2f32137db67dd31f5afb4b62c3" target="_top" xlink:title="CellularAutomata.updateNextGen">
<polygon fill="white" stroke="black" points="186.5,-38.5 186.5,-57.5 365.5,-57.5 365.5,-38.5 186.5,-38.5"/>
<text text-anchor="middle" x="276" y="-45.5" font-family="Helvetica,sans-Serif" font-size="10.00">CellularAutomata.updateNextGen</text>
</a>
</g>
</g>
<!-- Node1&#45;&gt;Node5 -->
<g id="edge4" class="edge"><title>Node1&#45;&gt;Node5</title>
<path fill="none" stroke="midnightblue" d="M149.535,-59.9791C158.223,-59.1496 167.195,-58.293 176.159,-57.437"/>
<polygon fill="midnightblue" stroke="midnightblue" points="176.64,-60.9071 186.262,-56.4724 175.975,-53.9388 176.64,-60.9071"/>
</g>
<!-- Node3 -->
<g id="node3" class="node"><title>Node3</title>
<g id="a_node3"><a xlink:href="../../da/d74/class_grid.html#a2f2ccb1511e367a7d6e9bcb3f708cd38" target="_top" xlink:title="Grid.getCellAt">
<polygon fill="white" stroke="black" points="445.5,-114.5 445.5,-133.5 528.5,-133.5 528.5,-114.5 445.5,-114.5"/>
<text text-anchor="middle" x="487" y="-121.5" font-family="Helvetica,sans-Serif" font-size="10.00">Grid.getCellAt</text>
</a>
</g>
</g>
<!-- Node2&#45;&gt;Node3 -->
<g id="edge2" class="edge"><title>Node2&#45;&gt;Node3</title>
<path fill="none" stroke="midnightblue" d="M329.47,-95.54C361.875,-101.432 403.243,-108.953 435.312,-114.784"/>
<polygon fill="midnightblue" stroke="midnightblue" points="434.909,-118.268 445.374,-116.613 436.161,-111.381 434.909,-118.268"/>
</g>
<!-- Node4 -->
<g id="node4" class="node"><title>Node4</title>
<g id="a_node4"><a xlink:href="../../dd/d11/class_cell.html#aac3ac473652b817fe344534f4bec7e6f" target="_top" xlink:title="Cell.getState">
<polygon fill="white" stroke="black" points="447.5,-76.5 447.5,-95.5 526.5,-95.5 526.5,-76.5 447.5,-76.5"/>
<text text-anchor="middle" x="487" y="-83.5" font-family="Helvetica,sans-Serif" font-size="10.00">Cell.getState</text>
</a>
</g>
</g>
<!-- Node2&#45;&gt;Node4 -->
<g id="edge3" class="edge"><title>Node2&#45;&gt;Node4</title>
<path fill="none" stroke="midnightblue" d="M350.098,-86C378.86,-86 411.12,-86 436.99,-86"/>
<polygon fill="midnightblue" stroke="midnightblue" points="437.293,-89.5001 447.293,-86 437.293,-82.5001 437.293,-89.5001"/>
</g>
<!-- Node6 -->
<g id="node6" class="node"><title>Node6</title>
<g id="a_node6"><a xlink:href="../../d2/d40/class_cellular_automata.html#ab6b9e3ca964f405470ec0acc064d9b3a" target="_top" xlink:title="CellularAutomata.checkRules">
<polygon fill="white" stroke="black" points="409.5,-38.5 409.5,-57.5 564.5,-57.5 564.5,-38.5 409.5,-38.5"/>
<text text-anchor="middle" x="487" y="-45.5" font-family="Helvetica,sans-Serif" font-size="10.00">CellularAutomata.checkRules</text>
</a>
</g>
</g>
<!-- Node5&#45;&gt;Node6 -->
<g id="edge5" class="edge"><title>Node5&#45;&gt;Node6</title>
<path fill="none" stroke="midnightblue" d="M365.635,-48C376.793,-48 388.199,-48 399.327,-48"/>
<polygon fill="midnightblue" stroke="midnightblue" points="399.453,-51.5001 409.453,-48 399.453,-44.5001 399.453,-51.5001"/>
</g>
<!-- Node8 -->
<g id="node8" class="node"><title>Node8</title>
<g id="a_node8"><a xlink:href="../../d2/d40/class_cellular_automata.html#ab39b5164764f20382801aa9a4663eb4b" target="_top" xlink:title="CellularAutomata.handleUpdate">
<polygon fill="white" stroke="black" points="402,-0.5 402,-19.5 572,-19.5 572,-0.5 402,-0.5"/>
<text text-anchor="middle" x="487" y="-7.5" font-family="Helvetica,sans-Serif" font-size="10.00">CellularAutomata.handleUpdate</text>
</a>
</g>
</g>
<!-- Node5&#45;&gt;Node8 -->
<g id="edge7" class="edge"><title>Node5&#45;&gt;Node8</title>
<path fill="none" stroke="midnightblue" d="M329.47,-38.46C358.041,-33.2652 393.58,-26.8037 423.569,-21.3511"/>
<polygon fill="midnightblue" stroke="midnightblue" points="424.296,-24.7764 433.509,-19.5439 423.044,-17.8893 424.296,-24.7764"/>
</g>
<!-- Node7 -->
<g id="node7" class="node"><title>Node7</title>
<g id="a_node7"><a xlink:href="../../d2/d40/class_cellular_automata.html#a34ceed434c942d34ff03169b92684726" target="_top" xlink:title="CellularAutomata.getGrid">
<polygon fill="white" stroke="black" points="608,-19.5 608,-38.5 746,-38.5 746,-19.5 608,-19.5"/>
<text text-anchor="middle" x="677" y="-26.5" font-family="Helvetica,sans-Serif" font-size="10.00">CellularAutomata.getGrid</text>
</a>
</g>
</g>
<!-- Node6&#45;&gt;Node7 -->
<g id="edge6" class="edge"><title>Node6&#45;&gt;Node7</title>
<path fill="none" stroke="midnightblue" d="M564.738,-40.2446C575.699,-39.1368 586.983,-37.9964 597.969,-36.8862"/>
<polygon fill="midnightblue" stroke="midnightblue" points="598.357,-40.3648 607.955,-35.8769 597.654,-33.4002 598.357,-40.3648"/>
</g>
<!-- Node8&#45;&gt;Node7 -->
<g id="edge8" class="edge"><title>Node8&#45;&gt;Node7</title>
<path fill="none" stroke="midnightblue" d="M572.102,-18.4997C580.582,-19.3567 589.17,-20.2246 597.587,-21.0753"/>
<polygon fill="midnightblue" stroke="midnightblue" points="597.448,-24.579 607.75,-22.1024 598.152,-17.6145 597.448,-24.579"/>
</g>
</g>
</svg>
