<?xml version="1.0" encoding="UTF-8" standalone="no"?>
<!DOCTYPE svg PUBLIC "-//W3C//DTD SVG 1.1//EN"
 "http://www.w3.org/Graphics/SVG/1.1/DTD/svg11.dtd">
<!-- Generated by graphviz version 2.36.0 (20140111.2315)
 -->
<!-- Title: CellSocietyView.makePlayButton Pages: 1 -->
<svg width="1112pt" height="53pt"
 viewBox="0.00 0.00 1112.00 53.00" xmlns="http://www.w3.org/2000/svg" xmlns:xlink="http://www.w3.org/1999/xlink">
<g id="graph0" class="graph" transform="scale(1 1) rotate(0) translate(4 49)">
<title>CellSocietyView.makePlayButton</title>
<polygon fill="white" stroke="none" points="-4,4 -4,-49 1108,-49 1108,4 -4,4"/>
<!-- Node1 -->
<g id="node1" class="node"><title>Node1</title>
<polygon fill="#bfbfbf" stroke="black" points="0,-1 0,-31 140,-31 140,-1 0,-1"/>
<text text-anchor="start" x="8" y="-19" font-family="Helvetica,sans-Serif" font-size="10.00">CellSocietyView.makePlay</text>
<text text-anchor="middle" x="70" y="-8" font-family="Helvetica,sans-Serif" font-size="10.00">Button</text>
</g>
<!-- Node2 -->
<g id="node2" class="node"><title>Node2</title>
<g id="a_node2"><a xlink:href="../../df/df8/class_cell_society_view.html#a7bdbd4e8fd3893e672eb22015603f6dc" target="_top" xlink:title="CellSocietyView.makeButtons">
<polygon fill="white" stroke="black" points="176,-6.5 176,-25.5 334,-25.5 334,-6.5 176,-6.5"/>
<text text-anchor="middle" x="255" y="-13.5" font-family="Helvetica,sans-Serif" font-size="10.00">CellSocietyView.makeButtons</text>
</a>
</g>
</g>
<!-- Node1&#45;&gt;Node2 -->
<g id="edge1" class="edge"><title>Node1&#45;&gt;Node2</title>
<path fill="none" stroke="midnightblue" d="M150.387,-16C158.825,-16 167.402,-16 175.825,-16"/>
<polygon fill="midnightblue" stroke="midnightblue" points="150.184,-12.5001 140.184,-16 150.184,-19.5001 150.184,-12.5001"/>
</g>
<!-- Node3 -->
<g id="node3" class="node"><title>Node3</title>
<g id="a_node3"><a xlink:href="../../df/df8/class_cell_society_view.html#a6a72ed4ee014a9c3f0368ab26be873d6" target="_top" xlink:title="CellSocietyView.makeCAGame">
<polygon fill="white" stroke="black" points="370.5,-25.5 370.5,-44.5 533.5,-44.5 533.5,-25.5 370.5,-25.5"/>
<text text-anchor="middle" x="452" y="-32.5" font-family="Helvetica,sans-Serif" font-size="10.00">CellSocietyView.makeCAGame</text>
</a>
</g>
</g>
<!-- Node2&#45;&gt;Node3 -->
<g id="edge2" class="edge"><title>Node2&#45;&gt;Node3</title>
<path fill="none" stroke="midnightblue" d="M344.281,-24.6018C352.929,-25.4444 361.675,-26.2966 370.243,-27.1314"/>
<polygon fill="midnightblue" stroke="midnightblue" points="344.483,-21.1049 334.19,-23.6185 343.804,-28.0719 344.483,-21.1049"/>
</g>
<!-- Node4 -->
<g id="node4" class="node"><title>Node4</title>
<g id="a_node4"><a xlink:href="../../df/df8/class_cell_society_view.html#a2c047a3972078bb0a5490ed225ef2dfa" target="_top" xlink:title="CellSocietyView.loadNewFile">
<polygon fill="white" stroke="black" points="570.5,-25.5 570.5,-44.5 719.5,-44.5 719.5,-25.5 570.5,-25.5"/>
<text text-anchor="middle" x="645" y="-32.5" font-family="Helvetica,sans-Serif" font-size="10.00">CellSocietyView.loadNewFile</text>
</a>
</g>
</g>
<!-- Node3&#45;&gt;Node4 -->
<g id="edge3" class="edge"><title>Node3&#45;&gt;Node4</title>
<path fill="none" stroke="midnightblue" d="M544.006,-35C552.8,-35 561.645,-35 570.241,-35"/>
<polygon fill="midnightblue" stroke="midnightblue" points="543.724,-31.5001 533.724,-35 543.724,-38.5001 543.724,-31.5001"/>
</g>
<!-- Node5 -->
<g id="node5" class="node"><title>Node5</title>
<g id="a_node5"><a xlink:href="../../df/df8/class_cell_society_view.html#a656cfed0ba32bc41bbd0c4087860db4b" target="_top" xlink:title="CellSocietyView.makeLoad\lButton">
<polygon fill="white" stroke="black" points="756.5,-1 756.5,-31 899.5,-31 899.5,-1 756.5,-1"/>
<text text-anchor="start" x="764.5" y="-19" font-family="Helvetica,sans-Serif" font-size="10.00">CellSocietyView.makeLoad</text>
<text text-anchor="middle" x="828" y="-8" font-family="Helvetica,sans-Serif" font-size="10.00">Button</text>
</a>
</g>
</g>
<!-- Node4&#45;&gt;Node5 -->
<g id="edge4" class="edge"><title>Node4&#45;&gt;Node5</title>
<path fill="none" stroke="midnightblue" d="M729.651,-26.219C738.585,-25.2811 747.61,-24.3338 756.373,-23.4139"/>
<polygon fill="midnightblue" stroke="midnightblue" points="729.2,-22.747 719.62,-27.272 729.93,-29.7088 729.2,-22.747"/>
</g>
<!-- Node5&#45;&gt;Node2 -->
<g id="edge6" class="edge"><title>Node5&#45;&gt;Node2</title>
<path fill="none" stroke="midnightblue" d="M746.138,-16C636.597,-16 442.346,-16 334.198,-16"/>
<polygon fill="midnightblue" stroke="midnightblue" points="746.469,-19.5001 756.469,-16 746.469,-12.5001 746.469,-19.5001"/>
</g>
<!-- Node6 -->
<g id="node6" class="node"><title>Node6</title>
<g id="a_node6"><a xlink:href="../../df/df8/class_cell_society_view.html#a53ab66afdeb23b3fc89e54a44be7ced5" target="_top" xlink:title="CellSocietyView.CellSocietyView">
<polygon fill="white" stroke="black" points="936.5,-6.5 936.5,-25.5 1103.5,-25.5 1103.5,-6.5 936.5,-6.5"/>
<text text-anchor="middle" x="1020" y="-13.5" font-family="Helvetica,sans-Serif" font-size="10.00">CellSocietyView.CellSocietyView</text>
</a>
</g>
</g>
<!-- Node5&#45;&gt;Node6 -->
<g id="edge5" class="edge"><title>Node5&#45;&gt;Node6</title>
<path fill="none" stroke="midnightblue" d="M909.92,-16C918.663,-16 927.569,-16 936.332,-16"/>
<polygon fill="midnightblue" stroke="midnightblue" points="909.749,-12.5001 899.749,-16 909.749,-19.5001 909.749,-12.5001"/>
</g>
</g>
</svg>
