<?xml version="1.0" encoding="UTF-8" standalone="no"?>
<!DOCTYPE svg PUBLIC "-//W3C//DTD SVG 1.1//EN"
 "http://www.w3.org/Graphics/SVG/1.1/DTD/svg11.dtd">
<!-- Generated by graphviz version 2.36.0 (20140111.2315)
 -->
<!-- Title: CellSocietyView.makeCAGame Pages: 1 -->
<!--zoomable 522 -->
<svg id="main" version="1.1" xmlns="http://www.w3.org/2000/svg" xmlns:xlink="http://www.w3.org/1999/xlink" xml:space="preserve" onload="init(evt)">
<style type="text/css"><![CDATA[
.edge:hover path { stroke: red; }
.edge:hover polygon { stroke: red; fill: red; }
]]></style>
<script type="text/javascript"><![CDATA[
var edges = document.getElementsByTagName('g');
if (edges && edges.length) {
  for (var i=0;i<edges.length;i++) {
    if (edges[i].id.substr(0,4)=='edge') {
      edges[i].setAttribute('class','edge');
    }
  }
}
]]></script>
        <defs>
                <circle id="rim" cx="0" cy="0" r="7"/>
                <circle id="rim2" cx="0" cy="0" r="3.5"/>
                <g id="zoomPlus">
                        <use xlink:href="#rim" fill="#404040">
                                <set attributeName="fill" to="#808080" begin="zoomplus.mouseover" end="zoomplus.mouseout"/>
                        </use>
                        <path d="M-4,0h8M0,-4v8" fill="none" stroke="white" stroke-width="1.5" pointer-events="none"/>
                </g>
                <g id="zoomMin">
                        <use xlink:href="#rim" fill="#404040">
                                <set attributeName="fill" to="#808080" begin="zoomminus.mouseover" end="zoomminus.mouseout"/>
                        </use>
                        <path d="M-4,0h8" fill="none" stroke="white" stroke-width="1.5" pointer-events="none"/>
                </g>
                <g id="dirArrow">
                        <path fill="none" stroke="white" stroke-width="1.5" d="M0,-3.0v7 M-2.5,-0.5L0,-3.0L2.5,-0.5"/>
                </g>
               <g id="resetDef">
                       <use xlink:href="#rim2" fill="#404040">
                               <set attributeName="fill" to="#808080" begin="reset.mouseover" end="reset.mouseout"/>
                       </use>
               </g>
        </defs>

<script type="text/javascript">
var viewWidth = 1156;
var viewHeight = 522;
var sectionId = 'dynsection-9';
</script>
<script xlink:href="../../svgpan.js"/>
<svg id="graph" class="graph">
<g id="viewport">
<title>CellSocietyView.makeCAGame</title>
<polygon fill="white" stroke="none" points="-4,4 -4,-517.533 1152,-517.533 1152,4 -4,4"/>
<!-- Node1 -->
<g id="node1" class="node"><title>Node1</title>
<polygon fill="#bfbfbf" stroke="black" points="0.5,-296.5 0.5,-315.5 163.5,-315.5 163.5,-296.5 0.5,-296.5"/>
<text text-anchor="middle" x="82" y="-303.5" font-family="Helvetica,sans-Serif" font-size="10.00">CellSocietyView.makeCAGame</text>
</g>
<!-- Node2 -->
<g id="node2" class="node"><title>Node2</title>
<g id="a_node2"><a xlink:href="../../d2/d40/class_cellular_automata.html#a34ceed434c942d34ff03169b92684726" target="_top" xlink:title="CellularAutomata.getGrid">
<polygon fill="white" stroke="black" points="1010,-465.5 1010,-484.5 1148,-484.5 1148,-465.5 1010,-465.5"/>
<text text-anchor="middle" x="1079" y="-472.5" font-family="Helvetica,sans-Serif" font-size="10.00">CellularAutomata.getGrid</text>
</a>
</g>
</g>
<!-- Node1&#45;&gt;Node2 -->
<g id="edge1" class="edge"><title>Node1&#45;&gt;Node2</title>
<path fill="none" stroke="midnightblue" d="M87.4585,-315.621C100.504,-342.621 141.411,-419.504 200,-456 305.207,-521.536 349.05,-513 473,-513 473,-513 473,-513 679,-513 810.383,-513 843.602,-510.055 974,-494 989.765,-492.059 1006.76,-489.259 1022.34,-486.402"/>
<polygon fill="midnightblue" stroke="midnightblue" points="1023.17,-489.808 1032.36,-484.526 1021.88,-482.928 1023.17,-489.808"/>
</g>
<!-- Node3 -->
<g id="node3" class="node"><title>Node3</title>
<g id="a_node3"><a xlink:href="../../da/d74/class_grid.html#acbc0b625c8f9d2f76db2f2a0d5288cd9" target="_top" xlink:title="Grid.init">
<polygon fill="white" stroke="black" points="253.5,-225.5 253.5,-244.5 306.5,-244.5 306.5,-225.5 253.5,-225.5"/>
<text text-anchor="middle" x="280" y="-232.5" font-family="Helvetica,sans-Serif" font-size="10.00">Grid.init</text>
</a>
</g>
</g>
<!-- Node1&#45;&gt;Node3 -->
<g id="edge2" class="edge"><title>Node1&#45;&gt;Node3</title>
<path fill="none" stroke="midnightblue" d="M105.21,-296.406C128.582,-286.468 166.55,-270.775 200,-259 214.007,-254.07 229.614,-249.199 243.233,-245.148"/>
<polygon fill="midnightblue" stroke="midnightblue" points="244.591,-248.397 253.2,-242.222 242.619,-241.681 244.591,-248.397"/>
</g>
<!-- Node5 -->
<g id="node5" class="node"><title>Node5</title>
<g id="a_node5"><a xlink:href="../../d2/d40/class_cellular_automata.html#a347bfd2a64ee2d615902f6922e95fa6f" target="_top" xlink:title="CellularAutomata.init">
<polygon fill="white" stroke="black" points="221.5,-184.5 221.5,-203.5 338.5,-203.5 338.5,-184.5 221.5,-184.5"/>
<text text-anchor="middle" x="280" y="-191.5" font-family="Helvetica,sans-Serif" font-size="10.00">CellularAutomata.init</text>
</a>
</g>
</g>
<!-- Node1&#45;&gt;Node5 -->
<g id="edge4" class="edge"><title>Node1&#45;&gt;Node5</title>
<path fill="none" stroke="midnightblue" d="M92.7323,-296.35C111.727,-278.04 155.762,-238.119 200,-216 207.333,-212.333 215.364,-209.203 223.409,-206.554"/>
<polygon fill="midnightblue" stroke="midnightblue" points="224.648,-209.835 233.182,-203.556 222.595,-203.142 224.648,-209.835"/>
</g>
<!-- Node7 -->
<g id="node7" class="node"><title>Node7</title>
<g id="a_node7"><a xlink:href="../../df/df8/class_cell_society_view.html#a7bdbd4e8fd3893e672eb22015603f6dc" target="_top" xlink:title="CellSocietyView.makeButtons">
<polygon fill="white" stroke="black" points="201,-329.5 201,-348.5 359,-348.5 359,-329.5 201,-329.5"/>
<text text-anchor="middle" x="280" y="-336.5" font-family="Helvetica,sans-Serif" font-size="10.00">CellSocietyView.makeButtons</text>
</a>
</g>
</g>
<!-- Node1&#45;&gt;Node7 -->
<g id="edge6" class="edge"><title>Node1&#45;&gt;Node7</title>
<path fill="none" stroke="midnightblue" d="M139.428,-315.501C162.188,-319.333 188.619,-323.783 212.32,-327.773"/>
<polygon fill="midnightblue" stroke="midnightblue" points="211.849,-331.243 222.291,-329.452 213.011,-324.34 211.849,-331.243"/>
</g>
<!-- Node16 -->
<g id="node16" class="node"><title>Node16</title>
<g id="a_node16"><a xlink:href="../../dd/d97/class_grid_drawer.html#a8853ef53b515fd60ca524f05a3dbf897" target="_top" xlink:title="GridDrawer.updateNextGen">
<polygon fill="white" stroke="black" points="604,-389.5 604,-408.5 752,-408.5 752,-389.5 604,-389.5"/>
<text text-anchor="middle" x="678" y="-396.5" font-family="Helvetica,sans-Serif" font-size="10.00">GridDrawer.updateNextGen</text>
</a>
</g>
</g>
<!-- Node1&#45;&gt;Node16 -->
<g id="edge33" class="edge"><title>Node1&#45;&gt;Node16</title>
<path fill="none" stroke="midnightblue" d="M99.7935,-315.62C121.954,-327.8 162.544,-348.357 200,-358 334.746,-392.691 497.232,-399.544 593.562,-400.132"/>
<polygon fill="midnightblue" stroke="midnightblue" points="593.811,-403.633 603.824,-400.173 593.838,-396.633 593.811,-403.633"/>
</g>
<!-- Node19 -->
<g id="node19" class="node"><title>Node19</title>
<g id="a_node19"><a xlink:href="../../dd/d97/class_grid_drawer.html#ab8aa1cc79c89cfbc7b9d8516a5dee463" target="_top" xlink:title="GridDrawer.makeGrid">
<polygon fill="white" stroke="black" points="220.5,-93.5 220.5,-112.5 339.5,-112.5 339.5,-93.5 220.5,-93.5"/>
<text text-anchor="middle" x="280" y="-100.5" font-family="Helvetica,sans-Serif" font-size="10.00">GridDrawer.makeGrid</text>
</a>
</g>
</g>
<!-- Node1&#45;&gt;Node19 -->
<g id="edge22" class="edge"><title>Node1&#45;&gt;Node19</title>
<path fill="none" stroke="midnightblue" d="M90.9098,-296.49C109.344,-274.474 156.879,-218.557 200,-175 219.678,-155.123 243.57,-133.693 259.892,-119.429"/>
<polygon fill="midnightblue" stroke="midnightblue" points="262.42,-121.869 267.675,-112.669 257.83,-116.584 262.42,-121.869"/>
</g>
<!-- Node28 -->
<g id="node28" class="node"><title>Node28</title>
<g id="a_node28"><a xlink:href="../../df/df8/class_cell_society_view.html#adf6a6b0542d00677a9fffbb8e3c03ffe" target="_top" xlink:title="CellSocietyView.makeTimeline">
<polygon fill="white" stroke="black" points="200,-427.5 200,-446.5 360,-446.5 360,-427.5 200,-427.5"/>
<text text-anchor="middle" x="280" y="-434.5" font-family="Helvetica,sans-Serif" font-size="10.00">CellSocietyView.makeTimeline</text>
</a>
</g>
</g>
<!-- Node1&#45;&gt;Node28 -->
<g id="edge31" class="edge"><title>Node1&#45;&gt;Node28</title>
<path fill="none" stroke="midnightblue" d="M90.7395,-315.519C108.107,-336.269 152.406,-385.884 200,-413 207.782,-417.434 216.472,-421.133 225.162,-424.192"/>
<polygon fill="midnightblue" stroke="midnightblue" points="224.334,-427.603 234.926,-427.379 226.506,-420.949 224.334,-427.603"/>
</g>
<!-- Node4 -->
<g id="node4" class="node"><title>Node4</title>
<g id="a_node4"><a xlink:href="../../da/d74/class_grid.html#af432eea602599251a5e456fd24e38661" target="_top" xlink:title="Grid.makeGrid">
<polygon fill="white" stroke="black" points="431,-225.5 431,-244.5 517,-244.5 517,-225.5 431,-225.5"/>
<text text-anchor="middle" x="474" y="-232.5" font-family="Helvetica,sans-Serif" font-size="10.00">Grid.makeGrid</text>
</a>
</g>
</g>
<!-- Node3&#45;&gt;Node4 -->
<g id="edge3" class="edge"><title>Node3&#45;&gt;Node4</title>
<path fill="none" stroke="midnightblue" d="M306.894,-235C335.898,-235 383.675,-235 420.563,-235"/>
<polygon fill="midnightblue" stroke="midnightblue" points="420.653,-238.5 430.653,-235 420.653,-231.5 420.653,-238.5"/>
</g>
<!-- Node6 -->
<g id="node6" class="node"><title>Node6</title>
<g id="a_node6"><a xlink:href="../../d2/d40/class_cellular_automata.html#ac4d0b9bd9416cb4b3567caacc05cd55a" target="_top" xlink:title="CellularAutomata.setUpInitial\lConfig">
<polygon fill="white" stroke="black" points="396,-176 396,-206 552,-206 552,-176 396,-176"/>
<text text-anchor="start" x="404" y="-194" font-family="Helvetica,sans-Serif" font-size="10.00">CellularAutomata.setUpInitial</text>
<text text-anchor="middle" x="474" y="-183" font-family="Helvetica,sans-Serif" font-size="10.00">Config</text>
</a>
</g>
</g>
<!-- Node5&#45;&gt;Node6 -->
<g id="edge5" class="edge"><title>Node5&#45;&gt;Node6</title>
<path fill="none" stroke="midnightblue" d="M338.606,-193.1C353.376,-192.869 369.597,-192.616 385.504,-192.367"/>
<polygon fill="midnightblue" stroke="midnightblue" points="385.95,-195.861 395.894,-192.205 385.84,-188.862 385.95,-195.861"/>
</g>
<!-- Node8 -->
<g id="node8" class="node"><title>Node8</title>
<g id="a_node8"><a xlink:href="../../df/df8/class_cell_society_view.html#a656cfed0ba32bc41bbd0c4087860db4b" target="_top" xlink:title="CellSocietyView.makeLoad\lButton">
<polygon fill="white" stroke="black" points="402.5,-302 402.5,-332 545.5,-332 545.5,-302 402.5,-302"/>
<text text-anchor="start" x="410.5" y="-320" font-family="Helvetica,sans-Serif" font-size="10.00">CellSocietyView.makeLoad</text>
<text text-anchor="middle" x="474" y="-309" font-family="Helvetica,sans-Serif" font-size="10.00">Button</text>
</a>
</g>
</g>
<!-- Node7&#45;&gt;Node8 -->
<g id="edge7" class="edge"><title>Node7&#45;&gt;Node8</title>
<path fill="none" stroke="midnightblue" d="M359.094,-330.052C370.063,-328.795 381.356,-327.501 392.371,-326.239"/>
<polygon fill="midnightblue" stroke="midnightblue" points="392.856,-329.706 402.392,-325.09 392.059,-322.752 392.856,-329.706"/>
</g>
<!-- Node9 -->
<g id="node9" class="node"><title>Node9</title>
<g id="a_node9"><a xlink:href="../../df/df8/class_cell_society_view.html#ae09ddc20f81e90312e628d712a5c6afc" target="_top" xlink:title="CellSocietyView.makeUIButton">
<polygon fill="white" stroke="black" points="597,-347.5 597,-366.5 759,-366.5 759,-347.5 597,-347.5"/>
<text text-anchor="middle" x="678" y="-354.5" font-family="Helvetica,sans-Serif" font-size="10.00">CellSocietyView.makeUIButton</text>
</a>
</g>
</g>
<!-- Node7&#45;&gt;Node9 -->
<g id="edge12" class="edge"><title>Node7&#45;&gt;Node9</title>
<path fill="none" stroke="midnightblue" d="M359.237,-342.556C424.628,-345.529 517.935,-349.77 586.528,-352.888"/>
<polygon fill="midnightblue" stroke="midnightblue" points="586.741,-356.401 596.89,-353.359 587.059,-349.408 586.741,-356.401"/>
</g>
<!-- Node12 -->
<g id="node12" class="node"><title>Node12</title>
<g id="a_node12"><a xlink:href="../../df/df8/class_cell_society_view.html#ad52b914fa03b45d8bc9d64fc407660f3" target="_top" xlink:title="CellSocietyView.updateView">
<polygon fill="white" stroke="black" points="399.5,-427.5 399.5,-446.5 548.5,-446.5 548.5,-427.5 399.5,-427.5"/>
<text text-anchor="middle" x="474" y="-434.5" font-family="Helvetica,sans-Serif" font-size="10.00">CellSocietyView.updateView</text>
</a>
</g>
</g>
<!-- Node7&#45;&gt;Node12 -->
<g id="edge13" class="edge"><title>Node7&#45;&gt;Node12</title>
<path fill="none" stroke="midnightblue" d="M299.759,-348.575C333.669,-365.883 405.325,-402.457 445.033,-422.725"/>
<polygon fill="midnightblue" stroke="midnightblue" points="443.666,-425.957 454.165,-427.386 446.849,-419.722 443.666,-425.957"/>
</g>
<!-- Node8&#45;&gt;Node9 -->
<g id="edge8" class="edge"><title>Node8&#45;&gt;Node9</title>
<path fill="none" stroke="midnightblue" d="M545.65,-330.99C569.633,-335.739 596.134,-340.987 619.013,-345.517"/>
<polygon fill="midnightblue" stroke="midnightblue" points="618.423,-348.969 628.913,-347.478 619.783,-342.102 618.423,-348.969"/>
</g>
<!-- Node10 -->
<g id="node10" class="node"><title>Node10</title>
<g id="a_node10"><a xlink:href="../../df/df8/class_cell_society_view.html#a2c047a3972078bb0a5490ed225ef2dfa" target="_top" xlink:title="CellSocietyView.loadNewFile">
<polygon fill="white" stroke="black" points="603.5,-304.5 603.5,-323.5 752.5,-323.5 752.5,-304.5 603.5,-304.5"/>
<text text-anchor="middle" x="678" y="-311.5" font-family="Helvetica,sans-Serif" font-size="10.00">CellSocietyView.loadNewFile</text>
</a>
</g>
</g>
<!-- Node8&#45;&gt;Node10 -->
<g id="edge9" class="edge"><title>Node8&#45;&gt;Node10</title>
<path fill="none" stroke="midnightblue" d="M545.65,-315.951C560.956,-315.723 577.287,-315.481 593.047,-315.247"/>
<polygon fill="midnightblue" stroke="midnightblue" points="593.358,-318.743 603.305,-315.094 593.254,-311.743 593.358,-318.743"/>
</g>
<!-- Node11 -->
<g id="node11" class="node"><title>Node11</title>
<g id="a_node11"><a xlink:href="../../df/df8/class_cell_society_view.html#a2ee793e471cc5731ce39c1450f058dd5" target="_top" xlink:title="CellSocietyView.parseFile">
<polygon fill="white" stroke="black" points="821.5,-283.5 821.5,-302.5 956.5,-302.5 956.5,-283.5 821.5,-283.5"/>
<text text-anchor="middle" x="889" y="-290.5" font-family="Helvetica,sans-Serif" font-size="10.00">CellSocietyView.parseFile</text>
</a>
</g>
</g>
<!-- Node10&#45;&gt;Node11 -->
<g id="edge10" class="edge"><title>Node10&#45;&gt;Node11</title>
<path fill="none" stroke="midnightblue" d="M752.686,-306.596C771.613,-304.694 792.022,-302.644 811.108,-300.726"/>
<polygon fill="midnightblue" stroke="midnightblue" points="811.654,-304.189 821.254,-299.707 810.954,-297.224 811.654,-304.189"/>
</g>
<!-- Node11&#45;&gt;Node1 -->
<g id="edge11" class="edge"><title>Node11&#45;&gt;Node1</title>
<path fill="none" stroke="midnightblue" d="M821.144,-292.121C726.492,-291.077 548.009,-289.845 396,-293 321.185,-294.553 236.375,-298.192 173.926,-301.226"/>
<polygon fill="midnightblue" stroke="midnightblue" points="173.527,-297.741 163.71,-301.727 173.869,-304.733 173.527,-297.741"/>
</g>
<!-- Node13 -->
<g id="node13" class="node"><title>Node13</title>
<g id="a_node13"><a xlink:href="../../d2/d40/class_cellular_automata.html#a8f4c8a2f32137db67dd31f5afb4b62c3" target="_top" xlink:title="CellularAutomata.updateNextGen">
<polygon fill="white" stroke="black" points="588.5,-427.5 588.5,-446.5 767.5,-446.5 767.5,-427.5 588.5,-427.5"/>
<text text-anchor="middle" x="678" y="-434.5" font-family="Helvetica,sans-Serif" font-size="10.00">CellularAutomata.updateNextGen</text>
</a>
</g>
</g>
<!-- Node12&#45;&gt;Node13 -->
<g id="edge14" class="edge"><title>Node12&#45;&gt;Node13</title>
<path fill="none" stroke="midnightblue" d="M548.784,-437C558.32,-437 568.205,-437 578.065,-437"/>
<polygon fill="midnightblue" stroke="midnightblue" points="578.314,-440.5 588.314,-437 578.314,-433.5 578.314,-440.5"/>
</g>
<!-- Node12&#45;&gt;Node16 -->
<g id="edge19" class="edge"><title>Node12&#45;&gt;Node16</title>
<path fill="none" stroke="midnightblue" d="M525.712,-427.46C553.207,-422.288 587.376,-415.86 616.282,-410.422"/>
<polygon fill="midnightblue" stroke="midnightblue" points="617.086,-413.832 626.267,-408.544 615.792,-406.953 617.086,-413.832"/>
</g>
<!-- Node14 -->
<g id="node14" class="node"><title>Node14</title>
<g id="a_node14"><a xlink:href="../../d2/d40/class_cellular_automata.html#ab6b9e3ca964f405470ec0acc064d9b3a" target="_top" xlink:title="CellularAutomata.checkRules">
<polygon fill="white" stroke="black" points="811.5,-427.5 811.5,-446.5 966.5,-446.5 966.5,-427.5 811.5,-427.5"/>
<text text-anchor="middle" x="889" y="-434.5" font-family="Helvetica,sans-Serif" font-size="10.00">CellularAutomata.checkRules</text>
</a>
</g>
</g>
<!-- Node13&#45;&gt;Node14 -->
<g id="edge15" class="edge"><title>Node13&#45;&gt;Node14</title>
<path fill="none" stroke="midnightblue" d="M767.635,-437C778.793,-437 790.199,-437 801.327,-437"/>
<polygon fill="midnightblue" stroke="midnightblue" points="801.453,-440.5 811.453,-437 801.453,-433.5 801.453,-440.5"/>
</g>
<!-- Node15 -->
<g id="node15" class="node"><title>Node15</title>
<g id="a_node15"><a xlink:href="../../d2/d40/class_cellular_automata.html#ab39b5164764f20382801aa9a4663eb4b" target="_top" xlink:title="CellularAutomata.handleUpdate">
<polygon fill="white" stroke="black" points="804,-465.5 804,-484.5 974,-484.5 974,-465.5 804,-465.5"/>
<text text-anchor="middle" x="889" y="-472.5" font-family="Helvetica,sans-Serif" font-size="10.00">CellularAutomata.handleUpdate</text>
</a>
</g>
</g>
<!-- Node13&#45;&gt;Node15 -->
<g id="edge17" class="edge"><title>Node13&#45;&gt;Node15</title>
<path fill="none" stroke="midnightblue" d="M731.47,-446.54C760.041,-451.735 795.58,-458.196 825.569,-463.649"/>
<polygon fill="midnightblue" stroke="midnightblue" points="825.044,-467.111 835.509,-465.456 826.296,-460.224 825.044,-467.111"/>
</g>
<!-- Node14&#45;&gt;Node2 -->
<g id="edge16" class="edge"><title>Node14&#45;&gt;Node2</title>
<path fill="none" stroke="midnightblue" d="M937.44,-446.589C962.808,-451.716 994.227,-458.067 1020.92,-463.463"/>
<polygon fill="midnightblue" stroke="midnightblue" points="1020.41,-466.929 1030.9,-465.48 1021.79,-460.068 1020.41,-466.929"/>
</g>
<!-- Node15&#45;&gt;Node2 -->
<g id="edge18" class="edge"><title>Node15&#45;&gt;Node2</title>
<path fill="none" stroke="midnightblue" d="M974.102,-475C982.582,-475 991.17,-475 999.587,-475"/>
<polygon fill="midnightblue" stroke="midnightblue" points="999.75,-478.5 1009.75,-475 999.75,-471.5 999.75,-478.5"/>
</g>
<!-- Node17 -->
<g id="node17" class="node"><title>Node17</title>
<g id="a_node17"><a xlink:href="../../da/d74/class_grid.html#a2f2ccb1511e367a7d6e9bcb3f708cd38" target="_top" xlink:title="Grid.getCellAt">
<polygon fill="white" stroke="black" points="847.5,-351.5 847.5,-370.5 930.5,-370.5 930.5,-351.5 847.5,-351.5"/>
<text text-anchor="middle" x="889" y="-358.5" font-family="Helvetica,sans-Serif" font-size="10.00">Grid.getCellAt</text>
</a>
</g>
</g>
<!-- Node16&#45;&gt;Node17 -->
<g id="edge20" class="edge"><title>Node16&#45;&gt;Node17</title>
<path fill="none" stroke="midnightblue" d="M731.47,-389.46C763.875,-383.568 805.243,-376.047 837.312,-370.216"/>
<polygon fill="midnightblue" stroke="midnightblue" points="838.161,-373.619 847.374,-368.387 836.909,-366.732 838.161,-373.619"/>
</g>
<!-- Node18 -->
<g id="node18" class="node"><title>Node18</title>
<g id="a_node18"><a xlink:href="../../dd/d11/class_cell.html#aac3ac473652b817fe344534f4bec7e6f" target="_top" xlink:title="Cell.getState">
<polygon fill="white" stroke="black" points="849.5,-389.5 849.5,-408.5 928.5,-408.5 928.5,-389.5 849.5,-389.5"/>
<text text-anchor="middle" x="889" y="-396.5" font-family="Helvetica,sans-Serif" font-size="10.00">Cell.getState</text>
</a>
</g>
</g>
<!-- Node16&#45;&gt;Node18 -->
<g id="edge21" class="edge"><title>Node16&#45;&gt;Node18</title>
<path fill="none" stroke="midnightblue" d="M752.098,-399C780.86,-399 813.12,-399 838.99,-399"/>
<polygon fill="midnightblue" stroke="midnightblue" points="839.293,-402.5 849.293,-399 839.293,-395.5 839.293,-402.5"/>
</g>
<!-- Node20 -->
<g id="node20" class="node"><title>Node20</title>
<g id="a_node20"><a xlink:href="../../dd/d97/class_grid_drawer.html#af9a09b2ee81450f13a117261b67718e0" target="_top" xlink:title="GridDrawer.makeUnitGrid">
<polygon fill="white" stroke="black" points="405,-137.5 405,-156.5 543,-156.5 543,-137.5 405,-137.5"/>
<text text-anchor="middle" x="474" y="-144.5" font-family="Helvetica,sans-Serif" font-size="10.00">GridDrawer.makeUnitGrid</text>
</a>
</g>
</g>
<!-- Node19&#45;&gt;Node20 -->
<g id="edge23" class="edge"><title>Node19&#45;&gt;Node20</title>
<path fill="none" stroke="midnightblue" d="M322.661,-112.547C351.721,-119.207 390.686,-128.136 421.665,-135.236"/>
<polygon fill="midnightblue" stroke="midnightblue" points="420.891,-138.649 431.42,-137.471 422.455,-131.826 420.891,-138.649"/>
</g>
<!-- Node25 -->
<g id="node25" class="node"><title>Node25</title>
<g id="a_node25"><a xlink:href="../../dd/d97/class_grid_drawer.html#a54f548bdc35a2afef9af05a134c149f5" target="_top" xlink:title="GridDrawer.calculateCell\lWidth">
<polygon fill="white" stroke="black" points="408,-88 408,-118 540,-118 540,-88 408,-88"/>
<text text-anchor="start" x="416" y="-106" font-family="Helvetica,sans-Serif" font-size="10.00">GridDrawer.calculateCell</text>
<text text-anchor="middle" x="474" y="-95" font-family="Helvetica,sans-Serif" font-size="10.00">Width</text>
</a>
</g>
</g>
<!-- Node19&#45;&gt;Node25 -->
<g id="edge28" class="edge"><title>Node19&#45;&gt;Node25</title>
<path fill="none" stroke="midnightblue" d="M339.65,-103C357.878,-103 378.235,-103 397.447,-103"/>
<polygon fill="midnightblue" stroke="midnightblue" points="397.675,-106.5 407.675,-103 397.675,-99.5001 397.675,-106.5"/>
</g>
<!-- Node26 -->
<g id="node26" class="node"><title>Node26</title>
<g id="a_node26"><a xlink:href="../../dd/d97/class_grid_drawer.html#a3f6bb5e9307bf84f9f8f4ae467ec85cf" target="_top" xlink:title="GridDrawer.calculateCell\lHeight">
<polygon fill="white" stroke="black" points="408,-39 408,-69 540,-69 540,-39 408,-39"/>
<text text-anchor="start" x="416" y="-57" font-family="Helvetica,sans-Serif" font-size="10.00">GridDrawer.calculateCell</text>
<text text-anchor="middle" x="474" y="-46" font-family="Helvetica,sans-Serif" font-size="10.00">Height</text>
</a>
</g>
</g>
<!-- Node19&#45;&gt;Node26 -->
<g id="edge29" class="edge"><title>Node19&#45;&gt;Node26</title>
<path fill="none" stroke="midnightblue" d="M318.475,-93.436C342.783,-87.2324 375.186,-78.9629 404.041,-71.599"/>
<polygon fill="midnightblue" stroke="midnightblue" points="405.256,-74.9012 414.08,-69.037 403.525,-68.1186 405.256,-74.9012"/>
</g>
<!-- Node27 -->
<g id="node27" class="node"><title>Node27</title>
<g id="a_node27"><a xlink:href="../../dd/d97/class_grid_drawer.html#a8fba9cca18cee03651775b5785722778" target="_top" xlink:title="GridDrawer.scale">
<polygon fill="white" stroke="black" points="425.5,-0.5 425.5,-19.5 522.5,-19.5 522.5,-0.5 425.5,-0.5"/>
<text text-anchor="middle" x="474" y="-7.5" font-family="Helvetica,sans-Serif" font-size="10.00">GridDrawer.scale</text>
</a>
</g>
</g>
<!-- Node19&#45;&gt;Node27 -->
<g id="edge30" class="edge"><title>Node19&#45;&gt;Node27</title>
<path fill="none" stroke="midnightblue" d="M292.996,-93.3469C313.114,-77.6205 355.445,-46.4746 396,-29 402.202,-26.3276 408.854,-23.9818 415.556,-21.9355"/>
<polygon fill="midnightblue" stroke="midnightblue" points="416.701,-25.2487 425.364,-19.1487 414.788,-18.5152 416.701,-25.2487"/>
</g>
<!-- Node21 -->
<g id="node21" class="node"><title>Node21</title>
<g id="a_node21"><a xlink:href="../../dd/d97/class_grid_drawer.html#a69ef437bdcbcdb3dca6b206b73a1ab1f" target="_top" xlink:title="GridDrawer.drawUnitCell">
<polygon fill="white" stroke="black" points="612.5,-137.5 612.5,-156.5 743.5,-156.5 743.5,-137.5 612.5,-137.5"/>
<text text-anchor="middle" x="678" y="-144.5" font-family="Helvetica,sans-Serif" font-size="10.00">GridDrawer.drawUnitCell</text>
</a>
</g>
</g>
<!-- Node20&#45;&gt;Node21 -->
<g id="edge24" class="edge"><title>Node20&#45;&gt;Node21</title>
<path fill="none" stroke="midnightblue" d="M543.106,-147C562.038,-147 582.702,-147 602.005,-147"/>
<polygon fill="midnightblue" stroke="midnightblue" points="602.263,-150.5 612.263,-147 602.263,-143.5 602.263,-150.5"/>
</g>
<!-- Node22 -->
<g id="node22" class="node"><title>Node22</title>
<g id="a_node22"><a xlink:href="../../dd/d97/class_grid_drawer.html#a53b8613b7621224084096d76e2316452" target="_top" xlink:title="GridDrawer.drawTriangle">
<polygon fill="white" stroke="black" points="823.5,-175.5 823.5,-194.5 954.5,-194.5 954.5,-175.5 823.5,-175.5"/>
<text text-anchor="middle" x="889" y="-182.5" font-family="Helvetica,sans-Serif" font-size="10.00">GridDrawer.drawTriangle</text>
</a>
</g>
</g>
<!-- Node21&#45;&gt;Node22 -->
<g id="edge25" class="edge"><title>Node21&#45;&gt;Node22</title>
<path fill="none" stroke="midnightblue" d="M731.47,-156.54C760.041,-161.735 795.58,-168.196 825.569,-173.649"/>
<polygon fill="midnightblue" stroke="midnightblue" points="825.044,-177.111 835.509,-175.456 826.296,-170.224 825.044,-177.111"/>
</g>
<!-- Node23 -->
<g id="node23" class="node"><title>Node23</title>
<g id="a_node23"><a xlink:href="../../dd/d97/class_grid_drawer.html#a08b9d58cde5fafa07e226d4ed2ebc655" target="_top" xlink:title="GridDrawer.drawSquare">
<polygon fill="white" stroke="black" points="824.5,-137.5 824.5,-156.5 953.5,-156.5 953.5,-137.5 824.5,-137.5"/>
<text text-anchor="middle" x="889" y="-144.5" font-family="Helvetica,sans-Serif" font-size="10.00">GridDrawer.drawSquare</text>
</a>
</g>
</g>
<!-- Node21&#45;&gt;Node23 -->
<g id="edge26" class="edge"><title>Node21&#45;&gt;Node23</title>
<path fill="none" stroke="midnightblue" d="M743.698,-147C766.046,-147 791.25,-147 814.267,-147"/>
<polygon fill="midnightblue" stroke="midnightblue" points="814.325,-150.5 824.325,-147 814.325,-143.5 814.325,-150.5"/>
</g>
<!-- Node24 -->
<g id="node24" class="node"><title>Node24</title>
<g id="a_node24"><a xlink:href="../../dd/d97/class_grid_drawer.html#a260f7ce1d53af7f88e1c4ee3a4a3de2b" target="_top" xlink:title="GridDrawer.drawHexagon">
<polygon fill="white" stroke="black" points="820.5,-99.5 820.5,-118.5 957.5,-118.5 957.5,-99.5 820.5,-99.5"/>
<text text-anchor="middle" x="889" y="-106.5" font-family="Helvetica,sans-Serif" font-size="10.00">GridDrawer.drawHexagon</text>
</a>
</g>
</g>
<!-- Node21&#45;&gt;Node24 -->
<g id="edge27" class="edge"><title>Node21&#45;&gt;Node24</title>
<path fill="none" stroke="midnightblue" d="M731.47,-137.46C760.041,-132.265 795.58,-125.804 825.569,-120.351"/>
<polygon fill="midnightblue" stroke="midnightblue" points="826.296,-123.776 835.509,-118.544 825.044,-116.889 826.296,-123.776"/>
</g>
<!-- Node28&#45;&gt;Node12 -->
<g id="edge32" class="edge"><title>Node28&#45;&gt;Node12</title>
<path fill="none" stroke="midnightblue" d="M360.202,-437C369.685,-437 379.393,-437 388.941,-437"/>
<polygon fill="midnightblue" stroke="midnightblue" points="389.22,-440.5 399.22,-437 389.22,-433.5 389.22,-440.5"/>
</g>
</g>
</svg>
        <g id="navigator" transform="translate(0 0)" fill="#404254">
                <rect fill="#f2f5e9" fill-opacity="0.5" stroke="#606060" stroke-width=".5" x="0" y="0" width="60" height="60"/>
                <use id="zoomplus" xlink:href="#zoomPlus" x="17" y="9" onmousedown="handleZoom(evt,'in')"/>
                <use id="zoomminus" xlink:href="#zoomMin" x="42" y="9" onmousedown="handleZoom(evt,'out')"/>
                <use id="reset" xlink:href="#resetDef" x="30" y="36" onmousedown="handleReset()"/>
                <g id="arrowUp" xlink:href="#dirArrow" transform="translate(30 24)" onmousedown="handlePan(0,-1)">
                  <use xlink:href="#rim" fill="#404040">
                        <set attributeName="fill" to="#808080" begin="arrowUp.mouseover" end="arrowUp.mouseout"/>
                  </use>
                  <path fill="none" stroke="white" stroke-width="1.5" d="M0,-3.0v7 M-2.5,-0.5L0,-3.0L2.5,-0.5"/>
                </g>
                <g id="arrowRight" xlink:href="#dirArrow" transform="rotate(90) translate(36 -43)" onmousedown="handlePan(1,0)">
                  <use xlink:href="#rim" fill="#404040">
                        <set attributeName="fill" to="#808080" begin="arrowRight.mouseover" end="arrowRight.mouseout"/>
                  </use>
                  <path fill="none" stroke="white" stroke-width="1.5" d="M0,-3.0v7 M-2.5,-0.5L0,-3.0L2.5,-0.5"/>
                </g>
                <g id="arrowDown" xlink:href="#dirArrow" transform="rotate(180) translate(-30 -48)" onmousedown="handlePan(0,1)">
                  <use xlink:href="#rim" fill="#404040">
                        <set attributeName="fill" to="#808080" begin="arrowDown.mouseover" end="arrowDown.mouseout"/>
                  </use>
                  <path fill="none" stroke="white" stroke-width="1.5" d="M0,-3.0v7 M-2.5,-0.5L0,-3.0L2.5,-0.5"/>
                </g>
                <g id="arrowLeft" xlink:href="#dirArrow" transform="rotate(270) translate(-36 17)" onmousedown="handlePan(-1,0)">
                  <use xlink:href="#rim" fill="#404040">
                        <set attributeName="fill" to="#808080" begin="arrowLeft.mouseover" end="arrowLeft.mouseout"/>
                  </use>
                  <path fill="none" stroke="white" stroke-width="1.5" d="M0,-3.0v7 M-2.5,-0.5L0,-3.0L2.5,-0.5"/>
                </g>
        </g>
        <svg viewBox="0 0 15 15" width="100%" height="30px" preserveAspectRatio="xMaxYMin meet">
         <g id="arrow_out" transform="scale(0.3 0.3)">
          <a xlink:href="class_cell_society_view_a767ab215ca329ba41b1493702141f841_cgraph_org.svg" target="_base">
           <rect id="button" ry="5" rx="5" y="6" x="6" height="38" width="38"
                fill="#f2f5e9" fill-opacity="0.5" stroke="#606060" stroke-width="1.0"/>
           <path id="arrow"
             d="M 11.500037,31.436501 C 11.940474,20.09759 22.043105,11.32322 32.158766,21.979434 L 37.068811,17.246167 C 37.068811,17.246167 37.088388,32 37.088388,32 L 22.160133,31.978069 C 22.160133,31.978069 26.997745,27.140456 26.997745,27.140456 C 18.528582,18.264221 13.291696,25.230495 11.500037,31.436501 z"
             style="fill:#404040;"/>
          </a>
         </g>
        </svg>
</svg>
