<?xml version="1.0" encoding="UTF-8" standalone="no"?>
<!DOCTYPE svg PUBLIC "-//W3C//DTD SVG 1.1//EN"
 "http://www.w3.org/Graphics/SVG/1.1/DTD/svg11.dtd">
<!-- Generated by graphviz version 2.36.0 (20140111.2315)
 -->
<!-- Title: CellSocietyView.makeUIButton Pages: 1 -->
<svg width="568pt" height="28pt"
 viewBox="0.00 0.00 568.00 28.00" xmlns="http://www.w3.org/2000/svg" xmlns:xlink="http://www.w3.org/1999/xlink">
<g id="graph0" class="graph" transform="scale(1 1) rotate(0) translate(4 24)">
<title>CellSocietyView.makeUIButton</title>
<polygon fill="white" stroke="none" points="-4,4 -4,-24 564,-24 564,4 -4,4"/>
<!-- Node1 -->
<g id="node1" class="node"><title>Node1</title>
<polygon fill="#bfbfbf" stroke="black" points="0,-0.5 0,-19.5 162,-19.5 162,-0.5 0,-0.5"/>
<text text-anchor="middle" x="81" y="-7.5" font-family="Helvetica,sans-Serif" font-size="10.00">CellSocietyView.makeUIButton</text>
</g>
<!-- Node2 -->
<g id="node2" class="node"><title>Node2</title>
<g id="a_node2"><a xlink:href="../../df/df8/class_cell_society_view.html#a7bdbd4e8fd3893e672eb22015603f6dc" target="_top" xlink:title="CellSocietyView.makeButtons">
<polygon fill="white" stroke="black" points="198,-0.5 198,-19.5 356,-19.5 356,-0.5 198,-0.5"/>
<text text-anchor="middle" x="277" y="-7.5" font-family="Helvetica,sans-Serif" font-size="10.00">CellSocietyView.makeButtons</text>
</a>
</g>
</g>
<!-- Node1&#45;&gt;Node2 -->
<g id="edge1" class="edge"><title>Node1&#45;&gt;Node2</title>
<path fill="none" stroke="midnightblue" d="M172.045,-10C180.62,-10 189.268,-10 197.72,-10"/>
<polygon fill="midnightblue" stroke="midnightblue" points="172.027,-6.5001 162.027,-10 172.027,-13.5001 172.027,-6.5001"/>
</g>
<!-- Node3 -->
<g id="node3" class="node"><title>Node3</title>
<g id="a_node3"><a xlink:href="../../df/df8/class_cell_society_view.html#abe7bcd77ca077f5e5e0f9946eea96406" target="_top" xlink:title="CellSocietyView.CellSocietyView">
<polygon fill="white" stroke="black" points="392.5,-0.5 392.5,-19.5 559.5,-19.5 559.5,-0.5 392.5,-0.5"/>
<text text-anchor="middle" x="476" y="-7.5" font-family="Helvetica,sans-Serif" font-size="10.00">CellSocietyView.CellSocietyView</text>
</a>
</g>
</g>
<!-- Node2&#45;&gt;Node3 -->
<g id="edge2" class="edge"><title>Node2&#45;&gt;Node3</title>
<path fill="none" stroke="midnightblue" d="M366.286,-10C374.982,-10 383.786,-10 392.423,-10"/>
<polygon fill="midnightblue" stroke="midnightblue" points="366.143,-6.5001 356.143,-10 366.143,-13.5001 366.143,-6.5001"/>
</g>
</g>
</svg>
