<?xml version="1.0" encoding="UTF-8" standalone="no"?>
<!DOCTYPE svg PUBLIC "-//W3C//DTD SVG 1.1//EN"
 "http://www.w3.org/Graphics/SVG/1.1/DTD/svg11.dtd">
<!-- Generated by graphviz version 2.36.0 (20140111.2315)
 -->
<!-- Title: CellSocietyView.updateView Pages: 1 -->
<svg width="1476pt" height="74pt"
 viewBox="0.00 0.00 1476.00 74.00" xmlns="http://www.w3.org/2000/svg" xmlns:xlink="http://www.w3.org/1999/xlink">
<g id="graph0" class="graph" transform="scale(1 1) rotate(0) translate(4 70)">
<title>CellSocietyView.updateView</title>
<polygon fill="white" stroke="none" points="-4,4 -4,-70 1472,-70 1472,4 -4,4"/>
<!-- Node1 -->
<g id="node1" class="node"><title>Node1</title>
<polygon fill="#bfbfbf" stroke="black" points="0.5,-19.5 0.5,-38.5 149.5,-38.5 149.5,-19.5 0.5,-19.5"/>
<text text-anchor="middle" x="75" y="-26.5" font-family="Helvetica,sans-Serif" font-size="10.00">CellSocietyView.updateView</text>
</g>
<!-- Node2 -->
<g id="node2" class="node"><title>Node2</title>
<g id="a_node2"><a xlink:href="../../df/df8/class_cell_society_view.html#aec6e94a6cf275f0b5d64a4b8adccd7d0" target="_top" xlink:title="CellSocietyView.makeStep\lButton">
<polygon fill="white" stroke="black" points="186.5,-36 186.5,-66 329.5,-66 329.5,-36 186.5,-36"/>
<text text-anchor="start" x="194.5" y="-54" font-family="Helvetica,sans-Serif" font-size="10.00">CellSocietyView.makeStep</text>
<text text-anchor="middle" x="258" y="-43" font-family="Helvetica,sans-Serif" font-size="10.00">Button</text>
</a>
</g>
</g>
<!-- Node1&#45;&gt;Node2 -->
<g id="edge1" class="edge"><title>Node1&#45;&gt;Node2</title>
<path fill="none" stroke="midnightblue" d="M159.651,-39.1675C168.585,-40.2535 177.61,-41.3504 186.373,-42.4155"/>
<polygon fill="midnightblue" stroke="midnightblue" points="159.969,-35.6805 149.62,-37.9482 159.124,-42.6293 159.969,-35.6805"/>
</g>
<!-- Node9 -->
<g id="node9" class="node"><title>Node9</title>
<g id="a_node9"><a xlink:href="../../df/df8/class_cell_society_view.html#adf6a6b0542d00677a9fffbb8e3c03ffe" target="_top" xlink:title="CellSocietyView.makeTimeline">
<polygon fill="white" stroke="black" points="366,-0.5 366,-19.5 526,-19.5 526,-0.5 366,-0.5"/>
<text text-anchor="middle" x="446" y="-7.5" font-family="Helvetica,sans-Serif" font-size="10.00">CellSocietyView.makeTimeline</text>
</a>
</g>
</g>
<!-- Node1&#45;&gt;Node9 -->
<g id="edge9" class="edge"><title>Node1&#45;&gt;Node9</title>
<path fill="none" stroke="midnightblue" d="M159.902,-24.6799C221.727,-21.4964 305.261,-17.1952 365.917,-14.072"/>
<polygon fill="midnightblue" stroke="midnightblue" points="159.593,-21.191 149.786,-25.2007 159.953,-28.1818 159.593,-21.191"/>
</g>
<!-- Node3 -->
<g id="node3" class="node"><title>Node3</title>
<g id="a_node3"><a xlink:href="../../df/df8/class_cell_society_view.html#a7bdbd4e8fd3893e672eb22015603f6dc" target="_top" xlink:title="CellSocietyView.makeButtons">
<polygon fill="white" stroke="black" points="367,-39.5 367,-58.5 525,-58.5 525,-39.5 367,-39.5"/>
<text text-anchor="middle" x="446" y="-46.5" font-family="Helvetica,sans-Serif" font-size="10.00">CellSocietyView.makeButtons</text>
</a>
</g>
</g>
<!-- Node2&#45;&gt;Node3 -->
<g id="edge2" class="edge"><title>Node2&#45;&gt;Node3</title>
<path fill="none" stroke="midnightblue" d="M339.635,-50.133C348.612,-50.0364 357.746,-49.9382 366.693,-49.842"/>
<polygon fill="midnightblue" stroke="midnightblue" points="339.546,-46.6336 329.584,-50.241 339.621,-53.6332 339.546,-46.6336"/>
</g>
<!-- Node4 -->
<g id="node4" class="node"><title>Node4</title>
<g id="a_node4"><a xlink:href="../../df/df8/class_cell_society_view.html#a767ab215ca329ba41b1493702141f841" target="_top" xlink:title="CellSocietyView.makeCAGame">
<polygon fill="white" stroke="black" points="562.5,-1.5 562.5,-20.5 725.5,-20.5 725.5,-1.5 562.5,-1.5"/>
<text text-anchor="middle" x="644" y="-8.5" font-family="Helvetica,sans-Serif" font-size="10.00">CellSocietyView.makeCAGame</text>
</a>
</g>
</g>
<!-- Node3&#45;&gt;Node4 -->
<g id="edge3" class="edge"><title>Node3&#45;&gt;Node4</title>
<path fill="none" stroke="midnightblue" d="M506.261,-37.5106C534.227,-32.0886 567.209,-25.6942 593.774,-20.5439"/>
<polygon fill="midnightblue" stroke="midnightblue" points="505.357,-34.1206 496.206,-39.46 506.689,-40.9927 505.357,-34.1206"/>
</g>
<!-- Node5 -->
<g id="node5" class="node"><title>Node5</title>
<g id="a_node5"><a xlink:href="../../df/df8/class_cell_society_view.html#a2ee793e471cc5731ce39c1450f058dd5" target="_top" xlink:title="CellSocietyView.parseFile">
<polygon fill="white" stroke="black" points="762.5,-1.5 762.5,-20.5 897.5,-20.5 897.5,-1.5 762.5,-1.5"/>
<text text-anchor="middle" x="830" y="-8.5" font-family="Helvetica,sans-Serif" font-size="10.00">CellSocietyView.parseFile</text>
</a>
</g>
</g>
<!-- Node4&#45;&gt;Node5 -->
<g id="edge4" class="edge"><title>Node4&#45;&gt;Node5</title>
<path fill="none" stroke="midnightblue" d="M735.807,-11C744.777,-11 753.762,-11 762.42,-11"/>
<polygon fill="midnightblue" stroke="midnightblue" points="735.705,-7.5001 725.705,-11 735.705,-14.5001 735.705,-7.5001"/>
</g>
<!-- Node6 -->
<g id="node6" class="node"><title>Node6</title>
<g id="a_node6"><a xlink:href="../../df/df8/class_cell_society_view.html#a2c047a3972078bb0a5490ed225ef2dfa" target="_top" xlink:title="CellSocietyView.loadNewFile">
<polygon fill="white" stroke="black" points="934.5,-1.5 934.5,-20.5 1083.5,-20.5 1083.5,-1.5 934.5,-1.5"/>
<text text-anchor="middle" x="1009" y="-8.5" font-family="Helvetica,sans-Serif" font-size="10.00">CellSocietyView.loadNewFile</text>
</a>
</g>
</g>
<!-- Node5&#45;&gt;Node6 -->
<g id="edge5" class="edge"><title>Node5&#45;&gt;Node6</title>
<path fill="none" stroke="midnightblue" d="M907.865,-11C916.633,-11 925.557,-11 934.283,-11"/>
<polygon fill="midnightblue" stroke="midnightblue" points="907.664,-7.5001 897.664,-11 907.664,-14.5001 907.664,-7.5001"/>
</g>
<!-- Node7 -->
<g id="node7" class="node"><title>Node7</title>
<g id="a_node7"><a xlink:href="../../df/df8/class_cell_society_view.html#a656cfed0ba32bc41bbd0c4087860db4b" target="_top" xlink:title="CellSocietyView.makeLoad\lButton">
<polygon fill="white" stroke="black" points="1120.5,-15 1120.5,-45 1263.5,-45 1263.5,-15 1120.5,-15"/>
<text text-anchor="start" x="1128.5" y="-33" font-family="Helvetica,sans-Serif" font-size="10.00">CellSocietyView.makeLoad</text>
<text text-anchor="middle" x="1192" y="-22" font-family="Helvetica,sans-Serif" font-size="10.00">Button</text>
</a>
</g>
</g>
<!-- Node6&#45;&gt;Node7 -->
<g id="edge6" class="edge"><title>Node6&#45;&gt;Node7</title>
<path fill="none" stroke="midnightblue" d="M1093.65,-19.781C1102.59,-20.7189 1111.61,-21.6662 1120.37,-22.5861"/>
<polygon fill="midnightblue" stroke="midnightblue" points="1093.93,-16.2912 1083.62,-18.728 1093.2,-23.253 1093.93,-16.2912"/>
</g>
<!-- Node7&#45;&gt;Node3 -->
<g id="edge8" class="edge"><title>Node7&#45;&gt;Node3</title>
<path fill="none" stroke="midnightblue" d="M1110.31,-32.0608C966.408,-35.7356 667.307,-43.3739 525.215,-47.0026"/>
<polygon fill="midnightblue" stroke="midnightblue" points="1110.49,-35.5574 1120.39,-31.8031 1110.31,-28.5597 1110.49,-35.5574"/>
</g>
<!-- Node8 -->
<g id="node8" class="node"><title>Node8</title>
<g id="a_node8"><a xlink:href="../../df/df8/class_cell_society_view.html#a53ab66afdeb23b3fc89e54a44be7ced5" target="_top" xlink:title="CellSocietyView.CellSocietyView">
<polygon fill="white" stroke="black" points="1300.5,-20.5 1300.5,-39.5 1467.5,-39.5 1467.5,-20.5 1300.5,-20.5"/>
<text text-anchor="middle" x="1384" y="-27.5" font-family="Helvetica,sans-Serif" font-size="10.00">CellSocietyView.CellSocietyView</text>
</a>
</g>
</g>
<!-- Node7&#45;&gt;Node8 -->
<g id="edge7" class="edge"><title>Node7&#45;&gt;Node8</title>
<path fill="none" stroke="midnightblue" d="M1273.92,-30C1282.66,-30 1291.57,-30 1300.33,-30"/>
<polygon fill="midnightblue" stroke="midnightblue" points="1273.75,-26.5001 1263.75,-30 1273.75,-33.5001 1273.75,-26.5001"/>
</g>
<!-- Node9&#45;&gt;Node4 -->
<g id="edge10" class="edge"><title>Node9&#45;&gt;Node4</title>
<path fill="none" stroke="midnightblue" d="M536.271,-10.4555C544.937,-10.4997 553.696,-10.5444 562.272,-10.5881"/>
<polygon fill="midnightblue" stroke="midnightblue" points="536.174,-6.95502 526.156,-10.4039 536.138,-13.9549 536.174,-6.95502"/>
</g>
</g>
</svg>
