<?xml version="1.0" encoding="UTF-8" standalone="no"?>
<!DOCTYPE svg PUBLIC "-//W3C//DTD SVG 1.1//EN"
 "http://www.w3.org/Graphics/SVG/1.1/DTD/svg11.dtd">
<!-- Generated by graphviz version 2.36.0 (20140111.2315)
 -->
<!-- Title: CellSocietyView.makeLoadButton Pages: 1 -->
<!--zoomable 442 -->
<svg id="main" version="1.1" xmlns="http://www.w3.org/2000/svg" xmlns:xlink="http://www.w3.org/1999/xlink" xml:space="preserve" onload="init(evt)">
<style type="text/css"><![CDATA[
.edge:hover path { stroke: red; }
.edge:hover polygon { stroke: red; fill: red; }
]]></style>
<script type="text/javascript"><![CDATA[
var edges = document.getElementsByTagName('g');
if (edges && edges.length) {
  for (var i=0;i<edges.length;i++) {
    if (edges[i].id.substr(0,4)=='edge') {
      edges[i].setAttribute('class','edge');
    }
  }
}
]]></script>
        <defs>
                <circle id="rim" cx="0" cy="0" r="7"/>
                <circle id="rim2" cx="0" cy="0" r="3.5"/>
                <g id="zoomPlus">
                        <use xlink:href="#rim" fill="#404040">
                                <set attributeName="fill" to="#808080" begin="zoomplus.mouseover" end="zoomplus.mouseout"/>
                        </use>
                        <path d="M-4,0h8M0,-4v8" fill="none" stroke="white" stroke-width="1.5" pointer-events="none"/>
                </g>
                <g id="zoomMin">
                        <use xlink:href="#rim" fill="#404040">
                                <set attributeName="fill" to="#808080" begin="zoomminus.mouseover" end="zoomminus.mouseout"/>
                        </use>
                        <path d="M-4,0h8" fill="none" stroke="white" stroke-width="1.5" pointer-events="none"/>
                </g>
                <g id="dirArrow">
                        <path fill="none" stroke="white" stroke-width="1.5" d="M0,-3.0v7 M-2.5,-0.5L0,-3.0L2.5,-0.5"/>
                </g>
               <g id="resetDef">
                       <use xlink:href="#rim2" fill="#404040">
                               <set attributeName="fill" to="#808080" begin="reset.mouseover" end="reset.mouseout"/>
                       </use>
               </g>
        </defs>

<script type="text/javascript">
var viewWidth = 1700;
var viewHeight = 442;
var sectionId = 'dynsection-11';
</script>
<script xlink:href="../../svgpan.js"/>
<svg id="graph" class="graph">
<g id="viewport">
<title>CellSocietyView.makeLoadButton</title>
<polygon fill="white" stroke="none" points="-4,4 -4,-438 1696,-438 1696,4 -4,4"/>
<!-- Node1 -->
<g id="node1" class="node"><title>Node1</title>
<polygon fill="#bfbfbf" stroke="black" points="0.5,-33 0.5,-63 143.5,-63 143.5,-33 0.5,-33"/>
<text text-anchor="start" x="8.5" y="-51" font-family="Helvetica,sans-Serif" font-size="10.00">CellSocietyView.makeLoad</text>
<text text-anchor="middle" x="72" y="-40" font-family="Helvetica,sans-Serif" font-size="10.00">Button</text>
</g>
<!-- Node2 -->
<g id="node2" class="node"><title>Node2</title>
<g id="a_node2"><a xlink:href="../../df/df8/class_cell_society_view.html#a2c047a3972078bb0a5490ed225ef2dfa" target="_top" xlink:title="CellSocietyView.loadNewFile">
<polygon fill="white" stroke="black" points="180.5,-85.5 180.5,-104.5 329.5,-104.5 329.5,-85.5 180.5,-85.5"/>
<text text-anchor="middle" x="255" y="-92.5" font-family="Helvetica,sans-Serif" font-size="10.00">CellSocietyView.loadNewFile</text>
</a>
</g>
</g>
<!-- Node1&#45;&gt;Node2 -->
<g id="edge1" class="edge"><title>Node1&#45;&gt;Node2</title>
<path fill="none" stroke="midnightblue" d="M130.767,-63.0003C155.571,-69.4412 184.167,-76.8666 207.565,-82.9422"/>
<polygon fill="midnightblue" stroke="midnightblue" points="206.689,-86.3308 217.248,-85.4566 208.448,-79.5555 206.689,-86.3308"/>
</g>
<!-- Node11 -->
<g id="node11" class="node"><title>Node11</title>
<g id="a_node11"><a xlink:href="../../df/df8/class_cell_society_view.html#ae09ddc20f81e90312e628d712a5c6afc" target="_top" xlink:title="CellSocietyView.makeUIButton">
<polygon fill="white" stroke="black" points="934,-19.5 934,-38.5 1096,-38.5 1096,-19.5 934,-19.5"/>
<text text-anchor="middle" x="1015" y="-26.5" font-family="Helvetica,sans-Serif" font-size="10.00">CellSocietyView.makeUIButton</text>
</a>
</g>
</g>
<!-- Node1&#45;&gt;Node11 -->
<g id="edge33" class="edge"><title>Node1&#45;&gt;Node11</title>
<path fill="none" stroke="midnightblue" d="M143.806,-36.0808C216.236,-24.9367 332.13,-10 433,-10 433,-10 433,-10 621,-10 724.993,-10 844.283,-16.7193 923.901,-22.1662"/>
<polygon fill="midnightblue" stroke="midnightblue" points="923.677,-25.659 933.894,-22.8575 924.16,-18.6757 923.677,-25.659"/>
</g>
<!-- Node3 -->
<g id="node3" class="node"><title>Node3</title>
<g id="a_node3"><a xlink:href="../../df/df8/class_cell_society_view.html#a2ee793e471cc5731ce39c1450f058dd5" target="_top" xlink:title="CellSocietyView.parseFile">
<polygon fill="white" stroke="black" points="366.5,-104.5 366.5,-123.5 501.5,-123.5 501.5,-104.5 366.5,-104.5"/>
<text text-anchor="middle" x="434" y="-111.5" font-family="Helvetica,sans-Serif" font-size="10.00">CellSocietyView.parseFile</text>
</a>
</g>
</g>
<!-- Node2&#45;&gt;Node3 -->
<g id="edge2" class="edge"><title>Node2&#45;&gt;Node3</title>
<path fill="none" stroke="midnightblue" d="M329.526,-102.893C338.429,-103.848 347.539,-104.826 356.483,-105.786"/>
<polygon fill="midnightblue" stroke="midnightblue" points="356.174,-109.273 366.491,-106.861 356.921,-102.313 356.174,-109.273"/>
</g>
<!-- Node4 -->
<g id="node4" class="node"><title>Node4</title>
<g id="a_node4"><a xlink:href="../../df/df8/class_cell_society_view.html#a767ab215ca329ba41b1493702141f841" target="_top" xlink:title="CellSocietyView.makeCAGame">
<polygon fill="white" stroke="black" points="538.5,-133.5 538.5,-152.5 701.5,-152.5 701.5,-133.5 538.5,-133.5"/>
<text text-anchor="middle" x="620" y="-140.5" font-family="Helvetica,sans-Serif" font-size="10.00">CellSocietyView.makeCAGame</text>
</a>
</g>
</g>
<!-- Node3&#45;&gt;Node4 -->
<g id="edge3" class="edge"><title>Node3&#45;&gt;Node4</title>
<path fill="none" stroke="midnightblue" d="M495.503,-123.536C512.402,-126.199 530.914,-129.117 548.343,-131.864"/>
<polygon fill="midnightblue" stroke="midnightblue" points="548.037,-135.359 558.46,-133.458 549.127,-128.444 548.037,-135.359"/>
</g>
<!-- Node5 -->
<g id="node5" class="node"><title>Node5</title>
<g id="a_node5"><a xlink:href="../../d2/d40/class_cellular_automata.html#a34ceed434c942d34ff03169b92684726" target="_top" xlink:title="CellularAutomata.getGrid">
<polygon fill="white" stroke="black" points="1554,-114.5 1554,-133.5 1692,-133.5 1692,-114.5 1554,-114.5"/>
<text text-anchor="middle" x="1623" y="-121.5" font-family="Helvetica,sans-Serif" font-size="10.00">CellularAutomata.getGrid</text>
</a>
</g>
</g>
<!-- Node4&#45;&gt;Node5 -->
<g id="edge4" class="edge"><title>Node4&#45;&gt;Node5</title>
<path fill="none" stroke="midnightblue" d="M701.857,-149.195C781.272,-154.74 905.901,-162 1014,-162 1014,-162 1014,-162 1223,-162 1354.38,-162 1387.6,-159.055 1518,-143 1533.77,-141.059 1550.76,-138.259 1566.34,-135.402"/>
<polygon fill="midnightblue" stroke="midnightblue" points="1567.17,-138.808 1576.36,-133.526 1565.88,-131.928 1567.17,-138.808"/>
</g>
<!-- Node6 -->
<g id="node6" class="node"><title>Node6</title>
<g id="a_node6"><a xlink:href="../../da/d74/class_grid.html#acbc0b625c8f9d2f76db2f2a0d5288cd9" target="_top" xlink:title="Grid.init">
<polygon fill="white" stroke="black" points="791.5,-385.5 791.5,-404.5 844.5,-404.5 844.5,-385.5 791.5,-385.5"/>
<text text-anchor="middle" x="818" y="-392.5" font-family="Helvetica,sans-Serif" font-size="10.00">Grid.init</text>
</a>
</g>
</g>
<!-- Node4&#45;&gt;Node6 -->
<g id="edge5" class="edge"><title>Node4&#45;&gt;Node6</title>
<path fill="none" stroke="midnightblue" d="M624.489,-152.62C636.227,-183.92 677.004,-284.443 738,-347 751.639,-360.988 770.17,-372.526 785.857,-380.782"/>
<polygon fill="midnightblue" stroke="midnightblue" points="784.683,-384.11 795.188,-385.491 787.837,-377.861 784.683,-384.11"/>
</g>
<!-- Node8 -->
<g id="node8" class="node"><title>Node8</title>
<g id="a_node8"><a xlink:href="../../d2/d40/class_cellular_automata.html#a347bfd2a64ee2d615902f6922e95fa6f" target="_top" xlink:title="CellularAutomata.init">
<polygon fill="white" stroke="black" points="759.5,-318.5 759.5,-337.5 876.5,-337.5 876.5,-318.5 759.5,-318.5"/>
<text text-anchor="middle" x="818" y="-325.5" font-family="Helvetica,sans-Serif" font-size="10.00">CellularAutomata.init</text>
</a>
</g>
</g>
<!-- Node4&#45;&gt;Node8 -->
<g id="edge7" class="edge"><title>Node4&#45;&gt;Node8</title>
<path fill="none" stroke="midnightblue" d="M630.58,-152.592C650.392,-172.371 697.414,-219.018 738,-257 758.409,-276.099 782.346,-297.473 798.478,-311.731"/>
<polygon fill="midnightblue" stroke="midnightblue" points="796.327,-314.501 806.142,-318.489 800.956,-309.25 796.327,-314.501"/>
</g>
<!-- Node10 -->
<g id="node10" class="node"><title>Node10</title>
<g id="a_node10"><a xlink:href="../../df/df8/class_cell_society_view.html#a7bdbd4e8fd3893e672eb22015603f6dc" target="_top" xlink:title="CellSocietyView.makeButtons">
<polygon fill="white" stroke="black" points="739,-38.5 739,-57.5 897,-57.5 897,-38.5 739,-38.5"/>
<text text-anchor="middle" x="818" y="-45.5" font-family="Helvetica,sans-Serif" font-size="10.00">CellSocietyView.makeButtons</text>
</a>
</g>
</g>
<!-- Node4&#45;&gt;Node10 -->
<g id="edge9" class="edge"><title>Node4&#45;&gt;Node10</title>
<path fill="none" stroke="midnightblue" d="M634.431,-133.3C655.572,-118.397 698.301,-89.7371 738,-72 747.719,-67.6574 758.448,-63.8146 768.783,-60.5471"/>
<polygon fill="midnightblue" stroke="midnightblue" points="769.97,-63.8444 778.524,-57.593 767.939,-57.1456 769.97,-63.8444"/>
</g>
<!-- Node16 -->
<g id="node16" class="node"><title>Node16</title>
<g id="a_node16"><a xlink:href="../../dd/d97/class_grid_drawer.html#a8853ef53b515fd60ca524f05a3dbf897" target="_top" xlink:title="GridDrawer.updateNextGen">
<polygon fill="white" stroke="black" points="1148,-57.5 1148,-76.5 1296,-76.5 1296,-57.5 1148,-57.5"/>
<text text-anchor="middle" x="1222" y="-64.5" font-family="Helvetica,sans-Serif" font-size="10.00">GridDrawer.updateNextGen</text>
</a>
</g>
</g>
<!-- Node4&#45;&gt;Node16 -->
<g id="edge32" class="edge"><title>Node4&#45;&gt;Node16</title>
<path fill="none" stroke="midnightblue" d="M644.76,-133.45C668.093,-124.513 704.904,-111.581 738,-105 876.441,-77.4729 1040.93,-69.706 1137.82,-67.6216"/>
<polygon fill="midnightblue" stroke="midnightblue" points="1137.92,-71.1203 1147.85,-67.421 1137.78,-64.1217 1137.92,-71.1203"/>
</g>
<!-- Node19 -->
<g id="node19" class="node"><title>Node19</title>
<g id="a_node19"><a xlink:href="../../dd/d97/class_grid_drawer.html#ab8aa1cc79c89cfbc7b9d8516a5dee463" target="_top" xlink:title="GridDrawer.makeGrid">
<polygon fill="white" stroke="black" points="758.5,-228.5 758.5,-247.5 877.5,-247.5 877.5,-228.5 758.5,-228.5"/>
<text text-anchor="middle" x="818" y="-235.5" font-family="Helvetica,sans-Serif" font-size="10.00">GridDrawer.makeGrid</text>
</a>
</g>
</g>
<!-- Node4&#45;&gt;Node19 -->
<g id="edge21" class="edge"><title>Node4&#45;&gt;Node19</title>
<path fill="none" stroke="midnightblue" d="M640.872,-152.632C675.74,-169.532 748.053,-204.582 788.333,-224.105"/>
<polygon fill="midnightblue" stroke="midnightblue" points="786.841,-227.272 797.367,-228.484 789.895,-220.973 786.841,-227.272"/>
</g>
<!-- Node28 -->
<g id="node28" class="node"><title>Node28</title>
<g id="a_node28"><a xlink:href="../../df/df8/class_cell_society_view.html#adf6a6b0542d00677a9fffbb8e3c03ffe" target="_top" xlink:title="CellSocietyView.makeTimeline">
<polygon fill="white" stroke="black" points="738,-114.5 738,-133.5 898,-133.5 898,-114.5 738,-114.5"/>
<text text-anchor="middle" x="818" y="-121.5" font-family="Helvetica,sans-Serif" font-size="10.00">CellSocietyView.makeTimeline</text>
</a>
</g>
</g>
<!-- Node4&#45;&gt;Node28 -->
<g id="edge30" class="edge"><title>Node4&#45;&gt;Node28</title>
<path fill="none" stroke="midnightblue" d="M701.569,-135.19C710.145,-134.358 718.904,-133.509 727.573,-132.669"/>
<polygon fill="midnightblue" stroke="midnightblue" points="728.077,-136.137 737.693,-131.688 727.402,-129.169 728.077,-136.137"/>
</g>
<!-- Node7 -->
<g id="node7" class="node"><title>Node7</title>
<g id="a_node7"><a xlink:href="../../da/d74/class_grid.html#af432eea602599251a5e456fd24e38661" target="_top" xlink:title="Grid.makeGrid">
<polygon fill="white" stroke="black" points="972,-414.5 972,-433.5 1058,-433.5 1058,-414.5 972,-414.5"/>
<text text-anchor="middle" x="1015" y="-421.5" font-family="Helvetica,sans-Serif" font-size="10.00">Grid.makeGrid</text>
</a>
</g>
</g>
<!-- Node6&#45;&gt;Node7 -->
<g id="edge6" class="edge"><title>Node6&#45;&gt;Node7</title>
<path fill="none" stroke="midnightblue" d="M844.894,-398.851C874.535,-403.259 923.853,-410.593 961.601,-416.207"/>
<polygon fill="midnightblue" stroke="midnightblue" points="961.51,-419.732 971.916,-417.741 962.539,-412.808 961.51,-419.732"/>
</g>
<!-- Node9 -->
<g id="node9" class="node"><title>Node9</title>
<g id="a_node9"><a xlink:href="../../d2/d40/class_cellular_automata.html#ac4d0b9bd9416cb4b3567caacc05cd55a" target="_top" xlink:title="CellularAutomata.setUpInitial\lConfig">
<polygon fill="white" stroke="black" points="937,-365 937,-395 1093,-395 1093,-365 937,-365"/>
<text text-anchor="start" x="945" y="-383" font-family="Helvetica,sans-Serif" font-size="10.00">CellularAutomata.setUpInitial</text>
<text text-anchor="middle" x="1015" y="-372" font-family="Helvetica,sans-Serif" font-size="10.00">Config</text>
</a>
</g>
</g>
<!-- Node8&#45;&gt;Node9 -->
<g id="edge8" class="edge"><title>Node8&#45;&gt;Node9</title>
<path fill="none" stroke="midnightblue" d="M854.766,-337.538C880.661,-344.443 916.425,-353.98 947.5,-362.267"/>
<polygon fill="midnightblue" stroke="midnightblue" points="946.841,-365.713 957.406,-364.908 948.645,-358.95 946.841,-365.713"/>
</g>
<!-- Node10&#45;&gt;Node1 -->
<g id="edge10" class="edge"><title>Node10&#45;&gt;Node1</title>
<path fill="none" stroke="midnightblue" d="M738.76,-48C596.677,-48 297.666,-48 153.754,-48"/>
<polygon fill="midnightblue" stroke="midnightblue" points="153.664,-44.5001 143.664,-48 153.664,-51.5001 153.664,-44.5001"/>
</g>
<!-- Node10&#45;&gt;Node11 -->
<g id="edge11" class="edge"><title>Node10&#45;&gt;Node11</title>
<path fill="none" stroke="midnightblue" d="M897.19,-40.3815C905.967,-39.5263 914.96,-38.65 923.872,-37.7817"/>
<polygon fill="midnightblue" stroke="midnightblue" points="924.268,-41.2598 933.881,-36.8064 923.589,-34.2928 924.268,-41.2598"/>
</g>
<!-- Node12 -->
<g id="node12" class="node"><title>Node12</title>
<g id="a_node12"><a xlink:href="../../df/df8/class_cell_society_view.html#ad52b914fa03b45d8bc9d64fc407660f3" target="_top" xlink:title="CellSocietyView.updateView">
<polygon fill="white" stroke="black" points="940.5,-114.5 940.5,-133.5 1089.5,-133.5 1089.5,-114.5 940.5,-114.5"/>
<text text-anchor="middle" x="1015" y="-121.5" font-family="Helvetica,sans-Serif" font-size="10.00">CellSocietyView.updateView</text>
</a>
</g>
</g>
<!-- Node10&#45;&gt;Node12 -->
<g id="edge12" class="edge"><title>Node10&#45;&gt;Node12</title>
<path fill="none" stroke="midnightblue" d="M843.697,-57.6255C878.276,-71.1023 941.238,-95.6417 980.159,-110.811"/>
<polygon fill="midnightblue" stroke="midnightblue" points="978.915,-114.082 989.504,-114.453 981.457,-107.56 978.915,-114.082"/>
</g>
<!-- Node13 -->
<g id="node13" class="node"><title>Node13</title>
<g id="a_node13"><a xlink:href="../../d2/d40/class_cellular_automata.html#a8f4c8a2f32137db67dd31f5afb4b62c3" target="_top" xlink:title="CellularAutomata.updateNextGen">
<polygon fill="white" stroke="black" points="1132.5,-114.5 1132.5,-133.5 1311.5,-133.5 1311.5,-114.5 1132.5,-114.5"/>
<text text-anchor="middle" x="1222" y="-121.5" font-family="Helvetica,sans-Serif" font-size="10.00">CellularAutomata.updateNextGen</text>
</a>
</g>
</g>
<!-- Node12&#45;&gt;Node13 -->
<g id="edge13" class="edge"><title>Node12&#45;&gt;Node13</title>
<path fill="none" stroke="midnightblue" d="M1089.72,-124C1100.27,-124 1111.25,-124 1122.19,-124"/>
<polygon fill="midnightblue" stroke="midnightblue" points="1122.2,-127.5 1132.2,-124 1122.2,-120.5 1122.2,-127.5"/>
</g>
<!-- Node12&#45;&gt;Node16 -->
<g id="edge18" class="edge"><title>Node12&#45;&gt;Node16</title>
<path fill="none" stroke="midnightblue" d="M1050.31,-114.459C1085.05,-104.801 1138.91,-89.8249 1176.82,-79.2842"/>
<polygon fill="midnightblue" stroke="midnightblue" points="1177.88,-82.6227 1186.58,-76.5716 1176,-75.8785 1177.88,-82.6227"/>
</g>
<!-- Node14 -->
<g id="node14" class="node"><title>Node14</title>
<g id="a_node14"><a xlink:href="../../d2/d40/class_cellular_automata.html#ab6b9e3ca964f405470ec0acc064d9b3a" target="_top" xlink:title="CellularAutomata.checkRules">
<polygon fill="white" stroke="black" points="1355.5,-114.5 1355.5,-133.5 1510.5,-133.5 1510.5,-114.5 1355.5,-114.5"/>
<text text-anchor="middle" x="1433" y="-121.5" font-family="Helvetica,sans-Serif" font-size="10.00">CellularAutomata.checkRules</text>
</a>
</g>
</g>
<!-- Node13&#45;&gt;Node14 -->
<g id="edge14" class="edge"><title>Node13&#45;&gt;Node14</title>
<path fill="none" stroke="midnightblue" d="M1311.63,-124C1322.79,-124 1334.2,-124 1345.33,-124"/>
<polygon fill="midnightblue" stroke="midnightblue" points="1345.45,-127.5 1355.45,-124 1345.45,-120.5 1345.45,-127.5"/>
</g>
<!-- Node15 -->
<g id="node15" class="node"><title>Node15</title>
<g id="a_node15"><a xlink:href="../../d2/d40/class_cellular_automata.html#ab39b5164764f20382801aa9a4663eb4b" target="_top" xlink:title="CellularAutomata.handleUpdate">
<polygon fill="white" stroke="black" points="1348,-76.5 1348,-95.5 1518,-95.5 1518,-76.5 1348,-76.5"/>
<text text-anchor="middle" x="1433" y="-83.5" font-family="Helvetica,sans-Serif" font-size="10.00">CellularAutomata.handleUpdate</text>
</a>
</g>
</g>
<!-- Node13&#45;&gt;Node15 -->
<g id="edge16" class="edge"><title>Node13&#45;&gt;Node15</title>
<path fill="none" stroke="midnightblue" d="M1275.47,-114.46C1304.04,-109.265 1339.58,-102.804 1369.57,-97.3511"/>
<polygon fill="midnightblue" stroke="midnightblue" points="1370.3,-100.776 1379.51,-95.5439 1369.04,-93.8893 1370.3,-100.776"/>
</g>
<!-- Node14&#45;&gt;Node5 -->
<g id="edge15" class="edge"><title>Node14&#45;&gt;Node5</title>
<path fill="none" stroke="midnightblue" d="M1510.74,-124C1521.59,-124 1532.75,-124 1543.63,-124"/>
<polygon fill="midnightblue" stroke="midnightblue" points="1543.95,-127.5 1553.95,-124 1543.95,-120.5 1543.95,-127.5"/>
</g>
<!-- Node15&#45;&gt;Node5 -->
<g id="edge17" class="edge"><title>Node15&#45;&gt;Node5</title>
<path fill="none" stroke="midnightblue" d="M1481.44,-95.589C1506.81,-100.716 1538.23,-107.067 1564.92,-112.463"/>
<polygon fill="midnightblue" stroke="midnightblue" points="1564.41,-115.929 1574.9,-114.48 1565.79,-109.068 1564.41,-115.929"/>
</g>
<!-- Node17 -->
<g id="node17" class="node"><title>Node17</title>
<g id="a_node17"><a xlink:href="../../da/d74/class_grid.html#a2f2ccb1511e367a7d6e9bcb3f708cd38" target="_top" xlink:title="Grid.getCellAt">
<polygon fill="white" stroke="black" points="1391.5,-0.5 1391.5,-19.5 1474.5,-19.5 1474.5,-0.5 1391.5,-0.5"/>
<text text-anchor="middle" x="1433" y="-7.5" font-family="Helvetica,sans-Serif" font-size="10.00">Grid.getCellAt</text>
</a>
</g>
</g>
<!-- Node16&#45;&gt;Node17 -->
<g id="edge19" class="edge"><title>Node16&#45;&gt;Node17</title>
<path fill="none" stroke="midnightblue" d="M1252.13,-57.4894C1277.35,-49.4106 1314.89,-37.7647 1348,-29 1358.73,-26.1584 1370.31,-23.3665 1381.34,-20.8346"/>
<polygon fill="midnightblue" stroke="midnightblue" points="1382.28,-24.2084 1391.27,-18.5885 1380.74,-17.3809 1382.28,-24.2084"/>
</g>
<!-- Node18 -->
<g id="node18" class="node"><title>Node18</title>
<g id="a_node18"><a xlink:href="../../dd/d11/class_cell.html#aac3ac473652b817fe344534f4bec7e6f" target="_top" xlink:title="Cell.getState">
<polygon fill="white" stroke="black" points="1393.5,-38.5 1393.5,-57.5 1472.5,-57.5 1472.5,-38.5 1393.5,-38.5"/>
<text text-anchor="middle" x="1433" y="-45.5" font-family="Helvetica,sans-Serif" font-size="10.00">Cell.getState</text>
</a>
</g>
</g>
<!-- Node16&#45;&gt;Node18 -->
<g id="edge20" class="edge"><title>Node16&#45;&gt;Node18</title>
<path fill="none" stroke="midnightblue" d="M1296.1,-60.3547C1324.86,-57.74 1357.12,-54.8072 1382.99,-52.4555"/>
<polygon fill="midnightblue" stroke="midnightblue" points="1383.65,-55.9099 1393.29,-51.5188 1383.02,-48.9386 1383.65,-55.9099"/>
</g>
<!-- Node20 -->
<g id="node20" class="node"><title>Node20</title>
<g id="a_node20"><a xlink:href="../../dd/d97/class_grid_drawer.html#af9a09b2ee81450f13a117261b67718e0" target="_top" xlink:title="GridDrawer.makeUnitGrid">
<polygon fill="white" stroke="black" points="946,-190.5 946,-209.5 1084,-209.5 1084,-190.5 946,-190.5"/>
<text text-anchor="middle" x="1015" y="-197.5" font-family="Helvetica,sans-Serif" font-size="10.00">GridDrawer.makeUnitGrid</text>
</a>
</g>
</g>
<!-- Node19&#45;&gt;Node20 -->
<g id="edge22" class="edge"><title>Node19&#45;&gt;Node20</title>
<path fill="none" stroke="midnightblue" d="M867.955,-228.46C894.381,-223.31 927.194,-216.916 955.02,-211.494"/>
<polygon fill="midnightblue" stroke="midnightblue" points="955.879,-214.892 965.025,-209.544 954.54,-208.021 955.879,-214.892"/>
</g>
<!-- Node25 -->
<g id="node25" class="node"><title>Node25</title>
<g id="a_node25"><a xlink:href="../../dd/d97/class_grid_drawer.html#a54f548bdc35a2afef9af05a134c149f5" target="_top" xlink:title="GridDrawer.calculateCell\lWidth">
<polygon fill="white" stroke="black" points="949,-316 949,-346 1081,-346 1081,-316 949,-316"/>
<text text-anchor="start" x="957" y="-334" font-family="Helvetica,sans-Serif" font-size="10.00">GridDrawer.calculateCell</text>
<text text-anchor="middle" x="1015" y="-323" font-family="Helvetica,sans-Serif" font-size="10.00">Width</text>
</a>
</g>
</g>
<!-- Node19&#45;&gt;Node25 -->
<g id="edge27" class="edge"><title>Node19&#45;&gt;Node25</title>
<path fill="none" stroke="midnightblue" d="M832.951,-247.697C854.036,-262.012 895.64,-288.941 934,-306 939.069,-308.254 944.403,-310.392 949.809,-312.397"/>
<polygon fill="midnightblue" stroke="midnightblue" points="948.985,-315.818 959.579,-315.86 951.324,-309.22 948.985,-315.818"/>
</g>
<!-- Node26 -->
<g id="node26" class="node"><title>Node26</title>
<g id="a_node26"><a xlink:href="../../dd/d97/class_grid_drawer.html#a3f6bb5e9307bf84f9f8f4ae467ec85cf" target="_top" xlink:title="GridDrawer.calculateCell\lHeight">
<polygon fill="white" stroke="black" points="949,-267 949,-297 1081,-297 1081,-267 949,-267"/>
<text text-anchor="start" x="957" y="-285" font-family="Helvetica,sans-Serif" font-size="10.00">GridDrawer.calculateCell</text>
<text text-anchor="middle" x="1015" y="-274" font-family="Helvetica,sans-Serif" font-size="10.00">Height</text>
</a>
</g>
</g>
<!-- Node19&#45;&gt;Node26 -->
<g id="edge28" class="edge"><title>Node19&#45;&gt;Node26</title>
<path fill="none" stroke="midnightblue" d="M861.312,-247.547C883.958,-252.657 912.527,-259.104 938.81,-265.034"/>
<polygon fill="midnightblue" stroke="midnightblue" points="938.229,-268.491 948.754,-267.278 939.77,-261.663 938.229,-268.491"/>
</g>
<!-- Node27 -->
<g id="node27" class="node"><title>Node27</title>
<g id="a_node27"><a xlink:href="../../dd/d97/class_grid_drawer.html#a8fba9cca18cee03651775b5785722778" target="_top" xlink:title="GridDrawer.scale">
<polygon fill="white" stroke="black" points="966.5,-228.5 966.5,-247.5 1063.5,-247.5 1063.5,-228.5 966.5,-228.5"/>
<text text-anchor="middle" x="1015" y="-235.5" font-family="Helvetica,sans-Serif" font-size="10.00">GridDrawer.scale</text>
</a>
</g>
</g>
<!-- Node19&#45;&gt;Node27 -->
<g id="edge29" class="edge"><title>Node19&#45;&gt;Node27</title>
<path fill="none" stroke="midnightblue" d="M877.506,-238C902.452,-238 931.475,-238 956.329,-238"/>
<polygon fill="midnightblue" stroke="midnightblue" points="956.343,-241.5 966.342,-238 956.342,-234.5 956.343,-241.5"/>
</g>
<!-- Node21 -->
<g id="node21" class="node"><title>Node21</title>
<g id="a_node21"><a xlink:href="../../dd/d97/class_grid_drawer.html#a69ef437bdcbcdb3dca6b206b73a1ab1f" target="_top" xlink:title="GridDrawer.drawUnitCell">
<polygon fill="white" stroke="black" points="1156.5,-209.5 1156.5,-228.5 1287.5,-228.5 1287.5,-209.5 1156.5,-209.5"/>
<text text-anchor="middle" x="1222" y="-216.5" font-family="Helvetica,sans-Serif" font-size="10.00">GridDrawer.drawUnitCell</text>
</a>
</g>
</g>
<!-- Node20&#45;&gt;Node21 -->
<g id="edge23" class="edge"><title>Node20&#45;&gt;Node21</title>
<path fill="none" stroke="midnightblue" d="M1084.26,-206.327C1104.09,-208.164 1125.85,-210.181 1146.06,-212.055"/>
<polygon fill="midnightblue" stroke="midnightblue" points="1145.88,-215.553 1156.16,-212.991 1146.53,-208.582 1145.88,-215.553"/>
</g>
<!-- Node22 -->
<g id="node22" class="node"><title>Node22</title>
<g id="a_node22"><a xlink:href="../../dd/d97/class_grid_drawer.html#a53b8613b7621224084096d76e2316452" target="_top" xlink:title="GridDrawer.drawTriangle">
<polygon fill="white" stroke="black" points="1367.5,-228.5 1367.5,-247.5 1498.5,-247.5 1498.5,-228.5 1367.5,-228.5"/>
<text text-anchor="middle" x="1433" y="-235.5" font-family="Helvetica,sans-Serif" font-size="10.00">GridDrawer.drawTriangle</text>
</a>
</g>
</g>
<!-- Node21&#45;&gt;Node22 -->
<g id="edge24" class="edge"><title>Node21&#45;&gt;Node22</title>
<path fill="none" stroke="midnightblue" d="M1287.7,-224.882C1309.63,-226.876 1334.32,-229.12 1356.99,-231.181"/>
<polygon fill="midnightblue" stroke="midnightblue" points="1356.97,-234.694 1367.25,-232.113 1357.61,-227.722 1356.97,-234.694"/>
</g>
<!-- Node23 -->
<g id="node23" class="node"><title>Node23</title>
<g id="a_node23"><a xlink:href="../../dd/d97/class_grid_drawer.html#a08b9d58cde5fafa07e226d4ed2ebc655" target="_top" xlink:title="GridDrawer.drawSquare">
<polygon fill="white" stroke="black" points="1368.5,-190.5 1368.5,-209.5 1497.5,-209.5 1497.5,-190.5 1368.5,-190.5"/>
<text text-anchor="middle" x="1433" y="-197.5" font-family="Helvetica,sans-Serif" font-size="10.00">GridDrawer.drawSquare</text>
</a>
</g>
</g>
<!-- Node21&#45;&gt;Node23 -->
<g id="edge25" class="edge"><title>Node21&#45;&gt;Node23</title>
<path fill="none" stroke="midnightblue" d="M1287.7,-213.118C1310.05,-211.087 1335.25,-208.795 1358.27,-206.703"/>
<polygon fill="midnightblue" stroke="midnightblue" points="1358.68,-210.18 1368.33,-205.789 1358.05,-203.208 1358.68,-210.18"/>
</g>
<!-- Node24 -->
<g id="node24" class="node"><title>Node24</title>
<g id="a_node24"><a xlink:href="../../dd/d97/class_grid_drawer.html#a260f7ce1d53af7f88e1c4ee3a4a3de2b" target="_top" xlink:title="GridDrawer.drawHexagon">
<polygon fill="white" stroke="black" points="1364.5,-266.5 1364.5,-285.5 1501.5,-285.5 1501.5,-266.5 1364.5,-266.5"/>
<text text-anchor="middle" x="1433" y="-273.5" font-family="Helvetica,sans-Serif" font-size="10.00">GridDrawer.drawHexagon</text>
</a>
</g>
</g>
<!-- Node21&#45;&gt;Node24 -->
<g id="edge26" class="edge"><title>Node21&#45;&gt;Node24</title>
<path fill="none" stroke="midnightblue" d="M1252.13,-228.511C1277.35,-236.589 1314.89,-248.235 1348,-257 1357.33,-259.471 1367.3,-261.904 1376.99,-264.161"/>
<polygon fill="midnightblue" stroke="midnightblue" points="1376.42,-267.621 1386.95,-266.444 1377.99,-260.798 1376.42,-267.621"/>
</g>
<!-- Node28&#45;&gt;Node12 -->
<g id="edge31" class="edge"><title>Node28&#45;&gt;Node12</title>
<path fill="none" stroke="midnightblue" d="M898.033,-124C908.593,-124 919.454,-124 930.094,-124"/>
<polygon fill="midnightblue" stroke="midnightblue" points="930.212,-127.5 940.212,-124 930.212,-120.5 930.212,-127.5"/>
</g>
</g>
</svg>
        <g id="navigator" transform="translate(0 0)" fill="#404254">
                <rect fill="#f2f5e9" fill-opacity="0.5" stroke="#606060" stroke-width=".5" x="0" y="0" width="60" height="60"/>
                <use id="zoomplus" xlink:href="#zoomPlus" x="17" y="9" onmousedown="handleZoom(evt,'in')"/>
                <use id="zoomminus" xlink:href="#zoomMin" x="42" y="9" onmousedown="handleZoom(evt,'out')"/>
                <use id="reset" xlink:href="#resetDef" x="30" y="36" onmousedown="handleReset()"/>
                <g id="arrowUp" xlink:href="#dirArrow" transform="translate(30 24)" onmousedown="handlePan(0,-1)">
                  <use xlink:href="#rim" fill="#404040">
                        <set attributeName="fill" to="#808080" begin="arrowUp.mouseover" end="arrowUp.mouseout"/>
                  </use>
                  <path fill="none" stroke="white" stroke-width="1.5" d="M0,-3.0v7 M-2.5,-0.5L0,-3.0L2.5,-0.5"/>
                </g>
                <g id="arrowRight" xlink:href="#dirArrow" transform="rotate(90) translate(36 -43)" onmousedown="handlePan(1,0)">
                  <use xlink:href="#rim" fill="#404040">
                        <set attributeName="fill" to="#808080" begin="arrowRight.mouseover" end="arrowRight.mouseout"/>
                  </use>
                  <path fill="none" stroke="white" stroke-width="1.5" d="M0,-3.0v7 M-2.5,-0.5L0,-3.0L2.5,-0.5"/>
                </g>
                <g id="arrowDown" xlink:href="#dirArrow" transform="rotate(180) translate(-30 -48)" onmousedown="handlePan(0,1)">
                  <use xlink:href="#rim" fill="#404040">
                        <set attributeName="fill" to="#808080" begin="arrowDown.mouseover" end="arrowDown.mouseout"/>
                  </use>
                  <path fill="none" stroke="white" stroke-width="1.5" d="M0,-3.0v7 M-2.5,-0.5L0,-3.0L2.5,-0.5"/>
                </g>
                <g id="arrowLeft" xlink:href="#dirArrow" transform="rotate(270) translate(-36 17)" onmousedown="handlePan(-1,0)">
                  <use xlink:href="#rim" fill="#404040">
                        <set attributeName="fill" to="#808080" begin="arrowLeft.mouseover" end="arrowLeft.mouseout"/>
                  </use>
                  <path fill="none" stroke="white" stroke-width="1.5" d="M0,-3.0v7 M-2.5,-0.5L0,-3.0L2.5,-0.5"/>
                </g>
        </g>
        <svg viewBox="0 0 15 15" width="100%" height="30px" preserveAspectRatio="xMaxYMin meet">
         <g id="arrow_out" transform="scale(0.3 0.3)">
          <a xlink:href="class_cell_society_view_a656cfed0ba32bc41bbd0c4087860db4b_cgraph_org.svg" target="_base">
           <rect id="button" ry="5" rx="5" y="6" x="6" height="38" width="38"
                fill="#f2f5e9" fill-opacity="0.5" stroke="#606060" stroke-width="1.0"/>
           <path id="arrow"
             d="M 11.500037,31.436501 C 11.940474,20.09759 22.043105,11.32322 32.158766,21.979434 L 37.068811,17.246167 C 37.068811,17.246167 37.088388,32 37.088388,32 L 22.160133,31.978069 C 22.160133,31.978069 26.997745,27.140456 26.997745,27.140456 C 18.528582,18.264221 13.291696,25.230495 11.500037,31.436501 z"
             style="fill:#404040;"/>
          </a>
         </g>
        </svg>
</svg>
