<?xml version="1.0" encoding="UTF-8" standalone="no"?>
<!DOCTYPE svg PUBLIC "-//W3C//DTD SVG 1.1//EN"
 "http://www.w3.org/Graphics/SVG/1.1/DTD/svg11.dtd">
<!-- Generated by graphviz version 2.36.0 (20140111.2315)
 -->
<!-- Title: CellSocietyView.CellSocietyView Pages: 1 -->
<svg width="1940pt" height="452pt"
 viewBox="0.00 0.00 1940.00 452.00" xmlns="http://www.w3.org/2000/svg" xmlns:xlink="http://www.w3.org/1999/xlink">
<g id="graph0" class="graph" transform="scale(1 1) rotate(0) translate(4 448)">
<title>CellSocietyView.CellSocietyView</title>
<polygon fill="white" stroke="none" points="-4,4 -4,-448 1936,-448 1936,4 -4,4"/>
<!-- Node1 -->
<g id="node1" class="node"><title>Node1</title>
<polygon fill="#bfbfbf" stroke="black" points="0.5,-325.5 0.5,-344.5 167.5,-344.5 167.5,-325.5 0.5,-325.5"/>
<text text-anchor="middle" x="84" y="-332.5" font-family="Helvetica,sans-Serif" font-size="10.00">CellSocietyView.CellSocietyView</text>
</g>
<!-- Node2 -->
<g id="node2" class="node"><title>Node2</title>
<g id="a_node2"><a xlink:href="../../df/df8/class_cell_society_view.html#a656cfed0ba32bc41bbd0c4087860db4b" target="_top" xlink:title="CellSocietyView.makeLoad\lButton">
<polygon fill="white" stroke="black" points="204.5,-355 204.5,-385 347.5,-385 347.5,-355 204.5,-355"/>
<text text-anchor="start" x="212.5" y="-373" font-family="Helvetica,sans-Serif" font-size="10.00">CellSocietyView.makeLoad</text>
<text text-anchor="middle" x="276" y="-362" font-family="Helvetica,sans-Serif" font-size="10.00">Button</text>
</a>
</g>
</g>
<!-- Node1&#45;&gt;Node2 -->
<g id="edge1" class="edge"><title>Node1&#45;&gt;Node2</title>
<path fill="none" stroke="midnightblue" d="M136.667,-344.518C154.528,-347.808 174.99,-351.577 194.602,-355.19"/>
<polygon fill="midnightblue" stroke="midnightblue" points="193.984,-358.635 204.452,-357.004 195.252,-351.751 193.984,-358.635"/>
</g>
<!-- Node30 -->
<g id="node30" class="node"><title>Node30</title>
<g id="a_node30"><a xlink:href="../../df/df8/class_cell_society_view.html#a61f4aa77e19dd7d6071e42bc1535f9f0" target="_top" xlink:title="CellSocietyView.setUp">
<polygon fill="white" stroke="black" points="215,-267.5 215,-286.5 337,-286.5 337,-267.5 215,-267.5"/>
<text text-anchor="middle" x="276" y="-274.5" font-family="Helvetica,sans-Serif" font-size="10.00">CellSocietyView.setUp</text>
</a>
</g>
</g>
<!-- Node1&#45;&gt;Node30 -->
<g id="edge35" class="edge"><title>Node1&#45;&gt;Node30</title>
<path fill="none" stroke="midnightblue" d="M116.375,-325.422C148.416,-315.642 198.328,-300.405 233.594,-289.64"/>
<polygon fill="midnightblue" stroke="midnightblue" points="235.036,-292.859 243.579,-286.592 232.993,-286.164 235.036,-292.859"/>
</g>
<!-- Node3 -->
<g id="node3" class="node"><title>Node3</title>
<g id="a_node3"><a xlink:href="../../df/df8/class_cell_society_view.html#ae09ddc20f81e90312e628d712a5c6afc" target="_top" xlink:title="CellSocietyView.makeUIButton">
<polygon fill="white" stroke="black" points="1174,-415.5 1174,-434.5 1336,-434.5 1336,-415.5 1174,-415.5"/>
<text text-anchor="middle" x="1255" y="-422.5" font-family="Helvetica,sans-Serif" font-size="10.00">CellSocietyView.makeUIButton</text>
</a>
</g>
</g>
<!-- Node2&#45;&gt;Node3 -->
<g id="edge2" class="edge"><title>Node2&#45;&gt;Node3</title>
<path fill="none" stroke="midnightblue" d="M323.904,-385.064C395.551,-406.701 536.914,-444 660,-444 660,-444 660,-444 861,-444 964.993,-444 1084.28,-437.281 1163.9,-431.834"/>
<polygon fill="midnightblue" stroke="midnightblue" points="1164.16,-435.324 1173.89,-431.143 1163.68,-428.341 1164.16,-435.324"/>
</g>
<!-- Node4 -->
<g id="node4" class="node"><title>Node4</title>
<g id="a_node4"><a xlink:href="../../df/df8/class_cell_society_view.html#a2c047a3972078bb0a5490ed225ef2dfa" target="_top" xlink:title="CellSocietyView.loadNewFile">
<polygon fill="white" stroke="black" points="389.5,-340.5 389.5,-359.5 538.5,-359.5 538.5,-340.5 389.5,-340.5"/>
<text text-anchor="middle" x="464" y="-347.5" font-family="Helvetica,sans-Serif" font-size="10.00">CellSocietyView.loadNewFile</text>
</a>
</g>
</g>
<!-- Node2&#45;&gt;Node4 -->
<g id="edge3" class="edge"><title>Node2&#45;&gt;Node4</title>
<path fill="none" stroke="midnightblue" d="M347.584,-362.41C357.942,-361.297 368.694,-360.14 379.285,-359.002"/>
<polygon fill="midnightblue" stroke="midnightblue" points="379.802,-362.466 389.37,-357.917 379.054,-355.506 379.802,-362.466"/>
</g>
<!-- Node5 -->
<g id="node5" class="node"><title>Node5</title>
<g id="a_node5"><a xlink:href="../../df/df8/class_cell_society_view.html#a2ee793e471cc5731ce39c1450f058dd5" target="_top" xlink:title="CellSocietyView.parseFile">
<polygon fill="white" stroke="black" points="593.5,-331.5 593.5,-350.5 728.5,-350.5 728.5,-331.5 593.5,-331.5"/>
<text text-anchor="middle" x="661" y="-338.5" font-family="Helvetica,sans-Serif" font-size="10.00">CellSocietyView.parseFile</text>
</a>
</g>
</g>
<!-- Node4&#45;&gt;Node5 -->
<g id="edge4" class="edge"><title>Node4&#45;&gt;Node5</title>
<path fill="none" stroke="midnightblue" d="M538.721,-346.597C553.268,-345.926 568.566,-345.22 583.212,-344.544"/>
<polygon fill="midnightblue" stroke="midnightblue" points="583.401,-348.039 593.229,-344.082 583.078,-341.047 583.401,-348.039"/>
</g>
<!-- Node6 -->
<g id="node6" class="node"><title>Node6</title>
<g id="a_node6"><a xlink:href="../../df/df8/class_cell_society_view.html#a767ab215ca329ba41b1493702141f841" target="_top" xlink:title="CellSocietyView.makeCAGame">
<polygon fill="white" stroke="black" points="778.5,-320.5 778.5,-339.5 941.5,-339.5 941.5,-320.5 778.5,-320.5"/>
<text text-anchor="middle" x="860" y="-327.5" font-family="Helvetica,sans-Serif" font-size="10.00">CellSocietyView.makeCAGame</text>
</a>
</g>
</g>
<!-- Node5&#45;&gt;Node6 -->
<g id="edge5" class="edge"><title>Node5&#45;&gt;Node6</title>
<path fill="none" stroke="midnightblue" d="M728.695,-337.276C741.415,-336.566 754.928,-335.811 768.25,-335.067"/>
<polygon fill="midnightblue" stroke="midnightblue" points="768.595,-338.554 778.384,-334.501 768.205,-331.564 768.595,-338.554"/>
</g>
<!-- Node7 -->
<g id="node7" class="node"><title>Node7</title>
<g id="a_node7"><a xlink:href="../../da/d74/class_grid.html#acbc0b625c8f9d2f76db2f2a0d5288cd9" target="_top" xlink:title="Grid.init">
<polygon fill="white" stroke="black" points="1031.5,-282.5 1031.5,-301.5 1084.5,-301.5 1084.5,-282.5 1031.5,-282.5"/>
<text text-anchor="middle" x="1058" y="-289.5" font-family="Helvetica,sans-Serif" font-size="10.00">Grid.init</text>
</a>
</g>
</g>
<!-- Node6&#45;&gt;Node7 -->
<g id="edge6" class="edge"><title>Node6&#45;&gt;Node7</title>
<path fill="none" stroke="midnightblue" d="M910.206,-320.46C944.845,-313.744 990.403,-304.912 1021.52,-298.878"/>
<polygon fill="midnightblue" stroke="midnightblue" points="1022.33,-302.286 1031.48,-296.947 1021,-295.414 1022.33,-302.286"/>
</g>
<!-- Node9 -->
<g id="node9" class="node"><title>Node9</title>
<g id="a_node9"><a xlink:href="../../d2/d40/class_cellular_automata.html#a347bfd2a64ee2d615902f6922e95fa6f" target="_top" xlink:title="CellularAutomata.init">
<polygon fill="white" stroke="black" points="999.5,-241.5 999.5,-260.5 1116.5,-260.5 1116.5,-241.5 999.5,-241.5"/>
<text text-anchor="middle" x="1058" y="-248.5" font-family="Helvetica,sans-Serif" font-size="10.00">CellularAutomata.init</text>
</a>
</g>
</g>
<!-- Node6&#45;&gt;Node9 -->
<g id="edge8" class="edge"><title>Node6&#45;&gt;Node9</title>
<path fill="none" stroke="midnightblue" d="M920.075,-320.436C927.722,-317.977 935.237,-314.885 942,-311 962.173,-299.412 958.07,-285.001 978,-273 983.9,-269.447 990.391,-266.451 997.04,-263.929"/>
<polygon fill="midnightblue" stroke="midnightblue" points="998.521,-267.121 1006.84,-260.563 996.247,-260.501 998.521,-267.121"/>
</g>
<!-- Node11 -->
<g id="node11" class="node"><title>Node11</title>
<g id="a_node11"><a xlink:href="../../d2/d40/class_cellular_automata.html#a34ceed434c942d34ff03169b92684726" target="_top" xlink:title="CellularAutomata.getGrid">
<polygon fill="white" stroke="black" points="1794,-244.5 1794,-263.5 1932,-263.5 1932,-244.5 1794,-244.5"/>
<text text-anchor="middle" x="1863" y="-251.5" font-family="Helvetica,sans-Serif" font-size="10.00">CellularAutomata.getGrid</text>
</a>
</g>
</g>
<!-- Node6&#45;&gt;Node11 -->
<g id="edge10" class="edge"><title>Node6&#45;&gt;Node11</title>
<path fill="none" stroke="midnightblue" d="M926.34,-320.43C931.977,-317.943 937.309,-314.847 942,-311 971.837,-286.534 946.645,-254.487 978,-232 1078.19,-160.144 1130.7,-204 1254,-204 1254,-204 1254,-204 1463,-204 1586.27,-204 1729.31,-227.787 1806.21,-242.547"/>
<polygon fill="midnightblue" stroke="midnightblue" points="1805.67,-246.009 1816.15,-244.478 1807,-239.137 1805.67,-246.009"/>
</g>
<!-- Node12 -->
<g id="node12" class="node"><title>Node12</title>
<g id="a_node12"><a xlink:href="../../dd/d97/class_grid_drawer.html#ab8aa1cc79c89cfbc7b9d8516a5dee463" target="_top" xlink:title="GridDrawer.makeGrid">
<polygon fill="white" stroke="black" points="998.5,-93.5 998.5,-112.5 1117.5,-112.5 1117.5,-93.5 998.5,-93.5"/>
<text text-anchor="middle" x="1058" y="-100.5" font-family="Helvetica,sans-Serif" font-size="10.00">GridDrawer.makeGrid</text>
</a>
</g>
</g>
<!-- Node6&#45;&gt;Node12 -->
<g id="edge11" class="edge"><title>Node6&#45;&gt;Node12</title>
<path fill="none" stroke="midnightblue" d="M928.488,-320.323C933.414,-317.832 938.006,-314.765 942,-311 982.823,-272.509 950.452,-238.879 978,-190 993.723,-162.102 1019.86,-135.709 1037.74,-119.462"/>
<polygon fill="midnightblue" stroke="midnightblue" points="1040.15,-122.001 1045.3,-112.743 1035.5,-116.768 1040.15,-122.001"/>
</g>
<!-- Node21 -->
<g id="node21" class="node"><title>Node21</title>
<g id="a_node21"><a xlink:href="../../df/df8/class_cell_society_view.html#a7bdbd4e8fd3893e672eb22015603f6dc" target="_top" xlink:title="CellSocietyView.makeButtons">
<polygon fill="white" stroke="black" points="979,-396.5 979,-415.5 1137,-415.5 1137,-396.5 979,-396.5"/>
<text text-anchor="middle" x="1058" y="-403.5" font-family="Helvetica,sans-Serif" font-size="10.00">CellSocietyView.makeButtons</text>
</a>
</g>
</g>
<!-- Node6&#45;&gt;Node21 -->
<g id="edge20" class="edge"><title>Node6&#45;&gt;Node21</title>
<path fill="none" stroke="midnightblue" d="M880.565,-339.588C903.554,-350.643 943.005,-368.964 978,-382 989.013,-386.102 1001.07,-390.038 1012.38,-393.494"/>
<polygon fill="midnightblue" stroke="midnightblue" points="1011.5,-396.883 1022.08,-396.4 1013.51,-390.177 1011.5,-396.883"/>
</g>
<!-- Node26 -->
<g id="node26" class="node"><title>Node26</title>
<g id="a_node26"><a xlink:href="../../dd/d97/class_grid_drawer.html#a8853ef53b515fd60ca524f05a3dbf897" target="_top" xlink:title="GridDrawer.updateNextGen">
<polygon fill="white" stroke="black" points="1388,-333.5 1388,-352.5 1536,-352.5 1536,-333.5 1388,-333.5"/>
<text text-anchor="middle" x="1462" y="-340.5" font-family="Helvetica,sans-Serif" font-size="10.00">GridDrawer.updateNextGen</text>
</a>
</g>
</g>
<!-- Node6&#45;&gt;Node26 -->
<g id="edge32" class="edge"><title>Node6&#45;&gt;Node26</title>
<path fill="none" stroke="midnightblue" d="M908.605,-339.513C929.76,-343.278 955.027,-347.147 978,-349 1117.73,-360.272 1280.91,-354.265 1377.35,-348.739"/>
<polygon fill="midnightblue" stroke="midnightblue" points="1377.84,-352.216 1387.62,-348.137 1377.43,-345.228 1377.84,-352.216"/>
</g>
<!-- Node29 -->
<g id="node29" class="node"><title>Node29</title>
<g id="a_node29"><a xlink:href="../../df/df8/class_cell_society_view.html#adf6a6b0542d00677a9fffbb8e3c03ffe" target="_top" xlink:title="CellSocietyView.makeTimeline">
<polygon fill="white" stroke="black" points="978,-320.5 978,-339.5 1138,-339.5 1138,-320.5 978,-320.5"/>
<text text-anchor="middle" x="1058" y="-327.5" font-family="Helvetica,sans-Serif" font-size="10.00">CellSocietyView.makeTimeline</text>
</a>
</g>
</g>
<!-- Node6&#45;&gt;Node29 -->
<g id="edge33" class="edge"><title>Node6&#45;&gt;Node29</title>
<path fill="none" stroke="midnightblue" d="M941.569,-330C950.145,-330 958.904,-330 967.573,-330"/>
<polygon fill="midnightblue" stroke="midnightblue" points="967.693,-333.5 977.693,-330 967.693,-326.5 967.693,-333.5"/>
</g>
<!-- Node8 -->
<g id="node8" class="node"><title>Node8</title>
<g id="a_node8"><a xlink:href="../../da/d74/class_grid.html#af432eea602599251a5e456fd24e38661" target="_top" xlink:title="Grid.makeGrid">
<polygon fill="white" stroke="black" points="1212,-282.5 1212,-301.5 1298,-301.5 1298,-282.5 1212,-282.5"/>
<text text-anchor="middle" x="1255" y="-289.5" font-family="Helvetica,sans-Serif" font-size="10.00">Grid.makeGrid</text>
</a>
</g>
</g>
<!-- Node7&#45;&gt;Node8 -->
<g id="edge7" class="edge"><title>Node7&#45;&gt;Node8</title>
<path fill="none" stroke="midnightblue" d="M1084.89,-292C1114.53,-292 1163.85,-292 1201.6,-292"/>
<polygon fill="midnightblue" stroke="midnightblue" points="1201.92,-295.5 1211.92,-292 1201.92,-288.5 1201.92,-295.5"/>
</g>
<!-- Node10 -->
<g id="node10" class="node"><title>Node10</title>
<g id="a_node10"><a xlink:href="../../d2/d40/class_cellular_automata.html#ac4d0b9bd9416cb4b3567caacc05cd55a" target="_top" xlink:title="CellularAutomata.setUpInitial\lConfig">
<polygon fill="white" stroke="black" points="1177,-233 1177,-263 1333,-263 1333,-233 1177,-233"/>
<text text-anchor="start" x="1185" y="-251" font-family="Helvetica,sans-Serif" font-size="10.00">CellularAutomata.setUpInitial</text>
<text text-anchor="middle" x="1255" y="-240" font-family="Helvetica,sans-Serif" font-size="10.00">Config</text>
</a>
</g>
</g>
<!-- Node9&#45;&gt;Node10 -->
<g id="edge9" class="edge"><title>Node9&#45;&gt;Node10</title>
<path fill="none" stroke="midnightblue" d="M1116.71,-250.112C1132.34,-249.872 1149.61,-249.606 1166.48,-249.347"/>
<polygon fill="midnightblue" stroke="midnightblue" points="1166.96,-252.84 1176.91,-249.186 1166.86,-245.84 1166.96,-252.84"/>
</g>
<!-- Node13 -->
<g id="node13" class="node"><title>Node13</title>
<g id="a_node13"><a xlink:href="../../dd/d97/class_grid_drawer.html#af9a09b2ee81450f13a117261b67718e0" target="_top" xlink:title="GridDrawer.makeUnitGrid">
<polygon fill="white" stroke="black" points="1186,-137.5 1186,-156.5 1324,-156.5 1324,-137.5 1186,-137.5"/>
<text text-anchor="middle" x="1255" y="-144.5" font-family="Helvetica,sans-Serif" font-size="10.00">GridDrawer.makeUnitGrid</text>
</a>
</g>
</g>
<!-- Node12&#45;&gt;Node13 -->
<g id="edge12" class="edge"><title>Node12&#45;&gt;Node13</title>
<path fill="none" stroke="midnightblue" d="M1101.31,-112.547C1130.83,-119.207 1170.4,-128.136 1201.86,-135.236"/>
<polygon fill="midnightblue" stroke="midnightblue" points="1201.25,-138.684 1211.77,-137.471 1202.79,-131.856 1201.25,-138.684"/>
</g>
<!-- Node18 -->
<g id="node18" class="node"><title>Node18</title>
<g id="a_node18"><a xlink:href="../../dd/d97/class_grid_drawer.html#a54f548bdc35a2afef9af05a134c149f5" target="_top" xlink:title="GridDrawer.calculateCell\lWidth">
<polygon fill="white" stroke="black" points="1189,-88 1189,-118 1321,-118 1321,-88 1189,-88"/>
<text text-anchor="start" x="1197" y="-106" font-family="Helvetica,sans-Serif" font-size="10.00">GridDrawer.calculateCell</text>
<text text-anchor="middle" x="1255" y="-95" font-family="Helvetica,sans-Serif" font-size="10.00">Width</text>
</a>
</g>
</g>
<!-- Node12&#45;&gt;Node18 -->
<g id="edge17" class="edge"><title>Node12&#45;&gt;Node18</title>
<path fill="none" stroke="midnightblue" d="M1117.51,-103C1136.7,-103 1158.31,-103 1178.57,-103"/>
<polygon fill="midnightblue" stroke="midnightblue" points="1178.71,-106.5 1188.71,-103 1178.71,-99.5001 1178.71,-106.5"/>
</g>
<!-- Node19 -->
<g id="node19" class="node"><title>Node19</title>
<g id="a_node19"><a xlink:href="../../dd/d97/class_grid_drawer.html#a3f6bb5e9307bf84f9f8f4ae467ec85cf" target="_top" xlink:title="GridDrawer.calculateCell\lHeight">
<polygon fill="white" stroke="black" points="1189,-39 1189,-69 1321,-69 1321,-39 1189,-39"/>
<text text-anchor="start" x="1197" y="-57" font-family="Helvetica,sans-Serif" font-size="10.00">GridDrawer.calculateCell</text>
<text text-anchor="middle" x="1255" y="-46" font-family="Helvetica,sans-Serif" font-size="10.00">Height</text>
</a>
</g>
</g>
<!-- Node12&#45;&gt;Node19 -->
<g id="edge18" class="edge"><title>Node12&#45;&gt;Node19</title>
<path fill="none" stroke="midnightblue" d="M1097.06,-93.436C1121.86,-87.2053 1154.95,-78.8906 1184.35,-71.5026"/>
<polygon fill="midnightblue" stroke="midnightblue" points="1185.31,-74.8686 1194.16,-69.037 1183.61,-68.0796 1185.31,-74.8686"/>
</g>
<!-- Node20 -->
<g id="node20" class="node"><title>Node20</title>
<g id="a_node20"><a xlink:href="../../dd/d97/class_grid_drawer.html#a8fba9cca18cee03651775b5785722778" target="_top" xlink:title="GridDrawer.scale">
<polygon fill="white" stroke="black" points="1206.5,-0.5 1206.5,-19.5 1303.5,-19.5 1303.5,-0.5 1206.5,-0.5"/>
<text text-anchor="middle" x="1255" y="-7.5" font-family="Helvetica,sans-Serif" font-size="10.00">GridDrawer.scale</text>
</a>
</g>
</g>
<!-- Node12&#45;&gt;Node20 -->
<g id="edge19" class="edge"><title>Node12&#45;&gt;Node20</title>
<path fill="none" stroke="midnightblue" d="M1070.98,-93.3071C1091.07,-77.5235 1133.37,-46.2972 1174,-29 1181.11,-25.9727 1188.79,-23.376 1196.49,-21.1633"/>
<polygon fill="midnightblue" stroke="midnightblue" points="1197.44,-24.5312 1206.19,-18.5623 1195.63,-17.7697 1197.44,-24.5312"/>
</g>
<!-- Node14 -->
<g id="node14" class="node"><title>Node14</title>
<g id="a_node14"><a xlink:href="../../dd/d97/class_grid_drawer.html#a69ef437bdcbcdb3dca6b206b73a1ab1f" target="_top" xlink:title="GridDrawer.drawUnitCell">
<polygon fill="white" stroke="black" points="1396.5,-127.5 1396.5,-146.5 1527.5,-146.5 1527.5,-127.5 1396.5,-127.5"/>
<text text-anchor="middle" x="1462" y="-134.5" font-family="Helvetica,sans-Serif" font-size="10.00">GridDrawer.drawUnitCell</text>
</a>
</g>
</g>
<!-- Node13&#45;&gt;Node14 -->
<g id="edge13" class="edge"><title>Node13&#45;&gt;Node14</title>
<path fill="none" stroke="midnightblue" d="M1324.26,-143.67C1344.09,-142.703 1365.85,-141.641 1386.06,-140.655"/>
<polygon fill="midnightblue" stroke="midnightblue" points="1386.34,-144.146 1396.16,-140.163 1386,-137.154 1386.34,-144.146"/>
</g>
<!-- Node15 -->
<g id="node15" class="node"><title>Node15</title>
<g id="a_node15"><a xlink:href="../../dd/d97/class_grid_drawer.html#a53b8613b7621224084096d76e2316452" target="_top" xlink:title="GridDrawer.drawTriangle">
<polygon fill="white" stroke="black" points="1607.5,-118.5 1607.5,-137.5 1738.5,-137.5 1738.5,-118.5 1607.5,-118.5"/>
<text text-anchor="middle" x="1673" y="-125.5" font-family="Helvetica,sans-Serif" font-size="10.00">GridDrawer.drawTriangle</text>
</a>
</g>
</g>
<!-- Node14&#45;&gt;Node15 -->
<g id="edge14" class="edge"><title>Node14&#45;&gt;Node15</title>
<path fill="none" stroke="midnightblue" d="M1527.7,-134.214C1549.63,-133.269 1574.32,-132.206 1596.99,-131.23"/>
<polygon fill="midnightblue" stroke="midnightblue" points="1597.41,-134.715 1607.25,-130.788 1597.11,-127.722 1597.41,-134.715"/>
</g>
<!-- Node16 -->
<g id="node16" class="node"><title>Node16</title>
<g id="a_node16"><a xlink:href="../../dd/d97/class_grid_drawer.html#a08b9d58cde5fafa07e226d4ed2ebc655" target="_top" xlink:title="GridDrawer.drawSquare">
<polygon fill="white" stroke="black" points="1608.5,-80.5 1608.5,-99.5 1737.5,-99.5 1737.5,-80.5 1608.5,-80.5"/>
<text text-anchor="middle" x="1673" y="-87.5" font-family="Helvetica,sans-Serif" font-size="10.00">GridDrawer.drawSquare</text>
</a>
</g>
</g>
<!-- Node14&#45;&gt;Node16 -->
<g id="edge15" class="edge"><title>Node14&#45;&gt;Node16</title>
<path fill="none" stroke="midnightblue" d="M1505.29,-127.489C1538.19,-120.092 1584.01,-109.787 1619.29,-101.853"/>
<polygon fill="midnightblue" stroke="midnightblue" points="1620.42,-105.186 1629.41,-99.5776 1618.89,-98.3569 1620.42,-105.186"/>
</g>
<!-- Node17 -->
<g id="node17" class="node"><title>Node17</title>
<g id="a_node17"><a xlink:href="../../dd/d97/class_grid_drawer.html#a260f7ce1d53af7f88e1c4ee3a4a3de2b" target="_top" xlink:title="GridDrawer.drawHexagon">
<polygon fill="white" stroke="black" points="1604.5,-156.5 1604.5,-175.5 1741.5,-175.5 1741.5,-156.5 1604.5,-156.5"/>
<text text-anchor="middle" x="1673" y="-163.5" font-family="Helvetica,sans-Serif" font-size="10.00">GridDrawer.drawHexagon</text>
</a>
</g>
</g>
<!-- Node14&#45;&gt;Node17 -->
<g id="edge16" class="edge"><title>Node14&#45;&gt;Node17</title>
<path fill="none" stroke="midnightblue" d="M1527.7,-145.977C1548.8,-148.906 1572.45,-152.187 1594.4,-155.233"/>
<polygon fill="midnightblue" stroke="midnightblue" points="1593.97,-158.706 1604.36,-156.614 1594.93,-151.773 1593.97,-158.706"/>
</g>
<!-- Node21&#45;&gt;Node2 -->
<g id="edge31" class="edge"><title>Node21&#45;&gt;Node2</title>
<path fill="none" stroke="midnightblue" d="M978.81,-402.391C830.171,-395.531 508.264,-380.674 357.699,-373.725"/>
<polygon fill="midnightblue" stroke="midnightblue" points="357.746,-370.223 347.595,-373.258 357.423,-377.216 357.746,-370.223"/>
</g>
<!-- Node21&#45;&gt;Node3 -->
<g id="edge21" class="edge"><title>Node21&#45;&gt;Node3</title>
<path fill="none" stroke="midnightblue" d="M1137.19,-413.619C1145.97,-414.474 1154.96,-415.35 1163.87,-416.218"/>
<polygon fill="midnightblue" stroke="midnightblue" points="1163.59,-419.707 1173.88,-417.194 1164.27,-412.74 1163.59,-419.707"/>
</g>
<!-- Node22 -->
<g id="node22" class="node"><title>Node22</title>
<g id="a_node22"><a xlink:href="../../df/df8/class_cell_society_view.html#ad52b914fa03b45d8bc9d64fc407660f3" target="_top" xlink:title="CellSocietyView.updateView">
<polygon fill="white" stroke="black" points="1180.5,-320.5 1180.5,-339.5 1329.5,-339.5 1329.5,-320.5 1180.5,-320.5"/>
<text text-anchor="middle" x="1255" y="-327.5" font-family="Helvetica,sans-Serif" font-size="10.00">CellSocietyView.updateView</text>
</a>
</g>
</g>
<!-- Node21&#45;&gt;Node22 -->
<g id="edge22" class="edge"><title>Node21&#45;&gt;Node22</title>
<path fill="none" stroke="midnightblue" d="M1083.7,-396.375C1118.28,-382.898 1181.24,-358.358 1220.16,-343.189"/>
<polygon fill="midnightblue" stroke="midnightblue" points="1221.46,-346.44 1229.5,-339.547 1218.92,-339.918 1221.46,-346.44"/>
</g>
<!-- Node23 -->
<g id="node23" class="node"><title>Node23</title>
<g id="a_node23"><a xlink:href="../../d2/d40/class_cellular_automata.html#a8f4c8a2f32137db67dd31f5afb4b62c3" target="_top" xlink:title="CellularAutomata.updateNextGen">
<polygon fill="white" stroke="black" points="1372.5,-282.5 1372.5,-301.5 1551.5,-301.5 1551.5,-282.5 1372.5,-282.5"/>
<text text-anchor="middle" x="1462" y="-289.5" font-family="Helvetica,sans-Serif" font-size="10.00">CellularAutomata.updateNextGen</text>
</a>
</g>
</g>
<!-- Node22&#45;&gt;Node23 -->
<g id="edge23" class="edge"><title>Node22&#45;&gt;Node23</title>
<path fill="none" stroke="midnightblue" d="M1307.47,-320.46C1335.37,-315.288 1370.05,-308.86 1399.38,-303.422"/>
<polygon fill="midnightblue" stroke="midnightblue" points="1400.32,-306.808 1409.51,-301.544 1399.04,-299.925 1400.32,-306.808"/>
</g>
<!-- Node22&#45;&gt;Node26 -->
<g id="edge28" class="edge"><title>Node22&#45;&gt;Node26</title>
<path fill="none" stroke="midnightblue" d="M1329.72,-334.675C1345.26,-335.66 1361.75,-336.706 1377.62,-337.712"/>
<polygon fill="midnightblue" stroke="midnightblue" points="1377.73,-341.227 1387.93,-338.367 1378.18,-334.241 1377.73,-341.227"/>
</g>
<!-- Node24 -->
<g id="node24" class="node"><title>Node24</title>
<g id="a_node24"><a xlink:href="../../d2/d40/class_cellular_automata.html#ab6b9e3ca964f405470ec0acc064d9b3a" target="_top" xlink:title="CellularAutomata.checkRules">
<polygon fill="white" stroke="black" points="1595.5,-244.5 1595.5,-263.5 1750.5,-263.5 1750.5,-244.5 1595.5,-244.5"/>
<text text-anchor="middle" x="1673" y="-251.5" font-family="Helvetica,sans-Serif" font-size="10.00">CellularAutomata.checkRules</text>
</a>
</g>
</g>
<!-- Node23&#45;&gt;Node24 -->
<g id="edge24" class="edge"><title>Node23&#45;&gt;Node24</title>
<path fill="none" stroke="midnightblue" d="M1515.47,-282.46C1544.04,-277.265 1579.58,-270.804 1609.57,-265.351"/>
<polygon fill="midnightblue" stroke="midnightblue" points="1610.3,-268.776 1619.51,-263.544 1609.04,-261.889 1610.3,-268.776"/>
</g>
<!-- Node25 -->
<g id="node25" class="node"><title>Node25</title>
<g id="a_node25"><a xlink:href="../../d2/d40/class_cellular_automata.html#ab39b5164764f20382801aa9a4663eb4b" target="_top" xlink:title="CellularAutomata.handleUpdate">
<polygon fill="white" stroke="black" points="1588,-282.5 1588,-301.5 1758,-301.5 1758,-282.5 1588,-282.5"/>
<text text-anchor="middle" x="1673" y="-289.5" font-family="Helvetica,sans-Serif" font-size="10.00">CellularAutomata.handleUpdate</text>
</a>
</g>
</g>
<!-- Node23&#45;&gt;Node25 -->
<g id="edge26" class="edge"><title>Node23&#45;&gt;Node25</title>
<path fill="none" stroke="midnightblue" d="M1551.63,-292C1560.27,-292 1569.06,-292 1577.74,-292"/>
<polygon fill="midnightblue" stroke="midnightblue" points="1577.89,-295.5 1587.89,-292 1577.89,-288.5 1577.89,-295.5"/>
</g>
<!-- Node24&#45;&gt;Node11 -->
<g id="edge25" class="edge"><title>Node24&#45;&gt;Node11</title>
<path fill="none" stroke="midnightblue" d="M1750.74,-254C1761.59,-254 1772.75,-254 1783.63,-254"/>
<polygon fill="midnightblue" stroke="midnightblue" points="1783.95,-257.5 1793.95,-254 1783.95,-250.5 1783.95,-257.5"/>
</g>
<!-- Node25&#45;&gt;Node11 -->
<g id="edge27" class="edge"><title>Node25&#45;&gt;Node11</title>
<path fill="none" stroke="midnightblue" d="M1721.44,-282.411C1746.81,-277.284 1778.23,-270.933 1804.92,-265.537"/>
<polygon fill="midnightblue" stroke="midnightblue" points="1805.79,-268.932 1814.9,-263.52 1804.41,-262.071 1805.79,-268.932"/>
</g>
<!-- Node27 -->
<g id="node27" class="node"><title>Node27</title>
<g id="a_node27"><a xlink:href="../../da/d74/class_grid.html#a2f2ccb1511e367a7d6e9bcb3f708cd38" target="_top" xlink:title="Grid.getCellAt">
<polygon fill="white" stroke="black" points="1631.5,-364.5 1631.5,-383.5 1714.5,-383.5 1714.5,-364.5 1631.5,-364.5"/>
<text text-anchor="middle" x="1673" y="-371.5" font-family="Helvetica,sans-Serif" font-size="10.00">Grid.getCellAt</text>
</a>
</g>
</g>
<!-- Node26&#45;&gt;Node27 -->
<g id="edge29" class="edge"><title>Node26&#45;&gt;Node27</title>
<path fill="none" stroke="midnightblue" d="M1527.13,-352.512C1557.37,-356.998 1592.95,-362.274 1621.27,-366.476"/>
<polygon fill="midnightblue" stroke="midnightblue" points="1620.96,-369.967 1631.36,-367.972 1621.98,-363.043 1620.96,-369.967"/>
</g>
<!-- Node28 -->
<g id="node28" class="node"><title>Node28</title>
<g id="a_node28"><a xlink:href="../../dd/d11/class_cell.html#aac3ac473652b817fe344534f4bec7e6f" target="_top" xlink:title="Cell.getState">
<polygon fill="white" stroke="black" points="1633.5,-326.5 1633.5,-345.5 1712.5,-345.5 1712.5,-326.5 1633.5,-326.5"/>
<text text-anchor="middle" x="1673" y="-333.5" font-family="Helvetica,sans-Serif" font-size="10.00">Cell.getState</text>
</a>
</g>
</g>
<!-- Node26&#45;&gt;Node28 -->
<g id="edge30" class="edge"><title>Node26&#45;&gt;Node28</title>
<path fill="none" stroke="midnightblue" d="M1536.1,-340.552C1564.86,-339.588 1597.12,-338.508 1622.99,-337.641"/>
<polygon fill="midnightblue" stroke="midnightblue" points="1623.42,-341.129 1633.29,-337.296 1623.18,-334.133 1623.42,-341.129"/>
</g>
<!-- Node29&#45;&gt;Node22 -->
<g id="edge34" class="edge"><title>Node29&#45;&gt;Node22</title>
<path fill="none" stroke="midnightblue" d="M1138.03,-330C1148.59,-330 1159.45,-330 1170.09,-330"/>
<polygon fill="midnightblue" stroke="midnightblue" points="1170.21,-333.5 1180.21,-330 1170.21,-326.5 1170.21,-333.5"/>
</g>
<!-- Node31 -->
<g id="node31" class="node"><title>Node31</title>
<g id="a_node31"><a xlink:href="../../df/df8/class_cell_society_view.html#a38d9c3d5a91b82c54b1c5aae86b4d33a" target="_top" xlink:title="CellSocietyView.setUpGame\lTypes">
<polygon fill="white" stroke="black" points="388.5,-287 388.5,-317 539.5,-317 539.5,-287 388.5,-287"/>
<text text-anchor="start" x="396.5" y="-305" font-family="Helvetica,sans-Serif" font-size="10.00">CellSocietyView.setUpGame</text>
<text text-anchor="middle" x="464" y="-294" font-family="Helvetica,sans-Serif" font-size="10.00">Types</text>
</a>
</g>
</g>
<!-- Node30&#45;&gt;Node31 -->
<g id="edge36" class="edge"><title>Node30&#45;&gt;Node31</title>
<path fill="none" stroke="midnightblue" d="M337.132,-285.082C350.285,-286.85 364.444,-288.753 378.352,-290.623"/>
<polygon fill="midnightblue" stroke="midnightblue" points="378.04,-294.112 388.417,-291.975 378.973,-287.174 378.04,-294.112"/>
</g>
<!-- Node34 -->
<g id="node34" class="node"><title>Node34</title>
<g id="a_node34"><a xlink:href="../../df/df8/class_cell_society_view.html#ad5402d2d2d1742a8e770f9cd9d81bca8" target="_top" xlink:title="CellSocietyView.setUpGrid\lTypes">
<polygon fill="white" stroke="black" points="393.5,-238 393.5,-268 534.5,-268 534.5,-238 393.5,-238"/>
<text text-anchor="start" x="401.5" y="-256" font-family="Helvetica,sans-Serif" font-size="10.00">CellSocietyView.setUpGrid</text>
<text text-anchor="middle" x="464" y="-245" font-family="Helvetica,sans-Serif" font-size="10.00">Types</text>
</a>
</g>
</g>
<!-- Node30&#45;&gt;Node34 -->
<g id="edge39" class="edge"><title>Node30&#45;&gt;Node34</title>
<path fill="none" stroke="midnightblue" d="M337.132,-269.241C351.846,-267.342 367.82,-265.281 383.293,-263.285"/>
<polygon fill="midnightblue" stroke="midnightblue" points="383.9,-266.736 393.37,-261.985 383.004,-259.793 383.9,-266.736"/>
</g>
<!-- Node35 -->
<g id="node35" class="node"><title>Node35</title>
<g id="a_node35"><a xlink:href="../../df/df8/class_cell_society_view.html#a27ae0cdbf36de43361377532b78055bc" target="_top" xlink:title="CellSocietyView.setUpNbhood\lTypes">
<polygon fill="white" stroke="black" points="384.5,-189 384.5,-219 543.5,-219 543.5,-189 384.5,-189"/>
<text text-anchor="start" x="392.5" y="-207" font-family="Helvetica,sans-Serif" font-size="10.00">CellSocietyView.setUpNbhood</text>
<text text-anchor="middle" x="464" y="-196" font-family="Helvetica,sans-Serif" font-size="10.00">Types</text>
</a>
</g>
</g>
<!-- Node30&#45;&gt;Node35 -->
<g id="edge40" class="edge"><title>Node30&#45;&gt;Node35</title>
<path fill="none" stroke="midnightblue" d="M296.436,-267.465C317.661,-257.245 352.798,-240.89 384,-229 389.999,-226.714 396.307,-224.465 402.634,-222.31"/>
<polygon fill="midnightblue" stroke="midnightblue" points="404.168,-225.489 412.55,-219.009 401.957,-218.847 404.168,-225.489"/>
</g>
<!-- Node32 -->
<g id="node32" class="node"><title>Node32</title>
<g id="a_node32"><a xlink:href="../../df/df8/class_cell_society_view.html#a1b6388535f7c24c4fc076db62c78ac92" target="_top" xlink:title="CellSocietyView.addGameType">
<polygon fill="white" stroke="black" points="580.5,-284.5 580.5,-303.5 741.5,-303.5 741.5,-284.5 580.5,-284.5"/>
<text text-anchor="middle" x="661" y="-291.5" font-family="Helvetica,sans-Serif" font-size="10.00">CellSocietyView.addGameType</text>
</a>
</g>
</g>
<!-- Node31&#45;&gt;Node32 -->
<g id="edge37" class="edge"><title>Node31&#45;&gt;Node32</title>
<path fill="none" stroke="midnightblue" d="M539.556,-298.941C549.555,-298.531 559.896,-298.107 570.123,-297.687"/>
<polygon fill="midnightblue" stroke="midnightblue" points="570.449,-301.177 580.297,-297.27 570.162,-294.183 570.449,-301.177"/>
</g>
<!-- Node33 -->
<g id="node33" class="node"><title>Node33</title>
<g id="a_node33"><a xlink:href="../../d2/d40/class_cellular_automata.html#ad8e068dc2395ca5598e5e4164ecfe6b2" target="_top" xlink:title="CellularAutomata.getName">
<polygon fill="white" stroke="black" points="786,-282.5 786,-301.5 934,-301.5 934,-282.5 786,-282.5"/>
<text text-anchor="middle" x="860" y="-289.5" font-family="Helvetica,sans-Serif" font-size="10.00">CellularAutomata.getName</text>
</a>
</g>
</g>
<!-- Node32&#45;&gt;Node33 -->
<g id="edge38" class="edge"><title>Node32&#45;&gt;Node33</title>
<path fill="none" stroke="midnightblue" d="M741.56,-293.192C752.761,-293.079 764.301,-292.961 775.572,-292.847"/>
<polygon fill="midnightblue" stroke="midnightblue" points="775.865,-296.344 785.829,-292.743 775.794,-289.345 775.865,-296.344"/>
</g>
</g>
</svg>
