<?xml version="1.0" encoding="UTF-8" standalone="no"?>
<!DOCTYPE svg PUBLIC "-//W3C//DTD SVG 1.1//EN"
 "http://www.w3.org/Graphics/SVG/1.1/DTD/svg11.dtd">
<!-- Generated by graphviz version 2.36.0 (20140111.2315)
 -->
<!-- Title: CellSocietyView.parseFile Pages: 1 -->
<svg width="1534pt" height="669pt"
 viewBox="0.00 0.00 1534.00 669.11" xmlns="http://www.w3.org/2000/svg" xmlns:xlink="http://www.w3.org/1999/xlink">
<g id="graph0" class="graph" transform="scale(1 1) rotate(0) translate(4 665.113)">
<title>CellSocietyView.parseFile</title>
<polygon fill="white" stroke="none" points="-4,4 -4,-665.113 1530,-665.113 1530,4 -4,4"/>
<!-- Node1 -->
<g id="node1" class="node"><title>Node1</title>
<polygon fill="#bfbfbf" stroke="black" points="0.5,-159.613 0.5,-178.613 135.5,-178.613 135.5,-159.613 0.5,-159.613"/>
<text text-anchor="middle" x="68" y="-166.613" font-family="Helvetica,sans-Serif" font-size="10.00">CellSocietyView.parseFile</text>
</g>
<!-- Node2 -->
<g id="node2" class="node"><title>Node2</title>
<g id="a_node2"><a xlink:href="../../df/df8/class_cell_society_view.html#a767ab215ca329ba41b1493702141f841" target="_top" xlink:title="CellSocietyView.makeCAGame">
<polygon fill="white" stroke="black" points="172.5,-359.613 172.5,-378.613 335.5,-378.613 335.5,-359.613 172.5,-359.613"/>
<text text-anchor="middle" x="254" y="-366.613" font-family="Helvetica,sans-Serif" font-size="10.00">CellSocietyView.makeCAGame</text>
</a>
</g>
</g>
<!-- Node1&#45;&gt;Node2 -->
<g id="edge1" class="edge"><title>Node1&#45;&gt;Node2</title>
<path fill="none" stroke="midnightblue" d="M77.8747,-178.759C107.022,-210.441 200.074,-311.584 237.345,-352.096"/>
<polygon fill="midnightblue" stroke="midnightblue" points="234.868,-354.574 244.214,-359.563 240.02,-349.834 234.868,-354.574"/>
</g>
<!-- Node3 -->
<g id="node3" class="node"><title>Node3</title>
<g id="a_node3"><a xlink:href="../../d2/d40/class_cellular_automata.html#a34ceed434c942d34ff03169b92684726" target="_top" xlink:title="CellularAutomata.getGrid">
<polygon fill="white" stroke="black" points="1388,-340.613 1388,-359.613 1526,-359.613 1526,-340.613 1388,-340.613"/>
<text text-anchor="middle" x="1457" y="-347.613" font-family="Helvetica,sans-Serif" font-size="10.00">CellularAutomata.getGrid</text>
</a>
</g>
</g>
<!-- Node2&#45;&gt;Node3 -->
<g id="edge2" class="edge"><title>Node2&#45;&gt;Node3</title>
<path fill="none" stroke="midnightblue" d="M278.746,-359.49C302.068,-350.499 338.871,-337.528 372,-331.113 493.15,-307.655 525.6,-312.113 649,-312.113 649,-312.113 649,-312.113 1057,-312.113 1188.38,-312.113 1221.6,-315.058 1352,-331.113 1367.77,-333.054 1384.76,-335.854 1400.34,-338.711"/>
<polygon fill="midnightblue" stroke="midnightblue" points="1399.88,-342.185 1410.36,-340.587 1401.17,-335.305 1399.88,-342.185"/>
</g>
<!-- Node4 -->
<g id="node4" class="node"><title>Node4</title>
<g id="a_node4"><a xlink:href="../../da/d74/class_grid.html#acbc0b625c8f9d2f76db2f2a0d5288cd9" target="_top" xlink:title="Grid.init">
<polygon fill="white" stroke="black" points="425.5,-614.613 425.5,-633.613 478.5,-633.613 478.5,-614.613 425.5,-614.613"/>
<text text-anchor="middle" x="452" y="-621.613" font-family="Helvetica,sans-Serif" font-size="10.00">Grid.init</text>
</a>
</g>
</g>
<!-- Node2&#45;&gt;Node4 -->
<g id="edge3" class="edge"><title>Node2&#45;&gt;Node4</title>
<path fill="none" stroke="midnightblue" d="M258.183,-378.642C269.249,-410.573 308.852,-515.364 372,-579.113 384.971,-592.207 402.544,-602.718 417.824,-610.278"/>
<polygon fill="midnightblue" stroke="midnightblue" points="416.442,-613.496 426.979,-614.601 419.431,-607.166 416.442,-613.496"/>
</g>
<!-- Node6 -->
<g id="node6" class="node"><title>Node6</title>
<g id="a_node6"><a xlink:href="../../d2/d40/class_cellular_automata.html#a347bfd2a64ee2d615902f6922e95fa6f" target="_top" xlink:title="CellularAutomata.init">
<polygon fill="white" stroke="black" points="393.5,-550.613 393.5,-569.613 510.5,-569.613 510.5,-550.613 393.5,-550.613"/>
<text text-anchor="middle" x="452" y="-557.613" font-family="Helvetica,sans-Serif" font-size="10.00">CellularAutomata.init</text>
</a>
</g>
</g>
<!-- Node2&#45;&gt;Node6 -->
<g id="edge5" class="edge"><title>Node2&#45;&gt;Node6</title>
<path fill="none" stroke="midnightblue" d="M263.107,-378.687C281.574,-400.3 328.538,-454.18 372,-495.113 390.764,-512.785 413.642,-531.31 429.939,-544.041"/>
<polygon fill="midnightblue" stroke="midnightblue" points="428.199,-547.12 438.248,-550.476 432.485,-541.586 428.199,-547.12"/>
</g>
<!-- Node8 -->
<g id="node8" class="node"><title>Node8</title>
<g id="a_node8"><a xlink:href="../../df/df8/class_cell_society_view.html#a7bdbd4e8fd3893e672eb22015603f6dc" target="_top" xlink:title="CellSocietyView.makeButtons">
<polygon fill="white" stroke="black" points="373,-170.613 373,-189.613 531,-189.613 531,-170.613 373,-170.613"/>
<text text-anchor="middle" x="452" y="-177.613" font-family="Helvetica,sans-Serif" font-size="10.00">CellSocietyView.makeButtons</text>
</a>
</g>
</g>
<!-- Node2&#45;&gt;Node8 -->
<g id="edge7" class="edge"><title>Node2&#45;&gt;Node8</title>
<path fill="none" stroke="midnightblue" d="M264.989,-359.48C296.371,-329.219 393.272,-235.78 433.36,-197.123"/>
<polygon fill="midnightblue" stroke="midnightblue" points="436.027,-199.413 440.796,-189.952 431.168,-194.374 436.027,-199.413"/>
</g>
<!-- Node21 -->
<g id="node21" class="node"><title>Node21</title>
<g id="a_node21"><a xlink:href="../../dd/d97/class_grid_drawer.html#a8853ef53b515fd60ca524f05a3dbf897" target="_top" xlink:title="GridDrawer.updateNextGen">
<polygon fill="white" stroke="black" points="982,-384.613 982,-403.613 1130,-403.613 1130,-384.613 982,-384.613"/>
<text text-anchor="middle" x="1056" y="-391.613" font-family="Helvetica,sans-Serif" font-size="10.00">GridDrawer.updateNextGen</text>
</a>
</g>
</g>
<!-- Node2&#45;&gt;Node21 -->
<g id="edge42" class="edge"><title>Node2&#45;&gt;Node21</title>
<path fill="none" stroke="midnightblue" d="M335.74,-371.636C488.154,-376.399 816.792,-386.669 971.389,-391.5"/>
<polygon fill="midnightblue" stroke="midnightblue" points="971.661,-395.01 981.766,-391.824 971.88,-388.014 971.661,-395.01"/>
</g>
<!-- Node24 -->
<g id="node24" class="node"><title>Node24</title>
<g id="a_node24"><a xlink:href="../../dd/d97/class_grid_drawer.html#ab8aa1cc79c89cfbc7b9d8516a5dee463" target="_top" xlink:title="GridDrawer.makeGrid">
<polygon fill="white" stroke="black" points="392.5,-466.613 392.5,-485.613 511.5,-485.613 511.5,-466.613 392.5,-466.613"/>
<text text-anchor="middle" x="452" y="-473.613" font-family="Helvetica,sans-Serif" font-size="10.00">GridDrawer.makeGrid</text>
</a>
</g>
</g>
<!-- Node2&#45;&gt;Node24 -->
<g id="edge31" class="edge"><title>Node2&#45;&gt;Node24</title>
<path fill="none" stroke="midnightblue" d="M272.739,-378.797C307.359,-397.697 384.077,-439.579 424.655,-461.73"/>
<polygon fill="midnightblue" stroke="midnightblue" points="422.988,-464.808 433.442,-466.528 426.342,-458.664 422.988,-464.808"/>
</g>
<!-- Node33 -->
<g id="node33" class="node"><title>Node33</title>
<g id="a_node33"><a xlink:href="../../df/df8/class_cell_society_view.html#adf6a6b0542d00677a9fffbb8e3c03ffe" target="_top" xlink:title="CellSocietyView.makeTimeline">
<polygon fill="white" stroke="black" points="372,-340.613 372,-359.613 532,-359.613 532,-340.613 372,-340.613"/>
<text text-anchor="middle" x="452" y="-347.613" font-family="Helvetica,sans-Serif" font-size="10.00">CellSocietyView.makeTimeline</text>
</a>
</g>
</g>
<!-- Node2&#45;&gt;Node33 -->
<g id="edge40" class="edge"><title>Node2&#45;&gt;Node33</title>
<path fill="none" stroke="midnightblue" d="M335.569,-361.303C344.145,-360.471 352.904,-359.622 361.573,-358.782"/>
<polygon fill="midnightblue" stroke="midnightblue" points="362.077,-362.249 371.693,-357.801 361.402,-355.282 362.077,-362.249"/>
</g>
<!-- Node5 -->
<g id="node5" class="node"><title>Node5</title>
<g id="a_node5"><a xlink:href="../../da/d74/class_grid.html#af432eea602599251a5e456fd24e38661" target="_top" xlink:title="Grid.makeGrid">
<polygon fill="white" stroke="black" points="607,-641.613 607,-660.613 693,-660.613 693,-641.613 607,-641.613"/>
<text text-anchor="middle" x="650" y="-648.613" font-family="Helvetica,sans-Serif" font-size="10.00">Grid.makeGrid</text>
</a>
</g>
</g>
<!-- Node4&#45;&gt;Node5 -->
<g id="edge4" class="edge"><title>Node4&#45;&gt;Node5</title>
<path fill="none" stroke="midnightblue" d="M478.624,-627.643C508.533,-631.763 558.765,-638.683 596.958,-643.944"/>
<polygon fill="midnightblue" stroke="midnightblue" points="596.501,-647.414 606.885,-645.311 597.457,-640.479 596.501,-647.414"/>
</g>
<!-- Node7 -->
<g id="node7" class="node"><title>Node7</title>
<g id="a_node7"><a xlink:href="../../d2/d40/class_cellular_automata.html#ac4d0b9bd9416cb4b3567caacc05cd55a" target="_top" xlink:title="CellularAutomata.setUpInitial\lConfig">
<polygon fill="white" stroke="black" points="572,-592.113 572,-622.113 728,-622.113 728,-592.113 572,-592.113"/>
<text text-anchor="start" x="580" y="-610.113" font-family="Helvetica,sans-Serif" font-size="10.00">CellularAutomata.setUpInitial</text>
<text text-anchor="middle" x="650" y="-599.113" font-family="Helvetica,sans-Serif" font-size="10.00">Config</text>
</a>
</g>
</g>
<!-- Node6&#45;&gt;Node7 -->
<g id="edge6" class="edge"><title>Node6&#45;&gt;Node7</title>
<path fill="none" stroke="midnightblue" d="M492.664,-569.624C516.678,-575.383 548.041,-582.903 576.367,-589.696"/>
<polygon fill="midnightblue" stroke="midnightblue" points="575.703,-593.136 586.243,-592.064 577.335,-586.329 575.703,-593.136"/>
</g>
<!-- Node9 -->
<g id="node9" class="node"><title>Node9</title>
<g id="a_node9"><a xlink:href="../../df/df8/class_cell_society_view.html#ae4f695e25edd84b67be004d3b1a7a437" target="_top" xlink:title="CellSocietyView.makeFFButton">
<polygon fill="white" stroke="black" points="568.5,-214.613 568.5,-233.613 731.5,-233.613 731.5,-214.613 568.5,-214.613"/>
<text text-anchor="middle" x="650" y="-221.613" font-family="Helvetica,sans-Serif" font-size="10.00">CellSocietyView.makeFFButton</text>
</a>
</g>
</g>
<!-- Node8&#45;&gt;Node9 -->
<g id="edge8" class="edge"><title>Node8&#45;&gt;Node9</title>
<path fill="none" stroke="midnightblue" d="M495.529,-189.66C525.194,-196.32 564.971,-205.249 596.596,-212.349"/>
<polygon fill="midnightblue" stroke="midnightblue" points="596.03,-215.809 606.554,-214.584 597.563,-208.979 596.03,-215.809"/>
</g>
<!-- Node11 -->
<g id="node11" class="node"><title>Node11</title>
<g id="a_node11"><a xlink:href="../../df/df8/class_cell_society_view.html#a656cfed0ba32bc41bbd0c4087860db4b" target="_top" xlink:title="CellSocietyView.makeLoad\lButton">
<polygon fill="white" stroke="black" points="578.5,-18.1129 578.5,-48.1129 721.5,-48.1129 721.5,-18.1129 578.5,-18.1129"/>
<text text-anchor="start" x="586.5" y="-36.1129" font-family="Helvetica,sans-Serif" font-size="10.00">CellSocietyView.makeLoad</text>
<text text-anchor="middle" x="650" y="-25.1129" font-family="Helvetica,sans-Serif" font-size="10.00">Button</text>
</a>
</g>
</g>
<!-- Node8&#45;&gt;Node11 -->
<g id="edge10" class="edge"><title>Node8&#45;&gt;Node11</title>
<path fill="none" stroke="midnightblue" d="M459.255,-170.491C474.785,-147.373 517.517,-88.3097 568,-57.1129 570.659,-55.4696 573.437,-53.9336 576.295,-52.4985"/>
<polygon fill="midnightblue" stroke="midnightblue" points="577.992,-55.5717 585.65,-48.25 575.098,-49.1981 577.992,-55.5717"/>
</g>
<!-- Node13 -->
<g id="node13" class="node"><title>Node13</title>
<g id="a_node13"><a xlink:href="../../df/df8/class_cell_society_view.html#ae177299e365c8c48502004eb87a03cf1" target="_top" xlink:title="CellSocietyView.makePause\lButton">
<polygon fill="white" stroke="black" points="575.5,-165.113 575.5,-195.113 724.5,-195.113 724.5,-165.113 575.5,-165.113"/>
<text text-anchor="start" x="583.5" y="-183.113" font-family="Helvetica,sans-Serif" font-size="10.00">CellSocietyView.makePause</text>
<text text-anchor="middle" x="650" y="-172.113" font-family="Helvetica,sans-Serif" font-size="10.00">Button</text>
</a>
</g>
</g>
<!-- Node8&#45;&gt;Node13 -->
<g id="edge14" class="edge"><title>Node8&#45;&gt;Node13</title>
<path fill="none" stroke="midnightblue" d="M531.028,-180.113C542.225,-180.113 553.786,-180.113 565.091,-180.113"/>
<polygon fill="midnightblue" stroke="midnightblue" points="565.384,-183.613 575.384,-180.113 565.384,-176.613 565.384,-183.613"/>
</g>
<!-- Node14 -->
<g id="node14" class="node"><title>Node14</title>
<g id="a_node14"><a xlink:href="../../df/df8/class_cell_society_view.html#a1531c1a5ad4e0630046bfe4e8c3127e8" target="_top" xlink:title="CellSocietyView.makePlay\lButton">
<polygon fill="white" stroke="black" points="580,-116.113 580,-146.113 720,-146.113 720,-116.113 580,-116.113"/>
<text text-anchor="start" x="588" y="-134.113" font-family="Helvetica,sans-Serif" font-size="10.00">CellSocietyView.makePlay</text>
<text text-anchor="middle" x="650" y="-123.113" font-family="Helvetica,sans-Serif" font-size="10.00">Button</text>
</a>
</g>
</g>
<!-- Node8&#45;&gt;Node14 -->
<g id="edge16" class="edge"><title>Node8&#45;&gt;Node14</title>
<path fill="none" stroke="midnightblue" d="M491.256,-170.549C516.179,-164.318 549.437,-156.003 578.99,-148.615"/>
<polygon fill="midnightblue" stroke="midnightblue" points="580,-151.971 588.852,-146.15 578.302,-145.18 580,-151.971"/>
</g>
<!-- Node15 -->
<g id="node15" class="node"><title>Node15</title>
<g id="a_node15"><a xlink:href="../../df/df8/class_cell_society_view.html#a304edeb753eed8cedb1c8e0ad952a4d8" target="_top" xlink:title="CellSocietyView.makeSlow\lButton">
<polygon fill="white" stroke="black" points="579,-67.1129 579,-97.1129 721,-97.1129 721,-67.1129 579,-67.1129"/>
<text text-anchor="start" x="587" y="-85.1129" font-family="Helvetica,sans-Serif" font-size="10.00">CellSocietyView.makeSlow</text>
<text text-anchor="middle" x="650" y="-74.1129" font-family="Helvetica,sans-Serif" font-size="10.00">Button</text>
</a>
</g>
</g>
<!-- Node8&#45;&gt;Node15 -->
<g id="edge18" class="edge"><title>Node8&#45;&gt;Node15</title>
<path fill="none" stroke="midnightblue" d="M465.418,-170.418C485.797,-154.912 528.075,-124.419 568,-106.113 572.275,-104.153 576.749,-102.307 581.306,-100.578"/>
<polygon fill="midnightblue" stroke="midnightblue" points="582.509,-103.866 590.739,-97.1939 580.145,-97.2768 582.509,-103.866"/>
</g>
<!-- Node16 -->
<g id="node16" class="node"><title>Node16</title>
<g id="a_node16"><a xlink:href="../../df/df8/class_cell_society_view.html#aec6e94a6cf275f0b5d64a4b8adccd7d0" target="_top" xlink:title="CellSocietyView.makeStep\lButton">
<polygon fill="white" stroke="black" points="578.5,-253.113 578.5,-283.113 721.5,-283.113 721.5,-253.113 578.5,-253.113"/>
<text text-anchor="start" x="586.5" y="-271.113" font-family="Helvetica,sans-Serif" font-size="10.00">CellSocietyView.makeStep</text>
<text text-anchor="middle" x="650" y="-260.113" font-family="Helvetica,sans-Serif" font-size="10.00">Button</text>
</a>
</g>
</g>
<!-- Node8&#45;&gt;Node16 -->
<g id="edge20" class="edge"><title>Node8&#45;&gt;Node16</title>
<path fill="none" stroke="midnightblue" d="M468.129,-189.697C489.661,-203.033 530.681,-227.323 568,-243.113 573.47,-245.427 579.229,-247.633 585.049,-249.708"/>
<polygon fill="midnightblue" stroke="midnightblue" points="584.267,-253.14 594.862,-253.07 586.536,-246.518 584.267,-253.14"/>
</g>
<!-- Node10 -->
<g id="node10" class="node"><title>Node10</title>
<g id="a_node10"><a xlink:href="../../df/df8/class_cell_society_view.html#ae09ddc20f81e90312e628d712a5c6afc" target="_top" xlink:title="CellSocietyView.makeUIButton">
<polygon fill="white" stroke="black" points="768,-145.613 768,-164.613 930,-164.613 930,-145.613 768,-145.613"/>
<text text-anchor="middle" x="849" y="-152.613" font-family="Helvetica,sans-Serif" font-size="10.00">CellSocietyView.makeUIButton</text>
</a>
</g>
</g>
<!-- Node9&#45;&gt;Node10 -->
<g id="edge9" class="edge"><title>Node9&#45;&gt;Node10</title>
<path fill="none" stroke="midnightblue" d="M695.08,-214.565C707.159,-211.588 720.179,-208.042 732,-204.113 762.134,-194.098 795.416,-179.673 818.573,-169.067"/>
<polygon fill="midnightblue" stroke="midnightblue" points="820.233,-172.155 827.839,-164.779 817.293,-165.802 820.233,-172.155"/>
</g>
<!-- Node11&#45;&gt;Node10 -->
<g id="edge13" class="edge"><title>Node11&#45;&gt;Node10</title>
<path fill="none" stroke="midnightblue" d="M711.827,-48.1182C718.804,-50.715 725.675,-53.7004 732,-57.1129 772.325,-78.8692 811.361,-116.253 832.273,-138.018"/>
<polygon fill="midnightblue" stroke="midnightblue" points="829.955,-140.661 839.365,-145.53 835.045,-135.856 829.955,-140.661"/>
</g>
<!-- Node12 -->
<g id="node12" class="node"><title>Node12</title>
<g id="a_node12"><a xlink:href="../../df/df8/class_cell_society_view.html#a2c047a3972078bb0a5490ed225ef2dfa" target="_top" xlink:title="CellSocietyView.loadNewFile">
<polygon fill="white" stroke="black" points="774.5,-1.61285 774.5,-20.6129 923.5,-20.6129 923.5,-1.61285 774.5,-1.61285"/>
<text text-anchor="middle" x="849" y="-8.61285" font-family="Helvetica,sans-Serif" font-size="10.00">CellSocietyView.loadNewFile</text>
</a>
</g>
</g>
<!-- Node11&#45;&gt;Node12 -->
<g id="edge11" class="edge"><title>Node11&#45;&gt;Node12</title>
<path fill="none" stroke="midnightblue" d="M721.565,-25.2325C735.335,-23.6947 749.9,-22.0682 764.054,-20.4875"/>
<polygon fill="midnightblue" stroke="midnightblue" points="764.722,-23.9348 774.271,-19.3465 763.945,-16.9781 764.722,-23.9348"/>
</g>
<!-- Node12&#45;&gt;Node1 -->
<g id="edge12" class="edge"><title>Node12&#45;&gt;Node1</title>
<path fill="none" stroke="midnightblue" d="M774.412,-3.68802C717.658,0.441615 637.394,2.80479 568,-8.11285 384.693,-36.9524 176.917,-121.947 99.8677,-155.381"/>
<polygon fill="midnightblue" stroke="midnightblue" points="98.0572,-152.352 90.2943,-159.562 100.859,-158.767 98.0572,-152.352"/>
</g>
<!-- Node13&#45;&gt;Node10 -->
<g id="edge15" class="edge"><title>Node13&#45;&gt;Node10</title>
<path fill="none" stroke="midnightblue" d="M724.636,-170.768C737.053,-169.192 750.035,-167.545 762.719,-165.935"/>
<polygon fill="midnightblue" stroke="midnightblue" points="763.332,-169.386 772.811,-164.655 762.45,-162.441 763.332,-169.386"/>
</g>
<!-- Node14&#45;&gt;Node10 -->
<g id="edge17" class="edge"><title>Node14&#45;&gt;Node10</title>
<path fill="none" stroke="midnightblue" d="M720.178,-139.541C732.988,-141.101 746.526,-142.751 759.812,-144.369"/>
<polygon fill="midnightblue" stroke="midnightblue" points="759.556,-147.864 769.906,-145.599 760.402,-140.915 759.556,-147.864"/>
</g>
<!-- Node15&#45;&gt;Node10 -->
<g id="edge19" class="edge"><title>Node15&#45;&gt;Node10</title>
<path fill="none" stroke="midnightblue" d="M704.865,-97.1561C713.978,-99.9624 723.301,-102.998 732,-106.113 761.715,-116.754 794.808,-130.977 818.018,-141.358"/>
<polygon fill="midnightblue" stroke="midnightblue" points="816.766,-144.633 827.322,-145.55 819.642,-138.251 816.766,-144.633"/>
</g>
<!-- Node16&#45;&gt;Node10 -->
<g id="edge21" class="edge"><title>Node16&#45;&gt;Node10</title>
<path fill="none" stroke="midnightblue" d="M708.642,-253.069C716.667,-250.189 724.668,-246.876 732,-243.113 770.288,-223.462 808.954,-191.028 830.561,-171.505"/>
<polygon fill="midnightblue" stroke="midnightblue" points="832.968,-174.047 837.971,-164.708 828.236,-168.888 832.968,-174.047"/>
</g>
<!-- Node17 -->
<g id="node17" class="node"><title>Node17</title>
<g id="a_node17"><a xlink:href="../../df/df8/class_cell_society_view.html#ad52b914fa03b45d8bc9d64fc407660f3" target="_top" xlink:title="CellSocietyView.updateView">
<polygon fill="white" stroke="black" points="774.5,-340.613 774.5,-359.613 923.5,-359.613 923.5,-340.613 774.5,-340.613"/>
<text text-anchor="middle" x="849" y="-347.613" font-family="Helvetica,sans-Serif" font-size="10.00">CellSocietyView.updateView</text>
</a>
</g>
</g>
<!-- Node16&#45;&gt;Node17 -->
<g id="edge22" class="edge"><title>Node16&#45;&gt;Node17</title>
<path fill="none" stroke="midnightblue" d="M687.133,-283.153C723.888,-298.452 780.324,-321.943 815.652,-336.648"/>
<polygon fill="midnightblue" stroke="midnightblue" points="814.445,-339.937 825.022,-340.548 817.135,-333.474 814.445,-339.937"/>
</g>
<!-- Node18 -->
<g id="node18" class="node"><title>Node18</title>
<g id="a_node18"><a xlink:href="../../d2/d40/class_cellular_automata.html#a8f4c8a2f32137db67dd31f5afb4b62c3" target="_top" xlink:title="CellularAutomata.updateNextGen">
<polygon fill="white" stroke="black" points="966.5,-340.613 966.5,-359.613 1145.5,-359.613 1145.5,-340.613 966.5,-340.613"/>
<text text-anchor="middle" x="1056" y="-347.613" font-family="Helvetica,sans-Serif" font-size="10.00">CellularAutomata.updateNextGen</text>
</a>
</g>
</g>
<!-- Node17&#45;&gt;Node18 -->
<g id="edge23" class="edge"><title>Node17&#45;&gt;Node18</title>
<path fill="none" stroke="midnightblue" d="M923.72,-350.113C934.266,-350.113 945.255,-350.113 956.187,-350.113"/>
<polygon fill="midnightblue" stroke="midnightblue" points="956.197,-353.613 966.197,-350.113 956.197,-346.613 956.197,-353.613"/>
</g>
<!-- Node17&#45;&gt;Node21 -->
<g id="edge28" class="edge"><title>Node17&#45;&gt;Node21</title>
<path fill="none" stroke="midnightblue" d="M894.482,-359.66C925.644,-366.349 967.473,-375.327 1000.62,-382.441"/>
<polygon fill="midnightblue" stroke="midnightblue" points="1000.09,-385.908 1010.6,-384.584 1001.56,-379.063 1000.09,-385.908"/>
</g>
<!-- Node19 -->
<g id="node19" class="node"><title>Node19</title>
<g id="a_node19"><a xlink:href="../../d2/d40/class_cellular_automata.html#ab6b9e3ca964f405470ec0acc064d9b3a" target="_top" xlink:title="CellularAutomata.checkRules">
<polygon fill="white" stroke="black" points="1189.5,-340.613 1189.5,-359.613 1344.5,-359.613 1344.5,-340.613 1189.5,-340.613"/>
<text text-anchor="middle" x="1267" y="-347.613" font-family="Helvetica,sans-Serif" font-size="10.00">CellularAutomata.checkRules</text>
</a>
</g>
</g>
<!-- Node18&#45;&gt;Node19 -->
<g id="edge24" class="edge"><title>Node18&#45;&gt;Node19</title>
<path fill="none" stroke="midnightblue" d="M1145.63,-350.113C1156.79,-350.113 1168.2,-350.113 1179.33,-350.113"/>
<polygon fill="midnightblue" stroke="midnightblue" points="1179.45,-353.613 1189.45,-350.113 1179.45,-346.613 1179.45,-353.613"/>
</g>
<!-- Node20 -->
<g id="node20" class="node"><title>Node20</title>
<g id="a_node20"><a xlink:href="../../d2/d40/class_cellular_automata.html#ab39b5164764f20382801aa9a4663eb4b" target="_top" xlink:title="CellularAutomata.handleUpdate">
<polygon fill="white" stroke="black" points="1182,-378.613 1182,-397.613 1352,-397.613 1352,-378.613 1182,-378.613"/>
<text text-anchor="middle" x="1267" y="-385.613" font-family="Helvetica,sans-Serif" font-size="10.00">CellularAutomata.handleUpdate</text>
</a>
</g>
</g>
<!-- Node18&#45;&gt;Node20 -->
<g id="edge26" class="edge"><title>Node18&#45;&gt;Node20</title>
<path fill="none" stroke="midnightblue" d="M1109.47,-359.653C1138.04,-364.848 1173.58,-371.309 1203.57,-376.762"/>
<polygon fill="midnightblue" stroke="midnightblue" points="1203.04,-380.224 1213.51,-378.569 1204.3,-373.336 1203.04,-380.224"/>
</g>
<!-- Node19&#45;&gt;Node3 -->
<g id="edge25" class="edge"><title>Node19&#45;&gt;Node3</title>
<path fill="none" stroke="midnightblue" d="M1344.74,-350.113C1355.59,-350.113 1366.75,-350.113 1377.63,-350.113"/>
<polygon fill="midnightblue" stroke="midnightblue" points="1377.95,-353.613 1387.95,-350.113 1377.95,-346.613 1377.95,-353.613"/>
</g>
<!-- Node20&#45;&gt;Node3 -->
<g id="edge27" class="edge"><title>Node20&#45;&gt;Node3</title>
<path fill="none" stroke="midnightblue" d="M1315.44,-378.524C1340.81,-373.396 1372.23,-367.046 1398.92,-361.65"/>
<polygon fill="midnightblue" stroke="midnightblue" points="1399.79,-365.045 1408.9,-359.633 1398.41,-358.184 1399.79,-365.045"/>
</g>
<!-- Node22 -->
<g id="node22" class="node"><title>Node22</title>
<g id="a_node22"><a xlink:href="../../da/d74/class_grid.html#a2f2ccb1511e367a7d6e9bcb3f708cd38" target="_top" xlink:title="Grid.getCellAt">
<polygon fill="white" stroke="black" points="1225.5,-416.613 1225.5,-435.613 1308.5,-435.613 1308.5,-416.613 1225.5,-416.613"/>
<text text-anchor="middle" x="1267" y="-423.613" font-family="Helvetica,sans-Serif" font-size="10.00">Grid.getCellAt</text>
</a>
</g>
</g>
<!-- Node21&#45;&gt;Node22 -->
<g id="edge29" class="edge"><title>Node21&#45;&gt;Node22</title>
<path fill="none" stroke="midnightblue" d="M1119.14,-403.627C1149.82,-408.324 1186.36,-413.919 1215.31,-418.352"/>
<polygon fill="midnightblue" stroke="midnightblue" points="1214.8,-421.815 1225.22,-419.869 1215.86,-414.895 1214.8,-421.815"/>
</g>
<!-- Node23 -->
<g id="node23" class="node"><title>Node23</title>
<g id="a_node23"><a xlink:href="../../dd/d11/class_cell.html#aac3ac473652b817fe344534f4bec7e6f" target="_top" xlink:title="Cell.getState">
<polygon fill="white" stroke="black" points="1227.5,-454.613 1227.5,-473.613 1306.5,-473.613 1306.5,-454.613 1227.5,-454.613"/>
<text text-anchor="middle" x="1267" y="-461.613" font-family="Helvetica,sans-Serif" font-size="10.00">Cell.getState</text>
</a>
</g>
</g>
<!-- Node21&#45;&gt;Node23 -->
<g id="edge30" class="edge"><title>Node21&#45;&gt;Node23</title>
<path fill="none" stroke="midnightblue" d="M1102.95,-403.721C1117.14,-407.552 1132.56,-412.625 1146,-419.113 1163.77,-427.692 1164.01,-436.994 1182,-445.113 1193.07,-450.11 1205.58,-453.85 1217.49,-456.626"/>
<polygon fill="midnightblue" stroke="midnightblue" points="1216.8,-460.058 1227.32,-458.738 1218.27,-453.214 1216.8,-460.058"/>
</g>
<!-- Node25 -->
<g id="node25" class="node"><title>Node25</title>
<g id="a_node25"><a xlink:href="../../dd/d97/class_grid_drawer.html#af9a09b2ee81450f13a117261b67718e0" target="_top" xlink:title="GridDrawer.makeUnitGrid">
<polygon fill="white" stroke="black" points="581,-466.613 581,-485.613 719,-485.613 719,-466.613 581,-466.613"/>
<text text-anchor="middle" x="650" y="-473.613" font-family="Helvetica,sans-Serif" font-size="10.00">GridDrawer.makeUnitGrid</text>
</a>
</g>
</g>
<!-- Node24&#45;&gt;Node25 -->
<g id="edge32" class="edge"><title>Node24&#45;&gt;Node25</title>
<path fill="none" stroke="midnightblue" d="M511.541,-476.113C530.08,-476.113 550.881,-476.113 570.581,-476.113"/>
<polygon fill="midnightblue" stroke="midnightblue" points="570.765,-479.613 580.765,-476.113 570.765,-472.613 570.765,-479.613"/>
</g>
<!-- Node30 -->
<g id="node30" class="node"><title>Node30</title>
<g id="a_node30"><a xlink:href="../../dd/d97/class_grid_drawer.html#a54f548bdc35a2afef9af05a134c149f5" target="_top" xlink:title="GridDrawer.calculateCell\lWidth">
<polygon fill="white" stroke="black" points="584,-417.113 584,-447.113 716,-447.113 716,-417.113 584,-417.113"/>
<text text-anchor="start" x="592" y="-435.113" font-family="Helvetica,sans-Serif" font-size="10.00">GridDrawer.calculateCell</text>
<text text-anchor="middle" x="650" y="-424.113" font-family="Helvetica,sans-Serif" font-size="10.00">Width</text>
</a>
</g>
</g>
<!-- Node24&#45;&gt;Node30 -->
<g id="edge37" class="edge"><title>Node24&#45;&gt;Node30</title>
<path fill="none" stroke="midnightblue" d="M495.529,-466.566C518.391,-461.433 547.259,-454.953 573.772,-449.001"/>
<polygon fill="midnightblue" stroke="midnightblue" points="574.81,-452.355 583.801,-446.749 573.277,-445.525 574.81,-452.355"/>
</g>
<!-- Node31 -->
<g id="node31" class="node"><title>Node31</title>
<g id="a_node31"><a xlink:href="../../dd/d97/class_grid_drawer.html#a3f6bb5e9307bf84f9f8f4ae467ec85cf" target="_top" xlink:title="GridDrawer.calculateCell\lHeight">
<polygon fill="white" stroke="black" points="584,-543.113 584,-573.113 716,-573.113 716,-543.113 584,-543.113"/>
<text text-anchor="start" x="592" y="-561.113" font-family="Helvetica,sans-Serif" font-size="10.00">GridDrawer.calculateCell</text>
<text text-anchor="middle" x="650" y="-550.113" font-family="Helvetica,sans-Serif" font-size="10.00">Height</text>
</a>
</g>
</g>
<!-- Node24&#45;&gt;Node31 -->
<g id="edge38" class="edge"><title>Node24&#45;&gt;Node31</title>
<path fill="none" stroke="midnightblue" d="M470.136,-485.696C492.266,-497.816 532.197,-518.822 568,-533.113 573.83,-535.44 579.967,-537.686 586.145,-539.813"/>
<polygon fill="midnightblue" stroke="midnightblue" points="585.257,-543.206 595.851,-543.052 587.473,-536.566 585.257,-543.206"/>
</g>
<!-- Node32 -->
<g id="node32" class="node"><title>Node32</title>
<g id="a_node32"><a xlink:href="../../dd/d97/class_grid_drawer.html#a8fba9cca18cee03651775b5785722778" target="_top" xlink:title="GridDrawer.scale">
<polygon fill="white" stroke="black" points="601.5,-504.613 601.5,-523.613 698.5,-523.613 698.5,-504.613 601.5,-504.613"/>
<text text-anchor="middle" x="650" y="-511.613" font-family="Helvetica,sans-Serif" font-size="10.00">GridDrawer.scale</text>
</a>
</g>
</g>
<!-- Node24&#45;&gt;Node32 -->
<g id="edge39" class="edge"><title>Node24&#45;&gt;Node32</title>
<path fill="none" stroke="midnightblue" d="M502.206,-485.653C529.272,-490.9 563.006,-497.44 591.307,-502.928"/>
<polygon fill="midnightblue" stroke="midnightblue" points="590.983,-506.43 601.466,-504.897 592.315,-499.558 590.983,-506.43"/>
</g>
<!-- Node26 -->
<g id="node26" class="node"><title>Node26</title>
<g id="a_node26"><a xlink:href="../../dd/d97/class_grid_drawer.html#a69ef437bdcbcdb3dca6b206b73a1ab1f" target="_top" xlink:title="GridDrawer.drawUnitCell">
<polygon fill="white" stroke="black" points="783.5,-466.613 783.5,-485.613 914.5,-485.613 914.5,-466.613 783.5,-466.613"/>
<text text-anchor="middle" x="849" y="-473.613" font-family="Helvetica,sans-Serif" font-size="10.00">GridDrawer.drawUnitCell</text>
</a>
</g>
</g>
<!-- Node25&#45;&gt;Node26 -->
<g id="edge33" class="edge"><title>Node25&#45;&gt;Node26</title>
<path fill="none" stroke="midnightblue" d="M719.072,-476.113C736.457,-476.113 755.245,-476.113 772.958,-476.113"/>
<polygon fill="midnightblue" stroke="midnightblue" points="773.244,-479.613 783.244,-476.113 773.244,-472.613 773.244,-479.613"/>
</g>
<!-- Node27 -->
<g id="node27" class="node"><title>Node27</title>
<g id="a_node27"><a xlink:href="../../dd/d97/class_grid_drawer.html#a53b8613b7621224084096d76e2316452" target="_top" xlink:title="GridDrawer.drawTriangle">
<polygon fill="white" stroke="black" points="990.5,-504.613 990.5,-523.613 1121.5,-523.613 1121.5,-504.613 990.5,-504.613"/>
<text text-anchor="middle" x="1056" y="-511.613" font-family="Helvetica,sans-Serif" font-size="10.00">GridDrawer.drawTriangle</text>
</a>
</g>
</g>
<!-- Node26&#45;&gt;Node27 -->
<g id="edge34" class="edge"><title>Node26&#45;&gt;Node27</title>
<path fill="none" stroke="midnightblue" d="M901.466,-485.653C929.368,-490.825 964.045,-497.253 993.38,-502.691"/>
<polygon fill="midnightblue" stroke="midnightblue" points="993.043,-506.188 1003.51,-504.569 994.319,-499.305 993.043,-506.188"/>
</g>
<!-- Node28 -->
<g id="node28" class="node"><title>Node28</title>
<g id="a_node28"><a xlink:href="../../dd/d97/class_grid_drawer.html#a08b9d58cde5fafa07e226d4ed2ebc655" target="_top" xlink:title="GridDrawer.drawSquare">
<polygon fill="white" stroke="black" points="991.5,-466.613 991.5,-485.613 1120.5,-485.613 1120.5,-466.613 991.5,-466.613"/>
<text text-anchor="middle" x="1056" y="-473.613" font-family="Helvetica,sans-Serif" font-size="10.00">GridDrawer.drawSquare</text>
</a>
</g>
</g>
<!-- Node26&#45;&gt;Node28 -->
<g id="edge35" class="edge"><title>Node26&#45;&gt;Node28</title>
<path fill="none" stroke="midnightblue" d="M914.582,-476.113C935.757,-476.113 959.446,-476.113 981.247,-476.113"/>
<polygon fill="midnightblue" stroke="midnightblue" points="981.445,-479.613 991.445,-476.113 981.445,-472.613 981.445,-479.613"/>
</g>
<!-- Node29 -->
<g id="node29" class="node"><title>Node29</title>
<g id="a_node29"><a xlink:href="../../dd/d97/class_grid_drawer.html#a260f7ce1d53af7f88e1c4ee3a4a3de2b" target="_top" xlink:title="GridDrawer.drawHexagon">
<polygon fill="white" stroke="black" points="987.5,-428.613 987.5,-447.613 1124.5,-447.613 1124.5,-428.613 987.5,-428.613"/>
<text text-anchor="middle" x="1056" y="-435.613" font-family="Helvetica,sans-Serif" font-size="10.00">GridDrawer.drawHexagon</text>
</a>
</g>
</g>
<!-- Node26&#45;&gt;Node29 -->
<g id="edge36" class="edge"><title>Node26&#45;&gt;Node29</title>
<path fill="none" stroke="midnightblue" d="M901.466,-466.573C929.368,-461.401 964.045,-454.973 993.38,-449.535"/>
<polygon fill="midnightblue" stroke="midnightblue" points="994.319,-452.921 1003.51,-447.657 993.043,-446.038 994.319,-452.921"/>
</g>
<!-- Node33&#45;&gt;Node17 -->
<g id="edge41" class="edge"><title>Node33&#45;&gt;Node17</title>
<path fill="none" stroke="midnightblue" d="M532.459,-350.113C599.638,-350.113 695.596,-350.113 764.025,-350.113"/>
<polygon fill="midnightblue" stroke="midnightblue" points="764.338,-353.613 774.338,-350.113 764.338,-346.613 764.338,-353.613"/>
</g>
</g>
</svg>
