<?xml version="1.0" encoding="UTF-8" standalone="no"?>
<!DOCTYPE svg PUBLIC "-//W3C//DTD SVG 1.1//EN"
 "http://www.w3.org/Graphics/SVG/1.1/DTD/svg11.dtd">
<!-- Generated by graphviz version 2.36.0 (20140111.2315)
 -->
<!-- Title: CellSocietyView.makeButtons Pages: 1 -->
<svg width="1108pt" height="53pt"
 viewBox="0.00 0.00 1108.00 53.00" xmlns="http://www.w3.org/2000/svg" xmlns:xlink="http://www.w3.org/1999/xlink">
<g id="graph0" class="graph" transform="scale(1 1) rotate(0) translate(4 49)">
<title>CellSocietyView.makeButtons</title>
<polygon fill="white" stroke="none" points="-4,4 -4,-49 1104,-49 1104,4 -4,4"/>
<!-- Node1 -->
<g id="node1" class="node"><title>Node1</title>
<polygon fill="#bfbfbf" stroke="black" points="0,-6.5 0,-25.5 158,-25.5 158,-6.5 0,-6.5"/>
<text text-anchor="middle" x="79" y="-13.5" font-family="Helvetica,sans-Serif" font-size="10.00">CellSocietyView.makeButtons</text>
</g>
<!-- Node2 -->
<g id="node2" class="node"><title>Node2</title>
<g id="a_node2"><a xlink:href="../../df/df8/class_cell_society_view.html#a767ab215ca329ba41b1493702141f841" target="_top" xlink:title="CellSocietyView.makeCAGame">
<polygon fill="white" stroke="black" points="194.5,-25.5 194.5,-44.5 357.5,-44.5 357.5,-25.5 194.5,-25.5"/>
<text text-anchor="middle" x="276" y="-32.5" font-family="Helvetica,sans-Serif" font-size="10.00">CellSocietyView.makeCAGame</text>
</a>
</g>
</g>
<!-- Node1&#45;&gt;Node2 -->
<g id="edge1" class="edge"><title>Node1&#45;&gt;Node2</title>
<path fill="none" stroke="midnightblue" d="M168.281,-24.6018C176.929,-25.4444 185.675,-26.2966 194.243,-27.1314"/>
<polygon fill="midnightblue" stroke="midnightblue" points="168.483,-21.1049 158.19,-23.6185 167.804,-28.0719 168.483,-21.1049"/>
</g>
<!-- Node3 -->
<g id="node3" class="node"><title>Node3</title>
<g id="a_node3"><a xlink:href="../../df/df8/class_cell_society_view.html#a2ee793e471cc5731ce39c1450f058dd5" target="_top" xlink:title="CellSocietyView.parseFile">
<polygon fill="white" stroke="black" points="394.5,-25.5 394.5,-44.5 529.5,-44.5 529.5,-25.5 394.5,-25.5"/>
<text text-anchor="middle" x="462" y="-32.5" font-family="Helvetica,sans-Serif" font-size="10.00">CellSocietyView.parseFile</text>
</a>
</g>
</g>
<!-- Node2&#45;&gt;Node3 -->
<g id="edge2" class="edge"><title>Node2&#45;&gt;Node3</title>
<path fill="none" stroke="midnightblue" d="M367.807,-35C376.777,-35 385.762,-35 394.42,-35"/>
<polygon fill="midnightblue" stroke="midnightblue" points="367.705,-31.5001 357.705,-35 367.705,-38.5001 367.705,-31.5001"/>
</g>
<!-- Node4 -->
<g id="node4" class="node"><title>Node4</title>
<g id="a_node4"><a xlink:href="../../df/df8/class_cell_society_view.html#a2c047a3972078bb0a5490ed225ef2dfa" target="_top" xlink:title="CellSocietyView.loadNewFile">
<polygon fill="white" stroke="black" points="566.5,-25.5 566.5,-44.5 715.5,-44.5 715.5,-25.5 566.5,-25.5"/>
<text text-anchor="middle" x="641" y="-32.5" font-family="Helvetica,sans-Serif" font-size="10.00">CellSocietyView.loadNewFile</text>
</a>
</g>
</g>
<!-- Node3&#45;&gt;Node4 -->
<g id="edge3" class="edge"><title>Node3&#45;&gt;Node4</title>
<path fill="none" stroke="midnightblue" d="M539.865,-35C548.633,-35 557.557,-35 566.283,-35"/>
<polygon fill="midnightblue" stroke="midnightblue" points="539.664,-31.5001 529.664,-35 539.664,-38.5001 539.664,-31.5001"/>
</g>
<!-- Node5 -->
<g id="node5" class="node"><title>Node5</title>
<g id="a_node5"><a xlink:href="../../df/df8/class_cell_society_view.html#a656cfed0ba32bc41bbd0c4087860db4b" target="_top" xlink:title="CellSocietyView.makeLoad\lButton">
<polygon fill="white" stroke="black" points="752.5,-1 752.5,-31 895.5,-31 895.5,-1 752.5,-1"/>
<text text-anchor="start" x="760.5" y="-19" font-family="Helvetica,sans-Serif" font-size="10.00">CellSocietyView.makeLoad</text>
<text text-anchor="middle" x="824" y="-8" font-family="Helvetica,sans-Serif" font-size="10.00">Button</text>
</a>
</g>
</g>
<!-- Node4&#45;&gt;Node5 -->
<g id="edge4" class="edge"><title>Node4&#45;&gt;Node5</title>
<path fill="none" stroke="midnightblue" d="M725.651,-26.219C734.585,-25.2811 743.61,-24.3338 752.373,-23.4139"/>
<polygon fill="midnightblue" stroke="midnightblue" points="725.2,-22.747 715.62,-27.272 725.93,-29.7088 725.2,-22.747"/>
</g>
<!-- Node5&#45;&gt;Node1 -->
<g id="edge6" class="edge"><title>Node5&#45;&gt;Node1</title>
<path fill="none" stroke="midnightblue" d="M742.414,-16C598.71,-16 300.011,-16 158.11,-16"/>
<polygon fill="midnightblue" stroke="midnightblue" points="742.488,-19.5001 752.488,-16 742.488,-12.5001 742.488,-19.5001"/>
</g>
<!-- Node6 -->
<g id="node6" class="node"><title>Node6</title>
<g id="a_node6"><a xlink:href="../../df/df8/class_cell_society_view.html#a53ab66afdeb23b3fc89e54a44be7ced5" target="_top" xlink:title="CellSocietyView.CellSocietyView">
<polygon fill="white" stroke="black" points="932.5,-6.5 932.5,-25.5 1099.5,-25.5 1099.5,-6.5 932.5,-6.5"/>
<text text-anchor="middle" x="1016" y="-13.5" font-family="Helvetica,sans-Serif" font-size="10.00">CellSocietyView.CellSocietyView</text>
</a>
</g>
</g>
<!-- Node5&#45;&gt;Node6 -->
<g id="edge5" class="edge"><title>Node5&#45;&gt;Node6</title>
<path fill="none" stroke="midnightblue" d="M905.92,-16C914.663,-16 923.569,-16 932.332,-16"/>
<polygon fill="midnightblue" stroke="midnightblue" points="905.749,-12.5001 895.749,-16 905.749,-19.5001 905.749,-12.5001"/>
</g>
</g>
</svg>
