<?xml version="1.0" encoding="UTF-8" standalone="no"?>
<!DOCTYPE svg PUBLIC "-//W3C//DTD SVG 1.1//EN"
 "http://www.w3.org/Graphics/SVG/1.1/DTD/svg11.dtd">
<!-- Generated by graphviz version 2.36.0 (20140111.2315)
 -->
<!-- Title: CellSocietyView.loadNewFile Pages: 1 -->
<svg width="742pt" height="85pt"
 viewBox="0.00 0.00 742.00 85.00" xmlns="http://www.w3.org/2000/svg" xmlns:xlink="http://www.w3.org/1999/xlink">
<g id="graph0" class="graph" transform="scale(1 1) rotate(0) translate(4 81)">
<title>CellSocietyView.loadNewFile</title>
<polygon fill="white" stroke="none" points="-4,4 -4,-81 738,-81 738,4 -4,4"/>
<!-- Node1 -->
<g id="node1" class="node"><title>Node1</title>
<polygon fill="#bfbfbf" stroke="black" points="0.5,-3.5 0.5,-22.5 149.5,-22.5 149.5,-3.5 0.5,-3.5"/>
<text text-anchor="middle" x="75" y="-10.5" font-family="Helvetica,sans-Serif" font-size="10.00">CellSocietyView.loadNewFile</text>
</g>
<!-- Node2 -->
<g id="node2" class="node"><title>Node2</title>
<g id="a_node2"><a xlink:href="../../df/df8/class_cell_society_view.html#a656cfed0ba32bc41bbd0c4087860db4b" target="_top" xlink:title="CellSocietyView.makeLoad\lButton">
<polygon fill="white" stroke="black" points="186.5,-20 186.5,-50 329.5,-50 329.5,-20 186.5,-20"/>
<text text-anchor="start" x="194.5" y="-38" font-family="Helvetica,sans-Serif" font-size="10.00">CellSocietyView.makeLoad</text>
<text text-anchor="middle" x="258" y="-27" font-family="Helvetica,sans-Serif" font-size="10.00">Button</text>
</a>
</g>
</g>
<!-- Node1&#45;&gt;Node2 -->
<g id="edge1" class="edge"><title>Node1&#45;&gt;Node2</title>
<path fill="none" stroke="midnightblue" d="M159.651,-23.1675C168.585,-24.2535 177.61,-25.3504 186.373,-26.4155"/>
<polygon fill="midnightblue" stroke="midnightblue" points="159.969,-19.6805 149.62,-21.9482 159.124,-26.6293 159.969,-19.6805"/>
</g>
<!-- Node3 -->
<g id="node3" class="node"><title>Node3</title>
<g id="a_node3"><a xlink:href="../../df/df8/class_cell_society_view.html#a53ab66afdeb23b3fc89e54a44be7ced5" target="_top" xlink:title="CellSocietyView.CellSocietyView">
<polygon fill="white" stroke="black" points="366.5,-57.5 366.5,-76.5 533.5,-76.5 533.5,-57.5 366.5,-57.5"/>
<text text-anchor="middle" x="450" y="-64.5" font-family="Helvetica,sans-Serif" font-size="10.00">CellSocietyView.CellSocietyView</text>
</a>
</g>
</g>
<!-- Node2&#45;&gt;Node3 -->
<g id="edge2" class="edge"><title>Node2&#45;&gt;Node3</title>
<path fill="none" stroke="midnightblue" d="M340.041,-48.649C357.682,-51.6201 375.979,-54.7017 392.428,-57.4721"/>
<polygon fill="midnightblue" stroke="midnightblue" points="340.191,-45.1251 329.749,-46.9156 339.029,-52.0279 340.191,-45.1251"/>
</g>
<!-- Node4 -->
<g id="node4" class="node"><title>Node4</title>
<g id="a_node4"><a xlink:href="../../df/df8/class_cell_society_view.html#a7bdbd4e8fd3893e672eb22015603f6dc" target="_top" xlink:title="CellSocietyView.makeButtons">
<polygon fill="white" stroke="black" points="371,-19.5 371,-38.5 529,-38.5 529,-19.5 371,-19.5"/>
<text text-anchor="middle" x="450" y="-26.5" font-family="Helvetica,sans-Serif" font-size="10.00">CellSocietyView.makeButtons</text>
</a>
</g>
</g>
<!-- Node2&#45;&gt;Node4 -->
<g id="edge3" class="edge"><title>Node2&#45;&gt;Node4</title>
<path fill="none" stroke="midnightblue" d="M339.91,-32.445C350.163,-32.1212 360.641,-31.7903 370.85,-31.4679"/>
<polygon fill="midnightblue" stroke="midnightblue" points="339.634,-28.9518 329.749,-32.7658 339.855,-35.9484 339.634,-28.9518"/>
</g>
<!-- Node5 -->
<g id="node5" class="node"><title>Node5</title>
<g id="a_node5"><a xlink:href="../../df/df8/class_cell_society_view.html#a6a72ed4ee014a9c3f0368ab26be873d6" target="_top" xlink:title="CellSocietyView.makeCAGame">
<polygon fill="white" stroke="black" points="570.5,-0.5 570.5,-19.5 733.5,-19.5 733.5,-0.5 570.5,-0.5"/>
<text text-anchor="middle" x="652" y="-7.5" font-family="Helvetica,sans-Serif" font-size="10.00">CellSocietyView.makeCAGame</text>
</a>
</g>
</g>
<!-- Node4&#45;&gt;Node5 -->
<g id="edge4" class="edge"><title>Node4&#45;&gt;Node5</title>
<path fill="none" stroke="midnightblue" d="M539.379,-20.604C549.645,-19.6287 560.077,-18.6377 570.234,-17.6728"/>
<polygon fill="midnightblue" stroke="midnightblue" points="538.809,-17.1423 529.185,-21.5725 539.471,-24.111 538.809,-17.1423"/>
</g>
<!-- Node5&#45;&gt;Node1 -->
<g id="edge5" class="edge"><title>Node5&#45;&gt;Node1</title>
<path fill="none" stroke="midnightblue" d="M560.336,-9.26938C466.615,-8.68567 316.066,-8.2267 186,-10 174.252,-10.1602 161.8,-10.4165 149.661,-10.7136"/>
<polygon fill="midnightblue" stroke="midnightblue" points="560.329,-12.7693 570.351,-9.33358 560.374,-5.76945 560.329,-12.7693"/>
</g>
</g>
</svg>
