<?xml version="1.0" encoding="UTF-8" standalone="no"?>
<!DOCTYPE svg PUBLIC "-//W3C//DTD SVG 1.1//EN"
 "http://www.w3.org/Graphics/SVG/1.1/DTD/svg11.dtd">
<!-- Generated by graphviz version 2.36.0 (20140111.2315)
 -->
<!-- Title: CellSocietyView.makeTimeline Pages: 1 -->
<svg width="1110pt" height="74pt"
 viewBox="0.00 0.00 1110.00 74.00" xmlns="http://www.w3.org/2000/svg" xmlns:xlink="http://www.w3.org/1999/xlink">
<g id="graph0" class="graph" transform="scale(1 1) rotate(0) translate(4 70)">
<title>CellSocietyView.makeTimeline</title>
<polygon fill="white" stroke="none" points="-4,4 -4,-70 1106,-70 1106,4 -4,4"/>
<!-- Node1 -->
<g id="node1" class="node"><title>Node1</title>
<polygon fill="#bfbfbf" stroke="black" points="0,-17.5 0,-36.5 160,-36.5 160,-17.5 0,-17.5"/>
<text text-anchor="middle" x="80" y="-24.5" font-family="Helvetica,sans-Serif" font-size="10.00">CellSocietyView.makeTimeline</text>
</g>
<!-- Node2 -->
<g id="node2" class="node"><title>Node2</title>
<g id="a_node2"><a xlink:href="../../df/df8/class_cell_society_view.html#a767ab215ca329ba41b1493702141f841" target="_top" xlink:title="CellSocietyView.makeCAGame">
<polygon fill="white" stroke="black" points="196.5,-17.5 196.5,-36.5 359.5,-36.5 359.5,-17.5 196.5,-17.5"/>
<text text-anchor="middle" x="278" y="-24.5" font-family="Helvetica,sans-Serif" font-size="10.00">CellSocietyView.makeCAGame</text>
</a>
</g>
</g>
<!-- Node1&#45;&gt;Node2 -->
<g id="edge1" class="edge"><title>Node1&#45;&gt;Node2</title>
<path fill="none" stroke="midnightblue" d="M170.271,-27C178.937,-27 187.696,-27 196.272,-27"/>
<polygon fill="midnightblue" stroke="midnightblue" points="170.156,-23.5001 160.156,-27 170.156,-30.5001 170.156,-23.5001"/>
</g>
<!-- Node3 -->
<g id="node3" class="node"><title>Node3</title>
<g id="a_node3"><a xlink:href="../../df/df8/class_cell_society_view.html#a2ee793e471cc5731ce39c1450f058dd5" target="_top" xlink:title="CellSocietyView.parseFile">
<polygon fill="white" stroke="black" points="396.5,-38.5 396.5,-57.5 531.5,-57.5 531.5,-38.5 396.5,-38.5"/>
<text text-anchor="middle" x="464" y="-45.5" font-family="Helvetica,sans-Serif" font-size="10.00">CellSocietyView.parseFile</text>
</a>
</g>
</g>
<!-- Node2&#45;&gt;Node3 -->
<g id="edge2" class="edge"><title>Node2&#45;&gt;Node3</title>
<path fill="none" stroke="midnightblue" d="M369.807,-37.3639C378.777,-38.3876 387.762,-39.413 396.42,-40.4012"/>
<polygon fill="midnightblue" stroke="midnightblue" points="370.037,-33.8675 359.705,-36.2109 369.244,-40.8224 370.037,-33.8675"/>
</g>
<!-- Node4 -->
<g id="node4" class="node"><title>Node4</title>
<g id="a_node4"><a xlink:href="../../df/df8/class_cell_society_view.html#a2c047a3972078bb0a5490ed225ef2dfa" target="_top" xlink:title="CellSocietyView.loadNewFile">
<polygon fill="white" stroke="black" points="568.5,-39.5 568.5,-58.5 717.5,-58.5 717.5,-39.5 568.5,-39.5"/>
<text text-anchor="middle" x="643" y="-46.5" font-family="Helvetica,sans-Serif" font-size="10.00">CellSocietyView.loadNewFile</text>
</a>
</g>
</g>
<!-- Node3&#45;&gt;Node4 -->
<g id="edge3" class="edge"><title>Node3&#45;&gt;Node4</title>
<path fill="none" stroke="midnightblue" d="M541.865,-48.4343C550.633,-48.4838 559.557,-48.5342 568.283,-48.5835"/>
<polygon fill="midnightblue" stroke="midnightblue" points="541.684,-44.9333 531.664,-48.3766 541.644,-51.9332 541.684,-44.9333"/>
</g>
<!-- Node5 -->
<g id="node5" class="node"><title>Node5</title>
<g id="a_node5"><a xlink:href="../../df/df8/class_cell_society_view.html#a656cfed0ba32bc41bbd0c4087860db4b" target="_top" xlink:title="CellSocietyView.makeLoad\lButton">
<polygon fill="white" stroke="black" points="754.5,-36 754.5,-66 897.5,-66 897.5,-36 754.5,-36"/>
<text text-anchor="start" x="762.5" y="-54" font-family="Helvetica,sans-Serif" font-size="10.00">CellSocietyView.makeLoad</text>
<text text-anchor="middle" x="826" y="-43" font-family="Helvetica,sans-Serif" font-size="10.00">Button</text>
</a>
</g>
</g>
<!-- Node4&#45;&gt;Node5 -->
<g id="edge4" class="edge"><title>Node4&#45;&gt;Node5</title>
<path fill="none" stroke="midnightblue" d="M727.651,-49.9243C736.585,-50.023 745.61,-50.1228 754.373,-50.2196"/>
<polygon fill="midnightblue" stroke="midnightblue" points="727.658,-46.4243 717.62,-49.8135 727.58,-53.4239 727.658,-46.4243"/>
</g>
<!-- Node6 -->
<g id="node6" class="node"><title>Node6</title>
<g id="a_node6"><a xlink:href="../../df/df8/class_cell_society_view.html#a53ab66afdeb23b3fc89e54a44be7ced5" target="_top" xlink:title="CellSocietyView.CellSocietyView">
<polygon fill="white" stroke="black" points="934.5,-41.5 934.5,-60.5 1101.5,-60.5 1101.5,-41.5 934.5,-41.5"/>
<text text-anchor="middle" x="1018" y="-48.5" font-family="Helvetica,sans-Serif" font-size="10.00">CellSocietyView.CellSocietyView</text>
</a>
</g>
</g>
<!-- Node5&#45;&gt;Node6 -->
<g id="edge5" class="edge"><title>Node5&#45;&gt;Node6</title>
<path fill="none" stroke="midnightblue" d="M907.92,-51C916.663,-51 925.569,-51 934.332,-51"/>
<polygon fill="midnightblue" stroke="midnightblue" points="907.749,-47.5001 897.749,-51 907.749,-54.5001 907.749,-47.5001"/>
</g>
<!-- Node7 -->
<g id="node7" class="node"><title>Node7</title>
<g id="a_node7"><a xlink:href="../../df/df8/class_cell_society_view.html#a7bdbd4e8fd3893e672eb22015603f6dc" target="_top" xlink:title="CellSocietyView.makeButtons">
<polygon fill="white" stroke="black" points="939,-0.5 939,-19.5 1097,-19.5 1097,-0.5 939,-0.5"/>
<text text-anchor="middle" x="1018" y="-7.5" font-family="Helvetica,sans-Serif" font-size="10.00">CellSocietyView.makeButtons</text>
</a>
</g>
</g>
<!-- Node5&#45;&gt;Node7 -->
<g id="edge6" class="edge"><title>Node5&#45;&gt;Node7</title>
<path fill="none" stroke="midnightblue" d="M906.613,-33.8204C929.224,-28.941 953.031,-23.8039 972.723,-19.5545"/>
<polygon fill="midnightblue" stroke="midnightblue" points="905.707,-30.4353 896.67,-35.9659 907.183,-37.2778 905.707,-30.4353"/>
</g>
<!-- Node7&#45;&gt;Node2 -->
<g id="edge7" class="edge"><title>Node7&#45;&gt;Node2</title>
<path fill="none" stroke="midnightblue" d="M928.591,-12.0365C784.015,-15.3669 499.169,-21.9284 359.737,-25.1402"/>
<polygon fill="midnightblue" stroke="midnightblue" points="928.838,-15.5319 938.755,-11.8024 928.677,-8.53371 928.838,-15.5319"/>
</g>
</g>
</svg>
