<?xml version="1.0" encoding="UTF-8" standalone="no"?>
<!DOCTYPE svg PUBLIC "-//W3C//DTD SVG 1.1//EN"
 "http://www.w3.org/Graphics/SVG/1.1/DTD/svg11.dtd">
<!-- Generated by graphviz version 2.36.0 (20140111.2315)
 -->
<!-- Title: CellSocietyView.setUpNbhoodTypes Pages: 1 -->
<svg width="530pt" height="38pt"
 viewBox="0.00 0.00 530.00 38.00" xmlns="http://www.w3.org/2000/svg" xmlns:xlink="http://www.w3.org/1999/xlink">
<g id="graph0" class="graph" transform="scale(1 1) rotate(0) translate(4 34)">
<title>CellSocietyView.setUpNbhoodTypes</title>
<polygon fill="white" stroke="none" points="-4,4 -4,-34 526,-34 526,4 -4,4"/>
<!-- Node1 -->
<g id="node1" class="node"><title>Node1</title>
<polygon fill="#bfbfbf" stroke="black" points="0.5,-0 0.5,-30 159.5,-30 159.5,-0 0.5,-0"/>
<text text-anchor="start" x="8.5" y="-18" font-family="Helvetica,sans-Serif" font-size="10.00">CellSocietyView.setUpNbhood</text>
<text text-anchor="middle" x="80" y="-7" font-family="Helvetica,sans-Serif" font-size="10.00">Types</text>
</g>
<!-- Node2 -->
<g id="node2" class="node"><title>Node2</title>
<g id="a_node2"><a xlink:href="../../df/df8/class_cell_society_view.html#a61f4aa77e19dd7d6071e42bc1535f9f0" target="_top" xlink:title="CellSocietyView.setUp">
<polygon fill="white" stroke="black" points="196,-5.5 196,-24.5 318,-24.5 318,-5.5 196,-5.5"/>
<text text-anchor="middle" x="257" y="-12.5" font-family="Helvetica,sans-Serif" font-size="10.00">CellSocietyView.setUp</text>
</a>
</g>
</g>
<!-- Node1&#45;&gt;Node2 -->
<g id="edge1" class="edge"><title>Node1&#45;&gt;Node2</title>
<path fill="none" stroke="midnightblue" d="M169.563,-15C178.45,-15 187.323,-15 195.814,-15"/>
<polygon fill="midnightblue" stroke="midnightblue" points="169.542,-11.5001 159.542,-15 169.542,-18.5001 169.542,-11.5001"/>
</g>
<!-- Node3 -->
<g id="node3" class="node"><title>Node3</title>
<g id="a_node3"><a xlink:href="../../df/df8/class_cell_society_view.html#a53ab66afdeb23b3fc89e54a44be7ced5" target="_top" xlink:title="CellSocietyView.CellSocietyView">
<polygon fill="white" stroke="black" points="354.5,-5.5 354.5,-24.5 521.5,-24.5 521.5,-5.5 354.5,-5.5"/>
<text text-anchor="middle" x="438" y="-12.5" font-family="Helvetica,sans-Serif" font-size="10.00">CellSocietyView.CellSocietyView</text>
</a>
</g>
</g>
<!-- Node2&#45;&gt;Node3 -->
<g id="edge2" class="edge"><title>Node2&#45;&gt;Node3</title>
<path fill="none" stroke="midnightblue" d="M328.115,-15C336.761,-15 345.661,-15 354.47,-15"/>
<polygon fill="midnightblue" stroke="midnightblue" points="328.102,-11.5001 318.102,-15 328.102,-18.5001 328.102,-11.5001"/>
</g>
</g>
</svg>
