<?xml version="1.0" encoding="UTF-8" standalone="no"?>
<!DOCTYPE svg PUBLIC "-//W3C//DTD SVG 1.1//EN"
 "http://www.w3.org/Graphics/SVG/1.1/DTD/svg11.dtd">
<!-- Generated by graphviz version 2.36.0 (20140111.2315)
 -->
<!-- Title: CellSocietyView.CellSocietyView Pages: 1 -->
<!--zoomable 307 -->
<svg id="main" version="1.1" xmlns="http://www.w3.org/2000/svg" xmlns:xlink="http://www.w3.org/1999/xlink" xml:space="preserve" onload="init(evt)">
<style type="text/css"><![CDATA[
.edge:hover path { stroke: red; }
.edge:hover polygon { stroke: red; fill: red; }
]]></style>
<script type="text/javascript"><![CDATA[
var edges = document.getElementsByTagName('g');
if (edges && edges.length) {
  for (var i=0;i<edges.length;i++) {
    if (edges[i].id.substr(0,4)=='edge') {
      edges[i].setAttribute('class','edge');
    }
  }
}
]]></script>
        <defs>
                <circle id="rim" cx="0" cy="0" r="7"/>
                <circle id="rim2" cx="0" cy="0" r="3.5"/>
                <g id="zoomPlus">
                        <use xlink:href="#rim" fill="#404040">
                                <set attributeName="fill" to="#808080" begin="zoomplus.mouseover" end="zoomplus.mouseout"/>
                        </use>
                        <path d="M-4,0h8M0,-4v8" fill="none" stroke="white" stroke-width="1.5" pointer-events="none"/>
                </g>
                <g id="zoomMin">
                        <use xlink:href="#rim" fill="#404040">
                                <set attributeName="fill" to="#808080" begin="zoomminus.mouseover" end="zoomminus.mouseout"/>
                        </use>
                        <path d="M-4,0h8" fill="none" stroke="white" stroke-width="1.5" pointer-events="none"/>
                </g>
                <g id="dirArrow">
                        <path fill="none" stroke="white" stroke-width="1.5" d="M0,-3.0v7 M-2.5,-0.5L0,-3.0L2.5,-0.5"/>
                </g>
               <g id="resetDef">
                       <use xlink:href="#rim2" fill="#404040">
                               <set attributeName="fill" to="#808080" begin="reset.mouseover" end="reset.mouseout"/>
                       </use>
               </g>
        </defs>

<script type="text/javascript">
var viewWidth = 1164;
var viewHeight = 307;
var sectionId = 'dynsection-1';
</script>
<script xlink:href="../../svgpan.js"/>
<svg id="graph" class="graph">
<g id="viewport">
<title>CellSocietyView.CellSocietyView</title>
<polygon fill="white" stroke="none" points="-4,4 -4,-303 1160,-303 1160,4 -4,4"/>
<!-- Node1 -->
<g id="node1" class="node"><title>Node1</title>
<polygon fill="#bfbfbf" stroke="black" points="0.5,-194.5 0.5,-213.5 167.5,-213.5 167.5,-194.5 0.5,-194.5"/>
<text text-anchor="middle" x="84" y="-201.5" font-family="Helvetica,sans-Serif" font-size="10.00">CellSocietyView.CellSocietyView</text>
</g>
<!-- Node2 -->
<g id="node2" class="node"><title>Node2</title>
<g id="a_node2"><a xlink:href="../../d2/d40/class_cellular_automata.html#a34ceed434c942d34ff03169b92684726" target="_top" xlink:title="CellularAutomata.getGrid">
<polygon fill="white" stroke="black" points="1018,-251.5 1018,-270.5 1156,-270.5 1156,-251.5 1018,-251.5"/>
<text text-anchor="middle" x="1087" y="-258.5" font-family="Helvetica,sans-Serif" font-size="10.00">CellularAutomata.getGrid</text>
</a>
</g>
</g>
<!-- Node1&#45;&gt;Node2 -->
<g id="edge1" class="edge"><title>Node1&#45;&gt;Node2</title>
<path fill="none" stroke="midnightblue" d="M108.006,-213.632C167.847,-237.784 333.751,-299 478,-299 478,-299 478,-299 687,-299 818.383,-299 851.602,-296.055 982,-280 997.765,-278.059 1014.76,-275.259 1030.34,-272.402"/>
<polygon fill="midnightblue" stroke="midnightblue" points="1031.17,-275.808 1040.36,-270.526 1029.88,-268.928 1031.17,-275.808"/>
</g>
<!-- Node3 -->
<g id="node3" class="node"><title>Node3</title>
<g id="a_node3"><a xlink:href="../../df/df8/class_cell_society_view.html#a7bdbd4e8fd3893e672eb22015603f6dc" target="_top" xlink:title="CellSocietyView.makeButtons">
<polygon fill="white" stroke="black" points="204,-213.5 204,-232.5 362,-232.5 362,-213.5 204,-213.5"/>
<text text-anchor="middle" x="283" y="-220.5" font-family="Helvetica,sans-Serif" font-size="10.00">CellSocietyView.makeButtons</text>
</a>
</g>
</g>
<!-- Node1&#45;&gt;Node3 -->
<g id="edge2" class="edge"><title>Node1&#45;&gt;Node3</title>
<path fill="none" stroke="midnightblue" d="M167.689,-211.975C176.317,-212.807 185.111,-213.655 193.797,-214.493"/>
<polygon fill="midnightblue" stroke="midnightblue" points="193.637,-217.994 203.927,-215.47 194.309,-211.026 193.637,-217.994"/>
</g>
<!-- Node9 -->
<g id="node9" class="node"><title>Node9</title>
<g id="a_node9"><a xlink:href="../../dd/d97/class_grid_drawer.html#a8853ef53b515fd60ca524f05a3dbf897" target="_top" xlink:title="GridDrawer.updateNextGen">
<polygon fill="white" stroke="black" points="612,-175.5 612,-194.5 760,-194.5 760,-175.5 612,-175.5"/>
<text text-anchor="middle" x="686" y="-182.5" font-family="Helvetica,sans-Serif" font-size="10.00">GridDrawer.updateNextGen</text>
</a>
</g>
</g>
<!-- Node1&#45;&gt;Node9 -->
<g id="edge22" class="edge"><title>Node1&#45;&gt;Node9</title>
<path fill="none" stroke="midnightblue" d="M167.797,-201.378C282.167,-197.756 487.31,-191.26 601.86,-187.633"/>
<polygon fill="midnightblue" stroke="midnightblue" points="602.095,-191.127 611.98,-187.312 601.874,-184.131 602.095,-191.127"/>
</g>
<!-- Node12 -->
<g id="node12" class="node"><title>Node12</title>
<g id="a_node12"><a xlink:href="../../dd/d97/class_grid_drawer.html#ab8aa1cc79c89cfbc7b9d8516a5dee463" target="_top" xlink:title="GridDrawer.makeGrid">
<polygon fill="white" stroke="black" points="223.5,-93.5 223.5,-112.5 342.5,-112.5 342.5,-93.5 223.5,-93.5"/>
<text text-anchor="middle" x="283" y="-100.5" font-family="Helvetica,sans-Serif" font-size="10.00">GridDrawer.makeGrid</text>
</a>
</g>
</g>
<!-- Node1&#45;&gt;Node12 -->
<g id="edge12" class="edge"><title>Node1&#45;&gt;Node12</title>
<path fill="none" stroke="midnightblue" d="M103.533,-194.498C138.293,-176.677 213.439,-138.151 254.256,-117.224"/>
<polygon fill="midnightblue" stroke="midnightblue" points="256.071,-120.227 263.372,-112.55 252.877,-113.998 256.071,-120.227"/>
</g>
<!-- Node4 -->
<g id="node4" class="node"><title>Node4</title>
<g id="a_node4"><a xlink:href="../../df/df8/class_cell_society_view.html#ae09ddc20f81e90312e628d712a5c6afc" target="_top" xlink:title="CellSocietyView.makeUIButton">
<polygon fill="white" stroke="black" points="398,-251.5 398,-270.5 560,-270.5 560,-251.5 398,-251.5"/>
<text text-anchor="middle" x="479" y="-258.5" font-family="Helvetica,sans-Serif" font-size="10.00">CellSocietyView.makeUIButton</text>
</a>
</g>
</g>
<!-- Node3&#45;&gt;Node4 -->
<g id="edge3" class="edge"><title>Node3&#45;&gt;Node4</title>
<path fill="none" stroke="midnightblue" d="M332.954,-232.589C359.247,-237.739 391.84,-244.123 419.465,-249.534"/>
<polygon fill="midnightblue" stroke="midnightblue" points="418.911,-252.992 429.398,-251.48 420.257,-246.123 418.911,-252.992"/>
</g>
<!-- Node5 -->
<g id="node5" class="node"><title>Node5</title>
<g id="a_node5"><a xlink:href="../../df/df8/class_cell_society_view.html#ad52b914fa03b45d8bc9d64fc407660f3" target="_top" xlink:title="CellSocietyView.updateView">
<polygon fill="white" stroke="black" points="404.5,-213.5 404.5,-232.5 553.5,-232.5 553.5,-213.5 404.5,-213.5"/>
<text text-anchor="middle" x="479" y="-220.5" font-family="Helvetica,sans-Serif" font-size="10.00">CellSocietyView.updateView</text>
</a>
</g>
</g>
<!-- Node3&#45;&gt;Node5 -->
<g id="edge4" class="edge"><title>Node3&#45;&gt;Node5</title>
<path fill="none" stroke="midnightblue" d="M362.069,-223C372.681,-223 383.607,-223 394.313,-223"/>
<polygon fill="midnightblue" stroke="midnightblue" points="394.492,-226.5 404.492,-223 394.492,-219.5 394.492,-226.5"/>
</g>
<!-- Node6 -->
<g id="node6" class="node"><title>Node6</title>
<g id="a_node6"><a xlink:href="../../d2/d40/class_cellular_automata.html#a8f4c8a2f32137db67dd31f5afb4b62c3" target="_top" xlink:title="CellularAutomata.updateNextGen">
<polygon fill="white" stroke="black" points="596.5,-213.5 596.5,-232.5 775.5,-232.5 775.5,-213.5 596.5,-213.5"/>
<text text-anchor="middle" x="686" y="-220.5" font-family="Helvetica,sans-Serif" font-size="10.00">CellularAutomata.updateNextGen</text>
</a>
</g>
</g>
<!-- Node5&#45;&gt;Node6 -->
<g id="edge5" class="edge"><title>Node5&#45;&gt;Node6</title>
<path fill="none" stroke="midnightblue" d="M553.72,-223C564.266,-223 575.255,-223 586.187,-223"/>
<polygon fill="midnightblue" stroke="midnightblue" points="586.197,-226.5 596.197,-223 586.197,-219.5 586.197,-226.5"/>
</g>
<!-- Node5&#45;&gt;Node9 -->
<g id="edge9" class="edge"><title>Node5&#45;&gt;Node9</title>
<path fill="none" stroke="midnightblue" d="M531.466,-213.46C559.368,-208.288 594.045,-201.86 623.38,-196.422"/>
<polygon fill="midnightblue" stroke="midnightblue" points="624.319,-199.808 633.513,-194.544 623.043,-192.925 624.319,-199.808"/>
</g>
<!-- Node7 -->
<g id="node7" class="node"><title>Node7</title>
<g id="a_node7"><a xlink:href="../../d2/d40/class_cellular_automata.html#adad8aede6a18cf243c40492a96316a4b" target="_top" xlink:title="CellularAutomata.checkRules">
<polygon fill="white" stroke="black" points="819.5,-251.5 819.5,-270.5 974.5,-270.5 974.5,-251.5 819.5,-251.5"/>
<text text-anchor="middle" x="897" y="-258.5" font-family="Helvetica,sans-Serif" font-size="10.00">CellularAutomata.checkRules</text>
</a>
</g>
</g>
<!-- Node6&#45;&gt;Node7 -->
<g id="edge6" class="edge"><title>Node6&#45;&gt;Node7</title>
<path fill="none" stroke="midnightblue" d="M739.47,-232.54C768.041,-237.735 803.58,-244.196 833.569,-249.649"/>
<polygon fill="midnightblue" stroke="midnightblue" points="833.044,-253.111 843.509,-251.456 834.296,-246.224 833.044,-253.111"/>
</g>
<!-- Node8 -->
<g id="node8" class="node"><title>Node8</title>
<g id="a_node8"><a xlink:href="../../d2/d40/class_cellular_automata.html#ab39b5164764f20382801aa9a4663eb4b" target="_top" xlink:title="CellularAutomata.handleUpdate">
<polygon fill="white" stroke="black" points="812,-213.5 812,-232.5 982,-232.5 982,-213.5 812,-213.5"/>
<text text-anchor="middle" x="897" y="-220.5" font-family="Helvetica,sans-Serif" font-size="10.00">CellularAutomata.handleUpdate</text>
</a>
</g>
</g>
<!-- Node6&#45;&gt;Node8 -->
<g id="edge7" class="edge"><title>Node6&#45;&gt;Node8</title>
<path fill="none" stroke="midnightblue" d="M775.635,-223C784.271,-223 793.055,-223 801.744,-223"/>
<polygon fill="midnightblue" stroke="midnightblue" points="801.886,-226.5 811.886,-223 801.886,-219.5 801.886,-226.5"/>
</g>
<!-- Node8&#45;&gt;Node2 -->
<g id="edge8" class="edge"><title>Node8&#45;&gt;Node2</title>
<path fill="none" stroke="midnightblue" d="M945.44,-232.589C970.808,-237.716 1002.23,-244.067 1028.92,-249.463"/>
<polygon fill="midnightblue" stroke="midnightblue" points="1028.41,-252.929 1038.9,-251.48 1029.79,-246.068 1028.41,-252.929"/>
</g>
<!-- Node10 -->
<g id="node10" class="node"><title>Node10</title>
<g id="a_node10"><a xlink:href="../../da/d74/class_grid.html#aba1e1b4dba7072955cad21806ef1c753" target="_top" xlink:title="Grid.getCells">
<polygon fill="white" stroke="black" points="858.5,-175.5 858.5,-194.5 935.5,-194.5 935.5,-175.5 858.5,-175.5"/>
<text text-anchor="middle" x="897" y="-182.5" font-family="Helvetica,sans-Serif" font-size="10.00">Grid.getCells</text>
</a>
</g>
</g>
<!-- Node9&#45;&gt;Node10 -->
<g id="edge10" class="edge"><title>Node9&#45;&gt;Node10</title>
<path fill="none" stroke="midnightblue" d="M760.098,-185C789.403,-185 822.341,-185 848.45,-185"/>
<polygon fill="midnightblue" stroke="midnightblue" points="848.462,-188.5 858.462,-185 848.462,-181.5 848.462,-188.5"/>
</g>
<!-- Node11 -->
<g id="node11" class="node"><title>Node11</title>
<g id="a_node11"><a xlink:href="../../da/d74/class_grid.html#a5f4c70cc0b2718fca839fd8755fcfff4" target="_top" xlink:title="Grid.getGridSize">
<polygon fill="white" stroke="black" points="849.5,-137.5 849.5,-156.5 944.5,-156.5 944.5,-137.5 849.5,-137.5"/>
<text text-anchor="middle" x="897" y="-144.5" font-family="Helvetica,sans-Serif" font-size="10.00">Grid.getGridSize</text>
</a>
</g>
</g>
<!-- Node9&#45;&gt;Node11 -->
<g id="edge11" class="edge"><title>Node9&#45;&gt;Node11</title>
<path fill="none" stroke="midnightblue" d="M739.47,-175.46C769.779,-169.949 807.929,-163.013 838.978,-157.368"/>
<polygon fill="midnightblue" stroke="midnightblue" points="840.001,-160.739 849.214,-155.507 838.749,-153.852 840.001,-160.739"/>
</g>
<!-- Node13 -->
<g id="node13" class="node"><title>Node13</title>
<g id="a_node13"><a xlink:href="../../dd/d97/class_grid_drawer.html#af9a09b2ee81450f13a117261b67718e0" target="_top" xlink:title="GridDrawer.makeUnitGrid">
<polygon fill="white" stroke="black" points="410,-137.5 410,-156.5 548,-156.5 548,-137.5 410,-137.5"/>
<text text-anchor="middle" x="479" y="-144.5" font-family="Helvetica,sans-Serif" font-size="10.00">GridDrawer.makeUnitGrid</text>
</a>
</g>
</g>
<!-- Node12&#45;&gt;Node13 -->
<g id="edge13" class="edge"><title>Node12&#45;&gt;Node13</title>
<path fill="none" stroke="midnightblue" d="M326.095,-112.547C355.458,-119.207 394.828,-128.136 426.13,-135.236"/>
<polygon fill="midnightblue" stroke="midnightblue" points="425.461,-138.673 435.987,-137.471 427.009,-131.846 425.461,-138.673"/>
</g>
<!-- Node18 -->
<g id="node18" class="node"><title>Node18</title>
<g id="a_node18"><a xlink:href="../../dd/d97/class_grid_drawer.html#a54f548bdc35a2afef9af05a134c149f5" target="_top" xlink:title="GridDrawer.calculateCell\lWidth">
<polygon fill="white" stroke="black" points="413,-88 413,-118 545,-118 545,-88 413,-88"/>
<text text-anchor="start" x="421" y="-106" font-family="Helvetica,sans-Serif" font-size="10.00">GridDrawer.calculateCell</text>
<text text-anchor="middle" x="479" y="-95" font-family="Helvetica,sans-Serif" font-size="10.00">Width</text>
</a>
</g>
</g>
<!-- Node12&#45;&gt;Node18 -->
<g id="edge19" class="edge"><title>Node12&#45;&gt;Node18</title>
<path fill="none" stroke="midnightblue" d="M342.733,-103C361.537,-103 382.625,-103 402.454,-103"/>
<polygon fill="midnightblue" stroke="midnightblue" points="402.69,-106.5 412.69,-103 402.69,-99.5001 402.69,-106.5"/>
</g>
<!-- Node19 -->
<g id="node19" class="node"><title>Node19</title>
<g id="a_node19"><a xlink:href="../../dd/d97/class_grid_drawer.html#a3f6bb5e9307bf84f9f8f4ae467ec85cf" target="_top" xlink:title="GridDrawer.calculateCell\lHeight">
<polygon fill="white" stroke="black" points="413,-39 413,-69 545,-69 545,-39 413,-39"/>
<text text-anchor="start" x="421" y="-57" font-family="Helvetica,sans-Serif" font-size="10.00">GridDrawer.calculateCell</text>
<text text-anchor="middle" x="479" y="-46" font-family="Helvetica,sans-Serif" font-size="10.00">Height</text>
</a>
</g>
</g>
<!-- Node12&#45;&gt;Node19 -->
<g id="edge20" class="edge"><title>Node12&#45;&gt;Node19</title>
<path fill="none" stroke="midnightblue" d="M321.866,-93.436C346.534,-87.2053 379.453,-78.8906 408.704,-71.5026"/>
<polygon fill="midnightblue" stroke="midnightblue" points="409.628,-74.8793 418.466,-69.037 407.913,-68.0925 409.628,-74.8793"/>
</g>
<!-- Node20 -->
<g id="node20" class="node"><title>Node20</title>
<g id="a_node20"><a xlink:href="../../dd/d97/class_grid_drawer.html#a8fba9cca18cee03651775b5785722778" target="_top" xlink:title="GridDrawer.scale">
<polygon fill="white" stroke="black" points="430.5,-0.5 430.5,-19.5 527.5,-19.5 527.5,-0.5 430.5,-0.5"/>
<text text-anchor="middle" x="479" y="-7.5" font-family="Helvetica,sans-Serif" font-size="10.00">GridDrawer.scale</text>
</a>
</g>
</g>
<!-- Node12&#45;&gt;Node20 -->
<g id="edge21" class="edge"><title>Node12&#45;&gt;Node20</title>
<path fill="none" stroke="midnightblue" d="M295.859,-93.3013C315.755,-77.5094 357.653,-46.2713 398,-29 405.105,-25.9585 412.783,-23.3537 420.474,-21.1369"/>
<polygon fill="midnightblue" stroke="midnightblue" points="421.429,-24.5046 430.18,-18.5327 419.615,-17.7437 421.429,-24.5046"/>
</g>
<!-- Node13&#45;&gt;Node11 -->
<g id="edge14" class="edge"><title>Node13&#45;&gt;Node11</title>
<path fill="none" stroke="midnightblue" d="M548.228,-147C629.353,-147 763.275,-147 839.076,-147"/>
<polygon fill="midnightblue" stroke="midnightblue" points="839.375,-150.5 849.375,-147 839.375,-143.5 839.375,-150.5"/>
</g>
<!-- Node14 -->
<g id="node14" class="node"><title>Node14</title>
<g id="a_node14"><a xlink:href="../../dd/d97/class_grid_drawer.html#a69ef437bdcbcdb3dca6b206b73a1ab1f" target="_top" xlink:title="GridDrawer.drawUnitCell">
<polygon fill="white" stroke="black" points="620.5,-80.5 620.5,-99.5 751.5,-99.5 751.5,-80.5 620.5,-80.5"/>
<text text-anchor="middle" x="686" y="-87.5" font-family="Helvetica,sans-Serif" font-size="10.00">GridDrawer.drawUnitCell</text>
</a>
</g>
</g>
<!-- Node13&#45;&gt;Node14 -->
<g id="edge15" class="edge"><title>Node13&#45;&gt;Node14</title>
<path fill="none" stroke="midnightblue" d="M519.557,-137.467C532.48,-134.257 546.879,-130.58 560,-127 588.305,-119.276 619.998,-109.887 644.389,-102.499"/>
<polygon fill="midnightblue" stroke="midnightblue" points="645.477,-105.827 654.027,-99.5696 643.441,-99.1296 645.477,-105.827"/>
</g>
<!-- Node15 -->
<g id="node15" class="node"><title>Node15</title>
<g id="a_node15"><a xlink:href="../../dd/d97/class_grid_drawer.html#a53b8613b7621224084096d76e2316452" target="_top" xlink:title="GridDrawer.drawTriangle">
<polygon fill="white" stroke="black" points="831.5,-99.5 831.5,-118.5 962.5,-118.5 962.5,-99.5 831.5,-99.5"/>
<text text-anchor="middle" x="897" y="-106.5" font-family="Helvetica,sans-Serif" font-size="10.00">GridDrawer.drawTriangle</text>
</a>
</g>
</g>
<!-- Node14&#45;&gt;Node15 -->
<g id="edge16" class="edge"><title>Node14&#45;&gt;Node15</title>
<path fill="none" stroke="midnightblue" d="M751.698,-95.8816C773.634,-97.8758 798.321,-100.12 820.991,-102.181"/>
<polygon fill="midnightblue" stroke="midnightblue" points="820.972,-105.694 831.248,-103.113 821.606,-98.7224 820.972,-105.694"/>
</g>
<!-- Node16 -->
<g id="node16" class="node"><title>Node16</title>
<g id="a_node16"><a xlink:href="../../dd/d97/class_grid_drawer.html#a08b9d58cde5fafa07e226d4ed2ebc655" target="_top" xlink:title="GridDrawer.drawSquare">
<polygon fill="white" stroke="black" points="832.5,-61.5 832.5,-80.5 961.5,-80.5 961.5,-61.5 832.5,-61.5"/>
<text text-anchor="middle" x="897" y="-68.5" font-family="Helvetica,sans-Serif" font-size="10.00">GridDrawer.drawSquare</text>
</a>
</g>
</g>
<!-- Node14&#45;&gt;Node16 -->
<g id="edge17" class="edge"><title>Node14&#45;&gt;Node16</title>
<path fill="none" stroke="midnightblue" d="M751.698,-84.1184C774.046,-82.0867 799.25,-79.7955 822.267,-77.703"/>
<polygon fill="midnightblue" stroke="midnightblue" points="822.683,-81.1797 832.325,-76.7886 822.049,-74.2084 822.683,-81.1797"/>
</g>
<!-- Node17 -->
<g id="node17" class="node"><title>Node17</title>
<g id="a_node17"><a xlink:href="../../dd/d97/class_grid_drawer.html#a260f7ce1d53af7f88e1c4ee3a4a3de2b" target="_top" xlink:title="GridDrawer.drawHexagon">
<polygon fill="white" stroke="black" points="828.5,-23.5 828.5,-42.5 965.5,-42.5 965.5,-23.5 828.5,-23.5"/>
<text text-anchor="middle" x="897" y="-30.5" font-family="Helvetica,sans-Serif" font-size="10.00">GridDrawer.drawHexagon</text>
</a>
</g>
</g>
<!-- Node14&#45;&gt;Node17 -->
<g id="edge18" class="edge"><title>Node14&#45;&gt;Node17</title>
<path fill="none" stroke="midnightblue" d="M716.126,-80.4894C741.351,-72.4106 778.891,-60.7647 812,-52 821.333,-49.5294 831.302,-47.0963 840.992,-44.8391"/>
<polygon fill="midnightblue" stroke="midnightblue" points="841.986,-48.2021 850.951,-42.5562 840.422,-41.379 841.986,-48.2021"/>
</g>
</g>
</svg>
        <g id="navigator" transform="translate(0 0)" fill="#404254">
                <rect fill="#f2f5e9" fill-opacity="0.5" stroke="#606060" stroke-width=".5" x="0" y="0" width="60" height="60"/>
                <use id="zoomplus" xlink:href="#zoomPlus" x="17" y="9" onmousedown="handleZoom(evt,'in')"/>
                <use id="zoomminus" xlink:href="#zoomMin" x="42" y="9" onmousedown="handleZoom(evt,'out')"/>
                <use id="reset" xlink:href="#resetDef" x="30" y="36" onmousedown="handleReset()"/>
                <g id="arrowUp" xlink:href="#dirArrow" transform="translate(30 24)" onmousedown="handlePan(0,-1)">
                  <use xlink:href="#rim" fill="#404040">
                        <set attributeName="fill" to="#808080" begin="arrowUp.mouseover" end="arrowUp.mouseout"/>
                  </use>
                  <path fill="none" stroke="white" stroke-width="1.5" d="M0,-3.0v7 M-2.5,-0.5L0,-3.0L2.5,-0.5"/>
                </g>
                <g id="arrowRight" xlink:href="#dirArrow" transform="rotate(90) translate(36 -43)" onmousedown="handlePan(1,0)">
                  <use xlink:href="#rim" fill="#404040">
                        <set attributeName="fill" to="#808080" begin="arrowRight.mouseover" end="arrowRight.mouseout"/>
                  </use>
                  <path fill="none" stroke="white" stroke-width="1.5" d="M0,-3.0v7 M-2.5,-0.5L0,-3.0L2.5,-0.5"/>
                </g>
                <g id="arrowDown" xlink:href="#dirArrow" transform="rotate(180) translate(-30 -48)" onmousedown="handlePan(0,1)">
                  <use xlink:href="#rim" fill="#404040">
                        <set attributeName="fill" to="#808080" begin="arrowDown.mouseover" end="arrowDown.mouseout"/>
                  </use>
                  <path fill="none" stroke="white" stroke-width="1.5" d="M0,-3.0v7 M-2.5,-0.5L0,-3.0L2.5,-0.5"/>
                </g>
                <g id="arrowLeft" xlink:href="#dirArrow" transform="rotate(270) translate(-36 17)" onmousedown="handlePan(-1,0)">
                  <use xlink:href="#rim" fill="#404040">
                        <set attributeName="fill" to="#808080" begin="arrowLeft.mouseover" end="arrowLeft.mouseout"/>
                  </use>
                  <path fill="none" stroke="white" stroke-width="1.5" d="M0,-3.0v7 M-2.5,-0.5L0,-3.0L2.5,-0.5"/>
                </g>
        </g>
        <svg viewBox="0 0 15 15" width="100%" height="30px" preserveAspectRatio="xMaxYMin meet">
         <g id="arrow_out" transform="scale(0.3 0.3)">
          <a xlink:href="class_cell_society_view_abe7bcd77ca077f5e5e0f9946eea96406_cgraph_org.svg" target="_base">
           <rect id="button" ry="5" rx="5" y="6" x="6" height="38" width="38"
                fill="#f2f5e9" fill-opacity="0.5" stroke="#606060" stroke-width="1.0"/>
           <path id="arrow"
             d="M 11.500037,31.436501 C 11.940474,20.09759 22.043105,11.32322 32.158766,21.979434 L 37.068811,17.246167 C 37.068811,17.246167 37.088388,32 37.088388,32 L 22.160133,31.978069 C 22.160133,31.978069 26.997745,27.140456 26.997745,27.140456 C 18.528582,18.264221 13.291696,25.230495 11.500037,31.436501 z"
             style="fill:#404040;"/>
          </a>
         </g>
        </svg>
</svg>
