<?xml version="1.0" encoding="UTF-8" standalone="no"?>
<!DOCTYPE svg PUBLIC "-//W3C//DTD SVG 1.1//EN"
 "http://www.w3.org/Graphics/SVG/1.1/DTD/svg11.dtd">
<!-- Generated by graphviz version 2.36.0 (20140111.2315)
 -->
<!-- Title: CellSocietyView.makeUIButton Pages: 1 -->
<!--zoomable 261 -->
<svg id="main" version="1.1" xmlns="http://www.w3.org/2000/svg" xmlns:xlink="http://www.w3.org/1999/xlink" xml:space="preserve" onload="init(evt)">
<style type="text/css"><![CDATA[
.edge:hover path { stroke: red; }
.edge:hover polygon { stroke: red; fill: red; }
]]></style>
<script type="text/javascript"><![CDATA[
var edges = document.getElementsByTagName('g');
if (edges && edges.length) {
  for (var i=0;i<edges.length;i++) {
    if (edges[i].id.substr(0,4)=='edge') {
      edges[i].setAttribute('class','edge');
    }
  }
}
]]></script>
        <defs>
                <circle id="rim" cx="0" cy="0" r="7"/>
                <circle id="rim2" cx="0" cy="0" r="3.5"/>
                <g id="zoomPlus">
                        <use xlink:href="#rim" fill="#404040">
                                <set attributeName="fill" to="#808080" begin="zoomplus.mouseover" end="zoomplus.mouseout"/>
                        </use>
                        <path d="M-4,0h8M0,-4v8" fill="none" stroke="white" stroke-width="1.5" pointer-events="none"/>
                </g>
                <g id="zoomMin">
                        <use xlink:href="#rim" fill="#404040">
                                <set attributeName="fill" to="#808080" begin="zoomminus.mouseover" end="zoomminus.mouseout"/>
                        </use>
                        <path d="M-4,0h8" fill="none" stroke="white" stroke-width="1.5" pointer-events="none"/>
                </g>
                <g id="dirArrow">
                        <path fill="none" stroke="white" stroke-width="1.5" d="M0,-3.0v7 M-2.5,-0.5L0,-3.0L2.5,-0.5"/>
                </g>
               <g id="resetDef">
                       <use xlink:href="#rim2" fill="#404040">
                               <set attributeName="fill" to="#808080" begin="reset.mouseover" end="reset.mouseout"/>
                       </use>
               </g>
        </defs>

<script type="text/javascript">
var viewWidth = 1506;
var viewHeight = 261;
var sectionId = 'dynsection-25';
</script>
<script xlink:href="../../svgpan.js"/>
<svg id="graph" class="graph">
<g id="viewport">
<title>CellSocietyView.makeUIButton</title>
<polygon fill="white" stroke="none" points="-4,4 -4,-257.201 1502,-257.201 1502,4 -4,4"/>
<!-- Node1 -->
<g id="node1" class="node"><title>Node1</title>
<polygon fill="#bfbfbf" stroke="black" points="0,-115.701 0,-134.701 162,-134.701 162,-115.701 0,-115.701"/>
<text text-anchor="middle" x="81" y="-122.701" font-family="Helvetica,sans-Serif" font-size="10.00">CellSocietyView.makeUIButton</text>
</g>
<!-- Node2 -->
<g id="node2" class="node"><title>Node2</title>
<g id="a_node2"><a xlink:href="../../df/df8/class_cell_society_view.html#ae4f695e25edd84b67be004d3b1a7a437" target="_top" xlink:title="CellSocietyView.makeFFButton">
<polygon fill="white" stroke="black" points="198.5,-233.701 198.5,-252.701 361.5,-252.701 361.5,-233.701 198.5,-233.701"/>
<text text-anchor="middle" x="280" y="-240.701" font-family="Helvetica,sans-Serif" font-size="10.00">CellSocietyView.makeFFButton</text>
</a>
</g>
</g>
<!-- Node1&#45;&gt;Node2 -->
<g id="edge1" class="edge"><title>Node1&#45;&gt;Node2</title>
<path fill="none" stroke="midnightblue" d="M97.5758,-142.584C118.325,-164.66 157.186,-202.377 198,-223.201 206.516,-227.546 216.024,-230.98 225.448,-233.683"/>
<polygon fill="midnightblue" stroke="midnightblue" points="99.8957,-139.937 90.5441,-134.957 94.7492,-144.682 99.8957,-139.937"/>
</g>
<!-- Node7 -->
<g id="node7" class="node"><title>Node7</title>
<g id="a_node7"><a xlink:href="../../df/df8/class_cell_society_view.html#a656cfed0ba32bc41bbd0c4087860db4b" target="_top" xlink:title="CellSocietyView.makeLoad\lButton">
<polygon fill="white" stroke="black" points="1150.5,-72.201 1150.5,-102.201 1293.5,-102.201 1293.5,-72.201 1150.5,-72.201"/>
<text text-anchor="start" x="1158.5" y="-90.201" font-family="Helvetica,sans-Serif" font-size="10.00">CellSocietyView.makeLoad</text>
<text text-anchor="middle" x="1222" y="-79.201" font-family="Helvetica,sans-Serif" font-size="10.00">Button</text>
</a>
</g>
</g>
<!-- Node1&#45;&gt;Node7 -->
<g id="edge9" class="edge"><title>Node1&#45;&gt;Node7</title>
<path fill="none" stroke="midnightblue" d="M96.188,-107.711C116.142,-84.5643 154.91,-44.6551 198,-27.201 312.785,19.2938 352.156,-8.20099 476,-8.20099 476,-8.20099 476,-8.20099 861,-8.20099 979.056,-8.20099 1113.93,-49.2346 1180.07,-72.1557"/>
<polygon fill="midnightblue" stroke="midnightblue" points="93.4728,-105.501 89.7146,-115.407 98.8299,-110.007 93.4728,-105.501"/>
</g>
<!-- Node9 -->
<g id="node9" class="node"><title>Node9</title>
<g id="a_node9"><a xlink:href="../../df/df8/class_cell_society_view.html#ae177299e365c8c48502004eb87a03cf1" target="_top" xlink:title="CellSocietyView.makePause\lButton">
<polygon fill="white" stroke="black" points="205.5,-184.201 205.5,-214.201 354.5,-214.201 354.5,-184.201 205.5,-184.201"/>
<text text-anchor="start" x="213.5" y="-202.201" font-family="Helvetica,sans-Serif" font-size="10.00">CellSocietyView.makePause</text>
<text text-anchor="middle" x="280" y="-191.201" font-family="Helvetica,sans-Serif" font-size="10.00">Button</text>
</a>
</g>
</g>
<!-- Node1&#45;&gt;Node9 -->
<g id="edge10" class="edge"><title>Node1&#45;&gt;Node9</title>
<path fill="none" stroke="midnightblue" d="M112.44,-139.048C135.646,-149.362 168.525,-163.458 198,-174.201 207.403,-177.628 217.525,-180.998 227.322,-184.1"/>
<polygon fill="midnightblue" stroke="midnightblue" points="113.682,-135.77 103.125,-134.88 110.823,-142.16 113.682,-135.77"/>
</g>
<!-- Node10 -->
<g id="node10" class="node"><title>Node10</title>
<g id="a_node10"><a xlink:href="../../df/df8/class_cell_society_view.html#a1531c1a5ad4e0630046bfe4e8c3127e8" target="_top" xlink:title="CellSocietyView.makePlay\lButton">
<polygon fill="white" stroke="black" points="210,-135.201 210,-165.201 350,-165.201 350,-135.201 210,-135.201"/>
<text text-anchor="start" x="218" y="-153.201" font-family="Helvetica,sans-Serif" font-size="10.00">CellSocietyView.makePlay</text>
<text text-anchor="middle" x="280" y="-142.201" font-family="Helvetica,sans-Serif" font-size="10.00">Button</text>
</a>
</g>
</g>
<!-- Node1&#45;&gt;Node10 -->
<g id="edge12" class="edge"><title>Node1&#45;&gt;Node10</title>
<path fill="none" stroke="midnightblue" d="M167.334,-136.03C181.588,-137.839 196.216,-139.695 209.995,-141.444"/>
<polygon fill="midnightblue" stroke="midnightblue" points="167.4,-132.511 157.039,-134.724 166.519,-139.455 167.4,-132.511"/>
</g>
<!-- Node11 -->
<g id="node11" class="node"><title>Node11</title>
<g id="a_node11"><a xlink:href="../../df/df8/class_cell_society_view.html#a304edeb753eed8cedb1c8e0ad952a4d8" target="_top" xlink:title="CellSocietyView.makeSlow\lButton">
<polygon fill="white" stroke="black" points="209,-86.201 209,-116.201 351,-116.201 351,-86.201 209,-86.201"/>
<text text-anchor="start" x="217" y="-104.201" font-family="Helvetica,sans-Serif" font-size="10.00">CellSocietyView.makeSlow</text>
<text text-anchor="middle" x="280" y="-93.201" font-family="Helvetica,sans-Serif" font-size="10.00">Button</text>
</a>
</g>
</g>
<!-- Node1&#45;&gt;Node11 -->
<g id="edge14" class="edge"><title>Node1&#45;&gt;Node11</title>
<path fill="none" stroke="midnightblue" d="M170.424,-114.429C183.327,-112.857 196.464,-111.256 208.935,-109.737"/>
<polygon fill="midnightblue" stroke="midnightblue" points="169.646,-110.997 160.143,-115.681 170.492,-117.946 169.646,-110.997"/>
</g>
<!-- Node12 -->
<g id="node12" class="node"><title>Node12</title>
<g id="a_node12"><a xlink:href="../../df/df8/class_cell_society_view.html#aec6e94a6cf275f0b5d64a4b8adccd7d0" target="_top" xlink:title="CellSocietyView.makeStep\lButton">
<polygon fill="white" stroke="black" points="208.5,-37.201 208.5,-67.201 351.5,-67.201 351.5,-37.201 208.5,-37.201"/>
<text text-anchor="start" x="216.5" y="-55.201" font-family="Helvetica,sans-Serif" font-size="10.00">CellSocietyView.makeStep</text>
<text text-anchor="middle" x="280" y="-44.201" font-family="Helvetica,sans-Serif" font-size="10.00">Button</text>
</a>
</g>
</g>
<!-- Node1&#45;&gt;Node12 -->
<g id="edge16" class="edge"><title>Node1&#45;&gt;Node12</title>
<path fill="none" stroke="midnightblue" d="M112.895,-111.497C136.091,-101.434 168.756,-87.7388 198,-77.201 207.553,-73.7585 217.841,-70.3556 227.774,-67.221"/>
<polygon fill="midnightblue" stroke="midnightblue" points="111.336,-108.359 103.571,-115.568 114.136,-114.774 111.336,-108.359"/>
</g>
<!-- Node3 -->
<g id="node3" class="node"><title>Node3</title>
<g id="a_node3"><a xlink:href="../../df/df8/class_cell_society_view.html#a7bdbd4e8fd3893e672eb22015603f6dc" target="_top" xlink:title="CellSocietyView.makeButtons">
<polygon fill="white" stroke="black" points="398,-115.701 398,-134.701 556,-134.701 556,-115.701 398,-115.701"/>
<text text-anchor="middle" x="477" y="-122.701" font-family="Helvetica,sans-Serif" font-size="10.00">CellSocietyView.makeButtons</text>
</a>
</g>
</g>
<!-- Node2&#45;&gt;Node3 -->
<g id="edge2" class="edge"><title>Node2&#45;&gt;Node3</title>
<path fill="none" stroke="midnightblue" d="M344.561,-230.582C350.598,-228.476 356.508,-226.033 362,-223.201 407.467,-199.757 450.137,-154.766 467.641,-134.964"/>
<polygon fill="midnightblue" stroke="midnightblue" points="343.479,-227.253 335.011,-233.62 345.602,-233.923 343.479,-227.253"/>
</g>
<!-- Node4 -->
<g id="node4" class="node"><title>Node4</title>
<g id="a_node4"><a xlink:href="../../df/df8/class_cell_society_view.html#a767ab215ca329ba41b1493702141f841" target="_top" xlink:title="CellSocietyView.makeCAGame">
<polygon fill="white" stroke="black" points="592.5,-115.701 592.5,-134.701 755.5,-134.701 755.5,-115.701 592.5,-115.701"/>
<text text-anchor="middle" x="674" y="-122.701" font-family="Helvetica,sans-Serif" font-size="10.00">CellSocietyView.makeCAGame</text>
</a>
</g>
</g>
<!-- Node3&#45;&gt;Node4 -->
<g id="edge3" class="edge"><title>Node3&#45;&gt;Node4</title>
<path fill="none" stroke="midnightblue" d="M566.281,-125.201C574.929,-125.201 583.675,-125.201 592.243,-125.201"/>
<polygon fill="midnightblue" stroke="midnightblue" points="566.19,-121.701 556.19,-125.201 566.19,-128.701 566.19,-121.701"/>
</g>
<!-- Node5 -->
<g id="node5" class="node"><title>Node5</title>
<g id="a_node5"><a xlink:href="../../df/df8/class_cell_society_view.html#a2ee793e471cc5731ce39c1450f058dd5" target="_top" xlink:title="CellSocietyView.parseFile">
<polygon fill="white" stroke="black" points="792.5,-115.701 792.5,-134.701 927.5,-134.701 927.5,-115.701 792.5,-115.701"/>
<text text-anchor="middle" x="860" y="-122.701" font-family="Helvetica,sans-Serif" font-size="10.00">CellSocietyView.parseFile</text>
</a>
</g>
</g>
<!-- Node4&#45;&gt;Node5 -->
<g id="edge4" class="edge"><title>Node4&#45;&gt;Node5</title>
<path fill="none" stroke="midnightblue" d="M765.807,-125.201C774.777,-125.201 783.762,-125.201 792.42,-125.201"/>
<polygon fill="midnightblue" stroke="midnightblue" points="765.705,-121.701 755.705,-125.201 765.705,-128.701 765.705,-121.701"/>
</g>
<!-- Node6 -->
<g id="node6" class="node"><title>Node6</title>
<g id="a_node6"><a xlink:href="../../df/df8/class_cell_society_view.html#a2c047a3972078bb0a5490ed225ef2dfa" target="_top" xlink:title="CellSocietyView.loadNewFile">
<polygon fill="white" stroke="black" points="964.5,-115.701 964.5,-134.701 1113.5,-134.701 1113.5,-115.701 964.5,-115.701"/>
<text text-anchor="middle" x="1039" y="-122.701" font-family="Helvetica,sans-Serif" font-size="10.00">CellSocietyView.loadNewFile</text>
</a>
</g>
</g>
<!-- Node5&#45;&gt;Node6 -->
<g id="edge5" class="edge"><title>Node5&#45;&gt;Node6</title>
<path fill="none" stroke="midnightblue" d="M937.865,-125.201C946.633,-125.201 955.557,-125.201 964.283,-125.201"/>
<polygon fill="midnightblue" stroke="midnightblue" points="937.664,-121.701 927.664,-125.201 937.664,-128.701 937.664,-121.701"/>
</g>
<!-- Node6&#45;&gt;Node7 -->
<g id="edge6" class="edge"><title>Node6&#45;&gt;Node7</title>
<path fill="none" stroke="midnightblue" d="M1095.59,-113.53C1112.87,-109.902 1132.15,-105.854 1150.32,-102.041"/>
<polygon fill="midnightblue" stroke="midnightblue" points="1094.74,-110.132 1085.67,-115.612 1096.18,-116.983 1094.74,-110.132"/>
</g>
<!-- Node7&#45;&gt;Node3 -->
<g id="edge8" class="edge"><title>Node7&#45;&gt;Node3</title>
<path fill="none" stroke="midnightblue" d="M1139.85,-86.1629C1019.81,-85.4169 787.983,-86.9976 592,-106.201 570.334,-108.324 546.555,-112.06 526.347,-115.661"/>
<polygon fill="midnightblue" stroke="midnightblue" points="1140.03,-89.6642 1150.05,-86.2337 1140.08,-82.6644 1140.03,-89.6642"/>
</g>
<!-- Node8 -->
<g id="node8" class="node"><title>Node8</title>
<g id="a_node8"><a xlink:href="../../df/df8/class_cell_society_view.html#a53ab66afdeb23b3fc89e54a44be7ced5" target="_top" xlink:title="CellSocietyView.CellSocietyView">
<polygon fill="white" stroke="black" points="1330.5,-77.701 1330.5,-96.701 1497.5,-96.701 1497.5,-77.701 1330.5,-77.701"/>
<text text-anchor="middle" x="1414" y="-84.701" font-family="Helvetica,sans-Serif" font-size="10.00">CellSocietyView.CellSocietyView</text>
</a>
</g>
</g>
<!-- Node7&#45;&gt;Node8 -->
<g id="edge7" class="edge"><title>Node7&#45;&gt;Node8</title>
<path fill="none" stroke="midnightblue" d="M1303.92,-87.201C1312.66,-87.201 1321.57,-87.201 1330.33,-87.201"/>
<polygon fill="midnightblue" stroke="midnightblue" points="1303.75,-83.7011 1293.75,-87.201 1303.75,-90.7011 1303.75,-83.7011"/>
</g>
<!-- Node9&#45;&gt;Node3 -->
<g id="edge11" class="edge"><title>Node9&#45;&gt;Node3</title>
<path fill="none" stroke="midnightblue" d="M342.405,-181.008C349.052,-178.813 355.69,-176.523 362,-174.201 395.358,-161.924 433.073,-145.117 455.671,-134.72"/>
<polygon fill="midnightblue" stroke="midnightblue" points="341.133,-177.74 332.696,-184.148 343.288,-184.401 341.133,-177.74"/>
</g>
<!-- Node10&#45;&gt;Node3 -->
<g id="edge13" class="edge"><title>Node10&#45;&gt;Node3</title>
<path fill="none" stroke="midnightblue" d="M359.97,-140.077C373.778,-138.306 388.1,-136.47 401.773,-134.717"/>
<polygon fill="midnightblue" stroke="midnightblue" points="359.498,-136.608 350.024,-141.352 360.388,-143.552 359.498,-136.608"/>
</g>
<!-- Node11&#45;&gt;Node3 -->
<g id="edge15" class="edge"><title>Node11&#45;&gt;Node3</title>
<path fill="none" stroke="midnightblue" d="M361.352,-111.09C373.654,-112.605 386.333,-114.165 398.57,-115.671"/>
<polygon fill="midnightblue" stroke="midnightblue" points="361.477,-107.579 351.124,-109.832 360.622,-114.527 361.477,-107.579"/>
</g>
<!-- Node12&#45;&gt;Node3 -->
<g id="edge17" class="edge"><title>Node12&#45;&gt;Node3</title>
<path fill="none" stroke="midnightblue" d="M342.388,-70.4417C349.038,-72.6274 355.681,-74.9021 362,-77.201 394.894,-89.1689 432.116,-105.356 454.82,-115.538"/>
<polygon fill="midnightblue" stroke="midnightblue" points="343.267,-67.0478 332.675,-67.3104 341.119,-73.7101 343.267,-67.0478"/>
</g>
</g>
</svg>
        <g id="navigator" transform="translate(0 0)" fill="#404254">
                <rect fill="#f2f5e9" fill-opacity="0.5" stroke="#606060" stroke-width=".5" x="0" y="0" width="60" height="60"/>
                <use id="zoomplus" xlink:href="#zoomPlus" x="17" y="9" onmousedown="handleZoom(evt,'in')"/>
                <use id="zoomminus" xlink:href="#zoomMin" x="42" y="9" onmousedown="handleZoom(evt,'out')"/>
                <use id="reset" xlink:href="#resetDef" x="30" y="36" onmousedown="handleReset()"/>
                <g id="arrowUp" xlink:href="#dirArrow" transform="translate(30 24)" onmousedown="handlePan(0,-1)">
                  <use xlink:href="#rim" fill="#404040">
                        <set attributeName="fill" to="#808080" begin="arrowUp.mouseover" end="arrowUp.mouseout"/>
                  </use>
                  <path fill="none" stroke="white" stroke-width="1.5" d="M0,-3.0v7 M-2.5,-0.5L0,-3.0L2.5,-0.5"/>
                </g>
                <g id="arrowRight" xlink:href="#dirArrow" transform="rotate(90) translate(36 -43)" onmousedown="handlePan(1,0)">
                  <use xlink:href="#rim" fill="#404040">
                        <set attributeName="fill" to="#808080" begin="arrowRight.mouseover" end="arrowRight.mouseout"/>
                  </use>
                  <path fill="none" stroke="white" stroke-width="1.5" d="M0,-3.0v7 M-2.5,-0.5L0,-3.0L2.5,-0.5"/>
                </g>
                <g id="arrowDown" xlink:href="#dirArrow" transform="rotate(180) translate(-30 -48)" onmousedown="handlePan(0,1)">
                  <use xlink:href="#rim" fill="#404040">
                        <set attributeName="fill" to="#808080" begin="arrowDown.mouseover" end="arrowDown.mouseout"/>
                  </use>
                  <path fill="none" stroke="white" stroke-width="1.5" d="M0,-3.0v7 M-2.5,-0.5L0,-3.0L2.5,-0.5"/>
                </g>
                <g id="arrowLeft" xlink:href="#dirArrow" transform="rotate(270) translate(-36 17)" onmousedown="handlePan(-1,0)">
                  <use xlink:href="#rim" fill="#404040">
                        <set attributeName="fill" to="#808080" begin="arrowLeft.mouseover" end="arrowLeft.mouseout"/>
                  </use>
                  <path fill="none" stroke="white" stroke-width="1.5" d="M0,-3.0v7 M-2.5,-0.5L0,-3.0L2.5,-0.5"/>
                </g>
        </g>
        <svg viewBox="0 0 15 15" width="100%" height="30px" preserveAspectRatio="xMaxYMin meet">
         <g id="arrow_out" transform="scale(0.3 0.3)">
          <a xlink:href="class_cell_society_view_ae09ddc20f81e90312e628d712a5c6afc_icgraph_org.svg" target="_base">
           <rect id="button" ry="5" rx="5" y="6" x="6" height="38" width="38"
                fill="#f2f5e9" fill-opacity="0.5" stroke="#606060" stroke-width="1.0"/>
           <path id="arrow"
             d="M 11.500037,31.436501 C 11.940474,20.09759 22.043105,11.32322 32.158766,21.979434 L 37.068811,17.246167 C 37.068811,17.246167 37.088388,32 37.088388,32 L 22.160133,31.978069 C 22.160133,31.978069 26.997745,27.140456 26.997745,27.140456 C 18.528582,18.264221 13.291696,25.230495 11.500037,31.436501 z"
             style="fill:#404040;"/>
          </a>
         </g>
        </svg>
</svg>
