<?xml version="1.0" encoding="UTF-8" standalone="no"?>
<!DOCTYPE svg PUBLIC "-//W3C//DTD SVG 1.1//EN"
 "http://www.w3.org/Graphics/SVG/1.1/DTD/svg11.dtd">
<!-- Generated by graphviz version 2.36.0 (20140111.2315)
 -->
<!-- Title: XMLReader.parseXML Pages: 1 -->
<svg width="1054pt" height="85pt"
 viewBox="0.00 0.00 1054.00 85.00" xmlns="http://www.w3.org/2000/svg" xmlns:xlink="http://www.w3.org/1999/xlink">
<g id="graph0" class="graph" transform="scale(1 1) rotate(0) translate(4 81)">
<title>XMLReader.parseXML</title>
<polygon fill="white" stroke="none" points="-4,4 -4,-81 1050,-81 1050,4 -4,4"/>
<!-- Node1 -->
<g id="node1" class="node"><title>Node1</title>
<polygon fill="#bfbfbf" stroke="black" points="0,-3.5 0,-22.5 118,-22.5 118,-3.5 0,-3.5"/>
<text text-anchor="middle" x="59" y="-10.5" font-family="Helvetica,sans-Serif" font-size="10.00">XMLReader.parseXML</text>
</g>
<!-- Node2 -->
<g id="node2" class="node"><title>Node2</title>
<g id="a_node2"><a xlink:href="../../d7/db3/class_x_m_l_reader.html#a9f7a6e53fc5114be22cbd0b9f6184ef0" target="_top" xlink:title="XMLReader.chooseFile">
<polygon fill="white" stroke="black" points="154.5,-3.5 154.5,-22.5 275.5,-22.5 275.5,-3.5 154.5,-3.5"/>
<text text-anchor="middle" x="215" y="-10.5" font-family="Helvetica,sans-Serif" font-size="10.00">XMLReader.chooseFile</text>
</a>
</g>
</g>
<!-- Node1&#45;&gt;Node2 -->
<g id="edge1" class="edge"><title>Node1&#45;&gt;Node2</title>
<path fill="none" stroke="midnightblue" d="M128.333,-13C137.029,-13 145.873,-13 154.417,-13"/>
<polygon fill="midnightblue" stroke="midnightblue" points="128.221,-9.5001 118.221,-13 128.221,-16.5001 128.221,-9.5001"/>
</g>
<!-- Node3 -->
<g id="node3" class="node"><title>Node3</title>
<g id="a_node3"><a xlink:href="../../df/df8/class_cell_society_view.html#a2c047a3972078bb0a5490ed225ef2dfa" target="_top" xlink:title="CellSocietyView.loadNewFile">
<polygon fill="white" stroke="black" points="312.5,-3.5 312.5,-22.5 461.5,-22.5 461.5,-3.5 312.5,-3.5"/>
<text text-anchor="middle" x="387" y="-10.5" font-family="Helvetica,sans-Serif" font-size="10.00">CellSocietyView.loadNewFile</text>
</a>
</g>
</g>
<!-- Node2&#45;&gt;Node3 -->
<g id="edge2" class="edge"><title>Node2&#45;&gt;Node3</title>
<path fill="none" stroke="midnightblue" d="M286.001,-13C294.678,-13 303.571,-13 312.302,-13"/>
<polygon fill="midnightblue" stroke="midnightblue" points="285.936,-9.5001 275.936,-13 285.936,-16.5001 285.936,-9.5001"/>
</g>
<!-- Node4 -->
<g id="node4" class="node"><title>Node4</title>
<g id="a_node4"><a xlink:href="../../df/df8/class_cell_society_view.html#a656cfed0ba32bc41bbd0c4087860db4b" target="_top" xlink:title="CellSocietyView.makeLoad\lButton">
<polygon fill="white" stroke="black" points="498.5,-20 498.5,-50 641.5,-50 641.5,-20 498.5,-20"/>
<text text-anchor="start" x="506.5" y="-38" font-family="Helvetica,sans-Serif" font-size="10.00">CellSocietyView.makeLoad</text>
<text text-anchor="middle" x="570" y="-27" font-family="Helvetica,sans-Serif" font-size="10.00">Button</text>
</a>
</g>
</g>
<!-- Node3&#45;&gt;Node4 -->
<g id="edge3" class="edge"><title>Node3&#45;&gt;Node4</title>
<path fill="none" stroke="midnightblue" d="M471.651,-23.1675C480.585,-24.2535 489.61,-25.3504 498.373,-26.4155"/>
<polygon fill="midnightblue" stroke="midnightblue" points="471.969,-19.6805 461.62,-21.9482 471.124,-26.6293 471.969,-19.6805"/>
</g>
<!-- Node5 -->
<g id="node5" class="node"><title>Node5</title>
<g id="a_node5"><a xlink:href="../../df/df8/class_cell_society_view.html#a53ab66afdeb23b3fc89e54a44be7ced5" target="_top" xlink:title="CellSocietyView.CellSocietyView">
<polygon fill="white" stroke="black" points="678.5,-57.5 678.5,-76.5 845.5,-76.5 845.5,-57.5 678.5,-57.5"/>
<text text-anchor="middle" x="762" y="-64.5" font-family="Helvetica,sans-Serif" font-size="10.00">CellSocietyView.CellSocietyView</text>
</a>
</g>
</g>
<!-- Node4&#45;&gt;Node5 -->
<g id="edge4" class="edge"><title>Node4&#45;&gt;Node5</title>
<path fill="none" stroke="midnightblue" d="M652.041,-48.649C669.682,-51.6201 687.979,-54.7017 704.428,-57.4721"/>
<polygon fill="midnightblue" stroke="midnightblue" points="652.191,-45.1251 641.749,-46.9156 651.029,-52.0279 652.191,-45.1251"/>
</g>
<!-- Node6 -->
<g id="node6" class="node"><title>Node6</title>
<g id="a_node6"><a xlink:href="../../df/df8/class_cell_society_view.html#a7bdbd4e8fd3893e672eb22015603f6dc" target="_top" xlink:title="CellSocietyView.makeButtons">
<polygon fill="white" stroke="black" points="683,-19.5 683,-38.5 841,-38.5 841,-19.5 683,-19.5"/>
<text text-anchor="middle" x="762" y="-26.5" font-family="Helvetica,sans-Serif" font-size="10.00">CellSocietyView.makeButtons</text>
</a>
</g>
</g>
<!-- Node4&#45;&gt;Node6 -->
<g id="edge5" class="edge"><title>Node4&#45;&gt;Node6</title>
<path fill="none" stroke="midnightblue" d="M651.91,-32.445C662.163,-32.1212 672.641,-31.7903 682.85,-31.4679"/>
<polygon fill="midnightblue" stroke="midnightblue" points="651.634,-28.9518 641.749,-32.7658 651.855,-35.9484 651.634,-28.9518"/>
</g>
<!-- Node7 -->
<g id="node7" class="node"><title>Node7</title>
<g id="a_node7"><a xlink:href="../../df/df8/class_cell_society_view.html#a6a72ed4ee014a9c3f0368ab26be873d6" target="_top" xlink:title="CellSocietyView.makeCAGame">
<polygon fill="white" stroke="black" points="882.5,-0.5 882.5,-19.5 1045.5,-19.5 1045.5,-0.5 882.5,-0.5"/>
<text text-anchor="middle" x="964" y="-7.5" font-family="Helvetica,sans-Serif" font-size="10.00">CellSocietyView.makeCAGame</text>
</a>
</g>
</g>
<!-- Node6&#45;&gt;Node7 -->
<g id="edge6" class="edge"><title>Node6&#45;&gt;Node7</title>
<path fill="none" stroke="midnightblue" d="M851.379,-20.604C861.645,-19.6287 872.077,-18.6377 882.234,-17.6728"/>
<polygon fill="midnightblue" stroke="midnightblue" points="850.809,-17.1423 841.185,-21.5725 851.471,-24.111 850.809,-17.1423"/>
</g>
<!-- Node7&#45;&gt;Node3 -->
<g id="edge7" class="edge"><title>Node7&#45;&gt;Node3</title>
<path fill="none" stroke="midnightblue" d="M872.336,-9.26938C778.615,-8.68567 628.066,-8.2267 498,-10 486.252,-10.1602 473.8,-10.4165 461.661,-10.7136"/>
<polygon fill="midnightblue" stroke="midnightblue" points="872.329,-12.7693 882.351,-9.33358 872.374,-5.76945 872.329,-12.7693"/>
</g>
</g>
</svg>
