<?xml version="1.0" encoding="UTF-8" standalone="no"?>
<!DOCTYPE svg PUBLIC "-//W3C//DTD SVG 1.1//EN"
 "http://www.w3.org/Graphics/SVG/1.1/DTD/svg11.dtd">
<!-- Generated by graphviz version 2.36.0 (20140111.2315)
 -->
<!-- Title: XMLReader.setUpNbhoodTypes Pages: 1 -->
<svg width="494pt" height="28pt"
 viewBox="0.00 0.00 494.00 28.00" xmlns="http://www.w3.org/2000/svg" xmlns:xlink="http://www.w3.org/1999/xlink">
<g id="graph0" class="graph" transform="scale(1 1) rotate(0) translate(4 24)">
<title>XMLReader.setUpNbhoodTypes</title>
<polygon fill="white" stroke="none" points="-4,4 -4,-24 490,-24 490,4 -4,4"/>
<!-- Node1 -->
<g id="node1" class="node"><title>Node1</title>
<polygon fill="#bfbfbf" stroke="black" points="0,-0.5 0,-19.5 164,-19.5 164,-0.5 0,-0.5"/>
<text text-anchor="middle" x="82" y="-7.5" font-family="Helvetica,sans-Serif" font-size="10.00">XMLReader.setUpNbhoodTypes</text>
</g>
<!-- Node2 -->
<g id="node2" class="node"><title>Node2</title>
<g id="a_node2"><a xlink:href="../../d7/db3/class_x_m_l_reader.html#a8c0ab8826ba3315ba3899e050967ecfa" target="_top" xlink:title="XMLReader.setUpTypes">
<polygon fill="white" stroke="black" points="200,-0.5 200,-19.5 326,-19.5 326,-0.5 200,-0.5"/>
<text text-anchor="middle" x="263" y="-7.5" font-family="Helvetica,sans-Serif" font-size="10.00">XMLReader.setUpTypes</text>
</a>
</g>
</g>
<!-- Node1&#45;&gt;Node2 -->
<g id="edge1" class="edge"><title>Node1&#45;&gt;Node2</title>
<path fill="none" stroke="midnightblue" d="M174.295,-10C182.971,-10 191.624,-10 199.928,-10"/>
<polygon fill="midnightblue" stroke="midnightblue" points="174.12,-6.5001 164.12,-10 174.12,-13.5001 174.12,-6.5001"/>
</g>
<!-- Node3 -->
<g id="node3" class="node"><title>Node3</title>
<g id="a_node3"><a xlink:href="../../d7/db3/class_x_m_l_reader.html#a0ac132497fb7d06e872995c67c969ee2" target="_top" xlink:title="XMLReader.XMLReader">
<polygon fill="white" stroke="black" points="362,-0.5 362,-19.5 486,-19.5 486,-0.5 362,-0.5"/>
<text text-anchor="middle" x="424" y="-7.5" font-family="Helvetica,sans-Serif" font-size="10.00">XMLReader.XMLReader</text>
</a>
</g>
</g>
<!-- Node2&#45;&gt;Node3 -->
<g id="edge2" class="edge"><title>Node2&#45;&gt;Node3</title>
<path fill="none" stroke="midnightblue" d="M336.598,-10C345.035,-10 353.576,-10 361.837,-10"/>
<polygon fill="midnightblue" stroke="midnightblue" points="336.385,-6.5001 326.385,-10 336.385,-13.5001 336.385,-6.5001"/>
</g>
</g>
</svg>
