<?xml version="1.0" encoding="UTF-8" standalone="no"?>
<!DOCTYPE svg PUBLIC "-//W3C//DTD SVG 1.1//EN"
 "http://www.w3.org/Graphics/SVG/1.1/DTD/svg11.dtd">
<!-- Generated by graphviz version 2.36.0 (20140111.2315)
 -->
<!-- Title: XMLReader.setUpTypes Pages: 1 -->
<svg width="694pt" height="104pt"
 viewBox="0.00 0.00 694.00 104.00" xmlns="http://www.w3.org/2000/svg" xmlns:xlink="http://www.w3.org/1999/xlink">
<g id="graph0" class="graph" transform="scale(1 1) rotate(0) translate(4 100)">
<title>XMLReader.setUpTypes</title>
<polygon fill="white" stroke="none" points="-4,4 -4,-100 690,-100 690,4 -4,4"/>
<!-- Node1 -->
<g id="node1" class="node"><title>Node1</title>
<polygon fill="#bfbfbf" stroke="black" points="0,-38.5 0,-57.5 126,-57.5 126,-38.5 0,-38.5"/>
<text text-anchor="middle" x="63" y="-45.5" font-family="Helvetica,sans-Serif" font-size="10.00">XMLReader.setUpTypes</text>
</g>
<!-- Node2 -->
<g id="node2" class="node"><title>Node2</title>
<g id="a_node2"><a xlink:href="../../d7/db3/class_x_m_l_reader.html#ac9e41bf7f824b9068b5c15538f724908" target="_top" xlink:title="XMLReader.setUpGameTypes">
<polygon fill="white" stroke="black" points="166.5,-76.5 166.5,-95.5 321.5,-95.5 321.5,-76.5 166.5,-76.5"/>
<text text-anchor="middle" x="244" y="-83.5" font-family="Helvetica,sans-Serif" font-size="10.00">XMLReader.setUpGameTypes</text>
</a>
</g>
</g>
<!-- Node1&#45;&gt;Node2 -->
<g id="edge1" class="edge"><title>Node1&#45;&gt;Node2</title>
<path fill="none" stroke="midnightblue" d="M109.169,-57.589C133.216,-62.6939 162.974,-69.0113 188.319,-74.3918"/>
<polygon fill="midnightblue" stroke="midnightblue" points="187.647,-77.8269 198.156,-76.4799 189.1,-70.9795 187.647,-77.8269"/>
</g>
<!-- Node5 -->
<g id="node5" class="node"><title>Node5</title>
<g id="a_node5"><a xlink:href="../../d7/db3/class_x_m_l_reader.html#a28c3980bfa6ce65624304c89c37d229e" target="_top" xlink:title="XMLReader.setUpGridTypes">
<polygon fill="white" stroke="black" points="171,-38.5 171,-57.5 317,-57.5 317,-38.5 171,-38.5"/>
<text text-anchor="middle" x="244" y="-45.5" font-family="Helvetica,sans-Serif" font-size="10.00">XMLReader.setUpGridTypes</text>
</a>
</g>
</g>
<!-- Node1&#45;&gt;Node5 -->
<g id="edge4" class="edge"><title>Node1&#45;&gt;Node5</title>
<path fill="none" stroke="midnightblue" d="M126.103,-48C137.271,-48 149.069,-48 160.704,-48"/>
<polygon fill="midnightblue" stroke="midnightblue" points="160.866,-51.5001 170.866,-48 160.866,-44.5001 160.866,-51.5001"/>
</g>
<!-- Node6 -->
<g id="node6" class="node"><title>Node6</title>
<g id="a_node6"><a xlink:href="../../d7/db3/class_x_m_l_reader.html#a69cb8c74efb5d7b221375ccc232a9f53" target="_top" xlink:title="XMLReader.setUpNbhoodTypes">
<polygon fill="white" stroke="black" points="162,-0.5 162,-19.5 326,-19.5 326,-0.5 162,-0.5"/>
<text text-anchor="middle" x="244" y="-7.5" font-family="Helvetica,sans-Serif" font-size="10.00">XMLReader.setUpNbhoodTypes</text>
</a>
</g>
</g>
<!-- Node1&#45;&gt;Node6 -->
<g id="edge5" class="edge"><title>Node1&#45;&gt;Node6</title>
<path fill="none" stroke="midnightblue" d="M109.169,-38.411C133.216,-33.3061 162.974,-26.9887 188.319,-21.6082"/>
<polygon fill="midnightblue" stroke="midnightblue" points="189.1,-25.0205 198.156,-19.5201 187.647,-18.1731 189.1,-25.0205"/>
</g>
<!-- Node3 -->
<g id="node3" class="node"><title>Node3</title>
<g id="a_node3"><a xlink:href="../../d7/db3/class_x_m_l_reader.html#a73f0ed30c2f1dc7614f7732f7ec868ea" target="_top" xlink:title="XMLReader.addGameType">
<polygon fill="white" stroke="black" points="362,-76.5 362,-95.5 502,-95.5 502,-76.5 362,-76.5"/>
<text text-anchor="middle" x="432" y="-83.5" font-family="Helvetica,sans-Serif" font-size="10.00">XMLReader.addGameType</text>
</a>
</g>
</g>
<!-- Node2&#45;&gt;Node3 -->
<g id="edge2" class="edge"><title>Node2&#45;&gt;Node3</title>
<path fill="none" stroke="midnightblue" d="M321.727,-86C331.605,-86 341.736,-86 351.655,-86"/>
<polygon fill="midnightblue" stroke="midnightblue" points="351.895,-89.5001 361.895,-86 351.895,-82.5001 351.895,-89.5001"/>
</g>
<!-- Node4 -->
<g id="node4" class="node"><title>Node4</title>
<g id="a_node4"><a xlink:href="../../d2/d40/class_cellular_automata.html#ad8e068dc2395ca5598e5e4164ecfe6b2" target="_top" xlink:title="CellularAutomata.getName">
<polygon fill="white" stroke="black" points="538,-76.5 538,-95.5 686,-95.5 686,-76.5 538,-76.5"/>
<text text-anchor="middle" x="612" y="-83.5" font-family="Helvetica,sans-Serif" font-size="10.00">CellularAutomata.getName</text>
</a>
</g>
</g>
<!-- Node3&#45;&gt;Node4 -->
<g id="edge3" class="edge"><title>Node3&#45;&gt;Node4</title>
<path fill="none" stroke="midnightblue" d="M502.074,-86C510.503,-86 519.183,-86 527.79,-86"/>
<polygon fill="midnightblue" stroke="midnightblue" points="527.842,-89.5001 537.842,-86 527.842,-82.5001 527.842,-89.5001"/>
</g>
</g>
</svg>
