<?xml version="1.0" encoding="UTF-8" standalone="no"?>
<!DOCTYPE svg PUBLIC "-//W3C//DTD SVG 1.1//EN"
 "http://www.w3.org/Graphics/SVG/1.1/DTD/svg11.dtd">
<!-- Generated by graphviz version 2.36.0 (20140111.2315)
 -->
<!-- Title: XMLReader.makeParam Pages: 1 -->
<!--zoomable 74 -->
<svg id="main" version="1.1" xmlns="http://www.w3.org/2000/svg" xmlns:xlink="http://www.w3.org/1999/xlink" xml:space="preserve" onload="init(evt)">
<style type="text/css"><![CDATA[
.edge:hover path { stroke: red; }
.edge:hover polygon { stroke: red; fill: red; }
]]></style>
<script type="text/javascript"><![CDATA[
var edges = document.getElementsByTagName('g');
if (edges && edges.length) {
  for (var i=0;i<edges.length;i++) {
    if (edges[i].id.substr(0,4)=='edge') {
      edges[i].setAttribute('class','edge');
    }
  }
}
]]></script>
        <defs>
                <circle id="rim" cx="0" cy="0" r="7"/>
                <circle id="rim2" cx="0" cy="0" r="3.5"/>
                <g id="zoomPlus">
                        <use xlink:href="#rim" fill="#404040">
                                <set attributeName="fill" to="#808080" begin="zoomplus.mouseover" end="zoomplus.mouseout"/>
                        </use>
                        <path d="M-4,0h8M0,-4v8" fill="none" stroke="white" stroke-width="1.5" pointer-events="none"/>
                </g>
                <g id="zoomMin">
                        <use xlink:href="#rim" fill="#404040">
                                <set attributeName="fill" to="#808080" begin="zoomminus.mouseover" end="zoomminus.mouseout"/>
                        </use>
                        <path d="M-4,0h8" fill="none" stroke="white" stroke-width="1.5" pointer-events="none"/>
                </g>
                <g id="dirArrow">
                        <path fill="none" stroke="white" stroke-width="1.5" d="M0,-3.0v7 M-2.5,-0.5L0,-3.0L2.5,-0.5"/>
                </g>
               <g id="resetDef">
                       <use xlink:href="#rim2" fill="#404040">
                               <set attributeName="fill" to="#808080" begin="reset.mouseover" end="reset.mouseout"/>
                       </use>
               </g>
        </defs>

<script type="text/javascript">
var viewWidth = 1056;
var viewHeight = 74;
var sectionId = 'dynsection-12';
</script>
<script xlink:href="../../svgpan.js"/>
<svg id="graph" class="graph">
<g id="viewport">
<title>XMLReader.makeParam</title>
<polygon fill="white" stroke="none" points="-4,4 -4,-70 1052,-70 1052,4 -4,4"/>
<!-- Node1 -->
<g id="node1" class="node"><title>Node1</title>
<polygon fill="#bfbfbf" stroke="black" points="0.5,-17.5 0.5,-36.5 129.5,-36.5 129.5,-17.5 0.5,-17.5"/>
<text text-anchor="middle" x="65" y="-24.5" font-family="Helvetica,sans-Serif" font-size="10.00">XMLReader.makeParam</text>
</g>
<!-- Node2 -->
<g id="node2" class="node"><title>Node2</title>
<g id="a_node2"><a xlink:href="../../d7/db3/class_x_m_l_reader.html#a0c634622bb0c8f4ee65f2d91218e8917" target="_top" xlink:title="XMLReader.makeCA">
<polygon fill="white" stroke="black" points="166,-17.5 166,-36.5 278,-36.5 278,-17.5 166,-17.5"/>
<text text-anchor="middle" x="222" y="-24.5" font-family="Helvetica,sans-Serif" font-size="10.00">XMLReader.makeCA</text>
</a>
</g>
</g>
<!-- Node1&#45;&gt;Node2 -->
<g id="edge1" class="edge"><title>Node1&#45;&gt;Node2</title>
<path fill="none" stroke="midnightblue" d="M140.008,-27C148.63,-27 157.31,-27 165.619,-27"/>
<polygon fill="midnightblue" stroke="midnightblue" points="139.939,-23.5001 129.939,-27 139.939,-30.5001 139.939,-23.5001"/>
</g>
<!-- Node3 -->
<g id="node3" class="node"><title>Node3</title>
<g id="a_node3"><a xlink:href="../../df/df8/class_cell_society_view.html#a6a72ed4ee014a9c3f0368ab26be873d6" target="_top" xlink:title="CellSocietyView.makeCAGame">
<polygon fill="white" stroke="black" points="314.5,-17.5 314.5,-36.5 477.5,-36.5 477.5,-17.5 314.5,-17.5"/>
<text text-anchor="middle" x="396" y="-24.5" font-family="Helvetica,sans-Serif" font-size="10.00">CellSocietyView.makeCAGame</text>
</a>
</g>
</g>
<!-- Node2&#45;&gt;Node3 -->
<g id="edge2" class="edge"><title>Node2&#45;&gt;Node3</title>
<path fill="none" stroke="midnightblue" d="M288.519,-27C296.974,-27 305.71,-27 314.373,-27"/>
<polygon fill="midnightblue" stroke="midnightblue" points="288.369,-23.5001 278.369,-27 288.369,-30.5001 288.369,-23.5001"/>
</g>
<!-- Node4 -->
<g id="node4" class="node"><title>Node4</title>
<g id="a_node4"><a xlink:href="../../df/df8/class_cell_society_view.html#a2c047a3972078bb0a5490ed225ef2dfa" target="_top" xlink:title="CellSocietyView.loadNewFile">
<polygon fill="white" stroke="black" points="514.5,-38.5 514.5,-57.5 663.5,-57.5 663.5,-38.5 514.5,-38.5"/>
<text text-anchor="middle" x="589" y="-45.5" font-family="Helvetica,sans-Serif" font-size="10.00">CellSocietyView.loadNewFile</text>
</a>
</g>
</g>
<!-- Node3&#45;&gt;Node4 -->
<g id="edge3" class="edge"><title>Node3&#45;&gt;Node4</title>
<path fill="none" stroke="midnightblue" d="M487.72,-36.9744C496.608,-37.9516 505.551,-38.935 514.241,-39.8904"/>
<polygon fill="midnightblue" stroke="midnightblue" points="488.047,-33.4894 477.724,-35.8755 487.282,-40.4475 488.047,-33.4894"/>
</g>
<!-- Node5 -->
<g id="node5" class="node"><title>Node5</title>
<g id="a_node5"><a xlink:href="../../df/df8/class_cell_society_view.html#a656cfed0ba32bc41bbd0c4087860db4b" target="_top" xlink:title="CellSocietyView.makeLoad\lButton">
<polygon fill="white" stroke="black" points="700.5,-36 700.5,-66 843.5,-66 843.5,-36 700.5,-36"/>
<text text-anchor="start" x="708.5" y="-54" font-family="Helvetica,sans-Serif" font-size="10.00">CellSocietyView.makeLoad</text>
<text text-anchor="middle" x="772" y="-43" font-family="Helvetica,sans-Serif" font-size="10.00">Button</text>
</a>
</g>
</g>
<!-- Node4&#45;&gt;Node5 -->
<g id="edge4" class="edge"><title>Node4&#45;&gt;Node5</title>
<path fill="none" stroke="midnightblue" d="M673.651,-49.3865C682.585,-49.5346 691.61,-49.6841 700.373,-49.8294"/>
<polygon fill="midnightblue" stroke="midnightblue" points="673.676,-45.8865 663.62,-49.2202 673.56,-52.8856 673.676,-45.8865"/>
</g>
<!-- Node6 -->
<g id="node6" class="node"><title>Node6</title>
<g id="a_node6"><a xlink:href="../../df/df8/class_cell_society_view.html#a53ab66afdeb23b3fc89e54a44be7ced5" target="_top" xlink:title="CellSocietyView.CellSocietyView">
<polygon fill="white" stroke="black" points="880.5,-41.5 880.5,-60.5 1047.5,-60.5 1047.5,-41.5 880.5,-41.5"/>
<text text-anchor="middle" x="964" y="-48.5" font-family="Helvetica,sans-Serif" font-size="10.00">CellSocietyView.CellSocietyView</text>
</a>
</g>
</g>
<!-- Node5&#45;&gt;Node6 -->
<g id="edge5" class="edge"><title>Node5&#45;&gt;Node6</title>
<path fill="none" stroke="midnightblue" d="M853.92,-51C862.663,-51 871.569,-51 880.332,-51"/>
<polygon fill="midnightblue" stroke="midnightblue" points="853.749,-47.5001 843.749,-51 853.749,-54.5001 853.749,-47.5001"/>
</g>
<!-- Node7 -->
<g id="node7" class="node"><title>Node7</title>
<g id="a_node7"><a xlink:href="../../df/df8/class_cell_society_view.html#a7bdbd4e8fd3893e672eb22015603f6dc" target="_top" xlink:title="CellSocietyView.makeButtons">
<polygon fill="white" stroke="black" points="885,-0.5 885,-19.5 1043,-19.5 1043,-0.5 885,-0.5"/>
<text text-anchor="middle" x="964" y="-7.5" font-family="Helvetica,sans-Serif" font-size="10.00">CellSocietyView.makeButtons</text>
</a>
</g>
</g>
<!-- Node5&#45;&gt;Node7 -->
<g id="edge6" class="edge"><title>Node5&#45;&gt;Node7</title>
<path fill="none" stroke="midnightblue" d="M852.613,-33.8204C875.224,-28.941 899.031,-23.8039 918.723,-19.5545"/>
<polygon fill="midnightblue" stroke="midnightblue" points="851.707,-30.4353 842.67,-35.9659 853.183,-37.2778 851.707,-30.4353"/>
</g>
<!-- Node7&#45;&gt;Node3 -->
<g id="edge7" class="edge"><title>Node7&#45;&gt;Node3</title>
<path fill="none" stroke="midnightblue" d="M874.41,-12.6608C765.676,-15.9267 582.835,-21.4184 477.793,-24.5733"/>
<polygon fill="midnightblue" stroke="midnightblue" points="874.806,-16.1506 884.697,-12.3519 874.596,-9.15376 874.806,-16.1506"/>
</g>
</g>
</svg>
        <g id="navigator" transform="translate(0 0)" fill="#404254">
                <rect fill="#f2f5e9" fill-opacity="0.5" stroke="#606060" stroke-width=".5" x="0" y="0" width="60" height="60"/>
                <use id="zoomplus" xlink:href="#zoomPlus" x="17" y="9" onmousedown="handleZoom(evt,'in')"/>
                <use id="zoomminus" xlink:href="#zoomMin" x="42" y="9" onmousedown="handleZoom(evt,'out')"/>
                <use id="reset" xlink:href="#resetDef" x="30" y="36" onmousedown="handleReset()"/>
                <g id="arrowUp" xlink:href="#dirArrow" transform="translate(30 24)" onmousedown="handlePan(0,-1)">
                  <use xlink:href="#rim" fill="#404040">
                        <set attributeName="fill" to="#808080" begin="arrowUp.mouseover" end="arrowUp.mouseout"/>
                  </use>
                  <path fill="none" stroke="white" stroke-width="1.5" d="M0,-3.0v7 M-2.5,-0.5L0,-3.0L2.5,-0.5"/>
                </g>
                <g id="arrowRight" xlink:href="#dirArrow" transform="rotate(90) translate(36 -43)" onmousedown="handlePan(1,0)">
                  <use xlink:href="#rim" fill="#404040">
                        <set attributeName="fill" to="#808080" begin="arrowRight.mouseover" end="arrowRight.mouseout"/>
                  </use>
                  <path fill="none" stroke="white" stroke-width="1.5" d="M0,-3.0v7 M-2.5,-0.5L0,-3.0L2.5,-0.5"/>
                </g>
                <g id="arrowDown" xlink:href="#dirArrow" transform="rotate(180) translate(-30 -48)" onmousedown="handlePan(0,1)">
                  <use xlink:href="#rim" fill="#404040">
                        <set attributeName="fill" to="#808080" begin="arrowDown.mouseover" end="arrowDown.mouseout"/>
                  </use>
                  <path fill="none" stroke="white" stroke-width="1.5" d="M0,-3.0v7 M-2.5,-0.5L0,-3.0L2.5,-0.5"/>
                </g>
                <g id="arrowLeft" xlink:href="#dirArrow" transform="rotate(270) translate(-36 17)" onmousedown="handlePan(-1,0)">
                  <use xlink:href="#rim" fill="#404040">
                        <set attributeName="fill" to="#808080" begin="arrowLeft.mouseover" end="arrowLeft.mouseout"/>
                  </use>
                  <path fill="none" stroke="white" stroke-width="1.5" d="M0,-3.0v7 M-2.5,-0.5L0,-3.0L2.5,-0.5"/>
                </g>
        </g>
        <svg viewBox="0 0 15 15" width="100%" height="30px" preserveAspectRatio="xMaxYMin meet">
         <g id="arrow_out" transform="scale(0.3 0.3)">
          <a xlink:href="class_x_m_l_reader_add9bc5354b7e5ab29eab10f671ee9686_icgraph_org.svg" target="_base">
           <rect id="button" ry="5" rx="5" y="6" x="6" height="38" width="38"
                fill="#f2f5e9" fill-opacity="0.5" stroke="#606060" stroke-width="1.0"/>
           <path id="arrow"
             d="M 11.500037,31.436501 C 11.940474,20.09759 22.043105,11.32322 32.158766,21.979434 L 37.068811,17.246167 C 37.068811,17.246167 37.088388,32 37.088388,32 L 22.160133,31.978069 C 22.160133,31.978069 26.997745,27.140456 26.997745,27.140456 C 18.528582,18.264221 13.291696,25.230495 11.500037,31.436501 z"
             style="fill:#404040;"/>
          </a>
         </g>
        </svg>
</svg>
