<?xml version="1.0" encoding="UTF-8" standalone="no"?>
<!DOCTYPE svg PUBLIC "-//W3C//DTD SVG 1.1//EN"
 "http://www.w3.org/Graphics/SVG/1.1/DTD/svg11.dtd">
<!-- Generated by graphviz version 2.36.0 (20140111.2315)
 -->
<!-- Title: XMLReader.setUpGameTypes Pages: 1 -->
<svg width="524pt" height="28pt"
 viewBox="0.00 0.00 524.00 28.00" xmlns="http://www.w3.org/2000/svg" xmlns:xlink="http://www.w3.org/1999/xlink">
<g id="graph0" class="graph" transform="scale(1 1) rotate(0) translate(4 24)">
<title>XMLReader.setUpGameTypes</title>
<polygon fill="white" stroke="none" points="-4,4 -4,-24 520,-24 520,4 -4,4"/>
<!-- Node1 -->
<g id="node1" class="node"><title>Node1</title>
<polygon fill="#bfbfbf" stroke="black" points="0.5,-0.5 0.5,-19.5 155.5,-19.5 155.5,-0.5 0.5,-0.5"/>
<text text-anchor="middle" x="78" y="-7.5" font-family="Helvetica,sans-Serif" font-size="10.00">XMLReader.setUpGameTypes</text>
</g>
<!-- Node2 -->
<g id="node2" class="node"><title>Node2</title>
<g id="a_node2"><a xlink:href="../../d7/db3/class_x_m_l_reader.html#a73f0ed30c2f1dc7614f7732f7ec868ea" target="_top" xlink:title="XMLReader.addGameType">
<polygon fill="white" stroke="black" points="192,-0.5 192,-19.5 332,-19.5 332,-0.5 192,-0.5"/>
<text text-anchor="middle" x="262" y="-7.5" font-family="Helvetica,sans-Serif" font-size="10.00">XMLReader.addGameType</text>
</a>
</g>
</g>
<!-- Node1&#45;&gt;Node2 -->
<g id="edge1" class="edge"><title>Node1&#45;&gt;Node2</title>
<path fill="none" stroke="midnightblue" d="M155.657,-10C164.315,-10 173.151,-10 181.84,-10"/>
<polygon fill="midnightblue" stroke="midnightblue" points="181.954,-13.5001 191.954,-10 181.954,-6.5001 181.954,-13.5001"/>
</g>
<!-- Node3 -->
<g id="node3" class="node"><title>Node3</title>
<g id="a_node3"><a xlink:href="../../d2/d40/class_cellular_automata.html#ad8e068dc2395ca5598e5e4164ecfe6b2" target="_top" xlink:title="CellularAutomata.getName">
<polygon fill="white" stroke="black" points="368,-0.5 368,-19.5 516,-19.5 516,-0.5 368,-0.5"/>
<text text-anchor="middle" x="442" y="-7.5" font-family="Helvetica,sans-Serif" font-size="10.00">CellularAutomata.getName</text>
</a>
</g>
</g>
<!-- Node2&#45;&gt;Node3 -->
<g id="edge2" class="edge"><title>Node2&#45;&gt;Node3</title>
<path fill="none" stroke="midnightblue" d="M332.074,-10C340.503,-10 349.183,-10 357.79,-10"/>
<polygon fill="midnightblue" stroke="midnightblue" points="357.842,-13.5001 367.842,-10 357.842,-6.5001 357.842,-13.5001"/>
</g>
</g>
</svg>
