<?xml version="1.0" encoding="UTF-8" standalone="no"?>
<!DOCTYPE svg PUBLIC "-//W3C//DTD SVG 1.1//EN"
 "http://www.w3.org/Graphics/SVG/1.1/DTD/svg11.dtd">
<!-- Generated by graphviz version 2.36.0 (20140111.2315)
 -->
<!-- Title: XMLReader.addGameType Pages: 1 -->
<svg width="662pt" height="28pt"
 viewBox="0.00 0.00 662.00 28.00" xmlns="http://www.w3.org/2000/svg" xmlns:xlink="http://www.w3.org/1999/xlink">
<g id="graph0" class="graph" transform="scale(1 1) rotate(0) translate(4 24)">
<title>XMLReader.addGameType</title>
<polygon fill="white" stroke="none" points="-4,4 -4,-24 658,-24 658,4 -4,4"/>
<!-- Node1 -->
<g id="node1" class="node"><title>Node1</title>
<polygon fill="#bfbfbf" stroke="black" points="0,-0.5 0,-19.5 140,-19.5 140,-0.5 0,-0.5"/>
<text text-anchor="middle" x="70" y="-7.5" font-family="Helvetica,sans-Serif" font-size="10.00">XMLReader.addGameType</text>
</g>
<!-- Node2 -->
<g id="node2" class="node"><title>Node2</title>
<g id="a_node2"><a xlink:href="../../d7/db3/class_x_m_l_reader.html#ac9e41bf7f824b9068b5c15538f724908" target="_top" xlink:title="XMLReader.setUpGameTypes">
<polygon fill="white" stroke="black" points="176.5,-0.5 176.5,-19.5 331.5,-19.5 331.5,-0.5 176.5,-0.5"/>
<text text-anchor="middle" x="254" y="-7.5" font-family="Helvetica,sans-Serif" font-size="10.00">XMLReader.setUpGameTypes</text>
</a>
</g>
</g>
<!-- Node1&#45;&gt;Node2 -->
<g id="edge1" class="edge"><title>Node1&#45;&gt;Node2</title>
<path fill="none" stroke="midnightblue" d="M150.184,-10C158.877,-10 167.716,-10 176.377,-10"/>
<polygon fill="midnightblue" stroke="midnightblue" points="150.066,-6.5001 140.066,-10 150.066,-13.5001 150.066,-6.5001"/>
</g>
<!-- Node3 -->
<g id="node3" class="node"><title>Node3</title>
<g id="a_node3"><a xlink:href="../../d7/db3/class_x_m_l_reader.html#a8c0ab8826ba3315ba3899e050967ecfa" target="_top" xlink:title="XMLReader.setUpTypes">
<polygon fill="white" stroke="black" points="368,-0.5 368,-19.5 494,-19.5 494,-0.5 368,-0.5"/>
<text text-anchor="middle" x="431" y="-7.5" font-family="Helvetica,sans-Serif" font-size="10.00">XMLReader.setUpTypes</text>
</a>
</g>
</g>
<!-- Node2&#45;&gt;Node3 -->
<g id="edge2" class="edge"><title>Node2&#45;&gt;Node3</title>
<path fill="none" stroke="midnightblue" d="M341.507,-10C350.39,-10 359.286,-10 367.83,-10"/>
<polygon fill="midnightblue" stroke="midnightblue" points="341.503,-6.5001 331.503,-10 341.503,-13.5001 341.503,-6.5001"/>
</g>
<!-- Node4 -->
<g id="node4" class="node"><title>Node4</title>
<g id="a_node4"><a xlink:href="../../d7/db3/class_x_m_l_reader.html#a0ac132497fb7d06e872995c67c969ee2" target="_top" xlink:title="XMLReader.XMLReader">
<polygon fill="white" stroke="black" points="530,-0.5 530,-19.5 654,-19.5 654,-0.5 530,-0.5"/>
<text text-anchor="middle" x="592" y="-7.5" font-family="Helvetica,sans-Serif" font-size="10.00">XMLReader.XMLReader</text>
</a>
</g>
</g>
<!-- Node3&#45;&gt;Node4 -->
<g id="edge3" class="edge"><title>Node3&#45;&gt;Node4</title>
<path fill="none" stroke="midnightblue" d="M504.598,-10C513.035,-10 521.576,-10 529.837,-10"/>
<polygon fill="midnightblue" stroke="midnightblue" points="504.385,-6.5001 494.385,-10 504.385,-13.5001 504.385,-6.5001"/>
</g>
</g>
</svg>
