<?xml version="1.0" encoding="UTF-8" standalone="no"?>
<!DOCTYPE svg PUBLIC "-//W3C//DTD SVG 1.1//EN"
 "http://www.w3.org/Graphics/SVG/1.1/DTD/svg11.dtd">
<!-- Generated by graphviz version 2.36.0 (20140111.2315)
 -->
<!-- Title: XMLReader.makeCA Pages: 1 -->
<svg width="454pt" height="79pt"
 viewBox="0.00 0.00 454.00 79.31" xmlns="http://www.w3.org/2000/svg" xmlns:xlink="http://www.w3.org/1999/xlink">
<g id="graph0" class="graph" transform="scale(1 1) rotate(0) translate(4 75.3089)">
<title>XMLReader.makeCA</title>
<polygon fill="white" stroke="none" points="-4,4 -4,-75.3089 450,-75.3089 450,4 -4,4"/>
<!-- Node1 -->
<g id="node1" class="node"><title>Node1</title>
<polygon fill="#bfbfbf" stroke="black" points="0,-38.5 0,-57.5 112,-57.5 112,-38.5 0,-38.5"/>
<text text-anchor="middle" x="56" y="-45.5" font-family="Helvetica,sans-Serif" font-size="10.00">XMLReader.makeCA</text>
</g>
<!-- Node2 -->
<g id="node2" class="node"><title>Node2</title>
<g id="a_node2"><a xlink:href="../../d7/db3/class_x_m_l_reader.html#a656927862103b26830df1596c1f65925" target="_top" xlink:title="XMLReader.getTextValue">
<polygon fill="white" stroke="black" points="314,-38.5 314,-57.5 446,-57.5 446,-38.5 314,-38.5"/>
<text text-anchor="middle" x="380" y="-45.5" font-family="Helvetica,sans-Serif" font-size="10.00">XMLReader.getTextValue</text>
</a>
</g>
</g>
<!-- Node1&#45;&gt;Node2 -->
<g id="edge1" class="edge"><title>Node1&#45;&gt;Node2</title>
<path fill="none" stroke="midnightblue" d="M93.9195,-57.5092C110.354,-61.2741 130.02,-65.143 148,-67 205.472,-72.9358 220.472,-72.364 278,-67 294.322,-65.4781 311.937,-62.6014 327.815,-59.5384"/>
<polygon fill="midnightblue" stroke="midnightblue" points="328.846,-62.9016 337.967,-57.5109 327.475,-56.0371 328.846,-62.9016"/>
</g>
<!-- Node3 -->
<g id="node3" class="node"><title>Node3</title>
<g id="a_node3"><a xlink:href="../../d7/db3/class_x_m_l_reader.html#a373d7102833e61dbaac8e91b0567d03c" target="_top" xlink:title="XMLReader.makeGrid">
<polygon fill="white" stroke="black" points="154,-38.5 154,-57.5 272,-57.5 272,-38.5 154,-38.5"/>
<text text-anchor="middle" x="213" y="-45.5" font-family="Helvetica,sans-Serif" font-size="10.00">XMLReader.makeGrid</text>
</a>
</g>
</g>
<!-- Node1&#45;&gt;Node3 -->
<g id="edge2" class="edge"><title>Node1&#45;&gt;Node3</title>
<path fill="none" stroke="midnightblue" d="M112.084,-48C122.37,-48 133.234,-48 143.859,-48"/>
<polygon fill="midnightblue" stroke="midnightblue" points="143.946,-51.5001 153.946,-48 143.946,-44.5001 143.946,-51.5001"/>
</g>
<!-- Node4 -->
<g id="node4" class="node"><title>Node4</title>
<g id="a_node4"><a xlink:href="../../d7/db3/class_x_m_l_reader.html#add9bc5354b7e5ab29eab10f671ee9686" target="_top" xlink:title="XMLReader.makeParam">
<polygon fill="white" stroke="black" points="148.5,-0.5 148.5,-19.5 277.5,-19.5 277.5,-0.5 148.5,-0.5"/>
<text text-anchor="middle" x="213" y="-7.5" font-family="Helvetica,sans-Serif" font-size="10.00">XMLReader.makeParam</text>
</a>
</g>
</g>
<!-- Node1&#45;&gt;Node4 -->
<g id="edge4" class="edge"><title>Node1&#45;&gt;Node4</title>
<path fill="none" stroke="midnightblue" d="M96.113,-38.411C116.475,-33.4191 141.566,-27.2676 163.189,-21.9666"/>
<polygon fill="midnightblue" stroke="midnightblue" points="164.289,-25.3006 173.168,-19.5201 162.622,-18.5019 164.289,-25.3006"/>
</g>
<!-- Node3&#45;&gt;Node2 -->
<g id="edge3" class="edge"><title>Node3&#45;&gt;Node2</title>
<path fill="none" stroke="midnightblue" d="M272.173,-48C282.368,-48 293.108,-48 303.688,-48"/>
<polygon fill="midnightblue" stroke="midnightblue" points="303.761,-51.5001 313.761,-48 303.761,-44.5001 303.761,-51.5001"/>
</g>
<!-- Node4&#45;&gt;Node2 -->
<g id="edge5" class="edge"><title>Node4&#45;&gt;Node2</title>
<path fill="none" stroke="midnightblue" d="M255.636,-19.589C277.508,-24.6261 304.506,-30.8438 327.664,-36.1771"/>
<polygon fill="midnightblue" stroke="midnightblue" points="327.133,-39.6463 337.663,-38.4799 328.704,-32.8249 327.133,-39.6463"/>
</g>
</g>
</svg>
