<?xml version="1.0" encoding="UTF-8" standalone="no"?>
<!DOCTYPE svg PUBLIC "-//W3C//DTD SVG 1.1//EN"
 "http://www.w3.org/Graphics/SVG/1.1/DTD/svg11.dtd">
<!-- Generated by graphviz version 2.36.0 (20140111.2315)
 -->
<!-- Title: XMLReader.XMLReader Pages: 1 -->
<svg width="854pt" height="104pt"
 viewBox="0.00 0.00 854.00 104.00" xmlns="http://www.w3.org/2000/svg" xmlns:xlink="http://www.w3.org/1999/xlink">
<g id="graph0" class="graph" transform="scale(1 1) rotate(0) translate(4 100)">
<title>XMLReader.XMLReader</title>
<polygon fill="white" stroke="none" points="-4,4 -4,-100 850,-100 850,4 -4,4"/>
<!-- Node1 -->
<g id="node1" class="node"><title>Node1</title>
<polygon fill="#bfbfbf" stroke="black" points="0,-38.5 0,-57.5 124,-57.5 124,-38.5 0,-38.5"/>
<text text-anchor="middle" x="62" y="-45.5" font-family="Helvetica,sans-Serif" font-size="10.00">XMLReader.XMLReader</text>
</g>
<!-- Node2 -->
<g id="node2" class="node"><title>Node2</title>
<g id="a_node2"><a xlink:href="../../d7/db3/class_x_m_l_reader.html#a8c0ab8826ba3315ba3899e050967ecfa" target="_top" xlink:title="XMLReader.setUpTypes">
<polygon fill="white" stroke="black" points="160,-38.5 160,-57.5 286,-57.5 286,-38.5 160,-38.5"/>
<text text-anchor="middle" x="223" y="-45.5" font-family="Helvetica,sans-Serif" font-size="10.00">XMLReader.setUpTypes</text>
</a>
</g>
</g>
<!-- Node1&#45;&gt;Node2 -->
<g id="edge1" class="edge"><title>Node1&#45;&gt;Node2</title>
<path fill="none" stroke="midnightblue" d="M124.019,-48C132.453,-48 141.182,-48 149.795,-48"/>
<polygon fill="midnightblue" stroke="midnightblue" points="149.829,-51.5001 159.829,-48 149.829,-44.5001 149.829,-51.5001"/>
</g>
<!-- Node3 -->
<g id="node3" class="node"><title>Node3</title>
<g id="a_node3"><a xlink:href="../../d7/db3/class_x_m_l_reader.html#ac9e41bf7f824b9068b5c15538f724908" target="_top" xlink:title="XMLReader.setUpGameTypes">
<polygon fill="white" stroke="black" points="326.5,-76.5 326.5,-95.5 481.5,-95.5 481.5,-76.5 326.5,-76.5"/>
<text text-anchor="middle" x="404" y="-83.5" font-family="Helvetica,sans-Serif" font-size="10.00">XMLReader.setUpGameTypes</text>
</a>
</g>
</g>
<!-- Node2&#45;&gt;Node3 -->
<g id="edge2" class="edge"><title>Node2&#45;&gt;Node3</title>
<path fill="none" stroke="midnightblue" d="M269.169,-57.589C293.216,-62.6939 322.974,-69.0113 348.319,-74.3918"/>
<polygon fill="midnightblue" stroke="midnightblue" points="347.647,-77.8269 358.156,-76.4799 349.1,-70.9795 347.647,-77.8269"/>
</g>
<!-- Node6 -->
<g id="node6" class="node"><title>Node6</title>
<g id="a_node6"><a xlink:href="../../d7/db3/class_x_m_l_reader.html#a28c3980bfa6ce65624304c89c37d229e" target="_top" xlink:title="XMLReader.setUpGridTypes">
<polygon fill="white" stroke="black" points="331,-38.5 331,-57.5 477,-57.5 477,-38.5 331,-38.5"/>
<text text-anchor="middle" x="404" y="-45.5" font-family="Helvetica,sans-Serif" font-size="10.00">XMLReader.setUpGridTypes</text>
</a>
</g>
</g>
<!-- Node2&#45;&gt;Node6 -->
<g id="edge5" class="edge"><title>Node2&#45;&gt;Node6</title>
<path fill="none" stroke="midnightblue" d="M286.103,-48C297.271,-48 309.069,-48 320.704,-48"/>
<polygon fill="midnightblue" stroke="midnightblue" points="320.866,-51.5001 330.866,-48 320.866,-44.5001 320.866,-51.5001"/>
</g>
<!-- Node7 -->
<g id="node7" class="node"><title>Node7</title>
<g id="a_node7"><a xlink:href="../../d7/db3/class_x_m_l_reader.html#a69cb8c74efb5d7b221375ccc232a9f53" target="_top" xlink:title="XMLReader.setUpNbhoodTypes">
<polygon fill="white" stroke="black" points="322,-0.5 322,-19.5 486,-19.5 486,-0.5 322,-0.5"/>
<text text-anchor="middle" x="404" y="-7.5" font-family="Helvetica,sans-Serif" font-size="10.00">XMLReader.setUpNbhoodTypes</text>
</a>
</g>
</g>
<!-- Node2&#45;&gt;Node7 -->
<g id="edge6" class="edge"><title>Node2&#45;&gt;Node7</title>
<path fill="none" stroke="midnightblue" d="M269.169,-38.411C293.216,-33.3061 322.974,-26.9887 348.319,-21.6082"/>
<polygon fill="midnightblue" stroke="midnightblue" points="349.1,-25.0205 358.156,-19.5201 347.647,-18.1731 349.1,-25.0205"/>
</g>
<!-- Node4 -->
<g id="node4" class="node"><title>Node4</title>
<g id="a_node4"><a xlink:href="../../d7/db3/class_x_m_l_reader.html#a73f0ed30c2f1dc7614f7732f7ec868ea" target="_top" xlink:title="XMLReader.addGameType">
<polygon fill="white" stroke="black" points="522,-76.5 522,-95.5 662,-95.5 662,-76.5 522,-76.5"/>
<text text-anchor="middle" x="592" y="-83.5" font-family="Helvetica,sans-Serif" font-size="10.00">XMLReader.addGameType</text>
</a>
</g>
</g>
<!-- Node3&#45;&gt;Node4 -->
<g id="edge3" class="edge"><title>Node3&#45;&gt;Node4</title>
<path fill="none" stroke="midnightblue" d="M481.727,-86C491.605,-86 501.736,-86 511.655,-86"/>
<polygon fill="midnightblue" stroke="midnightblue" points="511.895,-89.5001 521.895,-86 511.895,-82.5001 511.895,-89.5001"/>
</g>
<!-- Node5 -->
<g id="node5" class="node"><title>Node5</title>
<g id="a_node5"><a xlink:href="../../d2/d40/class_cellular_automata.html#ad8e068dc2395ca5598e5e4164ecfe6b2" target="_top" xlink:title="CellularAutomata.getName">
<polygon fill="white" stroke="black" points="698,-76.5 698,-95.5 846,-95.5 846,-76.5 698,-76.5"/>
<text text-anchor="middle" x="772" y="-83.5" font-family="Helvetica,sans-Serif" font-size="10.00">CellularAutomata.getName</text>
</a>
</g>
</g>
<!-- Node4&#45;&gt;Node5 -->
<g id="edge4" class="edge"><title>Node4&#45;&gt;Node5</title>
<path fill="none" stroke="midnightblue" d="M662.074,-86C670.503,-86 679.183,-86 687.79,-86"/>
<polygon fill="midnightblue" stroke="midnightblue" points="687.842,-89.5001 697.842,-86 687.842,-82.5001 687.842,-89.5001"/>
</g>
</g>
</svg>
