<?xml version="1.0" encoding="UTF-8" standalone="no"?>
<!DOCTYPE svg PUBLIC "-//W3C//DTD SVG 1.1//EN"
 "http://www.w3.org/Graphics/SVG/1.1/DTD/svg11.dtd">
<!-- Generated by graphviz version 2.36.0 (20140111.2315)
 -->
<!-- Title: XMLReader.makeGrid Pages: 1 -->
<svg width="1044pt" height="74pt"
 viewBox="0.00 0.00 1044.00 74.00" xmlns="http://www.w3.org/2000/svg" xmlns:xlink="http://www.w3.org/1999/xlink">
<g id="graph0" class="graph" transform="scale(1 1) rotate(0) translate(4 70)">
<title>XMLReader.makeGrid</title>
<polygon fill="white" stroke="none" points="-4,4 -4,-70 1040,-70 1040,4 -4,4"/>
<!-- Node1 -->
<g id="node1" class="node"><title>Node1</title>
<polygon fill="#bfbfbf" stroke="black" points="0,-17.5 0,-36.5 118,-36.5 118,-17.5 0,-17.5"/>
<text text-anchor="middle" x="59" y="-24.5" font-family="Helvetica,sans-Serif" font-size="10.00">XMLReader.makeGrid</text>
</g>
<!-- Node2 -->
<g id="node2" class="node"><title>Node2</title>
<g id="a_node2"><a xlink:href="../../d7/db3/class_x_m_l_reader.html#a0c634622bb0c8f4ee65f2d91218e8917" target="_top" xlink:title="XMLReader.makeCA">
<polygon fill="white" stroke="black" points="154,-17.5 154,-36.5 266,-36.5 266,-17.5 154,-17.5"/>
<text text-anchor="middle" x="210" y="-24.5" font-family="Helvetica,sans-Serif" font-size="10.00">XMLReader.makeCA</text>
</a>
</g>
</g>
<!-- Node1&#45;&gt;Node2 -->
<g id="edge1" class="edge"><title>Node1&#45;&gt;Node2</title>
<path fill="none" stroke="midnightblue" d="M128.071,-27C136.69,-27 145.425,-27 153.809,-27"/>
<polygon fill="midnightblue" stroke="midnightblue" points="128.034,-23.5001 118.034,-27 128.034,-30.5001 128.034,-23.5001"/>
</g>
<!-- Node3 -->
<g id="node3" class="node"><title>Node3</title>
<g id="a_node3"><a xlink:href="../../df/df8/class_cell_society_view.html#a6a72ed4ee014a9c3f0368ab26be873d6" target="_top" xlink:title="CellSocietyView.makeCAGame">
<polygon fill="white" stroke="black" points="302.5,-17.5 302.5,-36.5 465.5,-36.5 465.5,-17.5 302.5,-17.5"/>
<text text-anchor="middle" x="384" y="-24.5" font-family="Helvetica,sans-Serif" font-size="10.00">CellSocietyView.makeCAGame</text>
</a>
</g>
</g>
<!-- Node2&#45;&gt;Node3 -->
<g id="edge2" class="edge"><title>Node2&#45;&gt;Node3</title>
<path fill="none" stroke="midnightblue" d="M276.519,-27C284.974,-27 293.71,-27 302.373,-27"/>
<polygon fill="midnightblue" stroke="midnightblue" points="276.369,-23.5001 266.369,-27 276.369,-30.5001 276.369,-23.5001"/>
</g>
<!-- Node4 -->
<g id="node4" class="node"><title>Node4</title>
<g id="a_node4"><a xlink:href="../../df/df8/class_cell_society_view.html#a2c047a3972078bb0a5490ed225ef2dfa" target="_top" xlink:title="CellSocietyView.loadNewFile">
<polygon fill="white" stroke="black" points="502.5,-38.5 502.5,-57.5 651.5,-57.5 651.5,-38.5 502.5,-38.5"/>
<text text-anchor="middle" x="577" y="-45.5" font-family="Helvetica,sans-Serif" font-size="10.00">CellSocietyView.loadNewFile</text>
</a>
</g>
</g>
<!-- Node3&#45;&gt;Node4 -->
<g id="edge3" class="edge"><title>Node3&#45;&gt;Node4</title>
<path fill="none" stroke="midnightblue" d="M475.72,-36.9744C484.608,-37.9516 493.551,-38.935 502.241,-39.8904"/>
<polygon fill="midnightblue" stroke="midnightblue" points="476.047,-33.4894 465.724,-35.8755 475.282,-40.4475 476.047,-33.4894"/>
</g>
<!-- Node5 -->
<g id="node5" class="node"><title>Node5</title>
<g id="a_node5"><a xlink:href="../../df/df8/class_cell_society_view.html#a656cfed0ba32bc41bbd0c4087860db4b" target="_top" xlink:title="CellSocietyView.makeLoad\lButton">
<polygon fill="white" stroke="black" points="688.5,-36 688.5,-66 831.5,-66 831.5,-36 688.5,-36"/>
<text text-anchor="start" x="696.5" y="-54" font-family="Helvetica,sans-Serif" font-size="10.00">CellSocietyView.makeLoad</text>
<text text-anchor="middle" x="760" y="-43" font-family="Helvetica,sans-Serif" font-size="10.00">Button</text>
</a>
</g>
</g>
<!-- Node4&#45;&gt;Node5 -->
<g id="edge4" class="edge"><title>Node4&#45;&gt;Node5</title>
<path fill="none" stroke="midnightblue" d="M661.651,-49.3865C670.585,-49.5346 679.61,-49.6841 688.373,-49.8294"/>
<polygon fill="midnightblue" stroke="midnightblue" points="661.676,-45.8865 651.62,-49.2202 661.56,-52.8856 661.676,-45.8865"/>
</g>
<!-- Node6 -->
<g id="node6" class="node"><title>Node6</title>
<g id="a_node6"><a xlink:href="../../df/df8/class_cell_society_view.html#a53ab66afdeb23b3fc89e54a44be7ced5" target="_top" xlink:title="CellSocietyView.CellSocietyView">
<polygon fill="white" stroke="black" points="868.5,-41.5 868.5,-60.5 1035.5,-60.5 1035.5,-41.5 868.5,-41.5"/>
<text text-anchor="middle" x="952" y="-48.5" font-family="Helvetica,sans-Serif" font-size="10.00">CellSocietyView.CellSocietyView</text>
</a>
</g>
</g>
<!-- Node5&#45;&gt;Node6 -->
<g id="edge5" class="edge"><title>Node5&#45;&gt;Node6</title>
<path fill="none" stroke="midnightblue" d="M841.92,-51C850.663,-51 859.569,-51 868.332,-51"/>
<polygon fill="midnightblue" stroke="midnightblue" points="841.749,-47.5001 831.749,-51 841.749,-54.5001 841.749,-47.5001"/>
</g>
<!-- Node7 -->
<g id="node7" class="node"><title>Node7</title>
<g id="a_node7"><a xlink:href="../../df/df8/class_cell_society_view.html#a7bdbd4e8fd3893e672eb22015603f6dc" target="_top" xlink:title="CellSocietyView.makeButtons">
<polygon fill="white" stroke="black" points="873,-0.5 873,-19.5 1031,-19.5 1031,-0.5 873,-0.5"/>
<text text-anchor="middle" x="952" y="-7.5" font-family="Helvetica,sans-Serif" font-size="10.00">CellSocietyView.makeButtons</text>
</a>
</g>
</g>
<!-- Node5&#45;&gt;Node7 -->
<g id="edge6" class="edge"><title>Node5&#45;&gt;Node7</title>
<path fill="none" stroke="midnightblue" d="M840.613,-33.8204C863.224,-28.941 887.031,-23.8039 906.723,-19.5545"/>
<polygon fill="midnightblue" stroke="midnightblue" points="839.707,-30.4353 830.67,-35.9659 841.183,-37.2778 839.707,-30.4353"/>
</g>
<!-- Node7&#45;&gt;Node3 -->
<g id="edge7" class="edge"><title>Node7&#45;&gt;Node3</title>
<path fill="none" stroke="midnightblue" d="M862.41,-12.6608C753.676,-15.9267 570.835,-21.4184 465.793,-24.5733"/>
<polygon fill="midnightblue" stroke="midnightblue" points="862.806,-16.1506 872.697,-12.3519 862.596,-9.15376 862.806,-16.1506"/>
</g>
</g>
</svg>
