<?xml version="1.0" encoding="UTF-8" standalone="no"?>
<!DOCTYPE svg PUBLIC "-//W3C//DTD SVG 1.1//EN"
 "http://www.w3.org/Graphics/SVG/1.1/DTD/svg11.dtd">
<!-- Generated by graphviz version 2.36.0 (20140111.2315)
 -->
<!-- Title: XMLReader.chooseFile Pages: 1 -->
<svg width="900pt" height="85pt"
 viewBox="0.00 0.00 900.00 85.00" xmlns="http://www.w3.org/2000/svg" xmlns:xlink="http://www.w3.org/1999/xlink">
<g id="graph0" class="graph" transform="scale(1 1) rotate(0) translate(4 81)">
<title>XMLReader.chooseFile</title>
<polygon fill="white" stroke="none" points="-4,4 -4,-81 896,-81 896,4 -4,4"/>
<!-- Node1 -->
<g id="node1" class="node"><title>Node1</title>
<polygon fill="#bfbfbf" stroke="black" points="0.5,-3.5 0.5,-22.5 121.5,-22.5 121.5,-3.5 0.5,-3.5"/>
<text text-anchor="middle" x="61" y="-10.5" font-family="Helvetica,sans-Serif" font-size="10.00">XMLReader.chooseFile</text>
</g>
<!-- Node2 -->
<g id="node2" class="node"><title>Node2</title>
<g id="a_node2"><a xlink:href="../../df/df8/class_cell_society_view.html#a2c047a3972078bb0a5490ed225ef2dfa" target="_top" xlink:title="CellSocietyView.loadNewFile">
<polygon fill="white" stroke="black" points="158.5,-3.5 158.5,-22.5 307.5,-22.5 307.5,-3.5 158.5,-3.5"/>
<text text-anchor="middle" x="233" y="-10.5" font-family="Helvetica,sans-Serif" font-size="10.00">CellSocietyView.loadNewFile</text>
</a>
</g>
</g>
<!-- Node1&#45;&gt;Node2 -->
<g id="edge1" class="edge"><title>Node1&#45;&gt;Node2</title>
<path fill="none" stroke="midnightblue" d="M132.001,-13C140.678,-13 149.571,-13 158.302,-13"/>
<polygon fill="midnightblue" stroke="midnightblue" points="131.936,-9.5001 121.936,-13 131.936,-16.5001 131.936,-9.5001"/>
</g>
<!-- Node3 -->
<g id="node3" class="node"><title>Node3</title>
<g id="a_node3"><a xlink:href="../../df/df8/class_cell_society_view.html#a656cfed0ba32bc41bbd0c4087860db4b" target="_top" xlink:title="CellSocietyView.makeLoad\lButton">
<polygon fill="white" stroke="black" points="344.5,-20 344.5,-50 487.5,-50 487.5,-20 344.5,-20"/>
<text text-anchor="start" x="352.5" y="-38" font-family="Helvetica,sans-Serif" font-size="10.00">CellSocietyView.makeLoad</text>
<text text-anchor="middle" x="416" y="-27" font-family="Helvetica,sans-Serif" font-size="10.00">Button</text>
</a>
</g>
</g>
<!-- Node2&#45;&gt;Node3 -->
<g id="edge2" class="edge"><title>Node2&#45;&gt;Node3</title>
<path fill="none" stroke="midnightblue" d="M317.651,-23.1675C326.585,-24.2535 335.61,-25.3504 344.373,-26.4155"/>
<polygon fill="midnightblue" stroke="midnightblue" points="317.969,-19.6805 307.62,-21.9482 317.124,-26.6293 317.969,-19.6805"/>
</g>
<!-- Node4 -->
<g id="node4" class="node"><title>Node4</title>
<g id="a_node4"><a xlink:href="../../df/df8/class_cell_society_view.html#a53ab66afdeb23b3fc89e54a44be7ced5" target="_top" xlink:title="CellSocietyView.CellSocietyView">
<polygon fill="white" stroke="black" points="524.5,-57.5 524.5,-76.5 691.5,-76.5 691.5,-57.5 524.5,-57.5"/>
<text text-anchor="middle" x="608" y="-64.5" font-family="Helvetica,sans-Serif" font-size="10.00">CellSocietyView.CellSocietyView</text>
</a>
</g>
</g>
<!-- Node3&#45;&gt;Node4 -->
<g id="edge3" class="edge"><title>Node3&#45;&gt;Node4</title>
<path fill="none" stroke="midnightblue" d="M498.041,-48.649C515.682,-51.6201 533.979,-54.7017 550.428,-57.4721"/>
<polygon fill="midnightblue" stroke="midnightblue" points="498.191,-45.1251 487.749,-46.9156 497.029,-52.0279 498.191,-45.1251"/>
</g>
<!-- Node5 -->
<g id="node5" class="node"><title>Node5</title>
<g id="a_node5"><a xlink:href="../../df/df8/class_cell_society_view.html#a7bdbd4e8fd3893e672eb22015603f6dc" target="_top" xlink:title="CellSocietyView.makeButtons">
<polygon fill="white" stroke="black" points="529,-19.5 529,-38.5 687,-38.5 687,-19.5 529,-19.5"/>
<text text-anchor="middle" x="608" y="-26.5" font-family="Helvetica,sans-Serif" font-size="10.00">CellSocietyView.makeButtons</text>
</a>
</g>
</g>
<!-- Node3&#45;&gt;Node5 -->
<g id="edge4" class="edge"><title>Node3&#45;&gt;Node5</title>
<path fill="none" stroke="midnightblue" d="M497.91,-32.445C508.163,-32.1212 518.641,-31.7903 528.85,-31.4679"/>
<polygon fill="midnightblue" stroke="midnightblue" points="497.634,-28.9518 487.749,-32.7658 497.855,-35.9484 497.634,-28.9518"/>
</g>
<!-- Node6 -->
<g id="node6" class="node"><title>Node6</title>
<g id="a_node6"><a xlink:href="../../df/df8/class_cell_society_view.html#a6a72ed4ee014a9c3f0368ab26be873d6" target="_top" xlink:title="CellSocietyView.makeCAGame">
<polygon fill="white" stroke="black" points="728.5,-0.5 728.5,-19.5 891.5,-19.5 891.5,-0.5 728.5,-0.5"/>
<text text-anchor="middle" x="810" y="-7.5" font-family="Helvetica,sans-Serif" font-size="10.00">CellSocietyView.makeCAGame</text>
</a>
</g>
</g>
<!-- Node5&#45;&gt;Node6 -->
<g id="edge5" class="edge"><title>Node5&#45;&gt;Node6</title>
<path fill="none" stroke="midnightblue" d="M697.379,-20.604C707.645,-19.6287 718.077,-18.6377 728.234,-17.6728"/>
<polygon fill="midnightblue" stroke="midnightblue" points="696.809,-17.1423 687.185,-21.5725 697.471,-24.111 696.809,-17.1423"/>
</g>
<!-- Node6&#45;&gt;Node2 -->
<g id="edge6" class="edge"><title>Node6&#45;&gt;Node2</title>
<path fill="none" stroke="midnightblue" d="M718.336,-9.26938C624.615,-8.68567 474.066,-8.2267 344,-10 332.252,-10.1602 319.8,-10.4165 307.661,-10.7136"/>
<polygon fill="midnightblue" stroke="midnightblue" points="718.329,-12.7693 728.351,-9.33358 718.374,-5.76945 718.329,-12.7693"/>
</g>
</g>
</svg>
