<?xml version="1.0" encoding="UTF-8" standalone="no"?>
<!DOCTYPE svg PUBLIC "-//W3C//DTD SVG 1.1//EN"
 "http://www.w3.org/Graphics/SVG/1.1/DTD/svg11.dtd">
<!-- Generated by graphviz version 2.36.0 (20140111.2315)
 -->
<!-- Title: XMLReader.makeParam Pages: 1 -->
<svg width="1056pt" height="74pt"
 viewBox="0.00 0.00 1056.00 74.00" xmlns="http://www.w3.org/2000/svg" xmlns:xlink="http://www.w3.org/1999/xlink">
<g id="graph0" class="graph" transform="scale(1 1) rotate(0) translate(4 70)">
<title>XMLReader.makeParam</title>
<polygon fill="white" stroke="none" points="-4,4 -4,-70 1052,-70 1052,4 -4,4"/>
<!-- Node1 -->
<g id="node1" class="node"><title>Node1</title>
<polygon fill="#bfbfbf" stroke="black" points="0.5,-17.5 0.5,-36.5 129.5,-36.5 129.5,-17.5 0.5,-17.5"/>
<text text-anchor="middle" x="65" y="-24.5" font-family="Helvetica,sans-Serif" font-size="10.00">XMLReader.makeParam</text>
</g>
<!-- Node2 -->
<g id="node2" class="node"><title>Node2</title>
<g id="a_node2"><a xlink:href="../../d7/db3/class_x_m_l_reader.html#a0c634622bb0c8f4ee65f2d91218e8917" target="_top" xlink:title="XMLReader.makeCA">
<polygon fill="white" stroke="black" points="166,-17.5 166,-36.5 278,-36.5 278,-17.5 166,-17.5"/>
<text text-anchor="middle" x="222" y="-24.5" font-family="Helvetica,sans-Serif" font-size="10.00">XMLReader.makeCA</text>
</a>
</g>
</g>
<!-- Node1&#45;&gt;Node2 -->
<g id="edge1" class="edge"><title>Node1&#45;&gt;Node2</title>
<path fill="none" stroke="midnightblue" d="M140.008,-27C148.63,-27 157.31,-27 165.619,-27"/>
<polygon fill="midnightblue" stroke="midnightblue" points="139.939,-23.5001 129.939,-27 139.939,-30.5001 139.939,-23.5001"/>
</g>
<!-- Node3 -->
<g id="node3" class="node"><title>Node3</title>
<g id="a_node3"><a xlink:href="../../df/df8/class_cell_society_view.html#a6a72ed4ee014a9c3f0368ab26be873d6" target="_top" xlink:title="CellSocietyView.makeCAGame">
<polygon fill="white" stroke="black" points="314.5,-17.5 314.5,-36.5 477.5,-36.5 477.5,-17.5 314.5,-17.5"/>
<text text-anchor="middle" x="396" y="-24.5" font-family="Helvetica,sans-Serif" font-size="10.00">CellSocietyView.makeCAGame</text>
</a>
</g>
</g>
<!-- Node2&#45;&gt;Node3 -->
<g id="edge2" class="edge"><title>Node2&#45;&gt;Node3</title>
<path fill="none" stroke="midnightblue" d="M288.519,-27C296.974,-27 305.71,-27 314.373,-27"/>
<polygon fill="midnightblue" stroke="midnightblue" points="288.369,-23.5001 278.369,-27 288.369,-30.5001 288.369,-23.5001"/>
</g>
<!-- Node4 -->
<g id="node4" class="node"><title>Node4</title>
<g id="a_node4"><a xlink:href="../../df/df8/class_cell_society_view.html#a2c047a3972078bb0a5490ed225ef2dfa" target="_top" xlink:title="CellSocietyView.loadNewFile">
<polygon fill="white" stroke="black" points="514.5,-38.5 514.5,-57.5 663.5,-57.5 663.5,-38.5 514.5,-38.5"/>
<text text-anchor="middle" x="589" y="-45.5" font-family="Helvetica,sans-Serif" font-size="10.00">CellSocietyView.loadNewFile</text>
</a>
</g>
</g>
<!-- Node3&#45;&gt;Node4 -->
<g id="edge3" class="edge"><title>Node3&#45;&gt;Node4</title>
<path fill="none" stroke="midnightblue" d="M487.72,-36.9744C496.608,-37.9516 505.551,-38.935 514.241,-39.8904"/>
<polygon fill="midnightblue" stroke="midnightblue" points="488.047,-33.4894 477.724,-35.8755 487.282,-40.4475 488.047,-33.4894"/>
</g>
<!-- Node5 -->
<g id="node5" class="node"><title>Node5</title>
<g id="a_node5"><a xlink:href="../../df/df8/class_cell_society_view.html#a656cfed0ba32bc41bbd0c4087860db4b" target="_top" xlink:title="CellSocietyView.makeLoad\lButton">
<polygon fill="white" stroke="black" points="700.5,-36 700.5,-66 843.5,-66 843.5,-36 700.5,-36"/>
<text text-anchor="start" x="708.5" y="-54" font-family="Helvetica,sans-Serif" font-size="10.00">CellSocietyView.makeLoad</text>
<text text-anchor="middle" x="772" y="-43" font-family="Helvetica,sans-Serif" font-size="10.00">Button</text>
</a>
</g>
</g>
<!-- Node4&#45;&gt;Node5 -->
<g id="edge4" class="edge"><title>Node4&#45;&gt;Node5</title>
<path fill="none" stroke="midnightblue" d="M673.651,-49.3865C682.585,-49.5346 691.61,-49.6841 700.373,-49.8294"/>
<polygon fill="midnightblue" stroke="midnightblue" points="673.676,-45.8865 663.62,-49.2202 673.56,-52.8856 673.676,-45.8865"/>
</g>
<!-- Node6 -->
<g id="node6" class="node"><title>Node6</title>
<g id="a_node6"><a xlink:href="../../df/df8/class_cell_society_view.html#a53ab66afdeb23b3fc89e54a44be7ced5" target="_top" xlink:title="CellSocietyView.CellSocietyView">
<polygon fill="white" stroke="black" points="880.5,-41.5 880.5,-60.5 1047.5,-60.5 1047.5,-41.5 880.5,-41.5"/>
<text text-anchor="middle" x="964" y="-48.5" font-family="Helvetica,sans-Serif" font-size="10.00">CellSocietyView.CellSocietyView</text>
</a>
</g>
</g>
<!-- Node5&#45;&gt;Node6 -->
<g id="edge5" class="edge"><title>Node5&#45;&gt;Node6</title>
<path fill="none" stroke="midnightblue" d="M853.92,-51C862.663,-51 871.569,-51 880.332,-51"/>
<polygon fill="midnightblue" stroke="midnightblue" points="853.749,-47.5001 843.749,-51 853.749,-54.5001 853.749,-47.5001"/>
</g>
<!-- Node7 -->
<g id="node7" class="node"><title>Node7</title>
<g id="a_node7"><a xlink:href="../../df/df8/class_cell_society_view.html#a7bdbd4e8fd3893e672eb22015603f6dc" target="_top" xlink:title="CellSocietyView.makeButtons">
<polygon fill="white" stroke="black" points="885,-0.5 885,-19.5 1043,-19.5 1043,-0.5 885,-0.5"/>
<text text-anchor="middle" x="964" y="-7.5" font-family="Helvetica,sans-Serif" font-size="10.00">CellSocietyView.makeButtons</text>
</a>
</g>
</g>
<!-- Node5&#45;&gt;Node7 -->
<g id="edge6" class="edge"><title>Node5&#45;&gt;Node7</title>
<path fill="none" stroke="midnightblue" d="M852.613,-33.8204C875.224,-28.941 899.031,-23.8039 918.723,-19.5545"/>
<polygon fill="midnightblue" stroke="midnightblue" points="851.707,-30.4353 842.67,-35.9659 853.183,-37.2778 851.707,-30.4353"/>
</g>
<!-- Node7&#45;&gt;Node3 -->
<g id="edge7" class="edge"><title>Node7&#45;&gt;Node3</title>
<path fill="none" stroke="midnightblue" d="M874.41,-12.6608C765.676,-15.9267 582.835,-21.4184 477.793,-24.5733"/>
<polygon fill="midnightblue" stroke="midnightblue" points="874.806,-16.1506 884.697,-12.3519 874.596,-9.15376 874.806,-16.1506"/>
</g>
</g>
</svg>
