<?xml version="1.0" encoding="UTF-8" standalone="no"?>
<!DOCTYPE svg PUBLIC "-//W3C//DTD SVG 1.1//EN"
 "http://www.w3.org/Graphics/SVG/1.1/DTD/svg11.dtd">
<!-- Generated by graphviz version 2.36.0 (20140111.2315)
 -->
<!-- Title: Mover Pages: 1 -->
<svg width="122pt" height="174pt"
 viewBox="0.00 0.00 122.00 174.00" xmlns="http://www.w3.org/2000/svg" xmlns:xlink="http://www.w3.org/1999/xlink">
<g id="graph0" class="graph" transform="scale(1 1) rotate(0) translate(4 170)">
<title>Mover</title>
<polygon fill="white" stroke="none" points="-4,4 -4,-170 118,-170 118,4 -4,4"/>
<!-- Node1 -->
<g id="node1" class="node"><title>Node1</title>
<polygon fill="#bfbfbf" stroke="black" points="0,-0.5 0,-19.5 46,-19.5 46,-0.5 0,-0.5"/>
<text text-anchor="middle" x="23" y="-7.5" font-family="Helvetica,sans-Serif" font-size="10.00">Mover</text>
</g>
<!-- Node2 -->
<g id="node2" class="node"><title>Node2</title>
<g id="a_node2"><a xlink:href="../../dd/d11/class_cell.html" target="_top" xlink:title="Cell">
<polygon fill="white" stroke="black" points="57,-68.5 57,-87.5 91,-87.5 91,-68.5 57,-68.5"/>
<text text-anchor="middle" x="74" y="-75.5" font-family="Helvetica,sans-Serif" font-size="10.00">Cell</text>
</a>
</g>
</g>
<!-- Node2&#45;&gt;Node1 -->
<g id="edge1" class="edge"><title>Node2&#45;&gt;Node1</title>
<path fill="none" stroke="#9a32cd" stroke-dasharray="5,2" d="M61.1033,-60.3101C51.1611,-47.4437 37.8042,-30.1583 29.8318,-19.8411"/>
<polygon fill="#9a32cd" stroke="#9a32cd" points="58.4486,-62.5989 67.3326,-68.3717 63.9876,-58.3187 58.4486,-62.5989"/>
<text text-anchor="middle" x="71" y="-41.5" font-family="Helvetica,sans-Serif" font-size="10.00"> myCell</text>
</g>
<!-- Node3 -->
<g id="node3" class="node"><title>Node3</title>
<polygon fill="white" stroke="#bfbfbf" points="3,-146.5 3,-165.5 43,-165.5 43,-146.5 3,-146.5"/>
<text text-anchor="middle" x="23" y="-153.5" font-family="Helvetica,sans-Serif" font-size="10.00">Paint</text>
</g>
<!-- Node3&#45;&gt;Node1 -->
<g id="edge3" class="edge"><title>Node3&#45;&gt;Node1</title>
<path fill="none" stroke="#9a32cd" stroke-dasharray="5,2" d="M15.3934,-136.883C8.9501,-119.352 1.3028,-91.9855 5,-68 7.71924,-50.359 14.91,-30.6924 19.3361,-19.6855"/>
<polygon fill="#9a32cd" stroke="#9a32cd" points="12.222,-138.382 19.1374,-146.409 18.7369,-135.822 12.222,-138.382"/>
<text text-anchor="middle" x="26.5" y="-75.5" font-family="Helvetica,sans-Serif" font-size="10.00"> myColor</text>
</g>
<!-- Node3&#45;&gt;Node2 -->
<g id="edge2" class="edge"><title>Node3&#45;&gt;Node2</title>
<path fill="none" stroke="#9a32cd" stroke-dasharray="5,2" d="M34.6996,-137.565C45.1792,-121.949 60.1091,-99.7002 68.2179,-87.6165"/>
<polygon fill="#9a32cd" stroke="#9a32cd" points="31.5163,-136.028 28.8503,-146.282 37.3289,-139.928 31.5163,-136.028"/>
<text text-anchor="middle" x="84" y="-120" font-family="Helvetica,sans-Serif" font-size="10.00"> nextColor</text>
<text text-anchor="middle" x="84" y="-109" font-family="Helvetica,sans-Serif" font-size="10.00">currentColor</text>
</g>
</g>
</svg>
