<?xml version="1.0" encoding="UTF-8" standalone="no"?>
<!DOCTYPE svg PUBLIC "-//W3C//DTD SVG 1.1//EN"
 "http://www.w3.org/Graphics/SVG/1.1/DTD/svg11.dtd">
<!-- Generated by graphviz version 2.36.0 (20140111.2315)
 -->
<!-- Title: MoveCellularAutomata Pages: 1 -->
<svg width="265pt" height="332pt"
 viewBox="0.00 0.00 265.00 332.00" xmlns="http://www.w3.org/2000/svg" xmlns:xlink="http://www.w3.org/1999/xlink">
<g id="graph0" class="graph" transform="scale(1 1) rotate(0) translate(4 328)">
<title>MoveCellularAutomata</title>
<polygon fill="white" stroke="none" points="-4,4 -4,-328 261,-328 261,4 -4,4"/>
<!-- Node1 -->
<g id="node1" class="node"><title>Node1</title>
<polygon fill="#bfbfbf" stroke="black" points="16.5,-0.5 16.5,-19.5 141.5,-19.5 141.5,-0.5 16.5,-0.5"/>
<text text-anchor="middle" x="79" y="-7.5" font-family="Helvetica,sans-Serif" font-size="10.00">MoveCellularAutomata</text>
</g>
<!-- Node2 -->
<g id="node2" class="node"><title>Node2</title>
<g id="a_node2"><a xlink:href="../../d2/d40/class_cellular_automata.html" target="_top" xlink:title="CellularAutomata">
<polygon fill="white" stroke="black" points="29,-90.5 29,-109.5 129,-109.5 129,-90.5 29,-90.5"/>
<text text-anchor="middle" x="79" y="-97.5" font-family="Helvetica,sans-Serif" font-size="10.00">CellularAutomata</text>
</a>
</g>
</g>
<!-- Node2&#45;&gt;Node1 -->
<g id="edge1" class="edge"><title>Node2&#45;&gt;Node1</title>
<path fill="none" stroke="midnightblue" d="M79,-79.9784C79,-61.3096 79,-33.6696 79,-19.7241"/>
<polygon fill="midnightblue" stroke="midnightblue" points="75.5001,-80.2405 79,-90.2405 82.5001,-80.2405 75.5001,-80.2405"/>
</g>
<!-- Node3 -->
<g id="node3" class="node"><title>Node3</title>
<g id="a_node3"><a xlink:href="../../da/d74/class_grid.html" target="_top" xlink:title="Grid">
<polygon fill="white" stroke="black" points="134,-158.5 134,-177.5 170,-177.5 170,-158.5 134,-158.5"/>
<text text-anchor="middle" x="152" y="-165.5" font-family="Helvetica,sans-Serif" font-size="10.00">Grid</text>
</a>
</g>
</g>
<!-- Node3&#45;&gt;Node2 -->
<g id="edge2" class="edge"><title>Node3&#45;&gt;Node2</title>
<path fill="none" stroke="#9a32cd" stroke-dasharray="5,2" d="M148.468,-148.106C146.384,-141.122 143.111,-133.562 138,-128 130.378,-119.705 119.708,-113.771 109.535,-109.619"/>
<polygon fill="#9a32cd" stroke="#9a32cd" points="145.155,-149.306 150.856,-158.236 151.968,-147.699 145.155,-149.306"/>
<text text-anchor="middle" x="164" y="-131.5" font-family="Helvetica,sans-Serif" font-size="10.00"> myGrid</text>
</g>
<!-- Node4 -->
<g id="node4" class="node"><title>Node4</title>
<polygon fill="white" stroke="#bfbfbf" points="129,-226.5 129,-245.5 175,-245.5 175,-226.5 129,-226.5"/>
<text text-anchor="middle" x="152" y="-233.5" font-family="Helvetica,sans-Serif" font-size="10.00">Group</text>
</g>
<!-- Node4&#45;&gt;Node3 -->
<g id="edge3" class="edge"><title>Node4&#45;&gt;Node3</title>
<path fill="none" stroke="midnightblue" d="M152,-216.041C152,-203.472 152,-187.563 152,-177.841"/>
<polygon fill="midnightblue" stroke="midnightblue" points="148.5,-216.372 152,-226.372 155.5,-216.372 148.5,-216.372"/>
</g>
<!-- Node5 -->
<g id="node5" class="node"><title>Node5</title>
<g id="a_node5"><a xlink:href="../../dd/d11/class_cell.html" target="_top" xlink:title="Cell">
<polygon fill="white" stroke="black" points="53,-226.5 53,-245.5 87,-245.5 87,-226.5 53,-226.5"/>
<text text-anchor="middle" x="70" y="-233.5" font-family="Helvetica,sans-Serif" font-size="10.00">Cell</text>
</a>
</g>
</g>
<!-- Node5&#45;&gt;Node3 -->
<g id="edge4" class="edge"><title>Node5&#45;&gt;Node3</title>
<path fill="none" stroke="#9a32cd" stroke-dasharray="5,2" d="M83.9384,-218.374C90.5189,-211.055 98.7324,-202.632 107,-196 115.67,-189.045 126.297,-182.587 135.046,-177.732"/>
<polygon fill="#9a32cd" stroke="#9a32cd" points="80.9788,-216.444 77.0582,-226.287 86.2611,-221.037 80.9788,-216.444"/>
<text text-anchor="middle" x="127.5" y="-199.5" font-family="Helvetica,sans-Serif" font-size="10.00"> myCells</text>
</g>
<!-- Node6 -->
<g id="node6" class="node"><title>Node6</title>
<polygon fill="white" stroke="#bfbfbf" points="5,-304.5 5,-323.5 45,-323.5 45,-304.5 5,-304.5"/>
<text text-anchor="middle" x="25" y="-311.5" font-family="Helvetica,sans-Serif" font-size="10.00">Paint</text>
</g>
<!-- Node6&#45;&gt;Node1 -->
<g id="edge7" class="edge"><title>Node6&#45;&gt;Node1</title>
<path fill="none" stroke="#9a32cd" stroke-dasharray="5,2" d="M15.6198,-295.266C8.52594,-280.196 0,-257.766 0,-237 0,-237 0,-237 0,-99 0,-61.839 39.4916,-33.2354 62.6311,-19.665"/>
<polygon fill="#9a32cd" stroke="#9a32cd" points="12.5854,-297.024 20.1797,-304.411 18.8499,-293.9 12.5854,-297.024"/>
<text text-anchor="middle" x="17" y="-165.5" font-family="Helvetica,sans-Serif" font-size="10.00"> empty</text>
</g>
<!-- Node6&#45;&gt;Node5 -->
<g id="edge5" class="edge"><title>Node6&#45;&gt;Node5</title>
<path fill="none" stroke="#9a32cd" stroke-dasharray="5,2" d="M35.3231,-295.565C44.5699,-279.949 57.7433,-257.7 64.8981,-245.616"/>
<polygon fill="#9a32cd" stroke="#9a32cd" points="32.2454,-293.894 30.1621,-304.282 38.2687,-297.46 32.2454,-293.894"/>
<text text-anchor="middle" x="83" y="-278" font-family="Helvetica,sans-Serif" font-size="10.00"> nextColor</text>
<text text-anchor="middle" x="83" y="-267" font-family="Helvetica,sans-Serif" font-size="10.00">currentColor</text>
</g>
<!-- Node7 -->
<g id="node7" class="node"><title>Node7</title>
<polygon fill="white" stroke="#bfbfbf" points="52,-158.5 52,-177.5 108,-177.5 108,-158.5 52,-158.5"/>
<text text-anchor="middle" x="80" y="-165.5" font-family="Helvetica,sans-Serif" font-size="10.00">Random</text>
</g>
<!-- Node7&#45;&gt;Node2 -->
<g id="edge6" class="edge"><title>Node7&#45;&gt;Node2</title>
<path fill="none" stroke="#9a32cd" stroke-dasharray="5,2" d="M79.7127,-148.041C79.5223,-135.472 79.2813,-119.563 79.134,-109.841"/>
<polygon fill="#9a32cd" stroke="#9a32cd" points="76.2181,-148.426 79.8693,-158.372 83.2173,-148.32 76.2181,-148.426"/>
<text text-anchor="middle" x="109" y="-131.5" font-family="Helvetica,sans-Serif" font-size="10.00"> myRandom</text>
</g>
<!-- Node8 -->
<g id="node8" class="node"><title>Node8</title>
<polygon fill="white" stroke="#bfbfbf" points="147,-90.5 147,-109.5 257,-109.5 257,-90.5 147,-90.5"/>
<text text-anchor="middle" x="202" y="-97.5" font-family="Helvetica,sans-Serif" font-size="10.00">ArrayList&lt; Mover &gt;</text>
</g>
<!-- Node8&#45;&gt;Node1 -->
<g id="edge8" class="edge"><title>Node8&#45;&gt;Node1</title>
<path fill="none" stroke="#9a32cd" stroke-dasharray="5,2" d="M181.432,-84.2848C155.638,-65.8305 112.249,-34.7879 91.1939,-19.7241"/>
<polygon fill="#9a32cd" stroke="#9a32cd" points="179.587,-87.2683 189.757,-90.2405 183.66,-81.5753 179.587,-87.2683"/>
<text text-anchor="middle" x="197" y="-63.5" font-family="Helvetica,sans-Serif" font-size="10.00"> toBeRemoved</text>
<text text-anchor="middle" x="197" y="-52.5" font-family="Helvetica,sans-Serif" font-size="10.00">toBeAdded</text>
<text text-anchor="middle" x="197" y="-41.5" font-family="Helvetica,sans-Serif" font-size="10.00">allMovers</text>
</g>
</g>
</svg>
