<?xml version="1.0" encoding="UTF-8" standalone="no"?>
<!DOCTYPE svg PUBLIC "-//W3C//DTD SVG 1.1//EN"
 "http://www.w3.org/Graphics/SVG/1.1/DTD/svg11.dtd">
<!-- Generated by graphviz version 2.36.0 (20140111.2315)
 -->
<!-- Title: MoveCellularAutomata Pages: 1 -->
<svg width="265pt" height="342pt"
 viewBox="0.00 0.00 265.00 342.00" xmlns="http://www.w3.org/2000/svg" xmlns:xlink="http://www.w3.org/1999/xlink">
<g id="graph0" class="graph" transform="scale(1 1) rotate(0) translate(4 338)">
<title>MoveCellularAutomata</title>
<polygon fill="white" stroke="none" points="-4,4 -4,-338 261,-338 261,4 -4,4"/>
<!-- Node1 -->
<g id="node1" class="node"><title>Node1</title>
<polygon fill="#bfbfbf" stroke="black" points="16.5,-0.5 16.5,-19.5 141.5,-19.5 141.5,-0.5 16.5,-0.5"/>
<text text-anchor="middle" x="79" y="-7.5" font-family="Helvetica,sans-Serif" font-size="10.00">MoveCellularAutomata</text>
</g>
<!-- Node2 -->
<g id="node2" class="node"><title>Node2</title>
<g id="a_node2"><a xlink:href="../../d2/d40/class_cellular_automata.html" target="_top" xlink:title="CellularAutomata">
<polygon fill="white" stroke="black" points="29,-100.5 29,-119.5 129,-119.5 129,-100.5 29,-100.5"/>
<text text-anchor="middle" x="79" y="-107.5" font-family="Helvetica,sans-Serif" font-size="10.00">CellularAutomata</text>
</a>
</g>
</g>
<!-- Node2&#45;&gt;Node1 -->
<g id="edge1" class="edge"><title>Node2&#45;&gt;Node1</title>
<path fill="none" stroke="midnightblue" d="M79,-90.2203C79,-68.9514 79,-35.2197 79,-19.5374"/>
<polygon fill="midnightblue" stroke="midnightblue" points="75.5001,-90.3031 79,-100.303 82.5001,-90.3032 75.5001,-90.3031"/>
</g>
<!-- Node3 -->
<g id="node3" class="node"><title>Node3</title>
<g id="a_node3"><a xlink:href="../../da/d74/class_grid.html" target="_top" xlink:title="Grid">
<polygon fill="white" stroke="black" points="134,-168.5 134,-187.5 170,-187.5 170,-168.5 134,-168.5"/>
<text text-anchor="middle" x="152" y="-175.5" font-family="Helvetica,sans-Serif" font-size="10.00">Grid</text>
</a>
</g>
</g>
<!-- Node3&#45;&gt;Node2 -->
<g id="edge2" class="edge"><title>Node3&#45;&gt;Node2</title>
<path fill="none" stroke="#9a32cd" stroke-dasharray="5,2" d="M148.468,-158.106C146.384,-151.122 143.111,-143.562 138,-138 130.378,-129.705 119.708,-123.771 109.535,-119.619"/>
<polygon fill="#9a32cd" stroke="#9a32cd" points="145.155,-159.306 150.856,-168.236 151.968,-157.699 145.155,-159.306"/>
<text text-anchor="middle" x="164" y="-141.5" font-family="Helvetica,sans-Serif" font-size="10.00"> myGrid</text>
</g>
<!-- Node4 -->
<g id="node4" class="node"><title>Node4</title>
<polygon fill="white" stroke="#bfbfbf" points="129,-236.5 129,-255.5 175,-255.5 175,-236.5 129,-236.5"/>
<text text-anchor="middle" x="152" y="-243.5" font-family="Helvetica,sans-Serif" font-size="10.00">Group</text>
</g>
<!-- Node4&#45;&gt;Node3 -->
<g id="edge3" class="edge"><title>Node4&#45;&gt;Node3</title>
<path fill="none" stroke="midnightblue" d="M152,-226.041C152,-213.472 152,-197.563 152,-187.841"/>
<polygon fill="midnightblue" stroke="midnightblue" points="148.5,-226.372 152,-236.372 155.5,-226.372 148.5,-226.372"/>
</g>
<!-- Node5 -->
<g id="node5" class="node"><title>Node5</title>
<g id="a_node5"><a xlink:href="../../dd/d11/class_cell.html" target="_top" xlink:title="Cell">
<polygon fill="white" stroke="black" points="53,-236.5 53,-255.5 87,-255.5 87,-236.5 53,-236.5"/>
<text text-anchor="middle" x="70" y="-243.5" font-family="Helvetica,sans-Serif" font-size="10.00">Cell</text>
</a>
</g>
</g>
<!-- Node5&#45;&gt;Node3 -->
<g id="edge4" class="edge"><title>Node5&#45;&gt;Node3</title>
<path fill="none" stroke="#9a32cd" stroke-dasharray="5,2" d="M83.9384,-228.374C90.5189,-221.055 98.7324,-212.632 107,-206 115.67,-199.045 126.297,-192.587 135.046,-187.732"/>
<polygon fill="#9a32cd" stroke="#9a32cd" points="80.9788,-226.444 77.0582,-236.287 86.2611,-231.037 80.9788,-226.444"/>
<text text-anchor="middle" x="127.5" y="-209.5" font-family="Helvetica,sans-Serif" font-size="10.00"> myCells</text>
</g>
<!-- Node6 -->
<g id="node6" class="node"><title>Node6</title>
<polygon fill="white" stroke="#bfbfbf" points="5,-314.5 5,-333.5 45,-333.5 45,-314.5 5,-314.5"/>
<text text-anchor="middle" x="25" y="-321.5" font-family="Helvetica,sans-Serif" font-size="10.00">Paint</text>
</g>
<!-- Node6&#45;&gt;Node1 -->
<g id="edge7" class="edge"><title>Node6&#45;&gt;Node1</title>
<path fill="none" stroke="#9a32cd" stroke-dasharray="5,2" d="M15.6198,-305.266C8.52594,-290.196 0,-267.766 0,-247 0,-247 0,-247 0,-109 0,-68.1337 42.1532,-34.6792 64.8764,-19.614"/>
<polygon fill="#9a32cd" stroke="#9a32cd" points="12.5854,-307.024 20.1797,-314.411 18.8499,-303.9 12.5854,-307.024"/>
<text text-anchor="middle" x="17" y="-175.5" font-family="Helvetica,sans-Serif" font-size="10.00"> empty</text>
</g>
<!-- Node6&#45;&gt;Node5 -->
<g id="edge5" class="edge"><title>Node6&#45;&gt;Node5</title>
<path fill="none" stroke="#9a32cd" stroke-dasharray="5,2" d="M35.3231,-305.565C44.5699,-289.949 57.7433,-267.7 64.8981,-255.616"/>
<polygon fill="#9a32cd" stroke="#9a32cd" points="32.2454,-303.894 30.1621,-314.282 38.2687,-307.46 32.2454,-303.894"/>
<text text-anchor="middle" x="83" y="-288" font-family="Helvetica,sans-Serif" font-size="10.00"> nextColor</text>
<text text-anchor="middle" x="83" y="-277" font-family="Helvetica,sans-Serif" font-size="10.00">currentColor</text>
</g>
<!-- Node7 -->
<g id="node7" class="node"><title>Node7</title>
<polygon fill="white" stroke="#bfbfbf" points="52,-168.5 52,-187.5 108,-187.5 108,-168.5 52,-168.5"/>
<text text-anchor="middle" x="80" y="-175.5" font-family="Helvetica,sans-Serif" font-size="10.00">Random</text>
</g>
<!-- Node7&#45;&gt;Node2 -->
<g id="edge6" class="edge"><title>Node7&#45;&gt;Node2</title>
<path fill="none" stroke="#9a32cd" stroke-dasharray="5,2" d="M79.7127,-158.041C79.5223,-145.472 79.2813,-129.563 79.134,-119.841"/>
<polygon fill="#9a32cd" stroke="#9a32cd" points="76.2181,-158.426 79.8693,-168.372 83.2173,-158.32 76.2181,-158.426"/>
<text text-anchor="middle" x="109" y="-141.5" font-family="Helvetica,sans-Serif" font-size="10.00"> myRandom</text>
</g>
<!-- Node8 -->
<g id="node8" class="node"><title>Node8</title>
<polygon fill="white" stroke="#bfbfbf" points="147,-100.5 147,-119.5 257,-119.5 257,-100.5 147,-100.5"/>
<text text-anchor="middle" x="202" y="-107.5" font-family="Helvetica,sans-Serif" font-size="10.00">ArrayList&lt; Mover &gt;</text>
</g>
<!-- Node8&#45;&gt;Node1 -->
<g id="edge8" class="edge"><title>Node8&#45;&gt;Node1</title>
<path fill="none" stroke="#9a32cd" stroke-dasharray="5,2" d="M183.051,-93.9021C156.889,-73.0577 110.577,-36.1591 89.7153,-19.5374"/>
<polygon fill="#9a32cd" stroke="#9a32cd" points="181.082,-96.8091 191.085,-100.303 185.444,-91.3343 181.082,-96.8091"/>
<text text-anchor="middle" x="200" y="-74" font-family="Helvetica,sans-Serif" font-size="10.00"> toBeRemoved</text>
<text text-anchor="middle" x="200" y="-63" font-family="Helvetica,sans-Serif" font-size="10.00">toBeAdded</text>
<text text-anchor="middle" x="200" y="-52" font-family="Helvetica,sans-Serif" font-size="10.00">allMovers</text>
<text text-anchor="middle" x="200" y="-41" font-family="Helvetica,sans-Serif" font-size="10.00">alreadyMoved</text>
</g>
</g>
</svg>
