<?xml version="1.0" encoding="UTF-8" standalone="no"?>
<!DOCTYPE svg PUBLIC "-//W3C//DTD SVG 1.1//EN"
 "http://www.w3.org/Graphics/SVG/1.1/DTD/svg11.dtd">
<!-- Generated by graphviz version 2.36.0 (20140111.2315)
 -->
<!-- Title: Graphical Class Hierarchy Pages: 1 -->
<svg width="220pt" height="142pt"
 viewBox="0.00 0.00 220.00 142.00" xmlns="http://www.w3.org/2000/svg" xmlns:xlink="http://www.w3.org/1999/xlink">
<g id="graph0" class="graph" transform="scale(1 1) rotate(0) translate(4 138)">
<title>Graphical Class Hierarchy</title>
<polygon fill="white" stroke="none" points="-4,4 -4,-138 216,-138 216,4 -4,4"/>
<!-- Node1 -->
<g id="node1" class="node"><title>Node1</title>
<g id="a_node1"><a xlink:href="d2/d40/class_cellular_automata.html" target="_top" xlink:title="CellularAutomata">
<polygon fill="white" stroke="black" points="0,-57.5 0,-76.5 100,-76.5 100,-57.5 0,-57.5"/>
<text text-anchor="middle" x="50" y="-64.5" font-family="Helvetica,sans-Serif" font-size="10.00">CellularAutomata</text>
</a>
</g>
</g>
<!-- Node2 -->
<g id="node2" class="node"><title>Node2</title>
<g id="a_node2"><a xlink:href="d9/df1/class_fire.html" target="_top" xlink:title="Fire">
<polygon fill="white" stroke="black" points="157.5,-114.5 157.5,-133.5 190.5,-133.5 190.5,-114.5 157.5,-114.5"/>
<text text-anchor="middle" x="174" y="-121.5" font-family="Helvetica,sans-Serif" font-size="10.00">Fire</text>
</a>
</g>
</g>
<!-- Node1&#45;&gt;Node2 -->
<g id="edge1" class="edge"><title>Node1&#45;&gt;Node2</title>
<path fill="none" stroke="midnightblue" d="M80.496,-80.7809C104.624,-92.0539 137.816,-107.562 157.182,-116.609"/>
<polygon fill="midnightblue" stroke="midnightblue" points="81.9615,-77.6025 71.4201,-76.5405 78.9985,-83.9445 81.9615,-77.6025"/>
</g>
<!-- Node3 -->
<g id="node3" class="node"><title>Node3</title>
<g id="a_node3"><a xlink:href="d8/d84/class_game_of_life.html" target="_top" xlink:title="GameOfLife">
<polygon fill="white" stroke="black" points="137.5,-76.5 137.5,-95.5 210.5,-95.5 210.5,-76.5 137.5,-76.5"/>
<text text-anchor="middle" x="174" y="-83.5" font-family="Helvetica,sans-Serif" font-size="10.00">GameOfLife</text>
</a>
</g>
</g>
<!-- Node1&#45;&gt;Node3 -->
<g id="edge2" class="edge"><title>Node1&#45;&gt;Node3</title>
<path fill="none" stroke="midnightblue" d="M110.28,-76.2321C119.561,-77.6776 128.896,-79.1313 137.423,-80.4593"/>
<polygon fill="midnightblue" stroke="midnightblue" points="110.69,-72.7539 100.27,-74.6733 109.613,-79.6705 110.69,-72.7539"/>
</g>
<!-- Node4 -->
<g id="node4" class="node"><title>Node4</title>
<g id="a_node4"><a xlink:href="da/d1e/class_segregation.html" target="_top" xlink:title="Segregation">
<polygon fill="white" stroke="black" points="136.5,-38.5 136.5,-57.5 211.5,-57.5 211.5,-38.5 136.5,-38.5"/>
<text text-anchor="middle" x="174" y="-45.5" font-family="Helvetica,sans-Serif" font-size="10.00">Segregation</text>
</a>
</g>
</g>
<!-- Node1&#45;&gt;Node4 -->
<g id="edge3" class="edge"><title>Node1&#45;&gt;Node4</title>
<path fill="none" stroke="midnightblue" d="M110.245,-57.7733C119.135,-56.3888 128.074,-54.9967 136.307,-53.7145"/>
<polygon fill="midnightblue" stroke="midnightblue" points="109.613,-54.3295 100.27,-59.3267 110.69,-61.2461 109.613,-54.3295"/>
</g>
<!-- Node5 -->
<g id="node5" class="node"><title>Node5</title>
<g id="a_node5"><a xlink:href="d0/db0/class_wator.html" target="_top" xlink:title="Wator">
<polygon fill="white" stroke="black" points="152,-0.5 152,-19.5 196,-19.5 196,-0.5 152,-0.5"/>
<text text-anchor="middle" x="174" y="-7.5" font-family="Helvetica,sans-Serif" font-size="10.00">Wator</text>
</a>
</g>
</g>
<!-- Node1&#45;&gt;Node5 -->
<g id="edge4" class="edge"><title>Node1&#45;&gt;Node5</title>
<path fill="none" stroke="midnightblue" d="M80.7446,-53.1029C103.004,-42.7028 132.873,-28.748 152.513,-19.5716"/>
<polygon fill="midnightblue" stroke="midnightblue" points="78.9985,-50.0555 71.4201,-57.4595 81.9615,-56.3975 78.9985,-50.0555"/>
</g>
</g>
</svg>
