<?xml version="1.0" encoding="UTF-8" standalone="no"?>
<!DOCTYPE svg PUBLIC "-//W3C//DTD SVG 1.1//EN"
 "http://www.w3.org/Graphics/SVG/1.1/DTD/svg11.dtd">
<!-- Generated by graphviz version 2.36.0 (20140111.2315)
 -->
<!-- Title: Graphical Class Hierarchy Pages: 1 -->
<svg width="382pt" height="123pt"
 viewBox="0.00 0.00 382.00 123.00" xmlns="http://www.w3.org/2000/svg" xmlns:xlink="http://www.w3.org/1999/xlink">
<g id="graph0" class="graph" transform="scale(1 1) rotate(0) translate(4 119)">
<title>Graphical Class Hierarchy</title>
<polygon fill="white" stroke="none" points="-4,4 -4,-119 378,-119 378,4 -4,4"/>
<!-- Node1 -->
<g id="node1" class="node"><title>Node1</title>
<g id="a_node1"><a xlink:href="d2/d40/class_cellular_automata.html" target="_top" xlink:title="CellularAutomata">
<polygon fill="white" stroke="black" points="0,-57.5 0,-76.5 100,-76.5 100,-57.5 0,-57.5"/>
<text text-anchor="middle" x="50" y="-64.5" font-family="Helvetica,sans-Serif" font-size="10.00">CellularAutomata</text>
</a>
</g>
</g>
<!-- Node2 -->
<g id="node2" class="node"><title>Node2</title>
<g id="a_node2"><a xlink:href="d9/df1/class_fire.html" target="_top" xlink:title="Fire">
<polygon fill="white" stroke="black" points="182.5,-95.5 182.5,-114.5 215.5,-114.5 215.5,-95.5 182.5,-95.5"/>
<text text-anchor="middle" x="199" y="-102.5" font-family="Helvetica,sans-Serif" font-size="10.00">Fire</text>
</a>
</g>
</g>
<!-- Node1&#45;&gt;Node2 -->
<g id="edge1" class="edge"><title>Node1&#45;&gt;Node2</title>
<path fill="none" stroke="midnightblue" d="M98.065,-79.1665C127.104,-86.6731 162.494,-95.8216 182.416,-100.972"/>
<polygon fill="midnightblue" stroke="midnightblue" points="98.652,-75.7032 88.0943,-76.589 96.9001,-82.4805 98.652,-75.7032"/>
</g>
<!-- Node3 -->
<g id="node3" class="node"><title>Node3</title>
<g id="a_node3"><a xlink:href="d8/d84/class_game_of_life.html" target="_top" xlink:title="GameOfLife">
<polygon fill="white" stroke="black" points="162.5,-57.5 162.5,-76.5 235.5,-76.5 235.5,-57.5 162.5,-57.5"/>
<text text-anchor="middle" x="199" y="-64.5" font-family="Helvetica,sans-Serif" font-size="10.00">GameOfLife</text>
</a>
</g>
</g>
<!-- Node1&#45;&gt;Node3 -->
<g id="edge2" class="edge"><title>Node1&#45;&gt;Node3</title>
<path fill="none" stroke="midnightblue" d="M110.567,-67C128.178,-67 146.897,-67 162.477,-67"/>
<polygon fill="midnightblue" stroke="midnightblue" points="110.358,-63.5001 100.358,-67 110.358,-70.5001 110.358,-63.5001"/>
</g>
<!-- Node4 -->
<g id="node4" class="node"><title>Node4</title>
<g id="a_node4"><a xlink:href="da/de8/class_move_cellular_automata.html" target="_top" xlink:title="MoveCellularAutomata">
<polygon fill="white" stroke="black" points="136.5,-19.5 136.5,-38.5 261.5,-38.5 261.5,-19.5 136.5,-19.5"/>
<text text-anchor="middle" x="199" y="-26.5" font-family="Helvetica,sans-Serif" font-size="10.00">MoveCellularAutomata</text>
</a>
</g>
</g>
<!-- Node1&#45;&gt;Node4 -->
<g id="edge3" class="edge"><title>Node1&#45;&gt;Node4</title>
<path fill="none" stroke="midnightblue" d="M97.8548,-54.8879C118.328,-49.5956 141.99,-43.4787 161.172,-38.5201"/>
<polygon fill="midnightblue" stroke="midnightblue" points="96.9001,-51.5195 88.0943,-57.411 98.652,-58.2968 96.9001,-51.5195"/>
</g>
<!-- Node5 -->
<g id="node5" class="node"><title>Node5</title>
<g id="a_node5"><a xlink:href="da/d1e/class_segregation.html" target="_top" xlink:title="Segregation">
<polygon fill="white" stroke="black" points="298.5,-38.5 298.5,-57.5 373.5,-57.5 373.5,-38.5 298.5,-38.5"/>
<text text-anchor="middle" x="336" y="-45.5" font-family="Helvetica,sans-Serif" font-size="10.00">Segregation</text>
</a>
</g>
</g>
<!-- Node4&#45;&gt;Node5 -->
<g id="edge4" class="edge"><title>Node4&#45;&gt;Node5</title>
<path fill="none" stroke="midnightblue" d="M271.574,-39.0734C280.783,-40.3695 289.891,-41.6513 298.208,-42.8219"/>
<polygon fill="midnightblue" stroke="midnightblue" points="271.964,-35.5939 261.574,-37.666 270.989,-42.5256 271.964,-35.5939"/>
</g>
<!-- Node6 -->
<g id="node6" class="node"><title>Node6</title>
<g id="a_node6"><a xlink:href="d0/db0/class_wator.html" target="_top" xlink:title="Wator">
<polygon fill="white" stroke="black" points="314,-0.5 314,-19.5 358,-19.5 358,-0.5 314,-0.5"/>
<text text-anchor="middle" x="336" y="-7.5" font-family="Helvetica,sans-Serif" font-size="10.00">Wator</text>
</a>
</g>
</g>
<!-- Node4&#45;&gt;Node6 -->
<g id="edge5" class="edge"><title>Node4&#45;&gt;Node6</title>
<path fill="none" stroke="midnightblue" d="M271.721,-18.9059C287.15,-16.7345 302.283,-14.6047 313.88,-12.9725"/>
<polygon fill="midnightblue" stroke="midnightblue" points="270.989,-15.4744 261.574,-20.334 271.964,-22.4061 270.989,-15.4744"/>
</g>
</g>
</svg>
