<?xml version="1.0" encoding="UTF-8" standalone="no"?>
<!DOCTYPE svg PUBLIC "-//W3C//DTD SVG 1.1//EN"
 "http://www.w3.org/Graphics/SVG/1.1/DTD/svg11.dtd">
<!-- Generated by graphviz version 2.36.0 (20140111.2315)
 -->
<!-- Title: MoveCellularAutomata Pages: 1 -->
<svg width="145pt" height="140pt"
 viewBox="0.00 0.00 145.00 140.00" xmlns="http://www.w3.org/2000/svg" xmlns:xlink="http://www.w3.org/1999/xlink">
<g id="graph0" class="graph" transform="scale(1 1) rotate(0) translate(4 136)">
<title>MoveCellularAutomata</title>
<polygon fill="white" stroke="none" points="-4,4 -4,-136 141,-136 141,4 -4,4"/>
<!-- Node1 -->
<g id="node1" class="node"><title>Node1</title>
<polygon fill="#bfbfbf" stroke="black" points="12.5,-56.5 12.5,-75.5 137.5,-75.5 137.5,-56.5 12.5,-56.5"/>
<text text-anchor="middle" x="75" y="-63.5" font-family="Helvetica,sans-Serif" font-size="10.00">MoveCellularAutomata</text>
</g>
<!-- Node3 -->
<g id="node3" class="node"><title>Node3</title>
<g id="a_node3"><a xlink:href="../../da/d1e/class_segregation.html" target="_top" xlink:title="Segregation">
<polygon fill="white" stroke="black" points="-0.5,-0.5 -0.5,-19.5 74.5,-19.5 74.5,-0.5 -0.5,-0.5"/>
<text text-anchor="middle" x="37" y="-7.5" font-family="Helvetica,sans-Serif" font-size="10.00">Segregation</text>
</a>
</g>
</g>
<!-- Node1&#45;&gt;Node3 -->
<g id="edge2" class="edge"><title>Node1&#45;&gt;Node3</title>
<path fill="none" stroke="midnightblue" d="M62.9353,-47.8554C56.3553,-38.5048 48.489,-27.3265 43.1582,-19.7511"/>
<polygon fill="midnightblue" stroke="midnightblue" points="60.1078,-49.9192 68.7251,-56.083 65.8324,-45.8907 60.1078,-49.9192"/>
</g>
<!-- Node4 -->
<g id="node4" class="node"><title>Node4</title>
<g id="a_node4"><a xlink:href="../../d0/db0/class_wator.html" target="_top" xlink:title="Wator">
<polygon fill="white" stroke="black" points="92,-0.5 92,-19.5 136,-19.5 136,-0.5 92,-0.5"/>
<text text-anchor="middle" x="114" y="-7.5" font-family="Helvetica,sans-Serif" font-size="10.00">Wator</text>
</a>
</g>
</g>
<!-- Node1&#45;&gt;Node4 -->
<g id="edge3" class="edge"><title>Node1&#45;&gt;Node4</title>
<path fill="none" stroke="midnightblue" d="M87.3822,-47.8554C94.1354,-38.5048 102.209,-27.3265 107.68,-19.7511"/>
<polygon fill="midnightblue" stroke="midnightblue" points="84.4576,-45.927 81.4401,-56.083 90.1324,-50.0254 84.4576,-45.927"/>
</g>
<!-- Node2 -->
<g id="node2" class="node"><title>Node2</title>
<g id="a_node2"><a xlink:href="../../d2/d40/class_cellular_automata.html" target="_top" xlink:title="CellularAutomata">
<polygon fill="white" stroke="black" points="25,-112.5 25,-131.5 125,-131.5 125,-112.5 25,-112.5"/>
<text text-anchor="middle" x="75" y="-119.5" font-family="Helvetica,sans-Serif" font-size="10.00">CellularAutomata</text>
</a>
</g>
</g>
<!-- Node2&#45;&gt;Node1 -->
<g id="edge1" class="edge"><title>Node2&#45;&gt;Node1</title>
<path fill="none" stroke="midnightblue" d="M75,-101.805C75,-92.9102 75,-82.7798 75,-75.7511"/>
<polygon fill="midnightblue" stroke="midnightblue" points="71.5001,-102.083 75,-112.083 78.5001,-102.083 71.5001,-102.083"/>
</g>
</g>
</svg>
