<?xml version="1.0" encoding="UTF-8" standalone="no"?>
<!DOCTYPE svg PUBLIC "-//W3C//DTD SVG 1.1//EN"
 "http://www.w3.org/Graphics/SVG/1.1/DTD/svg11.dtd">
<!-- Generated by graphviz version 2.36.0 (20140111.2315)
 -->
<!-- Title: CellularAutomata Pages: 1 -->
<svg width="311pt" height="232pt"
 viewBox="0.00 0.00 311.00 232.00" xmlns="http://www.w3.org/2000/svg" xmlns:xlink="http://www.w3.org/1999/xlink">
<g id="graph0" class="graph" transform="scale(1 1) rotate(0) translate(4 228)">
<title>CellularAutomata</title>
<polygon fill="white" stroke="none" points="-4,4 -4,-228 307,-228 307,4 -4,4"/>
<!-- Node1 -->
<g id="node1" class="node"><title>Node1</title>
<polygon fill="#bfbfbf" stroke="black" points="79,-0.5 79,-19.5 179,-19.5 179,-0.5 79,-0.5"/>
<text text-anchor="middle" x="129" y="-7.5" font-family="Helvetica,sans-Serif" font-size="10.00">CellularAutomata</text>
</g>
<!-- Node2 -->
<g id="node2" class="node"><title>Node2</title>
<polygon fill="white" stroke="#bfbfbf" points="0,-68.5 0,-87.5 56,-87.5 56,-68.5 0,-68.5"/>
<text text-anchor="middle" x="28" y="-75.5" font-family="Helvetica,sans-Serif" font-size="10.00">Timeline</text>
</g>
<!-- Node2&#45;&gt;Node1 -->
<g id="edge1" class="edge"><title>Node2&#45;&gt;Node1</title>
<path fill="none" stroke="#9a32cd" stroke-dasharray="5,2" d="M32.484,-58.5014C35.0728,-51.2504 39.0381,-43.3933 45,-38 54.4286,-29.4707 66.5732,-23.6339 78.6816,-19.6403"/>
<polygon fill="#9a32cd" stroke="#9a32cd" points="29.0562,-57.753 29.6038,-68.3336 35.7739,-59.7209 29.0562,-57.753"/>
<text text-anchor="middle" x="71" y="-41.5" font-family="Helvetica,sans-Serif" font-size="10.00"> animation</text>
</g>
<!-- Node3 -->
<g id="node3" class="node"><title>Node3</title>
<g id="a_node3"><a xlink:href="../../da/d74/class_grid.html" target="_top" xlink:title="Grid">
<polygon fill="white" stroke="black" points="80,-68.5 80,-87.5 116,-87.5 116,-68.5 80,-68.5"/>
<text text-anchor="middle" x="98" y="-75.5" font-family="Helvetica,sans-Serif" font-size="10.00">Grid</text>
</a>
</g>
</g>
<!-- Node3&#45;&gt;Node1 -->
<g id="edge2" class="edge"><title>Node3&#45;&gt;Node1</title>
<path fill="none" stroke="#9a32cd" stroke-dasharray="5,2" d="M98.6521,-58.0637C99.4564,-51.4604 101.023,-44.1652 104,-38 107.389,-30.9815 113.225,-24.5205 118.407,-19.6796"/>
<polygon fill="#9a32cd" stroke="#9a32cd" points="95.1495,-57.9714 97.9043,-68.2018 102.131,-58.4864 95.1495,-57.9714"/>
<text text-anchor="middle" x="123" y="-41.5" font-family="Helvetica,sans-Serif" font-size="10.00"> myGrid</text>
</g>
<!-- Node4 -->
<g id="node4" class="node"><title>Node4</title>
<polygon fill="white" stroke="#bfbfbf" points="68.5,-136.5 68.5,-155.5 127.5,-155.5 127.5,-136.5 68.5,-136.5"/>
<text text-anchor="middle" x="98" y="-143.5" font-family="Helvetica,sans-Serif" font-size="10.00">GridPane</text>
</g>
<!-- Node4&#45;&gt;Node3 -->
<g id="edge3" class="edge"><title>Node4&#45;&gt;Node3</title>
<path fill="none" stroke="midnightblue" d="M98,-126.041C98,-113.472 98,-97.5631 98,-87.8411"/>
<polygon fill="midnightblue" stroke="midnightblue" points="94.5001,-126.372 98,-136.372 101.5,-126.372 94.5001,-126.372"/>
</g>
<!-- Node5 -->
<g id="node5" class="node"><title>Node5</title>
<g id="a_node5"><a xlink:href="../../dd/d11/class_cell.html" target="_top" xlink:title="Cell">
<polygon fill="white" stroke="black" points="16,-136.5 16,-155.5 50,-155.5 50,-136.5 16,-136.5"/>
<text text-anchor="middle" x="33" y="-143.5" font-family="Helvetica,sans-Serif" font-size="10.00">Cell</text>
</a>
</g>
</g>
<!-- Node5&#45;&gt;Node3 -->
<g id="edge4" class="edge"><title>Node5&#45;&gt;Node3</title>
<path fill="none" stroke="#9a32cd" stroke-dasharray="5,2" d="M39.7405,-126.885C42.9899,-119.807 47.4116,-111.973 53,-106 60.4693,-98.0162 70.8238,-91.5846 79.7175,-87.0042"/>
<polygon fill="#9a32cd" stroke="#9a32cd" points="36.3895,-125.831 35.8191,-136.411 42.8624,-128.496 36.3895,-125.831"/>
<text text-anchor="middle" x="73.5" y="-109.5" font-family="Helvetica,sans-Serif" font-size="10.00"> myCells</text>
</g>
<!-- Node6 -->
<g id="node6" class="node"><title>Node6</title>
<polygon fill="white" stroke="#bfbfbf" points="95,-204.5 95,-223.5 141,-223.5 141,-204.5 95,-204.5"/>
<text text-anchor="middle" x="118" y="-211.5" font-family="Helvetica,sans-Serif" font-size="10.00">Group</text>
</g>
<!-- Node6&#45;&gt;Node1 -->
<g id="edge8" class="edge"><title>Node6&#45;&gt;Node1</title>
<path fill="none" stroke="#9a32cd" stroke-dasharray="5,2" d="M124.991,-194.899C128.941,-183.838 133.562,-169.305 136,-156 145.464,-104.348 153.683,-89.196 142,-38 140.518,-31.5077 137.268,-24.7577 134.389,-19.6307"/>
<polygon fill="#9a32cd" stroke="#9a32cd" points="121.705,-193.694 121.503,-204.287 128.267,-196.132 121.705,-193.694"/>
<text text-anchor="middle" x="166" y="-109.5" font-family="Helvetica,sans-Serif" font-size="10.00"> myRoot</text>
</g>
<!-- Node6&#45;&gt;Node5 -->
<g id="edge5" class="edge"><title>Node6&#45;&gt;Node5</title>
<path fill="none" stroke="midnightblue" d="M99.9931,-198C91.0605,-190.655 80.056,-181.746 70,-174 61.8103,-167.692 52.3969,-160.828 45.1146,-155.599"/>
<polygon fill="midnightblue" stroke="midnightblue" points="97.8868,-200.8 107.824,-204.475 102.347,-195.406 97.8868,-200.8"/>
</g>
<!-- Node7 -->
<g id="node7" class="node"><title>Node7</title>
<polygon fill="white" stroke="#bfbfbf" points="9.5,-204.5 9.5,-223.5 56.5,-223.5 56.5,-204.5 9.5,-204.5"/>
<text text-anchor="middle" x="33" y="-211.5" font-family="Helvetica,sans-Serif" font-size="10.00">Shape</text>
</g>
<!-- Node7&#45;&gt;Node5 -->
<g id="edge6" class="edge"><title>Node7&#45;&gt;Node5</title>
<path fill="none" stroke="#9a32cd" stroke-dasharray="5,2" d="M33,-194.041C33,-181.472 33,-165.563 33,-155.841"/>
<polygon fill="#9a32cd" stroke="#9a32cd" points="29.5001,-194.372 33,-204.372 36.5001,-194.372 29.5001,-194.372"/>
<text text-anchor="middle" x="49.5" y="-177.5" font-family="Helvetica,sans-Serif" font-size="10.00"> shape</text>
</g>
<!-- Node8 -->
<g id="node8" class="node"><title>Node8</title>
<polygon fill="white" stroke="#bfbfbf" points="184,-68.5 184,-87.5 304,-87.5 304,-68.5 184,-68.5"/>
<text text-anchor="middle" x="244" y="-75.5" font-family="Helvetica,sans-Serif" font-size="10.00">Map&lt; String, State &gt;</text>
</g>
<!-- Node8&#45;&gt;Node1 -->
<g id="edge7" class="edge"><title>Node8&#45;&gt;Node1</title>
<path fill="none" stroke="#9a32cd" stroke-dasharray="5,2" d="M220.199,-63.3401C197.309,-50.2036 163.411,-30.7487 144.038,-19.6305"/>
<polygon fill="#9a32cd" stroke="#9a32cd" points="218.55,-66.4296 228.966,-68.3717 222.035,-60.3584 218.55,-66.4296"/>
<text text-anchor="middle" x="222" y="-41.5" font-family="Helvetica,sans-Serif" font-size="10.00"> myStates</text>
</g>
</g>
</svg>
