<?xml version="1.0" encoding="UTF-8" standalone="no"?>
<!DOCTYPE svg PUBLIC "-//W3C//DTD SVG 1.1//EN"
 "http://www.w3.org/Graphics/SVG/1.1/DTD/svg11.dtd">
<!-- Generated by graphviz version 2.36.0 (20140111.2315)
 -->
<!-- Title: CellularAutomata Pages: 1 -->
<svg width="157pt" height="242pt"
 viewBox="0.00 0.00 157.00 242.00" xmlns="http://www.w3.org/2000/svg" xmlns:xlink="http://www.w3.org/1999/xlink">
<g id="graph0" class="graph" transform="scale(1 1) rotate(0) translate(4 238)">
<title>CellularAutomata</title>
<polygon fill="white" stroke="none" points="-4,4 -4,-238 153,-238 153,4 -4,4"/>
<!-- Node1 -->
<g id="node1" class="node"><title>Node1</title>
<polygon fill="#bfbfbf" stroke="black" points="22,-0.5 22,-19.5 122,-19.5 122,-0.5 22,-0.5"/>
<text text-anchor="middle" x="72" y="-7.5" font-family="Helvetica,sans-Serif" font-size="10.00">CellularAutomata</text>
</g>
<!-- Node2 -->
<g id="node2" class="node"><title>Node2</title>
<g id="a_node2"><a xlink:href="../../da/d74/class_grid.html" target="_top" xlink:title="Grid">
<polygon fill="white" stroke="black" points="21,-68.5 21,-87.5 57,-87.5 57,-68.5 21,-68.5"/>
<text text-anchor="middle" x="39" y="-75.5" font-family="Helvetica,sans-Serif" font-size="10.00">Grid</text>
</a>
</g>
</g>
<!-- Node2&#45;&gt;Node1 -->
<g id="edge1" class="edge"><title>Node2&#45;&gt;Node1</title>
<path fill="none" stroke="#9a32cd" stroke-dasharray="5,2" d="M38.2532,-58.2338C38.6639,-51.5555 39.9313,-44.1681 43,-38 46.6769,-30.6093 53.2788,-24.2148 59.2556,-19.5064"/>
<polygon fill="#9a32cd" stroke="#9a32cd" points="34.7522,-58.4461 38.2038,-68.4629 41.7521,-58.4799 34.7522,-58.4461"/>
<text text-anchor="middle" x="62" y="-41.5" font-family="Helvetica,sans-Serif" font-size="10.00"> myGrid</text>
</g>
<!-- Node3 -->
<g id="node3" class="node"><title>Node3</title>
<polygon fill="white" stroke="#bfbfbf" points="0,-136.5 0,-155.5 46,-155.5 46,-136.5 0,-136.5"/>
<text text-anchor="middle" x="23" y="-143.5" font-family="Helvetica,sans-Serif" font-size="10.00">Group</text>
</g>
<!-- Node3&#45;&gt;Node2 -->
<g id="edge2" class="edge"><title>Node3&#45;&gt;Node2</title>
<path fill="none" stroke="midnightblue" d="M27.503,-126.425C30.5642,-113.798 34.4758,-97.6623 36.8567,-87.8411"/>
<polygon fill="midnightblue" stroke="midnightblue" points="24.0463,-125.829 25.0917,-136.372 30.8493,-127.478 24.0463,-125.829"/>
</g>
<!-- Node4 -->
<g id="node4" class="node"><title>Node4</title>
<g id="a_node4"><a xlink:href="../../dd/d11/class_cell.html" target="_top" xlink:title="Cell">
<polygon fill="white" stroke="black" points="64,-136.5 64,-155.5 98,-155.5 98,-136.5 64,-136.5"/>
<text text-anchor="middle" x="81" y="-143.5" font-family="Helvetica,sans-Serif" font-size="10.00">Cell</text>
</a>
</g>
</g>
<!-- Node4&#45;&gt;Node2 -->
<g id="edge3" class="edge"><title>Node4&#45;&gt;Node2</title>
<path fill="none" stroke="#9a32cd" stroke-dasharray="5,2" d="M69.9037,-127.563C61.77,-114.781 51.0654,-97.9599 44.6262,-87.8411"/>
<polygon fill="#9a32cd" stroke="#9a32cd" points="67.1876,-129.814 75.5092,-136.372 73.0933,-126.056 67.1876,-129.814"/>
<text text-anchor="middle" x="84.5" y="-109.5" font-family="Helvetica,sans-Serif" font-size="10.00"> myCells</text>
</g>
<!-- Node5 -->
<g id="node5" class="node"><title>Node5</title>
<polygon fill="white" stroke="#bfbfbf" points="61,-214.5 61,-233.5 101,-233.5 101,-214.5 61,-214.5"/>
<text text-anchor="middle" x="81" y="-221.5" font-family="Helvetica,sans-Serif" font-size="10.00">Paint</text>
</g>
<!-- Node5&#45;&gt;Node4 -->
<g id="edge4" class="edge"><title>Node5&#45;&gt;Node4</title>
<path fill="none" stroke="#9a32cd" stroke-dasharray="5,2" d="M81,-204.224C81,-188.697 81,-167.358 81,-155.616"/>
<polygon fill="#9a32cd" stroke="#9a32cd" points="77.5001,-204.282 81,-214.282 84.5001,-204.282 77.5001,-204.282"/>
<text text-anchor="middle" x="111" y="-188" font-family="Helvetica,sans-Serif" font-size="10.00"> nextColor</text>
<text text-anchor="middle" x="111" y="-177" font-family="Helvetica,sans-Serif" font-size="10.00">currentColor</text>
</g>
<!-- Node6 -->
<g id="node6" class="node"><title>Node6</title>
<polygon fill="white" stroke="#bfbfbf" points="75,-68.5 75,-87.5 131,-87.5 131,-68.5 75,-68.5"/>
<text text-anchor="middle" x="103" y="-75.5" font-family="Helvetica,sans-Serif" font-size="10.00">Random</text>
</g>
<!-- Node6&#45;&gt;Node1 -->
<g id="edge5" class="edge"><title>Node6&#45;&gt;Node1</title>
<path fill="none" stroke="#9a32cd" stroke-dasharray="5,2" d="M94.6328,-59.1859C88.6518,-46.4523 80.8588,-29.8607 76.1526,-19.8411"/>
<polygon fill="#9a32cd" stroke="#9a32cd" points="91.5279,-60.8083 98.9473,-68.3717 97.8638,-57.8324 91.5279,-60.8083"/>
<text text-anchor="middle" x="120" y="-41.5" font-family="Helvetica,sans-Serif" font-size="10.00"> myRandom</text>
</g>
</g>
</svg>
