<?xml version="1.0" encoding="UTF-8" standalone="no"?>
<!DOCTYPE svg PUBLIC "-//W3C//DTD SVG 1.1//EN"
 "http://www.w3.org/Graphics/SVG/1.1/DTD/svg11.dtd">
<!-- Generated by graphviz version 2.36.0 (20140111.2315)
 -->
<!-- Title: Wator.ruleTwo Pages: 1 -->
<svg width="612pt" height="507pt"
 viewBox="0.00 0.00 612.00 507.00" xmlns="http://www.w3.org/2000/svg" xmlns:xlink="http://www.w3.org/1999/xlink">
<g id="graph0" class="graph" transform="scale(1 1) rotate(0) translate(4 503)">
<title>Wator.ruleTwo</title>
<polygon fill="white" stroke="none" points="-4,4 -4,-503 608,-503 608,4 -4,4"/>
<!-- Node1 -->
<g id="node1" class="node"><title>Node1</title>
<polygon fill="#bfbfbf" stroke="black" points="0,-202.5 0,-221.5 80,-221.5 80,-202.5 0,-202.5"/>
<text text-anchor="middle" x="40" y="-209.5" font-family="Helvetica,sans-Serif" font-size="10.00">Wator.ruleTwo</text>
</g>
<!-- Node2 -->
<g id="node2" class="node"><title>Node2</title>
<g id="a_node2"><a xlink:href="../../d0/db0/class_wator.html#a48bebe2ccefc55d2e433578eb0c22684" target="_top" xlink:title="Wator.breedIfCan">
<polygon fill="white" stroke="black" points="150,-392.5 150,-411.5 248,-411.5 248,-392.5 150,-392.5"/>
<text text-anchor="middle" x="199" y="-399.5" font-family="Helvetica,sans-Serif" font-size="10.00">Wator.breedIfCan</text>
</a>
</g>
</g>
<!-- Node1&#45;&gt;Node2 -->
<g id="edge1" class="edge"><title>Node1&#45;&gt;Node2</title>
<path fill="none" stroke="midnightblue" d="M42.4694,-221.526C47.3451,-249.84 65.6402,-334.223 116,-378 122.988,-384.075 131.444,-388.614 140.236,-392.005"/>
<polygon fill="midnightblue" stroke="midnightblue" points="139.26,-395.37 149.854,-395.253 141.499,-388.738 139.26,-395.37"/>
</g>
<!-- Node8 -->
<g id="node8" class="node"><title>Node8</title>
<g id="a_node8"><a xlink:href="../../dc/d06/class_mover.html#adf476a60dad6e0feb9bedb3f6af313b5" target="_top" xlink:title="Mover.getCell">
<polygon fill="white" stroke="black" points="350.5,-354.5 350.5,-373.5 431.5,-373.5 431.5,-354.5 350.5,-354.5"/>
<text text-anchor="middle" x="391" y="-361.5" font-family="Helvetica,sans-Serif" font-size="10.00">Mover.getCell</text>
</a>
</g>
</g>
<!-- Node1&#45;&gt;Node8 -->
<g id="edge16" class="edge"><title>Node1&#45;&gt;Node8</title>
<path fill="none" stroke="midnightblue" d="M43.0921,-221.532C49.2026,-246.825 69.6048,-315.7 116,-345 184.08,-387.995 281.562,-382.536 340.037,-373.839"/>
<polygon fill="midnightblue" stroke="midnightblue" points="340.8,-377.262 350.133,-372.247 339.71,-370.347 340.8,-377.262"/>
</g>
<!-- Node9 -->
<g id="node9" class="node"><title>Node9</title>
<g id="a_node9"><a xlink:href="../../de/d70/class_fish.html#aa5804684bba5583b9faf970c6b491858" target="_top" xlink:title="Fish.checkEnergy">
<polygon fill="white" stroke="black" points="150,-316.5 150,-335.5 248,-335.5 248,-316.5 150,-316.5"/>
<text text-anchor="middle" x="199" y="-323.5" font-family="Helvetica,sans-Serif" font-size="10.00">Fish.checkEnergy</text>
</a>
</g>
</g>
<!-- Node1&#45;&gt;Node9 -->
<g id="edge8" class="edge"><title>Node1&#45;&gt;Node9</title>
<path fill="none" stroke="midnightblue" d="M45.6963,-221.575C55.7317,-240.974 81.2167,-284.945 116,-307 123.274,-311.612 131.545,-315.108 139.968,-317.756"/>
<polygon fill="midnightblue" stroke="midnightblue" points="139.305,-321.204 149.875,-320.493 141.168,-314.457 139.305,-321.204"/>
</g>
<!-- Node10 -->
<g id="node10" class="node"><title>Node10</title>
<g id="a_node10"><a xlink:href="../../de/d70/class_fish.html#a72d533bdc4ac39f4ffd93d70504efed8" target="_top" xlink:title="Fish.eat">
<polygon fill="white" stroke="black" points="172.5,-278.5 172.5,-297.5 225.5,-297.5 225.5,-278.5 172.5,-278.5"/>
<text text-anchor="middle" x="199" y="-285.5" font-family="Helvetica,sans-Serif" font-size="10.00">Fish.eat</text>
</a>
</g>
</g>
<!-- Node1&#45;&gt;Node10 -->
<g id="edge9" class="edge"><title>Node1&#45;&gt;Node10</title>
<path fill="none" stroke="midnightblue" d="M50.7611,-221.638C64.265,-234.416 89.9428,-256.772 116,-269 130.511,-275.81 147.64,-280.272 162.481,-283.148"/>
<polygon fill="midnightblue" stroke="midnightblue" points="161.872,-286.595 172.329,-284.896 163.095,-279.702 161.872,-286.595"/>
</g>
<!-- Node11 -->
<g id="node11" class="node"><title>Node11</title>
<g id="a_node11"><a xlink:href="../../da/d74/class_grid.html#a43e84876ecfc5265a5e37a39e64e794e" target="_top" xlink:title="Grid.findNeighbors">
<polygon fill="white" stroke="black" points="146.5,-240.5 146.5,-259.5 251.5,-259.5 251.5,-240.5 146.5,-240.5"/>
<text text-anchor="middle" x="199" y="-247.5" font-family="Helvetica,sans-Serif" font-size="10.00">Grid.findNeighbors</text>
</a>
</g>
</g>
<!-- Node1&#45;&gt;Node11 -->
<g id="edge10" class="edge"><title>Node1&#45;&gt;Node11</title>
<path fill="none" stroke="midnightblue" d="M77.9658,-221.524C90.0734,-224.601 103.599,-227.993 116,-231 125.799,-233.376 136.273,-235.852 146.346,-238.201"/>
<polygon fill="midnightblue" stroke="midnightblue" points="145.713,-241.647 156.246,-240.499 147.296,-234.828 145.713,-241.647"/>
</g>
<!-- Node17 -->
<g id="node17" class="node"><title>Node17</title>
<g id="a_node17"><a xlink:href="../../d2/d40/class_cellular_automata.html#a34ceed434c942d34ff03169b92684726" target="_top" xlink:title="CellularAutomata.getGrid">
<polygon fill="white" stroke="black" points="130,-202.5 130,-221.5 268,-221.5 268,-202.5 130,-202.5"/>
<text text-anchor="middle" x="199" y="-209.5" font-family="Helvetica,sans-Serif" font-size="10.00">CellularAutomata.getGrid</text>
</a>
</g>
</g>
<!-- Node1&#45;&gt;Node17 -->
<g id="edge17" class="edge"><title>Node1&#45;&gt;Node17</title>
<path fill="none" stroke="midnightblue" d="M80.2127,-212C92.3449,-212 106.164,-212 119.964,-212"/>
<polygon fill="midnightblue" stroke="midnightblue" points="119.985,-215.5 129.985,-212 119.985,-208.5 119.985,-215.5"/>
</g>
<!-- Node18 -->
<g id="node18" class="node"><title>Node18</title>
<g id="a_node18"><a xlink:href="../../dc/d06/class_mover.html#a52bee7a2004ca1e44356ce6c5867a2fc" target="_top" xlink:title="Mover.isState">
<polygon fill="white" stroke="black" points="158,-164.5 158,-183.5 240,-183.5 240,-164.5 158,-164.5"/>
<text text-anchor="middle" x="199" y="-171.5" font-family="Helvetica,sans-Serif" font-size="10.00">Mover.isState</text>
</a>
</g>
</g>
<!-- Node1&#45;&gt;Node18 -->
<g id="edge18" class="edge"><title>Node1&#45;&gt;Node18</title>
<path fill="none" stroke="midnightblue" d="M77.9658,-202.476C90.0734,-199.399 103.599,-196.007 116,-193 126.332,-190.495 137.413,-187.879 147.985,-185.418"/>
<polygon fill="midnightblue" stroke="midnightblue" points="148.971,-188.782 157.922,-183.114 147.39,-181.963 148.971,-188.782"/>
</g>
<!-- Node19 -->
<g id="node19" class="node"><title>Node19</title>
<g id="a_node19"><a xlink:href="../../da/de8/class_move_cellular_automata.html#a813e13cff0ced9cf21fd55e7980069d8" target="_top" xlink:title="MoveCellularAutomata.move">
<polygon fill="white" stroke="black" points="121.5,-126.5 121.5,-145.5 276.5,-145.5 276.5,-126.5 121.5,-126.5"/>
<text text-anchor="middle" x="199" y="-133.5" font-family="Helvetica,sans-Serif" font-size="10.00">MoveCellularAutomata.move</text>
</a>
</g>
</g>
<!-- Node1&#45;&gt;Node19 -->
<g id="edge19" class="edge"><title>Node1&#45;&gt;Node19</title>
<path fill="none" stroke="midnightblue" d="M50.7611,-202.362C64.265,-189.584 89.9428,-167.228 116,-155 121.254,-152.534 126.852,-150.376 132.56,-148.49"/>
<polygon fill="midnightblue" stroke="midnightblue" points="133.672,-151.81 142.23,-145.565 131.645,-145.11 133.672,-151.81"/>
</g>
<!-- Node21 -->
<g id="node21" class="node"><title>Node21</title>
<g id="a_node21"><a xlink:href="../../da/de8/class_move_cellular_automata.html#a55d8abb0f5031aef2b1ef469ee2bba48" target="_top" xlink:title="MoveCellularAutomata.remove\lMover">
<polygon fill="white" stroke="black" points="116.5,-77 116.5,-107 281.5,-107 281.5,-77 116.5,-77"/>
<text text-anchor="start" x="124.5" y="-95" font-family="Helvetica,sans-Serif" font-size="10.00">MoveCellularAutomata.remove</text>
<text text-anchor="middle" x="199" y="-84" font-family="Helvetica,sans-Serif" font-size="10.00">Mover</text>
</a>
</g>
</g>
<!-- Node1&#45;&gt;Node21 -->
<g id="edge21" class="edge"><title>Node1&#45;&gt;Node21</title>
<path fill="none" stroke="midnightblue" d="M45.9821,-202.325C56.3583,-183.134 82.1628,-140.11 116,-117 118.915,-115.009 121.994,-113.172 125.181,-111.479"/>
<polygon fill="midnightblue" stroke="midnightblue" points="126.889,-114.542 134.404,-107.074 123.872,-108.225 126.889,-114.542"/>
</g>
<!-- Node22 -->
<g id="node22" class="node"><title>Node22</title>
<g id="a_node22"><a xlink:href="../../dd/d11/class_cell.html#aaaf321e273ef5b6ac3fae80e36d19629" target="_top" xlink:title="Cell.setState">
<polygon fill="white" stroke="black" points="160,-38.5 160,-57.5 238,-57.5 238,-38.5 160,-38.5"/>
<text text-anchor="middle" x="199" y="-45.5" font-family="Helvetica,sans-Serif" font-size="10.00">Cell.setState</text>
</a>
</g>
</g>
<!-- Node1&#45;&gt;Node22 -->
<g id="edge22" class="edge"><title>Node1&#45;&gt;Node22</title>
<path fill="none" stroke="midnightblue" d="M43.0118,-202.433C49.032,-176.287 69.45,-103.17 116,-67 125.736,-59.4347 137.962,-54.7924 149.979,-51.968"/>
<polygon fill="midnightblue" stroke="midnightblue" points="150.831,-55.3676 159.965,-49.9989 149.476,-48.4998 150.831,-55.3676"/>
</g>
<!-- Node25 -->
<g id="node25" class="node"><title>Node25</title>
<g id="a_node25"><a xlink:href="../../de/d70/class_fish.html#a3968096ff7e7ecdfc63783894c3bda33" target="_top" xlink:title="Fish.surviveTurn">
<polygon fill="white" stroke="black" points="153.5,-0.5 153.5,-19.5 244.5,-19.5 244.5,-0.5 153.5,-0.5"/>
<text text-anchor="middle" x="199" y="-7.5" font-family="Helvetica,sans-Serif" font-size="10.00">Fish.surviveTurn</text>
</a>
</g>
</g>
<!-- Node1&#45;&gt;Node25 -->
<g id="edge25" class="edge"><title>Node1&#45;&gt;Node25</title>
<path fill="none" stroke="midnightblue" d="M41.9218,-202.256C45.3638,-171.603 60.2886,-76.3806 116,-29 123.764,-22.3966 133.385,-17.981 143.274,-15.0514"/>
<polygon fill="midnightblue" stroke="midnightblue" points="144.331,-18.3955 153.194,-12.591 142.645,-11.6014 144.331,-18.3955"/>
</g>
<!-- Node3 -->
<g id="node3" class="node"><title>Node3</title>
<g id="a_node3"><a xlink:href="../../da/de8/class_move_cellular_automata.html#a1661ace25a08d9cb4bec54bfde40424e" target="_top" xlink:title="MoveCellularAutomata.add\lMover">
<polygon fill="white" stroke="black" points="318,-469 318,-499 464,-499 464,-469 318,-469"/>
<text text-anchor="start" x="326" y="-487" font-family="Helvetica,sans-Serif" font-size="10.00">MoveCellularAutomata.add</text>
<text text-anchor="middle" x="391" y="-476" font-family="Helvetica,sans-Serif" font-size="10.00">Mover</text>
</a>
</g>
</g>
<!-- Node2&#45;&gt;Node3 -->
<g id="edge2" class="edge"><title>Node2&#45;&gt;Node3</title>
<path fill="none" stroke="midnightblue" d="M218.096,-411.554C241.002,-423.456 281.838,-444.047 318,-459 323.327,-461.203 328.926,-463.38 334.549,-465.476"/>
<polygon fill="midnightblue" stroke="midnightblue" points="333.4,-468.782 343.994,-468.918 335.797,-462.205 333.4,-468.782"/>
</g>
<!-- Node4 -->
<g id="node4" class="node"><title>Node4</title>
<g id="a_node4"><a xlink:href="../../de/d70/class_fish.html#a8a5f5246900a3d430f62267e5346384b" target="_top" xlink:title="Fish.breed">
<polygon fill="white" stroke="black" points="358.5,-430.5 358.5,-449.5 423.5,-449.5 423.5,-430.5 358.5,-430.5"/>
<text text-anchor="middle" x="391" y="-437.5" font-family="Helvetica,sans-Serif" font-size="10.00">Fish.breed</text>
</a>
</g>
</g>
<!-- Node2&#45;&gt;Node4 -->
<g id="edge3" class="edge"><title>Node2&#45;&gt;Node4</title>
<path fill="none" stroke="midnightblue" d="M247.945,-411.589C278.922,-417.784 318.828,-425.766 348.454,-431.691"/>
<polygon fill="midnightblue" stroke="midnightblue" points="347.98,-435.165 358.472,-433.694 349.353,-428.301 347.98,-435.165"/>
</g>
<!-- Node7 -->
<g id="node7" class="node"><title>Node7</title>
<g id="a_node7"><a xlink:href="../../de/d70/class_fish.html#a9869e97a5ca4ce7a5009780080aaaf87" target="_top" xlink:title="Fish.canBreed">
<polygon fill="white" stroke="black" points="349.5,-392.5 349.5,-411.5 432.5,-411.5 432.5,-392.5 349.5,-392.5"/>
<text text-anchor="middle" x="391" y="-399.5" font-family="Helvetica,sans-Serif" font-size="10.00">Fish.canBreed</text>
</a>
</g>
</g>
<!-- Node2&#45;&gt;Node7 -->
<g id="edge6" class="edge"><title>Node2&#45;&gt;Node7</title>
<path fill="none" stroke="midnightblue" d="M248.437,-402C276.246,-402 311.128,-402 339.307,-402"/>
<polygon fill="midnightblue" stroke="midnightblue" points="339.36,-405.5 349.36,-402 339.36,-398.5 339.36,-405.5"/>
</g>
<!-- Node2&#45;&gt;Node8 -->
<g id="edge7" class="edge"><title>Node2&#45;&gt;Node8</title>
<path fill="none" stroke="midnightblue" d="M247.945,-392.411C276.143,-386.771 311.74,-379.652 340.247,-373.951"/>
<polygon fill="midnightblue" stroke="midnightblue" points="341.282,-377.313 350.401,-371.92 339.909,-370.449 341.282,-377.313"/>
</g>
<!-- Node5 -->
<g id="node5" class="node"><title>Node5</title>
<g id="a_node5"><a xlink:href="../../de/d70/class_fish.html#af5297bf144c3850a7128aaf986ac61bc" target="_top" xlink:title="Fish.Fish">
<polygon fill="white" stroke="black" points="524,-449.5 524,-468.5 580,-468.5 580,-449.5 524,-449.5"/>
<text text-anchor="middle" x="552" y="-456.5" font-family="Helvetica,sans-Serif" font-size="10.00">Fish.Fish</text>
</a>
</g>
</g>
<!-- Node4&#45;&gt;Node5 -->
<g id="edge4" class="edge"><title>Node4&#45;&gt;Node5</title>
<path fill="none" stroke="midnightblue" d="M423.794,-443.799C449.75,-446.901 486.472,-451.289 513.793,-454.554"/>
<polygon fill="midnightblue" stroke="midnightblue" points="513.418,-458.034 523.762,-455.745 514.248,-451.083 513.418,-458.034"/>
</g>
<!-- Node6 -->
<g id="node6" class="node"><title>Node6</title>
<g id="a_node6"><a xlink:href="../../dc/d06/class_mover.html#aa8711e427647a7c980d42a89588270ba" target="_top" xlink:title="Mover.getState">
<polygon fill="white" stroke="black" points="507,-411.5 507,-430.5 597,-430.5 597,-411.5 507,-411.5"/>
<text text-anchor="middle" x="552" y="-418.5" font-family="Helvetica,sans-Serif" font-size="10.00">Mover.getState</text>
</a>
</g>
</g>
<!-- Node4&#45;&gt;Node6 -->
<g id="edge5" class="edge"><title>Node4&#45;&gt;Node6</title>
<path fill="none" stroke="midnightblue" d="M423.794,-436.201C444.649,-433.709 472.455,-430.386 496.75,-427.483"/>
<polygon fill="midnightblue" stroke="midnightblue" points="497.403,-430.93 506.917,-426.268 496.572,-423.979 497.403,-430.93"/>
</g>
<!-- Node12 -->
<g id="node12" class="node"><title>Node12</title>
<g id="a_node12"><a xlink:href="../../da/d74/class_grid.html#a33b84a1d6b40a447bdd4a33fa3daf555" target="_top" xlink:title="Grid.getNeighbors">
<polygon fill="white" stroke="black" points="339,-240.5 339,-259.5 443,-259.5 443,-240.5 339,-240.5"/>
<text text-anchor="middle" x="391" y="-247.5" font-family="Helvetica,sans-Serif" font-size="10.00">Grid.getNeighbors</text>
</a>
</g>
</g>
<!-- Node11&#45;&gt;Node12 -->
<g id="edge11" class="edge"><title>Node11&#45;&gt;Node12</title>
<path fill="none" stroke="midnightblue" d="M251.667,-250C275.426,-250 303.788,-250 328.627,-250"/>
<polygon fill="midnightblue" stroke="midnightblue" points="328.672,-253.5 338.672,-250 328.672,-246.5 328.672,-253.5"/>
</g>
<!-- Node13 -->
<g id="node13" class="node"><title>Node13</title>
<g id="a_node13"><a xlink:href="../../da/d74/class_grid.html#ab87098d7bfaf1eaf367e4342a5bce0ae" target="_top" xlink:title="Grid.checkBounds">
<polygon fill="white" stroke="black" points="500.5,-297.5 500.5,-316.5 603.5,-316.5 603.5,-297.5 500.5,-297.5"/>
<text text-anchor="middle" x="552" y="-304.5" font-family="Helvetica,sans-Serif" font-size="10.00">Grid.checkBounds</text>
</a>
</g>
</g>
<!-- Node12&#45;&gt;Node13 -->
<g id="edge12" class="edge"><title>Node12&#45;&gt;Node13</title>
<path fill="none" stroke="midnightblue" d="M418.613,-259.541C444.983,-268.994 485.56,-283.54 514.84,-294.037"/>
<polygon fill="midnightblue" stroke="midnightblue" points="513.706,-297.348 524.3,-297.428 516.068,-290.759 513.706,-297.348"/>
</g>
<!-- Node14 -->
<g id="node14" class="node"><title>Node14</title>
<g id="a_node14"><a xlink:href="../../dd/d11/class_cell.html#a4725094202cf38c727f2adcc3cf8b96f" target="_top" xlink:title="Cell.getPosX">
<polygon fill="white" stroke="black" points="514,-259.5 514,-278.5 590,-278.5 590,-259.5 514,-259.5"/>
<text text-anchor="middle" x="552" y="-266.5" font-family="Helvetica,sans-Serif" font-size="10.00">Cell.getPosX</text>
</a>
</g>
</g>
<!-- Node12&#45;&gt;Node14 -->
<g id="edge13" class="edge"><title>Node12&#45;&gt;Node14</title>
<path fill="none" stroke="midnightblue" d="M443.184,-256.116C462.576,-258.434 484.554,-261.06 503.584,-263.334"/>
<polygon fill="midnightblue" stroke="midnightblue" points="503.182,-266.811 513.527,-264.522 504.013,-259.86 503.182,-266.811"/>
</g>
<!-- Node15 -->
<g id="node15" class="node"><title>Node15</title>
<g id="a_node15"><a xlink:href="../../dd/d11/class_cell.html#ac445ab365d1ec19483e98841be73d11e" target="_top" xlink:title="Cell.getPosY">
<polygon fill="white" stroke="black" points="514.5,-221.5 514.5,-240.5 589.5,-240.5 589.5,-221.5 514.5,-221.5"/>
<text text-anchor="middle" x="552" y="-228.5" font-family="Helvetica,sans-Serif" font-size="10.00">Cell.getPosY</text>
</a>
</g>
</g>
<!-- Node12&#45;&gt;Node15 -->
<g id="edge14" class="edge"><title>Node12&#45;&gt;Node15</title>
<path fill="none" stroke="midnightblue" d="M443.184,-243.884C462.73,-241.548 484.903,-238.898 504.036,-236.612"/>
<polygon fill="midnightblue" stroke="midnightblue" points="504.512,-240.08 514.026,-235.418 503.681,-233.13 504.512,-240.08"/>
</g>
<!-- Node16 -->
<g id="node16" class="node"><title>Node16</title>
<g id="a_node16"><a xlink:href="../../da/d74/class_grid.html#a669941947881f795a6ab4a70adf05172" target="_top" xlink:title="Grid.getTorusPoint">
<polygon fill="white" stroke="black" points="500,-183.5 500,-202.5 604,-202.5 604,-183.5 500,-183.5"/>
<text text-anchor="middle" x="552" y="-190.5" font-family="Helvetica,sans-Serif" font-size="10.00">Grid.getTorusPoint</text>
</a>
</g>
</g>
<!-- Node12&#45;&gt;Node16 -->
<g id="edge15" class="edge"><title>Node12&#45;&gt;Node16</title>
<path fill="none" stroke="midnightblue" d="M418.613,-240.459C444.983,-231.006 485.56,-216.46 514.84,-205.963"/>
<polygon fill="midnightblue" stroke="midnightblue" points="516.068,-209.241 524.3,-202.572 513.706,-202.652 516.068,-209.241"/>
</g>
<!-- Node20 -->
<g id="node20" class="node"><title>Node20</title>
<g id="a_node20"><a xlink:href="../../da/de8/class_move_cellular_automata.html#a51d0684d1393a9ad01e371119f37c039" target="_top" xlink:title="MoveCellularAutomata.get\lRandomCell">
<polygon fill="white" stroke="black" points="319,-121 319,-151 463,-151 463,-121 319,-121"/>
<text text-anchor="start" x="327" y="-139" font-family="Helvetica,sans-Serif" font-size="10.00">MoveCellularAutomata.get</text>
<text text-anchor="middle" x="391" y="-128" font-family="Helvetica,sans-Serif" font-size="10.00">RandomCell</text>
</a>
</g>
</g>
<!-- Node19&#45;&gt;Node20 -->
<g id="edge20" class="edge"><title>Node19&#45;&gt;Node20</title>
<path fill="none" stroke="midnightblue" d="M276.733,-136C287.269,-136 298.117,-136 308.732,-136"/>
<polygon fill="midnightblue" stroke="midnightblue" points="308.819,-139.5 318.819,-136 308.819,-132.5 308.819,-139.5"/>
</g>
<!-- Node23 -->
<g id="node23" class="node"><title>Node23</title>
<g id="a_node23"><a xlink:href="../../dd/d11/class_cell.html#a6ddc434a1826fac1599a7d901ff2d162" target="_top" xlink:title="Cell.setNextState">
<polygon fill="white" stroke="black" points="340.5,-57.5 340.5,-76.5 441.5,-76.5 441.5,-57.5 340.5,-57.5"/>
<text text-anchor="middle" x="391" y="-64.5" font-family="Helvetica,sans-Serif" font-size="10.00">Cell.setNextState</text>
</a>
</g>
</g>
<!-- Node22&#45;&gt;Node23 -->
<g id="edge23" class="edge"><title>Node22&#45;&gt;Node23</title>
<path fill="none" stroke="midnightblue" d="M238.449,-51.8449C264.851,-54.4851 300.414,-58.0414 330.454,-61.0454"/>
<polygon fill="midnightblue" stroke="midnightblue" points="330.111,-64.5284 340.409,-62.0409 330.807,-57.5632 330.111,-64.5284"/>
</g>
<!-- Node24 -->
<g id="node24" class="node"><title>Node24</title>
<g id="a_node24"><a xlink:href="../../dd/d11/class_cell.html#adfc3c76d1f230a143057441eb6eabb62" target="_top" xlink:title="Cell.update">
<polygon fill="white" stroke="black" points="355.5,-19.5 355.5,-38.5 426.5,-38.5 426.5,-19.5 355.5,-19.5"/>
<text text-anchor="middle" x="391" y="-26.5" font-family="Helvetica,sans-Serif" font-size="10.00">Cell.update</text>
</a>
</g>
</g>
<!-- Node22&#45;&gt;Node24 -->
<g id="edge24" class="edge"><title>Node22&#45;&gt;Node24</title>
<path fill="none" stroke="midnightblue" d="M238.449,-44.1551C269.368,-41.0632 312.853,-36.7147 345.318,-33.4682"/>
<polygon fill="midnightblue" stroke="midnightblue" points="345.839,-36.9337 355.441,-32.4559 345.142,-29.9684 345.839,-36.9337"/>
</g>
</g>
</svg>
