<?xml version="1.0" encoding="UTF-8" standalone="no"?>
<!DOCTYPE svg PUBLIC "-//W3C//DTD SVG 1.1//EN"
 "http://www.w3.org/Graphics/SVG/1.1/DTD/svg11.dtd">
<!-- Generated by graphviz version 2.36.0 (20140111.2315)
 -->
<!-- Title: Wator.ruleOne Pages: 1 -->
<svg width="616pt" height="431pt"
 viewBox="0.00 0.00 616.00 431.00" xmlns="http://www.w3.org/2000/svg" xmlns:xlink="http://www.w3.org/1999/xlink">
<g id="graph0" class="graph" transform="scale(1 1) rotate(0) translate(4 427)">
<title>Wator.ruleOne</title>
<polygon fill="white" stroke="none" points="-4,4 -4,-427 612,-427 612,4 -4,4"/>
<!-- Node1 -->
<g id="node1" class="node"><title>Node1</title>
<polygon fill="#bfbfbf" stroke="black" points="0.5,-164.5 0.5,-183.5 83.5,-183.5 83.5,-164.5 0.5,-164.5"/>
<text text-anchor="middle" x="42" y="-171.5" font-family="Helvetica,sans-Serif" font-size="10.00">Wator.ruleOne</text>
</g>
<!-- Node2 -->
<g id="node2" class="node"><title>Node2</title>
<g id="a_node2"><a xlink:href="../../d0/db0/class_wator.html#a48bebe2ccefc55d2e433578eb0c22684" target="_top" xlink:title="Wator.breedIfCan">
<polygon fill="white" stroke="black" points="154,-316.5 154,-335.5 252,-335.5 252,-316.5 154,-316.5"/>
<text text-anchor="middle" x="203" y="-323.5" font-family="Helvetica,sans-Serif" font-size="10.00">Wator.breedIfCan</text>
</a>
</g>
</g>
<!-- Node1&#45;&gt;Node2 -->
<g id="edge1" class="edge"><title>Node1&#45;&gt;Node2</title>
<path fill="none" stroke="midnightblue" d="M46.0551,-183.699C54.0859,-207.593 78.1086,-269.69 120,-302 127.083,-307.463 135.38,-311.684 143.924,-314.945"/>
<polygon fill="midnightblue" stroke="midnightblue" points="143.032,-318.338 153.626,-318.234 145.279,-311.709 143.032,-318.338"/>
</g>
<!-- Node8 -->
<g id="node8" class="node"><title>Node8</title>
<g id="a_node8"><a xlink:href="../../dc/d06/class_mover.html#adf476a60dad6e0feb9bedb3f6af313b5" target="_top" xlink:title="Mover.getCell">
<polygon fill="white" stroke="black" points="354.5,-278.5 354.5,-297.5 435.5,-297.5 435.5,-278.5 354.5,-278.5"/>
<text text-anchor="middle" x="395" y="-285.5" font-family="Helvetica,sans-Serif" font-size="10.00">Mover.getCell</text>
</a>
</g>
</g>
<!-- Node1&#45;&gt;Node8 -->
<g id="edge14" class="edge"><title>Node1&#45;&gt;Node8</title>
<path fill="none" stroke="midnightblue" d="M47.4715,-183.738C57.2978,-203.85 82.892,-249.707 120,-269 190.894,-305.859 286.377,-302.605 343.883,-295.959"/>
<polygon fill="midnightblue" stroke="midnightblue" points="344.669,-299.389 354.164,-294.688 343.81,-292.441 344.669,-299.389"/>
</g>
<!-- Node9 -->
<g id="node9" class="node"><title>Node9</title>
<g id="a_node9"><a xlink:href="../../da/d74/class_grid.html#a43e84876ecfc5265a5e37a39e64e794e" target="_top" xlink:title="Grid.findNeighbors">
<polygon fill="white" stroke="black" points="150.5,-240.5 150.5,-259.5 255.5,-259.5 255.5,-240.5 150.5,-240.5"/>
<text text-anchor="middle" x="203" y="-247.5" font-family="Helvetica,sans-Serif" font-size="10.00">Grid.findNeighbors</text>
</a>
</g>
</g>
<!-- Node1&#45;&gt;Node9 -->
<g id="edge8" class="edge"><title>Node1&#45;&gt;Node9</title>
<path fill="none" stroke="midnightblue" d="M53.0724,-183.626C66.9943,-196.391 93.4222,-218.732 120,-231 126.476,-233.99 133.464,-236.53 140.533,-238.683"/>
<polygon fill="midnightblue" stroke="midnightblue" points="139.609,-242.059 150.182,-241.386 141.497,-235.319 139.609,-242.059"/>
</g>
<!-- Node15 -->
<g id="node15" class="node"><title>Node15</title>
<g id="a_node15"><a xlink:href="../../d2/d40/class_cellular_automata.html#a34ceed434c942d34ff03169b92684726" target="_top" xlink:title="CellularAutomata.getGrid">
<polygon fill="white" stroke="black" points="134,-202.5 134,-221.5 272,-221.5 272,-202.5 134,-202.5"/>
<text text-anchor="middle" x="203" y="-209.5" font-family="Helvetica,sans-Serif" font-size="10.00">CellularAutomata.getGrid</text>
</a>
</g>
</g>
<!-- Node1&#45;&gt;Node15 -->
<g id="edge15" class="edge"><title>Node1&#45;&gt;Node15</title>
<path fill="none" stroke="midnightblue" d="M81.3568,-183.579C93.687,-186.627 107.412,-189.989 120,-193 129.806,-195.346 140.284,-197.807 150.358,-200.152"/>
<polygon fill="midnightblue" stroke="midnightblue" points="149.725,-203.598 160.258,-202.449 151.307,-196.779 149.725,-203.598"/>
</g>
<!-- Node16 -->
<g id="node16" class="node"><title>Node16</title>
<g id="a_node16"><a xlink:href="../../dd/d11/class_cell.html#aac3ac473652b817fe344534f4bec7e6f" target="_top" xlink:title="Cell.getState">
<polygon fill="white" stroke="black" points="163.5,-164.5 163.5,-183.5 242.5,-183.5 242.5,-164.5 163.5,-164.5"/>
<text text-anchor="middle" x="203" y="-171.5" font-family="Helvetica,sans-Serif" font-size="10.00">Cell.getState</text>
</a>
</g>
</g>
<!-- Node1&#45;&gt;Node16 -->
<g id="edge16" class="edge"><title>Node1&#45;&gt;Node16</title>
<path fill="none" stroke="midnightblue" d="M83.5338,-174C104.741,-174 130.863,-174 153.177,-174"/>
<polygon fill="midnightblue" stroke="midnightblue" points="153.457,-177.5 163.457,-174 153.457,-170.5 153.457,-177.5"/>
</g>
<!-- Node17 -->
<g id="node17" class="node"><title>Node17</title>
<g id="a_node17"><a xlink:href="../../dc/d06/class_mover.html#a52bee7a2004ca1e44356ce6c5867a2fc" target="_top" xlink:title="Mover.isState">
<polygon fill="white" stroke="black" points="162,-126.5 162,-145.5 244,-145.5 244,-126.5 162,-126.5"/>
<text text-anchor="middle" x="203" y="-133.5" font-family="Helvetica,sans-Serif" font-size="10.00">Mover.isState</text>
</a>
</g>
</g>
<!-- Node1&#45;&gt;Node17 -->
<g id="edge17" class="edge"><title>Node1&#45;&gt;Node17</title>
<path fill="none" stroke="midnightblue" d="M81.3568,-164.421C93.687,-161.373 107.412,-158.011 120,-155 130.339,-152.527 141.425,-149.925 151.996,-147.467"/>
<polygon fill="midnightblue" stroke="midnightblue" points="152.983,-150.831 161.934,-145.163 151.402,-144.012 152.983,-150.831"/>
</g>
<!-- Node18 -->
<g id="node18" class="node"><title>Node18</title>
<g id="a_node18"><a xlink:href="../../da/de8/class_move_cellular_automata.html#a813e13cff0ced9cf21fd55e7980069d8" target="_top" xlink:title="MoveCellularAutomata.move">
<polygon fill="white" stroke="black" points="125.5,-88.5 125.5,-107.5 280.5,-107.5 280.5,-88.5 125.5,-88.5"/>
<text text-anchor="middle" x="203" y="-95.5" font-family="Helvetica,sans-Serif" font-size="10.00">MoveCellularAutomata.move</text>
</a>
</g>
</g>
<!-- Node1&#45;&gt;Node18 -->
<g id="edge18" class="edge"><title>Node1&#45;&gt;Node18</title>
<path fill="none" stroke="midnightblue" d="M53.0724,-164.374C66.9943,-151.609 93.4222,-129.268 120,-117 125.355,-114.528 131.059,-112.363 136.87,-110.471"/>
<polygon fill="midnightblue" stroke="midnightblue" points="138.125,-113.749 146.707,-107.535 136.123,-107.041 138.125,-113.749"/>
</g>
<!-- Node20 -->
<g id="node20" class="node"><title>Node20</title>
<g id="a_node20"><a xlink:href="../../da/de8/class_move_cellular_automata.html#a55d8abb0f5031aef2b1ef469ee2bba48" target="_top" xlink:title="MoveCellularAutomata.remove\lMover">
<polygon fill="white" stroke="black" points="120.5,-39 120.5,-69 285.5,-69 285.5,-39 120.5,-39"/>
<text text-anchor="start" x="128.5" y="-57" font-family="Helvetica,sans-Serif" font-size="10.00">MoveCellularAutomata.remove</text>
<text text-anchor="middle" x="203" y="-46" font-family="Helvetica,sans-Serif" font-size="10.00">Mover</text>
</a>
</g>
</g>
<!-- Node1&#45;&gt;Node20 -->
<g id="edge20" class="edge"><title>Node1&#45;&gt;Node20</title>
<path fill="none" stroke="midnightblue" d="M48.1837,-164.328C58.9603,-145.143 85.6644,-102.129 120,-79 122.928,-77.0278 126.017,-75.2065 129.212,-73.5249"/>
<polygon fill="midnightblue" stroke="midnightblue" points="130.915,-76.5913 138.454,-69.1471 127.918,-70.2652 130.915,-76.5913"/>
</g>
<!-- Node21 -->
<g id="node21" class="node"><title>Node21</title>
<g id="a_node21"><a xlink:href="../../de/d70/class_fish.html#a3968096ff7e7ecdfc63783894c3bda33" target="_top" xlink:title="Fish.surviveTurn">
<polygon fill="white" stroke="black" points="157.5,-0.5 157.5,-19.5 248.5,-19.5 248.5,-0.5 157.5,-0.5"/>
<text text-anchor="middle" x="203" y="-7.5" font-family="Helvetica,sans-Serif" font-size="10.00">Fish.surviveTurn</text>
</a>
</g>
</g>
<!-- Node1&#45;&gt;Node21 -->
<g id="edge21" class="edge"><title>Node1&#45;&gt;Node21</title>
<path fill="none" stroke="midnightblue" d="M45.2857,-164.145C51.9015,-137.915 73.622,-65.9566 120,-30 127.991,-23.8049 137.631,-19.4964 147.451,-16.5076"/>
<polygon fill="midnightblue" stroke="midnightblue" points="148.488,-19.8542 157.277,-13.9376 146.716,-13.082 148.488,-19.8542"/>
</g>
<!-- Node3 -->
<g id="node3" class="node"><title>Node3</title>
<g id="a_node3"><a xlink:href="../../da/de8/class_move_cellular_automata.html#a1661ace25a08d9cb4bec54bfde40424e" target="_top" xlink:title="MoveCellularAutomata.add\lMover">
<polygon fill="white" stroke="black" points="322,-393 322,-423 468,-423 468,-393 322,-393"/>
<text text-anchor="start" x="330" y="-411" font-family="Helvetica,sans-Serif" font-size="10.00">MoveCellularAutomata.add</text>
<text text-anchor="middle" x="395" y="-400" font-family="Helvetica,sans-Serif" font-size="10.00">Mover</text>
</a>
</g>
</g>
<!-- Node2&#45;&gt;Node3 -->
<g id="edge2" class="edge"><title>Node2&#45;&gt;Node3</title>
<path fill="none" stroke="midnightblue" d="M222.096,-335.554C245.002,-347.456 285.838,-368.047 322,-383 327.327,-385.203 332.926,-387.38 338.549,-389.476"/>
<polygon fill="midnightblue" stroke="midnightblue" points="337.4,-392.782 347.994,-392.918 339.797,-386.205 337.4,-392.782"/>
</g>
<!-- Node4 -->
<g id="node4" class="node"><title>Node4</title>
<g id="a_node4"><a xlink:href="../../de/d70/class_fish.html#a8a5f5246900a3d430f62267e5346384b" target="_top" xlink:title="Fish.breed">
<polygon fill="white" stroke="black" points="362.5,-354.5 362.5,-373.5 427.5,-373.5 427.5,-354.5 362.5,-354.5"/>
<text text-anchor="middle" x="395" y="-361.5" font-family="Helvetica,sans-Serif" font-size="10.00">Fish.breed</text>
</a>
</g>
</g>
<!-- Node2&#45;&gt;Node4 -->
<g id="edge3" class="edge"><title>Node2&#45;&gt;Node4</title>
<path fill="none" stroke="midnightblue" d="M251.945,-335.589C282.922,-341.784 322.828,-349.766 352.454,-355.691"/>
<polygon fill="midnightblue" stroke="midnightblue" points="351.98,-359.165 362.472,-357.694 353.353,-352.301 351.98,-359.165"/>
</g>
<!-- Node7 -->
<g id="node7" class="node"><title>Node7</title>
<g id="a_node7"><a xlink:href="../../de/d70/class_fish.html#a9869e97a5ca4ce7a5009780080aaaf87" target="_top" xlink:title="Fish.canBreed">
<polygon fill="white" stroke="black" points="353.5,-316.5 353.5,-335.5 436.5,-335.5 436.5,-316.5 353.5,-316.5"/>
<text text-anchor="middle" x="395" y="-323.5" font-family="Helvetica,sans-Serif" font-size="10.00">Fish.canBreed</text>
</a>
</g>
</g>
<!-- Node2&#45;&gt;Node7 -->
<g id="edge6" class="edge"><title>Node2&#45;&gt;Node7</title>
<path fill="none" stroke="midnightblue" d="M252.437,-326C280.246,-326 315.128,-326 343.307,-326"/>
<polygon fill="midnightblue" stroke="midnightblue" points="343.36,-329.5 353.36,-326 343.36,-322.5 343.36,-329.5"/>
</g>
<!-- Node2&#45;&gt;Node8 -->
<g id="edge7" class="edge"><title>Node2&#45;&gt;Node8</title>
<path fill="none" stroke="midnightblue" d="M251.945,-316.411C280.143,-310.771 315.74,-303.652 344.247,-297.951"/>
<polygon fill="midnightblue" stroke="midnightblue" points="345.282,-301.313 354.401,-295.92 343.909,-294.449 345.282,-301.313"/>
</g>
<!-- Node5 -->
<g id="node5" class="node"><title>Node5</title>
<g id="a_node5"><a xlink:href="../../de/d70/class_fish.html#af5297bf144c3850a7128aaf986ac61bc" target="_top" xlink:title="Fish.Fish">
<polygon fill="white" stroke="black" points="528,-382.5 528,-401.5 584,-401.5 584,-382.5 528,-382.5"/>
<text text-anchor="middle" x="556" y="-389.5" font-family="Helvetica,sans-Serif" font-size="10.00">Fish.Fish</text>
</a>
</g>
</g>
<!-- Node4&#45;&gt;Node5 -->
<g id="edge4" class="edge"><title>Node4&#45;&gt;Node5</title>
<path fill="none" stroke="midnightblue" d="M427.794,-369.599C453.75,-374.17 490.472,-380.637 517.793,-385.448"/>
<polygon fill="midnightblue" stroke="midnightblue" points="517.307,-388.916 527.762,-387.203 518.521,-382.022 517.307,-388.916"/>
</g>
<!-- Node6 -->
<g id="node6" class="node"><title>Node6</title>
<g id="a_node6"><a xlink:href="../../dc/d06/class_mover.html#aa8711e427647a7c980d42a89588270ba" target="_top" xlink:title="Mover.getState">
<polygon fill="white" stroke="black" points="511,-344.5 511,-363.5 601,-363.5 601,-344.5 511,-344.5"/>
<text text-anchor="middle" x="556" y="-351.5" font-family="Helvetica,sans-Serif" font-size="10.00">Mover.getState</text>
</a>
</g>
</g>
<!-- Node4&#45;&gt;Node6 -->
<g id="edge5" class="edge"><title>Node4&#45;&gt;Node6</title>
<path fill="none" stroke="midnightblue" d="M427.794,-362C448.649,-360.689 476.455,-358.94 500.75,-357.412"/>
<polygon fill="midnightblue" stroke="midnightblue" points="501.156,-360.893 510.917,-356.773 500.717,-353.907 501.156,-360.893"/>
</g>
<!-- Node10 -->
<g id="node10" class="node"><title>Node10</title>
<g id="a_node10"><a xlink:href="../../da/d74/class_grid.html#a33b84a1d6b40a447bdd4a33fa3daf555" target="_top" xlink:title="Grid.getNeighbors">
<polygon fill="white" stroke="black" points="343,-240.5 343,-259.5 447,-259.5 447,-240.5 343,-240.5"/>
<text text-anchor="middle" x="395" y="-247.5" font-family="Helvetica,sans-Serif" font-size="10.00">Grid.getNeighbors</text>
</a>
</g>
</g>
<!-- Node9&#45;&gt;Node10 -->
<g id="edge9" class="edge"><title>Node9&#45;&gt;Node10</title>
<path fill="none" stroke="midnightblue" d="M255.667,-250C279.426,-250 307.788,-250 332.627,-250"/>
<polygon fill="midnightblue" stroke="midnightblue" points="332.672,-253.5 342.672,-250 332.672,-246.5 332.672,-253.5"/>
</g>
<!-- Node11 -->
<g id="node11" class="node"><title>Node11</title>
<g id="a_node11"><a xlink:href="../../da/d74/class_grid.html#ab87098d7bfaf1eaf367e4342a5bce0ae" target="_top" xlink:title="Grid.checkBounds">
<polygon fill="white" stroke="black" points="504.5,-297.5 504.5,-316.5 607.5,-316.5 607.5,-297.5 504.5,-297.5"/>
<text text-anchor="middle" x="556" y="-304.5" font-family="Helvetica,sans-Serif" font-size="10.00">Grid.checkBounds</text>
</a>
</g>
</g>
<!-- Node10&#45;&gt;Node11 -->
<g id="edge10" class="edge"><title>Node10&#45;&gt;Node11</title>
<path fill="none" stroke="midnightblue" d="M438.774,-259.573C448.517,-262.224 458.726,-265.383 468,-269 484.855,-275.573 487.489,-280.604 504,-288 508.454,-289.995 513.188,-291.959 517.906,-293.822"/>
<polygon fill="midnightblue" stroke="midnightblue" points="516.885,-297.179 527.475,-297.485 519.387,-290.642 516.885,-297.179"/>
</g>
<!-- Node12 -->
<g id="node12" class="node"><title>Node12</title>
<g id="a_node12"><a xlink:href="../../dd/d11/class_cell.html#a4725094202cf38c727f2adcc3cf8b96f" target="_top" xlink:title="Cell.getPosX">
<polygon fill="white" stroke="black" points="518,-259.5 518,-278.5 594,-278.5 594,-259.5 518,-259.5"/>
<text text-anchor="middle" x="556" y="-266.5" font-family="Helvetica,sans-Serif" font-size="10.00">Cell.getPosX</text>
</a>
</g>
</g>
<!-- Node10&#45;&gt;Node12 -->
<g id="edge11" class="edge"><title>Node10&#45;&gt;Node12</title>
<path fill="none" stroke="midnightblue" d="M447.184,-256.116C466.576,-258.434 488.554,-261.06 507.584,-263.334"/>
<polygon fill="midnightblue" stroke="midnightblue" points="507.182,-266.811 517.527,-264.522 508.013,-259.86 507.182,-266.811"/>
</g>
<!-- Node13 -->
<g id="node13" class="node"><title>Node13</title>
<g id="a_node13"><a xlink:href="../../dd/d11/class_cell.html#ac445ab365d1ec19483e98841be73d11e" target="_top" xlink:title="Cell.getPosY">
<polygon fill="white" stroke="black" points="518.5,-221.5 518.5,-240.5 593.5,-240.5 593.5,-221.5 518.5,-221.5"/>
<text text-anchor="middle" x="556" y="-228.5" font-family="Helvetica,sans-Serif" font-size="10.00">Cell.getPosY</text>
</a>
</g>
</g>
<!-- Node10&#45;&gt;Node13 -->
<g id="edge12" class="edge"><title>Node10&#45;&gt;Node13</title>
<path fill="none" stroke="midnightblue" d="M447.184,-243.884C466.73,-241.548 488.903,-238.898 508.036,-236.612"/>
<polygon fill="midnightblue" stroke="midnightblue" points="508.512,-240.08 518.026,-235.418 507.681,-233.13 508.512,-240.08"/>
</g>
<!-- Node14 -->
<g id="node14" class="node"><title>Node14</title>
<g id="a_node14"><a xlink:href="../../da/d74/class_grid.html#a669941947881f795a6ab4a70adf05172" target="_top" xlink:title="Grid.getTorusPoint">
<polygon fill="white" stroke="black" points="504,-183.5 504,-202.5 608,-202.5 608,-183.5 504,-183.5"/>
<text text-anchor="middle" x="556" y="-190.5" font-family="Helvetica,sans-Serif" font-size="10.00">Grid.getTorusPoint</text>
</a>
</g>
</g>
<!-- Node10&#45;&gt;Node14 -->
<g id="edge13" class="edge"><title>Node10&#45;&gt;Node14</title>
<path fill="none" stroke="midnightblue" d="M422.613,-240.459C448.983,-231.006 489.56,-216.46 518.84,-205.963"/>
<polygon fill="midnightblue" stroke="midnightblue" points="520.068,-209.241 528.3,-202.572 517.706,-202.652 520.068,-209.241"/>
</g>
<!-- Node19 -->
<g id="node19" class="node"><title>Node19</title>
<g id="a_node19"><a xlink:href="../../da/de8/class_move_cellular_automata.html#a51d0684d1393a9ad01e371119f37c039" target="_top" xlink:title="MoveCellularAutomata.get\lRandomCell">
<polygon fill="white" stroke="black" points="323,-83 323,-113 467,-113 467,-83 323,-83"/>
<text text-anchor="start" x="331" y="-101" font-family="Helvetica,sans-Serif" font-size="10.00">MoveCellularAutomata.get</text>
<text text-anchor="middle" x="395" y="-90" font-family="Helvetica,sans-Serif" font-size="10.00">RandomCell</text>
</a>
</g>
</g>
<!-- Node18&#45;&gt;Node19 -->
<g id="edge19" class="edge"><title>Node18&#45;&gt;Node19</title>
<path fill="none" stroke="midnightblue" d="M280.733,-98C291.269,-98 302.117,-98 312.732,-98"/>
<polygon fill="midnightblue" stroke="midnightblue" points="312.819,-101.5 322.819,-98 312.819,-94.5001 312.819,-101.5"/>
</g>
</g>
</svg>
