<?xml version="1.0" encoding="UTF-8" standalone="no"?>
<!DOCTYPE svg PUBLIC "-//W3C//DTD SVG 1.1//EN"
 "http://www.w3.org/Graphics/SVG/1.1/DTD/svg11.dtd">
<!-- Generated by graphviz version 2.36.0 (20140111.2315)
 -->
<!-- Title: Wator.Wator Pages: 1 -->
<svg width="456pt" height="131pt"
 viewBox="0.00 0.00 456.00 131.00" xmlns="http://www.w3.org/2000/svg" xmlns:xlink="http://www.w3.org/1999/xlink">
<g id="graph0" class="graph" transform="scale(1 1) rotate(0) translate(4 127)">
<title>Wator.Wator</title>
<polygon fill="white" stroke="none" points="-4,4 -4,-127 452,-127 452,4 -4,4"/>
<!-- Node1 -->
<g id="node1" class="node"><title>Node1</title>
<polygon fill="#bfbfbf" stroke="black" points="0.5,-76.5 0.5,-95.5 73.5,-95.5 73.5,-76.5 0.5,-76.5"/>
<text text-anchor="middle" x="37" y="-83.5" font-family="Helvetica,sans-Serif" font-size="10.00">Wator.Wator</text>
</g>
<!-- Node2 -->
<g id="node2" class="node"><title>Node2</title>
<g id="a_node2"><a xlink:href="../../da/de8/class_move_cellular_automata.html#a17158cd108e1476059d1a07835e888a8" target="_top" xlink:title="MoveCellularAutomata.set\lEmptyColor">
<polygon fill="white" stroke="black" points="110.5,-93 110.5,-123 253.5,-123 253.5,-93 110.5,-93"/>
<text text-anchor="start" x="118.5" y="-111" font-family="Helvetica,sans-Serif" font-size="10.00">MoveCellularAutomata.set</text>
<text text-anchor="middle" x="182" y="-100" font-family="Helvetica,sans-Serif" font-size="10.00">EmptyColor</text>
</a>
</g>
</g>
<!-- Node1&#45;&gt;Node2 -->
<g id="edge1" class="edge"><title>Node1&#45;&gt;Node2</title>
<path fill="none" stroke="midnightblue" d="M73.7161,-91.4948C81.9175,-92.7565 90.9654,-94.1485 100.224,-95.573"/>
<polygon fill="midnightblue" stroke="midnightblue" points="99.908,-99.0654 110.324,-97.1268 100.972,-92.1468 99.908,-99.0654"/>
</g>
<!-- Node3 -->
<g id="node3" class="node"><title>Node3</title>
<g id="a_node3"><a xlink:href="../../d0/db0/class_wator.html#a4ea39aef9488c7e03af93e711fe2e61e" target="_top" xlink:title="Wator.setUpInitialConfig">
<polygon fill="white" stroke="black" points="117.5,-54.5 117.5,-73.5 246.5,-73.5 246.5,-54.5 117.5,-54.5"/>
<text text-anchor="middle" x="182" y="-61.5" font-family="Helvetica,sans-Serif" font-size="10.00">Wator.setUpInitialConfig</text>
</a>
</g>
</g>
<!-- Node1&#45;&gt;Node3 -->
<g id="edge2" class="edge"><title>Node1&#45;&gt;Node3</title>
<path fill="none" stroke="midnightblue" d="M73.7161,-80.5052C84.4446,-78.8547 96.6213,-76.9813 108.824,-75.104"/>
<polygon fill="midnightblue" stroke="midnightblue" points="109.698,-78.5108 119.05,-73.5308 108.634,-71.5922 109.698,-78.5108"/>
</g>
<!-- Node4 -->
<g id="node4" class="node"><title>Node4</title>
<g id="a_node4"><a xlink:href="../../d2/d40/class_cellular_automata.html#a34ceed434c942d34ff03169b92684726" target="_top" xlink:title="CellularAutomata.getGrid">
<polygon fill="white" stroke="black" points="300,-98.5 300,-117.5 438,-117.5 438,-98.5 300,-98.5"/>
<text text-anchor="middle" x="369" y="-105.5" font-family="Helvetica,sans-Serif" font-size="10.00">CellularAutomata.getGrid</text>
</a>
</g>
</g>
<!-- Node3&#45;&gt;Node4 -->
<g id="edge3" class="edge"><title>Node3&#45;&gt;Node4</title>
<path fill="none" stroke="midnightblue" d="M223.142,-73.5473C251.021,-80.1781 288.362,-89.0591 318.149,-96.1435"/>
<polygon fill="midnightblue" stroke="midnightblue" points="317.398,-99.5624 327.936,-98.4713 319.017,-92.7524 317.398,-99.5624"/>
</g>
<!-- Node5 -->
<g id="node5" class="node"><title>Node5</title>
<g id="a_node5"><a xlink:href="../../d2/d40/class_cellular_automata.html#a3e303e691cc17b9a478a3e0e167a37e6" target="_top" xlink:title="CellularAutomata.getRandom\lDouble">
<polygon fill="white" stroke="black" points="290,-49 290,-79 448,-79 448,-49 290,-49"/>
<text text-anchor="start" x="298" y="-67" font-family="Helvetica,sans-Serif" font-size="10.00">CellularAutomata.getRandom</text>
<text text-anchor="middle" x="369" y="-56" font-family="Helvetica,sans-Serif" font-size="10.00">Double</text>
</a>
</g>
</g>
<!-- Node3&#45;&gt;Node5 -->
<g id="edge4" class="edge"><title>Node3&#45;&gt;Node5</title>
<path fill="none" stroke="midnightblue" d="M246.667,-64C257.31,-64 268.518,-64 279.647,-64"/>
<polygon fill="midnightblue" stroke="midnightblue" points="279.826,-67.5001 289.826,-64 279.826,-60.5001 279.826,-67.5001"/>
</g>
<!-- Node6 -->
<g id="node6" class="node"><title>Node6</title>
<g id="a_node6"><a xlink:href="../../da/de8/class_move_cellular_automata.html#a1661ace25a08d9cb4bec54bfde40424e" target="_top" xlink:title="MoveCellularAutomata.add\lMover">
<polygon fill="white" stroke="black" points="296,-0 296,-30 442,-30 442,-0 296,-0"/>
<text text-anchor="start" x="304" y="-18" font-family="Helvetica,sans-Serif" font-size="10.00">MoveCellularAutomata.add</text>
<text text-anchor="middle" x="369" y="-7" font-family="Helvetica,sans-Serif" font-size="10.00">Mover</text>
</a>
</g>
</g>
<!-- Node3&#45;&gt;Node6 -->
<g id="edge5" class="edge"><title>Node3&#45;&gt;Node6</title>
<path fill="none" stroke="midnightblue" d="M219.109,-54.436C242.531,-48.2324 273.752,-39.9629 301.555,-32.599"/>
<polygon fill="midnightblue" stroke="midnightblue" points="302.457,-35.9807 311.228,-30.037 300.665,-29.2141 302.457,-35.9807"/>
</g>
</g>
</svg>
