<?xml version="1.0" encoding="UTF-8" standalone="no"?>
<!DOCTYPE svg PUBLIC "-//W3C//DTD SVG 1.1//EN"
 "http://www.w3.org/Graphics/SVG/1.1/DTD/svg11.dtd">
<!-- Generated by graphviz version 2.36.0 (20140111.2315)
 -->
<!-- Title: Wator.ruleOne Pages: 1 -->
<svg width="606pt" height="439pt"
 viewBox="0.00 0.00 606.00 439.00" xmlns="http://www.w3.org/2000/svg" xmlns:xlink="http://www.w3.org/1999/xlink">
<g id="graph0" class="graph" transform="scale(1 1) rotate(0) translate(4 435)">
<title>Wator.ruleOne</title>
<polygon fill="white" stroke="none" points="-4,4 -4,-435 602,-435 602,4 -4,4"/>
<!-- Node1 -->
<g id="node1" class="node"><title>Node1</title>
<polygon fill="#bfbfbf" stroke="black" points="0.5,-202.5 0.5,-221.5 83.5,-221.5 83.5,-202.5 0.5,-202.5"/>
<text text-anchor="middle" x="42" y="-209.5" font-family="Helvetica,sans-Serif" font-size="10.00">Wator.ruleOne</text>
</g>
<!-- Node2 -->
<g id="node2" class="node"><title>Node2</title>
<g id="a_node2"><a xlink:href="../../da/de8/class_move_cellular_automata.html#a9347828c2d21393d75afa8b5f0409794" target="_top" xlink:title="MoveCellularAutomata.add\lToRemove">
<polygon fill="white" stroke="black" points="125,-393 125,-423 271,-423 271,-393 125,-393"/>
<text text-anchor="start" x="133" y="-411" font-family="Helvetica,sans-Serif" font-size="10.00">MoveCellularAutomata.add</text>
<text text-anchor="middle" x="198" y="-400" font-family="Helvetica,sans-Serif" font-size="10.00">ToRemove</text>
</a>
</g>
</g>
<!-- Node1&#45;&gt;Node2 -->
<g id="edge1" class="edge"><title>Node1&#45;&gt;Node2</title>
<path fill="none" stroke="midnightblue" d="M44.5593,-221.743C49.707,-250.713 68.8453,-337.145 120,-383 121.743,-384.563 123.586,-386.028 125.507,-387.401"/>
<polygon fill="midnightblue" stroke="midnightblue" points="124.021,-390.597 134.372,-392.857 127.69,-384.635 124.021,-390.597"/>
</g>
<!-- Node3 -->
<g id="node3" class="node"><title>Node3</title>
<g id="a_node3"><a xlink:href="../../d0/db0/class_wator.html#a7b49e449f5277f27fc84287bc5e88357" target="_top" xlink:title="Wator.breed">
<polygon fill="white" stroke="black" points="161,-278.5 161,-297.5 235,-297.5 235,-278.5 161,-278.5"/>
<text text-anchor="middle" x="198" y="-285.5" font-family="Helvetica,sans-Serif" font-size="10.00">Wator.breed</text>
</a>
</g>
</g>
<!-- Node1&#45;&gt;Node3 -->
<g id="edge2" class="edge"><title>Node1&#45;&gt;Node3</title>
<path fill="none" stroke="midnightblue" d="M54.8631,-221.64C69.4388,-233.087 95.2844,-252.12 120,-264 129.755,-268.689 140.639,-272.734 151.081,-276.097"/>
<polygon fill="midnightblue" stroke="midnightblue" points="150.319,-279.524 160.906,-279.111 152.372,-272.832 150.319,-279.524"/>
</g>
<!-- Node8 -->
<g id="node8" class="node"><title>Node8</title>
<g id="a_node8"><a xlink:href="../../de/d70/class_fish.html#a01a85441ee77bd4ea5c517daadbd913f" target="_top" xlink:title="Fish.canBreed">
<polygon fill="white" stroke="black" points="156.5,-316.5 156.5,-335.5 239.5,-335.5 239.5,-316.5 156.5,-316.5"/>
<text text-anchor="middle" x="198" y="-323.5" font-family="Helvetica,sans-Serif" font-size="10.00">Fish.canBreed</text>
</a>
</g>
</g>
<!-- Node1&#45;&gt;Node8 -->
<g id="edge7" class="edge"><title>Node1&#45;&gt;Node8</title>
<path fill="none" stroke="midnightblue" d="M47.9178,-221.533C58.3983,-240.856 84.8732,-284.693 120,-307 127.938,-312.041 137.121,-315.745 146.32,-318.466"/>
<polygon fill="midnightblue" stroke="midnightblue" points="145.69,-321.919 156.25,-321.05 147.453,-315.144 145.69,-321.919"/>
</g>
<!-- Node9 -->
<g id="node9" class="node"><title>Node9</title>
<g id="a_node9"><a xlink:href="../../da/d74/class_grid.html#a43e84876ecfc5265a5e37a39e64e794e" target="_top" xlink:title="Grid.findNeighbors">
<polygon fill="white" stroke="black" points="145.5,-354.5 145.5,-373.5 250.5,-373.5 250.5,-354.5 145.5,-354.5"/>
<text text-anchor="middle" x="198" y="-361.5" font-family="Helvetica,sans-Serif" font-size="10.00">Grid.findNeighbors</text>
</a>
</g>
</g>
<!-- Node1&#45;&gt;Node9 -->
<g id="edge8" class="edge"><title>Node1&#45;&gt;Node9</title>
<path fill="none" stroke="midnightblue" d="M45.7423,-221.823C53.1955,-246.63 76.2585,-312.162 120,-345 124.726,-348.548 130.032,-351.441 135.591,-353.797"/>
<polygon fill="midnightblue" stroke="midnightblue" points="134.532,-357.137 145.126,-357.28 136.933,-350.562 134.532,-357.137"/>
</g>
<!-- Node15 -->
<g id="node15" class="node"><title>Node15</title>
<g id="a_node15"><a xlink:href="../../dc/d06/class_mover.html#adf476a60dad6e0feb9bedb3f6af313b5" target="_top" xlink:title="Mover.getCell">
<polygon fill="white" stroke="black" points="344.5,-166.5 344.5,-185.5 425.5,-185.5 425.5,-166.5 344.5,-166.5"/>
<text text-anchor="middle" x="385" y="-173.5" font-family="Helvetica,sans-Serif" font-size="10.00">Mover.getCell</text>
</a>
</g>
</g>
<!-- Node1&#45;&gt;Node15 -->
<g id="edge14" class="edge"><title>Node1&#45;&gt;Node15</title>
<path fill="none" stroke="midnightblue" d="M74.1499,-221.506C88.0395,-225.27 104.691,-229.139 120,-231 188.827,-239.366 208.581,-247.178 276,-231 284.585,-228.94 328.334,-205.941 357.449,-190.344"/>
<polygon fill="midnightblue" stroke="midnightblue" points="359.172,-193.391 366.325,-185.576 355.859,-187.225 359.172,-193.391"/>
</g>
<!-- Node16 -->
<g id="node16" class="node"><title>Node16</title>
<g id="a_node16"><a xlink:href="../../d2/d40/class_cellular_automata.html#a34ceed434c942d34ff03169b92684726" target="_top" xlink:title="CellularAutomata.getGrid">
<polygon fill="white" stroke="black" points="129,-202.5 129,-221.5 267,-221.5 267,-202.5 129,-202.5"/>
<text text-anchor="middle" x="198" y="-209.5" font-family="Helvetica,sans-Serif" font-size="10.00">CellularAutomata.getGrid</text>
</a>
</g>
</g>
<!-- Node1&#45;&gt;Node16 -->
<g id="edge15" class="edge"><title>Node1&#45;&gt;Node16</title>
<path fill="none" stroke="midnightblue" d="M83.8649,-212C94.6553,-212 106.67,-212 118.727,-212"/>
<polygon fill="midnightblue" stroke="midnightblue" points="118.838,-215.5 128.838,-212 118.838,-208.5 118.838,-215.5"/>
</g>
<!-- Node17 -->
<g id="node17" class="node"><title>Node17</title>
<g id="a_node17"><a xlink:href="../../da/de8/class_move_cellular_automata.html#a51d0684d1393a9ad01e371119f37c039" target="_top" xlink:title="MoveCellularAutomata.get\lRandomCell">
<polygon fill="white" stroke="black" points="126,-153 126,-183 270,-183 270,-153 126,-153"/>
<text text-anchor="start" x="134" y="-171" font-family="Helvetica,sans-Serif" font-size="10.00">MoveCellularAutomata.get</text>
<text text-anchor="middle" x="198" y="-160" font-family="Helvetica,sans-Serif" font-size="10.00">RandomCell</text>
</a>
</g>
</g>
<!-- Node1&#45;&gt;Node17 -->
<g id="edge16" class="edge"><title>Node1&#45;&gt;Node17</title>
<path fill="none" stroke="midnightblue" d="M76.4157,-202.453C93.4447,-197.587 114.714,-191.51 134.629,-185.82"/>
<polygon fill="midnightblue" stroke="midnightblue" points="135.618,-189.178 144.271,-183.065 133.694,-182.447 135.618,-189.178"/>
</g>
<!-- Node18 -->
<g id="node18" class="node"><title>Node18</title>
<g id="a_node18"><a xlink:href="../../dd/d11/class_cell.html#aac3ac473652b817fe344534f4bec7e6f" target="_top" xlink:title="Cell.getState">
<polygon fill="white" stroke="black" points="158.5,-114.5 158.5,-133.5 237.5,-133.5 237.5,-114.5 158.5,-114.5"/>
<text text-anchor="middle" x="198" y="-121.5" font-family="Helvetica,sans-Serif" font-size="10.00">Cell.getState</text>
</a>
</g>
</g>
<!-- Node1&#45;&gt;Node18 -->
<g id="edge17" class="edge"><title>Node1&#45;&gt;Node18</title>
<path fill="none" stroke="midnightblue" d="M50.9172,-202.359C63.7971,-187.328 90.8007,-158.436 120,-143 128.856,-138.319 138.897,-134.763 148.734,-132.073"/>
<polygon fill="midnightblue" stroke="midnightblue" points="149.59,-135.466 158.452,-129.66 147.903,-128.673 149.59,-135.466"/>
</g>
<!-- Node19 -->
<g id="node19" class="node"><title>Node19</title>
<g id="a_node19"><a xlink:href="../../dc/d06/class_mover.html#a52bee7a2004ca1e44356ce6c5867a2fc" target="_top" xlink:title="Mover.isState">
<polygon fill="white" stroke="black" points="157,-76.5 157,-95.5 239,-95.5 239,-76.5 157,-76.5"/>
<text text-anchor="middle" x="198" y="-83.5" font-family="Helvetica,sans-Serif" font-size="10.00">Mover.isState</text>
</a>
</g>
</g>
<!-- Node1&#45;&gt;Node19 -->
<g id="edge18" class="edge"><title>Node1&#45;&gt;Node19</title>
<path fill="none" stroke="midnightblue" d="M47.1405,-202.242C56.6698,-181.015 82.2693,-130.508 120,-105 128.043,-99.5627 137.496,-95.6792 146.973,-92.9061"/>
<polygon fill="midnightblue" stroke="midnightblue" points="147.975,-96.2627 156.799,-90.3996 146.245,-89.4799 147.975,-96.2627"/>
</g>
<!-- Node20 -->
<g id="node20" class="node"><title>Node20</title>
<g id="a_node20"><a xlink:href="../../da/de8/class_move_cellular_automata.html#a90e79ebdb8723f3674bd90a264a143b8" target="_top" xlink:title="MoveCellularAutomata.move">
<polygon fill="white" stroke="black" points="120.5,-38.5 120.5,-57.5 275.5,-57.5 275.5,-38.5 120.5,-38.5"/>
<text text-anchor="middle" x="198" y="-45.5" font-family="Helvetica,sans-Serif" font-size="10.00">MoveCellularAutomata.move</text>
</a>
</g>
</g>
<!-- Node1&#45;&gt;Node20 -->
<g id="edge19" class="edge"><title>Node1&#45;&gt;Node20</title>
<path fill="none" stroke="midnightblue" d="M45.175,-202.464C51.6357,-176.394 73.2473,-103.456 120,-67 122.341,-65.1744 124.834,-63.5215 127.437,-62.0252"/>
<polygon fill="midnightblue" stroke="midnightblue" points="129.204,-65.0571 136.648,-57.5177 126.127,-58.7696 129.204,-65.0571"/>
</g>
<!-- Node25 -->
<g id="node25" class="node"><title>Node25</title>
<g id="a_node25"><a xlink:href="../../de/d70/class_fish.html#a3968096ff7e7ecdfc63783894c3bda33" target="_top" xlink:title="Fish.surviveTurn">
<polygon fill="white" stroke="black" points="152.5,-0.5 152.5,-19.5 243.5,-19.5 243.5,-0.5 152.5,-0.5"/>
<text text-anchor="middle" x="198" y="-7.5" font-family="Helvetica,sans-Serif" font-size="10.00">Fish.surviveTurn</text>
</a>
</g>
</g>
<!-- Node1&#45;&gt;Node25 -->
<g id="edge26" class="edge"><title>Node1&#45;&gt;Node25</title>
<path fill="none" stroke="midnightblue" d="M44.0637,-202.283C47.9459,-171.711 64.1895,-76.7015 120,-29 126.47,-23.4702 134.304,-19.5031 142.468,-16.6665"/>
<polygon fill="midnightblue" stroke="midnightblue" points="143.528,-20.0028 152.139,-13.8298 141.558,-13.2858 143.528,-20.0028"/>
</g>
<!-- Node4 -->
<g id="node4" class="node"><title>Node4</title>
<g id="a_node4"><a xlink:href="../../da/de8/class_move_cellular_automata.html#a9be2acf22d28c48fe4551940af37e454" target="_top" xlink:title="MoveCellularAutomata.add\lNewMover">
<polygon fill="white" stroke="black" points="312,-273 312,-303 458,-303 458,-273 312,-273"/>
<text text-anchor="start" x="320" y="-291" font-family="Helvetica,sans-Serif" font-size="10.00">MoveCellularAutomata.add</text>
<text text-anchor="middle" x="385" y="-280" font-family="Helvetica,sans-Serif" font-size="10.00">NewMover</text>
</a>
</g>
</g>
<!-- Node3&#45;&gt;Node4 -->
<g id="edge3" class="edge"><title>Node3&#45;&gt;Node4</title>
<path fill="none" stroke="midnightblue" d="M235.109,-288C254.161,-288 278.375,-288 301.711,-288"/>
<polygon fill="midnightblue" stroke="midnightblue" points="301.994,-291.5 311.994,-288 301.994,-284.5 301.994,-291.5"/>
</g>
<!-- Node5 -->
<g id="node5" class="node"><title>Node5</title>
<g id="a_node5"><a xlink:href="../../de/d70/class_fish.html#a8a5f5246900a3d430f62267e5346384b" target="_top" xlink:title="Fish.breed">
<polygon fill="white" stroke="black" points="352.5,-224.5 352.5,-243.5 417.5,-243.5 417.5,-224.5 352.5,-224.5"/>
<text text-anchor="middle" x="385" y="-231.5" font-family="Helvetica,sans-Serif" font-size="10.00">Fish.breed</text>
</a>
</g>
</g>
<!-- Node3&#45;&gt;Node5 -->
<g id="edge4" class="edge"><title>Node3&#45;&gt;Node5</title>
<path fill="none" stroke="midnightblue" d="M231.648,-278.47C262.482,-269.47 308.865,-255.931 342.35,-246.157"/>
<polygon fill="midnightblue" stroke="midnightblue" points="343.677,-249.416 352.296,-243.254 341.716,-242.696 343.677,-249.416"/>
</g>
<!-- Node6 -->
<g id="node6" class="node"><title>Node6</title>
<g id="a_node6"><a xlink:href="../../de/d70/class_fish.html#af61b5d1f8872e5e3f744c1593d70ac69" target="_top" xlink:title="Fish.Fish">
<polygon fill="white" stroke="black" points="518,-224.5 518,-243.5 574,-243.5 574,-224.5 518,-224.5"/>
<text text-anchor="middle" x="546" y="-231.5" font-family="Helvetica,sans-Serif" font-size="10.00">Fish.Fish</text>
</a>
</g>
</g>
<!-- Node5&#45;&gt;Node6 -->
<g id="edge5" class="edge"><title>Node5&#45;&gt;Node6</title>
<path fill="none" stroke="midnightblue" d="M417.794,-234C443.636,-234 480.149,-234 507.432,-234"/>
<polygon fill="midnightblue" stroke="midnightblue" points="507.762,-237.5 517.762,-234 507.762,-230.5 507.762,-237.5"/>
</g>
<!-- Node7 -->
<g id="node7" class="node"><title>Node7</title>
<g id="a_node7"><a xlink:href="../../dc/d06/class_mover.html#aa8711e427647a7c980d42a89588270ba" target="_top" xlink:title="Mover.getState">
<polygon fill="white" stroke="black" points="501,-106.5 501,-125.5 591,-125.5 591,-106.5 501,-106.5"/>
<text text-anchor="middle" x="546" y="-113.5" font-family="Helvetica,sans-Serif" font-size="10.00">Mover.getState</text>
</a>
</g>
</g>
<!-- Node5&#45;&gt;Node7 -->
<g id="edge6" class="edge"><title>Node5&#45;&gt;Node7</title>
<path fill="none" stroke="midnightblue" d="M406.636,-224.48C421.468,-217.248 441.649,-206.595 458,-195 484.602,-176.136 511.902,-150.03 528.657,-133.08"/>
<polygon fill="midnightblue" stroke="midnightblue" points="531.509,-135.168 535.986,-125.566 526.498,-130.281 531.509,-135.168"/>
</g>
<!-- Node10 -->
<g id="node10" class="node"><title>Node10</title>
<g id="a_node10"><a xlink:href="../../da/d74/class_grid.html#a33b84a1d6b40a447bdd4a33fa3daf555" target="_top" xlink:title="Grid.getNeighbors">
<polygon fill="white" stroke="black" points="333,-354.5 333,-373.5 437,-373.5 437,-354.5 333,-354.5"/>
<text text-anchor="middle" x="385" y="-361.5" font-family="Helvetica,sans-Serif" font-size="10.00">Grid.getNeighbors</text>
</a>
</g>
</g>
<!-- Node9&#45;&gt;Node10 -->
<g id="edge9" class="edge"><title>Node9&#45;&gt;Node10</title>
<path fill="none" stroke="midnightblue" d="M250.533,-364C272.885,-364 299.236,-364 322.593,-364"/>
<polygon fill="midnightblue" stroke="midnightblue" points="322.744,-367.5 332.744,-364 322.744,-360.5 322.744,-367.5"/>
</g>
<!-- Node11 -->
<g id="node11" class="node"><title>Node11</title>
<g id="a_node11"><a xlink:href="../../da/d74/class_grid.html#ab87098d7bfaf1eaf367e4342a5bce0ae" target="_top" xlink:title="Grid.checkBounds">
<polygon fill="white" stroke="black" points="494.5,-411.5 494.5,-430.5 597.5,-430.5 597.5,-411.5 494.5,-411.5"/>
<text text-anchor="middle" x="546" y="-418.5" font-family="Helvetica,sans-Serif" font-size="10.00">Grid.checkBounds</text>
</a>
</g>
</g>
<!-- Node10&#45;&gt;Node11 -->
<g id="edge10" class="edge"><title>Node10&#45;&gt;Node11</title>
<path fill="none" stroke="midnightblue" d="M412.613,-373.541C438.983,-382.994 479.56,-397.54 508.84,-408.037"/>
<polygon fill="midnightblue" stroke="midnightblue" points="507.706,-411.348 518.3,-411.428 510.068,-404.759 507.706,-411.348"/>
</g>
<!-- Node12 -->
<g id="node12" class="node"><title>Node12</title>
<g id="a_node12"><a xlink:href="../../dd/d11/class_cell.html#a4725094202cf38c727f2adcc3cf8b96f" target="_top" xlink:title="Cell.getPosX">
<polygon fill="white" stroke="black" points="508,-373.5 508,-392.5 584,-392.5 584,-373.5 508,-373.5"/>
<text text-anchor="middle" x="546" y="-380.5" font-family="Helvetica,sans-Serif" font-size="10.00">Cell.getPosX</text>
</a>
</g>
</g>
<!-- Node10&#45;&gt;Node12 -->
<g id="edge11" class="edge"><title>Node10&#45;&gt;Node12</title>
<path fill="none" stroke="midnightblue" d="M437.184,-370.116C456.576,-372.434 478.554,-375.06 497.584,-377.334"/>
<polygon fill="midnightblue" stroke="midnightblue" points="497.182,-380.811 507.527,-378.522 498.013,-373.86 497.182,-380.811"/>
</g>
<!-- Node13 -->
<g id="node13" class="node"><title>Node13</title>
<g id="a_node13"><a xlink:href="../../dd/d11/class_cell.html#ac445ab365d1ec19483e98841be73d11e" target="_top" xlink:title="Cell.getPosY">
<polygon fill="white" stroke="black" points="508.5,-335.5 508.5,-354.5 583.5,-354.5 583.5,-335.5 508.5,-335.5"/>
<text text-anchor="middle" x="546" y="-342.5" font-family="Helvetica,sans-Serif" font-size="10.00">Cell.getPosY</text>
</a>
</g>
</g>
<!-- Node10&#45;&gt;Node13 -->
<g id="edge12" class="edge"><title>Node10&#45;&gt;Node13</title>
<path fill="none" stroke="midnightblue" d="M437.184,-357.884C456.73,-355.548 478.903,-352.898 498.036,-350.612"/>
<polygon fill="midnightblue" stroke="midnightblue" points="498.512,-354.08 508.026,-349.418 497.681,-347.13 498.512,-354.08"/>
</g>
<!-- Node14 -->
<g id="node14" class="node"><title>Node14</title>
<g id="a_node14"><a xlink:href="../../da/d74/class_grid.html#a669941947881f795a6ab4a70adf05172" target="_top" xlink:title="Grid.getTorusPoint">
<polygon fill="white" stroke="black" points="494,-297.5 494,-316.5 598,-316.5 598,-297.5 494,-297.5"/>
<text text-anchor="middle" x="546" y="-304.5" font-family="Helvetica,sans-Serif" font-size="10.00">Grid.getTorusPoint</text>
</a>
</g>
</g>
<!-- Node10&#45;&gt;Node14 -->
<g id="edge13" class="edge"><title>Node10&#45;&gt;Node14</title>
<path fill="none" stroke="midnightblue" d="M412.613,-354.459C438.983,-345.006 479.56,-330.46 508.84,-319.963"/>
<polygon fill="midnightblue" stroke="midnightblue" points="510.068,-323.241 518.3,-316.572 507.706,-316.652 510.068,-323.241"/>
</g>
<!-- Node20&#45;&gt;Node7 -->
<g id="edge21" class="edge"><title>Node20&#45;&gt;Node7</title>
<path fill="none" stroke="midnightblue" d="M242.686,-57.5194C263.631,-62.0217 289.091,-67.4048 312,-72 373.105,-84.257 443.424,-97.4049 490.689,-106.103"/>
<polygon fill="midnightblue" stroke="midnightblue" points="490.24,-109.579 500.708,-107.944 491.505,-102.695 490.24,-109.579"/>
</g>
<!-- Node20&#45;&gt;Node15 -->
<g id="edge20" class="edge"><title>Node20&#45;&gt;Node15</title>
<path fill="none" stroke="midnightblue" d="M255.828,-57.541C262.915,-60.0037 269.831,-63.1021 276,-67 297.361,-80.4962 294.573,-92.7046 312,-111 328.7,-128.532 349.353,-146.875 364.251,-159.587"/>
<polygon fill="midnightblue" stroke="midnightblue" points="362.386,-162.593 372.284,-166.372 366.903,-157.245 362.386,-162.593"/>
</g>
<!-- Node21 -->
<g id="node21" class="node"><title>Node21</title>
<g id="a_node21"><a xlink:href="../../dc/d06/class_mover.html#a074c563641e724872aa0274000ddb0a0" target="_top" xlink:title="Mover.move">
<polygon fill="white" stroke="black" points="347.5,-5.5 347.5,-24.5 422.5,-24.5 422.5,-5.5 347.5,-5.5"/>
<text text-anchor="middle" x="385" y="-12.5" font-family="Helvetica,sans-Serif" font-size="10.00">Mover.move</text>
</a>
</g>
</g>
<!-- Node20&#45;&gt;Node21 -->
<g id="edge22" class="edge"><title>Node20&#45;&gt;Node21</title>
<path fill="none" stroke="midnightblue" d="M252.51,-38.455C279.359,-33.6657 311.573,-27.9194 337.396,-23.3132"/>
<polygon fill="midnightblue" stroke="midnightblue" points="338.084,-26.7458 347.313,-21.5441 336.854,-19.8546 338.084,-26.7458"/>
</g>
<!-- Node22 -->
<g id="node22" class="node"><title>Node22</title>
<g id="a_node22"><a xlink:href="../../dd/d11/class_cell.html#aaaf321e273ef5b6ac3fae80e36d19629" target="_top" xlink:title="Cell.setState">
<polygon fill="white" stroke="black" points="346,-43.5 346,-62.5 424,-62.5 424,-43.5 346,-43.5"/>
<text text-anchor="middle" x="385" y="-50.5" font-family="Helvetica,sans-Serif" font-size="10.00">Cell.setState</text>
</a>
</g>
</g>
<!-- Node20&#45;&gt;Node22 -->
<g id="edge23" class="edge"><title>Node20&#45;&gt;Node22</title>
<path fill="none" stroke="midnightblue" d="M275.582,-50.0698C295.952,-50.6203 317.384,-51.1996 335.764,-51.6963"/>
<polygon fill="midnightblue" stroke="midnightblue" points="335.828,-55.1992 345.918,-51.9708 336.017,-48.2018 335.828,-55.1992"/>
</g>
<!-- Node23 -->
<g id="node23" class="node"><title>Node23</title>
<g id="a_node23"><a xlink:href="../../dd/d11/class_cell.html#a6ddc434a1826fac1599a7d901ff2d162" target="_top" xlink:title="Cell.setNextState">
<polygon fill="white" stroke="black" points="495.5,-62.5 495.5,-81.5 596.5,-81.5 596.5,-62.5 495.5,-62.5"/>
<text text-anchor="middle" x="546" y="-69.5" font-family="Helvetica,sans-Serif" font-size="10.00">Cell.setNextState</text>
</a>
</g>
</g>
<!-- Node22&#45;&gt;Node23 -->
<g id="edge24" class="edge"><title>Node22&#45;&gt;Node23</title>
<path fill="none" stroke="midnightblue" d="M424.084,-57.551C442.397,-59.7393 464.777,-62.4136 485.282,-64.8639"/>
<polygon fill="midnightblue" stroke="midnightblue" points="485.141,-68.3719 495.486,-66.0832 485.972,-61.4213 485.141,-68.3719"/>
</g>
<!-- Node24 -->
<g id="node24" class="node"><title>Node24</title>
<g id="a_node24"><a xlink:href="../../dd/d11/class_cell.html#adfc3c76d1f230a143057441eb6eabb62" target="_top" xlink:title="Cell.update">
<polygon fill="white" stroke="black" points="510.5,-24.5 510.5,-43.5 581.5,-43.5 581.5,-24.5 510.5,-24.5"/>
<text text-anchor="middle" x="546" y="-31.5" font-family="Helvetica,sans-Serif" font-size="10.00">Cell.update</text>
</a>
</g>
</g>
<!-- Node22&#45;&gt;Node24 -->
<g id="edge25" class="edge"><title>Node22&#45;&gt;Node24</title>
<path fill="none" stroke="midnightblue" d="M424.084,-48.449C447.076,-45.7017 476.478,-42.1881 500.532,-39.3138"/>
<polygon fill="midnightblue" stroke="midnightblue" points="500.965,-42.787 510.479,-38.1251 500.135,-35.8364 500.965,-42.787"/>
</g>
</g>
</svg>
