<?xml version="1.0" encoding="UTF-8" standalone="no"?>
<!DOCTYPE svg PUBLIC "-//W3C//DTD SVG 1.1//EN"
 "http://www.w3.org/Graphics/SVG/1.1/DTD/svg11.dtd">
<!-- Generated by graphviz version 2.36.0 (20140111.2315)
 -->
<!-- Title: Wator.checkRules Pages: 1 -->
<svg width="750pt" height="496pt"
 viewBox="0.00 0.00 750.00 496.00" xmlns="http://www.w3.org/2000/svg" xmlns:xlink="http://www.w3.org/1999/xlink">
<g id="graph0" class="graph" transform="scale(1 1) rotate(0) translate(4 492)">
<title>Wator.checkRules</title>
<polygon fill="white" stroke="none" points="-4,4 -4,-492 746,-492 746,4 -4,4"/>
<!-- Node1 -->
<g id="node1" class="node"><title>Node1</title>
<polygon fill="#bfbfbf" stroke="black" points="0,-256.5 0,-275.5 98,-275.5 98,-256.5 0,-256.5"/>
<text text-anchor="middle" x="49" y="-263.5" font-family="Helvetica,sans-Serif" font-size="10.00">Wator.checkRules</text>
</g>
<!-- Node2 -->
<g id="node2" class="node"><title>Node2</title>
<g id="a_node2"><a xlink:href="../../d0/db0/class_wator.html#a0afccb8f97e33c1d21e51ee1a3f4922b" target="_top" xlink:title="Wator.ruleOne">
<polygon fill="white" stroke="black" points="134.5,-285.5 134.5,-304.5 217.5,-304.5 217.5,-285.5 134.5,-285.5"/>
<text text-anchor="middle" x="176" y="-292.5" font-family="Helvetica,sans-Serif" font-size="10.00">Wator.ruleOne</text>
</a>
</g>
</g>
<!-- Node1&#45;&gt;Node2 -->
<g id="edge1" class="edge"><title>Node1&#45;&gt;Node2</title>
<path fill="none" stroke="midnightblue" d="M91.2761,-275.576C101.839,-278.027 113.319,-280.69 124.295,-283.236"/>
<polygon fill="midnightblue" stroke="midnightblue" points="123.661,-286.682 134.193,-285.533 125.243,-279.863 123.661,-286.682"/>
</g>
<!-- Node23 -->
<g id="node23" class="node"><title>Node23</title>
<g id="a_node23"><a xlink:href="../../d0/db0/class_wator.html#aa8dba59120d9d6d7d7521f3a4ee7b454" target="_top" xlink:title="Wator.ruleTwo">
<polygon fill="white" stroke="black" points="136,-209.5 136,-228.5 216,-228.5 216,-209.5 136,-209.5"/>
<text text-anchor="middle" x="176" y="-216.5" font-family="Helvetica,sans-Serif" font-size="10.00">Wator.ruleTwo</text>
</a>
</g>
</g>
<!-- Node1&#45;&gt;Node23 -->
<g id="edge23" class="edge"><title>Node1&#45;&gt;Node23</title>
<path fill="none" stroke="midnightblue" d="M75.2956,-256.489C93.8102,-249.527 119.173,-239.991 139.685,-232.279"/>
<polygon fill="midnightblue" stroke="midnightblue" points="141.185,-235.454 149.313,-228.658 138.721,-228.902 141.185,-235.454"/>
</g>
<!-- Node3 -->
<g id="node3" class="node"><title>Node3</title>
<g id="a_node3"><a xlink:href="../../dc/d06/class_mover.html#a52bee7a2004ca1e44356ce6c5867a2fc" target="_top" xlink:title="Mover.isState">
<polygon fill="white" stroke="black" points="296,-266.5 296,-285.5 378,-285.5 378,-266.5 296,-266.5"/>
<text text-anchor="middle" x="337" y="-273.5" font-family="Helvetica,sans-Serif" font-size="10.00">Mover.isState</text>
</a>
</g>
</g>
<!-- Node2&#45;&gt;Node3 -->
<g id="edge2" class="edge"><title>Node2&#45;&gt;Node3</title>
<path fill="none" stroke="midnightblue" d="M217.534,-290.156C238.265,-287.679 263.692,-284.641 285.667,-282.015"/>
<polygon fill="midnightblue" stroke="midnightblue" points="286.302,-285.464 295.816,-280.802 285.471,-278.513 286.302,-285.464"/>
</g>
<!-- Node4 -->
<g id="node4" class="node"><title>Node4</title>
<g id="a_node4"><a xlink:href="../../dc/d06/class_mover.html#adf476a60dad6e0feb9bedb3f6af313b5" target="_top" xlink:title="Mover.getCell">
<polygon fill="white" stroke="black" points="488.5,-202.5 488.5,-221.5 569.5,-221.5 569.5,-202.5 488.5,-202.5"/>
<text text-anchor="middle" x="529" y="-209.5" font-family="Helvetica,sans-Serif" font-size="10.00">Mover.getCell</text>
</a>
</g>
</g>
<!-- Node2&#45;&gt;Node4 -->
<g id="edge3" class="edge"><title>Node2&#45;&gt;Node4</title>
<path fill="none" stroke="midnightblue" d="M179.418,-304.513C186.234,-329.059 208.159,-394.398 254,-420 318.413,-455.975 363.16,-467.036 420,-420 485.879,-365.485 397.681,-293.537 456,-231 462.086,-224.474 470.124,-220.086 478.619,-217.157"/>
<polygon fill="midnightblue" stroke="midnightblue" points="479.642,-220.505 488.325,-214.435 477.752,-213.766 479.642,-220.505"/>
</g>
<!-- Node5 -->
<g id="node5" class="node"><title>Node5</title>
<g id="a_node5"><a xlink:href="../../dd/d11/class_cell.html#aac3ac473652b817fe344534f4bec7e6f" target="_top" xlink:title="Cell.getState">
<polygon fill="white" stroke="black" points="297.5,-468.5 297.5,-487.5 376.5,-487.5 376.5,-468.5 297.5,-468.5"/>
<text text-anchor="middle" x="337" y="-475.5" font-family="Helvetica,sans-Serif" font-size="10.00">Cell.getState</text>
</a>
</g>
</g>
<!-- Node2&#45;&gt;Node5 -->
<g id="edge4" class="edge"><title>Node2&#45;&gt;Node5</title>
<path fill="none" stroke="midnightblue" d="M178.802,-304.526C184.516,-332.055 204.832,-412.395 254,-454 263.466,-462.01 275.493,-467.347 287.4,-470.904"/>
<polygon fill="midnightblue" stroke="midnightblue" points="286.754,-474.353 297.314,-473.493 288.523,-467.58 286.754,-474.353"/>
</g>
<!-- Node6 -->
<g id="node6" class="node"><title>Node6</title>
<g id="a_node6"><a xlink:href="../../da/de8/class_move_cellular_automata.html#a55d8abb0f5031aef2b1ef469ee2bba48" target="_top" xlink:title="MoveCellularAutomata.remove\lMover">
<polygon fill="white" stroke="black" points="254.5,-381 254.5,-411 419.5,-411 419.5,-381 254.5,-381"/>
<text text-anchor="start" x="262.5" y="-399" font-family="Helvetica,sans-Serif" font-size="10.00">MoveCellularAutomata.remove</text>
<text text-anchor="middle" x="337" y="-388" font-family="Helvetica,sans-Serif" font-size="10.00">Mover</text>
</a>
</g>
</g>
<!-- Node2&#45;&gt;Node6 -->
<g id="edge5" class="edge"><title>Node2&#45;&gt;Node6</title>
<path fill="none" stroke="midnightblue" d="M184.19,-304.669C196.649,-320.755 223.827,-353.02 254,-371 257.596,-373.143 261.391,-375.116 265.299,-376.932"/>
<polygon fill="midnightblue" stroke="midnightblue" points="264.009,-380.187 274.58,-380.888 266.754,-373.747 264.009,-380.187"/>
</g>
<!-- Node7 -->
<g id="node7" class="node"><title>Node7</title>
<g id="a_node7"><a xlink:href="../../de/d70/class_fish.html#a3968096ff7e7ecdfc63783894c3bda33" target="_top" xlink:title="Fish.surviveTurn">
<polygon fill="white" stroke="black" points="291.5,-190.5 291.5,-209.5 382.5,-209.5 382.5,-190.5 291.5,-190.5"/>
<text text-anchor="middle" x="337" y="-197.5" font-family="Helvetica,sans-Serif" font-size="10.00">Fish.surviveTurn</text>
</a>
</g>
</g>
<!-- Node2&#45;&gt;Node7 -->
<g id="edge6" class="edge"><title>Node2&#45;&gt;Node7</title>
<path fill="none" stroke="midnightblue" d="M183.865,-285.367C196.04,-269.035 223.067,-236.031 254,-219 262.456,-214.345 272.007,-210.827 281.526,-208.169"/>
<polygon fill="midnightblue" stroke="midnightblue" points="282.537,-211.524 291.387,-205.699 280.836,-204.734 282.537,-211.524"/>
</g>
<!-- Node8 -->
<g id="node8" class="node"><title>Node8</title>
<g id="a_node8"><a xlink:href="../../d2/d40/class_cellular_automata.html#a34ceed434c942d34ff03169b92684726" target="_top" xlink:title="CellularAutomata.getGrid">
<polygon fill="white" stroke="black" points="268,-304.5 268,-323.5 406,-323.5 406,-304.5 268,-304.5"/>
<text text-anchor="middle" x="337" y="-311.5" font-family="Helvetica,sans-Serif" font-size="10.00">CellularAutomata.getGrid</text>
</a>
</g>
</g>
<!-- Node2&#45;&gt;Node8 -->
<g id="edge7" class="edge"><title>Node2&#45;&gt;Node8</title>
<path fill="none" stroke="midnightblue" d="M217.534,-299.844C229.824,-301.312 243.765,-302.978 257.658,-304.638"/>
<polygon fill="midnightblue" stroke="midnightblue" points="257.398,-308.132 267.743,-305.843 258.228,-301.182 257.398,-308.132"/>
</g>
<!-- Node9 -->
<g id="node9" class="node"><title>Node9</title>
<g id="a_node9"><a xlink:href="../../da/d74/class_grid.html#a43e84876ecfc5265a5e37a39e64e794e" target="_top" xlink:title="Grid.findNeighbors">
<polygon fill="white" stroke="black" points="284.5,-342.5 284.5,-361.5 389.5,-361.5 389.5,-342.5 284.5,-342.5"/>
<text text-anchor="middle" x="337" y="-349.5" font-family="Helvetica,sans-Serif" font-size="10.00">Grid.findNeighbors</text>
</a>
</g>
</g>
<!-- Node2&#45;&gt;Node9 -->
<g id="edge8" class="edge"><title>Node2&#45;&gt;Node9</title>
<path fill="none" stroke="midnightblue" d="M193.634,-304.613C208.907,-313.095 232.38,-325.278 254,-333 261.257,-335.592 269.004,-337.923 276.731,-339.989"/>
<polygon fill="midnightblue" stroke="midnightblue" points="275.915,-343.393 286.469,-342.466 277.64,-336.609 275.915,-343.393"/>
</g>
<!-- Node15 -->
<g id="node15" class="node"><title>Node15</title>
<g id="a_node15"><a xlink:href="../../da/de8/class_move_cellular_automata.html#a813e13cff0ced9cf21fd55e7980069d8" target="_top" xlink:title="MoveCellularAutomata.move">
<polygon fill="white" stroke="black" points="259.5,-228.5 259.5,-247.5 414.5,-247.5 414.5,-228.5 259.5,-228.5"/>
<text text-anchor="middle" x="337" y="-235.5" font-family="Helvetica,sans-Serif" font-size="10.00">MoveCellularAutomata.move</text>
</a>
</g>
</g>
<!-- Node2&#45;&gt;Node15 -->
<g id="edge14" class="edge"><title>Node2&#45;&gt;Node15</title>
<path fill="none" stroke="midnightblue" d="M193.634,-285.387C208.907,-276.905 232.38,-264.722 254,-257 261.257,-254.408 269.004,-252.077 276.731,-250.011"/>
<polygon fill="midnightblue" stroke="midnightblue" points="277.64,-253.391 286.469,-247.534 275.915,-246.607 277.64,-253.391"/>
</g>
<!-- Node17 -->
<g id="node17" class="node"><title>Node17</title>
<g id="a_node17"><a xlink:href="../../d0/db0/class_wator.html#a48bebe2ccefc55d2e433578eb0c22684" target="_top" xlink:title="Wator.breedIfCan">
<polygon fill="white" stroke="black" points="288,-114.5 288,-133.5 386,-133.5 386,-114.5 288,-114.5"/>
<text text-anchor="middle" x="337" y="-121.5" font-family="Helvetica,sans-Serif" font-size="10.00">Wator.breedIfCan</text>
</a>
</g>
</g>
<!-- Node2&#45;&gt;Node17 -->
<g id="edge16" class="edge"><title>Node2&#45;&gt;Node17</title>
<path fill="none" stroke="midnightblue" d="M184.144,-285.443C192.469,-274.22 206.548,-254.978 218,-238 234.756,-213.16 233.286,-202.649 254,-181 270.181,-164.088 292.1,-149.162 309.205,-138.83"/>
<polygon fill="midnightblue" stroke="midnightblue" points="311.295,-141.662 318.145,-133.579 307.75,-135.626 311.295,-141.662"/>
</g>
<!-- Node10 -->
<g id="node10" class="node"><title>Node10</title>
<g id="a_node10"><a xlink:href="../../da/d74/class_grid.html#a33b84a1d6b40a447bdd4a33fa3daf555" target="_top" xlink:title="Grid.getNeighbors">
<polygon fill="white" stroke="black" points="477,-342.5 477,-361.5 581,-361.5 581,-342.5 477,-342.5"/>
<text text-anchor="middle" x="529" y="-349.5" font-family="Helvetica,sans-Serif" font-size="10.00">Grid.getNeighbors</text>
</a>
</g>
</g>
<!-- Node9&#45;&gt;Node10 -->
<g id="edge9" class="edge"><title>Node9&#45;&gt;Node10</title>
<path fill="none" stroke="midnightblue" d="M389.667,-352C413.426,-352 441.788,-352 466.627,-352"/>
<polygon fill="midnightblue" stroke="midnightblue" points="466.672,-355.5 476.672,-352 466.672,-348.5 466.672,-355.5"/>
</g>
<!-- Node11 -->
<g id="node11" class="node"><title>Node11</title>
<g id="a_node11"><a xlink:href="../../da/d74/class_grid.html#ab87098d7bfaf1eaf367e4342a5bce0ae" target="_top" xlink:title="Grid.checkBounds">
<polygon fill="white" stroke="black" points="638.5,-323.5 638.5,-342.5 741.5,-342.5 741.5,-323.5 638.5,-323.5"/>
<text text-anchor="middle" x="690" y="-330.5" font-family="Helvetica,sans-Serif" font-size="10.00">Grid.checkBounds</text>
</a>
</g>
</g>
<!-- Node10&#45;&gt;Node11 -->
<g id="edge10" class="edge"><title>Node10&#45;&gt;Node11</title>
<path fill="none" stroke="midnightblue" d="M581.184,-345.884C596.227,-344.086 612.826,-342.103 628.398,-340.242"/>
<polygon fill="midnightblue" stroke="midnightblue" points="628.942,-343.702 638.456,-339.04 628.111,-336.751 628.942,-343.702"/>
</g>
<!-- Node12 -->
<g id="node12" class="node"><title>Node12</title>
<g id="a_node12"><a xlink:href="../../dd/d11/class_cell.html#a4725094202cf38c727f2adcc3cf8b96f" target="_top" xlink:title="Cell.getPosX">
<polygon fill="white" stroke="black" points="652,-285.5 652,-304.5 728,-304.5 728,-285.5 652,-285.5"/>
<text text-anchor="middle" x="690" y="-292.5" font-family="Helvetica,sans-Serif" font-size="10.00">Cell.getPosX</text>
</a>
</g>
</g>
<!-- Node10&#45;&gt;Node12 -->
<g id="edge11" class="edge"><title>Node10&#45;&gt;Node12</title>
<path fill="none" stroke="midnightblue" d="M556.613,-342.459C582.983,-333.006 623.56,-318.46 652.84,-307.963"/>
<polygon fill="midnightblue" stroke="midnightblue" points="654.068,-311.241 662.3,-304.572 651.706,-304.652 654.068,-311.241"/>
</g>
<!-- Node13 -->
<g id="node13" class="node"><title>Node13</title>
<g id="a_node13"><a xlink:href="../../dd/d11/class_cell.html#ac445ab365d1ec19483e98841be73d11e" target="_top" xlink:title="Cell.getPosY">
<polygon fill="white" stroke="black" points="652.5,-399.5 652.5,-418.5 727.5,-418.5 727.5,-399.5 652.5,-399.5"/>
<text text-anchor="middle" x="690" y="-406.5" font-family="Helvetica,sans-Serif" font-size="10.00">Cell.getPosY</text>
</a>
</g>
</g>
<!-- Node10&#45;&gt;Node13 -->
<g id="edge12" class="edge"><title>Node10&#45;&gt;Node13</title>
<path fill="none" stroke="midnightblue" d="M556.613,-361.541C582.983,-370.994 623.56,-385.54 652.84,-396.037"/>
<polygon fill="midnightblue" stroke="midnightblue" points="651.706,-399.348 662.3,-399.428 654.068,-392.759 651.706,-399.348"/>
</g>
<!-- Node14 -->
<g id="node14" class="node"><title>Node14</title>
<g id="a_node14"><a xlink:href="../../da/d74/class_grid.html#a669941947881f795a6ab4a70adf05172" target="_top" xlink:title="Grid.getTorusPoint">
<polygon fill="white" stroke="black" points="638,-361.5 638,-380.5 742,-380.5 742,-361.5 638,-361.5"/>
<text text-anchor="middle" x="690" y="-368.5" font-family="Helvetica,sans-Serif" font-size="10.00">Grid.getTorusPoint</text>
</a>
</g>
</g>
<!-- Node10&#45;&gt;Node14 -->
<g id="edge13" class="edge"><title>Node10&#45;&gt;Node14</title>
<path fill="none" stroke="midnightblue" d="M581.184,-358.116C596.078,-359.896 612.497,-361.858 627.935,-363.703"/>
<polygon fill="midnightblue" stroke="midnightblue" points="627.567,-367.184 637.912,-364.895 628.398,-360.233 627.567,-367.184"/>
</g>
<!-- Node16 -->
<g id="node16" class="node"><title>Node16</title>
<g id="a_node16"><a xlink:href="../../da/de8/class_move_cellular_automata.html#a51d0684d1393a9ad01e371119f37c039" target="_top" xlink:title="MoveCellularAutomata.get\lRandomCell">
<polygon fill="white" stroke="black" points="457,-241 457,-271 601,-271 601,-241 457,-241"/>
<text text-anchor="start" x="465" y="-259" font-family="Helvetica,sans-Serif" font-size="10.00">MoveCellularAutomata.get</text>
<text text-anchor="middle" x="529" y="-248" font-family="Helvetica,sans-Serif" font-size="10.00">RandomCell</text>
</a>
</g>
</g>
<!-- Node15&#45;&gt;Node16 -->
<g id="edge15" class="edge"><title>Node15&#45;&gt;Node16</title>
<path fill="none" stroke="midnightblue" d="M414.733,-245.269C425.269,-246.268 436.117,-247.295 446.732,-248.301"/>
<polygon fill="midnightblue" stroke="midnightblue" points="446.534,-251.798 456.819,-249.257 447.194,-244.829 446.534,-251.798"/>
</g>
<!-- Node17&#45;&gt;Node4 -->
<g id="edge22" class="edge"><title>Node17&#45;&gt;Node4</title>
<path fill="none" stroke="midnightblue" d="M386.095,-132.883C397.801,-136.409 409.859,-141.284 420,-148 441.067,-161.95 434.838,-178.195 456,-192 462.875,-196.485 470.75,-199.974 478.711,-202.687"/>
<polygon fill="midnightblue" stroke="midnightblue" points="477.817,-206.073 488.402,-205.625 479.847,-199.374 477.817,-206.073"/>
</g>
<!-- Node18 -->
<g id="node18" class="node"><title>Node18</title>
<g id="a_node18"><a xlink:href="../../da/de8/class_move_cellular_automata.html#a1661ace25a08d9cb4bec54bfde40424e" target="_top" xlink:title="MoveCellularAutomata.add\lMover">
<polygon fill="white" stroke="black" points="456,-153 456,-183 602,-183 602,-153 456,-153"/>
<text text-anchor="start" x="464" y="-171" font-family="Helvetica,sans-Serif" font-size="10.00">MoveCellularAutomata.add</text>
<text text-anchor="middle" x="529" y="-160" font-family="Helvetica,sans-Serif" font-size="10.00">Mover</text>
</a>
</g>
</g>
<!-- Node17&#45;&gt;Node18 -->
<g id="edge17" class="edge"><title>Node17&#45;&gt;Node18</title>
<path fill="none" stroke="midnightblue" d="M379.227,-133.547C400.81,-138.545 427.914,-144.822 453.055,-150.644"/>
<polygon fill="midnightblue" stroke="midnightblue" points="452.413,-154.088 462.945,-152.935 453.992,-147.269 452.413,-154.088"/>
</g>
<!-- Node19 -->
<g id="node19" class="node"><title>Node19</title>
<g id="a_node19"><a xlink:href="../../de/d70/class_fish.html#a535d760406f22ba01ecebddd1e790367" target="_top" xlink:title="Fish.breed">
<polygon fill="white" stroke="black" points="496.5,-114.5 496.5,-133.5 561.5,-133.5 561.5,-114.5 496.5,-114.5"/>
<text text-anchor="middle" x="529" y="-121.5" font-family="Helvetica,sans-Serif" font-size="10.00">Fish.breed</text>
</a>
</g>
</g>
<!-- Node17&#45;&gt;Node19 -->
<g id="edge18" class="edge"><title>Node17&#45;&gt;Node19</title>
<path fill="none" stroke="midnightblue" d="M386.437,-124C417.184,-124 456.576,-124 485.997,-124"/>
<polygon fill="midnightblue" stroke="midnightblue" points="486.35,-127.5 496.35,-124 486.35,-120.5 486.35,-127.5"/>
</g>
<!-- Node22 -->
<g id="node22" class="node"><title>Node22</title>
<g id="a_node22"><a xlink:href="../../de/d70/class_fish.html#a156fed0c3982df2b3e70d9d539b49bab" target="_top" xlink:title="Fish.canBreed">
<polygon fill="white" stroke="black" points="487.5,-76.5 487.5,-95.5 570.5,-95.5 570.5,-76.5 487.5,-76.5"/>
<text text-anchor="middle" x="529" y="-83.5" font-family="Helvetica,sans-Serif" font-size="10.00">Fish.canBreed</text>
</a>
</g>
</g>
<!-- Node17&#45;&gt;Node22 -->
<g id="edge21" class="edge"><title>Node17&#45;&gt;Node22</title>
<path fill="none" stroke="midnightblue" d="M385.945,-114.411C413.849,-108.83 449,-101.8 477.353,-96.1293"/>
<polygon fill="midnightblue" stroke="midnightblue" points="478.347,-99.5001 487.466,-94.1068 476.974,-92.636 478.347,-99.5001"/>
</g>
<!-- Node20 -->
<g id="node20" class="node"><title>Node20</title>
<g id="a_node20"><a xlink:href="../../de/d70/class_fish.html#af5297bf144c3850a7128aaf986ac61bc" target="_top" xlink:title="Fish.Fish">
<polygon fill="white" stroke="black" points="662,-133.5 662,-152.5 718,-152.5 718,-133.5 662,-133.5"/>
<text text-anchor="middle" x="690" y="-140.5" font-family="Helvetica,sans-Serif" font-size="10.00">Fish.Fish</text>
</a>
</g>
</g>
<!-- Node19&#45;&gt;Node20 -->
<g id="edge19" class="edge"><title>Node19&#45;&gt;Node20</title>
<path fill="none" stroke="midnightblue" d="M561.794,-127.799C587.75,-130.901 624.472,-135.289 651.793,-138.554"/>
<polygon fill="midnightblue" stroke="midnightblue" points="651.418,-142.034 661.762,-139.745 652.248,-135.083 651.418,-142.034"/>
</g>
<!-- Node21 -->
<g id="node21" class="node"><title>Node21</title>
<g id="a_node21"><a xlink:href="../../dc/d06/class_mover.html#aa8711e427647a7c980d42a89588270ba" target="_top" xlink:title="Mover.getState">
<polygon fill="white" stroke="black" points="645,-95.5 645,-114.5 735,-114.5 735,-95.5 645,-95.5"/>
<text text-anchor="middle" x="690" y="-102.5" font-family="Helvetica,sans-Serif" font-size="10.00">Mover.getState</text>
</a>
</g>
</g>
<!-- Node19&#45;&gt;Node21 -->
<g id="edge20" class="edge"><title>Node19&#45;&gt;Node21</title>
<path fill="none" stroke="midnightblue" d="M561.794,-120.201C582.649,-117.709 610.455,-114.386 634.75,-111.483"/>
<polygon fill="midnightblue" stroke="midnightblue" points="635.403,-114.93 644.917,-110.268 634.572,-107.979 635.403,-114.93"/>
</g>
<!-- Node23&#45;&gt;Node3 -->
<g id="edge24" class="edge"><title>Node23&#45;&gt;Node3</title>
<path fill="none" stroke="midnightblue" d="M193.634,-228.613C208.907,-237.095 232.38,-249.278 254,-257 264.116,-260.613 275.183,-263.718 285.822,-266.308"/>
<polygon fill="midnightblue" stroke="midnightblue" points="285.313,-269.783 295.845,-268.634 286.895,-262.964 285.313,-269.783"/>
</g>
<!-- Node23&#45;&gt;Node4 -->
<g id="edge25" class="edge"><title>Node23&#45;&gt;Node4</title>
<path fill="none" stroke="midnightblue" d="M191.285,-209.438C206.198,-200.077 230.627,-186.453 254,-181 325.848,-164.236 347.032,-170.101 420,-181 436.547,-183.472 439.939,-187.316 456,-192 464.687,-194.533 473.985,-197.171 482.917,-199.668"/>
<polygon fill="midnightblue" stroke="midnightblue" points="482.22,-203.107 492.793,-202.414 484.096,-196.363 482.22,-203.107"/>
</g>
<!-- Node23&#45;&gt;Node6 -->
<g id="edge28" class="edge"><title>Node23&#45;&gt;Node6</title>
<path fill="none" stroke="midnightblue" d="M185.089,-228.572C194.028,-239.499 208.425,-258.173 218,-276 239.365,-315.778 221.032,-340.148 254,-371 255.678,-372.57 257.451,-374.041 259.303,-375.421"/>
<polygon fill="midnightblue" stroke="midnightblue" points="257.557,-378.458 267.867,-380.896 261.327,-372.561 257.557,-378.458"/>
</g>
<!-- Node23&#45;&gt;Node7 -->
<g id="edge26" class="edge"><title>Node23&#45;&gt;Node7</title>
<path fill="none" stroke="midnightblue" d="M216.303,-214.303C235.824,-211.971 259.732,-209.114 281.034,-206.568"/>
<polygon fill="midnightblue" stroke="midnightblue" points="281.738,-210.009 291.252,-205.347 280.907,-203.059 281.738,-210.009"/>
</g>
<!-- Node23&#45;&gt;Node8 -->
<g id="edge32" class="edge"><title>Node23&#45;&gt;Node8</title>
<path fill="none" stroke="midnightblue" d="M183.865,-228.633C196.04,-244.965 223.067,-277.969 254,-295 258.18,-297.302 262.629,-299.325 267.208,-301.104"/>
<polygon fill="midnightblue" stroke="midnightblue" points="266.155,-304.443 276.75,-304.423 268.455,-297.832 266.155,-304.443"/>
</g>
<!-- Node23&#45;&gt;Node9 -->
<g id="edge33" class="edge"><title>Node23&#45;&gt;Node9</title>
<path fill="none" stroke="midnightblue" d="M184.144,-228.557C192.469,-239.78 206.548,-259.022 218,-276 234.756,-300.84 229.572,-315.649 254,-333 260.143,-337.363 267.138,-340.74 274.393,-343.35"/>
<polygon fill="midnightblue" stroke="midnightblue" points="273.803,-346.831 284.391,-346.455 275.879,-340.146 273.803,-346.831"/>
</g>
<!-- Node23&#45;&gt;Node15 -->
<g id="edge34" class="edge"><title>Node23&#45;&gt;Node15</title>
<path fill="none" stroke="midnightblue" d="M216.303,-223.697C226.403,-224.904 237.678,-226.251 249.159,-227.623"/>
<polygon fill="midnightblue" stroke="midnightblue" points="248.932,-231.12 259.276,-228.832 249.762,-224.17 248.932,-231.12"/>
</g>
<!-- Node23&#45;&gt;Node17 -->
<g id="edge36" class="edge"><title>Node23&#45;&gt;Node17</title>
<path fill="none" stroke="midnightblue" d="M184.936,-209.22C197.841,-193.945 224.879,-164.474 254,-148 262.059,-143.441 271.063,-139.678 280.073,-136.595"/>
<polygon fill="midnightblue" stroke="midnightblue" points="281.331,-139.868 289.806,-133.51 279.216,-133.195 281.331,-139.868"/>
</g>
<!-- Node24 -->
<g id="node24" class="node"><title>Node24</title>
<g id="a_node24"><a xlink:href="../../de/d70/class_fish.html#aa5804684bba5583b9faf970c6b491858" target="_top" xlink:title="Fish.checkEnergy">
<polygon fill="white" stroke="black" points="288,-76.5 288,-95.5 386,-95.5 386,-76.5 288,-76.5"/>
<text text-anchor="middle" x="337" y="-83.5" font-family="Helvetica,sans-Serif" font-size="10.00">Fish.checkEnergy</text>
</a>
</g>
</g>
<!-- Node23&#45;&gt;Node24 -->
<g id="edge27" class="edge"><title>Node23&#45;&gt;Node24</title>
<path fill="none" stroke="midnightblue" d="M180.657,-209.241C189.533,-186.962 214.44,-132.194 254,-105 261.262,-100.008 269.653,-96.3135 278.238,-93.5823"/>
<polygon fill="midnightblue" stroke="midnightblue" points="279.26,-96.9312 287.964,-90.8902 277.392,-90.1849 279.26,-96.9312"/>
</g>
<!-- Node25 -->
<g id="node25" class="node"><title>Node25</title>
<g id="a_node25"><a xlink:href="../../dd/d11/class_cell.html#aaaf321e273ef5b6ac3fae80e36d19629" target="_top" xlink:title="Cell.setState">
<polygon fill="white" stroke="black" points="298,-38.5 298,-57.5 376,-57.5 376,-38.5 298,-38.5"/>
<text text-anchor="middle" x="337" y="-45.5" font-family="Helvetica,sans-Serif" font-size="10.00">Cell.setState</text>
</a>
</g>
</g>
<!-- Node23&#45;&gt;Node25 -->
<g id="edge29" class="edge"><title>Node23&#45;&gt;Node25</title>
<path fill="none" stroke="midnightblue" d="M178.913,-209.368C184.811,-182.316 205.34,-105.14 254,-67 263.704,-59.3937 275.919,-54.7373 287.936,-51.9127"/>
<polygon fill="midnightblue" stroke="midnightblue" points="288.788,-55.3121 297.924,-49.9462 287.436,-48.444 288.788,-55.3121"/>
</g>
<!-- Node28 -->
<g id="node28" class="node"><title>Node28</title>
<g id="a_node28"><a xlink:href="../../de/d70/class_fish.html#a001edab1fb594ba54fcdf37d5bbdacb9" target="_top" xlink:title="Fish.eat">
<polygon fill="white" stroke="black" points="310.5,-0.5 310.5,-19.5 363.5,-19.5 363.5,-0.5 310.5,-0.5"/>
<text text-anchor="middle" x="337" y="-7.5" font-family="Helvetica,sans-Serif" font-size="10.00">Fish.eat</text>
</a>
</g>
</g>
<!-- Node23&#45;&gt;Node28 -->
<g id="edge35" class="edge"><title>Node23&#45;&gt;Node28</title>
<path fill="none" stroke="midnightblue" d="M177.86,-209.329C181.187,-177.999 196.076,-78.4587 254,-29 266.763,-18.1024 284.577,-13.1586 300.342,-11.0198"/>
<polygon fill="midnightblue" stroke="midnightblue" points="300.746,-14.4968 310.332,-9.98503 300.025,-7.53403 300.746,-14.4968"/>
</g>
<!-- Node26 -->
<g id="node26" class="node"><title>Node26</title>
<g id="a_node26"><a xlink:href="../../dd/d11/class_cell.html#a6ddc434a1826fac1599a7d901ff2d162" target="_top" xlink:title="Cell.setNextState">
<polygon fill="white" stroke="black" points="478.5,-38.5 478.5,-57.5 579.5,-57.5 579.5,-38.5 478.5,-38.5"/>
<text text-anchor="middle" x="529" y="-45.5" font-family="Helvetica,sans-Serif" font-size="10.00">Cell.setNextState</text>
</a>
</g>
</g>
<!-- Node25&#45;&gt;Node26 -->
<g id="edge30" class="edge"><title>Node25&#45;&gt;Node26</title>
<path fill="none" stroke="midnightblue" d="M376.449,-48C402.736,-48 438.105,-48 468.062,-48"/>
<polygon fill="midnightblue" stroke="midnightblue" points="468.409,-51.5001 478.409,-48 468.409,-44.5001 468.409,-51.5001"/>
</g>
<!-- Node27 -->
<g id="node27" class="node"><title>Node27</title>
<g id="a_node27"><a xlink:href="../../dd/d11/class_cell.html#adfc3c76d1f230a143057441eb6eabb62" target="_top" xlink:title="Cell.update">
<polygon fill="white" stroke="black" points="493.5,-0.5 493.5,-19.5 564.5,-19.5 564.5,-0.5 493.5,-0.5"/>
<text text-anchor="middle" x="529" y="-7.5" font-family="Helvetica,sans-Serif" font-size="10.00">Cell.update</text>
</a>
</g>
</g>
<!-- Node25&#45;&gt;Node27 -->
<g id="edge31" class="edge"><title>Node25&#45;&gt;Node27</title>
<path fill="none" stroke="midnightblue" d="M376.449,-40.3101C407.368,-34.1263 450.853,-25.4294 483.318,-18.9365"/>
<polygon fill="midnightblue" stroke="midnightblue" points="484.322,-22.3051 493.441,-16.9118 482.949,-15.441 484.322,-22.3051"/>
</g>
</g>
</svg>
