<?xml version="1.0" encoding="UTF-8" standalone="no"?>
<!DOCTYPE svg PUBLIC "-//W3C//DTD SVG 1.1//EN"
 "http://www.w3.org/Graphics/SVG/1.1/DTD/svg11.dtd">
<!-- Generated by graphviz version 2.36.0 (20140111.2315)
 -->
<!-- Title: Wator.checkRules Pages: 1 -->
<!--zoomable 669 -->
<svg id="main" version="1.1" xmlns="http://www.w3.org/2000/svg" xmlns:xlink="http://www.w3.org/1999/xlink" xml:space="preserve" onload="init(evt)">
<style type="text/css"><![CDATA[
.edge:hover path { stroke: red; }
.edge:hover polygon { stroke: red; fill: red; }
]]></style>
<script type="text/javascript"><![CDATA[
var edges = document.getElementsByTagName('g');
if (edges && edges.length) {
  for (var i=0;i<edges.length;i++) {
    if (edges[i].id.substr(0,4)=='edge') {
      edges[i].setAttribute('class','edge');
    }
  }
}
]]></script>
        <defs>
                <circle id="rim" cx="0" cy="0" r="7"/>
                <circle id="rim2" cx="0" cy="0" r="3.5"/>
                <g id="zoomPlus">
                        <use xlink:href="#rim" fill="#404040">
                                <set attributeName="fill" to="#808080" begin="zoomplus.mouseover" end="zoomplus.mouseout"/>
                        </use>
                        <path d="M-4,0h8M0,-4v8" fill="none" stroke="white" stroke-width="1.5" pointer-events="none"/>
                </g>
                <g id="zoomMin">
                        <use xlink:href="#rim" fill="#404040">
                                <set attributeName="fill" to="#808080" begin="zoomminus.mouseover" end="zoomminus.mouseout"/>
                        </use>
                        <path d="M-4,0h8" fill="none" stroke="white" stroke-width="1.5" pointer-events="none"/>
                </g>
                <g id="dirArrow">
                        <path fill="none" stroke="white" stroke-width="1.5" d="M0,-3.0v7 M-2.5,-0.5L0,-3.0L2.5,-0.5"/>
                </g>
               <g id="resetDef">
                       <use xlink:href="#rim2" fill="#404040">
                               <set attributeName="fill" to="#808080" begin="reset.mouseover" end="reset.mouseout"/>
                       </use>
               </g>
        </defs>

<script type="text/javascript">
var viewWidth = 740;
var viewHeight = 669;
var sectionId = 'dynsection-5';
</script>
<script xlink:href="../../svgpan.js"/>
<svg id="graph" class="graph">
<g id="viewport">
<title>Wator.checkRules</title>
<polygon fill="white" stroke="none" points="-4,4 -4,-665 736,-665 736,4 -4,4"/>
<!-- Node1 -->
<g id="node1" class="node"><title>Node1</title>
<polygon fill="#bfbfbf" stroke="black" points="0,-330.5 0,-349.5 98,-349.5 98,-330.5 0,-330.5"/>
<text text-anchor="middle" x="49" y="-337.5" font-family="Helvetica,sans-Serif" font-size="10.00">Wator.checkRules</text>
</g>
<!-- Node2 -->
<g id="node2" class="node"><title>Node2</title>
<g id="a_node2"><a xlink:href="../../d0/db0/class_wator.html#a0afccb8f97e33c1d21e51ee1a3f4922b" target="_top" xlink:title="Wator.ruleOne">
<polygon fill="white" stroke="black" points="134.5,-382.5 134.5,-401.5 217.5,-401.5 217.5,-382.5 134.5,-382.5"/>
<text text-anchor="middle" x="176" y="-389.5" font-family="Helvetica,sans-Serif" font-size="10.00">Wator.ruleOne</text>
</a>
</g>
</g>
<!-- Node1&#45;&gt;Node2 -->
<g id="edge1" class="edge"><title>Node1&#45;&gt;Node2</title>
<path fill="none" stroke="midnightblue" d="M72.9269,-349.538C92.3633,-357.623 120.473,-369.317 142.276,-378.387"/>
<polygon fill="midnightblue" stroke="midnightblue" points="141.218,-381.737 151.795,-382.347 143.906,-375.274 141.218,-381.737"/>
</g>
<!-- Node27 -->
<g id="node27" class="node"><title>Node27</title>
<g id="a_node27"><a xlink:href="../../d0/db0/class_wator.html#aa8dba59120d9d6d7d7521f3a4ee7b454" target="_top" xlink:title="Wator.ruleTwo">
<polygon fill="white" stroke="black" points="136,-278.5 136,-297.5 216,-297.5 216,-278.5 136,-278.5"/>
<text text-anchor="middle" x="176" y="-285.5" font-family="Helvetica,sans-Serif" font-size="10.00">Wator.ruleTwo</text>
</a>
</g>
</g>
<!-- Node1&#45;&gt;Node27 -->
<g id="edge28" class="edge"><title>Node1&#45;&gt;Node27</title>
<path fill="none" stroke="midnightblue" d="M72.9269,-330.462C92.3633,-322.377 120.473,-310.683 142.276,-301.613"/>
<polygon fill="midnightblue" stroke="midnightblue" points="143.906,-304.726 151.795,-297.653 141.218,-298.263 143.906,-304.726"/>
</g>
<!-- Node3 -->
<g id="node3" class="node"><title>Node3</title>
<g id="a_node3"><a xlink:href="../../dc/d06/class_mover.html#a52bee7a2004ca1e44356ce6c5867a2fc" target="_top" xlink:title="Mover.isState">
<polygon fill="white" stroke="black" points="291,-442.5 291,-461.5 373,-461.5 373,-442.5 291,-442.5"/>
<text text-anchor="middle" x="332" y="-449.5" font-family="Helvetica,sans-Serif" font-size="10.00">Mover.isState</text>
</a>
</g>
</g>
<!-- Node2&#45;&gt;Node3 -->
<g id="edge2" class="edge"><title>Node2&#45;&gt;Node3</title>
<path fill="none" stroke="midnightblue" d="M192.388,-401.664C207.559,-410.832 231.652,-424.445 254,-433 262.593,-436.29 271.947,-439.157 281.079,-441.597"/>
<polygon fill="midnightblue" stroke="midnightblue" points="280.301,-445.011 290.855,-444.078 282.023,-438.226 280.301,-445.011"/>
</g>
<!-- Node4 -->
<g id="node4" class="node"><title>Node4</title>
<g id="a_node4"><a xlink:href="../../dc/d06/class_mover.html#adf476a60dad6e0feb9bedb3f6af313b5" target="_top" xlink:title="Mover.getCell">
<polygon fill="white" stroke="black" points="478.5,-228.5 478.5,-247.5 559.5,-247.5 559.5,-228.5 478.5,-228.5"/>
<text text-anchor="middle" x="519" y="-235.5" font-family="Helvetica,sans-Serif" font-size="10.00">Mover.getCell</text>
</a>
</g>
</g>
<!-- Node2&#45;&gt;Node4 -->
<g id="edge3" class="edge"><title>Node2&#45;&gt;Node4</title>
<path fill="none" stroke="midnightblue" d="M182.678,-401.664C193.746,-419.418 220.117,-456.71 254,-471 317.884,-497.943 351.568,-508.32 410,-471 486.196,-422.335 509.444,-304.573 515.817,-257.713"/>
<polygon fill="midnightblue" stroke="midnightblue" points="519.308,-258.002 517.07,-247.646 512.362,-257.138 519.308,-258.002"/>
</g>
<!-- Node5 -->
<g id="node5" class="node"><title>Node5</title>
<g id="a_node5"><a xlink:href="../../dd/d11/class_cell.html#aac3ac473652b817fe344534f4bec7e6f" target="_top" xlink:title="Cell.getState">
<polygon fill="white" stroke="black" points="292.5,-594.5 292.5,-613.5 371.5,-613.5 371.5,-594.5 292.5,-594.5"/>
<text text-anchor="middle" x="332" y="-601.5" font-family="Helvetica,sans-Serif" font-size="10.00">Cell.getState</text>
</a>
</g>
</g>
<!-- Node2&#45;&gt;Node5 -->
<g id="edge4" class="edge"><title>Node2&#45;&gt;Node5</title>
<path fill="none" stroke="midnightblue" d="M177.837,-401.786C181.091,-433.496 195.785,-534.295 254,-585 262.026,-591.99 272.225,-596.491 282.553,-599.369"/>
<polygon fill="midnightblue" stroke="midnightblue" points="281.896,-602.81 292.428,-601.659 283.477,-595.991 281.896,-602.81"/>
</g>
<!-- Node6 -->
<g id="node6" class="node"><title>Node6</title>
<g id="a_node6"><a xlink:href="../../da/de8/class_move_cellular_automata.html#a9347828c2d21393d75afa8b5f0409794" target="_top" xlink:title="MoveCellularAutomata.add\lToRemove">
<polygon fill="white" stroke="black" points="259,-355 259,-385 405,-385 405,-355 259,-355"/>
<text text-anchor="start" x="267" y="-373" font-family="Helvetica,sans-Serif" font-size="10.00">MoveCellularAutomata.add</text>
<text text-anchor="middle" x="332" y="-362" font-family="Helvetica,sans-Serif" font-size="10.00">ToRemove</text>
</a>
</g>
</g>
<!-- Node2&#45;&gt;Node6 -->
<g id="edge5" class="edge"><title>Node2&#45;&gt;Node6</title>
<path fill="none" stroke="midnightblue" d="M217.865,-386.162C227.553,-384.778 238.227,-383.253 249.033,-381.71"/>
<polygon fill="midnightblue" stroke="midnightblue" points="249.564,-385.169 258.969,-380.29 248.574,-378.24 249.564,-385.169"/>
</g>
<!-- Node7 -->
<g id="node7" class="node"><title>Node7</title>
<g id="a_node7"><a xlink:href="../../de/d70/class_fish.html#a3968096ff7e7ecdfc63783894c3bda33" target="_top" xlink:title="Fish.surviveTurn">
<polygon fill="white" stroke="black" points="286.5,-316.5 286.5,-335.5 377.5,-335.5 377.5,-316.5 286.5,-316.5"/>
<text text-anchor="middle" x="332" y="-323.5" font-family="Helvetica,sans-Serif" font-size="10.00">Fish.surviveTurn</text>
</a>
</g>
</g>
<!-- Node2&#45;&gt;Node7 -->
<g id="edge6" class="edge"><title>Node2&#45;&gt;Node7</title>
<path fill="none" stroke="midnightblue" d="M189.961,-382.367C204.751,-371.796 230.003,-355.004 254,-345 261.149,-342.02 268.874,-339.432 276.576,-337.208"/>
<polygon fill="midnightblue" stroke="midnightblue" points="277.537,-340.574 286.276,-334.583 275.708,-333.817 277.537,-340.574"/>
</g>
<!-- Node8 -->
<g id="node8" class="node"><title>Node8</title>
<g id="a_node8"><a xlink:href="../../d2/d40/class_cellular_automata.html#a34ceed434c942d34ff03169b92684726" target="_top" xlink:title="CellularAutomata.getGrid">
<polygon fill="white" stroke="black" points="263,-278.5 263,-297.5 401,-297.5 401,-278.5 263,-278.5"/>
<text text-anchor="middle" x="332" y="-285.5" font-family="Helvetica,sans-Serif" font-size="10.00">CellularAutomata.getGrid</text>
</a>
</g>
</g>
<!-- Node2&#45;&gt;Node8 -->
<g id="edge7" class="edge"><title>Node2&#45;&gt;Node8</title>
<path fill="none" stroke="midnightblue" d="M182.877,-382.394C194.276,-364.613 221.177,-326.601 254,-307 257.657,-304.816 261.555,-302.882 265.582,-301.171"/>
<polygon fill="midnightblue" stroke="midnightblue" points="267.034,-304.364 275.16,-297.565 264.568,-297.813 267.034,-304.364"/>
</g>
<!-- Node9 -->
<g id="node9" class="node"><title>Node9</title>
<g id="a_node9"><a xlink:href="../../da/d74/class_grid.html#a43e84876ecfc5265a5e37a39e64e794e" target="_top" xlink:title="Grid.findNeighbors">
<polygon fill="white" stroke="black" points="279.5,-556.5 279.5,-575.5 384.5,-575.5 384.5,-556.5 279.5,-556.5"/>
<text text-anchor="middle" x="332" y="-563.5" font-family="Helvetica,sans-Serif" font-size="10.00">Grid.findNeighbors</text>
</a>
</g>
</g>
<!-- Node2&#45;&gt;Node9 -->
<g id="edge8" class="edge"><title>Node2&#45;&gt;Node9</title>
<path fill="none" stroke="midnightblue" d="M178.879,-401.783C184.688,-429.265 205.005,-507.717 254,-547 258.68,-550.752 263.996,-553.777 269.598,-556.215"/>
<polygon fill="midnightblue" stroke="midnightblue" points="268.638,-559.592 279.231,-559.786 271.071,-553.028 268.638,-559.592"/>
</g>
<!-- Node15 -->
<g id="node15" class="node"><title>Node15</title>
<g id="a_node15"><a xlink:href="../../da/de8/class_move_cellular_automata.html#a51d0684d1393a9ad01e371119f37c039" target="_top" xlink:title="MoveCellularAutomata.get\lRandomCell">
<polygon fill="white" stroke="black" points="260,-229 260,-259 404,-259 404,-229 260,-229"/>
<text text-anchor="start" x="268" y="-247" font-family="Helvetica,sans-Serif" font-size="10.00">MoveCellularAutomata.get</text>
<text text-anchor="middle" x="332" y="-236" font-family="Helvetica,sans-Serif" font-size="10.00">RandomCell</text>
</a>
</g>
</g>
<!-- Node2&#45;&gt;Node15 -->
<g id="edge14" class="edge"><title>Node2&#45;&gt;Node15</title>
<path fill="none" stroke="midnightblue" d="M180.35,-382.413C188.889,-359.371 213.683,-300.465 254,-269 256.415,-267.115 258.977,-265.37 261.644,-263.755"/>
<polygon fill="midnightblue" stroke="midnightblue" points="263.305,-266.835 270.463,-259.024 259.996,-260.667 263.305,-266.835"/>
</g>
<!-- Node16 -->
<g id="node16" class="node"><title>Node16</title>
<g id="a_node16"><a xlink:href="../../da/de8/class_move_cellular_automata.html#a90e79ebdb8723f3674bd90a264a143b8" target="_top" xlink:title="MoveCellularAutomata.move">
<polygon fill="white" stroke="black" points="254.5,-152.5 254.5,-171.5 409.5,-171.5 409.5,-152.5 254.5,-152.5"/>
<text text-anchor="middle" x="332" y="-159.5" font-family="Helvetica,sans-Serif" font-size="10.00">MoveCellularAutomata.move</text>
</a>
</g>
</g>
<!-- Node2&#45;&gt;Node16 -->
<g id="edge15" class="edge"><title>Node2&#45;&gt;Node16</title>
<path fill="none" stroke="midnightblue" d="M181.995,-382.147C189.922,-366.403 205.738,-334.54 218,-307 235.187,-268.396 228.06,-252.359 254,-219 267.611,-201.496 287.927,-186.765 304.274,-176.666"/>
<polygon fill="midnightblue" stroke="midnightblue" points="306.077,-179.666 312.879,-171.544 302.496,-173.651 306.077,-179.666"/>
</g>
<!-- Node22 -->
<g id="node22" class="node"><title>Node22</title>
<g id="a_node22"><a xlink:href="../../de/d70/class_fish.html#a01a85441ee77bd4ea5c517daadbd913f" target="_top" xlink:title="Fish.canBreed">
<polygon fill="white" stroke="black" points="290.5,-404.5 290.5,-423.5 373.5,-423.5 373.5,-404.5 290.5,-404.5"/>
<text text-anchor="middle" x="332" y="-411.5" font-family="Helvetica,sans-Serif" font-size="10.00">Fish.canBreed</text>
</a>
</g>
</g>
<!-- Node2&#45;&gt;Node22 -->
<g id="edge22" class="edge"><title>Node2&#45;&gt;Node22</title>
<path fill="none" stroke="midnightblue" d="M217.865,-397.838C237.075,-400.582 260.165,-403.881 280.462,-406.78"/>
<polygon fill="midnightblue" stroke="midnightblue" points="280.084,-410.262 290.479,-408.211 281.074,-403.332 280.084,-410.262"/>
</g>
<!-- Node23 -->
<g id="node23" class="node"><title>Node23</title>
<g id="a_node23"><a xlink:href="../../d0/db0/class_wator.html#a7b49e449f5277f27fc84287bc5e88357" target="_top" xlink:title="Wator.breed">
<polygon fill="white" stroke="black" points="295,-518.5 295,-537.5 369,-537.5 369,-518.5 295,-518.5"/>
<text text-anchor="middle" x="332" y="-525.5" font-family="Helvetica,sans-Serif" font-size="10.00">Wator.breed</text>
</a>
</g>
</g>
<!-- Node2&#45;&gt;Node23 -->
<g id="edge23" class="edge"><title>Node2&#45;&gt;Node23</title>
<path fill="none" stroke="midnightblue" d="M180.989,-401.713C190.385,-423.388 216.016,-475.994 254,-504 263.146,-510.744 274.232,-515.624 285.108,-519.144"/>
<polygon fill="midnightblue" stroke="midnightblue" points="284.397,-522.582 294.976,-522.009 286.349,-515.859 284.397,-522.582"/>
</g>
<!-- Node10 -->
<g id="node10" class="node"><title>Node10</title>
<g id="a_node10"><a xlink:href="../../da/d74/class_grid.html#a33b84a1d6b40a447bdd4a33fa3daf555" target="_top" xlink:title="Grid.getNeighbors">
<polygon fill="white" stroke="black" points="467,-565.5 467,-584.5 571,-584.5 571,-565.5 467,-565.5"/>
<text text-anchor="middle" x="519" y="-572.5" font-family="Helvetica,sans-Serif" font-size="10.00">Grid.getNeighbors</text>
</a>
</g>
</g>
<!-- Node9&#45;&gt;Node10 -->
<g id="edge9" class="edge"><title>Node9&#45;&gt;Node10</title>
<path fill="none" stroke="midnightblue" d="M384.533,-568.507C406.885,-569.594 433.236,-570.876 456.593,-572.013"/>
<polygon fill="midnightblue" stroke="midnightblue" points="456.585,-575.516 466.744,-572.506 456.925,-568.525 456.585,-575.516"/>
</g>
<!-- Node11 -->
<g id="node11" class="node"><title>Node11</title>
<g id="a_node11"><a xlink:href="../../da/d74/class_grid.html#ab87098d7bfaf1eaf367e4342a5bce0ae" target="_top" xlink:title="Grid.checkBounds">
<polygon fill="white" stroke="black" points="628.5,-527.5 628.5,-546.5 731.5,-546.5 731.5,-527.5 628.5,-527.5"/>
<text text-anchor="middle" x="680" y="-534.5" font-family="Helvetica,sans-Serif" font-size="10.00">Grid.checkBounds</text>
</a>
</g>
</g>
<!-- Node10&#45;&gt;Node11 -->
<g id="edge10" class="edge"><title>Node10&#45;&gt;Node11</title>
<path fill="none" stroke="midnightblue" d="M560.122,-565.411C581.104,-560.396 606.982,-554.212 629.23,-548.895"/>
<polygon fill="midnightblue" stroke="midnightblue" points="630.254,-552.249 639.166,-546.52 628.626,-545.44 630.254,-552.249"/>
</g>
<!-- Node12 -->
<g id="node12" class="node"><title>Node12</title>
<g id="a_node12"><a xlink:href="../../dd/d11/class_cell.html#a4725094202cf38c727f2adcc3cf8b96f" target="_top" xlink:title="Cell.getPosX">
<polygon fill="white" stroke="black" points="642,-641.5 642,-660.5 718,-660.5 718,-641.5 642,-641.5"/>
<text text-anchor="middle" x="680" y="-648.5" font-family="Helvetica,sans-Serif" font-size="10.00">Cell.getPosX</text>
</a>
</g>
</g>
<!-- Node10&#45;&gt;Node12 -->
<g id="edge11" class="edge"><title>Node10&#45;&gt;Node12</title>
<path fill="none" stroke="midnightblue" d="M536.504,-584.569C557.407,-596.487 594.72,-617.093 628,-632 632.454,-633.995 637.188,-635.959 641.906,-637.822"/>
<polygon fill="midnightblue" stroke="midnightblue" points="640.885,-641.179 651.475,-641.485 643.387,-634.642 640.885,-641.179"/>
</g>
<!-- Node13 -->
<g id="node13" class="node"><title>Node13</title>
<g id="a_node13"><a xlink:href="../../dd/d11/class_cell.html#ac445ab365d1ec19483e98841be73d11e" target="_top" xlink:title="Cell.getPosY">
<polygon fill="white" stroke="black" points="642.5,-603.5 642.5,-622.5 717.5,-622.5 717.5,-603.5 642.5,-603.5"/>
<text text-anchor="middle" x="680" y="-610.5" font-family="Helvetica,sans-Serif" font-size="10.00">Cell.getPosY</text>
</a>
</g>
</g>
<!-- Node10&#45;&gt;Node13 -->
<g id="edge12" class="edge"><title>Node10&#45;&gt;Node13</title>
<path fill="none" stroke="midnightblue" d="M560.122,-584.589C582.16,-589.856 609.599,-596.414 632.561,-601.901"/>
<polygon fill="midnightblue" stroke="midnightblue" points="631.889,-605.339 642.429,-604.26 633.516,-598.531 631.889,-605.339"/>
</g>
<!-- Node14 -->
<g id="node14" class="node"><title>Node14</title>
<g id="a_node14"><a xlink:href="../../da/d74/class_grid.html#a669941947881f795a6ab4a70adf05172" target="_top" xlink:title="Grid.getTorusPoint">
<polygon fill="white" stroke="black" points="628,-565.5 628,-584.5 732,-584.5 732,-565.5 628,-565.5"/>
<text text-anchor="middle" x="680" y="-572.5" font-family="Helvetica,sans-Serif" font-size="10.00">Grid.getTorusPoint</text>
</a>
</g>
</g>
<!-- Node10&#45;&gt;Node14 -->
<g id="edge13" class="edge"><title>Node10&#45;&gt;Node14</title>
<path fill="none" stroke="midnightblue" d="M571.184,-575C585.936,-575 602.185,-575 617.494,-575"/>
<polygon fill="midnightblue" stroke="midnightblue" points="617.912,-578.5 627.912,-575 617.912,-571.5 617.912,-578.5"/>
</g>
<!-- Node16&#45;&gt;Node4 -->
<g id="edge16" class="edge"><title>Node16&#45;&gt;Node4</title>
<path fill="none" stroke="midnightblue" d="M375.16,-171.503C386.883,-175.099 399.319,-179.856 410,-186 428.814,-196.823 426.952,-208.594 446,-219 452.94,-222.791 460.675,-225.856 468.428,-228.324"/>
<polygon fill="midnightblue" stroke="midnightblue" points="467.621,-231.734 478.2,-231.141 469.561,-225.008 467.621,-231.734"/>
</g>
<!-- Node17 -->
<g id="node17" class="node"><title>Node17</title>
<g id="a_node17"><a xlink:href="../../dc/d06/class_mover.html#aa8711e427647a7c980d42a89588270ba" target="_top" xlink:title="Mover.getState">
<polygon fill="white" stroke="black" points="635,-297.5 635,-316.5 725,-316.5 725,-297.5 635,-297.5"/>
<text text-anchor="middle" x="680" y="-304.5" font-family="Helvetica,sans-Serif" font-size="10.00">Mover.getState</text>
</a>
</g>
</g>
<!-- Node16&#45;&gt;Node17 -->
<g id="edge17" class="edge"><title>Node16&#45;&gt;Node17</title>
<path fill="none" stroke="midnightblue" d="M392.211,-152.494C447.603,-146.653 530.762,-145.949 592,-181 634.123,-205.11 660.414,-258.919 672.031,-287.802"/>
<polygon fill="midnightblue" stroke="midnightblue" points="668.793,-289.135 675.648,-297.214 675.327,-286.624 668.793,-289.135"/>
</g>
<!-- Node18 -->
<g id="node18" class="node"><title>Node18</title>
<g id="a_node18"><a xlink:href="../../dc/d06/class_mover.html#a074c563641e724872aa0274000ddb0a0" target="_top" xlink:title="Mover.move">
<polygon fill="white" stroke="black" points="481.5,-190.5 481.5,-209.5 556.5,-209.5 556.5,-190.5 481.5,-190.5"/>
<text text-anchor="middle" x="519" y="-197.5" font-family="Helvetica,sans-Serif" font-size="10.00">Mover.move</text>
</a>
</g>
</g>
<!-- Node16&#45;&gt;Node18 -->
<g id="edge18" class="edge"><title>Node16&#45;&gt;Node18</title>
<path fill="none" stroke="midnightblue" d="M379.683,-171.589C407.711,-177.346 443.247,-184.645 471.281,-190.404"/>
<polygon fill="midnightblue" stroke="midnightblue" points="470.743,-193.866 481.243,-192.45 472.151,-187.009 470.743,-193.866"/>
</g>
<!-- Node19 -->
<g id="node19" class="node"><title>Node19</title>
<g id="a_node19"><a xlink:href="../../dd/d11/class_cell.html#aaaf321e273ef5b6ac3fae80e36d19629" target="_top" xlink:title="Cell.setState">
<polygon fill="white" stroke="black" points="480,-114.5 480,-133.5 558,-133.5 558,-114.5 480,-114.5"/>
<text text-anchor="middle" x="519" y="-121.5" font-family="Helvetica,sans-Serif" font-size="10.00">Cell.setState</text>
</a>
</g>
</g>
<!-- Node16&#45;&gt;Node19 -->
<g id="edge19" class="edge"><title>Node16&#45;&gt;Node19</title>
<path fill="none" stroke="midnightblue" d="M379.683,-152.411C407.235,-146.752 442.041,-139.602 469.845,-133.891"/>
<polygon fill="midnightblue" stroke="midnightblue" points="470.654,-137.298 479.745,-131.858 469.245,-130.441 470.654,-137.298"/>
</g>
<!-- Node20 -->
<g id="node20" class="node"><title>Node20</title>
<g id="a_node20"><a xlink:href="../../dd/d11/class_cell.html#a6ddc434a1826fac1599a7d901ff2d162" target="_top" xlink:title="Cell.setNextState">
<polygon fill="white" stroke="black" points="629.5,-133.5 629.5,-152.5 730.5,-152.5 730.5,-133.5 629.5,-133.5"/>
<text text-anchor="middle" x="680" y="-140.5" font-family="Helvetica,sans-Serif" font-size="10.00">Cell.setNextState</text>
</a>
</g>
</g>
<!-- Node19&#45;&gt;Node20 -->
<g id="edge20" class="edge"><title>Node19&#45;&gt;Node20</title>
<path fill="none" stroke="midnightblue" d="M558.084,-128.551C576.397,-130.739 598.777,-133.414 619.282,-135.864"/>
<polygon fill="midnightblue" stroke="midnightblue" points="619.141,-139.372 629.486,-137.083 619.972,-132.421 619.141,-139.372"/>
</g>
<!-- Node21 -->
<g id="node21" class="node"><title>Node21</title>
<g id="a_node21"><a xlink:href="../../dd/d11/class_cell.html#adfc3c76d1f230a143057441eb6eabb62" target="_top" xlink:title="Cell.update">
<polygon fill="white" stroke="black" points="644.5,-95.5 644.5,-114.5 715.5,-114.5 715.5,-95.5 644.5,-95.5"/>
<text text-anchor="middle" x="680" y="-102.5" font-family="Helvetica,sans-Serif" font-size="10.00">Cell.update</text>
</a>
</g>
</g>
<!-- Node19&#45;&gt;Node21 -->
<g id="edge21" class="edge"><title>Node19&#45;&gt;Node21</title>
<path fill="none" stroke="midnightblue" d="M558.084,-119.449C581.076,-116.702 610.478,-113.188 634.532,-110.314"/>
<polygon fill="midnightblue" stroke="midnightblue" points="634.965,-113.787 644.479,-109.125 634.135,-106.836 634.965,-113.787"/>
</g>
<!-- Node24 -->
<g id="node24" class="node"><title>Node24</title>
<g id="a_node24"><a xlink:href="../../da/de8/class_move_cellular_automata.html#a9be2acf22d28c48fe4551940af37e454" target="_top" xlink:title="MoveCellularAutomata.add\lNewMover">
<polygon fill="white" stroke="black" points="446,-450 446,-480 592,-480 592,-450 446,-450"/>
<text text-anchor="start" x="454" y="-468" font-family="Helvetica,sans-Serif" font-size="10.00">MoveCellularAutomata.add</text>
<text text-anchor="middle" x="519" y="-457" font-family="Helvetica,sans-Serif" font-size="10.00">NewMover</text>
</a>
</g>
</g>
<!-- Node23&#45;&gt;Node24 -->
<g id="edge24" class="edge"><title>Node23&#45;&gt;Node24</title>
<path fill="none" stroke="midnightblue" d="M365.381,-518.448C379.2,-514.232 395.461,-509.086 410,-504 426.204,-498.331 429.889,-495.928 446,-490 451.868,-487.841 458.022,-485.628 464.158,-483.453"/>
<polygon fill="midnightblue" stroke="midnightblue" points="465.468,-486.702 473.739,-480.082 463.145,-480.099 465.468,-486.702"/>
</g>
<!-- Node25 -->
<g id="node25" class="node"><title>Node25</title>
<g id="a_node25"><a xlink:href="../../de/d70/class_fish.html#a8a5f5246900a3d430f62267e5346384b" target="_top" xlink:title="Fish.breed">
<polygon fill="white" stroke="black" points="486.5,-499.5 486.5,-518.5 551.5,-518.5 551.5,-499.5 486.5,-499.5"/>
<text text-anchor="middle" x="519" y="-506.5" font-family="Helvetica,sans-Serif" font-size="10.00">Fish.breed</text>
</a>
</g>
</g>
<!-- Node23&#45;&gt;Node25 -->
<g id="edge25" class="edge"><title>Node23&#45;&gt;Node25</title>
<path fill="none" stroke="midnightblue" d="M369.109,-524.292C399.852,-521.134 444.032,-516.597 476.28,-513.285"/>
<polygon fill="midnightblue" stroke="midnightblue" points="476.709,-516.759 486.299,-512.256 475.994,-509.796 476.709,-516.759"/>
</g>
<!-- Node25&#45;&gt;Node17 -->
<g id="edge27" class="edge"><title>Node25&#45;&gt;Node17</title>
<path fill="none" stroke="midnightblue" d="M551.785,-506.069C565.423,-503.422 580.768,-498.421 592,-489 643.796,-445.557 666.945,-364.151 675.2,-326.732"/>
<polygon fill="midnightblue" stroke="midnightblue" points="678.693,-327.125 677.298,-316.622 671.839,-325.702 678.693,-327.125"/>
</g>
<!-- Node26 -->
<g id="node26" class="node"><title>Node26</title>
<g id="a_node26"><a xlink:href="../../de/d70/class_fish.html#af61b5d1f8872e5e3f744c1593d70ac69" target="_top" xlink:title="Fish.Fish">
<polygon fill="white" stroke="black" points="652,-489.5 652,-508.5 708,-508.5 708,-489.5 652,-489.5"/>
<text text-anchor="middle" x="680" y="-496.5" font-family="Helvetica,sans-Serif" font-size="10.00">Fish.Fish</text>
</a>
</g>
</g>
<!-- Node25&#45;&gt;Node26 -->
<g id="edge26" class="edge"><title>Node25&#45;&gt;Node26</title>
<path fill="none" stroke="midnightblue" d="M551.794,-507C577.636,-505.375 614.149,-503.079 641.432,-501.363"/>
<polygon fill="midnightblue" stroke="midnightblue" points="642.002,-504.834 651.762,-500.713 641.562,-497.848 642.002,-504.834"/>
</g>
<!-- Node27&#45;&gt;Node3 -->
<g id="edge29" class="edge"><title>Node27&#45;&gt;Node3</title>
<path fill="none" stroke="midnightblue" d="M181.567,-297.671C196.247,-328.598 241.975,-423.623 254,-433 261.899,-439.16 271.527,-443.353 281.264,-446.2"/>
<polygon fill="midnightblue" stroke="midnightblue" points="280.426,-449.598 290.976,-448.621 282.12,-442.806 280.426,-449.598"/>
</g>
<!-- Node27&#45;&gt;Node4 -->
<g id="edge30" class="edge"><title>Node27&#45;&gt;Node4</title>
<path fill="none" stroke="midnightblue" d="M183.933,-278.278C196.014,-262.282 222.649,-230.992 254,-219 318.758,-194.23 340.929,-212.971 410,-219 429.283,-220.683 450.284,-224.026 468.598,-227.445"/>
<polygon fill="midnightblue" stroke="midnightblue" points="467.986,-230.892 478.467,-229.343 469.308,-224.018 467.986,-230.892"/>
</g>
<!-- Node27&#45;&gt;Node6 -->
<g id="edge34" class="edge"><title>Node27&#45;&gt;Node6</title>
<path fill="none" stroke="midnightblue" d="M187.72,-297.72C201.946,-310.179 228.272,-331.749 254,-345 258.303,-347.216 262.842,-349.288 267.475,-351.215"/>
<polygon fill="midnightblue" stroke="midnightblue" points="266.484,-354.586 277.072,-354.967 269.033,-348.066 266.484,-354.586"/>
</g>
<!-- Node27&#45;&gt;Node7 -->
<g id="edge31" class="edge"><title>Node27&#45;&gt;Node7</title>
<path fill="none" stroke="midnightblue" d="M215.861,-297.589C236.091,-302.581 261.021,-308.732 282.504,-314.033"/>
<polygon fill="midnightblue" stroke="midnightblue" points="281.871,-317.482 292.419,-316.48 283.548,-310.686 281.871,-317.482"/>
</g>
<!-- Node27&#45;&gt;Node8 -->
<g id="edge36" class="edge"><title>Node27&#45;&gt;Node8</title>
<path fill="none" stroke="midnightblue" d="M216.259,-288C227.439,-288 240.03,-288 252.669,-288"/>
<polygon fill="midnightblue" stroke="midnightblue" points="252.789,-291.5 262.789,-288 252.789,-284.5 252.789,-291.5"/>
</g>
<!-- Node27&#45;&gt;Node9 -->
<g id="edge37" class="edge"><title>Node27&#45;&gt;Node9</title>
<path fill="none" stroke="midnightblue" d="M182.609,-297.613C191.377,-313.029 208.325,-344.448 218,-373 243.345,-447.793 199.227,-490.111 254,-547 258.45,-551.622 263.83,-555.19 269.656,-557.936"/>
<polygon fill="midnightblue" stroke="midnightblue" points="268.517,-561.249 279.106,-561.607 271.052,-554.724 268.517,-561.249"/>
</g>
<!-- Node27&#45;&gt;Node15 -->
<g id="edge38" class="edge"><title>Node27&#45;&gt;Node15</title>
<path fill="none" stroke="midnightblue" d="M210.416,-278.453C227.445,-273.587 248.714,-267.51 268.629,-261.82"/>
<polygon fill="midnightblue" stroke="midnightblue" points="269.618,-265.178 278.271,-259.065 267.694,-258.447 269.618,-265.178"/>
</g>
<!-- Node27&#45;&gt;Node16 -->
<g id="edge39" class="edge"><title>Node27&#45;&gt;Node16</title>
<path fill="none" stroke="midnightblue" d="M181.688,-278.252C191.925,-257.996 218.253,-211.153 254,-186 260.141,-181.679 267.088,-178.115 274.234,-175.181"/>
<polygon fill="midnightblue" stroke="midnightblue" points="275.876,-178.306 284.044,-171.558 273.451,-171.739 275.876,-178.306"/>
</g>
<!-- Node27&#45;&gt;Node19 -->
<g id="edge35" class="edge"><title>Node27&#45;&gt;Node19</title>
<path fill="none" stroke="midnightblue" d="M178.785,-278.419C184.348,-251.582 204.081,-175.509 254,-143 319.069,-100.625 413.265,-105.914 469.783,-114.405"/>
<polygon fill="midnightblue" stroke="midnightblue" points="469.455,-117.897 479.882,-116.017 470.559,-110.985 469.455,-117.897"/>
</g>
<!-- Node27&#45;&gt;Node22 -->
<g id="edge41" class="edge"><title>Node27&#45;&gt;Node22</title>
<path fill="none" stroke="midnightblue" d="M181.19,-297.633C190.817,-318.594 216.6,-368.504 254,-394 261.962,-399.428 271.303,-403.382 280.68,-406.264"/>
<polygon fill="midnightblue" stroke="midnightblue" points="279.841,-409.663 290.408,-408.895 281.669,-402.905 279.841,-409.663"/>
</g>
<!-- Node27&#45;&gt;Node23 -->
<g id="edge42" class="edge"><title>Node27&#45;&gt;Node23</title>
<path fill="none" stroke="midnightblue" d="M182.114,-297.802C190.204,-313.475 206.24,-345.242 218,-373 236.101,-415.725 226.185,-433.859 254,-471 267.207,-488.635 287.364,-503.282 303.741,-513.311"/>
<polygon fill="midnightblue" stroke="midnightblue" points="301.989,-516.341 312.383,-518.397 305.54,-510.308 301.989,-516.341"/>
</g>
<!-- Node28 -->
<g id="node28" class="node"><title>Node28</title>
<g id="a_node28"><a xlink:href="../../d5/dec/class_shark.html#a35a57f2ce82d678f366e4e9b8a763773" target="_top" xlink:title="Shark.spendEnergy">
<polygon fill="white" stroke="black" points="277,-38.5 277,-57.5 387,-57.5 387,-38.5 277,-38.5"/>
<text text-anchor="middle" x="332" y="-45.5" font-family="Helvetica,sans-Serif" font-size="10.00">Shark.spendEnergy</text>
</a>
</g>
</g>
<!-- Node27&#45;&gt;Node28 -->
<g id="edge32" class="edge"><title>Node27&#45;&gt;Node28</title>
<path fill="none" stroke="midnightblue" d="M177.278,-278.309C178.813,-243.882 188.815,-126.367 254,-67 257.908,-63.4407 262.376,-60.5216 267.147,-58.1308"/>
<polygon fill="midnightblue" stroke="midnightblue" points="268.761,-61.2493 276.63,-54.1548 266.055,-54.7937 268.761,-61.2493"/>
</g>
<!-- Node29 -->
<g id="node29" class="node"><title>Node29</title>
<g id="a_node29"><a xlink:href="../../d5/dec/class_shark.html#ade5d1220d23679c1a074fb85dd921f27" target="_top" xlink:title="Shark.checkEnergy">
<polygon fill="white" stroke="black" points="278,-0.5 278,-19.5 386,-19.5 386,-0.5 278,-0.5"/>
<text text-anchor="middle" x="332" y="-7.5" font-family="Helvetica,sans-Serif" font-size="10.00">Shark.checkEnergy</text>
</a>
</g>
</g>
<!-- Node27&#45;&gt;Node29 -->
<g id="edge33" class="edge"><title>Node27&#45;&gt;Node29</title>
<path fill="none" stroke="midnightblue" d="M176.71,-278.301C176.132,-240.314 179.328,-100.238 254,-29 258.276,-24.9205 263.283,-21.6749 268.655,-19.0982"/>
<polygon fill="midnightblue" stroke="midnightblue" points="269.995,-22.3318 277.977,-15.3642 267.392,-15.8337 269.995,-22.3318"/>
</g>
<!-- Node30 -->
<g id="node30" class="node"><title>Node30</title>
<g id="a_node30"><a xlink:href="../../d5/dec/class_shark.html#a84f39127419daa16b9c539eab53bf05e" target="_top" xlink:title="Shark.eat">
<polygon fill="white" stroke="black" points="300.5,-76.5 300.5,-95.5 363.5,-95.5 363.5,-76.5 300.5,-76.5"/>
<text text-anchor="middle" x="332" y="-83.5" font-family="Helvetica,sans-Serif" font-size="10.00">Shark.eat</text>
</a>
</g>
</g>
<!-- Node27&#45;&gt;Node30 -->
<g id="edge40" class="edge"><title>Node27&#45;&gt;Node30</title>
<path fill="none" stroke="midnightblue" d="M178.338,-278.262C182.948,-248.477 200.92,-157.726 254,-110 264.024,-100.988 277.397,-95.3594 290.183,-91.8448"/>
<polygon fill="midnightblue" stroke="midnightblue" points="291.317,-95.1729 300.236,-89.4549 289.698,-88.3626 291.317,-95.1729"/>
</g>
</g>
</svg>
        <g id="navigator" transform="translate(0 0)" fill="#404254">
                <rect fill="#f2f5e9" fill-opacity="0.5" stroke="#606060" stroke-width=".5" x="0" y="0" width="60" height="60"/>
                <use id="zoomplus" xlink:href="#zoomPlus" x="17" y="9" onmousedown="handleZoom(evt,'in')"/>
                <use id="zoomminus" xlink:href="#zoomMin" x="42" y="9" onmousedown="handleZoom(evt,'out')"/>
                <use id="reset" xlink:href="#resetDef" x="30" y="36" onmousedown="handleReset()"/>
                <g id="arrowUp" xlink:href="#dirArrow" transform="translate(30 24)" onmousedown="handlePan(0,-1)">
                  <use xlink:href="#rim" fill="#404040">
                        <set attributeName="fill" to="#808080" begin="arrowUp.mouseover" end="arrowUp.mouseout"/>
                  </use>
                  <path fill="none" stroke="white" stroke-width="1.5" d="M0,-3.0v7 M-2.5,-0.5L0,-3.0L2.5,-0.5"/>
                </g>
                <g id="arrowRight" xlink:href="#dirArrow" transform="rotate(90) translate(36 -43)" onmousedown="handlePan(1,0)">
                  <use xlink:href="#rim" fill="#404040">
                        <set attributeName="fill" to="#808080" begin="arrowRight.mouseover" end="arrowRight.mouseout"/>
                  </use>
                  <path fill="none" stroke="white" stroke-width="1.5" d="M0,-3.0v7 M-2.5,-0.5L0,-3.0L2.5,-0.5"/>
                </g>
                <g id="arrowDown" xlink:href="#dirArrow" transform="rotate(180) translate(-30 -48)" onmousedown="handlePan(0,1)">
                  <use xlink:href="#rim" fill="#404040">
                        <set attributeName="fill" to="#808080" begin="arrowDown.mouseover" end="arrowDown.mouseout"/>
                  </use>
                  <path fill="none" stroke="white" stroke-width="1.5" d="M0,-3.0v7 M-2.5,-0.5L0,-3.0L2.5,-0.5"/>
                </g>
                <g id="arrowLeft" xlink:href="#dirArrow" transform="rotate(270) translate(-36 17)" onmousedown="handlePan(-1,0)">
                  <use xlink:href="#rim" fill="#404040">
                        <set attributeName="fill" to="#808080" begin="arrowLeft.mouseover" end="arrowLeft.mouseout"/>
                  </use>
                  <path fill="none" stroke="white" stroke-width="1.5" d="M0,-3.0v7 M-2.5,-0.5L0,-3.0L2.5,-0.5"/>
                </g>
        </g>
        <svg viewBox="0 0 15 15" width="100%" height="30px" preserveAspectRatio="xMaxYMin meet">
         <g id="arrow_out" transform="scale(0.3 0.3)">
          <a xlink:href="class_wator_a422810cdcb035633301b3469cbee5e34_cgraph_org.svg" target="_base">
           <rect id="button" ry="5" rx="5" y="6" x="6" height="38" width="38"
                fill="#f2f5e9" fill-opacity="0.5" stroke="#606060" stroke-width="1.0"/>
           <path id="arrow"
             d="M 11.500037,31.436501 C 11.940474,20.09759 22.043105,11.32322 32.158766,21.979434 L 37.068811,17.246167 C 37.068811,17.246167 37.088388,32 37.088388,32 L 22.160133,31.978069 C 22.160133,31.978069 26.997745,27.140456 26.997745,27.140456 C 18.528582,18.264221 13.291696,25.230495 11.500037,31.436501 z"
             style="fill:#404040;"/>
          </a>
         </g>
        </svg>
</svg>
