<?xml version="1.0" encoding="UTF-8" standalone="no"?>
<!DOCTYPE svg PUBLIC "-//W3C//DTD SVG 1.1//EN"
 "http://www.w3.org/Graphics/SVG/1.1/DTD/svg11.dtd">
<!-- Generated by graphviz version 2.36.0 (20140111.2315)
 -->
<!-- Title: Wator.breed Pages: 1 -->
<svg width="390pt" height="96pt"
 viewBox="0.00 0.00 390.00 96.00" xmlns="http://www.w3.org/2000/svg" xmlns:xlink="http://www.w3.org/1999/xlink">
<g id="graph0" class="graph" transform="scale(1 1) rotate(0) translate(4 92)">
<title>Wator.breed</title>
<polygon fill="white" stroke="none" points="-4,4 -4,-92 386,-92 386,4 -4,4"/>
<!-- Node1 -->
<g id="node1" class="node"><title>Node1</title>
<polygon fill="#bfbfbf" stroke="black" points="0,-41.5 0,-60.5 74,-60.5 74,-41.5 0,-41.5"/>
<text text-anchor="middle" x="37" y="-48.5" font-family="Helvetica,sans-Serif" font-size="10.00">Wator.breed</text>
</g>
<!-- Node2 -->
<g id="node2" class="node"><title>Node2</title>
<g id="a_node2"><a xlink:href="../../da/de8/class_move_cellular_automata.html#a9be2acf22d28c48fe4551940af37e454" target="_top" xlink:title="MoveCellularAutomata.add\lNewMover">
<polygon fill="white" stroke="black" points="110,-58 110,-88 256,-88 256,-58 110,-58"/>
<text text-anchor="start" x="118" y="-76" font-family="Helvetica,sans-Serif" font-size="10.00">MoveCellularAutomata.add</text>
<text text-anchor="middle" x="183" y="-65" font-family="Helvetica,sans-Serif" font-size="10.00">NewMover</text>
</a>
</g>
</g>
<!-- Node1&#45;&gt;Node2 -->
<g id="edge1" class="edge"><title>Node1&#45;&gt;Node2</title>
<path fill="none" stroke="midnightblue" d="M74.3373,-56.5515C82.2069,-57.7538 90.837,-59.0723 99.6792,-60.4232"/>
<polygon fill="midnightblue" stroke="midnightblue" points="99.3092,-63.9072 109.723,-61.9577 100.366,-56.9875 99.3092,-63.9072"/>
</g>
<!-- Node3 -->
<g id="node3" class="node"><title>Node3</title>
<g id="a_node3"><a xlink:href="../../de/d70/class_fish.html#a8a5f5246900a3d430f62267e5346384b" target="_top" xlink:title="Fish.breed">
<polygon fill="white" stroke="black" points="150.5,-19.5 150.5,-38.5 215.5,-38.5 215.5,-19.5 150.5,-19.5"/>
<text text-anchor="middle" x="183" y="-26.5" font-family="Helvetica,sans-Serif" font-size="10.00">Fish.breed</text>
</a>
</g>
</g>
<!-- Node1&#45;&gt;Node3 -->
<g id="edge2" class="edge"><title>Node1&#45;&gt;Node3</title>
<path fill="none" stroke="midnightblue" d="M74.3373,-45.4485C94.2945,-42.3994 119.142,-38.6032 139.937,-35.4263"/>
<polygon fill="midnightblue" stroke="midnightblue" points="140.73,-38.8459 150.086,-33.8757 139.672,-31.9262 140.73,-38.8459"/>
</g>
<!-- Node4 -->
<g id="node4" class="node"><title>Node4</title>
<g id="a_node4"><a xlink:href="../../de/d70/class_fish.html#af61b5d1f8872e5e3f744c1593d70ac69" target="_top" xlink:title="Fish.Fish">
<polygon fill="white" stroke="black" points="309,-38.5 309,-57.5 365,-57.5 365,-38.5 309,-38.5"/>
<text text-anchor="middle" x="337" y="-45.5" font-family="Helvetica,sans-Serif" font-size="10.00">Fish.Fish</text>
</a>
</g>
</g>
<!-- Node3&#45;&gt;Node4 -->
<g id="edge3" class="edge"><title>Node3&#45;&gt;Node4</title>
<path fill="none" stroke="midnightblue" d="M215.864,-32.983C240.042,-36.0052 273.339,-40.1674 298.748,-43.3435"/>
<polygon fill="midnightblue" stroke="midnightblue" points="298.4,-46.8272 308.757,-44.5946 299.268,-39.8812 298.4,-46.8272"/>
</g>
<!-- Node5 -->
<g id="node5" class="node"><title>Node5</title>
<g id="a_node5"><a xlink:href="../../dc/d06/class_mover.html#aa8711e427647a7c980d42a89588270ba" target="_top" xlink:title="Mover.getState">
<polygon fill="white" stroke="black" points="292,-0.5 292,-19.5 382,-19.5 382,-0.5 292,-0.5"/>
<text text-anchor="middle" x="337" y="-7.5" font-family="Helvetica,sans-Serif" font-size="10.00">Mover.getState</text>
</a>
</g>
</g>
<!-- Node3&#45;&gt;Node5 -->
<g id="edge4" class="edge"><title>Node3&#45;&gt;Node5</title>
<path fill="none" stroke="midnightblue" d="M215.864,-25.017C234.964,-22.6296 259.754,-19.5308 281.851,-16.7686"/>
<polygon fill="midnightblue" stroke="midnightblue" points="282.295,-20.2404 291.784,-15.527 281.427,-13.2945 282.295,-20.2404"/>
</g>
</g>
</svg>
