<?xml version="1.0" encoding="UTF-8" standalone="no"?>
<!DOCTYPE svg PUBLIC "-//W3C//DTD SVG 1.1//EN"
 "http://www.w3.org/Graphics/SVG/1.1/DTD/svg11.dtd">
<!-- Generated by graphviz version 2.36.0 (20140111.2315)
 -->
<!-- Title: Wator.breedIfCan Pages: 1 -->
<svg width="414pt" height="153pt"
 viewBox="0.00 0.00 414.00 153.00" xmlns="http://www.w3.org/2000/svg" xmlns:xlink="http://www.w3.org/1999/xlink">
<g id="graph0" class="graph" transform="scale(1 1) rotate(0) translate(4 149)">
<title>Wator.breedIfCan</title>
<polygon fill="white" stroke="none" points="-4,4 -4,-149 410,-149 410,4 -4,4"/>
<!-- Node1 -->
<g id="node1" class="node"><title>Node1</title>
<polygon fill="#bfbfbf" stroke="black" points="0,-57.5 0,-76.5 98,-76.5 98,-57.5 0,-57.5"/>
<text text-anchor="middle" x="49" y="-64.5" font-family="Helvetica,sans-Serif" font-size="10.00">Wator.breedIfCan</text>
</g>
<!-- Node2 -->
<g id="node2" class="node"><title>Node2</title>
<g id="a_node2"><a xlink:href="../../da/de8/class_move_cellular_automata.html#a1661ace25a08d9cb4bec54bfde40424e" target="_top" xlink:title="MoveCellularAutomata.add\lMover">
<polygon fill="white" stroke="black" points="134,-115 134,-145 280,-145 280,-115 134,-115"/>
<text text-anchor="start" x="142" y="-133" font-family="Helvetica,sans-Serif" font-size="10.00">MoveCellularAutomata.add</text>
<text text-anchor="middle" x="207" y="-122" font-family="Helvetica,sans-Serif" font-size="10.00">Mover</text>
</a>
</g>
</g>
<!-- Node1&#45;&gt;Node2 -->
<g id="edge1" class="edge"><title>Node1&#45;&gt;Node2</title>
<path fill="none" stroke="midnightblue" d="M69.8082,-76.5749C86.693,-84.5878 111.699,-96.1053 134,-105 139.433,-107.167 145.136,-109.331 150.854,-111.428"/>
<polygon fill="midnightblue" stroke="midnightblue" points="149.853,-114.788 160.447,-114.884 152.225,-108.202 149.853,-114.788"/>
</g>
<!-- Node3 -->
<g id="node3" class="node"><title>Node3</title>
<g id="a_node3"><a xlink:href="../../de/d70/class_fish.html#a8a5f5246900a3d430f62267e5346384b" target="_top" xlink:title="Fish.breed">
<polygon fill="white" stroke="black" points="174.5,-76.5 174.5,-95.5 239.5,-95.5 239.5,-76.5 174.5,-76.5"/>
<text text-anchor="middle" x="207" y="-83.5" font-family="Helvetica,sans-Serif" font-size="10.00">Fish.breed</text>
</a>
</g>
</g>
<!-- Node1&#45;&gt;Node3 -->
<g id="edge2" class="edge"><title>Node1&#45;&gt;Node3</title>
<path fill="none" stroke="midnightblue" d="M98.0781,-72.8557C119.119,-75.4184 143.584,-78.3981 163.896,-80.8719"/>
<polygon fill="midnightblue" stroke="midnightblue" points="163.749,-84.3798 174.099,-82.1146 164.595,-77.4312 163.749,-84.3798"/>
</g>
<!-- Node6 -->
<g id="node6" class="node"><title>Node6</title>
<g id="a_node6"><a xlink:href="../../de/d70/class_fish.html#a9869e97a5ca4ce7a5009780080aaaf87" target="_top" xlink:title="Fish.canBreed">
<polygon fill="white" stroke="black" points="165.5,-38.5 165.5,-57.5 248.5,-57.5 248.5,-38.5 165.5,-38.5"/>
<text text-anchor="middle" x="207" y="-45.5" font-family="Helvetica,sans-Serif" font-size="10.00">Fish.canBreed</text>
</a>
</g>
</g>
<!-- Node1&#45;&gt;Node6 -->
<g id="edge5" class="edge"><title>Node1&#45;&gt;Node6</title>
<path fill="none" stroke="midnightblue" d="M98.0781,-61.1443C116.282,-58.9272 137.05,-56.3978 155.473,-54.154"/>
<polygon fill="midnightblue" stroke="midnightblue" points="155.932,-57.624 165.435,-52.9406 155.085,-50.6754 155.932,-57.624"/>
</g>
<!-- Node7 -->
<g id="node7" class="node"><title>Node7</title>
<g id="a_node7"><a xlink:href="../../dc/d06/class_mover.html#adf476a60dad6e0feb9bedb3f6af313b5" target="_top" xlink:title="Mover.getCell">
<polygon fill="white" stroke="black" points="166.5,-0.5 166.5,-19.5 247.5,-19.5 247.5,-0.5 166.5,-0.5"/>
<text text-anchor="middle" x="207" y="-7.5" font-family="Helvetica,sans-Serif" font-size="10.00">Mover.getCell</text>
</a>
</g>
</g>
<!-- Node1&#45;&gt;Node7 -->
<g id="edge6" class="edge"><title>Node1&#45;&gt;Node7</title>
<path fill="none" stroke="midnightblue" d="M68.6452,-57.4777C85.4269,-49.1715 110.924,-37.1997 134,-29 141.2,-26.4417 148.912,-24.052 156.518,-21.8894"/>
<polygon fill="midnightblue" stroke="midnightblue" points="157.682,-25.1996 166.402,-19.1821 155.832,-18.4483 157.682,-25.1996"/>
</g>
<!-- Node4 -->
<g id="node4" class="node"><title>Node4</title>
<g id="a_node4"><a xlink:href="../../de/d70/class_fish.html#af5297bf144c3850a7128aaf986ac61bc" target="_top" xlink:title="Fish.Fish">
<polygon fill="white" stroke="black" points="333,-95.5 333,-114.5 389,-114.5 389,-95.5 333,-95.5"/>
<text text-anchor="middle" x="361" y="-102.5" font-family="Helvetica,sans-Serif" font-size="10.00">Fish.Fish</text>
</a>
</g>
</g>
<!-- Node3&#45;&gt;Node4 -->
<g id="edge3" class="edge"><title>Node3&#45;&gt;Node4</title>
<path fill="none" stroke="midnightblue" d="M239.864,-89.983C264.042,-93.0052 297.339,-97.1674 322.748,-100.344"/>
<polygon fill="midnightblue" stroke="midnightblue" points="322.4,-103.827 332.757,-101.595 323.268,-96.8812 322.4,-103.827"/>
</g>
<!-- Node5 -->
<g id="node5" class="node"><title>Node5</title>
<g id="a_node5"><a xlink:href="../../dc/d06/class_mover.html#aa8711e427647a7c980d42a89588270ba" target="_top" xlink:title="Mover.getState">
<polygon fill="white" stroke="black" points="316,-57.5 316,-76.5 406,-76.5 406,-57.5 316,-57.5"/>
<text text-anchor="middle" x="361" y="-64.5" font-family="Helvetica,sans-Serif" font-size="10.00">Mover.getState</text>
</a>
</g>
</g>
<!-- Node3&#45;&gt;Node5 -->
<g id="edge4" class="edge"><title>Node3&#45;&gt;Node5</title>
<path fill="none" stroke="midnightblue" d="M239.864,-82.017C258.964,-79.6296 283.754,-76.5308 305.851,-73.7686"/>
<polygon fill="midnightblue" stroke="midnightblue" points="306.295,-77.2404 315.784,-72.527 305.427,-70.2945 306.295,-77.2404"/>
</g>
</g>
</svg>
