<?xml version="1.0" encoding="UTF-8" standalone="no"?>
<!DOCTYPE svg PUBLIC "-//W3C//DTD SVG 1.1//EN"
 "http://www.w3.org/Graphics/SVG/1.1/DTD/svg11.dtd">
<!-- Generated by graphviz version 2.36.0 (20140111.2315)
 -->
<!-- Title: Wator.breedIfCan Pages: 1 -->
<svg width="360pt" height="66pt"
 viewBox="0.00 0.00 360.00 66.00" xmlns="http://www.w3.org/2000/svg" xmlns:xlink="http://www.w3.org/1999/xlink">
<g id="graph0" class="graph" transform="scale(1 1) rotate(0) translate(4 62)">
<title>Wator.breedIfCan</title>
<polygon fill="white" stroke="none" points="-4,4 -4,-62 356,-62 356,4 -4,4"/>
<!-- Node1 -->
<g id="node1" class="node"><title>Node1</title>
<polygon fill="#bfbfbf" stroke="black" points="0,-19.5 0,-38.5 98,-38.5 98,-19.5 0,-19.5"/>
<text text-anchor="middle" x="49" y="-26.5" font-family="Helvetica,sans-Serif" font-size="10.00">Wator.breedIfCan</text>
</g>
<!-- Node2 -->
<g id="node2" class="node"><title>Node2</title>
<g id="a_node2"><a xlink:href="../../d0/db0/class_wator.html#a0afccb8f97e33c1d21e51ee1a3f4922b" target="_top" xlink:title="Wator.ruleOne">
<polygon fill="white" stroke="black" points="134.5,-38.5 134.5,-57.5 217.5,-57.5 217.5,-38.5 134.5,-38.5"/>
<text text-anchor="middle" x="176" y="-45.5" font-family="Helvetica,sans-Serif" font-size="10.00">Wator.ruleOne</text>
</a>
</g>
</g>
<!-- Node1&#45;&gt;Node2 -->
<g id="edge1" class="edge"><title>Node1&#45;&gt;Node2</title>
<path fill="none" stroke="midnightblue" d="M108.427,-37.881C117.106,-39.2001 125.89,-40.5352 134.105,-41.784"/>
<polygon fill="midnightblue" stroke="midnightblue" points="108.741,-34.3885 98.3283,-36.3459 107.689,-41.309 108.741,-34.3885"/>
</g>
<!-- Node4 -->
<g id="node4" class="node"><title>Node4</title>
<g id="a_node4"><a xlink:href="../../d0/db0/class_wator.html#aa8dba59120d9d6d7d7521f3a4ee7b454" target="_top" xlink:title="Wator.ruleTwo">
<polygon fill="white" stroke="black" points="136,-0.5 136,-19.5 216,-19.5 216,-0.5 136,-0.5"/>
<text text-anchor="middle" x="176" y="-7.5" font-family="Helvetica,sans-Serif" font-size="10.00">Wator.ruleTwo</text>
</a>
</g>
</g>
<!-- Node1&#45;&gt;Node4 -->
<g id="edge3" class="edge"><title>Node1&#45;&gt;Node4</title>
<path fill="none" stroke="midnightblue" d="M108.309,-20.137C117.588,-18.7267 126.99,-17.2975 135.693,-15.9746"/>
<polygon fill="midnightblue" stroke="midnightblue" points="107.689,-16.691 98.3283,-21.6541 108.741,-23.6115 107.689,-16.691"/>
</g>
<!-- Node3 -->
<g id="node3" class="node"><title>Node3</title>
<g id="a_node3"><a xlink:href="../../d0/db0/class_wator.html#a422810cdcb035633301b3469cbee5e34" target="_top" xlink:title="Wator.checkRules">
<polygon fill="white" stroke="black" points="254,-19.5 254,-38.5 352,-38.5 352,-19.5 254,-19.5"/>
<text text-anchor="middle" x="303" y="-26.5" font-family="Helvetica,sans-Serif" font-size="10.00">Wator.checkRules</text>
</a>
</g>
</g>
<!-- Node2&#45;&gt;Node3 -->
<g id="edge2" class="edge"><title>Node2&#45;&gt;Node3</title>
<path fill="none" stroke="midnightblue" d="M227.557,-40.3153C236.213,-38.9996 245.187,-37.6356 253.779,-36.3295"/>
<polygon fill="midnightblue" stroke="midnightblue" points="226.944,-36.8682 217.584,-41.8312 227.996,-43.7887 226.944,-36.8682"/>
</g>
<!-- Node4&#45;&gt;Node3 -->
<g id="edge4" class="edge"><title>Node4&#45;&gt;Node3</title>
<path fill="none" stroke="midnightblue" d="M226.209,-17.4797C235.251,-18.8542 244.683,-20.2878 253.698,-21.6581"/>
<polygon fill="midnightblue" stroke="midnightblue" points="226.62,-14.0022 216.208,-15.9596 225.568,-20.9227 226.62,-14.0022"/>
</g>
</g>
</svg>
