<?xml version="1.0" encoding="UTF-8" standalone="no"?>
<!DOCTYPE svg PUBLIC "-//W3C//DTD SVG 1.1//EN"
 "http://www.w3.org/Graphics/SVG/1.1/DTD/svg11.dtd">
<!-- Generated by graphviz version 2.36.0 (20140111.2315)
 -->
<!-- Title: Wator.ruleTwo Pages: 1 -->
<svg width="602pt" height="553pt"
 viewBox="0.00 0.00 602.00 553.00" xmlns="http://www.w3.org/2000/svg" xmlns:xlink="http://www.w3.org/1999/xlink">
<g id="graph0" class="graph" transform="scale(1 1) rotate(0) translate(4 549)">
<title>Wator.ruleTwo</title>
<polygon fill="white" stroke="none" points="-4,4 -4,-549 598,-549 598,4 -4,4"/>
<!-- Node1 -->
<g id="node1" class="node"><title>Node1</title>
<polygon fill="#bfbfbf" stroke="black" points="0,-259.5 0,-278.5 80,-278.5 80,-259.5 0,-259.5"/>
<text text-anchor="middle" x="40" y="-266.5" font-family="Helvetica,sans-Serif" font-size="10.00">Wator.ruleTwo</text>
</g>
<!-- Node2 -->
<g id="node2" class="node"><title>Node2</title>
<g id="a_node2"><a xlink:href="../../da/de8/class_move_cellular_automata.html#a9347828c2d21393d75afa8b5f0409794" target="_top" xlink:title="MoveCellularAutomata.add\lToRemove">
<polygon fill="white" stroke="black" points="121,-507 121,-537 267,-537 267,-507 121,-507"/>
<text text-anchor="start" x="129" y="-525" font-family="Helvetica,sans-Serif" font-size="10.00">MoveCellularAutomata.add</text>
<text text-anchor="middle" x="194" y="-514" font-family="Helvetica,sans-Serif" font-size="10.00">ToRemove</text>
</a>
</g>
</g>
<!-- Node1&#45;&gt;Node2 -->
<g id="edge1" class="edge"><title>Node1&#45;&gt;Node2</title>
<path fill="none" stroke="midnightblue" d="M41.2312,-278.819C42.5919,-313.733 51.9375,-433.184 116,-497 117.456,-498.451 118.997,-499.817 120.609,-501.104"/>
<polygon fill="midnightblue" stroke="midnightblue" points="118.943,-504.203 129.188,-506.903 122.863,-498.403 118.943,-504.203"/>
</g>
<!-- Node3 -->
<g id="node3" class="node"><title>Node3</title>
<g id="a_node3"><a xlink:href="../../d0/db0/class_wator.html#a7b49e449f5277f27fc84287bc5e88357" target="_top" xlink:title="Wator.breed">
<polygon fill="white" stroke="black" points="157,-316.5 157,-335.5 231,-335.5 231,-316.5 157,-316.5"/>
<text text-anchor="middle" x="194" y="-323.5" font-family="Helvetica,sans-Serif" font-size="10.00">Wator.breed</text>
</a>
</g>
</g>
<!-- Node1&#45;&gt;Node3 -->
<g id="edge2" class="edge"><title>Node1&#45;&gt;Node3</title>
<path fill="none" stroke="midnightblue" d="M61.1181,-278.589C76.076,-285.537 97.0828,-294.916 116,-302 126.742,-306.023 138.495,-309.929 149.51,-313.381"/>
<polygon fill="midnightblue" stroke="midnightblue" points="148.783,-316.819 159.37,-316.413 150.841,-310.128 148.783,-316.819"/>
</g>
<!-- Node8 -->
<g id="node8" class="node"><title>Node8</title>
<g id="a_node8"><a xlink:href="../../de/d70/class_fish.html#a01a85441ee77bd4ea5c517daadbd913f" target="_top" xlink:title="Fish.canBreed">
<polygon fill="white" stroke="black" points="152.5,-430.5 152.5,-449.5 235.5,-449.5 235.5,-430.5 152.5,-430.5"/>
<text text-anchor="middle" x="194" y="-437.5" font-family="Helvetica,sans-Serif" font-size="10.00">Fish.canBreed</text>
</a>
</g>
</g>
<!-- Node1&#45;&gt;Node8 -->
<g id="edge7" class="edge"><title>Node1&#45;&gt;Node8</title>
<path fill="none" stroke="midnightblue" d="M42.809,-278.592C48.4115,-305.539 68.0692,-382.464 116,-421 123.646,-427.147 133,-431.344 142.52,-434.201"/>
<polygon fill="midnightblue" stroke="midnightblue" points="141.882,-437.65 152.435,-436.718 143.604,-430.865 141.882,-437.65"/>
</g>
<!-- Node9 -->
<g id="node9" class="node"><title>Node9</title>
<g id="a_node9"><a xlink:href="../../d5/dec/class_shark.html#ade5d1220d23679c1a074fb85dd921f27" target="_top" xlink:title="Shark.checkEnergy">
<polygon fill="white" stroke="black" points="140,-392.5 140,-411.5 248,-411.5 248,-392.5 140,-392.5"/>
<text text-anchor="middle" x="194" y="-399.5" font-family="Helvetica,sans-Serif" font-size="10.00">Shark.checkEnergy</text>
</a>
</g>
</g>
<!-- Node1&#45;&gt;Node9 -->
<g id="edge8" class="edge"><title>Node1&#45;&gt;Node9</title>
<path fill="none" stroke="midnightblue" d="M44.5138,-278.718C53.0575,-300.91 77.1177,-355.51 116,-383 120.316,-386.052 125.07,-388.615 130.032,-390.769"/>
<polygon fill="midnightblue" stroke="midnightblue" points="129.18,-394.187 139.772,-394.424 131.64,-387.634 129.18,-394.187"/>
</g>
<!-- Node10 -->
<g id="node10" class="node"><title>Node10</title>
<g id="a_node10"><a xlink:href="../../d5/dec/class_shark.html#a84f39127419daa16b9c539eab53bf05e" target="_top" xlink:title="Shark.eat">
<polygon fill="white" stroke="black" points="162.5,-354.5 162.5,-373.5 225.5,-373.5 225.5,-354.5 162.5,-354.5"/>
<text text-anchor="middle" x="194" y="-361.5" font-family="Helvetica,sans-Serif" font-size="10.00">Shark.eat</text>
</a>
</g>
</g>
<!-- Node1&#45;&gt;Node10 -->
<g id="edge9" class="edge"><title>Node1&#45;&gt;Node10</title>
<path fill="none" stroke="midnightblue" d="M47.6512,-278.592C59.4572,-294.862 85.7039,-327.775 116,-345 127.035,-351.274 140.107,-355.493 152.319,-358.324"/>
<polygon fill="midnightblue" stroke="midnightblue" points="151.809,-361.792 162.31,-360.389 153.226,-354.937 151.809,-361.792"/>
</g>
<!-- Node11 -->
<g id="node11" class="node"><title>Node11</title>
<g id="a_node11"><a xlink:href="../../da/d74/class_grid.html#a43e84876ecfc5265a5e37a39e64e794e" target="_top" xlink:title="Grid.findNeighbors">
<polygon fill="white" stroke="black" points="141.5,-468.5 141.5,-487.5 246.5,-487.5 246.5,-468.5 141.5,-468.5"/>
<text text-anchor="middle" x="194" y="-475.5" font-family="Helvetica,sans-Serif" font-size="10.00">Grid.findNeighbors</text>
</a>
</g>
</g>
<!-- Node1&#45;&gt;Node11 -->
<g id="edge10" class="edge"><title>Node1&#45;&gt;Node11</title>
<path fill="none" stroke="midnightblue" d="M41.7801,-278.631C44.8428,-309.84 58.8637,-409.051 116,-459 120.582,-463.006 125.878,-466.195 131.504,-468.729"/>
<polygon fill="midnightblue" stroke="midnightblue" points="130.624,-472.139 141.216,-472.406 133.103,-465.592 130.624,-472.139"/>
</g>
<!-- Node17 -->
<g id="node17" class="node"><title>Node17</title>
<g id="a_node17"><a xlink:href="../../dc/d06/class_mover.html#adf476a60dad6e0feb9bedb3f6af313b5" target="_top" xlink:title="Mover.getCell">
<polygon fill="white" stroke="black" points="340.5,-212.5 340.5,-231.5 421.5,-231.5 421.5,-212.5 340.5,-212.5"/>
<text text-anchor="middle" x="381" y="-219.5" font-family="Helvetica,sans-Serif" font-size="10.00">Mover.getCell</text>
</a>
</g>
</g>
<!-- Node1&#45;&gt;Node17 -->
<g id="edge16" class="edge"><title>Node1&#45;&gt;Node17</title>
<path fill="none" stroke="midnightblue" d="M80.4023,-274.182C126.849,-279.108 206.062,-283.786 272,-269 289.265,-265.128 291.829,-259.182 308,-252 320.597,-246.405 334.56,-240.516 346.81,-235.452"/>
<polygon fill="midnightblue" stroke="midnightblue" points="348.291,-238.628 356.209,-231.589 345.629,-232.153 348.291,-238.628"/>
</g>
<!-- Node18 -->
<g id="node18" class="node"><title>Node18</title>
<g id="a_node18"><a xlink:href="../../d2/d40/class_cellular_automata.html#a34ceed434c942d34ff03169b92684726" target="_top" xlink:title="CellularAutomata.getGrid">
<polygon fill="white" stroke="black" points="125,-240.5 125,-259.5 263,-259.5 263,-240.5 125,-240.5"/>
<text text-anchor="middle" x="194" y="-247.5" font-family="Helvetica,sans-Serif" font-size="10.00">CellularAutomata.getGrid</text>
</a>
</g>
</g>
<!-- Node1&#45;&gt;Node18 -->
<g id="edge17" class="edge"><title>Node1&#45;&gt;Node18</title>
<path fill="none" stroke="midnightblue" d="M80.1438,-264.107C90.7954,-262.776 102.721,-261.285 114.723,-259.785"/>
<polygon fill="midnightblue" stroke="midnightblue" points="115.308,-263.239 124.796,-258.525 114.439,-256.293 115.308,-263.239"/>
</g>
<!-- Node19 -->
<g id="node19" class="node"><title>Node19</title>
<g id="a_node19"><a xlink:href="../../da/de8/class_move_cellular_automata.html#a51d0684d1393a9ad01e371119f37c039" target="_top" xlink:title="MoveCellularAutomata.get\lRandomCell">
<polygon fill="white" stroke="black" points="122,-191 122,-221 266,-221 266,-191 122,-191"/>
<text text-anchor="start" x="130" y="-209" font-family="Helvetica,sans-Serif" font-size="10.00">MoveCellularAutomata.get</text>
<text text-anchor="middle" x="194" y="-198" font-family="Helvetica,sans-Serif" font-size="10.00">RandomCell</text>
</a>
</g>
</g>
<!-- Node1&#45;&gt;Node19 -->
<g id="edge18" class="edge"><title>Node1&#45;&gt;Node19</title>
<path fill="none" stroke="midnightblue" d="M57.9225,-259.472C72.8962,-251.274 95.4912,-239.465 116,-231 121.493,-228.733 127.272,-226.532 133.093,-224.439"/>
<polygon fill="midnightblue" stroke="midnightblue" points="134.595,-227.622 142.885,-221.023 132.29,-221.012 134.595,-227.622"/>
</g>
<!-- Node20 -->
<g id="node20" class="node"><title>Node20</title>
<g id="a_node20"><a xlink:href="../../dc/d06/class_mover.html#a52bee7a2004ca1e44356ce6c5867a2fc" target="_top" xlink:title="Mover.isState">
<polygon fill="white" stroke="black" points="153,-152.5 153,-171.5 235,-171.5 235,-152.5 153,-152.5"/>
<text text-anchor="middle" x="194" y="-159.5" font-family="Helvetica,sans-Serif" font-size="10.00">Mover.isState</text>
</a>
</g>
</g>
<!-- Node1&#45;&gt;Node20 -->
<g id="edge19" class="edge"><title>Node1&#45;&gt;Node20</title>
<path fill="none" stroke="midnightblue" d="M46.4028,-259.335C57.1501,-241.04 83.0414,-201.364 116,-181 124.172,-175.951 133.609,-172.243 143.014,-169.519"/>
<polygon fill="midnightblue" stroke="midnightblue" points="143.931,-172.897 152.749,-167.023 142.193,-166.117 143.931,-172.897"/>
</g>
<!-- Node21 -->
<g id="node21" class="node"><title>Node21</title>
<g id="a_node21"><a xlink:href="../../da/de8/class_move_cellular_automata.html#a90e79ebdb8723f3674bd90a264a143b8" target="_top" xlink:title="MoveCellularAutomata.move">
<polygon fill="white" stroke="black" points="116.5,-114.5 116.5,-133.5 271.5,-133.5 271.5,-114.5 116.5,-114.5"/>
<text text-anchor="middle" x="194" y="-121.5" font-family="Helvetica,sans-Serif" font-size="10.00">MoveCellularAutomata.move</text>
</a>
</g>
</g>
<!-- Node1&#45;&gt;Node21 -->
<g id="edge20" class="edge"><title>Node1&#45;&gt;Node21</title>
<path fill="none" stroke="midnightblue" d="M43.8623,-259.344C51.4257,-235.575 74.2804,-173.926 116,-143 118.518,-141.133 121.197,-139.448 123.989,-137.928"/>
<polygon fill="midnightblue" stroke="midnightblue" points="125.652,-141.014 133.229,-133.608 122.687,-134.673 125.652,-141.014"/>
</g>
<!-- Node23 -->
<g id="node23" class="node"><title>Node23</title>
<g id="a_node23"><a xlink:href="../../dd/d11/class_cell.html#aaaf321e273ef5b6ac3fae80e36d19629" target="_top" xlink:title="Cell.setState">
<polygon fill="white" stroke="black" points="342,-76.5 342,-95.5 420,-95.5 420,-76.5 342,-76.5"/>
<text text-anchor="middle" x="381" y="-83.5" font-family="Helvetica,sans-Serif" font-size="10.00">Cell.setState</text>
</a>
</g>
</g>
<!-- Node1&#45;&gt;Node23 -->
<g id="edge27" class="edge"><title>Node1&#45;&gt;Node23</title>
<path fill="none" stroke="midnightblue" d="M42.0532,-259.486C45.8237,-230.481 61.4779,-142.852 116,-105 179.963,-60.5932 274.919,-66.6497 331.813,-75.8202"/>
<polygon fill="midnightblue" stroke="midnightblue" points="331.53,-79.3226 341.977,-77.5573 332.71,-72.4226 331.53,-79.3226"/>
</g>
<!-- Node26 -->
<g id="node26" class="node"><title>Node26</title>
<g id="a_node26"><a xlink:href="../../d5/dec/class_shark.html#a35a57f2ce82d678f366e4e9b8a763773" target="_top" xlink:title="Shark.spendEnergy">
<polygon fill="white" stroke="black" points="139,-38.5 139,-57.5 249,-57.5 249,-38.5 139,-38.5"/>
<text text-anchor="middle" x="194" y="-45.5" font-family="Helvetica,sans-Serif" font-size="10.00">Shark.spendEnergy</text>
</a>
</g>
</g>
<!-- Node1&#45;&gt;Node26 -->
<g id="edge28" class="edge"><title>Node1&#45;&gt;Node26</title>
<path fill="none" stroke="midnightblue" d="M41.7865,-259.164C44.8687,-227.264 58.9427,-125.645 116,-72 120.313,-67.9446 125.302,-64.5741 130.626,-61.773"/>
<polygon fill="midnightblue" stroke="midnightblue" points="132.192,-64.9059 139.841,-57.5758 129.29,-58.5355 132.192,-64.9059"/>
</g>
<!-- Node27 -->
<g id="node27" class="node"><title>Node27</title>
<g id="a_node27"><a xlink:href="../../de/d70/class_fish.html#a3968096ff7e7ecdfc63783894c3bda33" target="_top" xlink:title="Fish.surviveTurn">
<polygon fill="white" stroke="black" points="148.5,-0.5 148.5,-19.5 239.5,-19.5 239.5,-0.5 148.5,-0.5"/>
<text text-anchor="middle" x="194" y="-7.5" font-family="Helvetica,sans-Serif" font-size="10.00">Fish.surviveTurn</text>
</a>
</g>
</g>
<!-- Node1&#45;&gt;Node27 -->
<g id="edge29" class="edge"><title>Node1&#45;&gt;Node27</title>
<path fill="none" stroke="midnightblue" d="M40.8854,-259.016C41.0362,-222.397 46.6884,-94.2099 116,-29 122.343,-23.0324 130.252,-18.8538 138.566,-15.9445"/>
<polygon fill="midnightblue" stroke="midnightblue" points="139.813,-19.2273 148.442,-13.0811 137.863,-12.5042 139.813,-19.2273"/>
</g>
<!-- Node4 -->
<g id="node4" class="node"><title>Node4</title>
<g id="a_node4"><a xlink:href="../../da/de8/class_move_cellular_automata.html#a9be2acf22d28c48fe4551940af37e454" target="_top" xlink:title="MoveCellularAutomata.add\lNewMover">
<polygon fill="white" stroke="black" points="308,-311 308,-341 454,-341 454,-311 308,-311"/>
<text text-anchor="start" x="316" y="-329" font-family="Helvetica,sans-Serif" font-size="10.00">MoveCellularAutomata.add</text>
<text text-anchor="middle" x="381" y="-318" font-family="Helvetica,sans-Serif" font-size="10.00">NewMover</text>
</a>
</g>
</g>
<!-- Node3&#45;&gt;Node4 -->
<g id="edge3" class="edge"><title>Node3&#45;&gt;Node4</title>
<path fill="none" stroke="midnightblue" d="M231.109,-326C250.161,-326 274.375,-326 297.711,-326"/>
<polygon fill="midnightblue" stroke="midnightblue" points="297.994,-329.5 307.994,-326 297.994,-322.5 297.994,-329.5"/>
</g>
<!-- Node5 -->
<g id="node5" class="node"><title>Node5</title>
<g id="a_node5"><a xlink:href="../../de/d70/class_fish.html#a8a5f5246900a3d430f62267e5346384b" target="_top" xlink:title="Fish.breed">
<polygon fill="white" stroke="black" points="348.5,-261.5 348.5,-280.5 413.5,-280.5 413.5,-261.5 348.5,-261.5"/>
<text text-anchor="middle" x="381" y="-268.5" font-family="Helvetica,sans-Serif" font-size="10.00">Fish.breed</text>
</a>
</g>
</g>
<!-- Node3&#45;&gt;Node5 -->
<g id="edge4" class="edge"><title>Node3&#45;&gt;Node5</title>
<path fill="none" stroke="midnightblue" d="M227.225,-316.42C258.091,-307.243 304.816,-293.352 338.463,-283.349"/>
<polygon fill="midnightblue" stroke="midnightblue" points="339.866,-286.583 348.453,-280.379 337.871,-279.874 339.866,-286.583"/>
</g>
<!-- Node6 -->
<g id="node6" class="node"><title>Node6</title>
<g id="a_node6"><a xlink:href="../../de/d70/class_fish.html#af61b5d1f8872e5e3f744c1593d70ac69" target="_top" xlink:title="Fish.Fish">
<polygon fill="white" stroke="black" points="514,-261.5 514,-280.5 570,-280.5 570,-261.5 514,-261.5"/>
<text text-anchor="middle" x="542" y="-268.5" font-family="Helvetica,sans-Serif" font-size="10.00">Fish.Fish</text>
</a>
</g>
</g>
<!-- Node5&#45;&gt;Node6 -->
<g id="edge5" class="edge"><title>Node5&#45;&gt;Node6</title>
<path fill="none" stroke="midnightblue" d="M413.794,-271C439.636,-271 476.149,-271 503.432,-271"/>
<polygon fill="midnightblue" stroke="midnightblue" points="503.762,-274.5 513.762,-271 503.762,-267.5 503.762,-274.5"/>
</g>
<!-- Node7 -->
<g id="node7" class="node"><title>Node7</title>
<g id="a_node7"><a xlink:href="../../dc/d06/class_mover.html#aa8711e427647a7c980d42a89588270ba" target="_top" xlink:title="Mover.getState">
<polygon fill="white" stroke="black" points="497,-152.5 497,-171.5 587,-171.5 587,-152.5 497,-152.5"/>
<text text-anchor="middle" x="542" y="-159.5" font-family="Helvetica,sans-Serif" font-size="10.00">Mover.getState</text>
</a>
</g>
</g>
<!-- Node5&#45;&gt;Node7 -->
<g id="edge6" class="edge"><title>Node5&#45;&gt;Node7</title>
<path fill="none" stroke="midnightblue" d="M411.152,-261.455C424.715,-256.373 440.741,-249.424 454,-241 481.673,-223.417 508.887,-196.778 525.313,-179.382"/>
<polygon fill="midnightblue" stroke="midnightblue" points="528.234,-181.378 532.464,-171.665 523.1,-176.62 528.234,-181.378"/>
</g>
<!-- Node12 -->
<g id="node12" class="node"><title>Node12</title>
<g id="a_node12"><a xlink:href="../../da/d74/class_grid.html#a33b84a1d6b40a447bdd4a33fa3daf555" target="_top" xlink:title="Grid.getNeighbors">
<polygon fill="white" stroke="black" points="329,-468.5 329,-487.5 433,-487.5 433,-468.5 329,-468.5"/>
<text text-anchor="middle" x="381" y="-475.5" font-family="Helvetica,sans-Serif" font-size="10.00">Grid.getNeighbors</text>
</a>
</g>
</g>
<!-- Node11&#45;&gt;Node12 -->
<g id="edge11" class="edge"><title>Node11&#45;&gt;Node12</title>
<path fill="none" stroke="midnightblue" d="M246.533,-478C268.885,-478 295.236,-478 318.593,-478"/>
<polygon fill="midnightblue" stroke="midnightblue" points="318.744,-481.5 328.744,-478 318.744,-474.5 318.744,-481.5"/>
</g>
<!-- Node13 -->
<g id="node13" class="node"><title>Node13</title>
<g id="a_node13"><a xlink:href="../../da/d74/class_grid.html#ab87098d7bfaf1eaf367e4342a5bce0ae" target="_top" xlink:title="Grid.checkBounds">
<polygon fill="white" stroke="black" points="490.5,-525.5 490.5,-544.5 593.5,-544.5 593.5,-525.5 490.5,-525.5"/>
<text text-anchor="middle" x="542" y="-532.5" font-family="Helvetica,sans-Serif" font-size="10.00">Grid.checkBounds</text>
</a>
</g>
</g>
<!-- Node12&#45;&gt;Node13 -->
<g id="edge12" class="edge"><title>Node12&#45;&gt;Node13</title>
<path fill="none" stroke="midnightblue" d="M408.613,-487.541C434.983,-496.994 475.56,-511.54 504.84,-522.037"/>
<polygon fill="midnightblue" stroke="midnightblue" points="503.706,-525.348 514.3,-525.428 506.068,-518.759 503.706,-525.348"/>
</g>
<!-- Node14 -->
<g id="node14" class="node"><title>Node14</title>
<g id="a_node14"><a xlink:href="../../dd/d11/class_cell.html#a4725094202cf38c727f2adcc3cf8b96f" target="_top" xlink:title="Cell.getPosX">
<polygon fill="white" stroke="black" points="504,-487.5 504,-506.5 580,-506.5 580,-487.5 504,-487.5"/>
<text text-anchor="middle" x="542" y="-494.5" font-family="Helvetica,sans-Serif" font-size="10.00">Cell.getPosX</text>
</a>
</g>
</g>
<!-- Node12&#45;&gt;Node14 -->
<g id="edge13" class="edge"><title>Node12&#45;&gt;Node14</title>
<path fill="none" stroke="midnightblue" d="M433.184,-484.116C452.576,-486.434 474.554,-489.06 493.584,-491.334"/>
<polygon fill="midnightblue" stroke="midnightblue" points="493.182,-494.811 503.527,-492.522 494.013,-487.86 493.182,-494.811"/>
</g>
<!-- Node15 -->
<g id="node15" class="node"><title>Node15</title>
<g id="a_node15"><a xlink:href="../../dd/d11/class_cell.html#ac445ab365d1ec19483e98841be73d11e" target="_top" xlink:title="Cell.getPosY">
<polygon fill="white" stroke="black" points="504.5,-449.5 504.5,-468.5 579.5,-468.5 579.5,-449.5 504.5,-449.5"/>
<text text-anchor="middle" x="542" y="-456.5" font-family="Helvetica,sans-Serif" font-size="10.00">Cell.getPosY</text>
</a>
</g>
</g>
<!-- Node12&#45;&gt;Node15 -->
<g id="edge14" class="edge"><title>Node12&#45;&gt;Node15</title>
<path fill="none" stroke="midnightblue" d="M433.184,-471.884C452.73,-469.548 474.903,-466.898 494.036,-464.612"/>
<polygon fill="midnightblue" stroke="midnightblue" points="494.512,-468.08 504.026,-463.418 493.681,-461.13 494.512,-468.08"/>
</g>
<!-- Node16 -->
<g id="node16" class="node"><title>Node16</title>
<g id="a_node16"><a xlink:href="../../da/d74/class_grid.html#a669941947881f795a6ab4a70adf05172" target="_top" xlink:title="Grid.getTorusPoint">
<polygon fill="white" stroke="black" points="490,-411.5 490,-430.5 594,-430.5 594,-411.5 490,-411.5"/>
<text text-anchor="middle" x="542" y="-418.5" font-family="Helvetica,sans-Serif" font-size="10.00">Grid.getTorusPoint</text>
</a>
</g>
</g>
<!-- Node12&#45;&gt;Node16 -->
<g id="edge15" class="edge"><title>Node12&#45;&gt;Node16</title>
<path fill="none" stroke="midnightblue" d="M408.613,-468.459C434.983,-459.006 475.56,-444.46 504.84,-433.963"/>
<polygon fill="midnightblue" stroke="midnightblue" points="506.068,-437.241 514.3,-430.572 503.706,-430.652 506.068,-437.241"/>
</g>
<!-- Node21&#45;&gt;Node7 -->
<g id="edge22" class="edge"><title>Node21&#45;&gt;Node7</title>
<path fill="none" stroke="midnightblue" d="M271.523,-126.763C323.25,-129.329 392.984,-134.145 454,-143 466.797,-144.857 480.519,-147.529 493.195,-150.285"/>
<polygon fill="midnightblue" stroke="midnightblue" points="492.577,-153.733 503.099,-152.499 494.104,-146.902 492.577,-153.733"/>
</g>
<!-- Node21&#45;&gt;Node17 -->
<g id="edge21" class="edge"><title>Node21&#45;&gt;Node17</title>
<path fill="none" stroke="midnightblue" d="M250.356,-133.567C257.903,-136.03 265.336,-139.121 272,-143 292.106,-154.704 289.693,-166.644 308,-181 321.06,-191.241 336.972,-200.579 350.513,-207.748"/>
<polygon fill="midnightblue" stroke="midnightblue" points="348.952,-210.881 359.445,-212.349 352.158,-204.658 348.952,-210.881"/>
</g>
<!-- Node22 -->
<g id="node22" class="node"><title>Node22</title>
<g id="a_node22"><a xlink:href="../../dc/d06/class_mover.html#a074c563641e724872aa0274000ddb0a0" target="_top" xlink:title="Mover.move">
<polygon fill="white" stroke="black" points="343.5,-152.5 343.5,-171.5 418.5,-171.5 418.5,-152.5 343.5,-152.5"/>
<text text-anchor="middle" x="381" y="-159.5" font-family="Helvetica,sans-Serif" font-size="10.00">Mover.move</text>
</a>
</g>
</g>
<!-- Node21&#45;&gt;Node22 -->
<g id="edge23" class="edge"><title>Node21&#45;&gt;Node22</title>
<path fill="none" stroke="midnightblue" d="M241.683,-133.589C269.711,-139.346 305.247,-146.645 333.281,-152.404"/>
<polygon fill="midnightblue" stroke="midnightblue" points="332.743,-155.866 343.243,-154.45 334.151,-149.009 332.743,-155.866"/>
</g>
<!-- Node21&#45;&gt;Node23 -->
<g id="edge24" class="edge"><title>Node21&#45;&gt;Node23</title>
<path fill="none" stroke="midnightblue" d="M241.683,-114.411C269.235,-108.752 304.041,-101.602 331.845,-95.8914"/>
<polygon fill="midnightblue" stroke="midnightblue" points="332.654,-99.2983 341.745,-93.8578 331.245,-92.4415 332.654,-99.2983"/>
</g>
<!-- Node24 -->
<g id="node24" class="node"><title>Node24</title>
<g id="a_node24"><a xlink:href="../../dd/d11/class_cell.html#a6ddc434a1826fac1599a7d901ff2d162" target="_top" xlink:title="Cell.setNextState">
<polygon fill="white" stroke="black" points="491.5,-95.5 491.5,-114.5 592.5,-114.5 592.5,-95.5 491.5,-95.5"/>
<text text-anchor="middle" x="542" y="-102.5" font-family="Helvetica,sans-Serif" font-size="10.00">Cell.setNextState</text>
</a>
</g>
</g>
<!-- Node23&#45;&gt;Node24 -->
<g id="edge25" class="edge"><title>Node23&#45;&gt;Node24</title>
<path fill="none" stroke="midnightblue" d="M420.084,-90.551C438.397,-92.7393 460.777,-95.4136 481.282,-97.8639"/>
<polygon fill="midnightblue" stroke="midnightblue" points="481.141,-101.372 491.486,-99.0832 481.972,-94.4213 481.141,-101.372"/>
</g>
<!-- Node25 -->
<g id="node25" class="node"><title>Node25</title>
<g id="a_node25"><a xlink:href="../../dd/d11/class_cell.html#adfc3c76d1f230a143057441eb6eabb62" target="_top" xlink:title="Cell.update">
<polygon fill="white" stroke="black" points="506.5,-57.5 506.5,-76.5 577.5,-76.5 577.5,-57.5 506.5,-57.5"/>
<text text-anchor="middle" x="542" y="-64.5" font-family="Helvetica,sans-Serif" font-size="10.00">Cell.update</text>
</a>
</g>
</g>
<!-- Node23&#45;&gt;Node25 -->
<g id="edge26" class="edge"><title>Node23&#45;&gt;Node25</title>
<path fill="none" stroke="midnightblue" d="M420.084,-81.449C443.076,-78.7017 472.478,-75.1881 496.532,-72.3138"/>
<polygon fill="midnightblue" stroke="midnightblue" points="496.965,-75.787 506.479,-71.1251 496.135,-68.8364 496.965,-75.787"/>
</g>
</g>
</svg>
