<?xml version="1.0" encoding="UTF-8" standalone="no"?>
<!DOCTYPE svg PUBLIC "-//W3C//DTD SVG 1.1//EN"
 "http://www.w3.org/Graphics/SVG/1.1/DTD/svg11.dtd">
<!-- Generated by graphviz version 2.36.0 (20140111.2315)
 -->
<!-- Title: Main.start Pages: 1 -->
<svg width="660pt" height="123pt"
 viewBox="0.00 0.00 660.00 123.00" xmlns="http://www.w3.org/2000/svg" xmlns:xlink="http://www.w3.org/1999/xlink">
<g id="graph0" class="graph" transform="scale(1 1) rotate(0) translate(4 119)">
<title>Main.start</title>
<polygon fill="white" stroke="none" points="-4,4 -4,-119 656,-119 656,4 -4,4"/>
<!-- Node1 -->
<g id="node1" class="node"><title>Node1</title>
<polygon fill="#bfbfbf" stroke="black" points="0.5,-57.5 0.5,-76.5 65.5,-76.5 65.5,-57.5 0.5,-57.5"/>
<text text-anchor="middle" x="33" y="-64.5" font-family="Helvetica,sans-Serif" font-size="10.00">Main.start</text>
</g>
<!-- Node2 -->
<g id="node2" class="node"><title>Node2</title>
<g id="a_node2"><a xlink:href="../../d2/d40/class_cellular_automata.html#ad8e068dc2395ca5598e5e4164ecfe6b2" target="_top" xlink:title="CellularAutomata.getName">
<polygon fill="white" stroke="black" points="113,-95.5 113,-114.5 261,-114.5 261,-95.5 113,-95.5"/>
<text text-anchor="middle" x="187" y="-102.5" font-family="Helvetica,sans-Serif" font-size="10.00">CellularAutomata.getName</text>
</a>
</g>
</g>
<!-- Node1&#45;&gt;Node2 -->
<g id="edge1" class="edge"><title>Node1&#45;&gt;Node2</title>
<path fill="none" stroke="midnightblue" d="M65.739,-76.2228C77.14,-79.4417 90.1157,-82.9976 102,-86 111.676,-88.4445 122.017,-90.906 132.019,-93.2095"/>
<polygon fill="midnightblue" stroke="midnightblue" points="131.342,-96.6449 141.87,-95.4537 132.897,-89.8198 131.342,-96.6449"/>
</g>
<!-- Node3 -->
<g id="node3" class="node"><title>Node3</title>
<g id="a_node3"><a xlink:href="../../d2/d40/class_cellular_automata.html#a50f00cb421e5e9cf83444c05d16c6b80" target="_top" xlink:title="CellularAutomata.init">
<polygon fill="white" stroke="black" points="128.5,-57.5 128.5,-76.5 245.5,-76.5 245.5,-57.5 128.5,-57.5"/>
<text text-anchor="middle" x="187" y="-64.5" font-family="Helvetica,sans-Serif" font-size="10.00">CellularAutomata.init</text>
</a>
</g>
</g>
<!-- Node1&#45;&gt;Node3 -->
<g id="edge2" class="edge"><title>Node1&#45;&gt;Node3</title>
<path fill="none" stroke="midnightblue" d="M65.8642,-67C81.142,-67 100.061,-67 118.331,-67"/>
<polygon fill="midnightblue" stroke="midnightblue" points="118.386,-70.5001 128.386,-67 118.386,-63.5001 118.386,-70.5001"/>
</g>
<!-- Node4 -->
<g id="node4" class="node"><title>Node4</title>
<g id="a_node4"><a xlink:href="../../d2/d40/class_cellular_automata.html#abe82e6f03caff539c579448cb3bcbb25" target="_top" xlink:title="CellularAutomata.makeTimeline">
<polygon fill="white" stroke="black" points="102,-19.5 102,-38.5 272,-38.5 272,-19.5 102,-19.5"/>
<text text-anchor="middle" x="187" y="-26.5" font-family="Helvetica,sans-Serif" font-size="10.00">CellularAutomata.makeTimeline</text>
</a>
</g>
</g>
<!-- Node1&#45;&gt;Node4 -->
<g id="edge3" class="edge"><title>Node1&#45;&gt;Node4</title>
<path fill="none" stroke="midnightblue" d="M65.739,-57.7772C77.14,-54.5583 90.1157,-51.0024 102,-48 111.676,-45.5555 122.017,-43.094 132.019,-40.7905"/>
<polygon fill="midnightblue" stroke="midnightblue" points="132.897,-44.1802 141.87,-38.5463 131.342,-37.3551 132.897,-44.1802"/>
</g>
<!-- Node5 -->
<g id="node5" class="node"><title>Node5</title>
<g id="a_node5"><a xlink:href="../../d2/d40/class_cellular_automata.html#ae8ef63af0ee6db6d22b32ce6b586e3cd" target="_top" xlink:title="CellularAutomata.update">
<polygon fill="white" stroke="black" points="308.5,-19.5 308.5,-38.5 445.5,-38.5 445.5,-19.5 308.5,-19.5"/>
<text text-anchor="middle" x="377" y="-26.5" font-family="Helvetica,sans-Serif" font-size="10.00">CellularAutomata.update</text>
</a>
</g>
</g>
<!-- Node4&#45;&gt;Node5 -->
<g id="edge4" class="edge"><title>Node4&#45;&gt;Node5</title>
<path fill="none" stroke="midnightblue" d="M272.102,-29C280.816,-29 289.644,-29 298.283,-29"/>
<polygon fill="midnightblue" stroke="midnightblue" points="298.319,-32.5001 308.319,-29 298.319,-25.5001 298.319,-32.5001"/>
</g>
<!-- Node6 -->
<g id="node6" class="node"><title>Node6</title>
<g id="a_node6"><a xlink:href="../../d2/d40/class_cellular_automata.html#a378c64d09ace5a17d91052387801c2e8" target="_top" xlink:title="CellularAutomata.applyRules">
<polygon fill="white" stroke="black" points="490.5,-38.5 490.5,-57.5 643.5,-57.5 643.5,-38.5 490.5,-38.5"/>
<text text-anchor="middle" x="567" y="-45.5" font-family="Helvetica,sans-Serif" font-size="10.00">CellularAutomata.applyRules</text>
</a>
</g>
</g>
<!-- Node5&#45;&gt;Node6 -->
<g id="edge5" class="edge"><title>Node5&#45;&gt;Node6</title>
<path fill="none" stroke="midnightblue" d="M445.607,-35.8326C456.843,-36.9681 468.626,-38.159 480.24,-39.3328"/>
<polygon fill="midnightblue" stroke="midnightblue" points="480.084,-42.8347 490.385,-40.3581 480.788,-35.8702 480.084,-42.8347"/>
</g>
<!-- Node7 -->
<g id="node7" class="node"><title>Node7</title>
<g id="a_node7"><a xlink:href="../../d2/d40/class_cellular_automata.html#ad611b3b173c822a7d0a0ca5f7a0e48c4" target="_top" xlink:title="CellularAutomata.handleUpdate">
<polygon fill="white" stroke="black" points="482,-0.5 482,-19.5 652,-19.5 652,-0.5 482,-0.5"/>
<text text-anchor="middle" x="567" y="-7.5" font-family="Helvetica,sans-Serif" font-size="10.00">CellularAutomata.handleUpdate</text>
</a>
</g>
</g>
<!-- Node5&#45;&gt;Node7 -->
<g id="edge6" class="edge"><title>Node5&#45;&gt;Node7</title>
<path fill="none" stroke="midnightblue" d="M445.607,-22.1674C454.173,-21.3017 463.057,-20.4038 471.943,-19.5058"/>
<polygon fill="midnightblue" stroke="midnightblue" points="472.36,-22.9815 481.958,-18.4936 471.656,-16.017 472.36,-22.9815"/>
</g>
</g>
</svg>
