<?xml version="1.0" encoding="UTF-8" standalone="no"?>
<!DOCTYPE svg PUBLIC "-//W3C//DTD SVG 1.1//EN"
 "http://www.w3.org/Graphics/SVG/1.1/DTD/svg11.dtd">
<!-- Generated by graphviz version 2.36.0 (20140111.2315)
 -->
<!-- Title: Main.start Pages: 1 -->
<svg width="1052pt" height="161pt"
 viewBox="0.00 0.00 1052.00 161.00" xmlns="http://www.w3.org/2000/svg" xmlns:xlink="http://www.w3.org/1999/xlink">
<g id="graph0" class="graph" transform="scale(1 1) rotate(0) translate(4 157)">
<title>Main.start</title>
<polygon fill="white" stroke="none" points="-4,4 -4,-157 1048,-157 1048,4 -4,4"/>
<!-- Node1 -->
<g id="node1" class="node"><title>Node1</title>
<polygon fill="#bfbfbf" stroke="black" points="0.5,-95.5 0.5,-114.5 65.5,-114.5 65.5,-95.5 0.5,-95.5"/>
<text text-anchor="middle" x="33" y="-102.5" font-family="Helvetica,sans-Serif" font-size="10.00">Main.start</text>
</g>
<!-- Node2 -->
<g id="node2" class="node"><title>Node2</title>
<g id="a_node2"><a xlink:href="../../d2/d40/class_cellular_automata.html#ad8e068dc2395ca5598e5e4164ecfe6b2" target="_top" xlink:title="CellularAutomata.getName">
<polygon fill="white" stroke="black" points="108,-133.5 108,-152.5 256,-152.5 256,-133.5 108,-133.5"/>
<text text-anchor="middle" x="182" y="-140.5" font-family="Helvetica,sans-Serif" font-size="10.00">CellularAutomata.getName</text>
</a>
</g>
</g>
<!-- Node1&#45;&gt;Node2 -->
<g id="edge1" class="edge"><title>Node1&#45;&gt;Node2</title>
<path fill="none" stroke="midnightblue" d="M65.762,-114.133C77.1651,-117.343 90.1363,-120.917 102,-124 111.024,-126.345 120.654,-128.746 129.976,-131.017"/>
<polygon fill="midnightblue" stroke="midnightblue" points="129.384,-134.475 139.927,-133.422 131.029,-127.67 129.384,-134.475"/>
</g>
<!-- Node3 -->
<g id="node3" class="node"><title>Node3</title>
<g id="a_node3"><a xlink:href="../../df/df8/class_cell_society_view.html#aa866e58862a7937c2b18938dcd68d882" target="_top" xlink:title="CellSocietyView.getScene">
<polygon fill="white" stroke="black" points="112.5,-95.5 112.5,-114.5 251.5,-114.5 251.5,-95.5 112.5,-95.5"/>
<text text-anchor="middle" x="182" y="-102.5" font-family="Helvetica,sans-Serif" font-size="10.00">CellSocietyView.getScene</text>
</a>
</g>
</g>
<!-- Node1&#45;&gt;Node3 -->
<g id="edge2" class="edge"><title>Node1&#45;&gt;Node3</title>
<path fill="none" stroke="midnightblue" d="M65.5352,-105C76.3856,-105 89.071,-105 101.985,-105"/>
<polygon fill="midnightblue" stroke="midnightblue" points="102.36,-108.5 112.359,-105 102.359,-101.5 102.36,-108.5"/>
</g>
<!-- Node4 -->
<g id="node4" class="node"><title>Node4</title>
<g id="a_node4"><a xlink:href="../../df/df8/class_cell_society_view.html#a3ebde62294a33f32af2abf897e1be666" target="_top" xlink:title="CellSocietyView.makeTimeline">
<polygon fill="white" stroke="black" points="102,-57.5 102,-76.5 262,-76.5 262,-57.5 102,-57.5"/>
<text text-anchor="middle" x="182" y="-64.5" font-family="Helvetica,sans-Serif" font-size="10.00">CellSocietyView.makeTimeline</text>
</a>
</g>
</g>
<!-- Node1&#45;&gt;Node4 -->
<g id="edge3" class="edge"><title>Node1&#45;&gt;Node4</title>
<path fill="none" stroke="midnightblue" d="M65.762,-95.867C77.1651,-92.6566 90.1363,-89.083 102,-86 111.024,-83.655 120.654,-81.2544 129.976,-78.9832"/>
<polygon fill="midnightblue" stroke="midnightblue" points="131.029,-82.3296 139.927,-76.5783 129.384,-75.5255 131.029,-82.3296"/>
</g>
<!-- Node5 -->
<g id="node5" class="node"><title>Node5</title>
<g id="a_node5"><a xlink:href="../../df/df8/class_cell_society_view.html#ad52b914fa03b45d8bc9d64fc407660f3" target="_top" xlink:title="CellSocietyView.updateView">
<polygon fill="white" stroke="black" points="298.5,-57.5 298.5,-76.5 447.5,-76.5 447.5,-57.5 298.5,-57.5"/>
<text text-anchor="middle" x="373" y="-64.5" font-family="Helvetica,sans-Serif" font-size="10.00">CellSocietyView.updateView</text>
</a>
</g>
</g>
<!-- Node4&#45;&gt;Node5 -->
<g id="edge4" class="edge"><title>Node4&#45;&gt;Node5</title>
<path fill="none" stroke="midnightblue" d="M262.058,-67C270.71,-67 279.539,-67 288.245,-67"/>
<polygon fill="midnightblue" stroke="midnightblue" points="288.391,-70.5001 298.391,-67 288.391,-63.5001 288.391,-70.5001"/>
</g>
<!-- Node6 -->
<g id="node6" class="node"><title>Node6</title>
<g id="a_node6"><a xlink:href="../../d2/d40/class_cellular_automata.html#a8f4c8a2f32137db67dd31f5afb4b62c3" target="_top" xlink:title="CellularAutomata.updateNextGen">
<polygon fill="white" stroke="black" points="484.5,-76.5 484.5,-95.5 663.5,-95.5 663.5,-76.5 484.5,-76.5"/>
<text text-anchor="middle" x="574" y="-83.5" font-family="Helvetica,sans-Serif" font-size="10.00">CellularAutomata.updateNextGen</text>
</a>
</g>
</g>
<!-- Node5&#45;&gt;Node6 -->
<g id="edge5" class="edge"><title>Node5&#45;&gt;Node6</title>
<path fill="none" stroke="midnightblue" d="M447.535,-74.0209C456.223,-74.8504 465.195,-75.707 474.159,-76.563"/>
<polygon fill="midnightblue" stroke="midnightblue" points="473.975,-80.0612 484.262,-77.5276 474.64,-73.0929 473.975,-80.0612"/>
</g>
<!-- Node10 -->
<g id="node10" class="node"><title>Node10</title>
<g id="a_node10"><a xlink:href="../../dd/d97/class_grid_drawer.html#a8853ef53b515fd60ca524f05a3dbf897" target="_top" xlink:title="GridDrawer.updateNextGen">
<polygon fill="white" stroke="black" points="500,-38.5 500,-57.5 648,-57.5 648,-38.5 500,-38.5"/>
<text text-anchor="middle" x="574" y="-45.5" font-family="Helvetica,sans-Serif" font-size="10.00">GridDrawer.updateNextGen</text>
</a>
</g>
</g>
<!-- Node5&#45;&gt;Node10 -->
<g id="edge9" class="edge"><title>Node5&#45;&gt;Node10</title>
<path fill="none" stroke="midnightblue" d="M447.535,-59.9791C461.255,-58.6691 475.684,-57.2915 489.674,-55.9557"/>
<polygon fill="midnightblue" stroke="midnightblue" points="490.145,-59.4268 499.767,-54.9921 489.48,-52.4584 490.145,-59.4268"/>
</g>
<!-- Node7 -->
<g id="node7" class="node"><title>Node7</title>
<g id="a_node7"><a xlink:href="../../d2/d40/class_cellular_automata.html#adad8aede6a18cf243c40492a96316a4b" target="_top" xlink:title="CellularAutomata.checkRules">
<polygon fill="white" stroke="black" points="707.5,-114.5 707.5,-133.5 862.5,-133.5 862.5,-114.5 707.5,-114.5"/>
<text text-anchor="middle" x="785" y="-121.5" font-family="Helvetica,sans-Serif" font-size="10.00">CellularAutomata.checkRules</text>
</a>
</g>
</g>
<!-- Node6&#45;&gt;Node7 -->
<g id="edge6" class="edge"><title>Node6&#45;&gt;Node7</title>
<path fill="none" stroke="midnightblue" d="M627.47,-95.54C656.041,-100.735 691.58,-107.196 721.569,-112.649"/>
<polygon fill="midnightblue" stroke="midnightblue" points="721.044,-116.111 731.509,-114.456 722.296,-109.224 721.044,-116.111"/>
</g>
<!-- Node8 -->
<g id="node8" class="node"><title>Node8</title>
<g id="a_node8"><a xlink:href="../../d2/d40/class_cellular_automata.html#ab39b5164764f20382801aa9a4663eb4b" target="_top" xlink:title="CellularAutomata.handleUpdate">
<polygon fill="white" stroke="black" points="700,-76.5 700,-95.5 870,-95.5 870,-76.5 700,-76.5"/>
<text text-anchor="middle" x="785" y="-83.5" font-family="Helvetica,sans-Serif" font-size="10.00">CellularAutomata.handleUpdate</text>
</a>
</g>
</g>
<!-- Node6&#45;&gt;Node8 -->
<g id="edge7" class="edge"><title>Node6&#45;&gt;Node8</title>
<path fill="none" stroke="midnightblue" d="M663.635,-86C672.271,-86 681.055,-86 689.744,-86"/>
<polygon fill="midnightblue" stroke="midnightblue" points="689.886,-89.5001 699.886,-86 689.886,-82.5001 689.886,-89.5001"/>
</g>
<!-- Node9 -->
<g id="node9" class="node"><title>Node9</title>
<g id="a_node9"><a xlink:href="../../d2/d40/class_cellular_automata.html#a34ceed434c942d34ff03169b92684726" target="_top" xlink:title="CellularAutomata.getGrid">
<polygon fill="white" stroke="black" points="906,-76.5 906,-95.5 1044,-95.5 1044,-76.5 906,-76.5"/>
<text text-anchor="middle" x="975" y="-83.5" font-family="Helvetica,sans-Serif" font-size="10.00">CellularAutomata.getGrid</text>
</a>
</g>
</g>
<!-- Node8&#45;&gt;Node9 -->
<g id="edge8" class="edge"><title>Node8&#45;&gt;Node9</title>
<path fill="none" stroke="midnightblue" d="M870.102,-86C878.582,-86 887.17,-86 895.587,-86"/>
<polygon fill="midnightblue" stroke="midnightblue" points="895.75,-89.5001 905.75,-86 895.75,-82.5001 895.75,-89.5001"/>
</g>
<!-- Node11 -->
<g id="node11" class="node"><title>Node11</title>
<g id="a_node11"><a xlink:href="../../da/d74/class_grid.html#aba1e1b4dba7072955cad21806ef1c753" target="_top" xlink:title="Grid.getCells">
<polygon fill="white" stroke="black" points="746.5,-38.5 746.5,-57.5 823.5,-57.5 823.5,-38.5 746.5,-38.5"/>
<text text-anchor="middle" x="785" y="-45.5" font-family="Helvetica,sans-Serif" font-size="10.00">Grid.getCells</text>
</a>
</g>
</g>
<!-- Node10&#45;&gt;Node11 -->
<g id="edge10" class="edge"><title>Node10&#45;&gt;Node11</title>
<path fill="none" stroke="midnightblue" d="M648.098,-48C677.403,-48 710.341,-48 736.45,-48"/>
<polygon fill="midnightblue" stroke="midnightblue" points="736.462,-51.5001 746.462,-48 736.462,-44.5001 736.462,-51.5001"/>
</g>
<!-- Node12 -->
<g id="node12" class="node"><title>Node12</title>
<g id="a_node12"><a xlink:href="../../da/d74/class_grid.html#a5f4c70cc0b2718fca839fd8755fcfff4" target="_top" xlink:title="Grid.getGridSize">
<polygon fill="white" stroke="black" points="737.5,-0.5 737.5,-19.5 832.5,-19.5 832.5,-0.5 737.5,-0.5"/>
<text text-anchor="middle" x="785" y="-7.5" font-family="Helvetica,sans-Serif" font-size="10.00">Grid.getGridSize</text>
</a>
</g>
</g>
<!-- Node10&#45;&gt;Node12 -->
<g id="edge11" class="edge"><title>Node10&#45;&gt;Node12</title>
<path fill="none" stroke="midnightblue" d="M627.47,-38.46C657.779,-32.9492 695.929,-26.0128 726.978,-20.3676"/>
<polygon fill="midnightblue" stroke="midnightblue" points="728.001,-23.7391 737.214,-18.5066 726.749,-16.852 728.001,-23.7391"/>
</g>
</g>
</svg>
