<?xml version="1.0" encoding="UTF-8" standalone="no"?>
<!DOCTYPE svg PUBLIC "-//W3C//DTD SVG 1.1//EN"
 "http://www.w3.org/Graphics/SVG/1.1/DTD/svg11.dtd">
<!-- Generated by graphviz version 2.36.0 (20140111.2315)
 -->
<!-- Title: TorusGrid Pages: 1 -->
<svg width="68pt" height="140pt"
 viewBox="0.00 0.00 68.00 140.00" xmlns="http://www.w3.org/2000/svg" xmlns:xlink="http://www.w3.org/1999/xlink">
<g id="graph0" class="graph" transform="scale(1 1) rotate(0) translate(4 136)">
<title>TorusGrid</title>
<polygon fill="white" stroke="none" points="-4,4 -4,-136 64,-136 64,4 -4,4"/>
<!-- Node1 -->
<g id="node1" class="node"><title>Node1</title>
<polygon fill="#bfbfbf" stroke="black" points="-0.5,-0.5 -0.5,-19.5 60.5,-19.5 60.5,-0.5 -0.5,-0.5"/>
<text text-anchor="middle" x="30" y="-7.5" font-family="Helvetica,sans-Serif" font-size="10.00">TorusGrid</text>
</g>
<!-- Node2 -->
<g id="node2" class="node"><title>Node2</title>
<g id="a_node2"><a xlink:href="../../da/d74/class_grid.html" target="_top" xlink:title="Grid">
<polygon fill="white" stroke="black" points="12,-56.5 12,-75.5 48,-75.5 48,-56.5 12,-56.5"/>
<text text-anchor="middle" x="30" y="-63.5" font-family="Helvetica,sans-Serif" font-size="10.00">Grid</text>
</a>
</g>
</g>
<!-- Node2&#45;&gt;Node1 -->
<g id="edge1" class="edge"><title>Node2&#45;&gt;Node1</title>
<path fill="none" stroke="midnightblue" d="M30,-45.8045C30,-36.9102 30,-26.7798 30,-19.7511"/>
<polygon fill="midnightblue" stroke="midnightblue" points="26.5001,-46.083 30,-56.083 33.5001,-46.083 26.5001,-46.083"/>
</g>
<!-- Node3 -->
<g id="node3" class="node"><title>Node3</title>
<polygon fill="white" stroke="#bfbfbf" points="7,-112.5 7,-131.5 53,-131.5 53,-112.5 7,-112.5"/>
<text text-anchor="middle" x="30" y="-119.5" font-family="Helvetica,sans-Serif" font-size="10.00">Group</text>
</g>
<!-- Node3&#45;&gt;Node2 -->
<g id="edge2" class="edge"><title>Node3&#45;&gt;Node2</title>
<path fill="none" stroke="midnightblue" d="M30,-101.805C30,-92.9102 30,-82.7798 30,-75.7511"/>
<polygon fill="midnightblue" stroke="midnightblue" points="26.5001,-102.083 30,-112.083 33.5001,-102.083 26.5001,-102.083"/>
</g>
</g>
</svg>
