<?xml version="1.0" encoding="UTF-8" standalone="no"?>
<!DOCTYPE svg PUBLIC "-//W3C//DTD SVG 1.1//EN"
 "http://www.w3.org/Graphics/SVG/1.1/DTD/svg11.dtd">
<!-- Generated by graphviz version 2.36.0 (20140111.2315)
 -->
<!-- Title: Grid.checkBounds Pages: 1 -->
<!--zoomable 218 -->
<svg id="main" version="1.1" xmlns="http://www.w3.org/2000/svg" xmlns:xlink="http://www.w3.org/1999/xlink" xml:space="preserve" onload="init(evt)">
<style type="text/css"><![CDATA[
.edge:hover path { stroke: red; }
.edge:hover polygon { stroke: red; fill: red; }
]]></style>
<script type="text/javascript"><![CDATA[
var edges = document.getElementsByTagName('g');
if (edges && edges.length) {
  for (var i=0;i<edges.length;i++) {
    if (edges[i].id.substr(0,4)=='edge') {
      edges[i].setAttribute('class','edge');
    }
  }
}
]]></script>
        <defs>
                <circle id="rim" cx="0" cy="0" r="7"/>
                <circle id="rim2" cx="0" cy="0" r="3.5"/>
                <g id="zoomPlus">
                        <use xlink:href="#rim" fill="#404040">
                                <set attributeName="fill" to="#808080" begin="zoomplus.mouseover" end="zoomplus.mouseout"/>
                        </use>
                        <path d="M-4,0h8M0,-4v8" fill="none" stroke="white" stroke-width="1.5" pointer-events="none"/>
                </g>
                <g id="zoomMin">
                        <use xlink:href="#rim" fill="#404040">
                                <set attributeName="fill" to="#808080" begin="zoomminus.mouseover" end="zoomminus.mouseout"/>
                        </use>
                        <path d="M-4,0h8" fill="none" stroke="white" stroke-width="1.5" pointer-events="none"/>
                </g>
                <g id="dirArrow">
                        <path fill="none" stroke="white" stroke-width="1.5" d="M0,-3.0v7 M-2.5,-0.5L0,-3.0L2.5,-0.5"/>
                </g>
               <g id="resetDef">
                       <use xlink:href="#rim2" fill="#404040">
                               <set attributeName="fill" to="#808080" begin="reset.mouseover" end="reset.mouseout"/>
                       </use>
               </g>
        </defs>

<script type="text/javascript">
var viewWidth = 922;
var viewHeight = 218;
var sectionId = 'dynsection-3';
</script>
<script xlink:href="../../svgpan.js"/>
<svg id="graph" class="graph">
<g id="viewport">
<title>Grid.checkBounds</title>
<polygon fill="white" stroke="none" points="-4,4 -4,-214 918,-214 918,4 -4,4"/>
<!-- Node1 -->
<g id="node1" class="node"><title>Node1</title>
<polygon fill="#bfbfbf" stroke="black" points="0.5,-95.5 0.5,-114.5 103.5,-114.5 103.5,-95.5 0.5,-95.5"/>
<text text-anchor="middle" x="52" y="-102.5" font-family="Helvetica,sans-Serif" font-size="10.00">Grid.checkBounds</text>
</g>
<!-- Node2 -->
<g id="node2" class="node"><title>Node2</title>
<g id="a_node2"><a xlink:href="../../da/d74/class_grid.html#a33b84a1d6b40a447bdd4a33fa3daf555" target="_top" xlink:title="Grid.getNeighbors">
<polygon fill="white" stroke="black" points="140,-95.5 140,-114.5 244,-114.5 244,-95.5 140,-95.5"/>
<text text-anchor="middle" x="192" y="-102.5" font-family="Helvetica,sans-Serif" font-size="10.00">Grid.getNeighbors</text>
</a>
</g>
</g>
<!-- Node1&#45;&gt;Node2 -->
<g id="edge1" class="edge"><title>Node1&#45;&gt;Node2</title>
<path fill="none" stroke="midnightblue" d="M113.749,-105C122.491,-105 131.413,-105 139.942,-105"/>
<polygon fill="midnightblue" stroke="midnightblue" points="113.603,-101.5 103.603,-105 113.602,-108.5 113.603,-101.5"/>
</g>
<!-- Node3 -->
<g id="node3" class="node"><title>Node3</title>
<g id="a_node3"><a xlink:href="../../da/d74/class_grid.html#a43e84876ecfc5265a5e37a39e64e794e" target="_top" xlink:title="Grid.findNeighbors">
<polygon fill="white" stroke="black" points="280.5,-95.5 280.5,-114.5 385.5,-114.5 385.5,-95.5 280.5,-95.5"/>
<text text-anchor="middle" x="333" y="-102.5" font-family="Helvetica,sans-Serif" font-size="10.00">Grid.findNeighbors</text>
</a>
</g>
</g>
<!-- Node2&#45;&gt;Node3 -->
<g id="edge2" class="edge"><title>Node2&#45;&gt;Node3</title>
<path fill="none" stroke="midnightblue" d="M254.426,-105C263.091,-105 271.927,-105 280.384,-105"/>
<polygon fill="midnightblue" stroke="midnightblue" points="254.364,-101.5 244.364,-105 254.364,-108.5 254.364,-101.5"/>
</g>
<!-- Node4 -->
<g id="node4" class="node"><title>Node4</title>
<g id="a_node4"><a xlink:href="../../d9/df1/class_fire.html#a65c7d316a113807e7bdf626a789e2bf5" target="_top" xlink:title="Fire.checkNextToFire">
<polygon fill="white" stroke="black" points="445.5,-190.5 445.5,-209.5 558.5,-209.5 558.5,-190.5 445.5,-190.5"/>
<text text-anchor="middle" x="502" y="-197.5" font-family="Helvetica,sans-Serif" font-size="10.00">Fire.checkNextToFire</text>
</a>
</g>
</g>
<!-- Node3&#45;&gt;Node4 -->
<g id="edge3" class="edge"><title>Node3&#45;&gt;Node4</title>
<path fill="none" stroke="midnightblue" d="M349.245,-122.317C365.543,-139.742 392.984,-166.108 422,-181 429.53,-184.865 437.87,-187.962 446.226,-190.438"/>
<polygon fill="midnightblue" stroke="midnightblue" points="351.506,-119.601 342.182,-114.57 346.333,-124.318 351.506,-119.601"/>
</g>
<!-- Node7 -->
<g id="node7" class="node"><title>Node7</title>
<g id="a_node7"><a xlink:href="../../d8/d84/class_game_of_life.html#aca7cd11a349cf14c940011021f91127f" target="_top" xlink:title="GameOfLife.ruleOne">
<polygon fill="white" stroke="black" points="445.5,-152.5 445.5,-171.5 558.5,-171.5 558.5,-152.5 445.5,-152.5"/>
<text text-anchor="middle" x="502" y="-159.5" font-family="Helvetica,sans-Serif" font-size="10.00">GameOfLife.ruleOne</text>
</a>
</g>
</g>
<!-- Node3&#45;&gt;Node7 -->
<g id="edge6" class="edge"><title>Node3&#45;&gt;Node7</title>
<path fill="none" stroke="midnightblue" d="M362.885,-118.965C379.828,-126.778 401.809,-136.268 422,-143 432.706,-146.569 444.435,-149.764 455.503,-152.468"/>
<polygon fill="midnightblue" stroke="midnightblue" points="364.084,-115.662 353.543,-114.593 361.117,-122.002 364.084,-115.662"/>
</g>
<!-- Node9 -->
<g id="node9" class="node"><title>Node9</title>
<g id="a_node9"><a xlink:href="../../d8/d84/class_game_of_life.html#a6b6c946c47342fd7e4595710d72a9217" target="_top" xlink:title="GameOfLife.ruleTwo">
<polygon fill="white" stroke="black" points="447,-114.5 447,-133.5 557,-133.5 557,-114.5 447,-114.5"/>
<text text-anchor="middle" x="502" y="-121.5" font-family="Helvetica,sans-Serif" font-size="10.00">GameOfLife.ruleTwo</text>
</a>
</g>
</g>
<!-- Node3&#45;&gt;Node9 -->
<g id="edge8" class="edge"><title>Node3&#45;&gt;Node9</title>
<path fill="none" stroke="midnightblue" d="M396.106,-112.066C412.753,-113.96 430.616,-115.992 446.798,-117.833"/>
<polygon fill="midnightblue" stroke="midnightblue" points="396.256,-108.561 385.924,-110.908 395.465,-115.516 396.256,-108.561"/>
</g>
<!-- Node10 -->
<g id="node10" class="node"><title>Node10</title>
<g id="a_node10"><a xlink:href="../../da/d1e/class_segregation.html#ae7696748513b436c2578ff68b02d889d" target="_top" xlink:title="Segregation.getSamePercent">
<polygon fill="white" stroke="black" points="422.5,-76.5 422.5,-95.5 581.5,-95.5 581.5,-76.5 422.5,-76.5"/>
<text text-anchor="middle" x="502" y="-83.5" font-family="Helvetica,sans-Serif" font-size="10.00">Segregation.getSamePercent</text>
</a>
</g>
</g>
<!-- Node3&#45;&gt;Node10 -->
<g id="edge10" class="edge"><title>Node3&#45;&gt;Node10</title>
<path fill="none" stroke="midnightblue" d="M395.901,-97.9574C404.55,-96.9733 413.532,-95.9515 422.438,-94.9382"/>
<polygon fill="midnightblue" stroke="midnightblue" points="395.465,-94.4843 385.924,-99.0924 396.256,-101.439 395.465,-94.4843"/>
</g>
<!-- Node13 -->
<g id="node13" class="node"><title>Node13</title>
<g id="a_node13"><a xlink:href="../../d0/db0/class_wator.html#a0afccb8f97e33c1d21e51ee1a3f4922b" target="_top" xlink:title="Wator.ruleOne">
<polygon fill="white" stroke="black" points="460.5,-38.5 460.5,-57.5 543.5,-57.5 543.5,-38.5 460.5,-38.5"/>
<text text-anchor="middle" x="502" y="-45.5" font-family="Helvetica,sans-Serif" font-size="10.00">Wator.ruleOne</text>
</a>
</g>
</g>
<!-- Node3&#45;&gt;Node13 -->
<g id="edge13" class="edge"><title>Node3&#45;&gt;Node13</title>
<path fill="none" stroke="midnightblue" d="M362.885,-91.0345C379.828,-83.2224 401.809,-73.7321 422,-67 434.312,-62.8951 447.977,-59.2867 460.433,-56.3482"/>
<polygon fill="midnightblue" stroke="midnightblue" points="361.117,-87.9977 353.543,-95.4067 364.084,-94.3377 361.117,-87.9977"/>
</g>
<!-- Node15 -->
<g id="node15" class="node"><title>Node15</title>
<g id="a_node15"><a xlink:href="../../d0/db0/class_wator.html#aa8dba59120d9d6d7d7521f3a4ee7b454" target="_top" xlink:title="Wator.ruleTwo">
<polygon fill="white" stroke="black" points="462,-0.5 462,-19.5 542,-19.5 542,-0.5 462,-0.5"/>
<text text-anchor="middle" x="502" y="-7.5" font-family="Helvetica,sans-Serif" font-size="10.00">Wator.ruleTwo</text>
</a>
</g>
</g>
<!-- Node3&#45;&gt;Node15 -->
<g id="edge15" class="edge"><title>Node3&#45;&gt;Node15</title>
<path fill="none" stroke="midnightblue" d="M349.245,-87.6831C365.543,-70.2576 392.984,-43.8922 422,-29 434.299,-22.6876 448.759,-18.4238 461.922,-15.5651"/>
<polygon fill="midnightblue" stroke="midnightblue" points="346.333,-85.6822 342.182,-95.4299 351.506,-90.3986 346.333,-85.6822"/>
</g>
<!-- Node5 -->
<g id="node5" class="node"><title>Node5</title>
<g id="a_node5"><a xlink:href="../../d9/df1/class_fire.html#accc21ae2162fd526d8ca66c472a62a28" target="_top" xlink:title="Fire.ruleTwo">
<polygon fill="white" stroke="black" points="646.5,-190.5 646.5,-209.5 717.5,-209.5 717.5,-190.5 646.5,-190.5"/>
<text text-anchor="middle" x="682" y="-197.5" font-family="Helvetica,sans-Serif" font-size="10.00">Fire.ruleTwo</text>
</a>
</g>
</g>
<!-- Node4&#45;&gt;Node5 -->
<g id="edge4" class="edge"><title>Node4&#45;&gt;Node5</title>
<path fill="none" stroke="midnightblue" d="M569.101,-200C595.325,-200 624.394,-200 646.331,-200"/>
<polygon fill="midnightblue" stroke="midnightblue" points="568.832,-196.5 558.832,-200 568.832,-203.5 568.832,-196.5"/>
</g>
<!-- Node6 -->
<g id="node6" class="node"><title>Node6</title>
<g id="a_node6"><a xlink:href="../../d9/df1/class_fire.html#a28764fd7310f7be3a246f5eaefd8887c" target="_top" xlink:title="Fire.checkRules">
<polygon fill="white" stroke="black" points="803.5,-190.5 803.5,-209.5 892.5,-209.5 892.5,-190.5 803.5,-190.5"/>
<text text-anchor="middle" x="848" y="-197.5" font-family="Helvetica,sans-Serif" font-size="10.00">Fire.checkRules</text>
</a>
</g>
</g>
<!-- Node5&#45;&gt;Node6 -->
<g id="edge5" class="edge"><title>Node5&#45;&gt;Node6</title>
<path fill="none" stroke="midnightblue" d="M727.861,-200C751.413,-200 780.147,-200 803.495,-200"/>
<polygon fill="midnightblue" stroke="midnightblue" points="727.78,-196.5 717.78,-200 727.78,-203.5 727.78,-196.5"/>
</g>
<!-- Node8 -->
<g id="node8" class="node"><title>Node8</title>
<g id="a_node8"><a xlink:href="../../d8/d84/class_game_of_life.html#a0100556ddb7f59c44404450b7c386190" target="_top" xlink:title="GameOfLife.checkRules">
<polygon fill="white" stroke="black" points="618,-133.5 618,-152.5 746,-152.5 746,-133.5 618,-133.5"/>
<text text-anchor="middle" x="682" y="-140.5" font-family="Helvetica,sans-Serif" font-size="10.00">GameOfLife.checkRules</text>
</a>
</g>
</g>
<!-- Node7&#45;&gt;Node8 -->
<g id="edge7" class="edge"><title>Node7&#45;&gt;Node8</title>
<path fill="none" stroke="midnightblue" d="M569.143,-154.94C585.101,-153.236 602.11,-151.421 617.923,-149.733"/>
<polygon fill="midnightblue" stroke="midnightblue" points="568.404,-151.499 558.832,-156.04 569.147,-158.459 568.404,-151.499"/>
</g>
<!-- Node9&#45;&gt;Node8 -->
<g id="edge9" class="edge"><title>Node9&#45;&gt;Node8</title>
<path fill="none" stroke="midnightblue" d="M567.433,-130.878C583.877,-132.633 601.535,-134.518 617.911,-136.266"/>
<polygon fill="midnightblue" stroke="midnightblue" points="567.688,-127.385 557.373,-129.804 566.945,-134.346 567.688,-127.385"/>
</g>
<!-- Node11 -->
<g id="node11" class="node"><title>Node11</title>
<g id="a_node11"><a xlink:href="../../da/d1e/class_segregation.html#a65706fcdb683f11f27836d3f4c591f3c" target="_top" xlink:title="Segregation.ruleOne">
<polygon fill="white" stroke="black" points="624,-76.5 624,-95.5 740,-95.5 740,-76.5 624,-76.5"/>
<text text-anchor="middle" x="682" y="-83.5" font-family="Helvetica,sans-Serif" font-size="10.00">Segregation.ruleOne</text>
</a>
</g>
</g>
<!-- Node10&#45;&gt;Node11 -->
<g id="edge11" class="edge"><title>Node10&#45;&gt;Node11</title>
<path fill="none" stroke="midnightblue" d="M591.651,-86C602.627,-86 613.611,-86 623.934,-86"/>
<polygon fill="midnightblue" stroke="midnightblue" points="591.592,-82.5001 581.592,-86 591.591,-89.5001 591.592,-82.5001"/>
</g>
<!-- Node12 -->
<g id="node12" class="node"><title>Node12</title>
<g id="a_node12"><a xlink:href="../../da/d1e/class_segregation.html#a8272e13082766c6c6d45fc1e58acd6dc" target="_top" xlink:title="Segregation.checkRules">
<polygon fill="white" stroke="black" points="782.5,-76.5 782.5,-95.5 913.5,-95.5 913.5,-76.5 782.5,-76.5"/>
<text text-anchor="middle" x="848" y="-83.5" font-family="Helvetica,sans-Serif" font-size="10.00">Segregation.checkRules</text>
</a>
</g>
</g>
<!-- Node11&#45;&gt;Node12 -->
<g id="edge12" class="edge"><title>Node11&#45;&gt;Node12</title>
<path fill="none" stroke="midnightblue" d="M750.376,-86C760.955,-86 771.87,-86 782.385,-86"/>
<polygon fill="midnightblue" stroke="midnightblue" points="750.359,-82.5001 740.359,-86 750.359,-89.5001 750.359,-82.5001"/>
</g>
<!-- Node14 -->
<g id="node14" class="node"><title>Node14</title>
<g id="a_node14"><a xlink:href="../../d0/db0/class_wator.html#a422810cdcb035633301b3469cbee5e34" target="_top" xlink:title="Wator.checkRules">
<polygon fill="white" stroke="black" points="633,-19.5 633,-38.5 731,-38.5 731,-19.5 633,-19.5"/>
<text text-anchor="middle" x="682" y="-26.5" font-family="Helvetica,sans-Serif" font-size="10.00">Wator.checkRules</text>
</a>
</g>
</g>
<!-- Node13&#45;&gt;Node14 -->
<g id="edge14" class="edge"><title>Node13&#45;&gt;Node14</title>
<path fill="none" stroke="midnightblue" d="M553.789,-42.5788C578.603,-39.93 608.31,-36.759 632.774,-34.1477"/>
<polygon fill="midnightblue" stroke="midnightblue" points="553.409,-39.0993 543.837,-43.641 554.152,-46.0598 553.409,-39.0993"/>
</g>
<!-- Node15&#45;&gt;Node14 -->
<g id="edge16" class="edge"><title>Node15&#45;&gt;Node14</title>
<path fill="none" stroke="midnightblue" d="M552.128,-15.244C577.287,-17.9295 607.803,-21.1869 632.824,-23.8576"/>
<polygon fill="midnightblue" stroke="midnightblue" points="552.378,-11.7509 542.063,-14.1696 551.635,-18.7113 552.378,-11.7509"/>
</g>
</g>
</svg>
        <g id="navigator" transform="translate(0 0)" fill="#404254">
                <rect fill="#f2f5e9" fill-opacity="0.5" stroke="#606060" stroke-width=".5" x="0" y="0" width="60" height="60"/>
                <use id="zoomplus" xlink:href="#zoomPlus" x="17" y="9" onmousedown="handleZoom(evt,'in')"/>
                <use id="zoomminus" xlink:href="#zoomMin" x="42" y="9" onmousedown="handleZoom(evt,'out')"/>
                <use id="reset" xlink:href="#resetDef" x="30" y="36" onmousedown="handleReset()"/>
                <g id="arrowUp" xlink:href="#dirArrow" transform="translate(30 24)" onmousedown="handlePan(0,-1)">
                  <use xlink:href="#rim" fill="#404040">
                        <set attributeName="fill" to="#808080" begin="arrowUp.mouseover" end="arrowUp.mouseout"/>
                  </use>
                  <path fill="none" stroke="white" stroke-width="1.5" d="M0,-3.0v7 M-2.5,-0.5L0,-3.0L2.5,-0.5"/>
                </g>
                <g id="arrowRight" xlink:href="#dirArrow" transform="rotate(90) translate(36 -43)" onmousedown="handlePan(1,0)">
                  <use xlink:href="#rim" fill="#404040">
                        <set attributeName="fill" to="#808080" begin="arrowRight.mouseover" end="arrowRight.mouseout"/>
                  </use>
                  <path fill="none" stroke="white" stroke-width="1.5" d="M0,-3.0v7 M-2.5,-0.5L0,-3.0L2.5,-0.5"/>
                </g>
                <g id="arrowDown" xlink:href="#dirArrow" transform="rotate(180) translate(-30 -48)" onmousedown="handlePan(0,1)">
                  <use xlink:href="#rim" fill="#404040">
                        <set attributeName="fill" to="#808080" begin="arrowDown.mouseover" end="arrowDown.mouseout"/>
                  </use>
                  <path fill="none" stroke="white" stroke-width="1.5" d="M0,-3.0v7 M-2.5,-0.5L0,-3.0L2.5,-0.5"/>
                </g>
                <g id="arrowLeft" xlink:href="#dirArrow" transform="rotate(270) translate(-36 17)" onmousedown="handlePan(-1,0)">
                  <use xlink:href="#rim" fill="#404040">
                        <set attributeName="fill" to="#808080" begin="arrowLeft.mouseover" end="arrowLeft.mouseout"/>
                  </use>
                  <path fill="none" stroke="white" stroke-width="1.5" d="M0,-3.0v7 M-2.5,-0.5L0,-3.0L2.5,-0.5"/>
                </g>
        </g>
        <svg viewBox="0 0 15 15" width="100%" height="30px" preserveAspectRatio="xMaxYMin meet">
         <g id="arrow_out" transform="scale(0.3 0.3)">
          <a xlink:href="class_grid_ab87098d7bfaf1eaf367e4342a5bce0ae_icgraph_org.svg" target="_base">
           <rect id="button" ry="5" rx="5" y="6" x="6" height="38" width="38"
                fill="#f2f5e9" fill-opacity="0.5" stroke="#606060" stroke-width="1.0"/>
           <path id="arrow"
             d="M 11.500037,31.436501 C 11.940474,20.09759 22.043105,11.32322 32.158766,21.979434 L 37.068811,17.246167 C 37.068811,17.246167 37.088388,32 37.088388,32 L 22.160133,31.978069 C 22.160133,31.978069 26.997745,27.140456 26.997745,27.140456 C 18.528582,18.264221 13.291696,25.230495 11.500037,31.436501 z"
             style="fill:#404040;"/>
          </a>
         </g>
        </svg>
</svg>
