<?xml version="1.0" encoding="UTF-8" standalone="no"?>
<!DOCTYPE svg PUBLIC "-//W3C//DTD SVG 1.1//EN"
 "http://www.w3.org/Graphics/SVG/1.1/DTD/svg11.dtd">
<!-- Generated by graphviz version 2.36.0 (20140111.2315)
 -->
<!-- Title: Grid.findNeighbors Pages: 1 -->
<svg width="630pt" height="180pt"
 viewBox="0.00 0.00 630.00 180.00" xmlns="http://www.w3.org/2000/svg" xmlns:xlink="http://www.w3.org/1999/xlink">
<g id="graph0" class="graph" transform="scale(1 1) rotate(0) translate(4 176)">
<title>Grid.findNeighbors</title>
<polygon fill="white" stroke="none" points="-4,4 -4,-176 626,-176 626,4 -4,4"/>
<!-- Node1 -->
<g id="node1" class="node"><title>Node1</title>
<polygon fill="#bfbfbf" stroke="black" points="0.5,-76.5 0.5,-95.5 105.5,-95.5 105.5,-76.5 0.5,-76.5"/>
<text text-anchor="middle" x="53" y="-83.5" font-family="Helvetica,sans-Serif" font-size="10.00">Grid.findNeighbors</text>
</g>
<!-- Node2 -->
<g id="node2" class="node"><title>Node2</title>
<g id="a_node2"><a xlink:href="../../d9/df1/class_fire.html#a65c7d316a113807e7bdf626a789e2bf5" target="_top" xlink:title="Fire.checkNextToFire">
<polygon fill="white" stroke="black" points="165.5,-152.5 165.5,-171.5 278.5,-171.5 278.5,-152.5 165.5,-152.5"/>
<text text-anchor="middle" x="222" y="-159.5" font-family="Helvetica,sans-Serif" font-size="10.00">Fire.checkNextToFire</text>
</a>
</g>
</g>
<!-- Node1&#45;&gt;Node2 -->
<g id="edge1" class="edge"><title>Node1&#45;&gt;Node2</title>
<path fill="none" stroke="midnightblue" d="M73.9055,-101.718C91.0524,-114.543 116.93,-132.241 142,-143 150.815,-146.783 160.521,-149.897 170.022,-152.43"/>
<polygon fill="midnightblue" stroke="midnightblue" points="75.8574,-98.805 65.7852,-95.5186 71.6096,-104.369 75.8574,-98.805"/>
</g>
<!-- Node4 -->
<g id="node4" class="node"><title>Node4</title>
<g id="a_node4"><a xlink:href="../../d8/d84/class_game_of_life.html#ae3bc4975c6e75164f5661d35cf3c97d0" target="_top" xlink:title="GameOfLife.checkRules">
<polygon fill="white" stroke="black" points="158,-114.5 158,-133.5 286,-133.5 286,-114.5 158,-114.5"/>
<text text-anchor="middle" x="222" y="-121.5" font-family="Helvetica,sans-Serif" font-size="10.00">GameOfLife.checkRules</text>
</a>
</g>
</g>
<!-- Node1&#45;&gt;Node4 -->
<g id="edge3" class="edge"><title>Node1&#45;&gt;Node4</title>
<path fill="none" stroke="midnightblue" d="M105.965,-97.8243C129.509,-103.182 156.974,-109.431 179.162,-114.48"/>
<polygon fill="midnightblue" stroke="midnightblue" points="106.668,-94.3951 96.1412,-95.589 105.115,-101.221 106.668,-94.3951"/>
</g>
<!-- Node5 -->
<g id="node5" class="node"><title>Node5</title>
<g id="a_node5"><a xlink:href="../../da/d1e/class_segregation.html#ae7696748513b436c2578ff68b02d889d" target="_top" xlink:title="Segregation.getSamePercent">
<polygon fill="white" stroke="black" points="142.5,-76.5 142.5,-95.5 301.5,-95.5 301.5,-76.5 142.5,-76.5"/>
<text text-anchor="middle" x="222" y="-83.5" font-family="Helvetica,sans-Serif" font-size="10.00">Segregation.getSamePercent</text>
</a>
</g>
</g>
<!-- Node1&#45;&gt;Node5 -->
<g id="edge4" class="edge"><title>Node1&#45;&gt;Node5</title>
<path fill="none" stroke="midnightblue" d="M116.183,-86C124.746,-86 133.628,-86 142.438,-86"/>
<polygon fill="midnightblue" stroke="midnightblue" points="115.924,-82.5001 105.924,-86 115.924,-89.5001 115.924,-82.5001"/>
</g>
<!-- Node8 -->
<g id="node8" class="node"><title>Node8</title>
<g id="a_node8"><a xlink:href="../../d0/db0/class_wator.html#a0afccb8f97e33c1d21e51ee1a3f4922b" target="_top" xlink:title="Wator.ruleOne">
<polygon fill="white" stroke="black" points="180.5,-38.5 180.5,-57.5 263.5,-57.5 263.5,-38.5 180.5,-38.5"/>
<text text-anchor="middle" x="222" y="-45.5" font-family="Helvetica,sans-Serif" font-size="10.00">Wator.ruleOne</text>
</a>
</g>
</g>
<!-- Node1&#45;&gt;Node8 -->
<g id="edge7" class="edge"><title>Node1&#45;&gt;Node8</title>
<path fill="none" stroke="midnightblue" d="M106.118,-74.1408C130.037,-68.6981 157.977,-62.3405 180.314,-57.2579"/>
<polygon fill="midnightblue" stroke="midnightblue" points="105.115,-70.7794 96.1412,-76.411 106.668,-77.6049 105.115,-70.7794"/>
</g>
<!-- Node10 -->
<g id="node10" class="node"><title>Node10</title>
<g id="a_node10"><a xlink:href="../../d0/db0/class_wator.html#aa8dba59120d9d6d7d7521f3a4ee7b454" target="_top" xlink:title="Wator.ruleTwo">
<polygon fill="white" stroke="black" points="182,-0.5 182,-19.5 262,-19.5 262,-0.5 182,-0.5"/>
<text text-anchor="middle" x="222" y="-7.5" font-family="Helvetica,sans-Serif" font-size="10.00">Wator.ruleTwo</text>
</a>
</g>
</g>
<!-- Node1&#45;&gt;Node10 -->
<g id="edge9" class="edge"><title>Node1&#45;&gt;Node10</title>
<path fill="none" stroke="midnightblue" d="M73.9055,-70.2818C91.0524,-57.4574 116.93,-39.7594 142,-29 154.574,-23.6035 168.961,-19.5688 181.983,-16.6385"/>
<polygon fill="midnightblue" stroke="midnightblue" points="71.6096,-67.6312 65.7852,-76.4814 75.8574,-73.195 71.6096,-67.6312"/>
</g>
<!-- Node3 -->
<g id="node3" class="node"><title>Node3</title>
<g id="a_node3"><a xlink:href="../../d9/df1/class_fire.html#a9848867ebe2faddb27dfd0994cb565a8" target="_top" xlink:title="Fire.checkRules">
<polygon fill="white" stroke="black" points="351.5,-152.5 351.5,-171.5 440.5,-171.5 440.5,-152.5 351.5,-152.5"/>
<text text-anchor="middle" x="396" y="-159.5" font-family="Helvetica,sans-Serif" font-size="10.00">Fire.checkRules</text>
</a>
</g>
</g>
<!-- Node2&#45;&gt;Node3 -->
<g id="edge2" class="edge"><title>Node2&#45;&gt;Node3</title>
<path fill="none" stroke="midnightblue" d="M288.957,-162C309.879,-162 332.478,-162 351.417,-162"/>
<polygon fill="midnightblue" stroke="midnightblue" points="288.844,-158.5 278.843,-162 288.843,-165.5 288.844,-158.5"/>
</g>
<!-- Node6 -->
<g id="node6" class="node"><title>Node6</title>
<g id="a_node6"><a xlink:href="../../da/d1e/class_segregation.html#a65706fcdb683f11f27836d3f4c591f3c" target="_top" xlink:title="Segregation.ruleOne">
<polygon fill="white" stroke="black" points="338,-76.5 338,-95.5 454,-95.5 454,-76.5 338,-76.5"/>
<text text-anchor="middle" x="396" y="-83.5" font-family="Helvetica,sans-Serif" font-size="10.00">Segregation.ruleOne</text>
</a>
</g>
</g>
<!-- Node5&#45;&gt;Node6 -->
<g id="edge5" class="edge"><title>Node5&#45;&gt;Node6</title>
<path fill="none" stroke="midnightblue" d="M311.739,-86C320.632,-86 329.487,-86 337.922,-86"/>
<polygon fill="midnightblue" stroke="midnightblue" points="311.701,-82.5001 301.701,-86 311.701,-89.5001 311.701,-82.5001"/>
</g>
<!-- Node7 -->
<g id="node7" class="node"><title>Node7</title>
<g id="a_node7"><a xlink:href="../../da/d1e/class_segregation.html#a8272e13082766c6c6d45fc1e58acd6dc" target="_top" xlink:title="Segregation.checkRules">
<polygon fill="white" stroke="black" points="490.5,-76.5 490.5,-95.5 621.5,-95.5 621.5,-76.5 490.5,-76.5"/>
<text text-anchor="middle" x="556" y="-83.5" font-family="Helvetica,sans-Serif" font-size="10.00">Segregation.checkRules</text>
</a>
</g>
</g>
<!-- Node6&#45;&gt;Node7 -->
<g id="edge6" class="edge"><title>Node6&#45;&gt;Node7</title>
<path fill="none" stroke="midnightblue" d="M464.102,-86C472.771,-86 481.636,-86 490.265,-86"/>
<polygon fill="midnightblue" stroke="midnightblue" points="464.042,-82.5001 454.042,-86 464.042,-89.5001 464.042,-82.5001"/>
</g>
<!-- Node9 -->
<g id="node9" class="node"><title>Node9</title>
<g id="a_node9"><a xlink:href="../../d0/db0/class_wator.html#a422810cdcb035633301b3469cbee5e34" target="_top" xlink:title="Wator.checkRules">
<polygon fill="white" stroke="black" points="347,-19.5 347,-38.5 445,-38.5 445,-19.5 347,-19.5"/>
<text text-anchor="middle" x="396" y="-26.5" font-family="Helvetica,sans-Serif" font-size="10.00">Wator.checkRules</text>
</a>
</g>
</g>
<!-- Node8&#45;&gt;Node9 -->
<g id="edge8" class="edge"><title>Node8&#45;&gt;Node9</title>
<path fill="none" stroke="midnightblue" d="M273.73,-42.3961C296.856,-39.8415 324.098,-36.8322 346.897,-34.3137"/>
<polygon fill="midnightblue" stroke="midnightblue" points="273.317,-38.9204 263.762,-43.4973 274.085,-45.878 273.317,-38.9204"/>
</g>
<!-- Node10&#45;&gt;Node9 -->
<g id="edge10" class="edge"><title>Node10&#45;&gt;Node9</title>
<path fill="none" stroke="midnightblue" d="M272.122,-15.4262C295.591,-18.0187 323.58,-21.1106 346.913,-23.6881"/>
<polygon fill="midnightblue" stroke="midnightblue" points="272.353,-11.9306 262.029,-14.3114 271.585,-18.8883 272.353,-11.9306"/>
</g>
</g>
</svg>
