<?xml version="1.0" encoding="UTF-8" standalone="no"?>
<!DOCTYPE svg PUBLIC "-//W3C//DTD SVG 1.1//EN"
 "http://www.w3.org/Graphics/SVG/1.1/DTD/svg11.dtd">
<!-- Generated by graphviz version 2.36.0 (20140111.2315)
 -->
<!-- Title: Grid.init Pages: 1 -->
<svg width="1004pt" height="74pt"
 viewBox="0.00 0.00 1004.00 74.00" xmlns="http://www.w3.org/2000/svg" xmlns:xlink="http://www.w3.org/1999/xlink">
<g id="graph0" class="graph" transform="scale(1 1) rotate(0) translate(4 70)">
<title>Grid.init</title>
<polygon fill="white" stroke="none" points="-4,4 -4,-70 1000,-70 1000,4 -4,4"/>
<!-- Node1 -->
<g id="node1" class="node"><title>Node1</title>
<polygon fill="#bfbfbf" stroke="black" points="0.5,-17.5 0.5,-36.5 53.5,-36.5 53.5,-17.5 0.5,-17.5"/>
<text text-anchor="middle" x="27" y="-24.5" font-family="Helvetica,sans-Serif" font-size="10.00">Grid.init</text>
</g>
<!-- Node2 -->
<g id="node2" class="node"><title>Node2</title>
<g id="a_node2"><a xlink:href="../../df/df8/class_cell_society_view.html#a767ab215ca329ba41b1493702141f841" target="_top" xlink:title="CellSocietyView.makeCAGame">
<polygon fill="white" stroke="black" points="90.5,-17.5 90.5,-36.5 253.5,-36.5 253.5,-17.5 90.5,-17.5"/>
<text text-anchor="middle" x="172" y="-24.5" font-family="Helvetica,sans-Serif" font-size="10.00">CellSocietyView.makeCAGame</text>
</a>
</g>
</g>
<!-- Node1&#45;&gt;Node2 -->
<g id="edge1" class="edge"><title>Node1&#45;&gt;Node2</title>
<path fill="none" stroke="midnightblue" d="M63.5781,-27C71.8918,-27 81.0809,-27 90.4814,-27"/>
<polygon fill="midnightblue" stroke="midnightblue" points="63.5656,-23.5001 53.5655,-27 63.5655,-30.5001 63.5656,-23.5001"/>
</g>
<!-- Node3 -->
<g id="node3" class="node"><title>Node3</title>
<g id="a_node3"><a xlink:href="../../df/df8/class_cell_society_view.html#a2ee793e471cc5731ce39c1450f058dd5" target="_top" xlink:title="CellSocietyView.parseFile">
<polygon fill="white" stroke="black" points="290.5,-38.5 290.5,-57.5 425.5,-57.5 425.5,-38.5 290.5,-38.5"/>
<text text-anchor="middle" x="358" y="-45.5" font-family="Helvetica,sans-Serif" font-size="10.00">CellSocietyView.parseFile</text>
</a>
</g>
</g>
<!-- Node2&#45;&gt;Node3 -->
<g id="edge2" class="edge"><title>Node2&#45;&gt;Node3</title>
<path fill="none" stroke="midnightblue" d="M263.807,-37.3639C272.777,-38.3876 281.762,-39.413 290.42,-40.4012"/>
<polygon fill="midnightblue" stroke="midnightblue" points="264.037,-33.8675 253.705,-36.2109 263.244,-40.8224 264.037,-33.8675"/>
</g>
<!-- Node4 -->
<g id="node4" class="node"><title>Node4</title>
<g id="a_node4"><a xlink:href="../../df/df8/class_cell_society_view.html#a2c047a3972078bb0a5490ed225ef2dfa" target="_top" xlink:title="CellSocietyView.loadNewFile">
<polygon fill="white" stroke="black" points="462.5,-39.5 462.5,-58.5 611.5,-58.5 611.5,-39.5 462.5,-39.5"/>
<text text-anchor="middle" x="537" y="-46.5" font-family="Helvetica,sans-Serif" font-size="10.00">CellSocietyView.loadNewFile</text>
</a>
</g>
</g>
<!-- Node3&#45;&gt;Node4 -->
<g id="edge3" class="edge"><title>Node3&#45;&gt;Node4</title>
<path fill="none" stroke="midnightblue" d="M435.865,-48.4343C444.633,-48.4838 453.557,-48.5342 462.283,-48.5835"/>
<polygon fill="midnightblue" stroke="midnightblue" points="435.684,-44.9333 425.664,-48.3766 435.644,-51.9332 435.684,-44.9333"/>
</g>
<!-- Node5 -->
<g id="node5" class="node"><title>Node5</title>
<g id="a_node5"><a xlink:href="../../df/df8/class_cell_society_view.html#a656cfed0ba32bc41bbd0c4087860db4b" target="_top" xlink:title="CellSocietyView.makeLoad\lButton">
<polygon fill="white" stroke="black" points="648.5,-36 648.5,-66 791.5,-66 791.5,-36 648.5,-36"/>
<text text-anchor="start" x="656.5" y="-54" font-family="Helvetica,sans-Serif" font-size="10.00">CellSocietyView.makeLoad</text>
<text text-anchor="middle" x="720" y="-43" font-family="Helvetica,sans-Serif" font-size="10.00">Button</text>
</a>
</g>
</g>
<!-- Node4&#45;&gt;Node5 -->
<g id="edge4" class="edge"><title>Node4&#45;&gt;Node5</title>
<path fill="none" stroke="midnightblue" d="M621.651,-49.9243C630.585,-50.023 639.61,-50.1228 648.373,-50.2196"/>
<polygon fill="midnightblue" stroke="midnightblue" points="621.658,-46.4243 611.62,-49.8135 621.58,-53.4239 621.658,-46.4243"/>
</g>
<!-- Node6 -->
<g id="node6" class="node"><title>Node6</title>
<g id="a_node6"><a xlink:href="../../df/df8/class_cell_society_view.html#a53ab66afdeb23b3fc89e54a44be7ced5" target="_top" xlink:title="CellSocietyView.CellSocietyView">
<polygon fill="white" stroke="black" points="828.5,-41.5 828.5,-60.5 995.5,-60.5 995.5,-41.5 828.5,-41.5"/>
<text text-anchor="middle" x="912" y="-48.5" font-family="Helvetica,sans-Serif" font-size="10.00">CellSocietyView.CellSocietyView</text>
</a>
</g>
</g>
<!-- Node5&#45;&gt;Node6 -->
<g id="edge5" class="edge"><title>Node5&#45;&gt;Node6</title>
<path fill="none" stroke="midnightblue" d="M801.92,-51C810.663,-51 819.569,-51 828.332,-51"/>
<polygon fill="midnightblue" stroke="midnightblue" points="801.749,-47.5001 791.749,-51 801.749,-54.5001 801.749,-47.5001"/>
</g>
<!-- Node7 -->
<g id="node7" class="node"><title>Node7</title>
<g id="a_node7"><a xlink:href="../../df/df8/class_cell_society_view.html#a7bdbd4e8fd3893e672eb22015603f6dc" target="_top" xlink:title="CellSocietyView.makeButtons">
<polygon fill="white" stroke="black" points="833,-0.5 833,-19.5 991,-19.5 991,-0.5 833,-0.5"/>
<text text-anchor="middle" x="912" y="-7.5" font-family="Helvetica,sans-Serif" font-size="10.00">CellSocietyView.makeButtons</text>
</a>
</g>
</g>
<!-- Node5&#45;&gt;Node7 -->
<g id="edge6" class="edge"><title>Node5&#45;&gt;Node7</title>
<path fill="none" stroke="midnightblue" d="M800.613,-33.8204C823.224,-28.941 847.031,-23.8039 866.723,-19.5545"/>
<polygon fill="midnightblue" stroke="midnightblue" points="799.707,-30.4353 790.67,-35.9659 801.183,-37.2778 799.707,-30.4353"/>
</g>
<!-- Node7&#45;&gt;Node2 -->
<g id="edge7" class="edge"><title>Node7&#45;&gt;Node2</title>
<path fill="none" stroke="midnightblue" d="M822.591,-12.0365C678.015,-15.3669 393.169,-21.9284 253.737,-25.1402"/>
<polygon fill="midnightblue" stroke="midnightblue" points="822.838,-15.5319 832.755,-11.8024 822.677,-8.53371 822.838,-15.5319"/>
</g>
</g>
</svg>
