<?xml version="1.0" encoding="UTF-8" standalone="no"?>
<!DOCTYPE svg PUBLIC "-//W3C//DTD SVG 1.1//EN"
 "http://www.w3.org/Graphics/SVG/1.1/DTD/svg11.dtd">
<!-- Generated by graphviz version 2.36.0 (20140111.2315)
 -->
<!-- Title: Grid.findNeighbors Pages: 1 -->
<svg width="630pt" height="275pt"
 viewBox="0.00 0.00 630.00 275.00" xmlns="http://www.w3.org/2000/svg" xmlns:xlink="http://www.w3.org/1999/xlink">
<g id="graph0" class="graph" transform="scale(1 1) rotate(0) translate(4 271)">
<title>Grid.findNeighbors</title>
<polygon fill="white" stroke="none" points="-4,4 -4,-271 626,-271 626,4 -4,4"/>
<!-- Node1 -->
<g id="node1" class="node"><title>Node1</title>
<polygon fill="#bfbfbf" stroke="black" points="0.5,-114.5 0.5,-133.5 105.5,-133.5 105.5,-114.5 0.5,-114.5"/>
<text text-anchor="middle" x="53" y="-121.5" font-family="Helvetica,sans-Serif" font-size="10.00">Grid.findNeighbors</text>
</g>
<!-- Node2 -->
<g id="node2" class="node"><title>Node2</title>
<g id="a_node2"><a xlink:href="../../d9/df1/class_fire.html#a65c7d316a113807e7bdf626a789e2bf5" target="_top" xlink:title="Fire.checkNextToFire">
<polygon fill="white" stroke="black" points="165.5,-228.5 165.5,-247.5 278.5,-247.5 278.5,-228.5 165.5,-228.5"/>
<text text-anchor="middle" x="222" y="-235.5" font-family="Helvetica,sans-Serif" font-size="10.00">Fire.checkNextToFire</text>
</a>
</g>
</g>
<!-- Node1&#45;&gt;Node2 -->
<g id="edge1" class="edge"><title>Node1&#45;&gt;Node2</title>
<path fill="none" stroke="midnightblue" d="M65.5594,-141.849C80.5426,-163.501 108.73,-199.514 142,-219 149.182,-223.206 157.249,-226.483 165.413,-229.035"/>
<polygon fill="midnightblue" stroke="midnightblue" points="68.4554,-139.884 59.97,-133.539 62.647,-143.791 68.4554,-139.884"/>
</g>
<!-- Node5 -->
<g id="node5" class="node"><title>Node5</title>
<g id="a_node5"><a xlink:href="../../d8/d84/class_game_of_life.html#ae3bc4975c6e75164f5661d35cf3c97d0" target="_top" xlink:title="GameOfLife.checkRules">
<polygon fill="white" stroke="black" points="158,-190.5 158,-209.5 286,-209.5 286,-190.5 158,-190.5"/>
<text text-anchor="middle" x="222" y="-197.5" font-family="Helvetica,sans-Serif" font-size="10.00">GameOfLife.checkRules</text>
</a>
</g>
</g>
<!-- Node1&#45;&gt;Node5 -->
<g id="edge4" class="edge"><title>Node1&#45;&gt;Node5</title>
<path fill="none" stroke="midnightblue" d="M73.9055,-139.718C91.0524,-152.543 116.93,-170.241 142,-181 150.815,-184.783 160.521,-187.897 170.022,-190.43"/>
<polygon fill="midnightblue" stroke="midnightblue" points="75.8574,-136.805 65.7852,-133.519 71.6096,-142.369 75.8574,-136.805"/>
</g>
<!-- Node6 -->
<g id="node6" class="node"><title>Node6</title>
<g id="a_node6"><a xlink:href="../../da/d1e/class_segregation.html#ae7696748513b436c2578ff68b02d889d" target="_top" xlink:title="Segregation.getSamePercent">
<polygon fill="white" stroke="black" points="142.5,-152.5 142.5,-171.5 301.5,-171.5 301.5,-152.5 142.5,-152.5"/>
<text text-anchor="middle" x="222" y="-159.5" font-family="Helvetica,sans-Serif" font-size="10.00">Segregation.getSamePercent</text>
</a>
</g>
</g>
<!-- Node1&#45;&gt;Node6 -->
<g id="edge5" class="edge"><title>Node1&#45;&gt;Node6</title>
<path fill="none" stroke="midnightblue" d="M105.965,-135.824C129.509,-141.182 156.974,-147.431 179.162,-152.48"/>
<polygon fill="midnightblue" stroke="midnightblue" points="106.668,-132.395 96.1412,-133.589 105.115,-139.221 106.668,-132.395"/>
</g>
<!-- Node9 -->
<g id="node9" class="node"><title>Node9</title>
<g id="a_node9"><a xlink:href="../../d0/db0/class_wator.html#a0afccb8f97e33c1d21e51ee1a3f4922b" target="_top" xlink:title="Wator.ruleOne">
<polygon fill="white" stroke="black" points="180.5,-114.5 180.5,-133.5 263.5,-133.5 263.5,-114.5 180.5,-114.5"/>
<text text-anchor="middle" x="222" y="-121.5" font-family="Helvetica,sans-Serif" font-size="10.00">Wator.ruleOne</text>
</a>
</g>
</g>
<!-- Node1&#45;&gt;Node9 -->
<g id="edge8" class="edge"><title>Node1&#45;&gt;Node9</title>
<path fill="none" stroke="midnightblue" d="M115.945,-124C137.412,-124 160.919,-124 180.244,-124"/>
<polygon fill="midnightblue" stroke="midnightblue" points="115.924,-120.5 105.924,-124 115.924,-127.5 115.924,-120.5"/>
</g>
<!-- Node11 -->
<g id="node11" class="node"><title>Node11</title>
<g id="a_node11"><a xlink:href="../../d8/d84/class_game_of_life.html#aca7cd11a349cf14c940011021f91127f" target="_top" xlink:title="GameOfLife.ruleOne">
<polygon fill="white" stroke="black" points="165.5,-76.5 165.5,-95.5 278.5,-95.5 278.5,-76.5 165.5,-76.5"/>
<text text-anchor="middle" x="222" y="-83.5" font-family="Helvetica,sans-Serif" font-size="10.00">GameOfLife.ruleOne</text>
</a>
</g>
</g>
<!-- Node1&#45;&gt;Node11 -->
<g id="edge10" class="edge"><title>Node1&#45;&gt;Node11</title>
<path fill="none" stroke="midnightblue" d="M105.965,-112.176C129.509,-106.818 156.974,-100.569 179.162,-95.5201"/>
<polygon fill="midnightblue" stroke="midnightblue" points="105.115,-108.779 96.1412,-114.411 106.668,-115.605 105.115,-108.779"/>
</g>
<!-- Node12 -->
<g id="node12" class="node"><title>Node12</title>
<g id="a_node12"><a xlink:href="../../d0/db0/class_wator.html#aa8dba59120d9d6d7d7521f3a4ee7b454" target="_top" xlink:title="Wator.ruleTwo">
<polygon fill="white" stroke="black" points="182,-38.5 182,-57.5 262,-57.5 262,-38.5 182,-38.5"/>
<text text-anchor="middle" x="222" y="-45.5" font-family="Helvetica,sans-Serif" font-size="10.00">Wator.ruleTwo</text>
</a>
</g>
</g>
<!-- Node1&#45;&gt;Node12 -->
<g id="edge11" class="edge"><title>Node1&#45;&gt;Node12</title>
<path fill="none" stroke="midnightblue" d="M73.9055,-108.282C91.0524,-95.4574 116.93,-77.7594 142,-67 154.574,-61.6035 168.961,-57.5688 181.983,-54.6385"/>
<polygon fill="midnightblue" stroke="midnightblue" points="71.6096,-105.631 65.7852,-114.481 75.8574,-111.195 71.6096,-105.631"/>
</g>
<!-- Node13 -->
<g id="node13" class="node"><title>Node13</title>
<g id="a_node13"><a xlink:href="../../d8/d84/class_game_of_life.html#a6b6c946c47342fd7e4595710d72a9217" target="_top" xlink:title="GameOfLife.ruleTwo">
<polygon fill="white" stroke="black" points="167,-0.5 167,-19.5 277,-19.5 277,-0.5 167,-0.5"/>
<text text-anchor="middle" x="222" y="-7.5" font-family="Helvetica,sans-Serif" font-size="10.00">GameOfLife.ruleTwo</text>
</a>
</g>
</g>
<!-- Node1&#45;&gt;Node13 -->
<g id="edge13" class="edge"><title>Node1&#45;&gt;Node13</title>
<path fill="none" stroke="midnightblue" d="M65.5594,-106.151C80.5426,-84.4992 108.73,-48.4857 142,-29 149.547,-24.5799 158.072,-21.1864 166.659,-18.5814"/>
<polygon fill="midnightblue" stroke="midnightblue" points="62.647,-104.209 59.97,-114.461 68.4554,-108.116 62.647,-104.209"/>
</g>
<!-- Node3 -->
<g id="node3" class="node"><title>Node3</title>
<g id="a_node3"><a xlink:href="../../d9/df1/class_fire.html#a9848867ebe2faddb27dfd0994cb565a8" target="_top" xlink:title="Fire.checkRules">
<polygon fill="white" stroke="black" points="351.5,-247.5 351.5,-266.5 440.5,-266.5 440.5,-247.5 351.5,-247.5"/>
<text text-anchor="middle" x="396" y="-254.5" font-family="Helvetica,sans-Serif" font-size="10.00">Fire.checkRules</text>
</a>
</g>
</g>
<!-- Node2&#45;&gt;Node3 -->
<g id="edge2" class="edge"><title>Node2&#45;&gt;Node3</title>
<path fill="none" stroke="midnightblue" d="M288.957,-245.286C309.879,-247.597 332.478,-250.094 351.417,-252.186"/>
<polygon fill="midnightblue" stroke="midnightblue" points="289.167,-241.788 278.843,-244.169 288.399,-248.746 289.167,-241.788"/>
</g>
<!-- Node4 -->
<g id="node4" class="node"><title>Node4</title>
<g id="a_node4"><a xlink:href="../../d9/df1/class_fire.html#accc21ae2162fd526d8ca66c472a62a28" target="_top" xlink:title="Fire.ruleTwo">
<polygon fill="white" stroke="black" points="360.5,-209.5 360.5,-228.5 431.5,-228.5 431.5,-209.5 360.5,-209.5"/>
<text text-anchor="middle" x="396" y="-216.5" font-family="Helvetica,sans-Serif" font-size="10.00">Fire.ruleTwo</text>
</a>
</g>
</g>
<!-- Node2&#45;&gt;Node4 -->
<g id="edge3" class="edge"><title>Node2&#45;&gt;Node4</title>
<path fill="none" stroke="midnightblue" d="M288.783,-230.733C313.202,-228.036 339.926,-225.084 360.46,-222.815"/>
<polygon fill="midnightblue" stroke="midnightblue" points="288.399,-227.254 278.843,-231.831 289.167,-234.212 288.399,-227.254"/>
</g>
<!-- Node7 -->
<g id="node7" class="node"><title>Node7</title>
<g id="a_node7"><a xlink:href="../../da/d1e/class_segregation.html#a65706fcdb683f11f27836d3f4c591f3c" target="_top" xlink:title="Segregation.ruleOne">
<polygon fill="white" stroke="black" points="338,-152.5 338,-171.5 454,-171.5 454,-152.5 338,-152.5"/>
<text text-anchor="middle" x="396" y="-159.5" font-family="Helvetica,sans-Serif" font-size="10.00">Segregation.ruleOne</text>
</a>
</g>
</g>
<!-- Node6&#45;&gt;Node7 -->
<g id="edge6" class="edge"><title>Node6&#45;&gt;Node7</title>
<path fill="none" stroke="midnightblue" d="M311.739,-162C320.632,-162 329.487,-162 337.922,-162"/>
<polygon fill="midnightblue" stroke="midnightblue" points="311.701,-158.5 301.701,-162 311.701,-165.5 311.701,-158.5"/>
</g>
<!-- Node8 -->
<g id="node8" class="node"><title>Node8</title>
<g id="a_node8"><a xlink:href="../../da/d1e/class_segregation.html#a8272e13082766c6c6d45fc1e58acd6dc" target="_top" xlink:title="Segregation.checkRules">
<polygon fill="white" stroke="black" points="490.5,-152.5 490.5,-171.5 621.5,-171.5 621.5,-152.5 490.5,-152.5"/>
<text text-anchor="middle" x="556" y="-159.5" font-family="Helvetica,sans-Serif" font-size="10.00">Segregation.checkRules</text>
</a>
</g>
</g>
<!-- Node7&#45;&gt;Node8 -->
<g id="edge7" class="edge"><title>Node7&#45;&gt;Node8</title>
<path fill="none" stroke="midnightblue" d="M464.102,-162C472.771,-162 481.636,-162 490.265,-162"/>
<polygon fill="midnightblue" stroke="midnightblue" points="464.042,-158.5 454.042,-162 464.042,-165.5 464.042,-158.5"/>
</g>
<!-- Node10 -->
<g id="node10" class="node"><title>Node10</title>
<g id="a_node10"><a xlink:href="../../d0/db0/class_wator.html#a422810cdcb035633301b3469cbee5e34" target="_top" xlink:title="Wator.checkRules">
<polygon fill="white" stroke="black" points="347,-76.5 347,-95.5 445,-95.5 445,-76.5 347,-76.5"/>
<text text-anchor="middle" x="396" y="-83.5" font-family="Helvetica,sans-Serif" font-size="10.00">Wator.checkRules</text>
</a>
</g>
</g>
<!-- Node9&#45;&gt;Node10 -->
<g id="edge9" class="edge"><title>Node9&#45;&gt;Node10</title>
<path fill="none" stroke="midnightblue" d="M273.723,-112.794C298.542,-107.31 328.104,-100.779 351.828,-95.538"/>
<polygon fill="midnightblue" stroke="midnightblue" points="272.771,-109.42 263.762,-114.995 274.281,-116.255 272.771,-109.42"/>
</g>
<!-- Node12&#45;&gt;Node10 -->
<g id="edge12" class="edge"><title>Node12&#45;&gt;Node10</title>
<path fill="none" stroke="midnightblue" d="M272.107,-58.8492C297.276,-64.4097 327.647,-71.1196 351.899,-76.4777"/>
<polygon fill="midnightblue" stroke="midnightblue" points="272.549,-55.3626 262.029,-56.6228 271.039,-62.1977 272.549,-55.3626"/>
</g>
</g>
</svg>
