<?xml version="1.0" encoding="UTF-8" standalone="no"?>
<!DOCTYPE svg PUBLIC "-//W3C//DTD SVG 1.1//EN"
 "http://www.w3.org/Graphics/SVG/1.1/DTD/svg11.dtd">
<!-- Generated by graphviz version 2.36.0 (20140111.2315)
 -->
<!-- Title: Grid.makeGrid Pages: 1 -->
<svg width="1126pt" height="74pt"
 viewBox="0.00 0.00 1126.00 74.00" xmlns="http://www.w3.org/2000/svg" xmlns:xlink="http://www.w3.org/1999/xlink">
<g id="graph0" class="graph" transform="scale(1 1) rotate(0) translate(4 70)">
<title>Grid.makeGrid</title>
<polygon fill="white" stroke="none" points="-4,4 -4,-70 1122,-70 1122,4 -4,4"/>
<!-- Node1 -->
<g id="node1" class="node"><title>Node1</title>
<polygon fill="#bfbfbf" stroke="black" points="0,-17.5 0,-36.5 86,-36.5 86,-17.5 0,-17.5"/>
<text text-anchor="middle" x="43" y="-24.5" font-family="Helvetica,sans-Serif" font-size="10.00">Grid.makeGrid</text>
</g>
<!-- Node2 -->
<g id="node2" class="node"><title>Node2</title>
<g id="a_node2"><a xlink:href="../../da/d74/class_grid.html#acbc0b625c8f9d2f76db2f2a0d5288cd9" target="_top" xlink:title="Grid.init">
<polygon fill="white" stroke="black" points="122.5,-17.5 122.5,-36.5 175.5,-36.5 175.5,-17.5 122.5,-17.5"/>
<text text-anchor="middle" x="149" y="-24.5" font-family="Helvetica,sans-Serif" font-size="10.00">Grid.init</text>
</a>
</g>
</g>
<!-- Node1&#45;&gt;Node2 -->
<g id="edge1" class="edge"><title>Node1&#45;&gt;Node2</title>
<path fill="none" stroke="midnightblue" d="M96.197,-27C105.277,-27 114.349,-27 122.306,-27"/>
<polygon fill="midnightblue" stroke="midnightblue" points="96.001,-23.5001 86.001,-27 96.001,-30.5001 96.001,-23.5001"/>
</g>
<!-- Node3 -->
<g id="node3" class="node"><title>Node3</title>
<g id="a_node3"><a xlink:href="../../df/df8/class_cell_society_view.html#a767ab215ca329ba41b1493702141f841" target="_top" xlink:title="CellSocietyView.makeCAGame">
<polygon fill="white" stroke="black" points="212.5,-17.5 212.5,-36.5 375.5,-36.5 375.5,-17.5 212.5,-17.5"/>
<text text-anchor="middle" x="294" y="-24.5" font-family="Helvetica,sans-Serif" font-size="10.00">CellSocietyView.makeCAGame</text>
</a>
</g>
</g>
<!-- Node2&#45;&gt;Node3 -->
<g id="edge2" class="edge"><title>Node2&#45;&gt;Node3</title>
<path fill="none" stroke="midnightblue" d="M185.578,-27C193.892,-27 203.081,-27 212.481,-27"/>
<polygon fill="midnightblue" stroke="midnightblue" points="185.566,-23.5001 175.566,-27 185.565,-30.5001 185.566,-23.5001"/>
</g>
<!-- Node4 -->
<g id="node4" class="node"><title>Node4</title>
<g id="a_node4"><a xlink:href="../../df/df8/class_cell_society_view.html#a2ee793e471cc5731ce39c1450f058dd5" target="_top" xlink:title="CellSocietyView.parseFile">
<polygon fill="white" stroke="black" points="412.5,-38.5 412.5,-57.5 547.5,-57.5 547.5,-38.5 412.5,-38.5"/>
<text text-anchor="middle" x="480" y="-45.5" font-family="Helvetica,sans-Serif" font-size="10.00">CellSocietyView.parseFile</text>
</a>
</g>
</g>
<!-- Node3&#45;&gt;Node4 -->
<g id="edge3" class="edge"><title>Node3&#45;&gt;Node4</title>
<path fill="none" stroke="midnightblue" d="M385.807,-37.3639C394.777,-38.3876 403.762,-39.413 412.42,-40.4012"/>
<polygon fill="midnightblue" stroke="midnightblue" points="386.037,-33.8675 375.705,-36.2109 385.244,-40.8224 386.037,-33.8675"/>
</g>
<!-- Node5 -->
<g id="node5" class="node"><title>Node5</title>
<g id="a_node5"><a xlink:href="../../df/df8/class_cell_society_view.html#a2c047a3972078bb0a5490ed225ef2dfa" target="_top" xlink:title="CellSocietyView.loadNewFile">
<polygon fill="white" stroke="black" points="584.5,-39.5 584.5,-58.5 733.5,-58.5 733.5,-39.5 584.5,-39.5"/>
<text text-anchor="middle" x="659" y="-46.5" font-family="Helvetica,sans-Serif" font-size="10.00">CellSocietyView.loadNewFile</text>
</a>
</g>
</g>
<!-- Node4&#45;&gt;Node5 -->
<g id="edge4" class="edge"><title>Node4&#45;&gt;Node5</title>
<path fill="none" stroke="midnightblue" d="M557.865,-48.4343C566.633,-48.4838 575.557,-48.5342 584.283,-48.5835"/>
<polygon fill="midnightblue" stroke="midnightblue" points="557.684,-44.9333 547.664,-48.3766 557.644,-51.9332 557.684,-44.9333"/>
</g>
<!-- Node6 -->
<g id="node6" class="node"><title>Node6</title>
<g id="a_node6"><a xlink:href="../../df/df8/class_cell_society_view.html#a656cfed0ba32bc41bbd0c4087860db4b" target="_top" xlink:title="CellSocietyView.makeLoad\lButton">
<polygon fill="white" stroke="black" points="770.5,-36 770.5,-66 913.5,-66 913.5,-36 770.5,-36"/>
<text text-anchor="start" x="778.5" y="-54" font-family="Helvetica,sans-Serif" font-size="10.00">CellSocietyView.makeLoad</text>
<text text-anchor="middle" x="842" y="-43" font-family="Helvetica,sans-Serif" font-size="10.00">Button</text>
</a>
</g>
</g>
<!-- Node5&#45;&gt;Node6 -->
<g id="edge5" class="edge"><title>Node5&#45;&gt;Node6</title>
<path fill="none" stroke="midnightblue" d="M743.651,-49.9243C752.585,-50.023 761.61,-50.1228 770.373,-50.2196"/>
<polygon fill="midnightblue" stroke="midnightblue" points="743.658,-46.4243 733.62,-49.8135 743.58,-53.4239 743.658,-46.4243"/>
</g>
<!-- Node7 -->
<g id="node7" class="node"><title>Node7</title>
<g id="a_node7"><a xlink:href="../../df/df8/class_cell_society_view.html#a53ab66afdeb23b3fc89e54a44be7ced5" target="_top" xlink:title="CellSocietyView.CellSocietyView">
<polygon fill="white" stroke="black" points="950.5,-41.5 950.5,-60.5 1117.5,-60.5 1117.5,-41.5 950.5,-41.5"/>
<text text-anchor="middle" x="1034" y="-48.5" font-family="Helvetica,sans-Serif" font-size="10.00">CellSocietyView.CellSocietyView</text>
</a>
</g>
</g>
<!-- Node6&#45;&gt;Node7 -->
<g id="edge6" class="edge"><title>Node6&#45;&gt;Node7</title>
<path fill="none" stroke="midnightblue" d="M923.92,-51C932.663,-51 941.569,-51 950.332,-51"/>
<polygon fill="midnightblue" stroke="midnightblue" points="923.749,-47.5001 913.749,-51 923.749,-54.5001 923.749,-47.5001"/>
</g>
<!-- Node8 -->
<g id="node8" class="node"><title>Node8</title>
<g id="a_node8"><a xlink:href="../../df/df8/class_cell_society_view.html#a7bdbd4e8fd3893e672eb22015603f6dc" target="_top" xlink:title="CellSocietyView.makeButtons">
<polygon fill="white" stroke="black" points="955,-0.5 955,-19.5 1113,-19.5 1113,-0.5 955,-0.5"/>
<text text-anchor="middle" x="1034" y="-7.5" font-family="Helvetica,sans-Serif" font-size="10.00">CellSocietyView.makeButtons</text>
</a>
</g>
</g>
<!-- Node6&#45;&gt;Node8 -->
<g id="edge7" class="edge"><title>Node6&#45;&gt;Node8</title>
<path fill="none" stroke="midnightblue" d="M922.613,-33.8204C945.224,-28.941 969.031,-23.8039 988.723,-19.5545"/>
<polygon fill="midnightblue" stroke="midnightblue" points="921.707,-30.4353 912.67,-35.9659 923.183,-37.2778 921.707,-30.4353"/>
</g>
<!-- Node8&#45;&gt;Node3 -->
<g id="edge8" class="edge"><title>Node8&#45;&gt;Node3</title>
<path fill="none" stroke="midnightblue" d="M944.591,-12.0365C800.015,-15.3669 515.169,-21.9284 375.737,-25.1402"/>
<polygon fill="midnightblue" stroke="midnightblue" points="944.838,-15.5319 954.755,-11.8024 944.677,-8.53371 944.838,-15.5319"/>
</g>
</g>
</svg>
