<?xml version="1.0" encoding="UTF-8" standalone="no"?>
<!DOCTYPE svg PUBLIC "-//W3C//DTD SVG 1.1//EN"
 "http://www.w3.org/Graphics/SVG/1.1/DTD/svg11.dtd">
<!-- Generated by graphviz version 2.36.0 (20140111.2315)
 -->
<!-- Title: Grid.checkBounds Pages: 1 -->
<svg width="568pt" height="142pt"
 viewBox="0.00 0.00 568.00 142.00" xmlns="http://www.w3.org/2000/svg" xmlns:xlink="http://www.w3.org/1999/xlink">
<g id="graph0" class="graph" transform="scale(1 1) rotate(0) translate(4 138)">
<title>Grid.checkBounds</title>
<polygon fill="white" stroke="none" points="-4,4 -4,-138 564,-138 564,4 -4,4"/>
<!-- Node1 -->
<g id="node1" class="node"><title>Node1</title>
<polygon fill="#bfbfbf" stroke="black" points="0.5,-57.5 0.5,-76.5 103.5,-76.5 103.5,-57.5 0.5,-57.5"/>
<text text-anchor="middle" x="52" y="-64.5" font-family="Helvetica,sans-Serif" font-size="10.00">Grid.checkBounds</text>
</g>
<!-- Node2 -->
<g id="node2" class="node"><title>Node2</title>
<g id="a_node2"><a xlink:href="../../da/d74/class_grid.html#a33b84a1d6b40a447bdd4a33fa3daf555" target="_top" xlink:title="Grid.getNeighbors">
<polygon fill="white" stroke="black" points="140,-57.5 140,-76.5 244,-76.5 244,-57.5 140,-57.5"/>
<text text-anchor="middle" x="192" y="-64.5" font-family="Helvetica,sans-Serif" font-size="10.00">Grid.getNeighbors</text>
</a>
</g>
</g>
<!-- Node1&#45;&gt;Node2 -->
<g id="edge1" class="edge"><title>Node1&#45;&gt;Node2</title>
<path fill="none" stroke="midnightblue" d="M113.749,-67C122.491,-67 131.413,-67 139.942,-67"/>
<polygon fill="midnightblue" stroke="midnightblue" points="113.603,-63.5001 103.603,-67 113.602,-70.5001 113.603,-63.5001"/>
</g>
<!-- Node3 -->
<g id="node3" class="node"><title>Node3</title>
<g id="a_node3"><a xlink:href="../../d9/df1/class_fire.html#accc21ae2162fd526d8ca66c472a62a28" target="_top" xlink:title="Fire.ruleTwo">
<polygon fill="white" stroke="black" points="302.5,-114.5 302.5,-133.5 373.5,-133.5 373.5,-114.5 302.5,-114.5"/>
<text text-anchor="middle" x="338" y="-121.5" font-family="Helvetica,sans-Serif" font-size="10.00">Fire.ruleTwo</text>
</a>
</g>
</g>
<!-- Node2&#45;&gt;Node3 -->
<g id="edge2" class="edge"><title>Node2&#45;&gt;Node3</title>
<path fill="none" stroke="midnightblue" d="M222.765,-80.7934C239.442,-88.3209 260.708,-97.5886 280,-105 288.569,-108.292 297.982,-111.566 306.646,-114.445"/>
<polygon fill="midnightblue" stroke="midnightblue" points="224.077,-77.5452 213.525,-76.5896 221.178,-83.9167 224.077,-77.5452"/>
</g>
<!-- Node5 -->
<g id="node5" class="node"><title>Node5</title>
<g id="a_node5"><a xlink:href="../../d8/d84/class_game_of_life.html#aca7cd11a349cf14c940011021f91127f" target="_top" xlink:title="GameOfLife.ruleOne">
<polygon fill="white" stroke="black" points="281.5,-76.5 281.5,-95.5 394.5,-95.5 394.5,-76.5 281.5,-76.5"/>
<text text-anchor="middle" x="338" y="-83.5" font-family="Helvetica,sans-Serif" font-size="10.00">GameOfLife.ruleOne</text>
</a>
</g>
</g>
<!-- Node2&#45;&gt;Node5 -->
<g id="edge4" class="edge"><title>Node2&#45;&gt;Node5</title>
<path fill="none" stroke="midnightblue" d="M254.147,-75.068C263.092,-76.2483 272.267,-77.4588 281.1,-78.6244"/>
<polygon fill="midnightblue" stroke="midnightblue" points="254.546,-71.5905 244.174,-73.7522 253.631,-78.5303 254.546,-71.5905"/>
</g>
<!-- Node7 -->
<g id="node7" class="node"><title>Node7</title>
<g id="a_node7"><a xlink:href="../../d8/d84/class_game_of_life.html#a6b6c946c47342fd7e4595710d72a9217" target="_top" xlink:title="GameOfLife.ruleTwo">
<polygon fill="white" stroke="black" points="283,-38.5 283,-57.5 393,-57.5 393,-38.5 283,-38.5"/>
<text text-anchor="middle" x="338" y="-45.5" font-family="Helvetica,sans-Serif" font-size="10.00">GameOfLife.ruleTwo</text>
</a>
</g>
</g>
<!-- Node2&#45;&gt;Node7 -->
<g id="edge6" class="edge"><title>Node2&#45;&gt;Node7</title>
<path fill="none" stroke="midnightblue" d="M254.256,-58.9176C263.666,-57.676 273.327,-56.4013 282.576,-55.181"/>
<polygon fill="midnightblue" stroke="midnightblue" points="253.631,-55.4697 244.174,-60.2478 254.546,-62.4095 253.631,-55.4697"/>
</g>
<!-- Node8 -->
<g id="node8" class="node"><title>Node8</title>
<g id="a_node8"><a xlink:href="../../da/d1e/class_segregation.html#a49b8fcb38373080b203a974f5c24d166" target="_top" xlink:title="Segregation.ruleOne">
<polygon fill="white" stroke="black" points="280,-0.5 280,-19.5 396,-19.5 396,-0.5 280,-0.5"/>
<text text-anchor="middle" x="338" y="-7.5" font-family="Helvetica,sans-Serif" font-size="10.00">Segregation.ruleOne</text>
</a>
</g>
</g>
<!-- Node2&#45;&gt;Node8 -->
<g id="edge8" class="edge"><title>Node2&#45;&gt;Node8</title>
<path fill="none" stroke="midnightblue" d="M222.765,-53.2066C239.442,-45.6791 260.708,-36.4114 280,-29 288.569,-25.7082 297.982,-22.4344 306.646,-19.5552"/>
<polygon fill="midnightblue" stroke="midnightblue" points="221.178,-50.0833 213.525,-57.4104 224.077,-56.4548 221.178,-50.0833"/>
</g>
<!-- Node4 -->
<g id="node4" class="node"><title>Node4</title>
<g id="a_node4"><a xlink:href="../../d9/df1/class_fire.html#a7e440468aacc413772a274bb8029e8bb" target="_top" xlink:title="Fire.applyRules">
<polygon fill="white" stroke="black" points="453,-114.5 453,-133.5 539,-133.5 539,-114.5 453,-114.5"/>
<text text-anchor="middle" x="496" y="-121.5" font-family="Helvetica,sans-Serif" font-size="10.00">Fire.applyRules</text>
</a>
</g>
</g>
<!-- Node3&#45;&gt;Node4 -->
<g id="edge3" class="edge"><title>Node3&#45;&gt;Node4</title>
<path fill="none" stroke="midnightblue" d="M383.624,-124C405.433,-124 431.531,-124 452.98,-124"/>
<polygon fill="midnightblue" stroke="midnightblue" points="383.621,-120.5 373.621,-124 383.621,-127.5 383.621,-120.5"/>
</g>
<!-- Node6 -->
<g id="node6" class="node"><title>Node6</title>
<g id="a_node6"><a xlink:href="../../d8/d84/class_game_of_life.html#a8085307c182bb4d9149f98dfc8f26979" target="_top" xlink:title="GameOfLife.applyRules">
<polygon fill="white" stroke="black" points="433,-57.5 433,-76.5 559,-76.5 559,-57.5 433,-57.5"/>
<text text-anchor="middle" x="496" y="-64.5" font-family="Helvetica,sans-Serif" font-size="10.00">GameOfLife.applyRules</text>
</a>
</g>
</g>
<!-- Node5&#45;&gt;Node6 -->
<g id="edge5" class="edge"><title>Node5&#45;&gt;Node6</title>
<path fill="none" stroke="midnightblue" d="M404.846,-77.9802C414.141,-76.8482 423.672,-75.6873 432.894,-74.5642"/>
<polygon fill="midnightblue" stroke="midnightblue" points="404.382,-74.5108 394.879,-79.1942 405.229,-81.4595 404.382,-74.5108"/>
</g>
<!-- Node7&#45;&gt;Node6 -->
<g id="edge7" class="edge"><title>Node7&#45;&gt;Node6</title>
<path fill="none" stroke="midnightblue" d="M403.224,-55.8222C413.047,-57.0186 423.172,-58.2517 432.947,-59.4423"/>
<polygon fill="midnightblue" stroke="midnightblue" points="403.473,-52.3267 393.123,-54.592 402.627,-59.2754 403.473,-52.3267"/>
</g>
<!-- Node9 -->
<g id="node9" class="node"><title>Node9</title>
<g id="a_node9"><a xlink:href="../../da/d1e/class_segregation.html#a45e57140276ed3b1897cf8212b6283d4" target="_top" xlink:title="Segregation.applyRules">
<polygon fill="white" stroke="black" points="432,-0.5 432,-19.5 560,-19.5 560,-0.5 432,-0.5"/>
<text text-anchor="middle" x="496" y="-7.5" font-family="Helvetica,sans-Serif" font-size="10.00">Segregation.applyRules</text>
</a>
</g>
</g>
<!-- Node8&#45;&gt;Node9 -->
<g id="edge9" class="edge"><title>Node8&#45;&gt;Node9</title>
<path fill="none" stroke="midnightblue" d="M406.37,-10C414.796,-10 423.391,-10 431.751,-10"/>
<polygon fill="midnightblue" stroke="midnightblue" points="406.203,-6.5001 396.203,-10 406.203,-13.5001 406.203,-6.5001"/>
</g>
</g>
</svg>
