<?xml version="1.0" encoding="UTF-8" standalone="no"?>
<!DOCTYPE svg PUBLIC "-//W3C//DTD SVG 1.1//EN"
 "http://www.w3.org/Graphics/SVG/1.1/DTD/svg11.dtd">
<!-- Generated by graphviz version 2.36.0 (20140111.2315)
 -->
<!-- Title: Grid.getNeighbors Pages: 1 -->
<svg width="770pt" height="180pt"
 viewBox="0.00 0.00 770.00 180.00" xmlns="http://www.w3.org/2000/svg" xmlns:xlink="http://www.w3.org/1999/xlink">
<g id="graph0" class="graph" transform="scale(1 1) rotate(0) translate(4 176)">
<title>Grid.getNeighbors</title>
<polygon fill="white" stroke="none" points="-4,4 -4,-176 766,-176 766,4 -4,4"/>
<!-- Node1 -->
<g id="node1" class="node"><title>Node1</title>
<polygon fill="#bfbfbf" stroke="black" points="0,-76.5 0,-95.5 104,-95.5 104,-76.5 0,-76.5"/>
<text text-anchor="middle" x="52" y="-83.5" font-family="Helvetica,sans-Serif" font-size="10.00">Grid.getNeighbors</text>
</g>
<!-- Node2 -->
<g id="node2" class="node"><title>Node2</title>
<g id="a_node2"><a xlink:href="../../da/d74/class_grid.html#a43e84876ecfc5265a5e37a39e64e794e" target="_top" xlink:title="Grid.findNeighbors">
<polygon fill="white" stroke="black" points="140.5,-76.5 140.5,-95.5 245.5,-95.5 245.5,-76.5 140.5,-76.5"/>
<text text-anchor="middle" x="193" y="-83.5" font-family="Helvetica,sans-Serif" font-size="10.00">Grid.findNeighbors</text>
</a>
</g>
</g>
<!-- Node1&#45;&gt;Node2 -->
<g id="edge1" class="edge"><title>Node1&#45;&gt;Node2</title>
<path fill="none" stroke="midnightblue" d="M114.426,-86C123.091,-86 131.927,-86 140.384,-86"/>
<polygon fill="midnightblue" stroke="midnightblue" points="114.364,-82.5001 104.364,-86 114.364,-89.5001 114.364,-82.5001"/>
</g>
<!-- Node3 -->
<g id="node3" class="node"><title>Node3</title>
<g id="a_node3"><a xlink:href="../../d9/df1/class_fire.html#a65c7d316a113807e7bdf626a789e2bf5" target="_top" xlink:title="Fire.checkNextToFire">
<polygon fill="white" stroke="black" points="305.5,-152.5 305.5,-171.5 418.5,-171.5 418.5,-152.5 305.5,-152.5"/>
<text text-anchor="middle" x="362" y="-159.5" font-family="Helvetica,sans-Serif" font-size="10.00">Fire.checkNextToFire</text>
</a>
</g>
</g>
<!-- Node2&#45;&gt;Node3 -->
<g id="edge2" class="edge"><title>Node2&#45;&gt;Node3</title>
<path fill="none" stroke="midnightblue" d="M213.905,-101.718C231.052,-114.543 256.93,-132.241 282,-143 290.815,-146.783 300.521,-149.897 310.022,-152.43"/>
<polygon fill="midnightblue" stroke="midnightblue" points="215.857,-98.805 205.785,-95.5186 211.61,-104.369 215.857,-98.805"/>
</g>
<!-- Node5 -->
<g id="node5" class="node"><title>Node5</title>
<g id="a_node5"><a xlink:href="../../d8/d84/class_game_of_life.html#ae3bc4975c6e75164f5661d35cf3c97d0" target="_top" xlink:title="GameOfLife.checkRules">
<polygon fill="white" stroke="black" points="298,-114.5 298,-133.5 426,-133.5 426,-114.5 298,-114.5"/>
<text text-anchor="middle" x="362" y="-121.5" font-family="Helvetica,sans-Serif" font-size="10.00">GameOfLife.checkRules</text>
</a>
</g>
</g>
<!-- Node2&#45;&gt;Node5 -->
<g id="edge4" class="edge"><title>Node2&#45;&gt;Node5</title>
<path fill="none" stroke="midnightblue" d="M245.965,-97.8243C269.509,-103.182 296.974,-109.431 319.162,-114.48"/>
<polygon fill="midnightblue" stroke="midnightblue" points="246.668,-94.3951 236.141,-95.589 245.115,-101.221 246.668,-94.3951"/>
</g>
<!-- Node6 -->
<g id="node6" class="node"><title>Node6</title>
<g id="a_node6"><a xlink:href="../../da/d1e/class_segregation.html#ae7696748513b436c2578ff68b02d889d" target="_top" xlink:title="Segregation.getSamePercent">
<polygon fill="white" stroke="black" points="282.5,-76.5 282.5,-95.5 441.5,-95.5 441.5,-76.5 282.5,-76.5"/>
<text text-anchor="middle" x="362" y="-83.5" font-family="Helvetica,sans-Serif" font-size="10.00">Segregation.getSamePercent</text>
</a>
</g>
</g>
<!-- Node2&#45;&gt;Node6 -->
<g id="edge5" class="edge"><title>Node2&#45;&gt;Node6</title>
<path fill="none" stroke="midnightblue" d="M256.183,-86C264.746,-86 273.628,-86 282.438,-86"/>
<polygon fill="midnightblue" stroke="midnightblue" points="255.924,-82.5001 245.924,-86 255.924,-89.5001 255.924,-82.5001"/>
</g>
<!-- Node9 -->
<g id="node9" class="node"><title>Node9</title>
<g id="a_node9"><a xlink:href="../../d0/db0/class_wator.html#a0afccb8f97e33c1d21e51ee1a3f4922b" target="_top" xlink:title="Wator.ruleOne">
<polygon fill="white" stroke="black" points="320.5,-38.5 320.5,-57.5 403.5,-57.5 403.5,-38.5 320.5,-38.5"/>
<text text-anchor="middle" x="362" y="-45.5" font-family="Helvetica,sans-Serif" font-size="10.00">Wator.ruleOne</text>
</a>
</g>
</g>
<!-- Node2&#45;&gt;Node9 -->
<g id="edge8" class="edge"><title>Node2&#45;&gt;Node9</title>
<path fill="none" stroke="midnightblue" d="M246.118,-74.1408C270.037,-68.6981 297.977,-62.3405 320.314,-57.2579"/>
<polygon fill="midnightblue" stroke="midnightblue" points="245.115,-70.7794 236.141,-76.411 246.668,-77.6049 245.115,-70.7794"/>
</g>
<!-- Node11 -->
<g id="node11" class="node"><title>Node11</title>
<g id="a_node11"><a xlink:href="../../d0/db0/class_wator.html#aa8dba59120d9d6d7d7521f3a4ee7b454" target="_top" xlink:title="Wator.ruleTwo">
<polygon fill="white" stroke="black" points="322,-0.5 322,-19.5 402,-19.5 402,-0.5 322,-0.5"/>
<text text-anchor="middle" x="362" y="-7.5" font-family="Helvetica,sans-Serif" font-size="10.00">Wator.ruleTwo</text>
</a>
</g>
</g>
<!-- Node2&#45;&gt;Node11 -->
<g id="edge10" class="edge"><title>Node2&#45;&gt;Node11</title>
<path fill="none" stroke="midnightblue" d="M213.905,-70.2818C231.052,-57.4574 256.93,-39.7594 282,-29 294.574,-23.6035 308.961,-19.5688 321.983,-16.6385"/>
<polygon fill="midnightblue" stroke="midnightblue" points="211.61,-67.6312 205.785,-76.4814 215.857,-73.195 211.61,-67.6312"/>
</g>
<!-- Node4 -->
<g id="node4" class="node"><title>Node4</title>
<g id="a_node4"><a xlink:href="../../d9/df1/class_fire.html#a9848867ebe2faddb27dfd0994cb565a8" target="_top" xlink:title="Fire.checkRules">
<polygon fill="white" stroke="black" points="491.5,-152.5 491.5,-171.5 580.5,-171.5 580.5,-152.5 491.5,-152.5"/>
<text text-anchor="middle" x="536" y="-159.5" font-family="Helvetica,sans-Serif" font-size="10.00">Fire.checkRules</text>
</a>
</g>
</g>
<!-- Node3&#45;&gt;Node4 -->
<g id="edge3" class="edge"><title>Node3&#45;&gt;Node4</title>
<path fill="none" stroke="midnightblue" d="M428.957,-162C449.879,-162 472.478,-162 491.417,-162"/>
<polygon fill="midnightblue" stroke="midnightblue" points="428.844,-158.5 418.843,-162 428.843,-165.5 428.844,-158.5"/>
</g>
<!-- Node7 -->
<g id="node7" class="node"><title>Node7</title>
<g id="a_node7"><a xlink:href="../../da/d1e/class_segregation.html#a65706fcdb683f11f27836d3f4c591f3c" target="_top" xlink:title="Segregation.ruleOne">
<polygon fill="white" stroke="black" points="478,-76.5 478,-95.5 594,-95.5 594,-76.5 478,-76.5"/>
<text text-anchor="middle" x="536" y="-83.5" font-family="Helvetica,sans-Serif" font-size="10.00">Segregation.ruleOne</text>
</a>
</g>
</g>
<!-- Node6&#45;&gt;Node7 -->
<g id="edge6" class="edge"><title>Node6&#45;&gt;Node7</title>
<path fill="none" stroke="midnightblue" d="M451.739,-86C460.632,-86 469.487,-86 477.922,-86"/>
<polygon fill="midnightblue" stroke="midnightblue" points="451.701,-82.5001 441.701,-86 451.701,-89.5001 451.701,-82.5001"/>
</g>
<!-- Node8 -->
<g id="node8" class="node"><title>Node8</title>
<g id="a_node8"><a xlink:href="../../da/d1e/class_segregation.html#a8272e13082766c6c6d45fc1e58acd6dc" target="_top" xlink:title="Segregation.checkRules">
<polygon fill="white" stroke="black" points="630.5,-76.5 630.5,-95.5 761.5,-95.5 761.5,-76.5 630.5,-76.5"/>
<text text-anchor="middle" x="696" y="-83.5" font-family="Helvetica,sans-Serif" font-size="10.00">Segregation.checkRules</text>
</a>
</g>
</g>
<!-- Node7&#45;&gt;Node8 -->
<g id="edge7" class="edge"><title>Node7&#45;&gt;Node8</title>
<path fill="none" stroke="midnightblue" d="M604.102,-86C612.771,-86 621.636,-86 630.265,-86"/>
<polygon fill="midnightblue" stroke="midnightblue" points="604.042,-82.5001 594.042,-86 604.042,-89.5001 604.042,-82.5001"/>
</g>
<!-- Node10 -->
<g id="node10" class="node"><title>Node10</title>
<g id="a_node10"><a xlink:href="../../d0/db0/class_wator.html#a422810cdcb035633301b3469cbee5e34" target="_top" xlink:title="Wator.checkRules">
<polygon fill="white" stroke="black" points="487,-19.5 487,-38.5 585,-38.5 585,-19.5 487,-19.5"/>
<text text-anchor="middle" x="536" y="-26.5" font-family="Helvetica,sans-Serif" font-size="10.00">Wator.checkRules</text>
</a>
</g>
</g>
<!-- Node9&#45;&gt;Node10 -->
<g id="edge9" class="edge"><title>Node9&#45;&gt;Node10</title>
<path fill="none" stroke="midnightblue" d="M413.73,-42.3961C436.856,-39.8415 464.098,-36.8322 486.897,-34.3137"/>
<polygon fill="midnightblue" stroke="midnightblue" points="413.317,-38.9204 403.762,-43.4973 414.085,-45.878 413.317,-38.9204"/>
</g>
<!-- Node11&#45;&gt;Node10 -->
<g id="edge11" class="edge"><title>Node11&#45;&gt;Node10</title>
<path fill="none" stroke="midnightblue" d="M412.122,-15.4262C435.591,-18.0187 463.58,-21.1106 486.913,-23.6881"/>
<polygon fill="midnightblue" stroke="midnightblue" points="412.353,-11.9306 402.029,-14.3114 411.585,-18.8883 412.353,-11.9306"/>
</g>
</g>
</svg>
