<?xml version="1.0" encoding="UTF-8" standalone="no"?>
<!DOCTYPE svg PUBLIC "-//W3C//DTD SVG 1.1//EN"
 "http://www.w3.org/Graphics/SVG/1.1/DTD/svg11.dtd">
<!-- Generated by graphviz version 2.36.0 (20140111.2315)
 -->
<!-- Title: Grid.getCells Pages: 1 -->
<svg width="856pt" height="142pt"
 viewBox="0.00 0.00 856.00 142.00" xmlns="http://www.w3.org/2000/svg" xmlns:xlink="http://www.w3.org/1999/xlink">
<g id="graph0" class="graph" transform="scale(1 1) rotate(0) translate(4 138)">
<title>Grid.getCells</title>
<polygon fill="white" stroke="none" points="-4,4 -4,-138 852,-138 852,4 -4,4"/>
<!-- Node1 -->
<g id="node1" class="node"><title>Node1</title>
<polygon fill="#bfbfbf" stroke="black" points="0.5,-95.5 0.5,-114.5 77.5,-114.5 77.5,-95.5 0.5,-95.5"/>
<text text-anchor="middle" x="39" y="-102.5" font-family="Helvetica,sans-Serif" font-size="10.00">Grid.getCells</text>
</g>
<!-- Node2 -->
<g id="node2" class="node"><title>Node2</title>
<g id="a_node2"><a xlink:href="../../d9/df1/class_fire.html#afd16418c5ea360c815613862a4ea1c33" target="_top" xlink:title="Fire.setUpInitialConfig">
<polygon fill="white" stroke="black" points="128.5,-114.5 128.5,-133.5 247.5,-133.5 247.5,-114.5 128.5,-114.5"/>
<text text-anchor="middle" x="188" y="-121.5" font-family="Helvetica,sans-Serif" font-size="10.00">Fire.setUpInitialConfig</text>
</a>
</g>
</g>
<!-- Node1&#45;&gt;Node2 -->
<g id="edge1" class="edge"><title>Node1&#45;&gt;Node2</title>
<path fill="none" stroke="midnightblue" d="M87.931,-111.195C100.861,-112.866 114.998,-114.694 128.438,-116.431"/>
<polygon fill="midnightblue" stroke="midnightblue" points="88.2223,-107.704 77.8562,-109.893 87.325,-114.646 88.2223,-107.704"/>
</g>
<!-- Node4 -->
<g id="node4" class="node"><title>Node4</title>
<g id="a_node4"><a xlink:href="../../dd/d97/class_grid_drawer.html#a8853ef53b515fd60ca524f05a3dbf897" target="_top" xlink:title="GridDrawer.updateNextGen">
<polygon fill="white" stroke="black" points="114,-76.5 114,-95.5 262,-95.5 262,-76.5 114,-76.5"/>
<text text-anchor="middle" x="188" y="-83.5" font-family="Helvetica,sans-Serif" font-size="10.00">GridDrawer.updateNextGen</text>
</a>
</g>
</g>
<!-- Node1&#45;&gt;Node4 -->
<g id="edge3" class="edge"><title>Node1&#45;&gt;Node4</title>
<path fill="none" stroke="midnightblue" d="M88.0435,-98.7903C96.3235,-97.7201 105.095,-96.5863 113.86,-95.4535"/>
<polygon fill="midnightblue" stroke="midnightblue" points="87.325,-95.354 77.8562,-100.107 88.2223,-102.296 87.325,-95.354"/>
</g>
<!-- Node3 -->
<g id="node3" class="node"><title>Node3</title>
<g id="a_node3"><a xlink:href="../../d9/df1/class_fire.html#a70453ac9610d3591355b1f07432f6fc8" target="_top" xlink:title="Fire.Fire">
<polygon fill="white" stroke="black" points="346.5,-114.5 346.5,-133.5 399.5,-133.5 399.5,-114.5 346.5,-114.5"/>
<text text-anchor="middle" x="373" y="-121.5" font-family="Helvetica,sans-Serif" font-size="10.00">Fire.Fire</text>
</a>
</g>
</g>
<!-- Node2&#45;&gt;Node3 -->
<g id="edge2" class="edge"><title>Node2&#45;&gt;Node3</title>
<path fill="none" stroke="midnightblue" d="M257.971,-124C288.861,-124 323.404,-124 346.292,-124"/>
<polygon fill="midnightblue" stroke="midnightblue" points="257.657,-120.5 247.657,-124 257.657,-127.5 257.657,-120.5"/>
</g>
<!-- Node5 -->
<g id="node5" class="node"><title>Node5</title>
<g id="a_node5"><a xlink:href="../../df/df8/class_cell_society_view.html#abe7bcd77ca077f5e5e0f9946eea96406" target="_top" xlink:title="CellSocietyView.CellSocietyView">
<polygon fill="white" stroke="black" points="680.5,-57.5 680.5,-76.5 847.5,-76.5 847.5,-57.5 680.5,-57.5"/>
<text text-anchor="middle" x="764" y="-64.5" font-family="Helvetica,sans-Serif" font-size="10.00">CellSocietyView.CellSocietyView</text>
</a>
</g>
</g>
<!-- Node4&#45;&gt;Node5 -->
<g id="edge4" class="edge"><title>Node4&#45;&gt;Node5</title>
<path fill="none" stroke="midnightblue" d="M272.588,-83.2331C381.764,-79.6193 571.745,-73.3307 680.42,-69.7335"/>
<polygon fill="midnightblue" stroke="midnightblue" points="272.159,-79.7453 262.281,-83.5743 272.391,-86.7415 272.159,-79.7453"/>
</g>
<!-- Node6 -->
<g id="node6" class="node"><title>Node6</title>
<g id="a_node6"><a xlink:href="../../df/df8/class_cell_society_view.html#ad52b914fa03b45d8bc9d64fc407660f3" target="_top" xlink:title="CellSocietyView.updateView">
<polygon fill="white" stroke="black" points="298.5,-38.5 298.5,-57.5 447.5,-57.5 447.5,-38.5 298.5,-38.5"/>
<text text-anchor="middle" x="373" y="-45.5" font-family="Helvetica,sans-Serif" font-size="10.00">CellSocietyView.updateView</text>
</a>
</g>
</g>
<!-- Node4&#45;&gt;Node6 -->
<g id="edge5" class="edge"><title>Node4&#45;&gt;Node6</title>
<path fill="none" stroke="midnightblue" d="M245.253,-74.319C271.205,-68.9301 301.622,-62.6139 326.153,-57.5201"/>
<polygon fill="midnightblue" stroke="midnightblue" points="244.258,-70.9509 235.179,-76.411 245.681,-77.8047 244.258,-70.9509"/>
</g>
<!-- Node7 -->
<g id="node7" class="node"><title>Node7</title>
<g id="a_node7"><a xlink:href="../../df/df8/class_cell_society_view.html#a7bdbd4e8fd3893e672eb22015603f6dc" target="_top" xlink:title="CellSocietyView.makeButtons">
<polygon fill="white" stroke="black" points="485,-38.5 485,-57.5 643,-57.5 643,-38.5 485,-38.5"/>
<text text-anchor="middle" x="564" y="-45.5" font-family="Helvetica,sans-Serif" font-size="10.00">CellSocietyView.makeButtons</text>
</a>
</g>
</g>
<!-- Node6&#45;&gt;Node7 -->
<g id="edge6" class="edge"><title>Node6&#45;&gt;Node7</title>
<path fill="none" stroke="midnightblue" d="M457.739,-48C466.773,-48 475.939,-48 484.903,-48"/>
<polygon fill="midnightblue" stroke="midnightblue" points="457.614,-44.5001 447.614,-48 457.613,-51.5001 457.614,-44.5001"/>
</g>
<!-- Node8 -->
<g id="node8" class="node"><title>Node8</title>
<g id="a_node8"><a xlink:href="../../df/df8/class_cell_society_view.html#a3ebde62294a33f32af2abf897e1be666" target="_top" xlink:title="CellSocietyView.makeTimeline">
<polygon fill="white" stroke="black" points="484,-0.5 484,-19.5 644,-19.5 644,-0.5 484,-0.5"/>
<text text-anchor="middle" x="564" y="-7.5" font-family="Helvetica,sans-Serif" font-size="10.00">CellSocietyView.makeTimeline</text>
</a>
</g>
</g>
<!-- Node6&#45;&gt;Node8 -->
<g id="edge8" class="edge"><title>Node6&#45;&gt;Node8</title>
<path fill="none" stroke="midnightblue" d="M431.742,-36.3905C458.622,-30.986 490.203,-24.6365 515.65,-19.5201"/>
<polygon fill="midnightblue" stroke="midnightblue" points="430.807,-33.0084 421.693,-38.411 432.186,-39.8711 430.807,-33.0084"/>
</g>
<!-- Node7&#45;&gt;Node5 -->
<g id="edge7" class="edge"><title>Node7&#45;&gt;Node5</title>
<path fill="none" stroke="midnightblue" d="M653.358,-56.4788C662.365,-57.3431 671.491,-58.2188 680.433,-59.0769"/>
<polygon fill="midnightblue" stroke="midnightblue" points="653.543,-52.9806 643.255,-55.5093 652.875,-59.9486 653.543,-52.9806"/>
</g>
<!-- Node9 -->
<g id="node9" class="node"><title>Node9</title>
<g id="a_node9"><a xlink:href="../../d0/d4b/class_main.html#a7595d13c514a02c35aca322dd91d2063" target="_top" xlink:title="Main.start">
<polygon fill="white" stroke="black" points="731.5,-0.5 731.5,-19.5 796.5,-19.5 796.5,-0.5 731.5,-0.5"/>
<text text-anchor="middle" x="764" y="-7.5" font-family="Helvetica,sans-Serif" font-size="10.00">Main.start</text>
</a>
</g>
</g>
<!-- Node8&#45;&gt;Node9 -->
<g id="edge9" class="edge"><title>Node8&#45;&gt;Node9</title>
<path fill="none" stroke="midnightblue" d="M654.225,-10C681.854,-10 710.508,-10 731.467,-10"/>
<polygon fill="midnightblue" stroke="midnightblue" points="654.108,-6.5001 644.108,-10 654.108,-13.5001 654.108,-6.5001"/>
</g>
</g>
</svg>
