<?xml version="1.0" encoding="UTF-8" standalone="no"?>
<!DOCTYPE svg PUBLIC "-//W3C//DTD SVG 1.1//EN"
 "http://www.w3.org/Graphics/SVG/1.1/DTD/svg11.dtd">
<!-- Generated by graphviz version 2.36.0 (20140111.2315)
 -->
<!-- Title: Grid.getGridSize Pages: 1 -->
<svg width="874pt" height="218pt"
 viewBox="0.00 0.00 874.00 218.00" xmlns="http://www.w3.org/2000/svg" xmlns:xlink="http://www.w3.org/1999/xlink">
<g id="graph0" class="graph" transform="scale(1 1) rotate(0) translate(4 214)">
<title>Grid.getGridSize</title>
<polygon fill="white" stroke="none" points="-4,4 -4,-214 870,-214 870,4 -4,4"/>
<!-- Node1 -->
<g id="node1" class="node"><title>Node1</title>
<polygon fill="#bfbfbf" stroke="black" points="0.5,-133.5 0.5,-152.5 95.5,-152.5 95.5,-133.5 0.5,-133.5"/>
<text text-anchor="middle" x="48" y="-140.5" font-family="Helvetica,sans-Serif" font-size="10.00">Grid.getGridSize</text>
</g>
<!-- Node2 -->
<g id="node2" class="node"><title>Node2</title>
<g id="a_node2"><a xlink:href="../../d8/d27/class_torus_grid.html#ad529a0eef2c1d0ea8f2716e9658c9fa4" target="_top" xlink:title="TorusGrid.getTorusPoint">
<polygon fill="white" stroke="black" points="142,-190.5 142,-209.5 270,-209.5 270,-190.5 142,-190.5"/>
<text text-anchor="middle" x="206" y="-197.5" font-family="Helvetica,sans-Serif" font-size="10.00">TorusGrid.getTorusPoint</text>
</a>
</g>
</g>
<!-- Node1&#45;&gt;Node2 -->
<g id="edge1" class="edge"><title>Node1&#45;&gt;Node2</title>
<path fill="none" stroke="midnightblue" d="M76.6538,-157.135C92.5594,-164.889 113.083,-174.266 132,-181 141.993,-184.557 152.971,-187.766 163.31,-190.49"/>
<polygon fill="midnightblue" stroke="midnightblue" points="77.9174,-153.856 67.4027,-152.555 74.8116,-160.129 77.9174,-153.856"/>
</g>
<!-- Node3 -->
<g id="node3" class="node"><title>Node3</title>
<g id="a_node3"><a xlink:href="../../dd/d97/class_grid_drawer.html#a175e899f65559e8292814df2d4eab07d" target="_top" xlink:title="GridDrawer.GridDrawer">
<polygon fill="white" stroke="black" points="143.5,-152.5 143.5,-171.5 268.5,-171.5 268.5,-152.5 143.5,-152.5"/>
<text text-anchor="middle" x="206" y="-159.5" font-family="Helvetica,sans-Serif" font-size="10.00">GridDrawer.GridDrawer</text>
</a>
</g>
</g>
<!-- Node1&#45;&gt;Node3 -->
<g id="edge2" class="edge"><title>Node1&#45;&gt;Node3</title>
<path fill="none" stroke="midnightblue" d="M105.876,-149.927C118.109,-151.417 131.093,-152.998 143.493,-154.509"/>
<polygon fill="midnightblue" stroke="midnightblue" points="106.155,-146.435 95.8051,-148.701 105.309,-153.384 106.155,-146.435"/>
</g>
<!-- Node4 -->
<g id="node4" class="node"><title>Node4</title>
<g id="a_node4"><a xlink:href="../../dd/d97/class_grid_drawer.html#af9a09b2ee81450f13a117261b67718e0" target="_top" xlink:title="GridDrawer.makeUnitGrid">
<polygon fill="white" stroke="black" points="137,-114.5 137,-133.5 275,-133.5 275,-114.5 137,-114.5"/>
<text text-anchor="middle" x="206" y="-121.5" font-family="Helvetica,sans-Serif" font-size="10.00">GridDrawer.makeUnitGrid</text>
</a>
</g>
</g>
<!-- Node1&#45;&gt;Node4 -->
<g id="edge3" class="edge"><title>Node1&#45;&gt;Node4</title>
<path fill="none" stroke="midnightblue" d="M106.043,-136.052C116.07,-134.831 126.596,-133.549 136.888,-132.296"/>
<polygon fill="midnightblue" stroke="midnightblue" points="105.309,-132.616 95.8051,-137.299 106.155,-139.565 105.309,-132.616"/>
</g>
<!-- Node7 -->
<g id="node7" class="node"><title>Node7</title>
<g id="a_node7"><a xlink:href="../../dd/d97/class_grid_drawer.html#a8853ef53b515fd60ca524f05a3dbf897" target="_top" xlink:title="GridDrawer.updateNextGen">
<polygon fill="white" stroke="black" points="132,-76.5 132,-95.5 280,-95.5 280,-76.5 132,-76.5"/>
<text text-anchor="middle" x="206" y="-83.5" font-family="Helvetica,sans-Serif" font-size="10.00">GridDrawer.updateNextGen</text>
</a>
</g>
</g>
<!-- Node1&#45;&gt;Node7 -->
<g id="edge6" class="edge"><title>Node1&#45;&gt;Node7</title>
<path fill="none" stroke="midnightblue" d="M76.6538,-128.865C92.5594,-121.111 113.083,-111.734 132,-105 141.993,-101.443 152.971,-98.2343 163.31,-95.5102"/>
<polygon fill="midnightblue" stroke="midnightblue" points="74.8116,-125.871 67.4027,-133.445 77.9174,-132.144 74.8116,-125.871"/>
</g>
<!-- Node5 -->
<g id="node5" class="node"><title>Node5</title>
<g id="a_node5"><a xlink:href="../../dd/d97/class_grid_drawer.html#ab8aa1cc79c89cfbc7b9d8516a5dee463" target="_top" xlink:title="GridDrawer.makeGrid">
<polygon fill="white" stroke="black" points="331.5,-114.5 331.5,-133.5 450.5,-133.5 450.5,-114.5 331.5,-114.5"/>
<text text-anchor="middle" x="391" y="-121.5" font-family="Helvetica,sans-Serif" font-size="10.00">GridDrawer.makeGrid</text>
</a>
</g>
</g>
<!-- Node4&#45;&gt;Node5 -->
<g id="edge4" class="edge"><title>Node4&#45;&gt;Node5</title>
<path fill="none" stroke="midnightblue" d="M285.225,-124C300.712,-124 316.716,-124 331.413,-124"/>
<polygon fill="midnightblue" stroke="midnightblue" points="285.142,-120.5 275.142,-124 285.142,-127.5 285.142,-120.5"/>
</g>
<!-- Node6 -->
<g id="node6" class="node"><title>Node6</title>
<g id="a_node6"><a xlink:href="../../df/df8/class_cell_society_view.html#abe7bcd77ca077f5e5e0f9946eea96406" target="_top" xlink:title="CellSocietyView.CellSocietyView">
<polygon fill="white" stroke="black" points="698.5,-76.5 698.5,-95.5 865.5,-95.5 865.5,-76.5 698.5,-76.5"/>
<text text-anchor="middle" x="782" y="-83.5" font-family="Helvetica,sans-Serif" font-size="10.00">CellSocietyView.CellSocietyView</text>
</a>
</g>
</g>
<!-- Node5&#45;&gt;Node6 -->
<g id="edge5" class="edge"><title>Node5&#45;&gt;Node6</title>
<path fill="none" stroke="midnightblue" d="M460.761,-118.431C515.357,-113.878 593.616,-107.06 662,-100 675.243,-98.6327 689.302,-97.0741 702.941,-95.5052"/>
<polygon fill="midnightblue" stroke="midnightblue" points="460.184,-114.967 450.508,-119.282 460.764,-121.943 460.184,-114.967"/>
</g>
<!-- Node7&#45;&gt;Node6 -->
<g id="edge7" class="edge"><title>Node7&#45;&gt;Node6</title>
<path fill="none" stroke="midnightblue" d="M290.588,-86C399.764,-86 589.745,-86 698.42,-86"/>
<polygon fill="midnightblue" stroke="midnightblue" points="290.281,-82.5001 280.281,-86 290.28,-89.5001 290.281,-82.5001"/>
</g>
<!-- Node8 -->
<g id="node8" class="node"><title>Node8</title>
<g id="a_node8"><a xlink:href="../../df/df8/class_cell_society_view.html#ad52b914fa03b45d8bc9d64fc407660f3" target="_top" xlink:title="CellSocietyView.updateView">
<polygon fill="white" stroke="black" points="316.5,-38.5 316.5,-57.5 465.5,-57.5 465.5,-38.5 316.5,-38.5"/>
<text text-anchor="middle" x="391" y="-45.5" font-family="Helvetica,sans-Serif" font-size="10.00">CellSocietyView.updateView</text>
</a>
</g>
</g>
<!-- Node7&#45;&gt;Node8 -->
<g id="edge8" class="edge"><title>Node7&#45;&gt;Node8</title>
<path fill="none" stroke="midnightblue" d="M263.253,-74.319C289.205,-68.9301 319.622,-62.6139 344.153,-57.5201"/>
<polygon fill="midnightblue" stroke="midnightblue" points="262.258,-70.9509 253.179,-76.411 263.681,-77.8047 262.258,-70.9509"/>
</g>
<!-- Node9 -->
<g id="node9" class="node"><title>Node9</title>
<g id="a_node9"><a xlink:href="../../df/df8/class_cell_society_view.html#a7bdbd4e8fd3893e672eb22015603f6dc" target="_top" xlink:title="CellSocietyView.makeButtons">
<polygon fill="white" stroke="black" points="503,-38.5 503,-57.5 661,-57.5 661,-38.5 503,-38.5"/>
<text text-anchor="middle" x="582" y="-45.5" font-family="Helvetica,sans-Serif" font-size="10.00">CellSocietyView.makeButtons</text>
</a>
</g>
</g>
<!-- Node8&#45;&gt;Node9 -->
<g id="edge9" class="edge"><title>Node8&#45;&gt;Node9</title>
<path fill="none" stroke="midnightblue" d="M475.739,-48C484.773,-48 493.939,-48 502.903,-48"/>
<polygon fill="midnightblue" stroke="midnightblue" points="475.614,-44.5001 465.614,-48 475.613,-51.5001 475.614,-44.5001"/>
</g>
<!-- Node10 -->
<g id="node10" class="node"><title>Node10</title>
<g id="a_node10"><a xlink:href="../../df/df8/class_cell_society_view.html#a3ebde62294a33f32af2abf897e1be666" target="_top" xlink:title="CellSocietyView.makeTimeline">
<polygon fill="white" stroke="black" points="502,-0.5 502,-19.5 662,-19.5 662,-0.5 502,-0.5"/>
<text text-anchor="middle" x="582" y="-7.5" font-family="Helvetica,sans-Serif" font-size="10.00">CellSocietyView.makeTimeline</text>
</a>
</g>
</g>
<!-- Node8&#45;&gt;Node10 -->
<g id="edge11" class="edge"><title>Node8&#45;&gt;Node10</title>
<path fill="none" stroke="midnightblue" d="M449.742,-36.3905C476.622,-30.986 508.203,-24.6365 533.65,-19.5201"/>
<polygon fill="midnightblue" stroke="midnightblue" points="448.807,-33.0084 439.693,-38.411 450.186,-39.8711 448.807,-33.0084"/>
</g>
<!-- Node9&#45;&gt;Node6 -->
<g id="edge10" class="edge"><title>Node9&#45;&gt;Node6</title>
<path fill="none" stroke="midnightblue" d="M642.866,-59.4894C671.117,-64.9114 704.436,-71.3058 731.271,-76.4561"/>
<polygon fill="midnightblue" stroke="midnightblue" points="643.189,-55.9876 632.708,-57.54 641.869,-62.8621 643.189,-55.9876"/>
</g>
<!-- Node11 -->
<g id="node11" class="node"><title>Node11</title>
<g id="a_node11"><a xlink:href="../../d0/d4b/class_main.html#a7595d13c514a02c35aca322dd91d2063" target="_top" xlink:title="Main.start">
<polygon fill="white" stroke="black" points="749.5,-0.5 749.5,-19.5 814.5,-19.5 814.5,-0.5 749.5,-0.5"/>
<text text-anchor="middle" x="782" y="-7.5" font-family="Helvetica,sans-Serif" font-size="10.00">Main.start</text>
</a>
</g>
</g>
<!-- Node10&#45;&gt;Node11 -->
<g id="edge12" class="edge"><title>Node10&#45;&gt;Node11</title>
<path fill="none" stroke="midnightblue" d="M672.225,-10C699.854,-10 728.508,-10 749.467,-10"/>
<polygon fill="midnightblue" stroke="midnightblue" points="672.108,-6.5001 662.108,-10 672.108,-13.5001 672.108,-6.5001"/>
</g>
</g>
</svg>
