<?xml version="1.0" encoding="UTF-8" standalone="no"?>
<!DOCTYPE svg PUBLIC "-//W3C//DTD SVG 1.1//EN"
 "http://www.w3.org/Graphics/SVG/1.1/DTD/svg11.dtd">
<!-- Generated by graphviz version 2.36.0 (20140111.2315)
 -->
<!-- Title: Grid.getCellAt Pages: 1 -->
<!--zoomable 178 -->
<svg id="main" version="1.1" xmlns="http://www.w3.org/2000/svg" xmlns:xlink="http://www.w3.org/1999/xlink" xml:space="preserve" onload="init(evt)">
<style type="text/css"><![CDATA[
.edge:hover path { stroke: red; }
.edge:hover polygon { stroke: red; fill: red; }
]]></style>
<script type="text/javascript"><![CDATA[
var edges = document.getElementsByTagName('g');
if (edges && edges.length) {
  for (var i=0;i<edges.length;i++) {
    if (edges[i].id.substr(0,4)=='edge') {
      edges[i].setAttribute('class','edge');
    }
  }
}
]]></script>
        <defs>
                <circle id="rim" cx="0" cy="0" r="7"/>
                <circle id="rim2" cx="0" cy="0" r="3.5"/>
                <g id="zoomPlus">
                        <use xlink:href="#rim" fill="#404040">
                                <set attributeName="fill" to="#808080" begin="zoomplus.mouseover" end="zoomplus.mouseout"/>
                        </use>
                        <path d="M-4,0h8M0,-4v8" fill="none" stroke="white" stroke-width="1.5" pointer-events="none"/>
                </g>
                <g id="zoomMin">
                        <use xlink:href="#rim" fill="#404040">
                                <set attributeName="fill" to="#808080" begin="zoomminus.mouseover" end="zoomminus.mouseout"/>
                        </use>
                        <path d="M-4,0h8" fill="none" stroke="white" stroke-width="1.5" pointer-events="none"/>
                </g>
                <g id="dirArrow">
                        <path fill="none" stroke="white" stroke-width="1.5" d="M0,-3.0v7 M-2.5,-0.5L0,-3.0L2.5,-0.5"/>
                </g>
               <g id="resetDef">
                       <use xlink:href="#rim2" fill="#404040">
                               <set attributeName="fill" to="#808080" begin="reset.mouseover" end="reset.mouseout"/>
                       </use>
               </g>
        </defs>

<script type="text/javascript">
var viewWidth = 1436;
var viewHeight = 178;
var sectionId = 'dynsection-5';
</script>
<script xlink:href="../../svgpan.js"/>
<svg id="graph" class="graph">
<g id="viewport">
<title>Grid.getCellAt</title>
<polygon fill="white" stroke="none" points="-4,4 -4,-174 1432,-174 1432,4 -4,4"/>
<!-- Node1 -->
<g id="node1" class="node"><title>Node1</title>
<polygon fill="#bfbfbf" stroke="black" points="0.5,-106.5 0.5,-125.5 83.5,-125.5 83.5,-106.5 0.5,-106.5"/>
<text text-anchor="middle" x="42" y="-113.5" font-family="Helvetica,sans-Serif" font-size="10.00">Grid.getCellAt</text>
</g>
<!-- Node2 -->
<g id="node2" class="node"><title>Node2</title>
<g id="a_node2"><a xlink:href="../../d9/df1/class_fire.html#afd16418c5ea360c815613862a4ea1c33" target="_top" xlink:title="Fire.setUpInitialConfig">
<polygon fill="white" stroke="black" points="138.5,-150.5 138.5,-169.5 257.5,-169.5 257.5,-150.5 138.5,-150.5"/>
<text text-anchor="middle" x="198" y="-157.5" font-family="Helvetica,sans-Serif" font-size="10.00">Fire.setUpInitialConfig</text>
</a>
</g>
</g>
<!-- Node1&#45;&gt;Node2 -->
<g id="edge1" class="edge"><title>Node1&#45;&gt;Node2</title>
<path fill="none" stroke="midnightblue" d="M82.2978,-128.648C94.3577,-132.421 107.693,-136.486 120,-140 132.617,-143.603 146.473,-147.286 158.912,-150.493"/>
<polygon fill="midnightblue" stroke="midnightblue" points="83.1075,-125.233 72.5179,-125.565 81.0029,-131.909 83.1075,-125.233"/>
</g>
<!-- Node3 -->
<g id="node3" class="node"><title>Node3</title>
<g id="a_node3"><a xlink:href="../../d2/d40/class_cellular_automata.html#a36aec0679e06662be2e1a89ac9c88cfa" target="_top" xlink:title="CellularAutomata.setUpInitial\lConfig">
<polygon fill="white" stroke="black" points="120,-101 120,-131 276,-131 276,-101 120,-101"/>
<text text-anchor="start" x="128" y="-119" font-family="Helvetica,sans-Serif" font-size="10.00">CellularAutomata.setUpInitial</text>
<text text-anchor="middle" x="198" y="-108" font-family="Helvetica,sans-Serif" font-size="10.00">Config</text>
</a>
</g>
</g>
<!-- Node1&#45;&gt;Node3 -->
<g id="edge2" class="edge"><title>Node1&#45;&gt;Node3</title>
<path fill="none" stroke="midnightblue" d="M94.096,-116C102.392,-116 111.142,-116 119.893,-116"/>
<polygon fill="midnightblue" stroke="midnightblue" points="93.8649,-112.5 83.8649,-116 93.8648,-119.5 93.8649,-112.5"/>
</g>
<!-- Node4 -->
<g id="node4" class="node"><title>Node4</title>
<g id="a_node4"><a xlink:href="../../dd/d97/class_grid_drawer.html#a8853ef53b515fd60ca524f05a3dbf897" target="_top" xlink:title="GridDrawer.updateNextGen">
<polygon fill="white" stroke="black" points="124,-62.5 124,-81.5 272,-81.5 272,-62.5 124,-62.5"/>
<text text-anchor="middle" x="198" y="-69.5" font-family="Helvetica,sans-Serif" font-size="10.00">GridDrawer.updateNextGen</text>
</a>
</g>
</g>
<!-- Node1&#45;&gt;Node4 -->
<g id="edge3" class="edge"><title>Node1&#45;&gt;Node4</title>
<path fill="none" stroke="midnightblue" d="M82.2978,-103.352C94.3577,-99.5785 107.693,-95.5141 120,-92 132.617,-88.3974 146.473,-84.7145 158.912,-81.5068"/>
<polygon fill="midnightblue" stroke="midnightblue" points="81.0029,-100.091 72.5179,-106.435 83.1075,-106.767 81.0029,-100.091"/>
</g>
<!-- Node5 -->
<g id="node5" class="node"><title>Node5</title>
<g id="a_node5"><a xlink:href="../../df/df8/class_cell_society_view.html#a6a72ed4ee014a9c3f0368ab26be873d6" target="_top" xlink:title="CellSocietyView.makeCAGame">
<polygon fill="white" stroke="black" points="694.5,-65.5 694.5,-84.5 857.5,-84.5 857.5,-65.5 694.5,-65.5"/>
<text text-anchor="middle" x="776" y="-72.5" font-family="Helvetica,sans-Serif" font-size="10.00">CellSocietyView.makeCAGame</text>
</a>
</g>
</g>
<!-- Node4&#45;&gt;Node5 -->
<g id="edge4" class="edge"><title>Node4&#45;&gt;Node5</title>
<path fill="none" stroke="midnightblue" d="M282.32,-72.434C392.549,-73.0081 585.566,-74.0134 694.409,-74.5803"/>
<polygon fill="midnightblue" stroke="midnightblue" points="282.261,-68.9337 272.243,-72.3815 282.225,-75.9336 282.261,-68.9337"/>
</g>
<!-- Node10 -->
<g id="node10" class="node"><title>Node10</title>
<g id="a_node10"><a xlink:href="../../df/df8/class_cell_society_view.html#ad52b914fa03b45d8bc9d64fc407660f3" target="_top" xlink:title="CellSocietyView.updateView">
<polygon fill="white" stroke="black" points="312.5,-43.5 312.5,-62.5 461.5,-62.5 461.5,-43.5 312.5,-43.5"/>
<text text-anchor="middle" x="387" y="-50.5" font-family="Helvetica,sans-Serif" font-size="10.00">CellSocietyView.updateView</text>
</a>
</g>
</g>
<!-- Node4&#45;&gt;Node10 -->
<g id="edge10" class="edge"><title>Node4&#45;&gt;Node10</title>
<path fill="none" stroke="midnightblue" d="M282.103,-63.5564C292.175,-62.533 302.41,-61.4931 312.333,-60.4849"/>
<polygon fill="midnightblue" stroke="midnightblue" points="281.697,-60.0795 272.103,-64.5725 282.405,-67.0436 281.697,-60.0795"/>
</g>
<!-- Node6 -->
<g id="node6" class="node"><title>Node6</title>
<g id="a_node6"><a xlink:href="../../df/df8/class_cell_society_view.html#a2c047a3972078bb0a5490ed225ef2dfa" target="_top" xlink:title="CellSocietyView.loadNewFile">
<polygon fill="white" stroke="black" points="894.5,-84.5 894.5,-103.5 1043.5,-103.5 1043.5,-84.5 894.5,-84.5"/>
<text text-anchor="middle" x="969" y="-91.5" font-family="Helvetica,sans-Serif" font-size="10.00">CellSocietyView.loadNewFile</text>
</a>
</g>
</g>
<!-- Node5&#45;&gt;Node6 -->
<g id="edge5" class="edge"><title>Node5&#45;&gt;Node6</title>
<path fill="none" stroke="midnightblue" d="M867.72,-84.0245C876.608,-84.9086 885.551,-85.7983 894.241,-86.6628"/>
<polygon fill="midnightblue" stroke="midnightblue" points="868.022,-80.5373 857.724,-83.0302 867.329,-87.503 868.022,-80.5373"/>
</g>
<!-- Node7 -->
<g id="node7" class="node"><title>Node7</title>
<g id="a_node7"><a xlink:href="../../df/df8/class_cell_society_view.html#a656cfed0ba32bc41bbd0c4087860db4b" target="_top" xlink:title="CellSocietyView.makeLoad\lButton">
<polygon fill="white" stroke="black" points="1080.5,-82 1080.5,-112 1223.5,-112 1223.5,-82 1080.5,-82"/>
<text text-anchor="start" x="1088.5" y="-100" font-family="Helvetica,sans-Serif" font-size="10.00">CellSocietyView.makeLoad</text>
<text text-anchor="middle" x="1152" y="-89" font-family="Helvetica,sans-Serif" font-size="10.00">Button</text>
</a>
</g>
</g>
<!-- Node6&#45;&gt;Node7 -->
<g id="edge6" class="edge"><title>Node6&#45;&gt;Node7</title>
<path fill="none" stroke="midnightblue" d="M1053.65,-95.3865C1062.59,-95.5346 1071.61,-95.6841 1080.37,-95.8294"/>
<polygon fill="midnightblue" stroke="midnightblue" points="1053.68,-91.8865 1043.62,-95.2202 1053.56,-98.8856 1053.68,-91.8865"/>
</g>
<!-- Node8 -->
<g id="node8" class="node"><title>Node8</title>
<g id="a_node8"><a xlink:href="../../df/df8/class_cell_society_view.html#a53ab66afdeb23b3fc89e54a44be7ced5" target="_top" xlink:title="CellSocietyView.CellSocietyView">
<polygon fill="white" stroke="black" points="1260.5,-87.5 1260.5,-106.5 1427.5,-106.5 1427.5,-87.5 1260.5,-87.5"/>
<text text-anchor="middle" x="1344" y="-94.5" font-family="Helvetica,sans-Serif" font-size="10.00">CellSocietyView.CellSocietyView</text>
</a>
</g>
</g>
<!-- Node7&#45;&gt;Node8 -->
<g id="edge7" class="edge"><title>Node7&#45;&gt;Node8</title>
<path fill="none" stroke="midnightblue" d="M1233.92,-97C1242.66,-97 1251.57,-97 1260.33,-97"/>
<polygon fill="midnightblue" stroke="midnightblue" points="1233.75,-93.5001 1223.75,-97 1233.75,-100.5 1233.75,-93.5001"/>
</g>
<!-- Node9 -->
<g id="node9" class="node"><title>Node9</title>
<g id="a_node9"><a xlink:href="../../df/df8/class_cell_society_view.html#a7bdbd4e8fd3893e672eb22015603f6dc" target="_top" xlink:title="CellSocietyView.makeButtons">
<polygon fill="white" stroke="black" points="1265,-43.5 1265,-62.5 1423,-62.5 1423,-43.5 1265,-43.5"/>
<text text-anchor="middle" x="1344" y="-50.5" font-family="Helvetica,sans-Serif" font-size="10.00">CellSocietyView.makeButtons</text>
</a>
</g>
</g>
<!-- Node7&#45;&gt;Node9 -->
<g id="edge8" class="edge"><title>Node7&#45;&gt;Node9</title>
<path fill="none" stroke="midnightblue" d="M1227.79,-79.6813C1253.03,-73.8352 1280.27,-67.5268 1301.92,-62.5124"/>
<polygon fill="midnightblue" stroke="midnightblue" points="1226.81,-76.3148 1217.86,-81.9808 1228.39,-83.1344 1226.81,-76.3148"/>
</g>
<!-- Node9&#45;&gt;Node5 -->
<g id="edge9" class="edge"><title>Node9&#45;&gt;Node5</title>
<path fill="none" stroke="midnightblue" d="M1254.41,-56.4434C1145.68,-60.6698 962.835,-67.7767 857.793,-71.8596"/>
<polygon fill="midnightblue" stroke="midnightblue" points="1254.84,-59.9294 1264.7,-56.0436 1254.57,-52.9347 1254.84,-59.9294"/>
</g>
<!-- Node11 -->
<g id="node11" class="node"><title>Node11</title>
<g id="a_node11"><a xlink:href="../../df/df8/class_cell_society_view.html#aec6e94a6cf275f0b5d64a4b8adccd7d0" target="_top" xlink:title="CellSocietyView.makeStep\lButton">
<polygon fill="white" stroke="black" points="704.5,-0 704.5,-30 847.5,-30 847.5,-0 704.5,-0"/>
<text text-anchor="start" x="712.5" y="-18" font-family="Helvetica,sans-Serif" font-size="10.00">CellSocietyView.makeStep</text>
<text text-anchor="middle" x="776" y="-7" font-family="Helvetica,sans-Serif" font-size="10.00">Button</text>
</a>
</g>
</g>
<!-- Node10&#45;&gt;Node11 -->
<g id="edge11" class="edge"><title>Node10&#45;&gt;Node11</title>
<path fill="none" stroke="midnightblue" d="M446.899,-41.6797C463.385,-38.824 481.349,-36.0038 498,-34 567.873,-25.5917 648.143,-20.5942 704.224,-17.852"/>
<polygon fill="midnightblue" stroke="midnightblue" points="446.089,-38.2687 436.85,-43.4554 447.307,-45.1619 446.089,-38.2687"/>
</g>
<!-- Node12 -->
<g id="node12" class="node"><title>Node12</title>
<g id="a_node12"><a xlink:href="../../df/df8/class_cell_society_view.html#adf6a6b0542d00677a9fffbb8e3c03ffe" target="_top" xlink:title="CellSocietyView.makeTimeline">
<polygon fill="white" stroke="black" points="498,-43.5 498,-62.5 658,-62.5 658,-43.5 498,-43.5"/>
<text text-anchor="middle" x="578" y="-50.5" font-family="Helvetica,sans-Serif" font-size="10.00">CellSocietyView.makeTimeline</text>
</a>
</g>
</g>
<!-- Node10&#45;&gt;Node12 -->
<g id="edge13" class="edge"><title>Node10&#45;&gt;Node12</title>
<path fill="none" stroke="midnightblue" d="M471.763,-53C480.473,-53 489.306,-53 497.961,-53"/>
<polygon fill="midnightblue" stroke="midnightblue" points="471.614,-49.5001 461.614,-53 471.613,-56.5001 471.614,-49.5001"/>
</g>
<!-- Node11&#45;&gt;Node9 -->
<g id="edge12" class="edge"><title>Node11&#45;&gt;Node9</title>
<path fill="none" stroke="midnightblue" d="M857.77,-20.4227C966.214,-27.7034 1157.61,-40.5532 1264.75,-47.7464"/>
<polygon fill="midnightblue" stroke="midnightblue" points="857.752,-16.9137 847.54,-19.7359 857.283,-23.898 857.752,-16.9137"/>
</g>
<!-- Node12&#45;&gt;Node5 -->
<g id="edge14" class="edge"><title>Node12&#45;&gt;Node5</title>
<path fill="none" stroke="midnightblue" d="M668.271,-63.0202C676.937,-63.993 685.696,-64.976 694.272,-65.9386"/>
<polygon fill="midnightblue" stroke="midnightblue" points="668.484,-59.5222 658.156,-61.8848 667.703,-66.4785 668.484,-59.5222"/>
</g>
</g>
</svg>
        <g id="navigator" transform="translate(0 0)" fill="#404254">
                <rect fill="#f2f5e9" fill-opacity="0.5" stroke="#606060" stroke-width=".5" x="0" y="0" width="60" height="60"/>
                <use id="zoomplus" xlink:href="#zoomPlus" x="17" y="9" onmousedown="handleZoom(evt,'in')"/>
                <use id="zoomminus" xlink:href="#zoomMin" x="42" y="9" onmousedown="handleZoom(evt,'out')"/>
                <use id="reset" xlink:href="#resetDef" x="30" y="36" onmousedown="handleReset()"/>
                <g id="arrowUp" xlink:href="#dirArrow" transform="translate(30 24)" onmousedown="handlePan(0,-1)">
                  <use xlink:href="#rim" fill="#404040">
                        <set attributeName="fill" to="#808080" begin="arrowUp.mouseover" end="arrowUp.mouseout"/>
                  </use>
                  <path fill="none" stroke="white" stroke-width="1.5" d="M0,-3.0v7 M-2.5,-0.5L0,-3.0L2.5,-0.5"/>
                </g>
                <g id="arrowRight" xlink:href="#dirArrow" transform="rotate(90) translate(36 -43)" onmousedown="handlePan(1,0)">
                  <use xlink:href="#rim" fill="#404040">
                        <set attributeName="fill" to="#808080" begin="arrowRight.mouseover" end="arrowRight.mouseout"/>
                  </use>
                  <path fill="none" stroke="white" stroke-width="1.5" d="M0,-3.0v7 M-2.5,-0.5L0,-3.0L2.5,-0.5"/>
                </g>
                <g id="arrowDown" xlink:href="#dirArrow" transform="rotate(180) translate(-30 -48)" onmousedown="handlePan(0,1)">
                  <use xlink:href="#rim" fill="#404040">
                        <set attributeName="fill" to="#808080" begin="arrowDown.mouseover" end="arrowDown.mouseout"/>
                  </use>
                  <path fill="none" stroke="white" stroke-width="1.5" d="M0,-3.0v7 M-2.5,-0.5L0,-3.0L2.5,-0.5"/>
                </g>
                <g id="arrowLeft" xlink:href="#dirArrow" transform="rotate(270) translate(-36 17)" onmousedown="handlePan(-1,0)">
                  <use xlink:href="#rim" fill="#404040">
                        <set attributeName="fill" to="#808080" begin="arrowLeft.mouseover" end="arrowLeft.mouseout"/>
                  </use>
                  <path fill="none" stroke="white" stroke-width="1.5" d="M0,-3.0v7 M-2.5,-0.5L0,-3.0L2.5,-0.5"/>
                </g>
        </g>
        <svg viewBox="0 0 15 15" width="100%" height="30px" preserveAspectRatio="xMaxYMin meet">
         <g id="arrow_out" transform="scale(0.3 0.3)">
          <a xlink:href="class_grid_a2f2ccb1511e367a7d6e9bcb3f708cd38_icgraph_org.svg" target="_base">
           <rect id="button" ry="5" rx="5" y="6" x="6" height="38" width="38"
                fill="#f2f5e9" fill-opacity="0.5" stroke="#606060" stroke-width="1.0"/>
           <path id="arrow"
             d="M 11.500037,31.436501 C 11.940474,20.09759 22.043105,11.32322 32.158766,21.979434 L 37.068811,17.246167 C 37.068811,17.246167 37.088388,32 37.088388,32 L 22.160133,31.978069 C 22.160133,31.978069 26.997745,27.140456 26.997745,27.140456 C 18.528582,18.264221 13.291696,25.230495 11.500037,31.436501 z"
             style="fill:#404040;"/>
          </a>
         </g>
        </svg>
</svg>
