<?xml version="1.0" encoding="UTF-8" standalone="no"?>
<!DOCTYPE svg PUBLIC "-//W3C//DTD SVG 1.1//EN"
 "http://www.w3.org/Graphics/SVG/1.1/DTD/svg11.dtd">
<!-- Generated by graphviz version 2.36.0 (20140111.2315)
 -->
<!-- Title: Grid.getTorusPoint Pages: 1 -->
<svg width="922pt" height="218pt"
 viewBox="0.00 0.00 922.00 218.00" xmlns="http://www.w3.org/2000/svg" xmlns:xlink="http://www.w3.org/1999/xlink">
<g id="graph0" class="graph" transform="scale(1 1) rotate(0) translate(4 214)">
<title>Grid.getTorusPoint</title>
<polygon fill="white" stroke="none" points="-4,4 -4,-214 918,-214 918,4 -4,4"/>
<!-- Node1 -->
<g id="node1" class="node"><title>Node1</title>
<polygon fill="#bfbfbf" stroke="black" points="0,-95.5 0,-114.5 104,-114.5 104,-95.5 0,-95.5"/>
<text text-anchor="middle" x="52" y="-102.5" font-family="Helvetica,sans-Serif" font-size="10.00">Grid.getTorusPoint</text>
</g>
<!-- Node2 -->
<g id="node2" class="node"><title>Node2</title>
<g id="a_node2"><a xlink:href="../../da/d74/class_grid.html#a33b84a1d6b40a447bdd4a33fa3daf555" target="_top" xlink:title="Grid.getNeighbors">
<polygon fill="white" stroke="black" points="140,-95.5 140,-114.5 244,-114.5 244,-95.5 140,-95.5"/>
<text text-anchor="middle" x="192" y="-102.5" font-family="Helvetica,sans-Serif" font-size="10.00">Grid.getNeighbors</text>
</a>
</g>
</g>
<!-- Node1&#45;&gt;Node2 -->
<g id="edge1" class="edge"><title>Node1&#45;&gt;Node2</title>
<path fill="none" stroke="midnightblue" d="M114.496,-105C122.872,-105 131.398,-105 139.571,-105"/>
<polygon fill="midnightblue" stroke="midnightblue" points="114.386,-101.5 104.386,-105 114.386,-108.5 114.386,-101.5"/>
</g>
<!-- Node3 -->
<g id="node3" class="node"><title>Node3</title>
<g id="a_node3"><a xlink:href="../../da/d74/class_grid.html#a43e84876ecfc5265a5e37a39e64e794e" target="_top" xlink:title="Grid.findNeighbors">
<polygon fill="white" stroke="black" points="280.5,-95.5 280.5,-114.5 385.5,-114.5 385.5,-95.5 280.5,-95.5"/>
<text text-anchor="middle" x="333" y="-102.5" font-family="Helvetica,sans-Serif" font-size="10.00">Grid.findNeighbors</text>
</a>
</g>
</g>
<!-- Node2&#45;&gt;Node3 -->
<g id="edge2" class="edge"><title>Node2&#45;&gt;Node3</title>
<path fill="none" stroke="midnightblue" d="M254.426,-105C263.091,-105 271.927,-105 280.384,-105"/>
<polygon fill="midnightblue" stroke="midnightblue" points="254.364,-101.5 244.364,-105 254.364,-108.5 254.364,-101.5"/>
</g>
<!-- Node4 -->
<g id="node4" class="node"><title>Node4</title>
<g id="a_node4"><a xlink:href="../../d9/df1/class_fire.html#a65c7d316a113807e7bdf626a789e2bf5" target="_top" xlink:title="Fire.checkNextToFire">
<polygon fill="white" stroke="black" points="445.5,-190.5 445.5,-209.5 558.5,-209.5 558.5,-190.5 445.5,-190.5"/>
<text text-anchor="middle" x="502" y="-197.5" font-family="Helvetica,sans-Serif" font-size="10.00">Fire.checkNextToFire</text>
</a>
</g>
</g>
<!-- Node3&#45;&gt;Node4 -->
<g id="edge3" class="edge"><title>Node3&#45;&gt;Node4</title>
<path fill="none" stroke="midnightblue" d="M349.245,-122.317C365.543,-139.742 392.984,-166.108 422,-181 429.53,-184.865 437.87,-187.962 446.226,-190.438"/>
<polygon fill="midnightblue" stroke="midnightblue" points="351.506,-119.601 342.182,-114.57 346.333,-124.318 351.506,-119.601"/>
</g>
<!-- Node7 -->
<g id="node7" class="node"><title>Node7</title>
<g id="a_node7"><a xlink:href="../../da/d1e/class_segregation.html#ae7696748513b436c2578ff68b02d889d" target="_top" xlink:title="Segregation.getSamePercent">
<polygon fill="white" stroke="black" points="422.5,-152.5 422.5,-171.5 581.5,-171.5 581.5,-152.5 422.5,-152.5"/>
<text text-anchor="middle" x="502" y="-159.5" font-family="Helvetica,sans-Serif" font-size="10.00">Segregation.getSamePercent</text>
</a>
</g>
</g>
<!-- Node3&#45;&gt;Node7 -->
<g id="edge6" class="edge"><title>Node3&#45;&gt;Node7</title>
<path fill="none" stroke="midnightblue" d="M362.885,-118.965C379.828,-126.778 401.809,-136.268 422,-143 432.706,-146.569 444.435,-149.764 455.503,-152.468"/>
<polygon fill="midnightblue" stroke="midnightblue" points="364.084,-115.662 353.543,-114.593 361.117,-122.002 364.084,-115.662"/>
</g>
<!-- Node10 -->
<g id="node10" class="node"><title>Node10</title>
<g id="a_node10"><a xlink:href="../../d0/db0/class_wator.html#a0afccb8f97e33c1d21e51ee1a3f4922b" target="_top" xlink:title="Wator.ruleOne">
<polygon fill="white" stroke="black" points="460.5,-114.5 460.5,-133.5 543.5,-133.5 543.5,-114.5 460.5,-114.5"/>
<text text-anchor="middle" x="502" y="-121.5" font-family="Helvetica,sans-Serif" font-size="10.00">Wator.ruleOne</text>
</a>
</g>
</g>
<!-- Node3&#45;&gt;Node10 -->
<g id="edge9" class="edge"><title>Node3&#45;&gt;Node10</title>
<path fill="none" stroke="midnightblue" d="M395.945,-112.048C417.412,-114.49 440.919,-117.164 460.244,-119.363"/>
<polygon fill="midnightblue" stroke="midnightblue" points="396.256,-108.561 385.924,-110.908 395.465,-115.516 396.256,-108.561"/>
</g>
<!-- Node12 -->
<g id="node12" class="node"><title>Node12</title>
<g id="a_node12"><a xlink:href="../../d8/d84/class_game_of_life.html#aca7cd11a349cf14c940011021f91127f" target="_top" xlink:title="GameOfLife.ruleOne">
<polygon fill="white" stroke="black" points="445.5,-38.5 445.5,-57.5 558.5,-57.5 558.5,-38.5 445.5,-38.5"/>
<text text-anchor="middle" x="502" y="-45.5" font-family="Helvetica,sans-Serif" font-size="10.00">GameOfLife.ruleOne</text>
</a>
</g>
</g>
<!-- Node3&#45;&gt;Node12 -->
<g id="edge11" class="edge"><title>Node3&#45;&gt;Node12</title>
<path fill="none" stroke="midnightblue" d="M362.885,-91.0345C379.828,-83.2224 401.809,-73.7321 422,-67 432.706,-63.4305 444.435,-60.2365 455.503,-57.5318"/>
<polygon fill="midnightblue" stroke="midnightblue" points="361.117,-87.9977 353.543,-95.4067 364.084,-94.3377 361.117,-87.9977"/>
</g>
<!-- Node14 -->
<g id="node14" class="node"><title>Node14</title>
<g id="a_node14"><a xlink:href="../../d8/d84/class_game_of_life.html#a6b6c946c47342fd7e4595710d72a9217" target="_top" xlink:title="GameOfLife.ruleTwo">
<polygon fill="white" stroke="black" points="447,-0.5 447,-19.5 557,-19.5 557,-0.5 447,-0.5"/>
<text text-anchor="middle" x="502" y="-7.5" font-family="Helvetica,sans-Serif" font-size="10.00">GameOfLife.ruleTwo</text>
</a>
</g>
</g>
<!-- Node3&#45;&gt;Node14 -->
<g id="edge13" class="edge"><title>Node3&#45;&gt;Node14</title>
<path fill="none" stroke="midnightblue" d="M349.245,-87.6831C365.543,-70.2576 392.984,-43.8922 422,-29 429.655,-25.0708 438.148,-21.9354 446.644,-19.4385"/>
<polygon fill="midnightblue" stroke="midnightblue" points="346.333,-85.6822 342.182,-95.4299 351.506,-90.3986 346.333,-85.6822"/>
</g>
<!-- Node15 -->
<g id="node15" class="node"><title>Node15</title>
<g id="a_node15"><a xlink:href="../../d0/db0/class_wator.html#aa8dba59120d9d6d7d7521f3a4ee7b454" target="_top" xlink:title="Wator.ruleTwo">
<polygon fill="white" stroke="black" points="462,-76.5 462,-95.5 542,-95.5 542,-76.5 462,-76.5"/>
<text text-anchor="middle" x="502" y="-83.5" font-family="Helvetica,sans-Serif" font-size="10.00">Wator.ruleTwo</text>
</a>
</g>
</g>
<!-- Node3&#45;&gt;Node15 -->
<g id="edge15" class="edge"><title>Node3&#45;&gt;Node15</title>
<path fill="none" stroke="midnightblue" d="M395.892,-97.9584C417.97,-95.4466 442.212,-92.6885 461.846,-90.4547"/>
<polygon fill="midnightblue" stroke="midnightblue" points="395.465,-94.4843 385.924,-99.0924 396.256,-101.439 395.465,-94.4843"/>
</g>
<!-- Node5 -->
<g id="node5" class="node"><title>Node5</title>
<g id="a_node5"><a xlink:href="../../d9/df1/class_fire.html#accc21ae2162fd526d8ca66c472a62a28" target="_top" xlink:title="Fire.ruleTwo">
<polygon fill="white" stroke="black" points="646.5,-190.5 646.5,-209.5 717.5,-209.5 717.5,-190.5 646.5,-190.5"/>
<text text-anchor="middle" x="682" y="-197.5" font-family="Helvetica,sans-Serif" font-size="10.00">Fire.ruleTwo</text>
</a>
</g>
</g>
<!-- Node4&#45;&gt;Node5 -->
<g id="edge4" class="edge"><title>Node4&#45;&gt;Node5</title>
<path fill="none" stroke="midnightblue" d="M569.101,-200C595.325,-200 624.394,-200 646.331,-200"/>
<polygon fill="midnightblue" stroke="midnightblue" points="568.832,-196.5 558.832,-200 568.832,-203.5 568.832,-196.5"/>
</g>
<!-- Node6 -->
<g id="node6" class="node"><title>Node6</title>
<g id="a_node6"><a xlink:href="../../d9/df1/class_fire.html#a28764fd7310f7be3a246f5eaefd8887c" target="_top" xlink:title="Fire.checkRules">
<polygon fill="white" stroke="black" points="803.5,-190.5 803.5,-209.5 892.5,-209.5 892.5,-190.5 803.5,-190.5"/>
<text text-anchor="middle" x="848" y="-197.5" font-family="Helvetica,sans-Serif" font-size="10.00">Fire.checkRules</text>
</a>
</g>
</g>
<!-- Node5&#45;&gt;Node6 -->
<g id="edge5" class="edge"><title>Node5&#45;&gt;Node6</title>
<path fill="none" stroke="midnightblue" d="M727.861,-200C751.413,-200 780.147,-200 803.495,-200"/>
<polygon fill="midnightblue" stroke="midnightblue" points="727.78,-196.5 717.78,-200 727.78,-203.5 727.78,-196.5"/>
</g>
<!-- Node8 -->
<g id="node8" class="node"><title>Node8</title>
<g id="a_node8"><a xlink:href="../../da/d1e/class_segregation.html#a65706fcdb683f11f27836d3f4c591f3c" target="_top" xlink:title="Segregation.ruleOne">
<polygon fill="white" stroke="black" points="624,-152.5 624,-171.5 740,-171.5 740,-152.5 624,-152.5"/>
<text text-anchor="middle" x="682" y="-159.5" font-family="Helvetica,sans-Serif" font-size="10.00">Segregation.ruleOne</text>
</a>
</g>
</g>
<!-- Node7&#45;&gt;Node8 -->
<g id="edge7" class="edge"><title>Node7&#45;&gt;Node8</title>
<path fill="none" stroke="midnightblue" d="M591.651,-162C602.627,-162 613.611,-162 623.934,-162"/>
<polygon fill="midnightblue" stroke="midnightblue" points="591.592,-158.5 581.592,-162 591.591,-165.5 591.592,-158.5"/>
</g>
<!-- Node9 -->
<g id="node9" class="node"><title>Node9</title>
<g id="a_node9"><a xlink:href="../../da/d1e/class_segregation.html#a8272e13082766c6c6d45fc1e58acd6dc" target="_top" xlink:title="Segregation.checkRules">
<polygon fill="white" stroke="black" points="782.5,-152.5 782.5,-171.5 913.5,-171.5 913.5,-152.5 782.5,-152.5"/>
<text text-anchor="middle" x="848" y="-159.5" font-family="Helvetica,sans-Serif" font-size="10.00">Segregation.checkRules</text>
</a>
</g>
</g>
<!-- Node8&#45;&gt;Node9 -->
<g id="edge8" class="edge"><title>Node8&#45;&gt;Node9</title>
<path fill="none" stroke="midnightblue" d="M750.376,-162C760.955,-162 771.87,-162 782.385,-162"/>
<polygon fill="midnightblue" stroke="midnightblue" points="750.359,-158.5 740.359,-162 750.359,-165.5 750.359,-158.5"/>
</g>
<!-- Node11 -->
<g id="node11" class="node"><title>Node11</title>
<g id="a_node11"><a xlink:href="../../d0/db0/class_wator.html#a422810cdcb035633301b3469cbee5e34" target="_top" xlink:title="Wator.checkRules">
<polygon fill="white" stroke="black" points="633,-85.5 633,-104.5 731,-104.5 731,-85.5 633,-85.5"/>
<text text-anchor="middle" x="682" y="-92.5" font-family="Helvetica,sans-Serif" font-size="10.00">Wator.checkRules</text>
</a>
</g>
</g>
<!-- Node10&#45;&gt;Node11 -->
<g id="edge10" class="edge"><title>Node10&#45;&gt;Node11</title>
<path fill="none" stroke="midnightblue" d="M553.789,-115.725C578.603,-111.683 608.31,-106.843 632.774,-102.857"/>
<polygon fill="midnightblue" stroke="midnightblue" points="553.144,-112.284 543.837,-117.347 554.269,-119.193 553.144,-112.284"/>
</g>
<!-- Node13 -->
<g id="node13" class="node"><title>Node13</title>
<g id="a_node13"><a xlink:href="../../d8/d84/class_game_of_life.html#a0100556ddb7f59c44404450b7c386190" target="_top" xlink:title="GameOfLife.checkRules">
<polygon fill="white" stroke="black" points="618,-28.5 618,-47.5 746,-47.5 746,-28.5 618,-28.5"/>
<text text-anchor="middle" x="682" y="-35.5" font-family="Helvetica,sans-Serif" font-size="10.00">GameOfLife.checkRules</text>
</a>
</g>
</g>
<!-- Node12&#45;&gt;Node13 -->
<g id="edge12" class="edge"><title>Node12&#45;&gt;Node13</title>
<path fill="none" stroke="midnightblue" d="M569.143,-44.2841C585.101,-43.3876 602.11,-42.432 617.923,-41.5437"/>
<polygon fill="midnightblue" stroke="midnightblue" points="568.62,-40.8079 558.832,-44.8634 569.013,-47.7969 568.62,-40.8079"/>
</g>
<!-- Node14&#45;&gt;Node13 -->
<g id="edge14" class="edge"><title>Node14&#45;&gt;Node13</title>
<path fill="none" stroke="midnightblue" d="M567.385,-20.128C584.692,-22.8505 603.347,-25.785 620.438,-28.4735"/>
<polygon fill="midnightblue" stroke="midnightblue" points="567.795,-16.6496 557.373,-18.5531 566.708,-23.5646 567.795,-16.6496"/>
</g>
<!-- Node15&#45;&gt;Node11 -->
<g id="edge16" class="edge"><title>Node15&#45;&gt;Node11</title>
<path fill="none" stroke="midnightblue" d="M552.128,-88.484C577.287,-89.7561 607.803,-91.299 632.824,-92.5641"/>
<polygon fill="midnightblue" stroke="midnightblue" points="552.227,-84.9846 542.063,-87.9751 551.873,-91.9757 552.227,-84.9846"/>
</g>
</g>
</svg>
