<?xml version="1.0" encoding="UTF-8" standalone="no"?>
<!DOCTYPE svg PUBLIC "-//W3C//DTD SVG 1.1//EN"
 "http://www.w3.org/Graphics/SVG/1.1/DTD/svg11.dtd">
<!-- Generated by graphviz version 2.36.0 (20140111.2315)
 -->
<!-- Title: Grid.findNeighbors Pages: 1 -->
<svg width="394pt" height="142pt"
 viewBox="0.00 0.00 394.00 142.00" xmlns="http://www.w3.org/2000/svg" xmlns:xlink="http://www.w3.org/1999/xlink">
<g id="graph0" class="graph" transform="scale(1 1) rotate(0) translate(4 138)">
<title>Grid.findNeighbors</title>
<polygon fill="white" stroke="none" points="-4,4 -4,-138 390,-138 390,4 -4,4"/>
<!-- Node1 -->
<g id="node1" class="node"><title>Node1</title>
<polygon fill="#bfbfbf" stroke="black" points="0.5,-57.5 0.5,-76.5 105.5,-76.5 105.5,-57.5 0.5,-57.5"/>
<text text-anchor="middle" x="53" y="-64.5" font-family="Helvetica,sans-Serif" font-size="10.00">Grid.findNeighbors</text>
</g>
<!-- Node2 -->
<g id="node2" class="node"><title>Node2</title>
<g id="a_node2"><a xlink:href="../../da/d74/class_grid.html#a33b84a1d6b40a447bdd4a33fa3daf555" target="_top" xlink:title="Grid.getNeighbors">
<polygon fill="white" stroke="black" points="142,-57.5 142,-76.5 246,-76.5 246,-57.5 142,-57.5"/>
<text text-anchor="middle" x="194" y="-64.5" font-family="Helvetica,sans-Serif" font-size="10.00">Grid.getNeighbors</text>
</a>
</g>
</g>
<!-- Node1&#45;&gt;Node2 -->
<g id="edge1" class="edge"><title>Node1&#45;&gt;Node2</title>
<path fill="none" stroke="midnightblue" d="M105.758,-67C114.191,-67 122.997,-67 131.633,-67"/>
<polygon fill="midnightblue" stroke="midnightblue" points="131.661,-70.5001 141.661,-67 131.661,-63.5001 131.661,-70.5001"/>
</g>
<!-- Node3 -->
<g id="node3" class="node"><title>Node3</title>
<g id="a_node3"><a xlink:href="../../dd/d11/class_cell.html#a4725094202cf38c727f2adcc3cf8b96f" target="_top" xlink:title="Cell.getPosX">
<polygon fill="white" stroke="black" points="296,-114.5 296,-133.5 372,-133.5 372,-114.5 296,-114.5"/>
<text text-anchor="middle" x="334" y="-121.5" font-family="Helvetica,sans-Serif" font-size="10.00">Cell.getPosX</text>
</a>
</g>
</g>
<!-- Node2&#45;&gt;Node3 -->
<g id="edge2" class="edge"><title>Node2&#45;&gt;Node3</title>
<path fill="none" stroke="midnightblue" d="M215.958,-76.5418C233.495,-84.4321 259.232,-95.7948 282,-105 286.804,-106.942 291.891,-108.925 296.918,-110.84"/>
<polygon fill="midnightblue" stroke="midnightblue" points="295.831,-114.171 306.423,-114.415 298.295,-107.619 295.831,-114.171"/>
</g>
<!-- Node4 -->
<g id="node4" class="node"><title>Node4</title>
<g id="a_node4"><a xlink:href="../../dd/d11/class_cell.html#ac445ab365d1ec19483e98841be73d11e" target="_top" xlink:title="Cell.getPosY">
<polygon fill="white" stroke="black" points="296.5,-76.5 296.5,-95.5 371.5,-95.5 371.5,-76.5 296.5,-76.5"/>
<text text-anchor="middle" x="334" y="-83.5" font-family="Helvetica,sans-Serif" font-size="10.00">Cell.getPosY</text>
</a>
</g>
</g>
<!-- Node2&#45;&gt;Node4 -->
<g id="edge3" class="edge"><title>Node2&#45;&gt;Node4</title>
<path fill="none" stroke="midnightblue" d="M246.386,-74.0749C259.447,-75.8731 273.41,-77.7956 286.228,-79.5603"/>
<polygon fill="midnightblue" stroke="midnightblue" points="285.838,-83.0397 296.222,-80.9364 286.793,-76.1051 285.838,-83.0397"/>
</g>
<!-- Node5 -->
<g id="node5" class="node"><title>Node5</title>
<g id="a_node5"><a xlink:href="../../da/d74/class_grid.html#a669941947881f795a6ab4a70adf05172" target="_top" xlink:title="Grid.getTorusPoint">
<polygon fill="white" stroke="black" points="282,-38.5 282,-57.5 386,-57.5 386,-38.5 282,-38.5"/>
<text text-anchor="middle" x="334" y="-45.5" font-family="Helvetica,sans-Serif" font-size="10.00">Grid.getTorusPoint</text>
</a>
</g>
</g>
<!-- Node2&#45;&gt;Node5 -->
<g id="edge4" class="edge"><title>Node2&#45;&gt;Node5</title>
<path fill="none" stroke="midnightblue" d="M246.386,-59.9251C254.558,-58.8 263.083,-57.6262 271.46,-56.4729"/>
<polygon fill="midnightblue" stroke="midnightblue" points="272.142,-59.9121 281.571,-55.0808 271.187,-52.9775 272.142,-59.9121"/>
</g>
<!-- Node6 -->
<g id="node6" class="node"><title>Node6</title>
<g id="a_node6"><a xlink:href="../../da/d74/class_grid.html#ab87098d7bfaf1eaf367e4342a5bce0ae" target="_top" xlink:title="Grid.checkBounds">
<polygon fill="white" stroke="black" points="282.5,-0.5 282.5,-19.5 385.5,-19.5 385.5,-0.5 282.5,-0.5"/>
<text text-anchor="middle" x="334" y="-7.5" font-family="Helvetica,sans-Serif" font-size="10.00">Grid.checkBounds</text>
</a>
</g>
</g>
<!-- Node2&#45;&gt;Node6 -->
<g id="edge5" class="edge"><title>Node2&#45;&gt;Node6</title>
<path fill="none" stroke="midnightblue" d="M215.958,-57.4582C233.495,-49.5679 259.232,-38.2052 282,-29 286.804,-27.0576 291.891,-25.0755 296.918,-23.1597"/>
<polygon fill="midnightblue" stroke="midnightblue" points="298.295,-26.3813 306.423,-19.5855 295.831,-19.8293 298.295,-26.3813"/>
</g>
</g>
</svg>
