<?xml version="1.0" encoding="UTF-8" standalone="no"?>
<!DOCTYPE svg PUBLIC "-//W3C//DTD SVG 1.1//EN"
 "http://www.w3.org/Graphics/SVG/1.1/DTD/svg11.dtd">
<!-- Generated by graphviz version 2.36.0 (20140111.2315)
 -->
<!-- Title: Grid.findNeighbors Pages: 1 -->
<svg width="642pt" height="218pt"
 viewBox="0.00 0.00 642.00 218.00" xmlns="http://www.w3.org/2000/svg" xmlns:xlink="http://www.w3.org/1999/xlink">
<g id="graph0" class="graph" transform="scale(1 1) rotate(0) translate(4 214)">
<title>Grid.findNeighbors</title>
<polygon fill="white" stroke="none" points="-4,4 -4,-214 638,-214 638,4 -4,4"/>
<!-- Node1 -->
<g id="node1" class="node"><title>Node1</title>
<polygon fill="#bfbfbf" stroke="black" points="0.5,-95.5 0.5,-114.5 105.5,-114.5 105.5,-95.5 0.5,-95.5"/>
<text text-anchor="middle" x="53" y="-102.5" font-family="Helvetica,sans-Serif" font-size="10.00">Grid.findNeighbors</text>
</g>
<!-- Node2 -->
<g id="node2" class="node"><title>Node2</title>
<g id="a_node2"><a xlink:href="../../d9/df1/class_fire.html#a65c7d316a113807e7bdf626a789e2bf5" target="_top" xlink:title="Fire.checkNextToFire">
<polygon fill="white" stroke="black" points="165.5,-190.5 165.5,-209.5 278.5,-209.5 278.5,-190.5 165.5,-190.5"/>
<text text-anchor="middle" x="222" y="-197.5" font-family="Helvetica,sans-Serif" font-size="10.00">Fire.checkNextToFire</text>
</a>
</g>
</g>
<!-- Node1&#45;&gt;Node2 -->
<g id="edge1" class="edge"><title>Node1&#45;&gt;Node2</title>
<path fill="none" stroke="midnightblue" d="M69.2452,-122.317C85.5428,-139.742 112.984,-166.108 142,-181 149.53,-184.865 157.87,-187.962 166.226,-190.438"/>
<polygon fill="midnightblue" stroke="midnightblue" points="71.5057,-119.601 62.1817,-114.57 66.3331,-124.318 71.5057,-119.601"/>
</g>
<!-- Node5 -->
<g id="node5" class="node"><title>Node5</title>
<g id="a_node5"><a xlink:href="../../da/d1e/class_segregation.html#ae7696748513b436c2578ff68b02d889d" target="_top" xlink:title="Segregation.getSamePercent">
<polygon fill="white" stroke="black" points="142.5,-152.5 142.5,-171.5 301.5,-171.5 301.5,-152.5 142.5,-152.5"/>
<text text-anchor="middle" x="222" y="-159.5" font-family="Helvetica,sans-Serif" font-size="10.00">Segregation.getSamePercent</text>
</a>
</g>
</g>
<!-- Node1&#45;&gt;Node5 -->
<g id="edge4" class="edge"><title>Node1&#45;&gt;Node5</title>
<path fill="none" stroke="midnightblue" d="M82.8849,-118.965C99.8276,-126.778 121.809,-136.268 142,-143 152.706,-146.569 164.435,-149.764 175.503,-152.468"/>
<polygon fill="midnightblue" stroke="midnightblue" points="84.0839,-115.662 73.5431,-114.593 81.1166,-122.002 84.0839,-115.662"/>
</g>
<!-- Node8 -->
<g id="node8" class="node"><title>Node8</title>
<g id="a_node8"><a xlink:href="../../d0/db0/class_wator.html#a0afccb8f97e33c1d21e51ee1a3f4922b" target="_top" xlink:title="Wator.ruleOne">
<polygon fill="white" stroke="black" points="180.5,-114.5 180.5,-133.5 263.5,-133.5 263.5,-114.5 180.5,-114.5"/>
<text text-anchor="middle" x="222" y="-121.5" font-family="Helvetica,sans-Serif" font-size="10.00">Wator.ruleOne</text>
</a>
</g>
</g>
<!-- Node1&#45;&gt;Node8 -->
<g id="edge7" class="edge"><title>Node1&#45;&gt;Node8</title>
<path fill="none" stroke="midnightblue" d="M115.945,-112.048C137.412,-114.49 160.919,-117.164 180.244,-119.363"/>
<polygon fill="midnightblue" stroke="midnightblue" points="116.256,-108.561 105.924,-110.908 115.465,-115.516 116.256,-108.561"/>
</g>
<!-- Node10 -->
<g id="node10" class="node"><title>Node10</title>
<g id="a_node10"><a xlink:href="../../d8/d84/class_game_of_life.html#aca7cd11a349cf14c940011021f91127f" target="_top" xlink:title="GameOfLife.ruleOne">
<polygon fill="white" stroke="black" points="165.5,-38.5 165.5,-57.5 278.5,-57.5 278.5,-38.5 165.5,-38.5"/>
<text text-anchor="middle" x="222" y="-45.5" font-family="Helvetica,sans-Serif" font-size="10.00">GameOfLife.ruleOne</text>
</a>
</g>
</g>
<!-- Node1&#45;&gt;Node10 -->
<g id="edge9" class="edge"><title>Node1&#45;&gt;Node10</title>
<path fill="none" stroke="midnightblue" d="M82.8849,-91.0345C99.8276,-83.2224 121.809,-73.7321 142,-67 152.706,-63.4305 164.435,-60.2365 175.503,-57.5318"/>
<polygon fill="midnightblue" stroke="midnightblue" points="81.1166,-87.9977 73.5431,-95.4067 84.0839,-94.3377 81.1166,-87.9977"/>
</g>
<!-- Node12 -->
<g id="node12" class="node"><title>Node12</title>
<g id="a_node12"><a xlink:href="../../d8/d84/class_game_of_life.html#a6b6c946c47342fd7e4595710d72a9217" target="_top" xlink:title="GameOfLife.ruleTwo">
<polygon fill="white" stroke="black" points="167,-0.5 167,-19.5 277,-19.5 277,-0.5 167,-0.5"/>
<text text-anchor="middle" x="222" y="-7.5" font-family="Helvetica,sans-Serif" font-size="10.00">GameOfLife.ruleTwo</text>
</a>
</g>
</g>
<!-- Node1&#45;&gt;Node12 -->
<g id="edge11" class="edge"><title>Node1&#45;&gt;Node12</title>
<path fill="none" stroke="midnightblue" d="M69.2452,-87.6831C85.5428,-70.2576 112.984,-43.8922 142,-29 149.655,-25.0708 158.148,-21.9354 166.644,-19.4385"/>
<polygon fill="midnightblue" stroke="midnightblue" points="66.3331,-85.6822 62.1817,-95.4299 71.5057,-90.3986 66.3331,-85.6822"/>
</g>
<!-- Node13 -->
<g id="node13" class="node"><title>Node13</title>
<g id="a_node13"><a xlink:href="../../d0/db0/class_wator.html#aa8dba59120d9d6d7d7521f3a4ee7b454" target="_top" xlink:title="Wator.ruleTwo">
<polygon fill="white" stroke="black" points="182,-76.5 182,-95.5 262,-95.5 262,-76.5 182,-76.5"/>
<text text-anchor="middle" x="222" y="-83.5" font-family="Helvetica,sans-Serif" font-size="10.00">Wator.ruleTwo</text>
</a>
</g>
</g>
<!-- Node1&#45;&gt;Node13 -->
<g id="edge13" class="edge"><title>Node1&#45;&gt;Node13</title>
<path fill="none" stroke="midnightblue" d="M115.892,-97.9584C137.97,-95.4466 162.212,-92.6885 181.846,-90.4547"/>
<polygon fill="midnightblue" stroke="midnightblue" points="115.465,-94.4843 105.924,-99.0924 116.256,-101.439 115.465,-94.4843"/>
</g>
<!-- Node3 -->
<g id="node3" class="node"><title>Node3</title>
<g id="a_node3"><a xlink:href="../../d9/df1/class_fire.html#accc21ae2162fd526d8ca66c472a62a28" target="_top" xlink:title="Fire.ruleTwo">
<polygon fill="white" stroke="black" points="366.5,-190.5 366.5,-209.5 437.5,-209.5 437.5,-190.5 366.5,-190.5"/>
<text text-anchor="middle" x="402" y="-197.5" font-family="Helvetica,sans-Serif" font-size="10.00">Fire.ruleTwo</text>
</a>
</g>
</g>
<!-- Node2&#45;&gt;Node3 -->
<g id="edge2" class="edge"><title>Node2&#45;&gt;Node3</title>
<path fill="none" stroke="midnightblue" d="M289.101,-200C315.325,-200 344.394,-200 366.331,-200"/>
<polygon fill="midnightblue" stroke="midnightblue" points="288.832,-196.5 278.832,-200 288.832,-203.5 288.832,-196.5"/>
</g>
<!-- Node4 -->
<g id="node4" class="node"><title>Node4</title>
<g id="a_node4"><a xlink:href="../../d9/df1/class_fire.html#a28764fd7310f7be3a246f5eaefd8887c" target="_top" xlink:title="Fire.checkRules">
<polygon fill="white" stroke="black" points="523.5,-190.5 523.5,-209.5 612.5,-209.5 612.5,-190.5 523.5,-190.5"/>
<text text-anchor="middle" x="568" y="-197.5" font-family="Helvetica,sans-Serif" font-size="10.00">Fire.checkRules</text>
</a>
</g>
</g>
<!-- Node3&#45;&gt;Node4 -->
<g id="edge3" class="edge"><title>Node3&#45;&gt;Node4</title>
<path fill="none" stroke="midnightblue" d="M447.861,-200C471.413,-200 500.147,-200 523.495,-200"/>
<polygon fill="midnightblue" stroke="midnightblue" points="447.78,-196.5 437.78,-200 447.78,-203.5 447.78,-196.5"/>
</g>
<!-- Node6 -->
<g id="node6" class="node"><title>Node6</title>
<g id="a_node6"><a xlink:href="../../da/d1e/class_segregation.html#a65706fcdb683f11f27836d3f4c591f3c" target="_top" xlink:title="Segregation.ruleOne">
<polygon fill="white" stroke="black" points="344,-152.5 344,-171.5 460,-171.5 460,-152.5 344,-152.5"/>
<text text-anchor="middle" x="402" y="-159.5" font-family="Helvetica,sans-Serif" font-size="10.00">Segregation.ruleOne</text>
</a>
</g>
</g>
<!-- Node5&#45;&gt;Node6 -->
<g id="edge5" class="edge"><title>Node5&#45;&gt;Node6</title>
<path fill="none" stroke="midnightblue" d="M311.651,-162C322.627,-162 333.611,-162 343.934,-162"/>
<polygon fill="midnightblue" stroke="midnightblue" points="311.592,-158.5 301.592,-162 311.591,-165.5 311.592,-158.5"/>
</g>
<!-- Node7 -->
<g id="node7" class="node"><title>Node7</title>
<g id="a_node7"><a xlink:href="../../da/d1e/class_segregation.html#a8272e13082766c6c6d45fc1e58acd6dc" target="_top" xlink:title="Segregation.checkRules">
<polygon fill="white" stroke="black" points="502.5,-152.5 502.5,-171.5 633.5,-171.5 633.5,-152.5 502.5,-152.5"/>
<text text-anchor="middle" x="568" y="-159.5" font-family="Helvetica,sans-Serif" font-size="10.00">Segregation.checkRules</text>
</a>
</g>
</g>
<!-- Node6&#45;&gt;Node7 -->
<g id="edge6" class="edge"><title>Node6&#45;&gt;Node7</title>
<path fill="none" stroke="midnightblue" d="M470.376,-162C480.955,-162 491.87,-162 502.385,-162"/>
<polygon fill="midnightblue" stroke="midnightblue" points="470.359,-158.5 460.359,-162 470.359,-165.5 470.359,-158.5"/>
</g>
<!-- Node9 -->
<g id="node9" class="node"><title>Node9</title>
<g id="a_node9"><a xlink:href="../../d0/db0/class_wator.html#a422810cdcb035633301b3469cbee5e34" target="_top" xlink:title="Wator.checkRules">
<polygon fill="white" stroke="black" points="353,-85.5 353,-104.5 451,-104.5 451,-85.5 353,-85.5"/>
<text text-anchor="middle" x="402" y="-92.5" font-family="Helvetica,sans-Serif" font-size="10.00">Wator.checkRules</text>
</a>
</g>
</g>
<!-- Node8&#45;&gt;Node9 -->
<g id="edge8" class="edge"><title>Node8&#45;&gt;Node9</title>
<path fill="none" stroke="midnightblue" d="M273.789,-115.725C298.603,-111.683 328.31,-106.843 352.774,-102.857"/>
<polygon fill="midnightblue" stroke="midnightblue" points="273.144,-112.284 263.837,-117.347 274.269,-119.193 273.144,-112.284"/>
</g>
<!-- Node11 -->
<g id="node11" class="node"><title>Node11</title>
<g id="a_node11"><a xlink:href="../../d8/d84/class_game_of_life.html#a0100556ddb7f59c44404450b7c386190" target="_top" xlink:title="GameOfLife.checkRules">
<polygon fill="white" stroke="black" points="338,-28.5 338,-47.5 466,-47.5 466,-28.5 338,-28.5"/>
<text text-anchor="middle" x="402" y="-35.5" font-family="Helvetica,sans-Serif" font-size="10.00">GameOfLife.checkRules</text>
</a>
</g>
</g>
<!-- Node10&#45;&gt;Node11 -->
<g id="edge10" class="edge"><title>Node10&#45;&gt;Node11</title>
<path fill="none" stroke="midnightblue" d="M289.143,-44.2841C305.101,-43.3876 322.11,-42.432 337.923,-41.5437"/>
<polygon fill="midnightblue" stroke="midnightblue" points="288.62,-40.8079 278.832,-44.8634 289.013,-47.7969 288.62,-40.8079"/>
</g>
<!-- Node12&#45;&gt;Node11 -->
<g id="edge12" class="edge"><title>Node12&#45;&gt;Node11</title>
<path fill="none" stroke="midnightblue" d="M287.385,-20.128C304.692,-22.8505 323.347,-25.785 340.438,-28.4735"/>
<polygon fill="midnightblue" stroke="midnightblue" points="287.795,-16.6496 277.373,-18.5531 286.708,-23.5646 287.795,-16.6496"/>
</g>
<!-- Node13&#45;&gt;Node9 -->
<g id="edge14" class="edge"><title>Node13&#45;&gt;Node9</title>
<path fill="none" stroke="midnightblue" d="M272.128,-88.484C297.287,-89.7561 327.803,-91.299 352.824,-92.5641"/>
<polygon fill="midnightblue" stroke="midnightblue" points="272.227,-84.9846 262.063,-87.9751 271.873,-91.9757 272.227,-84.9846"/>
</g>
</g>
</svg>
