<?xml version="1.0" encoding="UTF-8" standalone="no"?>
<!DOCTYPE svg PUBLIC "-//W3C//DTD SVG 1.1//EN"
 "http://www.w3.org/Graphics/SVG/1.1/DTD/svg11.dtd">
<!-- Generated by graphviz version 2.36.0 (20140111.2315)
 -->
<!-- Title: Grid.checkBounds Pages: 1 -->
<svg width="910pt" height="180pt"
 viewBox="0.00 0.00 910.00 180.00" xmlns="http://www.w3.org/2000/svg" xmlns:xlink="http://www.w3.org/1999/xlink">
<g id="graph0" class="graph" transform="scale(1 1) rotate(0) translate(4 176)">
<title>Grid.checkBounds</title>
<polygon fill="white" stroke="none" points="-4,4 -4,-176 906,-176 906,4 -4,4"/>
<!-- Node1 -->
<g id="node1" class="node"><title>Node1</title>
<polygon fill="#bfbfbf" stroke="black" points="0.5,-76.5 0.5,-95.5 103.5,-95.5 103.5,-76.5 0.5,-76.5"/>
<text text-anchor="middle" x="52" y="-83.5" font-family="Helvetica,sans-Serif" font-size="10.00">Grid.checkBounds</text>
</g>
<!-- Node2 -->
<g id="node2" class="node"><title>Node2</title>
<g id="a_node2"><a xlink:href="../../da/d74/class_grid.html#a33b84a1d6b40a447bdd4a33fa3daf555" target="_top" xlink:title="Grid.getNeighbors">
<polygon fill="white" stroke="black" points="140,-76.5 140,-95.5 244,-95.5 244,-76.5 140,-76.5"/>
<text text-anchor="middle" x="192" y="-83.5" font-family="Helvetica,sans-Serif" font-size="10.00">Grid.getNeighbors</text>
</a>
</g>
</g>
<!-- Node1&#45;&gt;Node2 -->
<g id="edge1" class="edge"><title>Node1&#45;&gt;Node2</title>
<path fill="none" stroke="midnightblue" d="M113.749,-86C122.491,-86 131.413,-86 139.942,-86"/>
<polygon fill="midnightblue" stroke="midnightblue" points="113.603,-82.5001 103.603,-86 113.602,-89.5001 113.603,-82.5001"/>
</g>
<!-- Node3 -->
<g id="node3" class="node"><title>Node3</title>
<g id="a_node3"><a xlink:href="../../da/d74/class_grid.html#a43e84876ecfc5265a5e37a39e64e794e" target="_top" xlink:title="Grid.findNeighbors">
<polygon fill="white" stroke="black" points="280.5,-76.5 280.5,-95.5 385.5,-95.5 385.5,-76.5 280.5,-76.5"/>
<text text-anchor="middle" x="333" y="-83.5" font-family="Helvetica,sans-Serif" font-size="10.00">Grid.findNeighbors</text>
</a>
</g>
</g>
<!-- Node2&#45;&gt;Node3 -->
<g id="edge2" class="edge"><title>Node2&#45;&gt;Node3</title>
<path fill="none" stroke="midnightblue" d="M254.426,-86C263.091,-86 271.927,-86 280.384,-86"/>
<polygon fill="midnightblue" stroke="midnightblue" points="254.364,-82.5001 244.364,-86 254.364,-89.5001 254.364,-82.5001"/>
</g>
<!-- Node4 -->
<g id="node4" class="node"><title>Node4</title>
<g id="a_node4"><a xlink:href="../../d9/df1/class_fire.html#a65c7d316a113807e7bdf626a789e2bf5" target="_top" xlink:title="Fire.checkNextToFire">
<polygon fill="white" stroke="black" points="445.5,-152.5 445.5,-171.5 558.5,-171.5 558.5,-152.5 445.5,-152.5"/>
<text text-anchor="middle" x="502" y="-159.5" font-family="Helvetica,sans-Serif" font-size="10.00">Fire.checkNextToFire</text>
</a>
</g>
</g>
<!-- Node3&#45;&gt;Node4 -->
<g id="edge3" class="edge"><title>Node3&#45;&gt;Node4</title>
<path fill="none" stroke="midnightblue" d="M353.905,-101.718C371.052,-114.543 396.93,-132.241 422,-143 430.815,-146.783 440.521,-149.897 450.022,-152.43"/>
<polygon fill="midnightblue" stroke="midnightblue" points="355.857,-98.805 345.785,-95.5186 351.61,-104.369 355.857,-98.805"/>
</g>
<!-- Node6 -->
<g id="node6" class="node"><title>Node6</title>
<g id="a_node6"><a xlink:href="../../d8/d84/class_game_of_life.html#ae3bc4975c6e75164f5661d35cf3c97d0" target="_top" xlink:title="GameOfLife.checkRules">
<polygon fill="white" stroke="black" points="438,-114.5 438,-133.5 566,-133.5 566,-114.5 438,-114.5"/>
<text text-anchor="middle" x="502" y="-121.5" font-family="Helvetica,sans-Serif" font-size="10.00">GameOfLife.checkRules</text>
</a>
</g>
</g>
<!-- Node3&#45;&gt;Node6 -->
<g id="edge5" class="edge"><title>Node3&#45;&gt;Node6</title>
<path fill="none" stroke="midnightblue" d="M385.965,-97.8243C409.509,-103.182 436.974,-109.431 459.162,-114.48"/>
<polygon fill="midnightblue" stroke="midnightblue" points="386.668,-94.3951 376.141,-95.589 385.115,-101.221 386.668,-94.3951"/>
</g>
<!-- Node7 -->
<g id="node7" class="node"><title>Node7</title>
<g id="a_node7"><a xlink:href="../../da/d1e/class_segregation.html#ae7696748513b436c2578ff68b02d889d" target="_top" xlink:title="Segregation.getSamePercent">
<polygon fill="white" stroke="black" points="422.5,-76.5 422.5,-95.5 581.5,-95.5 581.5,-76.5 422.5,-76.5"/>
<text text-anchor="middle" x="502" y="-83.5" font-family="Helvetica,sans-Serif" font-size="10.00">Segregation.getSamePercent</text>
</a>
</g>
</g>
<!-- Node3&#45;&gt;Node7 -->
<g id="edge6" class="edge"><title>Node3&#45;&gt;Node7</title>
<path fill="none" stroke="midnightblue" d="M396.183,-86C404.746,-86 413.628,-86 422.438,-86"/>
<polygon fill="midnightblue" stroke="midnightblue" points="395.924,-82.5001 385.924,-86 395.924,-89.5001 395.924,-82.5001"/>
</g>
<!-- Node10 -->
<g id="node10" class="node"><title>Node10</title>
<g id="a_node10"><a xlink:href="../../d0/db0/class_wator.html#a0afccb8f97e33c1d21e51ee1a3f4922b" target="_top" xlink:title="Wator.ruleOne">
<polygon fill="white" stroke="black" points="460.5,-38.5 460.5,-57.5 543.5,-57.5 543.5,-38.5 460.5,-38.5"/>
<text text-anchor="middle" x="502" y="-45.5" font-family="Helvetica,sans-Serif" font-size="10.00">Wator.ruleOne</text>
</a>
</g>
</g>
<!-- Node3&#45;&gt;Node10 -->
<g id="edge9" class="edge"><title>Node3&#45;&gt;Node10</title>
<path fill="none" stroke="midnightblue" d="M386.118,-74.1408C410.037,-68.6981 437.977,-62.3405 460.314,-57.2579"/>
<polygon fill="midnightblue" stroke="midnightblue" points="385.115,-70.7794 376.141,-76.411 386.668,-77.6049 385.115,-70.7794"/>
</g>
<!-- Node12 -->
<g id="node12" class="node"><title>Node12</title>
<g id="a_node12"><a xlink:href="../../d0/db0/class_wator.html#aa8dba59120d9d6d7d7521f3a4ee7b454" target="_top" xlink:title="Wator.ruleTwo">
<polygon fill="white" stroke="black" points="462,-0.5 462,-19.5 542,-19.5 542,-0.5 462,-0.5"/>
<text text-anchor="middle" x="502" y="-7.5" font-family="Helvetica,sans-Serif" font-size="10.00">Wator.ruleTwo</text>
</a>
</g>
</g>
<!-- Node3&#45;&gt;Node12 -->
<g id="edge11" class="edge"><title>Node3&#45;&gt;Node12</title>
<path fill="none" stroke="midnightblue" d="M353.905,-70.2818C371.052,-57.4574 396.93,-39.7594 422,-29 434.574,-23.6035 448.961,-19.5688 461.983,-16.6385"/>
<polygon fill="midnightblue" stroke="midnightblue" points="351.61,-67.6312 345.785,-76.4814 355.857,-73.195 351.61,-67.6312"/>
</g>
<!-- Node5 -->
<g id="node5" class="node"><title>Node5</title>
<g id="a_node5"><a xlink:href="../../d9/df1/class_fire.html#a9848867ebe2faddb27dfd0994cb565a8" target="_top" xlink:title="Fire.checkRules">
<polygon fill="white" stroke="black" points="631.5,-152.5 631.5,-171.5 720.5,-171.5 720.5,-152.5 631.5,-152.5"/>
<text text-anchor="middle" x="676" y="-159.5" font-family="Helvetica,sans-Serif" font-size="10.00">Fire.checkRules</text>
</a>
</g>
</g>
<!-- Node4&#45;&gt;Node5 -->
<g id="edge4" class="edge"><title>Node4&#45;&gt;Node5</title>
<path fill="none" stroke="midnightblue" d="M568.957,-162C589.879,-162 612.478,-162 631.417,-162"/>
<polygon fill="midnightblue" stroke="midnightblue" points="568.844,-158.5 558.843,-162 568.843,-165.5 568.844,-158.5"/>
</g>
<!-- Node8 -->
<g id="node8" class="node"><title>Node8</title>
<g id="a_node8"><a xlink:href="../../da/d1e/class_segregation.html#a65706fcdb683f11f27836d3f4c591f3c" target="_top" xlink:title="Segregation.ruleOne">
<polygon fill="white" stroke="black" points="618,-76.5 618,-95.5 734,-95.5 734,-76.5 618,-76.5"/>
<text text-anchor="middle" x="676" y="-83.5" font-family="Helvetica,sans-Serif" font-size="10.00">Segregation.ruleOne</text>
</a>
</g>
</g>
<!-- Node7&#45;&gt;Node8 -->
<g id="edge7" class="edge"><title>Node7&#45;&gt;Node8</title>
<path fill="none" stroke="midnightblue" d="M591.739,-86C600.632,-86 609.487,-86 617.922,-86"/>
<polygon fill="midnightblue" stroke="midnightblue" points="591.701,-82.5001 581.701,-86 591.701,-89.5001 591.701,-82.5001"/>
</g>
<!-- Node9 -->
<g id="node9" class="node"><title>Node9</title>
<g id="a_node9"><a xlink:href="../../da/d1e/class_segregation.html#a8272e13082766c6c6d45fc1e58acd6dc" target="_top" xlink:title="Segregation.checkRules">
<polygon fill="white" stroke="black" points="770.5,-76.5 770.5,-95.5 901.5,-95.5 901.5,-76.5 770.5,-76.5"/>
<text text-anchor="middle" x="836" y="-83.5" font-family="Helvetica,sans-Serif" font-size="10.00">Segregation.checkRules</text>
</a>
</g>
</g>
<!-- Node8&#45;&gt;Node9 -->
<g id="edge8" class="edge"><title>Node8&#45;&gt;Node9</title>
<path fill="none" stroke="midnightblue" d="M744.102,-86C752.771,-86 761.636,-86 770.265,-86"/>
<polygon fill="midnightblue" stroke="midnightblue" points="744.042,-82.5001 734.042,-86 744.042,-89.5001 744.042,-82.5001"/>
</g>
<!-- Node11 -->
<g id="node11" class="node"><title>Node11</title>
<g id="a_node11"><a xlink:href="../../d0/db0/class_wator.html#a422810cdcb035633301b3469cbee5e34" target="_top" xlink:title="Wator.checkRules">
<polygon fill="white" stroke="black" points="627,-19.5 627,-38.5 725,-38.5 725,-19.5 627,-19.5"/>
<text text-anchor="middle" x="676" y="-26.5" font-family="Helvetica,sans-Serif" font-size="10.00">Wator.checkRules</text>
</a>
</g>
</g>
<!-- Node10&#45;&gt;Node11 -->
<g id="edge10" class="edge"><title>Node10&#45;&gt;Node11</title>
<path fill="none" stroke="midnightblue" d="M553.73,-42.3961C576.856,-39.8415 604.098,-36.8322 626.897,-34.3137"/>
<polygon fill="midnightblue" stroke="midnightblue" points="553.317,-38.9204 543.762,-43.4973 554.085,-45.878 553.317,-38.9204"/>
</g>
<!-- Node12&#45;&gt;Node11 -->
<g id="edge12" class="edge"><title>Node12&#45;&gt;Node11</title>
<path fill="none" stroke="midnightblue" d="M552.122,-15.4262C575.591,-18.0187 603.58,-21.1106 626.913,-23.6881"/>
<polygon fill="midnightblue" stroke="midnightblue" points="552.353,-11.9306 542.029,-14.3114 551.585,-18.8883 552.353,-11.9306"/>
</g>
</g>
</svg>
