<?xml version="1.0" encoding="UTF-8" standalone="no"?>
<!DOCTYPE svg PUBLIC "-//W3C//DTD SVG 1.1//EN"
 "http://www.w3.org/Graphics/SVG/1.1/DTD/svg11.dtd">
<!-- Generated by graphviz version 2.36.0 (20140111.2315)
 -->
<!-- Title: Wator Pages: 1 -->
<svg width="265pt" height="422pt"
 viewBox="0.00 0.00 265.00 422.00" xmlns="http://www.w3.org/2000/svg" xmlns:xlink="http://www.w3.org/1999/xlink">
<g id="graph0" class="graph" transform="scale(1 1) rotate(0) translate(4 418)">
<title>Wator</title>
<polygon fill="white" stroke="none" points="-4,4 -4,-418 261,-418 261,4 -4,4"/>
<!-- Node1 -->
<g id="node1" class="node"><title>Node1</title>
<polygon fill="#bfbfbf" stroke="black" points="132,-0.5 132,-19.5 176,-19.5 176,-0.5 132,-0.5"/>
<text text-anchor="middle" x="154" y="-7.5" font-family="Helvetica,sans-Serif" font-size="10.00">Wator</text>
</g>
<!-- Node2 -->
<g id="node2" class="node"><title>Node2</title>
<g id="a_node2"><a xlink:href="../../da/de8/class_move_cellular_automata.html" target="_top" xlink:title="MoveCellularAutomata">
<polygon fill="white" stroke="black" points="16.5,-90.5 16.5,-109.5 141.5,-109.5 141.5,-90.5 16.5,-90.5"/>
<text text-anchor="middle" x="79" y="-97.5" font-family="Helvetica,sans-Serif" font-size="10.00">MoveCellularAutomata</text>
</a>
</g>
</g>
<!-- Node2&#45;&gt;Node1 -->
<g id="edge1" class="edge"><title>Node2&#45;&gt;Node1</title>
<path fill="none" stroke="midnightblue" d="M93.0131,-82.558C108.874,-63.9476 134.119,-34.3274 146.565,-19.7241"/>
<polygon fill="midnightblue" stroke="midnightblue" points="90.2882,-80.3593 86.4655,-90.2405 95.6158,-84.8999 90.2882,-80.3593"/>
</g>
<!-- Node3 -->
<g id="node3" class="node"><title>Node3</title>
<g id="a_node3"><a xlink:href="../../d2/d40/class_cellular_automata.html" target="_top" xlink:title="CellularAutomata">
<polygon fill="white" stroke="black" points="29,-180.5 29,-199.5 129,-199.5 129,-180.5 29,-180.5"/>
<text text-anchor="middle" x="79" y="-187.5" font-family="Helvetica,sans-Serif" font-size="10.00">CellularAutomata</text>
</a>
</g>
</g>
<!-- Node3&#45;&gt;Node2 -->
<g id="edge2" class="edge"><title>Node3&#45;&gt;Node2</title>
<path fill="none" stroke="midnightblue" d="M79,-169.978C79,-151.31 79,-123.67 79,-109.724"/>
<polygon fill="midnightblue" stroke="midnightblue" points="75.5001,-170.24 79,-180.241 82.5001,-170.241 75.5001,-170.24"/>
</g>
<!-- Node4 -->
<g id="node4" class="node"><title>Node4</title>
<g id="a_node4"><a xlink:href="../../da/d74/class_grid.html" target="_top" xlink:title="Grid">
<polygon fill="white" stroke="black" points="134,-248.5 134,-267.5 170,-267.5 170,-248.5 134,-248.5"/>
<text text-anchor="middle" x="152" y="-255.5" font-family="Helvetica,sans-Serif" font-size="10.00">Grid</text>
</a>
</g>
</g>
<!-- Node4&#45;&gt;Node3 -->
<g id="edge3" class="edge"><title>Node4&#45;&gt;Node3</title>
<path fill="none" stroke="#9a32cd" stroke-dasharray="5,2" d="M148.468,-238.106C146.384,-231.122 143.111,-223.562 138,-218 130.378,-209.705 119.708,-203.771 109.535,-199.619"/>
<polygon fill="#9a32cd" stroke="#9a32cd" points="145.155,-239.306 150.856,-248.236 151.968,-237.699 145.155,-239.306"/>
<text text-anchor="middle" x="165" y="-221.5" font-family="Helvetica,sans-Serif" font-size="10.00"> myGrid</text>
</g>
<!-- Node5 -->
<g id="node5" class="node"><title>Node5</title>
<polygon fill="white" stroke="#bfbfbf" points="129,-316.5 129,-335.5 175,-335.5 175,-316.5 129,-316.5"/>
<text text-anchor="middle" x="152" y="-323.5" font-family="Helvetica,sans-Serif" font-size="10.00">Group</text>
</g>
<!-- Node5&#45;&gt;Node4 -->
<g id="edge4" class="edge"><title>Node5&#45;&gt;Node4</title>
<path fill="none" stroke="midnightblue" d="M152,-306.041C152,-293.472 152,-277.563 152,-267.841"/>
<polygon fill="midnightblue" stroke="midnightblue" points="148.5,-306.372 152,-316.372 155.5,-306.372 148.5,-306.372"/>
</g>
<!-- Node6 -->
<g id="node6" class="node"><title>Node6</title>
<g id="a_node6"><a xlink:href="../../dd/d11/class_cell.html" target="_top" xlink:title="Cell">
<polygon fill="white" stroke="black" points="53,-316.5 53,-335.5 87,-335.5 87,-316.5 53,-316.5"/>
<text text-anchor="middle" x="70" y="-323.5" font-family="Helvetica,sans-Serif" font-size="10.00">Cell</text>
</a>
</g>
</g>
<!-- Node6&#45;&gt;Node4 -->
<g id="edge5" class="edge"><title>Node6&#45;&gt;Node4</title>
<path fill="none" stroke="#9a32cd" stroke-dasharray="5,2" d="M83.9384,-308.374C90.5189,-301.055 98.7324,-292.632 107,-286 115.67,-279.045 126.297,-272.587 135.046,-267.732"/>
<polygon fill="#9a32cd" stroke="#9a32cd" points="80.9788,-306.444 77.0582,-316.287 86.2611,-311.037 80.9788,-306.444"/>
<text text-anchor="middle" x="127.5" y="-289.5" font-family="Helvetica,sans-Serif" font-size="10.00"> myCells</text>
</g>
<!-- Node7 -->
<g id="node7" class="node"><title>Node7</title>
<polygon fill="white" stroke="#bfbfbf" points="5,-394.5 5,-413.5 45,-413.5 45,-394.5 5,-394.5"/>
<text text-anchor="middle" x="25" y="-401.5" font-family="Helvetica,sans-Serif" font-size="10.00">Paint</text>
</g>
<!-- Node7&#45;&gt;Node2 -->
<g id="edge8" class="edge"><title>Node7&#45;&gt;Node2</title>
<path fill="none" stroke="#9a32cd" stroke-dasharray="5,2" d="M15.6198,-385.266C8.52594,-370.196 0,-347.766 0,-327 0,-327 0,-327 0,-189 0,-151.839 39.4916,-123.235 62.6311,-109.665"/>
<polygon fill="#9a32cd" stroke="#9a32cd" points="12.5854,-387.024 20.1797,-394.411 18.8499,-383.9 12.5854,-387.024"/>
<text text-anchor="middle" x="17" y="-255.5" font-family="Helvetica,sans-Serif" font-size="10.00"> empty</text>
</g>
<!-- Node7&#45;&gt;Node6 -->
<g id="edge6" class="edge"><title>Node7&#45;&gt;Node6</title>
<path fill="none" stroke="#9a32cd" stroke-dasharray="5,2" d="M35.3231,-385.565C44.5699,-369.949 57.7433,-347.7 64.8981,-335.616"/>
<polygon fill="#9a32cd" stroke="#9a32cd" points="32.2454,-383.894 30.1621,-394.282 38.2687,-387.46 32.2454,-383.894"/>
<text text-anchor="middle" x="83" y="-368" font-family="Helvetica,sans-Serif" font-size="10.00"> nextColor</text>
<text text-anchor="middle" x="83" y="-357" font-family="Helvetica,sans-Serif" font-size="10.00">currentColor</text>
</g>
<!-- Node8 -->
<g id="node8" class="node"><title>Node8</title>
<polygon fill="white" stroke="#bfbfbf" points="52,-248.5 52,-267.5 108,-267.5 108,-248.5 52,-248.5"/>
<text text-anchor="middle" x="80" y="-255.5" font-family="Helvetica,sans-Serif" font-size="10.00">Random</text>
</g>
<!-- Node8&#45;&gt;Node3 -->
<g id="edge7" class="edge"><title>Node8&#45;&gt;Node3</title>
<path fill="none" stroke="#9a32cd" stroke-dasharray="5,2" d="M79.7127,-238.041C79.5223,-225.472 79.2813,-209.563 79.134,-199.841"/>
<polygon fill="#9a32cd" stroke="#9a32cd" points="76.2181,-238.426 79.8693,-248.372 83.2173,-238.32 76.2181,-238.426"/>
<text text-anchor="middle" x="109" y="-221.5" font-family="Helvetica,sans-Serif" font-size="10.00"> myRandom</text>
</g>
<!-- Node9 -->
<g id="node9" class="node"><title>Node9</title>
<polygon fill="white" stroke="#bfbfbf" points="147,-180.5 147,-199.5 257,-199.5 257,-180.5 147,-180.5"/>
<text text-anchor="middle" x="202" y="-187.5" font-family="Helvetica,sans-Serif" font-size="10.00">ArrayList&lt; Mover &gt;</text>
</g>
<!-- Node9&#45;&gt;Node2 -->
<g id="edge9" class="edge"><title>Node9&#45;&gt;Node2</title>
<path fill="none" stroke="#9a32cd" stroke-dasharray="5,2" d="M181.432,-174.285C155.638,-155.83 112.249,-124.788 91.1939,-109.724"/>
<polygon fill="#9a32cd" stroke="#9a32cd" points="179.587,-177.268 189.757,-180.241 183.66,-171.575 179.587,-177.268"/>
<text text-anchor="middle" x="197" y="-153.5" font-family="Helvetica,sans-Serif" font-size="10.00"> toBeRemoved</text>
<text text-anchor="middle" x="197" y="-142.5" font-family="Helvetica,sans-Serif" font-size="10.00">toBeAdded</text>
<text text-anchor="middle" x="197" y="-131.5" font-family="Helvetica,sans-Serif" font-size="10.00">allMovers</text>
</g>
<!-- Node10 -->
<g id="node10" class="node"><title>Node10</title>
<polygon fill="white" stroke="#bfbfbf" points="159.5,-90.5 159.5,-109.5 200.5,-109.5 200.5,-90.5 159.5,-90.5"/>
<text text-anchor="middle" x="180" y="-97.5" font-family="Helvetica,sans-Serif" font-size="10.00">Color</text>
</g>
<!-- Node10&#45;&gt;Node1 -->
<g id="edge10" class="edge"><title>Node10&#45;&gt;Node1</title>
<path fill="none" stroke="#9a32cd" stroke-dasharray="5,2" d="M174.535,-80.5044C169.019,-61.8323 160.737,-33.8011 156.578,-19.7241"/>
<polygon fill="#9a32cd" stroke="#9a32cd" points="171.222,-81.6421 177.412,-90.2405 177.935,-79.6586 171.222,-81.6421"/>
<text text-anchor="middle" x="184.5" y="-63.5" font-family="Helvetica,sans-Serif" font-size="10.00"> fish</text>
<text text-anchor="middle" x="184.5" y="-52.5" font-family="Helvetica,sans-Serif" font-size="10.00">water</text>
<text text-anchor="middle" x="184.5" y="-41.5" font-family="Helvetica,sans-Serif" font-size="10.00">shark</text>
</g>
</g>
</svg>
