<?xml version="1.0" encoding="UTF-8" standalone="no"?>
<!DOCTYPE svg PUBLIC "-//W3C//DTD SVG 1.1//EN"
 "http://www.w3.org/Graphics/SVG/1.1/DTD/svg11.dtd">
<!-- Generated by graphviz version 2.36.0 (20140111.2315)
 -->
<!-- Title: Shark Pages: 1 -->
<svg width="122pt" height="290pt"
 viewBox="0.00 0.00 122.00 290.00" xmlns="http://www.w3.org/2000/svg" xmlns:xlink="http://www.w3.org/1999/xlink">
<g id="graph0" class="graph" transform="scale(1 1) rotate(0) translate(4 286)">
<title>Shark</title>
<polygon fill="white" stroke="none" points="-4,4 -4,-286 118,-286 118,4 -4,4"/>
<!-- Node1 -->
<g id="node1" class="node"><title>Node1</title>
<polygon fill="#bfbfbf" stroke="black" points="1,-0.5 1,-19.5 45,-19.5 45,-0.5 1,-0.5"/>
<text text-anchor="middle" x="23" y="-7.5" font-family="Helvetica,sans-Serif" font-size="10.00">Shark</text>
</g>
<!-- Node2 -->
<g id="node2" class="node"><title>Node2</title>
<g id="a_node2"><a xlink:href="../../de/d70/class_fish.html" target="_top" xlink:title="Fish">
<polygon fill="white" stroke="black" points="5.5,-58.5 5.5,-77.5 40.5,-77.5 40.5,-58.5 5.5,-58.5"/>
<text text-anchor="middle" x="23" y="-65.5" font-family="Helvetica,sans-Serif" font-size="10.00">Fish</text>
</a>
</g>
</g>
<!-- Node2&#45;&gt;Node1 -->
<g id="edge1" class="edge"><title>Node2&#45;&gt;Node1</title>
<path fill="none" stroke="midnightblue" d="M23,-47.953C23,-38.2875 23,-27.0312 23,-19.5052"/>
<polygon fill="midnightblue" stroke="midnightblue" points="19.5001,-48.25 23,-58.25 26.5001,-48.25 19.5001,-48.25"/>
</g>
<!-- Node3 -->
<g id="node3" class="node"><title>Node3</title>
<g id="a_node3"><a xlink:href="../../dc/d06/class_mover.html" target="_top" xlink:title="Mover">
<polygon fill="white" stroke="black" points="0,-116.5 0,-135.5 46,-135.5 46,-116.5 0,-116.5"/>
<text text-anchor="middle" x="23" y="-123.5" font-family="Helvetica,sans-Serif" font-size="10.00">Mover</text>
</a>
</g>
</g>
<!-- Node3&#45;&gt;Node2 -->
<g id="edge2" class="edge"><title>Node3&#45;&gt;Node2</title>
<path fill="none" stroke="midnightblue" d="M23,-105.953C23,-96.2875 23,-85.0312 23,-77.5052"/>
<polygon fill="midnightblue" stroke="midnightblue" points="19.5001,-106.25 23,-116.25 26.5001,-106.25 19.5001,-106.25"/>
</g>
<!-- Node4 -->
<g id="node4" class="node"><title>Node4</title>
<g id="a_node4"><a xlink:href="../../dd/d11/class_cell.html" target="_top" xlink:title="Cell">
<polygon fill="white" stroke="black" points="57,-184.5 57,-203.5 91,-203.5 91,-184.5 57,-184.5"/>
<text text-anchor="middle" x="74" y="-191.5" font-family="Helvetica,sans-Serif" font-size="10.00">Cell</text>
</a>
</g>
</g>
<!-- Node4&#45;&gt;Node3 -->
<g id="edge3" class="edge"><title>Node4&#45;&gt;Node3</title>
<path fill="none" stroke="#9a32cd" stroke-dasharray="5,2" d="M61.1033,-176.31C51.1611,-163.444 37.8042,-146.158 29.8318,-135.841"/>
<polygon fill="#9a32cd" stroke="#9a32cd" points="58.4486,-178.599 67.3326,-184.372 63.9876,-174.319 58.4486,-178.599"/>
<text text-anchor="middle" x="71" y="-157.5" font-family="Helvetica,sans-Serif" font-size="10.00"> myCell</text>
</g>
<!-- Node5 -->
<g id="node5" class="node"><title>Node5</title>
<polygon fill="white" stroke="#bfbfbf" points="3,-262.5 3,-281.5 43,-281.5 43,-262.5 3,-262.5"/>
<text text-anchor="middle" x="23" y="-269.5" font-family="Helvetica,sans-Serif" font-size="10.00">Paint</text>
</g>
<!-- Node5&#45;&gt;Node3 -->
<g id="edge5" class="edge"><title>Node5&#45;&gt;Node3</title>
<path fill="none" stroke="#9a32cd" stroke-dasharray="5,2" d="M15.3934,-252.883C8.9501,-235.352 1.3028,-207.986 5,-184 7.71924,-166.359 14.91,-146.692 19.3361,-135.685"/>
<polygon fill="#9a32cd" stroke="#9a32cd" points="12.222,-254.382 19.1374,-262.409 18.7369,-251.822 12.222,-254.382"/>
<text text-anchor="middle" x="26.5" y="-191.5" font-family="Helvetica,sans-Serif" font-size="10.00"> myColor</text>
</g>
<!-- Node5&#45;&gt;Node4 -->
<g id="edge4" class="edge"><title>Node5&#45;&gt;Node4</title>
<path fill="none" stroke="#9a32cd" stroke-dasharray="5,2" d="M34.6996,-253.565C45.1792,-237.949 60.1091,-215.7 68.2179,-203.616"/>
<polygon fill="#9a32cd" stroke="#9a32cd" points="31.5163,-252.028 28.8503,-262.282 37.3289,-255.928 31.5163,-252.028"/>
<text text-anchor="middle" x="84" y="-236" font-family="Helvetica,sans-Serif" font-size="10.00"> nextColor</text>
<text text-anchor="middle" x="84" y="-225" font-family="Helvetica,sans-Serif" font-size="10.00">currentColor</text>
</g>
</g>
</svg>
