<?xml version="1.0" encoding="UTF-8" standalone="no"?>
<!DOCTYPE svg PUBLIC "-//W3C//DTD SVG 1.1//EN"
 "http://www.w3.org/Graphics/SVG/1.1/DTD/svg11.dtd">
<!-- Generated by graphviz version 2.36.0 (20140111.2315)
 -->
<!-- Title: GridDrawer.updateNextGen Pages: 1 -->
<svg width="1480pt" height="120pt"
 viewBox="0.00 0.00 1480.00 120.00" xmlns="http://www.w3.org/2000/svg" xmlns:xlink="http://www.w3.org/1999/xlink">
<g id="graph0" class="graph" transform="scale(1 1) rotate(0) translate(4 116)">
<title>GridDrawer.updateNextGen</title>
<polygon fill="white" stroke="none" points="-4,4 -4,-116 1476,-116 1476,4 -4,4"/>
<!-- Node1 -->
<g id="node1" class="node"><title>Node1</title>
<polygon fill="#bfbfbf" stroke="black" points="0,-62.5 0,-81.5 148,-81.5 148,-62.5 0,-62.5"/>
<text text-anchor="middle" x="74" y="-69.5" font-family="Helvetica,sans-Serif" font-size="10.00">GridDrawer.updateNextGen</text>
</g>
<!-- Node2 -->
<g id="node2" class="node"><title>Node2</title>
<g id="a_node2"><a xlink:href="../../df/df8/class_cell_society_view.html#a767ab215ca329ba41b1493702141f841" target="_top" xlink:title="CellSocietyView.makeCAGame">
<polygon fill="white" stroke="black" points="566.5,-65.5 566.5,-84.5 729.5,-84.5 729.5,-65.5 566.5,-65.5"/>
<text text-anchor="middle" x="648" y="-72.5" font-family="Helvetica,sans-Serif" font-size="10.00">CellSocietyView.makeCAGame</text>
</a>
</g>
</g>
<!-- Node1&#45;&gt;Node2 -->
<g id="edge1" class="edge"><title>Node1&#45;&gt;Node2</title>
<path fill="none" stroke="midnightblue" d="M158.341,-72.4371C267.619,-73.0102 458.082,-74.0092 566.122,-74.5758"/>
<polygon fill="midnightblue" stroke="midnightblue" points="158.043,-68.9356 148.025,-72.383 158.007,-75.9355 158.043,-68.9356"/>
</g>
<!-- Node8 -->
<g id="node8" class="node"><title>Node8</title>
<g id="a_node8"><a xlink:href="../../df/df8/class_cell_society_view.html#ad52b914fa03b45d8bc9d64fc407660f3" target="_top" xlink:title="CellSocietyView.updateView">
<polygon fill="white" stroke="black" points="184.5,-43.5 184.5,-62.5 333.5,-62.5 333.5,-43.5 184.5,-43.5"/>
<text text-anchor="middle" x="259" y="-50.5" font-family="Helvetica,sans-Serif" font-size="10.00">CellSocietyView.updateView</text>
</a>
</g>
</g>
<!-- Node1&#45;&gt;Node8 -->
<g id="edge8" class="edge"><title>Node1&#45;&gt;Node8</title>
<path fill="none" stroke="midnightblue" d="M158.28,-63.3535C166.994,-62.4487 175.808,-61.5336 184.403,-60.6412"/>
<polygon fill="midnightblue" stroke="midnightblue" points="157.7,-59.8947 148.115,-64.4088 158.423,-66.8573 157.7,-59.8947"/>
</g>
<!-- Node3 -->
<g id="node3" class="node"><title>Node3</title>
<g id="a_node3"><a xlink:href="../../df/df8/class_cell_society_view.html#a2ee793e471cc5731ce39c1450f058dd5" target="_top" xlink:title="CellSocietyView.parseFile">
<polygon fill="white" stroke="black" points="766.5,-84.5 766.5,-103.5 901.5,-103.5 901.5,-84.5 766.5,-84.5"/>
<text text-anchor="middle" x="834" y="-91.5" font-family="Helvetica,sans-Serif" font-size="10.00">CellSocietyView.parseFile</text>
</a>
</g>
</g>
<!-- Node2&#45;&gt;Node3 -->
<g id="edge2" class="edge"><title>Node2&#45;&gt;Node3</title>
<path fill="none" stroke="midnightblue" d="M739.807,-84.3769C748.777,-85.3031 757.762,-86.2308 766.42,-87.1249"/>
<polygon fill="midnightblue" stroke="midnightblue" points="740.012,-80.8794 729.705,-83.3337 739.293,-87.8424 740.012,-80.8794"/>
</g>
<!-- Node4 -->
<g id="node4" class="node"><title>Node4</title>
<g id="a_node4"><a xlink:href="../../df/df8/class_cell_society_view.html#a2c047a3972078bb0a5490ed225ef2dfa" target="_top" xlink:title="CellSocietyView.loadNewFile">
<polygon fill="white" stroke="black" points="938.5,-84.5 938.5,-103.5 1087.5,-103.5 1087.5,-84.5 938.5,-84.5"/>
<text text-anchor="middle" x="1013" y="-91.5" font-family="Helvetica,sans-Serif" font-size="10.00">CellSocietyView.loadNewFile</text>
</a>
</g>
</g>
<!-- Node3&#45;&gt;Node4 -->
<g id="edge3" class="edge"><title>Node3&#45;&gt;Node4</title>
<path fill="none" stroke="midnightblue" d="M911.865,-94C920.633,-94 929.557,-94 938.283,-94"/>
<polygon fill="midnightblue" stroke="midnightblue" points="911.664,-90.5001 901.664,-94 911.664,-97.5001 911.664,-90.5001"/>
</g>
<!-- Node5 -->
<g id="node5" class="node"><title>Node5</title>
<g id="a_node5"><a xlink:href="../../df/df8/class_cell_society_view.html#a656cfed0ba32bc41bbd0c4087860db4b" target="_top" xlink:title="CellSocietyView.makeLoad\lButton">
<polygon fill="white" stroke="black" points="1124.5,-82 1124.5,-112 1267.5,-112 1267.5,-82 1124.5,-82"/>
<text text-anchor="start" x="1132.5" y="-100" font-family="Helvetica,sans-Serif" font-size="10.00">CellSocietyView.makeLoad</text>
<text text-anchor="middle" x="1196" y="-89" font-family="Helvetica,sans-Serif" font-size="10.00">Button</text>
</a>
</g>
</g>
<!-- Node4&#45;&gt;Node5 -->
<g id="edge4" class="edge"><title>Node4&#45;&gt;Node5</title>
<path fill="none" stroke="midnightblue" d="M1097.65,-95.3865C1106.59,-95.5346 1115.61,-95.6841 1124.37,-95.8294"/>
<polygon fill="midnightblue" stroke="midnightblue" points="1097.68,-91.8865 1087.62,-95.2202 1097.56,-98.8856 1097.68,-91.8865"/>
</g>
<!-- Node6 -->
<g id="node6" class="node"><title>Node6</title>
<g id="a_node6"><a xlink:href="../../df/df8/class_cell_society_view.html#a53ab66afdeb23b3fc89e54a44be7ced5" target="_top" xlink:title="CellSocietyView.CellSocietyView">
<polygon fill="white" stroke="black" points="1304.5,-87.5 1304.5,-106.5 1471.5,-106.5 1471.5,-87.5 1304.5,-87.5"/>
<text text-anchor="middle" x="1388" y="-94.5" font-family="Helvetica,sans-Serif" font-size="10.00">CellSocietyView.CellSocietyView</text>
</a>
</g>
</g>
<!-- Node5&#45;&gt;Node6 -->
<g id="edge5" class="edge"><title>Node5&#45;&gt;Node6</title>
<path fill="none" stroke="midnightblue" d="M1277.92,-97C1286.66,-97 1295.57,-97 1304.33,-97"/>
<polygon fill="midnightblue" stroke="midnightblue" points="1277.75,-93.5001 1267.75,-97 1277.75,-100.5 1277.75,-93.5001"/>
</g>
<!-- Node7 -->
<g id="node7" class="node"><title>Node7</title>
<g id="a_node7"><a xlink:href="../../df/df8/class_cell_society_view.html#a7bdbd4e8fd3893e672eb22015603f6dc" target="_top" xlink:title="CellSocietyView.makeButtons">
<polygon fill="white" stroke="black" points="1309,-43.5 1309,-62.5 1467,-62.5 1467,-43.5 1309,-43.5"/>
<text text-anchor="middle" x="1388" y="-50.5" font-family="Helvetica,sans-Serif" font-size="10.00">CellSocietyView.makeButtons</text>
</a>
</g>
</g>
<!-- Node5&#45;&gt;Node7 -->
<g id="edge6" class="edge"><title>Node5&#45;&gt;Node7</title>
<path fill="none" stroke="midnightblue" d="M1271.79,-79.6813C1297.03,-73.8352 1324.27,-67.5268 1345.92,-62.5124"/>
<polygon fill="midnightblue" stroke="midnightblue" points="1270.81,-76.3148 1261.86,-81.9808 1272.39,-83.1344 1270.81,-76.3148"/>
</g>
<!-- Node7&#45;&gt;Node2 -->
<g id="edge7" class="edge"><title>Node7&#45;&gt;Node2</title>
<path fill="none" stroke="midnightblue" d="M1298.59,-55.6355C1154.02,-59.9453 869.169,-68.4367 729.737,-72.5932"/>
<polygon fill="midnightblue" stroke="midnightblue" points="1298.86,-59.129 1308.75,-55.3325 1298.65,-52.1321 1298.86,-59.129"/>
</g>
<!-- Node9 -->
<g id="node9" class="node"><title>Node9</title>
<g id="a_node9"><a xlink:href="../../df/df8/class_cell_society_view.html#aec6e94a6cf275f0b5d64a4b8adccd7d0" target="_top" xlink:title="CellSocietyView.makeStep\lButton">
<polygon fill="white" stroke="black" points="576.5,-0 576.5,-30 719.5,-30 719.5,-0 576.5,-0"/>
<text text-anchor="start" x="584.5" y="-18" font-family="Helvetica,sans-Serif" font-size="10.00">CellSocietyView.makeStep</text>
<text text-anchor="middle" x="648" y="-7" font-family="Helvetica,sans-Serif" font-size="10.00">Button</text>
</a>
</g>
</g>
<!-- Node8&#45;&gt;Node9 -->
<g id="edge9" class="edge"><title>Node8&#45;&gt;Node9</title>
<path fill="none" stroke="midnightblue" d="M318.899,-41.6797C335.385,-38.824 353.349,-36.0038 370,-34 439.873,-25.5917 520.143,-20.5942 576.224,-17.852"/>
<polygon fill="midnightblue" stroke="midnightblue" points="318.089,-38.2687 308.85,-43.4554 319.307,-45.1619 318.089,-38.2687"/>
</g>
<!-- Node10 -->
<g id="node10" class="node"><title>Node10</title>
<g id="a_node10"><a xlink:href="../../df/df8/class_cell_society_view.html#adf6a6b0542d00677a9fffbb8e3c03ffe" target="_top" xlink:title="CellSocietyView.makeTimeline">
<polygon fill="white" stroke="black" points="370,-43.5 370,-62.5 530,-62.5 530,-43.5 370,-43.5"/>
<text text-anchor="middle" x="450" y="-50.5" font-family="Helvetica,sans-Serif" font-size="10.00">CellSocietyView.makeTimeline</text>
</a>
</g>
</g>
<!-- Node8&#45;&gt;Node10 -->
<g id="edge11" class="edge"><title>Node8&#45;&gt;Node10</title>
<path fill="none" stroke="midnightblue" d="M343.763,-53C352.473,-53 361.306,-53 369.961,-53"/>
<polygon fill="midnightblue" stroke="midnightblue" points="343.614,-49.5001 333.614,-53 343.613,-56.5001 343.614,-49.5001"/>
</g>
<!-- Node9&#45;&gt;Node7 -->
<g id="edge10" class="edge"><title>Node9&#45;&gt;Node7</title>
<path fill="none" stroke="midnightblue" d="M729.775,-19.1592C872.557,-26.511 1167.74,-41.71 1308.72,-48.9693"/>
<polygon fill="midnightblue" stroke="midnightblue" points="729.929,-15.6625 719.763,-18.6436 729.569,-22.6533 729.929,-15.6625"/>
</g>
<!-- Node10&#45;&gt;Node2 -->
<g id="edge12" class="edge"><title>Node10&#45;&gt;Node2</title>
<path fill="none" stroke="midnightblue" d="M540.271,-63.0202C548.937,-63.993 557.696,-64.976 566.272,-65.9386"/>
<polygon fill="midnightblue" stroke="midnightblue" points="540.484,-59.5222 530.156,-61.8848 539.703,-66.4785 540.484,-59.5222"/>
</g>
</g>
</svg>
