<?xml version="1.0" encoding="UTF-8" standalone="no"?>
<!DOCTYPE svg PUBLIC "-//W3C//DTD SVG 1.1//EN"
 "http://www.w3.org/Graphics/SVG/1.1/DTD/svg11.dtd">
<!-- Generated by graphviz version 2.36.0 (20140111.2315)
 -->
<!-- Title: GridDrawer.scale Pages: 1 -->
<svg width="1204pt" height="74pt"
 viewBox="0.00 0.00 1204.00 74.00" xmlns="http://www.w3.org/2000/svg" xmlns:xlink="http://www.w3.org/1999/xlink">
<g id="graph0" class="graph" transform="scale(1 1) rotate(0) translate(4 70)">
<title>GridDrawer.scale</title>
<polygon fill="white" stroke="none" points="-4,4 -4,-70 1200,-70 1200,4 -4,4"/>
<!-- Node1 -->
<g id="node1" class="node"><title>Node1</title>
<polygon fill="#bfbfbf" stroke="black" points="0.5,-17.5 0.5,-36.5 97.5,-36.5 97.5,-17.5 0.5,-17.5"/>
<text text-anchor="middle" x="49" y="-24.5" font-family="Helvetica,sans-Serif" font-size="10.00">GridDrawer.scale</text>
</g>
<!-- Node2 -->
<g id="node2" class="node"><title>Node2</title>
<g id="a_node2"><a xlink:href="../../dd/d97/class_grid_drawer.html#ab8aa1cc79c89cfbc7b9d8516a5dee463" target="_top" xlink:title="GridDrawer.makeGrid">
<polygon fill="white" stroke="black" points="134.5,-17.5 134.5,-36.5 253.5,-36.5 253.5,-17.5 134.5,-17.5"/>
<text text-anchor="middle" x="194" y="-24.5" font-family="Helvetica,sans-Serif" font-size="10.00">GridDrawer.makeGrid</text>
</a>
</g>
</g>
<!-- Node1&#45;&gt;Node2 -->
<g id="edge1" class="edge"><title>Node1&#45;&gt;Node2</title>
<path fill="none" stroke="midnightblue" d="M107.756,-27C116.533,-27 125.598,-27 134.393,-27"/>
<polygon fill="midnightblue" stroke="midnightblue" points="107.617,-23.5001 97.6169,-27 107.617,-30.5001 107.617,-23.5001"/>
</g>
<!-- Node3 -->
<g id="node3" class="node"><title>Node3</title>
<g id="a_node3"><a xlink:href="../../df/df8/class_cell_society_view.html#a767ab215ca329ba41b1493702141f841" target="_top" xlink:title="CellSocietyView.makeCAGame">
<polygon fill="white" stroke="black" points="290.5,-17.5 290.5,-36.5 453.5,-36.5 453.5,-17.5 290.5,-17.5"/>
<text text-anchor="middle" x="372" y="-24.5" font-family="Helvetica,sans-Serif" font-size="10.00">CellSocietyView.makeCAGame</text>
</a>
</g>
</g>
<!-- Node2&#45;&gt;Node3 -->
<g id="edge2" class="edge"><title>Node2&#45;&gt;Node3</title>
<path fill="none" stroke="midnightblue" d="M263.728,-27C272.475,-27 281.489,-27 290.4,-27"/>
<polygon fill="midnightblue" stroke="midnightblue" points="263.605,-23.5001 253.605,-27 263.605,-30.5001 263.605,-23.5001"/>
</g>
<!-- Node4 -->
<g id="node4" class="node"><title>Node4</title>
<g id="a_node4"><a xlink:href="../../df/df8/class_cell_society_view.html#a2ee793e471cc5731ce39c1450f058dd5" target="_top" xlink:title="CellSocietyView.parseFile">
<polygon fill="white" stroke="black" points="490.5,-38.5 490.5,-57.5 625.5,-57.5 625.5,-38.5 490.5,-38.5"/>
<text text-anchor="middle" x="558" y="-45.5" font-family="Helvetica,sans-Serif" font-size="10.00">CellSocietyView.parseFile</text>
</a>
</g>
</g>
<!-- Node3&#45;&gt;Node4 -->
<g id="edge3" class="edge"><title>Node3&#45;&gt;Node4</title>
<path fill="none" stroke="midnightblue" d="M463.807,-37.3639C472.777,-38.3876 481.762,-39.413 490.42,-40.4012"/>
<polygon fill="midnightblue" stroke="midnightblue" points="464.037,-33.8675 453.705,-36.2109 463.244,-40.8224 464.037,-33.8675"/>
</g>
<!-- Node5 -->
<g id="node5" class="node"><title>Node5</title>
<g id="a_node5"><a xlink:href="../../df/df8/class_cell_society_view.html#a2c047a3972078bb0a5490ed225ef2dfa" target="_top" xlink:title="CellSocietyView.loadNewFile">
<polygon fill="white" stroke="black" points="662.5,-39.5 662.5,-58.5 811.5,-58.5 811.5,-39.5 662.5,-39.5"/>
<text text-anchor="middle" x="737" y="-46.5" font-family="Helvetica,sans-Serif" font-size="10.00">CellSocietyView.loadNewFile</text>
</a>
</g>
</g>
<!-- Node4&#45;&gt;Node5 -->
<g id="edge4" class="edge"><title>Node4&#45;&gt;Node5</title>
<path fill="none" stroke="midnightblue" d="M635.865,-48.4343C644.633,-48.4838 653.557,-48.5342 662.283,-48.5835"/>
<polygon fill="midnightblue" stroke="midnightblue" points="635.684,-44.9333 625.664,-48.3766 635.644,-51.9332 635.684,-44.9333"/>
</g>
<!-- Node6 -->
<g id="node6" class="node"><title>Node6</title>
<g id="a_node6"><a xlink:href="../../df/df8/class_cell_society_view.html#a656cfed0ba32bc41bbd0c4087860db4b" target="_top" xlink:title="CellSocietyView.makeLoad\lButton">
<polygon fill="white" stroke="black" points="848.5,-36 848.5,-66 991.5,-66 991.5,-36 848.5,-36"/>
<text text-anchor="start" x="856.5" y="-54" font-family="Helvetica,sans-Serif" font-size="10.00">CellSocietyView.makeLoad</text>
<text text-anchor="middle" x="920" y="-43" font-family="Helvetica,sans-Serif" font-size="10.00">Button</text>
</a>
</g>
</g>
<!-- Node5&#45;&gt;Node6 -->
<g id="edge5" class="edge"><title>Node5&#45;&gt;Node6</title>
<path fill="none" stroke="midnightblue" d="M821.651,-49.9243C830.585,-50.023 839.61,-50.1228 848.373,-50.2196"/>
<polygon fill="midnightblue" stroke="midnightblue" points="821.658,-46.4243 811.62,-49.8135 821.58,-53.4239 821.658,-46.4243"/>
</g>
<!-- Node7 -->
<g id="node7" class="node"><title>Node7</title>
<g id="a_node7"><a xlink:href="../../df/df8/class_cell_society_view.html#a53ab66afdeb23b3fc89e54a44be7ced5" target="_top" xlink:title="CellSocietyView.CellSocietyView">
<polygon fill="white" stroke="black" points="1028.5,-41.5 1028.5,-60.5 1195.5,-60.5 1195.5,-41.5 1028.5,-41.5"/>
<text text-anchor="middle" x="1112" y="-48.5" font-family="Helvetica,sans-Serif" font-size="10.00">CellSocietyView.CellSocietyView</text>
</a>
</g>
</g>
<!-- Node6&#45;&gt;Node7 -->
<g id="edge6" class="edge"><title>Node6&#45;&gt;Node7</title>
<path fill="none" stroke="midnightblue" d="M1001.92,-51C1010.66,-51 1019.57,-51 1028.33,-51"/>
<polygon fill="midnightblue" stroke="midnightblue" points="1001.75,-47.5001 991.749,-51 1001.75,-54.5001 1001.75,-47.5001"/>
</g>
<!-- Node8 -->
<g id="node8" class="node"><title>Node8</title>
<g id="a_node8"><a xlink:href="../../df/df8/class_cell_society_view.html#a7bdbd4e8fd3893e672eb22015603f6dc" target="_top" xlink:title="CellSocietyView.makeButtons">
<polygon fill="white" stroke="black" points="1033,-0.5 1033,-19.5 1191,-19.5 1191,-0.5 1033,-0.5"/>
<text text-anchor="middle" x="1112" y="-7.5" font-family="Helvetica,sans-Serif" font-size="10.00">CellSocietyView.makeButtons</text>
</a>
</g>
</g>
<!-- Node6&#45;&gt;Node8 -->
<g id="edge7" class="edge"><title>Node6&#45;&gt;Node8</title>
<path fill="none" stroke="midnightblue" d="M1000.61,-33.8204C1023.22,-28.941 1047.03,-23.8039 1066.72,-19.5545"/>
<polygon fill="midnightblue" stroke="midnightblue" points="999.707,-30.4353 990.67,-35.9659 1001.18,-37.2778 999.707,-30.4353"/>
</g>
<!-- Node8&#45;&gt;Node3 -->
<g id="edge8" class="edge"><title>Node8&#45;&gt;Node3</title>
<path fill="none" stroke="midnightblue" d="M1022.59,-12.0365C878.015,-15.3669 593.169,-21.9284 453.737,-25.1402"/>
<polygon fill="midnightblue" stroke="midnightblue" points="1022.84,-15.5319 1032.75,-11.8024 1022.68,-8.53371 1022.84,-15.5319"/>
</g>
</g>
</svg>
