<?xml version="1.0" encoding="UTF-8" standalone="no"?>
<!DOCTYPE svg PUBLIC "-//W3C//DTD SVG 1.1//EN"
 "http://www.w3.org/Graphics/SVG/1.1/DTD/svg11.dtd">
<!-- Generated by graphviz version 2.36.0 (20140111.2315)
 -->
<!-- Title: GridDrawer.makeGrid Pages: 1 -->
<svg width="1070pt" height="74pt"
 viewBox="0.00 0.00 1070.00 74.00" xmlns="http://www.w3.org/2000/svg" xmlns:xlink="http://www.w3.org/1999/xlink">
<g id="graph0" class="graph" transform="scale(1 1) rotate(0) translate(4 70)">
<title>GridDrawer.makeGrid</title>
<polygon fill="white" stroke="none" points="-4,4 -4,-70 1066,-70 1066,4 -4,4"/>
<!-- Node1 -->
<g id="node1" class="node"><title>Node1</title>
<polygon fill="#bfbfbf" stroke="black" points="0.5,-17.5 0.5,-36.5 119.5,-36.5 119.5,-17.5 0.5,-17.5"/>
<text text-anchor="middle" x="60" y="-24.5" font-family="Helvetica,sans-Serif" font-size="10.00">GridDrawer.makeGrid</text>
</g>
<!-- Node2 -->
<g id="node2" class="node"><title>Node2</title>
<g id="a_node2"><a xlink:href="../../df/df8/class_cell_society_view.html#a767ab215ca329ba41b1493702141f841" target="_top" xlink:title="CellSocietyView.makeCAGame">
<polygon fill="white" stroke="black" points="156.5,-17.5 156.5,-36.5 319.5,-36.5 319.5,-17.5 156.5,-17.5"/>
<text text-anchor="middle" x="238" y="-24.5" font-family="Helvetica,sans-Serif" font-size="10.00">CellSocietyView.makeCAGame</text>
</a>
</g>
</g>
<!-- Node1&#45;&gt;Node2 -->
<g id="edge1" class="edge"><title>Node1&#45;&gt;Node2</title>
<path fill="none" stroke="midnightblue" d="M129.728,-27C138.475,-27 147.489,-27 156.4,-27"/>
<polygon fill="midnightblue" stroke="midnightblue" points="129.605,-23.5001 119.605,-27 129.605,-30.5001 129.605,-23.5001"/>
</g>
<!-- Node3 -->
<g id="node3" class="node"><title>Node3</title>
<g id="a_node3"><a xlink:href="../../df/df8/class_cell_society_view.html#a2ee793e471cc5731ce39c1450f058dd5" target="_top" xlink:title="CellSocietyView.parseFile">
<polygon fill="white" stroke="black" points="356.5,-38.5 356.5,-57.5 491.5,-57.5 491.5,-38.5 356.5,-38.5"/>
<text text-anchor="middle" x="424" y="-45.5" font-family="Helvetica,sans-Serif" font-size="10.00">CellSocietyView.parseFile</text>
</a>
</g>
</g>
<!-- Node2&#45;&gt;Node3 -->
<g id="edge2" class="edge"><title>Node2&#45;&gt;Node3</title>
<path fill="none" stroke="midnightblue" d="M329.807,-37.3639C338.777,-38.3876 347.762,-39.413 356.42,-40.4012"/>
<polygon fill="midnightblue" stroke="midnightblue" points="330.037,-33.8675 319.705,-36.2109 329.244,-40.8224 330.037,-33.8675"/>
</g>
<!-- Node4 -->
<g id="node4" class="node"><title>Node4</title>
<g id="a_node4"><a xlink:href="../../df/df8/class_cell_society_view.html#a2c047a3972078bb0a5490ed225ef2dfa" target="_top" xlink:title="CellSocietyView.loadNewFile">
<polygon fill="white" stroke="black" points="528.5,-39.5 528.5,-58.5 677.5,-58.5 677.5,-39.5 528.5,-39.5"/>
<text text-anchor="middle" x="603" y="-46.5" font-family="Helvetica,sans-Serif" font-size="10.00">CellSocietyView.loadNewFile</text>
</a>
</g>
</g>
<!-- Node3&#45;&gt;Node4 -->
<g id="edge3" class="edge"><title>Node3&#45;&gt;Node4</title>
<path fill="none" stroke="midnightblue" d="M501.865,-48.4343C510.633,-48.4838 519.557,-48.5342 528.283,-48.5835"/>
<polygon fill="midnightblue" stroke="midnightblue" points="501.684,-44.9333 491.664,-48.3766 501.644,-51.9332 501.684,-44.9333"/>
</g>
<!-- Node5 -->
<g id="node5" class="node"><title>Node5</title>
<g id="a_node5"><a xlink:href="../../df/df8/class_cell_society_view.html#a656cfed0ba32bc41bbd0c4087860db4b" target="_top" xlink:title="CellSocietyView.makeLoad\lButton">
<polygon fill="white" stroke="black" points="714.5,-36 714.5,-66 857.5,-66 857.5,-36 714.5,-36"/>
<text text-anchor="start" x="722.5" y="-54" font-family="Helvetica,sans-Serif" font-size="10.00">CellSocietyView.makeLoad</text>
<text text-anchor="middle" x="786" y="-43" font-family="Helvetica,sans-Serif" font-size="10.00">Button</text>
</a>
</g>
</g>
<!-- Node4&#45;&gt;Node5 -->
<g id="edge4" class="edge"><title>Node4&#45;&gt;Node5</title>
<path fill="none" stroke="midnightblue" d="M687.651,-49.9243C696.585,-50.023 705.61,-50.1228 714.373,-50.2196"/>
<polygon fill="midnightblue" stroke="midnightblue" points="687.658,-46.4243 677.62,-49.8135 687.58,-53.4239 687.658,-46.4243"/>
</g>
<!-- Node6 -->
<g id="node6" class="node"><title>Node6</title>
<g id="a_node6"><a xlink:href="../../df/df8/class_cell_society_view.html#a53ab66afdeb23b3fc89e54a44be7ced5" target="_top" xlink:title="CellSocietyView.CellSocietyView">
<polygon fill="white" stroke="black" points="894.5,-41.5 894.5,-60.5 1061.5,-60.5 1061.5,-41.5 894.5,-41.5"/>
<text text-anchor="middle" x="978" y="-48.5" font-family="Helvetica,sans-Serif" font-size="10.00">CellSocietyView.CellSocietyView</text>
</a>
</g>
</g>
<!-- Node5&#45;&gt;Node6 -->
<g id="edge5" class="edge"><title>Node5&#45;&gt;Node6</title>
<path fill="none" stroke="midnightblue" d="M867.92,-51C876.663,-51 885.569,-51 894.332,-51"/>
<polygon fill="midnightblue" stroke="midnightblue" points="867.749,-47.5001 857.749,-51 867.749,-54.5001 867.749,-47.5001"/>
</g>
<!-- Node7 -->
<g id="node7" class="node"><title>Node7</title>
<g id="a_node7"><a xlink:href="../../df/df8/class_cell_society_view.html#a7bdbd4e8fd3893e672eb22015603f6dc" target="_top" xlink:title="CellSocietyView.makeButtons">
<polygon fill="white" stroke="black" points="899,-0.5 899,-19.5 1057,-19.5 1057,-0.5 899,-0.5"/>
<text text-anchor="middle" x="978" y="-7.5" font-family="Helvetica,sans-Serif" font-size="10.00">CellSocietyView.makeButtons</text>
</a>
</g>
</g>
<!-- Node5&#45;&gt;Node7 -->
<g id="edge6" class="edge"><title>Node5&#45;&gt;Node7</title>
<path fill="none" stroke="midnightblue" d="M866.613,-33.8204C889.224,-28.941 913.031,-23.8039 932.723,-19.5545"/>
<polygon fill="midnightblue" stroke="midnightblue" points="865.707,-30.4353 856.67,-35.9659 867.183,-37.2778 865.707,-30.4353"/>
</g>
<!-- Node7&#45;&gt;Node2 -->
<g id="edge7" class="edge"><title>Node7&#45;&gt;Node2</title>
<path fill="none" stroke="midnightblue" d="M888.591,-12.0365C744.015,-15.3669 459.169,-21.9284 319.737,-25.1402"/>
<polygon fill="midnightblue" stroke="midnightblue" points="888.838,-15.5319 898.755,-11.8024 888.677,-8.53371 888.838,-15.5319"/>
</g>
</g>
</svg>
