<?xml version="1.0" encoding="UTF-8" standalone="no"?>
<!DOCTYPE svg PUBLIC "-//W3C//DTD SVG 1.1//EN"
 "http://www.w3.org/Graphics/SVG/1.1/DTD/svg11.dtd">
<!-- Generated by graphviz version 2.36.0 (20140111.2315)
 -->
<!-- Title: GridDrawer.drawTriangle Pages: 1 -->
<svg width="842pt" height="28pt"
 viewBox="0.00 0.00 842.00 28.00" xmlns="http://www.w3.org/2000/svg" xmlns:xlink="http://www.w3.org/1999/xlink">
<g id="graph0" class="graph" transform="scale(1 1) rotate(0) translate(4 24)">
<title>GridDrawer.drawTriangle</title>
<polygon fill="white" stroke="none" points="-4,4 -4,-24 838,-24 838,4 -4,4"/>
<!-- Node1 -->
<g id="node1" class="node"><title>Node1</title>
<polygon fill="#bfbfbf" stroke="black" points="0.5,-0.5 0.5,-19.5 131.5,-19.5 131.5,-0.5 0.5,-0.5"/>
<text text-anchor="middle" x="66" y="-7.5" font-family="Helvetica,sans-Serif" font-size="10.00">GridDrawer.drawTriangle</text>
</g>
<!-- Node2 -->
<g id="node2" class="node"><title>Node2</title>
<g id="a_node2"><a xlink:href="../../dd/d97/class_grid_drawer.html#a69ef437bdcbcdb3dca6b206b73a1ab1f" target="_top" xlink:title="GridDrawer.drawUnitCell">
<polygon fill="white" stroke="black" points="168.5,-0.5 168.5,-19.5 299.5,-19.5 299.5,-0.5 168.5,-0.5"/>
<text text-anchor="middle" x="234" y="-7.5" font-family="Helvetica,sans-Serif" font-size="10.00">GridDrawer.drawUnitCell</text>
</a>
</g>
</g>
<!-- Node1&#45;&gt;Node2 -->
<g id="edge1" class="edge"><title>Node1&#45;&gt;Node2</title>
<path fill="none" stroke="midnightblue" d="M141.898,-10C150.693,-10 159.609,-10 168.248,-10"/>
<polygon fill="midnightblue" stroke="midnightblue" points="141.655,-6.5001 131.655,-10 141.655,-13.5001 141.655,-6.5001"/>
</g>
<!-- Node3 -->
<g id="node3" class="node"><title>Node3</title>
<g id="a_node3"><a xlink:href="../../dd/d97/class_grid_drawer.html#af9a09b2ee81450f13a117261b67718e0" target="_top" xlink:title="GridDrawer.makeUnitGrid">
<polygon fill="white" stroke="black" points="336,-0.5 336,-19.5 474,-19.5 474,-0.5 336,-0.5"/>
<text text-anchor="middle" x="405" y="-7.5" font-family="Helvetica,sans-Serif" font-size="10.00">GridDrawer.makeUnitGrid</text>
</a>
</g>
</g>
<!-- Node2&#45;&gt;Node3 -->
<g id="edge2" class="edge"><title>Node2&#45;&gt;Node3</title>
<path fill="none" stroke="midnightblue" d="M309.938,-10C318.597,-10 327.393,-10 335.954,-10"/>
<polygon fill="midnightblue" stroke="midnightblue" points="309.857,-6.5001 299.856,-10 309.856,-13.5001 309.857,-6.5001"/>
</g>
<!-- Node4 -->
<g id="node4" class="node"><title>Node4</title>
<g id="a_node4"><a xlink:href="../../dd/d97/class_grid_drawer.html#ab8aa1cc79c89cfbc7b9d8516a5dee463" target="_top" xlink:title="GridDrawer.makeGrid">
<polygon fill="white" stroke="black" points="510.5,-0.5 510.5,-19.5 629.5,-19.5 629.5,-0.5 510.5,-0.5"/>
<text text-anchor="middle" x="570" y="-7.5" font-family="Helvetica,sans-Serif" font-size="10.00">GridDrawer.makeGrid</text>
</a>
</g>
</g>
<!-- Node3&#45;&gt;Node4 -->
<g id="edge3" class="edge"><title>Node3&#45;&gt;Node4</title>
<path fill="none" stroke="midnightblue" d="M484.41,-10C493.163,-10 501.962,-10 510.405,-10"/>
<polygon fill="midnightblue" stroke="midnightblue" points="484.182,-6.5001 474.182,-10 484.182,-13.5001 484.182,-6.5001"/>
</g>
<!-- Node5 -->
<g id="node5" class="node"><title>Node5</title>
<g id="a_node5"><a xlink:href="../../df/df8/class_cell_society_view.html#abe7bcd77ca077f5e5e0f9946eea96406" target="_top" xlink:title="CellSocietyView.CellSocietyView">
<polygon fill="white" stroke="black" points="666.5,-0.5 666.5,-19.5 833.5,-19.5 833.5,-0.5 666.5,-0.5"/>
<text text-anchor="middle" x="750" y="-7.5" font-family="Helvetica,sans-Serif" font-size="10.00">CellSocietyView.CellSocietyView</text>
</a>
</g>
</g>
<!-- Node4&#45;&gt;Node5 -->
<g id="edge4" class="edge"><title>Node4&#45;&gt;Node5</title>
<path fill="none" stroke="midnightblue" d="M639.856,-10C648.567,-10 657.549,-10 666.444,-10"/>
<polygon fill="midnightblue" stroke="midnightblue" points="639.777,-6.5001 629.777,-10 639.777,-13.5001 639.777,-6.5001"/>
</g>
</g>
</svg>
