<?xml version="1.0" encoding="UTF-8" standalone="no"?>
<!DOCTYPE svg PUBLIC "-//W3C//DTD SVG 1.1//EN"
 "http://www.w3.org/Graphics/SVG/1.1/DTD/svg11.dtd">
<!-- Generated by graphviz version 2.36.0 (20140111.2315)
 -->
<!-- Title: GridDrawer.makeUnitGrid Pages: 1 -->
<svg width="1244pt" height="74pt"
 viewBox="0.00 0.00 1244.00 74.00" xmlns="http://www.w3.org/2000/svg" xmlns:xlink="http://www.w3.org/1999/xlink">
<g id="graph0" class="graph" transform="scale(1 1) rotate(0) translate(4 70)">
<title>GridDrawer.makeUnitGrid</title>
<polygon fill="white" stroke="none" points="-4,4 -4,-70 1240,-70 1240,4 -4,4"/>
<!-- Node1 -->
<g id="node1" class="node"><title>Node1</title>
<polygon fill="#bfbfbf" stroke="black" points="0,-17.5 0,-36.5 138,-36.5 138,-17.5 0,-17.5"/>
<text text-anchor="middle" x="69" y="-24.5" font-family="Helvetica,sans-Serif" font-size="10.00">GridDrawer.makeUnitGrid</text>
</g>
<!-- Node2 -->
<g id="node2" class="node"><title>Node2</title>
<g id="a_node2"><a xlink:href="../../dd/d97/class_grid_drawer.html#ab8aa1cc79c89cfbc7b9d8516a5dee463" target="_top" xlink:title="GridDrawer.makeGrid">
<polygon fill="white" stroke="black" points="174.5,-17.5 174.5,-36.5 293.5,-36.5 293.5,-17.5 174.5,-17.5"/>
<text text-anchor="middle" x="234" y="-24.5" font-family="Helvetica,sans-Serif" font-size="10.00">GridDrawer.makeGrid</text>
</a>
</g>
</g>
<!-- Node1&#45;&gt;Node2 -->
<g id="edge1" class="edge"><title>Node1&#45;&gt;Node2</title>
<path fill="none" stroke="midnightblue" d="M148.41,-27C157.163,-27 165.962,-27 174.405,-27"/>
<polygon fill="midnightblue" stroke="midnightblue" points="148.182,-23.5001 138.182,-27 148.182,-30.5001 148.182,-23.5001"/>
</g>
<!-- Node3 -->
<g id="node3" class="node"><title>Node3</title>
<g id="a_node3"><a xlink:href="../../df/df8/class_cell_society_view.html#a767ab215ca329ba41b1493702141f841" target="_top" xlink:title="CellSocietyView.makeCAGame">
<polygon fill="white" stroke="black" points="330.5,-17.5 330.5,-36.5 493.5,-36.5 493.5,-17.5 330.5,-17.5"/>
<text text-anchor="middle" x="412" y="-24.5" font-family="Helvetica,sans-Serif" font-size="10.00">CellSocietyView.makeCAGame</text>
</a>
</g>
</g>
<!-- Node2&#45;&gt;Node3 -->
<g id="edge2" class="edge"><title>Node2&#45;&gt;Node3</title>
<path fill="none" stroke="midnightblue" d="M303.728,-27C312.475,-27 321.489,-27 330.4,-27"/>
<polygon fill="midnightblue" stroke="midnightblue" points="303.605,-23.5001 293.605,-27 303.605,-30.5001 303.605,-23.5001"/>
</g>
<!-- Node4 -->
<g id="node4" class="node"><title>Node4</title>
<g id="a_node4"><a xlink:href="../../df/df8/class_cell_society_view.html#a2ee793e471cc5731ce39c1450f058dd5" target="_top" xlink:title="CellSocietyView.parseFile">
<polygon fill="white" stroke="black" points="530.5,-38.5 530.5,-57.5 665.5,-57.5 665.5,-38.5 530.5,-38.5"/>
<text text-anchor="middle" x="598" y="-45.5" font-family="Helvetica,sans-Serif" font-size="10.00">CellSocietyView.parseFile</text>
</a>
</g>
</g>
<!-- Node3&#45;&gt;Node4 -->
<g id="edge3" class="edge"><title>Node3&#45;&gt;Node4</title>
<path fill="none" stroke="midnightblue" d="M503.807,-37.3639C512.777,-38.3876 521.762,-39.413 530.42,-40.4012"/>
<polygon fill="midnightblue" stroke="midnightblue" points="504.037,-33.8675 493.705,-36.2109 503.244,-40.8224 504.037,-33.8675"/>
</g>
<!-- Node5 -->
<g id="node5" class="node"><title>Node5</title>
<g id="a_node5"><a xlink:href="../../df/df8/class_cell_society_view.html#a2c047a3972078bb0a5490ed225ef2dfa" target="_top" xlink:title="CellSocietyView.loadNewFile">
<polygon fill="white" stroke="black" points="702.5,-39.5 702.5,-58.5 851.5,-58.5 851.5,-39.5 702.5,-39.5"/>
<text text-anchor="middle" x="777" y="-46.5" font-family="Helvetica,sans-Serif" font-size="10.00">CellSocietyView.loadNewFile</text>
</a>
</g>
</g>
<!-- Node4&#45;&gt;Node5 -->
<g id="edge4" class="edge"><title>Node4&#45;&gt;Node5</title>
<path fill="none" stroke="midnightblue" d="M675.865,-48.4343C684.633,-48.4838 693.557,-48.5342 702.283,-48.5835"/>
<polygon fill="midnightblue" stroke="midnightblue" points="675.684,-44.9333 665.664,-48.3766 675.644,-51.9332 675.684,-44.9333"/>
</g>
<!-- Node6 -->
<g id="node6" class="node"><title>Node6</title>
<g id="a_node6"><a xlink:href="../../df/df8/class_cell_society_view.html#a656cfed0ba32bc41bbd0c4087860db4b" target="_top" xlink:title="CellSocietyView.makeLoad\lButton">
<polygon fill="white" stroke="black" points="888.5,-36 888.5,-66 1031.5,-66 1031.5,-36 888.5,-36"/>
<text text-anchor="start" x="896.5" y="-54" font-family="Helvetica,sans-Serif" font-size="10.00">CellSocietyView.makeLoad</text>
<text text-anchor="middle" x="960" y="-43" font-family="Helvetica,sans-Serif" font-size="10.00">Button</text>
</a>
</g>
</g>
<!-- Node5&#45;&gt;Node6 -->
<g id="edge5" class="edge"><title>Node5&#45;&gt;Node6</title>
<path fill="none" stroke="midnightblue" d="M861.651,-49.9243C870.585,-50.023 879.61,-50.1228 888.373,-50.2196"/>
<polygon fill="midnightblue" stroke="midnightblue" points="861.658,-46.4243 851.62,-49.8135 861.58,-53.4239 861.658,-46.4243"/>
</g>
<!-- Node7 -->
<g id="node7" class="node"><title>Node7</title>
<g id="a_node7"><a xlink:href="../../df/df8/class_cell_society_view.html#a53ab66afdeb23b3fc89e54a44be7ced5" target="_top" xlink:title="CellSocietyView.CellSocietyView">
<polygon fill="white" stroke="black" points="1068.5,-41.5 1068.5,-60.5 1235.5,-60.5 1235.5,-41.5 1068.5,-41.5"/>
<text text-anchor="middle" x="1152" y="-48.5" font-family="Helvetica,sans-Serif" font-size="10.00">CellSocietyView.CellSocietyView</text>
</a>
</g>
</g>
<!-- Node6&#45;&gt;Node7 -->
<g id="edge6" class="edge"><title>Node6&#45;&gt;Node7</title>
<path fill="none" stroke="midnightblue" d="M1041.92,-51C1050.66,-51 1059.57,-51 1068.33,-51"/>
<polygon fill="midnightblue" stroke="midnightblue" points="1041.75,-47.5001 1031.75,-51 1041.75,-54.5001 1041.75,-47.5001"/>
</g>
<!-- Node8 -->
<g id="node8" class="node"><title>Node8</title>
<g id="a_node8"><a xlink:href="../../df/df8/class_cell_society_view.html#a7bdbd4e8fd3893e672eb22015603f6dc" target="_top" xlink:title="CellSocietyView.makeButtons">
<polygon fill="white" stroke="black" points="1073,-0.5 1073,-19.5 1231,-19.5 1231,-0.5 1073,-0.5"/>
<text text-anchor="middle" x="1152" y="-7.5" font-family="Helvetica,sans-Serif" font-size="10.00">CellSocietyView.makeButtons</text>
</a>
</g>
</g>
<!-- Node6&#45;&gt;Node8 -->
<g id="edge7" class="edge"><title>Node6&#45;&gt;Node8</title>
<path fill="none" stroke="midnightblue" d="M1040.61,-33.8204C1063.22,-28.941 1087.03,-23.8039 1106.72,-19.5545"/>
<polygon fill="midnightblue" stroke="midnightblue" points="1039.71,-30.4353 1030.67,-35.9659 1041.18,-37.2778 1039.71,-30.4353"/>
</g>
<!-- Node8&#45;&gt;Node3 -->
<g id="edge8" class="edge"><title>Node8&#45;&gt;Node3</title>
<path fill="none" stroke="midnightblue" d="M1062.59,-12.0365C918.015,-15.3669 633.169,-21.9284 493.737,-25.1402"/>
<polygon fill="midnightblue" stroke="midnightblue" points="1062.84,-15.5319 1072.75,-11.8024 1062.68,-8.53371 1062.84,-15.5319"/>
</g>
</g>
</svg>
