<?xml version="1.0" encoding="UTF-8" standalone="no"?>
<!DOCTYPE svg PUBLIC "-//W3C//DTD SVG 1.1//EN"
 "http://www.w3.org/Graphics/SVG/1.1/DTD/svg11.dtd">
<!-- Generated by graphviz version 2.36.0 (20140111.2315)
 -->
<!-- Title: GridDrawer.drawSquare Pages: 1 -->
<svg width="1406pt" height="74pt"
 viewBox="0.00 0.00 1406.00 74.00" xmlns="http://www.w3.org/2000/svg" xmlns:xlink="http://www.w3.org/1999/xlink">
<g id="graph0" class="graph" transform="scale(1 1) rotate(0) translate(4 70)">
<title>GridDrawer.drawSquare</title>
<polygon fill="white" stroke="none" points="-4,4 -4,-70 1402,-70 1402,4 -4,4"/>
<!-- Node1 -->
<g id="node1" class="node"><title>Node1</title>
<polygon fill="#bfbfbf" stroke="black" points="0.5,-17.5 0.5,-36.5 129.5,-36.5 129.5,-17.5 0.5,-17.5"/>
<text text-anchor="middle" x="65" y="-24.5" font-family="Helvetica,sans-Serif" font-size="10.00">GridDrawer.drawSquare</text>
</g>
<!-- Node2 -->
<g id="node2" class="node"><title>Node2</title>
<g id="a_node2"><a xlink:href="../../dd/d97/class_grid_drawer.html#a69ef437bdcbcdb3dca6b206b73a1ab1f" target="_top" xlink:title="GridDrawer.drawUnitCell">
<polygon fill="white" stroke="black" points="166.5,-17.5 166.5,-36.5 297.5,-36.5 297.5,-17.5 166.5,-17.5"/>
<text text-anchor="middle" x="232" y="-24.5" font-family="Helvetica,sans-Serif" font-size="10.00">GridDrawer.drawUnitCell</text>
</a>
</g>
</g>
<!-- Node1&#45;&gt;Node2 -->
<g id="edge1" class="edge"><title>Node1&#45;&gt;Node2</title>
<path fill="none" stroke="midnightblue" d="M140.001,-27C148.767,-27 157.663,-27 166.287,-27"/>
<polygon fill="midnightblue" stroke="midnightblue" points="139.793,-23.5001 129.793,-27 139.793,-30.5001 139.793,-23.5001"/>
</g>
<!-- Node3 -->
<g id="node3" class="node"><title>Node3</title>
<g id="a_node3"><a xlink:href="../../dd/d97/class_grid_drawer.html#af9a09b2ee81450f13a117261b67718e0" target="_top" xlink:title="GridDrawer.makeUnitGrid">
<polygon fill="white" stroke="black" points="334,-17.5 334,-36.5 472,-36.5 472,-17.5 334,-17.5"/>
<text text-anchor="middle" x="403" y="-24.5" font-family="Helvetica,sans-Serif" font-size="10.00">GridDrawer.makeUnitGrid</text>
</a>
</g>
</g>
<!-- Node2&#45;&gt;Node3 -->
<g id="edge2" class="edge"><title>Node2&#45;&gt;Node3</title>
<path fill="none" stroke="midnightblue" d="M307.938,-27C316.597,-27 325.393,-27 333.954,-27"/>
<polygon fill="midnightblue" stroke="midnightblue" points="307.857,-23.5001 297.856,-27 307.856,-30.5001 307.857,-23.5001"/>
</g>
<!-- Node4 -->
<g id="node4" class="node"><title>Node4</title>
<g id="a_node4"><a xlink:href="../../dd/d97/class_grid_drawer.html#ab8aa1cc79c89cfbc7b9d8516a5dee463" target="_top" xlink:title="GridDrawer.makeGrid">
<polygon fill="white" stroke="black" points="508.5,-17.5 508.5,-36.5 627.5,-36.5 627.5,-17.5 508.5,-17.5"/>
<text text-anchor="middle" x="568" y="-24.5" font-family="Helvetica,sans-Serif" font-size="10.00">GridDrawer.makeGrid</text>
</a>
</g>
</g>
<!-- Node3&#45;&gt;Node4 -->
<g id="edge3" class="edge"><title>Node3&#45;&gt;Node4</title>
<path fill="none" stroke="midnightblue" d="M482.41,-27C491.163,-27 499.962,-27 508.405,-27"/>
<polygon fill="midnightblue" stroke="midnightblue" points="482.182,-23.5001 472.182,-27 482.182,-30.5001 482.182,-23.5001"/>
</g>
<!-- Node5 -->
<g id="node5" class="node"><title>Node5</title>
<g id="a_node5"><a xlink:href="../../df/df8/class_cell_society_view.html#a6a72ed4ee014a9c3f0368ab26be873d6" target="_top" xlink:title="CellSocietyView.makeCAGame">
<polygon fill="white" stroke="black" points="664.5,-17.5 664.5,-36.5 827.5,-36.5 827.5,-17.5 664.5,-17.5"/>
<text text-anchor="middle" x="746" y="-24.5" font-family="Helvetica,sans-Serif" font-size="10.00">CellSocietyView.makeCAGame</text>
</a>
</g>
</g>
<!-- Node4&#45;&gt;Node5 -->
<g id="edge4" class="edge"><title>Node4&#45;&gt;Node5</title>
<path fill="none" stroke="midnightblue" d="M637.728,-27C646.475,-27 655.489,-27 664.4,-27"/>
<polygon fill="midnightblue" stroke="midnightblue" points="637.605,-23.5001 627.605,-27 637.605,-30.5001 637.605,-23.5001"/>
</g>
<!-- Node6 -->
<g id="node6" class="node"><title>Node6</title>
<g id="a_node6"><a xlink:href="../../df/df8/class_cell_society_view.html#a2c047a3972078bb0a5490ed225ef2dfa" target="_top" xlink:title="CellSocietyView.loadNewFile">
<polygon fill="white" stroke="black" points="864.5,-38.5 864.5,-57.5 1013.5,-57.5 1013.5,-38.5 864.5,-38.5"/>
<text text-anchor="middle" x="939" y="-45.5" font-family="Helvetica,sans-Serif" font-size="10.00">CellSocietyView.loadNewFile</text>
</a>
</g>
</g>
<!-- Node5&#45;&gt;Node6 -->
<g id="edge5" class="edge"><title>Node5&#45;&gt;Node6</title>
<path fill="none" stroke="midnightblue" d="M837.72,-36.9744C846.608,-37.9516 855.551,-38.935 864.241,-39.8904"/>
<polygon fill="midnightblue" stroke="midnightblue" points="838.047,-33.4894 827.724,-35.8755 837.282,-40.4475 838.047,-33.4894"/>
</g>
<!-- Node7 -->
<g id="node7" class="node"><title>Node7</title>
<g id="a_node7"><a xlink:href="../../df/df8/class_cell_society_view.html#a656cfed0ba32bc41bbd0c4087860db4b" target="_top" xlink:title="CellSocietyView.makeLoad\lButton">
<polygon fill="white" stroke="black" points="1050.5,-36 1050.5,-66 1193.5,-66 1193.5,-36 1050.5,-36"/>
<text text-anchor="start" x="1058.5" y="-54" font-family="Helvetica,sans-Serif" font-size="10.00">CellSocietyView.makeLoad</text>
<text text-anchor="middle" x="1122" y="-43" font-family="Helvetica,sans-Serif" font-size="10.00">Button</text>
</a>
</g>
</g>
<!-- Node6&#45;&gt;Node7 -->
<g id="edge6" class="edge"><title>Node6&#45;&gt;Node7</title>
<path fill="none" stroke="midnightblue" d="M1023.65,-49.3865C1032.59,-49.5346 1041.61,-49.6841 1050.37,-49.8294"/>
<polygon fill="midnightblue" stroke="midnightblue" points="1023.68,-45.8865 1013.62,-49.2202 1023.56,-52.8856 1023.68,-45.8865"/>
</g>
<!-- Node8 -->
<g id="node8" class="node"><title>Node8</title>
<g id="a_node8"><a xlink:href="../../df/df8/class_cell_society_view.html#a53ab66afdeb23b3fc89e54a44be7ced5" target="_top" xlink:title="CellSocietyView.CellSocietyView">
<polygon fill="white" stroke="black" points="1230.5,-41.5 1230.5,-60.5 1397.5,-60.5 1397.5,-41.5 1230.5,-41.5"/>
<text text-anchor="middle" x="1314" y="-48.5" font-family="Helvetica,sans-Serif" font-size="10.00">CellSocietyView.CellSocietyView</text>
</a>
</g>
</g>
<!-- Node7&#45;&gt;Node8 -->
<g id="edge7" class="edge"><title>Node7&#45;&gt;Node8</title>
<path fill="none" stroke="midnightblue" d="M1203.92,-51C1212.66,-51 1221.57,-51 1230.33,-51"/>
<polygon fill="midnightblue" stroke="midnightblue" points="1203.75,-47.5001 1193.75,-51 1203.75,-54.5001 1203.75,-47.5001"/>
</g>
<!-- Node9 -->
<g id="node9" class="node"><title>Node9</title>
<g id="a_node9"><a xlink:href="../../df/df8/class_cell_society_view.html#a7bdbd4e8fd3893e672eb22015603f6dc" target="_top" xlink:title="CellSocietyView.makeButtons">
<polygon fill="white" stroke="black" points="1235,-0.5 1235,-19.5 1393,-19.5 1393,-0.5 1235,-0.5"/>
<text text-anchor="middle" x="1314" y="-7.5" font-family="Helvetica,sans-Serif" font-size="10.00">CellSocietyView.makeButtons</text>
</a>
</g>
</g>
<!-- Node7&#45;&gt;Node9 -->
<g id="edge8" class="edge"><title>Node7&#45;&gt;Node9</title>
<path fill="none" stroke="midnightblue" d="M1202.61,-33.8204C1225.22,-28.941 1249.03,-23.8039 1268.72,-19.5545"/>
<polygon fill="midnightblue" stroke="midnightblue" points="1201.71,-30.4353 1192.67,-35.9659 1203.18,-37.2778 1201.71,-30.4353"/>
</g>
<!-- Node9&#45;&gt;Node5 -->
<g id="edge9" class="edge"><title>Node9&#45;&gt;Node5</title>
<path fill="none" stroke="midnightblue" d="M1224.41,-12.6608C1115.68,-15.9267 932.835,-21.4184 827.793,-24.5733"/>
<polygon fill="midnightblue" stroke="midnightblue" points="1224.81,-16.1506 1234.7,-12.3519 1224.6,-9.15376 1224.81,-16.1506"/>
</g>
</g>
</svg>
