<?xml version="1.0" encoding="UTF-8" standalone="no"?>
<!DOCTYPE svg PUBLIC "-//W3C//DTD SVG 1.1//EN"
 "http://www.w3.org/Graphics/SVG/1.1/DTD/svg11.dtd">
<!-- Generated by graphviz version 2.36.0 (20140111.2315)
 -->
<!-- Title: GridDrawer.makeGrid Pages: 1 -->
<svg width="644pt" height="183pt"
 viewBox="0.00 0.00 644.00 183.00" xmlns="http://www.w3.org/2000/svg" xmlns:xlink="http://www.w3.org/1999/xlink">
<g id="graph0" class="graph" transform="scale(1 1) rotate(0) translate(4 179)">
<title>GridDrawer.makeGrid</title>
<polygon fill="white" stroke="none" points="-4,4 -4,-179 640,-179 640,4 -4,4"/>
<!-- Node1 -->
<g id="node1" class="node"><title>Node1</title>
<polygon fill="#bfbfbf" stroke="black" points="0.5,-79.5 0.5,-98.5 119.5,-98.5 119.5,-79.5 0.5,-79.5"/>
<text text-anchor="middle" x="60" y="-86.5" font-family="Helvetica,sans-Serif" font-size="10.00">GridDrawer.makeGrid</text>
</g>
<!-- Node2 -->
<g id="node2" class="node"><title>Node2</title>
<g id="a_node2"><a xlink:href="../../dd/d97/class_grid_drawer.html#a3f6bb5e9307bf84f9f8f4ae467ec85cf" target="_top" xlink:title="GridDrawer.calculateCell\lHeight">
<polygon fill="white" stroke="black" points="159,-145 159,-175 291,-175 291,-145 159,-145"/>
<text text-anchor="start" x="167" y="-163" font-family="Helvetica,sans-Serif" font-size="10.00">GridDrawer.calculateCell</text>
<text text-anchor="middle" x="225" y="-152" font-family="Helvetica,sans-Serif" font-size="10.00">Height</text>
</a>
</g>
</g>
<!-- Node1&#45;&gt;Node2 -->
<g id="edge1" class="edge"><title>Node1&#45;&gt;Node2</title>
<path fill="none" stroke="midnightblue" d="M79.3191,-98.5379C98.271,-108.246 128.845,-123.467 156,-135 160.993,-137.12 166.233,-139.236 171.496,-141.288"/>
<polygon fill="midnightblue" stroke="midnightblue" points="170.354,-144.598 180.944,-144.9 172.854,-138.06 170.354,-144.598"/>
</g>
<!-- Node3 -->
<g id="node3" class="node"><title>Node3</title>
<g id="a_node3"><a xlink:href="../../dd/d97/class_grid_drawer.html#a54f548bdc35a2afef9af05a134c149f5" target="_top" xlink:title="GridDrawer.calculateCell\lWidth">
<polygon fill="white" stroke="black" points="159,-96 159,-126 291,-126 291,-96 159,-96"/>
<text text-anchor="start" x="167" y="-114" font-family="Helvetica,sans-Serif" font-size="10.00">GridDrawer.calculateCell</text>
<text text-anchor="middle" x="225" y="-103" font-family="Helvetica,sans-Serif" font-size="10.00">Width</text>
</a>
</g>
</g>
<!-- Node1&#45;&gt;Node3 -->
<g id="edge2" class="edge"><title>Node1&#45;&gt;Node3</title>
<path fill="none" stroke="midnightblue" d="M119.847,-96.9425C129.254,-98.2122 139.099,-99.541 148.823,-100.853"/>
<polygon fill="midnightblue" stroke="midnightblue" points="148.512,-104.343 158.89,-102.212 149.448,-97.4059 148.512,-104.343"/>
</g>
<!-- Node4 -->
<g id="node4" class="node"><title>Node4</title>
<g id="a_node4"><a xlink:href="../../dd/d97/class_grid_drawer.html#af9a09b2ee81450f13a117261b67718e0" target="_top" xlink:title="GridDrawer.makeUnitGrid">
<polygon fill="white" stroke="black" points="156,-57.5 156,-76.5 294,-76.5 294,-57.5 156,-57.5"/>
<text text-anchor="middle" x="225" y="-64.5" font-family="Helvetica,sans-Serif" font-size="10.00">GridDrawer.makeUnitGrid</text>
</a>
</g>
</g>
<!-- Node1&#45;&gt;Node4 -->
<g id="edge3" class="edge"><title>Node1&#45;&gt;Node4</title>
<path fill="none" stroke="midnightblue" d="M119.847,-81.0575C128.236,-79.9252 136.974,-78.7459 145.663,-77.5731"/>
<polygon fill="midnightblue" stroke="midnightblue" points="146.376,-81.0087 155.818,-76.2025 145.439,-74.0716 146.376,-81.0087"/>
</g>
<!-- Node10 -->
<g id="node10" class="node"><title>Node10</title>
<g id="a_node10"><a xlink:href="../../dd/d97/class_grid_drawer.html#a8fba9cca18cee03651775b5785722778" target="_top" xlink:title="GridDrawer.scale">
<polygon fill="white" stroke="black" points="176.5,-19.5 176.5,-38.5 273.5,-38.5 273.5,-19.5 176.5,-19.5"/>
<text text-anchor="middle" x="225" y="-26.5" font-family="Helvetica,sans-Serif" font-size="10.00">GridDrawer.scale</text>
</a>
</g>
</g>
<!-- Node1&#45;&gt;Node10 -->
<g id="edge9" class="edge"><title>Node1&#45;&gt;Node10</title>
<path fill="none" stroke="midnightblue" d="M81.0688,-79.3966C100.083,-70.5248 129.581,-57.3439 156,-48 162.522,-45.6933 169.473,-43.4802 176.348,-41.4316"/>
<polygon fill="midnightblue" stroke="midnightblue" points="177.669,-44.6931 186.305,-38.5561 175.727,-37.9679 177.669,-44.6931"/>
</g>
<!-- Node5 -->
<g id="node5" class="node"><title>Node5</title>
<g id="a_node5"><a xlink:href="../../da/d74/class_grid.html#a5f4c70cc0b2718fca839fd8755fcfff4" target="_top" xlink:title="Grid.getGridSize">
<polygon fill="white" stroke="black" points="348.5,-76.5 348.5,-95.5 443.5,-95.5 443.5,-76.5 348.5,-76.5"/>
<text text-anchor="middle" x="396" y="-83.5" font-family="Helvetica,sans-Serif" font-size="10.00">Grid.getGridSize</text>
</a>
</g>
</g>
<!-- Node4&#45;&gt;Node5 -->
<g id="edge4" class="edge"><title>Node4&#45;&gt;Node5</title>
<path fill="none" stroke="midnightblue" d="M294.252,-74.6733C308.847,-76.3142 324.116,-78.0307 338.224,-79.6169"/>
<polygon fill="midnightblue" stroke="midnightblue" points="337.937,-83.1066 348.266,-80.7459 338.72,-76.1505 337.937,-83.1066"/>
</g>
<!-- Node6 -->
<g id="node6" class="node"><title>Node6</title>
<g id="a_node6"><a xlink:href="../../dd/d97/class_grid_drawer.html#a69ef437bdcbcdb3dca6b206b73a1ab1f" target="_top" xlink:title="GridDrawer.drawUnitCell">
<polygon fill="white" stroke="black" points="330.5,-38.5 330.5,-57.5 461.5,-57.5 461.5,-38.5 330.5,-38.5"/>
<text text-anchor="middle" x="396" y="-45.5" font-family="Helvetica,sans-Serif" font-size="10.00">GridDrawer.drawUnitCell</text>
</a>
</g>
</g>
<!-- Node4&#45;&gt;Node6 -->
<g id="edge5" class="edge"><title>Node4&#45;&gt;Node6</title>
<path fill="none" stroke="midnightblue" d="M294.252,-59.3267C302.811,-58.3644 311.602,-57.3761 320.255,-56.4033"/>
<polygon fill="midnightblue" stroke="midnightblue" points="320.78,-59.8664 330.326,-55.271 319.998,-52.9102 320.78,-59.8664"/>
</g>
<!-- Node7 -->
<g id="node7" class="node"><title>Node7</title>
<g id="a_node7"><a xlink:href="../../dd/d97/class_grid_drawer.html#a260f7ce1d53af7f88e1c4ee3a4a3de2b" target="_top" xlink:title="GridDrawer.drawHexagon">
<polygon fill="white" stroke="black" points="498.5,-76.5 498.5,-95.5 635.5,-95.5 635.5,-76.5 498.5,-76.5"/>
<text text-anchor="middle" x="567" y="-83.5" font-family="Helvetica,sans-Serif" font-size="10.00">GridDrawer.drawHexagon</text>
</a>
</g>
</g>
<!-- Node6&#45;&gt;Node7 -->
<g id="edge6" class="edge"><title>Node6&#45;&gt;Node7</title>
<path fill="none" stroke="midnightblue" d="M439.646,-57.589C462.148,-62.6487 489.948,-68.8996 513.738,-74.2488"/>
<polygon fill="midnightblue" stroke="midnightblue" points="513.137,-77.7009 523.661,-76.4799 514.672,-70.8714 513.137,-77.7009"/>
</g>
<!-- Node8 -->
<g id="node8" class="node"><title>Node8</title>
<g id="a_node8"><a xlink:href="../../dd/d97/class_grid_drawer.html#a08b9d58cde5fafa07e226d4ed2ebc655" target="_top" xlink:title="GridDrawer.drawSquare">
<polygon fill="white" stroke="black" points="502.5,-38.5 502.5,-57.5 631.5,-57.5 631.5,-38.5 502.5,-38.5"/>
<text text-anchor="middle" x="567" y="-45.5" font-family="Helvetica,sans-Serif" font-size="10.00">GridDrawer.drawSquare</text>
</a>
</g>
</g>
<!-- Node6&#45;&gt;Node8 -->
<g id="edge7" class="edge"><title>Node6&#45;&gt;Node8</title>
<path fill="none" stroke="midnightblue" d="M461.856,-48C471.84,-48 482.21,-48 492.368,-48"/>
<polygon fill="midnightblue" stroke="midnightblue" points="492.432,-51.5001 502.432,-48 492.432,-44.5001 492.432,-51.5001"/>
</g>
<!-- Node9 -->
<g id="node9" class="node"><title>Node9</title>
<g id="a_node9"><a xlink:href="../../dd/d97/class_grid_drawer.html#a53b8613b7621224084096d76e2316452" target="_top" xlink:title="GridDrawer.drawTriangle">
<polygon fill="white" stroke="black" points="501.5,-0.5 501.5,-19.5 632.5,-19.5 632.5,-0.5 501.5,-0.5"/>
<text text-anchor="middle" x="567" y="-7.5" font-family="Helvetica,sans-Serif" font-size="10.00">GridDrawer.drawTriangle</text>
</a>
</g>
</g>
<!-- Node6&#45;&gt;Node9 -->
<g id="edge8" class="edge"><title>Node6&#45;&gt;Node9</title>
<path fill="none" stroke="midnightblue" d="M439.646,-38.411C462.148,-33.3513 489.948,-27.1004 513.738,-21.7512"/>
<polygon fill="midnightblue" stroke="midnightblue" points="514.672,-25.1286 523.661,-19.5201 513.137,-18.2991 514.672,-25.1286"/>
</g>
</g>
</svg>
