<?xml version="1.0" encoding="UTF-8" standalone="no"?>
<!DOCTYPE svg PUBLIC "-//W3C//DTD SVG 1.1//EN"
 "http://www.w3.org/Graphics/SVG/1.1/DTD/svg11.dtd">
<!-- Generated by graphviz version 2.36.0 (20140111.2315)
 -->
<!-- Title: GridDrawer.makeUnitGrid Pages: 1 -->
<svg width="488pt" height="104pt"
 viewBox="0.00 0.00 488.00 104.00" xmlns="http://www.w3.org/2000/svg" xmlns:xlink="http://www.w3.org/1999/xlink">
<g id="graph0" class="graph" transform="scale(1 1) rotate(0) translate(4 100)">
<title>GridDrawer.makeUnitGrid</title>
<polygon fill="white" stroke="none" points="-4,4 -4,-100 484,-100 484,4 -4,4"/>
<!-- Node1 -->
<g id="node1" class="node"><title>Node1</title>
<polygon fill="#bfbfbf" stroke="black" points="0,-19.5 0,-38.5 138,-38.5 138,-19.5 0,-19.5"/>
<text text-anchor="middle" x="69" y="-26.5" font-family="Helvetica,sans-Serif" font-size="10.00">GridDrawer.makeUnitGrid</text>
</g>
<!-- Node2 -->
<g id="node2" class="node"><title>Node2</title>
<g id="a_node2"><a xlink:href="../../dd/d97/class_grid_drawer.html#a69ef437bdcbcdb3dca6b206b73a1ab1f" target="_top" xlink:title="GridDrawer.drawUnitCell">
<polygon fill="white" stroke="black" points="174.5,-38.5 174.5,-57.5 305.5,-57.5 305.5,-38.5 174.5,-38.5"/>
<text text-anchor="middle" x="240" y="-45.5" font-family="Helvetica,sans-Serif" font-size="10.00">GridDrawer.drawUnitCell</text>
</a>
</g>
</g>
<!-- Node1&#45;&gt;Node2 -->
<g id="edge1" class="edge"><title>Node1&#45;&gt;Node2</title>
<path fill="none" stroke="midnightblue" d="M138.252,-36.6733C146.811,-37.6356 155.602,-38.6239 164.255,-39.5967"/>
<polygon fill="midnightblue" stroke="midnightblue" points="163.998,-43.0898 174.326,-40.729 164.78,-36.1336 163.998,-43.0898"/>
</g>
<!-- Node6 -->
<g id="node6" class="node"><title>Node6</title>
<g id="a_node6"><a xlink:href="../../da/d74/class_grid.html#a5f4c70cc0b2718fca839fd8755fcfff4" target="_top" xlink:title="Grid.getGridSize">
<polygon fill="white" stroke="black" points="192.5,-0.5 192.5,-19.5 287.5,-19.5 287.5,-0.5 192.5,-0.5"/>
<text text-anchor="middle" x="240" y="-7.5" font-family="Helvetica,sans-Serif" font-size="10.00">Grid.getGridSize</text>
</a>
</g>
</g>
<!-- Node1&#45;&gt;Node6 -->
<g id="edge5" class="edge"><title>Node1&#45;&gt;Node6</title>
<path fill="none" stroke="midnightblue" d="M138.252,-21.3267C152.847,-19.6858 168.116,-17.9693 182.224,-16.3831"/>
<polygon fill="midnightblue" stroke="midnightblue" points="182.72,-19.8495 192.266,-15.2541 181.937,-12.8934 182.72,-19.8495"/>
</g>
<!-- Node3 -->
<g id="node3" class="node"><title>Node3</title>
<g id="a_node3"><a xlink:href="../../dd/d97/class_grid_drawer.html#a260f7ce1d53af7f88e1c4ee3a4a3de2b" target="_top" xlink:title="GridDrawer.drawHexagon">
<polygon fill="white" stroke="black" points="342.5,-76.5 342.5,-95.5 479.5,-95.5 479.5,-76.5 342.5,-76.5"/>
<text text-anchor="middle" x="411" y="-83.5" font-family="Helvetica,sans-Serif" font-size="10.00">GridDrawer.drawHexagon</text>
</a>
</g>
</g>
<!-- Node2&#45;&gt;Node3 -->
<g id="edge2" class="edge"><title>Node2&#45;&gt;Node3</title>
<path fill="none" stroke="midnightblue" d="M283.646,-57.589C306.148,-62.6487 333.948,-68.8996 357.738,-74.2488"/>
<polygon fill="midnightblue" stroke="midnightblue" points="357.137,-77.7009 367.661,-76.4799 358.672,-70.8714 357.137,-77.7009"/>
</g>
<!-- Node4 -->
<g id="node4" class="node"><title>Node4</title>
<g id="a_node4"><a xlink:href="../../dd/d97/class_grid_drawer.html#a08b9d58cde5fafa07e226d4ed2ebc655" target="_top" xlink:title="GridDrawer.drawSquare">
<polygon fill="white" stroke="black" points="346.5,-38.5 346.5,-57.5 475.5,-57.5 475.5,-38.5 346.5,-38.5"/>
<text text-anchor="middle" x="411" y="-45.5" font-family="Helvetica,sans-Serif" font-size="10.00">GridDrawer.drawSquare</text>
</a>
</g>
</g>
<!-- Node2&#45;&gt;Node4 -->
<g id="edge3" class="edge"><title>Node2&#45;&gt;Node4</title>
<path fill="none" stroke="midnightblue" d="M305.856,-48C315.84,-48 326.21,-48 336.368,-48"/>
<polygon fill="midnightblue" stroke="midnightblue" points="336.432,-51.5001 346.432,-48 336.432,-44.5001 336.432,-51.5001"/>
</g>
<!-- Node5 -->
<g id="node5" class="node"><title>Node5</title>
<g id="a_node5"><a xlink:href="../../dd/d97/class_grid_drawer.html#a53b8613b7621224084096d76e2316452" target="_top" xlink:title="GridDrawer.drawTriangle">
<polygon fill="white" stroke="black" points="345.5,-0.5 345.5,-19.5 476.5,-19.5 476.5,-0.5 345.5,-0.5"/>
<text text-anchor="middle" x="411" y="-7.5" font-family="Helvetica,sans-Serif" font-size="10.00">GridDrawer.drawTriangle</text>
</a>
</g>
</g>
<!-- Node2&#45;&gt;Node5 -->
<g id="edge4" class="edge"><title>Node2&#45;&gt;Node5</title>
<path fill="none" stroke="midnightblue" d="M283.646,-38.411C306.148,-33.3513 333.948,-27.1004 357.738,-21.7512"/>
<polygon fill="midnightblue" stroke="midnightblue" points="358.672,-25.1286 367.661,-19.5201 357.137,-18.2991 358.672,-25.1286"/>
</g>
</g>
</svg>
