<?xml version="1.0" encoding="UTF-8" standalone="no"?>
<!DOCTYPE svg PUBLIC "-//W3C//DTD SVG 1.1//EN"
 "http://www.w3.org/Graphics/SVG/1.1/DTD/svg11.dtd">
<!-- Generated by graphviz version 2.36.0 (20140111.2315)
 -->
<!-- Title: GridDrawer.drawHexagon Pages: 1 -->
<svg width="1414pt" height="74pt"
 viewBox="0.00 0.00 1414.00 74.00" xmlns="http://www.w3.org/2000/svg" xmlns:xlink="http://www.w3.org/1999/xlink">
<g id="graph0" class="graph" transform="scale(1 1) rotate(0) translate(4 70)">
<title>GridDrawer.drawHexagon</title>
<polygon fill="white" stroke="none" points="-4,4 -4,-70 1410,-70 1410,4 -4,4"/>
<!-- Node1 -->
<g id="node1" class="node"><title>Node1</title>
<polygon fill="#bfbfbf" stroke="black" points="0.5,-17.5 0.5,-36.5 137.5,-36.5 137.5,-17.5 0.5,-17.5"/>
<text text-anchor="middle" x="69" y="-24.5" font-family="Helvetica,sans-Serif" font-size="10.00">GridDrawer.drawHexagon</text>
</g>
<!-- Node2 -->
<g id="node2" class="node"><title>Node2</title>
<g id="a_node2"><a xlink:href="../../dd/d97/class_grid_drawer.html#a69ef437bdcbcdb3dca6b206b73a1ab1f" target="_top" xlink:title="GridDrawer.drawUnitCell">
<polygon fill="white" stroke="black" points="174.5,-17.5 174.5,-36.5 305.5,-36.5 305.5,-17.5 174.5,-17.5"/>
<text text-anchor="middle" x="240" y="-24.5" font-family="Helvetica,sans-Serif" font-size="10.00">GridDrawer.drawUnitCell</text>
</a>
</g>
</g>
<!-- Node1&#45;&gt;Node2 -->
<g id="edge1" class="edge"><title>Node1&#45;&gt;Node2</title>
<path fill="none" stroke="midnightblue" d="M148.004,-27C156.783,-27 165.655,-27 174.24,-27"/>
<polygon fill="midnightblue" stroke="midnightblue" points="147.765,-23.5001 137.765,-27 147.765,-30.5001 147.765,-23.5001"/>
</g>
<!-- Node3 -->
<g id="node3" class="node"><title>Node3</title>
<g id="a_node3"><a xlink:href="../../dd/d97/class_grid_drawer.html#af9a09b2ee81450f13a117261b67718e0" target="_top" xlink:title="GridDrawer.makeUnitGrid">
<polygon fill="white" stroke="black" points="342,-17.5 342,-36.5 480,-36.5 480,-17.5 342,-17.5"/>
<text text-anchor="middle" x="411" y="-24.5" font-family="Helvetica,sans-Serif" font-size="10.00">GridDrawer.makeUnitGrid</text>
</a>
</g>
</g>
<!-- Node2&#45;&gt;Node3 -->
<g id="edge2" class="edge"><title>Node2&#45;&gt;Node3</title>
<path fill="none" stroke="midnightblue" d="M315.938,-27C324.597,-27 333.393,-27 341.954,-27"/>
<polygon fill="midnightblue" stroke="midnightblue" points="315.857,-23.5001 305.856,-27 315.856,-30.5001 315.857,-23.5001"/>
</g>
<!-- Node4 -->
<g id="node4" class="node"><title>Node4</title>
<g id="a_node4"><a xlink:href="../../dd/d97/class_grid_drawer.html#ab8aa1cc79c89cfbc7b9d8516a5dee463" target="_top" xlink:title="GridDrawer.makeGrid">
<polygon fill="white" stroke="black" points="516.5,-17.5 516.5,-36.5 635.5,-36.5 635.5,-17.5 516.5,-17.5"/>
<text text-anchor="middle" x="576" y="-24.5" font-family="Helvetica,sans-Serif" font-size="10.00">GridDrawer.makeGrid</text>
</a>
</g>
</g>
<!-- Node3&#45;&gt;Node4 -->
<g id="edge3" class="edge"><title>Node3&#45;&gt;Node4</title>
<path fill="none" stroke="midnightblue" d="M490.41,-27C499.163,-27 507.962,-27 516.405,-27"/>
<polygon fill="midnightblue" stroke="midnightblue" points="490.182,-23.5001 480.182,-27 490.182,-30.5001 490.182,-23.5001"/>
</g>
<!-- Node5 -->
<g id="node5" class="node"><title>Node5</title>
<g id="a_node5"><a xlink:href="../../df/df8/class_cell_society_view.html#a6a72ed4ee014a9c3f0368ab26be873d6" target="_top" xlink:title="CellSocietyView.makeCAGame">
<polygon fill="white" stroke="black" points="672.5,-17.5 672.5,-36.5 835.5,-36.5 835.5,-17.5 672.5,-17.5"/>
<text text-anchor="middle" x="754" y="-24.5" font-family="Helvetica,sans-Serif" font-size="10.00">CellSocietyView.makeCAGame</text>
</a>
</g>
</g>
<!-- Node4&#45;&gt;Node5 -->
<g id="edge4" class="edge"><title>Node4&#45;&gt;Node5</title>
<path fill="none" stroke="midnightblue" d="M645.728,-27C654.475,-27 663.489,-27 672.4,-27"/>
<polygon fill="midnightblue" stroke="midnightblue" points="645.605,-23.5001 635.605,-27 645.605,-30.5001 645.605,-23.5001"/>
</g>
<!-- Node6 -->
<g id="node6" class="node"><title>Node6</title>
<g id="a_node6"><a xlink:href="../../df/df8/class_cell_society_view.html#a2c047a3972078bb0a5490ed225ef2dfa" target="_top" xlink:title="CellSocietyView.loadNewFile">
<polygon fill="white" stroke="black" points="872.5,-38.5 872.5,-57.5 1021.5,-57.5 1021.5,-38.5 872.5,-38.5"/>
<text text-anchor="middle" x="947" y="-45.5" font-family="Helvetica,sans-Serif" font-size="10.00">CellSocietyView.loadNewFile</text>
</a>
</g>
</g>
<!-- Node5&#45;&gt;Node6 -->
<g id="edge5" class="edge"><title>Node5&#45;&gt;Node6</title>
<path fill="none" stroke="midnightblue" d="M845.72,-36.9744C854.608,-37.9516 863.551,-38.935 872.241,-39.8904"/>
<polygon fill="midnightblue" stroke="midnightblue" points="846.047,-33.4894 835.724,-35.8755 845.282,-40.4475 846.047,-33.4894"/>
</g>
<!-- Node7 -->
<g id="node7" class="node"><title>Node7</title>
<g id="a_node7"><a xlink:href="../../df/df8/class_cell_society_view.html#a656cfed0ba32bc41bbd0c4087860db4b" target="_top" xlink:title="CellSocietyView.makeLoad\lButton">
<polygon fill="white" stroke="black" points="1058.5,-36 1058.5,-66 1201.5,-66 1201.5,-36 1058.5,-36"/>
<text text-anchor="start" x="1066.5" y="-54" font-family="Helvetica,sans-Serif" font-size="10.00">CellSocietyView.makeLoad</text>
<text text-anchor="middle" x="1130" y="-43" font-family="Helvetica,sans-Serif" font-size="10.00">Button</text>
</a>
</g>
</g>
<!-- Node6&#45;&gt;Node7 -->
<g id="edge6" class="edge"><title>Node6&#45;&gt;Node7</title>
<path fill="none" stroke="midnightblue" d="M1031.65,-49.3865C1040.59,-49.5346 1049.61,-49.6841 1058.37,-49.8294"/>
<polygon fill="midnightblue" stroke="midnightblue" points="1031.68,-45.8865 1021.62,-49.2202 1031.56,-52.8856 1031.68,-45.8865"/>
</g>
<!-- Node8 -->
<g id="node8" class="node"><title>Node8</title>
<g id="a_node8"><a xlink:href="../../df/df8/class_cell_society_view.html#a53ab66afdeb23b3fc89e54a44be7ced5" target="_top" xlink:title="CellSocietyView.CellSocietyView">
<polygon fill="white" stroke="black" points="1238.5,-41.5 1238.5,-60.5 1405.5,-60.5 1405.5,-41.5 1238.5,-41.5"/>
<text text-anchor="middle" x="1322" y="-48.5" font-family="Helvetica,sans-Serif" font-size="10.00">CellSocietyView.CellSocietyView</text>
</a>
</g>
</g>
<!-- Node7&#45;&gt;Node8 -->
<g id="edge7" class="edge"><title>Node7&#45;&gt;Node8</title>
<path fill="none" stroke="midnightblue" d="M1211.92,-51C1220.66,-51 1229.57,-51 1238.33,-51"/>
<polygon fill="midnightblue" stroke="midnightblue" points="1211.75,-47.5001 1201.75,-51 1211.75,-54.5001 1211.75,-47.5001"/>
</g>
<!-- Node9 -->
<g id="node9" class="node"><title>Node9</title>
<g id="a_node9"><a xlink:href="../../df/df8/class_cell_society_view.html#a7bdbd4e8fd3893e672eb22015603f6dc" target="_top" xlink:title="CellSocietyView.makeButtons">
<polygon fill="white" stroke="black" points="1243,-0.5 1243,-19.5 1401,-19.5 1401,-0.5 1243,-0.5"/>
<text text-anchor="middle" x="1322" y="-7.5" font-family="Helvetica,sans-Serif" font-size="10.00">CellSocietyView.makeButtons</text>
</a>
</g>
</g>
<!-- Node7&#45;&gt;Node9 -->
<g id="edge8" class="edge"><title>Node7&#45;&gt;Node9</title>
<path fill="none" stroke="midnightblue" d="M1210.61,-33.8204C1233.22,-28.941 1257.03,-23.8039 1276.72,-19.5545"/>
<polygon fill="midnightblue" stroke="midnightblue" points="1209.71,-30.4353 1200.67,-35.9659 1211.18,-37.2778 1209.71,-30.4353"/>
</g>
<!-- Node9&#45;&gt;Node5 -->
<g id="edge9" class="edge"><title>Node9&#45;&gt;Node5</title>
<path fill="none" stroke="midnightblue" d="M1232.41,-12.6608C1123.68,-15.9267 940.835,-21.4184 835.793,-24.5733"/>
<polygon fill="midnightblue" stroke="midnightblue" points="1232.81,-16.1506 1242.7,-12.3519 1232.6,-9.15376 1232.81,-16.1506"/>
</g>
</g>
</svg>
