<?xml version="1.0" encoding="UTF-8" standalone="no"?>
<!DOCTYPE svg PUBLIC "-//W3C//DTD SVG 1.1//EN"
 "http://www.w3.org/Graphics/SVG/1.1/DTD/svg11.dtd">
<!-- Generated by graphviz version 2.36.0 (20140111.2315)
 -->
<!-- Title: GridDrawer.drawUnitCell Pages: 1 -->
<svg width="1412pt" height="74pt"
 viewBox="0.00 0.00 1412.00 74.00" xmlns="http://www.w3.org/2000/svg" xmlns:xlink="http://www.w3.org/1999/xlink">
<g id="graph0" class="graph" transform="scale(1 1) rotate(0) translate(4 70)">
<title>GridDrawer.drawUnitCell</title>
<polygon fill="white" stroke="none" points="-4,4 -4,-70 1408,-70 1408,4 -4,4"/>
<!-- Node1 -->
<g id="node1" class="node"><title>Node1</title>
<polygon fill="#bfbfbf" stroke="black" points="0.5,-17.5 0.5,-36.5 131.5,-36.5 131.5,-17.5 0.5,-17.5"/>
<text text-anchor="middle" x="66" y="-24.5" font-family="Helvetica,sans-Serif" font-size="10.00">GridDrawer.drawUnitCell</text>
</g>
<!-- Node2 -->
<g id="node2" class="node"><title>Node2</title>
<g id="a_node2"><a xlink:href="../../dd/d97/class_grid_drawer.html#af9a09b2ee81450f13a117261b67718e0" target="_top" xlink:title="GridDrawer.makeUnitGrid">
<polygon fill="white" stroke="black" points="168,-17.5 168,-36.5 306,-36.5 306,-17.5 168,-17.5"/>
<text text-anchor="middle" x="237" y="-24.5" font-family="Helvetica,sans-Serif" font-size="10.00">GridDrawer.makeUnitGrid</text>
</a>
</g>
</g>
<!-- Node1&#45;&gt;Node2 -->
<g id="edge1" class="edge"><title>Node1&#45;&gt;Node2</title>
<path fill="none" stroke="midnightblue" d="M141.938,-27C150.597,-27 159.393,-27 167.954,-27"/>
<polygon fill="midnightblue" stroke="midnightblue" points="141.857,-23.5001 131.856,-27 141.856,-30.5001 141.857,-23.5001"/>
</g>
<!-- Node3 -->
<g id="node3" class="node"><title>Node3</title>
<g id="a_node3"><a xlink:href="../../dd/d97/class_grid_drawer.html#ab8aa1cc79c89cfbc7b9d8516a5dee463" target="_top" xlink:title="GridDrawer.makeGrid">
<polygon fill="white" stroke="black" points="342.5,-17.5 342.5,-36.5 461.5,-36.5 461.5,-17.5 342.5,-17.5"/>
<text text-anchor="middle" x="402" y="-24.5" font-family="Helvetica,sans-Serif" font-size="10.00">GridDrawer.makeGrid</text>
</a>
</g>
</g>
<!-- Node2&#45;&gt;Node3 -->
<g id="edge2" class="edge"><title>Node2&#45;&gt;Node3</title>
<path fill="none" stroke="midnightblue" d="M316.41,-27C325.163,-27 333.962,-27 342.405,-27"/>
<polygon fill="midnightblue" stroke="midnightblue" points="316.182,-23.5001 306.182,-27 316.182,-30.5001 316.182,-23.5001"/>
</g>
<!-- Node4 -->
<g id="node4" class="node"><title>Node4</title>
<g id="a_node4"><a xlink:href="../../df/df8/class_cell_society_view.html#a767ab215ca329ba41b1493702141f841" target="_top" xlink:title="CellSocietyView.makeCAGame">
<polygon fill="white" stroke="black" points="498.5,-17.5 498.5,-36.5 661.5,-36.5 661.5,-17.5 498.5,-17.5"/>
<text text-anchor="middle" x="580" y="-24.5" font-family="Helvetica,sans-Serif" font-size="10.00">CellSocietyView.makeCAGame</text>
</a>
</g>
</g>
<!-- Node3&#45;&gt;Node4 -->
<g id="edge3" class="edge"><title>Node3&#45;&gt;Node4</title>
<path fill="none" stroke="midnightblue" d="M471.728,-27C480.475,-27 489.489,-27 498.4,-27"/>
<polygon fill="midnightblue" stroke="midnightblue" points="471.605,-23.5001 461.605,-27 471.605,-30.5001 471.605,-23.5001"/>
</g>
<!-- Node5 -->
<g id="node5" class="node"><title>Node5</title>
<g id="a_node5"><a xlink:href="../../df/df8/class_cell_society_view.html#a2ee793e471cc5731ce39c1450f058dd5" target="_top" xlink:title="CellSocietyView.parseFile">
<polygon fill="white" stroke="black" points="698.5,-38.5 698.5,-57.5 833.5,-57.5 833.5,-38.5 698.5,-38.5"/>
<text text-anchor="middle" x="766" y="-45.5" font-family="Helvetica,sans-Serif" font-size="10.00">CellSocietyView.parseFile</text>
</a>
</g>
</g>
<!-- Node4&#45;&gt;Node5 -->
<g id="edge4" class="edge"><title>Node4&#45;&gt;Node5</title>
<path fill="none" stroke="midnightblue" d="M671.807,-37.3639C680.777,-38.3876 689.762,-39.413 698.42,-40.4012"/>
<polygon fill="midnightblue" stroke="midnightblue" points="672.037,-33.8675 661.705,-36.2109 671.244,-40.8224 672.037,-33.8675"/>
</g>
<!-- Node6 -->
<g id="node6" class="node"><title>Node6</title>
<g id="a_node6"><a xlink:href="../../df/df8/class_cell_society_view.html#a2c047a3972078bb0a5490ed225ef2dfa" target="_top" xlink:title="CellSocietyView.loadNewFile">
<polygon fill="white" stroke="black" points="870.5,-39.5 870.5,-58.5 1019.5,-58.5 1019.5,-39.5 870.5,-39.5"/>
<text text-anchor="middle" x="945" y="-46.5" font-family="Helvetica,sans-Serif" font-size="10.00">CellSocietyView.loadNewFile</text>
</a>
</g>
</g>
<!-- Node5&#45;&gt;Node6 -->
<g id="edge5" class="edge"><title>Node5&#45;&gt;Node6</title>
<path fill="none" stroke="midnightblue" d="M843.865,-48.4343C852.633,-48.4838 861.557,-48.5342 870.283,-48.5835"/>
<polygon fill="midnightblue" stroke="midnightblue" points="843.684,-44.9333 833.664,-48.3766 843.644,-51.9332 843.684,-44.9333"/>
</g>
<!-- Node7 -->
<g id="node7" class="node"><title>Node7</title>
<g id="a_node7"><a xlink:href="../../df/df8/class_cell_society_view.html#a656cfed0ba32bc41bbd0c4087860db4b" target="_top" xlink:title="CellSocietyView.makeLoad\lButton">
<polygon fill="white" stroke="black" points="1056.5,-36 1056.5,-66 1199.5,-66 1199.5,-36 1056.5,-36"/>
<text text-anchor="start" x="1064.5" y="-54" font-family="Helvetica,sans-Serif" font-size="10.00">CellSocietyView.makeLoad</text>
<text text-anchor="middle" x="1128" y="-43" font-family="Helvetica,sans-Serif" font-size="10.00">Button</text>
</a>
</g>
</g>
<!-- Node6&#45;&gt;Node7 -->
<g id="edge6" class="edge"><title>Node6&#45;&gt;Node7</title>
<path fill="none" stroke="midnightblue" d="M1029.65,-49.9243C1038.59,-50.023 1047.61,-50.1228 1056.37,-50.2196"/>
<polygon fill="midnightblue" stroke="midnightblue" points="1029.66,-46.4243 1019.62,-49.8135 1029.58,-53.4239 1029.66,-46.4243"/>
</g>
<!-- Node8 -->
<g id="node8" class="node"><title>Node8</title>
<g id="a_node8"><a xlink:href="../../df/df8/class_cell_society_view.html#a53ab66afdeb23b3fc89e54a44be7ced5" target="_top" xlink:title="CellSocietyView.CellSocietyView">
<polygon fill="white" stroke="black" points="1236.5,-41.5 1236.5,-60.5 1403.5,-60.5 1403.5,-41.5 1236.5,-41.5"/>
<text text-anchor="middle" x="1320" y="-48.5" font-family="Helvetica,sans-Serif" font-size="10.00">CellSocietyView.CellSocietyView</text>
</a>
</g>
</g>
<!-- Node7&#45;&gt;Node8 -->
<g id="edge7" class="edge"><title>Node7&#45;&gt;Node8</title>
<path fill="none" stroke="midnightblue" d="M1209.92,-51C1218.66,-51 1227.57,-51 1236.33,-51"/>
<polygon fill="midnightblue" stroke="midnightblue" points="1209.75,-47.5001 1199.75,-51 1209.75,-54.5001 1209.75,-47.5001"/>
</g>
<!-- Node9 -->
<g id="node9" class="node"><title>Node9</title>
<g id="a_node9"><a xlink:href="../../df/df8/class_cell_society_view.html#a7bdbd4e8fd3893e672eb22015603f6dc" target="_top" xlink:title="CellSocietyView.makeButtons">
<polygon fill="white" stroke="black" points="1241,-0.5 1241,-19.5 1399,-19.5 1399,-0.5 1241,-0.5"/>
<text text-anchor="middle" x="1320" y="-7.5" font-family="Helvetica,sans-Serif" font-size="10.00">CellSocietyView.makeButtons</text>
</a>
</g>
</g>
<!-- Node7&#45;&gt;Node9 -->
<g id="edge8" class="edge"><title>Node7&#45;&gt;Node9</title>
<path fill="none" stroke="midnightblue" d="M1208.61,-33.8204C1231.22,-28.941 1255.03,-23.8039 1274.72,-19.5545"/>
<polygon fill="midnightblue" stroke="midnightblue" points="1207.71,-30.4353 1198.67,-35.9659 1209.18,-37.2778 1207.71,-30.4353"/>
</g>
<!-- Node9&#45;&gt;Node4 -->
<g id="edge9" class="edge"><title>Node9&#45;&gt;Node4</title>
<path fill="none" stroke="midnightblue" d="M1230.59,-12.0365C1086.02,-15.3669 801.169,-21.9284 661.737,-25.1402"/>
<polygon fill="midnightblue" stroke="midnightblue" points="1230.84,-15.5319 1240.75,-11.8024 1230.68,-8.53371 1230.84,-15.5319"/>
</g>
</g>
</svg>
