<?xml version="1.0" encoding="UTF-8" standalone="no"?>
<!DOCTYPE svg PUBLIC "-//W3C//DTD SVG 1.1//EN"
 "http://www.w3.org/Graphics/SVG/1.1/DTD/svg11.dtd">
<!-- Generated by graphviz version 2.36.0 (20140111.2315)
 -->
<!-- Title: GridDrawer.calculateCellHeight Pages: 1 -->
<svg width="500pt" height="38pt"
 viewBox="0.00 0.00 500.00 38.00" xmlns="http://www.w3.org/2000/svg" xmlns:xlink="http://www.w3.org/1999/xlink">
<g id="graph0" class="graph" transform="scale(1 1) rotate(0) translate(4 34)">
<title>GridDrawer.calculateCellHeight</title>
<polygon fill="white" stroke="none" points="-4,4 -4,-34 496,-34 496,4 -4,4"/>
<!-- Node1 -->
<g id="node1" class="node"><title>Node1</title>
<polygon fill="#bfbfbf" stroke="black" points="0,-0 0,-30 132,-30 132,-0 0,-0"/>
<text text-anchor="start" x="8" y="-18" font-family="Helvetica,sans-Serif" font-size="10.00">GridDrawer.calculateCell</text>
<text text-anchor="middle" x="66" y="-7" font-family="Helvetica,sans-Serif" font-size="10.00">Height</text>
</g>
<!-- Node2 -->
<g id="node2" class="node"><title>Node2</title>
<g id="a_node2"><a xlink:href="../../dd/d97/class_grid_drawer.html#ab8aa1cc79c89cfbc7b9d8516a5dee463" target="_top" xlink:title="GridDrawer.makeGrid">
<polygon fill="white" stroke="black" points="168.5,-5.5 168.5,-24.5 287.5,-24.5 287.5,-5.5 168.5,-5.5"/>
<text text-anchor="middle" x="228" y="-12.5" font-family="Helvetica,sans-Serif" font-size="10.00">GridDrawer.makeGrid</text>
</a>
</g>
</g>
<!-- Node1&#45;&gt;Node2 -->
<g id="edge1" class="edge"><title>Node1&#45;&gt;Node2</title>
<path fill="none" stroke="midnightblue" d="M142.31,-15C151.078,-15 159.92,-15 168.415,-15"/>
<polygon fill="midnightblue" stroke="midnightblue" points="142.078,-11.5001 132.078,-15 142.078,-18.5001 142.078,-11.5001"/>
</g>
<!-- Node3 -->
<g id="node3" class="node"><title>Node3</title>
<g id="a_node3"><a xlink:href="../../df/df8/class_cell_society_view.html#abe7bcd77ca077f5e5e0f9946eea96406" target="_top" xlink:title="CellSocietyView.CellSocietyView">
<polygon fill="white" stroke="black" points="324.5,-5.5 324.5,-24.5 491.5,-24.5 491.5,-5.5 324.5,-5.5"/>
<text text-anchor="middle" x="408" y="-12.5" font-family="Helvetica,sans-Serif" font-size="10.00">CellSocietyView.CellSocietyView</text>
</a>
</g>
</g>
<!-- Node2&#45;&gt;Node3 -->
<g id="edge2" class="edge"><title>Node2&#45;&gt;Node3</title>
<path fill="none" stroke="midnightblue" d="M297.856,-15C306.567,-15 315.549,-15 324.444,-15"/>
<polygon fill="midnightblue" stroke="midnightblue" points="297.777,-11.5001 287.777,-15 297.777,-18.5001 297.777,-11.5001"/>
</g>
</g>
</svg>
