<?xml version="1.0" encoding="UTF-8" standalone="no"?>
<!DOCTYPE svg PUBLIC "-//W3C//DTD SVG 1.1//EN"
 "http://www.w3.org/Graphics/SVG/1.1/DTD/svg11.dtd">
<!-- Generated by graphviz version 2.36.0 (20140111.2315)
 -->
<!-- Title: GridDrawer.calculateCellHeight Pages: 1 -->
<svg width="1238pt" height="74pt"
 viewBox="0.00 0.00 1238.00 74.00" xmlns="http://www.w3.org/2000/svg" xmlns:xlink="http://www.w3.org/1999/xlink">
<g id="graph0" class="graph" transform="scale(1 1) rotate(0) translate(4 70)">
<title>GridDrawer.calculateCellHeight</title>
<polygon fill="white" stroke="none" points="-4,4 -4,-70 1234,-70 1234,4 -4,4"/>
<!-- Node1 -->
<g id="node1" class="node"><title>Node1</title>
<polygon fill="#bfbfbf" stroke="black" points="0,-12 0,-42 132,-42 132,-12 0,-12"/>
<text text-anchor="start" x="8" y="-30" font-family="Helvetica,sans-Serif" font-size="10.00">GridDrawer.calculateCell</text>
<text text-anchor="middle" x="66" y="-19" font-family="Helvetica,sans-Serif" font-size="10.00">Height</text>
</g>
<!-- Node2 -->
<g id="node2" class="node"><title>Node2</title>
<g id="a_node2"><a xlink:href="../../dd/d97/class_grid_drawer.html#ab8aa1cc79c89cfbc7b9d8516a5dee463" target="_top" xlink:title="GridDrawer.makeGrid">
<polygon fill="white" stroke="black" points="168.5,-17.5 168.5,-36.5 287.5,-36.5 287.5,-17.5 168.5,-17.5"/>
<text text-anchor="middle" x="228" y="-24.5" font-family="Helvetica,sans-Serif" font-size="10.00">GridDrawer.makeGrid</text>
</a>
</g>
</g>
<!-- Node1&#45;&gt;Node2 -->
<g id="edge1" class="edge"><title>Node1&#45;&gt;Node2</title>
<path fill="none" stroke="midnightblue" d="M142.31,-27C151.078,-27 159.92,-27 168.415,-27"/>
<polygon fill="midnightblue" stroke="midnightblue" points="142.078,-23.5001 132.078,-27 142.078,-30.5001 142.078,-23.5001"/>
</g>
<!-- Node3 -->
<g id="node3" class="node"><title>Node3</title>
<g id="a_node3"><a xlink:href="../../df/df8/class_cell_society_view.html#a767ab215ca329ba41b1493702141f841" target="_top" xlink:title="CellSocietyView.makeCAGame">
<polygon fill="white" stroke="black" points="324.5,-17.5 324.5,-36.5 487.5,-36.5 487.5,-17.5 324.5,-17.5"/>
<text text-anchor="middle" x="406" y="-24.5" font-family="Helvetica,sans-Serif" font-size="10.00">CellSocietyView.makeCAGame</text>
</a>
</g>
</g>
<!-- Node2&#45;&gt;Node3 -->
<g id="edge2" class="edge"><title>Node2&#45;&gt;Node3</title>
<path fill="none" stroke="midnightblue" d="M297.728,-27C306.475,-27 315.489,-27 324.4,-27"/>
<polygon fill="midnightblue" stroke="midnightblue" points="297.605,-23.5001 287.605,-27 297.605,-30.5001 297.605,-23.5001"/>
</g>
<!-- Node4 -->
<g id="node4" class="node"><title>Node4</title>
<g id="a_node4"><a xlink:href="../../df/df8/class_cell_society_view.html#a2ee793e471cc5731ce39c1450f058dd5" target="_top" xlink:title="CellSocietyView.parseFile">
<polygon fill="white" stroke="black" points="524.5,-38.5 524.5,-57.5 659.5,-57.5 659.5,-38.5 524.5,-38.5"/>
<text text-anchor="middle" x="592" y="-45.5" font-family="Helvetica,sans-Serif" font-size="10.00">CellSocietyView.parseFile</text>
</a>
</g>
</g>
<!-- Node3&#45;&gt;Node4 -->
<g id="edge3" class="edge"><title>Node3&#45;&gt;Node4</title>
<path fill="none" stroke="midnightblue" d="M497.807,-37.3639C506.777,-38.3876 515.762,-39.413 524.42,-40.4012"/>
<polygon fill="midnightblue" stroke="midnightblue" points="498.037,-33.8675 487.705,-36.2109 497.244,-40.8224 498.037,-33.8675"/>
</g>
<!-- Node5 -->
<g id="node5" class="node"><title>Node5</title>
<g id="a_node5"><a xlink:href="../../df/df8/class_cell_society_view.html#a2c047a3972078bb0a5490ed225ef2dfa" target="_top" xlink:title="CellSocietyView.loadNewFile">
<polygon fill="white" stroke="black" points="696.5,-39.5 696.5,-58.5 845.5,-58.5 845.5,-39.5 696.5,-39.5"/>
<text text-anchor="middle" x="771" y="-46.5" font-family="Helvetica,sans-Serif" font-size="10.00">CellSocietyView.loadNewFile</text>
</a>
</g>
</g>
<!-- Node4&#45;&gt;Node5 -->
<g id="edge4" class="edge"><title>Node4&#45;&gt;Node5</title>
<path fill="none" stroke="midnightblue" d="M669.865,-48.4343C678.633,-48.4838 687.557,-48.5342 696.283,-48.5835"/>
<polygon fill="midnightblue" stroke="midnightblue" points="669.684,-44.9333 659.664,-48.3766 669.644,-51.9332 669.684,-44.9333"/>
</g>
<!-- Node6 -->
<g id="node6" class="node"><title>Node6</title>
<g id="a_node6"><a xlink:href="../../df/df8/class_cell_society_view.html#a656cfed0ba32bc41bbd0c4087860db4b" target="_top" xlink:title="CellSocietyView.makeLoad\lButton">
<polygon fill="white" stroke="black" points="882.5,-36 882.5,-66 1025.5,-66 1025.5,-36 882.5,-36"/>
<text text-anchor="start" x="890.5" y="-54" font-family="Helvetica,sans-Serif" font-size="10.00">CellSocietyView.makeLoad</text>
<text text-anchor="middle" x="954" y="-43" font-family="Helvetica,sans-Serif" font-size="10.00">Button</text>
</a>
</g>
</g>
<!-- Node5&#45;&gt;Node6 -->
<g id="edge5" class="edge"><title>Node5&#45;&gt;Node6</title>
<path fill="none" stroke="midnightblue" d="M855.651,-49.9243C864.585,-50.023 873.61,-50.1228 882.373,-50.2196"/>
<polygon fill="midnightblue" stroke="midnightblue" points="855.658,-46.4243 845.62,-49.8135 855.58,-53.4239 855.658,-46.4243"/>
</g>
<!-- Node7 -->
<g id="node7" class="node"><title>Node7</title>
<g id="a_node7"><a xlink:href="../../df/df8/class_cell_society_view.html#a53ab66afdeb23b3fc89e54a44be7ced5" target="_top" xlink:title="CellSocietyView.CellSocietyView">
<polygon fill="white" stroke="black" points="1062.5,-41.5 1062.5,-60.5 1229.5,-60.5 1229.5,-41.5 1062.5,-41.5"/>
<text text-anchor="middle" x="1146" y="-48.5" font-family="Helvetica,sans-Serif" font-size="10.00">CellSocietyView.CellSocietyView</text>
</a>
</g>
</g>
<!-- Node6&#45;&gt;Node7 -->
<g id="edge6" class="edge"><title>Node6&#45;&gt;Node7</title>
<path fill="none" stroke="midnightblue" d="M1035.92,-51C1044.66,-51 1053.57,-51 1062.33,-51"/>
<polygon fill="midnightblue" stroke="midnightblue" points="1035.75,-47.5001 1025.75,-51 1035.75,-54.5001 1035.75,-47.5001"/>
</g>
<!-- Node8 -->
<g id="node8" class="node"><title>Node8</title>
<g id="a_node8"><a xlink:href="../../df/df8/class_cell_society_view.html#a7bdbd4e8fd3893e672eb22015603f6dc" target="_top" xlink:title="CellSocietyView.makeButtons">
<polygon fill="white" stroke="black" points="1067,-0.5 1067,-19.5 1225,-19.5 1225,-0.5 1067,-0.5"/>
<text text-anchor="middle" x="1146" y="-7.5" font-family="Helvetica,sans-Serif" font-size="10.00">CellSocietyView.makeButtons</text>
</a>
</g>
</g>
<!-- Node6&#45;&gt;Node8 -->
<g id="edge7" class="edge"><title>Node6&#45;&gt;Node8</title>
<path fill="none" stroke="midnightblue" d="M1034.61,-33.8204C1057.22,-28.941 1081.03,-23.8039 1100.72,-19.5545"/>
<polygon fill="midnightblue" stroke="midnightblue" points="1033.71,-30.4353 1024.67,-35.9659 1035.18,-37.2778 1033.71,-30.4353"/>
</g>
<!-- Node8&#45;&gt;Node3 -->
<g id="edge8" class="edge"><title>Node8&#45;&gt;Node3</title>
<path fill="none" stroke="midnightblue" d="M1056.59,-12.0365C912.015,-15.3669 627.169,-21.9284 487.737,-25.1402"/>
<polygon fill="midnightblue" stroke="midnightblue" points="1056.84,-15.5319 1066.75,-11.8024 1056.68,-8.53371 1056.84,-15.5319"/>
</g>
</g>
</svg>
