<?xml version="1.0" encoding="UTF-8" standalone="no"?>
<!DOCTYPE svg PUBLIC "-//W3C//DTD SVG 1.1//EN"
 "http://www.w3.org/Graphics/SVG/1.1/DTD/svg11.dtd">
<!-- Generated by graphviz version 2.36.0 (20140111.2315)
 -->
<!-- Title: GridDrawer.drawHexagon Pages: 1 -->
<svg width="848pt" height="28pt"
 viewBox="0.00 0.00 848.00 28.00" xmlns="http://www.w3.org/2000/svg" xmlns:xlink="http://www.w3.org/1999/xlink">
<g id="graph0" class="graph" transform="scale(1 1) rotate(0) translate(4 24)">
<title>GridDrawer.drawHexagon</title>
<polygon fill="white" stroke="none" points="-4,4 -4,-24 844,-24 844,4 -4,4"/>
<!-- Node1 -->
<g id="node1" class="node"><title>Node1</title>
<polygon fill="#bfbfbf" stroke="black" points="0.5,-0.5 0.5,-19.5 137.5,-19.5 137.5,-0.5 0.5,-0.5"/>
<text text-anchor="middle" x="69" y="-7.5" font-family="Helvetica,sans-Serif" font-size="10.00">GridDrawer.drawHexagon</text>
</g>
<!-- Node2 -->
<g id="node2" class="node"><title>Node2</title>
<g id="a_node2"><a xlink:href="../../dd/d97/class_grid_drawer.html#a69ef437bdcbcdb3dca6b206b73a1ab1f" target="_top" xlink:title="GridDrawer.drawUnitCell">
<polygon fill="white" stroke="black" points="174.5,-0.5 174.5,-19.5 305.5,-19.5 305.5,-0.5 174.5,-0.5"/>
<text text-anchor="middle" x="240" y="-7.5" font-family="Helvetica,sans-Serif" font-size="10.00">GridDrawer.drawUnitCell</text>
</a>
</g>
</g>
<!-- Node1&#45;&gt;Node2 -->
<g id="edge1" class="edge"><title>Node1&#45;&gt;Node2</title>
<path fill="none" stroke="midnightblue" d="M148.004,-10C156.783,-10 165.655,-10 174.24,-10"/>
<polygon fill="midnightblue" stroke="midnightblue" points="147.765,-6.5001 137.765,-10 147.765,-13.5001 147.765,-6.5001"/>
</g>
<!-- Node3 -->
<g id="node3" class="node"><title>Node3</title>
<g id="a_node3"><a xlink:href="../../dd/d97/class_grid_drawer.html#af9a09b2ee81450f13a117261b67718e0" target="_top" xlink:title="GridDrawer.makeUnitGrid">
<polygon fill="white" stroke="black" points="342,-0.5 342,-19.5 480,-19.5 480,-0.5 342,-0.5"/>
<text text-anchor="middle" x="411" y="-7.5" font-family="Helvetica,sans-Serif" font-size="10.00">GridDrawer.makeUnitGrid</text>
</a>
</g>
</g>
<!-- Node2&#45;&gt;Node3 -->
<g id="edge2" class="edge"><title>Node2&#45;&gt;Node3</title>
<path fill="none" stroke="midnightblue" d="M315.938,-10C324.597,-10 333.393,-10 341.954,-10"/>
<polygon fill="midnightblue" stroke="midnightblue" points="315.857,-6.5001 305.856,-10 315.856,-13.5001 315.857,-6.5001"/>
</g>
<!-- Node4 -->
<g id="node4" class="node"><title>Node4</title>
<g id="a_node4"><a xlink:href="../../dd/d97/class_grid_drawer.html#ab8aa1cc79c89cfbc7b9d8516a5dee463" target="_top" xlink:title="GridDrawer.makeGrid">
<polygon fill="white" stroke="black" points="516.5,-0.5 516.5,-19.5 635.5,-19.5 635.5,-0.5 516.5,-0.5"/>
<text text-anchor="middle" x="576" y="-7.5" font-family="Helvetica,sans-Serif" font-size="10.00">GridDrawer.makeGrid</text>
</a>
</g>
</g>
<!-- Node3&#45;&gt;Node4 -->
<g id="edge3" class="edge"><title>Node3&#45;&gt;Node4</title>
<path fill="none" stroke="midnightblue" d="M490.41,-10C499.163,-10 507.962,-10 516.405,-10"/>
<polygon fill="midnightblue" stroke="midnightblue" points="490.182,-6.5001 480.182,-10 490.182,-13.5001 490.182,-6.5001"/>
</g>
<!-- Node5 -->
<g id="node5" class="node"><title>Node5</title>
<g id="a_node5"><a xlink:href="../../df/df8/class_cell_society_view.html#abe7bcd77ca077f5e5e0f9946eea96406" target="_top" xlink:title="CellSocietyView.CellSocietyView">
<polygon fill="white" stroke="black" points="672.5,-0.5 672.5,-19.5 839.5,-19.5 839.5,-0.5 672.5,-0.5"/>
<text text-anchor="middle" x="756" y="-7.5" font-family="Helvetica,sans-Serif" font-size="10.00">CellSocietyView.CellSocietyView</text>
</a>
</g>
</g>
<!-- Node4&#45;&gt;Node5 -->
<g id="edge4" class="edge"><title>Node4&#45;&gt;Node5</title>
<path fill="none" stroke="midnightblue" d="M645.856,-10C654.567,-10 663.549,-10 672.444,-10"/>
<polygon fill="midnightblue" stroke="midnightblue" points="645.777,-6.5001 635.777,-10 645.777,-13.5001 645.777,-6.5001"/>
</g>
</g>
</svg>
