<?xml version="1.0" encoding="UTF-8" standalone="no"?>
<!DOCTYPE svg PUBLIC "-//W3C//DTD SVG 1.1//EN"
 "http://www.w3.org/Graphics/SVG/1.1/DTD/svg11.dtd">
<!-- Generated by graphviz version 2.36.0 (20140111.2315)
 -->
<!-- Title: GridDrawer.updateNextGen Pages: 1 -->
<svg width="288pt" height="66pt"
 viewBox="0.00 0.00 288.00 66.00" xmlns="http://www.w3.org/2000/svg" xmlns:xlink="http://www.w3.org/1999/xlink">
<g id="graph0" class="graph" transform="scale(1 1) rotate(0) translate(4 62)">
<title>GridDrawer.updateNextGen</title>
<polygon fill="white" stroke="none" points="-4,4 -4,-62 284,-62 284,4 -4,4"/>
<!-- Node1 -->
<g id="node1" class="node"><title>Node1</title>
<polygon fill="#bfbfbf" stroke="black" points="0,-19.5 0,-38.5 148,-38.5 148,-19.5 0,-19.5"/>
<text text-anchor="middle" x="74" y="-26.5" font-family="Helvetica,sans-Serif" font-size="10.00">GridDrawer.updateNextGen</text>
</g>
<!-- Node2 -->
<g id="node2" class="node"><title>Node2</title>
<g id="a_node2"><a xlink:href="../../da/d74/class_grid.html#aba1e1b4dba7072955cad21806ef1c753" target="_top" xlink:title="Grid.getCells">
<polygon fill="white" stroke="black" points="193.5,-38.5 193.5,-57.5 270.5,-57.5 270.5,-38.5 193.5,-38.5"/>
<text text-anchor="middle" x="232" y="-45.5" font-family="Helvetica,sans-Serif" font-size="10.00">Grid.getCells</text>
</a>
</g>
</g>
<!-- Node1&#45;&gt;Node2 -->
<g id="edge1" class="edge"><title>Node1&#45;&gt;Node2</title>
<path fill="none" stroke="midnightblue" d="M148.432,-37.9436C160.17,-39.3733 172.046,-40.8197 182.993,-42.153"/>
<polygon fill="midnightblue" stroke="midnightblue" points="182.818,-45.6575 193.168,-43.3923 183.665,-38.7089 182.818,-45.6575"/>
</g>
<!-- Node3 -->
<g id="node3" class="node"><title>Node3</title>
<g id="a_node3"><a xlink:href="../../da/d74/class_grid.html#a5f4c70cc0b2718fca839fd8755fcfff4" target="_top" xlink:title="Grid.getGridSize">
<polygon fill="white" stroke="black" points="184.5,-0.5 184.5,-19.5 279.5,-19.5 279.5,-0.5 184.5,-0.5"/>
<text text-anchor="middle" x="232" y="-7.5" font-family="Helvetica,sans-Serif" font-size="10.00">Grid.getGridSize</text>
</a>
</g>
</g>
<!-- Node1&#45;&gt;Node3 -->
<g id="edge2" class="edge"><title>Node1&#45;&gt;Node3</title>
<path fill="none" stroke="midnightblue" d="M148.432,-20.0564C157.084,-19.0026 165.812,-17.9396 174.186,-16.9196"/>
<polygon fill="midnightblue" stroke="midnightblue" points="174.695,-20.3837 184.198,-15.7002 173.848,-13.435 174.695,-20.3837"/>
</g>
</g>
</svg>
