<?xml version="1.0" encoding="UTF-8" standalone="no"?>
<!DOCTYPE svg PUBLIC "-//W3C//DTD SVG 1.1//EN"
 "http://www.w3.org/Graphics/SVG/1.1/DTD/svg11.dtd">
<!-- Generated by graphviz version 2.36.0 (20140111.2315)
 -->
<!-- Title: GridDrawer.scale Pages: 1 -->
<svg width="1032pt" height="74pt"
 viewBox="0.00 0.00 1032.00 74.00" xmlns="http://www.w3.org/2000/svg" xmlns:xlink="http://www.w3.org/1999/xlink">
<g id="graph0" class="graph" transform="scale(1 1) rotate(0) translate(4 70)">
<title>GridDrawer.scale</title>
<polygon fill="white" stroke="none" points="-4,4 -4,-70 1028,-70 1028,4 -4,4"/>
<!-- Node1 -->
<g id="node1" class="node"><title>Node1</title>
<polygon fill="#bfbfbf" stroke="black" points="0.5,-17.5 0.5,-36.5 97.5,-36.5 97.5,-17.5 0.5,-17.5"/>
<text text-anchor="middle" x="49" y="-24.5" font-family="Helvetica,sans-Serif" font-size="10.00">GridDrawer.scale</text>
</g>
<!-- Node2 -->
<g id="node2" class="node"><title>Node2</title>
<g id="a_node2"><a xlink:href="../../dd/d97/class_grid_drawer.html#ab8aa1cc79c89cfbc7b9d8516a5dee463" target="_top" xlink:title="GridDrawer.makeGrid">
<polygon fill="white" stroke="black" points="134.5,-17.5 134.5,-36.5 253.5,-36.5 253.5,-17.5 134.5,-17.5"/>
<text text-anchor="middle" x="194" y="-24.5" font-family="Helvetica,sans-Serif" font-size="10.00">GridDrawer.makeGrid</text>
</a>
</g>
</g>
<!-- Node1&#45;&gt;Node2 -->
<g id="edge1" class="edge"><title>Node1&#45;&gt;Node2</title>
<path fill="none" stroke="midnightblue" d="M107.756,-27C116.533,-27 125.598,-27 134.393,-27"/>
<polygon fill="midnightblue" stroke="midnightblue" points="107.617,-23.5001 97.6169,-27 107.617,-30.5001 107.617,-23.5001"/>
</g>
<!-- Node3 -->
<g id="node3" class="node"><title>Node3</title>
<g id="a_node3"><a xlink:href="../../df/df8/class_cell_society_view.html#a6a72ed4ee014a9c3f0368ab26be873d6" target="_top" xlink:title="CellSocietyView.makeCAGame">
<polygon fill="white" stroke="black" points="290.5,-17.5 290.5,-36.5 453.5,-36.5 453.5,-17.5 290.5,-17.5"/>
<text text-anchor="middle" x="372" y="-24.5" font-family="Helvetica,sans-Serif" font-size="10.00">CellSocietyView.makeCAGame</text>
</a>
</g>
</g>
<!-- Node2&#45;&gt;Node3 -->
<g id="edge2" class="edge"><title>Node2&#45;&gt;Node3</title>
<path fill="none" stroke="midnightblue" d="M263.728,-27C272.475,-27 281.489,-27 290.4,-27"/>
<polygon fill="midnightblue" stroke="midnightblue" points="263.605,-23.5001 253.605,-27 263.605,-30.5001 263.605,-23.5001"/>
</g>
<!-- Node4 -->
<g id="node4" class="node"><title>Node4</title>
<g id="a_node4"><a xlink:href="../../df/df8/class_cell_society_view.html#a2c047a3972078bb0a5490ed225ef2dfa" target="_top" xlink:title="CellSocietyView.loadNewFile">
<polygon fill="white" stroke="black" points="490.5,-38.5 490.5,-57.5 639.5,-57.5 639.5,-38.5 490.5,-38.5"/>
<text text-anchor="middle" x="565" y="-45.5" font-family="Helvetica,sans-Serif" font-size="10.00">CellSocietyView.loadNewFile</text>
</a>
</g>
</g>
<!-- Node3&#45;&gt;Node4 -->
<g id="edge3" class="edge"><title>Node3&#45;&gt;Node4</title>
<path fill="none" stroke="midnightblue" d="M463.72,-36.9744C472.608,-37.9516 481.551,-38.935 490.241,-39.8904"/>
<polygon fill="midnightblue" stroke="midnightblue" points="464.047,-33.4894 453.724,-35.8755 463.282,-40.4475 464.047,-33.4894"/>
</g>
<!-- Node5 -->
<g id="node5" class="node"><title>Node5</title>
<g id="a_node5"><a xlink:href="../../df/df8/class_cell_society_view.html#a656cfed0ba32bc41bbd0c4087860db4b" target="_top" xlink:title="CellSocietyView.makeLoad\lButton">
<polygon fill="white" stroke="black" points="676.5,-36 676.5,-66 819.5,-66 819.5,-36 676.5,-36"/>
<text text-anchor="start" x="684.5" y="-54" font-family="Helvetica,sans-Serif" font-size="10.00">CellSocietyView.makeLoad</text>
<text text-anchor="middle" x="748" y="-43" font-family="Helvetica,sans-Serif" font-size="10.00">Button</text>
</a>
</g>
</g>
<!-- Node4&#45;&gt;Node5 -->
<g id="edge4" class="edge"><title>Node4&#45;&gt;Node5</title>
<path fill="none" stroke="midnightblue" d="M649.651,-49.3865C658.585,-49.5346 667.61,-49.6841 676.373,-49.8294"/>
<polygon fill="midnightblue" stroke="midnightblue" points="649.676,-45.8865 639.62,-49.2202 649.56,-52.8856 649.676,-45.8865"/>
</g>
<!-- Node6 -->
<g id="node6" class="node"><title>Node6</title>
<g id="a_node6"><a xlink:href="../../df/df8/class_cell_society_view.html#a53ab66afdeb23b3fc89e54a44be7ced5" target="_top" xlink:title="CellSocietyView.CellSocietyView">
<polygon fill="white" stroke="black" points="856.5,-41.5 856.5,-60.5 1023.5,-60.5 1023.5,-41.5 856.5,-41.5"/>
<text text-anchor="middle" x="940" y="-48.5" font-family="Helvetica,sans-Serif" font-size="10.00">CellSocietyView.CellSocietyView</text>
</a>
</g>
</g>
<!-- Node5&#45;&gt;Node6 -->
<g id="edge5" class="edge"><title>Node5&#45;&gt;Node6</title>
<path fill="none" stroke="midnightblue" d="M829.92,-51C838.663,-51 847.569,-51 856.332,-51"/>
<polygon fill="midnightblue" stroke="midnightblue" points="829.749,-47.5001 819.749,-51 829.749,-54.5001 829.749,-47.5001"/>
</g>
<!-- Node7 -->
<g id="node7" class="node"><title>Node7</title>
<g id="a_node7"><a xlink:href="../../df/df8/class_cell_society_view.html#a7bdbd4e8fd3893e672eb22015603f6dc" target="_top" xlink:title="CellSocietyView.makeButtons">
<polygon fill="white" stroke="black" points="861,-0.5 861,-19.5 1019,-19.5 1019,-0.5 861,-0.5"/>
<text text-anchor="middle" x="940" y="-7.5" font-family="Helvetica,sans-Serif" font-size="10.00">CellSocietyView.makeButtons</text>
</a>
</g>
</g>
<!-- Node5&#45;&gt;Node7 -->
<g id="edge6" class="edge"><title>Node5&#45;&gt;Node7</title>
<path fill="none" stroke="midnightblue" d="M828.613,-33.8204C851.224,-28.941 875.031,-23.8039 894.723,-19.5545"/>
<polygon fill="midnightblue" stroke="midnightblue" points="827.707,-30.4353 818.67,-35.9659 829.183,-37.2778 827.707,-30.4353"/>
</g>
<!-- Node7&#45;&gt;Node3 -->
<g id="edge7" class="edge"><title>Node7&#45;&gt;Node3</title>
<path fill="none" stroke="midnightblue" d="M850.41,-12.6608C741.676,-15.9267 558.835,-21.4184 453.793,-24.5733"/>
<polygon fill="midnightblue" stroke="midnightblue" points="850.806,-16.1506 860.697,-12.3519 850.596,-9.15376 850.806,-16.1506"/>
</g>
</g>
</svg>
