<?xml version="1.0" encoding="UTF-8" standalone="no"?>
<!DOCTYPE svg PUBLIC "-//W3C//DTD SVG 1.1//EN"
 "http://www.w3.org/Graphics/SVG/1.1/DTD/svg11.dtd">
<!-- Generated by graphviz version 2.36.0 (20140111.2315)
 -->
<!-- Title: GridDrawer.makeUnitGrid Pages: 1 -->
<svg width="1072pt" height="74pt"
 viewBox="0.00 0.00 1072.00 74.00" xmlns="http://www.w3.org/2000/svg" xmlns:xlink="http://www.w3.org/1999/xlink">
<g id="graph0" class="graph" transform="scale(1 1) rotate(0) translate(4 70)">
<title>GridDrawer.makeUnitGrid</title>
<polygon fill="white" stroke="none" points="-4,4 -4,-70 1068,-70 1068,4 -4,4"/>
<!-- Node1 -->
<g id="node1" class="node"><title>Node1</title>
<polygon fill="#bfbfbf" stroke="black" points="0,-17.5 0,-36.5 138,-36.5 138,-17.5 0,-17.5"/>
<text text-anchor="middle" x="69" y="-24.5" font-family="Helvetica,sans-Serif" font-size="10.00">GridDrawer.makeUnitGrid</text>
</g>
<!-- Node2 -->
<g id="node2" class="node"><title>Node2</title>
<g id="a_node2"><a xlink:href="../../dd/d97/class_grid_drawer.html#ab8aa1cc79c89cfbc7b9d8516a5dee463" target="_top" xlink:title="GridDrawer.makeGrid">
<polygon fill="white" stroke="black" points="174.5,-17.5 174.5,-36.5 293.5,-36.5 293.5,-17.5 174.5,-17.5"/>
<text text-anchor="middle" x="234" y="-24.5" font-family="Helvetica,sans-Serif" font-size="10.00">GridDrawer.makeGrid</text>
</a>
</g>
</g>
<!-- Node1&#45;&gt;Node2 -->
<g id="edge1" class="edge"><title>Node1&#45;&gt;Node2</title>
<path fill="none" stroke="midnightblue" d="M148.41,-27C157.163,-27 165.962,-27 174.405,-27"/>
<polygon fill="midnightblue" stroke="midnightblue" points="148.182,-23.5001 138.182,-27 148.182,-30.5001 148.182,-23.5001"/>
</g>
<!-- Node3 -->
<g id="node3" class="node"><title>Node3</title>
<g id="a_node3"><a xlink:href="../../df/df8/class_cell_society_view.html#a6a72ed4ee014a9c3f0368ab26be873d6" target="_top" xlink:title="CellSocietyView.makeCAGame">
<polygon fill="white" stroke="black" points="330.5,-17.5 330.5,-36.5 493.5,-36.5 493.5,-17.5 330.5,-17.5"/>
<text text-anchor="middle" x="412" y="-24.5" font-family="Helvetica,sans-Serif" font-size="10.00">CellSocietyView.makeCAGame</text>
</a>
</g>
</g>
<!-- Node2&#45;&gt;Node3 -->
<g id="edge2" class="edge"><title>Node2&#45;&gt;Node3</title>
<path fill="none" stroke="midnightblue" d="M303.728,-27C312.475,-27 321.489,-27 330.4,-27"/>
<polygon fill="midnightblue" stroke="midnightblue" points="303.605,-23.5001 293.605,-27 303.605,-30.5001 303.605,-23.5001"/>
</g>
<!-- Node4 -->
<g id="node4" class="node"><title>Node4</title>
<g id="a_node4"><a xlink:href="../../df/df8/class_cell_society_view.html#a2c047a3972078bb0a5490ed225ef2dfa" target="_top" xlink:title="CellSocietyView.loadNewFile">
<polygon fill="white" stroke="black" points="530.5,-38.5 530.5,-57.5 679.5,-57.5 679.5,-38.5 530.5,-38.5"/>
<text text-anchor="middle" x="605" y="-45.5" font-family="Helvetica,sans-Serif" font-size="10.00">CellSocietyView.loadNewFile</text>
</a>
</g>
</g>
<!-- Node3&#45;&gt;Node4 -->
<g id="edge3" class="edge"><title>Node3&#45;&gt;Node4</title>
<path fill="none" stroke="midnightblue" d="M503.72,-36.9744C512.608,-37.9516 521.551,-38.935 530.241,-39.8904"/>
<polygon fill="midnightblue" stroke="midnightblue" points="504.047,-33.4894 493.724,-35.8755 503.282,-40.4475 504.047,-33.4894"/>
</g>
<!-- Node5 -->
<g id="node5" class="node"><title>Node5</title>
<g id="a_node5"><a xlink:href="../../df/df8/class_cell_society_view.html#a656cfed0ba32bc41bbd0c4087860db4b" target="_top" xlink:title="CellSocietyView.makeLoad\lButton">
<polygon fill="white" stroke="black" points="716.5,-36 716.5,-66 859.5,-66 859.5,-36 716.5,-36"/>
<text text-anchor="start" x="724.5" y="-54" font-family="Helvetica,sans-Serif" font-size="10.00">CellSocietyView.makeLoad</text>
<text text-anchor="middle" x="788" y="-43" font-family="Helvetica,sans-Serif" font-size="10.00">Button</text>
</a>
</g>
</g>
<!-- Node4&#45;&gt;Node5 -->
<g id="edge4" class="edge"><title>Node4&#45;&gt;Node5</title>
<path fill="none" stroke="midnightblue" d="M689.651,-49.3865C698.585,-49.5346 707.61,-49.6841 716.373,-49.8294"/>
<polygon fill="midnightblue" stroke="midnightblue" points="689.676,-45.8865 679.62,-49.2202 689.56,-52.8856 689.676,-45.8865"/>
</g>
<!-- Node6 -->
<g id="node6" class="node"><title>Node6</title>
<g id="a_node6"><a xlink:href="../../df/df8/class_cell_society_view.html#a53ab66afdeb23b3fc89e54a44be7ced5" target="_top" xlink:title="CellSocietyView.CellSocietyView">
<polygon fill="white" stroke="black" points="896.5,-41.5 896.5,-60.5 1063.5,-60.5 1063.5,-41.5 896.5,-41.5"/>
<text text-anchor="middle" x="980" y="-48.5" font-family="Helvetica,sans-Serif" font-size="10.00">CellSocietyView.CellSocietyView</text>
</a>
</g>
</g>
<!-- Node5&#45;&gt;Node6 -->
<g id="edge5" class="edge"><title>Node5&#45;&gt;Node6</title>
<path fill="none" stroke="midnightblue" d="M869.92,-51C878.663,-51 887.569,-51 896.332,-51"/>
<polygon fill="midnightblue" stroke="midnightblue" points="869.749,-47.5001 859.749,-51 869.749,-54.5001 869.749,-47.5001"/>
</g>
<!-- Node7 -->
<g id="node7" class="node"><title>Node7</title>
<g id="a_node7"><a xlink:href="../../df/df8/class_cell_society_view.html#a7bdbd4e8fd3893e672eb22015603f6dc" target="_top" xlink:title="CellSocietyView.makeButtons">
<polygon fill="white" stroke="black" points="901,-0.5 901,-19.5 1059,-19.5 1059,-0.5 901,-0.5"/>
<text text-anchor="middle" x="980" y="-7.5" font-family="Helvetica,sans-Serif" font-size="10.00">CellSocietyView.makeButtons</text>
</a>
</g>
</g>
<!-- Node5&#45;&gt;Node7 -->
<g id="edge6" class="edge"><title>Node5&#45;&gt;Node7</title>
<path fill="none" stroke="midnightblue" d="M868.613,-33.8204C891.224,-28.941 915.031,-23.8039 934.723,-19.5545"/>
<polygon fill="midnightblue" stroke="midnightblue" points="867.707,-30.4353 858.67,-35.9659 869.183,-37.2778 867.707,-30.4353"/>
</g>
<!-- Node7&#45;&gt;Node3 -->
<g id="edge7" class="edge"><title>Node7&#45;&gt;Node3</title>
<path fill="none" stroke="midnightblue" d="M890.41,-12.6608C781.676,-15.9267 598.835,-21.4184 493.793,-24.5733"/>
<polygon fill="midnightblue" stroke="midnightblue" points="890.806,-16.1506 900.697,-12.3519 890.596,-9.15376 890.806,-16.1506"/>
</g>
</g>
</svg>
