<?xml version="1.0" encoding="UTF-8" standalone="no"?>
<!DOCTYPE svg PUBLIC "-//W3C//DTD SVG 1.1//EN"
 "http://www.w3.org/Graphics/SVG/1.1/DTD/svg11.dtd">
<!-- Generated by graphviz version 2.36.0 (20140111.2315)
 -->
<!-- Title: GridDrawer.calculateCellWidth Pages: 1 -->
<svg width="1066pt" height="74pt"
 viewBox="0.00 0.00 1066.00 74.00" xmlns="http://www.w3.org/2000/svg" xmlns:xlink="http://www.w3.org/1999/xlink">
<g id="graph0" class="graph" transform="scale(1 1) rotate(0) translate(4 70)">
<title>GridDrawer.calculateCellWidth</title>
<polygon fill="white" stroke="none" points="-4,4 -4,-70 1062,-70 1062,4 -4,4"/>
<!-- Node1 -->
<g id="node1" class="node"><title>Node1</title>
<polygon fill="#bfbfbf" stroke="black" points="0,-12 0,-42 132,-42 132,-12 0,-12"/>
<text text-anchor="start" x="8" y="-30" font-family="Helvetica,sans-Serif" font-size="10.00">GridDrawer.calculateCell</text>
<text text-anchor="middle" x="66" y="-19" font-family="Helvetica,sans-Serif" font-size="10.00">Width</text>
</g>
<!-- Node2 -->
<g id="node2" class="node"><title>Node2</title>
<g id="a_node2"><a xlink:href="../../dd/d97/class_grid_drawer.html#ab8aa1cc79c89cfbc7b9d8516a5dee463" target="_top" xlink:title="GridDrawer.makeGrid">
<polygon fill="white" stroke="black" points="168.5,-17.5 168.5,-36.5 287.5,-36.5 287.5,-17.5 168.5,-17.5"/>
<text text-anchor="middle" x="228" y="-24.5" font-family="Helvetica,sans-Serif" font-size="10.00">GridDrawer.makeGrid</text>
</a>
</g>
</g>
<!-- Node1&#45;&gt;Node2 -->
<g id="edge1" class="edge"><title>Node1&#45;&gt;Node2</title>
<path fill="none" stroke="midnightblue" d="M142.31,-27C151.078,-27 159.92,-27 168.415,-27"/>
<polygon fill="midnightblue" stroke="midnightblue" points="142.078,-23.5001 132.078,-27 142.078,-30.5001 142.078,-23.5001"/>
</g>
<!-- Node3 -->
<g id="node3" class="node"><title>Node3</title>
<g id="a_node3"><a xlink:href="../../df/df8/class_cell_society_view.html#a6a72ed4ee014a9c3f0368ab26be873d6" target="_top" xlink:title="CellSocietyView.makeCAGame">
<polygon fill="white" stroke="black" points="324.5,-17.5 324.5,-36.5 487.5,-36.5 487.5,-17.5 324.5,-17.5"/>
<text text-anchor="middle" x="406" y="-24.5" font-family="Helvetica,sans-Serif" font-size="10.00">CellSocietyView.makeCAGame</text>
</a>
</g>
</g>
<!-- Node2&#45;&gt;Node3 -->
<g id="edge2" class="edge"><title>Node2&#45;&gt;Node3</title>
<path fill="none" stroke="midnightblue" d="M297.728,-27C306.475,-27 315.489,-27 324.4,-27"/>
<polygon fill="midnightblue" stroke="midnightblue" points="297.605,-23.5001 287.605,-27 297.605,-30.5001 297.605,-23.5001"/>
</g>
<!-- Node4 -->
<g id="node4" class="node"><title>Node4</title>
<g id="a_node4"><a xlink:href="../../df/df8/class_cell_society_view.html#a2c047a3972078bb0a5490ed225ef2dfa" target="_top" xlink:title="CellSocietyView.loadNewFile">
<polygon fill="white" stroke="black" points="524.5,-38.5 524.5,-57.5 673.5,-57.5 673.5,-38.5 524.5,-38.5"/>
<text text-anchor="middle" x="599" y="-45.5" font-family="Helvetica,sans-Serif" font-size="10.00">CellSocietyView.loadNewFile</text>
</a>
</g>
</g>
<!-- Node3&#45;&gt;Node4 -->
<g id="edge3" class="edge"><title>Node3&#45;&gt;Node4</title>
<path fill="none" stroke="midnightblue" d="M497.72,-36.9744C506.608,-37.9516 515.551,-38.935 524.241,-39.8904"/>
<polygon fill="midnightblue" stroke="midnightblue" points="498.047,-33.4894 487.724,-35.8755 497.282,-40.4475 498.047,-33.4894"/>
</g>
<!-- Node5 -->
<g id="node5" class="node"><title>Node5</title>
<g id="a_node5"><a xlink:href="../../df/df8/class_cell_society_view.html#a656cfed0ba32bc41bbd0c4087860db4b" target="_top" xlink:title="CellSocietyView.makeLoad\lButton">
<polygon fill="white" stroke="black" points="710.5,-36 710.5,-66 853.5,-66 853.5,-36 710.5,-36"/>
<text text-anchor="start" x="718.5" y="-54" font-family="Helvetica,sans-Serif" font-size="10.00">CellSocietyView.makeLoad</text>
<text text-anchor="middle" x="782" y="-43" font-family="Helvetica,sans-Serif" font-size="10.00">Button</text>
</a>
</g>
</g>
<!-- Node4&#45;&gt;Node5 -->
<g id="edge4" class="edge"><title>Node4&#45;&gt;Node5</title>
<path fill="none" stroke="midnightblue" d="M683.651,-49.3865C692.585,-49.5346 701.61,-49.6841 710.373,-49.8294"/>
<polygon fill="midnightblue" stroke="midnightblue" points="683.676,-45.8865 673.62,-49.2202 683.56,-52.8856 683.676,-45.8865"/>
</g>
<!-- Node6 -->
<g id="node6" class="node"><title>Node6</title>
<g id="a_node6"><a xlink:href="../../df/df8/class_cell_society_view.html#a53ab66afdeb23b3fc89e54a44be7ced5" target="_top" xlink:title="CellSocietyView.CellSocietyView">
<polygon fill="white" stroke="black" points="890.5,-41.5 890.5,-60.5 1057.5,-60.5 1057.5,-41.5 890.5,-41.5"/>
<text text-anchor="middle" x="974" y="-48.5" font-family="Helvetica,sans-Serif" font-size="10.00">CellSocietyView.CellSocietyView</text>
</a>
</g>
</g>
<!-- Node5&#45;&gt;Node6 -->
<g id="edge5" class="edge"><title>Node5&#45;&gt;Node6</title>
<path fill="none" stroke="midnightblue" d="M863.92,-51C872.663,-51 881.569,-51 890.332,-51"/>
<polygon fill="midnightblue" stroke="midnightblue" points="863.749,-47.5001 853.749,-51 863.749,-54.5001 863.749,-47.5001"/>
</g>
<!-- Node7 -->
<g id="node7" class="node"><title>Node7</title>
<g id="a_node7"><a xlink:href="../../df/df8/class_cell_society_view.html#a7bdbd4e8fd3893e672eb22015603f6dc" target="_top" xlink:title="CellSocietyView.makeButtons">
<polygon fill="white" stroke="black" points="895,-0.5 895,-19.5 1053,-19.5 1053,-0.5 895,-0.5"/>
<text text-anchor="middle" x="974" y="-7.5" font-family="Helvetica,sans-Serif" font-size="10.00">CellSocietyView.makeButtons</text>
</a>
</g>
</g>
<!-- Node5&#45;&gt;Node7 -->
<g id="edge6" class="edge"><title>Node5&#45;&gt;Node7</title>
<path fill="none" stroke="midnightblue" d="M862.613,-33.8204C885.224,-28.941 909.031,-23.8039 928.723,-19.5545"/>
<polygon fill="midnightblue" stroke="midnightblue" points="861.707,-30.4353 852.67,-35.9659 863.183,-37.2778 861.707,-30.4353"/>
</g>
<!-- Node7&#45;&gt;Node3 -->
<g id="edge7" class="edge"><title>Node7&#45;&gt;Node3</title>
<path fill="none" stroke="midnightblue" d="M884.41,-12.6608C775.676,-15.9267 592.835,-21.4184 487.793,-24.5733"/>
<polygon fill="midnightblue" stroke="midnightblue" points="884.806,-16.1506 894.697,-12.3519 884.596,-9.15376 884.806,-16.1506"/>
</g>
</g>
</svg>
