<?xml version="1.0" encoding="UTF-8" standalone="no"?>
<!DOCTYPE svg PUBLIC "-//W3C//DTD SVG 1.1//EN"
 "http://www.w3.org/Graphics/SVG/1.1/DTD/svg11.dtd">
<!-- Generated by graphviz version 2.36.0 (20140111.2315)
 -->
<!-- Title: GridDrawer.makeGrid Pages: 1 -->
<svg width="898pt" height="74pt"
 viewBox="0.00 0.00 898.00 74.00" xmlns="http://www.w3.org/2000/svg" xmlns:xlink="http://www.w3.org/1999/xlink">
<g id="graph0" class="graph" transform="scale(1 1) rotate(0) translate(4 70)">
<title>GridDrawer.makeGrid</title>
<polygon fill="white" stroke="none" points="-4,4 -4,-70 894,-70 894,4 -4,4"/>
<!-- Node1 -->
<g id="node1" class="node"><title>Node1</title>
<polygon fill="#bfbfbf" stroke="black" points="0.5,-17.5 0.5,-36.5 119.5,-36.5 119.5,-17.5 0.5,-17.5"/>
<text text-anchor="middle" x="60" y="-24.5" font-family="Helvetica,sans-Serif" font-size="10.00">GridDrawer.makeGrid</text>
</g>
<!-- Node2 -->
<g id="node2" class="node"><title>Node2</title>
<g id="a_node2"><a xlink:href="../../df/df8/class_cell_society_view.html#a6a72ed4ee014a9c3f0368ab26be873d6" target="_top" xlink:title="CellSocietyView.makeCAGame">
<polygon fill="white" stroke="black" points="156.5,-17.5 156.5,-36.5 319.5,-36.5 319.5,-17.5 156.5,-17.5"/>
<text text-anchor="middle" x="238" y="-24.5" font-family="Helvetica,sans-Serif" font-size="10.00">CellSocietyView.makeCAGame</text>
</a>
</g>
</g>
<!-- Node1&#45;&gt;Node2 -->
<g id="edge1" class="edge"><title>Node1&#45;&gt;Node2</title>
<path fill="none" stroke="midnightblue" d="M129.728,-27C138.475,-27 147.489,-27 156.4,-27"/>
<polygon fill="midnightblue" stroke="midnightblue" points="129.605,-23.5001 119.605,-27 129.605,-30.5001 129.605,-23.5001"/>
</g>
<!-- Node3 -->
<g id="node3" class="node"><title>Node3</title>
<g id="a_node3"><a xlink:href="../../df/df8/class_cell_society_view.html#a2c047a3972078bb0a5490ed225ef2dfa" target="_top" xlink:title="CellSocietyView.loadNewFile">
<polygon fill="white" stroke="black" points="356.5,-38.5 356.5,-57.5 505.5,-57.5 505.5,-38.5 356.5,-38.5"/>
<text text-anchor="middle" x="431" y="-45.5" font-family="Helvetica,sans-Serif" font-size="10.00">CellSocietyView.loadNewFile</text>
</a>
</g>
</g>
<!-- Node2&#45;&gt;Node3 -->
<g id="edge2" class="edge"><title>Node2&#45;&gt;Node3</title>
<path fill="none" stroke="midnightblue" d="M329.72,-36.9744C338.608,-37.9516 347.551,-38.935 356.241,-39.8904"/>
<polygon fill="midnightblue" stroke="midnightblue" points="330.047,-33.4894 319.724,-35.8755 329.282,-40.4475 330.047,-33.4894"/>
</g>
<!-- Node4 -->
<g id="node4" class="node"><title>Node4</title>
<g id="a_node4"><a xlink:href="../../df/df8/class_cell_society_view.html#a656cfed0ba32bc41bbd0c4087860db4b" target="_top" xlink:title="CellSocietyView.makeLoad\lButton">
<polygon fill="white" stroke="black" points="542.5,-36 542.5,-66 685.5,-66 685.5,-36 542.5,-36"/>
<text text-anchor="start" x="550.5" y="-54" font-family="Helvetica,sans-Serif" font-size="10.00">CellSocietyView.makeLoad</text>
<text text-anchor="middle" x="614" y="-43" font-family="Helvetica,sans-Serif" font-size="10.00">Button</text>
</a>
</g>
</g>
<!-- Node3&#45;&gt;Node4 -->
<g id="edge3" class="edge"><title>Node3&#45;&gt;Node4</title>
<path fill="none" stroke="midnightblue" d="M515.651,-49.3865C524.585,-49.5346 533.61,-49.6841 542.373,-49.8294"/>
<polygon fill="midnightblue" stroke="midnightblue" points="515.676,-45.8865 505.62,-49.2202 515.56,-52.8856 515.676,-45.8865"/>
</g>
<!-- Node5 -->
<g id="node5" class="node"><title>Node5</title>
<g id="a_node5"><a xlink:href="../../df/df8/class_cell_society_view.html#a53ab66afdeb23b3fc89e54a44be7ced5" target="_top" xlink:title="CellSocietyView.CellSocietyView">
<polygon fill="white" stroke="black" points="722.5,-41.5 722.5,-60.5 889.5,-60.5 889.5,-41.5 722.5,-41.5"/>
<text text-anchor="middle" x="806" y="-48.5" font-family="Helvetica,sans-Serif" font-size="10.00">CellSocietyView.CellSocietyView</text>
</a>
</g>
</g>
<!-- Node4&#45;&gt;Node5 -->
<g id="edge4" class="edge"><title>Node4&#45;&gt;Node5</title>
<path fill="none" stroke="midnightblue" d="M695.92,-51C704.663,-51 713.569,-51 722.332,-51"/>
<polygon fill="midnightblue" stroke="midnightblue" points="695.749,-47.5001 685.749,-51 695.749,-54.5001 695.749,-47.5001"/>
</g>
<!-- Node6 -->
<g id="node6" class="node"><title>Node6</title>
<g id="a_node6"><a xlink:href="../../df/df8/class_cell_society_view.html#a7bdbd4e8fd3893e672eb22015603f6dc" target="_top" xlink:title="CellSocietyView.makeButtons">
<polygon fill="white" stroke="black" points="727,-0.5 727,-19.5 885,-19.5 885,-0.5 727,-0.5"/>
<text text-anchor="middle" x="806" y="-7.5" font-family="Helvetica,sans-Serif" font-size="10.00">CellSocietyView.makeButtons</text>
</a>
</g>
</g>
<!-- Node4&#45;&gt;Node6 -->
<g id="edge5" class="edge"><title>Node4&#45;&gt;Node6</title>
<path fill="none" stroke="midnightblue" d="M694.613,-33.8204C717.224,-28.941 741.031,-23.8039 760.723,-19.5545"/>
<polygon fill="midnightblue" stroke="midnightblue" points="693.707,-30.4353 684.67,-35.9659 695.183,-37.2778 693.707,-30.4353"/>
</g>
<!-- Node6&#45;&gt;Node2 -->
<g id="edge6" class="edge"><title>Node6&#45;&gt;Node2</title>
<path fill="none" stroke="midnightblue" d="M716.41,-12.6608C607.676,-15.9267 424.835,-21.4184 319.793,-24.5733"/>
<polygon fill="midnightblue" stroke="midnightblue" points="716.806,-16.1506 726.697,-12.3519 716.596,-9.15376 716.806,-16.1506"/>
</g>
</g>
</svg>
