<?xml version="1.0" encoding="UTF-8" standalone="no"?>
<!DOCTYPE svg PUBLIC "-//W3C//DTD SVG 1.1//EN"
 "http://www.w3.org/Graphics/SVG/1.1/DTD/svg11.dtd">
<!-- Generated by graphviz version 2.36.0 (20140111.2315)
 -->
<!-- Title: GridDrawer.updateNextGen Pages: 1 -->
<svg width="1480pt" height="105pt"
 viewBox="0.00 0.00 1480.00 105.00" xmlns="http://www.w3.org/2000/svg" xmlns:xlink="http://www.w3.org/1999/xlink">
<g id="graph0" class="graph" transform="scale(1 1) rotate(0) translate(4 101)">
<title>GridDrawer.updateNextGen</title>
<polygon fill="white" stroke="none" points="-4,4 -4,-101 1476,-101 1476,4 -4,4"/>
<!-- Node1 -->
<g id="node1" class="node"><title>Node1</title>
<polygon fill="#bfbfbf" stroke="black" points="0,-47.5 0,-66.5 148,-66.5 148,-47.5 0,-47.5"/>
<text text-anchor="middle" x="74" y="-54.5" font-family="Helvetica,sans-Serif" font-size="10.00">GridDrawer.updateNextGen</text>
</g>
<!-- Node2 -->
<g id="node2" class="node"><title>Node2</title>
<g id="a_node2"><a xlink:href="../../df/df8/class_cell_society_view.html#a767ab215ca329ba41b1493702141f841" target="_top" xlink:title="CellSocietyView.makeCAGame">
<polygon fill="white" stroke="black" points="566.5,-47.5 566.5,-66.5 729.5,-66.5 729.5,-47.5 566.5,-47.5"/>
<text text-anchor="middle" x="648" y="-54.5" font-family="Helvetica,sans-Serif" font-size="10.00">CellSocietyView.makeCAGame</text>
</a>
</g>
</g>
<!-- Node1&#45;&gt;Node2 -->
<g id="edge1" class="edge"><title>Node1&#45;&gt;Node2</title>
<path fill="none" stroke="midnightblue" d="M158.341,-57C267.619,-57 458.082,-57 566.122,-57"/>
<polygon fill="midnightblue" stroke="midnightblue" points="158.025,-53.5001 148.025,-57 158.025,-60.5001 158.025,-53.5001"/>
</g>
<!-- Node8 -->
<g id="node8" class="node"><title>Node8</title>
<g id="a_node8"><a xlink:href="../../df/df8/class_cell_society_view.html#ad52b914fa03b45d8bc9d64fc407660f3" target="_top" xlink:title="CellSocietyView.updateView">
<polygon fill="white" stroke="black" points="184.5,-28.5 184.5,-47.5 333.5,-47.5 333.5,-28.5 184.5,-28.5"/>
<text text-anchor="middle" x="259" y="-35.5" font-family="Helvetica,sans-Serif" font-size="10.00">CellSocietyView.updateView</text>
</a>
</g>
</g>
<!-- Node1&#45;&gt;Node8 -->
<g id="edge8" class="edge"><title>Node1&#45;&gt;Node8</title>
<path fill="none" stroke="midnightblue" d="M158.28,-48.3535C166.994,-47.4487 175.808,-46.5336 184.403,-45.6412"/>
<polygon fill="midnightblue" stroke="midnightblue" points="157.7,-44.8947 148.115,-49.4088 158.423,-51.8573 157.7,-44.8947"/>
</g>
<!-- Node3 -->
<g id="node3" class="node"><title>Node3</title>
<g id="a_node3"><a xlink:href="../../df/df8/class_cell_society_view.html#a2ee793e471cc5731ce39c1450f058dd5" target="_top" xlink:title="CellSocietyView.parseFile">
<polygon fill="white" stroke="black" points="766.5,-69.5 766.5,-88.5 901.5,-88.5 901.5,-69.5 766.5,-69.5"/>
<text text-anchor="middle" x="834" y="-76.5" font-family="Helvetica,sans-Serif" font-size="10.00">CellSocietyView.parseFile</text>
</a>
</g>
</g>
<!-- Node2&#45;&gt;Node3 -->
<g id="edge2" class="edge"><title>Node2&#45;&gt;Node3</title>
<path fill="none" stroke="midnightblue" d="M738.745,-67.7304C748.091,-68.8478 757.467,-69.9689 766.488,-71.0475"/>
<polygon fill="midnightblue" stroke="midnightblue" points="738.98,-64.2336 728.635,-66.5216 738.149,-71.1841 738.98,-64.2336"/>
</g>
<!-- Node4 -->
<g id="node4" class="node"><title>Node4</title>
<g id="a_node4"><a xlink:href="../../df/df8/class_cell_society_view.html#a2c047a3972078bb0a5490ed225ef2dfa" target="_top" xlink:title="CellSocietyView.loadNewFile">
<polygon fill="white" stroke="black" points="938.5,-69.5 938.5,-88.5 1087.5,-88.5 1087.5,-69.5 938.5,-69.5"/>
<text text-anchor="middle" x="1013" y="-76.5" font-family="Helvetica,sans-Serif" font-size="10.00">CellSocietyView.loadNewFile</text>
</a>
</g>
</g>
<!-- Node3&#45;&gt;Node4 -->
<g id="edge3" class="edge"><title>Node3&#45;&gt;Node4</title>
<path fill="none" stroke="midnightblue" d="M911.865,-79C920.633,-79 929.557,-79 938.283,-79"/>
<polygon fill="midnightblue" stroke="midnightblue" points="911.664,-75.5001 901.664,-79 911.664,-82.5001 911.664,-75.5001"/>
</g>
<!-- Node5 -->
<g id="node5" class="node"><title>Node5</title>
<g id="a_node5"><a xlink:href="../../df/df8/class_cell_society_view.html#a656cfed0ba32bc41bbd0c4087860db4b" target="_top" xlink:title="CellSocietyView.makeLoad\lButton">
<polygon fill="white" stroke="black" points="1124.5,-67 1124.5,-97 1267.5,-97 1267.5,-67 1124.5,-67"/>
<text text-anchor="start" x="1132.5" y="-85" font-family="Helvetica,sans-Serif" font-size="10.00">CellSocietyView.makeLoad</text>
<text text-anchor="middle" x="1196" y="-74" font-family="Helvetica,sans-Serif" font-size="10.00">Button</text>
</a>
</g>
</g>
<!-- Node4&#45;&gt;Node5 -->
<g id="edge4" class="edge"><title>Node4&#45;&gt;Node5</title>
<path fill="none" stroke="midnightblue" d="M1097.65,-80.3865C1106.59,-80.5346 1115.61,-80.6841 1124.37,-80.8294"/>
<polygon fill="midnightblue" stroke="midnightblue" points="1097.68,-76.8865 1087.62,-80.2202 1097.56,-83.8856 1097.68,-76.8865"/>
</g>
<!-- Node6 -->
<g id="node6" class="node"><title>Node6</title>
<g id="a_node6"><a xlink:href="../../df/df8/class_cell_society_view.html#a53ab66afdeb23b3fc89e54a44be7ced5" target="_top" xlink:title="CellSocietyView.CellSocietyView">
<polygon fill="white" stroke="black" points="1304.5,-72.5 1304.5,-91.5 1471.5,-91.5 1471.5,-72.5 1304.5,-72.5"/>
<text text-anchor="middle" x="1388" y="-79.5" font-family="Helvetica,sans-Serif" font-size="10.00">CellSocietyView.CellSocietyView</text>
</a>
</g>
</g>
<!-- Node5&#45;&gt;Node6 -->
<g id="edge5" class="edge"><title>Node5&#45;&gt;Node6</title>
<path fill="none" stroke="midnightblue" d="M1277.92,-82C1286.66,-82 1295.57,-82 1304.33,-82"/>
<polygon fill="midnightblue" stroke="midnightblue" points="1277.75,-78.5001 1267.75,-82 1277.75,-85.5001 1277.75,-78.5001"/>
</g>
<!-- Node7 -->
<g id="node7" class="node"><title>Node7</title>
<g id="a_node7"><a xlink:href="../../df/df8/class_cell_society_view.html#a7bdbd4e8fd3893e672eb22015603f6dc" target="_top" xlink:title="CellSocietyView.makeButtons">
<polygon fill="white" stroke="black" points="1309,-28.5 1309,-47.5 1467,-47.5 1467,-28.5 1309,-28.5"/>
<text text-anchor="middle" x="1388" y="-35.5" font-family="Helvetica,sans-Serif" font-size="10.00">CellSocietyView.makeButtons</text>
</a>
</g>
</g>
<!-- Node5&#45;&gt;Node7 -->
<g id="edge6" class="edge"><title>Node5&#45;&gt;Node7</title>
<path fill="none" stroke="midnightblue" d="M1271.79,-64.6813C1297.03,-58.8352 1324.27,-52.5268 1345.92,-47.5124"/>
<polygon fill="midnightblue" stroke="midnightblue" points="1270.81,-61.3148 1261.86,-66.9808 1272.39,-68.1344 1270.81,-61.3148"/>
</g>
<!-- Node7&#45;&gt;Node2 -->
<g id="edge7" class="edge"><title>Node7&#45;&gt;Node2</title>
<path fill="none" stroke="midnightblue" d="M1298.59,-40.2761C1154.02,-43.9983 869.169,-51.3317 729.737,-54.9214"/>
<polygon fill="midnightblue" stroke="midnightblue" points="1298.85,-43.7708 1308.75,-40.0144 1298.67,-36.7731 1298.85,-43.7708"/>
</g>
<!-- Node8&#45;&gt;Node7 -->
<g id="edge9" class="edge"><title>Node8&#45;&gt;Node7</title>
<path fill="none" stroke="midnightblue" d="M318.899,-26.6797C335.385,-23.824 353.349,-21.0038 370,-19 492.516,-4.2566 523.6,-1.42109e-14 647,-0 647,-0 647,-0 1014,-0 1126.12,-1.42109e-14 1256.23,-17.2037 1329.36,-28.46"/>
<polygon fill="midnightblue" stroke="midnightblue" points="318.089,-23.2687 308.85,-28.4554 319.307,-30.1619 318.089,-23.2687"/>
</g>
<!-- Node9 -->
<g id="node9" class="node"><title>Node9</title>
<g id="a_node9"><a xlink:href="../../df/df8/class_cell_society_view.html#adf6a6b0542d00677a9fffbb8e3c03ffe" target="_top" xlink:title="CellSocietyView.makeTimeline">
<polygon fill="white" stroke="black" points="370,-28.5 370,-47.5 530,-47.5 530,-28.5 370,-28.5"/>
<text text-anchor="middle" x="450" y="-35.5" font-family="Helvetica,sans-Serif" font-size="10.00">CellSocietyView.makeTimeline</text>
</a>
</g>
</g>
<!-- Node8&#45;&gt;Node9 -->
<g id="edge10" class="edge"><title>Node8&#45;&gt;Node9</title>
<path fill="none" stroke="midnightblue" d="M343.763,-38C352.473,-38 361.306,-38 369.961,-38"/>
<polygon fill="midnightblue" stroke="midnightblue" points="343.614,-34.5001 333.614,-38 343.613,-41.5001 343.614,-34.5001"/>
</g>
<!-- Node9&#45;&gt;Node2 -->
<g id="edge11" class="edge"><title>Node9&#45;&gt;Node2</title>
<path fill="none" stroke="midnightblue" d="M540.271,-46.6538C548.937,-47.4939 557.696,-48.3429 566.272,-49.1743"/>
<polygon fill="midnightblue" stroke="midnightblue" points="540.447,-43.1545 530.156,-45.6733 539.771,-50.1219 540.447,-43.1545"/>
</g>
</g>
</svg>
