<?xml version="1.0" encoding="UTF-8" standalone="no"?>
<!DOCTYPE svg PUBLIC "-//W3C//DTD SVG 1.1//EN"
 "http://www.w3.org/Graphics/SVG/1.1/DTD/svg11.dtd">
<!-- Generated by graphviz version 2.36.0 (20140111.2315)
 -->
<!-- Title: GridDrawer.drawTriangle Pages: 1 -->
<svg width="1408pt" height="74pt"
 viewBox="0.00 0.00 1408.00 74.00" xmlns="http://www.w3.org/2000/svg" xmlns:xlink="http://www.w3.org/1999/xlink">
<g id="graph0" class="graph" transform="scale(1 1) rotate(0) translate(4 70)">
<title>GridDrawer.drawTriangle</title>
<polygon fill="white" stroke="none" points="-4,4 -4,-70 1404,-70 1404,4 -4,4"/>
<!-- Node1 -->
<g id="node1" class="node"><title>Node1</title>
<polygon fill="#bfbfbf" stroke="black" points="0.5,-17.5 0.5,-36.5 131.5,-36.5 131.5,-17.5 0.5,-17.5"/>
<text text-anchor="middle" x="66" y="-24.5" font-family="Helvetica,sans-Serif" font-size="10.00">GridDrawer.drawTriangle</text>
</g>
<!-- Node2 -->
<g id="node2" class="node"><title>Node2</title>
<g id="a_node2"><a xlink:href="../../dd/d97/class_grid_drawer.html#a69ef437bdcbcdb3dca6b206b73a1ab1f" target="_top" xlink:title="GridDrawer.drawUnitCell">
<polygon fill="white" stroke="black" points="168.5,-17.5 168.5,-36.5 299.5,-36.5 299.5,-17.5 168.5,-17.5"/>
<text text-anchor="middle" x="234" y="-24.5" font-family="Helvetica,sans-Serif" font-size="10.00">GridDrawer.drawUnitCell</text>
</a>
</g>
</g>
<!-- Node1&#45;&gt;Node2 -->
<g id="edge1" class="edge"><title>Node1&#45;&gt;Node2</title>
<path fill="none" stroke="midnightblue" d="M141.898,-27C150.693,-27 159.609,-27 168.248,-27"/>
<polygon fill="midnightblue" stroke="midnightblue" points="141.655,-23.5001 131.655,-27 141.655,-30.5001 141.655,-23.5001"/>
</g>
<!-- Node3 -->
<g id="node3" class="node"><title>Node3</title>
<g id="a_node3"><a xlink:href="../../dd/d97/class_grid_drawer.html#af9a09b2ee81450f13a117261b67718e0" target="_top" xlink:title="GridDrawer.makeUnitGrid">
<polygon fill="white" stroke="black" points="336,-17.5 336,-36.5 474,-36.5 474,-17.5 336,-17.5"/>
<text text-anchor="middle" x="405" y="-24.5" font-family="Helvetica,sans-Serif" font-size="10.00">GridDrawer.makeUnitGrid</text>
</a>
</g>
</g>
<!-- Node2&#45;&gt;Node3 -->
<g id="edge2" class="edge"><title>Node2&#45;&gt;Node3</title>
<path fill="none" stroke="midnightblue" d="M309.938,-27C318.597,-27 327.393,-27 335.954,-27"/>
<polygon fill="midnightblue" stroke="midnightblue" points="309.857,-23.5001 299.856,-27 309.856,-30.5001 309.857,-23.5001"/>
</g>
<!-- Node4 -->
<g id="node4" class="node"><title>Node4</title>
<g id="a_node4"><a xlink:href="../../dd/d97/class_grid_drawer.html#ab8aa1cc79c89cfbc7b9d8516a5dee463" target="_top" xlink:title="GridDrawer.makeGrid">
<polygon fill="white" stroke="black" points="510.5,-17.5 510.5,-36.5 629.5,-36.5 629.5,-17.5 510.5,-17.5"/>
<text text-anchor="middle" x="570" y="-24.5" font-family="Helvetica,sans-Serif" font-size="10.00">GridDrawer.makeGrid</text>
</a>
</g>
</g>
<!-- Node3&#45;&gt;Node4 -->
<g id="edge3" class="edge"><title>Node3&#45;&gt;Node4</title>
<path fill="none" stroke="midnightblue" d="M484.41,-27C493.163,-27 501.962,-27 510.405,-27"/>
<polygon fill="midnightblue" stroke="midnightblue" points="484.182,-23.5001 474.182,-27 484.182,-30.5001 484.182,-23.5001"/>
</g>
<!-- Node5 -->
<g id="node5" class="node"><title>Node5</title>
<g id="a_node5"><a xlink:href="../../df/df8/class_cell_society_view.html#a6a72ed4ee014a9c3f0368ab26be873d6" target="_top" xlink:title="CellSocietyView.makeCAGame">
<polygon fill="white" stroke="black" points="666.5,-17.5 666.5,-36.5 829.5,-36.5 829.5,-17.5 666.5,-17.5"/>
<text text-anchor="middle" x="748" y="-24.5" font-family="Helvetica,sans-Serif" font-size="10.00">CellSocietyView.makeCAGame</text>
</a>
</g>
</g>
<!-- Node4&#45;&gt;Node5 -->
<g id="edge4" class="edge"><title>Node4&#45;&gt;Node5</title>
<path fill="none" stroke="midnightblue" d="M639.728,-27C648.475,-27 657.489,-27 666.4,-27"/>
<polygon fill="midnightblue" stroke="midnightblue" points="639.605,-23.5001 629.605,-27 639.605,-30.5001 639.605,-23.5001"/>
</g>
<!-- Node6 -->
<g id="node6" class="node"><title>Node6</title>
<g id="a_node6"><a xlink:href="../../df/df8/class_cell_society_view.html#a2c047a3972078bb0a5490ed225ef2dfa" target="_top" xlink:title="CellSocietyView.loadNewFile">
<polygon fill="white" stroke="black" points="866.5,-38.5 866.5,-57.5 1015.5,-57.5 1015.5,-38.5 866.5,-38.5"/>
<text text-anchor="middle" x="941" y="-45.5" font-family="Helvetica,sans-Serif" font-size="10.00">CellSocietyView.loadNewFile</text>
</a>
</g>
</g>
<!-- Node5&#45;&gt;Node6 -->
<g id="edge5" class="edge"><title>Node5&#45;&gt;Node6</title>
<path fill="none" stroke="midnightblue" d="M839.72,-36.9744C848.608,-37.9516 857.551,-38.935 866.241,-39.8904"/>
<polygon fill="midnightblue" stroke="midnightblue" points="840.047,-33.4894 829.724,-35.8755 839.282,-40.4475 840.047,-33.4894"/>
</g>
<!-- Node7 -->
<g id="node7" class="node"><title>Node7</title>
<g id="a_node7"><a xlink:href="../../df/df8/class_cell_society_view.html#a656cfed0ba32bc41bbd0c4087860db4b" target="_top" xlink:title="CellSocietyView.makeLoad\lButton">
<polygon fill="white" stroke="black" points="1052.5,-36 1052.5,-66 1195.5,-66 1195.5,-36 1052.5,-36"/>
<text text-anchor="start" x="1060.5" y="-54" font-family="Helvetica,sans-Serif" font-size="10.00">CellSocietyView.makeLoad</text>
<text text-anchor="middle" x="1124" y="-43" font-family="Helvetica,sans-Serif" font-size="10.00">Button</text>
</a>
</g>
</g>
<!-- Node6&#45;&gt;Node7 -->
<g id="edge6" class="edge"><title>Node6&#45;&gt;Node7</title>
<path fill="none" stroke="midnightblue" d="M1025.65,-49.3865C1034.59,-49.5346 1043.61,-49.6841 1052.37,-49.8294"/>
<polygon fill="midnightblue" stroke="midnightblue" points="1025.68,-45.8865 1015.62,-49.2202 1025.56,-52.8856 1025.68,-45.8865"/>
</g>
<!-- Node8 -->
<g id="node8" class="node"><title>Node8</title>
<g id="a_node8"><a xlink:href="../../df/df8/class_cell_society_view.html#a53ab66afdeb23b3fc89e54a44be7ced5" target="_top" xlink:title="CellSocietyView.CellSocietyView">
<polygon fill="white" stroke="black" points="1232.5,-41.5 1232.5,-60.5 1399.5,-60.5 1399.5,-41.5 1232.5,-41.5"/>
<text text-anchor="middle" x="1316" y="-48.5" font-family="Helvetica,sans-Serif" font-size="10.00">CellSocietyView.CellSocietyView</text>
</a>
</g>
</g>
<!-- Node7&#45;&gt;Node8 -->
<g id="edge7" class="edge"><title>Node7&#45;&gt;Node8</title>
<path fill="none" stroke="midnightblue" d="M1205.92,-51C1214.66,-51 1223.57,-51 1232.33,-51"/>
<polygon fill="midnightblue" stroke="midnightblue" points="1205.75,-47.5001 1195.75,-51 1205.75,-54.5001 1205.75,-47.5001"/>
</g>
<!-- Node9 -->
<g id="node9" class="node"><title>Node9</title>
<g id="a_node9"><a xlink:href="../../df/df8/class_cell_society_view.html#a7bdbd4e8fd3893e672eb22015603f6dc" target="_top" xlink:title="CellSocietyView.makeButtons">
<polygon fill="white" stroke="black" points="1237,-0.5 1237,-19.5 1395,-19.5 1395,-0.5 1237,-0.5"/>
<text text-anchor="middle" x="1316" y="-7.5" font-family="Helvetica,sans-Serif" font-size="10.00">CellSocietyView.makeButtons</text>
</a>
</g>
</g>
<!-- Node7&#45;&gt;Node9 -->
<g id="edge8" class="edge"><title>Node7&#45;&gt;Node9</title>
<path fill="none" stroke="midnightblue" d="M1204.61,-33.8204C1227.22,-28.941 1251.03,-23.8039 1270.72,-19.5545"/>
<polygon fill="midnightblue" stroke="midnightblue" points="1203.71,-30.4353 1194.67,-35.9659 1205.18,-37.2778 1203.71,-30.4353"/>
</g>
<!-- Node9&#45;&gt;Node5 -->
<g id="edge9" class="edge"><title>Node9&#45;&gt;Node5</title>
<path fill="none" stroke="midnightblue" d="M1226.41,-12.6608C1117.68,-15.9267 934.835,-21.4184 829.793,-24.5733"/>
<polygon fill="midnightblue" stroke="midnightblue" points="1226.81,-16.1506 1236.7,-12.3519 1226.6,-9.15376 1226.81,-16.1506"/>
</g>
</g>
</svg>
