<?xml version="1.0" encoding="UTF-8" standalone="no"?>
<!DOCTYPE svg PUBLIC "-//W3C//DTD SVG 1.1//EN"
 "http://www.w3.org/Graphics/SVG/1.1/DTD/svg11.dtd">
<!-- Generated by graphviz version 2.36.0 (20140111.2315)
 -->
<!-- Title: Segregation Pages: 1 -->
<svg width="326pt" height="432pt"
 viewBox="0.00 0.00 326.00 432.00" xmlns="http://www.w3.org/2000/svg" xmlns:xlink="http://www.w3.org/1999/xlink">
<g id="graph0" class="graph" transform="scale(1 1) rotate(0) translate(4 428)">
<title>Segregation</title>
<polygon fill="white" stroke="none" points="-4,4 -4,-428 322,-428 322,4 -4,4"/>
<!-- Node1 -->
<g id="node1" class="node"><title>Node1</title>
<polygon fill="#bfbfbf" stroke="black" points="171.5,-0.5 171.5,-19.5 246.5,-19.5 246.5,-0.5 171.5,-0.5"/>
<text text-anchor="middle" x="209" y="-7.5" font-family="Helvetica,sans-Serif" font-size="10.00">Segregation</text>
</g>
<!-- Node2 -->
<g id="node2" class="node"><title>Node2</title>
<g id="a_node2"><a xlink:href="../../da/de8/class_move_cellular_automata.html" target="_top" xlink:title="MoveCellularAutomata">
<polygon fill="white" stroke="black" points="16.5,-90.5 16.5,-109.5 141.5,-109.5 141.5,-90.5 16.5,-90.5"/>
<text text-anchor="middle" x="79" y="-97.5" font-family="Helvetica,sans-Serif" font-size="10.00">MoveCellularAutomata</text>
</a>
</g>
</g>
<!-- Node2&#45;&gt;Node1 -->
<g id="edge1" class="edge"><title>Node2&#45;&gt;Node1</title>
<path fill="none" stroke="midnightblue" d="M100.382,-84.5258C127.599,-66.1019 173.762,-34.8536 196.112,-19.7241"/>
<polygon fill="midnightblue" stroke="midnightblue" points="98.2593,-81.7364 91.9402,-90.2405 102.183,-87.5332 98.2593,-81.7364"/>
</g>
<!-- Node3 -->
<g id="node3" class="node"><title>Node3</title>
<g id="a_node3"><a xlink:href="../../d2/d40/class_cellular_automata.html" target="_top" xlink:title="CellularAutomata">
<polygon fill="white" stroke="black" points="29,-190.5 29,-209.5 129,-209.5 129,-190.5 29,-190.5"/>
<text text-anchor="middle" x="79" y="-197.5" font-family="Helvetica,sans-Serif" font-size="10.00">CellularAutomata</text>
</a>
</g>
</g>
<!-- Node3&#45;&gt;Node2 -->
<g id="edge2" class="edge"><title>Node3&#45;&gt;Node2</title>
<path fill="none" stroke="midnightblue" d="M79,-180.22C79,-158.951 79,-125.22 79,-109.537"/>
<polygon fill="midnightblue" stroke="midnightblue" points="75.5001,-180.303 79,-190.303 82.5001,-180.303 75.5001,-180.303"/>
</g>
<!-- Node4 -->
<g id="node4" class="node"><title>Node4</title>
<g id="a_node4"><a xlink:href="../../da/d74/class_grid.html" target="_top" xlink:title="Grid">
<polygon fill="white" stroke="black" points="134,-258.5 134,-277.5 170,-277.5 170,-258.5 134,-258.5"/>
<text text-anchor="middle" x="152" y="-265.5" font-family="Helvetica,sans-Serif" font-size="10.00">Grid</text>
</a>
</g>
</g>
<!-- Node4&#45;&gt;Node3 -->
<g id="edge3" class="edge"><title>Node4&#45;&gt;Node3</title>
<path fill="none" stroke="#9a32cd" stroke-dasharray="5,2" d="M148.468,-248.106C146.384,-241.122 143.111,-233.562 138,-228 130.378,-219.705 119.708,-213.771 109.535,-209.619"/>
<polygon fill="#9a32cd" stroke="#9a32cd" points="145.155,-249.306 150.856,-258.236 151.968,-247.699 145.155,-249.306"/>
<text text-anchor="middle" x="165" y="-231.5" font-family="Helvetica,sans-Serif" font-size="10.00"> myGrid</text>
</g>
<!-- Node5 -->
<g id="node5" class="node"><title>Node5</title>
<polygon fill="white" stroke="#bfbfbf" points="129,-326.5 129,-345.5 175,-345.5 175,-326.5 129,-326.5"/>
<text text-anchor="middle" x="152" y="-333.5" font-family="Helvetica,sans-Serif" font-size="10.00">Group</text>
</g>
<!-- Node5&#45;&gt;Node4 -->
<g id="edge4" class="edge"><title>Node5&#45;&gt;Node4</title>
<path fill="none" stroke="midnightblue" d="M152,-316.041C152,-303.472 152,-287.563 152,-277.841"/>
<polygon fill="midnightblue" stroke="midnightblue" points="148.5,-316.372 152,-326.372 155.5,-316.372 148.5,-316.372"/>
</g>
<!-- Node6 -->
<g id="node6" class="node"><title>Node6</title>
<g id="a_node6"><a xlink:href="../../dd/d11/class_cell.html" target="_top" xlink:title="Cell">
<polygon fill="white" stroke="black" points="53,-326.5 53,-345.5 87,-345.5 87,-326.5 53,-326.5"/>
<text text-anchor="middle" x="70" y="-333.5" font-family="Helvetica,sans-Serif" font-size="10.00">Cell</text>
</a>
</g>
</g>
<!-- Node6&#45;&gt;Node4 -->
<g id="edge5" class="edge"><title>Node6&#45;&gt;Node4</title>
<path fill="none" stroke="#9a32cd" stroke-dasharray="5,2" d="M83.9384,-318.374C90.5189,-311.055 98.7324,-302.632 107,-296 115.67,-289.045 126.297,-282.587 135.046,-277.732"/>
<polygon fill="#9a32cd" stroke="#9a32cd" points="80.9788,-316.444 77.0582,-326.287 86.2611,-321.037 80.9788,-316.444"/>
<text text-anchor="middle" x="127.5" y="-299.5" font-family="Helvetica,sans-Serif" font-size="10.00"> myCells</text>
</g>
<!-- Node7 -->
<g id="node7" class="node"><title>Node7</title>
<polygon fill="white" stroke="#bfbfbf" points="5,-404.5 5,-423.5 45,-423.5 45,-404.5 5,-404.5"/>
<text text-anchor="middle" x="25" y="-411.5" font-family="Helvetica,sans-Serif" font-size="10.00">Paint</text>
</g>
<!-- Node7&#45;&gt;Node2 -->
<g id="edge8" class="edge"><title>Node7&#45;&gt;Node2</title>
<path fill="none" stroke="#9a32cd" stroke-dasharray="5,2" d="M15.6198,-395.266C8.52594,-380.196 0,-357.766 0,-337 0,-337 0,-337 0,-199 0,-158.134 42.1532,-124.679 64.8764,-109.614"/>
<polygon fill="#9a32cd" stroke="#9a32cd" points="12.5854,-397.024 20.1797,-404.411 18.8499,-393.9 12.5854,-397.024"/>
<text text-anchor="middle" x="17" y="-265.5" font-family="Helvetica,sans-Serif" font-size="10.00"> empty</text>
</g>
<!-- Node7&#45;&gt;Node6 -->
<g id="edge6" class="edge"><title>Node7&#45;&gt;Node6</title>
<path fill="none" stroke="#9a32cd" stroke-dasharray="5,2" d="M35.3231,-395.565C44.5699,-379.949 57.7433,-357.7 64.8981,-345.616"/>
<polygon fill="#9a32cd" stroke="#9a32cd" points="32.2454,-393.894 30.1621,-404.282 38.2687,-397.46 32.2454,-393.894"/>
<text text-anchor="middle" x="83" y="-378" font-family="Helvetica,sans-Serif" font-size="10.00"> nextColor</text>
<text text-anchor="middle" x="83" y="-367" font-family="Helvetica,sans-Serif" font-size="10.00">currentColor</text>
</g>
<!-- Node8 -->
<g id="node8" class="node"><title>Node8</title>
<polygon fill="white" stroke="#bfbfbf" points="52,-258.5 52,-277.5 108,-277.5 108,-258.5 52,-258.5"/>
<text text-anchor="middle" x="80" y="-265.5" font-family="Helvetica,sans-Serif" font-size="10.00">Random</text>
</g>
<!-- Node8&#45;&gt;Node3 -->
<g id="edge7" class="edge"><title>Node8&#45;&gt;Node3</title>
<path fill="none" stroke="#9a32cd" stroke-dasharray="5,2" d="M79.7127,-248.041C79.5223,-235.472 79.2813,-219.563 79.134,-209.841"/>
<polygon fill="#9a32cd" stroke="#9a32cd" points="76.2181,-248.426 79.8693,-258.372 83.2173,-248.32 76.2181,-248.426"/>
<text text-anchor="middle" x="109" y="-231.5" font-family="Helvetica,sans-Serif" font-size="10.00"> myRandom</text>
</g>
<!-- Node9 -->
<g id="node9" class="node"><title>Node9</title>
<polygon fill="white" stroke="#bfbfbf" points="147,-190.5 147,-209.5 257,-209.5 257,-190.5 147,-190.5"/>
<text text-anchor="middle" x="202" y="-197.5" font-family="Helvetica,sans-Serif" font-size="10.00">ArrayList&lt; Mover &gt;</text>
</g>
<!-- Node9&#45;&gt;Node2 -->
<g id="edge9" class="edge"><title>Node9&#45;&gt;Node2</title>
<path fill="none" stroke="#9a32cd" stroke-dasharray="5,2" d="M183.051,-183.902C156.889,-163.058 110.577,-126.159 89.7153,-109.537"/>
<polygon fill="#9a32cd" stroke="#9a32cd" points="181.082,-186.809 191.085,-190.303 185.444,-181.334 181.082,-186.809"/>
<text text-anchor="middle" x="201" y="-164" font-family="Helvetica,sans-Serif" font-size="10.00"> toBeRemoved</text>
<text text-anchor="middle" x="201" y="-153" font-family="Helvetica,sans-Serif" font-size="10.00">toBeAdded</text>
<text text-anchor="middle" x="201" y="-142" font-family="Helvetica,sans-Serif" font-size="10.00">allMovers</text>
<text text-anchor="middle" x="201" y="-131" font-family="Helvetica,sans-Serif" font-size="10.00">alreadyMoved</text>
</g>
<!-- Node10 -->
<g id="node10" class="node"><title>Node10</title>
<polygon fill="white" stroke="#bfbfbf" points="160,-90.5 160,-109.5 258,-109.5 258,-90.5 160,-90.5"/>
<text text-anchor="middle" x="209" y="-97.5" font-family="Helvetica,sans-Serif" font-size="10.00">ArrayList&lt; Cell &gt;</text>
</g>
<!-- Node10&#45;&gt;Node1 -->
<g id="edge10" class="edge"><title>Node10&#45;&gt;Node1</title>
<path fill="none" stroke="#9a32cd" stroke-dasharray="5,2" d="M209,-79.9784C209,-61.3096 209,-33.6696 209,-19.7241"/>
<polygon fill="#9a32cd" stroke="#9a32cd" points="205.5,-80.2405 209,-90.2405 212.5,-80.2405 205.5,-80.2405"/>
<text text-anchor="middle" x="237.5" y="-52.5" font-family="Helvetica,sans-Serif" font-size="10.00"> emptyCells</text>
</g>
<!-- Node11 -->
<g id="node11" class="node"><title>Node11</title>
<polygon fill="white" stroke="#bfbfbf" points="276.5,-90.5 276.5,-109.5 317.5,-109.5 317.5,-90.5 276.5,-90.5"/>
<text text-anchor="middle" x="297" y="-97.5" font-family="Helvetica,sans-Serif" font-size="10.00">Color</text>
</g>
<!-- Node11&#45;&gt;Node1 -->
<g id="edge11" class="edge"><title>Node11&#45;&gt;Node1</title>
<path fill="none" stroke="#9a32cd" stroke-dasharray="5,2" d="M292.64,-80.4545C288.683,-67.1714 281.644,-49.644 270,-38 261.729,-29.7289 250.489,-23.7815 239.911,-19.6118"/>
<polygon fill="#9a32cd" stroke="#9a32cd" points="289.328,-81.6216 295.272,-90.3918 296.095,-79.829 289.328,-81.6216"/>
<text text-anchor="middle" x="304" y="-63.5" font-family="Helvetica,sans-Serif" font-size="10.00"> white</text>
<text text-anchor="middle" x="304" y="-52.5" font-family="Helvetica,sans-Serif" font-size="10.00">red</text>
<text text-anchor="middle" x="304" y="-41.5" font-family="Helvetica,sans-Serif" font-size="10.00">blue</text>
</g>
</g>
</svg>
