<?xml version="1.0" encoding="UTF-8" standalone="no"?>
<!DOCTYPE svg PUBLIC "-//W3C//DTD SVG 1.1//EN"
 "http://www.w3.org/Graphics/SVG/1.1/DTD/svg11.dtd">
<!-- Generated by graphviz version 2.36.0 (20140111.2315)
 -->
<!-- Title: Segregation.checkRules Pages: 1 -->
<svg width="942pt" height="199pt"
 viewBox="0.00 0.00 942.00 199.00" xmlns="http://www.w3.org/2000/svg" xmlns:xlink="http://www.w3.org/1999/xlink">
<g id="graph0" class="graph" transform="scale(1 1) rotate(0) translate(4 195)">
<title>Segregation.checkRules</title>
<polygon fill="white" stroke="none" points="-4,4 -4,-195 938,-195 938,4 -4,4"/>
<!-- Node1 -->
<g id="node1" class="node"><title>Node1</title>
<polygon fill="#bfbfbf" stroke="black" points="0.5,-76.5 0.5,-95.5 131.5,-95.5 131.5,-76.5 0.5,-76.5"/>
<text text-anchor="middle" x="66" y="-83.5" font-family="Helvetica,sans-Serif" font-size="10.00">Segregation.checkRules</text>
</g>
<!-- Node2 -->
<g id="node2" class="node"><title>Node2</title>
<g id="a_node2"><a xlink:href="../../da/d1e/class_segregation.html#a65706fcdb683f11f27836d3f4c591f3c" target="_top" xlink:title="Segregation.ruleOne">
<polygon fill="white" stroke="black" points="168,-76.5 168,-95.5 284,-95.5 284,-76.5 168,-76.5"/>
<text text-anchor="middle" x="226" y="-83.5" font-family="Helvetica,sans-Serif" font-size="10.00">Segregation.ruleOne</text>
</a>
</g>
</g>
<!-- Node1&#45;&gt;Node2 -->
<g id="edge1" class="edge"><title>Node1&#45;&gt;Node2</title>
<path fill="none" stroke="midnightblue" d="M131.721,-86C140.357,-86 149.23,-86 157.906,-86"/>
<polygon fill="midnightblue" stroke="midnightblue" points="157.975,-89.5001 167.975,-86 157.975,-82.5001 157.975,-89.5001"/>
</g>
<!-- Node3 -->
<g id="node3" class="node"><title>Node3</title>
<g id="a_node3"><a xlink:href="../../dc/d06/class_mover.html#a52bee7a2004ca1e44356ce6c5867a2fc" target="_top" xlink:title="Mover.isState">
<polygon fill="white" stroke="black" points="359,-152.5 359,-171.5 441,-171.5 441,-152.5 359,-152.5"/>
<text text-anchor="middle" x="400" y="-159.5" font-family="Helvetica,sans-Serif" font-size="10.00">Mover.isState</text>
</a>
</g>
</g>
<!-- Node2&#45;&gt;Node3 -->
<g id="edge2" class="edge"><title>Node2&#45;&gt;Node3</title>
<path fill="none" stroke="midnightblue" d="M239.845,-95.6971C257.168,-108.334 289.386,-130.311 320,-143 329.091,-146.768 339.095,-149.894 348.838,-152.447"/>
<polygon fill="midnightblue" stroke="midnightblue" points="348.302,-155.919 358.848,-154.904 349.97,-149.121 348.302,-155.919"/>
</g>
<!-- Node4 -->
<g id="node4" class="node"><title>Node4</title>
<g id="a_node4"><a xlink:href="../../da/d1e/class_segregation.html#ae7696748513b436c2578ff68b02d889d" target="_top" xlink:title="Segregation.getSamePercent">
<polygon fill="white" stroke="black" points="320.5,-114.5 320.5,-133.5 479.5,-133.5 479.5,-114.5 320.5,-114.5"/>
<text text-anchor="middle" x="400" y="-121.5" font-family="Helvetica,sans-Serif" font-size="10.00">Segregation.getSamePercent</text>
</a>
</g>
</g>
<!-- Node2&#45;&gt;Node4 -->
<g id="edge3" class="edge"><title>Node2&#45;&gt;Node4</title>
<path fill="none" stroke="midnightblue" d="M270.403,-95.589C293.407,-100.671 321.851,-106.955 346.134,-112.32"/>
<polygon fill="midnightblue" stroke="midnightblue" points="345.39,-115.74 355.909,-114.48 346.9,-108.905 345.39,-115.74"/>
</g>
<!-- Node13 -->
<g id="node13" class="node"><title>Node13</title>
<g id="a_node13"><a xlink:href="../../dc/d06/class_mover.html#adf476a60dad6e0feb9bedb3f6af313b5" target="_top" xlink:title="Mover.getCell">
<polygon fill="white" stroke="black" points="544.5,-19.5 544.5,-38.5 625.5,-38.5 625.5,-19.5 544.5,-19.5"/>
<text text-anchor="middle" x="585" y="-26.5" font-family="Helvetica,sans-Serif" font-size="10.00">Mover.getCell</text>
</a>
</g>
</g>
<!-- Node2&#45;&gt;Node13 -->
<g id="edge12" class="edge"><title>Node2&#45;&gt;Node13</title>
<path fill="none" stroke="midnightblue" d="M284.161,-86.1681C335.862,-85.2702 413.803,-81.292 480,-67 505.513,-61.4916 533.22,-51.1364 553.615,-42.6253"/>
<polygon fill="midnightblue" stroke="midnightblue" points="555.172,-45.7663 562.999,-38.6247 552.427,-39.3271 555.172,-45.7663"/>
</g>
<!-- Node14 -->
<g id="node14" class="node"><title>Node14</title>
<g id="a_node14"><a xlink:href="../../d2/d40/class_cellular_automata.html#ac2c674c8f80e624e4b63c131b4200a34" target="_top" xlink:title="CellularAutomata.getProb">
<polygon fill="white" stroke="black" points="330,-38.5 330,-57.5 470,-57.5 470,-38.5 330,-38.5"/>
<text text-anchor="middle" x="400" y="-45.5" font-family="Helvetica,sans-Serif" font-size="10.00">CellularAutomata.getProb</text>
</a>
</g>
</g>
<!-- Node2&#45;&gt;Node14 -->
<g id="edge13" class="edge"><title>Node2&#45;&gt;Node14</title>
<path fill="none" stroke="midnightblue" d="M270.403,-76.411C293.407,-71.3287 321.851,-65.0446 346.134,-59.6797"/>
<polygon fill="midnightblue" stroke="midnightblue" points="346.9,-63.095 355.909,-57.5201 345.39,-56.2598 346.9,-63.095"/>
</g>
<!-- Node15 -->
<g id="node15" class="node"><title>Node15</title>
<g id="a_node15"><a xlink:href="../../da/d1e/class_segregation.html#ad4834032e72fa626c4dd38782ffcc541" target="_top" xlink:title="Segregation.move">
<polygon fill="white" stroke="black" points="347.5,-0.5 347.5,-19.5 452.5,-19.5 452.5,-0.5 347.5,-0.5"/>
<text text-anchor="middle" x="400" y="-7.5" font-family="Helvetica,sans-Serif" font-size="10.00">Segregation.move</text>
</a>
</g>
</g>
<!-- Node2&#45;&gt;Node15 -->
<g id="edge14" class="edge"><title>Node2&#45;&gt;Node15</title>
<path fill="none" stroke="midnightblue" d="M239.845,-76.3029C257.168,-63.6662 289.386,-41.6895 320,-29 326.129,-26.4597 332.672,-24.2114 339.271,-22.2337"/>
<polygon fill="midnightblue" stroke="midnightblue" points="340.25,-25.5942 348.936,-19.5273 338.363,-18.8534 340.25,-25.5942"/>
</g>
<!-- Node5 -->
<g id="node5" class="node"><title>Node5</title>
<g id="a_node5"><a xlink:href="../../d2/d40/class_cellular_automata.html#a34ceed434c942d34ff03169b92684726" target="_top" xlink:title="CellularAutomata.getGrid">
<polygon fill="white" stroke="black" points="516,-152.5 516,-171.5 654,-171.5 654,-152.5 516,-152.5"/>
<text text-anchor="middle" x="585" y="-159.5" font-family="Helvetica,sans-Serif" font-size="10.00">CellularAutomata.getGrid</text>
</a>
</g>
</g>
<!-- Node4&#45;&gt;Node5 -->
<g id="edge4" class="edge"><title>Node4&#45;&gt;Node5</title>
<path fill="none" stroke="midnightblue" d="M447.179,-133.589C471.763,-138.694 502.186,-145.011 528.097,-150.392"/>
<polygon fill="midnightblue" stroke="midnightblue" points="527.651,-153.874 538.153,-152.48 529.074,-147.02 527.651,-153.874"/>
</g>
<!-- Node6 -->
<g id="node6" class="node"><title>Node6</title>
<g id="a_node6"><a xlink:href="../../da/d74/class_grid.html#a43e84876ecfc5265a5e37a39e64e794e" target="_top" xlink:title="Grid.findNeighbors">
<polygon fill="white" stroke="black" points="532.5,-114.5 532.5,-133.5 637.5,-133.5 637.5,-114.5 532.5,-114.5"/>
<text text-anchor="middle" x="585" y="-121.5" font-family="Helvetica,sans-Serif" font-size="10.00">Grid.findNeighbors</text>
</a>
</g>
</g>
<!-- Node4&#45;&gt;Node6 -->
<g id="edge5" class="edge"><title>Node4&#45;&gt;Node6</title>
<path fill="none" stroke="midnightblue" d="M479.671,-124C493.875,-124 508.499,-124 522.139,-124"/>
<polygon fill="midnightblue" stroke="midnightblue" points="522.354,-127.5 532.354,-124 522.354,-120.5 522.354,-127.5"/>
</g>
<!-- Node12 -->
<g id="node12" class="node"><title>Node12</title>
<g id="a_node12"><a xlink:href="../../dd/d11/class_cell.html#aac3ac473652b817fe344534f4bec7e6f" target="_top" xlink:title="Cell.getState">
<polygon fill="white" stroke="black" points="545.5,-76.5 545.5,-95.5 624.5,-95.5 624.5,-76.5 545.5,-76.5"/>
<text text-anchor="middle" x="585" y="-83.5" font-family="Helvetica,sans-Serif" font-size="10.00">Cell.getState</text>
</a>
</g>
</g>
<!-- Node4&#45;&gt;Node12 -->
<g id="edge11" class="edge"><title>Node4&#45;&gt;Node12</title>
<path fill="none" stroke="midnightblue" d="M447.179,-114.411C474.031,-108.835 507.85,-101.813 535.146,-96.1445"/>
<polygon fill="midnightblue" stroke="midnightblue" points="536.181,-99.5044 545.26,-94.0443 534.758,-92.6506 536.181,-99.5044"/>
</g>
<!-- Node7 -->
<g id="node7" class="node"><title>Node7</title>
<g id="a_node7"><a xlink:href="../../da/d74/class_grid.html#a33b84a1d6b40a447bdd4a33fa3daf555" target="_top" xlink:title="Grid.getNeighbors">
<polygon fill="white" stroke="black" points="690,-114.5 690,-133.5 794,-133.5 794,-114.5 690,-114.5"/>
<text text-anchor="middle" x="742" y="-121.5" font-family="Helvetica,sans-Serif" font-size="10.00">Grid.getNeighbors</text>
</a>
</g>
</g>
<!-- Node6&#45;&gt;Node7 -->
<g id="edge6" class="edge"><title>Node6&#45;&gt;Node7</title>
<path fill="none" stroke="midnightblue" d="M637.613,-124C651.148,-124 665.873,-124 679.855,-124"/>
<polygon fill="midnightblue" stroke="midnightblue" points="679.876,-127.5 689.876,-124 679.876,-120.5 679.876,-127.5"/>
</g>
<!-- Node8 -->
<g id="node8" class="node"><title>Node8</title>
<g id="a_node8"><a xlink:href="../../da/d74/class_grid.html#ab87098d7bfaf1eaf367e4342a5bce0ae" target="_top" xlink:title="Grid.checkBounds">
<polygon fill="white" stroke="black" points="830.5,-171.5 830.5,-190.5 933.5,-190.5 933.5,-171.5 830.5,-171.5"/>
<text text-anchor="middle" x="882" y="-178.5" font-family="Helvetica,sans-Serif" font-size="10.00">Grid.checkBounds</text>
</a>
</g>
</g>
<!-- Node7&#45;&gt;Node8 -->
<g id="edge7" class="edge"><title>Node7&#45;&gt;Node8</title>
<path fill="none" stroke="midnightblue" d="M763.958,-133.542C781.495,-141.432 807.232,-152.795 830,-162 834.804,-163.942 839.891,-165.925 844.918,-167.84"/>
<polygon fill="midnightblue" stroke="midnightblue" points="843.831,-171.171 854.423,-171.415 846.295,-164.619 843.831,-171.171"/>
</g>
<!-- Node9 -->
<g id="node9" class="node"><title>Node9</title>
<g id="a_node9"><a xlink:href="../../dd/d11/class_cell.html#a4725094202cf38c727f2adcc3cf8b96f" target="_top" xlink:title="Cell.getPosX">
<polygon fill="white" stroke="black" points="844,-133.5 844,-152.5 920,-152.5 920,-133.5 844,-133.5"/>
<text text-anchor="middle" x="882" y="-140.5" font-family="Helvetica,sans-Serif" font-size="10.00">Cell.getPosX</text>
</a>
</g>
</g>
<!-- Node7&#45;&gt;Node9 -->
<g id="edge8" class="edge"><title>Node7&#45;&gt;Node9</title>
<path fill="none" stroke="midnightblue" d="M794.386,-131.075C807.326,-132.856 821.152,-134.76 833.871,-136.511"/>
<polygon fill="midnightblue" stroke="midnightblue" points="833.413,-139.981 843.797,-137.878 834.368,-133.047 833.413,-139.981"/>
</g>
<!-- Node10 -->
<g id="node10" class="node"><title>Node10</title>
<g id="a_node10"><a xlink:href="../../dd/d11/class_cell.html#ac445ab365d1ec19483e98841be73d11e" target="_top" xlink:title="Cell.getPosY">
<polygon fill="white" stroke="black" points="844.5,-95.5 844.5,-114.5 919.5,-114.5 919.5,-95.5 844.5,-95.5"/>
<text text-anchor="middle" x="882" y="-102.5" font-family="Helvetica,sans-Serif" font-size="10.00">Cell.getPosY</text>
</a>
</g>
</g>
<!-- Node7&#45;&gt;Node10 -->
<g id="edge9" class="edge"><title>Node7&#45;&gt;Node10</title>
<path fill="none" stroke="midnightblue" d="M794.386,-116.925C807.447,-115.127 821.41,-113.204 834.228,-111.44"/>
<polygon fill="midnightblue" stroke="midnightblue" points="834.793,-114.895 844.222,-110.064 833.838,-107.96 834.793,-114.895"/>
</g>
<!-- Node11 -->
<g id="node11" class="node"><title>Node11</title>
<g id="a_node11"><a xlink:href="../../da/d74/class_grid.html#a669941947881f795a6ab4a70adf05172" target="_top" xlink:title="Grid.getTorusPoint">
<polygon fill="white" stroke="black" points="830,-57.5 830,-76.5 934,-76.5 934,-57.5 830,-57.5"/>
<text text-anchor="middle" x="882" y="-64.5" font-family="Helvetica,sans-Serif" font-size="10.00">Grid.getTorusPoint</text>
</a>
</g>
</g>
<!-- Node7&#45;&gt;Node11 -->
<g id="edge10" class="edge"><title>Node7&#45;&gt;Node11</title>
<path fill="none" stroke="midnightblue" d="M763.958,-114.458C781.495,-106.568 807.232,-95.2052 830,-86 834.804,-84.0576 839.891,-82.0755 844.918,-80.1597"/>
<polygon fill="midnightblue" stroke="midnightblue" points="846.295,-83.3813 854.423,-76.5855 843.831,-76.8293 846.295,-83.3813"/>
</g>
<!-- Node15&#45;&gt;Node13 -->
<g id="edge15" class="edge"><title>Node15&#45;&gt;Node13</title>
<path fill="none" stroke="midnightblue" d="M452.951,-15.3938C478.491,-18.0455 509.122,-21.2258 534.346,-23.8446"/>
<polygon fill="midnightblue" stroke="midnightblue" points="534.128,-27.3408 544.436,-24.8923 534.851,-20.3782 534.128,-27.3408"/>
</g>
</g>
</svg>
