<?xml version="1.0" encoding="UTF-8" standalone="no"?>
<!DOCTYPE svg PUBLIC "-//W3C//DTD SVG 1.1//EN"
 "http://www.w3.org/Graphics/SVG/1.1/DTD/svg11.dtd">
<!-- Generated by graphviz version 2.36.0 (20140111.2315)
 -->
<!-- Title: Segregation.ruleOne Pages: 1 -->
<!--zoomable 218 -->
<svg id="main" version="1.1" xmlns="http://www.w3.org/2000/svg" xmlns:xlink="http://www.w3.org/1999/xlink" xml:space="preserve" onload="init(evt)">
<style type="text/css"><![CDATA[
.edge:hover path { stroke: red; }
.edge:hover polygon { stroke: red; fill: red; }
]]></style>
<script type="text/javascript"><![CDATA[
var edges = document.getElementsByTagName('g');
if (edges && edges.length) {
  for (var i=0;i<edges.length;i++) {
    if (edges[i].id.substr(0,4)=='edge') {
      edges[i].setAttribute('class','edge');
    }
  }
}
]]></script>
        <defs>
                <circle id="rim" cx="0" cy="0" r="7"/>
                <circle id="rim2" cx="0" cy="0" r="3.5"/>
                <g id="zoomPlus">
                        <use xlink:href="#rim" fill="#404040">
                                <set attributeName="fill" to="#808080" begin="zoomplus.mouseover" end="zoomplus.mouseout"/>
                        </use>
                        <path d="M-4,0h8M0,-4v8" fill="none" stroke="white" stroke-width="1.5" pointer-events="none"/>
                </g>
                <g id="zoomMin">
                        <use xlink:href="#rim" fill="#404040">
                                <set attributeName="fill" to="#808080" begin="zoomminus.mouseover" end="zoomminus.mouseout"/>
                        </use>
                        <path d="M-4,0h8" fill="none" stroke="white" stroke-width="1.5" pointer-events="none"/>
                </g>
                <g id="dirArrow">
                        <path fill="none" stroke="white" stroke-width="1.5" d="M0,-3.0v7 M-2.5,-0.5L0,-3.0L2.5,-0.5"/>
                </g>
               <g id="resetDef">
                       <use xlink:href="#rim2" fill="#404040">
                               <set attributeName="fill" to="#808080" begin="reset.mouseover" end="reset.mouseout"/>
                       </use>
               </g>
        </defs>

<script type="text/javascript">
var viewWidth = 774;
var viewHeight = 218;
var sectionId = 'dynsection-8';
</script>
<script xlink:href="../../svgpan.js"/>
<svg id="graph" class="graph">
<g id="viewport">
<title>Segregation.ruleOne</title>
<polygon fill="white" stroke="none" points="-4,4 -4,-214 770,-214 770,4 -4,4"/>
<!-- Node1 -->
<g id="node1" class="node"><title>Node1</title>
<polygon fill="#bfbfbf" stroke="black" points="0,-114.5 0,-133.5 116,-133.5 116,-114.5 0,-114.5"/>
<text text-anchor="middle" x="58" y="-121.5" font-family="Helvetica,sans-Serif" font-size="10.00">Segregation.ruleOne</text>
</g>
<!-- Node2 -->
<g id="node2" class="node"><title>Node2</title>
<g id="a_node2"><a xlink:href="../../dc/d06/class_mover.html#adf476a60dad6e0feb9bedb3f6af313b5" target="_top" xlink:title="Mover.getCell">
<polygon fill="white" stroke="black" points="376.5,-152.5 376.5,-171.5 457.5,-171.5 457.5,-152.5 376.5,-152.5"/>
<text text-anchor="middle" x="417" y="-159.5" font-family="Helvetica,sans-Serif" font-size="10.00">Mover.getCell</text>
</a>
</g>
</g>
<!-- Node1&#45;&gt;Node2 -->
<g id="edge1" class="edge"><title>Node1&#45;&gt;Node2</title>
<path fill="none" stroke="midnightblue" d="M116.197,-126.567C167.59,-129.283 245.048,-134.395 312,-143 329.639,-145.267 348.823,-148.54 365.857,-151.732"/>
<polygon fill="midnightblue" stroke="midnightblue" points="365.672,-155.26 376.152,-153.7 366.986,-148.385 365.672,-155.26"/>
</g>
<!-- Node3 -->
<g id="node3" class="node"><title>Node3</title>
<g id="a_node3"><a xlink:href="../../d2/d40/class_cellular_automata.html#ac2c674c8f80e624e4b63c131b4200a34" target="_top" xlink:title="CellularAutomata.getProb">
<polygon fill="white" stroke="black" points="162,-152.5 162,-171.5 302,-171.5 302,-152.5 162,-152.5"/>
<text text-anchor="middle" x="232" y="-159.5" font-family="Helvetica,sans-Serif" font-size="10.00">CellularAutomata.getProb</text>
</a>
</g>
</g>
<!-- Node1&#45;&gt;Node3 -->
<g id="edge2" class="edge"><title>Node1&#45;&gt;Node3</title>
<path fill="none" stroke="midnightblue" d="M102.403,-133.589C125.407,-138.671 153.851,-144.955 178.134,-150.32"/>
<polygon fill="midnightblue" stroke="midnightblue" points="177.39,-153.74 187.909,-152.48 178.9,-146.905 177.39,-153.74"/>
</g>
<!-- Node4 -->
<g id="node4" class="node"><title>Node4</title>
<g id="a_node4"><a xlink:href="../../da/d1e/class_segregation.html#ae7696748513b436c2578ff68b02d889d" target="_top" xlink:title="Segregation.getSamePercent">
<polygon fill="white" stroke="black" points="152.5,-38.5 152.5,-57.5 311.5,-57.5 311.5,-38.5 152.5,-38.5"/>
<text text-anchor="middle" x="232" y="-45.5" font-family="Helvetica,sans-Serif" font-size="10.00">Segregation.getSamePercent</text>
</a>
</g>
</g>
<!-- Node1&#45;&gt;Node4 -->
<g id="edge3" class="edge"><title>Node1&#45;&gt;Node4</title>
<path fill="none" stroke="midnightblue" d="M71.845,-114.303C89.1679,-101.666 121.386,-79.6895 152,-67 158.129,-64.4597 164.672,-62.2114 171.271,-60.2337"/>
<polygon fill="midnightblue" stroke="midnightblue" points="172.25,-63.5942 180.936,-57.5273 170.363,-56.8534 172.25,-63.5942"/>
</g>
<!-- Node13 -->
<g id="node13" class="node"><title>Node13</title>
<g id="a_node13"><a xlink:href="../../dc/d06/class_mover.html#a52bee7a2004ca1e44356ce6c5867a2fc" target="_top" xlink:title="Mover.isState">
<polygon fill="white" stroke="black" points="191,-76.5 191,-95.5 273,-95.5 273,-76.5 191,-76.5"/>
<text text-anchor="middle" x="232" y="-83.5" font-family="Helvetica,sans-Serif" font-size="10.00">Mover.isState</text>
</a>
</g>
</g>
<!-- Node1&#45;&gt;Node13 -->
<g id="edge12" class="edge"><title>Node1&#45;&gt;Node13</title>
<path fill="none" stroke="midnightblue" d="M102.403,-114.411C126.282,-109.135 156.022,-102.565 180.886,-97.0718"/>
<polygon fill="midnightblue" stroke="midnightblue" points="181.847,-100.444 190.857,-94.8688 180.337,-93.6086 181.847,-100.444"/>
</g>
<!-- Node14 -->
<g id="node14" class="node"><title>Node14</title>
<g id="a_node14"><a xlink:href="../../da/d1e/class_segregation.html#ad4834032e72fa626c4dd38782ffcc541" target="_top" xlink:title="Segregation.move">
<polygon fill="white" stroke="black" points="179.5,-190.5 179.5,-209.5 284.5,-209.5 284.5,-190.5 179.5,-190.5"/>
<text text-anchor="middle" x="232" y="-197.5" font-family="Helvetica,sans-Serif" font-size="10.00">Segregation.move</text>
</a>
</g>
</g>
<!-- Node1&#45;&gt;Node14 -->
<g id="edge13" class="edge"><title>Node1&#45;&gt;Node14</title>
<path fill="none" stroke="midnightblue" d="M71.845,-133.697C89.1679,-146.334 121.386,-168.311 152,-181 158.129,-183.54 164.672,-185.789 171.271,-187.766"/>
<polygon fill="midnightblue" stroke="midnightblue" points="170.363,-191.147 180.936,-190.473 172.25,-184.406 170.363,-191.147"/>
</g>
<!-- Node5 -->
<g id="node5" class="node"><title>Node5</title>
<g id="a_node5"><a xlink:href="../../da/d74/class_grid.html#a43e84876ecfc5265a5e37a39e64e794e" target="_top" xlink:title="Grid.findNeighbors">
<polygon fill="white" stroke="black" points="364.5,-76.5 364.5,-95.5 469.5,-95.5 469.5,-76.5 364.5,-76.5"/>
<text text-anchor="middle" x="417" y="-83.5" font-family="Helvetica,sans-Serif" font-size="10.00">Grid.findNeighbors</text>
</a>
</g>
</g>
<!-- Node4&#45;&gt;Node5 -->
<g id="edge4" class="edge"><title>Node4&#45;&gt;Node5</title>
<path fill="none" stroke="midnightblue" d="M279.179,-57.589C303.763,-62.6939 334.186,-69.0113 360.097,-74.3918"/>
<polygon fill="midnightblue" stroke="midnightblue" points="359.651,-77.8736 370.153,-76.4799 361.074,-71.0198 359.651,-77.8736"/>
</g>
<!-- Node11 -->
<g id="node11" class="node"><title>Node11</title>
<g id="a_node11"><a xlink:href="../../d2/d40/class_cellular_automata.html#a34ceed434c942d34ff03169b92684726" target="_top" xlink:title="CellularAutomata.getGrid">
<polygon fill="white" stroke="black" points="348,-38.5 348,-57.5 486,-57.5 486,-38.5 348,-38.5"/>
<text text-anchor="middle" x="417" y="-45.5" font-family="Helvetica,sans-Serif" font-size="10.00">CellularAutomata.getGrid</text>
</a>
</g>
</g>
<!-- Node4&#45;&gt;Node11 -->
<g id="edge10" class="edge"><title>Node4&#45;&gt;Node11</title>
<path fill="none" stroke="midnightblue" d="M311.671,-48C320.304,-48 329.094,-48 337.723,-48"/>
<polygon fill="midnightblue" stroke="midnightblue" points="337.76,-51.5001 347.76,-48 337.76,-44.5001 337.76,-51.5001"/>
</g>
<!-- Node12 -->
<g id="node12" class="node"><title>Node12</title>
<g id="a_node12"><a xlink:href="../../dd/d11/class_cell.html#aac3ac473652b817fe344534f4bec7e6f" target="_top" xlink:title="Cell.getState">
<polygon fill="white" stroke="black" points="377.5,-0.5 377.5,-19.5 456.5,-19.5 456.5,-0.5 377.5,-0.5"/>
<text text-anchor="middle" x="417" y="-7.5" font-family="Helvetica,sans-Serif" font-size="10.00">Cell.getState</text>
</a>
</g>
</g>
<!-- Node4&#45;&gt;Node12 -->
<g id="edge11" class="edge"><title>Node4&#45;&gt;Node12</title>
<path fill="none" stroke="midnightblue" d="M279.179,-38.411C306.031,-32.8351 339.85,-25.8126 367.146,-20.1445"/>
<polygon fill="midnightblue" stroke="midnightblue" points="368.181,-23.5044 377.26,-18.0443 366.758,-16.6506 368.181,-23.5044"/>
</g>
<!-- Node6 -->
<g id="node6" class="node"><title>Node6</title>
<g id="a_node6"><a xlink:href="../../da/d74/class_grid.html#a33b84a1d6b40a447bdd4a33fa3daf555" target="_top" xlink:title="Grid.getNeighbors">
<polygon fill="white" stroke="black" points="522,-76.5 522,-95.5 626,-95.5 626,-76.5 522,-76.5"/>
<text text-anchor="middle" x="574" y="-83.5" font-family="Helvetica,sans-Serif" font-size="10.00">Grid.getNeighbors</text>
</a>
</g>
</g>
<!-- Node5&#45;&gt;Node6 -->
<g id="edge5" class="edge"><title>Node5&#45;&gt;Node6</title>
<path fill="none" stroke="midnightblue" d="M469.613,-86C483.148,-86 497.873,-86 511.855,-86"/>
<polygon fill="midnightblue" stroke="midnightblue" points="511.876,-89.5001 521.876,-86 511.876,-82.5001 511.876,-89.5001"/>
</g>
<!-- Node7 -->
<g id="node7" class="node"><title>Node7</title>
<g id="a_node7"><a xlink:href="../../da/d74/class_grid.html#ab87098d7bfaf1eaf367e4342a5bce0ae" target="_top" xlink:title="Grid.checkBounds">
<polygon fill="white" stroke="black" points="662.5,-133.5 662.5,-152.5 765.5,-152.5 765.5,-133.5 662.5,-133.5"/>
<text text-anchor="middle" x="714" y="-140.5" font-family="Helvetica,sans-Serif" font-size="10.00">Grid.checkBounds</text>
</a>
</g>
</g>
<!-- Node6&#45;&gt;Node7 -->
<g id="edge6" class="edge"><title>Node6&#45;&gt;Node7</title>
<path fill="none" stroke="midnightblue" d="M595.958,-95.5418C613.495,-103.432 639.232,-114.795 662,-124 666.804,-125.942 671.891,-127.925 676.918,-129.84"/>
<polygon fill="midnightblue" stroke="midnightblue" points="675.831,-133.171 686.423,-133.415 678.295,-126.619 675.831,-133.171"/>
</g>
<!-- Node8 -->
<g id="node8" class="node"><title>Node8</title>
<g id="a_node8"><a xlink:href="../../dd/d11/class_cell.html#a4725094202cf38c727f2adcc3cf8b96f" target="_top" xlink:title="Cell.getPosX">
<polygon fill="white" stroke="black" points="676,-95.5 676,-114.5 752,-114.5 752,-95.5 676,-95.5"/>
<text text-anchor="middle" x="714" y="-102.5" font-family="Helvetica,sans-Serif" font-size="10.00">Cell.getPosX</text>
</a>
</g>
</g>
<!-- Node6&#45;&gt;Node8 -->
<g id="edge7" class="edge"><title>Node6&#45;&gt;Node8</title>
<path fill="none" stroke="midnightblue" d="M626.386,-93.0749C639.326,-94.8565 653.152,-96.76 665.871,-98.5113"/>
<polygon fill="midnightblue" stroke="midnightblue" points="665.413,-101.981 675.797,-99.8779 666.368,-95.0466 665.413,-101.981"/>
</g>
<!-- Node9 -->
<g id="node9" class="node"><title>Node9</title>
<g id="a_node9"><a xlink:href="../../dd/d11/class_cell.html#ac445ab365d1ec19483e98841be73d11e" target="_top" xlink:title="Cell.getPosY">
<polygon fill="white" stroke="black" points="676.5,-57.5 676.5,-76.5 751.5,-76.5 751.5,-57.5 676.5,-57.5"/>
<text text-anchor="middle" x="714" y="-64.5" font-family="Helvetica,sans-Serif" font-size="10.00">Cell.getPosY</text>
</a>
</g>
</g>
<!-- Node6&#45;&gt;Node9 -->
<g id="edge8" class="edge"><title>Node6&#45;&gt;Node9</title>
<path fill="none" stroke="midnightblue" d="M626.386,-78.9251C639.447,-77.1269 653.41,-75.2044 666.228,-73.4397"/>
<polygon fill="midnightblue" stroke="midnightblue" points="666.793,-76.8949 676.222,-72.0636 665.838,-69.9603 666.793,-76.8949"/>
</g>
<!-- Node10 -->
<g id="node10" class="node"><title>Node10</title>
<g id="a_node10"><a xlink:href="../../da/d74/class_grid.html#a669941947881f795a6ab4a70adf05172" target="_top" xlink:title="Grid.getTorusPoint">
<polygon fill="white" stroke="black" points="662,-19.5 662,-38.5 766,-38.5 766,-19.5 662,-19.5"/>
<text text-anchor="middle" x="714" y="-26.5" font-family="Helvetica,sans-Serif" font-size="10.00">Grid.getTorusPoint</text>
</a>
</g>
</g>
<!-- Node6&#45;&gt;Node10 -->
<g id="edge9" class="edge"><title>Node6&#45;&gt;Node10</title>
<path fill="none" stroke="midnightblue" d="M595.958,-76.4582C613.495,-68.5679 639.232,-57.2052 662,-48 666.804,-46.0576 671.891,-44.0755 676.918,-42.1597"/>
<polygon fill="midnightblue" stroke="midnightblue" points="678.295,-45.3813 686.423,-38.5855 675.831,-38.8293 678.295,-45.3813"/>
</g>
<!-- Node14&#45;&gt;Node2 -->
<g id="edge14" class="edge"><title>Node14&#45;&gt;Node2</title>
<path fill="none" stroke="midnightblue" d="M279.179,-190.411C305.749,-184.894 339.141,-177.96 366.285,-172.323"/>
<polygon fill="midnightblue" stroke="midnightblue" points="367.276,-175.692 376.355,-170.232 365.852,-168.839 367.276,-175.692"/>
</g>
</g>
</svg>
        <g id="navigator" transform="translate(0 0)" fill="#404254">
                <rect fill="#f2f5e9" fill-opacity="0.5" stroke="#606060" stroke-width=".5" x="0" y="0" width="60" height="60"/>
                <use id="zoomplus" xlink:href="#zoomPlus" x="17" y="9" onmousedown="handleZoom(evt,'in')"/>
                <use id="zoomminus" xlink:href="#zoomMin" x="42" y="9" onmousedown="handleZoom(evt,'out')"/>
                <use id="reset" xlink:href="#resetDef" x="30" y="36" onmousedown="handleReset()"/>
                <g id="arrowUp" xlink:href="#dirArrow" transform="translate(30 24)" onmousedown="handlePan(0,-1)">
                  <use xlink:href="#rim" fill="#404040">
                        <set attributeName="fill" to="#808080" begin="arrowUp.mouseover" end="arrowUp.mouseout"/>
                  </use>
                  <path fill="none" stroke="white" stroke-width="1.5" d="M0,-3.0v7 M-2.5,-0.5L0,-3.0L2.5,-0.5"/>
                </g>
                <g id="arrowRight" xlink:href="#dirArrow" transform="rotate(90) translate(36 -43)" onmousedown="handlePan(1,0)">
                  <use xlink:href="#rim" fill="#404040">
                        <set attributeName="fill" to="#808080" begin="arrowRight.mouseover" end="arrowRight.mouseout"/>
                  </use>
                  <path fill="none" stroke="white" stroke-width="1.5" d="M0,-3.0v7 M-2.5,-0.5L0,-3.0L2.5,-0.5"/>
                </g>
                <g id="arrowDown" xlink:href="#dirArrow" transform="rotate(180) translate(-30 -48)" onmousedown="handlePan(0,1)">
                  <use xlink:href="#rim" fill="#404040">
                        <set attributeName="fill" to="#808080" begin="arrowDown.mouseover" end="arrowDown.mouseout"/>
                  </use>
                  <path fill="none" stroke="white" stroke-width="1.5" d="M0,-3.0v7 M-2.5,-0.5L0,-3.0L2.5,-0.5"/>
                </g>
                <g id="arrowLeft" xlink:href="#dirArrow" transform="rotate(270) translate(-36 17)" onmousedown="handlePan(-1,0)">
                  <use xlink:href="#rim" fill="#404040">
                        <set attributeName="fill" to="#808080" begin="arrowLeft.mouseover" end="arrowLeft.mouseout"/>
                  </use>
                  <path fill="none" stroke="white" stroke-width="1.5" d="M0,-3.0v7 M-2.5,-0.5L0,-3.0L2.5,-0.5"/>
                </g>
        </g>
        <svg viewBox="0 0 15 15" width="100%" height="30px" preserveAspectRatio="xMaxYMin meet">
         <g id="arrow_out" transform="scale(0.3 0.3)">
          <a xlink:href="class_segregation_a65706fcdb683f11f27836d3f4c591f3c_cgraph_org.svg" target="_base">
           <rect id="button" ry="5" rx="5" y="6" x="6" height="38" width="38"
                fill="#f2f5e9" fill-opacity="0.5" stroke="#606060" stroke-width="1.0"/>
           <path id="arrow"
             d="M 11.500037,31.436501 C 11.940474,20.09759 22.043105,11.32322 32.158766,21.979434 L 37.068811,17.246167 C 37.068811,17.246167 37.088388,32 37.088388,32 L 22.160133,31.978069 C 22.160133,31.978069 26.997745,27.140456 26.997745,27.140456 C 18.528582,18.264221 13.291696,25.230495 11.500037,31.436501 z"
             style="fill:#404040;"/>
          </a>
         </g>
        </svg>
</svg>
