<?xml version="1.0" encoding="UTF-8" standalone="no"?>
<!DOCTYPE svg PUBLIC "-//W3C//DTD SVG 1.1//EN"
 "http://www.w3.org/Graphics/SVG/1.1/DTD/svg11.dtd">
<!-- Generated by graphviz version 2.36.0 (20140111.2315)
 -->
<!-- Title: Segregation.checkRules Pages: 1 -->
<svg width="942pt" height="249pt"
 viewBox="0.00 0.00 942.00 249.00" xmlns="http://www.w3.org/2000/svg" xmlns:xlink="http://www.w3.org/1999/xlink">
<g id="graph0" class="graph" transform="scale(1 1) rotate(0) translate(4 245)">
<title>Segregation.checkRules</title>
<polygon fill="white" stroke="none" points="-4,4 -4,-245 938,-245 938,4 -4,4"/>
<!-- Node1 -->
<g id="node1" class="node"><title>Node1</title>
<polygon fill="#bfbfbf" stroke="black" points="0.5,-107.5 0.5,-126.5 131.5,-126.5 131.5,-107.5 0.5,-107.5"/>
<text text-anchor="middle" x="66" y="-114.5" font-family="Helvetica,sans-Serif" font-size="10.00">Segregation.checkRules</text>
</g>
<!-- Node2 -->
<g id="node2" class="node"><title>Node2</title>
<g id="a_node2"><a xlink:href="../../da/d1e/class_segregation.html#a65706fcdb683f11f27836d3f4c591f3c" target="_top" xlink:title="Segregation.ruleOne">
<polygon fill="white" stroke="black" points="168,-107.5 168,-126.5 284,-126.5 284,-107.5 168,-107.5"/>
<text text-anchor="middle" x="226" y="-114.5" font-family="Helvetica,sans-Serif" font-size="10.00">Segregation.ruleOne</text>
</a>
</g>
</g>
<!-- Node1&#45;&gt;Node2 -->
<g id="edge1" class="edge"><title>Node1&#45;&gt;Node2</title>
<path fill="none" stroke="midnightblue" d="M131.721,-117C140.357,-117 149.23,-117 157.906,-117"/>
<polygon fill="midnightblue" stroke="midnightblue" points="157.975,-120.5 167.975,-117 157.975,-113.5 157.975,-120.5"/>
</g>
<!-- Node3 -->
<g id="node3" class="node"><title>Node3</title>
<g id="a_node3"><a xlink:href="../../dc/d06/class_mover.html#a52bee7a2004ca1e44356ce6c5867a2fc" target="_top" xlink:title="Mover.isState">
<polygon fill="white" stroke="black" points="359,-202.5 359,-221.5 441,-221.5 441,-202.5 359,-202.5"/>
<text text-anchor="middle" x="400" y="-209.5" font-family="Helvetica,sans-Serif" font-size="10.00">Mover.isState</text>
</a>
</g>
</g>
<!-- Node2&#45;&gt;Node3 -->
<g id="edge2" class="edge"><title>Node2&#45;&gt;Node3</title>
<path fill="none" stroke="midnightblue" d="M235.766,-126.55C251.189,-142.756 284.884,-175.576 320,-193 329.003,-197.467 339.115,-200.92 349.02,-203.576"/>
<polygon fill="midnightblue" stroke="midnightblue" points="348.262,-206.994 358.807,-205.975 349.928,-200.195 348.262,-206.994"/>
</g>
<!-- Node4 -->
<g id="node4" class="node"><title>Node4</title>
<g id="a_node4"><a xlink:href="../../da/d1e/class_segregation.html#ae7696748513b436c2578ff68b02d889d" target="_top" xlink:title="Segregation.getSamePercent">
<polygon fill="white" stroke="black" points="320.5,-164.5 320.5,-183.5 479.5,-183.5 479.5,-164.5 320.5,-164.5"/>
<text text-anchor="middle" x="400" y="-171.5" font-family="Helvetica,sans-Serif" font-size="10.00">Segregation.getSamePercent</text>
</a>
</g>
</g>
<!-- Node2&#45;&gt;Node4 -->
<g id="edge3" class="edge"><title>Node2&#45;&gt;Node4</title>
<path fill="none" stroke="midnightblue" d="M252.947,-126.568C271.539,-133.335 297.217,-142.502 320,-150 331.807,-153.886 344.681,-157.893 356.542,-161.494"/>
<polygon fill="midnightblue" stroke="midnightblue" points="355.638,-164.877 366.223,-164.411 357.658,-158.174 355.638,-164.877"/>
</g>
<!-- Node13 -->
<g id="node13" class="node"><title>Node13</title>
<g id="a_node13"><a xlink:href="../../dc/d06/class_mover.html#adf476a60dad6e0feb9bedb3f6af313b5" target="_top" xlink:title="Mover.getCell">
<polygon fill="white" stroke="black" points="544.5,-44.5 544.5,-63.5 625.5,-63.5 625.5,-44.5 544.5,-44.5"/>
<text text-anchor="middle" x="585" y="-51.5" font-family="Helvetica,sans-Serif" font-size="10.00">Mover.getCell</text>
</a>
</g>
</g>
<!-- Node2&#45;&gt;Node13 -->
<g id="edge12" class="edge"><title>Node2&#45;&gt;Node13</title>
<path fill="none" stroke="midnightblue" d="M284.206,-125.637C336.275,-131.486 414.745,-135.223 480,-117 512.588,-107.899 545.138,-85.4985 564.922,-70.0194"/>
<polygon fill="midnightblue" stroke="midnightblue" points="567.223,-72.6603 572.826,-63.6678 562.838,-67.204 567.223,-72.6603"/>
</g>
<!-- Node14 -->
<g id="node14" class="node"><title>Node14</title>
<g id="a_node14"><a xlink:href="../../d2/d40/class_cellular_automata.html#aed4b2520936c215a49d97a1e0ff4a193" target="_top" xlink:title="CellularAutomata.getMyProb">
<polygon fill="white" stroke="black" points="323,-88.5 323,-107.5 477,-107.5 477,-88.5 323,-88.5"/>
<text text-anchor="middle" x="400" y="-95.5" font-family="Helvetica,sans-Serif" font-size="10.00">CellularAutomata.getMyProb</text>
</a>
</g>
</g>
<!-- Node2&#45;&gt;Node14 -->
<g id="edge13" class="edge"><title>Node2&#45;&gt;Node14</title>
<path fill="none" stroke="midnightblue" d="M284.274,-110.673C293.412,-109.664 303.04,-108.6 312.673,-107.536"/>
<polygon fill="midnightblue" stroke="midnightblue" points="313.138,-111.006 322.694,-106.429 312.37,-104.048 313.138,-111.006"/>
</g>
<!-- Node15 -->
<g id="node15" class="node"><title>Node15</title>
<g id="a_node15"><a xlink:href="../../da/de8/class_move_cellular_automata.html#a51d0684d1393a9ad01e371119f37c039" target="_top" xlink:title="MoveCellularAutomata.get\lRandomCell">
<polygon fill="white" stroke="black" points="328,-39 328,-69 472,-69 472,-39 328,-39"/>
<text text-anchor="start" x="336" y="-57" font-family="Helvetica,sans-Serif" font-size="10.00">MoveCellularAutomata.get</text>
<text text-anchor="middle" x="400" y="-46" font-family="Helvetica,sans-Serif" font-size="10.00">RandomCell</text>
</a>
</g>
</g>
<!-- Node2&#45;&gt;Node15 -->
<g id="edge14" class="edge"><title>Node2&#45;&gt;Node15</title>
<path fill="none" stroke="midnightblue" d="M248.976,-107.429C267.698,-99.4182 295.399,-87.902 320,-79 326.271,-76.7308 332.862,-74.4636 339.45,-72.2721"/>
<polygon fill="midnightblue" stroke="midnightblue" points="340.65,-75.5621 349.065,-69.124 338.472,-68.9096 340.65,-75.5621"/>
</g>
<!-- Node16 -->
<g id="node16" class="node"><title>Node16</title>
<g id="a_node16"><a xlink:href="../../da/d1e/class_segregation.html#a9bc97cbecb10c7cfef85c39d445c107b" target="_top" xlink:title="Segregation.move">
<polygon fill="white" stroke="black" points="347.5,-0.5 347.5,-19.5 452.5,-19.5 452.5,-0.5 347.5,-0.5"/>
<text text-anchor="middle" x="400" y="-7.5" font-family="Helvetica,sans-Serif" font-size="10.00">Segregation.move</text>
</a>
</g>
</g>
<!-- Node2&#45;&gt;Node16 -->
<g id="edge15" class="edge"><title>Node2&#45;&gt;Node16</title>
<path fill="none" stroke="midnightblue" d="M234.273,-107.35C248.58,-89.0827 282.288,-49.451 320,-29 325.534,-25.9992 331.539,-23.4672 337.682,-21.3318"/>
<polygon fill="midnightblue" stroke="midnightblue" points="338.904,-24.6171 347.403,-18.2922 336.815,-17.9361 338.904,-24.6171"/>
</g>
<!-- Node5 -->
<g id="node5" class="node"><title>Node5</title>
<g id="a_node5"><a xlink:href="../../d2/d40/class_cellular_automata.html#a34ceed434c942d34ff03169b92684726" target="_top" xlink:title="CellularAutomata.getGrid">
<polygon fill="white" stroke="black" points="516,-202.5 516,-221.5 654,-221.5 654,-202.5 516,-202.5"/>
<text text-anchor="middle" x="585" y="-209.5" font-family="Helvetica,sans-Serif" font-size="10.00">CellularAutomata.getGrid</text>
</a>
</g>
</g>
<!-- Node4&#45;&gt;Node5 -->
<g id="edge4" class="edge"><title>Node4&#45;&gt;Node5</title>
<path fill="none" stroke="midnightblue" d="M447.179,-183.589C471.763,-188.694 502.186,-195.011 528.097,-200.392"/>
<polygon fill="midnightblue" stroke="midnightblue" points="527.651,-203.874 538.153,-202.48 529.074,-197.02 527.651,-203.874"/>
</g>
<!-- Node6 -->
<g id="node6" class="node"><title>Node6</title>
<g id="a_node6"><a xlink:href="../../da/d74/class_grid.html#a43e84876ecfc5265a5e37a39e64e794e" target="_top" xlink:title="Grid.findNeighbors">
<polygon fill="white" stroke="black" points="532.5,-164.5 532.5,-183.5 637.5,-183.5 637.5,-164.5 532.5,-164.5"/>
<text text-anchor="middle" x="585" y="-171.5" font-family="Helvetica,sans-Serif" font-size="10.00">Grid.findNeighbors</text>
</a>
</g>
</g>
<!-- Node4&#45;&gt;Node6 -->
<g id="edge5" class="edge"><title>Node4&#45;&gt;Node6</title>
<path fill="none" stroke="midnightblue" d="M479.671,-174C493.875,-174 508.499,-174 522.139,-174"/>
<polygon fill="midnightblue" stroke="midnightblue" points="522.354,-177.5 532.354,-174 522.354,-170.5 522.354,-177.5"/>
</g>
<!-- Node12 -->
<g id="node12" class="node"><title>Node12</title>
<g id="a_node12"><a xlink:href="../../dd/d11/class_cell.html#aac3ac473652b817fe344534f4bec7e6f" target="_top" xlink:title="Cell.getState">
<polygon fill="white" stroke="black" points="545.5,-126.5 545.5,-145.5 624.5,-145.5 624.5,-126.5 545.5,-126.5"/>
<text text-anchor="middle" x="585" y="-133.5" font-family="Helvetica,sans-Serif" font-size="10.00">Cell.getState</text>
</a>
</g>
</g>
<!-- Node4&#45;&gt;Node12 -->
<g id="edge11" class="edge"><title>Node4&#45;&gt;Node12</title>
<path fill="none" stroke="midnightblue" d="M447.179,-164.411C474.031,-158.835 507.85,-151.813 535.146,-146.145"/>
<polygon fill="midnightblue" stroke="midnightblue" points="536.181,-149.504 545.26,-144.044 534.758,-142.651 536.181,-149.504"/>
</g>
<!-- Node7 -->
<g id="node7" class="node"><title>Node7</title>
<g id="a_node7"><a xlink:href="../../da/d74/class_grid.html#a33b84a1d6b40a447bdd4a33fa3daf555" target="_top" xlink:title="Grid.getNeighbors">
<polygon fill="white" stroke="black" points="690,-164.5 690,-183.5 794,-183.5 794,-164.5 690,-164.5"/>
<text text-anchor="middle" x="742" y="-171.5" font-family="Helvetica,sans-Serif" font-size="10.00">Grid.getNeighbors</text>
</a>
</g>
</g>
<!-- Node6&#45;&gt;Node7 -->
<g id="edge6" class="edge"><title>Node6&#45;&gt;Node7</title>
<path fill="none" stroke="midnightblue" d="M637.613,-174C651.148,-174 665.873,-174 679.855,-174"/>
<polygon fill="midnightblue" stroke="midnightblue" points="679.876,-177.5 689.876,-174 679.876,-170.5 679.876,-177.5"/>
</g>
<!-- Node8 -->
<g id="node8" class="node"><title>Node8</title>
<g id="a_node8"><a xlink:href="../../da/d74/class_grid.html#ab87098d7bfaf1eaf367e4342a5bce0ae" target="_top" xlink:title="Grid.checkBounds">
<polygon fill="white" stroke="black" points="830.5,-221.5 830.5,-240.5 933.5,-240.5 933.5,-221.5 830.5,-221.5"/>
<text text-anchor="middle" x="882" y="-228.5" font-family="Helvetica,sans-Serif" font-size="10.00">Grid.checkBounds</text>
</a>
</g>
</g>
<!-- Node7&#45;&gt;Node8 -->
<g id="edge7" class="edge"><title>Node7&#45;&gt;Node8</title>
<path fill="none" stroke="midnightblue" d="M763.958,-183.542C781.495,-191.432 807.232,-202.795 830,-212 834.804,-213.942 839.891,-215.925 844.918,-217.84"/>
<polygon fill="midnightblue" stroke="midnightblue" points="843.831,-221.171 854.423,-221.415 846.295,-214.619 843.831,-221.171"/>
</g>
<!-- Node9 -->
<g id="node9" class="node"><title>Node9</title>
<g id="a_node9"><a xlink:href="../../dd/d11/class_cell.html#a4725094202cf38c727f2adcc3cf8b96f" target="_top" xlink:title="Cell.getPosX">
<polygon fill="white" stroke="black" points="844,-183.5 844,-202.5 920,-202.5 920,-183.5 844,-183.5"/>
<text text-anchor="middle" x="882" y="-190.5" font-family="Helvetica,sans-Serif" font-size="10.00">Cell.getPosX</text>
</a>
</g>
</g>
<!-- Node7&#45;&gt;Node9 -->
<g id="edge8" class="edge"><title>Node7&#45;&gt;Node9</title>
<path fill="none" stroke="midnightblue" d="M794.386,-181.075C807.326,-182.856 821.152,-184.76 833.871,-186.511"/>
<polygon fill="midnightblue" stroke="midnightblue" points="833.413,-189.981 843.797,-187.878 834.368,-183.047 833.413,-189.981"/>
</g>
<!-- Node10 -->
<g id="node10" class="node"><title>Node10</title>
<g id="a_node10"><a xlink:href="../../dd/d11/class_cell.html#ac445ab365d1ec19483e98841be73d11e" target="_top" xlink:title="Cell.getPosY">
<polygon fill="white" stroke="black" points="844.5,-145.5 844.5,-164.5 919.5,-164.5 919.5,-145.5 844.5,-145.5"/>
<text text-anchor="middle" x="882" y="-152.5" font-family="Helvetica,sans-Serif" font-size="10.00">Cell.getPosY</text>
</a>
</g>
</g>
<!-- Node7&#45;&gt;Node10 -->
<g id="edge9" class="edge"><title>Node7&#45;&gt;Node10</title>
<path fill="none" stroke="midnightblue" d="M794.386,-166.925C807.447,-165.127 821.41,-163.204 834.228,-161.44"/>
<polygon fill="midnightblue" stroke="midnightblue" points="834.793,-164.895 844.222,-160.064 833.838,-157.96 834.793,-164.895"/>
</g>
<!-- Node11 -->
<g id="node11" class="node"><title>Node11</title>
<g id="a_node11"><a xlink:href="../../da/d74/class_grid.html#a669941947881f795a6ab4a70adf05172" target="_top" xlink:title="Grid.getTorusPoint">
<polygon fill="white" stroke="black" points="830,-107.5 830,-126.5 934,-126.5 934,-107.5 830,-107.5"/>
<text text-anchor="middle" x="882" y="-114.5" font-family="Helvetica,sans-Serif" font-size="10.00">Grid.getTorusPoint</text>
</a>
</g>
</g>
<!-- Node7&#45;&gt;Node11 -->
<g id="edge10" class="edge"><title>Node7&#45;&gt;Node11</title>
<path fill="none" stroke="midnightblue" d="M763.958,-164.458C781.495,-156.568 807.232,-145.205 830,-136 834.804,-134.058 839.891,-132.075 844.918,-130.16"/>
<polygon fill="midnightblue" stroke="midnightblue" points="846.295,-133.381 854.423,-126.585 843.831,-126.829 846.295,-133.381"/>
</g>
<!-- Node16&#45;&gt;Node13 -->
<g id="edge16" class="edge"><title>Node16&#45;&gt;Node13</title>
<path fill="none" stroke="midnightblue" d="M440.708,-19.5473C468.166,-26.1492 504.902,-34.9819 534.303,-42.051"/>
<polygon fill="midnightblue" stroke="midnightblue" points="533.828,-45.5365 544.369,-44.4713 535.465,-38.7304 533.828,-45.5365"/>
</g>
</g>
</svg>
