<?xml version="1.0" encoding="UTF-8" standalone="no"?>
<!DOCTYPE svg PUBLIC "-//W3C//DTD SVG 1.1//EN"
 "http://www.w3.org/Graphics/SVG/1.1/DTD/svg11.dtd">
<!-- Generated by graphviz version 2.36.0 (20140111.2315)
 -->
<!-- Title: Segregation.Segregation Pages: 1 -->
<svg width="520pt" height="136pt"
 viewBox="0.00 0.00 520.00 136.00" xmlns="http://www.w3.org/2000/svg" xmlns:xlink="http://www.w3.org/1999/xlink">
<g id="graph0" class="graph" transform="scale(1 1) rotate(0) translate(4 132)">
<title>Segregation.Segregation</title>
<polygon fill="white" stroke="none" points="-4,4 -4,-132 516,-132 516,4 -4,4"/>
<!-- Node1 -->
<g id="node1" class="node"><title>Node1</title>
<polygon fill="#bfbfbf" stroke="black" points="0.5,-78.5 0.5,-97.5 137.5,-97.5 137.5,-78.5 0.5,-78.5"/>
<text text-anchor="middle" x="69" y="-85.5" font-family="Helvetica,sans-Serif" font-size="10.00">Segregation.Segregation</text>
</g>
<!-- Node2 -->
<g id="node2" class="node"><title>Node2</title>
<g id="a_node2"><a xlink:href="../../da/de8/class_move_cellular_automata.html#a17158cd108e1476059d1a07835e888a8" target="_top" xlink:title="MoveCellularAutomata.set\lEmptyColor">
<polygon fill="white" stroke="black" points="174.5,-98 174.5,-128 317.5,-128 317.5,-98 174.5,-98"/>
<text text-anchor="start" x="182.5" y="-116" font-family="Helvetica,sans-Serif" font-size="10.00">MoveCellularAutomata.set</text>
<text text-anchor="middle" x="246" y="-105" font-family="Helvetica,sans-Serif" font-size="10.00">EmptyColor</text>
</a>
</g>
</g>
<!-- Node1&#45;&gt;Node2 -->
<g id="edge1" class="edge"><title>Node1&#45;&gt;Node2</title>
<path fill="none" stroke="midnightblue" d="M136.659,-97.5227C145.739,-98.8198 155.136,-100.162 164.429,-101.49"/>
<polygon fill="midnightblue" stroke="midnightblue" points="164.057,-104.972 174.451,-102.922 165.047,-98.0425 164.057,-104.972"/>
</g>
<!-- Node3 -->
<g id="node3" class="node"><title>Node3</title>
<g id="a_node3"><a xlink:href="../../da/d1e/class_segregation.html#a983021f5ba3fc800655cb0c9de0ba08f" target="_top" xlink:title="Segregation.setUpInitial\lConfig">
<polygon fill="white" stroke="black" points="180.5,-49 180.5,-79 311.5,-79 311.5,-49 180.5,-49"/>
<text text-anchor="start" x="188.5" y="-67" font-family="Helvetica,sans-Serif" font-size="10.00">Segregation.setUpInitial</text>
<text text-anchor="middle" x="246" y="-56" font-family="Helvetica,sans-Serif" font-size="10.00">Config</text>
</a>
</g>
</g>
<!-- Node1&#45;&gt;Node3 -->
<g id="edge2" class="edge"><title>Node1&#45;&gt;Node3</title>
<path fill="none" stroke="midnightblue" d="M137.66,-78.721C148.411,-77.2465 159.584,-75.7142 170.482,-74.2196"/>
<polygon fill="midnightblue" stroke="midnightblue" points="170.962,-77.6866 180.394,-72.8603 170.011,-70.7515 170.962,-77.6866"/>
</g>
<!-- Node4 -->
<g id="node4" class="node"><title>Node4</title>
<g id="a_node4"><a xlink:href="../../d2/d40/class_cellular_automata.html#a34ceed434c942d34ff03169b92684726" target="_top" xlink:title="CellularAutomata.getGrid">
<polygon fill="white" stroke="black" points="364,-98.5 364,-117.5 502,-117.5 502,-98.5 364,-98.5"/>
<text text-anchor="middle" x="433" y="-105.5" font-family="Helvetica,sans-Serif" font-size="10.00">CellularAutomata.getGrid</text>
</a>
</g>
</g>
<!-- Node3&#45;&gt;Node4 -->
<g id="edge3" class="edge"><title>Node3&#45;&gt;Node4</title>
<path fill="none" stroke="midnightblue" d="M310.149,-79.0192C333.659,-84.6108 359.991,-90.8735 382.145,-96.1426"/>
<polygon fill="midnightblue" stroke="midnightblue" points="381.466,-99.5787 392.005,-98.4876 383.086,-92.7687 381.466,-99.5787"/>
</g>
<!-- Node5 -->
<g id="node5" class="node"><title>Node5</title>
<g id="a_node5"><a xlink:href="../../d2/d40/class_cellular_automata.html#a3e303e691cc17b9a478a3e0e167a37e6" target="_top" xlink:title="CellularAutomata.getRandom\lDouble">
<polygon fill="white" stroke="black" points="354,-49 354,-79 512,-79 512,-49 354,-49"/>
<text text-anchor="start" x="362" y="-67" font-family="Helvetica,sans-Serif" font-size="10.00">CellularAutomata.getRandom</text>
<text text-anchor="middle" x="433" y="-56" font-family="Helvetica,sans-Serif" font-size="10.00">Double</text>
</a>
</g>
</g>
<!-- Node3&#45;&gt;Node5 -->
<g id="edge4" class="edge"><title>Node3&#45;&gt;Node5</title>
<path fill="none" stroke="midnightblue" d="M311.704,-64C322.048,-64 332.903,-64 343.682,-64"/>
<polygon fill="midnightblue" stroke="midnightblue" points="343.975,-67.5001 353.975,-64 343.975,-60.5001 343.975,-67.5001"/>
</g>
<!-- Node6 -->
<g id="node6" class="node"><title>Node6</title>
<g id="a_node6"><a xlink:href="../../da/de8/class_move_cellular_automata.html#a1661ace25a08d9cb4bec54bfde40424e" target="_top" xlink:title="MoveCellularAutomata.add\lMover">
<polygon fill="white" stroke="black" points="360,-0 360,-30 506,-30 506,-0 360,-0"/>
<text text-anchor="start" x="368" y="-18" font-family="Helvetica,sans-Serif" font-size="10.00">MoveCellularAutomata.add</text>
<text text-anchor="middle" x="433" y="-7" font-family="Helvetica,sans-Serif" font-size="10.00">Mover</text>
</a>
</g>
</g>
<!-- Node3&#45;&gt;Node6 -->
<g id="edge5" class="edge"><title>Node3&#45;&gt;Node6</title>
<path fill="none" stroke="midnightblue" d="M303.763,-48.9654C323.297,-43.7917 345.343,-37.9525 365.576,-32.5934"/>
<polygon fill="midnightblue" stroke="midnightblue" points="366.573,-35.95 375.344,-30.0062 364.781,-29.1833 366.573,-35.95"/>
</g>
</g>
</svg>
