<?xml version="1.0" encoding="UTF-8" standalone="no"?>
<!DOCTYPE svg PUBLIC "-//W3C//DTD SVG 1.1//EN"
 "http://www.w3.org/Graphics/SVG/1.1/DTD/svg11.dtd">
<!-- Generated by graphviz version 2.36.0 (20140111.2315)
 -->
<!-- Title: Segregation.applyRules Pages: 1 -->
<svg width="618pt" height="256pt"
 viewBox="0.00 0.00 618.00 256.00" xmlns="http://www.w3.org/2000/svg" xmlns:xlink="http://www.w3.org/1999/xlink">
<g id="graph0" class="graph" transform="scale(1 1) rotate(0) translate(4 252)">
<title>Segregation.applyRules</title>
<polygon fill="white" stroke="none" points="-4,4 -4,-252 614,-252 614,4 -4,4"/>
<!-- Node1 -->
<g id="node1" class="node"><title>Node1</title>
<polygon fill="#bfbfbf" stroke="black" points="0,-171.5 0,-190.5 128,-190.5 128,-171.5 0,-171.5"/>
<text text-anchor="middle" x="64" y="-178.5" font-family="Helvetica,sans-Serif" font-size="10.00">Segregation.applyRules</text>
</g>
<!-- Node2 -->
<g id="node2" class="node"><title>Node2</title>
<g id="a_node2"><a xlink:href="../../d2/d40/class_cellular_automata.html#a34ceed434c942d34ff03169b92684726" target="_top" xlink:title="CellularAutomata.getGrid">
<polygon fill="white" stroke="black" points="324,-228.5 324,-247.5 462,-247.5 462,-228.5 324,-228.5"/>
<text text-anchor="middle" x="393" y="-235.5" font-family="Helvetica,sans-Serif" font-size="10.00">CellularAutomata.getGrid</text>
</a>
</g>
</g>
<!-- Node1&#45;&gt;Node2 -->
<g id="edge1" class="edge"><title>Node1&#45;&gt;Node2</title>
<path fill="none" stroke="midnightblue" d="M119.732,-190.541C176.88,-200.502 266.472,-216.119 327.136,-226.693"/>
<polygon fill="midnightblue" stroke="midnightblue" points="326.909,-230.207 337.362,-228.476 328.111,-223.311 326.909,-230.207"/>
</g>
<!-- Node3 -->
<g id="node3" class="node"><title>Node3</title>
<g id="a_node3"><a xlink:href="../../da/d1e/class_segregation.html#a49b8fcb38373080b203a974f5c24d166" target="_top" xlink:title="Segregation.ruleOne">
<polygon fill="white" stroke="black" points="164,-133.5 164,-152.5 280,-152.5 280,-133.5 164,-133.5"/>
<text text-anchor="middle" x="222" y="-140.5" font-family="Helvetica,sans-Serif" font-size="10.00">Segregation.ruleOne</text>
</a>
</g>
</g>
<!-- Node1&#45;&gt;Node3 -->
<g id="edge2" class="edge"><title>Node1&#45;&gt;Node3</title>
<path fill="none" stroke="midnightblue" d="M104.365,-171.411C124.951,-166.396 150.34,-160.212 172.169,-154.895"/>
<polygon fill="midnightblue" stroke="midnightblue" points="173.03,-158.287 181.918,-152.52 171.373,-151.486 173.03,-158.287"/>
</g>
<!-- Node3&#45;&gt;Node2 -->
<g id="edge4" class="edge"><title>Node3&#45;&gt;Node2</title>
<path fill="none" stroke="midnightblue" d="M231.783,-152.517C247.231,-168.673 280.963,-201.419 316,-219 320.667,-221.342 325.643,-223.408 330.731,-225.23"/>
<polygon fill="midnightblue" stroke="midnightblue" points="330.009,-228.675 340.601,-228.438 332.173,-222.018 330.009,-228.675"/>
</g>
<!-- Node4 -->
<g id="node4" class="node"><title>Node4</title>
<g id="a_node4"><a xlink:href="../../d2/d40/class_cellular_automata.html#a5f076a375459bb648b121e1b34b2ef17" target="_top" xlink:title="CellularAutomata.findState">
<polygon fill="white" stroke="black" points="320,-190.5 320,-209.5 466,-209.5 466,-190.5 320,-190.5"/>
<text text-anchor="middle" x="393" y="-197.5" font-family="Helvetica,sans-Serif" font-size="10.00">CellularAutomata.findState</text>
</a>
</g>
</g>
<!-- Node3&#45;&gt;Node4 -->
<g id="edge3" class="edge"><title>Node3&#45;&gt;Node4</title>
<path fill="none" stroke="midnightblue" d="M244.101,-152.634C262.743,-160.9 290.805,-172.75 316,-181 323.452,-183.44 331.403,-185.745 339.249,-187.852"/>
<polygon fill="midnightblue" stroke="midnightblue" points="338.528,-191.28 349.086,-190.409 340.289,-184.505 338.528,-191.28"/>
</g>
<!-- Node5 -->
<g id="node5" class="node"><title>Node5</title>
<g id="a_node5"><a xlink:href="../../da/d74/class_grid.html#a33b84a1d6b40a447bdd4a33fa3daf555" target="_top" xlink:title="Grid.getNeighbors">
<polygon fill="white" stroke="black" points="341,-152.5 341,-171.5 445,-171.5 445,-152.5 341,-152.5"/>
<text text-anchor="middle" x="393" y="-159.5" font-family="Helvetica,sans-Serif" font-size="10.00">Grid.getNeighbors</text>
</a>
</g>
</g>
<!-- Node3&#45;&gt;Node5 -->
<g id="edge5" class="edge"><title>Node3&#45;&gt;Node5</title>
<path fill="none" stroke="midnightblue" d="M280.216,-149.433C296.472,-151.26 314.238,-153.258 330.725,-155.111"/>
<polygon fill="midnightblue" stroke="midnightblue" points="330.471,-158.605 340.8,-156.244 331.254,-151.648 330.471,-158.605"/>
</g>
<!-- Node9 -->
<g id="node9" class="node"><title>Node9</title>
<g id="a_node9"><a xlink:href="../../dd/d11/class_cell.html#a453aba7288f5e1bb8f06303958e18c97" target="_top" xlink:title="Cell.getState">
<polygon fill="white" stroke="black" points="353.5,-114.5 353.5,-133.5 432.5,-133.5 432.5,-114.5 353.5,-114.5"/>
<text text-anchor="middle" x="393" y="-121.5" font-family="Helvetica,sans-Serif" font-size="10.00">Cell.getState</text>
</a>
</g>
</g>
<!-- Node3&#45;&gt;Node9 -->
<g id="edge9" class="edge"><title>Node3&#45;&gt;Node9</title>
<path fill="none" stroke="midnightblue" d="M280.216,-136.567C300.765,-134.257 323.725,-131.676 343.466,-129.456"/>
<polygon fill="midnightblue" stroke="midnightblue" points="343.92,-132.928 353.466,-128.332 343.138,-125.971 343.92,-132.928"/>
</g>
<!-- Node10 -->
<g id="node10" class="node"><title>Node10</title>
<g id="a_node10"><a xlink:href="../../d2/d40/class_cellular_automata.html#aed4b2520936c215a49d97a1e0ff4a193" target="_top" xlink:title="CellularAutomata.getMyProb">
<polygon fill="white" stroke="black" points="316,-76.5 316,-95.5 470,-95.5 470,-76.5 316,-76.5"/>
<text text-anchor="middle" x="393" y="-83.5" font-family="Helvetica,sans-Serif" font-size="10.00">CellularAutomata.getMyProb</text>
</a>
</g>
</g>
<!-- Node3&#45;&gt;Node10 -->
<g id="edge10" class="edge"><title>Node3&#45;&gt;Node10</title>
<path fill="none" stroke="midnightblue" d="M244.101,-133.366C262.743,-125.1 290.805,-113.25 316,-105 323.452,-102.56 331.403,-100.255 339.249,-98.1485"/>
<polygon fill="midnightblue" stroke="midnightblue" points="340.289,-101.495 349.086,-95.5908 338.528,-94.7197 340.289,-101.495"/>
</g>
<!-- Node11 -->
<g id="node11" class="node"><title>Node11</title>
<g id="a_node11"><a xlink:href="../../d0/d8b/class_state.html#ad60b238c28b23c6e04c5d2be9b525b4c" target="_top" xlink:title="State.addToUpdate">
<polygon fill="white" stroke="black" points="338.5,-38.5 338.5,-57.5 447.5,-57.5 447.5,-38.5 338.5,-38.5"/>
<text text-anchor="middle" x="393" y="-45.5" font-family="Helvetica,sans-Serif" font-size="10.00">State.addToUpdate</text>
</a>
</g>
</g>
<!-- Node3&#45;&gt;Node11 -->
<g id="edge11" class="edge"><title>Node3&#45;&gt;Node11</title>
<path fill="none" stroke="midnightblue" d="M231.783,-133.483C247.231,-117.327 280.963,-84.5806 316,-67 320.667,-64.6584 325.643,-62.5917 330.731,-60.7703"/>
<polygon fill="midnightblue" stroke="midnightblue" points="332.173,-63.982 340.601,-57.562 330.009,-57.3248 332.173,-63.982"/>
</g>
<!-- Node12 -->
<g id="node12" class="node"><title>Node12</title>
<g id="a_node12"><a xlink:href="../../d0/d8b/class_state.html#af401107e11e7280c27e532a3529441bf" target="_top" xlink:title="State.getMyCurrent">
<polygon fill="white" stroke="black" points="337.5,-0.5 337.5,-19.5 448.5,-19.5 448.5,-0.5 337.5,-0.5"/>
<text text-anchor="middle" x="393" y="-7.5" font-family="Helvetica,sans-Serif" font-size="10.00">State.getMyCurrent</text>
</a>
</g>
</g>
<!-- Node3&#45;&gt;Node12 -->
<g id="edge12" class="edge"><title>Node3&#45;&gt;Node12</title>
<path fill="none" stroke="midnightblue" d="M228.032,-133.286C240.045,-111.103 272.66,-56.5201 316,-29 319.783,-26.5976 323.852,-24.4988 328.07,-22.6654"/>
<polygon fill="midnightblue" stroke="midnightblue" points="329.401,-25.9037 337.489,-19.0605 326.899,-19.3662 329.401,-25.9037"/>
</g>
<!-- Node6 -->
<g id="node6" class="node"><title>Node6</title>
<g id="a_node6"><a xlink:href="../../da/d74/class_grid.html#ab87098d7bfaf1eaf367e4342a5bce0ae" target="_top" xlink:title="Grid.checkBounds">
<polygon fill="white" stroke="black" points="506.5,-190.5 506.5,-209.5 609.5,-209.5 609.5,-190.5 506.5,-190.5"/>
<text text-anchor="middle" x="558" y="-197.5" font-family="Helvetica,sans-Serif" font-size="10.00">Grid.checkBounds</text>
</a>
</g>
</g>
<!-- Node5&#45;&gt;Node6 -->
<g id="edge6" class="edge"><title>Node5&#45;&gt;Node6</title>
<path fill="none" stroke="midnightblue" d="M435.132,-171.589C456.738,-176.626 483.409,-182.844 506.286,-188.177"/>
<polygon fill="midnightblue" stroke="midnightblue" points="505.63,-191.618 516.164,-190.48 507.22,-184.801 505.63,-191.618"/>
</g>
<!-- Node7 -->
<g id="node7" class="node"><title>Node7</title>
<g id="a_node7"><a xlink:href="../../dd/d11/class_cell.html#a4725094202cf38c727f2adcc3cf8b96f" target="_top" xlink:title="Cell.getPosX">
<polygon fill="white" stroke="black" points="520,-152.5 520,-171.5 596,-171.5 596,-152.5 520,-152.5"/>
<text text-anchor="middle" x="558" y="-159.5" font-family="Helvetica,sans-Serif" font-size="10.00">Cell.getPosX</text>
</a>
</g>
</g>
<!-- Node5&#45;&gt;Node7 -->
<g id="edge7" class="edge"><title>Node5&#45;&gt;Node7</title>
<path fill="none" stroke="midnightblue" d="M445.127,-162C465.719,-162 489.33,-162 509.537,-162"/>
<polygon fill="midnightblue" stroke="midnightblue" points="509.76,-165.5 519.76,-162 509.76,-158.5 509.76,-165.5"/>
</g>
<!-- Node8 -->
<g id="node8" class="node"><title>Node8</title>
<g id="a_node8"><a xlink:href="../../dd/d11/class_cell.html#ac445ab365d1ec19483e98841be73d11e" target="_top" xlink:title="Cell.getPosY">
<polygon fill="white" stroke="black" points="520.5,-114.5 520.5,-133.5 595.5,-133.5 595.5,-114.5 520.5,-114.5"/>
<text text-anchor="middle" x="558" y="-121.5" font-family="Helvetica,sans-Serif" font-size="10.00">Cell.getPosY</text>
</a>
</g>
</g>
<!-- Node5&#45;&gt;Node8 -->
<g id="edge8" class="edge"><title>Node5&#45;&gt;Node8</title>
<path fill="none" stroke="midnightblue" d="M435.132,-152.411C458.073,-147.063 486.723,-140.383 510.48,-134.845"/>
<polygon fill="midnightblue" stroke="midnightblue" points="511.387,-138.228 520.331,-132.549 509.797,-131.411 511.387,-138.228"/>
</g>
</g>
</svg>
