<?xml version="1.0" encoding="UTF-8" standalone="no"?>
<!DOCTYPE svg PUBLIC "-//W3C//DTD SVG 1.1//EN"
 "http://www.w3.org/Graphics/SVG/1.1/DTD/svg11.dtd">
<!-- Generated by graphviz version 2.36.0 (20140111.2315)
 -->
<!-- Title: Segregation.ruleOne Pages: 1 -->
<svg width="454pt" height="256pt"
 viewBox="0.00 0.00 454.00 256.00" xmlns="http://www.w3.org/2000/svg" xmlns:xlink="http://www.w3.org/1999/xlink">
<g id="graph0" class="graph" transform="scale(1 1) rotate(0) translate(4 252)">
<title>Segregation.ruleOne</title>
<polygon fill="white" stroke="none" points="-4,4 -4,-252 450,-252 450,4 -4,4"/>
<!-- Node1 -->
<g id="node1" class="node"><title>Node1</title>
<polygon fill="#bfbfbf" stroke="black" points="0,-114.5 0,-133.5 116,-133.5 116,-114.5 0,-114.5"/>
<text text-anchor="middle" x="58" y="-121.5" font-family="Helvetica,sans-Serif" font-size="10.00">Segregation.ruleOne</text>
</g>
<!-- Node2 -->
<g id="node2" class="node"><title>Node2</title>
<g id="a_node2"><a xlink:href="../../d0/d8b/class_state.html#ad60b238c28b23c6e04c5d2be9b525b4c" target="_top" xlink:title="State.addToUpdate">
<polygon fill="white" stroke="black" points="174.5,-228.5 174.5,-247.5 283.5,-247.5 283.5,-228.5 174.5,-228.5"/>
<text text-anchor="middle" x="229" y="-235.5" font-family="Helvetica,sans-Serif" font-size="10.00">State.addToUpdate</text>
</a>
</g>
</g>
<!-- Node1&#45;&gt;Node2 -->
<g id="edge1" class="edge"><title>Node1&#45;&gt;Node2</title>
<path fill="none" stroke="midnightblue" d="M65.4636,-133.502C79.0882,-152.767 112.753,-196.502 152,-219 155.956,-221.268 160.18,-223.268 164.534,-225.031"/>
<polygon fill="midnightblue" stroke="midnightblue" points="163.623,-228.423 174.217,-228.524 165.998,-221.838 163.623,-228.423"/>
</g>
<!-- Node3 -->
<g id="node3" class="node"><title>Node3</title>
<g id="a_node3"><a xlink:href="../../d2/d40/class_cellular_automata.html#a5f076a375459bb648b121e1b34b2ef17" target="_top" xlink:title="CellularAutomata.findState">
<polygon fill="white" stroke="black" points="156,-190.5 156,-209.5 302,-209.5 302,-190.5 156,-190.5"/>
<text text-anchor="middle" x="229" y="-197.5" font-family="Helvetica,sans-Serif" font-size="10.00">CellularAutomata.findState</text>
</a>
</g>
</g>
<!-- Node1&#45;&gt;Node3 -->
<g id="edge2" class="edge"><title>Node1&#45;&gt;Node3</title>
<path fill="none" stroke="midnightblue" d="M71.8622,-133.656C89.2041,-146.247 121.443,-168.174 152,-181 157.843,-183.453 164.077,-185.642 170.366,-187.582"/>
<polygon fill="midnightblue" stroke="midnightblue" points="169.666,-191.023 180.245,-190.429 171.605,-184.297 169.666,-191.023"/>
</g>
<!-- Node4 -->
<g id="node4" class="node"><title>Node4</title>
<g id="a_node4"><a xlink:href="../../d2/d40/class_cellular_automata.html#a34ceed434c942d34ff03169b92684726" target="_top" xlink:title="CellularAutomata.getGrid">
<polygon fill="white" stroke="black" points="160,-152.5 160,-171.5 298,-171.5 298,-152.5 160,-152.5"/>
<text text-anchor="middle" x="229" y="-159.5" font-family="Helvetica,sans-Serif" font-size="10.00">CellularAutomata.getGrid</text>
</a>
</g>
</g>
<!-- Node1&#45;&gt;Node4 -->
<g id="edge3" class="edge"><title>Node1&#45;&gt;Node4</title>
<path fill="none" stroke="midnightblue" d="M101.646,-133.589C124.148,-138.649 151.948,-144.9 175.738,-150.249"/>
<polygon fill="midnightblue" stroke="midnightblue" points="175.137,-153.701 185.661,-152.48 176.672,-146.871 175.137,-153.701"/>
</g>
<!-- Node5 -->
<g id="node5" class="node"><title>Node5</title>
<g id="a_node5"><a xlink:href="../../d0/d8b/class_state.html#af401107e11e7280c27e532a3529441bf" target="_top" xlink:title="State.getMyCurrent">
<polygon fill="white" stroke="black" points="173.5,-114.5 173.5,-133.5 284.5,-133.5 284.5,-114.5 173.5,-114.5"/>
<text text-anchor="middle" x="229" y="-121.5" font-family="Helvetica,sans-Serif" font-size="10.00">State.getMyCurrent</text>
</a>
</g>
</g>
<!-- Node1&#45;&gt;Node5 -->
<g id="edge4" class="edge"><title>Node1&#45;&gt;Node5</title>
<path fill="none" stroke="midnightblue" d="M116.216,-124C131.376,-124 147.849,-124 163.374,-124"/>
<polygon fill="midnightblue" stroke="midnightblue" points="163.415,-127.5 173.415,-124 163.415,-120.5 163.415,-127.5"/>
</g>
<!-- Node6 -->
<g id="node6" class="node"><title>Node6</title>
<g id="a_node6"><a xlink:href="../../d2/d40/class_cellular_automata.html#aed4b2520936c215a49d97a1e0ff4a193" target="_top" xlink:title="CellularAutomata.getMyProb">
<polygon fill="white" stroke="black" points="152,-76.5 152,-95.5 306,-95.5 306,-76.5 152,-76.5"/>
<text text-anchor="middle" x="229" y="-83.5" font-family="Helvetica,sans-Serif" font-size="10.00">CellularAutomata.getMyProb</text>
</a>
</g>
</g>
<!-- Node1&#45;&gt;Node6 -->
<g id="edge5" class="edge"><title>Node1&#45;&gt;Node6</title>
<path fill="none" stroke="midnightblue" d="M101.646,-114.411C124.148,-109.351 151.948,-103.1 175.738,-97.7512"/>
<polygon fill="midnightblue" stroke="midnightblue" points="176.672,-101.129 185.661,-95.5201 175.137,-94.2991 176.672,-101.129"/>
</g>
<!-- Node7 -->
<g id="node7" class="node"><title>Node7</title>
<g id="a_node7"><a xlink:href="../../da/d74/class_grid.html#a33b84a1d6b40a447bdd4a33fa3daf555" target="_top" xlink:title="Grid.getNeighbors">
<polygon fill="white" stroke="black" points="177,-38.5 177,-57.5 281,-57.5 281,-38.5 177,-38.5"/>
<text text-anchor="middle" x="229" y="-45.5" font-family="Helvetica,sans-Serif" font-size="10.00">Grid.getNeighbors</text>
</a>
</g>
</g>
<!-- Node1&#45;&gt;Node7 -->
<g id="edge6" class="edge"><title>Node1&#45;&gt;Node7</title>
<path fill="none" stroke="midnightblue" d="M71.8622,-114.344C89.2041,-101.753 121.443,-79.8264 152,-67 157.843,-64.5473 164.077,-62.3581 170.366,-60.4176"/>
<polygon fill="midnightblue" stroke="midnightblue" points="171.605,-63.703 180.245,-57.5709 169.666,-56.9767 171.605,-63.703"/>
</g>
<!-- Node11 -->
<g id="node11" class="node"><title>Node11</title>
<g id="a_node11"><a xlink:href="../../dd/d11/class_cell.html#a453aba7288f5e1bb8f06303958e18c97" target="_top" xlink:title="Cell.getState">
<polygon fill="white" stroke="black" points="189.5,-0.5 189.5,-19.5 268.5,-19.5 268.5,-0.5 189.5,-0.5"/>
<text text-anchor="middle" x="229" y="-7.5" font-family="Helvetica,sans-Serif" font-size="10.00">Cell.getState</text>
</a>
</g>
</g>
<!-- Node1&#45;&gt;Node11 -->
<g id="edge10" class="edge"><title>Node1&#45;&gt;Node11</title>
<path fill="none" stroke="midnightblue" d="M65.4636,-114.498C79.0882,-95.233 112.753,-51.4977 152,-29 160.407,-24.1808 170.022,-20.5724 179.52,-17.874"/>
<polygon fill="midnightblue" stroke="midnightblue" points="180.494,-21.2379 189.321,-15.379 178.767,-14.4543 180.494,-21.2379"/>
</g>
<!-- Node8 -->
<g id="node8" class="node"><title>Node8</title>
<g id="a_node8"><a xlink:href="../../da/d74/class_grid.html#ab87098d7bfaf1eaf367e4342a5bce0ae" target="_top" xlink:title="Grid.checkBounds">
<polygon fill="white" stroke="black" points="342.5,-76.5 342.5,-95.5 445.5,-95.5 445.5,-76.5 342.5,-76.5"/>
<text text-anchor="middle" x="394" y="-83.5" font-family="Helvetica,sans-Serif" font-size="10.00">Grid.checkBounds</text>
</a>
</g>
</g>
<!-- Node7&#45;&gt;Node8 -->
<g id="edge7" class="edge"><title>Node7&#45;&gt;Node8</title>
<path fill="none" stroke="midnightblue" d="M271.132,-57.589C292.738,-62.6261 319.409,-68.8438 342.286,-74.1771"/>
<polygon fill="midnightblue" stroke="midnightblue" points="341.63,-77.6181 352.164,-76.4799 343.22,-70.8009 341.63,-77.6181"/>
</g>
<!-- Node9 -->
<g id="node9" class="node"><title>Node9</title>
<g id="a_node9"><a xlink:href="../../dd/d11/class_cell.html#a4725094202cf38c727f2adcc3cf8b96f" target="_top" xlink:title="Cell.getPosX">
<polygon fill="white" stroke="black" points="356,-38.5 356,-57.5 432,-57.5 432,-38.5 356,-38.5"/>
<text text-anchor="middle" x="394" y="-45.5" font-family="Helvetica,sans-Serif" font-size="10.00">Cell.getPosX</text>
</a>
</g>
</g>
<!-- Node7&#45;&gt;Node9 -->
<g id="edge8" class="edge"><title>Node7&#45;&gt;Node9</title>
<path fill="none" stroke="midnightblue" d="M281.127,-48C301.719,-48 325.33,-48 345.537,-48"/>
<polygon fill="midnightblue" stroke="midnightblue" points="345.76,-51.5001 355.76,-48 345.76,-44.5001 345.76,-51.5001"/>
</g>
<!-- Node10 -->
<g id="node10" class="node"><title>Node10</title>
<g id="a_node10"><a xlink:href="../../dd/d11/class_cell.html#ac445ab365d1ec19483e98841be73d11e" target="_top" xlink:title="Cell.getPosY">
<polygon fill="white" stroke="black" points="356.5,-0.5 356.5,-19.5 431.5,-19.5 431.5,-0.5 356.5,-0.5"/>
<text text-anchor="middle" x="394" y="-7.5" font-family="Helvetica,sans-Serif" font-size="10.00">Cell.getPosY</text>
</a>
</g>
</g>
<!-- Node7&#45;&gt;Node10 -->
<g id="edge9" class="edge"><title>Node7&#45;&gt;Node10</title>
<path fill="none" stroke="midnightblue" d="M271.132,-38.411C294.073,-33.0627 322.723,-26.3835 346.48,-20.8452"/>
<polygon fill="midnightblue" stroke="midnightblue" points="347.387,-24.2277 356.331,-18.5487 345.797,-17.4105 347.387,-24.2277"/>
</g>
</g>
</svg>
