<?xml version="1.0" encoding="UTF-8" standalone="no"?>
<!DOCTYPE svg PUBLIC "-//W3C//DTD SVG 1.1//EN"
 "http://www.w3.org/Graphics/SVG/1.1/DTD/svg11.dtd">
<!-- Generated by graphviz version 2.36.0 (20140111.2315)
 -->
<!-- Title: Segregation.getSamePercent Pages: 1 -->
<svg width="622pt" height="161pt"
 viewBox="0.00 0.00 622.00 161.00" xmlns="http://www.w3.org/2000/svg" xmlns:xlink="http://www.w3.org/1999/xlink">
<g id="graph0" class="graph" transform="scale(1 1) rotate(0) translate(4 157)">
<title>Segregation.getSamePercent</title>
<polygon fill="white" stroke="none" points="-4,4 -4,-157 618,-157 618,4 -4,4"/>
<!-- Node1 -->
<g id="node1" class="node"><title>Node1</title>
<polygon fill="#bfbfbf" stroke="black" points="0.5,-38.5 0.5,-57.5 159.5,-57.5 159.5,-38.5 0.5,-38.5"/>
<text text-anchor="middle" x="80" y="-45.5" font-family="Helvetica,sans-Serif" font-size="10.00">Segregation.getSamePercent</text>
</g>
<!-- Node2 -->
<g id="node2" class="node"><title>Node2</title>
<g id="a_node2"><a xlink:href="../../da/d74/class_grid.html#a43e84876ecfc5265a5e37a39e64e794e" target="_top" xlink:title="Grid.findNeighbors">
<polygon fill="white" stroke="black" points="212.5,-76.5 212.5,-95.5 317.5,-95.5 317.5,-76.5 212.5,-76.5"/>
<text text-anchor="middle" x="265" y="-83.5" font-family="Helvetica,sans-Serif" font-size="10.00">Grid.findNeighbors</text>
</a>
</g>
</g>
<!-- Node1&#45;&gt;Node2 -->
<g id="edge1" class="edge"><title>Node1&#45;&gt;Node2</title>
<path fill="none" stroke="midnightblue" d="M127.179,-57.589C151.763,-62.6939 182.186,-69.0113 208.097,-74.3918"/>
<polygon fill="midnightblue" stroke="midnightblue" points="207.651,-77.8736 218.153,-76.4799 209.074,-71.0198 207.651,-77.8736"/>
</g>
<!-- Node8 -->
<g id="node8" class="node"><title>Node8</title>
<g id="a_node8"><a xlink:href="../../d2/d40/class_cellular_automata.html#a34ceed434c942d34ff03169b92684726" target="_top" xlink:title="CellularAutomata.getGrid">
<polygon fill="white" stroke="black" points="196,-38.5 196,-57.5 334,-57.5 334,-38.5 196,-38.5"/>
<text text-anchor="middle" x="265" y="-45.5" font-family="Helvetica,sans-Serif" font-size="10.00">CellularAutomata.getGrid</text>
</a>
</g>
</g>
<!-- Node1&#45;&gt;Node8 -->
<g id="edge7" class="edge"><title>Node1&#45;&gt;Node8</title>
<path fill="none" stroke="midnightblue" d="M159.671,-48C168.304,-48 177.094,-48 185.723,-48"/>
<polygon fill="midnightblue" stroke="midnightblue" points="185.76,-51.5001 195.76,-48 185.76,-44.5001 185.76,-51.5001"/>
</g>
<!-- Node9 -->
<g id="node9" class="node"><title>Node9</title>
<g id="a_node9"><a xlink:href="../../dd/d11/class_cell.html#aac3ac473652b817fe344534f4bec7e6f" target="_top" xlink:title="Cell.getState">
<polygon fill="white" stroke="black" points="225.5,-0.5 225.5,-19.5 304.5,-19.5 304.5,-0.5 225.5,-0.5"/>
<text text-anchor="middle" x="265" y="-7.5" font-family="Helvetica,sans-Serif" font-size="10.00">Cell.getState</text>
</a>
</g>
</g>
<!-- Node1&#45;&gt;Node9 -->
<g id="edge8" class="edge"><title>Node1&#45;&gt;Node9</title>
<path fill="none" stroke="midnightblue" d="M127.179,-38.411C154.031,-32.8351 187.85,-25.8126 215.146,-20.1445"/>
<polygon fill="midnightblue" stroke="midnightblue" points="216.181,-23.5044 225.26,-18.0443 214.758,-16.6506 216.181,-23.5044"/>
</g>
<!-- Node3 -->
<g id="node3" class="node"><title>Node3</title>
<g id="a_node3"><a xlink:href="../../da/d74/class_grid.html#a33b84a1d6b40a447bdd4a33fa3daf555" target="_top" xlink:title="Grid.getNeighbors">
<polygon fill="white" stroke="black" points="370,-76.5 370,-95.5 474,-95.5 474,-76.5 370,-76.5"/>
<text text-anchor="middle" x="422" y="-83.5" font-family="Helvetica,sans-Serif" font-size="10.00">Grid.getNeighbors</text>
</a>
</g>
</g>
<!-- Node2&#45;&gt;Node3 -->
<g id="edge2" class="edge"><title>Node2&#45;&gt;Node3</title>
<path fill="none" stroke="midnightblue" d="M317.613,-86C331.148,-86 345.873,-86 359.855,-86"/>
<polygon fill="midnightblue" stroke="midnightblue" points="359.876,-89.5001 369.876,-86 359.876,-82.5001 359.876,-89.5001"/>
</g>
<!-- Node4 -->
<g id="node4" class="node"><title>Node4</title>
<g id="a_node4"><a xlink:href="../../da/d74/class_grid.html#ab87098d7bfaf1eaf367e4342a5bce0ae" target="_top" xlink:title="Grid.checkBounds">
<polygon fill="white" stroke="black" points="510.5,-133.5 510.5,-152.5 613.5,-152.5 613.5,-133.5 510.5,-133.5"/>
<text text-anchor="middle" x="562" y="-140.5" font-family="Helvetica,sans-Serif" font-size="10.00">Grid.checkBounds</text>
</a>
</g>
</g>
<!-- Node3&#45;&gt;Node4 -->
<g id="edge3" class="edge"><title>Node3&#45;&gt;Node4</title>
<path fill="none" stroke="midnightblue" d="M443.958,-95.5418C461.495,-103.432 487.232,-114.795 510,-124 514.804,-125.942 519.891,-127.925 524.918,-129.84"/>
<polygon fill="midnightblue" stroke="midnightblue" points="523.831,-133.171 534.423,-133.415 526.295,-126.619 523.831,-133.171"/>
</g>
<!-- Node5 -->
<g id="node5" class="node"><title>Node5</title>
<g id="a_node5"><a xlink:href="../../dd/d11/class_cell.html#a4725094202cf38c727f2adcc3cf8b96f" target="_top" xlink:title="Cell.getPosX">
<polygon fill="white" stroke="black" points="524,-95.5 524,-114.5 600,-114.5 600,-95.5 524,-95.5"/>
<text text-anchor="middle" x="562" y="-102.5" font-family="Helvetica,sans-Serif" font-size="10.00">Cell.getPosX</text>
</a>
</g>
</g>
<!-- Node3&#45;&gt;Node5 -->
<g id="edge4" class="edge"><title>Node3&#45;&gt;Node5</title>
<path fill="none" stroke="midnightblue" d="M474.386,-93.0749C487.326,-94.8565 501.152,-96.76 513.871,-98.5113"/>
<polygon fill="midnightblue" stroke="midnightblue" points="513.413,-101.981 523.797,-99.8779 514.368,-95.0466 513.413,-101.981"/>
</g>
<!-- Node6 -->
<g id="node6" class="node"><title>Node6</title>
<g id="a_node6"><a xlink:href="../../dd/d11/class_cell.html#ac445ab365d1ec19483e98841be73d11e" target="_top" xlink:title="Cell.getPosY">
<polygon fill="white" stroke="black" points="524.5,-57.5 524.5,-76.5 599.5,-76.5 599.5,-57.5 524.5,-57.5"/>
<text text-anchor="middle" x="562" y="-64.5" font-family="Helvetica,sans-Serif" font-size="10.00">Cell.getPosY</text>
</a>
</g>
</g>
<!-- Node3&#45;&gt;Node6 -->
<g id="edge5" class="edge"><title>Node3&#45;&gt;Node6</title>
<path fill="none" stroke="midnightblue" d="M474.386,-78.9251C487.447,-77.1269 501.41,-75.2044 514.228,-73.4397"/>
<polygon fill="midnightblue" stroke="midnightblue" points="514.793,-76.8949 524.222,-72.0636 513.838,-69.9603 514.793,-76.8949"/>
</g>
<!-- Node7 -->
<g id="node7" class="node"><title>Node7</title>
<g id="a_node7"><a xlink:href="../../da/d74/class_grid.html#a669941947881f795a6ab4a70adf05172" target="_top" xlink:title="Grid.getTorusPoint">
<polygon fill="white" stroke="black" points="510,-19.5 510,-38.5 614,-38.5 614,-19.5 510,-19.5"/>
<text text-anchor="middle" x="562" y="-26.5" font-family="Helvetica,sans-Serif" font-size="10.00">Grid.getTorusPoint</text>
</a>
</g>
</g>
<!-- Node3&#45;&gt;Node7 -->
<g id="edge6" class="edge"><title>Node3&#45;&gt;Node7</title>
<path fill="none" stroke="midnightblue" d="M443.958,-76.4582C461.495,-68.5679 487.232,-57.2052 510,-48 514.804,-46.0576 519.891,-44.0755 524.918,-42.1597"/>
<polygon fill="midnightblue" stroke="midnightblue" points="526.295,-45.3813 534.423,-38.5855 523.831,-38.8293 526.295,-45.3813"/>
</g>
</g>
</svg>
